<?xml version="1.0" encoding="utf-8" standalone="no"?>
<!DOCTYPE svg PUBLIC "-//W3C//DTD SVG 1.1//EN"
  "http://www.w3.org/Graphics/SVG/1.1/DTD/svg11.dtd">
<svg xmlns:xlink="http://www.w3.org/1999/xlink" width="460.8pt" height="345.6pt" viewBox="0 0 460.8 345.6" xmlns="http://www.w3.org/2000/svg" version="1.1">
 <metadata>
  <rdf:RDF xmlns:dc="http://purl.org/dc/elements/1.1/" xmlns:cc="http://creativecommons.org/ns#" xmlns:rdf="http://www.w3.org/1999/02/22-rdf-syntax-ns#">
   <cc:Work>
    <dc:type rdf:resource="http://purl.org/dc/dcmitype/StillImage"/>
    <dc:date>2024-06-19T23:15:46.904901</dc:date>
    <dc:format>image/svg+xml</dc:format>
    <dc:creator>
     <cc:Agent>
      <dc:title>Matplotlib v3.7.5, https://matplotlib.org/</dc:title>
     </cc:Agent>
    </dc:creator>
   </cc:Work>
  </rdf:RDF>
 </metadata>
 <defs>
  <style type="text/css">*{stroke-linejoin: round; stroke-linecap: butt}</style>
 </defs>
 <g id="figure_1">
  <g id="patch_1">
   <path d="M 0 345.6 
L 460.8 345.6 
L 460.8 0 
L 0 0 
z
" style="fill: #ffffff"/>
  </g>
  <g id="axes_1">
   <g id="patch_2">
    <path d="M 0 293.76 
L 460.8 293.76 
L 460.8 3.456 
L 0 3.456 
z
" style="fill: #ffffff"/>
   </g>
   <g id="matplotlib.axis_1">
    <g id="xtick_1">
     <g id="line2d_1">
      <path d="M 93.635786 293.76 
L 93.635786 3.456 
" clip-path="url(#p49c6e1a906)" style="fill: none; stroke: #b0b0b0; stroke-width: 0.8; stroke-linecap: square"/>
     </g>
     <g id="line2d_2">
      <defs>
       <path id="m2e0beb71ca" d="M 0 0 
L 0 3.5 
" style="stroke: #000000; stroke-width: 0.8"/>
      </defs>
      <g>
       <use xlink:href="#m2e0beb71ca" x="93.635786" y="293.76" style="stroke: #000000; stroke-width: 0.8"/>
      </g>
     </g>
     <g id="text_1">
      <!-- -4 -->
      <g transform="translate(83.665473 315.956875) scale(0.2 -0.2)">
       <defs>
        <path id="DejaVuSans-2d" d="M 313 2009 
L 1997 2009 
L 1997 1497 
L 313 1497 
L 313 2009 
z
" transform="scale(0.015625)"/>
        <path id="DejaVuSans-34" d="M 2419 4116 
L 825 1625 
L 2419 1625 
L 2419 4116 
z
M 2253 4666 
L 3047 4666 
L 3047 1625 
L 3713 1625 
L 3713 1100 
L 3047 1100 
L 3047 0 
L 2419 0 
L 2419 1100 
L 313 1100 
L 313 1709 
L 2253 4666 
z
" transform="scale(0.015625)"/>
       </defs>
       <use xlink:href="#DejaVuSans-2d"/>
       <use xlink:href="#DejaVuSans-34" x="36.083984"/>
      </g>
     </g>
    </g>
    <g id="xtick_2">
     <g id="line2d_3">
      <path d="M 187.37284 293.76 
L 187.37284 3.456 
" clip-path="url(#p49c6e1a906)" style="fill: none; stroke: #b0b0b0; stroke-width: 0.8; stroke-linecap: square"/>
     </g>
     <g id="line2d_4">
      <g>
       <use xlink:href="#m2e0beb71ca" x="187.37284" y="293.76" style="stroke: #000000; stroke-width: 0.8"/>
      </g>
     </g>
     <g id="text_2">
      <!-- 0 -->
      <g transform="translate(181.01034 315.956875) scale(0.2 -0.2)">
       <defs>
        <path id="DejaVuSans-30" d="M 2034 4250 
Q 1547 4250 1301 3770 
Q 1056 3291 1056 2328 
Q 1056 1369 1301 889 
Q 1547 409 2034 409 
Q 2525 409 2770 889 
Q 3016 1369 3016 2328 
Q 3016 3291 2770 3770 
Q 2525 4250 2034 4250 
z
M 2034 4750 
Q 2819 4750 3233 4129 
Q 3647 3509 3647 2328 
Q 3647 1150 3233 529 
Q 2819 -91 2034 -91 
Q 1250 -91 836 529 
Q 422 1150 422 2328 
Q 422 3509 836 4129 
Q 1250 4750 2034 4750 
z
" transform="scale(0.015625)"/>
       </defs>
       <use xlink:href="#DejaVuSans-30"/>
      </g>
     </g>
    </g>
    <g id="xtick_3">
     <g id="line2d_5">
      <path d="M 281.109894 293.76 
L 281.109894 3.456 
" clip-path="url(#p49c6e1a906)" style="fill: none; stroke: #b0b0b0; stroke-width: 0.8; stroke-linecap: square"/>
     </g>
     <g id="line2d_6">
      <g>
       <use xlink:href="#m2e0beb71ca" x="281.109894" y="293.76" style="stroke: #000000; stroke-width: 0.8"/>
      </g>
     </g>
     <g id="text_3">
      <!-- 4 -->
      <g transform="translate(274.747394 315.956875) scale(0.2 -0.2)">
       <use xlink:href="#DejaVuSans-34"/>
      </g>
     </g>
    </g>
    <g id="xtick_4">
     <g id="line2d_7">
      <path d="M 374.846948 293.76 
L 374.846948 3.456 
" clip-path="url(#p49c6e1a906)" style="fill: none; stroke: #b0b0b0; stroke-width: 0.8; stroke-linecap: square"/>
     </g>
     <g id="line2d_8">
      <g>
       <use xlink:href="#m2e0beb71ca" x="374.846948" y="293.76" style="stroke: #000000; stroke-width: 0.8"/>
      </g>
     </g>
     <g id="text_4">
      <!-- 8 -->
      <g transform="translate(368.484448 315.956875) scale(0.2 -0.2)">
       <defs>
        <path id="DejaVuSans-38" d="M 2034 2216 
Q 1584 2216 1326 1975 
Q 1069 1734 1069 1313 
Q 1069 891 1326 650 
Q 1584 409 2034 409 
Q 2484 409 2743 651 
Q 3003 894 3003 1313 
Q 3003 1734 2745 1975 
Q 2488 2216 2034 2216 
z
M 1403 2484 
Q 997 2584 770 2862 
Q 544 3141 544 3541 
Q 544 4100 942 4425 
Q 1341 4750 2034 4750 
Q 2731 4750 3128 4425 
Q 3525 4100 3525 3541 
Q 3525 3141 3298 2862 
Q 3072 2584 2669 2484 
Q 3125 2378 3379 2068 
Q 3634 1759 3634 1313 
Q 3634 634 3220 271 
Q 2806 -91 2034 -91 
Q 1263 -91 848 271 
Q 434 634 434 1313 
Q 434 1759 690 2068 
Q 947 2378 1403 2484 
z
M 1172 3481 
Q 1172 3119 1398 2916 
Q 1625 2713 2034 2713 
Q 2441 2713 2670 2916 
Q 2900 3119 2900 3481 
Q 2900 3844 2670 4047 
Q 2441 4250 2034 4250 
Q 1625 4250 1398 4047 
Q 1172 3844 1172 3481 
z
" transform="scale(0.015625)"/>
       </defs>
       <use xlink:href="#DejaVuSans-38"/>
      </g>
     </g>
    </g>
    <g id="text_5">
     <!-- log10 of Df -->
     <g transform="translate(175.214063 339.313125) scale(0.2 -0.2)">
      <defs>
       <path id="DejaVuSans-6c" d="M 603 4863 
L 1178 4863 
L 1178 0 
L 603 0 
L 603 4863 
z
" transform="scale(0.015625)"/>
       <path id="DejaVuSans-6f" d="M 1959 3097 
Q 1497 3097 1228 2736 
Q 959 2375 959 1747 
Q 959 1119 1226 758 
Q 1494 397 1959 397 
Q 2419 397 2687 759 
Q 2956 1122 2956 1747 
Q 2956 2369 2687 2733 
Q 2419 3097 1959 3097 
z
M 1959 3584 
Q 2709 3584 3137 3096 
Q 3566 2609 3566 1747 
Q 3566 888 3137 398 
Q 2709 -91 1959 -91 
Q 1206 -91 779 398 
Q 353 888 353 1747 
Q 353 2609 779 3096 
Q 1206 3584 1959 3584 
z
" transform="scale(0.015625)"/>
       <path id="DejaVuSans-67" d="M 2906 1791 
Q 2906 2416 2648 2759 
Q 2391 3103 1925 3103 
Q 1463 3103 1205 2759 
Q 947 2416 947 1791 
Q 947 1169 1205 825 
Q 1463 481 1925 481 
Q 2391 481 2648 825 
Q 2906 1169 2906 1791 
z
M 3481 434 
Q 3481 -459 3084 -895 
Q 2688 -1331 1869 -1331 
Q 1566 -1331 1297 -1286 
Q 1028 -1241 775 -1147 
L 775 -588 
Q 1028 -725 1275 -790 
Q 1522 -856 1778 -856 
Q 2344 -856 2625 -561 
Q 2906 -266 2906 331 
L 2906 616 
Q 2728 306 2450 153 
Q 2172 0 1784 0 
Q 1141 0 747 490 
Q 353 981 353 1791 
Q 353 2603 747 3093 
Q 1141 3584 1784 3584 
Q 2172 3584 2450 3431 
Q 2728 3278 2906 2969 
L 2906 3500 
L 3481 3500 
L 3481 434 
z
" transform="scale(0.015625)"/>
       <path id="DejaVuSans-31" d="M 794 531 
L 1825 531 
L 1825 4091 
L 703 3866 
L 703 4441 
L 1819 4666 
L 2450 4666 
L 2450 531 
L 3481 531 
L 3481 0 
L 794 0 
L 794 531 
z
" transform="scale(0.015625)"/>
       <path id="DejaVuSans-20" transform="scale(0.015625)"/>
       <path id="DejaVuSans-66" d="M 2375 4863 
L 2375 4384 
L 1825 4384 
Q 1516 4384 1395 4259 
Q 1275 4134 1275 3809 
L 1275 3500 
L 2222 3500 
L 2222 3053 
L 1275 3053 
L 1275 0 
L 697 0 
L 697 3053 
L 147 3053 
L 147 3500 
L 697 3500 
L 697 3744 
Q 697 4328 969 4595 
Q 1241 4863 1831 4863 
L 2375 4863 
z
" transform="scale(0.015625)"/>
       <path id="DejaVuSans-44" d="M 1259 4147 
L 1259 519 
L 2022 519 
Q 2988 519 3436 956 
Q 3884 1394 3884 2338 
Q 3884 3275 3436 3711 
Q 2988 4147 2022 4147 
L 1259 4147 
z
M 628 4666 
L 1925 4666 
Q 3281 4666 3915 4102 
Q 4550 3538 4550 2338 
Q 4550 1131 3912 565 
Q 3275 0 1925 0 
L 628 0 
L 628 4666 
z
" transform="scale(0.015625)"/>
      </defs>
      <use xlink:href="#DejaVuSans-6c"/>
      <use xlink:href="#DejaVuSans-6f" x="27.783203"/>
      <use xlink:href="#DejaVuSans-67" x="88.964844"/>
      <use xlink:href="#DejaVuSans-31" x="152.441406"/>
      <use xlink:href="#DejaVuSans-30" x="216.064453"/>
      <use xlink:href="#DejaVuSans-20" x="279.6875"/>
      <use xlink:href="#DejaVuSans-6f" x="311.474609"/>
      <use xlink:href="#DejaVuSans-66" x="372.65625"/>
      <use xlink:href="#DejaVuSans-20" x="407.861328"/>
      <use xlink:href="#DejaVuSans-44" x="439.648438"/>
      <use xlink:href="#DejaVuSans-66" x="516.650391"/>
     </g>
    </g>
   </g>
   <g id="matplotlib.axis_2">
    <g id="ytick_1">
     <g id="line2d_9">
      <path d="M 0 293.76 
L 460.8 293.76 
" clip-path="url(#p49c6e1a906)" style="fill: none; stroke: #b0b0b0; stroke-width: 0.8; stroke-linecap: square"/>
     </g>
     <g id="line2d_10">
      <defs>
       <path id="m68285a2347" d="M 0 0 
L -3.5 0 
" style="stroke: #000000; stroke-width: 0.8"/>
      </defs>
      <g>
       <use xlink:href="#m68285a2347" x="0" y="293.76" style="stroke: #000000; stroke-width: 0.8"/>
      </g>
     </g>
    </g>
    <g id="ytick_2">
     <g id="line2d_11">
      <path d="M 0 236.274059 
L 460.8 236.274059 
" clip-path="url(#p49c6e1a906)" style="fill: none; stroke: #b0b0b0; stroke-width: 0.8; stroke-linecap: square"/>
     </g>
     <g id="line2d_12">
      <g>
       <use xlink:href="#m68285a2347" x="0" y="236.274059" style="stroke: #000000; stroke-width: 0.8"/>
      </g>
     </g>
    </g>
    <g id="ytick_3">
     <g id="line2d_13">
      <path d="M 0 178.788119 
L 460.8 178.788119 
" clip-path="url(#p49c6e1a906)" style="fill: none; stroke: #b0b0b0; stroke-width: 0.8; stroke-linecap: square"/>
     </g>
     <g id="line2d_14">
      <g>
       <use xlink:href="#m68285a2347" x="0" y="178.788119" style="stroke: #000000; stroke-width: 0.8"/>
      </g>
     </g>
    </g>
    <g id="ytick_4">
     <g id="line2d_15">
      <path d="M 0 121.302178 
L 460.8 121.302178 
" clip-path="url(#p49c6e1a906)" style="fill: none; stroke: #b0b0b0; stroke-width: 0.8; stroke-linecap: square"/>
     </g>
     <g id="line2d_16">
      <g>
       <use xlink:href="#m68285a2347" x="0" y="121.302178" style="stroke: #000000; stroke-width: 0.8"/>
      </g>
     </g>
    </g>
    <g id="ytick_5">
     <g id="line2d_17">
      <path d="M 0 63.816238 
L 460.8 63.816238 
" clip-path="url(#p49c6e1a906)" style="fill: none; stroke: #b0b0b0; stroke-width: 0.8; stroke-linecap: square"/>
     </g>
     <g id="line2d_18">
      <g>
       <use xlink:href="#m68285a2347" x="0" y="63.816238" style="stroke: #000000; stroke-width: 0.8"/>
      </g>
     </g>
    </g>
    <g id="ytick_6">
     <g id="line2d_19">
      <path d="M 0 6.330297 
L 460.8 6.330297 
" clip-path="url(#p49c6e1a906)" style="fill: none; stroke: #b0b0b0; stroke-width: 0.8; stroke-linecap: square"/>
     </g>
     <g id="line2d_20">
      <g>
       <use xlink:href="#m68285a2347" x="0" y="6.330297" style="stroke: #000000; stroke-width: 0.8"/>
      </g>
     </g>
    </g>
   </g>
   <g id="line2d_21">
    <path d="M -1 243.938851 
L -0.101268 243.938851 
L -0.101268 186.452911 
L 5.074012 186.452911 
L 5.074012 182.620515 
L 23.331036 182.620515 
L 23.331036 178.788119 
L 198.502493 178.788119 
L 198.584197 167.290931 
L 201.430239 167.290931 
L 201.431265 155.793743 
L 203.701244 155.793743 
L 203.701343 148.12895 
L 205.5568 148.12895 
L 205.556997 136.631762 
L 207.12565 136.631762 
L 207.12565 125.134574 
L 210.755942 125.134574 
L 210.755942 121.302178 
L 211.922074 121.302178 
L 211.922074 117.469782 
L 212.221797 117.469782 
L 212.221797 113.637386 
L 213.246936 113.637386 
L 213.246936 109.80499 
L 214.180063 109.80499 
L 214.180063 105.972594 
L 214.55176 105.972594 
L 214.55176 102.140198 
L 215.53912 102.140198 
L 215.53912 98.307802 
L 215.918526 98.307802 
L 215.918526 94.475406 
L 218.30659 94.475406 
L 218.30659 90.64301 
L 219.491912 90.64301 
L 219.491912 86.810614 
L 220.480232 86.810614 
L 220.480232 82.978218 
L 221.234441 82.978218 
L 221.234441 79.145822 
L 221.591579 79.145822 
L 221.591579 75.313426 
L 222.274117 75.313426 
L 222.274117 71.48103 
L 222.550011 71.48103 
L 222.550011 67.648634 
L 223.505427 67.648634 
L 223.505427 63.816238 
L 224.071006 63.816238 
L 224.07123 56.151446 
L 224.342427 56.151446 
L 224.342427 52.31905 
L 224.606758 52.31905 
L 224.606758 48.486653 
L 225.600467 48.486653 
L 225.600467 44.654257 
L 231.120981 44.654257 
L 231.120981 40.821861 
L 232.019361 40.821861 
L 232.019361 36.989465 
L 234.699469 36.989465 
L 234.699469 33.157069 
L 235.184614 33.157069 
L 235.184614 29.324673 
L 236.924331 29.324673 
L 236.924331 25.492277 
L 238.122472 25.492277 
L 238.122472 21.659881 
L 240.907366 21.659881 
L 240.907366 17.827485 
L 246.07804 17.827485 
L 246.07804 13.995089 
L 247.537944 13.995089 
L 247.537944 10.162693 
L 256.826896 10.162693 
L 256.826896 6.330297 
L 256.826896 6.330297 
L 460.8 6.330297 
L 460.8 6.330297 
" clip-path="url(#p49c6e1a906)" style="fill: none; stroke: #ff0000; stroke-width: 3; stroke-linecap: square"/>
   </g>
   <g id="line2d_22">
    <path d="M 216.820576 293.76 
L 216.820576 289.927604 
L 218.467375 289.927604 
L 218.467375 286.095208 
L 221.220701 286.095208 
L 221.220701 282.262812 
L 223.059201 282.262812 
L 223.059201 278.430416 
L 225.357909 278.430416 
L 225.357909 274.59802 
L 225.845308 274.59802 
L 225.845308 270.765624 
L 226.319648 270.765624 
L 226.319648 263.100832 
L 226.847677 263.100832 
L 226.847677 259.268436 
L 227.545676 259.268436 
L 227.545676 251.603644 
L 228.069119 251.603644 
L 228.069119 247.771248 
L 228.358295 247.771248 
L 228.358295 243.938851 
L 228.494663 243.938851 
L 228.591099 236.274059 
L 229.154651 236.274059 
L 229.154651 232.441663 
L 229.640206 232.441663 
L 229.640206 228.609267 
L 230.645496 228.609267 
L 230.645496 224.776871 
L 231.393232 224.776871 
L 231.393232 220.944475 
L 231.676282 220.944475 
L 231.676282 213.279683 
L 232.260581 213.279683 
L 232.260581 209.447287 
L 232.699156 209.447287 
L 232.699156 205.614891 
L 233.279993 205.614891 
L 233.279993 201.782495 
L 233.63053 201.782495 
L 233.63053 197.950099 
L 234.688056 197.950099 
L 234.79758 190.285307 
L 235.446986 190.285307 
L 235.446986 186.452911 
L 236.584864 186.452911 
L 236.584864 182.620515 
L 237.176966 182.620515 
L 237.176966 174.955723 
L 237.63069 174.955723 
L 237.63069 171.123327 
L 238.073468 171.123327 
L 238.073468 167.290931 
L 239.103005 167.290931 
L 239.103005 163.458535 
L 240.291844 163.458535 
L 240.291844 159.626139 
L 240.997324 159.626139 
L 241.093169 151.961347 
L 241.94397 151.961347 
L 241.94397 148.12895 
L 243.568046 148.12895 
L 243.568046 144.296554 
L 244.469286 144.296554 
L 244.469286 140.464158 
L 244.634293 140.464158 
L 244.688605 132.799366 
L 244.943851 132.799366 
L 245.047986 125.134574 
L 245.407202 125.134574 
L 245.407202 121.302178 
L 245.771191 121.302178 
L 245.771191 117.469782 
L 246.609961 117.469782 
L 246.609961 113.637386 
L 246.863496 113.637386 
L 246.931656 102.140198 
L 247.155305 102.140198 
L 247.155305 98.307802 
L 247.64171 98.307802 
L 247.669129 90.64301 
L 247.75448 90.64301 
L 247.75448 86.810614 
L 248.003867 86.810614 
L 248.030671 79.145822 
L 248.390639 79.145822 
L 248.390639 75.313426 
L 249.132168 75.313426 
L 249.132168 71.48103 
L 249.848063 71.48103 
L 249.848063 67.648634 
L 250.268476 67.648634 
L 250.268476 63.816238 
L 310.782814 63.816238 
L 310.782814 59.983842 
L 315.174097 59.983842 
L 315.174097 56.151446 
L 317.109411 56.151446 
L 317.109411 52.31905 
L 319.797583 52.31905 
L 319.797583 48.486653 
L 328.028116 48.486653 
L 328.028116 44.654257 
L 331.283969 44.654257 
L 331.283969 40.821861 
L 333.346998 40.821861 
L 333.346998 36.989465 
L 333.754735 36.989465 
L 333.754735 33.157069 
L 334.537096 33.157069 
L 334.537096 29.324673 
L 336.161038 29.324673 
L 336.161038 25.492277 
L 336.554333 25.492277 
L 336.554333 21.659881 
L 336.993773 21.659881 
L 336.993773 17.827485 
L 337.670994 17.827485 
L 337.670994 13.995089 
L 337.996259 13.995089 
L 337.996259 10.162693 
L 343.160098 10.162693 
L 343.160098 6.330297 
L 343.160098 6.330297 
L 460.8 6.330297 
L 460.8 6.330297 
" clip-path="url(#p49c6e1a906)" style="fill: none; stroke: #00bfbf; stroke-width: 1.5; stroke-linecap: square"/>
   </g>
   <g id="line2d_23">
    <path d="M 216.820576 293.76 
L 216.820576 289.927604 
L 217.963875 289.927604 
L 217.963875 286.095208 
L 218.467375 286.095208 
L 218.467375 282.262812 
L 219.122189 282.262812 
L 219.122189 278.430416 
L 221.220701 278.430416 
L 221.220701 274.59802 
L 223.059201 274.59802 
L 223.059201 270.765624 
L 224.203461 270.765624 
L 224.203461 266.933228 
L 224.454288 266.933228 
L 224.454288 263.100832 
L 224.731144 263.100832 
L 224.731144 259.268436 
L 225.357909 259.268436 
L 225.357909 255.43604 
L 226.319648 255.43604 
L 226.319648 247.771248 
L 226.847677 247.771248 
L 226.847677 243.938851 
L 227.514391 243.938851 
L 227.603388 228.609267 
L 227.773297 228.609267 
L 227.773297 224.776871 
L 227.927336 224.776871 
L 227.927336 220.944475 
L 228.358295 220.944475 
L 228.358295 217.112079 
L 228.494663 217.112079 
L 228.494663 213.279683 
L 228.76009 213.279683 
L 228.76009 209.447287 
L 228.877616 209.447287 
L 228.877616 205.614891 
L 230.097652 205.614891 
L 230.18549 194.117703 
L 230.264574 194.117703 
L 230.264574 190.285307 
L 230.645496 190.285307 
L 230.645496 186.452911 
L 231.676282 186.452911 
L 231.676282 178.788119 
L 235.446986 178.788119 
L 235.446986 174.955723 
L 235.944123 174.955723 
L 235.944123 171.123327 
L 236.152501 171.123327 
L 236.152501 167.290931 
L 236.454903 167.290931 
L 236.454903 163.458535 
L 237.63069 163.458535 
L 237.63069 159.626139 
L 238.073468 159.626139 
L 238.073468 155.793743 
L 238.645616 155.793743 
L 238.645616 151.961347 
L 239.103005 151.961347 
L 239.103005 148.12895 
L 239.743143 148.12895 
L 239.743143 144.296554 
L 240.014618 144.296554 
L 240.014618 140.464158 
L 240.291844 140.464158 
L 240.291844 136.631762 
L 240.997324 136.631762 
L 241.093169 128.96697 
L 241.94397 128.96697 
L 241.94397 125.134574 
L 242.433948 125.134574 
L 242.433948 121.302178 
L 243.484507 121.302178 
L 243.568046 113.637386 
L 244.271575 113.637386 
L 244.271575 109.80499 
L 244.469286 109.80499 
L 244.469286 105.972594 
L 244.943851 105.972594 
L 245.049812 94.475406 
L 245.057798 94.475406 
L 245.057798 90.64301 
L 246.085739 90.64301 
L 246.085739 86.810614 
L 246.338153 86.810614 
L 246.338153 82.978218 
L 246.574252 82.978218 
L 246.574252 79.145822 
L 246.863496 79.145822 
L 246.863496 75.313426 
L 247.155305 75.313426 
L 247.155305 71.48103 
L 247.30412 71.48103 
L 247.30412 67.648634 
L 247.620495 67.648634 
L 247.620495 63.816238 
L 290.552802 63.816238 
L 290.552802 59.983842 
L 308.363812 59.983842 
L 308.363812 56.151446 
L 310.782814 56.151446 
L 310.782814 52.31905 
L 315.174097 52.31905 
L 315.251298 44.654257 
L 317.109411 44.654257 
L 317.109411 40.821861 
L 319.797583 40.821861 
L 319.797583 36.989465 
L 324.965641 36.989465 
L 324.965641 33.157069 
L 326.485479 33.157069 
L 326.485479 29.324673 
L 327.10747 29.324673 
L 327.10747 25.492277 
L 328.028116 25.492277 
L 328.028116 21.659881 
L 331.055408 21.659881 
L 331.055408 17.827485 
L 331.283969 17.827485 
L 331.283969 13.995089 
L 333.346998 13.995089 
L 333.346998 10.162693 
L 333.754735 10.162693 
L 333.754735 6.330297 
L 333.754735 6.330297 
L 460.8 6.330297 
L 460.8 6.330297 
" clip-path="url(#p49c6e1a906)" style="fill: none; stroke: #bf00bf; stroke-width: 1.5; stroke-linecap: square"/>
   </g>
   <g id="line2d_24">
    <path d="M 198.744551 293.76 
L 198.744551 286.095208 
L 202.114595 286.095208 
L 202.114595 282.262812 
L 209.107989 282.262812 
L 209.107989 278.430416 
L 210.220947 278.430416 
L 210.220947 274.59802 
L 212.26693 274.59802 
L 212.26693 270.765624 
L 212.748046 270.765624 
L 212.748046 266.933228 
L 213.673625 266.933228 
L 213.673625 263.100832 
L 213.997044 263.100832 
L 213.997044 259.268436 
L 214.184915 259.268436 
L 214.184915 255.43604 
L 214.937462 255.43604 
L 214.937462 247.771248 
L 215.667767 247.771248 
L 215.667767 243.938851 
L 216.370697 243.938851 
L 216.370697 240.106455 
L 216.534825 240.106455 
L 216.534825 236.274059 
L 216.820576 236.274059 
L 216.820576 232.441663 
L 217.103097 232.441663 
L 217.103097 228.609267 
L 217.305056 228.609267 
L 217.305056 220.944475 
L 218.467375 220.944475 
L 218.467375 217.112079 
L 219.915713 217.112079 
L 219.915713 213.279683 
L 220.985573 213.279683 
L 220.985573 209.447287 
L 223.059201 209.447287 
L 223.059201 205.614891 
L 223.188775 205.614891 
L 223.188775 201.782495 
L 223.519902 201.782495 
L 223.519902 197.950099 
L 225.351489 197.950099 
L 225.351489 194.117703 
L 226.761195 194.117703 
L 226.847677 186.452911 
L 230.246006 186.452911 
L 230.246006 178.788119 
L 231.399619 178.788119 
L 231.399619 174.955723 
L 231.862223 174.955723 
L 231.862223 171.123327 
L 232.072747 171.123327 
L 232.072747 167.290931 
L 232.398534 167.290931 
L 232.398534 163.458535 
L 233.185077 163.458535 
L 233.185077 159.626139 
L 234.883567 159.626139 
L 234.883567 155.793743 
L 235.504553 155.793743 
L 235.504553 151.961347 
L 235.903904 151.961347 
L 235.944123 144.296554 
L 236.152501 144.296554 
L 236.152501 140.464158 
L 236.326419 140.464158 
L 236.382335 132.799366 
L 236.454903 132.799366 
L 236.454903 128.96697 
L 236.895798 128.96697 
L 236.895798 125.134574 
L 237.532424 125.134574 
L 237.532424 121.302178 
L 238.073468 121.302178 
L 238.073468 117.469782 
L 238.48619 117.469782 
L 238.48619 113.637386 
L 238.645616 113.637386 
L 238.645616 109.80499 
L 239.702404 109.80499 
L 239.743143 102.140198 
L 240.811638 102.140198 
L 240.811638 98.307802 
L 241.093169 98.307802 
L 241.093169 94.475406 
L 241.94397 94.475406 
L 241.94397 90.64301 
L 242.433948 90.64301 
L 242.433948 86.810614 
L 243.445696 86.810614 
L 243.447984 79.145822 
L 243.568046 79.145822 
L 243.568046 75.313426 
L 244.816928 75.313426 
L 244.816928 71.48103 
L 245.057798 71.48103 
L 245.057798 67.648634 
L 247.620495 67.648634 
L 247.620495 63.816238 
L 289.25734 63.816238 
L 289.25734 59.983842 
L 290.552802 59.983842 
L 290.552802 56.151446 
L 297.584267 56.151446 
L 297.584267 52.31905 
L 299.054693 52.31905 
L 299.054693 48.486653 
L 308.363812 48.486653 
L 308.363812 44.654257 
L 309.485856 44.654257 
L 309.485856 40.821861 
L 310.782814 40.821861 
L 310.782814 36.989465 
L 313.645192 36.989465 
L 313.645192 33.157069 
L 315.174097 33.157069 
L 315.174097 29.324673 
L 315.862773 29.324673 
L 315.862773 25.492277 
L 317.109411 25.492277 
L 317.109411 21.659881 
L 322.462346 21.659881 
L 322.462346 17.827485 
L 322.64821 17.827485 
L 322.64821 13.995089 
L 323.752629 13.995089 
L 323.752629 10.162693 
L 333.346998 10.162693 
L 333.346998 6.330297 
L 333.346998 6.330297 
L 460.8 6.330297 
L 460.8 6.330297 
" clip-path="url(#p49c6e1a906)" style="fill: none; stroke: #000000; stroke-width: 1.5; stroke-linecap: square"/>
   </g>
   <g id="line2d_25">
    <path d="M -0.101268 293.76 
L -0.101268 263.100832 
L 192.019936 263.100832 
L 192.019936 259.268436 
L 192.896623 259.268436 
L 192.896623 255.43604 
L 194.350167 255.43604 
L 194.350167 251.603644 
L 196.271446 251.603644 
L 196.340334 243.938851 
L 199.229655 243.938851 
L 199.229655 240.106455 
L 201.054106 240.106455 
L 201.054106 236.274059 
L 201.461194 236.274059 
L 201.515074 228.609267 
L 202.285824 228.609267 
L 202.285824 224.776871 
L 202.531675 224.776871 
L 202.531675 217.112079 
L 202.95067 217.112079 
L 202.95067 209.447287 
L 203.802938 209.447287 
L 203.802938 205.614891 
L 205.530739 205.614891 
L 205.530739 201.782495 
L 207.88914 201.782495 
L 207.957133 194.117703 
L 208.578943 194.117703 
L 208.578943 190.285307 
L 210.903157 190.285307 
L 210.903157 186.452911 
L 212.994531 186.452911 
L 212.994531 178.788119 
L 224.448819 178.788119 
L 224.448819 174.955723 
L 226.411202 174.955723 
L 226.411202 171.123327 
L 227.282335 171.123327 
L 227.282335 167.290931 
L 228.038508 167.290931 
L 228.038508 163.458535 
L 228.379172 163.458535 
L 228.379172 159.626139 
L 230.200874 159.626139 
L 230.200874 155.793743 
L 230.321792 155.793743 
L 230.321792 151.961347 
L 230.445224 151.961347 
L 230.445224 148.12895 
L 230.620345 148.12895 
L 230.620345 144.296554 
L 230.932785 144.296554 
L 230.932785 140.464158 
L 231.595471 140.464158 
L 231.595471 136.631762 
L 231.765602 136.631762 
L 231.765602 132.799366 
L 232.235173 132.799366 
L 232.251534 125.134574 
L 233.299507 125.134574 
L 233.3768 117.469782 
L 233.50829 117.469782 
L 233.583189 105.972594 
L 233.658746 105.972594 
L 233.658746 102.140198 
L 233.777843 102.140198 
L 233.860549 94.475406 
L 234.836551 94.475406 
L 234.836551 90.64301 
L 235.837164 90.64301 
L 235.837164 86.810614 
L 236.037435 86.810614 
L 236.037435 82.978218 
L 236.623283 82.978218 
L 236.623283 79.145822 
L 236.977628 79.145822 
L 236.977628 75.313426 
L 237.275382 75.313426 
L 237.275382 71.48103 
L 237.957266 71.48103 
L 237.957266 67.648634 
L 238.852398 67.648634 
L 238.852398 63.816238 
L 278.099649 63.816238 
L 278.099649 59.983842 
L 279.281336 59.983842 
L 279.281336 56.151446 
L 282.167493 56.151446 
L 282.167493 52.31905 
L 285.058506 52.31905 
L 285.058506 48.486653 
L 290.552802 48.486653 
L 290.552802 44.654257 
L 291.552207 44.654257 
L 291.552207 40.821861 
L 292.435254 40.821861 
L 292.435254 36.989465 
L 293.408728 36.989465 
L 293.408728 33.157069 
L 293.745578 33.157069 
L 293.745578 29.324673 
L 293.974893 29.324673 
L 293.974893 25.492277 
L 294.949742 25.492277 
L 294.949742 21.659881 
L 295.121579 21.659881 
L 295.121579 17.827485 
L 299.239953 17.827485 
L 299.239953 13.995089 
L 300.938062 13.995089 
L 300.938062 10.162693 
L 309.485856 10.162693 
L 309.485856 6.330297 
L 309.485856 6.330297 
L 460.8 6.330297 
L 460.8 6.330297 
" clip-path="url(#p49c6e1a906)" style="fill: none; stroke: #00bfbf; stroke-width: 1.5; stroke-linecap: square"/>
   </g>
   <g id="line2d_26">
    <path d="M -0.101268 293.76 
L -0.101268 243.938851 
L 120.527004 243.938851 
L 120.527004 240.106455 
L 139.655595 240.106455 
L 139.655595 236.274059 
L 141.333541 236.274059 
L 141.333541 232.441663 
L 144.031755 232.441663 
L 144.031755 228.609267 
L 147.17034 228.609267 
L 147.17034 224.776871 
L 149.132904 224.776871 
L 149.132904 220.944475 
L 156.714728 220.944475 
L 156.714728 217.112079 
L 159.065081 217.112079 
L 159.065081 213.279683 
L 170.7863 213.279683 
L 170.7863 209.447287 
L 172.883788 209.447287 
L 172.883788 205.614891 
L 176.426916 205.614891 
L 176.426916 197.950099 
L 178.259107 197.950099 
L 178.259107 194.117703 
L 178.982245 194.117703 
L 178.982245 190.285307 
L 180.382409 190.285307 
L 180.382409 186.452911 
L 191.98367 186.452911 
L 191.994488 178.788119 
L 207.934466 178.788119 
L 207.934466 174.955723 
L 209.459986 174.955723 
L 209.459986 171.123327 
L 210.731536 171.123327 
L 210.731536 167.290931 
L 212.010519 167.290931 
L 212.010519 163.458535 
L 212.16051 163.458535 
L 212.16051 159.626139 
L 213.615157 159.626139 
L 213.615157 155.793743 
L 214.457938 155.793743 
L 214.55176 148.12895 
L 215.513752 148.12895 
L 215.513752 144.296554 
L 216.353235 144.296554 
L 216.353235 140.464158 
L 217.517234 140.464158 
L 217.517234 136.631762 
L 218.35341 136.631762 
L 218.35341 132.799366 
L 219.581937 132.799366 
L 219.581937 128.96697 
L 220.603668 128.96697 
L 220.603668 125.134574 
L 220.983141 125.134574 
L 220.983141 121.302178 
L 221.285216 121.302178 
L 221.285216 117.469782 
L 222.123501 117.469782 
L 222.229917 109.80499 
L 222.338488 109.80499 
L 222.338488 105.972594 
L 223.560921 105.972594 
L 223.560921 102.140198 
L 224.277951 102.140198 
L 224.336306 90.64301 
L 224.495666 90.64301 
L 224.495666 86.810614 
L 224.96581 86.810614 
L 225.072673 79.145822 
L 225.993725 79.145822 
L 225.993725 75.313426 
L 226.116278 75.313426 
L 226.116278 71.48103 
L 228.367607 71.48103 
L 228.367607 67.648634 
L 230.184244 67.648634 
L 230.184244 63.816238 
L 238.988555 63.816238 
L 238.988555 59.983842 
L 242.270422 59.983842 
L 242.270422 56.151446 
L 244.05874 56.151446 
L 244.05874 52.31905 
L 248.335031 52.31905 
L 248.335031 48.486653 
L 251.422454 48.486653 
L 251.422454 44.654257 
L 252.493983 44.654257 
L 252.493983 40.821861 
L 254.626368 40.821861 
L 254.626368 36.989465 
L 256.1511 36.989465 
L 256.1511 33.157069 
L 257.184388 33.157069 
L 257.184388 29.324673 
L 264.118094 29.324673 
L 264.118094 25.492277 
L 265.774041 25.492277 
L 265.774041 21.659881 
L 270.011085 21.659881 
L 270.011085 17.827485 
L 271.389296 17.827485 
L 271.399198 10.162693 
L 289.743942 10.162693 
L 289.743942 6.330297 
L 289.743942 6.330297 
L 460.8 6.330297 
L 460.8 6.330297 
" clip-path="url(#p49c6e1a906)" style="fill: none; stroke: #bf00bf; stroke-width: 1.5; stroke-linecap: square"/>
   </g>
   <g id="line2d_27">
    <path d="M -1 243.938851 
L -0.101268 243.938851 
L -0.101268 186.452911 
L 5.074012 186.452911 
L 5.074012 182.620515 
L 23.331036 182.620515 
L 23.331036 178.788119 
L 198.502493 178.788119 
L 198.584197 167.290931 
L 201.430239 167.290931 
L 201.431265 155.793743 
L 203.701244 155.793743 
L 203.701343 148.12895 
L 205.5568 148.12895 
L 205.556997 136.631762 
L 207.12565 136.631762 
L 207.12565 125.134574 
L 210.755942 125.134574 
L 210.755942 121.302178 
L 211.922074 121.302178 
L 211.922074 117.469782 
L 212.221797 117.469782 
L 212.221797 113.637386 
L 213.246936 113.637386 
L 213.246936 109.80499 
L 214.180063 109.80499 
L 214.180063 105.972594 
L 214.55176 105.972594 
L 214.55176 102.140198 
L 215.53912 102.140198 
L 215.53912 98.307802 
L 215.918526 98.307802 
L 215.918526 94.475406 
L 218.30659 94.475406 
L 218.30659 90.64301 
L 219.491912 90.64301 
L 219.491912 86.810614 
L 220.480232 86.810614 
L 220.480232 82.978218 
L 221.234441 82.978218 
L 221.234441 79.145822 
L 221.591579 79.145822 
L 221.591579 75.313426 
L 222.274117 75.313426 
L 222.274117 71.48103 
L 222.550011 71.48103 
L 222.550011 67.648634 
L 223.505427 67.648634 
L 223.505427 63.816238 
L 224.071006 63.816238 
L 224.07123 56.151446 
L 224.342427 56.151446 
L 224.342427 52.31905 
L 224.606758 52.31905 
L 224.606758 48.486653 
L 225.600467 48.486653 
L 225.600467 44.654257 
L 231.120981 44.654257 
L 231.120981 40.821861 
L 232.019361 40.821861 
L 232.019361 36.989465 
L 234.699469 36.989465 
L 234.699469 33.157069 
L 235.184614 33.157069 
L 235.184614 29.324673 
L 236.924331 29.324673 
L 236.924331 25.492277 
L 238.122472 25.492277 
L 238.122472 21.659881 
L 240.907366 21.659881 
L 240.907366 17.827485 
L 246.07804 17.827485 
L 246.07804 13.995089 
L 247.537944 13.995089 
L 247.537944 10.162693 
L 256.826896 10.162693 
L 256.826896 6.330297 
L 256.826896 6.330297 
L 460.8 6.330297 
L 460.8 6.330297 
" clip-path="url(#p49c6e1a906)" style="fill: none; stroke: #000000; stroke-width: 1.5; stroke-linecap: square"/>
   </g>
   <g id="patch_3">
    <path d="M 0 293.76 
L 0 3.456 
" style="fill: none; stroke: #000000; stroke-width: 0.8; stroke-linejoin: miter; stroke-linecap: square"/>
   </g>
   <g id="patch_4">
    <path d="M 460.8 293.76 
L 460.8 3.456 
" style="fill: none; stroke: #000000; stroke-width: 0.8; stroke-linejoin: miter; stroke-linecap: square"/>
   </g>
   <g id="patch_5">
    <path d="M 0 293.76 
L 460.8 293.76 
" style="fill: none; stroke: #000000; stroke-width: 0.8; stroke-linejoin: miter; stroke-linecap: square"/>
   </g>
   <g id="patch_6">
    <path d="M 0 3.456 
L 460.8 3.456 
" style="fill: none; stroke: #000000; stroke-width: 0.8; stroke-linejoin: miter; stroke-linecap: square"/>
   </g>
   <g id="text_6">
    <!-- {f1-f5}, 5-D -->
    <g transform="translate(331.334 287.95392) scale(0.2 -0.2)">
     <defs>
      <path id="DejaVuSans-7b" d="M 3272 -594 
L 3272 -1044 
L 3078 -1044 
Q 2300 -1044 2036 -812 
Q 1772 -581 1772 109 
L 1772 856 
Q 1772 1328 1603 1509 
Q 1434 1691 991 1691 
L 800 1691 
L 800 2138 
L 991 2138 
Q 1438 2138 1605 2317 
Q 1772 2497 1772 2963 
L 1772 3713 
Q 1772 4403 2036 4633 
Q 2300 4863 3078 4863 
L 3272 4863 
L 3272 4416 
L 3059 4416 
Q 2619 4416 2484 4278 
Q 2350 4141 2350 3700 
L 2350 2925 
Q 2350 2434 2208 2212 
Q 2066 1991 1722 1913 
Q 2069 1828 2209 1606 
Q 2350 1384 2350 897 
L 2350 122 
Q 2350 -319 2484 -456 
Q 2619 -594 3059 -594 
L 3272 -594 
z
" transform="scale(0.015625)"/>
      <path id="DejaVuSans-35" d="M 691 4666 
L 3169 4666 
L 3169 4134 
L 1269 4134 
L 1269 2991 
Q 1406 3038 1543 3061 
Q 1681 3084 1819 3084 
Q 2600 3084 3056 2656 
Q 3513 2228 3513 1497 
Q 3513 744 3044 326 
Q 2575 -91 1722 -91 
Q 1428 -91 1123 -41 
Q 819 9 494 109 
L 494 744 
Q 775 591 1075 516 
Q 1375 441 1709 441 
Q 2250 441 2565 725 
Q 2881 1009 2881 1497 
Q 2881 1984 2565 2268 
Q 2250 2553 1709 2553 
Q 1456 2553 1204 2497 
Q 953 2441 691 2322 
L 691 4666 
z
" transform="scale(0.015625)"/>
      <path id="DejaVuSans-7d" d="M 800 -594 
L 1019 -594 
Q 1456 -594 1589 -459 
Q 1722 -325 1722 122 
L 1722 897 
Q 1722 1384 1862 1606 
Q 2003 1828 2350 1913 
Q 2003 1991 1862 2212 
Q 1722 2434 1722 2925 
L 1722 3700 
Q 1722 4144 1589 4280 
Q 1456 4416 1019 4416 
L 800 4416 
L 800 4863 
L 997 4863 
Q 1775 4863 2036 4633 
Q 2297 4403 2297 3713 
L 2297 2963 
Q 2297 2497 2465 2317 
Q 2634 2138 3078 2138 
L 3272 2138 
L 3272 1691 
L 3078 1691 
Q 2634 1691 2465 1509 
Q 2297 1328 2297 856 
L 2297 109 
Q 2297 -581 2036 -812 
Q 1775 -1044 997 -1044 
L 800 -1044 
L 800 -594 
z
" transform="scale(0.015625)"/>
      <path id="DejaVuSans-2c" d="M 750 794 
L 1409 794 
L 1409 256 
L 897 -744 
L 494 -744 
L 750 256 
L 750 794 
z
" transform="scale(0.015625)"/>
     </defs>
     <use xlink:href="#DejaVuSans-7b"/>
     <use xlink:href="#DejaVuSans-66" x="63.623047"/>
     <use xlink:href="#DejaVuSans-31" x="98.828125"/>
     <use xlink:href="#DejaVuSans-2d" x="162.451172"/>
     <use xlink:href="#DejaVuSans-66" x="198.535156"/>
     <use xlink:href="#DejaVuSans-35" x="233.740234"/>
     <use xlink:href="#DejaVuSans-7d" x="297.363281"/>
     <use xlink:href="#DejaVuSans-2c" x="360.986328"/>
     <use xlink:href="#DejaVuSans-20" x="392.773438"/>
     <use xlink:href="#DejaVuSans-35" x="424.560547"/>
     <use xlink:href="#DejaVuSans-2d" x="488.183594"/>
     <use xlink:href="#DejaVuSans-44" x="524.267578"/>
    </g>
   </g>
   <g id="text_7">
    <!-- v2.6.3 -->
    <g style="fill: #808080" transform="translate(214.71875 288.777272) scale(0.1 -0.1)">
     <defs>
      <path id="DejaVuSans-76" d="M 191 3500 
L 800 3500 
L 1894 563 
L 2988 3500 
L 3597 3500 
L 2284 0 
L 1503 0 
L 191 3500 
z
" transform="scale(0.015625)"/>
      <path id="DejaVuSans-32" d="M 1228 531 
L 3431 531 
L 3431 0 
L 469 0 
L 469 531 
Q 828 903 1448 1529 
Q 2069 2156 2228 2338 
Q 2531 2678 2651 2914 
Q 2772 3150 2772 3378 
Q 2772 3750 2511 3984 
Q 2250 4219 1831 4219 
Q 1534 4219 1204 4116 
Q 875 4013 500 3803 
L 500 4441 
Q 881 4594 1212 4672 
Q 1544 4750 1819 4750 
Q 2544 4750 2975 4387 
Q 3406 4025 3406 3419 
Q 3406 3131 3298 2873 
Q 3191 2616 2906 2266 
Q 2828 2175 2409 1742 
Q 1991 1309 1228 531 
z
" transform="scale(0.015625)"/>
      <path id="DejaVuSans-2e" d="M 684 794 
L 1344 794 
L 1344 0 
L 684 0 
L 684 794 
z
" transform="scale(0.015625)"/>
      <path id="DejaVuSans-36" d="M 2113 2584 
Q 1688 2584 1439 2293 
Q 1191 2003 1191 1497 
Q 1191 994 1439 701 
Q 1688 409 2113 409 
Q 2538 409 2786 701 
Q 3034 994 3034 1497 
Q 3034 2003 2786 2293 
Q 2538 2584 2113 2584 
z
M 3366 4563 
L 3366 3988 
Q 3128 4100 2886 4159 
Q 2644 4219 2406 4219 
Q 1781 4219 1451 3797 
Q 1122 3375 1075 2522 
Q 1259 2794 1537 2939 
Q 1816 3084 2150 3084 
Q 2853 3084 3261 2657 
Q 3669 2231 3669 1497 
Q 3669 778 3244 343 
Q 2819 -91 2113 -91 
Q 1303 -91 875 529 
Q 447 1150 447 2328 
Q 447 3434 972 4092 
Q 1497 4750 2381 4750 
Q 2619 4750 2861 4703 
Q 3103 4656 3366 4563 
z
" transform="scale(0.015625)"/>
      <path id="DejaVuSans-33" d="M 2597 2516 
Q 3050 2419 3304 2112 
Q 3559 1806 3559 1356 
Q 3559 666 3084 287 
Q 2609 -91 1734 -91 
Q 1441 -91 1130 -33 
Q 819 25 488 141 
L 488 750 
Q 750 597 1062 519 
Q 1375 441 1716 441 
Q 2309 441 2620 675 
Q 2931 909 2931 1356 
Q 2931 1769 2642 2001 
Q 2353 2234 1838 2234 
L 1294 2234 
L 1294 2753 
L 1863 2753 
Q 2328 2753 2575 2939 
Q 2822 3125 2822 3475 
Q 2822 3834 2567 4026 
Q 2313 4219 1838 4219 
Q 1578 4219 1281 4162 
Q 984 4106 628 3988 
L 628 4550 
Q 988 4650 1302 4700 
Q 1616 4750 1894 4750 
Q 2613 4750 3031 4423 
Q 3450 4097 3450 3541 
Q 3450 3153 3228 2886 
Q 3006 2619 2597 2516 
z
" transform="scale(0.015625)"/>
     </defs>
     <use xlink:href="#DejaVuSans-76"/>
     <use xlink:href="#DejaVuSans-32" x="59.179688"/>
     <use xlink:href="#DejaVuSans-2e" x="122.802734"/>
     <use xlink:href="#DejaVuSans-36" x="154.589844"/>
     <use xlink:href="#DejaVuSans-2e" x="218.212891"/>
     <use xlink:href="#DejaVuSans-33" x="250"/>
    </g>
   </g>
  </g>
 </g>
 <defs>
  <clipPath id="p49c6e1a906">
   <rect x="0" y="3.456" width="460.8" height="290.304"/>
  </clipPath>
 </defs>
</svg>
