<?xml version="1.0" encoding="utf-8" standalone="no"?>
<!DOCTYPE svg PUBLIC "-//W3C//DTD SVG 1.1//EN"
  "http://www.w3.org/Graphics/SVG/1.1/DTD/svg11.dtd">
<svg xmlns:xlink="http://www.w3.org/1999/xlink" width="460.8pt" height="345.6pt" viewBox="0 0 460.8 345.6" xmlns="http://www.w3.org/2000/svg" version="1.1">
 <metadata>
  <rdf:RDF xmlns:dc="http://purl.org/dc/elements/1.1/" xmlns:cc="http://creativecommons.org/ns#" xmlns:rdf="http://www.w3.org/1999/02/22-rdf-syntax-ns#">
   <cc:Work>
    <dc:type rdf:resource="http://purl.org/dc/dcmitype/StillImage"/>
    <dc:date>2024-06-19T23:15:41.214392</dc:date>
    <dc:format>image/svg+xml</dc:format>
    <dc:creator>
     <cc:Agent>
      <dc:title>Matplotlib v3.7.5, https://matplotlib.org/</dc:title>
     </cc:Agent>
    </dc:creator>
   </cc:Work>
  </rdf:RDF>
 </metadata>
 <defs>
  <style type="text/css">*{stroke-linejoin: round; stroke-linecap: butt}</style>
 </defs>
 <g id="figure_1">
  <g id="patch_1">
   <path d="M 0 345.6 
L 460.8 345.6 
L 460.8 0 
L 0 0 
z
" style="fill: #ffffff"/>
  </g>
  <g id="axes_1">
   <g id="patch_2">
    <path d="M 0 293.76 
L 460.8 293.76 
L 460.8 3.456 
L 0 3.456 
z
" style="fill: #ffffff"/>
   </g>
   <g id="matplotlib.axis_1">
    <g id="xtick_1">
     <g id="line2d_1">
      <path d="M 93.635786 293.76 
L 93.635786 3.456 
" clip-path="url(#p6849074776)" style="fill: none; stroke: #b0b0b0; stroke-width: 0.8; stroke-linecap: square"/>
     </g>
     <g id="line2d_2">
      <defs>
       <path id="m2d25d6a41e" d="M 0 0 
L 0 3.5 
" style="stroke: #000000; stroke-width: 0.8"/>
      </defs>
      <g>
       <use xlink:href="#m2d25d6a41e" x="93.635786" y="293.76" style="stroke: #000000; stroke-width: 0.8"/>
      </g>
     </g>
     <g id="text_1">
      <!-- -4 -->
      <g transform="translate(83.665473 315.956875) scale(0.2 -0.2)">
       <defs>
        <path id="DejaVuSans-2d" d="M 313 2009 
L 1997 2009 
L 1997 1497 
L 313 1497 
L 313 2009 
z
" transform="scale(0.015625)"/>
        <path id="DejaVuSans-34" d="M 2419 4116 
L 825 1625 
L 2419 1625 
L 2419 4116 
z
M 2253 4666 
L 3047 4666 
L 3047 1625 
L 3713 1625 
L 3713 1100 
L 3047 1100 
L 3047 0 
L 2419 0 
L 2419 1100 
L 313 1100 
L 313 1709 
L 2253 4666 
z
" transform="scale(0.015625)"/>
       </defs>
       <use xlink:href="#DejaVuSans-2d"/>
       <use xlink:href="#DejaVuSans-34" x="36.083984"/>
      </g>
     </g>
    </g>
    <g id="xtick_2">
     <g id="line2d_3">
      <path d="M 187.37284 293.76 
L 187.37284 3.456 
" clip-path="url(#p6849074776)" style="fill: none; stroke: #b0b0b0; stroke-width: 0.8; stroke-linecap: square"/>
     </g>
     <g id="line2d_4">
      <g>
       <use xlink:href="#m2d25d6a41e" x="187.37284" y="293.76" style="stroke: #000000; stroke-width: 0.8"/>
      </g>
     </g>
     <g id="text_2">
      <!-- 0 -->
      <g transform="translate(181.01034 315.956875) scale(0.2 -0.2)">
       <defs>
        <path id="DejaVuSans-30" d="M 2034 4250 
Q 1547 4250 1301 3770 
Q 1056 3291 1056 2328 
Q 1056 1369 1301 889 
Q 1547 409 2034 409 
Q 2525 409 2770 889 
Q 3016 1369 3016 2328 
Q 3016 3291 2770 3770 
Q 2525 4250 2034 4250 
z
M 2034 4750 
Q 2819 4750 3233 4129 
Q 3647 3509 3647 2328 
Q 3647 1150 3233 529 
Q 2819 -91 2034 -91 
Q 1250 -91 836 529 
Q 422 1150 422 2328 
Q 422 3509 836 4129 
Q 1250 4750 2034 4750 
z
" transform="scale(0.015625)"/>
       </defs>
       <use xlink:href="#DejaVuSans-30"/>
      </g>
     </g>
    </g>
    <g id="xtick_3">
     <g id="line2d_5">
      <path d="M 281.109894 293.76 
L 281.109894 3.456 
" clip-path="url(#p6849074776)" style="fill: none; stroke: #b0b0b0; stroke-width: 0.8; stroke-linecap: square"/>
     </g>
     <g id="line2d_6">
      <g>
       <use xlink:href="#m2d25d6a41e" x="281.109894" y="293.76" style="stroke: #000000; stroke-width: 0.8"/>
      </g>
     </g>
     <g id="text_3">
      <!-- 4 -->
      <g transform="translate(274.747394 315.956875) scale(0.2 -0.2)">
       <use xlink:href="#DejaVuSans-34"/>
      </g>
     </g>
    </g>
    <g id="xtick_4">
     <g id="line2d_7">
      <path d="M 374.846948 293.76 
L 374.846948 3.456 
" clip-path="url(#p6849074776)" style="fill: none; stroke: #b0b0b0; stroke-width: 0.8; stroke-linecap: square"/>
     </g>
     <g id="line2d_8">
      <g>
       <use xlink:href="#m2d25d6a41e" x="374.846948" y="293.76" style="stroke: #000000; stroke-width: 0.8"/>
      </g>
     </g>
     <g id="text_4">
      <!-- 8 -->
      <g transform="translate(368.484448 315.956875) scale(0.2 -0.2)">
       <defs>
        <path id="DejaVuSans-38" d="M 2034 2216 
Q 1584 2216 1326 1975 
Q 1069 1734 1069 1313 
Q 1069 891 1326 650 
Q 1584 409 2034 409 
Q 2484 409 2743 651 
Q 3003 894 3003 1313 
Q 3003 1734 2745 1975 
Q 2488 2216 2034 2216 
z
M 1403 2484 
Q 997 2584 770 2862 
Q 544 3141 544 3541 
Q 544 4100 942 4425 
Q 1341 4750 2034 4750 
Q 2731 4750 3128 4425 
Q 3525 4100 3525 3541 
Q 3525 3141 3298 2862 
Q 3072 2584 2669 2484 
Q 3125 2378 3379 2068 
Q 3634 1759 3634 1313 
Q 3634 634 3220 271 
Q 2806 -91 2034 -91 
Q 1263 -91 848 271 
Q 434 634 434 1313 
Q 434 1759 690 2068 
Q 947 2378 1403 2484 
z
M 1172 3481 
Q 1172 3119 1398 2916 
Q 1625 2713 2034 2713 
Q 2441 2713 2670 2916 
Q 2900 3119 2900 3481 
Q 2900 3844 2670 4047 
Q 2441 4250 2034 4250 
Q 1625 4250 1398 4047 
Q 1172 3844 1172 3481 
z
" transform="scale(0.015625)"/>
       </defs>
       <use xlink:href="#DejaVuSans-38"/>
      </g>
     </g>
    </g>
    <g id="text_5">
     <!-- log10 of Df -->
     <g transform="translate(175.214063 339.313125) scale(0.2 -0.2)">
      <defs>
       <path id="DejaVuSans-6c" d="M 603 4863 
L 1178 4863 
L 1178 0 
L 603 0 
L 603 4863 
z
" transform="scale(0.015625)"/>
       <path id="DejaVuSans-6f" d="M 1959 3097 
Q 1497 3097 1228 2736 
Q 959 2375 959 1747 
Q 959 1119 1226 758 
Q 1494 397 1959 397 
Q 2419 397 2687 759 
Q 2956 1122 2956 1747 
Q 2956 2369 2687 2733 
Q 2419 3097 1959 3097 
z
M 1959 3584 
Q 2709 3584 3137 3096 
Q 3566 2609 3566 1747 
Q 3566 888 3137 398 
Q 2709 -91 1959 -91 
Q 1206 -91 779 398 
Q 353 888 353 1747 
Q 353 2609 779 3096 
Q 1206 3584 1959 3584 
z
" transform="scale(0.015625)"/>
       <path id="DejaVuSans-67" d="M 2906 1791 
Q 2906 2416 2648 2759 
Q 2391 3103 1925 3103 
Q 1463 3103 1205 2759 
Q 947 2416 947 1791 
Q 947 1169 1205 825 
Q 1463 481 1925 481 
Q 2391 481 2648 825 
Q 2906 1169 2906 1791 
z
M 3481 434 
Q 3481 -459 3084 -895 
Q 2688 -1331 1869 -1331 
Q 1566 -1331 1297 -1286 
Q 1028 -1241 775 -1147 
L 775 -588 
Q 1028 -725 1275 -790 
Q 1522 -856 1778 -856 
Q 2344 -856 2625 -561 
Q 2906 -266 2906 331 
L 2906 616 
Q 2728 306 2450 153 
Q 2172 0 1784 0 
Q 1141 0 747 490 
Q 353 981 353 1791 
Q 353 2603 747 3093 
Q 1141 3584 1784 3584 
Q 2172 3584 2450 3431 
Q 2728 3278 2906 2969 
L 2906 3500 
L 3481 3500 
L 3481 434 
z
" transform="scale(0.015625)"/>
       <path id="DejaVuSans-31" d="M 794 531 
L 1825 531 
L 1825 4091 
L 703 3866 
L 703 4441 
L 1819 4666 
L 2450 4666 
L 2450 531 
L 3481 531 
L 3481 0 
L 794 0 
L 794 531 
z
" transform="scale(0.015625)"/>
       <path id="DejaVuSans-20" transform="scale(0.015625)"/>
       <path id="DejaVuSans-66" d="M 2375 4863 
L 2375 4384 
L 1825 4384 
Q 1516 4384 1395 4259 
Q 1275 4134 1275 3809 
L 1275 3500 
L 2222 3500 
L 2222 3053 
L 1275 3053 
L 1275 0 
L 697 0 
L 697 3053 
L 147 3053 
L 147 3500 
L 697 3500 
L 697 3744 
Q 697 4328 969 4595 
Q 1241 4863 1831 4863 
L 2375 4863 
z
" transform="scale(0.015625)"/>
       <path id="DejaVuSans-44" d="M 1259 4147 
L 1259 519 
L 2022 519 
Q 2988 519 3436 956 
Q 3884 1394 3884 2338 
Q 3884 3275 3436 3711 
Q 2988 4147 2022 4147 
L 1259 4147 
z
M 628 4666 
L 1925 4666 
Q 3281 4666 3915 4102 
Q 4550 3538 4550 2338 
Q 4550 1131 3912 565 
Q 3275 0 1925 0 
L 628 0 
L 628 4666 
z
" transform="scale(0.015625)"/>
      </defs>
      <use xlink:href="#DejaVuSans-6c"/>
      <use xlink:href="#DejaVuSans-6f" x="27.783203"/>
      <use xlink:href="#DejaVuSans-67" x="88.964844"/>
      <use xlink:href="#DejaVuSans-31" x="152.441406"/>
      <use xlink:href="#DejaVuSans-30" x="216.064453"/>
      <use xlink:href="#DejaVuSans-20" x="279.6875"/>
      <use xlink:href="#DejaVuSans-6f" x="311.474609"/>
      <use xlink:href="#DejaVuSans-66" x="372.65625"/>
      <use xlink:href="#DejaVuSans-20" x="407.861328"/>
      <use xlink:href="#DejaVuSans-44" x="439.648438"/>
      <use xlink:href="#DejaVuSans-66" x="516.650391"/>
     </g>
    </g>
   </g>
   <g id="matplotlib.axis_2">
    <g id="ytick_1">
     <g id="line2d_9">
      <path d="M 0 293.76 
L 460.8 293.76 
" clip-path="url(#p6849074776)" style="fill: none; stroke: #b0b0b0; stroke-width: 0.8; stroke-linecap: square"/>
     </g>
     <g id="line2d_10">
      <defs>
       <path id="m31aa7102a8" d="M 0 0 
L -3.5 0 
" style="stroke: #000000; stroke-width: 0.8"/>
      </defs>
      <g>
       <use xlink:href="#m31aa7102a8" x="0" y="293.76" style="stroke: #000000; stroke-width: 0.8"/>
      </g>
     </g>
    </g>
    <g id="ytick_2">
     <g id="line2d_11">
      <path d="M 0 236.274059 
L 460.8 236.274059 
" clip-path="url(#p6849074776)" style="fill: none; stroke: #b0b0b0; stroke-width: 0.8; stroke-linecap: square"/>
     </g>
     <g id="line2d_12">
      <g>
       <use xlink:href="#m31aa7102a8" x="0" y="236.274059" style="stroke: #000000; stroke-width: 0.8"/>
      </g>
     </g>
    </g>
    <g id="ytick_3">
     <g id="line2d_13">
      <path d="M 0 178.788119 
L 460.8 178.788119 
" clip-path="url(#p6849074776)" style="fill: none; stroke: #b0b0b0; stroke-width: 0.8; stroke-linecap: square"/>
     </g>
     <g id="line2d_14">
      <g>
       <use xlink:href="#m31aa7102a8" x="0" y="178.788119" style="stroke: #000000; stroke-width: 0.8"/>
      </g>
     </g>
    </g>
    <g id="ytick_4">
     <g id="line2d_15">
      <path d="M 0 121.302178 
L 460.8 121.302178 
" clip-path="url(#p6849074776)" style="fill: none; stroke: #b0b0b0; stroke-width: 0.8; stroke-linecap: square"/>
     </g>
     <g id="line2d_16">
      <g>
       <use xlink:href="#m31aa7102a8" x="0" y="121.302178" style="stroke: #000000; stroke-width: 0.8"/>
      </g>
     </g>
    </g>
    <g id="ytick_5">
     <g id="line2d_17">
      <path d="M 0 63.816238 
L 460.8 63.816238 
" clip-path="url(#p6849074776)" style="fill: none; stroke: #b0b0b0; stroke-width: 0.8; stroke-linecap: square"/>
     </g>
     <g id="line2d_18">
      <g>
       <use xlink:href="#m31aa7102a8" x="0" y="63.816238" style="stroke: #000000; stroke-width: 0.8"/>
      </g>
     </g>
    </g>
    <g id="ytick_6">
     <g id="line2d_19">
      <path d="M 0 6.330297 
L 460.8 6.330297 
" clip-path="url(#p6849074776)" style="fill: none; stroke: #b0b0b0; stroke-width: 0.8; stroke-linecap: square"/>
     </g>
     <g id="line2d_20">
      <g>
       <use xlink:href="#m31aa7102a8" x="0" y="6.330297" style="stroke: #000000; stroke-width: 0.8"/>
      </g>
     </g>
    </g>
   </g>
   <g id="line2d_21">
    <path d="M 84.218959 293.76 
L 84.218959 289.927604 
L 93.210337 289.927604 
L 93.210337 286.095208 
L 95.30274 286.095208 
L 95.30274 282.262812 
L 96.246846 282.262812 
L 96.246846 278.430416 
L 98.120768 278.430416 
L 98.120768 274.59802 
L 101.354515 274.59802 
L 101.354515 270.765624 
L 103.416153 270.765624 
L 103.416153 266.933228 
L 103.569216 266.933228 
L 103.569216 263.100832 
L 104.649152 263.100832 
L 104.649152 259.268436 
L 106.639667 259.268436 
L 106.639667 255.43604 
L 107.745893 255.43604 
L 107.745893 251.603644 
L 109.812175 251.603644 
L 109.812175 247.771248 
L 110.369954 247.771248 
L 110.369954 243.938851 
L 111.873345 243.938851 
L 111.873345 240.106455 
L 113.326655 240.106455 
L 113.326655 236.274059 
L 133.2368 236.274059 
L 133.2368 232.441663 
L 134.256455 232.441663 
L 134.256455 228.609267 
L 144.769849 228.609267 
L 144.769849 224.776871 
L 147.894576 224.776871 
L 147.894576 220.944475 
L 160.05169 220.944475 
L 160.05169 217.112079 
L 166.557153 217.112079 
L 166.611622 209.447287 
L 170.838195 209.447287 
L 170.838195 205.614891 
L 176.435889 205.614891 
L 176.435889 201.782495 
L 178.717016 201.782495 
L 178.717016 197.950099 
L 180.78527 197.950099 
L 180.78527 194.117703 
L 181.885607 194.117703 
L 181.885607 190.285307 
L 182.489417 190.285307 
L 182.489417 186.452911 
L 184.358559 186.452911 
L 184.358559 182.620515 
L 184.491981 182.620515 
L 184.491981 178.788119 
L 184.983191 178.788119 
L 184.983191 174.955723 
L 185.340499 174.955723 
L 185.340499 171.123327 
L 186.438284 171.123327 
L 186.438284 167.290931 
L 187.968056 167.290931 
L 187.968056 163.458535 
L 189.874923 163.458535 
L 189.885467 155.793743 
L 191.853914 155.793743 
L 191.853914 151.961347 
L 193.679402 151.961347 
L 193.679402 148.12895 
L 196.39614 148.12895 
L 196.39614 144.296554 
L 197.123381 144.296554 
L 197.123381 140.464158 
L 198.331766 140.464158 
L 198.331766 136.631762 
L 199.291157 136.631762 
L 199.291157 132.799366 
L 201.556953 132.799366 
L 201.556953 128.96697 
L 201.69453 128.96697 
L 201.69453 125.134574 
L 202.244326 125.134574 
L 202.348754 117.469782 
L 202.954658 117.469782 
L 202.954658 113.637386 
L 205.420475 113.637386 
L 205.420475 109.80499 
L 205.788478 109.80499 
L 205.788478 105.972594 
L 206.697767 105.972594 
L 206.759958 98.307802 
L 207.866432 98.307802 
L 207.866432 94.475406 
L 209.327002 94.475406 
L 209.376587 86.810614 
L 211.339419 86.810614 
L 211.339419 82.978218 
L 211.899492 82.978218 
L 211.899492 79.145822 
L 212.521995 79.145822 
L 212.521995 75.313426 
L 212.984429 75.313426 
L 212.984429 71.48103 
L 216.485227 71.48103 
L 216.485227 67.648634 
L 216.876061 67.648634 
L 216.876061 63.816238 
L 217.134482 63.816238 
L 217.134482 59.983842 
L 217.711532 59.983842 
L 217.711532 56.151446 
L 217.966906 56.151446 
L 217.966906 52.31905 
L 218.125226 52.31905 
L 218.125226 48.486653 
L 227.786797 48.486653 
L 227.786797 44.654257 
L 229.734902 44.654257 
L 229.734902 40.821861 
L 231.081187 40.821861 
L 231.081187 36.989465 
L 232.027088 36.989465 
L 232.027088 33.157069 
L 232.60398 33.157069 
L 232.60398 29.324673 
L 244.759183 29.324673 
L 244.759183 25.492277 
L 245.535936 25.492277 
L 245.535936 21.659881 
L 246.537247 21.659881 
L 246.537247 17.827485 
L 248.094531 17.827485 
L 248.094531 13.995089 
L 253.866912 13.995089 
L 253.866912 10.162693 
L 254.222137 10.162693 
L 254.222137 6.330297 
L 254.222137 6.330297 
L 460.8 6.330297 
L 460.8 6.330297 
" clip-path="url(#p6849074776)" style="fill: none; stroke: #ff0000; stroke-width: 3; stroke-linecap: square"/>
   </g>
   <g id="line2d_22">
    <path d="M 201.302934 293.76 
L 201.302934 289.927604 
L 211.485037 289.927604 
L 211.485037 286.095208 
L 212.035639 286.095208 
L 212.035639 282.262812 
L 216.427678 282.262812 
L 216.427678 278.430416 
L 216.706344 278.430416 
L 216.706344 274.59802 
L 221.807132 274.59802 
L 221.807132 270.765624 
L 222.35783 270.765624 
L 222.35783 266.933228 
L 223.657713 266.933228 
L 223.657713 263.100832 
L 225.264909 263.100832 
L 225.264909 259.268436 
L 228.379615 259.268436 
L 228.379615 255.43604 
L 230.407492 255.43604 
L 230.407492 251.603644 
L 230.862137 251.603644 
L 230.862137 247.771248 
L 232.161962 247.771248 
L 232.161962 243.938851 
L 234.93856 243.938851 
L 234.93856 240.106455 
L 241.91559 240.106455 
L 241.91559 236.274059 
L 252.349789 236.274059 
L 252.349789 232.441663 
L 253.674624 232.441663 
L 253.674624 228.609267 
L 254.191918 228.609267 
L 254.191918 224.776871 
L 255.277477 224.776871 
L 255.277477 220.944475 
L 257.357649 220.944475 
L 257.436899 213.279683 
L 258.292543 213.279683 
L 258.340131 205.614891 
L 260.047285 205.614891 
L 260.047285 201.782495 
L 260.738863 201.782495 
L 260.738863 197.950099 
L 262.026843 197.950099 
L 262.026843 194.117703 
L 262.316019 194.117703 
L 262.316019 190.285307 
L 263.203269 190.285307 
L 263.203269 186.452911 
L 263.8311 186.452911 
L 263.8311 182.620515 
L 264.061654 182.620515 
L 264.061654 178.788119 
L 285.591037 178.788119 
L 285.609273 171.123327 
L 294.390786 171.123327 
L 294.390786 167.290931 
L 302.861639 167.290931 
L 302.861639 163.458535 
L 304.892637 163.458535 
L 304.892637 159.626139 
L 305.683574 159.626139 
L 305.683574 155.793743 
L 306.07674 155.793743 
L 306.07674 151.961347 
L 320.627255 151.961347 
L 320.627255 148.12895 
L 321.0924 148.12895 
L 321.0924 144.296554 
L 321.849739 144.296554 
L 321.849739 140.464158 
L 328.558661 140.464158 
L 328.558661 136.631762 
L 333.499916 136.631762 
L 333.499916 132.799366 
L 333.751214 132.799366 
L 333.751214 128.96697 
L 334.600708 128.96697 
L 334.600708 125.134574 
L 337.144071 125.134574 
L 337.144071 121.302178 
L 338.584059 121.302178 
L 338.584059 117.469782 
L 339.027478 117.469782 
L 339.027478 113.637386 
L 342.232545 113.637386 
L 342.232545 109.80499 
L 345.304913 109.80499 
L 345.304913 105.972594 
L 346.622603 105.972594 
L 346.622603 102.140198 
L 349.576875 102.140198 
L 349.650437 94.475406 
L 349.988994 94.475406 
L 349.988994 90.64301 
L 350.272623 90.64301 
L 350.272623 86.810614 
L 350.936421 86.810614 
L 351.016326 79.145822 
L 353.40371 79.145822 
L 353.40371 75.313426 
L 354.369623 75.313426 
L 354.369623 71.48103 
L 355.598722 71.48103 
L 355.598722 67.648634 
L 356.650295 67.648634 
L 356.650295 63.816238 
L 356.803284 63.816238 
L 356.803284 59.983842 
L 358.212196 59.983842 
L 358.212196 56.151446 
L 363.122685 56.151446 
L 363.122685 52.31905 
L 366.394162 52.31905 
L 366.394162 48.486653 
L 367.809577 48.486653 
L 367.809577 44.654257 
L 368.309227 44.654257 
L 368.309227 40.821861 
L 372.935845 40.821861 
L 372.935845 36.989465 
L 374.765263 36.989465 
L 374.765263 33.157069 
L 374.954738 33.157069 
L 374.994467 25.492277 
L 375.387385 25.492277 
L 375.387385 21.659881 
L 384.335 21.659881 
L 384.335 17.827485 
L 387.431346 17.827485 
L 387.431346 13.995089 
L 401.589514 13.995089 
L 401.589514 10.162693 
L 432.998977 10.162693 
L 432.998977 6.330297 
L 432.998977 6.330297 
L 460.8 6.330297 
L 460.8 6.330297 
" clip-path="url(#p6849074776)" style="fill: none; stroke: #00bfbf; stroke-width: 1.5; stroke-linecap: square"/>
   </g>
   <g id="line2d_23">
    <path d="M 201.302934 293.76 
L 201.302934 289.927604 
L 210.969264 289.927604 
L 210.969264 286.095208 
L 211.485037 286.095208 
L 211.485037 282.262812 
L 212.035639 282.262812 
L 212.035639 278.430416 
L 215.182538 278.430416 
L 215.182538 274.59802 
L 216.286729 274.59802 
L 216.286729 270.765624 
L 216.706344 270.765624 
L 216.706344 266.933228 
L 218.672754 266.933228 
L 218.672754 263.100832 
L 220.063966 263.100832 
L 220.063966 259.268436 
L 221.807132 259.268436 
L 221.807132 255.43604 
L 222.406166 255.43604 
L 222.406166 251.603644 
L 222.732769 251.603644 
L 222.732769 247.771248 
L 224.212983 247.771248 
L 224.303505 240.106455 
L 230.862137 240.106455 
L 230.862137 236.274059 
L 252.349789 236.274059 
L 252.349789 232.441663 
L 252.59011 232.441663 
L 252.59011 228.609267 
L 252.816904 228.609267 
L 252.816904 224.776871 
L 253.674624 224.776871 
L 253.674624 220.944475 
L 254.191918 220.944475 
L 254.191918 217.112079 
L 255.277477 217.112079 
L 255.356659 209.447287 
L 255.551615 209.447287 
L 255.551615 205.614891 
L 257.357649 205.614891 
L 257.436899 194.117703 
L 257.566849 194.117703 
L 257.566849 190.285307 
L 261.102442 190.285307 
L 261.102442 186.452911 
L 261.807557 186.452911 
L 261.807557 182.620515 
L 262.266 182.620515 
L 262.266 178.788119 
L 285.591037 178.788119 
L 285.609273 171.123327 
L 294.390786 171.123327 
L 294.390786 167.290931 
L 295.455418 167.290931 
L 295.518012 159.626139 
L 295.852734 159.626139 
L 295.852734 155.793743 
L 296.350329 155.793743 
L 296.350329 151.961347 
L 301.841068 151.961347 
L 301.841068 148.12895 
L 302.861639 148.12895 
L 302.861639 144.296554 
L 305.683574 144.296554 
L 305.683574 140.464158 
L 306.07674 140.464158 
L 306.07674 136.631762 
L 310.476028 136.631762 
L 310.476028 132.799366 
L 310.862994 132.799366 
L 310.862994 128.96697 
L 312.583435 128.96697 
L 312.583435 125.134574 
L 313.267718 125.134574 
L 313.267718 121.302178 
L 315.225304 121.302178 
L 315.225304 117.469782 
L 319.495907 117.469782 
L 319.495907 113.637386 
L 320.627255 113.637386 
L 320.627255 109.80499 
L 322.084982 109.80499 
L 322.084982 105.972594 
L 322.784453 105.972594 
L 322.784453 102.140198 
L 328.083359 102.140198 
L 328.083359 98.307802 
L 328.558661 98.307802 
L 328.558661 94.475406 
L 331.679456 94.475406 
L 331.679456 90.64301 
L 332.615866 90.64301 
L 332.615866 86.810614 
L 333.751214 86.810614 
L 333.751214 82.978218 
L 335.480086 82.978218 
L 335.480086 79.145822 
L 336.521285 79.145822 
L 336.521285 75.313426 
L 339.982914 75.313426 
L 339.982914 71.48103 
L 345.304913 71.48103 
L 345.304913 67.648634 
L 346.622603 67.648634 
L 346.622603 63.816238 
L 349.988994 63.816238 
L 349.988994 59.983842 
L 350.195705 59.983842 
L 350.195705 56.151446 
L 350.385681 56.151446 
L 350.385681 52.31905 
L 350.911758 52.31905 
L 350.911758 48.486653 
L 356.803284 48.486653 
L 356.803284 44.654257 
L 358.196765 44.654257 
L 358.212196 36.989465 
L 359.670093 36.989465 
L 359.690093 29.324673 
L 359.928865 29.324673 
L 359.928865 25.492277 
L 361.117404 25.492277 
L 361.117404 21.659881 
L 368.309227 21.659881 
L 368.309227 17.827485 
L 370.621975 17.827485 
L 370.621975 13.995089 
L 371.353971 13.995089 
L 371.353971 10.162693 
L 374.994467 10.162693 
L 374.994467 6.330297 
L 374.994467 6.330297 
L 460.8 6.330297 
L 460.8 6.330297 
" clip-path="url(#p6849074776)" style="fill: none; stroke: #bf00bf; stroke-width: 1.5; stroke-linecap: square"/>
   </g>
   <g id="line2d_24">
    <path d="M 192.933486 293.76 
L 192.933486 289.927604 
L 201.302934 289.927604 
L 201.302934 286.095208 
L 201.943164 286.095208 
L 201.943164 282.262812 
L 202.615557 282.262812 
L 202.615557 278.430416 
L 209.074027 278.430416 
L 209.112805 270.765624 
L 209.801827 270.765624 
L 209.801827 266.933228 
L 210.672755 266.933228 
L 210.672755 263.100832 
L 211.441507 263.100832 
L 211.485037 255.43604 
L 213.915838 255.43604 
L 213.915838 251.603644 
L 216.706344 251.603644 
L 216.706344 247.771248 
L 218.877576 247.771248 
L 218.877576 243.938851 
L 221.587961 243.938851 
L 221.587961 240.106455 
L 222.732769 240.106455 
L 222.732769 236.274059 
L 252.349789 236.274059 
L 252.349789 232.441663 
L 252.59011 232.441663 
L 252.59011 228.609267 
L 252.816904 228.609267 
L 252.816904 224.776871 
L 253.089192 224.776871 
L 253.089192 220.944475 
L 253.232 220.944475 
L 253.24049 213.279683 
L 253.674624 213.279683 
L 253.674624 209.447287 
L 254.191918 209.447287 
L 254.191918 205.614891 
L 254.384329 205.614891 
L 254.384329 201.782495 
L 254.601585 201.782495 
L 254.601585 197.950099 
L 254.798012 197.950099 
L 254.798012 194.117703 
L 255.277477 194.117703 
L 255.277477 190.285307 
L 255.60337 190.285307 
L 255.60337 186.452911 
L 256.46974 186.452911 
L 256.46974 182.620515 
L 257.275985 182.620515 
L 257.275985 178.788119 
L 259.607072 178.788119 
L 259.607072 174.955723 
L 279.437998 174.955723 
L 279.437998 171.123327 
L 283.186912 171.123327 
L 283.186912 167.290931 
L 284.172182 167.290931 
L 284.172182 163.458535 
L 284.509819 163.458535 
L 284.509819 159.626139 
L 285.146576 159.626139 
L 285.146576 155.793743 
L 285.591037 155.793743 
L 285.609273 148.12895 
L 290.090585 148.12895 
L 290.090585 144.296554 
L 294.390786 144.296554 
L 294.390786 140.464158 
L 295.518012 140.464158 
L 295.518012 136.631762 
L 295.852734 136.631762 
L 295.852734 132.799366 
L 301.841068 132.799366 
L 301.841068 128.96697 
L 302.861639 128.96697 
L 302.861639 125.134574 
L 305.683574 125.134574 
L 305.683574 121.302178 
L 306.07674 121.302178 
L 306.07674 117.469782 
L 310.862994 117.469782 
L 310.862994 113.637386 
L 312.583435 113.637386 
L 312.583435 109.80499 
L 313.267718 109.80499 
L 313.267718 105.972594 
L 313.433077 105.972594 
L 313.433077 102.140198 
L 315.225304 102.140198 
L 315.225304 98.307802 
L 316.765286 98.307802 
L 316.765286 94.475406 
L 319.495907 94.475406 
L 319.495907 90.64301 
L 320.627255 90.64301 
L 320.627255 86.810614 
L 321.456004 86.810614 
L 321.456004 82.978218 
L 322.084982 82.978218 
L 322.084982 79.145822 
L 322.638253 79.145822 
L 322.638253 75.313426 
L 328.780404 75.313426 
L 328.780404 71.48103 
L 331.679456 71.48103 
L 331.679456 67.648634 
L 341.621657 67.648634 
L 341.621657 63.816238 
L 345.273828 63.816238 
L 345.304913 56.151446 
L 349.544116 56.151446 
L 349.544116 52.31905 
L 349.988994 52.31905 
L 349.988994 48.486653 
L 350.195705 48.486653 
L 350.195705 44.654257 
L 350.385681 44.654257 
L 350.385681 40.821861 
L 350.521225 40.821861 
L 350.521225 36.989465 
L 356.578524 36.989465 
L 356.645125 29.324673 
L 356.803284 29.324673 
L 356.803284 25.492277 
L 358.903889 25.492277 
L 358.903889 21.659881 
L 359.928865 21.659881 
L 359.928865 17.827485 
L 360.791466 17.827485 
L 360.791466 13.995089 
L 369.418529 13.995089 
L 369.418529 10.162693 
L 370.621975 10.162693 
L 370.621975 6.330297 
L 370.621975 6.330297 
L 460.8 6.330297 
L 460.8 6.330297 
" clip-path="url(#p6849074776)" style="fill: none; stroke: #000000; stroke-width: 1.5; stroke-linecap: square"/>
   </g>
   <g id="line2d_25">
    <path d="M 190.342278 293.76 
L 190.342278 289.927604 
L 191.44602 289.927604 
L 191.44602 286.095208 
L 194.846711 286.095208 
L 194.846711 282.262812 
L 195.251532 282.262812 
L 195.251532 278.430416 
L 196.257347 278.430416 
L 196.257347 274.59802 
L 196.627362 274.59802 
L 196.627362 270.765624 
L 198.662089 270.765624 
L 198.662089 266.933228 
L 198.855967 266.933228 
L 198.855967 263.100832 
L 201.302934 263.100832 
L 201.302934 259.268436 
L 201.548609 259.268436 
L 201.548609 255.43604 
L 201.943164 255.43604 
L 201.943164 251.603644 
L 205.298042 251.603644 
L 205.298042 247.771248 
L 205.903835 247.771248 
L 205.903835 243.938851 
L 206.726146 243.938851 
L 206.726146 240.106455 
L 207.614227 240.106455 
L 207.614227 236.274059 
L 240.067717 236.274059 
L 240.067717 232.441663 
L 243.623084 232.441663 
L 243.623084 228.609267 
L 244.66472 228.609267 
L 244.66472 224.776871 
L 245.111495 224.776871 
L 245.111495 220.944475 
L 245.334544 220.944475 
L 245.334544 217.112079 
L 246.193865 217.112079 
L 246.193865 213.279683 
L 246.381529 213.279683 
L 246.381529 209.447287 
L 246.780974 209.447287 
L 246.780974 205.614891 
L 247.18959 205.614891 
L 247.18959 201.782495 
L 247.480432 201.782495 
L 247.480432 197.950099 
L 248.798417 197.950099 
L 248.798417 194.117703 
L 249.496832 194.117703 
L 249.496832 190.285307 
L 250.458387 190.285307 
L 250.458387 186.452911 
L 251.161705 186.452911 
L 251.161705 182.620515 
L 251.676684 182.620515 
L 251.781822 174.955723 
L 252.59011 174.955723 
L 252.59011 171.123327 
L 254.779027 171.123327 
L 254.779027 167.290931 
L 256.198224 167.290931 
L 256.288643 159.626139 
L 257.982884 159.626139 
L 257.982884 155.793743 
L 264.622227 155.793743 
L 264.622227 151.961347 
L 269.709427 151.961347 
L 269.709427 148.12895 
L 269.982275 148.12895 
L 269.982275 144.296554 
L 271.020962 144.296554 
L 271.020962 140.464158 
L 272.34398 140.464158 
L 272.34398 136.631762 
L 284.509819 136.631762 
L 284.509819 132.799366 
L 285.609273 132.799366 
L 285.609273 128.96697 
L 290.864338 128.96697 
L 290.864338 125.134574 
L 292.015247 125.134574 
L 292.015247 121.302178 
L 294.504568 121.302178 
L 294.504568 117.469782 
L 298.69796 117.469782 
L 298.69796 113.637386 
L 299.177037 113.637386 
L 299.177037 109.80499 
L 299.476153 109.80499 
L 299.476153 105.972594 
L 300.367886 105.972594 
L 300.367886 102.140198 
L 306.07674 102.140198 
L 306.07674 98.307802 
L 306.707323 98.307802 
L 306.707323 94.475406 
L 308.346992 94.475406 
L 308.346992 90.64301 
L 309.470188 90.64301 
L 309.470188 86.810614 
L 311.436435 86.810614 
L 311.436435 82.978218 
L 311.902729 82.978218 
L 311.902729 79.145822 
L 312.583435 79.145822 
L 312.583435 75.313426 
L 313.205964 75.313426 
L 313.205964 71.48103 
L 314.365534 71.48103 
L 314.365534 67.648634 
L 315.930825 67.648634 
L 315.930825 63.816238 
L 321.456004 63.816238 
L 321.456004 59.983842 
L 327.947475 59.983842 
L 327.947475 56.151446 
L 328.138003 56.151446 
L 328.138003 52.31905 
L 330.551278 52.31905 
L 330.551278 48.486653 
L 331.462137 48.486653 
L 331.462137 44.654257 
L 335.410067 44.654257 
L 335.410067 40.821861 
L 335.753765 40.821861 
L 335.753765 36.989465 
L 336.112505 36.989465 
L 336.112505 33.157069 
L 337.766352 33.157069 
L 337.766352 29.324673 
L 338.273862 29.324673 
L 338.273862 25.492277 
L 342.219351 25.492277 
L 342.219351 21.659881 
L 348.471533 21.659881 
L 348.471533 17.827485 
L 351.049068 17.827485 
L 351.049068 13.995089 
L 356.803284 13.995089 
L 356.803284 10.162693 
L 357.557048 10.162693 
L 357.557048 6.330297 
L 357.557048 6.330297 
L 460.8 6.330297 
L 460.8 6.330297 
" clip-path="url(#p6849074776)" style="fill: none; stroke: #00bfbf; stroke-width: 1.5; stroke-linecap: square"/>
   </g>
   <g id="line2d_26">
    <path d="M 143.490508 293.76 
L 143.490508 289.927604 
L 146.629342 289.927604 
L 146.629342 286.095208 
L 148.288118 286.095208 
L 148.288118 282.262812 
L 149.170715 282.262812 
L 149.170715 278.430416 
L 149.757456 278.430416 
L 149.757456 274.59802 
L 152.868312 274.59802 
L 152.868312 270.765624 
L 153.11206 270.765624 
L 153.11206 266.933228 
L 154.945303 266.933228 
L 154.945303 263.100832 
L 157.848581 263.100832 
L 157.848581 259.268436 
L 166.564825 259.268436 
L 166.564825 255.43604 
L 169.998546 255.43604 
L 169.998546 251.603644 
L 173.206156 251.603644 
L 173.206156 247.771248 
L 177.89461 247.771248 
L 177.89461 243.938851 
L 178.342521 243.938851 
L 178.342521 240.106455 
L 180.189807 240.106455 
L 180.189807 236.274059 
L 183.706973 236.274059 
L 183.706973 232.441663 
L 184.076376 232.441663 
L 184.076376 228.609267 
L 203.66759 228.609267 
L 203.66759 224.776871 
L 206.25242 224.776871 
L 206.25242 220.944475 
L 213.059949 220.944475 
L 213.059949 217.112079 
L 216.00777 217.112079 
L 216.00777 213.279683 
L 216.128481 213.279683 
L 216.128481 209.447287 
L 217.522915 209.447287 
L 217.522915 205.614891 
L 218.246745 205.614891 
L 218.246745 201.782495 
L 223.137079 201.782495 
L 223.137079 197.950099 
L 223.836717 197.950099 
L 223.836717 194.117703 
L 226.108012 194.117703 
L 226.108012 190.285307 
L 226.510528 190.285307 
L 226.510528 186.452911 
L 227.652376 186.452911 
L 227.652376 182.620515 
L 229.330396 182.620515 
L 229.40053 174.955723 
L 229.590125 174.955723 
L 229.606294 167.290931 
L 230.805917 167.290931 
L 230.805917 163.458535 
L 230.928595 163.458535 
L 230.928595 159.626139 
L 231.450548 159.626139 
L 231.450548 155.793743 
L 233.159198 155.793743 
L 233.159198 151.961347 
L 233.441879 151.961347 
L 233.441879 148.12895 
L 234.03465 148.12895 
L 234.03465 144.296554 
L 235.344544 144.296554 
L 235.347469 136.631762 
L 235.982926 136.631762 
L 235.982926 132.799366 
L 236.186677 132.799366 
L 236.186677 128.96697 
L 238.052669 128.96697 
L 238.052669 125.134574 
L 243.820136 125.134574 
L 243.820136 121.302178 
L 245.05732 121.302178 
L 245.05732 117.469782 
L 245.910692 117.469782 
L 245.910692 113.637386 
L 246.452213 113.637386 
L 246.452213 109.80499 
L 247.487802 109.80499 
L 247.487802 105.972594 
L 251.047808 105.972594 
L 251.047808 102.140198 
L 257.953505 102.140198 
L 257.953505 98.307802 
L 260.548745 98.307802 
L 260.548745 94.475406 
L 263.43178 94.475406 
L 263.43178 90.64301 
L 265.40988 90.64301 
L 265.40988 86.810614 
L 268.885501 86.810614 
L 268.885501 82.978218 
L 269.460828 82.978218 
L 269.460828 79.145822 
L 269.585074 79.145822 
L 269.585074 75.313426 
L 271.01948 75.313426 
L 271.01948 71.48103 
L 272.940863 71.48103 
L 272.940863 67.648634 
L 275.345682 67.648634 
L 275.345682 63.816238 
L 275.938893 63.816238 
L 275.938893 59.983842 
L 277.093379 59.983842 
L 277.093379 56.151446 
L 278.608637 56.151446 
L 278.608637 52.31905 
L 280.096636 52.31905 
L 280.096636 48.486653 
L 281.184147 48.486653 
L 281.184147 44.654257 
L 284.431082 44.654257 
L 284.431082 40.821861 
L 286.236696 40.821861 
L 286.236696 36.989465 
L 289.174255 36.989465 
L 289.174255 33.157069 
L 293.940155 33.157069 
L 293.940155 29.324673 
L 296.050551 29.324673 
L 296.050551 25.492277 
L 299.372395 25.492277 
L 299.372395 21.659881 
L 299.925432 21.659881 
L 299.925432 17.827485 
L 301.859027 17.827485 
L 301.916721 10.162693 
L 311.100657 10.162693 
L 311.100657 6.330297 
L 311.100657 6.330297 
L 460.8 6.330297 
L 460.8 6.330297 
" clip-path="url(#p6849074776)" style="fill: none; stroke: #bf00bf; stroke-width: 1.5; stroke-linecap: square"/>
   </g>
   <g id="line2d_27">
    <path d="M 84.218959 293.76 
L 84.218959 289.927604 
L 93.210337 289.927604 
L 93.210337 286.095208 
L 95.30274 286.095208 
L 95.30274 282.262812 
L 96.246846 282.262812 
L 96.246846 278.430416 
L 98.120768 278.430416 
L 98.120768 274.59802 
L 101.354515 274.59802 
L 101.354515 270.765624 
L 103.416153 270.765624 
L 103.416153 266.933228 
L 103.569216 266.933228 
L 103.569216 263.100832 
L 104.649152 263.100832 
L 104.649152 259.268436 
L 106.639667 259.268436 
L 106.639667 255.43604 
L 107.745893 255.43604 
L 107.745893 251.603644 
L 109.812175 251.603644 
L 109.812175 247.771248 
L 110.369954 247.771248 
L 110.369954 243.938851 
L 111.873345 243.938851 
L 111.873345 240.106455 
L 113.326655 240.106455 
L 113.326655 236.274059 
L 133.2368 236.274059 
L 133.2368 232.441663 
L 134.256455 232.441663 
L 134.256455 228.609267 
L 144.769849 228.609267 
L 144.769849 224.776871 
L 147.894576 224.776871 
L 147.894576 220.944475 
L 160.05169 220.944475 
L 160.05169 217.112079 
L 166.557153 217.112079 
L 166.611622 209.447287 
L 170.838195 209.447287 
L 170.838195 205.614891 
L 176.435889 205.614891 
L 176.435889 201.782495 
L 178.717016 201.782495 
L 178.717016 197.950099 
L 180.78527 197.950099 
L 180.78527 194.117703 
L 181.885607 194.117703 
L 181.885607 190.285307 
L 182.489417 190.285307 
L 182.489417 186.452911 
L 184.358559 186.452911 
L 184.358559 182.620515 
L 184.491981 182.620515 
L 184.491981 178.788119 
L 184.983191 178.788119 
L 184.983191 174.955723 
L 185.340499 174.955723 
L 185.340499 171.123327 
L 186.438284 171.123327 
L 186.438284 167.290931 
L 187.968056 167.290931 
L 187.968056 163.458535 
L 189.874923 163.458535 
L 189.885467 155.793743 
L 191.853914 155.793743 
L 191.853914 151.961347 
L 193.679402 151.961347 
L 193.679402 148.12895 
L 196.39614 148.12895 
L 196.39614 144.296554 
L 197.123381 144.296554 
L 197.123381 140.464158 
L 198.331766 140.464158 
L 198.331766 136.631762 
L 199.291157 136.631762 
L 199.291157 132.799366 
L 201.556953 132.799366 
L 201.556953 128.96697 
L 201.69453 128.96697 
L 201.69453 125.134574 
L 202.244326 125.134574 
L 202.348754 117.469782 
L 202.954658 117.469782 
L 202.954658 113.637386 
L 205.420475 113.637386 
L 205.420475 109.80499 
L 205.788478 109.80499 
L 205.788478 105.972594 
L 206.697767 105.972594 
L 206.759958 98.307802 
L 207.866432 98.307802 
L 207.866432 94.475406 
L 209.327002 94.475406 
L 209.376587 86.810614 
L 211.339419 86.810614 
L 211.339419 82.978218 
L 211.899492 82.978218 
L 211.899492 79.145822 
L 212.521995 79.145822 
L 212.521995 75.313426 
L 212.984429 75.313426 
L 212.984429 71.48103 
L 216.485227 71.48103 
L 216.485227 67.648634 
L 216.876061 67.648634 
L 216.876061 63.816238 
L 217.134482 63.816238 
L 217.134482 59.983842 
L 217.711532 59.983842 
L 217.711532 56.151446 
L 217.966906 56.151446 
L 217.966906 52.31905 
L 218.125226 52.31905 
L 218.125226 48.486653 
L 227.786797 48.486653 
L 227.786797 44.654257 
L 229.734902 44.654257 
L 229.734902 40.821861 
L 231.081187 40.821861 
L 231.081187 36.989465 
L 232.027088 36.989465 
L 232.027088 33.157069 
L 232.60398 33.157069 
L 232.60398 29.324673 
L 244.759183 29.324673 
L 244.759183 25.492277 
L 245.535936 25.492277 
L 245.535936 21.659881 
L 246.537247 21.659881 
L 246.537247 17.827485 
L 248.094531 17.827485 
L 248.094531 13.995089 
L 253.866912 13.995089 
L 253.866912 10.162693 
L 254.222137 10.162693 
L 254.222137 6.330297 
L 254.222137 6.330297 
L 460.8 6.330297 
L 460.8 6.330297 
" clip-path="url(#p6849074776)" style="fill: none; stroke: #000000; stroke-width: 1.5; stroke-linecap: square"/>
   </g>
   <g id="patch_3">
    <path d="M 0 293.76 
L 0 3.456 
" style="fill: none; stroke: #000000; stroke-width: 0.8; stroke-linejoin: miter; stroke-linecap: square"/>
   </g>
   <g id="patch_4">
    <path d="M 460.8 293.76 
L 460.8 3.456 
" style="fill: none; stroke: #000000; stroke-width: 0.8; stroke-linejoin: miter; stroke-linecap: square"/>
   </g>
   <g id="patch_5">
    <path d="M 0 293.76 
L 460.8 293.76 
" style="fill: none; stroke: #000000; stroke-width: 0.8; stroke-linejoin: miter; stroke-linecap: square"/>
   </g>
   <g id="patch_6">
    <path d="M 0 3.456 
L 460.8 3.456 
" style="fill: none; stroke: #000000; stroke-width: 0.8; stroke-linejoin: miter; stroke-linecap: square"/>
   </g>
   <g id="text_6">
    <!-- {f10-f14}, 5-D -->
    <g transform="translate(305.884 287.95392) scale(0.2 -0.2)">
     <defs>
      <path id="DejaVuSans-7b" d="M 3272 -594 
L 3272 -1044 
L 3078 -1044 
Q 2300 -1044 2036 -812 
Q 1772 -581 1772 109 
L 1772 856 
Q 1772 1328 1603 1509 
Q 1434 1691 991 1691 
L 800 1691 
L 800 2138 
L 991 2138 
Q 1438 2138 1605 2317 
Q 1772 2497 1772 2963 
L 1772 3713 
Q 1772 4403 2036 4633 
Q 2300 4863 3078 4863 
L 3272 4863 
L 3272 4416 
L 3059 4416 
Q 2619 4416 2484 4278 
Q 2350 4141 2350 3700 
L 2350 2925 
Q 2350 2434 2208 2212 
Q 2066 1991 1722 1913 
Q 2069 1828 2209 1606 
Q 2350 1384 2350 897 
L 2350 122 
Q 2350 -319 2484 -456 
Q 2619 -594 3059 -594 
L 3272 -594 
z
" transform="scale(0.015625)"/>
      <path id="DejaVuSans-7d" d="M 800 -594 
L 1019 -594 
Q 1456 -594 1589 -459 
Q 1722 -325 1722 122 
L 1722 897 
Q 1722 1384 1862 1606 
Q 2003 1828 2350 1913 
Q 2003 1991 1862 2212 
Q 1722 2434 1722 2925 
L 1722 3700 
Q 1722 4144 1589 4280 
Q 1456 4416 1019 4416 
L 800 4416 
L 800 4863 
L 997 4863 
Q 1775 4863 2036 4633 
Q 2297 4403 2297 3713 
L 2297 2963 
Q 2297 2497 2465 2317 
Q 2634 2138 3078 2138 
L 3272 2138 
L 3272 1691 
L 3078 1691 
Q 2634 1691 2465 1509 
Q 2297 1328 2297 856 
L 2297 109 
Q 2297 -581 2036 -812 
Q 1775 -1044 997 -1044 
L 800 -1044 
L 800 -594 
z
" transform="scale(0.015625)"/>
      <path id="DejaVuSans-2c" d="M 750 794 
L 1409 794 
L 1409 256 
L 897 -744 
L 494 -744 
L 750 256 
L 750 794 
z
" transform="scale(0.015625)"/>
      <path id="DejaVuSans-35" d="M 691 4666 
L 3169 4666 
L 3169 4134 
L 1269 4134 
L 1269 2991 
Q 1406 3038 1543 3061 
Q 1681 3084 1819 3084 
Q 2600 3084 3056 2656 
Q 3513 2228 3513 1497 
Q 3513 744 3044 326 
Q 2575 -91 1722 -91 
Q 1428 -91 1123 -41 
Q 819 9 494 109 
L 494 744 
Q 775 591 1075 516 
Q 1375 441 1709 441 
Q 2250 441 2565 725 
Q 2881 1009 2881 1497 
Q 2881 1984 2565 2268 
Q 2250 2553 1709 2553 
Q 1456 2553 1204 2497 
Q 953 2441 691 2322 
L 691 4666 
z
" transform="scale(0.015625)"/>
     </defs>
     <use xlink:href="#DejaVuSans-7b"/>
     <use xlink:href="#DejaVuSans-66" x="63.623047"/>
     <use xlink:href="#DejaVuSans-31" x="98.828125"/>
     <use xlink:href="#DejaVuSans-30" x="162.451172"/>
     <use xlink:href="#DejaVuSans-2d" x="226.074219"/>
     <use xlink:href="#DejaVuSans-66" x="262.158203"/>
     <use xlink:href="#DejaVuSans-31" x="297.363281"/>
     <use xlink:href="#DejaVuSans-34" x="360.986328"/>
     <use xlink:href="#DejaVuSans-7d" x="424.609375"/>
     <use xlink:href="#DejaVuSans-2c" x="488.232422"/>
     <use xlink:href="#DejaVuSans-20" x="520.019531"/>
     <use xlink:href="#DejaVuSans-35" x="551.806641"/>
     <use xlink:href="#DejaVuSans-2d" x="615.429688"/>
     <use xlink:href="#DejaVuSans-44" x="651.513672"/>
    </g>
   </g>
   <g id="text_7">
    <!-- v2.6.3 -->
    <g style="fill: #808080" transform="translate(214.71875 288.777272) scale(0.1 -0.1)">
     <defs>
      <path id="DejaVuSans-76" d="M 191 3500 
L 800 3500 
L 1894 563 
L 2988 3500 
L 3597 3500 
L 2284 0 
L 1503 0 
L 191 3500 
z
" transform="scale(0.015625)"/>
      <path id="DejaVuSans-32" d="M 1228 531 
L 3431 531 
L 3431 0 
L 469 0 
L 469 531 
Q 828 903 1448 1529 
Q 2069 2156 2228 2338 
Q 2531 2678 2651 2914 
Q 2772 3150 2772 3378 
Q 2772 3750 2511 3984 
Q 2250 4219 1831 4219 
Q 1534 4219 1204 4116 
Q 875 4013 500 3803 
L 500 4441 
Q 881 4594 1212 4672 
Q 1544 4750 1819 4750 
Q 2544 4750 2975 4387 
Q 3406 4025 3406 3419 
Q 3406 3131 3298 2873 
Q 3191 2616 2906 2266 
Q 2828 2175 2409 1742 
Q 1991 1309 1228 531 
z
" transform="scale(0.015625)"/>
      <path id="DejaVuSans-2e" d="M 684 794 
L 1344 794 
L 1344 0 
L 684 0 
L 684 794 
z
" transform="scale(0.015625)"/>
      <path id="DejaVuSans-36" d="M 2113 2584 
Q 1688 2584 1439 2293 
Q 1191 2003 1191 1497 
Q 1191 994 1439 701 
Q 1688 409 2113 409 
Q 2538 409 2786 701 
Q 3034 994 3034 1497 
Q 3034 2003 2786 2293 
Q 2538 2584 2113 2584 
z
M 3366 4563 
L 3366 3988 
Q 3128 4100 2886 4159 
Q 2644 4219 2406 4219 
Q 1781 4219 1451 3797 
Q 1122 3375 1075 2522 
Q 1259 2794 1537 2939 
Q 1816 3084 2150 3084 
Q 2853 3084 3261 2657 
Q 3669 2231 3669 1497 
Q 3669 778 3244 343 
Q 2819 -91 2113 -91 
Q 1303 -91 875 529 
Q 447 1150 447 2328 
Q 447 3434 972 4092 
Q 1497 4750 2381 4750 
Q 2619 4750 2861 4703 
Q 3103 4656 3366 4563 
z
" transform="scale(0.015625)"/>
      <path id="DejaVuSans-33" d="M 2597 2516 
Q 3050 2419 3304 2112 
Q 3559 1806 3559 1356 
Q 3559 666 3084 287 
Q 2609 -91 1734 -91 
Q 1441 -91 1130 -33 
Q 819 25 488 141 
L 488 750 
Q 750 597 1062 519 
Q 1375 441 1716 441 
Q 2309 441 2620 675 
Q 2931 909 2931 1356 
Q 2931 1769 2642 2001 
Q 2353 2234 1838 2234 
L 1294 2234 
L 1294 2753 
L 1863 2753 
Q 2328 2753 2575 2939 
Q 2822 3125 2822 3475 
Q 2822 3834 2567 4026 
Q 2313 4219 1838 4219 
Q 1578 4219 1281 4162 
Q 984 4106 628 3988 
L 628 4550 
Q 988 4650 1302 4700 
Q 1616 4750 1894 4750 
Q 2613 4750 3031 4423 
Q 3450 4097 3450 3541 
Q 3450 3153 3228 2886 
Q 3006 2619 2597 2516 
z
" transform="scale(0.015625)"/>
     </defs>
     <use xlink:href="#DejaVuSans-76"/>
     <use xlink:href="#DejaVuSans-32" x="59.179688"/>
     <use xlink:href="#DejaVuSans-2e" x="122.802734"/>
     <use xlink:href="#DejaVuSans-36" x="154.589844"/>
     <use xlink:href="#DejaVuSans-2e" x="218.212891"/>
     <use xlink:href="#DejaVuSans-33" x="250"/>
    </g>
   </g>
  </g>
 </g>
 <defs>
  <clipPath id="p6849074776">
   <rect x="0" y="3.456" width="460.8" height="290.304"/>
  </clipPath>
 </defs>
</svg>
