<?xml version="1.0" encoding="utf-8" standalone="no"?>
<!DOCTYPE svg PUBLIC "-//W3C//DTD SVG 1.1//EN"
  "http://www.w3.org/Graphics/SVG/1.1/DTD/svg11.dtd">
<svg xmlns:xlink="http://www.w3.org/1999/xlink" width="460.8pt" height="345.6pt" viewBox="0 0 460.8 345.6" xmlns="http://www.w3.org/2000/svg" version="1.1">
 <metadata>
  <rdf:RDF xmlns:dc="http://purl.org/dc/elements/1.1/" xmlns:cc="http://creativecommons.org/ns#" xmlns:rdf="http://www.w3.org/1999/02/22-rdf-syntax-ns#">
   <cc:Work>
    <dc:type rdf:resource="http://purl.org/dc/dcmitype/StillImage"/>
    <dc:date>2024-06-19T23:15:51.201455</dc:date>
    <dc:format>image/svg+xml</dc:format>
    <dc:creator>
     <cc:Agent>
      <dc:title>Matplotlib v3.7.5, https://matplotlib.org/</dc:title>
     </cc:Agent>
    </dc:creator>
   </cc:Work>
  </rdf:RDF>
 </metadata>
 <defs>
  <style type="text/css">*{stroke-linejoin: round; stroke-linecap: butt}</style>
 </defs>
 <g id="figure_1">
  <g id="patch_1">
   <path d="M 0 345.6 
L 460.8 345.6 
L 460.8 0 
L 0 0 
z
" style="fill: #ffffff"/>
  </g>
  <g id="axes_1">
   <g id="patch_2">
    <path d="M 0 293.76 
L 460.8 293.76 
L 460.8 3.456 
L 0 3.456 
z
" style="fill: #ffffff"/>
   </g>
   <g id="matplotlib.axis_1">
    <g id="xtick_1">
     <g id="line2d_1">
      <path d="M 101.409188 293.76 
L 101.409188 3.456 
" clip-path="url(#p50a1b76986)" style="fill: none; stroke: #b0b0b0; stroke-width: 0.8; stroke-linecap: square"/>
     </g>
     <g id="line2d_2">
      <defs>
       <path id="m2527e72897" d="M 0 0 
L 0 3.5 
" style="stroke: #000000; stroke-width: 0.8"/>
      </defs>
      <g>
       <use xlink:href="#m2527e72897" x="101.409188" y="293.76" style="stroke: #000000; stroke-width: 0.8"/>
      </g>
     </g>
     <g id="text_1">
      <!-- -4 -->
      <g transform="translate(91.438875 315.956875) scale(0.2 -0.2)">
       <defs>
        <path id="DejaVuSans-2d" d="M 313 2009 
L 1997 2009 
L 1997 1497 
L 313 1497 
L 313 2009 
z
" transform="scale(0.015625)"/>
        <path id="DejaVuSans-34" d="M 2419 4116 
L 825 1625 
L 2419 1625 
L 2419 4116 
z
M 2253 4666 
L 3047 4666 
L 3047 1625 
L 3713 1625 
L 3713 1100 
L 3047 1100 
L 3047 0 
L 2419 0 
L 2419 1100 
L 313 1100 
L 313 1709 
L 2253 4666 
z
" transform="scale(0.015625)"/>
       </defs>
       <use xlink:href="#DejaVuSans-2d"/>
       <use xlink:href="#DejaVuSans-34" x="36.083984"/>
      </g>
     </g>
    </g>
    <g id="xtick_2">
     <g id="line2d_3">
      <path d="M 202.928051 293.76 
L 202.928051 3.456 
" clip-path="url(#p50a1b76986)" style="fill: none; stroke: #b0b0b0; stroke-width: 0.8; stroke-linecap: square"/>
     </g>
     <g id="line2d_4">
      <g>
       <use xlink:href="#m2527e72897" x="202.928051" y="293.76" style="stroke: #000000; stroke-width: 0.8"/>
      </g>
     </g>
     <g id="text_2">
      <!-- 0 -->
      <g transform="translate(196.565551 315.956875) scale(0.2 -0.2)">
       <defs>
        <path id="DejaVuSans-30" d="M 2034 4250 
Q 1547 4250 1301 3770 
Q 1056 3291 1056 2328 
Q 1056 1369 1301 889 
Q 1547 409 2034 409 
Q 2525 409 2770 889 
Q 3016 1369 3016 2328 
Q 3016 3291 2770 3770 
Q 2525 4250 2034 4250 
z
M 2034 4750 
Q 2819 4750 3233 4129 
Q 3647 3509 3647 2328 
Q 3647 1150 3233 529 
Q 2819 -91 2034 -91 
Q 1250 -91 836 529 
Q 422 1150 422 2328 
Q 422 3509 836 4129 
Q 1250 4750 2034 4750 
z
" transform="scale(0.015625)"/>
       </defs>
       <use xlink:href="#DejaVuSans-30"/>
      </g>
     </g>
    </g>
    <g id="xtick_3">
     <g id="line2d_5">
      <path d="M 304.446914 293.76 
L 304.446914 3.456 
" clip-path="url(#p50a1b76986)" style="fill: none; stroke: #b0b0b0; stroke-width: 0.8; stroke-linecap: square"/>
     </g>
     <g id="line2d_6">
      <g>
       <use xlink:href="#m2527e72897" x="304.446914" y="293.76" style="stroke: #000000; stroke-width: 0.8"/>
      </g>
     </g>
     <g id="text_3">
      <!-- 4 -->
      <g transform="translate(298.084414 315.956875) scale(0.2 -0.2)">
       <use xlink:href="#DejaVuSans-34"/>
      </g>
     </g>
    </g>
    <g id="xtick_4">
     <g id="line2d_7">
      <path d="M 405.965777 293.76 
L 405.965777 3.456 
" clip-path="url(#p50a1b76986)" style="fill: none; stroke: #b0b0b0; stroke-width: 0.8; stroke-linecap: square"/>
     </g>
     <g id="line2d_8">
      <g>
       <use xlink:href="#m2527e72897" x="405.965777" y="293.76" style="stroke: #000000; stroke-width: 0.8"/>
      </g>
     </g>
     <g id="text_4">
      <!-- 8 -->
      <g transform="translate(399.603277 315.956875) scale(0.2 -0.2)">
       <defs>
        <path id="DejaVuSans-38" d="M 2034 2216 
Q 1584 2216 1326 1975 
Q 1069 1734 1069 1313 
Q 1069 891 1326 650 
Q 1584 409 2034 409 
Q 2484 409 2743 651 
Q 3003 894 3003 1313 
Q 3003 1734 2745 1975 
Q 2488 2216 2034 2216 
z
M 1403 2484 
Q 997 2584 770 2862 
Q 544 3141 544 3541 
Q 544 4100 942 4425 
Q 1341 4750 2034 4750 
Q 2731 4750 3128 4425 
Q 3525 4100 3525 3541 
Q 3525 3141 3298 2862 
Q 3072 2584 2669 2484 
Q 3125 2378 3379 2068 
Q 3634 1759 3634 1313 
Q 3634 634 3220 271 
Q 2806 -91 2034 -91 
Q 1263 -91 848 271 
Q 434 634 434 1313 
Q 434 1759 690 2068 
Q 947 2378 1403 2484 
z
M 1172 3481 
Q 1172 3119 1398 2916 
Q 1625 2713 2034 2713 
Q 2441 2713 2670 2916 
Q 2900 3119 2900 3481 
Q 2900 3844 2670 4047 
Q 2441 4250 2034 4250 
Q 1625 4250 1398 4047 
Q 1172 3844 1172 3481 
z
" transform="scale(0.015625)"/>
       </defs>
       <use xlink:href="#DejaVuSans-38"/>
      </g>
     </g>
    </g>
    <g id="text_5">
     <!-- log10 of Df -->
     <g transform="translate(175.214063 339.313125) scale(0.2 -0.2)">
      <defs>
       <path id="DejaVuSans-6c" d="M 603 4863 
L 1178 4863 
L 1178 0 
L 603 0 
L 603 4863 
z
" transform="scale(0.015625)"/>
       <path id="DejaVuSans-6f" d="M 1959 3097 
Q 1497 3097 1228 2736 
Q 959 2375 959 1747 
Q 959 1119 1226 758 
Q 1494 397 1959 397 
Q 2419 397 2687 759 
Q 2956 1122 2956 1747 
Q 2956 2369 2687 2733 
Q 2419 3097 1959 3097 
z
M 1959 3584 
Q 2709 3584 3137 3096 
Q 3566 2609 3566 1747 
Q 3566 888 3137 398 
Q 2709 -91 1959 -91 
Q 1206 -91 779 398 
Q 353 888 353 1747 
Q 353 2609 779 3096 
Q 1206 3584 1959 3584 
z
" transform="scale(0.015625)"/>
       <path id="DejaVuSans-67" d="M 2906 1791 
Q 2906 2416 2648 2759 
Q 2391 3103 1925 3103 
Q 1463 3103 1205 2759 
Q 947 2416 947 1791 
Q 947 1169 1205 825 
Q 1463 481 1925 481 
Q 2391 481 2648 825 
Q 2906 1169 2906 1791 
z
M 3481 434 
Q 3481 -459 3084 -895 
Q 2688 -1331 1869 -1331 
Q 1566 -1331 1297 -1286 
Q 1028 -1241 775 -1147 
L 775 -588 
Q 1028 -725 1275 -790 
Q 1522 -856 1778 -856 
Q 2344 -856 2625 -561 
Q 2906 -266 2906 331 
L 2906 616 
Q 2728 306 2450 153 
Q 2172 0 1784 0 
Q 1141 0 747 490 
Q 353 981 353 1791 
Q 353 2603 747 3093 
Q 1141 3584 1784 3584 
Q 2172 3584 2450 3431 
Q 2728 3278 2906 2969 
L 2906 3500 
L 3481 3500 
L 3481 434 
z
" transform="scale(0.015625)"/>
       <path id="DejaVuSans-31" d="M 794 531 
L 1825 531 
L 1825 4091 
L 703 3866 
L 703 4441 
L 1819 4666 
L 2450 4666 
L 2450 531 
L 3481 531 
L 3481 0 
L 794 0 
L 794 531 
z
" transform="scale(0.015625)"/>
       <path id="DejaVuSans-20" transform="scale(0.015625)"/>
       <path id="DejaVuSans-66" d="M 2375 4863 
L 2375 4384 
L 1825 4384 
Q 1516 4384 1395 4259 
Q 1275 4134 1275 3809 
L 1275 3500 
L 2222 3500 
L 2222 3053 
L 1275 3053 
L 1275 0 
L 697 0 
L 697 3053 
L 147 3053 
L 147 3500 
L 697 3500 
L 697 3744 
Q 697 4328 969 4595 
Q 1241 4863 1831 4863 
L 2375 4863 
z
" transform="scale(0.015625)"/>
       <path id="DejaVuSans-44" d="M 1259 4147 
L 1259 519 
L 2022 519 
Q 2988 519 3436 956 
Q 3884 1394 3884 2338 
Q 3884 3275 3436 3711 
Q 2988 4147 2022 4147 
L 1259 4147 
z
M 628 4666 
L 1925 4666 
Q 3281 4666 3915 4102 
Q 4550 3538 4550 2338 
Q 4550 1131 3912 565 
Q 3275 0 1925 0 
L 628 0 
L 628 4666 
z
" transform="scale(0.015625)"/>
      </defs>
      <use xlink:href="#DejaVuSans-6c"/>
      <use xlink:href="#DejaVuSans-6f" x="27.783203"/>
      <use xlink:href="#DejaVuSans-67" x="88.964844"/>
      <use xlink:href="#DejaVuSans-31" x="152.441406"/>
      <use xlink:href="#DejaVuSans-30" x="216.064453"/>
      <use xlink:href="#DejaVuSans-20" x="279.6875"/>
      <use xlink:href="#DejaVuSans-6f" x="311.474609"/>
      <use xlink:href="#DejaVuSans-66" x="372.65625"/>
      <use xlink:href="#DejaVuSans-20" x="407.861328"/>
      <use xlink:href="#DejaVuSans-44" x="439.648438"/>
      <use xlink:href="#DejaVuSans-66" x="516.650391"/>
     </g>
    </g>
   </g>
   <g id="matplotlib.axis_2">
    <g id="ytick_1">
     <g id="line2d_9">
      <path d="M 0 293.76 
L 460.8 293.76 
" clip-path="url(#p50a1b76986)" style="fill: none; stroke: #b0b0b0; stroke-width: 0.8; stroke-linecap: square"/>
     </g>
     <g id="line2d_10">
      <defs>
       <path id="m536ce8b8c6" d="M 0 0 
L -3.5 0 
" style="stroke: #000000; stroke-width: 0.8"/>
      </defs>
      <g>
       <use xlink:href="#m536ce8b8c6" x="0" y="293.76" style="stroke: #000000; stroke-width: 0.8"/>
      </g>
     </g>
    </g>
    <g id="ytick_2">
     <g id="line2d_11">
      <path d="M 0 236.274059 
L 460.8 236.274059 
" clip-path="url(#p50a1b76986)" style="fill: none; stroke: #b0b0b0; stroke-width: 0.8; stroke-linecap: square"/>
     </g>
     <g id="line2d_12">
      <g>
       <use xlink:href="#m536ce8b8c6" x="0" y="236.274059" style="stroke: #000000; stroke-width: 0.8"/>
      </g>
     </g>
    </g>
    <g id="ytick_3">
     <g id="line2d_13">
      <path d="M 0 178.788119 
L 460.8 178.788119 
" clip-path="url(#p50a1b76986)" style="fill: none; stroke: #b0b0b0; stroke-width: 0.8; stroke-linecap: square"/>
     </g>
     <g id="line2d_14">
      <g>
       <use xlink:href="#m536ce8b8c6" x="0" y="178.788119" style="stroke: #000000; stroke-width: 0.8"/>
      </g>
     </g>
    </g>
    <g id="ytick_4">
     <g id="line2d_15">
      <path d="M 0 121.302178 
L 460.8 121.302178 
" clip-path="url(#p50a1b76986)" style="fill: none; stroke: #b0b0b0; stroke-width: 0.8; stroke-linecap: square"/>
     </g>
     <g id="line2d_16">
      <g>
       <use xlink:href="#m536ce8b8c6" x="0" y="121.302178" style="stroke: #000000; stroke-width: 0.8"/>
      </g>
     </g>
    </g>
    <g id="ytick_5">
     <g id="line2d_17">
      <path d="M 0 63.816238 
L 460.8 63.816238 
" clip-path="url(#p50a1b76986)" style="fill: none; stroke: #b0b0b0; stroke-width: 0.8; stroke-linecap: square"/>
     </g>
     <g id="line2d_18">
      <g>
       <use xlink:href="#m536ce8b8c6" x="0" y="63.816238" style="stroke: #000000; stroke-width: 0.8"/>
      </g>
     </g>
    </g>
    <g id="ytick_6">
     <g id="line2d_19">
      <path d="M 0 6.330297 
L 460.8 6.330297 
" clip-path="url(#p50a1b76986)" style="fill: none; stroke: #b0b0b0; stroke-width: 0.8; stroke-linecap: square"/>
     </g>
     <g id="line2d_20">
      <g>
       <use xlink:href="#m536ce8b8c6" x="0" y="6.330297" style="stroke: #000000; stroke-width: 0.8"/>
      </g>
     </g>
    </g>
   </g>
   <g id="line2d_21">
    <path d="M -1 25.492277 
L 33.528833 25.492277 
L 33.528833 20.701782 
L 153.218996 20.701782 
L 153.218996 15.911287 
L 161.865366 15.911287 
L 161.865366 11.120792 
L 199.940394 11.120792 
L 199.940394 6.330297 
L 199.940394 6.330297 
L 199.940394 6.330297 
L 460.8 6.330297 
" clip-path="url(#p50a1b76986)" style="fill: none; stroke: #ff0000; stroke-width: 3; stroke-linecap: square"/>
   </g>
   <g id="line2d_22">
    <path d="M 274.326389 293.76 
L 274.326389 288.969505 
L 275.688402 288.969505 
L 275.688402 284.17901 
L 276.227909 284.17901 
L 276.227909 279.388515 
L 280.713396 279.388515 
L 280.713396 274.59802 
L 281.036014 274.59802 
L 281.036014 269.807525 
L 281.278389 269.807525 
L 281.278389 265.01703 
L 283.27808 265.01703 
L 283.27808 260.226535 
L 284.05883 260.226535 
L 284.05883 255.43604 
L 284.452912 255.43604 
L 284.452912 250.645545 
L 284.556636 250.645545 
L 284.556636 245.85505 
L 284.860662 245.85505 
L 284.860662 241.064554 
L 285.205208 241.064554 
L 285.205208 236.274059 
L 286.04257 236.274059 
L 286.04257 231.483564 
L 288.781309 231.483564 
L 288.781309 226.693069 
L 289.297731 226.693069 
L 289.297731 221.902574 
L 334.339591 221.902574 
L 334.339591 217.112079 
L 335.637719 217.112079 
L 335.637719 212.321584 
L 335.694417 212.321584 
L 335.694417 207.531089 
L 337.196862 207.531089 
L 337.196862 202.740594 
L 338.102291 202.740594 
L 338.102291 197.950099 
L 338.976219 197.950099 
L 338.976219 193.159604 
L 338.996019 193.159604 
L 338.996019 188.369109 
L 341.738641 188.369109 
L 341.738641 183.578614 
L 342.055782 183.578614 
L 342.055782 178.788119 
L 342.063986 178.788119 
L 342.063986 173.997624 
L 342.100236 173.997624 
L 342.100236 169.207129 
L 342.545499 169.207129 
L 342.545499 164.416634 
L 342.857581 164.416634 
L 342.857581 159.626139 
L 342.91654 159.626139 
L 342.91654 154.835644 
L 343.122109 154.835644 
L 343.122109 150.045149 
L 343.306607 150.045149 
L 343.306607 145.254653 
L 343.320898 145.254653 
L 343.320898 140.464158 
L 343.545215 140.464158 
L 343.545215 135.673663 
L 343.577704 135.673663 
L 343.577704 130.883168 
L 343.920823 130.883168 
L 343.920823 126.092673 
L 344.45979 126.092673 
L 344.45979 121.302178 
L 344.523208 121.302178 
L 344.523208 116.511683 
L 344.586188 116.511683 
L 344.586188 111.721188 
L 344.977001 111.721188 
L 344.977001 106.930693 
L 345.064823 106.930693 
L 345.064823 102.140198 
L 345.369269 102.140198 
L 345.369269 97.349703 
L 345.612571 97.349703 
L 345.612571 92.559208 
L 346.594198 92.559208 
L 346.594198 87.768713 
L 346.649092 87.768713 
L 346.649092 82.978218 
L 346.819532 82.978218 
L 346.819532 78.187723 
L 346.846984 78.187723 
L 346.846984 73.397228 
L 348.005575 73.397228 
L 348.005575 68.606733 
L 348.00616 68.606733 
L 348.00616 63.816238 
L 349.185522 63.816238 
L 349.185522 59.025743 
L 349.278118 59.025743 
L 349.278118 54.235248 
L 349.365803 54.235248 
L 349.365803 49.444752 
L 349.509394 49.444752 
L 349.509394 44.654257 
L 350.017882 44.654257 
L 350.017882 39.863762 
L 350.222715 39.863762 
L 350.222715 35.073267 
L 350.963216 35.073267 
L 350.963216 30.282772 
L 351.081535 30.282772 
L 351.081535 25.492277 
L 351.166287 25.492277 
L 351.166287 20.701782 
L 352.080471 20.701782 
L 352.080471 15.911287 
L 352.741739 15.911287 
L 352.741739 11.120792 
L 355.767196 11.120792 
L 355.767196 6.330297 
L 355.767196 6.330297 
L 355.767196 6.330297 
L 460.8 6.330297 
" clip-path="url(#p50a1b76986)" style="fill: none; stroke: #00bfbf; stroke-width: 1.5; stroke-linecap: square"/>
   </g>
   <g id="line2d_23">
    <path d="M 271.520919 293.76 
L 271.520919 288.969505 
L 274.326389 288.969505 
L 274.326389 284.17901 
L 275.688402 284.17901 
L 275.688402 279.388515 
L 276.227909 279.388515 
L 276.227909 274.59802 
L 277.631823 274.59802 
L 277.631823 269.807525 
L 279.62114 269.807525 
L 279.62114 265.01703 
L 279.80312 265.01703 
L 279.80312 260.226535 
L 280.420176 260.226535 
L 280.420176 255.43604 
L 281.036014 255.43604 
L 281.036014 250.645545 
L 281.278389 250.645545 
L 281.278389 245.85505 
L 281.393971 245.85505 
L 281.393971 241.064554 
L 282.96731 241.064554 
L 282.96731 236.274059 
L 284.45489 236.274059 
L 284.45489 231.483564 
L 286.06676 231.483564 
L 286.06676 226.693069 
L 286.614679 226.693069 
L 286.614679 221.902574 
L 324.150222 221.902574 
L 324.150222 217.112079 
L 324.183311 217.112079 
L 324.183311 212.321584 
L 326.532338 212.321584 
L 326.532338 207.531089 
L 328.20861 207.531089 
L 328.20861 202.740594 
L 329.070666 202.740594 
L 329.070666 197.950099 
L 329.413832 197.950099 
L 329.413832 193.159604 
L 329.740458 193.159604 
L 329.740458 188.369109 
L 330.213237 188.369109 
L 330.213237 183.578614 
L 330.337763 183.578614 
L 330.337763 178.788119 
L 330.98747 178.788119 
L 330.98747 173.997624 
L 331.691135 173.997624 
L 331.691135 169.207129 
L 331.698885 169.207129 
L 331.698885 164.416634 
L 333.174497 164.416634 
L 333.174497 159.626139 
L 333.312377 159.626139 
L 333.312377 154.835644 
L 334.265892 154.835644 
L 334.265892 150.045149 
L 334.361933 150.045149 
L 334.361933 145.254653 
L 334.616547 145.254653 
L 334.616547 140.464158 
L 335.694417 140.464158 
L 335.694417 135.673663 
L 336.383842 135.673663 
L 336.383842 130.883168 
L 336.500395 130.883168 
L 336.500395 126.092673 
L 336.920664 126.092673 
L 336.920664 121.302178 
L 337.455549 121.302178 
L 337.455549 116.511683 
L 337.76653 116.511683 
L 337.76653 111.721188 
L 338.996019 111.721188 
L 338.996019 106.930693 
L 339.225472 106.930693 
L 339.225472 102.140198 
L 339.430483 102.140198 
L 339.430483 97.349703 
L 339.842629 97.349703 
L 339.842629 92.559208 
L 342.124941 92.559208 
L 342.124941 87.768713 
L 342.258137 87.768713 
L 342.258137 82.978218 
L 342.762502 82.978218 
L 342.762502 78.187723 
L 343.306607 78.187723 
L 343.306607 73.397228 
L 343.78418 73.397228 
L 343.78418 68.606733 
L 343.887777 68.606733 
L 343.887777 63.816238 
L 344.374979 63.816238 
L 344.374979 59.025743 
L 345.413115 59.025743 
L 345.413115 54.235248 
L 345.87308 54.235248 
L 345.87308 49.444752 
L 347.754529 49.444752 
L 347.754529 44.654257 
L 348.143416 44.654257 
L 348.143416 39.863762 
L 349.12302 39.863762 
L 349.12302 35.073267 
L 349.160468 35.073267 
L 349.160468 30.282772 
L 349.165135 30.282772 
L 349.165135 25.492277 
L 349.260381 25.492277 
L 349.260381 20.701782 
L 349.509394 20.701782 
L 349.509394 15.911287 
L 349.790024 15.911287 
L 349.790024 11.120792 
L 350.017882 11.120792 
L 350.017882 6.330297 
L 350.017882 6.330297 
L 350.017882 6.330297 
L 460.8 6.330297 
" clip-path="url(#p50a1b76986)" style="fill: none; stroke: #bf00bf; stroke-width: 1.5; stroke-linecap: square"/>
   </g>
   <g id="line2d_24">
    <path d="M 271.520919 293.76 
L 271.520919 288.969505 
L 272.894 288.969505 
L 272.894 284.17901 
L 273.567345 284.17901 
L 273.567345 279.388515 
L 273.609592 279.388515 
L 273.609592 274.59802 
L 273.90805 274.59802 
L 273.90805 269.807525 
L 274.379782 269.807525 
L 274.379782 265.01703 
L 275.58272 265.01703 
L 275.58272 260.226535 
L 275.688402 260.226535 
L 275.688402 255.43604 
L 276.227909 255.43604 
L 276.227909 250.645545 
L 276.497915 250.645545 
L 276.497915 245.85505 
L 277.631823 245.85505 
L 277.631823 241.064554 
L 277.861208 241.064554 
L 277.861208 236.274059 
L 277.955947 236.274059 
L 277.955947 231.483564 
L 277.959159 231.483564 
L 277.959159 226.693069 
L 280.281385 226.693069 
L 280.281385 221.902574 
L 300.878807 221.902574 
L 300.878807 217.112079 
L 311.958569 217.112079 
L 311.958569 212.321584 
L 317.228154 212.321584 
L 317.228154 207.531089 
L 318.46173 207.531089 
L 318.46173 202.740594 
L 320.379852 202.740594 
L 320.379852 197.950099 
L 322.224046 197.950099 
L 322.224046 193.159604 
L 322.383287 193.159604 
L 322.383287 188.369109 
L 323.105573 188.369109 
L 323.105573 183.578614 
L 324.150222 183.578614 
L 324.150222 178.788119 
L 324.183311 178.788119 
L 324.183311 173.997624 
L 325.07494 173.997624 
L 325.07494 169.207129 
L 326.532338 169.207129 
L 326.532338 164.416634 
L 326.55905 164.416634 
L 326.55905 159.626139 
L 326.677628 159.626139 
L 326.677628 154.835644 
L 328.955878 154.835644 
L 328.955878 150.045149 
L 329.413832 150.045149 
L 329.413832 145.254653 
L 329.614044 145.254653 
L 329.614044 140.464158 
L 329.740458 140.464158 
L 329.740458 135.673663 
L 330.151605 135.673663 
L 330.151605 130.883168 
L 330.213237 130.883168 
L 330.213237 126.092673 
L 330.337763 126.092673 
L 330.337763 121.302178 
L 330.993181 121.302178 
L 330.993181 116.511683 
L 331.367037 116.511683 
L 331.367037 111.721188 
L 331.439787 111.721188 
L 331.439787 106.930693 
L 331.50469 106.930693 
L 331.50469 102.140198 
L 331.673324 102.140198 
L 331.673324 97.349703 
L 331.698885 97.349703 
L 331.698885 92.559208 
L 332.253714 92.559208 
L 332.253714 87.768713 
L 332.342289 87.768713 
L 332.342289 82.978218 
L 332.403648 82.978218 
L 332.403648 78.187723 
L 332.490581 78.187723 
L 332.490581 73.397228 
L 332.68236 73.397228 
L 332.68236 68.606733 
L 332.858538 68.606733 
L 332.858538 63.816238 
L 334.005111 63.816238 
L 334.005111 59.025743 
L 334.596639 59.025743 
L 334.596639 54.235248 
L 334.912203 54.235248 
L 334.912203 49.444752 
L 335.726783 49.444752 
L 335.726783 44.654257 
L 335.78045 44.654257 
L 335.78045 39.863762 
L 336.31259 39.863762 
L 336.31259 35.073267 
L 337.125824 35.073267 
L 337.125824 30.282772 
L 337.76653 30.282772 
L 337.76653 25.492277 
L 341.529657 25.492277 
L 341.529657 20.701782 
L 344.254886 20.701782 
L 344.254886 15.911287 
L 347.933276 15.911287 
L 347.933276 11.120792 
L 349.036473 11.120792 
L 349.036473 6.330297 
L 349.036473 6.330297 
L 349.036473 6.330297 
L 460.8 6.330297 
" clip-path="url(#p50a1b76986)" style="fill: none; stroke: #000000; stroke-width: 1.5; stroke-linecap: square"/>
   </g>
   <g id="line2d_25">
    <path d="M 261.822363 293.76 
L 261.822363 288.969505 
L 262.060255 288.969505 
L 262.060255 284.17901 
L 263.031923 284.17901 
L 263.031923 279.388515 
L 263.583676 279.388515 
L 263.583676 274.59802 
L 263.750434 274.59802 
L 263.750434 269.807525 
L 264.28425 269.807525 
L 264.28425 265.01703 
L 264.638656 265.01703 
L 264.638656 260.226535 
L 266.149378 260.226535 
L 266.149378 255.43604 
L 266.24084 255.43604 
L 266.24084 250.645545 
L 266.716891 250.645545 
L 266.716891 245.85505 
L 266.834226 245.85505 
L 266.834226 241.064554 
L 267.250767 241.064554 
L 267.250767 236.274059 
L 267.998244 236.274059 
L 267.998244 231.483564 
L 269.946105 231.483564 
L 269.946105 226.693069 
L 271.881928 226.693069 
L 271.881928 221.902574 
L 273.52983 221.902574 
L 273.52983 217.112079 
L 274.87153 217.112079 
L 274.87153 212.321584 
L 274.897181 212.321584 
L 274.897181 207.531089 
L 275.874321 207.531089 
L 275.874321 202.740594 
L 276.360989 202.740594 
L 276.360989 197.950099 
L 276.707733 197.950099 
L 276.707733 193.159604 
L 277.739806 193.159604 
L 277.739806 188.369109 
L 278.636453 188.369109 
L 278.636453 183.578614 
L 278.725538 183.578614 
L 278.725538 178.788119 
L 279.799835 178.788119 
L 279.799835 173.997624 
L 280.338458 173.997624 
L 280.338458 169.207129 
L 281.329364 169.207129 
L 281.329364 164.416634 
L 281.548882 164.416634 
L 281.548882 159.626139 
L 285.420685 159.626139 
L 285.420685 154.835644 
L 286.503967 154.835644 
L 286.503967 150.045149 
L 290.40849 150.045149 
L 290.40849 145.254653 
L 291.038331 145.254653 
L 291.038331 140.464158 
L 292.571992 140.464158 
L 292.571992 135.673663 
L 294.491857 135.673663 
L 294.491857 130.883168 
L 296.365936 130.883168 
L 296.365936 126.092673 
L 296.369 126.092673 
L 296.369 121.302178 
L 297.119513 121.302178 
L 297.119513 116.511683 
L 297.1805 116.511683 
L 297.1805 111.721188 
L 298.70828 111.721188 
L 298.70828 106.930693 
L 298.862615 106.930693 
L 298.862615 102.140198 
L 299.19164 102.140198 
L 299.19164 97.349703 
L 299.231014 97.349703 
L 299.231014 92.559208 
L 300.051495 92.559208 
L 300.051495 87.768713 
L 302.356612 87.768713 
L 302.356612 82.978218 
L 302.720902 82.978218 
L 302.720902 78.187723 
L 302.7529 78.187723 
L 302.7529 73.397228 
L 303.179876 73.397228 
L 303.179876 68.606733 
L 303.784542 68.606733 
L 303.784542 63.816238 
L 304.107035 63.816238 
L 304.107035 59.025743 
L 305.083832 59.025743 
L 305.083832 54.235248 
L 305.501821 54.235248 
L 305.501821 49.444752 
L 305.654001 49.444752 
L 305.654001 44.654257 
L 305.861458 44.654257 
L 305.861458 39.863762 
L 306.404485 39.863762 
L 306.404485 35.073267 
L 307.451073 35.073267 
L 307.451073 30.282772 
L 307.494284 30.282772 
L 307.494284 25.492277 
L 308.541766 25.492277 
L 308.541766 20.701782 
L 308.677642 20.701782 
L 308.677642 15.911287 
L 309.778994 15.911287 
L 309.778994 11.120792 
L 310.988787 11.120792 
L 310.988787 6.330297 
L 310.988787 6.330297 
L 310.988787 6.330297 
L 460.8 6.330297 
" clip-path="url(#p50a1b76986)" style="fill: none; stroke: #00bfbf; stroke-width: 1.5; stroke-linecap: square"/>
   </g>
   <g id="line2d_26">
    <path d="M 205.970779 293.76 
L 205.970779 288.969505 
L 210.233552 288.969505 
L 210.233552 284.17901 
L 212.21702 284.17901 
L 212.21702 279.388515 
L 213.871314 279.388515 
L 213.871314 274.59802 
L 214.5483 274.59802 
L 214.5483 269.807525 
L 217.544885 269.807525 
L 217.544885 265.01703 
L 218.405957 265.01703 
L 218.405957 260.226535 
L 220.657129 260.226535 
L 220.657129 255.43604 
L 221.501288 255.43604 
L 221.501288 250.645545 
L 222.60305 250.645545 
L 222.60305 245.85505 
L 223.930392 245.85505 
L 223.930392 241.064554 
L 224.344685 241.064554 
L 224.344685 236.274059 
L 224.689149 236.274059 
L 224.689149 231.483564 
L 225.450869 231.483564 
L 225.450869 226.693069 
L 225.454271 226.693069 
L 225.454271 221.902574 
L 226.758893 221.902574 
L 226.758893 217.112079 
L 226.788919 217.112079 
L 226.788919 212.321584 
L 227.16494 212.321584 
L 227.16494 207.531089 
L 227.652554 207.531089 
L 227.652554 202.740594 
L 228.00944 202.740594 
L 228.00944 197.950099 
L 228.272164 197.950099 
L 228.272164 193.159604 
L 229.261068 193.159604 
L 229.261068 188.369109 
L 229.982147 188.369109 
L 229.982147 183.578614 
L 230.899946 183.578614 
L 230.899946 178.788119 
L 230.901647 178.788119 
L 230.901647 173.997624 
L 230.934218 173.997624 
L 230.934218 169.207129 
L 231.146459 169.207129 
L 231.146459 164.416634 
L 232.591903 164.416634 
L 232.591903 159.626139 
L 233.465313 159.626139 
L 233.465313 154.835644 
L 233.659478 154.835644 
L 233.659478 150.045149 
L 233.850126 150.045149 
L 233.850126 145.254653 
L 233.882623 145.254653 
L 233.882623 140.464158 
L 233.98251 140.464158 
L 233.98251 135.673663 
L 234.071844 135.673663 
L 234.071844 130.883168 
L 234.169662 130.883168 
L 234.169662 126.092673 
L 234.467578 126.092673 
L 234.467578 121.302178 
L 234.518258 121.302178 
L 234.518258 116.511683 
L 234.533621 116.511683 
L 234.533621 111.721188 
L 234.630149 111.721188 
L 234.630149 106.930693 
L 234.640478 106.930693 
L 234.640478 102.140198 
L 234.644756 102.140198 
L 234.644756 97.349703 
L 234.712418 97.349703 
L 234.712418 92.559208 
L 234.795953 92.559208 
L 234.795953 87.768713 
L 234.834903 87.768713 
L 234.834903 82.978218 
L 234.966151 82.978218 
L 234.966151 78.187723 
L 235.049286 78.187723 
L 235.049286 73.397228 
L 235.123132 73.397228 
L 235.123132 68.606733 
L 235.290934 68.606733 
L 235.290934 63.816238 
L 235.331486 63.816238 
L 235.331486 59.025743 
L 235.441308 59.025743 
L 235.441308 54.235248 
L 235.510726 54.235248 
L 235.510726 49.444752 
L 235.592587 49.444752 
L 235.592587 44.654257 
L 235.922665 44.654257 
L 235.922665 39.863762 
L 236.19838 39.863762 
L 236.19838 35.073267 
L 237.86302 35.073267 
L 237.86302 30.282772 
L 247.965514 30.282772 
L 247.965514 25.492277 
L 250.984652 25.492277 
L 250.984652 20.701782 
L 251.538655 20.701782 
L 251.538655 15.911287 
L 252.823804 15.911287 
L 252.823804 11.120792 
L 262.341386 11.120792 
L 262.341386 6.330297 
L 262.341386 6.330297 
L 262.341386 6.330297 
L 460.8 6.330297 
" clip-path="url(#p50a1b76986)" style="fill: none; stroke: #bf00bf; stroke-width: 1.5; stroke-linecap: square"/>
   </g>
   <g id="line2d_27">
    <path d="M -1 25.492277 
L 33.528833 25.492277 
L 33.528833 20.701782 
L 153.218996 20.701782 
L 153.218996 15.911287 
L 161.865366 15.911287 
L 161.865366 11.120792 
L 199.940394 11.120792 
L 199.940394 6.330297 
L 199.940394 6.330297 
L 199.940394 6.330297 
L 460.8 6.330297 
" clip-path="url(#p50a1b76986)" style="fill: none; stroke: #000000; stroke-width: 1.5; stroke-linecap: square"/>
   </g>
   <g id="patch_3">
    <path d="M 0 293.76 
L 0 3.456 
" style="fill: none; stroke: #000000; stroke-width: 0.8; stroke-linejoin: miter; stroke-linecap: square"/>
   </g>
   <g id="patch_4">
    <path d="M 460.8 293.76 
L 460.8 3.456 
" style="fill: none; stroke: #000000; stroke-width: 0.8; stroke-linejoin: miter; stroke-linecap: square"/>
   </g>
   <g id="patch_5">
    <path d="M 0 293.76 
L 460.8 293.76 
" style="fill: none; stroke: #000000; stroke-width: 0.8; stroke-linejoin: miter; stroke-linecap: square"/>
   </g>
   <g id="patch_6">
    <path d="M 0 3.456 
L 460.8 3.456 
" style="fill: none; stroke: #000000; stroke-width: 0.8; stroke-linejoin: miter; stroke-linecap: square"/>
   </g>
   <g id="text_6">
    <!-- {f6-f9}, 20-D -->
    <g transform="translate(318.609 287.95392) scale(0.2 -0.2)">
     <defs>
      <path id="DejaVuSans-7b" d="M 3272 -594 
L 3272 -1044 
L 3078 -1044 
Q 2300 -1044 2036 -812 
Q 1772 -581 1772 109 
L 1772 856 
Q 1772 1328 1603 1509 
Q 1434 1691 991 1691 
L 800 1691 
L 800 2138 
L 991 2138 
Q 1438 2138 1605 2317 
Q 1772 2497 1772 2963 
L 1772 3713 
Q 1772 4403 2036 4633 
Q 2300 4863 3078 4863 
L 3272 4863 
L 3272 4416 
L 3059 4416 
Q 2619 4416 2484 4278 
Q 2350 4141 2350 3700 
L 2350 2925 
Q 2350 2434 2208 2212 
Q 2066 1991 1722 1913 
Q 2069 1828 2209 1606 
Q 2350 1384 2350 897 
L 2350 122 
Q 2350 -319 2484 -456 
Q 2619 -594 3059 -594 
L 3272 -594 
z
" transform="scale(0.015625)"/>
      <path id="DejaVuSans-36" d="M 2113 2584 
Q 1688 2584 1439 2293 
Q 1191 2003 1191 1497 
Q 1191 994 1439 701 
Q 1688 409 2113 409 
Q 2538 409 2786 701 
Q 3034 994 3034 1497 
Q 3034 2003 2786 2293 
Q 2538 2584 2113 2584 
z
M 3366 4563 
L 3366 3988 
Q 3128 4100 2886 4159 
Q 2644 4219 2406 4219 
Q 1781 4219 1451 3797 
Q 1122 3375 1075 2522 
Q 1259 2794 1537 2939 
Q 1816 3084 2150 3084 
Q 2853 3084 3261 2657 
Q 3669 2231 3669 1497 
Q 3669 778 3244 343 
Q 2819 -91 2113 -91 
Q 1303 -91 875 529 
Q 447 1150 447 2328 
Q 447 3434 972 4092 
Q 1497 4750 2381 4750 
Q 2619 4750 2861 4703 
Q 3103 4656 3366 4563 
z
" transform="scale(0.015625)"/>
      <path id="DejaVuSans-39" d="M 703 97 
L 703 672 
Q 941 559 1184 500 
Q 1428 441 1663 441 
Q 2288 441 2617 861 
Q 2947 1281 2994 2138 
Q 2813 1869 2534 1725 
Q 2256 1581 1919 1581 
Q 1219 1581 811 2004 
Q 403 2428 403 3163 
Q 403 3881 828 4315 
Q 1253 4750 1959 4750 
Q 2769 4750 3195 4129 
Q 3622 3509 3622 2328 
Q 3622 1225 3098 567 
Q 2575 -91 1691 -91 
Q 1453 -91 1209 -44 
Q 966 3 703 97 
z
M 1959 2075 
Q 2384 2075 2632 2365 
Q 2881 2656 2881 3163 
Q 2881 3666 2632 3958 
Q 2384 4250 1959 4250 
Q 1534 4250 1286 3958 
Q 1038 3666 1038 3163 
Q 1038 2656 1286 2365 
Q 1534 2075 1959 2075 
z
" transform="scale(0.015625)"/>
      <path id="DejaVuSans-7d" d="M 800 -594 
L 1019 -594 
Q 1456 -594 1589 -459 
Q 1722 -325 1722 122 
L 1722 897 
Q 1722 1384 1862 1606 
Q 2003 1828 2350 1913 
Q 2003 1991 1862 2212 
Q 1722 2434 1722 2925 
L 1722 3700 
Q 1722 4144 1589 4280 
Q 1456 4416 1019 4416 
L 800 4416 
L 800 4863 
L 997 4863 
Q 1775 4863 2036 4633 
Q 2297 4403 2297 3713 
L 2297 2963 
Q 2297 2497 2465 2317 
Q 2634 2138 3078 2138 
L 3272 2138 
L 3272 1691 
L 3078 1691 
Q 2634 1691 2465 1509 
Q 2297 1328 2297 856 
L 2297 109 
Q 2297 -581 2036 -812 
Q 1775 -1044 997 -1044 
L 800 -1044 
L 800 -594 
z
" transform="scale(0.015625)"/>
      <path id="DejaVuSans-2c" d="M 750 794 
L 1409 794 
L 1409 256 
L 897 -744 
L 494 -744 
L 750 256 
L 750 794 
z
" transform="scale(0.015625)"/>
      <path id="DejaVuSans-32" d="M 1228 531 
L 3431 531 
L 3431 0 
L 469 0 
L 469 531 
Q 828 903 1448 1529 
Q 2069 2156 2228 2338 
Q 2531 2678 2651 2914 
Q 2772 3150 2772 3378 
Q 2772 3750 2511 3984 
Q 2250 4219 1831 4219 
Q 1534 4219 1204 4116 
Q 875 4013 500 3803 
L 500 4441 
Q 881 4594 1212 4672 
Q 1544 4750 1819 4750 
Q 2544 4750 2975 4387 
Q 3406 4025 3406 3419 
Q 3406 3131 3298 2873 
Q 3191 2616 2906 2266 
Q 2828 2175 2409 1742 
Q 1991 1309 1228 531 
z
" transform="scale(0.015625)"/>
     </defs>
     <use xlink:href="#DejaVuSans-7b"/>
     <use xlink:href="#DejaVuSans-66" x="63.623047"/>
     <use xlink:href="#DejaVuSans-36" x="98.828125"/>
     <use xlink:href="#DejaVuSans-2d" x="162.451172"/>
     <use xlink:href="#DejaVuSans-66" x="198.535156"/>
     <use xlink:href="#DejaVuSans-39" x="233.740234"/>
     <use xlink:href="#DejaVuSans-7d" x="297.363281"/>
     <use xlink:href="#DejaVuSans-2c" x="360.986328"/>
     <use xlink:href="#DejaVuSans-20" x="392.773438"/>
     <use xlink:href="#DejaVuSans-32" x="424.560547"/>
     <use xlink:href="#DejaVuSans-30" x="488.183594"/>
     <use xlink:href="#DejaVuSans-2d" x="551.806641"/>
     <use xlink:href="#DejaVuSans-44" x="587.890625"/>
    </g>
   </g>
   <g id="text_7">
    <!-- v2.6.3 -->
    <g style="fill: #808080" transform="translate(214.71875 288.777272) scale(0.1 -0.1)">
     <defs>
      <path id="DejaVuSans-76" d="M 191 3500 
L 800 3500 
L 1894 563 
L 2988 3500 
L 3597 3500 
L 2284 0 
L 1503 0 
L 191 3500 
z
" transform="scale(0.015625)"/>
      <path id="DejaVuSans-2e" d="M 684 794 
L 1344 794 
L 1344 0 
L 684 0 
L 684 794 
z
" transform="scale(0.015625)"/>
      <path id="DejaVuSans-33" d="M 2597 2516 
Q 3050 2419 3304 2112 
Q 3559 1806 3559 1356 
Q 3559 666 3084 287 
Q 2609 -91 1734 -91 
Q 1441 -91 1130 -33 
Q 819 25 488 141 
L 488 750 
Q 750 597 1062 519 
Q 1375 441 1716 441 
Q 2309 441 2620 675 
Q 2931 909 2931 1356 
Q 2931 1769 2642 2001 
Q 2353 2234 1838 2234 
L 1294 2234 
L 1294 2753 
L 1863 2753 
Q 2328 2753 2575 2939 
Q 2822 3125 2822 3475 
Q 2822 3834 2567 4026 
Q 2313 4219 1838 4219 
Q 1578 4219 1281 4162 
Q 984 4106 628 3988 
L 628 4550 
Q 988 4650 1302 4700 
Q 1616 4750 1894 4750 
Q 2613 4750 3031 4423 
Q 3450 4097 3450 3541 
Q 3450 3153 3228 2886 
Q 3006 2619 2597 2516 
z
" transform="scale(0.015625)"/>
     </defs>
     <use xlink:href="#DejaVuSans-76"/>
     <use xlink:href="#DejaVuSans-32" x="59.179688"/>
     <use xlink:href="#DejaVuSans-2e" x="122.802734"/>
     <use xlink:href="#DejaVuSans-36" x="154.589844"/>
     <use xlink:href="#DejaVuSans-2e" x="218.212891"/>
     <use xlink:href="#DejaVuSans-33" x="250"/>
    </g>
   </g>
  </g>
 </g>
 <defs>
  <clipPath id="p50a1b76986">
   <rect x="0" y="3.456" width="460.8" height="290.304"/>
  </clipPath>
 </defs>
</svg>
