<?xml version="1.0" encoding="utf-8" standalone="no"?>
<!DOCTYPE svg PUBLIC "-//W3C//DTD SVG 1.1//EN"
  "http://www.w3.org/Graphics/SVG/1.1/DTD/svg11.dtd">
<svg xmlns:xlink="http://www.w3.org/1999/xlink" width="460.8pt" height="345.6pt" viewBox="0 0 460.8 345.6" xmlns="http://www.w3.org/2000/svg" version="1.1">
 <metadata>
  <rdf:RDF xmlns:dc="http://purl.org/dc/elements/1.1/" xmlns:cc="http://creativecommons.org/ns#" xmlns:rdf="http://www.w3.org/1999/02/22-rdf-syntax-ns#">
   <cc:Work>
    <dc:type rdf:resource="http://purl.org/dc/dcmitype/StillImage"/>
    <dc:date>2024-06-19T23:15:48.350724</dc:date>
    <dc:format>image/svg+xml</dc:format>
    <dc:creator>
     <cc:Agent>
      <dc:title>Matplotlib v3.7.5, https://matplotlib.org/</dc:title>
     </cc:Agent>
    </dc:creator>
   </cc:Work>
  </rdf:RDF>
 </metadata>
 <defs>
  <style type="text/css">*{stroke-linejoin: round; stroke-linecap: butt}</style>
 </defs>
 <g id="figure_1">
  <g id="patch_1">
   <path d="M 0 345.6 
L 460.8 345.6 
L 460.8 0 
L 0 0 
z
" style="fill: #ffffff"/>
  </g>
  <g id="axes_1">
   <g id="patch_2">
    <path d="M 0 293.76 
L 460.8 293.76 
L 460.8 3.456 
L 0 3.456 
z
" style="fill: #ffffff"/>
   </g>
   <g id="matplotlib.axis_1">
    <g id="xtick_1">
     <g id="line2d_1">
      <path d="M 101.409188 293.76 
L 101.409188 3.456 
" clip-path="url(#p06102c6be8)" style="fill: none; stroke: #b0b0b0; stroke-width: 0.8; stroke-linecap: square"/>
     </g>
     <g id="line2d_2">
      <defs>
       <path id="m46f1714ce6" d="M 0 0 
L 0 3.5 
" style="stroke: #000000; stroke-width: 0.8"/>
      </defs>
      <g>
       <use xlink:href="#m46f1714ce6" x="101.409188" y="293.76" style="stroke: #000000; stroke-width: 0.8"/>
      </g>
     </g>
     <g id="text_1">
      <!-- -4 -->
      <g transform="translate(91.438875 315.956875) scale(0.2 -0.2)">
       <defs>
        <path id="DejaVuSans-2d" d="M 313 2009 
L 1997 2009 
L 1997 1497 
L 313 1497 
L 313 2009 
z
" transform="scale(0.015625)"/>
        <path id="DejaVuSans-34" d="M 2419 4116 
L 825 1625 
L 2419 1625 
L 2419 4116 
z
M 2253 4666 
L 3047 4666 
L 3047 1625 
L 3713 1625 
L 3713 1100 
L 3047 1100 
L 3047 0 
L 2419 0 
L 2419 1100 
L 313 1100 
L 313 1709 
L 2253 4666 
z
" transform="scale(0.015625)"/>
       </defs>
       <use xlink:href="#DejaVuSans-2d"/>
       <use xlink:href="#DejaVuSans-34" x="36.083984"/>
      </g>
     </g>
    </g>
    <g id="xtick_2">
     <g id="line2d_3">
      <path d="M 202.928051 293.76 
L 202.928051 3.456 
" clip-path="url(#p06102c6be8)" style="fill: none; stroke: #b0b0b0; stroke-width: 0.8; stroke-linecap: square"/>
     </g>
     <g id="line2d_4">
      <g>
       <use xlink:href="#m46f1714ce6" x="202.928051" y="293.76" style="stroke: #000000; stroke-width: 0.8"/>
      </g>
     </g>
     <g id="text_2">
      <!-- 0 -->
      <g transform="translate(196.565551 315.956875) scale(0.2 -0.2)">
       <defs>
        <path id="DejaVuSans-30" d="M 2034 4250 
Q 1547 4250 1301 3770 
Q 1056 3291 1056 2328 
Q 1056 1369 1301 889 
Q 1547 409 2034 409 
Q 2525 409 2770 889 
Q 3016 1369 3016 2328 
Q 3016 3291 2770 3770 
Q 2525 4250 2034 4250 
z
M 2034 4750 
Q 2819 4750 3233 4129 
Q 3647 3509 3647 2328 
Q 3647 1150 3233 529 
Q 2819 -91 2034 -91 
Q 1250 -91 836 529 
Q 422 1150 422 2328 
Q 422 3509 836 4129 
Q 1250 4750 2034 4750 
z
" transform="scale(0.015625)"/>
       </defs>
       <use xlink:href="#DejaVuSans-30"/>
      </g>
     </g>
    </g>
    <g id="xtick_3">
     <g id="line2d_5">
      <path d="M 304.446914 293.76 
L 304.446914 3.456 
" clip-path="url(#p06102c6be8)" style="fill: none; stroke: #b0b0b0; stroke-width: 0.8; stroke-linecap: square"/>
     </g>
     <g id="line2d_6">
      <g>
       <use xlink:href="#m46f1714ce6" x="304.446914" y="293.76" style="stroke: #000000; stroke-width: 0.8"/>
      </g>
     </g>
     <g id="text_3">
      <!-- 4 -->
      <g transform="translate(298.084414 315.956875) scale(0.2 -0.2)">
       <use xlink:href="#DejaVuSans-34"/>
      </g>
     </g>
    </g>
    <g id="xtick_4">
     <g id="line2d_7">
      <path d="M 405.965777 293.76 
L 405.965777 3.456 
" clip-path="url(#p06102c6be8)" style="fill: none; stroke: #b0b0b0; stroke-width: 0.8; stroke-linecap: square"/>
     </g>
     <g id="line2d_8">
      <g>
       <use xlink:href="#m46f1714ce6" x="405.965777" y="293.76" style="stroke: #000000; stroke-width: 0.8"/>
      </g>
     </g>
     <g id="text_4">
      <!-- 8 -->
      <g transform="translate(399.603277 315.956875) scale(0.2 -0.2)">
       <defs>
        <path id="DejaVuSans-38" d="M 2034 2216 
Q 1584 2216 1326 1975 
Q 1069 1734 1069 1313 
Q 1069 891 1326 650 
Q 1584 409 2034 409 
Q 2484 409 2743 651 
Q 3003 894 3003 1313 
Q 3003 1734 2745 1975 
Q 2488 2216 2034 2216 
z
M 1403 2484 
Q 997 2584 770 2862 
Q 544 3141 544 3541 
Q 544 4100 942 4425 
Q 1341 4750 2034 4750 
Q 2731 4750 3128 4425 
Q 3525 4100 3525 3541 
Q 3525 3141 3298 2862 
Q 3072 2584 2669 2484 
Q 3125 2378 3379 2068 
Q 3634 1759 3634 1313 
Q 3634 634 3220 271 
Q 2806 -91 2034 -91 
Q 1263 -91 848 271 
Q 434 634 434 1313 
Q 434 1759 690 2068 
Q 947 2378 1403 2484 
z
M 1172 3481 
Q 1172 3119 1398 2916 
Q 1625 2713 2034 2713 
Q 2441 2713 2670 2916 
Q 2900 3119 2900 3481 
Q 2900 3844 2670 4047 
Q 2441 4250 2034 4250 
Q 1625 4250 1398 4047 
Q 1172 3844 1172 3481 
z
" transform="scale(0.015625)"/>
       </defs>
       <use xlink:href="#DejaVuSans-38"/>
      </g>
     </g>
    </g>
    <g id="text_5">
     <!-- log10 of Df -->
     <g transform="translate(175.214063 339.313125) scale(0.2 -0.2)">
      <defs>
       <path id="DejaVuSans-6c" d="M 603 4863 
L 1178 4863 
L 1178 0 
L 603 0 
L 603 4863 
z
" transform="scale(0.015625)"/>
       <path id="DejaVuSans-6f" d="M 1959 3097 
Q 1497 3097 1228 2736 
Q 959 2375 959 1747 
Q 959 1119 1226 758 
Q 1494 397 1959 397 
Q 2419 397 2687 759 
Q 2956 1122 2956 1747 
Q 2956 2369 2687 2733 
Q 2419 3097 1959 3097 
z
M 1959 3584 
Q 2709 3584 3137 3096 
Q 3566 2609 3566 1747 
Q 3566 888 3137 398 
Q 2709 -91 1959 -91 
Q 1206 -91 779 398 
Q 353 888 353 1747 
Q 353 2609 779 3096 
Q 1206 3584 1959 3584 
z
" transform="scale(0.015625)"/>
       <path id="DejaVuSans-67" d="M 2906 1791 
Q 2906 2416 2648 2759 
Q 2391 3103 1925 3103 
Q 1463 3103 1205 2759 
Q 947 2416 947 1791 
Q 947 1169 1205 825 
Q 1463 481 1925 481 
Q 2391 481 2648 825 
Q 2906 1169 2906 1791 
z
M 3481 434 
Q 3481 -459 3084 -895 
Q 2688 -1331 1869 -1331 
Q 1566 -1331 1297 -1286 
Q 1028 -1241 775 -1147 
L 775 -588 
Q 1028 -725 1275 -790 
Q 1522 -856 1778 -856 
Q 2344 -856 2625 -561 
Q 2906 -266 2906 331 
L 2906 616 
Q 2728 306 2450 153 
Q 2172 0 1784 0 
Q 1141 0 747 490 
Q 353 981 353 1791 
Q 353 2603 747 3093 
Q 1141 3584 1784 3584 
Q 2172 3584 2450 3431 
Q 2728 3278 2906 2969 
L 2906 3500 
L 3481 3500 
L 3481 434 
z
" transform="scale(0.015625)"/>
       <path id="DejaVuSans-31" d="M 794 531 
L 1825 531 
L 1825 4091 
L 703 3866 
L 703 4441 
L 1819 4666 
L 2450 4666 
L 2450 531 
L 3481 531 
L 3481 0 
L 794 0 
L 794 531 
z
" transform="scale(0.015625)"/>
       <path id="DejaVuSans-20" transform="scale(0.015625)"/>
       <path id="DejaVuSans-66" d="M 2375 4863 
L 2375 4384 
L 1825 4384 
Q 1516 4384 1395 4259 
Q 1275 4134 1275 3809 
L 1275 3500 
L 2222 3500 
L 2222 3053 
L 1275 3053 
L 1275 0 
L 697 0 
L 697 3053 
L 147 3053 
L 147 3500 
L 697 3500 
L 697 3744 
Q 697 4328 969 4595 
Q 1241 4863 1831 4863 
L 2375 4863 
z
" transform="scale(0.015625)"/>
       <path id="DejaVuSans-44" d="M 1259 4147 
L 1259 519 
L 2022 519 
Q 2988 519 3436 956 
Q 3884 1394 3884 2338 
Q 3884 3275 3436 3711 
Q 2988 4147 2022 4147 
L 1259 4147 
z
M 628 4666 
L 1925 4666 
Q 3281 4666 3915 4102 
Q 4550 3538 4550 2338 
Q 4550 1131 3912 565 
Q 3275 0 1925 0 
L 628 0 
L 628 4666 
z
" transform="scale(0.015625)"/>
      </defs>
      <use xlink:href="#DejaVuSans-6c"/>
      <use xlink:href="#DejaVuSans-6f" x="27.783203"/>
      <use xlink:href="#DejaVuSans-67" x="88.964844"/>
      <use xlink:href="#DejaVuSans-31" x="152.441406"/>
      <use xlink:href="#DejaVuSans-30" x="216.064453"/>
      <use xlink:href="#DejaVuSans-20" x="279.6875"/>
      <use xlink:href="#DejaVuSans-6f" x="311.474609"/>
      <use xlink:href="#DejaVuSans-66" x="372.65625"/>
      <use xlink:href="#DejaVuSans-20" x="407.861328"/>
      <use xlink:href="#DejaVuSans-44" x="439.648438"/>
      <use xlink:href="#DejaVuSans-66" x="516.650391"/>
     </g>
    </g>
   </g>
   <g id="matplotlib.axis_2">
    <g id="ytick_1">
     <g id="line2d_9">
      <path d="M 0 293.76 
L 460.8 293.76 
" clip-path="url(#p06102c6be8)" style="fill: none; stroke: #b0b0b0; stroke-width: 0.8; stroke-linecap: square"/>
     </g>
     <g id="line2d_10">
      <defs>
       <path id="ma49cf796b4" d="M 0 0 
L -3.5 0 
" style="stroke: #000000; stroke-width: 0.8"/>
      </defs>
      <g>
       <use xlink:href="#ma49cf796b4" x="0" y="293.76" style="stroke: #000000; stroke-width: 0.8"/>
      </g>
     </g>
    </g>
    <g id="ytick_2">
     <g id="line2d_11">
      <path d="M 0 236.274059 
L 460.8 236.274059 
" clip-path="url(#p06102c6be8)" style="fill: none; stroke: #b0b0b0; stroke-width: 0.8; stroke-linecap: square"/>
     </g>
     <g id="line2d_12">
      <g>
       <use xlink:href="#ma49cf796b4" x="0" y="236.274059" style="stroke: #000000; stroke-width: 0.8"/>
      </g>
     </g>
    </g>
    <g id="ytick_3">
     <g id="line2d_13">
      <path d="M 0 178.788119 
L 460.8 178.788119 
" clip-path="url(#p06102c6be8)" style="fill: none; stroke: #b0b0b0; stroke-width: 0.8; stroke-linecap: square"/>
     </g>
     <g id="line2d_14">
      <g>
       <use xlink:href="#ma49cf796b4" x="0" y="178.788119" style="stroke: #000000; stroke-width: 0.8"/>
      </g>
     </g>
    </g>
    <g id="ytick_4">
     <g id="line2d_15">
      <path d="M 0 121.302178 
L 460.8 121.302178 
" clip-path="url(#p06102c6be8)" style="fill: none; stroke: #b0b0b0; stroke-width: 0.8; stroke-linecap: square"/>
     </g>
     <g id="line2d_16">
      <g>
       <use xlink:href="#ma49cf796b4" x="0" y="121.302178" style="stroke: #000000; stroke-width: 0.8"/>
      </g>
     </g>
    </g>
    <g id="ytick_5">
     <g id="line2d_17">
      <path d="M 0 63.816238 
L 460.8 63.816238 
" clip-path="url(#p06102c6be8)" style="fill: none; stroke: #b0b0b0; stroke-width: 0.8; stroke-linecap: square"/>
     </g>
     <g id="line2d_18">
      <g>
       <use xlink:href="#ma49cf796b4" x="0" y="63.816238" style="stroke: #000000; stroke-width: 0.8"/>
      </g>
     </g>
    </g>
    <g id="ytick_6">
     <g id="line2d_19">
      <path d="M 0 6.330297 
L 460.8 6.330297 
" clip-path="url(#p06102c6be8)" style="fill: none; stroke: #b0b0b0; stroke-width: 0.8; stroke-linecap: square"/>
     </g>
     <g id="line2d_20">
      <g>
       <use xlink:href="#ma49cf796b4" x="0" y="6.330297" style="stroke: #000000; stroke-width: 0.8"/>
      </g>
     </g>
    </g>
   </g>
   <g id="line2d_21">
    <path d="M -1 199.546931 
L -0.109675 199.546931 
L -0.109675 172.400792 
L 6.456494 172.400792 
L 6.456494 171.602376 
L 14.382656 171.602376 
L 14.382656 170.80396 
L 14.550637 170.80396 
L 14.550637 170.005545 
L 21.362442 170.005545 
L 21.362442 169.207129 
L 23.354892 169.207129 
L 23.354892 168.408713 
L 33.528833 168.408713 
L 33.528833 167.610297 
L 34.083365 167.610297 
L 34.083365 166.811881 
L 40.051754 166.811881 
L 40.051754 166.013465 
L 41.241905 166.013465 
L 41.241905 165.21505 
L 50.080222 165.21505 
L 50.080222 164.416634 
L 53.214529 164.416634 
L 53.214529 163.618218 
L 54.817866 163.618218 
L 54.817866 162.819802 
L 56.094812 162.819802 
L 56.094812 162.021386 
L 80.18841 162.021386 
L 80.18841 161.22297 
L 80.61272 161.22297 
L 80.61272 160.424554 
L 83.287432 160.424554 
L 83.287432 159.626139 
L 84.155161 159.626139 
L 84.155161 158.827723 
L 94.987692 158.827723 
L 94.987692 158.029307 
L 103.350946 158.029307 
L 103.350946 157.230891 
L 104.613596 157.230891 
L 104.613596 156.432475 
L 113.307803 156.432475 
L 113.307803 155.634059 
L 118.060211 155.634059 
L 118.060211 154.835644 
L 120.928979 154.835644 
L 120.928979 154.037228 
L 127.585619 154.037228 
L 127.585619 153.238812 
L 129.168955 153.238812 
L 129.168955 152.440396 
L 131.855074 152.440396 
L 131.855074 151.64198 
L 132.327505 151.64198 
L 132.394481 150.045149 
L 132.685466 150.045149 
L 132.685466 149.246733 
L 139.947622 149.246733 
L 139.947622 148.448317 
L 140.854151 148.448317 
L 140.854151 147.649901 
L 144.201659 147.649901 
L 144.25524 146.053069 
L 148.333219 146.053069 
L 148.333219 145.254653 
L 148.487576 145.254653 
L 148.487576 144.456238 
L 153.218996 144.456238 
L 153.218996 143.657822 
L 153.507294 143.657822 
L 153.507294 142.859406 
L 154.171889 142.859406 
L 154.171889 142.06099 
L 154.303326 142.06099 
L 154.303326 141.262574 
L 154.439777 141.262574 
L 154.439777 140.464158 
L 155.737095 140.464158 
L 155.737095 139.665743 
L 156.510593 139.665743 
L 156.510593 138.867327 
L 156.823568 138.867327 
L 156.823568 138.068911 
L 159.339198 138.068911 
L 159.339198 137.270495 
L 161.865366 137.270495 
L 161.865366 136.472079 
L 162.853666 136.472079 
L 162.853666 135.673663 
L 163.138536 135.673663 
L 163.138536 134.875248 
L 163.875946 134.875248 
L 163.875946 134.076832 
L 165.338031 134.076832 
L 165.338031 133.278416 
L 173.41684 133.278416 
L 173.41684 132.48 
L 173.712815 132.48 
L 173.712815 131.681584 
L 173.852386 131.681584 
L 173.852386 130.883168 
L 173.994394 130.883168 
L 173.994394 130.084752 
L 174.445193 130.084752 
L 174.445193 129.286337 
L 175.414867 129.286337 
L 175.414867 128.487921 
L 176.288182 128.487921 
L 176.288182 127.689505 
L 176.608865 127.689505 
L 176.608865 126.891089 
L 178.844771 126.891089 
L 178.844771 126.092673 
L 179.008398 126.092673 
L 179.008398 125.294257 
L 182.923271 125.294257 
L 182.923271 124.495842 
L 185.755684 124.495842 
L 185.755684 123.697426 
L 186.075156 123.697426 
L 186.075156 122.89901 
L 188.599504 122.89901 
L 188.599504 122.100594 
L 189.376505 122.100594 
L 189.376505 121.302178 
L 191.135437 121.302178 
L 191.135437 120.503762 
L 193.289535 120.503762 
L 193.289535 119.705347 
L 194.070742 119.705347 
L 194.070742 118.906931 
L 194.958591 118.906931 
L 194.958591 118.108515 
L 198.417432 118.108515 
L 198.417432 117.310099 
L 198.86771 117.310099 
L 198.86771 113.31802 
L 199.940394 113.31802 
L 199.940394 112.519604 
L 200.534156 112.519604 
L 200.624619 110.922772 
L 201.167105 110.922772 
L 201.167105 110.124356 
L 203.728603 110.124356 
L 203.728603 109.325941 
L 204.608452 109.325941 
L 204.608452 108.527525 
L 205.345684 108.527525 
L 205.450476 106.132277 
L 206.253907 106.132277 
L 206.253907 105.333861 
L 206.571054 105.333861 
L 206.571054 104.535446 
L 206.955272 104.535446 
L 206.955272 103.73703 
L 207.471292 103.73703 
L 207.471292 102.938614 
L 207.755904 102.938614 
L 207.755904 102.140198 
L 208.034936 102.140198 
L 208.034936 101.341782 
L 208.169625 101.341782 
L 208.169625 100.543366 
L 208.43693 100.543366 
L 208.43693 99.74495 
L 209.14014 99.74495 
L 209.14014 98.946535 
L 209.459205 98.946535 
L 209.564839 97.349703 
L 209.953796 97.349703 
L 210.031449 95.752871 
L 210.219532 95.752871 
L 210.317266 93.357624 
L 210.563177 93.357624 
L 210.642775 91.760792 
L 210.80614 91.760792 
L 210.80614 90.962376 
L 211.015549 90.962376 
L 211.015549 90.16396 
L 211.203263 90.16396 
L 211.203263 89.365545 
L 212.160774 89.365545 
L 212.200793 87.768713 
L 212.458491 87.768713 
L 212.458491 86.970297 
L 212.588612 86.970297 
L 212.588612 86.171881 
L 213.04169 86.171881 
L 213.04169 85.373465 
L 213.22837 85.373465 
L 213.291881 82.978218 
L 213.419812 82.978218 
L 213.419812 82.179802 
L 213.550905 82.179802 
L 213.611085 79.784554 
L 214.189803 79.784554 
L 214.267317 78.187723 
L 214.732773 78.187723 
L 214.732773 77.389307 
L 215.080278 77.389307 
L 215.13871 75.792475 
L 215.783115 75.792475 
L 215.783115 74.994059 
L 216.066126 74.994059 
L 216.123568 73.397228 
L 216.259822 73.397228 
L 216.259822 72.598812 
L 217.618082 72.598812 
L 217.653259 71.00198 
L 218.316699 71.00198 
L 218.365625 69.405149 
L 218.448756 69.405149 
L 218.448756 68.606733 
L 219.438442 68.606733 
L 219.534347 67.009901 
L 219.708973 67.009901 
L 219.78173 65.413069 
L 220.000656 65.413069 
L 220.000656 64.614653 
L 220.614739 64.614653 
L 220.694345 63.017822 
L 220.805152 63.017822 
L 220.805152 60.622574 
L 221.232338 60.622574 
L 221.296917 59.025743 
L 222.621618 59.025743 
L 222.621618 58.227327 
L 224.321755 58.227327 
L 224.321755 57.428911 
L 224.796019 57.428911 
L 224.865414 55.832079 
L 226.017059 55.832079 
L 226.017059 55.033663 
L 226.826812 55.033663 
L 226.826812 53.436832 
L 227.090751 53.436832 
L 227.090751 52.638416 
L 227.578049 52.638416 
L 227.578049 51.84 
L 229.302598 51.84 
L 229.302598 51.041584 
L 229.483461 51.041584 
L 229.483461 50.243168 
L 230.271285 50.243168 
L 230.271285 49.444752 
L 231.95944 49.444752 
L 231.960747 47.049505 
L 232.467545 47.049505 
L 232.467545 46.251089 
L 232.721202 46.251089 
L 232.72178 44.654257 
L 233.432564 44.654257 
L 233.432567 42.25901 
L 234.100782 42.25901 
L 234.100788 38.266931 
L 234.284647 38.266931 
L 234.284647 37.468515 
L 234.730801 37.468515 
L 234.730801 36.670099 
L 235.892111 36.670099 
L 235.892111 35.871683 
L 236.429892 35.871683 
L 236.429892 34.274851 
L 236.942646 34.274851 
L 236.942646 33.476436 
L 237.432603 33.476436 
L 237.432606 31.879604 
L 237.90171 31.879604 
L 237.901712 30.282772 
L 238.353875 30.282772 
L 238.353875 29.484356 
L 238.783963 29.484356 
L 238.783963 28.685941 
L 239.199937 28.685941 
L 239.199945 27.089109 
L 239.600783 27.089109 
L 239.600799 24.693861 
L 240.361252 24.693861 
L 240.361252 23.895446 
L 240.722675 23.895446 
L 240.722675 23.09703 
L 241.072611 23.09703 
L 241.072611 22.298614 
L 241.411785 22.298614 
L 241.411785 21.500198 
L 242.672847 21.500198 
L 242.672847 20.701782 
L 243.532164 20.701782 
L 243.532164 19.903366 
L 244.582674 19.903366 
L 244.582689 18.306535 
L 250.650248 18.306535 
L 250.650248 17.508119 
L 252.439768 17.508119 
L 252.439768 16.709703 
L 253.815933 16.709703 
L 253.815933 15.911287 
L 254.345171 15.911287 
L 254.345171 15.112871 
L 254.69271 15.112871 
L 254.69271 14.314455 
L 254.809114 14.314455 
L 254.809114 13.51604 
L 254.925166 13.51604 
L 254.925166 12.717624 
L 255.0424 12.717624 
L 255.147658 11.120792 
L 255.165033 11.120792 
L 255.166475 9.52396 
L 255.403379 9.52396 
L 255.403379 8.725545 
L 255.545315 8.725545 
L 255.545315 7.927129 
L 255.845136 7.927129 
L 255.845136 7.128713 
L 255.97473 7.128713 
L 255.97473 6.330297 
L 255.97473 6.330297 
L 460.8 6.330297 
L 460.8 6.330297 
" clip-path="url(#p06102c6be8)" style="fill: none; stroke: #ff0000; stroke-width: 3; stroke-linecap: square"/>
   </g>
   <g id="line2d_22">
    <path d="M 221.848432 293.76 
L 221.848432 292.961584 
L 226.657731 292.961584 
L 226.657731 292.163168 
L 227.834553 292.163168 
L 227.834553 291.364752 
L 228.185697 291.364752 
L 228.185697 290.566337 
L 229.017019 290.566337 
L 229.017019 289.767921 
L 229.312289 289.767921 
L 229.327312 287.372673 
L 229.963435 287.372673 
L 229.963435 286.574257 
L 231.11797 286.574257 
L 231.11797 285.775842 
L 232.487375 285.775842 
L 232.487375 284.977426 
L 233.099159 284.977426 
L 233.158783 283.380594 
L 233.523196 283.380594 
L 233.523196 282.582178 
L 233.889437 282.582178 
L 233.889437 281.783762 
L 235.471852 281.783762 
L 235.471852 280.985347 
L 240.123876 280.985347 
L 240.139436 279.388515 
L 240.40286 279.388515 
L 240.40286 278.590099 
L 240.675836 278.590099 
L 240.675836 277.791683 
L 241.025048 277.791683 
L 241.025048 276.993267 
L 241.263872 276.993267 
L 241.263872 276.194851 
L 242.235692 276.194851 
L 242.235692 275.396436 
L 243.217541 275.396436 
L 243.250754 273.799604 
L 243.62706 273.799604 
L 243.696285 272.202772 
L 244.033454 272.202772 
L 244.033454 271.404356 
L 244.307139 271.404356 
L 244.380256 269.009109 
L 244.779538 269.009109 
L 244.849368 266.613861 
L 244.919533 266.613861 
L 244.919533 265.815446 
L 245.138143 265.815446 
L 245.138143 265.01703 
L 245.337091 265.01703 
L 245.432457 261.823366 
L 245.544567 261.823366 
L 245.625981 260.226535 
L 245.712569 260.226535 
L 245.712569 259.428119 
L 245.853625 259.428119 
L 245.853625 258.629703 
L 246.026924 258.629703 
L 246.026924 257.831287 
L 246.18541 257.831287 
L 246.18541 257.032871 
L 246.444237 257.032871 
L 246.445072 255.43604 
L 247.111883 255.43604 
L 247.140231 253.040792 
L 247.281608 253.040792 
L 247.284839 251.44396 
L 247.700252 251.44396 
L 247.700252 250.645545 
L 247.904528 250.645545 
L 247.995232 249.048713 
L 248.101626 249.048713 
L 248.101626 248.250297 
L 248.336691 248.250297 
L 248.336691 247.451881 
L 248.742166 247.451881 
L 248.790563 245.85505 
L 248.948603 245.85505 
L 249.003488 243.459802 
L 249.263796 243.459802 
L 249.263796 242.661386 
L 249.648455 242.661386 
L 249.648455 241.86297 
L 249.917933 241.86297 
L 249.917933 241.064554 
L 251.510668 241.064554 
L 251.510668 240.266139 
L 251.66116 240.266139 
L 251.6714 238.669307 
L 251.773885 238.669307 
L 251.882159 234.677228 
L 251.892514 234.677228 
L 252.003483 227.491485 
L 252.010948 227.491485 
L 252.103748 217.112079 
L 252.852082 217.112079 
L 252.852082 216.313663 
L 253.396838 216.313663 
L 253.438132 213.918416 
L 253.637507 213.918416 
L 253.637507 213.12 
L 253.914748 213.12 
L 253.914748 212.321584 
L 254.107669 212.321584 
L 254.107669 211.523168 
L 254.30179 211.523168 
L 254.30179 210.724752 
L 254.499063 210.724752 
L 254.499063 209.926337 
L 254.639499 209.926337 
L 254.639499 209.127921 
L 254.847371 209.127921 
L 254.847371 208.329505 
L 255.260146 208.329505 
L 255.322351 206.732673 
L 255.375071 206.732673 
L 255.481971 204.337426 
L 255.789398 204.337426 
L 255.789398 203.53901 
L 256.414213 203.53901 
L 256.414213 202.740594 
L 257.058038 202.740594 
L 257.058038 201.942178 
L 257.185112 201.942178 
L 257.185112 201.143762 
L 258.084576 201.143762 
L 258.131732 199.546931 
L 258.599869 199.546931 
L 258.599869 198.748515 
L 258.774808 198.748515 
L 258.774808 197.950099 
L 259.161586 197.950099 
L 259.161586 197.151683 
L 260.103661 197.151683 
L 260.103661 196.353267 
L 260.218345 196.353267 
L 260.218345 195.554851 
L 260.415608 195.554851 
L 260.415608 194.756436 
L 260.626627 194.756436 
L 260.656701 193.159604 
L 261.415446 193.159604 
L 261.415446 192.361188 
L 261.56867 192.361188 
L 261.619392 190.764356 
L 262.192899 190.764356 
L 262.192899 189.965941 
L 262.37809 189.965941 
L 262.37809 189.167525 
L 262.962013 189.167525 
L 262.962013 188.369109 
L 263.261311 188.369109 
L 263.261311 187.570693 
L 264.155335 187.570693 
L 264.155335 186.772277 
L 264.347759 186.772277 
L 264.347759 185.973861 
L 264.62922 185.973861 
L 264.690166 184.37703 
L 265.142448 184.37703 
L 265.252163 182.780198 
L 265.486987 182.780198 
L 265.52561 181.183366 
L 265.789053 181.183366 
L 265.789053 180.38495 
L 266.019373 180.38495 
L 266.019373 179.586535 
L 266.419348 179.586535 
L 266.439845 177.989703 
L 266.637126 177.989703 
L 266.649125 176.392871 
L 266.811288 176.392871 
L 266.811288 175.594455 
L 267.640986 175.594455 
L 267.640986 174.79604 
L 267.858227 174.79604 
L 267.858227 173.997624 
L 269.670051 173.997624 
L 269.670051 173.199208 
L 274.326389 173.199208 
L 274.326389 172.400792 
L 275.688402 172.400792 
L 275.688402 171.602376 
L 275.885355 171.602376 
L 275.910382 170.005545 
L 276.227909 170.005545 
L 276.227909 169.207129 
L 276.672294 169.207129 
L 276.685154 167.610297 
L 277.627772 167.610297 
L 277.627772 166.811881 
L 278.690865 166.811881 
L 278.73295 164.416634 
L 279.361599 164.416634 
L 279.42227 162.819802 
L 279.481929 162.819802 
L 279.567481 159.626139 
L 280.027851 159.626139 
L 280.027851 158.827723 
L 280.302064 158.827723 
L 280.302064 158.029307 
L 280.713396 158.029307 
L 280.816718 155.634059 
L 281.036014 155.634059 
L 281.036014 154.835644 
L 281.237925 154.835644 
L 281.278389 153.238812 
L 281.701104 153.238812 
L 281.701104 152.440396 
L 281.894869 152.440396 
L 281.966574 150.843564 
L 282.016099 150.843564 
L 282.016099 150.045149 
L 282.173579 150.045149 
L 282.173579 149.246733 
L 282.507977 149.246733 
L 282.562468 146.851485 
L 282.798103 146.851485 
L 282.798103 146.053069 
L 283.043224 146.053069 
L 283.043224 145.254653 
L 283.27808 145.254653 
L 283.287109 143.657822 
L 283.396948 143.657822 
L 283.396948 142.859406 
L 284.001001 142.859406 
L 284.05883 141.262574 
L 284.177215 141.262574 
L 284.177215 140.464158 
L 284.452912 140.464158 
L 284.556636 138.867327 
L 284.860662 138.867327 
L 284.893221 137.270495 
L 285.205208 137.270495 
L 285.205208 136.472079 
L 285.351377 136.472079 
L 285.351377 135.673663 
L 286.04257 135.673663 
L 286.04257 134.875248 
L 286.198611 134.875248 
L 286.224372 133.278416 
L 286.789583 133.278416 
L 286.850268 131.681584 
L 287.253616 131.681584 
L 287.253616 130.883168 
L 287.524949 130.883168 
L 287.592416 128.487921 
L 287.740567 128.487921 
L 287.840696 126.092673 
L 287.897446 126.092673 
L 287.897446 125.294257 
L 288.068866 125.294257 
L 288.161128 122.89901 
L 288.20923 122.89901 
L 288.266607 120.503762 
L 288.409731 120.503762 
L 288.456627 118.108515 
L 288.525373 118.108515 
L 288.59568 116.511683 
L 288.781309 116.511683 
L 288.781309 115.713267 
L 288.894235 115.713267 
L 288.963347 114.116436 
L 289.281251 114.116436 
L 289.297731 112.519604 
L 289.489048 112.519604 
L 289.551127 110.922772 
L 289.878188 110.922772 
L 289.932902 108.527525 
L 290.318371 108.527525 
L 290.318371 107.729109 
L 290.696738 107.729109 
L 290.708577 106.132277 
L 290.922888 106.132277 
L 290.928975 104.535446 
L 291.193494 104.535446 
L 291.20103 102.938614 
L 291.98089 102.938614 
L 291.981528 101.341782 
L 293.091594 101.341782 
L 293.091594 100.543366 
L 293.773751 100.543366 
L 293.773751 99.74495 
L 303.546029 99.74495 
L 303.546029 98.946535 
L 308.082929 98.946535 
L 308.082929 98.148119 
L 310.891422 98.148119 
L 310.891422 97.349703 
L 318.225492 97.349703 
L 318.225492 96.551287 
L 318.76857 96.551287 
L 318.76857 95.752871 
L 322.297487 95.752871 
L 322.297487 94.954455 
L 324.137656 94.954455 
L 324.137656 94.15604 
L 326.331723 94.15604 
L 326.350028 92.559208 
L 327.477246 92.559208 
L 327.477246 91.760792 
L 328.887613 91.760792 
L 328.887613 90.962376 
L 329.018814 90.962376 
L 329.018814 90.16396 
L 331.066484 90.16396 
L 331.075917 88.567129 
L 331.37102 88.567129 
L 331.37102 87.768713 
L 331.486354 87.768713 
L 331.486354 86.970297 
L 332.397479 86.970297 
L 332.397479 86.171881 
L 333.041552 86.171881 
L 333.041552 85.373465 
L 334.071321 85.373465 
L 334.071321 84.57505 
L 334.339591 84.57505 
L 334.339591 83.776634 
L 334.607611 83.776634 
L 334.706406 82.179802 
L 335.199889 82.179802 
L 335.199889 81.381386 
L 335.637719 81.381386 
L 335.694417 78.986139 
L 337.196862 78.986139 
L 337.196862 78.187723 
L 338.102291 78.187723 
L 338.102291 77.389307 
L 338.3214 77.389307 
L 338.3214 76.590891 
L 338.976219 76.590891 
L 338.996019 74.994059 
L 341.738641 74.994059 
L 341.738641 74.195644 
L 342.055782 74.195644 
L 342.100236 71.800396 
L 342.545499 71.800396 
L 342.545499 71.00198 
L 342.857581 71.00198 
L 342.91654 69.405149 
L 343.122109 69.405149 
L 343.122109 68.606733 
L 343.306607 68.606733 
L 343.332626 66.211485 
L 343.545215 66.211485 
L 343.577704 64.614653 
L 343.920823 64.614653 
L 343.920823 63.816238 
L 344.45979 63.816238 
L 344.523208 62.219406 
L 344.586188 62.219406 
L 344.586188 61.42099 
L 344.977001 61.42099 
L 345.064823 59.824158 
L 345.369269 59.824158 
L 345.369269 59.025743 
L 345.612571 59.025743 
L 345.612571 58.227327 
L 346.208213 58.227327 
L 346.208213 57.428911 
L 346.594198 57.428911 
L 346.649092 55.832079 
L 346.819532 55.832079 
L 346.846984 54.235248 
L 348.005575 54.235248 
L 348.00616 52.638416 
L 349.185522 52.638416 
L 349.278118 51.041584 
L 349.365803 51.041584 
L 349.365803 50.243168 
L 349.509394 50.243168 
L 349.509394 49.444752 
L 350.017882 49.444752 
L 350.017882 48.646337 
L 350.222715 48.646337 
L 350.278906 47.049505 
L 350.963216 47.049505 
L 350.963216 46.251089 
L 351.081535 46.251089 
L 351.166287 44.654257 
L 352.080471 44.654257 
L 352.080471 43.855842 
L 352.741739 43.855842 
L 352.741739 43.057426 
L 355.767196 43.057426 
L 355.767196 42.25901 
L 364.766255 42.25901 
L 364.766255 41.460594 
L 369.884932 41.460594 
L 369.884932 40.662178 
L 371.577085 40.662178 
L 371.577085 39.863762 
L 371.706588 39.863762 
L 371.706588 39.065347 
L 372.13481 39.065347 
L 372.13481 38.266931 
L 372.93174 38.266931 
L 372.93174 37.468515 
L 373.531566 37.468515 
L 373.542712 35.871683 
L 375.436611 35.871683 
L 375.511751 34.274851 
L 375.971364 34.274851 
L 376.020267 32.67802 
L 376.588938 32.67802 
L 376.588938 31.879604 
L 376.863851 31.879604 
L 376.899026 30.282772 
L 377.107026 30.282772 
L 377.107026 29.484356 
L 377.963236 29.484356 
L 377.963236 28.685941 
L 378.196099 28.685941 
L 378.196099 27.887525 
L 378.591844 27.887525 
L 378.591844 27.089109 
L 378.92881 27.089109 
L 378.92881 26.290693 
L 379.318139 26.290693 
L 379.318139 25.492277 
L 379.434834 25.492277 
L 379.434834 24.693861 
L 379.70939 24.693861 
L 379.70939 23.895446 
L 380.546274 23.895446 
L 380.584763 21.500198 
L 380.717057 21.500198 
L 380.717057 20.701782 
L 383.821267 20.701782 
L 383.821267 19.903366 
L 384.225674 19.903366 
L 384.225674 19.10495 
L 387.875351 19.10495 
L 387.875351 18.306535 
L 412.699847 18.306535 
L 412.699847 17.508119 
L 415.0776 17.508119 
L 415.0776 16.709703 
L 416.180841 16.709703 
L 416.180841 15.911287 
L 417.647287 15.911287 
L 417.647287 15.112871 
L 417.79713 15.112871 
L 417.79713 14.314455 
L 418.45441 14.314455 
L 418.45441 13.51604 
L 419.315213 13.51604 
L 419.315213 12.717624 
L 419.685774 12.717624 
L 419.685774 11.919208 
L 419.807121 11.919208 
L 419.807121 11.120792 
L 421.705884 11.120792 
L 421.705884 10.322376 
L 422.144756 10.322376 
L 422.144756 9.52396 
L 422.748747 9.52396 
L 422.799583 7.927129 
L 428.125232 7.927129 
L 428.125232 7.128713 
L 429.965962 7.128713 
L 429.965962 6.330297 
L 429.965962 6.330297 
L 460.8 6.330297 
L 460.8 6.330297 
" clip-path="url(#p06102c6be8)" style="fill: none; stroke: #00bfbf; stroke-width: 1.5; stroke-linecap: square"/>
   </g>
   <g id="line2d_23">
    <path d="M 221.848432 293.76 
L 221.848432 292.961584 
L 225.241435 292.961584 
L 225.241435 292.163168 
L 226.657731 292.163168 
L 226.657731 291.364752 
L 227.567053 291.364752 
L 227.618388 289.767921 
L 227.834553 289.767921 
L 227.834553 288.969505 
L 227.989946 288.969505 
L 227.989946 288.171089 
L 228.185697 288.171089 
L 228.185697 287.372673 
L 228.493203 287.372673 
L 228.493203 286.574257 
L 228.68802 286.574257 
L 228.775006 284.977426 
L 229.017019 284.977426 
L 229.017019 284.17901 
L 229.591243 284.17901 
L 229.591243 283.380594 
L 232.001363 283.380594 
L 232.001363 282.582178 
L 233.158783 282.582178 
L 233.158783 281.783762 
L 234.201303 281.783762 
L 234.201303 280.985347 
L 235.471852 280.985347 
L 235.471852 280.186931 
L 235.996814 280.186931 
L 235.996814 279.388515 
L 236.247194 279.388515 
L 236.247194 278.590099 
L 236.380767 278.590099 
L 236.380767 277.791683 
L 236.665068 277.791683 
L 236.665068 276.993267 
L 237.49809 276.993267 
L 237.49809 276.194851 
L 237.662133 276.194851 
L 237.728239 274.59802 
L 237.911685 274.59802 
L 237.973488 273.001188 
L 238.223335 273.001188 
L 238.223335 272.202772 
L 238.530268 272.202772 
L 238.530268 271.404356 
L 238.823058 271.404356 
L 238.873832 268.210693 
L 238.998835 268.210693 
L 238.998835 267.412277 
L 239.147466 267.412277 
L 239.147466 266.613861 
L 239.326976 266.613861 
L 239.334195 265.01703 
L 239.734905 265.01703 
L 239.734905 264.218614 
L 240.298948 264.218614 
L 240.298948 263.420198 
L 240.675836 263.420198 
L 240.675836 262.621782 
L 241.217301 262.621782 
L 241.263872 261.02495 
L 242.91584 261.02495 
L 242.91584 260.226535 
L 243.542086 260.226535 
L 243.542086 259.428119 
L 243.680774 259.428119 
L 243.73242 257.831287 
L 244.033454 257.831287 
L 244.033454 257.032871 
L 244.220932 257.032871 
L 244.220932 256.234455 
L 244.341247 256.234455 
L 244.341247 255.43604 
L 244.849368 255.43604 
L 244.849368 254.637624 
L 245.043052 254.637624 
L 245.043052 253.839208 
L 245.386455 253.839208 
L 245.391398 252.242376 
L 245.853625 252.242376 
L 245.853625 251.44396 
L 246.071624 251.44396 
L 246.071624 250.645545 
L 246.18541 250.645545 
L 246.215075 249.048713 
L 246.445072 249.048713 
L 246.445833 247.451881 
L 246.710386 247.451881 
L 246.710386 246.653465 
L 247.111883 246.653465 
L 247.111883 245.85505 
L 247.281608 245.85505 
L 247.281608 245.056634 
L 247.513198 245.056634 
L 247.513198 244.258218 
L 247.700252 244.258218 
L 247.700252 243.459802 
L 248.043248 243.459802 
L 248.043248 242.661386 
L 248.336691 242.661386 
L 248.336691 241.86297 
L 248.742166 241.86297 
L 248.742166 241.064554 
L 248.985121 241.064554 
L 249.003488 239.467723 
L 249.442335 239.467723 
L 249.442335 238.669307 
L 249.603776 238.669307 
L 249.673294 237.072475 
L 250.346923 237.072475 
L 250.346923 236.274059 
L 250.990293 236.274059 
L 251.082221 234.677228 
L 251.120886 234.677228 
L 251.175703 233.080396 
L 251.23293 233.080396 
L 251.32565 230.685149 
L 251.368936 230.685149 
L 251.474825 227.491485 
L 251.48233 227.491485 
L 251.560852 224.297822 
L 251.66116 224.297822 
L 251.771029 217.910495 
L 251.832469 217.910495 
L 251.943118 213.12 
L 251.949299 213.12 
L 252.0571 208.329505 
L 252.078104 208.329505 
L 252.078104 207.531089 
L 252.85567 207.531089 
L 252.85567 206.732673 
L 253.244156 206.732673 
L 253.328423 204.337426 
L 253.396838 204.337426 
L 253.410608 202.740594 
L 253.978649 202.740594 
L 253.978649 201.942178 
L 254.107669 201.942178 
L 254.107669 201.143762 
L 254.540434 201.143762 
L 254.618968 199.546931 
L 255.322351 199.546931 
L 255.322351 198.748515 
L 255.481971 198.748515 
L 255.481971 197.950099 
L 255.682646 197.950099 
L 255.682646 197.151683 
L 255.856987 197.151683 
L 255.856987 196.353267 
L 257.538216 196.353267 
L 257.640667 194.756436 
L 257.808845 194.756436 
L 257.818378 193.159604 
L 258.065342 193.159604 
L 258.084576 191.562772 
L 258.396824 191.562772 
L 258.396824 190.764356 
L 258.774808 190.764356 
L 258.791286 189.167525 
L 260.415608 189.167525 
L 260.415608 188.369109 
L 260.726098 188.369109 
L 260.726098 187.570693 
L 261.017794 187.570693 
L 261.017794 186.772277 
L 261.622186 186.772277 
L 261.661556 185.175446 
L 262.063516 185.175446 
L 262.079546 183.578614 
L 262.255581 183.578614 
L 262.255581 182.780198 
L 262.414286 182.780198 
L 262.414286 181.981782 
L 262.854803 181.981782 
L 262.903406 180.38495 
L 263.448747 180.38495 
L 263.448747 179.586535 
L 263.589151 179.586535 
L 263.589692 177.989703 
L 263.792821 177.989703 
L 263.792821 177.191287 
L 264.358169 177.191287 
L 264.358169 176.392871 
L 264.789868 176.392871 
L 264.789868 175.594455 
L 265.10291 175.594455 
L 265.10291 174.79604 
L 266.082295 174.79604 
L 266.082295 173.997624 
L 269.670051 173.997624 
L 269.670051 173.199208 
L 271.108201 173.199208 
L 271.158677 171.602376 
L 271.520919 171.602376 
L 271.520919 170.80396 
L 271.727253 170.80396 
L 271.727253 170.005545 
L 272.392009 170.005545 
L 272.392009 169.207129 
L 272.738936 169.207129 
L 272.756487 167.610297 
L 273.192237 167.610297 
L 273.192237 166.811881 
L 273.39407 166.811881 
L 273.499281 165.21505 
L 273.509062 165.21505 
L 273.509062 164.416634 
L 273.641595 164.416634 
L 273.641595 163.618218 
L 273.889746 163.618218 
L 273.993884 162.021386 
L 274.326389 162.021386 
L 274.326389 161.22297 
L 274.49376 161.22297 
L 274.555092 158.827723 
L 274.635592 158.827723 
L 274.735618 157.230891 
L 274.80625 157.230891 
L 274.80625 156.432475 
L 275.688402 156.432475 
L 275.688402 155.634059 
L 275.885355 155.634059 
L 275.916212 153.238812 
L 276.225742 153.238812 
L 276.227909 151.64198 
L 276.380734 151.64198 
L 276.382175 150.045149 
L 276.672294 150.045149 
L 276.685154 148.448317 
L 276.825824 148.448317 
L 276.825824 147.649901 
L 277.021561 147.649901 
L 277.021561 146.851485 
L 277.167725 146.851485 
L 277.167725 146.053069 
L 277.627772 146.053069 
L 277.631823 144.456238 
L 277.77093 144.456238 
L 277.819247 142.859406 
L 278.038057 142.859406 
L 278.038057 142.06099 
L 278.299359 142.06099 
L 278.371135 140.464158 
L 278.540339 140.464158 
L 278.540339 139.665743 
L 278.722861 139.665743 
L 278.722861 138.867327 
L 278.928939 138.867327 
L 278.928939 138.068911 
L 279.42227 138.068911 
L 279.42227 137.270495 
L 279.567481 137.270495 
L 279.62114 135.673663 
L 279.736144 135.673663 
L 279.80312 134.076832 
L 279.930422 134.076832 
L 280.018084 132.48 
L 280.302064 132.48 
L 280.373716 130.883168 
L 280.420176 130.883168 
L 280.420176 130.084752 
L 281.036014 130.084752 
L 281.075543 128.487921 
L 281.278389 128.487921 
L 281.278389 127.689505 
L 281.393971 127.689505 
L 281.393971 126.891089 
L 281.966574 126.891089 
L 281.966574 126.092673 
L 282.397019 126.092673 
L 282.397019 125.294257 
L 282.562468 125.294257 
L 282.562468 124.495842 
L 282.798103 124.495842 
L 282.798103 123.697426 
L 282.96731 123.697426 
L 282.96731 122.89901 
L 283.287109 122.89901 
L 283.287109 122.100594 
L 284.001001 122.100594 
L 284.001001 121.302178 
L 284.177215 121.302178 
L 284.205214 119.705347 
L 284.45489 119.705347 
L 284.45489 118.906931 
L 284.610306 118.906931 
L 284.700026 117.310099 
L 284.979444 117.310099 
L 284.979444 116.511683 
L 285.351377 116.511683 
L 285.351377 115.713267 
L 285.664586 115.713267 
L 285.664586 114.914851 
L 286.06676 114.914851 
L 286.06676 114.116436 
L 286.614679 114.116436 
L 286.655016 112.519604 
L 286.789583 112.519604 
L 286.789583 111.721188 
L 287.084074 111.721188 
L 287.084074 110.922772 
L 287.460399 110.922772 
L 287.460399 110.124356 
L 287.763644 110.124356 
L 287.763644 109.325941 
L 287.999136 109.325941 
L 288.093995 107.729109 
L 288.20923 107.729109 
L 288.20923 106.930693 
L 288.498614 106.930693 
L 288.528478 105.333861 
L 289.142706 105.333861 
L 289.142706 104.535446 
L 289.878188 104.535446 
L 289.878188 103.73703 
L 290.254462 103.73703 
L 290.254462 102.938614 
L 290.403274 102.938614 
L 290.403274 102.140198 
L 290.690307 102.140198 
L 290.690307 101.341782 
L 290.945822 101.341782 
L 290.945822 100.543366 
L 291.193494 100.543366 
L 291.193494 99.74495 
L 291.992854 99.74495 
L 291.992854 98.946535 
L 293.091594 98.946535 
L 293.091594 98.148119 
L 296.511233 98.148119 
L 296.511233 97.349703 
L 298.270702 97.349703 
L 298.270702 96.551287 
L 303.546029 96.551287 
L 303.60315 94.954455 
L 310.060808 94.954455 
L 310.060808 94.15604 
L 310.891422 94.15604 
L 310.891422 93.357624 
L 318.225492 93.357624 
L 318.225492 92.559208 
L 320.018392 92.559208 
L 320.018392 91.760792 
L 323.498563 91.760792 
L 323.498563 90.962376 
L 324.137656 90.962376 
L 324.183311 88.567129 
L 326.331723 88.567129 
L 326.350028 86.970297 
L 326.532338 86.970297 
L 326.532338 86.171881 
L 326.909765 86.171881 
L 326.909765 85.373465 
L 327.362816 85.373465 
L 327.362816 84.57505 
L 327.477246 84.57505 
L 327.477246 83.776634 
L 328.151799 83.776634 
L 328.20861 82.179802 
L 328.742363 82.179802 
L 328.742363 81.381386 
L 329.070666 81.381386 
L 329.070666 80.58297 
L 329.413832 80.58297 
L 329.413832 79.784554 
L 329.698751 79.784554 
L 329.740458 78.187723 
L 330.213237 78.187723 
L 330.213237 77.389307 
L 330.337763 77.389307 
L 330.337763 76.590891 
L 330.98747 76.590891 
L 330.98747 75.792475 
L 331.486354 75.792475 
L 331.537191 74.195644 
L 331.691135 74.195644 
L 331.698885 72.598812 
L 333.041552 72.598812 
L 333.041552 71.800396 
L 333.174497 71.800396 
L 333.174497 71.00198 
L 333.312377 71.00198 
L 333.312377 70.203564 
L 333.664292 70.203564 
L 333.664292 69.405149 
L 334.265892 69.405149 
L 334.361933 67.808317 
L 334.607611 67.808317 
L 334.706406 65.413069 
L 335.199889 65.413069 
L 335.199889 64.614653 
L 335.694417 64.614653 
L 335.694417 63.816238 
L 336.383842 63.816238 
L 336.383842 63.017822 
L 336.500395 63.017822 
L 336.500395 62.219406 
L 336.920664 62.219406 
L 336.920664 61.42099 
L 337.455549 61.42099 
L 337.455549 60.622574 
L 337.76653 60.622574 
L 337.76653 59.824158 
L 338.996019 59.824158 
L 338.996019 59.025743 
L 339.225472 59.025743 
L 339.225472 58.227327 
L 339.430483 58.227327 
L 339.430483 57.428911 
L 339.842629 57.428911 
L 339.842629 56.630495 
L 342.124941 56.630495 
L 342.124941 55.832079 
L 342.258137 55.832079 
L 342.258137 55.033663 
L 342.762502 55.033663 
L 342.762502 54.235248 
L 343.306607 54.235248 
L 343.306607 53.436832 
L 343.78418 53.436832 
L 343.887777 51.84 
L 344.374979 51.84 
L 344.374979 51.041584 
L 345.413115 51.041584 
L 345.413115 50.243168 
L 345.87308 50.243168 
L 345.87308 49.444752 
L 347.754529 49.444752 
L 347.754529 48.646337 
L 348.143416 48.646337 
L 348.143416 47.847921 
L 349.12302 47.847921 
L 349.165135 45.452673 
L 349.260381 45.452673 
L 349.260381 44.654257 
L 349.509394 44.654257 
L 349.509394 43.855842 
L 349.790024 43.855842 
L 349.790024 43.057426 
L 350.017882 43.057426 
L 350.017882 42.25901 
L 364.766255 42.25901 
L 364.766255 41.460594 
L 365.294902 41.460594 
L 365.294902 40.662178 
L 367.012605 40.662178 
L 367.012605 39.863762 
L 369.710363 39.863762 
L 369.710363 39.065347 
L 369.857565 39.065347 
L 369.884932 37.468515 
L 370.024481 37.468515 
L 370.024481 36.670099 
L 370.166037 36.670099 
L 370.166037 35.871683 
L 370.379064 35.871683 
L 370.379064 35.073267 
L 370.698164 35.073267 
L 370.698164 34.274851 
L 371.267534 34.274851 
L 371.267534 33.476436 
L 371.577085 33.476436 
L 371.577085 32.67802 
L 371.706588 32.67802 
L 371.706588 31.879604 
L 372.13481 31.879604 
L 372.13481 31.081188 
L 372.93174 31.081188 
L 372.93174 30.282772 
L 373.055986 30.282772 
L 373.055986 29.484356 
L 373.531566 29.484356 
L 373.542712 27.887525 
L 373.956316 27.887525 
L 373.956316 27.089109 
L 375.933361 27.089109 
L 376.023948 24.693861 
L 376.236594 24.693861 
L 376.335522 22.298614 
L 376.863851 22.298614 
L 376.863851 21.500198 
L 378.196099 21.500198 
L 378.196099 20.701782 
L 379.174504 20.701782 
L 379.174504 19.903366 
L 383.12602 19.903366 
L 383.12602 19.10495 
L 386.882182 19.10495 
L 386.882182 18.306535 
L 408.98852 18.306535 
L 408.98852 17.508119 
L 412.699847 17.508119 
L 412.699847 16.709703 
L 413.654999 16.709703 
L 413.654999 15.911287 
L 415.0776 15.911287 
L 415.0776 15.112871 
L 416.065319 15.112871 
L 416.065319 14.314455 
L 416.180841 14.314455 
L 416.180841 13.51604 
L 417.112463 13.51604 
L 417.112463 12.717624 
L 417.565342 12.717624 
L 417.647287 11.120792 
L 418.088604 11.120792 
L 418.088604 10.322376 
L 419.685774 10.322376 
L 419.685774 9.52396 
L 419.807121 9.52396 
L 419.807121 8.725545 
L 420.920227 8.725545 
L 420.920227 7.927129 
L 421.705884 7.927129 
L 421.705884 7.128713 
L 427.092728 7.128713 
L 427.092728 6.330297 
L 427.092728 6.330297 
L 460.8 6.330297 
L 460.8 6.330297 
" clip-path="url(#p06102c6be8)" style="fill: none; stroke: #bf00bf; stroke-width: 1.5; stroke-linecap: square"/>
   </g>
   <g id="line2d_24">
    <path d="M 221.7656 293.76 
L 221.848432 292.163168 
L 223.14213 292.163168 
L 223.14213 291.364752 
L 223.335509 291.364752 
L 223.335509 290.566337 
L 223.663009 290.566337 
L 223.663009 289.767921 
L 224.422943 289.767921 
L 224.422943 288.969505 
L 225.241435 288.969505 
L 225.241435 288.171089 
L 226.657731 288.171089 
L 226.657731 287.372673 
L 227.272951 287.372673 
L 227.272951 286.574257 
L 227.403388 286.574257 
L 227.403388 285.775842 
L 227.567053 285.775842 
L 227.645957 284.17901 
L 227.848662 284.17901 
L 227.949634 282.582178 
L 227.989946 282.582178 
L 227.989946 281.783762 
L 228.775006 281.783762 
L 228.775006 280.985347 
L 233.36411 280.985347 
L 233.473668 279.388515 
L 233.897425 279.388515 
L 233.897425 278.590099 
L 234.201303 278.590099 
L 234.201303 277.791683 
L 234.465203 277.791683 
L 234.508616 276.194851 
L 235.181535 276.194851 
L 235.181535 275.396436 
L 235.617165 275.396436 
L 235.68087 273.799604 
L 235.996814 273.799604 
L 236.033934 271.404356 
L 236.324018 271.404356 
L 236.380767 269.807525 
L 236.488145 269.807525 
L 236.563201 268.210693 
L 236.665068 268.210693 
L 236.740231 266.613861 
L 237.511101 266.613861 
L 237.511101 265.815446 
L 237.728239 265.815446 
L 237.781263 263.420198 
L 238.139335 263.420198 
L 238.139335 262.621782 
L 238.35753 262.621782 
L 238.447089 261.02495 
L 238.823058 261.02495 
L 238.823058 260.226535 
L 239.147466 260.226535 
L 239.147466 259.428119 
L 239.734905 259.428119 
L 239.734905 258.629703 
L 240.675836 258.629703 
L 240.675836 257.831287 
L 241.078051 257.831287 
L 241.078051 257.032871 
L 241.475234 257.032871 
L 241.562185 255.43604 
L 241.723882 255.43604 
L 241.723882 254.637624 
L 242.307543 254.637624 
L 242.307543 253.839208 
L 242.806273 253.839208 
L 242.806273 253.040792 
L 243.194705 253.040792 
L 243.194705 252.242376 
L 243.65067 252.242376 
L 243.680774 250.645545 
L 243.9449 250.645545 
L 243.951173 249.048713 
L 244.254818 249.048713 
L 244.341247 247.451881 
L 244.394478 247.451881 
L 244.394478 246.653465 
L 245.043052 246.653465 
L 245.05211 245.056634 
L 245.391398 245.056634 
L 245.391398 244.258218 
L 245.571468 244.258218 
L 245.623435 242.661386 
L 246.071624 242.661386 
L 246.071624 241.86297 
L 246.18541 241.86297 
L 246.28758 239.467723 
L 246.445072 239.467723 
L 246.53789 237.870891 
L 246.710386 237.870891 
L 246.710386 237.072475 
L 246.843379 237.072475 
L 246.843379 236.274059 
L 247.004476 236.274059 
L 247.004476 235.475644 
L 247.646543 235.475644 
L 247.665297 233.878812 
L 247.844114 233.878812 
L 247.942036 231.483564 
L 248.030043 231.483564 
L 248.030043 230.685149 
L 248.565206 230.685149 
L 248.565206 229.886733 
L 248.677652 229.886733 
L 248.707595 228.289901 
L 248.80787 228.289901 
L 248.80787 227.491485 
L 248.985121 227.491485 
L 248.985121 226.693069 
L 249.122562 226.693069 
L 249.122562 225.894653 
L 249.990708 225.894653 
L 249.990708 225.096238 
L 250.215717 225.096238 
L 250.215717 224.297822 
L 250.376594 224.297822 
L 250.376594 223.499406 
L 250.551998 223.499406 
L 250.551998 222.70099 
L 250.763409 222.70099 
L 250.82917 218.708911 
L 250.91614 218.708911 
L 251.023756 215.515248 
L 251.082221 215.515248 
L 251.190816 213.12 
L 251.220479 213.12 
L 251.330189 207.531089 
L 251.434465 207.531089 
L 251.456584 205.135842 
L 251.547784 205.135842 
L 251.639894 201.143762 
L 251.662213 201.143762 
L 251.753618 199.546931 
L 251.830237 199.546931 
L 251.848063 196.353267 
L 252.097856 196.353267 
L 252.097856 195.554851 
L 252.320299 195.554851 
L 252.320299 194.756436 
L 253.553272 194.756436 
L 253.638207 193.159604 
L 253.978649 193.159604 
L 254.085983 191.562772 
L 254.15072 191.562772 
L 254.223732 189.167525 
L 254.358531 189.167525 
L 254.447833 186.772277 
L 254.613981 186.772277 
L 254.721461 184.37703 
L 254.734848 184.37703 
L 254.734848 183.578614 
L 255.499817 183.578614 
L 255.509806 181.981782 
L 256.446499 181.981782 
L 256.446499 181.183366 
L 256.938582 181.183366 
L 256.973794 179.586535 
L 257.277587 179.586535 
L 257.277587 178.788119 
L 257.82445 178.788119 
L 257.867732 177.191287 
L 258.600868 177.191287 
L 258.600868 176.392871 
L 259.111223 176.392871 
L 259.111223 175.594455 
L 259.708717 175.594455 
L 259.708717 174.79604 
L 260.993316 174.79604 
L 260.993316 173.997624 
L 264.06555 173.997624 
L 264.06555 173.199208 
L 264.305533 173.199208 
L 264.305533 172.400792 
L 268.675752 172.400792 
L 268.675752 171.602376 
L 268.891332 171.602376 
L 268.891332 170.80396 
L 269.670051 170.80396 
L 269.670051 170.005545 
L 270.179669 170.005545 
L 270.179669 169.207129 
L 270.367049 169.207129 
L 270.367049 168.408713 
L 271.158677 168.408713 
L 271.202168 166.811881 
L 271.501711 166.811881 
L 271.520919 165.21505 
L 271.727253 165.21505 
L 271.727253 164.416634 
L 272.13565 164.416634 
L 272.13565 163.618218 
L 272.392009 163.618218 
L 272.392009 162.819802 
L 272.580401 162.819802 
L 272.622508 161.22297 
L 272.738936 161.22297 
L 272.77425 158.827723 
L 272.894 158.827723 
L 272.894 158.029307 
L 273.260601 158.029307 
L 273.367998 156.432475 
L 273.39407 156.432475 
L 273.499281 154.037228 
L 273.509062 154.037228 
L 273.609592 150.843564 
L 273.641595 150.843564 
L 273.67482 149.246733 
L 273.889746 149.246733 
L 273.90805 146.851485 
L 274.009986 146.851485 
L 274.013121 145.254653 
L 274.239939 145.254653 
L 274.283474 143.657822 
L 274.379782 143.657822 
L 274.426398 142.06099 
L 274.519618 142.06099 
L 274.519618 141.262574 
L 274.635592 141.262574 
L 274.635592 140.464158 
L 274.770872 140.464158 
L 274.850068 138.867327 
L 275.060943 138.867327 
L 275.068832 137.270495 
L 275.266747 137.270495 
L 275.369938 134.076832 
L 275.58272 134.076832 
L 275.688402 132.48 
L 275.822632 132.48 
L 275.910382 130.883168 
L 276.070854 130.883168 
L 276.070854 130.084752 
L 276.227909 130.084752 
L 276.227909 129.286337 
L 276.383059 129.286337 
L 276.383059 128.487921 
L 276.497915 128.487921 
L 276.497915 127.689505 
L 276.672294 127.689505 
L 276.685154 126.092673 
L 277.021561 126.092673 
L 277.021561 125.294257 
L 277.233058 125.294257 
L 277.284111 123.697426 
L 277.428766 123.697426 
L 277.428766 122.89901 
L 277.631823 122.89901 
L 277.631823 122.100594 
L 277.802738 122.100594 
L 277.861208 120.503762 
L 277.955947 120.503762 
L 277.959159 118.906931 
L 278.279522 118.906931 
L 278.279522 118.108515 
L 278.440647 118.108515 
L 278.540339 116.511683 
L 278.833541 116.511683 
L 278.928939 114.914851 
L 279.190465 114.914851 
L 279.190465 114.116436 
L 279.537553 114.116436 
L 279.567481 111.721188 
L 279.792768 111.721188 
L 279.792768 110.922772 
L 280.281385 110.922772 
L 280.281385 110.124356 
L 280.83393 110.124356 
L 280.83393 109.325941 
L 282.773357 109.325941 
L 282.773357 108.527525 
L 283.287109 108.527525 
L 283.287109 107.729109 
L 283.700549 107.729109 
L 283.700549 106.930693 
L 284.388726 106.930693 
L 284.458131 105.333861 
L 284.846787 105.333861 
L 284.846787 104.535446 
L 284.979444 104.535446 
L 284.979444 103.73703 
L 286.501976 103.73703 
L 286.501976 102.938614 
L 286.740762 102.938614 
L 286.740762 102.140198 
L 286.968374 102.140198 
L 286.968374 101.341782 
L 287.084074 101.341782 
L 287.084074 100.543366 
L 287.364722 100.543366 
L 287.440544 98.148119 
L 287.613888 98.148119 
L 287.613888 97.349703 
L 287.844193 97.349703 
L 287.852291 95.752871 
L 288.844251 95.752871 
L 288.844251 94.954455 
L 289.409889 94.954455 
L 289.409889 94.15604 
L 294.124276 94.15604 
L 294.124276 93.357624 
L 296.262566 93.357624 
L 296.262566 92.559208 
L 298.270702 92.559208 
L 298.270702 91.760792 
L 300.878807 91.760792 
L 300.878807 90.962376 
L 302.101519 90.962376 
L 302.101519 90.16396 
L 310.060808 90.16396 
L 310.060808 89.365545 
L 311.958569 89.365545 
L 311.958569 88.567129 
L 317.228154 88.567129 
L 317.228154 87.768713 
L 318.46173 87.768713 
L 318.46173 86.970297 
L 318.779849 86.970297 
L 318.779849 86.171881 
L 319.897036 86.171881 
L 319.897036 85.373465 
L 320.018392 85.373465 
L 320.018392 84.57505 
L 320.379852 84.57505 
L 320.379852 83.776634 
L 320.699193 83.776634 
L 320.699193 82.978218 
L 321.093208 82.978218 
L 321.093208 82.179802 
L 321.987032 82.179802 
L 321.987032 81.381386 
L 322.224046 81.381386 
L 322.299495 79.784554 
L 322.383287 79.784554 
L 322.383287 78.986139 
L 323.105573 78.986139 
L 323.105573 78.187723 
L 324.150222 78.187723 
L 324.244534 75.792475 
L 324.966288 75.792475 
L 325.07494 74.195644 
L 325.395933 74.195644 
L 325.395933 73.397228 
L 326.004382 73.397228 
L 326.004382 72.598812 
L 326.402083 72.598812 
L 326.402083 71.800396 
L 326.524677 71.800396 
L 326.55905 69.405149 
L 326.677628 69.405149 
L 326.677628 68.606733 
L 327.457048 68.606733 
L 327.457048 67.808317 
L 328.143395 67.808317 
L 328.143395 67.009901 
L 328.955878 67.009901 
L 328.955878 66.211485 
L 329.413832 66.211485 
L 329.413832 65.413069 
L 329.614044 65.413069 
L 329.614044 64.614653 
L 329.740458 64.614653 
L 329.740458 63.816238 
L 330.151605 63.816238 
L 330.213237 62.219406 
L 330.337763 62.219406 
L 330.337763 61.42099 
L 330.993181 61.42099 
L 330.993181 60.622574 
L 331.367037 60.622574 
L 331.439787 59.025743 
L 331.50469 59.025743 
L 331.50469 58.227327 
L 331.673324 58.227327 
L 331.698885 56.630495 
L 332.253714 56.630495 
L 332.342289 55.033663 
L 332.403648 55.033663 
L 332.490581 53.436832 
L 332.68236 53.436832 
L 332.68236 52.638416 
L 332.858538 52.638416 
L 332.858538 51.84 
L 334.005111 51.84 
L 334.005111 51.041584 
L 334.596639 51.041584 
L 334.596639 50.243168 
L 334.912203 50.243168 
L 334.912203 49.444752 
L 335.726783 49.444752 
L 335.78045 47.847921 
L 336.31259 47.847921 
L 336.31259 47.049505 
L 337.125824 47.049505 
L 337.125824 46.251089 
L 337.76653 46.251089 
L 337.76653 45.452673 
L 341.529657 45.452673 
L 341.529657 44.654257 
L 344.254886 44.654257 
L 344.254886 43.855842 
L 347.933276 43.855842 
L 347.933276 43.057426 
L 349.036473 43.057426 
L 349.036473 42.25901 
L 358.322879 42.25901 
L 358.322879 41.460594 
L 360.118801 41.460594 
L 360.118801 40.662178 
L 361.058399 40.662178 
L 361.058399 39.863762 
L 362.005701 39.863762 
L 362.005701 39.065347 
L 362.462765 39.065347 
L 362.462765 38.266931 
L 362.826347 38.266931 
L 362.826347 37.468515 
L 364.099271 37.468515 
L 364.099271 36.670099 
L 364.32533 36.670099 
L 364.32533 35.871683 
L 364.766255 35.871683 
L 364.766255 35.073267 
L 365.073205 35.073267 
L 365.073205 34.274851 
L 365.230324 34.274851 
L 365.338124 32.67802 
L 365.807967 32.67802 
L 365.807967 31.879604 
L 366.062148 31.879604 
L 366.062148 31.081188 
L 366.486376 31.081188 
L 366.486376 30.282772 
L 367.012605 30.282772 
L 367.012605 29.484356 
L 367.65057 29.484356 
L 367.65057 28.685941 
L 369.710363 28.685941 
L 369.773927 27.089109 
L 369.884932 27.089109 
L 369.924026 25.492277 
L 370.469807 25.492277 
L 370.547958 23.895446 
L 370.698164 23.895446 
L 370.740649 22.298614 
L 371.247378 22.298614 
L 371.267534 20.701782 
L 371.748368 20.701782 
L 371.748368 19.903366 
L 372.13481 19.903366 
L 372.13481 19.10495 
L 373.126995 19.10495 
L 373.126995 18.306535 
L 408.98852 18.306535 
L 408.98852 17.508119 
L 411.25051 17.508119 
L 411.25051 16.709703 
L 411.571887 16.709703 
L 411.571887 15.911287 
L 412.699847 15.911287 
L 412.699847 15.112871 
L 413.90861 15.112871 
L 413.90861 14.314455 
L 414.041515 14.314455 
L 414.078478 12.717624 
L 414.293422 12.717624 
L 414.347236 11.120792 
L 414.698719 11.120792 
L 414.698719 10.322376 
L 414.871202 10.322376 
L 414.871202 9.52396 
L 415.735172 9.52396 
L 415.735172 8.725545 
L 416.668585 8.725545 
L 416.668585 7.927129 
L 417.112463 7.927129 
L 417.112463 7.128713 
L 419.220479 7.128713 
L 419.220479 6.330297 
L 419.220479 6.330297 
L 460.8 6.330297 
L 460.8 6.330297 
" clip-path="url(#p06102c6be8)" style="fill: none; stroke: #000000; stroke-width: 1.5; stroke-linecap: square"/>
   </g>
   <g id="line2d_25">
    <path d="M -0.109675 293.76 
L -0.109675 291.364752 
L 198.102875 291.364752 
L 198.102875 290.566337 
L 208.16203 290.566337 
L 208.16203 289.767921 
L 211.844734 289.767921 
L 211.844734 288.969505 
L 216.546044 288.969505 
L 216.546044 288.171089 
L 219.104156 288.171089 
L 219.104156 287.372673 
L 219.332719 287.372673 
L 219.332719 286.574257 
L 219.966221 286.574257 
L 219.966221 285.775842 
L 220.791696 285.775842 
L 220.791696 284.977426 
L 221.44759 284.977426 
L 221.44759 284.17901 
L 221.774865 284.17901 
L 221.848432 281.783762 
L 222.404008 281.783762 
L 222.429083 280.186931 
L 222.664594 280.186931 
L 222.664594 279.388515 
L 223.204382 279.388515 
L 223.204382 278.590099 
L 223.335509 278.590099 
L 223.335509 277.791683 
L 223.463551 277.791683 
L 223.515018 276.194851 
L 223.58179 276.194851 
L 223.687789 274.59802 
L 223.964137 274.59802 
L 224.04987 273.001188 
L 224.379294 273.001188 
L 224.454085 270.605941 
L 224.612096 270.605941 
L 224.612096 269.807525 
L 225.011578 269.807525 
L 225.011578 269.009109 
L 225.635291 269.009109 
L 225.635291 268.210693 
L 226.200947 268.210693 
L 226.200947 267.412277 
L 226.441287 267.412277 
L 226.508592 265.815446 
L 226.579911 265.815446 
L 226.579911 265.01703 
L 226.869996 265.01703 
L 226.869996 264.218614 
L 227.071874 264.218614 
L 227.071874 263.420198 
L 227.240345 263.420198 
L 227.3207 259.428119 
L 227.395468 259.428119 
L 227.481522 257.831287 
L 227.930437 257.831287 
L 227.996984 256.234455 
L 228.127924 256.234455 
L 228.127924 255.43604 
L 228.479522 255.43604 
L 228.527827 253.839208 
L 228.806635 253.839208 
L 228.806635 253.040792 
L 229.082262 253.040792 
L 229.163944 250.645545 
L 229.196819 250.645545 
L 229.196819 249.847129 
L 229.352841 249.847129 
L 229.352841 249.048713 
L 230.093069 249.048713 
L 230.093069 248.250297 
L 231.370428 248.250297 
L 231.370428 247.451881 
L 232.582501 247.451881 
L 232.669288 245.85505 
L 232.744466 245.85505 
L 232.835529 244.258218 
L 234.134417 244.258218 
L 234.151865 242.661386 
L 234.34064 242.661386 
L 234.34064 241.86297 
L 235.063158 241.86297 
L 235.066099 240.266139 
L 235.259267 240.266139 
L 235.259267 239.467723 
L 235.39769 239.467723 
L 235.39769 238.669307 
L 236.168747 238.669307 
L 236.168747 237.870891 
L 236.583022 237.870891 
L 236.583022 237.072475 
L 236.77432 237.072475 
L 236.77432 236.274059 
L 237.026961 236.274059 
L 237.026961 235.475644 
L 237.27916 235.475644 
L 237.279739 233.878812 
L 237.608602 233.878812 
L 237.704481 232.28198 
L 237.859044 232.28198 
L 237.892729 230.685149 
L 237.992162 230.685149 
L 237.992162 229.886733 
L 238.128495 229.886733 
L 238.135245 228.289901 
L 238.685275 228.289901 
L 238.709229 226.693069 
L 239.405225 226.693069 
L 239.405225 225.894653 
L 239.76943 225.894653 
L 239.836244 224.297822 
L 239.923967 224.297822 
L 239.923967 223.499406 
L 240.148826 223.499406 
L 240.183605 221.902574 
L 240.423065 221.902574 
L 240.525516 220.305743 
L 240.675836 220.305743 
L 240.724231 217.910495 
L 240.991519 217.910495 
L 241.01045 215.515248 
L 241.207784 215.515248 
L 241.263993 213.918416 
L 241.596856 213.918416 
L 241.684459 212.321584 
L 241.733697 212.321584 
L 241.824336 210.724752 
L 241.903261 210.724752 
L 241.903261 209.926337 
L 242.163451 209.926337 
L 242.163451 209.127921 
L 242.278171 209.127921 
L 242.278171 208.329505 
L 242.511008 208.329505 
L 242.511008 207.531089 
L 242.759717 207.531089 
L 242.759717 206.732673 
L 243.109725 206.732673 
L 243.125807 205.135842 
L 243.325584 205.135842 
L 243.325584 204.337426 
L 243.65067 204.337426 
L 243.680774 202.740594 
L 243.810023 202.740594 
L 243.810023 201.942178 
L 244.071401 201.942178 
L 244.144789 200.345347 
L 244.254818 200.345347 
L 244.254818 199.546931 
L 244.663573 199.546931 
L 244.663573 198.748515 
L 244.919932 198.748515 
L 244.919932 197.950099 
L 245.043052 197.950099 
L 245.043052 197.151683 
L 245.235419 197.151683 
L 245.235419 196.353267 
L 245.391398 196.353267 
L 245.431557 194.756436 
L 245.714271 194.756436 
L 245.714271 193.95802 
L 246.25593 193.95802 
L 246.290364 192.361188 
L 246.445072 192.361188 
L 246.492203 190.764356 
L 246.684844 190.764356 
L 246.684844 189.965941 
L 247.003743 189.965941 
L 247.003743 189.167525 
L 247.290864 189.167525 
L 247.290864 188.369109 
L 247.421519 188.369109 
L 247.421519 187.570693 
L 247.558574 187.570693 
L 247.558574 186.772277 
L 247.973994 186.772277 
L 247.973994 185.973861 
L 248.094719 185.973861 
L 248.094719 185.175446 
L 248.242207 185.175446 
L 248.242207 184.37703 
L 248.650416 184.37703 
L 248.650416 183.578614 
L 248.766838 183.578614 
L 248.809928 181.981782 
L 249.133819 181.981782 
L 249.148794 180.38495 
L 249.27015 180.38495 
L 249.363469 177.989703 
L 249.42657 177.989703 
L 249.474532 176.392871 
L 249.652449 176.392871 
L 249.652449 175.594455 
L 249.862952 175.594455 
L 249.862952 174.79604 
L 250.232274 174.79604 
L 250.232274 173.997624 
L 261.822363 173.997624 
L 261.822363 173.199208 
L 262.060255 173.199208 
L 262.060255 172.400792 
L 263.031923 172.400792 
L 263.031923 171.602376 
L 263.583676 171.602376 
L 263.583676 170.80396 
L 263.750434 170.80396 
L 263.750434 170.005545 
L 263.939912 170.005545 
L 263.939912 169.207129 
L 264.06555 169.207129 
L 264.141735 167.610297 
L 264.211082 167.610297 
L 264.305533 165.21505 
L 264.638656 165.21505 
L 264.638656 164.416634 
L 264.791066 164.416634 
L 264.880503 162.021386 
L 265.278258 162.021386 
L 265.308908 160.424554 
L 265.537398 160.424554 
L 265.60023 158.029307 
L 265.666317 158.029307 
L 265.666317 157.230891 
L 265.826441 157.230891 
L 265.915341 154.835644 
L 266.005328 154.835644 
L 266.083915 153.238812 
L 266.128102 153.238812 
L 266.210538 150.045149 
L 266.24084 150.045149 
L 266.315221 148.448317 
L 266.498293 148.448317 
L 266.539086 146.053069 
L 266.618764 146.053069 
L 266.716891 143.657822 
L 266.834226 143.657822 
L 266.834226 142.859406 
L 267.002536 142.859406 
L 267.047396 141.262574 
L 267.250767 141.262574 
L 267.287537 139.665743 
L 267.504082 139.665743 
L 267.504082 138.867327 
L 267.687517 138.867327 
L 267.687517 138.068911 
L 267.964838 138.068911 
L 267.998244 136.472079 
L 268.089351 136.472079 
L 268.089351 135.673663 
L 268.293174 135.673663 
L 268.304969 134.076832 
L 268.450356 134.076832 
L 268.451267 132.48 
L 268.628872 132.48 
L 268.691624 130.084752 
L 268.839442 130.084752 
L 268.891332 128.487921 
L 269.163049 128.487921 
L 269.163049 127.689505 
L 269.320066 127.689505 
L 269.347934 126.092673 
L 269.562326 126.092673 
L 269.670051 123.697426 
L 269.769776 123.697426 
L 269.769776 122.89901 
L 269.946105 122.89901 
L 269.946105 122.100594 
L 270.114164 122.100594 
L 270.179669 120.503762 
L 270.322486 120.503762 
L 270.322486 119.705347 
L 270.538158 119.705347 
L 270.644693 118.108515 
L 270.724069 118.108515 
L 270.724069 117.310099 
L 271.315927 117.310099 
L 271.315927 116.511683 
L 271.501711 116.511683 
L 271.501711 115.713267 
L 271.82063 115.713267 
L 271.881928 114.116436 
L 272.001911 114.116436 
L 272.001911 113.31802 
L 272.738936 113.31802 
L 272.738936 112.519604 
L 273.492713 112.519604 
L 273.52983 110.922772 
L 274.718476 110.922772 
L 274.718476 110.124356 
L 274.84406 110.124356 
L 274.897181 107.729109 
L 275.083972 107.729109 
L 275.083972 106.930693 
L 275.21973 106.930693 
L 275.21973 106.132277 
L 275.847062 106.132277 
L 275.874321 104.535446 
L 276.120033 104.535446 
L 276.120033 103.73703 
L 276.360989 103.73703 
L 276.415395 102.140198 
L 276.646247 102.140198 
L 276.707733 100.543366 
L 277.739806 100.543366 
L 277.843056 98.148119 
L 278.13432 98.148119 
L 278.13432 97.349703 
L 278.433482 97.349703 
L 278.458698 95.752871 
L 278.636453 95.752871 
L 278.725538 94.15604 
L 278.928939 94.15604 
L 278.928939 93.357624 
L 279.384418 93.357624 
L 279.384418 92.559208 
L 279.799835 92.559208 
L 279.799835 91.760792 
L 279.970766 91.760792 
L 280.004454 90.16396 
L 280.338458 90.16396 
L 280.379792 88.567129 
L 280.461121 88.567129 
L 280.461121 87.768713 
L 280.627938 87.768713 
L 280.627938 86.970297 
L 280.767939 86.970297 
L 280.767939 86.171881 
L 281.329364 86.171881 
L 281.329364 85.373465 
L 281.548882 85.373465 
L 281.63474 83.776634 
L 281.774136 83.776634 
L 281.824182 82.179802 
L 282.437733 82.179802 
L 282.437733 81.381386 
L 282.699945 81.381386 
L 282.699945 80.58297 
L 285.420685 80.58297 
L 285.420685 79.784554 
L 286.503967 79.784554 
L 286.570671 78.187723 
L 290.157982 78.187723 
L 290.157982 77.389307 
L 290.40849 77.389307 
L 290.40849 76.590891 
L 291.038331 76.590891 
L 291.059512 74.994059 
L 292.571992 74.994059 
L 292.571992 74.195644 
L 294.124276 74.195644 
L 294.124276 73.397228 
L 294.491857 73.397228 
L 294.491857 72.598812 
L 295.354487 72.598812 
L 295.354487 71.800396 
L 296.365936 71.800396 
L 296.369 70.203564 
L 296.995455 70.203564 
L 296.995455 69.405149 
L 297.119513 69.405149 
L 297.1805 67.808317 
L 298.70828 67.808317 
L 298.70828 67.009901 
L 298.862615 67.009901 
L 298.862615 66.211485 
L 299.19164 66.211485 
L 299.231014 64.614653 
L 300.051495 64.614653 
L 300.051495 63.816238 
L 301.851484 63.816238 
L 301.851484 63.017822 
L 302.356612 63.017822 
L 302.356612 62.219406 
L 302.720902 62.219406 
L 302.7529 60.622574 
L 303.179876 60.622574 
L 303.179876 59.824158 
L 303.784542 59.824158 
L 303.784542 59.025743 
L 304.107035 59.025743 
L 304.107035 58.227327 
L 304.43449 58.227327 
L 304.43449 57.428911 
L 304.866211 57.428911 
L 304.866211 56.630495 
L 305.069839 56.630495 
L 305.083832 55.033663 
L 305.501821 55.033663 
L 305.501821 54.235248 
L 305.654001 54.235248 
L 305.654001 53.436832 
L 305.861458 53.436832 
L 305.949843 51.84 
L 306.143529 51.84 
L 306.143529 51.041584 
L 306.35468 51.041584 
L 306.404485 49.444752 
L 306.984592 49.444752 
L 306.984592 48.646337 
L 307.451073 48.646337 
L 307.494284 47.049505 
L 308.541766 47.049505 
L 308.541766 46.251089 
L 308.677642 46.251089 
L 308.677642 45.452673 
L 309.778994 45.452673 
L 309.778994 44.654257 
L 310.988787 44.654257 
L 311.081591 43.057426 
L 312.198564 43.057426 
L 312.198564 42.25901 
L 339.754847 42.25901 
L 339.754847 41.460594 
L 349.078538 41.460594 
L 349.078538 40.662178 
L 352.226968 40.662178 
L 352.226968 39.863762 
L 353.998007 39.863762 
L 354.019997 38.266931 
L 354.509923 38.266931 
L 354.563258 36.670099 
L 355.072026 36.670099 
L 355.072026 35.871683 
L 355.232692 35.871683 
L 355.232692 35.073267 
L 355.670486 35.073267 
L 355.724837 33.476436 
L 355.848351 33.476436 
L 355.848351 32.67802 
L 356.380753 32.67802 
L 356.380753 31.879604 
L 358.114657 31.879604 
L 358.217738 30.282772 
L 358.518643 30.282772 
L 358.518643 29.484356 
L 359.127841 29.484356 
L 359.127841 28.685941 
L 359.635648 28.685941 
L 359.635648 27.887525 
L 360.051816 27.887525 
L 360.051816 27.089109 
L 360.403894 27.089109 
L 360.403894 26.290693 
L 361.64468 26.290693 
L 361.64468 25.492277 
L 361.852684 25.492277 
L 361.852684 24.693861 
L 362.220984 24.693861 
L 362.220984 23.895446 
L 362.59179 23.895446 
L 362.59179 23.09703 
L 362.826347 23.09703 
L 362.826347 22.298614 
L 363.221315 22.298614 
L 363.221315 21.500198 
L 364.333993 21.500198 
L 364.333993 20.701782 
L 364.766255 20.701782 
L 364.766255 19.903366 
L 364.922585 19.903366 
L 364.922585 19.10495 
L 368.781584 19.10495 
L 368.781584 18.306535 
L 394.236248 18.306535 
L 394.236248 17.508119 
L 394.545146 17.508119 
L 394.545146 16.709703 
L 396.35163 16.709703 
L 396.35163 15.911287 
L 396.555923 15.911287 
L 396.555923 15.112871 
L 396.953283 15.112871 
L 396.953283 14.314455 
L 397.152119 14.314455 
L 397.193244 12.717624 
L 397.693285 12.717624 
L 397.693285 11.919208 
L 397.978303 11.919208 
L 397.978303 11.120792 
L 398.144994 11.120792 
L 398.144994 10.322376 
L 399.639999 10.322376 
L 399.639999 9.52396 
L 399.764738 9.52396 
L 399.764738 8.725545 
L 402.545262 8.725545 
L 402.545262 7.927129 
L 403.312058 7.927129 
L 403.312058 7.128713 
L 403.673879 7.128713 
L 403.673879 6.330297 
L 403.673879 6.330297 
L 460.8 6.330297 
L 460.8 6.330297 
" clip-path="url(#p06102c6be8)" style="fill: none; stroke: #00bfbf; stroke-width: 1.5; stroke-linecap: square"/>
   </g>
   <g id="line2d_26">
    <path d="M -1 292.961584 
L -0.109675 292.961584 
L -0.109675 280.985347 
L 25.276073 280.985347 
L 25.276073 280.186931 
L 57.86813 280.186931 
L 57.86813 279.388515 
L 59.061736 279.388515 
L 59.061736 278.590099 
L 60.730636 278.590099 
L 60.730636 277.791683 
L 63.383183 277.791683 
L 63.383183 276.993267 
L 66.717449 276.993267 
L 66.717449 276.194851 
L 67.698193 276.194851 
L 67.698193 275.396436 
L 67.982249 275.396436 
L 67.982249 274.59802 
L 72.161374 274.59802 
L 72.161374 273.799604 
L 73.08479 273.799604 
L 73.08479 273.001188 
L 74.276989 273.001188 
L 74.276989 272.202772 
L 78.08791 272.202772 
L 78.08791 271.404356 
L 80.696577 271.404356 
L 80.696577 270.605941 
L 80.949389 270.605941 
L 80.949389 269.807525 
L 83.298898 269.807525 
L 83.298898 269.009109 
L 88.520739 269.009109 
L 88.520739 268.210693 
L 144.131009 268.210693 
L 144.131009 267.412277 
L 144.710416 267.412277 
L 144.710416 266.613861 
L 145.177324 266.613861 
L 145.177324 265.815446 
L 145.724622 265.815446 
L 145.724622 265.01703 
L 146.291671 265.01703 
L 146.291671 264.218614 
L 146.562444 264.218614 
L 146.562444 263.420198 
L 146.994177 263.420198 
L 146.994177 262.621782 
L 147.552748 262.621782 
L 147.552748 261.823366 
L 147.712495 261.823366 
L 147.712495 261.02495 
L 148.282104 261.02495 
L 148.282104 260.226535 
L 149.567922 260.226535 
L 149.651651 258.629703 
L 150.104918 258.629703 
L 150.104918 257.831287 
L 150.314663 257.831287 
L 150.314663 257.032871 
L 151.463876 257.032871 
L 151.463876 256.234455 
L 165.287586 256.234455 
L 165.287586 255.43604 
L 172.00018 255.43604 
L 172.00018 254.637624 
L 176.148949 254.637624 
L 176.148949 253.839208 
L 177.225156 253.839208 
L 177.225156 253.040792 
L 179.513199 253.040792 
L 179.513199 252.242376 
L 179.665994 252.242376 
L 179.665994 251.44396 
L 180.041876 251.44396 
L 180.041876 250.645545 
L 180.573586 250.645545 
L 180.573586 249.847129 
L 181.567324 249.847129 
L 181.567324 249.048713 
L 182.16349 249.048713 
L 182.16349 248.250297 
L 182.319417 248.250297 
L 182.319417 247.451881 
L 182.707059 247.451881 
L 182.707059 246.653465 
L 184.146986 246.653465 
L 184.146986 245.85505 
L 184.78468 245.85505 
L 184.78468 245.056634 
L 188.031742 245.056634 
L 188.031742 244.258218 
L 188.544568 244.258218 
L 188.544568 243.459802 
L 189.921986 243.459802 
L 189.921986 242.661386 
L 190.254169 242.661386 
L 190.254169 241.86297 
L 193.725414 241.86297 
L 193.725414 241.064554 
L 198.114629 241.064554 
L 198.114629 240.266139 
L 198.867785 240.266139 
L 198.925012 236.274059 
L 199.644609 236.274059 
L 199.644609 235.475644 
L 199.842446 235.475644 
L 199.884014 233.878812 
L 201.882657 233.878812 
L 201.882657 233.080396 
L 203.127425 233.080396 
L 203.189757 231.483564 
L 203.293978 231.483564 
L 203.293978 230.685149 
L 205.345841 230.685149 
L 205.346065 229.088317 
L 205.970779 229.088317 
L 205.982627 227.491485 
L 206.585099 227.491485 
L 206.585099 226.693069 
L 207.239132 226.693069 
L 207.239132 225.894653 
L 208.100778 225.894653 
L 208.100778 225.096238 
L 208.501031 225.096238 
L 208.501031 224.297822 
L 208.827044 224.297822 
L 208.88631 222.70099 
L 209.015895 222.70099 
L 209.015895 221.902574 
L 209.176461 221.902574 
L 209.176461 221.104158 
L 209.438995 221.104158 
L 209.438995 220.305743 
L 209.579026 220.305743 
L 209.579026 219.507327 
L 210.233552 219.507327 
L 210.317274 217.910495 
L 210.946181 217.910495 
L 210.946181 217.112079 
L 211.113552 217.112079 
L 211.203286 214.716832 
L 211.333218 214.716832 
L 211.343218 212.321584 
L 211.45934 212.321584 
L 211.45934 211.523168 
L 211.686725 211.523168 
L 211.726269 209.926337 
L 211.848075 209.926337 
L 211.848075 209.127921 
L 212.21702 209.127921 
L 212.21702 208.329505 
L 212.604135 208.329505 
L 212.683746 206.732673 
L 213.225821 206.732673 
L 213.225821 205.934257 
L 213.42018 205.934257 
L 213.455807 204.337426 
L 213.695011 204.337426 
L 213.713436 202.740594 
L 213.868926 202.740594 
L 213.871314 201.143762 
L 214.189876 201.143762 
L 214.189876 200.345347 
L 214.5483 200.345347 
L 214.5483 199.546931 
L 215.103332 199.546931 
L 215.103332 198.748515 
L 215.646066 198.748515 
L 215.646066 197.950099 
L 216.112221 197.950099 
L 216.112221 197.151683 
L 216.408937 197.151683 
L 216.460167 194.756436 
L 216.546044 194.756436 
L 216.546044 193.95802 
L 216.69549 193.95802 
L 216.69549 193.159604 
L 216.878755 193.159604 
L 216.878755 192.361188 
L 217.398308 192.361188 
L 217.398308 191.562772 
L 217.544885 191.562772 
L 217.652705 189.965941 
L 218.132829 189.965941 
L 218.214674 188.369109 
L 218.293613 188.369109 
L 218.347425 186.772277 
L 218.405957 186.772277 
L 218.506086 183.578614 
L 219.035813 183.578614 
L 219.035813 182.780198 
L 219.731264 182.780198 
L 219.731264 181.981782 
L 220.018046 181.981782 
L 220.018046 181.183366 
L 220.460729 181.183366 
L 220.460729 180.38495 
L 220.657129 180.38495 
L 220.67898 178.788119 
L 220.805186 178.788119 
L 220.906288 175.594455 
L 220.962996 175.594455 
L 220.962996 174.79604 
L 221.130773 174.79604 
L 221.130773 173.997624 
L 221.366591 173.997624 
L 221.366591 173.199208 
L 221.501288 173.199208 
L 221.501288 172.400792 
L 221.646149 172.400792 
L 221.646149 171.602376 
L 221.840529 171.602376 
L 221.935504 169.207129 
L 222.048133 169.207129 
L 222.048133 168.408713 
L 222.60305 168.408713 
L 222.634425 166.811881 
L 222.87553 166.811881 
L 222.87553 166.013465 
L 223.075944 166.013465 
L 223.075944 165.21505 
L 223.370476 165.21505 
L 223.370476 164.416634 
L 223.825233 164.416634 
L 223.930392 162.819802 
L 224.344685 162.819802 
L 224.344685 162.021386 
L 224.689149 162.021386 
L 224.79604 160.424554 
L 224.86542 160.424554 
L 224.86542 159.626139 
L 225.273522 159.626139 
L 225.273522 158.827723 
L 225.450869 158.827723 
L 225.454271 157.230891 
L 226.758893 157.230891 
L 226.831954 153.238812 
L 227.16494 153.238812 
L 227.16494 152.440396 
L 227.652554 152.440396 
L 227.652554 151.64198 
L 228.00944 151.64198 
L 228.00944 150.843564 
L 228.272164 150.843564 
L 228.272164 150.045149 
L 228.424742 150.045149 
L 228.424742 149.246733 
L 228.761636 149.246733 
L 228.761636 148.448317 
L 229.261068 148.448317 
L 229.261068 147.649901 
L 229.483473 147.649901 
L 229.483473 146.851485 
L 229.982147 146.851485 
L 229.982147 146.053069 
L 230.899946 146.053069 
L 230.934218 143.657822 
L 231.086369 143.657822 
L 231.146459 142.06099 
L 231.649543 142.06099 
L 231.649543 141.262574 
L 231.930939 141.262574 
L 231.930939 140.464158 
L 232.09192 140.464158 
L 232.09192 139.665743 
L 232.467548 139.665743 
L 232.467548 138.867327 
L 232.591903 138.867327 
L 232.591903 138.068911 
L 233.465313 138.068911 
L 233.537883 136.472079 
L 233.634039 136.472079 
L 233.730343 134.076832 
L 233.850126 134.076832 
L 233.882623 132.48 
L 233.98251 132.48 
L 234.071844 130.883168 
L 234.169662 130.883168 
L 234.178614 129.286337 
L 234.467578 129.286337 
L 234.533621 126.891089 
L 234.630149 126.891089 
L 234.712418 123.697426 
L 234.795953 123.697426 
L 234.834903 122.100594 
L 234.966151 122.100594 
L 235.049286 120.503762 
L 235.123132 120.503762 
L 235.123132 119.705347 
L 235.290934 119.705347 
L 235.331486 118.108515 
L 235.441308 118.108515 
L 235.510726 116.511683 
L 235.592587 116.511683 
L 235.592587 115.713267 
L 235.922665 115.713267 
L 235.922665 114.914851 
L 236.19838 114.914851 
L 236.237166 113.31802 
L 237.86302 113.31802 
L 237.86302 112.519604 
L 238.615676 112.519604 
L 238.615676 111.721188 
L 238.959624 111.721188 
L 238.959624 110.922772 
L 239.096339 110.922772 
L 239.096339 110.124356 
L 239.267022 110.124356 
L 239.267022 109.325941 
L 239.507088 109.325941 
L 239.548496 107.729109 
L 239.874233 107.729109 
L 239.965309 105.333861 
L 240.018652 105.333861 
L 240.018652 104.535446 
L 240.435709 104.535446 
L 240.447141 102.938614 
L 240.675836 102.938614 
L 240.766561 101.341782 
L 240.819191 101.341782 
L 240.819191 100.543366 
L 241.272522 100.543366 
L 241.313557 98.946535 
L 241.589268 98.946535 
L 241.589268 98.148119 
L 241.846249 98.148119 
L 241.846249 97.349703 
L 242.836104 97.349703 
L 242.836104 96.551287 
L 243.082486 96.551287 
L 243.097594 94.954455 
L 243.66192 94.954455 
L 243.725814 92.559208 
L 244.489323 92.559208 
L 244.489323 91.760792 
L 244.654384 91.760792 
L 244.654384 90.962376 
L 245.005696 90.962376 
L 245.005696 90.16396 
L 245.132621 90.16396 
L 245.21719 86.171881 
L 245.799169 86.171881 
L 245.799169 85.373465 
L 246.03462 85.373465 
L 246.105859 83.776634 
L 246.226581 83.776634 
L 246.226581 82.978218 
L 246.392061 82.978218 
L 246.392061 82.179802 
L 247.531766 82.179802 
L 247.641882 80.58297 
L 247.965514 80.58297 
L 247.965514 79.784554 
L 248.373377 79.784554 
L 248.373377 78.986139 
L 248.531428 78.986139 
L 248.531428 78.187723 
L 248.791962 78.187723 
L 248.791962 77.389307 
L 249.475737 77.389307 
L 249.475737 76.590891 
L 249.597404 76.590891 
L 249.597404 75.792475 
L 250.256951 75.792475 
L 250.256951 74.994059 
L 250.850014 74.994059 
L 250.850014 74.195644 
L 250.984652 74.195644 
L 250.984652 73.397228 
L 251.538655 73.397228 
L 251.538655 72.598812 
L 251.668799 72.598812 
L 251.668799 71.800396 
L 251.904296 71.800396 
L 252.011401 70.203564 
L 252.699373 70.203564 
L 252.699373 69.405149 
L 252.823804 69.405149 
L 252.823804 68.606733 
L 253.146714 68.606733 
L 253.146714 67.808317 
L 253.802725 67.808317 
L 253.802725 67.009901 
L 253.980447 67.009901 
L 253.980447 66.211485 
L 254.711237 66.211485 
L 254.711237 65.413069 
L 254.953938 65.413069 
L 254.990662 63.816238 
L 255.355265 63.816238 
L 255.355265 63.017822 
L 255.816122 63.017822 
L 255.858236 61.42099 
L 255.968687 61.42099 
L 255.968687 60.622574 
L 256.86313 60.622574 
L 256.929334 59.025743 
L 257.459798 59.025743 
L 257.468714 57.428911 
L 257.674535 57.428911 
L 257.709956 55.832079 
L 257.852507 55.832079 
L 257.852507 55.033663 
L 257.969611 55.033663 
L 258.001357 53.436832 
L 258.146837 53.436832 
L 258.146837 52.638416 
L 258.510681 52.638416 
L 258.547533 50.243168 
L 258.687978 50.243168 
L 258.687978 49.444752 
L 258.937595 49.444752 
L 258.937595 48.646337 
L 259.234728 48.646337 
L 259.284045 47.049505 
L 259.387349 47.049505 
L 259.387349 46.251089 
L 259.747666 46.251089 
L 259.833429 44.654257 
L 260.361387 44.654257 
L 260.371227 43.057426 
L 262.341386 43.057426 
L 262.341386 42.25901 
L 264.06555 42.25901 
L 264.06555 41.460594 
L 264.305533 41.460594 
L 264.305533 40.662178 
L 267.216696 40.662178 
L 267.216696 39.863762 
L 268.334624 39.863762 
L 268.411299 38.266931 
L 268.451267 38.266931 
L 268.451267 37.468515 
L 268.598445 37.468515 
L 268.598445 36.670099 
L 268.891332 36.670099 
L 268.891332 35.871683 
L 269.583613 35.871683 
L 269.583613 35.073267 
L 270.179669 35.073267 
L 270.179669 34.274851 
L 270.478713 34.274851 
L 270.478713 33.476436 
L 272.675694 33.476436 
L 272.675694 32.67802 
L 273.345999 32.67802 
L 273.345999 31.879604 
L 278.127667 31.879604 
L 278.127667 31.081188 
L 279.262882 31.081188 
L 279.262882 30.282772 
L 293.690045 30.282772 
L 293.690045 29.484356 
L 296.990928 29.484356 
L 296.990928 28.685941 
L 297.796352 28.685941 
L 297.796352 27.887525 
L 299.247658 27.887525 
L 299.247658 27.089109 
L 300.13334 27.089109 
L 300.13334 26.290693 
L 300.822026 26.290693 
L 300.822026 25.492277 
L 301.009167 25.492277 
L 301.009167 24.693861 
L 302.424966 24.693861 
L 302.424966 23.895446 
L 302.758549 23.895446 
L 302.758549 23.09703 
L 303.355015 23.09703 
L 303.355015 22.298614 
L 303.567317 22.298614 
L 303.567317 21.500198 
L 305.21814 21.500198 
L 305.21814 20.701782 
L 306.165496 20.701782 
L 306.165496 19.903366 
L 306.392776 19.903366 
L 306.392776 19.10495 
L 307.828998 19.10495 
L 307.874842 17.508119 
L 308.201673 17.508119 
L 308.201673 16.709703 
L 308.565864 16.709703 
L 308.565864 15.911287 
L 309.892989 15.911287 
L 309.892989 15.112871 
L 310.424646 15.112871 
L 310.424646 14.314455 
L 310.688872 14.314455 
L 310.772189 12.717624 
L 310.99092 12.717624 
L 310.99092 11.919208 
L 315.078983 11.919208 
L 315.124207 10.322376 
L 316.474568 10.322376 
L 316.474568 9.52396 
L 318.26343 9.52396 
L 318.26343 8.725545 
L 319.074822 8.725545 
L 319.074822 7.927129 
L 323.249413 7.927129 
L 323.249413 7.128713 
L 328.554061 7.128713 
L 328.554061 6.330297 
L 328.554061 6.330297 
L 460.8 6.330297 
L 460.8 6.330297 
" clip-path="url(#p06102c6be8)" style="fill: none; stroke: #bf00bf; stroke-width: 1.5; stroke-linecap: square"/>
   </g>
   <g id="line2d_27">
    <path d="M -1 199.546931 
L -0.109675 199.546931 
L -0.109675 172.400792 
L 6.456494 172.400792 
L 6.456494 171.602376 
L 14.382656 171.602376 
L 14.382656 170.80396 
L 14.550637 170.80396 
L 14.550637 170.005545 
L 21.362442 170.005545 
L 21.362442 169.207129 
L 23.354892 169.207129 
L 23.354892 168.408713 
L 33.528833 168.408713 
L 33.528833 167.610297 
L 34.083365 167.610297 
L 34.083365 166.811881 
L 40.051754 166.811881 
L 40.051754 166.013465 
L 41.241905 166.013465 
L 41.241905 165.21505 
L 50.080222 165.21505 
L 50.080222 164.416634 
L 53.214529 164.416634 
L 53.214529 163.618218 
L 54.817866 163.618218 
L 54.817866 162.819802 
L 56.094812 162.819802 
L 56.094812 162.021386 
L 80.18841 162.021386 
L 80.18841 161.22297 
L 80.61272 161.22297 
L 80.61272 160.424554 
L 83.287432 160.424554 
L 83.287432 159.626139 
L 84.155161 159.626139 
L 84.155161 158.827723 
L 94.987692 158.827723 
L 94.987692 158.029307 
L 103.350946 158.029307 
L 103.350946 157.230891 
L 104.613596 157.230891 
L 104.613596 156.432475 
L 113.307803 156.432475 
L 113.307803 155.634059 
L 118.060211 155.634059 
L 118.060211 154.835644 
L 120.928979 154.835644 
L 120.928979 154.037228 
L 127.585619 154.037228 
L 127.585619 153.238812 
L 129.168955 153.238812 
L 129.168955 152.440396 
L 131.855074 152.440396 
L 131.855074 151.64198 
L 132.327505 151.64198 
L 132.394481 150.045149 
L 132.685466 150.045149 
L 132.685466 149.246733 
L 139.947622 149.246733 
L 139.947622 148.448317 
L 140.854151 148.448317 
L 140.854151 147.649901 
L 144.201659 147.649901 
L 144.25524 146.053069 
L 148.333219 146.053069 
L 148.333219 145.254653 
L 148.487576 145.254653 
L 148.487576 144.456238 
L 153.218996 144.456238 
L 153.218996 143.657822 
L 153.507294 143.657822 
L 153.507294 142.859406 
L 154.171889 142.859406 
L 154.171889 142.06099 
L 154.303326 142.06099 
L 154.303326 141.262574 
L 154.439777 141.262574 
L 154.439777 140.464158 
L 155.737095 140.464158 
L 155.737095 139.665743 
L 156.510593 139.665743 
L 156.510593 138.867327 
L 156.823568 138.867327 
L 156.823568 138.068911 
L 159.339198 138.068911 
L 159.339198 137.270495 
L 161.865366 137.270495 
L 161.865366 136.472079 
L 162.853666 136.472079 
L 162.853666 135.673663 
L 163.138536 135.673663 
L 163.138536 134.875248 
L 163.875946 134.875248 
L 163.875946 134.076832 
L 165.338031 134.076832 
L 165.338031 133.278416 
L 173.41684 133.278416 
L 173.41684 132.48 
L 173.712815 132.48 
L 173.712815 131.681584 
L 173.852386 131.681584 
L 173.852386 130.883168 
L 173.994394 130.883168 
L 173.994394 130.084752 
L 174.445193 130.084752 
L 174.445193 129.286337 
L 175.414867 129.286337 
L 175.414867 128.487921 
L 176.288182 128.487921 
L 176.288182 127.689505 
L 176.608865 127.689505 
L 176.608865 126.891089 
L 178.844771 126.891089 
L 178.844771 126.092673 
L 179.008398 126.092673 
L 179.008398 125.294257 
L 182.923271 125.294257 
L 182.923271 124.495842 
L 185.755684 124.495842 
L 185.755684 123.697426 
L 186.075156 123.697426 
L 186.075156 122.89901 
L 188.599504 122.89901 
L 188.599504 122.100594 
L 189.376505 122.100594 
L 189.376505 121.302178 
L 191.135437 121.302178 
L 191.135437 120.503762 
L 193.289535 120.503762 
L 193.289535 119.705347 
L 194.070742 119.705347 
L 194.070742 118.906931 
L 194.958591 118.906931 
L 194.958591 118.108515 
L 198.417432 118.108515 
L 198.417432 117.310099 
L 198.86771 117.310099 
L 198.86771 113.31802 
L 199.940394 113.31802 
L 199.940394 112.519604 
L 200.534156 112.519604 
L 200.624619 110.922772 
L 201.167105 110.922772 
L 201.167105 110.124356 
L 203.728603 110.124356 
L 203.728603 109.325941 
L 204.608452 109.325941 
L 204.608452 108.527525 
L 205.345684 108.527525 
L 205.450476 106.132277 
L 206.253907 106.132277 
L 206.253907 105.333861 
L 206.571054 105.333861 
L 206.571054 104.535446 
L 206.955272 104.535446 
L 206.955272 103.73703 
L 207.471292 103.73703 
L 207.471292 102.938614 
L 207.755904 102.938614 
L 207.755904 102.140198 
L 208.034936 102.140198 
L 208.034936 101.341782 
L 208.169625 101.341782 
L 208.169625 100.543366 
L 208.43693 100.543366 
L 208.43693 99.74495 
L 209.14014 99.74495 
L 209.14014 98.946535 
L 209.459205 98.946535 
L 209.564839 97.349703 
L 209.953796 97.349703 
L 210.031449 95.752871 
L 210.219532 95.752871 
L 210.317266 93.357624 
L 210.563177 93.357624 
L 210.642775 91.760792 
L 210.80614 91.760792 
L 210.80614 90.962376 
L 211.015549 90.962376 
L 211.015549 90.16396 
L 211.203263 90.16396 
L 211.203263 89.365545 
L 212.160774 89.365545 
L 212.200793 87.768713 
L 212.458491 87.768713 
L 212.458491 86.970297 
L 212.588612 86.970297 
L 212.588612 86.171881 
L 213.04169 86.171881 
L 213.04169 85.373465 
L 213.22837 85.373465 
L 213.291881 82.978218 
L 213.419812 82.978218 
L 213.419812 82.179802 
L 213.550905 82.179802 
L 213.611085 79.784554 
L 214.189803 79.784554 
L 214.267317 78.187723 
L 214.732773 78.187723 
L 214.732773 77.389307 
L 215.080278 77.389307 
L 215.13871 75.792475 
L 215.783115 75.792475 
L 215.783115 74.994059 
L 216.066126 74.994059 
L 216.123568 73.397228 
L 216.259822 73.397228 
L 216.259822 72.598812 
L 217.618082 72.598812 
L 217.653259 71.00198 
L 218.316699 71.00198 
L 218.365625 69.405149 
L 218.448756 69.405149 
L 218.448756 68.606733 
L 219.438442 68.606733 
L 219.534347 67.009901 
L 219.708973 67.009901 
L 219.78173 65.413069 
L 220.000656 65.413069 
L 220.000656 64.614653 
L 220.614739 64.614653 
L 220.694345 63.017822 
L 220.805152 63.017822 
L 220.805152 60.622574 
L 221.232338 60.622574 
L 221.296917 59.025743 
L 222.621618 59.025743 
L 222.621618 58.227327 
L 224.321755 58.227327 
L 224.321755 57.428911 
L 224.796019 57.428911 
L 224.865414 55.832079 
L 226.017059 55.832079 
L 226.017059 55.033663 
L 226.826812 55.033663 
L 226.826812 53.436832 
L 227.090751 53.436832 
L 227.090751 52.638416 
L 227.578049 52.638416 
L 227.578049 51.84 
L 229.302598 51.84 
L 229.302598 51.041584 
L 229.483461 51.041584 
L 229.483461 50.243168 
L 230.271285 50.243168 
L 230.271285 49.444752 
L 231.95944 49.444752 
L 231.960747 47.049505 
L 232.467545 47.049505 
L 232.467545 46.251089 
L 232.721202 46.251089 
L 232.72178 44.654257 
L 233.432564 44.654257 
L 233.432567 42.25901 
L 234.100782 42.25901 
L 234.100788 38.266931 
L 234.284647 38.266931 
L 234.284647 37.468515 
L 234.730801 37.468515 
L 234.730801 36.670099 
L 235.892111 36.670099 
L 235.892111 35.871683 
L 236.429892 35.871683 
L 236.429892 34.274851 
L 236.942646 34.274851 
L 236.942646 33.476436 
L 237.432603 33.476436 
L 237.432606 31.879604 
L 237.90171 31.879604 
L 237.901712 30.282772 
L 238.353875 30.282772 
L 238.353875 29.484356 
L 238.783963 29.484356 
L 238.783963 28.685941 
L 239.199937 28.685941 
L 239.199945 27.089109 
L 239.600783 27.089109 
L 239.600799 24.693861 
L 240.361252 24.693861 
L 240.361252 23.895446 
L 240.722675 23.895446 
L 240.722675 23.09703 
L 241.072611 23.09703 
L 241.072611 22.298614 
L 241.411785 22.298614 
L 241.411785 21.500198 
L 242.672847 21.500198 
L 242.672847 20.701782 
L 243.532164 20.701782 
L 243.532164 19.903366 
L 244.582674 19.903366 
L 244.582689 18.306535 
L 250.650248 18.306535 
L 250.650248 17.508119 
L 252.439768 17.508119 
L 252.439768 16.709703 
L 253.815933 16.709703 
L 253.815933 15.911287 
L 254.345171 15.911287 
L 254.345171 15.112871 
L 254.69271 15.112871 
L 254.69271 14.314455 
L 254.809114 14.314455 
L 254.809114 13.51604 
L 254.925166 13.51604 
L 254.925166 12.717624 
L 255.0424 12.717624 
L 255.147658 11.120792 
L 255.165033 11.120792 
L 255.166475 9.52396 
L 255.403379 9.52396 
L 255.403379 8.725545 
L 255.545315 8.725545 
L 255.545315 7.927129 
L 255.845136 7.927129 
L 255.845136 7.128713 
L 255.97473 7.128713 
L 255.97473 6.330297 
L 255.97473 6.330297 
L 460.8 6.330297 
L 460.8 6.330297 
" clip-path="url(#p06102c6be8)" style="fill: none; stroke: #000000; stroke-width: 1.5; stroke-linecap: square"/>
   </g>
   <g id="patch_3">
    <path d="M 0 293.76 
L 0 3.456 
" style="fill: none; stroke: #000000; stroke-width: 0.8; stroke-linejoin: miter; stroke-linecap: square"/>
   </g>
   <g id="patch_4">
    <path d="M 460.8 293.76 
L 460.8 3.456 
" style="fill: none; stroke: #000000; stroke-width: 0.8; stroke-linejoin: miter; stroke-linecap: square"/>
   </g>
   <g id="patch_5">
    <path d="M 0 293.76 
L 460.8 293.76 
" style="fill: none; stroke: #000000; stroke-width: 0.8; stroke-linejoin: miter; stroke-linecap: square"/>
   </g>
   <g id="patch_6">
    <path d="M 0 3.456 
L 460.8 3.456 
" style="fill: none; stroke: #000000; stroke-width: 0.8; stroke-linejoin: miter; stroke-linecap: square"/>
   </g>
   <g id="text_6">
    <!-- {f1-f24}, 20-D -->
    <g transform="translate(305.884 287.95392) scale(0.2 -0.2)">
     <defs>
      <path id="DejaVuSans-7b" d="M 3272 -594 
L 3272 -1044 
L 3078 -1044 
Q 2300 -1044 2036 -812 
Q 1772 -581 1772 109 
L 1772 856 
Q 1772 1328 1603 1509 
Q 1434 1691 991 1691 
L 800 1691 
L 800 2138 
L 991 2138 
Q 1438 2138 1605 2317 
Q 1772 2497 1772 2963 
L 1772 3713 
Q 1772 4403 2036 4633 
Q 2300 4863 3078 4863 
L 3272 4863 
L 3272 4416 
L 3059 4416 
Q 2619 4416 2484 4278 
Q 2350 4141 2350 3700 
L 2350 2925 
Q 2350 2434 2208 2212 
Q 2066 1991 1722 1913 
Q 2069 1828 2209 1606 
Q 2350 1384 2350 897 
L 2350 122 
Q 2350 -319 2484 -456 
Q 2619 -594 3059 -594 
L 3272 -594 
z
" transform="scale(0.015625)"/>
      <path id="DejaVuSans-32" d="M 1228 531 
L 3431 531 
L 3431 0 
L 469 0 
L 469 531 
Q 828 903 1448 1529 
Q 2069 2156 2228 2338 
Q 2531 2678 2651 2914 
Q 2772 3150 2772 3378 
Q 2772 3750 2511 3984 
Q 2250 4219 1831 4219 
Q 1534 4219 1204 4116 
Q 875 4013 500 3803 
L 500 4441 
Q 881 4594 1212 4672 
Q 1544 4750 1819 4750 
Q 2544 4750 2975 4387 
Q 3406 4025 3406 3419 
Q 3406 3131 3298 2873 
Q 3191 2616 2906 2266 
Q 2828 2175 2409 1742 
Q 1991 1309 1228 531 
z
" transform="scale(0.015625)"/>
      <path id="DejaVuSans-7d" d="M 800 -594 
L 1019 -594 
Q 1456 -594 1589 -459 
Q 1722 -325 1722 122 
L 1722 897 
Q 1722 1384 1862 1606 
Q 2003 1828 2350 1913 
Q 2003 1991 1862 2212 
Q 1722 2434 1722 2925 
L 1722 3700 
Q 1722 4144 1589 4280 
Q 1456 4416 1019 4416 
L 800 4416 
L 800 4863 
L 997 4863 
Q 1775 4863 2036 4633 
Q 2297 4403 2297 3713 
L 2297 2963 
Q 2297 2497 2465 2317 
Q 2634 2138 3078 2138 
L 3272 2138 
L 3272 1691 
L 3078 1691 
Q 2634 1691 2465 1509 
Q 2297 1328 2297 856 
L 2297 109 
Q 2297 -581 2036 -812 
Q 1775 -1044 997 -1044 
L 800 -1044 
L 800 -594 
z
" transform="scale(0.015625)"/>
      <path id="DejaVuSans-2c" d="M 750 794 
L 1409 794 
L 1409 256 
L 897 -744 
L 494 -744 
L 750 256 
L 750 794 
z
" transform="scale(0.015625)"/>
     </defs>
     <use xlink:href="#DejaVuSans-7b"/>
     <use xlink:href="#DejaVuSans-66" x="63.623047"/>
     <use xlink:href="#DejaVuSans-31" x="98.828125"/>
     <use xlink:href="#DejaVuSans-2d" x="162.451172"/>
     <use xlink:href="#DejaVuSans-66" x="198.535156"/>
     <use xlink:href="#DejaVuSans-32" x="233.740234"/>
     <use xlink:href="#DejaVuSans-34" x="297.363281"/>
     <use xlink:href="#DejaVuSans-7d" x="360.986328"/>
     <use xlink:href="#DejaVuSans-2c" x="424.609375"/>
     <use xlink:href="#DejaVuSans-20" x="456.396484"/>
     <use xlink:href="#DejaVuSans-32" x="488.183594"/>
     <use xlink:href="#DejaVuSans-30" x="551.806641"/>
     <use xlink:href="#DejaVuSans-2d" x="615.429688"/>
     <use xlink:href="#DejaVuSans-44" x="651.513672"/>
    </g>
   </g>
   <g id="text_7">
    <!-- v2.6.3 -->
    <g style="fill: #808080" transform="translate(214.71875 288.777272) scale(0.1 -0.1)">
     <defs>
      <path id="DejaVuSans-76" d="M 191 3500 
L 800 3500 
L 1894 563 
L 2988 3500 
L 3597 3500 
L 2284 0 
L 1503 0 
L 191 3500 
z
" transform="scale(0.015625)"/>
      <path id="DejaVuSans-2e" d="M 684 794 
L 1344 794 
L 1344 0 
L 684 0 
L 684 794 
z
" transform="scale(0.015625)"/>
      <path id="DejaVuSans-36" d="M 2113 2584 
Q 1688 2584 1439 2293 
Q 1191 2003 1191 1497 
Q 1191 994 1439 701 
Q 1688 409 2113 409 
Q 2538 409 2786 701 
Q 3034 994 3034 1497 
Q 3034 2003 2786 2293 
Q 2538 2584 2113 2584 
z
M 3366 4563 
L 3366 3988 
Q 3128 4100 2886 4159 
Q 2644 4219 2406 4219 
Q 1781 4219 1451 3797 
Q 1122 3375 1075 2522 
Q 1259 2794 1537 2939 
Q 1816 3084 2150 3084 
Q 2853 3084 3261 2657 
Q 3669 2231 3669 1497 
Q 3669 778 3244 343 
Q 2819 -91 2113 -91 
Q 1303 -91 875 529 
Q 447 1150 447 2328 
Q 447 3434 972 4092 
Q 1497 4750 2381 4750 
Q 2619 4750 2861 4703 
Q 3103 4656 3366 4563 
z
" transform="scale(0.015625)"/>
      <path id="DejaVuSans-33" d="M 2597 2516 
Q 3050 2419 3304 2112 
Q 3559 1806 3559 1356 
Q 3559 666 3084 287 
Q 2609 -91 1734 -91 
Q 1441 -91 1130 -33 
Q 819 25 488 141 
L 488 750 
Q 750 597 1062 519 
Q 1375 441 1716 441 
Q 2309 441 2620 675 
Q 2931 909 2931 1356 
Q 2931 1769 2642 2001 
Q 2353 2234 1838 2234 
L 1294 2234 
L 1294 2753 
L 1863 2753 
Q 2328 2753 2575 2939 
Q 2822 3125 2822 3475 
Q 2822 3834 2567 4026 
Q 2313 4219 1838 4219 
Q 1578 4219 1281 4162 
Q 984 4106 628 3988 
L 628 4550 
Q 988 4650 1302 4700 
Q 1616 4750 1894 4750 
Q 2613 4750 3031 4423 
Q 3450 4097 3450 3541 
Q 3450 3153 3228 2886 
Q 3006 2619 2597 2516 
z
" transform="scale(0.015625)"/>
     </defs>
     <use xlink:href="#DejaVuSans-76"/>
     <use xlink:href="#DejaVuSans-32" x="59.179688"/>
     <use xlink:href="#DejaVuSans-2e" x="122.802734"/>
     <use xlink:href="#DejaVuSans-36" x="154.589844"/>
     <use xlink:href="#DejaVuSans-2e" x="218.212891"/>
     <use xlink:href="#DejaVuSans-33" x="250"/>
    </g>
   </g>
  </g>
 </g>
 <defs>
  <clipPath id="p06102c6be8">
   <rect x="0" y="3.456" width="460.8" height="290.304"/>
  </clipPath>
 </defs>
</svg>
