<?xml version="1.0" encoding="utf-8" standalone="no"?>
<!DOCTYPE svg PUBLIC "-//W3C//DTD SVG 1.1//EN"
  "http://www.w3.org/Graphics/SVG/1.1/DTD/svg11.dtd">
<svg xmlns:xlink="http://www.w3.org/1999/xlink" width="460.8pt" height="345.6pt" viewBox="0 0 460.8 345.6" xmlns="http://www.w3.org/2000/svg" version="1.1">
 <metadata>
  <rdf:RDF xmlns:dc="http://purl.org/dc/elements/1.1/" xmlns:cc="http://creativecommons.org/ns#" xmlns:rdf="http://www.w3.org/1999/02/22-rdf-syntax-ns#">
   <cc:Work>
    <dc:type rdf:resource="http://purl.org/dc/dcmitype/StillImage"/>
    <dc:date>2024-06-19T23:15:45.445605</dc:date>
    <dc:format>image/svg+xml</dc:format>
    <dc:creator>
     <cc:Agent>
      <dc:title>Matplotlib v3.7.5, https://matplotlib.org/</dc:title>
     </cc:Agent>
    </dc:creator>
   </cc:Work>
  </rdf:RDF>
 </metadata>
 <defs>
  <style type="text/css">*{stroke-linejoin: round; stroke-linecap: butt}</style>
 </defs>
 <g id="figure_1">
  <g id="patch_1">
   <path d="M 0 345.6 
L 460.8 345.6 
L 460.8 0 
L 0 0 
z
" style="fill: #ffffff"/>
  </g>
  <g id="axes_1">
   <g id="patch_2">
    <path d="M 0 293.76 
L 460.8 293.76 
L 460.8 3.456 
L 0 3.456 
z
" style="fill: #ffffff"/>
   </g>
   <g id="matplotlib.axis_1">
    <g id="xtick_1">
     <g id="line2d_1">
      <path d="M 93.635786 293.76 
L 93.635786 3.456 
" clip-path="url(#p8f1df7d22c)" style="fill: none; stroke: #b0b0b0; stroke-width: 0.8; stroke-linecap: square"/>
     </g>
     <g id="line2d_2">
      <defs>
       <path id="md57695d4aa" d="M 0 0 
L 0 3.5 
" style="stroke: #000000; stroke-width: 0.8"/>
      </defs>
      <g>
       <use xlink:href="#md57695d4aa" x="93.635786" y="293.76" style="stroke: #000000; stroke-width: 0.8"/>
      </g>
     </g>
     <g id="text_1">
      <!-- -4 -->
      <g transform="translate(83.665473 315.956875) scale(0.2 -0.2)">
       <defs>
        <path id="DejaVuSans-2d" d="M 313 2009 
L 1997 2009 
L 1997 1497 
L 313 1497 
L 313 2009 
z
" transform="scale(0.015625)"/>
        <path id="DejaVuSans-34" d="M 2419 4116 
L 825 1625 
L 2419 1625 
L 2419 4116 
z
M 2253 4666 
L 3047 4666 
L 3047 1625 
L 3713 1625 
L 3713 1100 
L 3047 1100 
L 3047 0 
L 2419 0 
L 2419 1100 
L 313 1100 
L 313 1709 
L 2253 4666 
z
" transform="scale(0.015625)"/>
       </defs>
       <use xlink:href="#DejaVuSans-2d"/>
       <use xlink:href="#DejaVuSans-34" x="36.083984"/>
      </g>
     </g>
    </g>
    <g id="xtick_2">
     <g id="line2d_3">
      <path d="M 187.37284 293.76 
L 187.37284 3.456 
" clip-path="url(#p8f1df7d22c)" style="fill: none; stroke: #b0b0b0; stroke-width: 0.8; stroke-linecap: square"/>
     </g>
     <g id="line2d_4">
      <g>
       <use xlink:href="#md57695d4aa" x="187.37284" y="293.76" style="stroke: #000000; stroke-width: 0.8"/>
      </g>
     </g>
     <g id="text_2">
      <!-- 0 -->
      <g transform="translate(181.01034 315.956875) scale(0.2 -0.2)">
       <defs>
        <path id="DejaVuSans-30" d="M 2034 4250 
Q 1547 4250 1301 3770 
Q 1056 3291 1056 2328 
Q 1056 1369 1301 889 
Q 1547 409 2034 409 
Q 2525 409 2770 889 
Q 3016 1369 3016 2328 
Q 3016 3291 2770 3770 
Q 2525 4250 2034 4250 
z
M 2034 4750 
Q 2819 4750 3233 4129 
Q 3647 3509 3647 2328 
Q 3647 1150 3233 529 
Q 2819 -91 2034 -91 
Q 1250 -91 836 529 
Q 422 1150 422 2328 
Q 422 3509 836 4129 
Q 1250 4750 2034 4750 
z
" transform="scale(0.015625)"/>
       </defs>
       <use xlink:href="#DejaVuSans-30"/>
      </g>
     </g>
    </g>
    <g id="xtick_3">
     <g id="line2d_5">
      <path d="M 281.109894 293.76 
L 281.109894 3.456 
" clip-path="url(#p8f1df7d22c)" style="fill: none; stroke: #b0b0b0; stroke-width: 0.8; stroke-linecap: square"/>
     </g>
     <g id="line2d_6">
      <g>
       <use xlink:href="#md57695d4aa" x="281.109894" y="293.76" style="stroke: #000000; stroke-width: 0.8"/>
      </g>
     </g>
     <g id="text_3">
      <!-- 4 -->
      <g transform="translate(274.747394 315.956875) scale(0.2 -0.2)">
       <use xlink:href="#DejaVuSans-34"/>
      </g>
     </g>
    </g>
    <g id="xtick_4">
     <g id="line2d_7">
      <path d="M 374.846948 293.76 
L 374.846948 3.456 
" clip-path="url(#p8f1df7d22c)" style="fill: none; stroke: #b0b0b0; stroke-width: 0.8; stroke-linecap: square"/>
     </g>
     <g id="line2d_8">
      <g>
       <use xlink:href="#md57695d4aa" x="374.846948" y="293.76" style="stroke: #000000; stroke-width: 0.8"/>
      </g>
     </g>
     <g id="text_4">
      <!-- 8 -->
      <g transform="translate(368.484448 315.956875) scale(0.2 -0.2)">
       <defs>
        <path id="DejaVuSans-38" d="M 2034 2216 
Q 1584 2216 1326 1975 
Q 1069 1734 1069 1313 
Q 1069 891 1326 650 
Q 1584 409 2034 409 
Q 2484 409 2743 651 
Q 3003 894 3003 1313 
Q 3003 1734 2745 1975 
Q 2488 2216 2034 2216 
z
M 1403 2484 
Q 997 2584 770 2862 
Q 544 3141 544 3541 
Q 544 4100 942 4425 
Q 1341 4750 2034 4750 
Q 2731 4750 3128 4425 
Q 3525 4100 3525 3541 
Q 3525 3141 3298 2862 
Q 3072 2584 2669 2484 
Q 3125 2378 3379 2068 
Q 3634 1759 3634 1313 
Q 3634 634 3220 271 
Q 2806 -91 2034 -91 
Q 1263 -91 848 271 
Q 434 634 434 1313 
Q 434 1759 690 2068 
Q 947 2378 1403 2484 
z
M 1172 3481 
Q 1172 3119 1398 2916 
Q 1625 2713 2034 2713 
Q 2441 2713 2670 2916 
Q 2900 3119 2900 3481 
Q 2900 3844 2670 4047 
Q 2441 4250 2034 4250 
Q 1625 4250 1398 4047 
Q 1172 3844 1172 3481 
z
" transform="scale(0.015625)"/>
       </defs>
       <use xlink:href="#DejaVuSans-38"/>
      </g>
     </g>
    </g>
    <g id="text_5">
     <!-- log10 of Df -->
     <g transform="translate(175.214063 339.313125) scale(0.2 -0.2)">
      <defs>
       <path id="DejaVuSans-6c" d="M 603 4863 
L 1178 4863 
L 1178 0 
L 603 0 
L 603 4863 
z
" transform="scale(0.015625)"/>
       <path id="DejaVuSans-6f" d="M 1959 3097 
Q 1497 3097 1228 2736 
Q 959 2375 959 1747 
Q 959 1119 1226 758 
Q 1494 397 1959 397 
Q 2419 397 2687 759 
Q 2956 1122 2956 1747 
Q 2956 2369 2687 2733 
Q 2419 3097 1959 3097 
z
M 1959 3584 
Q 2709 3584 3137 3096 
Q 3566 2609 3566 1747 
Q 3566 888 3137 398 
Q 2709 -91 1959 -91 
Q 1206 -91 779 398 
Q 353 888 353 1747 
Q 353 2609 779 3096 
Q 1206 3584 1959 3584 
z
" transform="scale(0.015625)"/>
       <path id="DejaVuSans-67" d="M 2906 1791 
Q 2906 2416 2648 2759 
Q 2391 3103 1925 3103 
Q 1463 3103 1205 2759 
Q 947 2416 947 1791 
Q 947 1169 1205 825 
Q 1463 481 1925 481 
Q 2391 481 2648 825 
Q 2906 1169 2906 1791 
z
M 3481 434 
Q 3481 -459 3084 -895 
Q 2688 -1331 1869 -1331 
Q 1566 -1331 1297 -1286 
Q 1028 -1241 775 -1147 
L 775 -588 
Q 1028 -725 1275 -790 
Q 1522 -856 1778 -856 
Q 2344 -856 2625 -561 
Q 2906 -266 2906 331 
L 2906 616 
Q 2728 306 2450 153 
Q 2172 0 1784 0 
Q 1141 0 747 490 
Q 353 981 353 1791 
Q 353 2603 747 3093 
Q 1141 3584 1784 3584 
Q 2172 3584 2450 3431 
Q 2728 3278 2906 2969 
L 2906 3500 
L 3481 3500 
L 3481 434 
z
" transform="scale(0.015625)"/>
       <path id="DejaVuSans-31" d="M 794 531 
L 1825 531 
L 1825 4091 
L 703 3866 
L 703 4441 
L 1819 4666 
L 2450 4666 
L 2450 531 
L 3481 531 
L 3481 0 
L 794 0 
L 794 531 
z
" transform="scale(0.015625)"/>
       <path id="DejaVuSans-20" transform="scale(0.015625)"/>
       <path id="DejaVuSans-66" d="M 2375 4863 
L 2375 4384 
L 1825 4384 
Q 1516 4384 1395 4259 
Q 1275 4134 1275 3809 
L 1275 3500 
L 2222 3500 
L 2222 3053 
L 1275 3053 
L 1275 0 
L 697 0 
L 697 3053 
L 147 3053 
L 147 3500 
L 697 3500 
L 697 3744 
Q 697 4328 969 4595 
Q 1241 4863 1831 4863 
L 2375 4863 
z
" transform="scale(0.015625)"/>
       <path id="DejaVuSans-44" d="M 1259 4147 
L 1259 519 
L 2022 519 
Q 2988 519 3436 956 
Q 3884 1394 3884 2338 
Q 3884 3275 3436 3711 
Q 2988 4147 2022 4147 
L 1259 4147 
z
M 628 4666 
L 1925 4666 
Q 3281 4666 3915 4102 
Q 4550 3538 4550 2338 
Q 4550 1131 3912 565 
Q 3275 0 1925 0 
L 628 0 
L 628 4666 
z
" transform="scale(0.015625)"/>
      </defs>
      <use xlink:href="#DejaVuSans-6c"/>
      <use xlink:href="#DejaVuSans-6f" x="27.783203"/>
      <use xlink:href="#DejaVuSans-67" x="88.964844"/>
      <use xlink:href="#DejaVuSans-31" x="152.441406"/>
      <use xlink:href="#DejaVuSans-30" x="216.064453"/>
      <use xlink:href="#DejaVuSans-20" x="279.6875"/>
      <use xlink:href="#DejaVuSans-6f" x="311.474609"/>
      <use xlink:href="#DejaVuSans-66" x="372.65625"/>
      <use xlink:href="#DejaVuSans-20" x="407.861328"/>
      <use xlink:href="#DejaVuSans-44" x="439.648438"/>
      <use xlink:href="#DejaVuSans-66" x="516.650391"/>
     </g>
    </g>
   </g>
   <g id="matplotlib.axis_2">
    <g id="ytick_1">
     <g id="line2d_9">
      <path d="M 0 293.76 
L 460.8 293.76 
" clip-path="url(#p8f1df7d22c)" style="fill: none; stroke: #b0b0b0; stroke-width: 0.8; stroke-linecap: square"/>
     </g>
     <g id="line2d_10">
      <defs>
       <path id="m1e41107fe3" d="M 0 0 
L -3.5 0 
" style="stroke: #000000; stroke-width: 0.8"/>
      </defs>
      <g>
       <use xlink:href="#m1e41107fe3" x="0" y="293.76" style="stroke: #000000; stroke-width: 0.8"/>
      </g>
     </g>
    </g>
    <g id="ytick_2">
     <g id="line2d_11">
      <path d="M 0 236.274059 
L 460.8 236.274059 
" clip-path="url(#p8f1df7d22c)" style="fill: none; stroke: #b0b0b0; stroke-width: 0.8; stroke-linecap: square"/>
     </g>
     <g id="line2d_12">
      <g>
       <use xlink:href="#m1e41107fe3" x="0" y="236.274059" style="stroke: #000000; stroke-width: 0.8"/>
      </g>
     </g>
    </g>
    <g id="ytick_3">
     <g id="line2d_13">
      <path d="M 0 178.788119 
L 460.8 178.788119 
" clip-path="url(#p8f1df7d22c)" style="fill: none; stroke: #b0b0b0; stroke-width: 0.8; stroke-linecap: square"/>
     </g>
     <g id="line2d_14">
      <g>
       <use xlink:href="#m1e41107fe3" x="0" y="178.788119" style="stroke: #000000; stroke-width: 0.8"/>
      </g>
     </g>
    </g>
    <g id="ytick_4">
     <g id="line2d_15">
      <path d="M 0 121.302178 
L 460.8 121.302178 
" clip-path="url(#p8f1df7d22c)" style="fill: none; stroke: #b0b0b0; stroke-width: 0.8; stroke-linecap: square"/>
     </g>
     <g id="line2d_16">
      <g>
       <use xlink:href="#m1e41107fe3" x="0" y="121.302178" style="stroke: #000000; stroke-width: 0.8"/>
      </g>
     </g>
    </g>
    <g id="ytick_5">
     <g id="line2d_17">
      <path d="M 0 63.816238 
L 460.8 63.816238 
" clip-path="url(#p8f1df7d22c)" style="fill: none; stroke: #b0b0b0; stroke-width: 0.8; stroke-linecap: square"/>
     </g>
     <g id="line2d_18">
      <g>
       <use xlink:href="#m1e41107fe3" x="0" y="63.816238" style="stroke: #000000; stroke-width: 0.8"/>
      </g>
     </g>
    </g>
    <g id="ytick_6">
     <g id="line2d_19">
      <path d="M 0 6.330297 
L 460.8 6.330297 
" clip-path="url(#p8f1df7d22c)" style="fill: none; stroke: #b0b0b0; stroke-width: 0.8; stroke-linecap: square"/>
     </g>
     <g id="line2d_20">
      <g>
       <use xlink:href="#m1e41107fe3" x="0" y="6.330297" style="stroke: #000000; stroke-width: 0.8"/>
      </g>
     </g>
    </g>
   </g>
   <g id="line2d_21">
    <path d="M 142.92788 293.76 
L 142.92788 289.927604 
L 147.521121 289.927604 
L 147.521121 286.095208 
L 148.018865 286.095208 
L 148.018865 282.262812 
L 152.401914 282.262812 
L 152.401914 278.430416 
L 157.305817 278.430416 
L 157.305817 274.59802 
L 164.535383 274.59802 
L 164.535383 270.765624 
L 167.435271 270.765624 
L 167.435271 266.933228 
L 170.099797 266.933228 
L 170.099797 263.100832 
L 171.540559 263.100832 
L 171.540559 259.268436 
L 172.10347 259.268436 
L 172.10347 255.43604 
L 172.261534 255.43604 
L 172.261534 251.603644 
L 173.175359 251.603644 
L 173.175359 247.771248 
L 173.631086 247.771248 
L 173.631086 243.938851 
L 174.264248 243.938851 
L 174.264248 240.106455 
L 174.812554 240.106455 
L 174.812554 236.274059 
L 175.278541 236.274059 
L 175.278541 232.441663 
L 175.472833 232.441663 
L 175.472833 228.609267 
L 175.613887 228.609267 
L 175.613887 224.776871 
L 175.836017 224.776871 
L 175.946516 217.112079 
L 176.633592 217.112079 
L 176.633592 213.279683 
L 177.04028 213.279683 
L 177.04028 209.447287 
L 177.460544 209.447287 
L 177.460544 205.614891 
L 178.004565 205.614891 
L 178.034666 194.117703 
L 178.126164 194.117703 
L 178.126164 190.285307 
L 179.580661 190.285307 
L 179.580661 186.452911 
L 179.732895 186.452911 
L 179.732895 182.620515 
L 179.913648 182.620515 
L 179.913648 178.788119 
L 180.088115 178.788119 
L 180.088115 174.955723 
L 180.721211 174.955723 
L 180.721211 171.123327 
L 180.945664 171.123327 
L 180.945664 167.290931 
L 181.595189 167.290931 
L 181.595189 163.458535 
L 181.956048 163.458535 
L 181.956048 159.626139 
L 183.085853 159.626139 
L 183.085853 155.793743 
L 183.728367 155.793743 
L 183.728367 151.961347 
L 184.122136 151.961347 
L 184.122136 148.12895 
L 184.347318 148.12895 
L 184.431197 140.464158 
L 184.600092 140.464158 
L 184.676394 132.799366 
L 185.254701 132.799366 
L 185.254701 128.96697 
L 186.337913 128.96697 
L 186.337913 125.134574 
L 187.324701 125.134574 
L 187.324701 121.302178 
L 187.548362 121.302178 
L 187.548362 117.469782 
L 187.972119 117.469782 
L 187.972119 113.637386 
L 188.969373 113.637386 
L 189.056795 105.972594 
L 189.573421 105.972594 
L 189.573421 102.140198 
L 191.897973 102.140198 
L 191.897973 98.307802 
L 192.449426 98.307802 
L 192.449426 94.475406 
L 192.952537 94.475406 
L 192.99746 86.810614 
L 194.375823 86.810614 
L 194.441909 79.145822 
L 198.505031 79.145822 
L 198.505031 75.313426 
L 200.040885 75.313426 
L 200.067158 67.648634 
L 200.238762 67.648634 
L 200.238762 63.816238 
L 201.435334 63.816238 
L 201.435334 59.983842 
L 201.731269 59.983842 
L 201.731269 56.151446 
L 203.946799 56.151446 
L 203.946799 52.31905 
L 204.22221 52.31905 
L 204.22221 48.486653 
L 207.12565 48.486653 
L 207.125797 33.157069 
L 208.48465 33.157069 
L 208.48465 29.324673 
L 209.41285 29.324673 
L 209.41285 25.492277 
L 210.755662 25.492277 
L 210.755665 17.827485 
L 212.292802 17.827485 
L 212.292802 13.995089 
L 216.737771 13.995089 
L 216.737771 10.162693 
L 217.913131 10.162693 
L 217.913131 6.330297 
L 217.913131 6.330297 
L 460.8 6.330297 
L 460.8 6.330297 
" clip-path="url(#p8f1df7d22c)" style="fill: none; stroke: #ff0000; stroke-width: 3; stroke-linecap: square"/>
   </g>
   <g id="line2d_22">
    <path d="M 205.127785 293.76 
L 205.127785 289.927604 
L 211.288045 289.927604 
L 211.288045 286.095208 
L 213.451581 286.095208 
L 213.451581 282.262812 
L 214.11752 282.262812 
L 214.11752 278.430416 
L 214.70076 278.430416 
L 214.70076 274.59802 
L 215.949641 274.59802 
L 215.949641 270.765624 
L 216.338755 270.765624 
L 216.338755 266.933228 
L 217.199894 266.933228 
L 217.277967 259.268436 
L 217.328735 259.268436 
L 217.328735 255.43604 
L 218.066036 255.43604 
L 218.066036 251.603644 
L 218.493999 251.603644 
L 218.493999 247.771248 
L 218.847296 247.771248 
L 218.847296 243.938851 
L 219.536023 243.938851 
L 219.536023 240.106455 
L 219.698623 240.106455 
L 219.698623 236.274059 
L 220.588109 236.274059 
L 220.588109 232.441663 
L 220.906652 232.441663 
L 220.906652 228.609267 
L 221.312824 228.609267 
L 221.336561 220.944475 
L 221.966119 220.944475 
L 221.966119 217.112079 
L 222.280841 217.112079 
L 222.280841 213.279683 
L 224.060662 213.279683 
L 224.060662 209.447287 
L 224.350182 209.447287 
L 224.377228 201.782495 
L 224.867016 201.782495 
L 224.867016 197.950099 
L 225.325437 197.950099 
L 225.361155 186.452911 
L 225.601874 186.452911 
L 225.601874 182.620515 
L 225.996046 182.620515 
L 226.041371 174.955723 
L 226.214885 174.955723 
L 226.214885 171.123327 
L 226.351124 171.123327 
L 226.351124 167.290931 
L 226.494863 167.290931 
L 226.494863 163.458535 
L 226.654802 163.458535 
L 226.654802 159.626139 
L 227.030058 159.626139 
L 227.030058 155.793743 
L 227.587962 155.793743 
L 227.587962 151.961347 
L 228.073211 151.961347 
L 228.073211 148.12895 
L 228.423099 148.12895 
L 228.423099 144.296554 
L 228.590346 144.296554 
L 228.590346 140.464158 
L 229.067587 140.464158 
L 229.067587 136.631762 
L 229.288785 136.631762 
L 229.288785 132.799366 
L 229.685823 132.799366 
L 229.685823 128.96697 
L 230.347456 128.96697 
L 230.347456 125.134574 
L 230.564877 125.134574 
L 230.564877 121.302178 
L 230.732863 121.302178 
L 230.732863 117.469782 
L 230.991675 117.469782 
L 230.991675 113.637386 
L 231.400942 113.637386 
L 231.400942 109.80499 
L 231.512366 109.80499 
L 231.512366 105.972594 
L 232.749625 105.972594 
L 232.749625 102.140198 
L 233.767785 102.140198 
L 233.767785 98.307802 
L 234.089647 98.307802 
L 234.089647 94.475406 
L 235.003783 94.475406 
L 235.003783 90.64301 
L 235.643342 90.64301 
L 235.643342 86.810614 
L 236.206252 86.810614 
L 236.206252 82.978218 
L 237.162731 82.978218 
L 237.230077 75.313426 
L 237.341702 75.313426 
L 237.341702 71.48103 
L 237.872117 71.48103 
L 237.872117 67.648634 
L 238.963193 67.648634 
L 238.963193 63.816238 
L 239.555643 63.816238 
L 239.555643 59.983842 
L 241.169398 59.983842 
L 241.169398 56.151446 
L 241.365724 56.151446 
L 241.365724 52.31905 
L 241.799345 52.31905 
L 241.799345 48.486653 
L 242.518729 48.486653 
L 242.518729 44.654257 
L 243.226531 44.654257 
L 243.226531 40.821861 
L 245.57741 40.821861 
L 245.57741 36.989465 
L 247.82447 36.989465 
L 247.82447 33.157069 
L 249.205754 33.157069 
L 249.205754 29.324673 
L 250.123394 29.324673 
L 250.123394 25.492277 
L 253.987839 25.492277 
L 253.987839 21.659881 
L 255.576837 21.659881 
L 255.576837 17.827485 
L 257.152475 17.827485 
L 257.152475 13.995089 
L 258.925896 13.995089 
L 258.925896 10.162693 
L 267.077933 10.162693 
L 267.077933 6.330297 
L 267.077933 6.330297 
L 460.8 6.330297 
L 460.8 6.330297 
" clip-path="url(#p8f1df7d22c)" style="fill: none; stroke: #00bfbf; stroke-width: 1.5; stroke-linecap: square"/>
   </g>
   <g id="line2d_23">
    <path d="M 205.127785 293.76 
L 205.127785 289.927604 
L 208.732447 289.927604 
L 208.732447 286.095208 
L 211.288045 286.095208 
L 211.288045 282.262812 
L 211.465881 282.262812 
L 211.465881 278.430416 
L 211.876367 278.430416 
L 211.876367 274.59802 
L 212.204255 274.59802 
L 212.204255 270.765624 
L 213.302351 270.765624 
L 213.366757 263.100832 
L 213.451581 263.100832 
L 213.451581 259.268436 
L 213.834535 259.268436 
L 213.834535 255.43604 
L 214.024854 255.43604 
L 214.11752 247.771248 
L 214.390552 247.771248 
L 214.390552 243.938851 
L 214.70076 243.938851 
L 214.70076 240.106455 
L 216.189067 240.106455 
L 216.275369 232.441663 
L 216.338755 232.441663 
L 216.338755 228.609267 
L 216.781038 228.609267 
L 216.781038 224.776871 
L 217.056202 224.776871 
L 217.076325 217.112079 
L 217.328735 217.112079 
L 217.328735 213.279683 
L 218.847296 213.279683 
L 218.847296 209.447287 
L 219.216132 209.447287 
L 219.216132 205.614891 
L 219.359178 205.614891 
L 219.451869 197.950099 
L 219.698623 197.950099 
L 219.698623 194.117703 
L 220.643241 194.117703 
L 220.643241 190.285307 
L 220.906652 190.285307 
L 220.906652 186.452911 
L 221.230796 186.452911 
L 221.230796 182.620515 
L 221.483996 182.620515 
L 221.483996 178.788119 
L 221.966119 178.788119 
L 221.966119 174.955723 
L 222.207085 174.955723 
L 222.280841 167.290931 
L 222.492894 167.290931 
L 222.492894 163.458535 
L 222.733991 163.458535 
L 222.733991 159.626139 
L 222.991873 159.626139 
L 223.081928 151.961347 
L 223.112536 151.961347 
L 223.112536 148.12895 
L 223.812176 148.12895 
L 223.812176 144.296554 
L 224.25147 144.296554 
L 224.350182 132.799366 
L 225.325437 132.799366 
L 225.325437 128.96697 
L 225.62946 128.96697 
L 225.62946 125.134574 
L 226.214885 125.134574 
L 226.291901 117.469782 
L 226.33854 117.469782 
L 226.351124 109.80499 
L 227.587962 109.80499 
L 227.587962 105.972594 
L 227.847921 105.972594 
L 227.847921 102.140198 
L 228.073211 102.140198 
L 228.073211 98.307802 
L 228.423099 98.307802 
L 228.423099 94.475406 
L 228.563294 94.475406 
L 228.563294 90.64301 
L 229.300366 90.64301 
L 229.300366 86.810614 
L 229.54458 86.810614 
L 229.580392 79.145822 
L 230.991577 79.145822 
L 230.996908 71.48103 
L 231.92521 71.48103 
L 231.92521 67.648634 
L 233.206608 67.648634 
L 233.206608 63.816238 
L 233.64625 63.816238 
L 233.64625 59.983842 
L 234.089647 59.983842 
L 234.089647 56.151446 
L 234.419909 56.151446 
L 234.419909 52.31905 
L 235.53802 52.31905 
L 235.53802 48.486653 
L 237.230077 48.486653 
L 237.230077 44.654257 
L 237.872117 44.654257 
L 237.872117 40.821861 
L 238.026118 40.821861 
L 238.026118 36.989465 
L 239.471907 36.989465 
L 239.471907 33.157069 
L 241.018497 33.157069 
L 241.018497 29.324673 
L 241.169398 29.324673 
L 241.169398 25.492277 
L 241.365724 25.492277 
L 241.365724 21.659881 
L 241.799345 21.659881 
L 241.799345 17.827485 
L 242.496764 17.827485 
L 242.496764 13.995089 
L 243.226531 13.995089 
L 243.226531 10.162693 
L 243.583081 10.162693 
L 243.583081 6.330297 
L 243.583081 6.330297 
L 460.8 6.330297 
L 460.8 6.330297 
" clip-path="url(#p8f1df7d22c)" style="fill: none; stroke: #bf00bf; stroke-width: 1.5; stroke-linecap: square"/>
   </g>
   <g id="line2d_24">
    <path d="M 205.127755 293.76 
L 205.127785 286.095208 
L 205.280324 286.095208 
L 205.280324 282.262812 
L 207.564395 282.262812 
L 207.662223 274.59802 
L 208.587891 274.59802 
L 208.587891 270.765624 
L 208.732447 270.765624 
L 208.732447 266.933228 
L 209.459259 266.933228 
L 209.459259 263.100832 
L 210.197624 263.100832 
L 210.222212 251.603644 
L 210.986307 251.603644 
L 210.986307 247.771248 
L 211.139844 247.771248 
L 211.208218 240.106455 
L 211.465881 240.106455 
L 211.551459 232.441663 
L 211.618945 232.441663 
L 211.621059 224.776871 
L 212.101011 224.776871 
L 212.204255 217.112079 
L 212.689132 217.112079 
L 212.78347 209.447287 
L 213.232452 209.447287 
L 213.232452 205.614891 
L 213.366757 205.614891 
L 213.366757 201.782495 
L 214.024854 201.782495 
L 214.024854 197.950099 
L 214.67174 197.950099 
L 214.67174 194.117703 
L 215.53545 194.117703 
L 215.53545 190.285307 
L 216.338755 190.285307 
L 216.338755 186.452911 
L 216.948679 186.452911 
L 216.948679 182.620515 
L 217.328735 182.620515 
L 217.328735 178.788119 
L 219.113075 178.788119 
L 219.217822 167.290931 
L 219.323352 167.290931 
L 219.323352 163.458535 
L 219.698623 163.458535 
L 219.698623 159.626139 
L 220.78442 159.626139 
L 220.78442 155.793743 
L 221.230796 155.793743 
L 221.230796 151.961347 
L 221.483996 151.961347 
L 221.483996 148.12895 
L 221.966119 148.12895 
L 221.995721 140.464158 
L 222.280841 140.464158 
L 222.280841 136.631762 
L 222.446702 136.631762 
L 222.506496 128.96697 
L 222.799217 128.96697 
L 222.799217 125.134574 
L 222.991873 125.134574 
L 222.991873 121.302178 
L 223.943115 121.302178 
L 223.943115 117.469782 
L 224.062683 117.469782 
L 224.062683 113.637386 
L 224.25147 113.637386 
L 224.25147 109.80499 
L 224.417833 109.80499 
L 224.417833 105.972594 
L 224.971448 105.972594 
L 224.971448 102.140198 
L 225.567689 102.140198 
L 225.62946 94.475406 
L 225.994297 94.475406 
L 225.99478 86.810614 
L 226.958288 86.810614 
L 226.958288 82.978218 
L 227.768469 82.978218 
L 227.768469 79.145822 
L 228.275422 79.145822 
L 228.275422 75.313426 
L 229.215057 75.313426 
L 229.215057 71.48103 
L 229.830951 71.48103 
L 229.830951 67.648634 
L 230.968271 67.648634 
L 231.043937 56.151446 
L 233.206608 56.151446 
L 233.206608 52.31905 
L 234.089647 52.31905 
L 234.089647 48.486653 
L 234.419909 48.486653 
L 234.419909 44.654257 
L 235.53802 44.654257 
L 235.53802 40.821861 
L 236.292285 40.821861 
L 236.292285 36.989465 
L 236.693096 36.989465 
L 236.693096 33.157069 
L 237.157988 33.157069 
L 237.260281 25.492277 
L 239.200259 25.492277 
L 239.200259 21.659881 
L 239.471907 21.659881 
L 239.471907 17.827485 
L 240.434984 17.827485 
L 240.434984 13.995089 
L 240.555441 13.995089 
L 240.637614 6.330297 
L 240.637614 6.330297 
L 460.8 6.330297 
L 460.8 6.330297 
" clip-path="url(#p8f1df7d22c)" style="fill: none; stroke: #000000; stroke-width: 1.5; stroke-linecap: square"/>
   </g>
   <g id="line2d_25">
    <path d="M 193.668541 293.76 
L 193.668541 289.927604 
L 196.294009 289.927604 
L 196.294009 286.095208 
L 197.195157 286.095208 
L 197.195157 282.262812 
L 197.882865 282.262812 
L 197.882865 278.430416 
L 198.314622 278.430416 
L 198.314622 274.59802 
L 198.954404 274.59802 
L 198.954404 270.765624 
L 199.831706 270.765624 
L 199.935707 259.268436 
L 201.099858 259.268436 
L 201.099858 255.43604 
L 201.297088 255.43604 
L 201.297088 251.603644 
L 201.850584 251.603644 
L 201.902827 240.106455 
L 202.093241 240.106455 
L 202.093241 236.274059 
L 203.363284 236.274059 
L 203.363284 232.441663 
L 203.526785 232.441663 
L 203.526785 228.609267 
L 203.639346 228.609267 
L 203.639346 224.776871 
L 204.289993 224.776871 
L 204.289993 220.944475 
L 204.839827 220.944475 
L 204.839827 217.112079 
L 205.857606 217.112079 
L 205.966587 209.447287 
L 206.034498 209.447287 
L 206.034498 205.614891 
L 206.467594 205.614891 
L 206.467594 201.782495 
L 206.634803 201.782495 
L 206.634803 197.950099 
L 206.840096 197.950099 
L 206.840096 194.117703 
L 206.993353 194.117703 
L 207.047602 186.452911 
L 207.352491 186.452911 
L 207.362201 178.788119 
L 207.564395 178.788119 
L 207.564395 174.955723 
L 208.674122 174.955723 
L 208.674122 171.123327 
L 208.978797 171.123327 
L 208.978797 167.290931 
L 210.212406 167.290931 
L 210.212406 163.458535 
L 211.691571 163.458535 
L 211.72472 155.793743 
L 213.289392 155.793743 
L 213.289392 151.961347 
L 213.401997 151.961347 
L 213.401997 148.12895 
L 213.55735 148.12895 
L 213.55735 144.296554 
L 215.137435 144.296554 
L 215.137435 140.464158 
L 215.62979 140.464158 
L 215.62979 136.631762 
L 216.220586 136.631762 
L 216.313514 128.96697 
L 216.338755 128.96697 
L 216.338755 125.134574 
L 216.896126 125.134574 
L 216.896126 121.302178 
L 218.154169 121.302178 
L 218.228779 113.637386 
L 219.158539 113.637386 
L 219.260787 102.140198 
L 219.394515 102.140198 
L 219.496475 94.475406 
L 219.514519 94.475406 
L 219.514519 90.64301 
L 219.698623 90.64301 
L 219.804465 82.978218 
L 220.2872 82.978218 
L 220.390308 71.48103 
L 222.391575 71.48103 
L 222.391575 67.648634 
L 223.58462 67.648634 
L 223.58462 63.816238 
L 223.861573 63.816238 
L 223.861573 59.983842 
L 225.491342 59.983842 
L 225.491342 56.151446 
L 226.513005 56.151446 
L 226.623046 48.486653 
L 227.524344 48.486653 
L 227.524344 44.654257 
L 227.976057 44.654257 
L 227.976057 40.821861 
L 229.076395 40.821861 
L 229.076395 36.989465 
L 229.586723 36.989465 
L 229.586723 33.157069 
L 229.789418 33.157069 
L 229.789418 29.324673 
L 230.59776 29.324673 
L 230.59776 25.492277 
L 230.81741 25.492277 
L 230.81741 21.659881 
L 231.008322 21.659881 
L 231.008322 17.827485 
L 232.204744 17.827485 
L 232.204744 13.995089 
L 233.197717 13.995089 
L 233.197717 10.162693 
L 233.739872 10.162693 
L 233.739872 6.330297 
L 233.739872 6.330297 
L 460.8 6.330297 
L 460.8 6.330297 
" clip-path="url(#p8f1df7d22c)" style="fill: none; stroke: #00bfbf; stroke-width: 1.5; stroke-linecap: square"/>
   </g>
   <g id="line2d_26">
    <path d="M 160.31751 293.76 
L 160.31751 289.927604 
L 179.670012 289.927604 
L 179.670012 286.095208 
L 181.622531 286.095208 
L 181.622531 282.262812 
L 182.419414 282.262812 
L 182.419414 278.430416 
L 183.004055 278.430416 
L 183.004055 274.59802 
L 183.401562 274.59802 
L 183.401562 270.765624 
L 185.24497 270.765624 
L 185.24497 266.933228 
L 186.092946 266.933228 
L 186.092946 263.100832 
L 186.745007 263.100832 
L 186.745007 259.268436 
L 186.863497 259.268436 
L 186.863497 255.43604 
L 187.853045 255.43604 
L 187.853045 251.603644 
L 187.966364 251.603644 
L 187.972119 243.938851 
L 188.485553 243.938851 
L 188.485553 240.106455 
L 188.638921 240.106455 
L 188.638921 236.274059 
L 189.148033 236.274059 
L 189.148033 232.441663 
L 189.422565 232.441663 
L 189.484936 224.776871 
L 189.631008 224.776871 
L 189.631008 220.944475 
L 189.749194 220.944475 
L 189.749194 217.112079 
L 190.326435 217.112079 
L 190.431706 209.447287 
L 190.778329 209.447287 
L 190.778329 205.614891 
L 191.146586 205.614891 
L 191.146586 201.782495 
L 191.493305 201.782495 
L 191.493305 197.950099 
L 191.730265 197.950099 
L 191.820936 190.285307 
L 192.449426 190.285307 
L 192.449426 186.452911 
L 192.879291 186.452911 
L 192.879291 182.620515 
L 193.082887 182.620515 
L 193.082887 178.788119 
L 193.768743 178.788119 
L 193.856165 171.123327 
L 194.429539 171.123327 
L 194.429539 167.290931 
L 196.050727 167.290931 
L 196.050727 163.458535 
L 196.584794 163.458535 
L 196.584794 159.626139 
L 196.699447 159.626139 
L 196.699447 155.793743 
L 196.965534 155.793743 
L 196.965534 151.961347 
L 197.331373 151.961347 
L 197.331373 148.12895 
L 198.246476 148.12895 
L 198.246476 144.296554 
L 200.067158 144.296554 
L 200.067158 140.464158 
L 200.218835 140.464158 
L 200.218835 136.631762 
L 200.506358 136.631762 
L 200.506358 132.799366 
L 201.614725 132.799366 
L 201.614725 128.96697 
L 201.745727 128.96697 
L 201.748563 121.302178 
L 201.86179 121.302178 
L 201.86179 117.469782 
L 202.242326 117.469782 
L 202.242326 113.637386 
L 202.579168 113.637386 
L 202.579168 109.80499 
L 203.725038 109.80499 
L 203.725038 105.972594 
L 204.16338 105.972594 
L 204.16338 102.140198 
L 204.395465 102.140198 
L 204.395465 98.307802 
L 204.7555 98.307802 
L 204.7555 94.475406 
L 205.347945 94.475406 
L 205.347945 90.64301 
L 205.548227 90.64301 
L 205.548227 86.810614 
L 206.213656 86.810614 
L 206.213656 82.978218 
L 206.430173 82.978218 
L 206.439295 75.313426 
L 207.975789 75.313426 
L 207.975789 71.48103 
L 208.507108 71.48103 
L 208.507108 67.648634 
L 209.437737 67.648634 
L 209.437737 63.816238 
L 210.192302 63.816238 
L 210.192302 59.983842 
L 210.467865 59.983842 
L 210.548357 52.31905 
L 211.013117 52.31905 
L 211.013117 48.486653 
L 211.435388 48.486653 
L 211.506798 40.821861 
L 212.895373 40.821861 
L 212.895373 36.989465 
L 215.660933 36.989465 
L 215.660933 33.157069 
L 215.99029 33.157069 
L 215.99029 29.324673 
L 217.589926 29.324673 
L 217.589926 25.492277 
L 219.245436 25.492277 
L 219.245436 21.659881 
L 219.517948 21.659881 
L 219.517948 17.827485 
L 223.268093 17.827485 
L 223.268093 13.995089 
L 223.485604 13.995089 
L 223.485604 10.162693 
L 224.960801 10.162693 
L 224.960801 6.330297 
L 224.960801 6.330297 
L 460.8 6.330297 
L 460.8 6.330297 
" clip-path="url(#p8f1df7d22c)" style="fill: none; stroke: #bf00bf; stroke-width: 1.5; stroke-linecap: square"/>
   </g>
   <g id="line2d_27">
    <path d="M 142.92788 293.76 
L 142.92788 289.927604 
L 147.521121 289.927604 
L 147.521121 286.095208 
L 148.018865 286.095208 
L 148.018865 282.262812 
L 152.401914 282.262812 
L 152.401914 278.430416 
L 157.305817 278.430416 
L 157.305817 274.59802 
L 164.535383 274.59802 
L 164.535383 270.765624 
L 167.435271 270.765624 
L 167.435271 266.933228 
L 170.099797 266.933228 
L 170.099797 263.100832 
L 171.540559 263.100832 
L 171.540559 259.268436 
L 172.10347 259.268436 
L 172.10347 255.43604 
L 172.261534 255.43604 
L 172.261534 251.603644 
L 173.175359 251.603644 
L 173.175359 247.771248 
L 173.631086 247.771248 
L 173.631086 243.938851 
L 174.264248 243.938851 
L 174.264248 240.106455 
L 174.812554 240.106455 
L 174.812554 236.274059 
L 175.278541 236.274059 
L 175.278541 232.441663 
L 175.472833 232.441663 
L 175.472833 228.609267 
L 175.613887 228.609267 
L 175.613887 224.776871 
L 175.836017 224.776871 
L 175.946516 217.112079 
L 176.633592 217.112079 
L 176.633592 213.279683 
L 177.04028 213.279683 
L 177.04028 209.447287 
L 177.460544 209.447287 
L 177.460544 205.614891 
L 178.004565 205.614891 
L 178.034666 194.117703 
L 178.126164 194.117703 
L 178.126164 190.285307 
L 179.580661 190.285307 
L 179.580661 186.452911 
L 179.732895 186.452911 
L 179.732895 182.620515 
L 179.913648 182.620515 
L 179.913648 178.788119 
L 180.088115 178.788119 
L 180.088115 174.955723 
L 180.721211 174.955723 
L 180.721211 171.123327 
L 180.945664 171.123327 
L 180.945664 167.290931 
L 181.595189 167.290931 
L 181.595189 163.458535 
L 181.956048 163.458535 
L 181.956048 159.626139 
L 183.085853 159.626139 
L 183.085853 155.793743 
L 183.728367 155.793743 
L 183.728367 151.961347 
L 184.122136 151.961347 
L 184.122136 148.12895 
L 184.347318 148.12895 
L 184.431197 140.464158 
L 184.600092 140.464158 
L 184.676394 132.799366 
L 185.254701 132.799366 
L 185.254701 128.96697 
L 186.337913 128.96697 
L 186.337913 125.134574 
L 187.324701 125.134574 
L 187.324701 121.302178 
L 187.548362 121.302178 
L 187.548362 117.469782 
L 187.972119 117.469782 
L 187.972119 113.637386 
L 188.969373 113.637386 
L 189.056795 105.972594 
L 189.573421 105.972594 
L 189.573421 102.140198 
L 191.897973 102.140198 
L 191.897973 98.307802 
L 192.449426 98.307802 
L 192.449426 94.475406 
L 192.952537 94.475406 
L 192.99746 86.810614 
L 194.375823 86.810614 
L 194.441909 79.145822 
L 198.505031 79.145822 
L 198.505031 75.313426 
L 200.040885 75.313426 
L 200.067158 67.648634 
L 200.238762 67.648634 
L 200.238762 63.816238 
L 201.435334 63.816238 
L 201.435334 59.983842 
L 201.731269 59.983842 
L 201.731269 56.151446 
L 203.946799 56.151446 
L 203.946799 52.31905 
L 204.22221 52.31905 
L 204.22221 48.486653 
L 207.12565 48.486653 
L 207.125797 33.157069 
L 208.48465 33.157069 
L 208.48465 29.324673 
L 209.41285 29.324673 
L 209.41285 25.492277 
L 210.755662 25.492277 
L 210.755665 17.827485 
L 212.292802 17.827485 
L 212.292802 13.995089 
L 216.737771 13.995089 
L 216.737771 10.162693 
L 217.913131 10.162693 
L 217.913131 6.330297 
L 217.913131 6.330297 
L 460.8 6.330297 
L 460.8 6.330297 
" clip-path="url(#p8f1df7d22c)" style="fill: none; stroke: #000000; stroke-width: 1.5; stroke-linecap: square"/>
   </g>
   <g id="patch_3">
    <path d="M 0 293.76 
L 0 3.456 
" style="fill: none; stroke: #000000; stroke-width: 0.8; stroke-linejoin: miter; stroke-linecap: square"/>
   </g>
   <g id="patch_4">
    <path d="M 460.8 293.76 
L 460.8 3.456 
" style="fill: none; stroke: #000000; stroke-width: 0.8; stroke-linejoin: miter; stroke-linecap: square"/>
   </g>
   <g id="patch_5">
    <path d="M 0 293.76 
L 460.8 293.76 
" style="fill: none; stroke: #000000; stroke-width: 0.8; stroke-linejoin: miter; stroke-linecap: square"/>
   </g>
   <g id="patch_6">
    <path d="M 0 3.456 
L 460.8 3.456 
" style="fill: none; stroke: #000000; stroke-width: 0.8; stroke-linejoin: miter; stroke-linecap: square"/>
   </g>
   <g id="text_6">
    <!-- {f15-f19}, 5-D -->
    <g transform="translate(305.884 287.95392) scale(0.2 -0.2)">
     <defs>
      <path id="DejaVuSans-7b" d="M 3272 -594 
L 3272 -1044 
L 3078 -1044 
Q 2300 -1044 2036 -812 
Q 1772 -581 1772 109 
L 1772 856 
Q 1772 1328 1603 1509 
Q 1434 1691 991 1691 
L 800 1691 
L 800 2138 
L 991 2138 
Q 1438 2138 1605 2317 
Q 1772 2497 1772 2963 
L 1772 3713 
Q 1772 4403 2036 4633 
Q 2300 4863 3078 4863 
L 3272 4863 
L 3272 4416 
L 3059 4416 
Q 2619 4416 2484 4278 
Q 2350 4141 2350 3700 
L 2350 2925 
Q 2350 2434 2208 2212 
Q 2066 1991 1722 1913 
Q 2069 1828 2209 1606 
Q 2350 1384 2350 897 
L 2350 122 
Q 2350 -319 2484 -456 
Q 2619 -594 3059 -594 
L 3272 -594 
z
" transform="scale(0.015625)"/>
      <path id="DejaVuSans-35" d="M 691 4666 
L 3169 4666 
L 3169 4134 
L 1269 4134 
L 1269 2991 
Q 1406 3038 1543 3061 
Q 1681 3084 1819 3084 
Q 2600 3084 3056 2656 
Q 3513 2228 3513 1497 
Q 3513 744 3044 326 
Q 2575 -91 1722 -91 
Q 1428 -91 1123 -41 
Q 819 9 494 109 
L 494 744 
Q 775 591 1075 516 
Q 1375 441 1709 441 
Q 2250 441 2565 725 
Q 2881 1009 2881 1497 
Q 2881 1984 2565 2268 
Q 2250 2553 1709 2553 
Q 1456 2553 1204 2497 
Q 953 2441 691 2322 
L 691 4666 
z
" transform="scale(0.015625)"/>
      <path id="DejaVuSans-39" d="M 703 97 
L 703 672 
Q 941 559 1184 500 
Q 1428 441 1663 441 
Q 2288 441 2617 861 
Q 2947 1281 2994 2138 
Q 2813 1869 2534 1725 
Q 2256 1581 1919 1581 
Q 1219 1581 811 2004 
Q 403 2428 403 3163 
Q 403 3881 828 4315 
Q 1253 4750 1959 4750 
Q 2769 4750 3195 4129 
Q 3622 3509 3622 2328 
Q 3622 1225 3098 567 
Q 2575 -91 1691 -91 
Q 1453 -91 1209 -44 
Q 966 3 703 97 
z
M 1959 2075 
Q 2384 2075 2632 2365 
Q 2881 2656 2881 3163 
Q 2881 3666 2632 3958 
Q 2384 4250 1959 4250 
Q 1534 4250 1286 3958 
Q 1038 3666 1038 3163 
Q 1038 2656 1286 2365 
Q 1534 2075 1959 2075 
z
" transform="scale(0.015625)"/>
      <path id="DejaVuSans-7d" d="M 800 -594 
L 1019 -594 
Q 1456 -594 1589 -459 
Q 1722 -325 1722 122 
L 1722 897 
Q 1722 1384 1862 1606 
Q 2003 1828 2350 1913 
Q 2003 1991 1862 2212 
Q 1722 2434 1722 2925 
L 1722 3700 
Q 1722 4144 1589 4280 
Q 1456 4416 1019 4416 
L 800 4416 
L 800 4863 
L 997 4863 
Q 1775 4863 2036 4633 
Q 2297 4403 2297 3713 
L 2297 2963 
Q 2297 2497 2465 2317 
Q 2634 2138 3078 2138 
L 3272 2138 
L 3272 1691 
L 3078 1691 
Q 2634 1691 2465 1509 
Q 2297 1328 2297 856 
L 2297 109 
Q 2297 -581 2036 -812 
Q 1775 -1044 997 -1044 
L 800 -1044 
L 800 -594 
z
" transform="scale(0.015625)"/>
      <path id="DejaVuSans-2c" d="M 750 794 
L 1409 794 
L 1409 256 
L 897 -744 
L 494 -744 
L 750 256 
L 750 794 
z
" transform="scale(0.015625)"/>
     </defs>
     <use xlink:href="#DejaVuSans-7b"/>
     <use xlink:href="#DejaVuSans-66" x="63.623047"/>
     <use xlink:href="#DejaVuSans-31" x="98.828125"/>
     <use xlink:href="#DejaVuSans-35" x="162.451172"/>
     <use xlink:href="#DejaVuSans-2d" x="226.074219"/>
     <use xlink:href="#DejaVuSans-66" x="262.158203"/>
     <use xlink:href="#DejaVuSans-31" x="297.363281"/>
     <use xlink:href="#DejaVuSans-39" x="360.986328"/>
     <use xlink:href="#DejaVuSans-7d" x="424.609375"/>
     <use xlink:href="#DejaVuSans-2c" x="488.232422"/>
     <use xlink:href="#DejaVuSans-20" x="520.019531"/>
     <use xlink:href="#DejaVuSans-35" x="551.806641"/>
     <use xlink:href="#DejaVuSans-2d" x="615.429688"/>
     <use xlink:href="#DejaVuSans-44" x="651.513672"/>
    </g>
   </g>
   <g id="text_7">
    <!-- v2.6.3 -->
    <g style="fill: #808080" transform="translate(214.71875 288.777272) scale(0.1 -0.1)">
     <defs>
      <path id="DejaVuSans-76" d="M 191 3500 
L 800 3500 
L 1894 563 
L 2988 3500 
L 3597 3500 
L 2284 0 
L 1503 0 
L 191 3500 
z
" transform="scale(0.015625)"/>
      <path id="DejaVuSans-32" d="M 1228 531 
L 3431 531 
L 3431 0 
L 469 0 
L 469 531 
Q 828 903 1448 1529 
Q 2069 2156 2228 2338 
Q 2531 2678 2651 2914 
Q 2772 3150 2772 3378 
Q 2772 3750 2511 3984 
Q 2250 4219 1831 4219 
Q 1534 4219 1204 4116 
Q 875 4013 500 3803 
L 500 4441 
Q 881 4594 1212 4672 
Q 1544 4750 1819 4750 
Q 2544 4750 2975 4387 
Q 3406 4025 3406 3419 
Q 3406 3131 3298 2873 
Q 3191 2616 2906 2266 
Q 2828 2175 2409 1742 
Q 1991 1309 1228 531 
z
" transform="scale(0.015625)"/>
      <path id="DejaVuSans-2e" d="M 684 794 
L 1344 794 
L 1344 0 
L 684 0 
L 684 794 
z
" transform="scale(0.015625)"/>
      <path id="DejaVuSans-36" d="M 2113 2584 
Q 1688 2584 1439 2293 
Q 1191 2003 1191 1497 
Q 1191 994 1439 701 
Q 1688 409 2113 409 
Q 2538 409 2786 701 
Q 3034 994 3034 1497 
Q 3034 2003 2786 2293 
Q 2538 2584 2113 2584 
z
M 3366 4563 
L 3366 3988 
Q 3128 4100 2886 4159 
Q 2644 4219 2406 4219 
Q 1781 4219 1451 3797 
Q 1122 3375 1075 2522 
Q 1259 2794 1537 2939 
Q 1816 3084 2150 3084 
Q 2853 3084 3261 2657 
Q 3669 2231 3669 1497 
Q 3669 778 3244 343 
Q 2819 -91 2113 -91 
Q 1303 -91 875 529 
Q 447 1150 447 2328 
Q 447 3434 972 4092 
Q 1497 4750 2381 4750 
Q 2619 4750 2861 4703 
Q 3103 4656 3366 4563 
z
" transform="scale(0.015625)"/>
      <path id="DejaVuSans-33" d="M 2597 2516 
Q 3050 2419 3304 2112 
Q 3559 1806 3559 1356 
Q 3559 666 3084 287 
Q 2609 -91 1734 -91 
Q 1441 -91 1130 -33 
Q 819 25 488 141 
L 488 750 
Q 750 597 1062 519 
Q 1375 441 1716 441 
Q 2309 441 2620 675 
Q 2931 909 2931 1356 
Q 2931 1769 2642 2001 
Q 2353 2234 1838 2234 
L 1294 2234 
L 1294 2753 
L 1863 2753 
Q 2328 2753 2575 2939 
Q 2822 3125 2822 3475 
Q 2822 3834 2567 4026 
Q 2313 4219 1838 4219 
Q 1578 4219 1281 4162 
Q 984 4106 628 3988 
L 628 4550 
Q 988 4650 1302 4700 
Q 1616 4750 1894 4750 
Q 2613 4750 3031 4423 
Q 3450 4097 3450 3541 
Q 3450 3153 3228 2886 
Q 3006 2619 2597 2516 
z
" transform="scale(0.015625)"/>
     </defs>
     <use xlink:href="#DejaVuSans-76"/>
     <use xlink:href="#DejaVuSans-32" x="59.179688"/>
     <use xlink:href="#DejaVuSans-2e" x="122.802734"/>
     <use xlink:href="#DejaVuSans-36" x="154.589844"/>
     <use xlink:href="#DejaVuSans-2e" x="218.212891"/>
     <use xlink:href="#DejaVuSans-33" x="250"/>
    </g>
   </g>
  </g>
 </g>
 <defs>
  <clipPath id="p8f1df7d22c">
   <rect x="0" y="3.456" width="460.8" height="290.304"/>
  </clipPath>
 </defs>
</svg>
