<?xml version="1.0" encoding="utf-8" standalone="no"?>
<!DOCTYPE svg PUBLIC "-//W3C//DTD SVG 1.1//EN"
  "http://www.w3.org/Graphics/SVG/1.1/DTD/svg11.dtd">
<svg xmlns:xlink="http://www.w3.org/1999/xlink" width="460.8pt" height="345.6pt" viewBox="0 0 460.8 345.6" xmlns="http://www.w3.org/2000/svg" version="1.1">
 <metadata>
  <rdf:RDF xmlns:dc="http://purl.org/dc/elements/1.1/" xmlns:cc="http://creativecommons.org/ns#" xmlns:rdf="http://www.w3.org/1999/02/22-rdf-syntax-ns#">
   <cc:Work>
    <dc:type rdf:resource="http://purl.org/dc/dcmitype/StillImage"/>
    <dc:date>2024-06-19T23:15:56.406569</dc:date>
    <dc:format>image/svg+xml</dc:format>
    <dc:creator>
     <cc:Agent>
      <dc:title>Matplotlib v3.7.5, https://matplotlib.org/</dc:title>
     </cc:Agent>
    </dc:creator>
   </cc:Work>
  </rdf:RDF>
 </metadata>
 <defs>
  <style type="text/css">*{stroke-linejoin: round; stroke-linecap: butt}</style>
 </defs>
 <g id="figure_1">
  <g id="patch_1">
   <path d="M 0 345.6 
L 460.8 345.6 
L 460.8 0 
L 0 0 
z
" style="fill: #ffffff"/>
  </g>
  <g id="axes_1">
   <g id="patch_2">
    <path d="M 0 293.76 
L 460.8 293.76 
L 460.8 3.456 
L 0 3.456 
z
" style="fill: #ffffff"/>
   </g>
   <g id="matplotlib.axis_1">
    <g id="xtick_1">
     <g id="line2d_1">
      <path d="M 101.409188 293.76 
L 101.409188 3.456 
" clip-path="url(#pf412aed9f3)" style="fill: none; stroke: #b0b0b0; stroke-width: 0.8; stroke-linecap: square"/>
     </g>
     <g id="line2d_2">
      <defs>
       <path id="m50df4a322f" d="M 0 0 
L 0 3.5 
" style="stroke: #000000; stroke-width: 0.8"/>
      </defs>
      <g>
       <use xlink:href="#m50df4a322f" x="101.409188" y="293.76" style="stroke: #000000; stroke-width: 0.8"/>
      </g>
     </g>
     <g id="text_1">
      <!-- -4 -->
      <g transform="translate(91.438875 315.956875) scale(0.2 -0.2)">
       <defs>
        <path id="DejaVuSans-2d" d="M 313 2009 
L 1997 2009 
L 1997 1497 
L 313 1497 
L 313 2009 
z
" transform="scale(0.015625)"/>
        <path id="DejaVuSans-34" d="M 2419 4116 
L 825 1625 
L 2419 1625 
L 2419 4116 
z
M 2253 4666 
L 3047 4666 
L 3047 1625 
L 3713 1625 
L 3713 1100 
L 3047 1100 
L 3047 0 
L 2419 0 
L 2419 1100 
L 313 1100 
L 313 1709 
L 2253 4666 
z
" transform="scale(0.015625)"/>
       </defs>
       <use xlink:href="#DejaVuSans-2d"/>
       <use xlink:href="#DejaVuSans-34" x="36.083984"/>
      </g>
     </g>
    </g>
    <g id="xtick_2">
     <g id="line2d_3">
      <path d="M 202.928051 293.76 
L 202.928051 3.456 
" clip-path="url(#pf412aed9f3)" style="fill: none; stroke: #b0b0b0; stroke-width: 0.8; stroke-linecap: square"/>
     </g>
     <g id="line2d_4">
      <g>
       <use xlink:href="#m50df4a322f" x="202.928051" y="293.76" style="stroke: #000000; stroke-width: 0.8"/>
      </g>
     </g>
     <g id="text_2">
      <!-- 0 -->
      <g transform="translate(196.565551 315.956875) scale(0.2 -0.2)">
       <defs>
        <path id="DejaVuSans-30" d="M 2034 4250 
Q 1547 4250 1301 3770 
Q 1056 3291 1056 2328 
Q 1056 1369 1301 889 
Q 1547 409 2034 409 
Q 2525 409 2770 889 
Q 3016 1369 3016 2328 
Q 3016 3291 2770 3770 
Q 2525 4250 2034 4250 
z
M 2034 4750 
Q 2819 4750 3233 4129 
Q 3647 3509 3647 2328 
Q 3647 1150 3233 529 
Q 2819 -91 2034 -91 
Q 1250 -91 836 529 
Q 422 1150 422 2328 
Q 422 3509 836 4129 
Q 1250 4750 2034 4750 
z
" transform="scale(0.015625)"/>
       </defs>
       <use xlink:href="#DejaVuSans-30"/>
      </g>
     </g>
    </g>
    <g id="xtick_3">
     <g id="line2d_5">
      <path d="M 304.446914 293.76 
L 304.446914 3.456 
" clip-path="url(#pf412aed9f3)" style="fill: none; stroke: #b0b0b0; stroke-width: 0.8; stroke-linecap: square"/>
     </g>
     <g id="line2d_6">
      <g>
       <use xlink:href="#m50df4a322f" x="304.446914" y="293.76" style="stroke: #000000; stroke-width: 0.8"/>
      </g>
     </g>
     <g id="text_3">
      <!-- 4 -->
      <g transform="translate(298.084414 315.956875) scale(0.2 -0.2)">
       <use xlink:href="#DejaVuSans-34"/>
      </g>
     </g>
    </g>
    <g id="xtick_4">
     <g id="line2d_7">
      <path d="M 405.965777 293.76 
L 405.965777 3.456 
" clip-path="url(#pf412aed9f3)" style="fill: none; stroke: #b0b0b0; stroke-width: 0.8; stroke-linecap: square"/>
     </g>
     <g id="line2d_8">
      <g>
       <use xlink:href="#m50df4a322f" x="405.965777" y="293.76" style="stroke: #000000; stroke-width: 0.8"/>
      </g>
     </g>
     <g id="text_4">
      <!-- 8 -->
      <g transform="translate(399.603277 315.956875) scale(0.2 -0.2)">
       <defs>
        <path id="DejaVuSans-38" d="M 2034 2216 
Q 1584 2216 1326 1975 
Q 1069 1734 1069 1313 
Q 1069 891 1326 650 
Q 1584 409 2034 409 
Q 2484 409 2743 651 
Q 3003 894 3003 1313 
Q 3003 1734 2745 1975 
Q 2488 2216 2034 2216 
z
M 1403 2484 
Q 997 2584 770 2862 
Q 544 3141 544 3541 
Q 544 4100 942 4425 
Q 1341 4750 2034 4750 
Q 2731 4750 3128 4425 
Q 3525 4100 3525 3541 
Q 3525 3141 3298 2862 
Q 3072 2584 2669 2484 
Q 3125 2378 3379 2068 
Q 3634 1759 3634 1313 
Q 3634 634 3220 271 
Q 2806 -91 2034 -91 
Q 1263 -91 848 271 
Q 434 634 434 1313 
Q 434 1759 690 2068 
Q 947 2378 1403 2484 
z
M 1172 3481 
Q 1172 3119 1398 2916 
Q 1625 2713 2034 2713 
Q 2441 2713 2670 2916 
Q 2900 3119 2900 3481 
Q 2900 3844 2670 4047 
Q 2441 4250 2034 4250 
Q 1625 4250 1398 4047 
Q 1172 3844 1172 3481 
z
" transform="scale(0.015625)"/>
       </defs>
       <use xlink:href="#DejaVuSans-38"/>
      </g>
     </g>
    </g>
    <g id="text_5">
     <!-- log10 of Df -->
     <g transform="translate(175.214063 339.313125) scale(0.2 -0.2)">
      <defs>
       <path id="DejaVuSans-6c" d="M 603 4863 
L 1178 4863 
L 1178 0 
L 603 0 
L 603 4863 
z
" transform="scale(0.015625)"/>
       <path id="DejaVuSans-6f" d="M 1959 3097 
Q 1497 3097 1228 2736 
Q 959 2375 959 1747 
Q 959 1119 1226 758 
Q 1494 397 1959 397 
Q 2419 397 2687 759 
Q 2956 1122 2956 1747 
Q 2956 2369 2687 2733 
Q 2419 3097 1959 3097 
z
M 1959 3584 
Q 2709 3584 3137 3096 
Q 3566 2609 3566 1747 
Q 3566 888 3137 398 
Q 2709 -91 1959 -91 
Q 1206 -91 779 398 
Q 353 888 353 1747 
Q 353 2609 779 3096 
Q 1206 3584 1959 3584 
z
" transform="scale(0.015625)"/>
       <path id="DejaVuSans-67" d="M 2906 1791 
Q 2906 2416 2648 2759 
Q 2391 3103 1925 3103 
Q 1463 3103 1205 2759 
Q 947 2416 947 1791 
Q 947 1169 1205 825 
Q 1463 481 1925 481 
Q 2391 481 2648 825 
Q 2906 1169 2906 1791 
z
M 3481 434 
Q 3481 -459 3084 -895 
Q 2688 -1331 1869 -1331 
Q 1566 -1331 1297 -1286 
Q 1028 -1241 775 -1147 
L 775 -588 
Q 1028 -725 1275 -790 
Q 1522 -856 1778 -856 
Q 2344 -856 2625 -561 
Q 2906 -266 2906 331 
L 2906 616 
Q 2728 306 2450 153 
Q 2172 0 1784 0 
Q 1141 0 747 490 
Q 353 981 353 1791 
Q 353 2603 747 3093 
Q 1141 3584 1784 3584 
Q 2172 3584 2450 3431 
Q 2728 3278 2906 2969 
L 2906 3500 
L 3481 3500 
L 3481 434 
z
" transform="scale(0.015625)"/>
       <path id="DejaVuSans-31" d="M 794 531 
L 1825 531 
L 1825 4091 
L 703 3866 
L 703 4441 
L 1819 4666 
L 2450 4666 
L 2450 531 
L 3481 531 
L 3481 0 
L 794 0 
L 794 531 
z
" transform="scale(0.015625)"/>
       <path id="DejaVuSans-20" transform="scale(0.015625)"/>
       <path id="DejaVuSans-66" d="M 2375 4863 
L 2375 4384 
L 1825 4384 
Q 1516 4384 1395 4259 
Q 1275 4134 1275 3809 
L 1275 3500 
L 2222 3500 
L 2222 3053 
L 1275 3053 
L 1275 0 
L 697 0 
L 697 3053 
L 147 3053 
L 147 3500 
L 697 3500 
L 697 3744 
Q 697 4328 969 4595 
Q 1241 4863 1831 4863 
L 2375 4863 
z
" transform="scale(0.015625)"/>
       <path id="DejaVuSans-44" d="M 1259 4147 
L 1259 519 
L 2022 519 
Q 2988 519 3436 956 
Q 3884 1394 3884 2338 
Q 3884 3275 3436 3711 
Q 2988 4147 2022 4147 
L 1259 4147 
z
M 628 4666 
L 1925 4666 
Q 3281 4666 3915 4102 
Q 4550 3538 4550 2338 
Q 4550 1131 3912 565 
Q 3275 0 1925 0 
L 628 0 
L 628 4666 
z
" transform="scale(0.015625)"/>
      </defs>
      <use xlink:href="#DejaVuSans-6c"/>
      <use xlink:href="#DejaVuSans-6f" x="27.783203"/>
      <use xlink:href="#DejaVuSans-67" x="88.964844"/>
      <use xlink:href="#DejaVuSans-31" x="152.441406"/>
      <use xlink:href="#DejaVuSans-30" x="216.064453"/>
      <use xlink:href="#DejaVuSans-20" x="279.6875"/>
      <use xlink:href="#DejaVuSans-6f" x="311.474609"/>
      <use xlink:href="#DejaVuSans-66" x="372.65625"/>
      <use xlink:href="#DejaVuSans-20" x="407.861328"/>
      <use xlink:href="#DejaVuSans-44" x="439.648438"/>
      <use xlink:href="#DejaVuSans-66" x="516.650391"/>
     </g>
    </g>
   </g>
   <g id="matplotlib.axis_2">
    <g id="ytick_1">
     <g id="line2d_9">
      <path d="M 0 293.76 
L 460.8 293.76 
" clip-path="url(#pf412aed9f3)" style="fill: none; stroke: #b0b0b0; stroke-width: 0.8; stroke-linecap: square"/>
     </g>
     <g id="line2d_10">
      <defs>
       <path id="m8e9600d9ce" d="M 0 0 
L -3.5 0 
" style="stroke: #000000; stroke-width: 0.8"/>
      </defs>
      <g>
       <use xlink:href="#m8e9600d9ce" x="0" y="293.76" style="stroke: #000000; stroke-width: 0.8"/>
      </g>
     </g>
    </g>
    <g id="ytick_2">
     <g id="line2d_11">
      <path d="M 0 236.274059 
L 460.8 236.274059 
" clip-path="url(#pf412aed9f3)" style="fill: none; stroke: #b0b0b0; stroke-width: 0.8; stroke-linecap: square"/>
     </g>
     <g id="line2d_12">
      <g>
       <use xlink:href="#m8e9600d9ce" x="0" y="236.274059" style="stroke: #000000; stroke-width: 0.8"/>
      </g>
     </g>
    </g>
    <g id="ytick_3">
     <g id="line2d_13">
      <path d="M 0 178.788119 
L 460.8 178.788119 
" clip-path="url(#pf412aed9f3)" style="fill: none; stroke: #b0b0b0; stroke-width: 0.8; stroke-linecap: square"/>
     </g>
     <g id="line2d_14">
      <g>
       <use xlink:href="#m8e9600d9ce" x="0" y="178.788119" style="stroke: #000000; stroke-width: 0.8"/>
      </g>
     </g>
    </g>
    <g id="ytick_4">
     <g id="line2d_15">
      <path d="M 0 121.302178 
L 460.8 121.302178 
" clip-path="url(#pf412aed9f3)" style="fill: none; stroke: #b0b0b0; stroke-width: 0.8; stroke-linecap: square"/>
     </g>
     <g id="line2d_16">
      <g>
       <use xlink:href="#m8e9600d9ce" x="0" y="121.302178" style="stroke: #000000; stroke-width: 0.8"/>
      </g>
     </g>
    </g>
    <g id="ytick_5">
     <g id="line2d_17">
      <path d="M 0 63.816238 
L 460.8 63.816238 
" clip-path="url(#pf412aed9f3)" style="fill: none; stroke: #b0b0b0; stroke-width: 0.8; stroke-linecap: square"/>
     </g>
     <g id="line2d_18">
      <g>
       <use xlink:href="#m8e9600d9ce" x="0" y="63.816238" style="stroke: #000000; stroke-width: 0.8"/>
      </g>
     </g>
    </g>
    <g id="ytick_6">
     <g id="line2d_19">
      <path d="M 0 6.330297 
L 460.8 6.330297 
" clip-path="url(#pf412aed9f3)" style="fill: none; stroke: #b0b0b0; stroke-width: 0.8; stroke-linecap: square"/>
     </g>
     <g id="line2d_20">
      <g>
       <use xlink:href="#m8e9600d9ce" x="0" y="6.330297" style="stroke: #000000; stroke-width: 0.8"/>
      </g>
     </g>
    </g>
   </g>
   <g id="line2d_21">
    <path d="M -1 178.788119 
L -0.109675 178.788119 
L -0.109675 121.302178 
L 222.621618 121.302178 
L 222.621618 117.469782 
L 227.090751 117.469782 
L 227.090751 113.637386 
L 229.302598 113.637386 
L 229.302598 109.80499 
L 230.271285 109.80499 
L 230.271285 105.972594 
L 231.960747 105.972594 
L 231.960747 102.140198 
L 232.721202 102.140198 
L 232.721202 98.307802 
L 233.432564 98.307802 
L 233.432564 90.64301 
L 234.100785 90.64301 
L 234.100785 86.810614 
L 234.730801 86.810614 
L 234.730801 82.978218 
L 235.892111 82.978218 
L 235.892111 79.145822 
L 236.429892 79.145822 
L 236.429892 75.313426 
L 236.942646 75.313426 
L 236.942646 71.48103 
L 237.432603 71.48103 
L 237.432603 67.648634 
L 237.90171 67.648634 
L 237.901712 59.983842 
L 238.353875 59.983842 
L 238.353875 56.151446 
L 238.783963 56.151446 
L 238.783963 52.31905 
L 239.199937 52.31905 
L 239.199945 44.654257 
L 239.600783 44.654257 
L 239.600799 33.157069 
L 240.722675 33.157069 
L 240.722675 29.324673 
L 241.072611 29.324673 
L 241.072611 25.492277 
L 241.411785 25.492277 
L 241.411785 21.659881 
L 242.672847 21.659881 
L 242.672847 17.827485 
L 243.532164 17.827485 
L 243.532164 13.995089 
L 244.582674 13.995089 
L 244.582689 6.330297 
L 244.582689 6.330297 
L 460.8 6.330297 
L 460.8 6.330297 
" clip-path="url(#pf412aed9f3)" style="fill: none; stroke: #ff0000; stroke-width: 3; stroke-linecap: square"/>
   </g>
   <g id="line2d_22">
    <path d="M 253.398403 293.76 
L 253.398403 289.927604 
L 258.084576 289.927604 
L 258.084576 286.095208 
L 258.774808 286.095208 
L 258.774808 282.262812 
L 260.103661 282.262812 
L 260.103661 278.430416 
L 260.218345 278.430416 
L 260.218345 274.59802 
L 260.626627 274.59802 
L 260.656701 266.933228 
L 261.56867 266.933228 
L 261.619392 259.268436 
L 262.192899 259.268436 
L 262.192899 255.43604 
L 262.37809 255.43604 
L 262.37809 251.603644 
L 262.962013 251.603644 
L 262.962013 247.771248 
L 263.261311 247.771248 
L 263.261311 243.938851 
L 264.155335 243.938851 
L 264.155335 240.106455 
L 264.347759 240.106455 
L 264.347759 236.274059 
L 264.62922 236.274059 
L 264.690166 228.609267 
L 265.142448 228.609267 
L 265.252163 220.944475 
L 265.486987 220.944475 
L 265.52561 213.279683 
L 265.789053 213.279683 
L 265.789053 209.447287 
L 266.019373 209.447287 
L 266.019373 205.614891 
L 266.419348 205.614891 
L 266.439845 197.950099 
L 266.637126 197.950099 
L 266.649125 190.285307 
L 266.811288 190.285307 
L 266.811288 186.452911 
L 267.640986 186.452911 
L 267.640986 182.620515 
L 267.858227 182.620515 
L 267.858227 178.788119 
L 275.885355 178.788119 
L 275.910382 171.123327 
L 276.672294 171.123327 
L 276.685154 163.458535 
L 278.73295 163.458535 
L 278.73295 159.626139 
L 279.361599 159.626139 
L 279.361599 155.793743 
L 279.567481 155.793743 
L 279.567481 151.961347 
L 280.302064 151.961347 
L 280.302064 148.12895 
L 280.816718 148.12895 
L 280.816718 144.296554 
L 281.701104 144.296554 
L 281.701104 140.464158 
L 281.894869 140.464158 
L 281.966574 132.799366 
L 282.173579 132.799366 
L 282.173579 128.96697 
L 282.507977 128.96697 
L 282.507977 125.134574 
L 283.043224 125.134574 
L 283.043224 121.302178 
L 283.287109 121.302178 
L 283.287109 117.469782 
L 284.001001 117.469782 
L 284.001001 113.637386 
L 284.177215 113.637386 
L 284.177215 109.80499 
L 284.893221 109.80499 
L 284.893221 105.972594 
L 285.351377 105.972594 
L 285.351377 102.140198 
L 286.198611 102.140198 
L 286.224372 94.475406 
L 286.789583 94.475406 
L 286.789583 90.64301 
L 287.592416 90.64301 
L 287.592416 86.810614 
L 288.409731 86.810614 
L 288.409731 82.978218 
L 288.59568 82.978218 
L 288.59568 79.145822 
L 288.894235 79.145822 
L 288.963347 71.48103 
L 289.551127 71.48103 
L 289.551127 67.648634 
L 293.773751 67.648634 
L 293.773751 63.816238 
L 364.766255 63.816238 
L 364.766255 59.983842 
L 371.706588 59.983842 
L 371.706588 56.151446 
L 372.13481 56.151446 
L 372.13481 52.31905 
L 372.93174 52.31905 
L 372.93174 48.486653 
L 373.531566 48.486653 
L 373.542712 40.821861 
L 375.971364 40.821861 
L 376.020267 33.157069 
L 376.863851 33.157069 
L 376.899026 25.492277 
L 377.963236 25.492277 
L 377.963236 21.659881 
L 378.591844 21.659881 
L 378.591844 17.827485 
L 378.92881 17.827485 
L 378.92881 13.995089 
L 379.434834 13.995089 
L 379.434834 10.162693 
L 380.546274 10.162693 
L 380.546274 6.330297 
L 380.546274 6.330297 
L 460.8 6.330297 
L 460.8 6.330297 
" clip-path="url(#pf412aed9f3)" style="fill: none; stroke: #00bfbf; stroke-width: 1.5; stroke-linecap: square"/>
   </g>
   <g id="line2d_23">
    <path d="M 253.328423 293.76 
L 253.328423 289.927604 
L 254.618968 289.927604 
L 254.618968 286.095208 
L 255.682646 286.095208 
L 255.682646 282.262812 
L 255.856987 282.262812 
L 255.856987 278.430416 
L 257.538216 278.430416 
L 257.640667 270.765624 
L 257.808845 270.765624 
L 257.818378 263.100832 
L 258.065342 263.100832 
L 258.084576 255.43604 
L 258.774808 255.43604 
L 258.791286 247.771248 
L 260.726098 247.771248 
L 260.726098 243.938851 
L 261.017794 243.938851 
L 261.017794 240.106455 
L 261.622186 240.106455 
L 261.661556 232.441663 
L 262.063516 232.441663 
L 262.079546 224.776871 
L 262.255581 224.776871 
L 262.255581 220.944475 
L 262.414286 220.944475 
L 262.414286 217.112079 
L 262.854803 217.112079 
L 262.903406 209.447287 
L 263.448747 209.447287 
L 263.448747 205.614891 
L 263.589151 205.614891 
L 263.589692 197.950099 
L 263.792821 197.950099 
L 263.792821 194.117703 
L 264.358169 194.117703 
L 264.358169 190.285307 
L 264.789868 190.285307 
L 264.789868 186.452911 
L 265.10291 186.452911 
L 265.10291 182.620515 
L 266.082295 182.620515 
L 266.082295 178.788119 
L 271.108201 178.788119 
L 271.108201 174.955723 
L 273.641595 174.955723 
L 273.641595 171.123327 
L 274.735618 171.123327 
L 274.735618 167.290931 
L 275.885355 167.290931 
L 275.916212 155.793743 
L 276.380734 155.793743 
L 276.380734 151.961347 
L 276.672294 151.961347 
L 276.685154 144.296554 
L 276.825824 144.296554 
L 276.825824 140.464158 
L 277.021561 140.464158 
L 277.021561 136.631762 
L 278.540339 136.631762 
L 278.540339 132.799366 
L 279.567481 132.799366 
L 279.567481 128.96697 
L 279.736144 128.96697 
L 279.736144 125.134574 
L 279.930422 125.134574 
L 280.018084 117.469782 
L 280.302064 117.469782 
L 280.373716 109.80499 
L 281.966574 109.80499 
L 281.966574 105.972594 
L 283.287109 105.972594 
L 283.287109 102.140198 
L 284.001001 102.140198 
L 284.001001 98.307802 
L 284.177215 98.307802 
L 284.205214 90.64301 
L 284.700026 90.64301 
L 284.700026 86.810614 
L 285.351377 86.810614 
L 285.351377 82.978218 
L 285.664586 82.978218 
L 285.664586 79.145822 
L 286.655016 79.145822 
L 286.655016 75.313426 
L 286.789583 75.313426 
L 286.789583 71.48103 
L 287.460399 71.48103 
L 287.460399 67.648634 
L 291.992854 67.648634 
L 291.992854 63.816238 
L 364.766255 63.816238 
L 364.766255 59.983842 
L 367.012605 59.983842 
L 367.012605 56.151446 
L 369.710363 56.151446 
L 369.710363 52.31905 
L 370.024481 52.31905 
L 370.024481 48.486653 
L 370.379064 48.486653 
L 370.379064 44.654257 
L 371.706588 44.654257 
L 371.706588 40.821861 
L 372.13481 40.821861 
L 372.13481 36.989465 
L 372.93174 36.989465 
L 372.93174 33.157069 
L 373.531566 33.157069 
L 373.542712 25.492277 
L 375.933361 25.492277 
L 376.023948 13.995089 
L 376.303976 13.995089 
L 376.303976 10.162693 
L 376.863851 10.162693 
L 376.863851 6.330297 
L 376.863851 6.330297 
L 460.8 6.330297 
L 460.8 6.330297 
" clip-path="url(#pf412aed9f3)" style="fill: none; stroke: #bf00bf; stroke-width: 1.5; stroke-linecap: square"/>
   </g>
   <g id="line2d_24">
    <path d="M 248.707595 293.76 
L 248.707595 289.927604 
L 250.91614 289.927604 
L 250.91614 286.095208 
L 251.120106 286.095208 
L 251.120106 282.262812 
L 251.434465 282.262812 
L 251.434465 278.430416 
L 252.097856 278.430416 
L 252.097856 274.59802 
L 252.320299 274.59802 
L 252.320299 270.765624 
L 253.553272 270.765624 
L 253.638207 263.100832 
L 254.085983 263.100832 
L 254.184971 251.603644 
L 254.223732 251.603644 
L 254.223732 247.771248 
L 254.358531 247.771248 
L 254.447833 236.274059 
L 254.613981 236.274059 
L 254.694513 228.609267 
L 254.734848 228.609267 
L 254.734848 224.776871 
L 255.499817 224.776871 
L 255.509806 217.112079 
L 256.446499 217.112079 
L 256.446499 213.279683 
L 256.938582 213.279683 
L 256.973794 205.614891 
L 257.277587 205.614891 
L 257.277587 201.782495 
L 257.82445 201.782495 
L 257.867732 194.117703 
L 258.600868 194.117703 
L 258.600868 190.285307 
L 259.111223 190.285307 
L 259.111223 186.452911 
L 259.708717 186.452911 
L 259.708717 182.620515 
L 260.993316 182.620515 
L 260.993316 178.788119 
L 268.675752 178.788119 
L 268.675752 174.955723 
L 272.13565 174.955723 
L 272.13565 171.123327 
L 272.77425 171.123327 
L 272.77425 167.290931 
L 273.641595 167.290931 
L 273.641595 163.458535 
L 274.009986 163.458535 
L 274.009986 159.626139 
L 274.283474 159.626139 
L 274.283474 155.793743 
L 274.426398 155.793743 
L 274.426398 151.961347 
L 275.266747 151.961347 
L 275.369938 144.296554 
L 275.822632 144.296554 
L 275.910382 136.631762 
L 276.672294 136.631762 
L 276.685154 128.96697 
L 277.021561 128.96697 
L 277.021561 125.134574 
L 277.284111 125.134574 
L 277.284111 121.302178 
L 277.802738 121.302178 
L 277.802738 117.469782 
L 278.279522 117.469782 
L 278.279522 113.637386 
L 278.440647 113.637386 
L 278.540339 105.972594 
L 278.833541 105.972594 
L 278.833541 102.140198 
L 279.190465 102.140198 
L 279.190465 98.307802 
L 279.537553 98.307802 
L 279.567481 86.810614 
L 279.792768 86.810614 
L 279.792768 82.978218 
L 280.83393 82.978218 
L 280.83393 79.145822 
L 282.773357 79.145822 
L 282.773357 75.313426 
L 283.287109 75.313426 
L 283.287109 71.48103 
L 283.700549 71.48103 
L 283.700549 67.648634 
L 284.458131 67.648634 
L 284.458131 63.816238 
L 361.058399 63.816238 
L 361.058399 59.983842 
L 362.826347 59.983842 
L 362.826347 56.151446 
L 364.099271 56.151446 
L 364.099271 52.31905 
L 364.766255 52.31905 
L 364.766255 48.486653 
L 365.073205 48.486653 
L 365.073205 44.654257 
L 365.338124 44.654257 
L 365.338124 40.821861 
L 366.486376 40.821861 
L 366.486376 36.989465 
L 367.012605 36.989465 
L 367.012605 33.157069 
L 367.65057 33.157069 
L 367.65057 29.324673 
L 369.710363 29.324673 
L 369.773927 21.659881 
L 369.924026 21.659881 
L 369.924026 17.827485 
L 370.469807 17.827485 
L 370.547958 10.162693 
L 372.13481 10.162693 
L 372.13481 6.330297 
L 372.13481 6.330297 
L 460.8 6.330297 
L 460.8 6.330297 
" clip-path="url(#pf412aed9f3)" style="fill: none; stroke: #000000; stroke-width: 1.5; stroke-linecap: square"/>
   </g>
   <g id="line2d_25">
    <path d="M -0.109675 293.76 
L -0.109675 282.262812 
L 198.102875 282.262812 
L 198.102875 278.430416 
L 208.16203 278.430416 
L 208.16203 274.59802 
L 211.844734 274.59802 
L 211.844734 270.765624 
L 219.104156 270.765624 
L 219.104156 266.933228 
L 219.332719 266.933228 
L 219.332719 263.100832 
L 219.966221 263.100832 
L 219.966221 259.268436 
L 223.463551 259.268436 
L 223.463551 255.43604 
L 227.481522 255.43604 
L 227.481522 251.603644 
L 232.835529 251.603644 
L 232.835529 247.771248 
L 234.134417 247.771248 
L 234.134417 243.938851 
L 235.063158 243.938851 
L 235.066099 236.274059 
L 235.259267 236.274059 
L 235.259267 232.441663 
L 236.77432 232.441663 
L 236.77432 228.609267 
L 237.608602 228.609267 
L 237.608602 224.776871 
L 237.992162 224.776871 
L 237.992162 220.944475 
L 240.148826 220.944475 
L 240.148826 217.112079 
L 240.423065 217.112079 
L 240.525516 209.447287 
L 240.69921 209.447287 
L 240.69921 205.614891 
L 240.991519 205.614891 
L 240.991519 201.782495 
L 241.684459 201.782495 
L 241.684459 197.950099 
L 241.903261 197.950099 
L 241.903261 194.117703 
L 242.163451 194.117703 
L 242.163451 190.285307 
L 242.759717 190.285307 
L 242.759717 186.452911 
L 243.125807 186.452911 
L 243.125807 182.620515 
L 244.144789 182.620515 
L 244.144789 178.788119 
L 264.791066 178.788119 
L 264.880503 171.123327 
L 266.005328 171.123327 
L 266.005328 167.290931 
L 266.618764 167.290931 
L 266.618764 163.458535 
L 267.047396 163.458535 
L 267.047396 159.626139 
L 267.504082 159.626139 
L 267.504082 155.793743 
L 267.687517 155.793743 
L 267.687517 151.961347 
L 268.089351 151.961347 
L 268.089351 148.12895 
L 268.304969 148.12895 
L 268.304969 144.296554 
L 268.450356 144.296554 
L 268.450356 140.464158 
L 268.628872 140.464158 
L 268.691624 128.96697 
L 268.839442 128.96697 
L 268.839442 125.134574 
L 269.347934 125.134574 
L 269.347934 121.302178 
L 269.622778 121.302178 
L 269.622778 117.469782 
L 269.769776 117.469782 
L 269.769776 113.637386 
L 270.322486 113.637386 
L 270.322486 109.80499 
L 270.538158 109.80499 
L 270.644693 102.140198 
L 270.724069 102.140198 
L 270.724069 98.307802 
L 271.315927 98.307802 
L 271.315927 94.475406 
L 271.82063 94.475406 
L 271.82063 90.64301 
L 272.001911 90.64301 
L 272.001911 86.810614 
L 274.718476 86.810614 
L 274.718476 82.978218 
L 274.84406 82.978218 
L 274.84406 79.145822 
L 275.21973 79.145822 
L 275.21973 75.313426 
L 275.847062 75.313426 
L 275.847062 71.48103 
L 276.120033 71.48103 
L 276.120033 67.648634 
L 276.415395 67.648634 
L 276.415395 63.816238 
L 349.078538 63.816238 
L 349.078538 59.983842 
L 354.509923 59.983842 
L 354.509923 56.151446 
L 355.072026 56.151446 
L 355.072026 52.31905 
L 355.232692 52.31905 
L 355.232692 48.486653 
L 355.848351 48.486653 
L 355.848351 44.654257 
L 358.114657 44.654257 
L 358.114657 40.821861 
L 358.518643 40.821861 
L 358.518643 36.989465 
L 359.127841 36.989465 
L 359.127841 33.157069 
L 359.635648 33.157069 
L 359.635648 29.324673 
L 360.403894 29.324673 
L 360.403894 25.492277 
L 361.852684 25.492277 
L 361.852684 21.659881 
L 362.826347 21.659881 
L 362.826347 17.827485 
L 363.221315 17.827485 
L 363.221315 13.995089 
L 364.333993 13.995089 
L 364.333993 10.162693 
L 364.766255 10.162693 
L 364.766255 6.330297 
L 364.766255 6.330297 
L 460.8 6.330297 
L 460.8 6.330297 
" clip-path="url(#pf412aed9f3)" style="fill: none; stroke: #00bfbf; stroke-width: 1.5; stroke-linecap: square"/>
   </g>
   <g id="line2d_26">
    <path d="M -0.109675 293.76 
L -0.109675 236.274059 
L 57.86813 236.274059 
L 57.86813 232.441663 
L 59.061736 232.441663 
L 59.061736 228.609267 
L 60.730636 228.609267 
L 60.730636 224.776871 
L 63.383183 224.776871 
L 63.383183 220.944475 
L 66.717449 220.944475 
L 66.717449 217.112079 
L 67.698193 217.112079 
L 67.698193 213.279683 
L 67.982249 213.279683 
L 67.982249 209.447287 
L 72.161374 209.447287 
L 72.161374 205.614891 
L 73.08479 205.614891 
L 73.08479 201.782495 
L 74.276989 201.782495 
L 74.276989 197.950099 
L 78.08791 197.950099 
L 78.08791 194.117703 
L 80.696577 194.117703 
L 80.696577 190.285307 
L 80.949389 190.285307 
L 80.949389 186.452911 
L 83.298898 186.452911 
L 83.298898 182.620515 
L 88.520739 182.620515 
L 88.520739 178.788119 
L 242.836104 178.788119 
L 242.836104 174.955723 
L 243.082486 174.955723 
L 243.097594 167.290931 
L 243.66192 167.290931 
L 243.721705 159.626139 
L 244.489323 159.626139 
L 244.489323 155.793743 
L 244.654384 155.793743 
L 244.654384 151.961347 
L 245.132621 151.961347 
L 245.21719 136.631762 
L 245.799169 136.631762 
L 245.799169 132.799366 
L 246.105859 132.799366 
L 246.105859 128.96697 
L 246.392061 128.96697 
L 246.392061 125.134574 
L 247.531766 125.134574 
L 247.641882 117.469782 
L 248.373377 117.469782 
L 248.373377 113.637386 
L 248.531428 113.637386 
L 248.531428 109.80499 
L 248.791962 109.80499 
L 248.791962 105.972594 
L 250.850014 105.972594 
L 250.850014 102.140198 
L 251.668799 102.140198 
L 251.668799 98.307802 
L 251.904296 98.307802 
L 252.011401 90.64301 
L 252.699373 90.64301 
L 252.699373 86.810614 
L 253.802725 86.810614 
L 253.802725 82.978218 
L 253.980447 82.978218 
L 253.980447 79.145822 
L 254.711237 79.145822 
L 254.711237 75.313426 
L 255.858236 75.313426 
L 255.858236 71.48103 
L 258.547533 71.48103 
L 258.547533 67.648634 
L 259.284045 67.648634 
L 259.284045 63.816238 
L 293.690045 63.816238 
L 293.690045 59.983842 
L 301.009167 59.983842 
L 301.009167 56.151446 
L 302.758549 56.151446 
L 302.758549 52.31905 
L 305.21814 52.31905 
L 305.21814 48.486653 
L 306.392776 48.486653 
L 306.392776 44.654257 
L 307.874842 44.654257 
L 307.874842 40.821861 
L 308.201673 40.821861 
L 308.201673 36.989465 
L 308.565864 36.989465 
L 308.565864 33.157069 
L 309.892989 33.157069 
L 309.892989 29.324673 
L 310.424646 29.324673 
L 310.424646 25.492277 
L 310.688872 25.492277 
L 310.688872 21.659881 
L 315.124207 21.659881 
L 315.124207 17.827485 
L 316.474568 17.827485 
L 316.474568 13.995089 
L 318.26343 13.995089 
L 318.26343 10.162693 
L 328.554061 10.162693 
L 328.554061 6.330297 
L 328.554061 6.330297 
L 460.8 6.330297 
L 460.8 6.330297 
" clip-path="url(#pf412aed9f3)" style="fill: none; stroke: #bf00bf; stroke-width: 1.5; stroke-linecap: square"/>
   </g>
   <g id="line2d_27">
    <path d="M -1 178.788119 
L -0.109675 178.788119 
L -0.109675 121.302178 
L 222.621618 121.302178 
L 222.621618 117.469782 
L 227.090751 117.469782 
L 227.090751 113.637386 
L 229.302598 113.637386 
L 229.302598 109.80499 
L 230.271285 109.80499 
L 230.271285 105.972594 
L 231.960747 105.972594 
L 231.960747 102.140198 
L 232.721202 102.140198 
L 232.721202 98.307802 
L 233.432564 98.307802 
L 233.432564 90.64301 
L 234.100785 90.64301 
L 234.100785 86.810614 
L 234.730801 86.810614 
L 234.730801 82.978218 
L 235.892111 82.978218 
L 235.892111 79.145822 
L 236.429892 79.145822 
L 236.429892 75.313426 
L 236.942646 75.313426 
L 236.942646 71.48103 
L 237.432603 71.48103 
L 237.432603 67.648634 
L 237.90171 67.648634 
L 237.901712 59.983842 
L 238.353875 59.983842 
L 238.353875 56.151446 
L 238.783963 56.151446 
L 238.783963 52.31905 
L 239.199937 52.31905 
L 239.199945 44.654257 
L 239.600783 44.654257 
L 239.600799 33.157069 
L 240.722675 33.157069 
L 240.722675 29.324673 
L 241.072611 29.324673 
L 241.072611 25.492277 
L 241.411785 25.492277 
L 241.411785 21.659881 
L 242.672847 21.659881 
L 242.672847 17.827485 
L 243.532164 17.827485 
L 243.532164 13.995089 
L 244.582674 13.995089 
L 244.582689 6.330297 
L 244.582689 6.330297 
L 460.8 6.330297 
L 460.8 6.330297 
" clip-path="url(#pf412aed9f3)" style="fill: none; stroke: #000000; stroke-width: 1.5; stroke-linecap: square"/>
   </g>
   <g id="patch_3">
    <path d="M 0 293.76 
L 0 3.456 
" style="fill: none; stroke: #000000; stroke-width: 0.8; stroke-linejoin: miter; stroke-linecap: square"/>
   </g>
   <g id="patch_4">
    <path d="M 460.8 293.76 
L 460.8 3.456 
" style="fill: none; stroke: #000000; stroke-width: 0.8; stroke-linejoin: miter; stroke-linecap: square"/>
   </g>
   <g id="patch_5">
    <path d="M 0 293.76 
L 460.8 293.76 
" style="fill: none; stroke: #000000; stroke-width: 0.8; stroke-linejoin: miter; stroke-linecap: square"/>
   </g>
   <g id="patch_6">
    <path d="M 0 3.456 
L 460.8 3.456 
" style="fill: none; stroke: #000000; stroke-width: 0.8; stroke-linejoin: miter; stroke-linecap: square"/>
   </g>
   <g id="text_6">
    <!-- {f1-f5}, 20-D -->
    <g transform="translate(318.609 287.95392) scale(0.2 -0.2)">
     <defs>
      <path id="DejaVuSans-7b" d="M 3272 -594 
L 3272 -1044 
L 3078 -1044 
Q 2300 -1044 2036 -812 
Q 1772 -581 1772 109 
L 1772 856 
Q 1772 1328 1603 1509 
Q 1434 1691 991 1691 
L 800 1691 
L 800 2138 
L 991 2138 
Q 1438 2138 1605 2317 
Q 1772 2497 1772 2963 
L 1772 3713 
Q 1772 4403 2036 4633 
Q 2300 4863 3078 4863 
L 3272 4863 
L 3272 4416 
L 3059 4416 
Q 2619 4416 2484 4278 
Q 2350 4141 2350 3700 
L 2350 2925 
Q 2350 2434 2208 2212 
Q 2066 1991 1722 1913 
Q 2069 1828 2209 1606 
Q 2350 1384 2350 897 
L 2350 122 
Q 2350 -319 2484 -456 
Q 2619 -594 3059 -594 
L 3272 -594 
z
" transform="scale(0.015625)"/>
      <path id="DejaVuSans-35" d="M 691 4666 
L 3169 4666 
L 3169 4134 
L 1269 4134 
L 1269 2991 
Q 1406 3038 1543 3061 
Q 1681 3084 1819 3084 
Q 2600 3084 3056 2656 
Q 3513 2228 3513 1497 
Q 3513 744 3044 326 
Q 2575 -91 1722 -91 
Q 1428 -91 1123 -41 
Q 819 9 494 109 
L 494 744 
Q 775 591 1075 516 
Q 1375 441 1709 441 
Q 2250 441 2565 725 
Q 2881 1009 2881 1497 
Q 2881 1984 2565 2268 
Q 2250 2553 1709 2553 
Q 1456 2553 1204 2497 
Q 953 2441 691 2322 
L 691 4666 
z
" transform="scale(0.015625)"/>
      <path id="DejaVuSans-7d" d="M 800 -594 
L 1019 -594 
Q 1456 -594 1589 -459 
Q 1722 -325 1722 122 
L 1722 897 
Q 1722 1384 1862 1606 
Q 2003 1828 2350 1913 
Q 2003 1991 1862 2212 
Q 1722 2434 1722 2925 
L 1722 3700 
Q 1722 4144 1589 4280 
Q 1456 4416 1019 4416 
L 800 4416 
L 800 4863 
L 997 4863 
Q 1775 4863 2036 4633 
Q 2297 4403 2297 3713 
L 2297 2963 
Q 2297 2497 2465 2317 
Q 2634 2138 3078 2138 
L 3272 2138 
L 3272 1691 
L 3078 1691 
Q 2634 1691 2465 1509 
Q 2297 1328 2297 856 
L 2297 109 
Q 2297 -581 2036 -812 
Q 1775 -1044 997 -1044 
L 800 -1044 
L 800 -594 
z
" transform="scale(0.015625)"/>
      <path id="DejaVuSans-2c" d="M 750 794 
L 1409 794 
L 1409 256 
L 897 -744 
L 494 -744 
L 750 256 
L 750 794 
z
" transform="scale(0.015625)"/>
      <path id="DejaVuSans-32" d="M 1228 531 
L 3431 531 
L 3431 0 
L 469 0 
L 469 531 
Q 828 903 1448 1529 
Q 2069 2156 2228 2338 
Q 2531 2678 2651 2914 
Q 2772 3150 2772 3378 
Q 2772 3750 2511 3984 
Q 2250 4219 1831 4219 
Q 1534 4219 1204 4116 
Q 875 4013 500 3803 
L 500 4441 
Q 881 4594 1212 4672 
Q 1544 4750 1819 4750 
Q 2544 4750 2975 4387 
Q 3406 4025 3406 3419 
Q 3406 3131 3298 2873 
Q 3191 2616 2906 2266 
Q 2828 2175 2409 1742 
Q 1991 1309 1228 531 
z
" transform="scale(0.015625)"/>
     </defs>
     <use xlink:href="#DejaVuSans-7b"/>
     <use xlink:href="#DejaVuSans-66" x="63.623047"/>
     <use xlink:href="#DejaVuSans-31" x="98.828125"/>
     <use xlink:href="#DejaVuSans-2d" x="162.451172"/>
     <use xlink:href="#DejaVuSans-66" x="198.535156"/>
     <use xlink:href="#DejaVuSans-35" x="233.740234"/>
     <use xlink:href="#DejaVuSans-7d" x="297.363281"/>
     <use xlink:href="#DejaVuSans-2c" x="360.986328"/>
     <use xlink:href="#DejaVuSans-20" x="392.773438"/>
     <use xlink:href="#DejaVuSans-32" x="424.560547"/>
     <use xlink:href="#DejaVuSans-30" x="488.183594"/>
     <use xlink:href="#DejaVuSans-2d" x="551.806641"/>
     <use xlink:href="#DejaVuSans-44" x="587.890625"/>
    </g>
   </g>
   <g id="text_7">
    <!-- v2.6.3 -->
    <g style="fill: #808080" transform="translate(214.71875 288.777272) scale(0.1 -0.1)">
     <defs>
      <path id="DejaVuSans-76" d="M 191 3500 
L 800 3500 
L 1894 563 
L 2988 3500 
L 3597 3500 
L 2284 0 
L 1503 0 
L 191 3500 
z
" transform="scale(0.015625)"/>
      <path id="DejaVuSans-2e" d="M 684 794 
L 1344 794 
L 1344 0 
L 684 0 
L 684 794 
z
" transform="scale(0.015625)"/>
      <path id="DejaVuSans-36" d="M 2113 2584 
Q 1688 2584 1439 2293 
Q 1191 2003 1191 1497 
Q 1191 994 1439 701 
Q 1688 409 2113 409 
Q 2538 409 2786 701 
Q 3034 994 3034 1497 
Q 3034 2003 2786 2293 
Q 2538 2584 2113 2584 
z
M 3366 4563 
L 3366 3988 
Q 3128 4100 2886 4159 
Q 2644 4219 2406 4219 
Q 1781 4219 1451 3797 
Q 1122 3375 1075 2522 
Q 1259 2794 1537 2939 
Q 1816 3084 2150 3084 
Q 2853 3084 3261 2657 
Q 3669 2231 3669 1497 
Q 3669 778 3244 343 
Q 2819 -91 2113 -91 
Q 1303 -91 875 529 
Q 447 1150 447 2328 
Q 447 3434 972 4092 
Q 1497 4750 2381 4750 
Q 2619 4750 2861 4703 
Q 3103 4656 3366 4563 
z
" transform="scale(0.015625)"/>
      <path id="DejaVuSans-33" d="M 2597 2516 
Q 3050 2419 3304 2112 
Q 3559 1806 3559 1356 
Q 3559 666 3084 287 
Q 2609 -91 1734 -91 
Q 1441 -91 1130 -33 
Q 819 25 488 141 
L 488 750 
Q 750 597 1062 519 
Q 1375 441 1716 441 
Q 2309 441 2620 675 
Q 2931 909 2931 1356 
Q 2931 1769 2642 2001 
Q 2353 2234 1838 2234 
L 1294 2234 
L 1294 2753 
L 1863 2753 
Q 2328 2753 2575 2939 
Q 2822 3125 2822 3475 
Q 2822 3834 2567 4026 
Q 2313 4219 1838 4219 
Q 1578 4219 1281 4162 
Q 984 4106 628 3988 
L 628 4550 
Q 988 4650 1302 4700 
Q 1616 4750 1894 4750 
Q 2613 4750 3031 4423 
Q 3450 4097 3450 3541 
Q 3450 3153 3228 2886 
Q 3006 2619 2597 2516 
z
" transform="scale(0.015625)"/>
     </defs>
     <use xlink:href="#DejaVuSans-76"/>
     <use xlink:href="#DejaVuSans-32" x="59.179688"/>
     <use xlink:href="#DejaVuSans-2e" x="122.802734"/>
     <use xlink:href="#DejaVuSans-36" x="154.589844"/>
     <use xlink:href="#DejaVuSans-2e" x="218.212891"/>
     <use xlink:href="#DejaVuSans-33" x="250"/>
    </g>
   </g>
  </g>
 </g>
 <defs>
  <clipPath id="pf412aed9f3">
   <rect x="0" y="3.456" width="460.8" height="290.304"/>
  </clipPath>
 </defs>
</svg>
