<?xml version="1.0" encoding="utf-8" standalone="no"?>
<!DOCTYPE svg PUBLIC "-//W3C//DTD SVG 1.1//EN"
  "http://www.w3.org/Graphics/SVG/1.1/DTD/svg11.dtd">
<svg xmlns:xlink="http://www.w3.org/1999/xlink" width="460.8pt" height="345.6pt" viewBox="0 0 460.8 345.6" xmlns="http://www.w3.org/2000/svg" version="1.1">
 <metadata>
  <rdf:RDF xmlns:dc="http://purl.org/dc/elements/1.1/" xmlns:cc="http://creativecommons.org/ns#" xmlns:rdf="http://www.w3.org/1999/02/22-rdf-syntax-ns#">
   <cc:Work>
    <dc:type rdf:resource="http://purl.org/dc/dcmitype/StillImage"/>
    <dc:date>2024-06-19T23:15:44.086818</dc:date>
    <dc:format>image/svg+xml</dc:format>
    <dc:creator>
     <cc:Agent>
      <dc:title>Matplotlib v3.7.5, https://matplotlib.org/</dc:title>
     </cc:Agent>
    </dc:creator>
   </cc:Work>
  </rdf:RDF>
 </metadata>
 <defs>
  <style type="text/css">*{stroke-linejoin: round; stroke-linecap: butt}</style>
 </defs>
 <g id="figure_1">
  <g id="patch_1">
   <path d="M 0 345.6 
L 460.8 345.6 
L 460.8 0 
L 0 0 
z
" style="fill: #ffffff"/>
  </g>
  <g id="axes_1">
   <g id="patch_2">
    <path d="M 0 293.76 
L 460.8 293.76 
L 460.8 3.456 
L 0 3.456 
z
" style="fill: #ffffff"/>
   </g>
   <g id="matplotlib.axis_1">
    <g id="xtick_1">
     <g id="line2d_1">
      <path d="M 93.635786 293.76 
L 93.635786 3.456 
" clip-path="url(#p2ed04122f6)" style="fill: none; stroke: #b0b0b0; stroke-width: 0.8; stroke-linecap: square"/>
     </g>
     <g id="line2d_2">
      <defs>
       <path id="m588d318bb1" d="M 0 0 
L 0 3.5 
" style="stroke: #000000; stroke-width: 0.8"/>
      </defs>
      <g>
       <use xlink:href="#m588d318bb1" x="93.635786" y="293.76" style="stroke: #000000; stroke-width: 0.8"/>
      </g>
     </g>
     <g id="text_1">
      <!-- -4 -->
      <g transform="translate(83.665473 315.956875) scale(0.2 -0.2)">
       <defs>
        <path id="DejaVuSans-2d" d="M 313 2009 
L 1997 2009 
L 1997 1497 
L 313 1497 
L 313 2009 
z
" transform="scale(0.015625)"/>
        <path id="DejaVuSans-34" d="M 2419 4116 
L 825 1625 
L 2419 1625 
L 2419 4116 
z
M 2253 4666 
L 3047 4666 
L 3047 1625 
L 3713 1625 
L 3713 1100 
L 3047 1100 
L 3047 0 
L 2419 0 
L 2419 1100 
L 313 1100 
L 313 1709 
L 2253 4666 
z
" transform="scale(0.015625)"/>
       </defs>
       <use xlink:href="#DejaVuSans-2d"/>
       <use xlink:href="#DejaVuSans-34" x="36.083984"/>
      </g>
     </g>
    </g>
    <g id="xtick_2">
     <g id="line2d_3">
      <path d="M 187.37284 293.76 
L 187.37284 3.456 
" clip-path="url(#p2ed04122f6)" style="fill: none; stroke: #b0b0b0; stroke-width: 0.8; stroke-linecap: square"/>
     </g>
     <g id="line2d_4">
      <g>
       <use xlink:href="#m588d318bb1" x="187.37284" y="293.76" style="stroke: #000000; stroke-width: 0.8"/>
      </g>
     </g>
     <g id="text_2">
      <!-- 0 -->
      <g transform="translate(181.01034 315.956875) scale(0.2 -0.2)">
       <defs>
        <path id="DejaVuSans-30" d="M 2034 4250 
Q 1547 4250 1301 3770 
Q 1056 3291 1056 2328 
Q 1056 1369 1301 889 
Q 1547 409 2034 409 
Q 2525 409 2770 889 
Q 3016 1369 3016 2328 
Q 3016 3291 2770 3770 
Q 2525 4250 2034 4250 
z
M 2034 4750 
Q 2819 4750 3233 4129 
Q 3647 3509 3647 2328 
Q 3647 1150 3233 529 
Q 2819 -91 2034 -91 
Q 1250 -91 836 529 
Q 422 1150 422 2328 
Q 422 3509 836 4129 
Q 1250 4750 2034 4750 
z
" transform="scale(0.015625)"/>
       </defs>
       <use xlink:href="#DejaVuSans-30"/>
      </g>
     </g>
    </g>
    <g id="xtick_3">
     <g id="line2d_5">
      <path d="M 281.109894 293.76 
L 281.109894 3.456 
" clip-path="url(#p2ed04122f6)" style="fill: none; stroke: #b0b0b0; stroke-width: 0.8; stroke-linecap: square"/>
     </g>
     <g id="line2d_6">
      <g>
       <use xlink:href="#m588d318bb1" x="281.109894" y="293.76" style="stroke: #000000; stroke-width: 0.8"/>
      </g>
     </g>
     <g id="text_3">
      <!-- 4 -->
      <g transform="translate(274.747394 315.956875) scale(0.2 -0.2)">
       <use xlink:href="#DejaVuSans-34"/>
      </g>
     </g>
    </g>
    <g id="xtick_4">
     <g id="line2d_7">
      <path d="M 374.846948 293.76 
L 374.846948 3.456 
" clip-path="url(#p2ed04122f6)" style="fill: none; stroke: #b0b0b0; stroke-width: 0.8; stroke-linecap: square"/>
     </g>
     <g id="line2d_8">
      <g>
       <use xlink:href="#m588d318bb1" x="374.846948" y="293.76" style="stroke: #000000; stroke-width: 0.8"/>
      </g>
     </g>
     <g id="text_4">
      <!-- 8 -->
      <g transform="translate(368.484448 315.956875) scale(0.2 -0.2)">
       <defs>
        <path id="DejaVuSans-38" d="M 2034 2216 
Q 1584 2216 1326 1975 
Q 1069 1734 1069 1313 
Q 1069 891 1326 650 
Q 1584 409 2034 409 
Q 2484 409 2743 651 
Q 3003 894 3003 1313 
Q 3003 1734 2745 1975 
Q 2488 2216 2034 2216 
z
M 1403 2484 
Q 997 2584 770 2862 
Q 544 3141 544 3541 
Q 544 4100 942 4425 
Q 1341 4750 2034 4750 
Q 2731 4750 3128 4425 
Q 3525 4100 3525 3541 
Q 3525 3141 3298 2862 
Q 3072 2584 2669 2484 
Q 3125 2378 3379 2068 
Q 3634 1759 3634 1313 
Q 3634 634 3220 271 
Q 2806 -91 2034 -91 
Q 1263 -91 848 271 
Q 434 634 434 1313 
Q 434 1759 690 2068 
Q 947 2378 1403 2484 
z
M 1172 3481 
Q 1172 3119 1398 2916 
Q 1625 2713 2034 2713 
Q 2441 2713 2670 2916 
Q 2900 3119 2900 3481 
Q 2900 3844 2670 4047 
Q 2441 4250 2034 4250 
Q 1625 4250 1398 4047 
Q 1172 3844 1172 3481 
z
" transform="scale(0.015625)"/>
       </defs>
       <use xlink:href="#DejaVuSans-38"/>
      </g>
     </g>
    </g>
    <g id="text_5">
     <!-- log10 of Df -->
     <g transform="translate(175.214063 339.313125) scale(0.2 -0.2)">
      <defs>
       <path id="DejaVuSans-6c" d="M 603 4863 
L 1178 4863 
L 1178 0 
L 603 0 
L 603 4863 
z
" transform="scale(0.015625)"/>
       <path id="DejaVuSans-6f" d="M 1959 3097 
Q 1497 3097 1228 2736 
Q 959 2375 959 1747 
Q 959 1119 1226 758 
Q 1494 397 1959 397 
Q 2419 397 2687 759 
Q 2956 1122 2956 1747 
Q 2956 2369 2687 2733 
Q 2419 3097 1959 3097 
z
M 1959 3584 
Q 2709 3584 3137 3096 
Q 3566 2609 3566 1747 
Q 3566 888 3137 398 
Q 2709 -91 1959 -91 
Q 1206 -91 779 398 
Q 353 888 353 1747 
Q 353 2609 779 3096 
Q 1206 3584 1959 3584 
z
" transform="scale(0.015625)"/>
       <path id="DejaVuSans-67" d="M 2906 1791 
Q 2906 2416 2648 2759 
Q 2391 3103 1925 3103 
Q 1463 3103 1205 2759 
Q 947 2416 947 1791 
Q 947 1169 1205 825 
Q 1463 481 1925 481 
Q 2391 481 2648 825 
Q 2906 1169 2906 1791 
z
M 3481 434 
Q 3481 -459 3084 -895 
Q 2688 -1331 1869 -1331 
Q 1566 -1331 1297 -1286 
Q 1028 -1241 775 -1147 
L 775 -588 
Q 1028 -725 1275 -790 
Q 1522 -856 1778 -856 
Q 2344 -856 2625 -561 
Q 2906 -266 2906 331 
L 2906 616 
Q 2728 306 2450 153 
Q 2172 0 1784 0 
Q 1141 0 747 490 
Q 353 981 353 1791 
Q 353 2603 747 3093 
Q 1141 3584 1784 3584 
Q 2172 3584 2450 3431 
Q 2728 3278 2906 2969 
L 2906 3500 
L 3481 3500 
L 3481 434 
z
" transform="scale(0.015625)"/>
       <path id="DejaVuSans-31" d="M 794 531 
L 1825 531 
L 1825 4091 
L 703 3866 
L 703 4441 
L 1819 4666 
L 2450 4666 
L 2450 531 
L 3481 531 
L 3481 0 
L 794 0 
L 794 531 
z
" transform="scale(0.015625)"/>
       <path id="DejaVuSans-20" transform="scale(0.015625)"/>
       <path id="DejaVuSans-66" d="M 2375 4863 
L 2375 4384 
L 1825 4384 
Q 1516 4384 1395 4259 
Q 1275 4134 1275 3809 
L 1275 3500 
L 2222 3500 
L 2222 3053 
L 1275 3053 
L 1275 0 
L 697 0 
L 697 3053 
L 147 3053 
L 147 3500 
L 697 3500 
L 697 3744 
Q 697 4328 969 4595 
Q 1241 4863 1831 4863 
L 2375 4863 
z
" transform="scale(0.015625)"/>
       <path id="DejaVuSans-44" d="M 1259 4147 
L 1259 519 
L 2022 519 
Q 2988 519 3436 956 
Q 3884 1394 3884 2338 
Q 3884 3275 3436 3711 
Q 2988 4147 2022 4147 
L 1259 4147 
z
M 628 4666 
L 1925 4666 
Q 3281 4666 3915 4102 
Q 4550 3538 4550 2338 
Q 4550 1131 3912 565 
Q 3275 0 1925 0 
L 628 0 
L 628 4666 
z
" transform="scale(0.015625)"/>
      </defs>
      <use xlink:href="#DejaVuSans-6c"/>
      <use xlink:href="#DejaVuSans-6f" x="27.783203"/>
      <use xlink:href="#DejaVuSans-67" x="88.964844"/>
      <use xlink:href="#DejaVuSans-31" x="152.441406"/>
      <use xlink:href="#DejaVuSans-30" x="216.064453"/>
      <use xlink:href="#DejaVuSans-20" x="279.6875"/>
      <use xlink:href="#DejaVuSans-6f" x="311.474609"/>
      <use xlink:href="#DejaVuSans-66" x="372.65625"/>
      <use xlink:href="#DejaVuSans-20" x="407.861328"/>
      <use xlink:href="#DejaVuSans-44" x="439.648438"/>
      <use xlink:href="#DejaVuSans-66" x="516.650391"/>
     </g>
    </g>
   </g>
   <g id="matplotlib.axis_2">
    <g id="ytick_1">
     <g id="line2d_9">
      <path d="M 0 293.76 
L 460.8 293.76 
" clip-path="url(#p2ed04122f6)" style="fill: none; stroke: #b0b0b0; stroke-width: 0.8; stroke-linecap: square"/>
     </g>
     <g id="line2d_10">
      <defs>
       <path id="ma9bc2be706" d="M 0 0 
L -3.5 0 
" style="stroke: #000000; stroke-width: 0.8"/>
      </defs>
      <g>
       <use xlink:href="#ma9bc2be706" x="0" y="293.76" style="stroke: #000000; stroke-width: 0.8"/>
      </g>
     </g>
    </g>
    <g id="ytick_2">
     <g id="line2d_11">
      <path d="M 0 236.274059 
L 460.8 236.274059 
" clip-path="url(#p2ed04122f6)" style="fill: none; stroke: #b0b0b0; stroke-width: 0.8; stroke-linecap: square"/>
     </g>
     <g id="line2d_12">
      <g>
       <use xlink:href="#ma9bc2be706" x="0" y="236.274059" style="stroke: #000000; stroke-width: 0.8"/>
      </g>
     </g>
    </g>
    <g id="ytick_3">
     <g id="line2d_13">
      <path d="M 0 178.788119 
L 460.8 178.788119 
" clip-path="url(#p2ed04122f6)" style="fill: none; stroke: #b0b0b0; stroke-width: 0.8; stroke-linecap: square"/>
     </g>
     <g id="line2d_14">
      <g>
       <use xlink:href="#ma9bc2be706" x="0" y="178.788119" style="stroke: #000000; stroke-width: 0.8"/>
      </g>
     </g>
    </g>
    <g id="ytick_4">
     <g id="line2d_15">
      <path d="M 0 121.302178 
L 460.8 121.302178 
" clip-path="url(#p2ed04122f6)" style="fill: none; stroke: #b0b0b0; stroke-width: 0.8; stroke-linecap: square"/>
     </g>
     <g id="line2d_16">
      <g>
       <use xlink:href="#ma9bc2be706" x="0" y="121.302178" style="stroke: #000000; stroke-width: 0.8"/>
      </g>
     </g>
    </g>
    <g id="ytick_5">
     <g id="line2d_17">
      <path d="M 0 63.816238 
L 460.8 63.816238 
" clip-path="url(#p2ed04122f6)" style="fill: none; stroke: #b0b0b0; stroke-width: 0.8; stroke-linecap: square"/>
     </g>
     <g id="line2d_18">
      <g>
       <use xlink:href="#ma9bc2be706" x="0" y="63.816238" style="stroke: #000000; stroke-width: 0.8"/>
      </g>
     </g>
    </g>
    <g id="ytick_6">
     <g id="line2d_19">
      <path d="M 0 6.330297 
L 460.8 6.330297 
" clip-path="url(#p2ed04122f6)" style="fill: none; stroke: #b0b0b0; stroke-width: 0.8; stroke-linecap: square"/>
     </g>
     <g id="line2d_20">
      <g>
       <use xlink:href="#ma9bc2be706" x="0" y="6.330297" style="stroke: #000000; stroke-width: 0.8"/>
      </g>
     </g>
    </g>
   </g>
   <g id="line2d_21">
    <path d="M -1 278.430416 
L 26.472892 278.430416 
L 26.472892 274.59802 
L 99.541474 274.59802 
L 99.541474 270.765624 
L 134.672093 270.765624 
L 134.672093 266.933228 
L 157.609807 266.933228 
L 157.609807 263.100832 
L 170.835102 263.100832 
L 170.835102 259.268436 
L 171.190622 259.268436 
L 171.190622 255.43604 
L 172.715231 255.43604 
L 172.715231 251.603644 
L 178.274541 251.603644 
L 178.274541 247.771248 
L 178.86512 247.771248 
L 178.86512 243.938851 
L 183.62374 243.938851 
L 183.648763 228.609267 
L 183.825951 228.609267 
L 183.825951 224.776871 
L 184.879571 224.776871 
L 184.879571 220.944475 
L 185.465335 220.944475 
L 185.465335 217.112079 
L 185.938644 217.112079 
L 185.938644 209.447287 
L 186.650306 209.447287 
L 186.650306 205.614891 
L 186.808211 205.614891 
L 186.808211 201.782495 
L 187.871921 201.782495 
L 187.871921 197.950099 
L 188.025999 197.950099 
L 188.025999 194.117703 
L 188.228827 194.117703 
L 188.228827 190.285307 
L 189.312316 190.285307 
L 189.413316 182.620515 
L 189.605152 182.620515 
L 189.605152 174.955723 
L 190.368992 174.955723 
L 190.368992 167.290931 
L 190.88687 167.290931 
L 190.950949 159.626139 
L 191.82868 159.626139 
L 191.922792 151.961347 
L 192.274679 151.961347 
L 192.275858 144.296554 
L 192.599831 144.296554 
L 192.599831 140.464158 
L 193.815787 140.464158 
L 193.879186 132.799366 
L 194.105401 132.799366 
L 194.206724 113.637386 
L 194.294419 113.637386 
L 194.294419 109.80499 
L 194.415184 109.80499 
L 194.415184 105.972594 
L 194.956337 105.972594 
L 194.956337 102.140198 
L 195.397527 102.140198 
L 195.397527 98.307802 
L 196.587651 98.307802 
L 196.587651 94.475406 
L 199.114171 94.475406 
L 199.114171 90.64301 
L 204.405474 90.64301 
L 204.405474 86.810614 
L 206.022587 86.810614 
L 206.022587 82.978218 
L 206.234057 82.978218 
L 206.234057 79.145822 
L 206.523189 79.145822 
L 206.558792 71.48103 
L 207.483533 71.48103 
L 207.564551 52.31905 
L 209.331998 52.31905 
L 209.331998 48.486653 
L 209.479671 48.486653 
L 209.479671 44.654257 
L 209.980226 44.654257 
L 209.980226 40.821861 
L 210.097457 40.821861 
L 210.097457 36.989465 
L 211.289139 36.989465 
L 211.367714 29.324673 
L 211.849689 29.324673 
L 211.892676 21.659881 
L 212.587163 21.659881 
L 212.587163 17.827485 
L 213.195117 17.827485 
L 213.195117 13.995089 
L 214.467722 13.995089 
L 214.467722 10.162693 
L 214.64802 10.162693 
L 214.64802 6.330297 
L 214.64802 6.330297 
L 460.8 6.330297 
L 460.8 6.330297 
" clip-path="url(#p2ed04122f6)" style="fill: none; stroke: #ff0000; stroke-width: 3; stroke-linecap: square"/>
   </g>
   <g id="line2d_22">
    <path d="M 200.261913 293.76 
L 200.261913 289.927604 
L 206.852493 289.927604 
L 206.852493 286.095208 
L 210.492947 286.095208 
L 210.492947 282.262812 
L 212.723623 282.262812 
L 212.723623 278.430416 
L 213.178867 278.430416 
L 213.178867 274.59802 
L 214.722635 274.59802 
L 214.722635 270.765624 
L 215.321872 270.765624 
L 215.321872 266.933228 
L 216.019983 266.933228 
L 216.035518 259.268436 
L 217.026024 259.268436 
L 217.083077 251.603644 
L 217.203698 251.603644 
L 217.253943 243.938851 
L 218.410593 243.938851 
L 218.410593 240.106455 
L 218.645102 240.106455 
L 218.645102 236.274059 
L 219.53874 236.274059 
L 219.53874 232.441663 
L 220.079293 232.441663 
L 220.079293 228.609267 
L 220.882444 228.609267 
L 220.882444 224.776871 
L 221.048607 224.776871 
L 221.048607 220.944475 
L 221.491675 220.944475 
L 221.491675 217.112079 
L 223.461347 217.112079 
L 223.461347 213.279683 
L 224.259446 213.279683 
L 224.259446 209.447287 
L 225.276701 209.447287 
L 225.276701 205.614891 
L 227.699985 205.614891 
L 227.699985 201.782495 
L 227.90243 201.782495 
L 227.946535 194.117703 
L 229.38965 194.117703 
L 229.38965 190.285307 
L 229.816756 190.285307 
L 229.853073 182.620515 
L 230.047331 182.620515 
L 230.100931 174.955723 
L 230.206095 174.955723 
L 230.206095 171.123327 
L 230.441946 171.123327 
L 230.441946 167.290931 
L 230.663592 167.290931 
L 230.757146 151.961347 
L 230.900273 151.961347 
L 230.900273 148.12895 
L 231.036071 148.12895 
L 231.036071 144.296554 
L 231.477524 144.296554 
L 231.477524 140.464158 
L 231.612945 140.464158 
L 231.612945 136.631762 
L 231.821866 136.631762 
L 231.904881 128.96697 
L 232.178944 128.96697 
L 232.278326 117.469782 
L 232.465121 117.469782 
L 232.465121 113.637386 
L 232.596758 113.637386 
L 232.596758 109.80499 
L 232.712346 109.80499 
L 232.712346 105.972594 
L 233.263404 105.972594 
L 233.263404 102.140198 
L 234.254394 102.140198 
L 234.254394 98.307802 
L 235.415974 98.307802 
L 235.415974 94.475406 
L 235.783809 94.475406 
L 235.783809 90.64301 
L 236.091406 90.64301 
L 236.091406 86.810614 
L 236.398426 86.810614 
L 236.398426 82.978218 
L 236.53752 82.978218 
L 236.53752 79.145822 
L 237.257631 79.145822 
L 237.257631 75.313426 
L 238.744715 75.313426 
L 238.744715 71.48103 
L 239.147456 71.48103 
L 239.147456 67.648634 
L 239.49229 67.648634 
L 239.49229 63.816238 
L 277.63382 63.816238 
L 277.63382 59.983842 
L 280.601401 59.983842 
L 280.601401 56.151446 
L 284.692469 56.151446 
L 284.694506 44.654257 
L 285.147828 44.654257 
L 285.147828 40.821861 
L 286.246732 40.821861 
L 286.246732 36.989465 
L 287.086581 36.989465 
L 287.086581 33.157069 
L 292.690595 33.157069 
L 292.690595 29.324673 
L 292.963581 29.324673 
L 292.963581 25.492277 
L 294.362346 25.492277 
L 294.362346 21.659881 
L 300.317267 21.659881 
L 300.317267 17.827485 
L 301.018611 17.827485 
L 301.018611 13.995089 
L 304.085948 13.995089 
L 304.085948 10.162693 
L 305.700701 10.162693 
L 305.700701 6.330297 
L 305.700701 6.330297 
L 460.8 6.330297 
L 460.8 6.330297 
" clip-path="url(#p2ed04122f6)" style="fill: none; stroke: #00bfbf; stroke-width: 1.5; stroke-linecap: square"/>
   </g>
   <g id="line2d_23">
    <path d="M 200.261913 293.76 
L 200.351901 286.095208 
L 205.677218 286.095208 
L 205.677218 282.262812 
L 206.852493 282.262812 
L 206.852493 278.430416 
L 207.652656 278.430416 
L 207.652656 274.59802 
L 209.187649 274.59802 
L 209.187649 270.765624 
L 210.58528 270.765624 
L 210.647769 263.100832 
L 212.723623 263.100832 
L 212.723623 259.268436 
L 214.206158 259.268436 
L 214.206158 255.43604 
L 214.715666 255.43604 
L 214.715666 251.603644 
L 215.622073 251.603644 
L 215.622073 247.771248 
L 216.035518 247.771248 
L 216.035518 243.938851 
L 216.328977 243.938851 
L 216.328977 240.106455 
L 217.026024 240.106455 
L 217.026024 236.274059 
L 217.203698 236.274059 
L 217.253943 228.609267 
L 218.151382 228.609267 
L 218.151382 224.776871 
L 218.410593 224.776871 
L 218.410593 220.944475 
L 218.645102 220.944475 
L 218.645102 217.112079 
L 220.079293 217.112079 
L 220.079293 213.279683 
L 220.882444 213.279683 
L 220.882444 209.447287 
L 222.975037 209.447287 
L 222.975037 205.614891 
L 223.461347 205.614891 
L 223.461347 201.782495 
L 224.259446 201.782495 
L 224.344948 194.117703 
L 225.445758 194.117703 
L 225.445758 190.285307 
L 226.102675 190.285307 
L 226.102675 186.452911 
L 226.224395 186.452911 
L 226.224395 182.620515 
L 227.120457 182.620515 
L 227.224389 171.123327 
L 227.323425 171.123327 
L 227.323425 167.290931 
L 227.699985 167.290931 
L 227.699985 163.458535 
L 227.946535 163.458535 
L 227.946535 159.626139 
L 228.611112 159.626139 
L 228.611112 155.793743 
L 229.053242 155.793743 
L 229.053242 151.961347 
L 229.816756 151.961347 
L 229.816756 148.12895 
L 230.100931 148.12895 
L 230.206095 140.464158 
L 230.543698 140.464158 
L 230.562564 132.799366 
L 230.657512 132.799366 
L 230.757146 121.302178 
L 231.612945 121.302178 
L 231.612945 117.469782 
L 232.019394 117.469782 
L 232.019394 113.637386 
L 232.465121 113.637386 
L 232.465121 109.80499 
L 232.712346 109.80499 
L 232.712346 105.972594 
L 233.028759 105.972594 
L 233.028759 102.140198 
L 233.263404 102.140198 
L 233.263404 98.307802 
L 234.254394 98.307802 
L 234.254394 94.475406 
L 235.106715 94.475406 
L 235.106715 90.64301 
L 235.415974 90.64301 
L 235.415974 86.810614 
L 235.783809 86.810614 
L 235.783809 82.978218 
L 236.035145 82.978218 
L 236.091406 75.313426 
L 236.398426 75.313426 
L 236.398426 71.48103 
L 237.105781 71.48103 
L 237.105781 67.648634 
L 237.953251 67.648634 
L 237.953251 63.816238 
L 270.102033 63.816238 
L 270.104151 56.151446 
L 272.297956 56.151446 
L 272.308604 48.486653 
L 277.63382 48.486653 
L 277.63382 44.654257 
L 280.620956 44.654257 
L 280.620956 40.821861 
L 282.163822 40.821861 
L 282.163822 36.989465 
L 284.663989 36.989465 
L 284.692469 25.492277 
L 285.147828 25.492277 
L 285.147828 21.659881 
L 286.246732 21.659881 
L 286.246732 17.827485 
L 287.086581 17.827485 
L 287.086581 13.995089 
L 292.225557 13.995089 
L 292.225557 10.162693 
L 292.690595 10.162693 
L 292.690595 6.330297 
L 292.690595 6.330297 
L 460.8 6.330297 
L 460.8 6.330297 
" clip-path="url(#p2ed04122f6)" style="fill: none; stroke: #bf00bf; stroke-width: 1.5; stroke-linecap: square"/>
   </g>
   <g id="line2d_24">
    <path d="M 200.261913 293.76 
L 200.351901 286.095208 
L 205.677218 286.095208 
L 205.677218 282.262812 
L 205.997957 282.262812 
L 205.997957 278.430416 
L 206.852493 278.430416 
L 206.852493 274.59802 
L 207.78356 274.59802 
L 207.78356 270.765624 
L 208.107114 270.765624 
L 208.107114 266.933228 
L 209.187649 266.933228 
L 209.187649 263.100832 
L 209.952387 263.100832 
L 209.952387 259.268436 
L 210.224635 259.268436 
L 210.224635 255.43604 
L 210.647769 255.43604 
L 210.717075 247.771248 
L 211.114215 247.771248 
L 211.114215 243.938851 
L 212.419773 243.938851 
L 212.419773 240.106455 
L 212.633776 240.106455 
L 212.633776 236.274059 
L 213.16344 236.274059 
L 213.16344 232.441663 
L 213.563112 232.441663 
L 213.563112 228.609267 
L 214.292753 228.609267 
L 214.292753 224.776871 
L 216.568174 224.776871 
L 216.568174 220.944475 
L 217.203698 220.944475 
L 217.203698 217.112079 
L 217.922125 217.112079 
L 217.922125 213.279683 
L 218.119523 213.279683 
L 218.119523 209.447287 
L 218.410593 209.447287 
L 218.410593 205.614891 
L 220.075397 205.614891 
L 220.075397 201.782495 
L 220.882444 201.782495 
L 220.882444 197.950099 
L 221.278006 197.950099 
L 221.278006 194.117703 
L 221.771269 194.117703 
L 221.771269 190.285307 
L 222.975037 190.285307 
L 222.975037 186.452911 
L 223.461347 186.452911 
L 223.461347 182.620515 
L 224.235324 182.620515 
L 224.344948 171.123327 
L 224.658455 171.123327 
L 224.658455 167.290931 
L 226.779647 167.290931 
L 226.779647 163.458535 
L 227.324492 163.458535 
L 227.324492 159.626139 
L 227.699985 159.626139 
L 227.699985 155.793743 
L 227.946535 155.793743 
L 227.946535 151.961347 
L 228.611112 151.961347 
L 228.703088 144.296554 
L 228.852164 144.296554 
L 228.852164 140.464158 
L 229.053242 140.464158 
L 229.162034 132.799366 
L 229.816756 132.799366 
L 229.816756 128.96697 
L 230.100931 128.96697 
L 230.206095 117.469782 
L 230.426316 117.469782 
L 230.518662 105.972594 
L 230.544852 105.972594 
L 230.544852 102.140198 
L 230.672398 102.140198 
L 230.672398 98.307802 
L 230.847281 98.307802 
L 230.847281 94.475406 
L 231.080726 94.475406 
L 231.080726 90.64301 
L 231.980478 90.64301 
L 232.068895 82.978218 
L 232.465121 82.978218 
L 232.539427 75.313426 
L 233.312548 75.313426 
L 233.312548 71.48103 
L 235.262718 71.48103 
L 235.262718 67.648634 
L 235.888496 67.648634 
L 235.888496 63.816238 
L 259.827154 63.816238 
L 259.827154 59.983842 
L 261.35638 59.983842 
L 261.363576 48.486653 
L 268.560121 48.486653 
L 268.560121 44.654257 
L 270.104151 44.654257 
L 270.104151 40.821861 
L 272.17577 40.821861 
L 272.17577 36.989465 
L 272.297956 36.989465 
L 272.308604 29.324673 
L 272.49027 29.324673 
L 272.49027 25.492277 
L 281.156945 25.492277 
L 281.156945 21.659881 
L 284.663989 21.659881 
L 284.663989 17.827485 
L 286.163672 17.827485 
L 286.246732 10.162693 
L 287.242129 10.162693 
L 287.242129 6.330297 
L 287.242129 6.330297 
L 460.8 6.330297 
L 460.8 6.330297 
" clip-path="url(#p2ed04122f6)" style="fill: none; stroke: #000000; stroke-width: 1.5; stroke-linecap: square"/>
   </g>
   <g id="line2d_25">
    <path d="M 195.954048 293.76 
L 195.954048 286.095208 
L 197.046904 286.095208 
L 197.046904 282.262812 
L 197.959909 282.262812 
L 197.959909 278.430416 
L 198.325695 278.430416 
L 198.325695 274.59802 
L 199.445869 274.59802 
L 199.478443 266.933228 
L 200.218098 266.933228 
L 200.261913 259.268436 
L 200.351901 259.268436 
L 200.351901 255.43604 
L 201.048875 255.43604 
L 201.048875 251.603644 
L 201.515567 251.603644 
L 201.531429 243.938851 
L 201.740462 243.938851 
L 201.740462 240.106455 
L 202.636233 240.106455 
L 202.636233 236.274059 
L 202.769612 236.274059 
L 202.769612 232.441663 
L 203.470312 232.441663 
L 203.470312 228.609267 
L 204.122771 228.609267 
L 204.122771 224.776871 
L 204.471679 224.776871 
L 204.471679 220.944475 
L 204.982017 220.944475 
L 204.982017 217.112079 
L 206.412425 217.112079 
L 206.412425 213.279683 
L 206.885755 213.279683 
L 206.885755 209.447287 
L 208.764521 209.447287 
L 208.764521 205.614891 
L 210.34941 205.614891 
L 210.34941 201.782495 
L 210.552696 201.782495 
L 210.647769 194.117703 
L 210.717075 194.117703 
L 210.717075 190.285307 
L 212.201603 190.285307 
L 212.201603 186.452911 
L 212.627492 186.452911 
L 212.627492 182.620515 
L 213.563112 182.620515 
L 213.563112 178.788119 
L 214.049952 178.788119 
L 214.049952 174.955723 
L 214.913126 174.955723 
L 214.913126 171.123327 
L 215.745109 171.123327 
L 215.745109 167.290931 
L 216.376065 167.290931 
L 216.433761 159.626139 
L 217.028762 159.626139 
L 217.028762 155.793743 
L 217.221053 155.793743 
L 217.221053 151.961347 
L 217.531827 151.961347 
L 217.531827 148.12895 
L 217.653997 148.12895 
L 217.653997 144.296554 
L 218.322543 144.296554 
L 218.322543 140.464158 
L 219.438736 140.464158 
L 219.438736 136.631762 
L 220.075397 136.631762 
L 220.075397 132.799366 
L 221.633775 132.799366 
L 221.652325 125.134574 
L 222.252727 125.134574 
L 222.252727 121.302178 
L 222.477396 121.302178 
L 222.477396 117.469782 
L 222.597573 117.469782 
L 222.597573 113.637386 
L 222.714459 113.637386 
L 222.714459 109.80499 
L 223.191846 109.80499 
L 223.282065 102.140198 
L 223.763717 102.140198 
L 223.763717 98.307802 
L 224.235324 98.307802 
L 224.235324 94.475406 
L 224.446515 94.475406 
L 224.446515 90.64301 
L 224.769207 90.64301 
L 224.792449 82.978218 
L 225.430606 82.978218 
L 225.430606 79.145822 
L 225.672464 79.145822 
L 225.672464 75.313426 
L 225.955021 75.313426 
L 225.955021 71.48103 
L 226.906698 71.48103 
L 226.920072 63.816238 
L 227.272762 63.816238 
L 227.272762 59.983842 
L 227.587458 59.983842 
L 227.587458 56.151446 
L 227.957951 56.151446 
L 228.014605 48.486653 
L 228.360933 48.486653 
L 228.360933 44.654257 
L 229.162034 44.654257 
L 229.162034 40.821861 
L 229.922042 40.821861 
L 229.922042 36.989465 
L 231.944281 36.989465 
L 231.944281 33.157069 
L 232.122218 33.157069 
L 232.122218 29.324673 
L 246.678934 29.324673 
L 246.678934 25.492277 
L 246.866214 25.492277 
L 246.866214 21.659881 
L 249.203044 21.659881 
L 249.203044 17.827485 
L 249.487793 17.827485 
L 249.487793 13.995089 
L 251.597481 13.995089 
L 251.597481 10.162693 
L 258.152579 10.162693 
L 258.152579 6.330297 
L 258.152579 6.330297 
L 460.8 6.330297 
L 460.8 6.330297 
" clip-path="url(#p2ed04122f6)" style="fill: none; stroke: #00bfbf; stroke-width: 1.5; stroke-linecap: square"/>
   </g>
   <g id="line2d_26">
    <path d="M 53.927912 293.76 
L 53.927912 289.927604 
L 166.938446 289.927604 
L 166.938446 286.095208 
L 173.579496 286.095208 
L 173.579496 282.262812 
L 180.09531 282.262812 
L 180.09531 278.430416 
L 185.900452 278.430416 
L 185.900452 274.59802 
L 188.817992 274.59802 
L 188.817992 270.765624 
L 190.140776 270.765624 
L 190.140776 266.933228 
L 190.447335 266.933228 
L 190.447335 263.100832 
L 192.265929 263.100832 
L 192.265929 259.268436 
L 192.387982 259.268436 
L 192.387982 255.43604 
L 192.701583 255.43604 
L 192.701583 251.603644 
L 193.458129 251.603644 
L 193.458129 247.771248 
L 193.756837 247.771248 
L 193.786293 240.106455 
L 193.893976 240.106455 
L 193.915391 232.441663 
L 194.144993 232.441663 
L 194.144993 228.609267 
L 194.2602 228.609267 
L 194.30522 220.944475 
L 194.46281 220.944475 
L 194.555982 205.614891 
L 194.611022 205.614891 
L 194.711302 197.950099 
L 195.019005 197.950099 
L 195.019005 194.117703 
L 195.160259 194.117703 
L 195.185815 186.452911 
L 195.357071 186.452911 
L 195.357071 182.620515 
L 195.962658 182.620515 
L 195.993508 174.955723 
L 196.313847 174.955723 
L 196.313847 171.123327 
L 196.597045 171.123327 
L 196.682602 163.458535 
L 197.320016 163.458535 
L 197.320016 159.626139 
L 197.537394 159.626139 
L 197.537394 155.793743 
L 197.802999 155.793743 
L 197.802999 151.961347 
L 198.239609 151.961347 
L 198.239609 148.12895 
L 198.479418 148.12895 
L 198.531081 140.464158 
L 198.786952 140.464158 
L 198.786952 136.631762 
L 199.025678 136.631762 
L 199.117533 128.96697 
L 199.199077 128.96697 
L 199.199077 125.134574 
L 200.047922 125.134574 
L 200.047922 121.302178 
L 200.298519 121.302178 
L 200.298519 117.469782 
L 200.47154 117.469782 
L 200.47154 113.637386 
L 200.626789 113.637386 
L 200.733719 105.972594 
L 204.470943 105.972594 
L 204.536742 98.307802 
L 206.025263 98.307802 
L 206.025263 94.475406 
L 206.282741 94.475406 
L 206.282741 90.64301 
L 207.47976 90.64301 
L 207.47976 86.810614 
L 207.677784 86.810614 
L 207.677784 82.978218 
L 208.798561 82.978218 
L 208.798561 79.145822 
L 209.6881 79.145822 
L 209.6881 75.313426 
L 210.756626 75.313426 
L 210.756626 71.48103 
L 211.986211 71.48103 
L 211.986211 67.648634 
L 212.595058 67.648634 
L 212.595058 63.816238 
L 213.228466 63.816238 
L 213.228466 59.983842 
L 214.618496 59.983842 
L 214.65605 52.31905 
L 214.738691 52.31905 
L 214.738691 48.486653 
L 215.407669 48.486653 
L 215.407669 44.654257 
L 216.257758 44.654257 
L 216.257758 40.821861 
L 216.385294 40.821861 
L 216.385294 36.989465 
L 216.647312 36.989465 
L 216.647312 33.157069 
L 217.309617 33.157069 
L 217.337867 25.492277 
L 218.576532 25.492277 
L 218.576532 21.659881 
L 218.760767 21.659881 
L 218.760767 17.827485 
L 218.926917 17.827485 
L 218.926917 13.995089 
L 219.605039 13.995089 
L 219.605039 10.162693 
L 222.112691 10.162693 
L 222.112691 6.330297 
L 222.112691 6.330297 
L 460.8 6.330297 
L 460.8 6.330297 
" clip-path="url(#p2ed04122f6)" style="fill: none; stroke: #bf00bf; stroke-width: 1.5; stroke-linecap: square"/>
   </g>
   <g id="line2d_27">
    <path d="M -1 278.430416 
L 26.472892 278.430416 
L 26.472892 274.59802 
L 99.541474 274.59802 
L 99.541474 270.765624 
L 134.672093 270.765624 
L 134.672093 266.933228 
L 157.609807 266.933228 
L 157.609807 263.100832 
L 170.835102 263.100832 
L 170.835102 259.268436 
L 171.190622 259.268436 
L 171.190622 255.43604 
L 172.715231 255.43604 
L 172.715231 251.603644 
L 178.274541 251.603644 
L 178.274541 247.771248 
L 178.86512 247.771248 
L 178.86512 243.938851 
L 183.62374 243.938851 
L 183.648763 228.609267 
L 183.825951 228.609267 
L 183.825951 224.776871 
L 184.879571 224.776871 
L 184.879571 220.944475 
L 185.465335 220.944475 
L 185.465335 217.112079 
L 185.938644 217.112079 
L 185.938644 209.447287 
L 186.650306 209.447287 
L 186.650306 205.614891 
L 186.808211 205.614891 
L 186.808211 201.782495 
L 187.871921 201.782495 
L 187.871921 197.950099 
L 188.025999 197.950099 
L 188.025999 194.117703 
L 188.228827 194.117703 
L 188.228827 190.285307 
L 189.312316 190.285307 
L 189.413316 182.620515 
L 189.605152 182.620515 
L 189.605152 174.955723 
L 190.368992 174.955723 
L 190.368992 167.290931 
L 190.88687 167.290931 
L 190.950949 159.626139 
L 191.82868 159.626139 
L 191.922792 151.961347 
L 192.274679 151.961347 
L 192.275858 144.296554 
L 192.599831 144.296554 
L 192.599831 140.464158 
L 193.815787 140.464158 
L 193.879186 132.799366 
L 194.105401 132.799366 
L 194.206724 113.637386 
L 194.294419 113.637386 
L 194.294419 109.80499 
L 194.415184 109.80499 
L 194.415184 105.972594 
L 194.956337 105.972594 
L 194.956337 102.140198 
L 195.397527 102.140198 
L 195.397527 98.307802 
L 196.587651 98.307802 
L 196.587651 94.475406 
L 199.114171 94.475406 
L 199.114171 90.64301 
L 204.405474 90.64301 
L 204.405474 86.810614 
L 206.022587 86.810614 
L 206.022587 82.978218 
L 206.234057 82.978218 
L 206.234057 79.145822 
L 206.523189 79.145822 
L 206.558792 71.48103 
L 207.483533 71.48103 
L 207.564551 52.31905 
L 209.331998 52.31905 
L 209.331998 48.486653 
L 209.479671 48.486653 
L 209.479671 44.654257 
L 209.980226 44.654257 
L 209.980226 40.821861 
L 210.097457 40.821861 
L 210.097457 36.989465 
L 211.289139 36.989465 
L 211.367714 29.324673 
L 211.849689 29.324673 
L 211.892676 21.659881 
L 212.587163 21.659881 
L 212.587163 17.827485 
L 213.195117 17.827485 
L 213.195117 13.995089 
L 214.467722 13.995089 
L 214.467722 10.162693 
L 214.64802 10.162693 
L 214.64802 6.330297 
L 214.64802 6.330297 
L 460.8 6.330297 
L 460.8 6.330297 
" clip-path="url(#p2ed04122f6)" style="fill: none; stroke: #000000; stroke-width: 1.5; stroke-linecap: square"/>
   </g>
   <g id="patch_3">
    <path d="M 0 293.76 
L 0 3.456 
" style="fill: none; stroke: #000000; stroke-width: 0.8; stroke-linejoin: miter; stroke-linecap: square"/>
   </g>
   <g id="patch_4">
    <path d="M 460.8 293.76 
L 460.8 3.456 
" style="fill: none; stroke: #000000; stroke-width: 0.8; stroke-linejoin: miter; stroke-linecap: square"/>
   </g>
   <g id="patch_5">
    <path d="M 0 293.76 
L 460.8 293.76 
" style="fill: none; stroke: #000000; stroke-width: 0.8; stroke-linejoin: miter; stroke-linecap: square"/>
   </g>
   <g id="patch_6">
    <path d="M 0 3.456 
L 460.8 3.456 
" style="fill: none; stroke: #000000; stroke-width: 0.8; stroke-linejoin: miter; stroke-linecap: square"/>
   </g>
   <g id="text_6">
    <!-- {f20-f24}, 5-D -->
    <g transform="translate(305.884 287.95392) scale(0.2 -0.2)">
     <defs>
      <path id="DejaVuSans-7b" d="M 3272 -594 
L 3272 -1044 
L 3078 -1044 
Q 2300 -1044 2036 -812 
Q 1772 -581 1772 109 
L 1772 856 
Q 1772 1328 1603 1509 
Q 1434 1691 991 1691 
L 800 1691 
L 800 2138 
L 991 2138 
Q 1438 2138 1605 2317 
Q 1772 2497 1772 2963 
L 1772 3713 
Q 1772 4403 2036 4633 
Q 2300 4863 3078 4863 
L 3272 4863 
L 3272 4416 
L 3059 4416 
Q 2619 4416 2484 4278 
Q 2350 4141 2350 3700 
L 2350 2925 
Q 2350 2434 2208 2212 
Q 2066 1991 1722 1913 
Q 2069 1828 2209 1606 
Q 2350 1384 2350 897 
L 2350 122 
Q 2350 -319 2484 -456 
Q 2619 -594 3059 -594 
L 3272 -594 
z
" transform="scale(0.015625)"/>
      <path id="DejaVuSans-32" d="M 1228 531 
L 3431 531 
L 3431 0 
L 469 0 
L 469 531 
Q 828 903 1448 1529 
Q 2069 2156 2228 2338 
Q 2531 2678 2651 2914 
Q 2772 3150 2772 3378 
Q 2772 3750 2511 3984 
Q 2250 4219 1831 4219 
Q 1534 4219 1204 4116 
Q 875 4013 500 3803 
L 500 4441 
Q 881 4594 1212 4672 
Q 1544 4750 1819 4750 
Q 2544 4750 2975 4387 
Q 3406 4025 3406 3419 
Q 3406 3131 3298 2873 
Q 3191 2616 2906 2266 
Q 2828 2175 2409 1742 
Q 1991 1309 1228 531 
z
" transform="scale(0.015625)"/>
      <path id="DejaVuSans-7d" d="M 800 -594 
L 1019 -594 
Q 1456 -594 1589 -459 
Q 1722 -325 1722 122 
L 1722 897 
Q 1722 1384 1862 1606 
Q 2003 1828 2350 1913 
Q 2003 1991 1862 2212 
Q 1722 2434 1722 2925 
L 1722 3700 
Q 1722 4144 1589 4280 
Q 1456 4416 1019 4416 
L 800 4416 
L 800 4863 
L 997 4863 
Q 1775 4863 2036 4633 
Q 2297 4403 2297 3713 
L 2297 2963 
Q 2297 2497 2465 2317 
Q 2634 2138 3078 2138 
L 3272 2138 
L 3272 1691 
L 3078 1691 
Q 2634 1691 2465 1509 
Q 2297 1328 2297 856 
L 2297 109 
Q 2297 -581 2036 -812 
Q 1775 -1044 997 -1044 
L 800 -1044 
L 800 -594 
z
" transform="scale(0.015625)"/>
      <path id="DejaVuSans-2c" d="M 750 794 
L 1409 794 
L 1409 256 
L 897 -744 
L 494 -744 
L 750 256 
L 750 794 
z
" transform="scale(0.015625)"/>
      <path id="DejaVuSans-35" d="M 691 4666 
L 3169 4666 
L 3169 4134 
L 1269 4134 
L 1269 2991 
Q 1406 3038 1543 3061 
Q 1681 3084 1819 3084 
Q 2600 3084 3056 2656 
Q 3513 2228 3513 1497 
Q 3513 744 3044 326 
Q 2575 -91 1722 -91 
Q 1428 -91 1123 -41 
Q 819 9 494 109 
L 494 744 
Q 775 591 1075 516 
Q 1375 441 1709 441 
Q 2250 441 2565 725 
Q 2881 1009 2881 1497 
Q 2881 1984 2565 2268 
Q 2250 2553 1709 2553 
Q 1456 2553 1204 2497 
Q 953 2441 691 2322 
L 691 4666 
z
" transform="scale(0.015625)"/>
     </defs>
     <use xlink:href="#DejaVuSans-7b"/>
     <use xlink:href="#DejaVuSans-66" x="63.623047"/>
     <use xlink:href="#DejaVuSans-32" x="98.828125"/>
     <use xlink:href="#DejaVuSans-30" x="162.451172"/>
     <use xlink:href="#DejaVuSans-2d" x="226.074219"/>
     <use xlink:href="#DejaVuSans-66" x="262.158203"/>
     <use xlink:href="#DejaVuSans-32" x="297.363281"/>
     <use xlink:href="#DejaVuSans-34" x="360.986328"/>
     <use xlink:href="#DejaVuSans-7d" x="424.609375"/>
     <use xlink:href="#DejaVuSans-2c" x="488.232422"/>
     <use xlink:href="#DejaVuSans-20" x="520.019531"/>
     <use xlink:href="#DejaVuSans-35" x="551.806641"/>
     <use xlink:href="#DejaVuSans-2d" x="615.429688"/>
     <use xlink:href="#DejaVuSans-44" x="651.513672"/>
    </g>
   </g>
   <g id="text_7">
    <!-- v2.6.3 -->
    <g style="fill: #808080" transform="translate(214.71875 288.777272) scale(0.1 -0.1)">
     <defs>
      <path id="DejaVuSans-76" d="M 191 3500 
L 800 3500 
L 1894 563 
L 2988 3500 
L 3597 3500 
L 2284 0 
L 1503 0 
L 191 3500 
z
" transform="scale(0.015625)"/>
      <path id="DejaVuSans-2e" d="M 684 794 
L 1344 794 
L 1344 0 
L 684 0 
L 684 794 
z
" transform="scale(0.015625)"/>
      <path id="DejaVuSans-36" d="M 2113 2584 
Q 1688 2584 1439 2293 
Q 1191 2003 1191 1497 
Q 1191 994 1439 701 
Q 1688 409 2113 409 
Q 2538 409 2786 701 
Q 3034 994 3034 1497 
Q 3034 2003 2786 2293 
Q 2538 2584 2113 2584 
z
M 3366 4563 
L 3366 3988 
Q 3128 4100 2886 4159 
Q 2644 4219 2406 4219 
Q 1781 4219 1451 3797 
Q 1122 3375 1075 2522 
Q 1259 2794 1537 2939 
Q 1816 3084 2150 3084 
Q 2853 3084 3261 2657 
Q 3669 2231 3669 1497 
Q 3669 778 3244 343 
Q 2819 -91 2113 -91 
Q 1303 -91 875 529 
Q 447 1150 447 2328 
Q 447 3434 972 4092 
Q 1497 4750 2381 4750 
Q 2619 4750 2861 4703 
Q 3103 4656 3366 4563 
z
" transform="scale(0.015625)"/>
      <path id="DejaVuSans-33" d="M 2597 2516 
Q 3050 2419 3304 2112 
Q 3559 1806 3559 1356 
Q 3559 666 3084 287 
Q 2609 -91 1734 -91 
Q 1441 -91 1130 -33 
Q 819 25 488 141 
L 488 750 
Q 750 597 1062 519 
Q 1375 441 1716 441 
Q 2309 441 2620 675 
Q 2931 909 2931 1356 
Q 2931 1769 2642 2001 
Q 2353 2234 1838 2234 
L 1294 2234 
L 1294 2753 
L 1863 2753 
Q 2328 2753 2575 2939 
Q 2822 3125 2822 3475 
Q 2822 3834 2567 4026 
Q 2313 4219 1838 4219 
Q 1578 4219 1281 4162 
Q 984 4106 628 3988 
L 628 4550 
Q 988 4650 1302 4700 
Q 1616 4750 1894 4750 
Q 2613 4750 3031 4423 
Q 3450 4097 3450 3541 
Q 3450 3153 3228 2886 
Q 3006 2619 2597 2516 
z
" transform="scale(0.015625)"/>
     </defs>
     <use xlink:href="#DejaVuSans-76"/>
     <use xlink:href="#DejaVuSans-32" x="59.179688"/>
     <use xlink:href="#DejaVuSans-2e" x="122.802734"/>
     <use xlink:href="#DejaVuSans-36" x="154.589844"/>
     <use xlink:href="#DejaVuSans-2e" x="218.212891"/>
     <use xlink:href="#DejaVuSans-33" x="250"/>
    </g>
   </g>
  </g>
 </g>
 <defs>
  <clipPath id="p2ed04122f6">
   <rect x="0" y="3.456" width="460.8" height="290.304"/>
  </clipPath>
 </defs>
</svg>
