<?xml version="1.0" encoding="utf-8" standalone="no"?>
<!DOCTYPE svg PUBLIC "-//W3C//DTD SVG 1.1//EN"
  "http://www.w3.org/Graphics/SVG/1.1/DTD/svg11.dtd">
<svg xmlns:xlink="http://www.w3.org/1999/xlink" width="460.8pt" height="345.6pt" viewBox="0 0 460.8 345.6" xmlns="http://www.w3.org/2000/svg" version="1.1">
 <metadata>
  <rdf:RDF xmlns:dc="http://purl.org/dc/elements/1.1/" xmlns:cc="http://creativecommons.org/ns#" xmlns:rdf="http://www.w3.org/1999/02/22-rdf-syntax-ns#">
   <cc:Work>
    <dc:type rdf:resource="http://purl.org/dc/dcmitype/StillImage"/>
    <dc:date>2024-06-22T00:24:27.616061</dc:date>
    <dc:format>image/svg+xml</dc:format>
    <dc:creator>
     <cc:Agent>
      <dc:title>Matplotlib v3.7.5, https://matplotlib.org/</dc:title>
     </cc:Agent>
    </dc:creator>
   </cc:Work>
  </rdf:RDF>
 </metadata>
 <defs>
  <style type="text/css">*{stroke-linejoin: round; stroke-linecap: butt}</style>
 </defs>
 <g id="figure_1">
  <g id="patch_1">
   <path d="M 0 345.6 
L 460.8 345.6 
L 460.8 0 
L 0 0 
z
" style="fill: #ffffff"/>
  </g>
  <g id="axes_1">
   <g id="patch_2">
    <path d="M 0 293.76 
L 460.8 293.76 
L 460.8 3.456 
L 0 3.456 
z
" style="fill: #ffffff"/>
   </g>
   <g id="matplotlib.axis_1">
    <g id="xtick_1">
     <g id="line2d_1">
      <path d="M 93.564167 293.76 
L 93.564167 3.456 
" clip-path="url(#p4048cc2805)" style="fill: none; stroke: #b0b0b0; stroke-width: 0.8; stroke-linecap: square"/>
     </g>
     <g id="line2d_2">
      <defs>
       <path id="mf6a9f32bcc" d="M 0 0 
L 0 3.5 
" style="stroke: #000000; stroke-width: 0.8"/>
      </defs>
      <g>
       <use xlink:href="#mf6a9f32bcc" x="93.564167" y="293.76" style="stroke: #000000; stroke-width: 0.8"/>
      </g>
     </g>
     <g id="text_1">
      <!-- -4 -->
      <g transform="translate(83.593854 315.956875) scale(0.2 -0.2)">
       <defs>
        <path id="DejaVuSans-2d" d="M 313 2009 
L 1997 2009 
L 1997 1497 
L 313 1497 
L 313 2009 
z
" transform="scale(0.015625)"/>
        <path id="DejaVuSans-34" d="M 2419 4116 
L 825 1625 
L 2419 1625 
L 2419 4116 
z
M 2253 4666 
L 3047 4666 
L 3047 1625 
L 3713 1625 
L 3713 1100 
L 3047 1100 
L 3047 0 
L 2419 0 
L 2419 1100 
L 313 1100 
L 313 1709 
L 2253 4666 
z
" transform="scale(0.015625)"/>
       </defs>
       <use xlink:href="#DejaVuSans-2d"/>
       <use xlink:href="#DejaVuSans-34" x="36.083984"/>
      </g>
     </g>
    </g>
    <g id="xtick_2">
     <g id="line2d_3">
      <path d="M 187.229525 293.76 
L 187.229525 3.456 
" clip-path="url(#p4048cc2805)" style="fill: none; stroke: #b0b0b0; stroke-width: 0.8; stroke-linecap: square"/>
     </g>
     <g id="line2d_4">
      <g>
       <use xlink:href="#mf6a9f32bcc" x="187.229525" y="293.76" style="stroke: #000000; stroke-width: 0.8"/>
      </g>
     </g>
     <g id="text_2">
      <!-- 0 -->
      <g transform="translate(180.867025 315.956875) scale(0.2 -0.2)">
       <defs>
        <path id="DejaVuSans-30" d="M 2034 4250 
Q 1547 4250 1301 3770 
Q 1056 3291 1056 2328 
Q 1056 1369 1301 889 
Q 1547 409 2034 409 
Q 2525 409 2770 889 
Q 3016 1369 3016 2328 
Q 3016 3291 2770 3770 
Q 2525 4250 2034 4250 
z
M 2034 4750 
Q 2819 4750 3233 4129 
Q 3647 3509 3647 2328 
Q 3647 1150 3233 529 
Q 2819 -91 2034 -91 
Q 1250 -91 836 529 
Q 422 1150 422 2328 
Q 422 3509 836 4129 
Q 1250 4750 2034 4750 
z
" transform="scale(0.015625)"/>
       </defs>
       <use xlink:href="#DejaVuSans-30"/>
      </g>
     </g>
    </g>
    <g id="xtick_3">
     <g id="line2d_5">
      <path d="M 280.894882 293.76 
L 280.894882 3.456 
" clip-path="url(#p4048cc2805)" style="fill: none; stroke: #b0b0b0; stroke-width: 0.8; stroke-linecap: square"/>
     </g>
     <g id="line2d_6">
      <g>
       <use xlink:href="#mf6a9f32bcc" x="280.894882" y="293.76" style="stroke: #000000; stroke-width: 0.8"/>
      </g>
     </g>
     <g id="text_3">
      <!-- 4 -->
      <g transform="translate(274.532382 315.956875) scale(0.2 -0.2)">
       <use xlink:href="#DejaVuSans-34"/>
      </g>
     </g>
    </g>
    <g id="xtick_4">
     <g id="line2d_7">
      <path d="M 374.56024 293.76 
L 374.56024 3.456 
" clip-path="url(#p4048cc2805)" style="fill: none; stroke: #b0b0b0; stroke-width: 0.8; stroke-linecap: square"/>
     </g>
     <g id="line2d_8">
      <g>
       <use xlink:href="#mf6a9f32bcc" x="374.56024" y="293.76" style="stroke: #000000; stroke-width: 0.8"/>
      </g>
     </g>
     <g id="text_4">
      <!-- 8 -->
      <g transform="translate(368.19774 315.956875) scale(0.2 -0.2)">
       <defs>
        <path id="DejaVuSans-38" d="M 2034 2216 
Q 1584 2216 1326 1975 
Q 1069 1734 1069 1313 
Q 1069 891 1326 650 
Q 1584 409 2034 409 
Q 2484 409 2743 651 
Q 3003 894 3003 1313 
Q 3003 1734 2745 1975 
Q 2488 2216 2034 2216 
z
M 1403 2484 
Q 997 2584 770 2862 
Q 544 3141 544 3541 
Q 544 4100 942 4425 
Q 1341 4750 2034 4750 
Q 2731 4750 3128 4425 
Q 3525 4100 3525 3541 
Q 3525 3141 3298 2862 
Q 3072 2584 2669 2484 
Q 3125 2378 3379 2068 
Q 3634 1759 3634 1313 
Q 3634 634 3220 271 
Q 2806 -91 2034 -91 
Q 1263 -91 848 271 
Q 434 634 434 1313 
Q 434 1759 690 2068 
Q 947 2378 1403 2484 
z
M 1172 3481 
Q 1172 3119 1398 2916 
Q 1625 2713 2034 2713 
Q 2441 2713 2670 2916 
Q 2900 3119 2900 3481 
Q 2900 3844 2670 4047 
Q 2441 4250 2034 4250 
Q 1625 4250 1398 4047 
Q 1172 3844 1172 3481 
z
" transform="scale(0.015625)"/>
       </defs>
       <use xlink:href="#DejaVuSans-38"/>
      </g>
     </g>
    </g>
    <g id="text_5">
     <!-- log10 of Df -->
     <g transform="translate(175.214063 339.313125) scale(0.2 -0.2)">
      <defs>
       <path id="DejaVuSans-6c" d="M 603 4863 
L 1178 4863 
L 1178 0 
L 603 0 
L 603 4863 
z
" transform="scale(0.015625)"/>
       <path id="DejaVuSans-6f" d="M 1959 3097 
Q 1497 3097 1228 2736 
Q 959 2375 959 1747 
Q 959 1119 1226 758 
Q 1494 397 1959 397 
Q 2419 397 2687 759 
Q 2956 1122 2956 1747 
Q 2956 2369 2687 2733 
Q 2419 3097 1959 3097 
z
M 1959 3584 
Q 2709 3584 3137 3096 
Q 3566 2609 3566 1747 
Q 3566 888 3137 398 
Q 2709 -91 1959 -91 
Q 1206 -91 779 398 
Q 353 888 353 1747 
Q 353 2609 779 3096 
Q 1206 3584 1959 3584 
z
" transform="scale(0.015625)"/>
       <path id="DejaVuSans-67" d="M 2906 1791 
Q 2906 2416 2648 2759 
Q 2391 3103 1925 3103 
Q 1463 3103 1205 2759 
Q 947 2416 947 1791 
Q 947 1169 1205 825 
Q 1463 481 1925 481 
Q 2391 481 2648 825 
Q 2906 1169 2906 1791 
z
M 3481 434 
Q 3481 -459 3084 -895 
Q 2688 -1331 1869 -1331 
Q 1566 -1331 1297 -1286 
Q 1028 -1241 775 -1147 
L 775 -588 
Q 1028 -725 1275 -790 
Q 1522 -856 1778 -856 
Q 2344 -856 2625 -561 
Q 2906 -266 2906 331 
L 2906 616 
Q 2728 306 2450 153 
Q 2172 0 1784 0 
Q 1141 0 747 490 
Q 353 981 353 1791 
Q 353 2603 747 3093 
Q 1141 3584 1784 3584 
Q 2172 3584 2450 3431 
Q 2728 3278 2906 2969 
L 2906 3500 
L 3481 3500 
L 3481 434 
z
" transform="scale(0.015625)"/>
       <path id="DejaVuSans-31" d="M 794 531 
L 1825 531 
L 1825 4091 
L 703 3866 
L 703 4441 
L 1819 4666 
L 2450 4666 
L 2450 531 
L 3481 531 
L 3481 0 
L 794 0 
L 794 531 
z
" transform="scale(0.015625)"/>
       <path id="DejaVuSans-20" transform="scale(0.015625)"/>
       <path id="DejaVuSans-66" d="M 2375 4863 
L 2375 4384 
L 1825 4384 
Q 1516 4384 1395 4259 
Q 1275 4134 1275 3809 
L 1275 3500 
L 2222 3500 
L 2222 3053 
L 1275 3053 
L 1275 0 
L 697 0 
L 697 3053 
L 147 3053 
L 147 3500 
L 697 3500 
L 697 3744 
Q 697 4328 969 4595 
Q 1241 4863 1831 4863 
L 2375 4863 
z
" transform="scale(0.015625)"/>
       <path id="DejaVuSans-44" d="M 1259 4147 
L 1259 519 
L 2022 519 
Q 2988 519 3436 956 
Q 3884 1394 3884 2338 
Q 3884 3275 3436 3711 
Q 2988 4147 2022 4147 
L 1259 4147 
z
M 628 4666 
L 1925 4666 
Q 3281 4666 3915 4102 
Q 4550 3538 4550 2338 
Q 4550 1131 3912 565 
Q 3275 0 1925 0 
L 628 0 
L 628 4666 
z
" transform="scale(0.015625)"/>
      </defs>
      <use xlink:href="#DejaVuSans-6c"/>
      <use xlink:href="#DejaVuSans-6f" x="27.783203"/>
      <use xlink:href="#DejaVuSans-67" x="88.964844"/>
      <use xlink:href="#DejaVuSans-31" x="152.441406"/>
      <use xlink:href="#DejaVuSans-30" x="216.064453"/>
      <use xlink:href="#DejaVuSans-20" x="279.6875"/>
      <use xlink:href="#DejaVuSans-6f" x="311.474609"/>
      <use xlink:href="#DejaVuSans-66" x="372.65625"/>
      <use xlink:href="#DejaVuSans-20" x="407.861328"/>
      <use xlink:href="#DejaVuSans-44" x="439.648438"/>
      <use xlink:href="#DejaVuSans-66" x="516.650391"/>
     </g>
    </g>
   </g>
   <g id="matplotlib.axis_2">
    <g id="ytick_1">
     <g id="line2d_9">
      <path d="M 0 293.76 
L 460.8 293.76 
" clip-path="url(#p4048cc2805)" style="fill: none; stroke: #b0b0b0; stroke-width: 0.8; stroke-linecap: square"/>
     </g>
     <g id="line2d_10">
      <defs>
       <path id="ma378a28dff" d="M 0 0 
L -3.5 0 
" style="stroke: #000000; stroke-width: 0.8"/>
      </defs>
      <g>
       <use xlink:href="#ma378a28dff" x="0" y="293.76" style="stroke: #000000; stroke-width: 0.8"/>
      </g>
     </g>
    </g>
    <g id="ytick_2">
     <g id="line2d_11">
      <path d="M 0 236.274059 
L 460.8 236.274059 
" clip-path="url(#p4048cc2805)" style="fill: none; stroke: #b0b0b0; stroke-width: 0.8; stroke-linecap: square"/>
     </g>
     <g id="line2d_12">
      <g>
       <use xlink:href="#ma378a28dff" x="0" y="236.274059" style="stroke: #000000; stroke-width: 0.8"/>
      </g>
     </g>
    </g>
    <g id="ytick_3">
     <g id="line2d_13">
      <path d="M 0 178.788119 
L 460.8 178.788119 
" clip-path="url(#p4048cc2805)" style="fill: none; stroke: #b0b0b0; stroke-width: 0.8; stroke-linecap: square"/>
     </g>
     <g id="line2d_14">
      <g>
       <use xlink:href="#ma378a28dff" x="0" y="178.788119" style="stroke: #000000; stroke-width: 0.8"/>
      </g>
     </g>
    </g>
    <g id="ytick_4">
     <g id="line2d_15">
      <path d="M 0 121.302178 
L 460.8 121.302178 
" clip-path="url(#p4048cc2805)" style="fill: none; stroke: #b0b0b0; stroke-width: 0.8; stroke-linecap: square"/>
     </g>
     <g id="line2d_16">
      <g>
       <use xlink:href="#ma378a28dff" x="0" y="121.302178" style="stroke: #000000; stroke-width: 0.8"/>
      </g>
     </g>
    </g>
    <g id="ytick_5">
     <g id="line2d_17">
      <path d="M 0 63.816238 
L 460.8 63.816238 
" clip-path="url(#p4048cc2805)" style="fill: none; stroke: #b0b0b0; stroke-width: 0.8; stroke-linecap: square"/>
     </g>
     <g id="line2d_18">
      <g>
       <use xlink:href="#ma378a28dff" x="0" y="63.816238" style="stroke: #000000; stroke-width: 0.8"/>
      </g>
     </g>
    </g>
    <g id="ytick_6">
     <g id="line2d_19">
      <path d="M 0 6.330297 
L 460.8 6.330297 
" clip-path="url(#p4048cc2805)" style="fill: none; stroke: #b0b0b0; stroke-width: 0.8; stroke-linecap: square"/>
     </g>
     <g id="line2d_20">
      <g>
       <use xlink:href="#ma378a28dff" x="0" y="6.330297" style="stroke: #000000; stroke-width: 0.8"/>
      </g>
     </g>
    </g>
   </g>
   <g id="line2d_21">
    <path d="M -0.101191 293.76 
L -0.101191 286.095208 
L 18.331747 286.095208 
L 18.331747 282.262812 
L 26.252729 282.262812 
L 26.252729 278.430416 
L 58.845245 278.430416 
L 58.845245 274.59802 
L 157.489256 274.59802 
L 157.489256 270.765624 
L 172.583126 270.765624 
L 172.583126 266.933228 
L 172.973301 266.933228 
L 172.973301 263.100832 
L 183.483292 263.100832 
L 183.483292 251.603644 
L 184.737883 251.603644 
L 184.737883 247.771248 
L 186.491482 247.771248 
L 186.491483 240.106455 
L 186.875985 240.106455 
L 186.958194 232.441663 
L 187.085089 232.441663 
L 187.085089 228.609267 
L 187.26169 228.609267 
L 187.26169 224.776871 
L 187.87918 224.776871 
L 187.87918 220.944475 
L 188.408337 220.944475 
L 188.408337 217.112079 
L 189.245017 217.112079 
L 189.245017 213.279683 
L 189.46013 213.279683 
L 189.46013 209.447287 
L 189.785936 209.447287 
L 189.785936 205.614891 
L 191.354606 205.614891 
L 191.354606 201.782495 
L 192.127614 201.782495 
L 192.127614 197.950099 
L 192.240831 197.950099 
L 192.240831 194.117703 
L 192.845477 194.117703 
L 192.845477 190.285307 
L 193.767071 190.285307 
L 193.767071 186.452911 
L 193.956936 186.452911 
L 194.058181 167.290931 
L 194.14581 167.290931 
L 194.14581 163.458535 
L 194.314072 163.458535 
L 194.314072 155.793743 
L 194.805489 155.793743 
L 194.887847 148.12895 
L 195.812773 148.12895 
L 195.812773 144.296554 
L 196.163693 144.296554 
L 196.176572 136.631762 
L 196.310627 136.631762 
L 196.310627 132.799366 
L 196.437287 132.799366 
L 196.437287 121.302178 
L 197.169092 121.302178 
L 197.169092 117.469782 
L 197.386304 117.469782 
L 197.386304 113.637386 
L 197.539644 113.637386 
L 197.539644 109.80499 
L 197.994453 109.80499 
L 197.994453 105.972594 
L 198.961875 105.972594 
L 198.961875 98.307802 
L 203.723652 98.307802 
L 203.723652 90.64301 
L 205.865007 90.64301 
L 205.865007 82.978218 
L 206.400802 82.978218 
L 206.400802 79.145822 
L 207.405786 79.145822 
L 207.405786 67.648634 
L 209.035923 67.648634 
L 209.035923 63.816238 
L 209.819619 63.816238 
L 209.819619 59.983842 
L 209.933406 59.983842 
L 209.933406 56.151446 
L 210.552032 56.151446 
L 210.552032 52.31905 
L 210.718409 52.31905 
L 210.718409 48.486653 
L 210.978939 48.486653 
L 210.978939 44.654257 
L 211.730606 44.654257 
L 211.730606 40.821861 
L 212.182288 40.821861 
L 212.182288 36.989465 
L 212.965177 36.989465 
L 212.965177 33.157069 
L 214.281631 33.157069 
L 214.303683 25.492277 
L 214.483843 25.492277 
L 214.483843 21.659881 
L 216.659909 21.659881 
L 216.659909 17.827485 
L 217.367845 17.827485 
L 217.367845 13.995089 
L 217.648855 13.995089 
L 217.648855 10.162693 
L 218.561691 10.162693 
L 218.561691 6.330297 
L 218.561691 6.330297 
L 460.8 6.330297 
L 460.8 6.330297 
" clip-path="url(#p4048cc2805)" style="fill: none; stroke: #ff0000; stroke-width: 3; stroke-linecap: square"/>
   </g>
   <g id="line2d_22">
    <path d="M 200.108739 293.76 
L 200.108739 289.927604 
L 206.694278 289.927604 
L 206.694278 286.095208 
L 210.331947 286.095208 
L 210.331947 282.262812 
L 212.560918 282.262812 
L 212.560918 278.430416 
L 213.015813 278.430416 
L 213.015813 274.59802 
L 214.5584 274.59802 
L 214.5584 270.765624 
L 215.157179 270.765624 
L 215.157179 266.933228 
L 215.854757 266.933228 
L 215.870279 259.268436 
L 216.860028 259.268436 
L 216.917037 251.603644 
L 217.037566 251.603644 
L 217.087772 243.938851 
L 218.243538 243.938851 
L 218.243538 240.106455 
L 218.477867 240.106455 
L 218.477867 236.274059 
L 219.370822 236.274059 
L 219.370822 232.441663 
L 219.910961 232.441663 
L 219.910961 228.609267 
L 220.713498 228.609267 
L 220.713498 224.776871 
L 220.879534 224.776871 
L 220.879534 220.944475 
L 221.322263 220.944475 
L 221.322263 217.112079 
L 223.290429 217.112079 
L 223.290429 213.279683 
L 224.087917 213.279683 
L 224.087917 209.447287 
L 225.104394 209.447287 
L 225.104394 205.614891 
L 227.525825 205.614891 
L 227.525825 201.782495 
L 227.728115 201.782495 
L 227.772186 194.117703 
L 229.214197 194.117703 
L 229.214197 190.285307 
L 229.640976 190.285307 
L 229.677266 182.620515 
L 229.871376 182.620515 
L 229.924934 174.955723 
L 230.030018 174.955723 
L 230.030018 171.123327 
L 230.265688 171.123327 
L 230.265688 167.290931 
L 230.487165 167.290931 
L 230.580647 151.961347 
L 230.723665 151.961347 
L 230.723665 148.12895 
L 230.859359 148.12895 
L 230.859359 144.296554 
L 231.300475 144.296554 
L 231.300475 140.464158 
L 231.435792 140.464158 
L 231.435792 136.631762 
L 231.644553 136.631762 
L 231.727504 128.96697 
L 232.001358 128.96697 
L 232.100664 117.469782 
L 232.287316 117.469782 
L 232.287316 113.637386 
L 232.418853 113.637386 
L 232.418853 109.80499 
L 232.534352 109.80499 
L 232.534352 105.972594 
L 233.084988 105.972594 
L 233.084988 102.140198 
L 234.07522 102.140198 
L 234.07522 98.307802 
L 235.235912 98.307802 
L 235.235912 94.475406 
L 235.603465 94.475406 
L 235.603465 90.64301 
L 235.910828 90.64301 
L 235.910828 86.810614 
L 236.217613 86.810614 
L 236.217613 82.978218 
L 236.3566 82.978218 
L 236.3566 79.145822 
L 237.07616 79.145822 
L 237.07616 75.313426 
L 238.562107 75.313426 
L 238.562107 71.48103 
L 238.96454 71.48103 
L 238.96454 67.648634 
L 239.30911 67.648634 
L 239.30911 63.816238 
L 277.421467 63.816238 
L 277.421467 59.983842 
L 280.386778 59.983842 
L 280.386778 56.151446 
L 284.474717 56.151446 
L 284.476752 44.654257 
L 284.929727 44.654257 
L 284.929727 40.821861 
L 286.027792 40.821861 
L 286.027792 36.989465 
L 286.866998 36.989465 
L 286.866998 33.157069 
L 292.466726 33.157069 
L 292.466726 29.324673 
L 292.739503 29.324673 
L 292.739503 25.492277 
L 294.137198 25.492277 
L 294.137198 21.659881 
L 300.087564 21.659881 
L 300.087564 17.827485 
L 300.788371 17.827485 
L 300.788371 13.995089 
L 303.853363 13.995089 
L 303.853363 10.162693 
L 305.46688 10.162693 
L 305.46688 6.330297 
L 305.46688 6.330297 
L 460.8 6.330297 
L 460.8 6.330297 
" clip-path="url(#p4048cc2805)" style="fill: none; stroke: #00bfbf; stroke-width: 1.5; stroke-linecap: square"/>
   </g>
   <g id="line2d_23">
    <path d="M 200.108739 293.76 
L 200.198658 286.095208 
L 205.519902 286.095208 
L 205.519902 282.262812 
L 206.694278 282.262812 
L 206.694278 278.430416 
L 207.493829 278.430416 
L 207.493829 274.59802 
L 209.027648 274.59802 
L 209.027648 270.765624 
L 210.42421 270.765624 
L 210.486652 263.100832 
L 212.560918 263.100832 
L 212.560918 259.268436 
L 214.042319 259.268436 
L 214.042319 255.43604 
L 214.551437 255.43604 
L 214.551437 251.603644 
L 215.457151 251.603644 
L 215.457151 247.771248 
L 215.870279 247.771248 
L 215.870279 243.938851 
L 216.163514 243.938851 
L 216.163514 240.106455 
L 216.860028 240.106455 
L 216.860028 236.274059 
L 217.037566 236.274059 
L 217.087772 228.609267 
L 217.984525 228.609267 
L 217.984525 224.776871 
L 218.243538 224.776871 
L 218.243538 220.944475 
L 218.477867 220.944475 
L 218.477867 217.112079 
L 219.910961 217.112079 
L 219.910961 213.279683 
L 220.713498 213.279683 
L 220.713498 209.447287 
L 222.804491 209.447287 
L 222.804491 205.614891 
L 223.290429 205.614891 
L 223.290429 201.782495 
L 224.087917 201.782495 
L 224.173353 194.117703 
L 225.273322 194.117703 
L 225.273322 190.285307 
L 225.929737 190.285307 
L 225.929737 186.452911 
L 226.051363 186.452911 
L 226.051363 182.620515 
L 226.94674 182.620515 
L 227.050593 171.123327 
L 227.149553 171.123327 
L 227.149553 167.290931 
L 227.525825 167.290931 
L 227.525825 163.458535 
L 227.772186 163.458535 
L 227.772186 159.626139 
L 228.436255 159.626139 
L 228.436255 155.793743 
L 228.878047 155.793743 
L 228.878047 151.961347 
L 229.640976 151.961347 
L 229.640976 148.12895 
L 229.924934 148.12895 
L 230.030018 140.464158 
L 230.367363 140.464158 
L 230.386214 132.799366 
L 230.48109 132.799366 
L 230.580647 121.302178 
L 231.435792 121.302178 
L 231.435792 117.469782 
L 231.84193 117.469782 
L 231.84193 113.637386 
L 232.287316 113.637386 
L 232.287316 109.80499 
L 232.534352 109.80499 
L 232.534352 105.972594 
L 232.850523 105.972594 
L 232.850523 102.140198 
L 233.084988 102.140198 
L 233.084988 98.307802 
L 234.07522 98.307802 
L 234.07522 94.475406 
L 234.926889 94.475406 
L 234.926889 90.64301 
L 235.235912 90.64301 
L 235.235912 86.810614 
L 235.603465 86.810614 
L 235.603465 82.978218 
L 235.85461 82.978218 
L 235.910828 75.313426 
L 236.217613 75.313426 
L 236.217613 71.48103 
L 236.924426 71.48103 
L 236.924426 67.648634 
L 237.771248 67.648634 
L 237.771248 63.816238 
L 269.895441 63.816238 
L 269.897557 56.151446 
L 272.089684 56.151446 
L 272.100324 48.486653 
L 277.421467 48.486653 
L 277.421467 44.654257 
L 280.406318 44.654257 
L 280.406318 40.821861 
L 281.948004 40.821861 
L 281.948004 36.989465 
L 284.446259 36.989465 
L 284.474717 25.492277 
L 284.929727 25.492277 
L 284.929727 21.659881 
L 286.027792 21.659881 
L 286.027792 17.827485 
L 286.866998 17.827485 
L 286.866998 13.995089 
L 292.002043 13.995089 
L 292.002043 10.162693 
L 292.466726 10.162693 
L 292.466726 6.330297 
L 292.466726 6.330297 
L 460.8 6.330297 
L 460.8 6.330297 
" clip-path="url(#p4048cc2805)" style="fill: none; stroke: #bf00bf; stroke-width: 1.5; stroke-linecap: square"/>
   </g>
   <g id="line2d_24">
    <path d="M 200.108739 293.76 
L 200.198658 286.095208 
L 205.519902 286.095208 
L 205.519902 282.262812 
L 205.840396 282.262812 
L 205.840396 278.430416 
L 206.694278 278.430416 
L 206.694278 274.59802 
L 207.624633 274.59802 
L 207.624633 270.765624 
L 207.94794 270.765624 
L 207.94794 266.933228 
L 209.027648 266.933228 
L 209.027648 263.100832 
L 209.791801 263.100832 
L 209.791801 259.268436 
L 210.063841 259.268436 
L 210.063841 255.43604 
L 210.486652 255.43604 
L 210.555904 247.771248 
L 210.95274 247.771248 
L 210.95274 243.938851 
L 212.2573 243.938851 
L 212.2573 240.106455 
L 212.471139 240.106455 
L 212.471139 236.274059 
L 213.000398 236.274059 
L 213.000398 232.441663 
L 213.399764 232.441663 
L 213.399764 228.609267 
L 214.128847 228.609267 
L 214.128847 224.776871 
L 216.402528 224.776871 
L 216.402528 220.944475 
L 217.037566 220.944475 
L 217.037566 217.112079 
L 217.755443 217.112079 
L 217.755443 213.279683 
L 217.952691 213.279683 
L 217.952691 209.447287 
L 218.243538 209.447287 
L 218.243538 205.614891 
L 219.907068 205.614891 
L 219.907068 201.782495 
L 220.713498 201.782495 
L 220.713498 197.950099 
L 221.108757 197.950099 
L 221.108757 194.117703 
L 221.601644 194.117703 
L 221.601644 190.285307 
L 222.804491 190.285307 
L 222.804491 186.452911 
L 223.290429 186.452911 
L 223.290429 182.620515 
L 224.063814 182.620515 
L 224.173353 171.123327 
L 224.486621 171.123327 
L 224.486621 167.290931 
L 226.60619 167.290931 
L 226.60619 163.458535 
L 227.150619 163.458535 
L 227.150619 159.626139 
L 227.525825 159.626139 
L 227.525825 155.793743 
L 227.772186 155.793743 
L 227.772186 151.961347 
L 228.436255 151.961347 
L 228.52816 144.296554 
L 228.677122 144.296554 
L 228.677122 140.464158 
L 228.878047 140.464158 
L 228.986756 132.799366 
L 229.640976 132.799366 
L 229.640976 128.96697 
L 229.924934 128.96697 
L 230.030018 117.469782 
L 230.25007 117.469782 
L 230.342346 105.972594 
L 230.368516 105.972594 
L 230.368516 102.140198 
L 230.495964 102.140198 
L 230.495964 98.307802 
L 230.670714 98.307802 
L 230.670714 94.475406 
L 230.903979 94.475406 
L 230.903979 90.64301 
L 231.803044 90.64301 
L 231.891393 82.978218 
L 232.287316 82.978218 
L 232.361565 75.313426 
L 233.134095 75.313426 
L 233.134095 71.48103 
L 235.082774 71.48103 
L 235.082774 67.648634 
L 235.708072 67.648634 
L 235.708072 63.816238 
L 259.628421 63.816238 
L 259.628421 59.983842 
L 261.156476 59.983842 
L 261.163668 48.486653 
L 268.354708 48.486653 
L 268.354708 44.654257 
L 269.897557 44.654257 
L 269.897557 40.821861 
L 271.967591 40.821861 
L 271.967591 36.989465 
L 272.089684 36.989465 
L 272.100324 29.324673 
L 272.281851 29.324673 
L 272.281851 25.492277 
L 280.941897 25.492277 
L 280.941897 21.659881 
L 284.446259 21.659881 
L 284.446259 17.827485 
L 285.944795 17.827485 
L 286.027792 10.162693 
L 287.022427 10.162693 
L 287.022427 6.330297 
L 287.022427 6.330297 
L 460.8 6.330297 
L 460.8 6.330297 
" clip-path="url(#p4048cc2805)" style="fill: none; stroke: #000000; stroke-width: 1.5; stroke-linecap: square"/>
   </g>
   <g id="line2d_25">
    <path d="M 195.804169 293.76 
L 195.804169 286.095208 
L 196.89619 286.095208 
L 196.89619 282.262812 
L 197.808496 282.262812 
L 197.808496 278.430416 
L 198.174002 278.430416 
L 198.174002 274.59802 
L 199.293319 274.59802 
L 199.325868 266.933228 
L 200.064958 266.933228 
L 200.108739 259.268436 
L 200.198658 259.268436 
L 200.198658 255.43604 
L 200.895099 255.43604 
L 200.895099 251.603644 
L 201.361434 251.603644 
L 201.377284 243.938851 
L 201.586157 243.938851 
L 201.586157 240.106455 
L 202.481243 240.106455 
L 202.481243 236.274059 
L 202.61452 236.274059 
L 202.61452 232.441663 
L 203.314684 232.441663 
L 203.314684 228.609267 
L 203.966644 228.609267 
L 203.966644 224.776871 
L 204.315285 224.776871 
L 204.315285 220.944475 
L 204.825232 220.944475 
L 204.825232 217.112079 
L 206.254547 217.112079 
L 206.254547 213.279683 
L 206.727515 213.279683 
L 206.727515 209.447287 
L 208.604844 209.447287 
L 208.604844 205.614891 
L 210.18852 205.614891 
L 210.18852 201.782495 
L 210.391651 201.782495 
L 210.486652 194.117703 
L 210.555904 194.117703 
L 210.555904 190.285307 
L 212.039296 190.285307 
L 212.039296 186.452911 
L 212.46486 186.452911 
L 212.46486 182.620515 
L 213.399764 182.620515 
L 213.399764 178.788119 
L 213.886232 178.788119 
L 213.886232 174.955723 
L 214.748746 174.955723 
L 214.748746 171.123327 
L 215.580092 171.123327 
L 215.580092 167.290931 
L 216.210566 167.290931 
L 216.268218 159.626139 
L 216.862763 159.626139 
L 216.862763 155.793743 
L 217.054908 155.793743 
L 217.054908 151.961347 
L 217.365444 151.961347 
L 217.365444 148.12895 
L 217.487521 148.12895 
L 217.487521 144.296554 
L 218.155555 144.296554 
L 218.155555 140.464158 
L 219.270895 140.464158 
L 219.270895 136.631762 
L 219.907068 136.631762 
L 219.907068 132.799366 
L 221.464254 132.799366 
L 221.48279 125.134574 
L 222.082733 125.134574 
L 222.082733 121.302178 
L 222.30723 121.302178 
L 222.30723 117.469782 
L 222.427315 117.469782 
L 222.427315 113.637386 
L 222.544112 113.637386 
L 222.544112 109.80499 
L 223.021134 109.80499 
L 223.111284 102.140198 
L 223.592568 102.140198 
L 223.592568 98.307802 
L 224.063814 98.307802 
L 224.063814 94.475406 
L 224.274843 94.475406 
L 224.274843 90.64301 
L 224.597288 90.64301 
L 224.620513 82.978218 
L 225.258182 82.978218 
L 225.258182 79.145822 
L 225.499854 79.145822 
L 225.499854 75.313426 
L 225.782195 75.313426 
L 225.782195 71.48103 
L 226.733145 71.48103 
L 226.746509 63.816238 
L 227.098929 63.816238 
L 227.098929 59.983842 
L 227.413384 59.983842 
L 227.413384 56.151446 
L 227.783594 56.151446 
L 227.840204 48.486653 
L 228.186267 48.486653 
L 228.186267 44.654257 
L 228.986756 44.654257 
L 228.986756 40.821861 
L 229.746183 40.821861 
L 229.746183 36.989465 
L 231.766875 36.989465 
L 231.766875 33.157069 
L 231.944675 33.157069 
L 231.944675 29.324673 
L 246.490257 29.324673 
L 246.490257 25.492277 
L 246.677394 25.492277 
L 246.677394 21.659881 
L 249.012437 21.659881 
L 249.012437 17.827485 
L 249.296968 17.827485 
L 249.296968 13.995089 
L 251.405042 13.995089 
L 251.405042 10.162693 
L 257.955127 10.162693 
L 257.955127 6.330297 
L 257.955127 6.330297 
L 460.8 6.330297 
L 460.8 6.330297 
" clip-path="url(#p4048cc2805)" style="fill: none; stroke: #00bfbf; stroke-width: 1.5; stroke-linecap: square"/>
   </g>
   <g id="line2d_26">
    <path d="M 53.886664 293.76 
L 53.886664 289.927604 
L 166.81076 289.927604 
L 166.81076 286.095208 
L 173.446731 286.095208 
L 173.446731 282.262812 
L 179.957561 282.262812 
L 179.957561 278.430416 
L 185.758263 278.430416 
L 185.758263 274.59802 
L 188.673571 274.59802 
L 188.673571 270.765624 
L 189.785936 270.765624 
L 189.785936 266.933228 
L 189.995344 266.933228 
L 189.995344 263.100832 
L 190.301668 263.100832 
L 190.301668 259.268436 
L 192.118871 259.268436 
L 192.118871 255.43604 
L 192.240831 255.43604 
L 192.240831 251.603644 
L 192.554191 251.603644 
L 192.554191 247.771248 
L 193.265114 247.771248 
L 193.310159 240.106455 
L 193.608638 240.106455 
L 193.608638 236.274059 
L 193.745673 236.274059 
L 193.767071 228.609267 
L 193.996497 228.609267 
L 193.996497 224.776871 
L 194.156602 224.776871 
L 194.156602 220.944475 
L 194.314072 220.944475 
L 194.330314 209.447287 
L 194.46217 209.447287 
L 194.562374 201.782495 
L 194.869841 201.782495 
L 194.869841 197.950099 
L 195.010988 197.950099 
L 195.010988 194.117703 
L 195.207648 194.117703 
L 195.207648 190.285307 
L 195.812773 190.285307 
L 195.843599 182.620515 
L 196.163693 182.620515 
L 196.163693 178.788119 
L 196.446674 178.788119 
L 196.532166 163.458535 
L 196.89619 163.458535 
L 196.89619 159.626139 
L 197.169092 159.626139 
L 197.169092 155.793743 
L 197.386304 155.793743 
L 197.386304 151.961347 
L 197.539644 151.961347 
L 197.539644 148.12895 
L 197.651705 148.12895 
L 197.651705 144.296554 
L 198.035128 144.296554 
L 198.035128 140.464158 
L 198.634906 140.464158 
L 198.634906 136.631762 
L 198.873449 136.631762 
L 198.965235 128.96697 
L 199.046716 128.96697 
L 199.046716 125.134574 
L 199.325868 125.134574 
L 199.325868 121.302178 
L 199.769273 121.302178 
L 199.769273 117.469782 
L 199.894911 117.469782 
L 199.894911 113.637386 
L 200.145317 113.637386 
L 200.145317 109.80499 
L 200.580184 109.80499 
L 200.580184 105.972594 
L 204.31455 105.972594 
L 204.380299 98.307802 
L 205.867681 98.307802 
L 205.867681 94.475406 
L 206.124962 94.475406 
L 206.124962 90.64301 
L 207.321065 90.64301 
L 207.321065 86.810614 
L 207.518938 86.810614 
L 207.518938 82.978218 
L 208.638858 82.978218 
L 208.638858 79.145822 
L 209.269313 79.145822 
L 209.269313 75.313426 
L 209.527716 75.313426 
L 209.527716 71.48103 
L 210.595425 71.48103 
L 210.595425 67.648634 
L 212.432451 67.648634 
L 212.432451 63.816238 
L 213.065375 63.816238 
L 213.065375 59.983842 
L 214.454341 59.983842 
L 214.454341 56.151446 
L 214.574445 56.151446 
L 214.574445 52.31905 
L 216.092349 52.31905 
L 216.092349 48.486653 
L 216.481605 48.486653 
L 216.481605 44.654257 
L 216.898559 44.654257 
L 216.898559 40.821861 
L 217.143404 40.821861 
L 217.171632 33.157069 
L 218.048298 33.157069 
L 218.048298 29.324673 
L 218.40935 29.324673 
L 218.40935 25.492277 
L 219.437071 25.492277 
L 219.437071 21.659881 
L 220.578151 21.659881 
L 220.674602 10.162693 
L 221.942804 10.162693 
L 221.942804 6.330297 
L 221.942804 6.330297 
L 460.8 6.330297 
L 460.8 6.330297 
" clip-path="url(#p4048cc2805)" style="fill: none; stroke: #bf00bf; stroke-width: 1.5; stroke-linecap: square"/>
   </g>
   <g id="line2d_27">
    <path d="M -0.101191 293.76 
L -0.101191 286.095208 
L 18.331747 286.095208 
L 18.331747 282.262812 
L 26.252729 282.262812 
L 26.252729 278.430416 
L 58.845245 278.430416 
L 58.845245 274.59802 
L 157.489256 274.59802 
L 157.489256 270.765624 
L 172.583126 270.765624 
L 172.583126 266.933228 
L 172.973301 266.933228 
L 172.973301 263.100832 
L 183.483292 263.100832 
L 183.483292 251.603644 
L 184.737883 251.603644 
L 184.737883 247.771248 
L 186.491482 247.771248 
L 186.491483 240.106455 
L 186.875985 240.106455 
L 186.958194 232.441663 
L 187.085089 232.441663 
L 187.085089 228.609267 
L 187.26169 228.609267 
L 187.26169 224.776871 
L 187.87918 224.776871 
L 187.87918 220.944475 
L 188.408337 220.944475 
L 188.408337 217.112079 
L 189.245017 217.112079 
L 189.245017 213.279683 
L 189.46013 213.279683 
L 189.46013 209.447287 
L 189.785936 209.447287 
L 189.785936 205.614891 
L 191.354606 205.614891 
L 191.354606 201.782495 
L 192.127614 201.782495 
L 192.127614 197.950099 
L 192.240831 197.950099 
L 192.240831 194.117703 
L 192.845477 194.117703 
L 192.845477 190.285307 
L 193.767071 190.285307 
L 193.767071 186.452911 
L 193.956936 186.452911 
L 194.058181 167.290931 
L 194.14581 167.290931 
L 194.14581 163.458535 
L 194.314072 163.458535 
L 194.314072 155.793743 
L 194.805489 155.793743 
L 194.887847 148.12895 
L 195.812773 148.12895 
L 195.812773 144.296554 
L 196.163693 144.296554 
L 196.176572 136.631762 
L 196.310627 136.631762 
L 196.310627 132.799366 
L 196.437287 132.799366 
L 196.437287 121.302178 
L 197.169092 121.302178 
L 197.169092 117.469782 
L 197.386304 117.469782 
L 197.386304 113.637386 
L 197.539644 113.637386 
L 197.539644 109.80499 
L 197.994453 109.80499 
L 197.994453 105.972594 
L 198.961875 105.972594 
L 198.961875 98.307802 
L 203.723652 98.307802 
L 203.723652 90.64301 
L 205.865007 90.64301 
L 205.865007 82.978218 
L 206.400802 82.978218 
L 206.400802 79.145822 
L 207.405786 79.145822 
L 207.405786 67.648634 
L 209.035923 67.648634 
L 209.035923 63.816238 
L 209.819619 63.816238 
L 209.819619 59.983842 
L 209.933406 59.983842 
L 209.933406 56.151446 
L 210.552032 56.151446 
L 210.552032 52.31905 
L 210.718409 52.31905 
L 210.718409 48.486653 
L 210.978939 48.486653 
L 210.978939 44.654257 
L 211.730606 44.654257 
L 211.730606 40.821861 
L 212.182288 40.821861 
L 212.182288 36.989465 
L 212.965177 36.989465 
L 212.965177 33.157069 
L 214.281631 33.157069 
L 214.303683 25.492277 
L 214.483843 25.492277 
L 214.483843 21.659881 
L 216.659909 21.659881 
L 216.659909 17.827485 
L 217.367845 17.827485 
L 217.367845 13.995089 
L 217.648855 13.995089 
L 217.648855 10.162693 
L 218.561691 10.162693 
L 218.561691 6.330297 
L 218.561691 6.330297 
L 460.8 6.330297 
L 460.8 6.330297 
" clip-path="url(#p4048cc2805)" style="fill: none; stroke: #000000; stroke-width: 1.5; stroke-linecap: square"/>
   </g>
   <g id="patch_3">
    <path d="M 0 293.76 
L 0 3.456 
" style="fill: none; stroke: #000000; stroke-width: 0.8; stroke-linejoin: miter; stroke-linecap: square"/>
   </g>
   <g id="patch_4">
    <path d="M 460.8 293.76 
L 460.8 3.456 
" style="fill: none; stroke: #000000; stroke-width: 0.8; stroke-linejoin: miter; stroke-linecap: square"/>
   </g>
   <g id="patch_5">
    <path d="M 0 293.76 
L 460.8 293.76 
" style="fill: none; stroke: #000000; stroke-width: 0.8; stroke-linejoin: miter; stroke-linecap: square"/>
   </g>
   <g id="patch_6">
    <path d="M 0 3.456 
L 460.8 3.456 
" style="fill: none; stroke: #000000; stroke-width: 0.8; stroke-linejoin: miter; stroke-linecap: square"/>
   </g>
   <g id="text_6">
    <!-- {f20-f24}, 5-D -->
    <g transform="translate(305.884 287.95392) scale(0.2 -0.2)">
     <defs>
      <path id="DejaVuSans-7b" d="M 3272 -594 
L 3272 -1044 
L 3078 -1044 
Q 2300 -1044 2036 -812 
Q 1772 -581 1772 109 
L 1772 856 
Q 1772 1328 1603 1509 
Q 1434 1691 991 1691 
L 800 1691 
L 800 2138 
L 991 2138 
Q 1438 2138 1605 2317 
Q 1772 2497 1772 2963 
L 1772 3713 
Q 1772 4403 2036 4633 
Q 2300 4863 3078 4863 
L 3272 4863 
L 3272 4416 
L 3059 4416 
Q 2619 4416 2484 4278 
Q 2350 4141 2350 3700 
L 2350 2925 
Q 2350 2434 2208 2212 
Q 2066 1991 1722 1913 
Q 2069 1828 2209 1606 
Q 2350 1384 2350 897 
L 2350 122 
Q 2350 -319 2484 -456 
Q 2619 -594 3059 -594 
L 3272 -594 
z
" transform="scale(0.015625)"/>
      <path id="DejaVuSans-32" d="M 1228 531 
L 3431 531 
L 3431 0 
L 469 0 
L 469 531 
Q 828 903 1448 1529 
Q 2069 2156 2228 2338 
Q 2531 2678 2651 2914 
Q 2772 3150 2772 3378 
Q 2772 3750 2511 3984 
Q 2250 4219 1831 4219 
Q 1534 4219 1204 4116 
Q 875 4013 500 3803 
L 500 4441 
Q 881 4594 1212 4672 
Q 1544 4750 1819 4750 
Q 2544 4750 2975 4387 
Q 3406 4025 3406 3419 
Q 3406 3131 3298 2873 
Q 3191 2616 2906 2266 
Q 2828 2175 2409 1742 
Q 1991 1309 1228 531 
z
" transform="scale(0.015625)"/>
      <path id="DejaVuSans-7d" d="M 800 -594 
L 1019 -594 
Q 1456 -594 1589 -459 
Q 1722 -325 1722 122 
L 1722 897 
Q 1722 1384 1862 1606 
Q 2003 1828 2350 1913 
Q 2003 1991 1862 2212 
Q 1722 2434 1722 2925 
L 1722 3700 
Q 1722 4144 1589 4280 
Q 1456 4416 1019 4416 
L 800 4416 
L 800 4863 
L 997 4863 
Q 1775 4863 2036 4633 
Q 2297 4403 2297 3713 
L 2297 2963 
Q 2297 2497 2465 2317 
Q 2634 2138 3078 2138 
L 3272 2138 
L 3272 1691 
L 3078 1691 
Q 2634 1691 2465 1509 
Q 2297 1328 2297 856 
L 2297 109 
Q 2297 -581 2036 -812 
Q 1775 -1044 997 -1044 
L 800 -1044 
L 800 -594 
z
" transform="scale(0.015625)"/>
      <path id="DejaVuSans-2c" d="M 750 794 
L 1409 794 
L 1409 256 
L 897 -744 
L 494 -744 
L 750 256 
L 750 794 
z
" transform="scale(0.015625)"/>
      <path id="DejaVuSans-35" d="M 691 4666 
L 3169 4666 
L 3169 4134 
L 1269 4134 
L 1269 2991 
Q 1406 3038 1543 3061 
Q 1681 3084 1819 3084 
Q 2600 3084 3056 2656 
Q 3513 2228 3513 1497 
Q 3513 744 3044 326 
Q 2575 -91 1722 -91 
Q 1428 -91 1123 -41 
Q 819 9 494 109 
L 494 744 
Q 775 591 1075 516 
Q 1375 441 1709 441 
Q 2250 441 2565 725 
Q 2881 1009 2881 1497 
Q 2881 1984 2565 2268 
Q 2250 2553 1709 2553 
Q 1456 2553 1204 2497 
Q 953 2441 691 2322 
L 691 4666 
z
" transform="scale(0.015625)"/>
     </defs>
     <use xlink:href="#DejaVuSans-7b"/>
     <use xlink:href="#DejaVuSans-66" x="63.623047"/>
     <use xlink:href="#DejaVuSans-32" x="98.828125"/>
     <use xlink:href="#DejaVuSans-30" x="162.451172"/>
     <use xlink:href="#DejaVuSans-2d" x="226.074219"/>
     <use xlink:href="#DejaVuSans-66" x="262.158203"/>
     <use xlink:href="#DejaVuSans-32" x="297.363281"/>
     <use xlink:href="#DejaVuSans-34" x="360.986328"/>
     <use xlink:href="#DejaVuSans-7d" x="424.609375"/>
     <use xlink:href="#DejaVuSans-2c" x="488.232422"/>
     <use xlink:href="#DejaVuSans-20" x="520.019531"/>
     <use xlink:href="#DejaVuSans-35" x="551.806641"/>
     <use xlink:href="#DejaVuSans-2d" x="615.429688"/>
     <use xlink:href="#DejaVuSans-44" x="651.513672"/>
    </g>
   </g>
   <g id="text_7">
    <!-- v2.6.3 -->
    <g style="fill: #808080" transform="translate(214.71875 288.777272) scale(0.1 -0.1)">
     <defs>
      <path id="DejaVuSans-76" d="M 191 3500 
L 800 3500 
L 1894 563 
L 2988 3500 
L 3597 3500 
L 2284 0 
L 1503 0 
L 191 3500 
z
" transform="scale(0.015625)"/>
      <path id="DejaVuSans-2e" d="M 684 794 
L 1344 794 
L 1344 0 
L 684 0 
L 684 794 
z
" transform="scale(0.015625)"/>
      <path id="DejaVuSans-36" d="M 2113 2584 
Q 1688 2584 1439 2293 
Q 1191 2003 1191 1497 
Q 1191 994 1439 701 
Q 1688 409 2113 409 
Q 2538 409 2786 701 
Q 3034 994 3034 1497 
Q 3034 2003 2786 2293 
Q 2538 2584 2113 2584 
z
M 3366 4563 
L 3366 3988 
Q 3128 4100 2886 4159 
Q 2644 4219 2406 4219 
Q 1781 4219 1451 3797 
Q 1122 3375 1075 2522 
Q 1259 2794 1537 2939 
Q 1816 3084 2150 3084 
Q 2853 3084 3261 2657 
Q 3669 2231 3669 1497 
Q 3669 778 3244 343 
Q 2819 -91 2113 -91 
Q 1303 -91 875 529 
Q 447 1150 447 2328 
Q 447 3434 972 4092 
Q 1497 4750 2381 4750 
Q 2619 4750 2861 4703 
Q 3103 4656 3366 4563 
z
" transform="scale(0.015625)"/>
      <path id="DejaVuSans-33" d="M 2597 2516 
Q 3050 2419 3304 2112 
Q 3559 1806 3559 1356 
Q 3559 666 3084 287 
Q 2609 -91 1734 -91 
Q 1441 -91 1130 -33 
Q 819 25 488 141 
L 488 750 
Q 750 597 1062 519 
Q 1375 441 1716 441 
Q 2309 441 2620 675 
Q 2931 909 2931 1356 
Q 2931 1769 2642 2001 
Q 2353 2234 1838 2234 
L 1294 2234 
L 1294 2753 
L 1863 2753 
Q 2328 2753 2575 2939 
Q 2822 3125 2822 3475 
Q 2822 3834 2567 4026 
Q 2313 4219 1838 4219 
Q 1578 4219 1281 4162 
Q 984 4106 628 3988 
L 628 4550 
Q 988 4650 1302 4700 
Q 1616 4750 1894 4750 
Q 2613 4750 3031 4423 
Q 3450 4097 3450 3541 
Q 3450 3153 3228 2886 
Q 3006 2619 2597 2516 
z
" transform="scale(0.015625)"/>
     </defs>
     <use xlink:href="#DejaVuSans-76"/>
     <use xlink:href="#DejaVuSans-32" x="59.179688"/>
     <use xlink:href="#DejaVuSans-2e" x="122.802734"/>
     <use xlink:href="#DejaVuSans-36" x="154.589844"/>
     <use xlink:href="#DejaVuSans-2e" x="218.212891"/>
     <use xlink:href="#DejaVuSans-33" x="250"/>
    </g>
   </g>
  </g>
 </g>
 <defs>
  <clipPath id="p4048cc2805">
   <rect x="0" y="3.456" width="460.8" height="290.304"/>
  </clipPath>
 </defs>
</svg>
