<?xml version="1.0" encoding="utf-8" standalone="no"?>
<!DOCTYPE svg PUBLIC "-//W3C//DTD SVG 1.1//EN"
  "http://www.w3.org/Graphics/SVG/1.1/DTD/svg11.dtd">
<svg xmlns:xlink="http://www.w3.org/1999/xlink" width="460.8pt" height="345.6pt" viewBox="0 0 460.8 345.6" xmlns="http://www.w3.org/2000/svg" version="1.1">
 <metadata>
  <rdf:RDF xmlns:dc="http://purl.org/dc/elements/1.1/" xmlns:cc="http://creativecommons.org/ns#" xmlns:rdf="http://www.w3.org/1999/02/22-rdf-syntax-ns#">
   <cc:Work>
    <dc:type rdf:resource="http://purl.org/dc/dcmitype/StillImage"/>
    <dc:date>2024-06-22T00:24:31.390996</dc:date>
    <dc:format>image/svg+xml</dc:format>
    <dc:creator>
     <cc:Agent>
      <dc:title>Matplotlib v3.7.5, https://matplotlib.org/</dc:title>
     </cc:Agent>
    </dc:creator>
   </cc:Work>
  </rdf:RDF>
 </metadata>
 <defs>
  <style type="text/css">*{stroke-linejoin: round; stroke-linecap: butt}</style>
 </defs>
 <g id="figure_1">
  <g id="patch_1">
   <path d="M 0 345.6 
L 460.8 345.6 
L 460.8 0 
L 0 0 
z
" style="fill: #ffffff"/>
  </g>
  <g id="axes_1">
   <g id="patch_2">
    <path d="M 0 293.76 
L 460.8 293.76 
L 460.8 3.456 
L 0 3.456 
z
" style="fill: #ffffff"/>
   </g>
   <g id="matplotlib.axis_1">
    <g id="xtick_1">
     <g id="line2d_1">
      <path d="M 101.493326 293.76 
L 101.493326 3.456 
" clip-path="url(#pd9079cdffd)" style="fill: none; stroke: #b0b0b0; stroke-width: 0.8; stroke-linecap: square"/>
     </g>
     <g id="line2d_2">
      <defs>
       <path id="mc692098049" d="M 0 0 
L 0 3.5 
" style="stroke: #000000; stroke-width: 0.8"/>
      </defs>
      <g>
       <use xlink:href="#mc692098049" x="101.493326" y="293.76" style="stroke: #000000; stroke-width: 0.8"/>
      </g>
     </g>
     <g id="text_1">
      <!-- -4 -->
      <g transform="translate(91.523013 315.956875) scale(0.2 -0.2)">
       <defs>
        <path id="DejaVuSans-2d" d="M 313 2009 
L 1997 2009 
L 1997 1497 
L 313 1497 
L 313 2009 
z
" transform="scale(0.015625)"/>
        <path id="DejaVuSans-34" d="M 2419 4116 
L 825 1625 
L 2419 1625 
L 2419 4116 
z
M 2253 4666 
L 3047 4666 
L 3047 1625 
L 3713 1625 
L 3713 1100 
L 3047 1100 
L 3047 0 
L 2419 0 
L 2419 1100 
L 313 1100 
L 313 1709 
L 2253 4666 
z
" transform="scale(0.015625)"/>
       </defs>
       <use xlink:href="#DejaVuSans-2d"/>
       <use xlink:href="#DejaVuSans-34" x="36.083984"/>
      </g>
     </g>
    </g>
    <g id="xtick_2">
     <g id="line2d_3">
      <path d="M 203.096418 293.76 
L 203.096418 3.456 
" clip-path="url(#pd9079cdffd)" style="fill: none; stroke: #b0b0b0; stroke-width: 0.8; stroke-linecap: square"/>
     </g>
     <g id="line2d_4">
      <g>
       <use xlink:href="#mc692098049" x="203.096418" y="293.76" style="stroke: #000000; stroke-width: 0.8"/>
      </g>
     </g>
     <g id="text_2">
      <!-- 0 -->
      <g transform="translate(196.733918 315.956875) scale(0.2 -0.2)">
       <defs>
        <path id="DejaVuSans-30" d="M 2034 4250 
Q 1547 4250 1301 3770 
Q 1056 3291 1056 2328 
Q 1056 1369 1301 889 
Q 1547 409 2034 409 
Q 2525 409 2770 889 
Q 3016 1369 3016 2328 
Q 3016 3291 2770 3770 
Q 2525 4250 2034 4250 
z
M 2034 4750 
Q 2819 4750 3233 4129 
Q 3647 3509 3647 2328 
Q 3647 1150 3233 529 
Q 2819 -91 2034 -91 
Q 1250 -91 836 529 
Q 422 1150 422 2328 
Q 422 3509 836 4129 
Q 1250 4750 2034 4750 
z
" transform="scale(0.015625)"/>
       </defs>
       <use xlink:href="#DejaVuSans-30"/>
      </g>
     </g>
    </g>
    <g id="xtick_3">
     <g id="line2d_5">
      <path d="M 304.699509 293.76 
L 304.699509 3.456 
" clip-path="url(#pd9079cdffd)" style="fill: none; stroke: #b0b0b0; stroke-width: 0.8; stroke-linecap: square"/>
     </g>
     <g id="line2d_6">
      <g>
       <use xlink:href="#mc692098049" x="304.699509" y="293.76" style="stroke: #000000; stroke-width: 0.8"/>
      </g>
     </g>
     <g id="text_3">
      <!-- 4 -->
      <g transform="translate(298.337009 315.956875) scale(0.2 -0.2)">
       <use xlink:href="#DejaVuSans-34"/>
      </g>
     </g>
    </g>
    <g id="xtick_4">
     <g id="line2d_7">
      <path d="M 406.302601 293.76 
L 406.302601 3.456 
" clip-path="url(#pd9079cdffd)" style="fill: none; stroke: #b0b0b0; stroke-width: 0.8; stroke-linecap: square"/>
     </g>
     <g id="line2d_8">
      <g>
       <use xlink:href="#mc692098049" x="406.302601" y="293.76" style="stroke: #000000; stroke-width: 0.8"/>
      </g>
     </g>
     <g id="text_4">
      <!-- 8 -->
      <g transform="translate(399.940101 315.956875) scale(0.2 -0.2)">
       <defs>
        <path id="DejaVuSans-38" d="M 2034 2216 
Q 1584 2216 1326 1975 
Q 1069 1734 1069 1313 
Q 1069 891 1326 650 
Q 1584 409 2034 409 
Q 2484 409 2743 651 
Q 3003 894 3003 1313 
Q 3003 1734 2745 1975 
Q 2488 2216 2034 2216 
z
M 1403 2484 
Q 997 2584 770 2862 
Q 544 3141 544 3541 
Q 544 4100 942 4425 
Q 1341 4750 2034 4750 
Q 2731 4750 3128 4425 
Q 3525 4100 3525 3541 
Q 3525 3141 3298 2862 
Q 3072 2584 2669 2484 
Q 3125 2378 3379 2068 
Q 3634 1759 3634 1313 
Q 3634 634 3220 271 
Q 2806 -91 2034 -91 
Q 1263 -91 848 271 
Q 434 634 434 1313 
Q 434 1759 690 2068 
Q 947 2378 1403 2484 
z
M 1172 3481 
Q 1172 3119 1398 2916 
Q 1625 2713 2034 2713 
Q 2441 2713 2670 2916 
Q 2900 3119 2900 3481 
Q 2900 3844 2670 4047 
Q 2441 4250 2034 4250 
Q 1625 4250 1398 4047 
Q 1172 3844 1172 3481 
z
" transform="scale(0.015625)"/>
       </defs>
       <use xlink:href="#DejaVuSans-38"/>
      </g>
     </g>
    </g>
    <g id="text_5">
     <!-- log10 of Df -->
     <g transform="translate(175.214063 339.313125) scale(0.2 -0.2)">
      <defs>
       <path id="DejaVuSans-6c" d="M 603 4863 
L 1178 4863 
L 1178 0 
L 603 0 
L 603 4863 
z
" transform="scale(0.015625)"/>
       <path id="DejaVuSans-6f" d="M 1959 3097 
Q 1497 3097 1228 2736 
Q 959 2375 959 1747 
Q 959 1119 1226 758 
Q 1494 397 1959 397 
Q 2419 397 2687 759 
Q 2956 1122 2956 1747 
Q 2956 2369 2687 2733 
Q 2419 3097 1959 3097 
z
M 1959 3584 
Q 2709 3584 3137 3096 
Q 3566 2609 3566 1747 
Q 3566 888 3137 398 
Q 2709 -91 1959 -91 
Q 1206 -91 779 398 
Q 353 888 353 1747 
Q 353 2609 779 3096 
Q 1206 3584 1959 3584 
z
" transform="scale(0.015625)"/>
       <path id="DejaVuSans-67" d="M 2906 1791 
Q 2906 2416 2648 2759 
Q 2391 3103 1925 3103 
Q 1463 3103 1205 2759 
Q 947 2416 947 1791 
Q 947 1169 1205 825 
Q 1463 481 1925 481 
Q 2391 481 2648 825 
Q 2906 1169 2906 1791 
z
M 3481 434 
Q 3481 -459 3084 -895 
Q 2688 -1331 1869 -1331 
Q 1566 -1331 1297 -1286 
Q 1028 -1241 775 -1147 
L 775 -588 
Q 1028 -725 1275 -790 
Q 1522 -856 1778 -856 
Q 2344 -856 2625 -561 
Q 2906 -266 2906 331 
L 2906 616 
Q 2728 306 2450 153 
Q 2172 0 1784 0 
Q 1141 0 747 490 
Q 353 981 353 1791 
Q 353 2603 747 3093 
Q 1141 3584 1784 3584 
Q 2172 3584 2450 3431 
Q 2728 3278 2906 2969 
L 2906 3500 
L 3481 3500 
L 3481 434 
z
" transform="scale(0.015625)"/>
       <path id="DejaVuSans-31" d="M 794 531 
L 1825 531 
L 1825 4091 
L 703 3866 
L 703 4441 
L 1819 4666 
L 2450 4666 
L 2450 531 
L 3481 531 
L 3481 0 
L 794 0 
L 794 531 
z
" transform="scale(0.015625)"/>
       <path id="DejaVuSans-20" transform="scale(0.015625)"/>
       <path id="DejaVuSans-66" d="M 2375 4863 
L 2375 4384 
L 1825 4384 
Q 1516 4384 1395 4259 
Q 1275 4134 1275 3809 
L 1275 3500 
L 2222 3500 
L 2222 3053 
L 1275 3053 
L 1275 0 
L 697 0 
L 697 3053 
L 147 3053 
L 147 3500 
L 697 3500 
L 697 3744 
Q 697 4328 969 4595 
Q 1241 4863 1831 4863 
L 2375 4863 
z
" transform="scale(0.015625)"/>
       <path id="DejaVuSans-44" d="M 1259 4147 
L 1259 519 
L 2022 519 
Q 2988 519 3436 956 
Q 3884 1394 3884 2338 
Q 3884 3275 3436 3711 
Q 2988 4147 2022 4147 
L 1259 4147 
z
M 628 4666 
L 1925 4666 
Q 3281 4666 3915 4102 
Q 4550 3538 4550 2338 
Q 4550 1131 3912 565 
Q 3275 0 1925 0 
L 628 0 
L 628 4666 
z
" transform="scale(0.015625)"/>
      </defs>
      <use xlink:href="#DejaVuSans-6c"/>
      <use xlink:href="#DejaVuSans-6f" x="27.783203"/>
      <use xlink:href="#DejaVuSans-67" x="88.964844"/>
      <use xlink:href="#DejaVuSans-31" x="152.441406"/>
      <use xlink:href="#DejaVuSans-30" x="216.064453"/>
      <use xlink:href="#DejaVuSans-20" x="279.6875"/>
      <use xlink:href="#DejaVuSans-6f" x="311.474609"/>
      <use xlink:href="#DejaVuSans-66" x="372.65625"/>
      <use xlink:href="#DejaVuSans-20" x="407.861328"/>
      <use xlink:href="#DejaVuSans-44" x="439.648438"/>
      <use xlink:href="#DejaVuSans-66" x="516.650391"/>
     </g>
    </g>
   </g>
   <g id="matplotlib.axis_2">
    <g id="ytick_1">
     <g id="line2d_9">
      <path d="M 0 293.76 
L 460.8 293.76 
" clip-path="url(#pd9079cdffd)" style="fill: none; stroke: #b0b0b0; stroke-width: 0.8; stroke-linecap: square"/>
     </g>
     <g id="line2d_10">
      <defs>
       <path id="m79533a5c40" d="M 0 0 
L -3.5 0 
" style="stroke: #000000; stroke-width: 0.8"/>
      </defs>
      <g>
       <use xlink:href="#m79533a5c40" x="0" y="293.76" style="stroke: #000000; stroke-width: 0.8"/>
      </g>
     </g>
    </g>
    <g id="ytick_2">
     <g id="line2d_11">
      <path d="M 0 236.274059 
L 460.8 236.274059 
" clip-path="url(#pd9079cdffd)" style="fill: none; stroke: #b0b0b0; stroke-width: 0.8; stroke-linecap: square"/>
     </g>
     <g id="line2d_12">
      <g>
       <use xlink:href="#m79533a5c40" x="0" y="236.274059" style="stroke: #000000; stroke-width: 0.8"/>
      </g>
     </g>
    </g>
    <g id="ytick_3">
     <g id="line2d_13">
      <path d="M 0 178.788119 
L 460.8 178.788119 
" clip-path="url(#pd9079cdffd)" style="fill: none; stroke: #b0b0b0; stroke-width: 0.8; stroke-linecap: square"/>
     </g>
     <g id="line2d_14">
      <g>
       <use xlink:href="#m79533a5c40" x="0" y="178.788119" style="stroke: #000000; stroke-width: 0.8"/>
      </g>
     </g>
    </g>
    <g id="ytick_4">
     <g id="line2d_15">
      <path d="M 0 121.302178 
L 460.8 121.302178 
" clip-path="url(#pd9079cdffd)" style="fill: none; stroke: #b0b0b0; stroke-width: 0.8; stroke-linecap: square"/>
     </g>
     <g id="line2d_16">
      <g>
       <use xlink:href="#m79533a5c40" x="0" y="121.302178" style="stroke: #000000; stroke-width: 0.8"/>
      </g>
     </g>
    </g>
    <g id="ytick_5">
     <g id="line2d_17">
      <path d="M 0 63.816238 
L 460.8 63.816238 
" clip-path="url(#pd9079cdffd)" style="fill: none; stroke: #b0b0b0; stroke-width: 0.8; stroke-linecap: square"/>
     </g>
     <g id="line2d_18">
      <g>
       <use xlink:href="#m79533a5c40" x="0" y="63.816238" style="stroke: #000000; stroke-width: 0.8"/>
      </g>
     </g>
    </g>
    <g id="ytick_6">
     <g id="line2d_19">
      <path d="M 0 6.330297 
L 460.8 6.330297 
" clip-path="url(#pd9079cdffd)" style="fill: none; stroke: #b0b0b0; stroke-width: 0.8; stroke-linecap: square"/>
     </g>
     <g id="line2d_20">
      <g>
       <use xlink:href="#m79533a5c40" x="0" y="6.330297" style="stroke: #000000; stroke-width: 0.8"/>
      </g>
     </g>
    </g>
   </g>
   <g id="line2d_21">
    <path d="M -1 109.80499 
L 6.461851 109.80499 
L 6.461851 105.972594 
L 14.394589 105.972594 
L 14.394589 102.140198 
L 14.56271 102.140198 
L 14.56271 98.307802 
L 21.380166 98.307802 
L 21.380166 94.475406 
L 23.374269 94.475406 
L 23.374269 90.64301 
L 32.25898 90.64301 
L 32.25898 86.810614 
L 34.111644 86.810614 
L 34.111644 82.978218 
L 40.084984 82.978218 
L 40.084984 79.145822 
L 50.121773 79.145822 
L 50.121773 75.313426 
L 53.258681 75.313426 
L 53.258681 71.48103 
L 54.863348 71.48103 
L 54.863348 67.648634 
L 56.141353 67.648634 
L 56.141353 63.816238 
L 80.679604 63.816238 
L 80.679604 59.983842 
L 83.356533 59.983842 
L 83.356533 56.151446 
L 84.224982 56.151446 
L 84.224982 52.31905 
L 108.888599 52.31905 
L 108.888599 48.486653 
L 112.663133 48.486653 
L 112.663133 44.654257 
L 125.956606 44.654257 
L 125.956606 40.821861 
L 129.276125 40.821861 
L 129.276125 36.989465 
L 131.964472 36.989465 
L 131.964472 33.157069 
L 132.504326 33.157069 
L 132.504326 29.324673 
L 143.450734 29.324673 
L 143.450734 25.492277 
L 153.634657 25.492277 
L 153.634657 21.659881 
L 154.567913 21.659881 
L 154.567913 17.827485 
L 169.500122 17.827485 
L 169.500122 13.995089 
L 169.769357 13.995089 
L 169.769357 10.162693 
L 173.856942 10.162693 
L 173.856942 6.330297 
L 173.856942 6.330297 
L 460.8 6.330297 
L 460.8 6.330297 
" clip-path="url(#pd9079cdffd)" style="fill: none; stroke: #ff0000; stroke-width: 3; stroke-linecap: square"/>
   </g>
   <g id="line2d_22">
    <path d="M 245.052516 293.76 
L 245.052516 289.927604 
L 247.323485 289.927604 
L 247.323485 286.095208 
L 247.486774 286.095208 
L 247.486774 282.262812 
L 248.948544 282.262812 
L 248.948544 278.430416 
L 249.470607 278.430416 
L 249.470607 274.59802 
L 253.06187 274.59802 
L 253.06187 270.765624 
L 253.607078 270.765624 
L 253.607078 266.933228 
L 254.125418 266.933228 
L 254.125418 263.100832 
L 254.85077 263.100832 
L 254.85077 259.268436 
L 255.682495 259.268436 
L 255.693941 251.603644 
L 256.001623 251.603644 
L 256.001623 247.771248 
L 256.626957 247.771248 
L 256.626957 243.938851 
L 257.398495 243.938851 
L 257.398495 240.106455 
L 258.345901 240.106455 
L 258.345901 236.274059 
L 269.893793 236.274059 
L 269.893793 232.441663 
L 283.032736 232.441663 
L 283.032736 228.609267 
L 288.448353 228.609267 
L 288.448353 224.776871 
L 289.521264 224.776871 
L 289.521264 220.944475 
L 289.729233 220.944475 
L 289.729233 217.112079 
L 290.118696 217.112079 
L 290.173455 205.614891 
L 290.559244 205.614891 
L 290.559244 201.782495 
L 290.937925 201.782495 
L 290.949774 194.117703 
L 291.164262 194.117703 
L 291.170355 186.452911 
L 291.435094 186.452911 
L 291.442635 178.788119 
L 292.223142 178.788119 
L 292.223781 171.123327 
L 293.334768 171.123327 
L 293.334768 167.290931 
L 303.797877 167.290931 
L 303.797877 163.458535 
L 308.338541 163.458535 
L 308.338541 159.626139 
L 311.149365 159.626139 
L 311.149365 155.793743 
L 318.489519 155.793743 
L 318.489519 151.961347 
L 319.033048 151.961347 
L 319.033048 148.12895 
L 322.564893 148.12895 
L 322.564893 144.296554 
L 334.348496 144.296554 
L 334.348496 140.464158 
L 334.885231 140.464158 
L 334.885231 136.631762 
L 338.602101 136.631762 
L 338.602101 132.799366 
L 343.617484 132.799366 
L 343.617484 128.96697 
L 346.495457 128.96697 
L 346.495457 125.134574 
L 350.569528 125.134574 
L 350.569528 121.302178 
L 370.191821 121.302178 
L 370.191821 117.469782 
L 371.885377 117.469782 
L 371.885377 113.637386 
L 375.748106 113.637386 
L 375.823308 105.972594 
L 376.901389 105.972594 
L 376.901389 102.140198 
L 377.419906 102.140198 
L 377.419906 98.307802 
L 378.509884 98.307802 
L 378.509884 94.475406 
L 379.632854 94.475406 
L 379.632854 90.64301 
L 380.02443 90.64301 
L 380.02443 86.810614 
L 380.87565 86.810614 
L 380.90053 79.145822 
L 381.032933 79.145822 
L 381.032933 75.313426 
L 384.139718 75.313426 
L 384.139718 71.48103 
L 384.544461 71.48103 
L 384.544461 67.648634 
L 388.197167 67.648634 
L 388.197167 63.816238 
L 413.042259 63.816238 
L 413.042259 59.983842 
L 415.421985 59.983842 
L 415.421985 56.151446 
L 416.52614 56.151446 
L 416.52614 52.31905 
L 417.993804 52.31905 
L 417.993804 48.486653 
L 418.143771 48.486653 
L 418.143771 44.654257 
L 418.801597 44.654257 
L 418.801597 40.821861 
L 419.663113 40.821861 
L 419.663113 36.989465 
L 420.033982 36.989465 
L 420.033982 33.157069 
L 420.155429 33.157069 
L 420.155429 29.324673 
L 422.055768 29.324673 
L 422.055768 25.492277 
L 422.495004 25.492277 
L 422.495004 21.659881 
L 423.099496 21.659881 
L 423.150374 13.995089 
L 428.480442 13.995089 
L 428.480442 10.162693 
L 430.322699 10.162693 
L 430.322699 6.330297 
L 430.322699 6.330297 
L 460.8 6.330297 
L 460.8 6.330297 
" clip-path="url(#pd9079cdffd)" style="fill: none; stroke: #00bfbf; stroke-width: 1.5; stroke-linecap: square"/>
   </g>
   <g id="line2d_23">
    <path d="M 245.052516 293.76 
L 245.052516 289.927604 
L 246.650306 289.927604 
L 246.650306 286.095208 
L 246.915079 286.095208 
L 246.915079 282.262812 
L 247.486774 282.262812 
L 247.486774 278.430416 
L 247.718556 278.430416 
L 247.718556 274.59802 
L 248.948544 274.59802 
L 248.948544 270.765624 
L 249.649294 270.765624 
L 249.649294 266.933228 
L 249.810869 266.933228 
L 249.810869 263.100832 
L 251.68347 263.100832 
L 251.68347 259.268436 
L 252.120989 259.268436 
L 252.120989 255.43604 
L 252.237664 255.43604 
L 252.237664 251.603644 
L 253.065461 251.603644 
L 253.065461 247.771248 
L 253.607078 247.771248 
L 253.620859 240.106455 
L 255.693941 240.106455 
L 255.693941 236.274059 
L 269.893793 236.274059 
L 269.893793 232.441663 
L 272.965224 232.441663 
L 272.965224 228.609267 
L 279.160363 228.609267 
L 279.160363 224.776871 
L 283.032736 224.776871 
L 283.032736 220.944475 
L 285.215888 220.944475 
L 285.215888 217.112079 
L 287.322264 217.112079 
L 287.322264 213.279683 
L 288.002398 213.279683 
L 288.002398 209.447287 
L 288.238085 209.447287 
L 288.333023 201.782495 
L 288.448353 201.782495 
L 288.448353 197.950099 
L 288.737978 197.950099 
L 288.767867 190.285307 
L 289.382604 190.285307 
L 289.382604 186.452911 
L 290.118696 186.452911 
L 290.118696 182.620515 
L 290.495282 182.620515 
L 290.495282 178.788119 
L 290.644218 178.788119 
L 290.644218 174.955723 
L 290.931489 174.955723 
L 290.931489 171.123327 
L 291.187216 171.123327 
L 291.187216 167.290931 
L 291.435094 167.290931 
L 291.435094 163.458535 
L 293.334768 163.458535 
L 293.334768 159.626139 
L 296.757244 159.626139 
L 296.757244 155.793743 
L 298.518174 155.793743 
L 298.518174 151.961347 
L 303.797877 151.961347 
L 303.855045 144.296554 
L 311.149365 144.296554 
L 311.149365 140.464158 
L 318.489519 140.464158 
L 318.489519 136.631762 
L 327.180998 136.631762 
L 327.180998 132.799366 
L 329.972297 132.799366 
L 329.972297 128.96697 
L 333.941129 128.96697 
L 333.941129 125.134574 
L 334.885231 125.134574 
L 334.885231 121.302178 
L 365.597983 121.302178 
L 365.597983 117.469782 
L 370.164431 117.469782 
L 370.191821 109.80499 
L 370.473159 109.80499 
L 370.473159 105.972594 
L 371.005728 105.972594 
L 371.005728 102.140198 
L 371.57557 102.140198 
L 371.57557 98.307802 
L 371.885377 98.307802 
L 371.885377 94.475406 
L 373.365506 94.475406 
L 373.365506 90.64301 
L 374.266582 90.64301 
L 374.266582 86.810614 
L 376.548753 86.810614 
L 376.647762 79.145822 
L 378.509884 79.145822 
L 378.509884 75.313426 
L 379.4891 75.313426 
L 379.4891 71.48103 
L 383.443894 71.48103 
L 383.443894 67.648634 
L 387.203174 67.648634 
L 387.203174 63.816238 
L 409.327852 63.816238 
L 409.327852 59.983842 
L 413.042259 59.983842 
L 413.042259 56.151446 
L 413.998203 56.151446 
L 413.998203 52.31905 
L 415.421985 52.31905 
L 415.421985 48.486653 
L 416.410523 48.486653 
L 416.410523 44.654257 
L 416.52614 44.654257 
L 416.52614 40.821861 
L 417.458536 40.821861 
L 417.458536 36.989465 
L 417.911791 36.989465 
L 417.993804 29.324673 
L 418.435487 29.324673 
L 418.435487 25.492277 
L 420.033982 25.492277 
L 420.033982 21.659881 
L 420.155429 21.659881 
L 420.155429 17.827485 
L 421.269459 17.827485 
L 421.269459 13.995089 
L 422.055768 13.995089 
L 422.055768 10.162693 
L 427.447082 10.162693 
L 427.447082 6.330297 
L 427.447082 6.330297 
L 460.8 6.330297 
L 460.8 6.330297 
" clip-path="url(#pd9079cdffd)" style="fill: none; stroke: #bf00bf; stroke-width: 1.5; stroke-linecap: square"/>
   </g>
   <g id="line2d_24">
    <path d="M 241.278071 293.76 
L 241.278071 289.927604 
L 241.675583 289.927604 
L 241.675583 286.095208 
L 241.924437 286.095208 
L 241.924437 282.262812 
L 242.508582 282.262812 
L 242.508582 278.430416 
L 243.007726 278.430416 
L 243.007726 274.59802 
L 243.396481 274.59802 
L 243.396481 270.765624 
L 244.147298 270.765624 
L 244.153576 263.100832 
L 245.775215 263.100832 
L 245.775215 259.268436 
L 246.491921 259.268436 
L 246.491921 255.43604 
L 246.915079 255.43604 
L 246.915079 251.603644 
L 247.048181 251.603644 
L 247.048181 247.771248 
L 248.771438 247.771248 
L 248.771438 243.938851 
L 248.883976 243.938851 
L 248.883976 240.106455 
L 249.329255 240.106455 
L 249.329255 236.274059 
L 264.284642 236.274059 
L 264.284642 232.441663 
L 264.524823 232.441663 
L 264.524823 228.609267 
L 269.114427 228.609267 
L 269.114427 224.776871 
L 269.893793 224.776871 
L 269.893793 220.944475 
L 270.403834 220.944475 
L 270.403834 217.112079 
L 271.726973 217.112079 
L 271.726973 213.279683 
L 272.965224 213.279683 
L 272.965224 209.447287 
L 273.719626 209.447287 
L 273.719626 205.614891 
L 276.299906 205.614891 
L 276.299906 201.782495 
L 279.160363 201.782495 
L 279.160363 197.950099 
L 284.62468 197.950099 
L 284.62468 194.117703 
L 285.083121 194.117703 
L 285.083121 190.285307 
L 285.215888 190.285307 
L 285.215888 186.452911 
L 286.739683 186.452911 
L 286.739683 182.620515 
L 286.978667 182.620515 
L 286.978667 178.788119 
L 287.206468 178.788119 
L 287.206468 174.955723 
L 287.322264 174.955723 
L 287.322264 171.123327 
L 287.603145 171.123327 
L 287.67903 159.626139 
L 287.852518 159.626139 
L 287.852518 155.793743 
L 288.083013 155.793743 
L 288.091118 148.12895 
L 289.083902 148.12895 
L 289.083902 144.296554 
L 289.650009 144.296554 
L 289.650009 140.464158 
L 294.368307 140.464158 
L 294.368307 136.631762 
L 296.508371 136.631762 
L 296.508371 132.799366 
L 298.518174 132.799366 
L 298.518174 128.96697 
L 302.352169 128.96697 
L 302.352169 125.134574 
L 325.665909 125.134574 
L 325.665909 121.302178 
L 358.620175 121.302178 
L 358.620175 117.469782 
L 360.417587 117.469782 
L 360.417587 113.637386 
L 362.306052 113.637386 
L 362.306052 109.80499 
L 362.763495 109.80499 
L 362.763495 105.972594 
L 364.627606 105.972594 
L 364.627606 102.140198 
L 365.533351 102.140198 
L 365.533351 98.307802 
L 366.111474 98.307802 
L 366.111474 94.475406 
L 366.365865 94.475406 
L 366.365865 90.64301 
L 370.191821 90.64301 
L 370.191821 86.810614 
L 371.005728 86.810614 
L 371.048247 79.145822 
L 371.555397 79.145822 
L 371.57557 71.48103 
L 372.056802 71.48103 
L 372.056802 67.648634 
L 373.436573 67.648634 
L 373.436573 63.816238 
L 409.327852 63.816238 
L 409.327852 59.983842 
L 411.591719 59.983842 
L 411.591719 56.151446 
L 411.913363 56.151446 
L 411.913363 52.31905 
L 413.042259 52.31905 
L 413.042259 48.486653 
L 414.252025 48.486653 
L 414.252025 44.654257 
L 414.38504 44.654257 
L 414.422033 36.989465 
L 414.637156 36.989465 
L 414.691014 29.324673 
L 415.042789 29.324673 
L 415.042789 25.492277 
L 415.215415 25.492277 
L 415.215415 21.659881 
L 416.080102 21.659881 
L 416.080102 17.827485 
L 417.014289 17.827485 
L 417.014289 13.995089 
L 417.458536 13.995089 
L 417.458536 10.162693 
L 419.568301 10.162693 
L 419.568301 6.330297 
L 419.568301 6.330297 
L 460.8 6.330297 
L 460.8 6.330297 
" clip-path="url(#pd9079cdffd)" style="fill: none; stroke: #000000; stroke-width: 1.5; stroke-linecap: square"/>
   </g>
   <g id="line2d_25">
    <path d="M 228.317199 293.76 
L 228.317199 289.927604 
L 229.272329 289.927604 
L 229.272329 286.095208 
L 231.562393 286.095208 
L 231.562393 282.262812 
L 232.775472 282.262812 
L 232.775472 278.430416 
L 232.937571 278.430416 
L 232.937571 274.59802 
L 234.346138 274.59802 
L 234.346138 270.765624 
L 234.53507 270.765624 
L 234.53507 266.933228 
L 235.592997 266.933228 
L 235.592997 263.100832 
L 236.364693 263.100832 
L 236.364693 259.268436 
L 237.223619 259.268436 
L 237.223619 255.43604 
L 237.476027 255.43604 
L 237.476607 247.771248 
L 237.901702 247.771248 
L 237.901702 243.938851 
L 238.326067 243.938851 
L 238.326067 240.106455 
L 240.035233 240.106455 
L 240.035233 236.274059 
L 264.284642 236.274059 
L 264.284642 232.441663 
L 264.524823 232.441663 
L 264.524823 228.609267 
L 268.673998 228.609267 
L 268.673998 224.776871 
L 269.114427 224.776871 
L 269.114427 220.944475 
L 269.893793 220.944475 
L 269.893793 217.112079 
L 270.403834 217.112079 
L 270.403834 213.279683 
L 271.726973 213.279683 
L 271.726973 209.447287 
L 272.965224 209.447287 
L 272.965224 205.614891 
L 273.719626 205.614891 
L 273.719626 201.782495 
L 275.312205 201.782495 
L 275.312205 197.950099 
L 276.875777 197.950099 
L 276.875777 194.117703 
L 277.983103 194.117703 
L 278.073579 186.452911 
L 278.365085 186.452911 
L 278.365085 182.620515 
L 278.664495 182.620515 
L 278.689731 174.955723 
L 279.160363 174.955723 
L 279.160363 171.123327 
L 279.616219 171.123327 
L 279.616219 167.290931 
L 280.203054 167.290931 
L 280.23677 159.626139 
L 280.612419 159.626139 
L 280.693816 151.961347 
L 280.860771 151.961347 
L 280.860771 148.12895 
L 281.000889 148.12895 
L 281.000889 144.296554 
L 281.868408 144.296554 
L 281.868408 140.464158 
L 282.058008 140.464158 
L 282.058008 136.631762 
L 282.672068 136.631762 
L 282.672068 132.799366 
L 282.934497 132.799366 
L 282.934497 128.96697 
L 286.808435 128.96697 
L 286.808435 125.134574 
L 294.368307 125.134574 
L 294.368307 121.302178 
L 340.036738 121.302178 
L 340.036738 117.469782 
L 352.519206 117.469782 
L 352.519206 113.637386 
L 354.291714 113.637386 
L 354.313722 105.972594 
L 354.857435 105.972594 
L 354.857435 102.140198 
L 355.965581 102.140198 
L 356.019978 94.475406 
L 356.676437 94.475406 
L 356.676437 90.64301 
L 358.514947 90.64301 
L 358.514947 86.810614 
L 360.350546 86.810614 
L 360.350546 82.978218 
L 361.944732 82.978218 
L 361.944732 79.145822 
L 362.521514 79.145822 
L 362.521514 75.313426 
L 362.892628 75.313426 
L 362.892628 71.48103 
L 365.225357 71.48103 
L 365.225357 67.648634 
L 369.087557 67.648634 
L 369.087557 63.816238 
L 394.56334 63.816238 
L 394.56334 59.983842 
L 394.872495 59.983842 
L 394.872495 56.151446 
L 396.680478 56.151446 
L 396.680478 52.31905 
L 396.88494 52.31905 
L 396.88494 48.486653 
L 397.28263 48.486653 
L 397.28263 44.654257 
L 397.481631 44.654257 
L 397.52279 36.989465 
L 398.023246 36.989465 
L 398.023246 33.157069 
L 398.3085 33.157069 
L 398.3085 29.324673 
L 398.47533 29.324673 
L 398.47533 25.492277 
L 399.971576 25.492277 
L 399.971576 21.659881 
L 400.096417 21.659881 
L 400.096417 17.827485 
L 402.879248 17.827485 
L 402.879248 13.995089 
L 403.646681 13.995089 
L 403.646681 10.162693 
L 404.008801 10.162693 
L 404.008801 6.330297 
L 404.008801 6.330297 
L 460.8 6.330297 
L 460.8 6.330297 
" clip-path="url(#pd9079cdffd)" style="fill: none; stroke: #00bfbf; stroke-width: 1.5; stroke-linecap: square"/>
   </g>
   <g id="line2d_26">
    <path d="M 144.250592 293.76 
L 144.250592 289.927604 
L 144.83048 289.927604 
L 144.83048 286.095208 
L 145.297776 286.095208 
L 145.297776 282.262812 
L 145.845528 282.262812 
L 145.845528 278.430416 
L 146.413047 278.430416 
L 146.413047 274.59802 
L 146.684045 274.59802 
L 146.684045 270.765624 
L 147.116136 270.765624 
L 147.116136 266.933228 
L 147.67517 266.933228 
L 147.67517 263.100832 
L 147.83505 263.100832 
L 147.83505 259.268436 
L 148.405131 259.268436 
L 148.405131 255.43604 
L 149.692016 255.43604 
L 149.775815 247.771248 
L 150.229458 247.771248 
L 150.229458 243.938851 
L 150.439377 243.938851 
L 150.439377 240.106455 
L 151.589544 240.106455 
L 151.589544 236.274059 
L 199.090057 236.274059 
L 199.090057 232.441663 
L 200.049855 232.441663 
L 200.049855 228.609267 
L 208.674022 228.609267 
L 208.674022 224.776871 
L 211.1212 224.776871 
L 211.1212 220.944475 
L 211.901935 220.944475 
L 211.901935 217.112079 
L 212.78053 217.112079 
L 212.860207 209.447287 
L 214.04637 209.447287 
L 214.04637 205.614891 
L 216.588489 205.614891 
L 216.588489 201.782495 
L 217.578681 201.782495 
L 217.578681 197.950099 
L 218.313811 197.950099 
L 218.313811 194.117703 
L 218.612608 194.117703 
L 218.612608 190.285307 
L 223.060447 190.285307 
L 223.060447 186.452911 
L 223.261027 186.452911 
L 223.261027 182.620515 
L 228.614263 182.620515 
L 228.614263 178.788119 
L 231.278099 178.788119 
L 231.278099 174.955723 
L 232.284483 174.955723 
L 232.284483 171.123327 
L 233.731647 171.123327 
L 233.731647 167.290931 
L 233.924266 167.290931 
L 233.924266 163.458535 
L 234.372909 163.458535 
L 234.372909 159.626139 
L 236.433169 159.626139 
L 236.433169 155.793743 
L 239.294714 155.793743 
L 239.294714 151.961347 
L 239.465538 151.961347 
L 239.465538 148.12895 
L 240.164405 148.12895 
L 240.164405 144.296554 
L 241.472703 144.296554 
L 241.472703 140.464158 
L 242.046905 140.464158 
L 242.046905 136.631762 
L 245.208974 136.631762 
L 245.208974 132.799366 
L 245.388878 132.799366 
L 245.388878 128.96697 
L 246.238752 128.96697 
L 246.238752 125.134574 
L 246.430872 125.134574 
L 246.430872 121.302178 
L 264.284642 121.302178 
L 264.284642 117.469782 
L 264.524823 117.469782 
L 264.524823 113.637386 
L 268.673998 113.637386 
L 268.673998 109.80499 
L 269.114427 109.80499 
L 269.114427 105.972594 
L 269.807283 105.972594 
L 269.893793 98.307802 
L 270.403834 98.307802 
L 270.403834 94.475406 
L 271.726973 94.475406 
L 271.726973 90.64301 
L 272.965224 90.64301 
L 272.965224 86.810614 
L 273.719626 86.810614 
L 273.719626 82.978218 
L 276.875777 82.978218 
L 276.875777 79.145822 
L 279.160363 79.145822 
L 279.160363 75.313426 
L 280.693816 75.313426 
L 280.751356 67.648634 
L 282.661385 67.648634 
L 282.661385 63.816238 
L 297.237338 63.816238 
L 297.237338 59.983842 
L 298.04343 59.983842 
L 298.04343 56.151446 
L 299.49594 56.151446 
L 299.49594 52.31905 
L 300.382357 52.31905 
L 300.382357 48.486653 
L 301.071614 48.486653 
L 301.071614 44.654257 
L 302.675884 44.654257 
L 302.675884 40.821861 
L 303.606705 40.821861 
L 303.606705 36.989465 
L 303.819183 36.989465 
L 303.819183 33.157069 
L 306.419517 33.157069 
L 306.419517 29.324673 
L 308.0844 29.324673 
L 308.0844 25.492277 
L 311.030033 25.492277 
L 311.030033 21.659881 
L 311.248946 21.659881 
L 311.248946 17.827485 
L 315.3404 17.827485 
L 315.3404 13.995089 
L 319.339555 13.995089 
L 319.339555 10.162693 
L 323.517609 10.162693 
L 323.517609 6.330297 
L 323.517609 6.330297 
L 460.8 6.330297 
L 460.8 6.330297 
" clip-path="url(#pd9079cdffd)" style="fill: none; stroke: #bf00bf; stroke-width: 1.5; stroke-linecap: square"/>
   </g>
   <g id="line2d_27">
    <path d="M -1 109.80499 
L 6.461851 109.80499 
L 6.461851 105.972594 
L 14.394589 105.972594 
L 14.394589 102.140198 
L 14.56271 102.140198 
L 14.56271 98.307802 
L 21.380166 98.307802 
L 21.380166 94.475406 
L 23.374269 94.475406 
L 23.374269 90.64301 
L 32.25898 90.64301 
L 32.25898 86.810614 
L 34.111644 86.810614 
L 34.111644 82.978218 
L 40.084984 82.978218 
L 40.084984 79.145822 
L 50.121773 79.145822 
L 50.121773 75.313426 
L 53.258681 75.313426 
L 53.258681 71.48103 
L 54.863348 71.48103 
L 54.863348 67.648634 
L 56.141353 67.648634 
L 56.141353 63.816238 
L 80.679604 63.816238 
L 80.679604 59.983842 
L 83.356533 59.983842 
L 83.356533 56.151446 
L 84.224982 56.151446 
L 84.224982 52.31905 
L 108.888599 52.31905 
L 108.888599 48.486653 
L 112.663133 48.486653 
L 112.663133 44.654257 
L 125.956606 44.654257 
L 125.956606 40.821861 
L 129.276125 40.821861 
L 129.276125 36.989465 
L 131.964472 36.989465 
L 131.964472 33.157069 
L 132.504326 33.157069 
L 132.504326 29.324673 
L 143.450734 29.324673 
L 143.450734 25.492277 
L 153.634657 25.492277 
L 153.634657 21.659881 
L 154.567913 21.659881 
L 154.567913 17.827485 
L 169.500122 17.827485 
L 169.500122 13.995089 
L 169.769357 13.995089 
L 169.769357 10.162693 
L 173.856942 10.162693 
L 173.856942 6.330297 
L 173.856942 6.330297 
L 460.8 6.330297 
L 460.8 6.330297 
" clip-path="url(#pd9079cdffd)" style="fill: none; stroke: #000000; stroke-width: 1.5; stroke-linecap: square"/>
   </g>
   <g id="patch_3">
    <path d="M 0 293.76 
L 0 3.456 
" style="fill: none; stroke: #000000; stroke-width: 0.8; stroke-linejoin: miter; stroke-linecap: square"/>
   </g>
   <g id="patch_4">
    <path d="M 460.8 293.76 
L 460.8 3.456 
" style="fill: none; stroke: #000000; stroke-width: 0.8; stroke-linejoin: miter; stroke-linecap: square"/>
   </g>
   <g id="patch_5">
    <path d="M 0 293.76 
L 460.8 293.76 
" style="fill: none; stroke: #000000; stroke-width: 0.8; stroke-linejoin: miter; stroke-linecap: square"/>
   </g>
   <g id="patch_6">
    <path d="M 0 3.456 
L 460.8 3.456 
" style="fill: none; stroke: #000000; stroke-width: 0.8; stroke-linejoin: miter; stroke-linecap: square"/>
   </g>
   <g id="text_6">
    <!-- {f10-f14}, 20-D -->
    <g transform="translate(293.159 287.95392) scale(0.2 -0.2)">
     <defs>
      <path id="DejaVuSans-7b" d="M 3272 -594 
L 3272 -1044 
L 3078 -1044 
Q 2300 -1044 2036 -812 
Q 1772 -581 1772 109 
L 1772 856 
Q 1772 1328 1603 1509 
Q 1434 1691 991 1691 
L 800 1691 
L 800 2138 
L 991 2138 
Q 1438 2138 1605 2317 
Q 1772 2497 1772 2963 
L 1772 3713 
Q 1772 4403 2036 4633 
Q 2300 4863 3078 4863 
L 3272 4863 
L 3272 4416 
L 3059 4416 
Q 2619 4416 2484 4278 
Q 2350 4141 2350 3700 
L 2350 2925 
Q 2350 2434 2208 2212 
Q 2066 1991 1722 1913 
Q 2069 1828 2209 1606 
Q 2350 1384 2350 897 
L 2350 122 
Q 2350 -319 2484 -456 
Q 2619 -594 3059 -594 
L 3272 -594 
z
" transform="scale(0.015625)"/>
      <path id="DejaVuSans-7d" d="M 800 -594 
L 1019 -594 
Q 1456 -594 1589 -459 
Q 1722 -325 1722 122 
L 1722 897 
Q 1722 1384 1862 1606 
Q 2003 1828 2350 1913 
Q 2003 1991 1862 2212 
Q 1722 2434 1722 2925 
L 1722 3700 
Q 1722 4144 1589 4280 
Q 1456 4416 1019 4416 
L 800 4416 
L 800 4863 
L 997 4863 
Q 1775 4863 2036 4633 
Q 2297 4403 2297 3713 
L 2297 2963 
Q 2297 2497 2465 2317 
Q 2634 2138 3078 2138 
L 3272 2138 
L 3272 1691 
L 3078 1691 
Q 2634 1691 2465 1509 
Q 2297 1328 2297 856 
L 2297 109 
Q 2297 -581 2036 -812 
Q 1775 -1044 997 -1044 
L 800 -1044 
L 800 -594 
z
" transform="scale(0.015625)"/>
      <path id="DejaVuSans-2c" d="M 750 794 
L 1409 794 
L 1409 256 
L 897 -744 
L 494 -744 
L 750 256 
L 750 794 
z
" transform="scale(0.015625)"/>
      <path id="DejaVuSans-32" d="M 1228 531 
L 3431 531 
L 3431 0 
L 469 0 
L 469 531 
Q 828 903 1448 1529 
Q 2069 2156 2228 2338 
Q 2531 2678 2651 2914 
Q 2772 3150 2772 3378 
Q 2772 3750 2511 3984 
Q 2250 4219 1831 4219 
Q 1534 4219 1204 4116 
Q 875 4013 500 3803 
L 500 4441 
Q 881 4594 1212 4672 
Q 1544 4750 1819 4750 
Q 2544 4750 2975 4387 
Q 3406 4025 3406 3419 
Q 3406 3131 3298 2873 
Q 3191 2616 2906 2266 
Q 2828 2175 2409 1742 
Q 1991 1309 1228 531 
z
" transform="scale(0.015625)"/>
     </defs>
     <use xlink:href="#DejaVuSans-7b"/>
     <use xlink:href="#DejaVuSans-66" x="63.623047"/>
     <use xlink:href="#DejaVuSans-31" x="98.828125"/>
     <use xlink:href="#DejaVuSans-30" x="162.451172"/>
     <use xlink:href="#DejaVuSans-2d" x="226.074219"/>
     <use xlink:href="#DejaVuSans-66" x="262.158203"/>
     <use xlink:href="#DejaVuSans-31" x="297.363281"/>
     <use xlink:href="#DejaVuSans-34" x="360.986328"/>
     <use xlink:href="#DejaVuSans-7d" x="424.609375"/>
     <use xlink:href="#DejaVuSans-2c" x="488.232422"/>
     <use xlink:href="#DejaVuSans-20" x="520.019531"/>
     <use xlink:href="#DejaVuSans-32" x="551.806641"/>
     <use xlink:href="#DejaVuSans-30" x="615.429688"/>
     <use xlink:href="#DejaVuSans-2d" x="679.052734"/>
     <use xlink:href="#DejaVuSans-44" x="715.136719"/>
    </g>
   </g>
   <g id="text_7">
    <!-- v2.6.3 -->
    <g style="fill: #808080" transform="translate(214.71875 288.777272) scale(0.1 -0.1)">
     <defs>
      <path id="DejaVuSans-76" d="M 191 3500 
L 800 3500 
L 1894 563 
L 2988 3500 
L 3597 3500 
L 2284 0 
L 1503 0 
L 191 3500 
z
" transform="scale(0.015625)"/>
      <path id="DejaVuSans-2e" d="M 684 794 
L 1344 794 
L 1344 0 
L 684 0 
L 684 794 
z
" transform="scale(0.015625)"/>
      <path id="DejaVuSans-36" d="M 2113 2584 
Q 1688 2584 1439 2293 
Q 1191 2003 1191 1497 
Q 1191 994 1439 701 
Q 1688 409 2113 409 
Q 2538 409 2786 701 
Q 3034 994 3034 1497 
Q 3034 2003 2786 2293 
Q 2538 2584 2113 2584 
z
M 3366 4563 
L 3366 3988 
Q 3128 4100 2886 4159 
Q 2644 4219 2406 4219 
Q 1781 4219 1451 3797 
Q 1122 3375 1075 2522 
Q 1259 2794 1537 2939 
Q 1816 3084 2150 3084 
Q 2853 3084 3261 2657 
Q 3669 2231 3669 1497 
Q 3669 778 3244 343 
Q 2819 -91 2113 -91 
Q 1303 -91 875 529 
Q 447 1150 447 2328 
Q 447 3434 972 4092 
Q 1497 4750 2381 4750 
Q 2619 4750 2861 4703 
Q 3103 4656 3366 4563 
z
" transform="scale(0.015625)"/>
      <path id="DejaVuSans-33" d="M 2597 2516 
Q 3050 2419 3304 2112 
Q 3559 1806 3559 1356 
Q 3559 666 3084 287 
Q 2609 -91 1734 -91 
Q 1441 -91 1130 -33 
Q 819 25 488 141 
L 488 750 
Q 750 597 1062 519 
Q 1375 441 1716 441 
Q 2309 441 2620 675 
Q 2931 909 2931 1356 
Q 2931 1769 2642 2001 
Q 2353 2234 1838 2234 
L 1294 2234 
L 1294 2753 
L 1863 2753 
Q 2328 2753 2575 2939 
Q 2822 3125 2822 3475 
Q 2822 3834 2567 4026 
Q 2313 4219 1838 4219 
Q 1578 4219 1281 4162 
Q 984 4106 628 3988 
L 628 4550 
Q 988 4650 1302 4700 
Q 1616 4750 1894 4750 
Q 2613 4750 3031 4423 
Q 3450 4097 3450 3541 
Q 3450 3153 3228 2886 
Q 3006 2619 2597 2516 
z
" transform="scale(0.015625)"/>
     </defs>
     <use xlink:href="#DejaVuSans-76"/>
     <use xlink:href="#DejaVuSans-32" x="59.179688"/>
     <use xlink:href="#DejaVuSans-2e" x="122.802734"/>
     <use xlink:href="#DejaVuSans-36" x="154.589844"/>
     <use xlink:href="#DejaVuSans-2e" x="218.212891"/>
     <use xlink:href="#DejaVuSans-33" x="250"/>
    </g>
   </g>
  </g>
 </g>
 <defs>
  <clipPath id="pd9079cdffd">
   <rect x="0" y="3.456" width="460.8" height="290.304"/>
  </clipPath>
 </defs>
</svg>
