<?xml version="1.0" encoding="utf-8" standalone="no"?>
<!DOCTYPE svg PUBLIC "-//W3C//DTD SVG 1.1//EN"
  "http://www.w3.org/Graphics/SVG/1.1/DTD/svg11.dtd">
<svg xmlns:xlink="http://www.w3.org/1999/xlink" width="460.8pt" height="345.6pt" viewBox="0 0 460.8 345.6" xmlns="http://www.w3.org/2000/svg" version="1.1">
 <metadata>
  <rdf:RDF xmlns:dc="http://purl.org/dc/elements/1.1/" xmlns:cc="http://creativecommons.org/ns#" xmlns:rdf="http://www.w3.org/1999/02/22-rdf-syntax-ns#">
   <cc:Work>
    <dc:type rdf:resource="http://purl.org/dc/dcmitype/StillImage"/>
    <dc:date>2024-06-22T00:24:26.718379</dc:date>
    <dc:format>image/svg+xml</dc:format>
    <dc:creator>
     <cc:Agent>
      <dc:title>Matplotlib v3.7.5, https://matplotlib.org/</dc:title>
     </cc:Agent>
    </dc:creator>
   </cc:Work>
  </rdf:RDF>
 </metadata>
 <defs>
  <style type="text/css">*{stroke-linejoin: round; stroke-linecap: butt}</style>
 </defs>
 <g id="figure_1">
  <g id="patch_1">
   <path d="M 0 345.6 
L 460.8 345.6 
L 460.8 0 
L 0 0 
z
" style="fill: #ffffff"/>
  </g>
  <g id="axes_1">
   <g id="patch_2">
    <path d="M 0 293.76 
L 460.8 293.76 
L 460.8 3.456 
L 0 3.456 
z
" style="fill: #ffffff"/>
   </g>
   <g id="matplotlib.axis_1">
    <g id="xtick_1">
     <g id="line2d_1">
      <path d="M 93.564167 293.76 
L 93.564167 3.456 
" clip-path="url(#pf42a27fe88)" style="fill: none; stroke: #b0b0b0; stroke-width: 0.8; stroke-linecap: square"/>
     </g>
     <g id="line2d_2">
      <defs>
       <path id="mab0da05636" d="M 0 0 
L 0 3.5 
" style="stroke: #000000; stroke-width: 0.8"/>
      </defs>
      <g>
       <use xlink:href="#mab0da05636" x="93.564167" y="293.76" style="stroke: #000000; stroke-width: 0.8"/>
      </g>
     </g>
     <g id="text_1">
      <!-- -4 -->
      <g transform="translate(83.593854 315.956875) scale(0.2 -0.2)">
       <defs>
        <path id="DejaVuSans-2d" d="M 313 2009 
L 1997 2009 
L 1997 1497 
L 313 1497 
L 313 2009 
z
" transform="scale(0.015625)"/>
        <path id="DejaVuSans-34" d="M 2419 4116 
L 825 1625 
L 2419 1625 
L 2419 4116 
z
M 2253 4666 
L 3047 4666 
L 3047 1625 
L 3713 1625 
L 3713 1100 
L 3047 1100 
L 3047 0 
L 2419 0 
L 2419 1100 
L 313 1100 
L 313 1709 
L 2253 4666 
z
" transform="scale(0.015625)"/>
       </defs>
       <use xlink:href="#DejaVuSans-2d"/>
       <use xlink:href="#DejaVuSans-34" x="36.083984"/>
      </g>
     </g>
    </g>
    <g id="xtick_2">
     <g id="line2d_3">
      <path d="M 187.229525 293.76 
L 187.229525 3.456 
" clip-path="url(#pf42a27fe88)" style="fill: none; stroke: #b0b0b0; stroke-width: 0.8; stroke-linecap: square"/>
     </g>
     <g id="line2d_4">
      <g>
       <use xlink:href="#mab0da05636" x="187.229525" y="293.76" style="stroke: #000000; stroke-width: 0.8"/>
      </g>
     </g>
     <g id="text_2">
      <!-- 0 -->
      <g transform="translate(180.867025 315.956875) scale(0.2 -0.2)">
       <defs>
        <path id="DejaVuSans-30" d="M 2034 4250 
Q 1547 4250 1301 3770 
Q 1056 3291 1056 2328 
Q 1056 1369 1301 889 
Q 1547 409 2034 409 
Q 2525 409 2770 889 
Q 3016 1369 3016 2328 
Q 3016 3291 2770 3770 
Q 2525 4250 2034 4250 
z
M 2034 4750 
Q 2819 4750 3233 4129 
Q 3647 3509 3647 2328 
Q 3647 1150 3233 529 
Q 2819 -91 2034 -91 
Q 1250 -91 836 529 
Q 422 1150 422 2328 
Q 422 3509 836 4129 
Q 1250 4750 2034 4750 
z
" transform="scale(0.015625)"/>
       </defs>
       <use xlink:href="#DejaVuSans-30"/>
      </g>
     </g>
    </g>
    <g id="xtick_3">
     <g id="line2d_5">
      <path d="M 280.894882 293.76 
L 280.894882 3.456 
" clip-path="url(#pf42a27fe88)" style="fill: none; stroke: #b0b0b0; stroke-width: 0.8; stroke-linecap: square"/>
     </g>
     <g id="line2d_6">
      <g>
       <use xlink:href="#mab0da05636" x="280.894882" y="293.76" style="stroke: #000000; stroke-width: 0.8"/>
      </g>
     </g>
     <g id="text_3">
      <!-- 4 -->
      <g transform="translate(274.532382 315.956875) scale(0.2 -0.2)">
       <use xlink:href="#DejaVuSans-34"/>
      </g>
     </g>
    </g>
    <g id="xtick_4">
     <g id="line2d_7">
      <path d="M 374.56024 293.76 
L 374.56024 3.456 
" clip-path="url(#pf42a27fe88)" style="fill: none; stroke: #b0b0b0; stroke-width: 0.8; stroke-linecap: square"/>
     </g>
     <g id="line2d_8">
      <g>
       <use xlink:href="#mab0da05636" x="374.56024" y="293.76" style="stroke: #000000; stroke-width: 0.8"/>
      </g>
     </g>
     <g id="text_4">
      <!-- 8 -->
      <g transform="translate(368.19774 315.956875) scale(0.2 -0.2)">
       <defs>
        <path id="DejaVuSans-38" d="M 2034 2216 
Q 1584 2216 1326 1975 
Q 1069 1734 1069 1313 
Q 1069 891 1326 650 
Q 1584 409 2034 409 
Q 2484 409 2743 651 
Q 3003 894 3003 1313 
Q 3003 1734 2745 1975 
Q 2488 2216 2034 2216 
z
M 1403 2484 
Q 997 2584 770 2862 
Q 544 3141 544 3541 
Q 544 4100 942 4425 
Q 1341 4750 2034 4750 
Q 2731 4750 3128 4425 
Q 3525 4100 3525 3541 
Q 3525 3141 3298 2862 
Q 3072 2584 2669 2484 
Q 3125 2378 3379 2068 
Q 3634 1759 3634 1313 
Q 3634 634 3220 271 
Q 2806 -91 2034 -91 
Q 1263 -91 848 271 
Q 434 634 434 1313 
Q 434 1759 690 2068 
Q 947 2378 1403 2484 
z
M 1172 3481 
Q 1172 3119 1398 2916 
Q 1625 2713 2034 2713 
Q 2441 2713 2670 2916 
Q 2900 3119 2900 3481 
Q 2900 3844 2670 4047 
Q 2441 4250 2034 4250 
Q 1625 4250 1398 4047 
Q 1172 3844 1172 3481 
z
" transform="scale(0.015625)"/>
       </defs>
       <use xlink:href="#DejaVuSans-38"/>
      </g>
     </g>
    </g>
    <g id="text_5">
     <!-- log10 of Df -->
     <g transform="translate(175.214063 339.313125) scale(0.2 -0.2)">
      <defs>
       <path id="DejaVuSans-6c" d="M 603 4863 
L 1178 4863 
L 1178 0 
L 603 0 
L 603 4863 
z
" transform="scale(0.015625)"/>
       <path id="DejaVuSans-6f" d="M 1959 3097 
Q 1497 3097 1228 2736 
Q 959 2375 959 1747 
Q 959 1119 1226 758 
Q 1494 397 1959 397 
Q 2419 397 2687 759 
Q 2956 1122 2956 1747 
Q 2956 2369 2687 2733 
Q 2419 3097 1959 3097 
z
M 1959 3584 
Q 2709 3584 3137 3096 
Q 3566 2609 3566 1747 
Q 3566 888 3137 398 
Q 2709 -91 1959 -91 
Q 1206 -91 779 398 
Q 353 888 353 1747 
Q 353 2609 779 3096 
Q 1206 3584 1959 3584 
z
" transform="scale(0.015625)"/>
       <path id="DejaVuSans-67" d="M 2906 1791 
Q 2906 2416 2648 2759 
Q 2391 3103 1925 3103 
Q 1463 3103 1205 2759 
Q 947 2416 947 1791 
Q 947 1169 1205 825 
Q 1463 481 1925 481 
Q 2391 481 2648 825 
Q 2906 1169 2906 1791 
z
M 3481 434 
Q 3481 -459 3084 -895 
Q 2688 -1331 1869 -1331 
Q 1566 -1331 1297 -1286 
Q 1028 -1241 775 -1147 
L 775 -588 
Q 1028 -725 1275 -790 
Q 1522 -856 1778 -856 
Q 2344 -856 2625 -561 
Q 2906 -266 2906 331 
L 2906 616 
Q 2728 306 2450 153 
Q 2172 0 1784 0 
Q 1141 0 747 490 
Q 353 981 353 1791 
Q 353 2603 747 3093 
Q 1141 3584 1784 3584 
Q 2172 3584 2450 3431 
Q 2728 3278 2906 2969 
L 2906 3500 
L 3481 3500 
L 3481 434 
z
" transform="scale(0.015625)"/>
       <path id="DejaVuSans-31" d="M 794 531 
L 1825 531 
L 1825 4091 
L 703 3866 
L 703 4441 
L 1819 4666 
L 2450 4666 
L 2450 531 
L 3481 531 
L 3481 0 
L 794 0 
L 794 531 
z
" transform="scale(0.015625)"/>
       <path id="DejaVuSans-20" transform="scale(0.015625)"/>
       <path id="DejaVuSans-66" d="M 2375 4863 
L 2375 4384 
L 1825 4384 
Q 1516 4384 1395 4259 
Q 1275 4134 1275 3809 
L 1275 3500 
L 2222 3500 
L 2222 3053 
L 1275 3053 
L 1275 0 
L 697 0 
L 697 3053 
L 147 3053 
L 147 3500 
L 697 3500 
L 697 3744 
Q 697 4328 969 4595 
Q 1241 4863 1831 4863 
L 2375 4863 
z
" transform="scale(0.015625)"/>
       <path id="DejaVuSans-44" d="M 1259 4147 
L 1259 519 
L 2022 519 
Q 2988 519 3436 956 
Q 3884 1394 3884 2338 
Q 3884 3275 3436 3711 
Q 2988 4147 2022 4147 
L 1259 4147 
z
M 628 4666 
L 1925 4666 
Q 3281 4666 3915 4102 
Q 4550 3538 4550 2338 
Q 4550 1131 3912 565 
Q 3275 0 1925 0 
L 628 0 
L 628 4666 
z
" transform="scale(0.015625)"/>
      </defs>
      <use xlink:href="#DejaVuSans-6c"/>
      <use xlink:href="#DejaVuSans-6f" x="27.783203"/>
      <use xlink:href="#DejaVuSans-67" x="88.964844"/>
      <use xlink:href="#DejaVuSans-31" x="152.441406"/>
      <use xlink:href="#DejaVuSans-30" x="216.064453"/>
      <use xlink:href="#DejaVuSans-20" x="279.6875"/>
      <use xlink:href="#DejaVuSans-6f" x="311.474609"/>
      <use xlink:href="#DejaVuSans-66" x="372.65625"/>
      <use xlink:href="#DejaVuSans-20" x="407.861328"/>
      <use xlink:href="#DejaVuSans-44" x="439.648438"/>
      <use xlink:href="#DejaVuSans-66" x="516.650391"/>
     </g>
    </g>
   </g>
   <g id="matplotlib.axis_2">
    <g id="ytick_1">
     <g id="line2d_9">
      <path d="M 0 293.76 
L 460.8 293.76 
" clip-path="url(#pf42a27fe88)" style="fill: none; stroke: #b0b0b0; stroke-width: 0.8; stroke-linecap: square"/>
     </g>
     <g id="line2d_10">
      <defs>
       <path id="ma95bd6e216" d="M 0 0 
L -3.5 0 
" style="stroke: #000000; stroke-width: 0.8"/>
      </defs>
      <g>
       <use xlink:href="#ma95bd6e216" x="0" y="293.76" style="stroke: #000000; stroke-width: 0.8"/>
      </g>
     </g>
    </g>
    <g id="ytick_2">
     <g id="line2d_11">
      <path d="M 0 236.274059 
L 460.8 236.274059 
" clip-path="url(#pf42a27fe88)" style="fill: none; stroke: #b0b0b0; stroke-width: 0.8; stroke-linecap: square"/>
     </g>
     <g id="line2d_12">
      <g>
       <use xlink:href="#ma95bd6e216" x="0" y="236.274059" style="stroke: #000000; stroke-width: 0.8"/>
      </g>
     </g>
    </g>
    <g id="ytick_3">
     <g id="line2d_13">
      <path d="M 0 178.788119 
L 460.8 178.788119 
" clip-path="url(#pf42a27fe88)" style="fill: none; stroke: #b0b0b0; stroke-width: 0.8; stroke-linecap: square"/>
     </g>
     <g id="line2d_14">
      <g>
       <use xlink:href="#ma95bd6e216" x="0" y="178.788119" style="stroke: #000000; stroke-width: 0.8"/>
      </g>
     </g>
    </g>
    <g id="ytick_4">
     <g id="line2d_15">
      <path d="M 0 121.302178 
L 460.8 121.302178 
" clip-path="url(#pf42a27fe88)" style="fill: none; stroke: #b0b0b0; stroke-width: 0.8; stroke-linecap: square"/>
     </g>
     <g id="line2d_16">
      <g>
       <use xlink:href="#ma95bd6e216" x="0" y="121.302178" style="stroke: #000000; stroke-width: 0.8"/>
      </g>
     </g>
    </g>
    <g id="ytick_5">
     <g id="line2d_17">
      <path d="M 0 63.816238 
L 460.8 63.816238 
" clip-path="url(#pf42a27fe88)" style="fill: none; stroke: #b0b0b0; stroke-width: 0.8; stroke-linecap: square"/>
     </g>
     <g id="line2d_18">
      <g>
       <use xlink:href="#ma95bd6e216" x="0" y="63.816238" style="stroke: #000000; stroke-width: 0.8"/>
      </g>
     </g>
    </g>
    <g id="ytick_6">
     <g id="line2d_19">
      <path d="M 0 6.330297 
L 460.8 6.330297 
" clip-path="url(#pf42a27fe88)" style="fill: none; stroke: #b0b0b0; stroke-width: 0.8; stroke-linecap: square"/>
     </g>
     <g id="line2d_20">
      <g>
       <use xlink:href="#ma95bd6e216" x="0" y="6.330297" style="stroke: #000000; stroke-width: 0.8"/>
      </g>
     </g>
    </g>
   </g>
   <g id="line2d_21">
    <path d="M -1 284.17901 
L 28.215341 284.17901 
L 28.215341 279.388515 
L 42.293455 279.388515 
L 42.293455 274.59802 
L 44.324928 274.59802 
L 44.324928 269.807525 
L 44.573283 269.807525 
L 44.573283 265.01703 
L 45.894501 265.01703 
L 45.894501 260.226535 
L 53.199712 260.226535 
L 53.199712 255.43604 
L 60.750734 255.43604 
L 60.750734 250.645545 
L 70.068116 250.645545 
L 70.068116 245.85505 
L 75.439722 245.85505 
L 75.439722 241.064554 
L 76.895332 241.064554 
L 76.895332 236.274059 
L 81.379415 236.274059 
L 81.379415 231.483564 
L 98.427512 231.483564 
L 98.427512 226.693069 
L 119.185282 226.693069 
L 119.185282 221.902574 
L 150.930319 221.902574 
L 150.930319 217.112079 
L 157.743092 217.112079 
L 157.743092 212.321584 
L 165.576715 212.321584 
L 165.576715 207.531089 
L 166.333017 207.531089 
L 166.333017 202.740594 
L 169.057852 202.740594 
L 169.057852 197.950099 
L 169.107808 197.950099 
L 169.107808 193.159604 
L 172.244628 193.159604 
L 172.244628 188.369109 
L 172.783731 188.369109 
L 172.783731 183.578614 
L 173.75181 183.578614 
L 173.75181 178.788119 
L 173.888281 178.788119 
L 173.888281 173.997624 
L 174.386216 173.997624 
L 174.386216 169.207129 
L 174.653225 169.207129 
L 174.653225 164.416634 
L 175.540309 164.416634 
L 175.540309 159.626139 
L 176.639905 159.626139 
L 176.639905 154.835644 
L 177.129475 154.835644 
L 177.129475 150.045149 
L 177.256853 150.045149 
L 177.256853 145.254653 
L 177.846929 145.254653 
L 177.846929 140.464158 
L 178.435312 140.464158 
L 178.435312 135.673663 
L 179.808917 135.673663 
L 179.808917 130.883168 
L 180.347789 130.883168 
L 180.347789 126.092673 
L 180.54013 126.092673 
L 180.54013 121.302178 
L 182.408267 121.302178 
L 182.408267 116.511683 
L 184.466759 116.511683 
L 184.466759 111.721188 
L 184.581419 111.721188 
L 184.581419 106.930693 
L 185.821682 106.930693 
L 185.821682 102.140198 
L 188.395991 102.140198 
L 188.395991 97.349703 
L 188.432844 97.349703 
L 188.432844 92.559208 
L 190.025041 92.559208 
L 190.025041 87.768713 
L 193.908901 87.768713 
L 193.908901 82.978218 
L 196.13881 82.978218 
L 196.13881 78.187723 
L 196.324844 78.187723 
L 196.324844 73.397228 
L 199.29845 73.397228 
L 199.29845 68.606733 
L 201.27787 68.606733 
L 201.27787 63.816238 
L 201.311608 63.816238 
L 201.311608 59.025743 
L 201.373293 59.025743 
L 201.373293 54.235248 
L 201.528433 54.235248 
L 201.528433 49.444752 
L 202.517079 49.444752 
L 202.517079 44.654257 
L 202.92707 44.654257 
L 202.92707 39.863762 
L 204.345462 39.863762 
L 204.345462 35.073267 
L 204.953674 35.073267 
L 204.953674 30.282772 
L 206.881805 30.282772 
L 206.881805 25.492277 
L 210.48405 25.492277 
L 210.48405 20.701782 
L 213.535745 20.701782 
L 213.535745 15.911287 
L 220.804672 15.911287 
L 220.804672 11.120792 
L 222.588444 11.120792 
L 222.588444 6.330297 
L 222.588444 6.330297 
L 222.588444 6.330297 
L 460.8 6.330297 
" clip-path="url(#pf42a27fe88)" style="fill: none; stroke: #ff0000; stroke-width: 3; stroke-linecap: square"/>
   </g>
   <g id="line2d_22">
    <path d="M 235.611467 293.76 
L 235.611467 288.969505 
L 238.047027 288.969505 
L 238.047027 284.17901 
L 238.578556 284.17901 
L 238.578556 279.388515 
L 239.443914 279.388515 
L 239.443914 274.59802 
L 244.890645 274.59802 
L 244.890645 269.807525 
L 246.41905 269.807525 
L 246.41905 265.01703 
L 246.513281 265.01703 
L 246.513281 260.226535 
L 250.012504 260.226535 
L 250.012504 255.43604 
L 253.486655 255.43604 
L 253.486655 250.645545 
L 255.411603 250.645545 
L 255.411603 245.85505 
L 255.640306 245.85505 
L 255.640306 241.064554 
L 257.474001 241.064554 
L 257.474001 236.274059 
L 257.788942 236.274059 
L 257.788942 231.483564 
L 258.653664 231.483564 
L 258.653664 226.693069 
L 259.058619 226.693069 
L 259.058619 221.902574 
L 259.999783 221.902574 
L 259.999783 217.112079 
L 270.948628 217.112079 
L 270.948628 212.321584 
L 279.292911 212.321584 
L 279.292911 207.531089 
L 279.964004 207.531089 
L 279.964004 202.740594 
L 283.385247 202.740594 
L 283.385247 197.950099 
L 285.024195 197.950099 
L 285.024195 193.159604 
L 286.677978 193.159604 
L 286.677978 188.369109 
L 287.803141 188.369109 
L 287.803141 183.578614 
L 289.495714 183.578614 
L 289.495714 178.788119 
L 289.977863 178.788119 
L 289.977863 173.997624 
L 290.828656 173.997624 
L 290.828656 169.207129 
L 291.984019 169.207129 
L 291.984019 164.416634 
L 292.779186 164.416634 
L 292.779186 159.626139 
L 293.106872 159.626139 
L 293.106872 154.835644 
L 293.217253 154.835644 
L 293.217253 150.045149 
L 293.286623 150.045149 
L 293.286623 145.254653 
L 293.562627 145.254653 
L 293.562627 140.464158 
L 294.534983 140.464158 
L 294.534983 135.673663 
L 294.94998 135.673663 
L 294.94998 130.883168 
L 295.675112 130.883168 
L 295.675112 126.092673 
L 298.950029 126.092673 
L 298.950029 121.302178 
L 298.972995 121.302178 
L 298.972995 116.511683 
L 299.461775 116.511683 
L 299.461775 111.721188 
L 299.483232 111.721188 
L 299.483232 106.930693 
L 299.95882 106.930693 
L 299.95882 102.140198 
L 300.752003 102.140198 
L 300.752003 97.349703 
L 300.992838 97.349703 
L 300.992838 92.559208 
L 301.215825 92.559208 
L 301.215825 87.768713 
L 301.905691 87.768713 
L 301.905691 82.978218 
L 303.579448 82.978218 
L 303.579448 78.187723 
L 304.021465 78.187723 
L 304.021465 73.397228 
L 304.675093 73.397228 
L 304.675093 68.606733 
L 306.474524 68.606733 
L 306.474524 63.816238 
L 308.260188 63.816238 
L 308.260188 59.025743 
L 309.690204 59.025743 
L 309.690204 54.235248 
L 310.400458 54.235248 
L 310.400458 49.444752 
L 312.402683 49.444752 
L 312.402683 44.654257 
L 314.24742 44.654257 
L 314.24742 39.863762 
L 314.854072 39.863762 
L 314.854072 35.073267 
L 315.443373 35.073267 
L 315.443373 30.282772 
L 315.630359 30.282772 
L 315.630359 25.492277 
L 315.677123 25.492277 
L 315.677123 20.701782 
L 317.681869 20.701782 
L 317.681869 15.911287 
L 322.24598 15.911287 
L 322.24598 11.120792 
L 326.148572 11.120792 
L 326.148572 6.330297 
L 326.148572 6.330297 
L 326.148572 6.330297 
L 460.8 6.330297 
" clip-path="url(#pf42a27fe88)" style="fill: none; stroke: #00bfbf; stroke-width: 1.5; stroke-linecap: square"/>
   </g>
   <g id="line2d_23">
    <path d="M 222.757344 293.76 
L 222.757344 288.969505 
L 233.670115 288.969505 
L 233.670115 284.17901 
L 235.151365 284.17901 
L 235.151365 279.388515 
L 235.362512 279.388515 
L 235.362512 274.59802 
L 235.611467 274.59802 
L 235.611467 269.807525 
L 237.300351 269.807525 
L 237.300351 265.01703 
L 237.588642 265.01703 
L 237.588642 260.226535 
L 238.047027 260.226535 
L 238.047027 255.43604 
L 238.364019 255.43604 
L 238.364019 250.645545 
L 239.080825 250.645545 
L 239.080825 245.85505 
L 239.443914 245.85505 
L 239.443914 241.064554 
L 239.867372 241.064554 
L 239.867372 236.274059 
L 241.018321 236.274059 
L 241.018321 231.483564 
L 241.231136 231.483564 
L 241.231136 226.693069 
L 244.890645 226.693069 
L 244.890645 221.902574 
L 249.199503 221.902574 
L 249.199503 217.112079 
L 252.726035 217.112079 
L 252.726035 212.321584 
L 267.609511 212.321584 
L 267.609511 207.531089 
L 270.948628 207.531089 
L 270.948628 202.740594 
L 278.882013 202.740594 
L 278.882013 197.950099 
L 279.204915 197.950099 
L 279.204915 193.159604 
L 279.292911 193.159604 
L 279.292911 188.369109 
L 279.733605 188.369109 
L 279.733605 183.578614 
L 279.964004 183.578614 
L 279.964004 178.788119 
L 283.23884 178.788119 
L 283.23884 173.997624 
L 283.385247 173.997624 
L 283.385247 169.207129 
L 284.291462 169.207129 
L 284.291462 164.416634 
L 285.024195 164.416634 
L 285.024195 159.626139 
L 286.677978 159.626139 
L 286.677978 154.835644 
L 286.738034 154.835644 
L 286.738034 150.045149 
L 287.803141 150.045149 
L 287.803141 145.254653 
L 288.60211 145.254653 
L 288.60211 140.464158 
L 288.675186 140.464158 
L 288.675186 135.673663 
L 288.863479 135.673663 
L 288.863479 130.883168 
L 289.977863 130.883168 
L 289.977863 126.092673 
L 290.804906 126.092673 
L 290.804906 121.302178 
L 290.828656 121.302178 
L 290.828656 116.511683 
L 290.908843 116.511683 
L 290.908843 111.721188 
L 291.647571 111.721188 
L 291.647571 106.930693 
L 291.984019 106.930693 
L 291.984019 102.140198 
L 293.106872 102.140198 
L 293.106872 97.349703 
L 293.136326 97.349703 
L 293.136326 92.559208 
L 293.217253 92.559208 
L 293.217253 87.768713 
L 293.218603 87.768713 
L 293.218603 82.978218 
L 293.562627 82.978218 
L 293.562627 78.187723 
L 295.196046 78.187723 
L 295.196046 73.397228 
L 299.461775 73.397228 
L 299.461775 68.606733 
L 299.483232 68.606733 
L 299.483232 63.816238 
L 299.589348 63.816238 
L 299.589348 59.025743 
L 299.95882 59.025743 
L 299.95882 54.235248 
L 300.992838 54.235248 
L 300.992838 49.444752 
L 303.579448 49.444752 
L 303.579448 44.654257 
L 304.021465 44.654257 
L 304.021465 39.863762 
L 304.675093 39.863762 
L 304.675093 35.073267 
L 306.474524 35.073267 
L 306.474524 30.282772 
L 308.33927 30.282772 
L 308.33927 25.492277 
L 309.300644 25.492277 
L 309.300644 20.701782 
L 309.690204 20.701782 
L 309.690204 15.911287 
L 312.402683 15.911287 
L 312.402683 11.120792 
L 315.169217 11.120792 
L 315.169217 6.330297 
L 315.169217 6.330297 
L 315.169217 6.330297 
L 460.8 6.330297 
" clip-path="url(#pf42a27fe88)" style="fill: none; stroke: #bf00bf; stroke-width: 1.5; stroke-linecap: square"/>
   </g>
   <g id="line2d_24">
    <path d="M 208.171664 293.76 
L 208.171664 288.969505 
L 222.757344 288.969505 
L 222.757344 284.17901 
L 228.353134 284.17901 
L 228.353134 279.388515 
L 230.112354 279.388515 
L 230.112354 274.59802 
L 230.155716 274.59802 
L 230.155716 269.807525 
L 231.594539 269.807525 
L 231.594539 265.01703 
L 231.851042 265.01703 
L 231.851042 260.226535 
L 231.852903 260.226535 
L 231.852903 255.43604 
L 231.925725 255.43604 
L 231.925725 250.645545 
L 232.211809 250.645545 
L 232.211809 245.85505 
L 232.221245 245.85505 
L 232.221245 241.064554 
L 233.670115 241.064554 
L 233.670115 236.274059 
L 234.385657 236.274059 
L 234.385657 231.483564 
L 235.151365 231.483564 
L 235.151365 226.693069 
L 235.362512 226.693069 
L 235.362512 221.902574 
L 235.514627 221.902574 
L 235.514627 217.112079 
L 235.611467 217.112079 
L 235.611467 212.321584 
L 236.153632 212.321584 
L 236.153632 207.531089 
L 237.300351 207.531089 
L 237.300351 202.740594 
L 237.368975 202.740594 
L 237.368975 197.950099 
L 241.85814 197.950099 
L 241.85814 193.159604 
L 241.934546 193.159604 
L 241.934546 188.369109 
L 243.380351 188.369109 
L 243.380351 183.578614 
L 253.436801 183.578614 
L 253.436801 178.788119 
L 254.183905 178.788119 
L 254.183905 173.997624 
L 263.409181 173.997624 
L 263.409181 169.207129 
L 264.324643 169.207129 
L 264.324643 164.416634 
L 267.483727 164.416634 
L 267.483727 159.626139 
L 267.609511 159.626139 
L 267.609511 154.835644 
L 268.121253 154.835644 
L 268.121253 150.045149 
L 268.978034 150.045149 
L 268.978034 145.254653 
L 269.440983 145.254653 
L 269.440983 140.464158 
L 270.387633 140.464158 
L 270.387633 135.673663 
L 270.771813 135.673663 
L 270.771813 130.883168 
L 270.948628 130.883168 
L 270.948628 126.092673 
L 271.890996 126.092673 
L 271.890996 121.302178 
L 271.91341 121.302178 
L 271.91341 116.511683 
L 274.228357 116.511683 
L 274.228357 111.721188 
L 274.550254 111.721188 
L 274.550254 106.930693 
L 274.775995 106.930693 
L 274.775995 102.140198 
L 277.05206 102.140198 
L 277.05206 97.349703 
L 277.998808 97.349703 
L 277.998808 92.559208 
L 278.844499 92.559208 
L 278.844499 87.768713 
L 278.874405 87.768713 
L 278.874405 82.978218 
L 279.964004 82.978218 
L 279.964004 78.187723 
L 282.671003 78.187723 
L 282.671003 73.397228 
L 282.696535 73.397228 
L 282.696535 68.606733 
L 283.395833 68.606733 
L 283.395833 63.816238 
L 285.024195 63.816238 
L 285.024195 59.025743 
L 285.113208 59.025743 
L 285.113208 54.235248 
L 285.922483 54.235248 
L 285.922483 49.444752 
L 292.320914 49.444752 
L 292.320914 44.654257 
L 293.106872 44.654257 
L 293.106872 39.863762 
L 293.562627 39.863762 
L 293.562627 35.073267 
L 296.870259 35.073267 
L 296.870259 30.282772 
L 298.194088 30.282772 
L 298.194088 25.492277 
L 301.943177 25.492277 
L 301.943177 20.701782 
L 303.579448 20.701782 
L 303.579448 15.911287 
L 306.835099 15.911287 
L 306.835099 11.120792 
L 312.402683 11.120792 
L 312.402683 6.330297 
L 312.402683 6.330297 
L 312.402683 6.330297 
L 460.8 6.330297 
" clip-path="url(#pf42a27fe88)" style="fill: none; stroke: #000000; stroke-width: 1.5; stroke-linecap: square"/>
   </g>
   <g id="line2d_25">
    <path d="M 203.406288 293.76 
L 203.406288 288.969505 
L 204.853604 288.969505 
L 204.853604 284.17901 
L 208.171664 284.17901 
L 208.171664 279.388515 
L 213.450294 279.388515 
L 213.450294 274.59802 
L 213.963568 274.59802 
L 213.963568 269.807525 
L 217.153653 269.807525 
L 217.153653 265.01703 
L 218.988932 265.01703 
L 218.988932 260.226535 
L 219.958992 260.226535 
L 219.958992 255.43604 
L 220.125136 255.43604 
L 220.125136 250.645545 
L 222.492721 250.645545 
L 222.492721 245.85505 
L 222.620324 245.85505 
L 222.620324 241.064554 
L 222.837936 241.064554 
L 222.837936 236.274059 
L 223.288559 236.274059 
L 223.288559 231.483564 
L 223.63155 231.483564 
L 223.63155 226.693069 
L 226.751755 226.693069 
L 226.751755 221.902574 
L 227.099319 221.902574 
L 227.099319 217.112079 
L 227.323701 217.112079 
L 227.323701 212.321584 
L 227.36773 212.321584 
L 227.36773 207.531089 
L 228.744225 207.531089 
L 228.744225 202.740594 
L 230.967431 202.740594 
L 230.967431 197.950099 
L 232.030155 197.950099 
L 232.030155 193.159604 
L 233.275459 193.159604 
L 233.275459 188.369109 
L 234.395051 188.369109 
L 234.395051 183.578614 
L 234.991661 183.578614 
L 234.991661 178.788119 
L 235.023158 178.788119 
L 235.023158 173.997624 
L 236.085032 173.997624 
L 236.085032 169.207129 
L 238.183315 169.207129 
L 238.183315 164.416634 
L 239.512505 164.416634 
L 239.512505 159.626139 
L 240.194347 159.626139 
L 240.194347 154.835644 
L 240.481163 154.835644 
L 240.481163 150.045149 
L 241.85814 150.045149 
L 241.85814 145.254653 
L 241.865004 145.254653 
L 241.865004 140.464158 
L 241.883874 140.464158 
L 241.883874 135.673663 
L 244.356397 135.673663 
L 244.356397 130.883168 
L 245.686648 130.883168 
L 245.686648 126.092673 
L 246.855213 126.092673 
L 246.855213 121.302178 
L 246.93704 121.302178 
L 246.93704 116.511683 
L 247.719302 116.511683 
L 247.719302 111.721188 
L 250.235098 111.721188 
L 250.235098 106.930693 
L 250.771906 106.930693 
L 250.771906 102.140198 
L 250.838467 102.140198 
L 250.838467 97.349703 
L 251.361663 97.349703 
L 251.361663 92.559208 
L 252.460711 92.559208 
L 252.460711 87.768713 
L 252.5538 87.768713 
L 252.5538 82.978218 
L 253.788519 82.978218 
L 253.788519 78.187723 
L 253.795097 78.187723 
L 253.795097 73.397228 
L 254.564381 73.397228 
L 254.564381 68.606733 
L 255.131788 68.606733 
L 255.131788 63.816238 
L 255.7993 63.816238 
L 255.7993 59.025743 
L 257.302899 59.025743 
L 257.302899 54.235248 
L 258.708013 54.235248 
L 258.708013 49.444752 
L 259.316575 49.444752 
L 259.316575 44.654257 
L 259.754583 44.654257 
L 259.754583 39.863762 
L 260.68235 39.863762 
L 260.68235 35.073267 
L 267.44302 35.073267 
L 267.44302 30.282772 
L 268.12548 30.282772 
L 268.12548 25.492277 
L 268.517479 25.492277 
L 268.517479 20.701782 
L 269.641123 20.701782 
L 269.641123 15.911287 
L 292.787968 15.911287 
L 292.787968 11.120792 
L 296.870259 11.120792 
L 296.870259 6.330297 
L 296.870259 6.330297 
L 296.870259 6.330297 
L 460.8 6.330297 
" clip-path="url(#pf42a27fe88)" style="fill: none; stroke: #00bfbf; stroke-width: 1.5; stroke-linecap: square"/>
   </g>
   <g id="line2d_26">
    <path d="M 161.937206 293.76 
L 161.937206 288.969505 
L 176.639905 288.969505 
L 176.639905 284.17901 
L 182.408267 284.17901 
L 182.408267 279.388515 
L 186.85226 279.388515 
L 186.85226 274.59802 
L 189.334817 274.59802 
L 189.334817 269.807525 
L 191.851919 269.807525 
L 191.851919 265.01703 
L 193.908901 265.01703 
L 193.908901 260.226535 
L 194.068822 260.226535 
L 194.068822 255.43604 
L 194.702725 255.43604 
L 194.702725 250.645545 
L 194.960782 250.645545 
L 194.960782 245.85505 
L 195.942055 245.85505 
L 195.942055 241.064554 
L 196.13881 241.064554 
L 196.13881 236.274059 
L 197.433378 236.274059 
L 197.433378 231.483564 
L 199.29845 231.483564 
L 199.29845 226.693069 
L 199.513808 226.693069 
L 199.513808 221.902574 
L 200.027575 221.902574 
L 200.027575 217.112079 
L 200.10245 217.112079 
L 200.10245 212.321584 
L 200.2288 212.321584 
L 200.2288 207.531089 
L 201.27787 207.531089 
L 201.27787 202.740594 
L 201.671354 202.740594 
L 201.671354 197.950099 
L 202.517079 197.950099 
L 202.517079 193.159604 
L 202.92707 193.159604 
L 202.92707 188.369109 
L 202.954767 188.369109 
L 202.954767 183.578614 
L 202.968387 183.578614 
L 202.968387 178.788119 
L 203.408455 178.788119 
L 203.408455 173.997624 
L 203.953954 173.997624 
L 203.953954 169.207129 
L 204.345462 169.207129 
L 204.345462 164.416634 
L 204.953674 164.416634 
L 204.953674 159.626139 
L 205.214012 159.626139 
L 205.214012 154.835644 
L 206.881805 154.835644 
L 206.881805 150.045149 
L 207.217581 150.045149 
L 207.217581 145.254653 
L 208.556676 145.254653 
L 208.556676 140.464158 
L 210.48405 140.464158 
L 210.48405 135.673663 
L 211.832148 135.673663 
L 211.832148 130.883168 
L 212.651761 130.883168 
L 212.651761 126.092673 
L 212.679922 126.092673 
L 212.679922 121.302178 
L 212.878085 121.302178 
L 212.878085 116.511683 
L 213.535745 116.511683 
L 213.535745 111.721188 
L 213.903788 111.721188 
L 213.903788 106.930693 
L 214.734707 106.930693 
L 214.734707 102.140198 
L 216.979531 102.140198 
L 216.979531 97.349703 
L 217.123225 97.349703 
L 217.123225 92.559208 
L 219.162176 92.559208 
L 219.162176 87.768713 
L 219.666563 87.768713 
L 219.666563 82.978218 
L 220.804672 82.978218 
L 220.804672 78.187723 
L 221.908898 78.187723 
L 221.908898 73.397228 
L 222.588444 73.397228 
L 222.588444 68.606733 
L 225.311489 68.606733 
L 225.311489 63.816238 
L 226.008102 63.816238 
L 226.008102 59.025743 
L 226.938781 59.025743 
L 226.938781 54.235248 
L 227.49164 54.235248 
L 227.49164 49.444752 
L 227.660731 49.444752 
L 227.660731 44.654257 
L 227.719112 44.654257 
L 227.719112 39.863762 
L 228.263247 39.863762 
L 228.263247 35.073267 
L 229.075177 35.073267 
L 229.075177 30.282772 
L 229.929792 30.282772 
L 229.929792 25.492277 
L 231.250254 25.492277 
L 231.250254 20.701782 
L 233.947099 20.701782 
L 233.947099 15.911287 
L 246.937552 15.911287 
L 246.937552 11.120792 
L 248.135451 11.120792 
L 248.135451 6.330297 
L 248.135451 6.330297 
L 248.135451 6.330297 
L 460.8 6.330297 
" clip-path="url(#pf42a27fe88)" style="fill: none; stroke: #bf00bf; stroke-width: 1.5; stroke-linecap: square"/>
   </g>
   <g id="line2d_27">
    <path d="M -1 284.17901 
L 28.215341 284.17901 
L 28.215341 279.388515 
L 42.293455 279.388515 
L 42.293455 274.59802 
L 44.324928 274.59802 
L 44.324928 269.807525 
L 44.573283 269.807525 
L 44.573283 265.01703 
L 45.894501 265.01703 
L 45.894501 260.226535 
L 53.199712 260.226535 
L 53.199712 255.43604 
L 60.750734 255.43604 
L 60.750734 250.645545 
L 70.068116 250.645545 
L 70.068116 245.85505 
L 75.439722 245.85505 
L 75.439722 241.064554 
L 76.895332 241.064554 
L 76.895332 236.274059 
L 81.379415 236.274059 
L 81.379415 231.483564 
L 98.427512 231.483564 
L 98.427512 226.693069 
L 119.185282 226.693069 
L 119.185282 221.902574 
L 150.930319 221.902574 
L 150.930319 217.112079 
L 157.743092 217.112079 
L 157.743092 212.321584 
L 165.576715 212.321584 
L 165.576715 207.531089 
L 166.333017 207.531089 
L 166.333017 202.740594 
L 169.057852 202.740594 
L 169.057852 197.950099 
L 169.107808 197.950099 
L 169.107808 193.159604 
L 172.244628 193.159604 
L 172.244628 188.369109 
L 172.783731 188.369109 
L 172.783731 183.578614 
L 173.75181 183.578614 
L 173.75181 178.788119 
L 173.888281 178.788119 
L 173.888281 173.997624 
L 174.386216 173.997624 
L 174.386216 169.207129 
L 174.653225 169.207129 
L 174.653225 164.416634 
L 175.540309 164.416634 
L 175.540309 159.626139 
L 176.639905 159.626139 
L 176.639905 154.835644 
L 177.129475 154.835644 
L 177.129475 150.045149 
L 177.256853 150.045149 
L 177.256853 145.254653 
L 177.846929 145.254653 
L 177.846929 140.464158 
L 178.435312 140.464158 
L 178.435312 135.673663 
L 179.808917 135.673663 
L 179.808917 130.883168 
L 180.347789 130.883168 
L 180.347789 126.092673 
L 180.54013 126.092673 
L 180.54013 121.302178 
L 182.408267 121.302178 
L 182.408267 116.511683 
L 184.466759 116.511683 
L 184.466759 111.721188 
L 184.581419 111.721188 
L 184.581419 106.930693 
L 185.821682 106.930693 
L 185.821682 102.140198 
L 188.395991 102.140198 
L 188.395991 97.349703 
L 188.432844 97.349703 
L 188.432844 92.559208 
L 190.025041 92.559208 
L 190.025041 87.768713 
L 193.908901 87.768713 
L 193.908901 82.978218 
L 196.13881 82.978218 
L 196.13881 78.187723 
L 196.324844 78.187723 
L 196.324844 73.397228 
L 199.29845 73.397228 
L 199.29845 68.606733 
L 201.27787 68.606733 
L 201.27787 63.816238 
L 201.311608 63.816238 
L 201.311608 59.025743 
L 201.373293 59.025743 
L 201.373293 54.235248 
L 201.528433 54.235248 
L 201.528433 49.444752 
L 202.517079 49.444752 
L 202.517079 44.654257 
L 202.92707 44.654257 
L 202.92707 39.863762 
L 204.345462 39.863762 
L 204.345462 35.073267 
L 204.953674 35.073267 
L 204.953674 30.282772 
L 206.881805 30.282772 
L 206.881805 25.492277 
L 210.48405 25.492277 
L 210.48405 20.701782 
L 213.535745 20.701782 
L 213.535745 15.911287 
L 220.804672 15.911287 
L 220.804672 11.120792 
L 222.588444 11.120792 
L 222.588444 6.330297 
L 222.588444 6.330297 
L 222.588444 6.330297 
L 460.8 6.330297 
" clip-path="url(#pf42a27fe88)" style="fill: none; stroke: #000000; stroke-width: 1.5; stroke-linecap: square"/>
   </g>
   <g id="patch_3">
    <path d="M 0 293.76 
L 0 3.456 
" style="fill: none; stroke: #000000; stroke-width: 0.8; stroke-linejoin: miter; stroke-linecap: square"/>
   </g>
   <g id="patch_4">
    <path d="M 460.8 293.76 
L 460.8 3.456 
" style="fill: none; stroke: #000000; stroke-width: 0.8; stroke-linejoin: miter; stroke-linecap: square"/>
   </g>
   <g id="patch_5">
    <path d="M 0 293.76 
L 460.8 293.76 
" style="fill: none; stroke: #000000; stroke-width: 0.8; stroke-linejoin: miter; stroke-linecap: square"/>
   </g>
   <g id="patch_6">
    <path d="M 0 3.456 
L 460.8 3.456 
" style="fill: none; stroke: #000000; stroke-width: 0.8; stroke-linejoin: miter; stroke-linecap: square"/>
   </g>
   <g id="text_6">
    <!-- {f6-f9}, 5-D -->
    <g transform="translate(331.334 287.95392) scale(0.2 -0.2)">
     <defs>
      <path id="DejaVuSans-7b" d="M 3272 -594 
L 3272 -1044 
L 3078 -1044 
Q 2300 -1044 2036 -812 
Q 1772 -581 1772 109 
L 1772 856 
Q 1772 1328 1603 1509 
Q 1434 1691 991 1691 
L 800 1691 
L 800 2138 
L 991 2138 
Q 1438 2138 1605 2317 
Q 1772 2497 1772 2963 
L 1772 3713 
Q 1772 4403 2036 4633 
Q 2300 4863 3078 4863 
L 3272 4863 
L 3272 4416 
L 3059 4416 
Q 2619 4416 2484 4278 
Q 2350 4141 2350 3700 
L 2350 2925 
Q 2350 2434 2208 2212 
Q 2066 1991 1722 1913 
Q 2069 1828 2209 1606 
Q 2350 1384 2350 897 
L 2350 122 
Q 2350 -319 2484 -456 
Q 2619 -594 3059 -594 
L 3272 -594 
z
" transform="scale(0.015625)"/>
      <path id="DejaVuSans-36" d="M 2113 2584 
Q 1688 2584 1439 2293 
Q 1191 2003 1191 1497 
Q 1191 994 1439 701 
Q 1688 409 2113 409 
Q 2538 409 2786 701 
Q 3034 994 3034 1497 
Q 3034 2003 2786 2293 
Q 2538 2584 2113 2584 
z
M 3366 4563 
L 3366 3988 
Q 3128 4100 2886 4159 
Q 2644 4219 2406 4219 
Q 1781 4219 1451 3797 
Q 1122 3375 1075 2522 
Q 1259 2794 1537 2939 
Q 1816 3084 2150 3084 
Q 2853 3084 3261 2657 
Q 3669 2231 3669 1497 
Q 3669 778 3244 343 
Q 2819 -91 2113 -91 
Q 1303 -91 875 529 
Q 447 1150 447 2328 
Q 447 3434 972 4092 
Q 1497 4750 2381 4750 
Q 2619 4750 2861 4703 
Q 3103 4656 3366 4563 
z
" transform="scale(0.015625)"/>
      <path id="DejaVuSans-39" d="M 703 97 
L 703 672 
Q 941 559 1184 500 
Q 1428 441 1663 441 
Q 2288 441 2617 861 
Q 2947 1281 2994 2138 
Q 2813 1869 2534 1725 
Q 2256 1581 1919 1581 
Q 1219 1581 811 2004 
Q 403 2428 403 3163 
Q 403 3881 828 4315 
Q 1253 4750 1959 4750 
Q 2769 4750 3195 4129 
Q 3622 3509 3622 2328 
Q 3622 1225 3098 567 
Q 2575 -91 1691 -91 
Q 1453 -91 1209 -44 
Q 966 3 703 97 
z
M 1959 2075 
Q 2384 2075 2632 2365 
Q 2881 2656 2881 3163 
Q 2881 3666 2632 3958 
Q 2384 4250 1959 4250 
Q 1534 4250 1286 3958 
Q 1038 3666 1038 3163 
Q 1038 2656 1286 2365 
Q 1534 2075 1959 2075 
z
" transform="scale(0.015625)"/>
      <path id="DejaVuSans-7d" d="M 800 -594 
L 1019 -594 
Q 1456 -594 1589 -459 
Q 1722 -325 1722 122 
L 1722 897 
Q 1722 1384 1862 1606 
Q 2003 1828 2350 1913 
Q 2003 1991 1862 2212 
Q 1722 2434 1722 2925 
L 1722 3700 
Q 1722 4144 1589 4280 
Q 1456 4416 1019 4416 
L 800 4416 
L 800 4863 
L 997 4863 
Q 1775 4863 2036 4633 
Q 2297 4403 2297 3713 
L 2297 2963 
Q 2297 2497 2465 2317 
Q 2634 2138 3078 2138 
L 3272 2138 
L 3272 1691 
L 3078 1691 
Q 2634 1691 2465 1509 
Q 2297 1328 2297 856 
L 2297 109 
Q 2297 -581 2036 -812 
Q 1775 -1044 997 -1044 
L 800 -1044 
L 800 -594 
z
" transform="scale(0.015625)"/>
      <path id="DejaVuSans-2c" d="M 750 794 
L 1409 794 
L 1409 256 
L 897 -744 
L 494 -744 
L 750 256 
L 750 794 
z
" transform="scale(0.015625)"/>
      <path id="DejaVuSans-35" d="M 691 4666 
L 3169 4666 
L 3169 4134 
L 1269 4134 
L 1269 2991 
Q 1406 3038 1543 3061 
Q 1681 3084 1819 3084 
Q 2600 3084 3056 2656 
Q 3513 2228 3513 1497 
Q 3513 744 3044 326 
Q 2575 -91 1722 -91 
Q 1428 -91 1123 -41 
Q 819 9 494 109 
L 494 744 
Q 775 591 1075 516 
Q 1375 441 1709 441 
Q 2250 441 2565 725 
Q 2881 1009 2881 1497 
Q 2881 1984 2565 2268 
Q 2250 2553 1709 2553 
Q 1456 2553 1204 2497 
Q 953 2441 691 2322 
L 691 4666 
z
" transform="scale(0.015625)"/>
     </defs>
     <use xlink:href="#DejaVuSans-7b"/>
     <use xlink:href="#DejaVuSans-66" x="63.623047"/>
     <use xlink:href="#DejaVuSans-36" x="98.828125"/>
     <use xlink:href="#DejaVuSans-2d" x="162.451172"/>
     <use xlink:href="#DejaVuSans-66" x="198.535156"/>
     <use xlink:href="#DejaVuSans-39" x="233.740234"/>
     <use xlink:href="#DejaVuSans-7d" x="297.363281"/>
     <use xlink:href="#DejaVuSans-2c" x="360.986328"/>
     <use xlink:href="#DejaVuSans-20" x="392.773438"/>
     <use xlink:href="#DejaVuSans-35" x="424.560547"/>
     <use xlink:href="#DejaVuSans-2d" x="488.183594"/>
     <use xlink:href="#DejaVuSans-44" x="524.267578"/>
    </g>
   </g>
   <g id="text_7">
    <!-- v2.6.3 -->
    <g style="fill: #808080" transform="translate(214.71875 288.777272) scale(0.1 -0.1)">
     <defs>
      <path id="DejaVuSans-76" d="M 191 3500 
L 800 3500 
L 1894 563 
L 2988 3500 
L 3597 3500 
L 2284 0 
L 1503 0 
L 191 3500 
z
" transform="scale(0.015625)"/>
      <path id="DejaVuSans-32" d="M 1228 531 
L 3431 531 
L 3431 0 
L 469 0 
L 469 531 
Q 828 903 1448 1529 
Q 2069 2156 2228 2338 
Q 2531 2678 2651 2914 
Q 2772 3150 2772 3378 
Q 2772 3750 2511 3984 
Q 2250 4219 1831 4219 
Q 1534 4219 1204 4116 
Q 875 4013 500 3803 
L 500 4441 
Q 881 4594 1212 4672 
Q 1544 4750 1819 4750 
Q 2544 4750 2975 4387 
Q 3406 4025 3406 3419 
Q 3406 3131 3298 2873 
Q 3191 2616 2906 2266 
Q 2828 2175 2409 1742 
Q 1991 1309 1228 531 
z
" transform="scale(0.015625)"/>
      <path id="DejaVuSans-2e" d="M 684 794 
L 1344 794 
L 1344 0 
L 684 0 
L 684 794 
z
" transform="scale(0.015625)"/>
      <path id="DejaVuSans-33" d="M 2597 2516 
Q 3050 2419 3304 2112 
Q 3559 1806 3559 1356 
Q 3559 666 3084 287 
Q 2609 -91 1734 -91 
Q 1441 -91 1130 -33 
Q 819 25 488 141 
L 488 750 
Q 750 597 1062 519 
Q 1375 441 1716 441 
Q 2309 441 2620 675 
Q 2931 909 2931 1356 
Q 2931 1769 2642 2001 
Q 2353 2234 1838 2234 
L 1294 2234 
L 1294 2753 
L 1863 2753 
Q 2328 2753 2575 2939 
Q 2822 3125 2822 3475 
Q 2822 3834 2567 4026 
Q 2313 4219 1838 4219 
Q 1578 4219 1281 4162 
Q 984 4106 628 3988 
L 628 4550 
Q 988 4650 1302 4700 
Q 1616 4750 1894 4750 
Q 2613 4750 3031 4423 
Q 3450 4097 3450 3541 
Q 3450 3153 3228 2886 
Q 3006 2619 2597 2516 
z
" transform="scale(0.015625)"/>
     </defs>
     <use xlink:href="#DejaVuSans-76"/>
     <use xlink:href="#DejaVuSans-32" x="59.179688"/>
     <use xlink:href="#DejaVuSans-2e" x="122.802734"/>
     <use xlink:href="#DejaVuSans-36" x="154.589844"/>
     <use xlink:href="#DejaVuSans-2e" x="218.212891"/>
     <use xlink:href="#DejaVuSans-33" x="250"/>
    </g>
   </g>
  </g>
 </g>
 <defs>
  <clipPath id="pf42a27fe88">
   <rect x="0" y="3.456" width="460.8" height="290.304"/>
  </clipPath>
 </defs>
</svg>
