<?xml version="1.0" encoding="utf-8" standalone="no"?>
<!DOCTYPE svg PUBLIC "-//W3C//DTD SVG 1.1//EN"
  "http://www.w3.org/Graphics/SVG/1.1/DTD/svg11.dtd">
<svg xmlns:xlink="http://www.w3.org/1999/xlink" width="460.8pt" height="345.6pt" viewBox="0 0 460.8 345.6" xmlns="http://www.w3.org/2000/svg" version="1.1">
 <metadata>
  <rdf:RDF xmlns:dc="http://purl.org/dc/elements/1.1/" xmlns:cc="http://creativecommons.org/ns#" xmlns:rdf="http://www.w3.org/1999/02/22-rdf-syntax-ns#">
   <cc:Work>
    <dc:type rdf:resource="http://purl.org/dc/dcmitype/StillImage"/>
    <dc:date>2024-06-22T00:24:29.436879</dc:date>
    <dc:format>image/svg+xml</dc:format>
    <dc:creator>
     <cc:Agent>
      <dc:title>Matplotlib v3.7.5, https://matplotlib.org/</dc:title>
     </cc:Agent>
    </dc:creator>
   </cc:Work>
  </rdf:RDF>
 </metadata>
 <defs>
  <style type="text/css">*{stroke-linejoin: round; stroke-linecap: butt}</style>
 </defs>
 <g id="figure_1">
  <g id="patch_1">
   <path d="M 0 345.6 
L 460.8 345.6 
L 460.8 0 
L 0 0 
z
" style="fill: #ffffff"/>
  </g>
  <g id="axes_1">
   <g id="patch_2">
    <path d="M 0 293.76 
L 460.8 293.76 
L 460.8 3.456 
L 0 3.456 
z
" style="fill: #ffffff"/>
   </g>
   <g id="matplotlib.axis_1">
    <g id="xtick_1">
     <g id="line2d_1">
      <path d="M 93.564167 293.76 
L 93.564167 3.456 
" clip-path="url(#p2a816802d9)" style="fill: none; stroke: #b0b0b0; stroke-width: 0.8; stroke-linecap: square"/>
     </g>
     <g id="line2d_2">
      <defs>
       <path id="m1a16615c1b" d="M 0 0 
L 0 3.5 
" style="stroke: #000000; stroke-width: 0.8"/>
      </defs>
      <g>
       <use xlink:href="#m1a16615c1b" x="93.564167" y="293.76" style="stroke: #000000; stroke-width: 0.8"/>
      </g>
     </g>
     <g id="text_1">
      <!-- -4 -->
      <g transform="translate(83.593854 315.956875) scale(0.2 -0.2)">
       <defs>
        <path id="DejaVuSans-2d" d="M 313 2009 
L 1997 2009 
L 1997 1497 
L 313 1497 
L 313 2009 
z
" transform="scale(0.015625)"/>
        <path id="DejaVuSans-34" d="M 2419 4116 
L 825 1625 
L 2419 1625 
L 2419 4116 
z
M 2253 4666 
L 3047 4666 
L 3047 1625 
L 3713 1625 
L 3713 1100 
L 3047 1100 
L 3047 0 
L 2419 0 
L 2419 1100 
L 313 1100 
L 313 1709 
L 2253 4666 
z
" transform="scale(0.015625)"/>
       </defs>
       <use xlink:href="#DejaVuSans-2d"/>
       <use xlink:href="#DejaVuSans-34" x="36.083984"/>
      </g>
     </g>
    </g>
    <g id="xtick_2">
     <g id="line2d_3">
      <path d="M 187.229525 293.76 
L 187.229525 3.456 
" clip-path="url(#p2a816802d9)" style="fill: none; stroke: #b0b0b0; stroke-width: 0.8; stroke-linecap: square"/>
     </g>
     <g id="line2d_4">
      <g>
       <use xlink:href="#m1a16615c1b" x="187.229525" y="293.76" style="stroke: #000000; stroke-width: 0.8"/>
      </g>
     </g>
     <g id="text_2">
      <!-- 0 -->
      <g transform="translate(180.867025 315.956875) scale(0.2 -0.2)">
       <defs>
        <path id="DejaVuSans-30" d="M 2034 4250 
Q 1547 4250 1301 3770 
Q 1056 3291 1056 2328 
Q 1056 1369 1301 889 
Q 1547 409 2034 409 
Q 2525 409 2770 889 
Q 3016 1369 3016 2328 
Q 3016 3291 2770 3770 
Q 2525 4250 2034 4250 
z
M 2034 4750 
Q 2819 4750 3233 4129 
Q 3647 3509 3647 2328 
Q 3647 1150 3233 529 
Q 2819 -91 2034 -91 
Q 1250 -91 836 529 
Q 422 1150 422 2328 
Q 422 3509 836 4129 
Q 1250 4750 2034 4750 
z
" transform="scale(0.015625)"/>
       </defs>
       <use xlink:href="#DejaVuSans-30"/>
      </g>
     </g>
    </g>
    <g id="xtick_3">
     <g id="line2d_5">
      <path d="M 280.894882 293.76 
L 280.894882 3.456 
" clip-path="url(#p2a816802d9)" style="fill: none; stroke: #b0b0b0; stroke-width: 0.8; stroke-linecap: square"/>
     </g>
     <g id="line2d_6">
      <g>
       <use xlink:href="#m1a16615c1b" x="280.894882" y="293.76" style="stroke: #000000; stroke-width: 0.8"/>
      </g>
     </g>
     <g id="text_3">
      <!-- 4 -->
      <g transform="translate(274.532382 315.956875) scale(0.2 -0.2)">
       <use xlink:href="#DejaVuSans-34"/>
      </g>
     </g>
    </g>
    <g id="xtick_4">
     <g id="line2d_7">
      <path d="M 374.56024 293.76 
L 374.56024 3.456 
" clip-path="url(#p2a816802d9)" style="fill: none; stroke: #b0b0b0; stroke-width: 0.8; stroke-linecap: square"/>
     </g>
     <g id="line2d_8">
      <g>
       <use xlink:href="#m1a16615c1b" x="374.56024" y="293.76" style="stroke: #000000; stroke-width: 0.8"/>
      </g>
     </g>
     <g id="text_4">
      <!-- 8 -->
      <g transform="translate(368.19774 315.956875) scale(0.2 -0.2)">
       <defs>
        <path id="DejaVuSans-38" d="M 2034 2216 
Q 1584 2216 1326 1975 
Q 1069 1734 1069 1313 
Q 1069 891 1326 650 
Q 1584 409 2034 409 
Q 2484 409 2743 651 
Q 3003 894 3003 1313 
Q 3003 1734 2745 1975 
Q 2488 2216 2034 2216 
z
M 1403 2484 
Q 997 2584 770 2862 
Q 544 3141 544 3541 
Q 544 4100 942 4425 
Q 1341 4750 2034 4750 
Q 2731 4750 3128 4425 
Q 3525 4100 3525 3541 
Q 3525 3141 3298 2862 
Q 3072 2584 2669 2484 
Q 3125 2378 3379 2068 
Q 3634 1759 3634 1313 
Q 3634 634 3220 271 
Q 2806 -91 2034 -91 
Q 1263 -91 848 271 
Q 434 634 434 1313 
Q 434 1759 690 2068 
Q 947 2378 1403 2484 
z
M 1172 3481 
Q 1172 3119 1398 2916 
Q 1625 2713 2034 2713 
Q 2441 2713 2670 2916 
Q 2900 3119 2900 3481 
Q 2900 3844 2670 4047 
Q 2441 4250 2034 4250 
Q 1625 4250 1398 4047 
Q 1172 3844 1172 3481 
z
" transform="scale(0.015625)"/>
       </defs>
       <use xlink:href="#DejaVuSans-38"/>
      </g>
     </g>
    </g>
    <g id="text_5">
     <!-- log10 of Df -->
     <g transform="translate(175.214063 339.313125) scale(0.2 -0.2)">
      <defs>
       <path id="DejaVuSans-6c" d="M 603 4863 
L 1178 4863 
L 1178 0 
L 603 0 
L 603 4863 
z
" transform="scale(0.015625)"/>
       <path id="DejaVuSans-6f" d="M 1959 3097 
Q 1497 3097 1228 2736 
Q 959 2375 959 1747 
Q 959 1119 1226 758 
Q 1494 397 1959 397 
Q 2419 397 2687 759 
Q 2956 1122 2956 1747 
Q 2956 2369 2687 2733 
Q 2419 3097 1959 3097 
z
M 1959 3584 
Q 2709 3584 3137 3096 
Q 3566 2609 3566 1747 
Q 3566 888 3137 398 
Q 2709 -91 1959 -91 
Q 1206 -91 779 398 
Q 353 888 353 1747 
Q 353 2609 779 3096 
Q 1206 3584 1959 3584 
z
" transform="scale(0.015625)"/>
       <path id="DejaVuSans-67" d="M 2906 1791 
Q 2906 2416 2648 2759 
Q 2391 3103 1925 3103 
Q 1463 3103 1205 2759 
Q 947 2416 947 1791 
Q 947 1169 1205 825 
Q 1463 481 1925 481 
Q 2391 481 2648 825 
Q 2906 1169 2906 1791 
z
M 3481 434 
Q 3481 -459 3084 -895 
Q 2688 -1331 1869 -1331 
Q 1566 -1331 1297 -1286 
Q 1028 -1241 775 -1147 
L 775 -588 
Q 1028 -725 1275 -790 
Q 1522 -856 1778 -856 
Q 2344 -856 2625 -561 
Q 2906 -266 2906 331 
L 2906 616 
Q 2728 306 2450 153 
Q 2172 0 1784 0 
Q 1141 0 747 490 
Q 353 981 353 1791 
Q 353 2603 747 3093 
Q 1141 3584 1784 3584 
Q 2172 3584 2450 3431 
Q 2728 3278 2906 2969 
L 2906 3500 
L 3481 3500 
L 3481 434 
z
" transform="scale(0.015625)"/>
       <path id="DejaVuSans-31" d="M 794 531 
L 1825 531 
L 1825 4091 
L 703 3866 
L 703 4441 
L 1819 4666 
L 2450 4666 
L 2450 531 
L 3481 531 
L 3481 0 
L 794 0 
L 794 531 
z
" transform="scale(0.015625)"/>
       <path id="DejaVuSans-20" transform="scale(0.015625)"/>
       <path id="DejaVuSans-66" d="M 2375 4863 
L 2375 4384 
L 1825 4384 
Q 1516 4384 1395 4259 
Q 1275 4134 1275 3809 
L 1275 3500 
L 2222 3500 
L 2222 3053 
L 1275 3053 
L 1275 0 
L 697 0 
L 697 3053 
L 147 3053 
L 147 3500 
L 697 3500 
L 697 3744 
Q 697 4328 969 4595 
Q 1241 4863 1831 4863 
L 2375 4863 
z
" transform="scale(0.015625)"/>
       <path id="DejaVuSans-44" d="M 1259 4147 
L 1259 519 
L 2022 519 
Q 2988 519 3436 956 
Q 3884 1394 3884 2338 
Q 3884 3275 3436 3711 
Q 2988 4147 2022 4147 
L 1259 4147 
z
M 628 4666 
L 1925 4666 
Q 3281 4666 3915 4102 
Q 4550 3538 4550 2338 
Q 4550 1131 3912 565 
Q 3275 0 1925 0 
L 628 0 
L 628 4666 
z
" transform="scale(0.015625)"/>
      </defs>
      <use xlink:href="#DejaVuSans-6c"/>
      <use xlink:href="#DejaVuSans-6f" x="27.783203"/>
      <use xlink:href="#DejaVuSans-67" x="88.964844"/>
      <use xlink:href="#DejaVuSans-31" x="152.441406"/>
      <use xlink:href="#DejaVuSans-30" x="216.064453"/>
      <use xlink:href="#DejaVuSans-20" x="279.6875"/>
      <use xlink:href="#DejaVuSans-6f" x="311.474609"/>
      <use xlink:href="#DejaVuSans-66" x="372.65625"/>
      <use xlink:href="#DejaVuSans-20" x="407.861328"/>
      <use xlink:href="#DejaVuSans-44" x="439.648438"/>
      <use xlink:href="#DejaVuSans-66" x="516.650391"/>
     </g>
    </g>
   </g>
   <g id="matplotlib.axis_2">
    <g id="ytick_1">
     <g id="line2d_9">
      <path d="M 0 293.76 
L 460.8 293.76 
" clip-path="url(#p2a816802d9)" style="fill: none; stroke: #b0b0b0; stroke-width: 0.8; stroke-linecap: square"/>
     </g>
     <g id="line2d_10">
      <defs>
       <path id="m773b400d38" d="M 0 0 
L -3.5 0 
" style="stroke: #000000; stroke-width: 0.8"/>
      </defs>
      <g>
       <use xlink:href="#m773b400d38" x="0" y="293.76" style="stroke: #000000; stroke-width: 0.8"/>
      </g>
     </g>
    </g>
    <g id="ytick_2">
     <g id="line2d_11">
      <path d="M 0 236.274059 
L 460.8 236.274059 
" clip-path="url(#p2a816802d9)" style="fill: none; stroke: #b0b0b0; stroke-width: 0.8; stroke-linecap: square"/>
     </g>
     <g id="line2d_12">
      <g>
       <use xlink:href="#m773b400d38" x="0" y="236.274059" style="stroke: #000000; stroke-width: 0.8"/>
      </g>
     </g>
    </g>
    <g id="ytick_3">
     <g id="line2d_13">
      <path d="M 0 178.788119 
L 460.8 178.788119 
" clip-path="url(#p2a816802d9)" style="fill: none; stroke: #b0b0b0; stroke-width: 0.8; stroke-linecap: square"/>
     </g>
     <g id="line2d_14">
      <g>
       <use xlink:href="#m773b400d38" x="0" y="178.788119" style="stroke: #000000; stroke-width: 0.8"/>
      </g>
     </g>
    </g>
    <g id="ytick_4">
     <g id="line2d_15">
      <path d="M 0 121.302178 
L 460.8 121.302178 
" clip-path="url(#p2a816802d9)" style="fill: none; stroke: #b0b0b0; stroke-width: 0.8; stroke-linecap: square"/>
     </g>
     <g id="line2d_16">
      <g>
       <use xlink:href="#m773b400d38" x="0" y="121.302178" style="stroke: #000000; stroke-width: 0.8"/>
      </g>
     </g>
    </g>
    <g id="ytick_5">
     <g id="line2d_17">
      <path d="M 0 63.816238 
L 460.8 63.816238 
" clip-path="url(#p2a816802d9)" style="fill: none; stroke: #b0b0b0; stroke-width: 0.8; stroke-linecap: square"/>
     </g>
     <g id="line2d_18">
      <g>
       <use xlink:href="#m773b400d38" x="0" y="63.816238" style="stroke: #000000; stroke-width: 0.8"/>
      </g>
     </g>
    </g>
    <g id="ytick_6">
     <g id="line2d_19">
      <path d="M 0 6.330297 
L 460.8 6.330297 
" clip-path="url(#p2a816802d9)" style="fill: none; stroke: #b0b0b0; stroke-width: 0.8; stroke-linecap: square"/>
     </g>
     <g id="line2d_20">
      <g>
       <use xlink:href="#m773b400d38" x="0" y="6.330297" style="stroke: #000000; stroke-width: 0.8"/>
      </g>
     </g>
    </g>
   </g>
   <g id="line2d_21">
    <path d="M -1 236.274059 
L -0.101191 236.274059 
L -0.101191 178.788119 
L 201.276172 178.788119 
L 201.276172 167.290931 
L 203.545439 167.290931 
L 203.545439 159.626139 
L 205.399576 159.626139 
L 205.399576 155.793743 
L 209.522986 155.793743 
L 209.522986 151.961347 
L 210.594439 151.961347 
L 210.594439 148.12895 
L 211.563707 148.12895 
L 211.563707 144.296554 
L 212.088351 144.296554 
L 212.088351 140.464158 
L 213.262594 140.464158 
L 213.262594 136.631762 
L 214.016243 136.631762 
L 214.016243 132.799366 
L 214.717859 132.799366 
L 214.717859 128.96697 
L 216.986704 128.96697 
L 216.986704 125.134574 
L 218.139615 125.134574 
L 218.139615 117.469782 
L 218.612735 117.469782 
L 218.612735 113.637386 
L 219.090006 113.637386 
L 219.090006 109.80499 
L 220.311583 109.80499 
L 220.311583 105.972594 
L 220.695334 105.972594 
L 220.695404 94.475406 
L 221.065226 94.475406 
L 221.065226 90.64301 
L 221.422091 90.64301 
L 221.422091 86.810614 
L 223.334475 86.810614 
L 223.334475 82.978218 
L 223.8996 82.978218 
L 223.899617 75.313426 
L 224.170814 75.313426 
L 224.170814 71.48103 
L 224.434964 71.48103 
L 224.434964 67.648634 
L 225.427913 67.648634 
L 225.427913 63.816238 
L 225.957646 63.816238 
L 225.957646 59.983842 
L 227.163109 59.983842 
L 227.163109 56.151446 
L 229.284952 56.151446 
L 229.284952 52.31905 
L 229.93795 52.31905 
L 229.93795 48.486653 
L 231.376732 48.486653 
L 231.376732 44.654257 
L 232.685432 44.654257 
L 232.685432 40.821861 
L 232.928003 40.821861 
L 232.928003 36.989465 
L 237.573825 36.989465 
L 237.573825 33.157069 
L 245.023397 33.157069 
L 245.023397 29.324673 
L 245.338839 29.324673 
L 245.338839 25.492277 
L 245.889823 25.492277 
L 245.889823 21.659881 
L 246.408627 21.659881 
L 246.408627 17.827485 
L 253.599678 17.827485 
L 253.599678 13.995089 
L 260.974094 13.995089 
L 260.974094 10.162693 
L 263.506875 10.162693 
L 263.506875 6.330297 
L 263.506875 6.330297 
L 460.8 6.330297 
L 460.8 6.330297 
" clip-path="url(#p2a816802d9)" style="fill: none; stroke: #ff0000; stroke-width: 3; stroke-linecap: square"/>
   </g>
   <g id="line2d_22">
    <path d="M 216.654737 293.76 
L 216.654737 289.927604 
L 218.300277 289.927604 
L 218.300277 286.095208 
L 221.051497 286.095208 
L 221.051497 282.262812 
L 222.88859 282.262812 
L 222.88859 278.430416 
L 225.18554 278.430416 
L 225.18554 274.59802 
L 225.672566 274.59802 
L 225.672566 270.765624 
L 226.146544 270.765624 
L 226.146544 263.100832 
L 226.674168 263.100832 
L 226.674168 259.268436 
L 227.371634 259.268436 
L 227.371634 251.603644 
L 227.894676 251.603644 
L 227.894676 247.771248 
L 228.183631 247.771248 
L 228.183631 243.938851 
L 228.319895 243.938851 
L 228.416257 236.274059 
L 228.979378 236.274059 
L 228.979378 232.441663 
L 229.464562 232.441663 
L 229.464562 228.609267 
L 230.469083 228.609267 
L 230.469083 224.776871 
L 231.216247 224.776871 
L 231.216247 220.944475 
L 231.49908 220.944475 
L 231.49908 213.279683 
L 232.082933 213.279683 
L 232.082933 209.447287 
L 232.521172 209.447287 
L 232.521172 205.614891 
L 233.101565 205.614891 
L 233.101565 201.782495 
L 233.451833 201.782495 
L 233.451833 197.950099 
L 234.50855 197.950099 
L 234.617991 190.285307 
L 235.2669 190.285307 
L 235.2669 186.452911 
L 236.403908 186.452911 
L 236.403908 182.620515 
L 236.995557 182.620515 
L 236.995557 174.955723 
L 237.448934 174.955723 
L 237.448934 171.123327 
L 237.891373 171.123327 
L 237.891373 167.290931 
L 238.920123 167.290931 
L 238.920123 163.458535 
L 240.108052 163.458535 
L 240.108052 159.626139 
L 240.812993 159.626139 
L 240.908765 151.961347 
L 241.758915 151.961347 
L 241.758915 148.12895 
L 243.381749 148.12895 
L 243.381749 144.296554 
L 244.282299 144.296554 
L 244.282299 140.464158 
L 244.447181 140.464158 
L 244.501451 132.799366 
L 244.756501 132.799366 
L 244.860557 125.134574 
L 245.219498 125.134574 
L 245.219498 121.302178 
L 245.583209 121.302178 
L 245.583209 117.469782 
L 246.421337 117.469782 
L 246.421337 113.637386 
L 246.674678 113.637386 
L 246.742786 102.140198 
L 246.966264 102.140198 
L 246.966264 98.307802 
L 247.452297 98.307802 
L 247.479695 90.64301 
L 247.564981 90.64301 
L 247.564981 86.810614 
L 247.814177 86.810614 
L 247.84096 79.145822 
L 248.200653 79.145822 
L 248.200653 75.313426 
L 248.941615 75.313426 
L 248.941615 71.48103 
L 249.656962 71.48103 
L 249.656962 67.648634 
L 250.077054 67.648634 
L 250.077054 63.816238 
L 310.545107 63.816238 
L 310.545107 59.983842 
L 314.93303 59.983842 
L 314.93303 56.151446 
L 316.866864 56.151446 
L 316.866864 52.31905 
L 319.55298 52.31905 
L 319.55298 48.486653 
L 327.777218 48.486653 
L 327.777218 44.654257 
L 331.03058 44.654257 
L 331.03058 40.821861 
L 333.092032 40.821861 
L 333.092032 36.989465 
L 333.499457 36.989465 
L 333.499457 33.157069 
L 334.28122 33.157069 
L 334.28122 29.324673 
L 335.903919 29.324673 
L 335.903919 25.492277 
L 336.296914 25.492277 
L 336.296914 21.659881 
L 336.736018 21.659881 
L 336.736018 17.827485 
L 337.412721 17.827485 
L 337.412721 13.995089 
L 337.737737 13.995089 
L 337.737737 10.162693 
L 342.897626 10.162693 
L 342.897626 6.330297 
L 342.897626 6.330297 
L 460.8 6.330297 
L 460.8 6.330297 
" clip-path="url(#p2a816802d9)" style="fill: none; stroke: #00bfbf; stroke-width: 1.5; stroke-linecap: square"/>
   </g>
   <g id="line2d_23">
    <path d="M 216.654737 293.76 
L 216.654737 289.927604 
L 217.797162 289.927604 
L 217.797162 286.095208 
L 218.300277 286.095208 
L 218.300277 282.262812 
L 218.95459 282.262812 
L 218.95459 278.430416 
L 221.051497 278.430416 
L 221.051497 274.59802 
L 222.88859 274.59802 
L 222.88859 270.765624 
L 224.031975 270.765624 
L 224.031975 266.933228 
L 224.28261 266.933228 
L 224.28261 263.100832 
L 224.559254 263.100832 
L 224.559254 259.268436 
L 225.18554 259.268436 
L 225.18554 255.43604 
L 226.146544 255.43604 
L 226.146544 247.771248 
L 226.674168 247.771248 
L 226.674168 243.938851 
L 227.340373 243.938851 
L 227.429302 228.609267 
L 227.59908 228.609267 
L 227.59908 224.776871 
L 227.753002 224.776871 
L 227.753002 220.944475 
L 228.183631 220.944475 
L 228.183631 217.112079 
L 228.319895 217.112079 
L 228.319895 213.279683 
L 228.585119 213.279683 
L 228.585119 209.447287 
L 228.702554 209.447287 
L 228.702554 205.614891 
L 229.921658 205.614891 
L 230.009429 194.117703 
L 230.088452 194.117703 
L 230.088452 190.285307 
L 230.469083 190.285307 
L 230.469083 186.452911 
L 231.49908 186.452911 
L 231.49908 178.788119 
L 235.2669 178.788119 
L 235.2669 174.955723 
L 235.763657 174.955723 
L 235.763657 171.123327 
L 235.971876 171.123327 
L 235.971876 167.290931 
L 236.274046 167.290931 
L 236.274046 163.458535 
L 237.448934 163.458535 
L 237.448934 159.626139 
L 237.891373 159.626139 
L 237.891373 155.793743 
L 238.463083 155.793743 
L 238.463083 151.961347 
L 238.920123 151.961347 
L 238.920123 148.12895 
L 239.559772 148.12895 
L 239.559772 144.296554 
L 239.831039 144.296554 
L 239.831039 140.464158 
L 240.108052 140.464158 
L 240.108052 136.631762 
L 240.812993 136.631762 
L 240.908765 128.96697 
L 241.758915 128.96697 
L 241.758915 125.134574 
L 242.248518 125.134574 
L 242.248518 121.302178 
L 243.298273 121.302178 
L 243.381749 113.637386 
L 244.084739 113.637386 
L 244.084739 109.80499 
L 244.282299 109.80499 
L 244.282299 105.972594 
L 244.756501 105.972594 
L 244.862382 94.475406 
L 244.870361 94.475406 
L 244.870361 90.64301 
L 245.897516 90.64301 
L 245.897516 86.810614 
L 246.149737 86.810614 
L 246.149737 82.978218 
L 246.385655 82.978218 
L 246.385655 79.145822 
L 246.674678 79.145822 
L 246.674678 75.313426 
L 246.966264 75.313426 
L 246.966264 71.48103 
L 247.114965 71.48103 
L 247.114965 67.648634 
L 247.431098 67.648634 
L 247.431098 63.816238 
L 290.330567 63.816238 
L 290.330567 59.983842 
L 308.127954 59.983842 
L 308.127954 56.151446 
L 310.545107 56.151446 
L 310.545107 52.31905 
L 314.93303 52.31905 
L 315.010173 44.654257 
L 316.866864 44.654257 
L 316.866864 40.821861 
L 319.55298 40.821861 
L 319.55298 36.989465 
L 324.717085 36.989465 
L 324.717085 33.157069 
L 326.235761 33.157069 
L 326.235761 29.324673 
L 326.857276 29.324673 
L 326.857276 25.492277 
L 327.777218 25.492277 
L 327.777218 21.659881 
L 330.802195 21.659881 
L 330.802195 17.827485 
L 331.03058 17.827485 
L 331.03058 13.995089 
L 333.092032 13.995089 
L 333.092032 10.162693 
L 333.499457 10.162693 
L 333.499457 6.330297 
L 333.499457 6.330297 
L 460.8 6.330297 
L 460.8 6.330297 
" clip-path="url(#p2a816802d9)" style="fill: none; stroke: #bf00bf; stroke-width: 1.5; stroke-linecap: square"/>
   </g>
   <g id="line2d_24">
    <path d="M 198.592538 293.76 
L 198.592538 286.095208 
L 201.960004 286.095208 
L 201.960004 282.262812 
L 208.948049 282.262812 
L 208.948049 278.430416 
L 210.060155 278.430416 
L 210.060155 274.59802 
L 212.104574 274.59802 
L 212.104574 270.765624 
L 212.585322 270.765624 
L 212.585322 266.933228 
L 213.510193 266.933228 
L 213.510193 263.100832 
L 213.833364 263.100832 
L 213.833364 259.268436 
L 214.021092 259.268436 
L 214.021092 255.43604 
L 214.773063 255.43604 
L 214.773063 247.771248 
L 215.50281 247.771248 
L 215.50281 243.938851 
L 216.205202 243.938851 
L 216.205202 240.106455 
L 216.369204 240.106455 
L 216.369204 236.274059 
L 216.654737 236.274059 
L 216.654737 232.441663 
L 216.937041 232.441663 
L 216.937041 228.609267 
L 217.138846 228.609267 
L 217.138846 220.944475 
L 218.300277 220.944475 
L 218.300277 217.112079 
L 219.747506 217.112079 
L 219.747506 213.279683 
L 220.816548 213.279683 
L 220.816548 209.447287 
L 222.88859 209.447287 
L 222.88859 205.614891 
L 223.018065 205.614891 
L 223.018065 201.782495 
L 223.348939 201.782495 
L 223.348939 197.950099 
L 225.179125 197.950099 
L 225.179125 194.117703 
L 226.587753 194.117703 
L 226.674168 186.452911 
L 230.069898 186.452911 
L 230.069898 178.788119 
L 231.222629 178.788119 
L 231.222629 174.955723 
L 231.684879 174.955723 
L 231.684879 171.123327 
L 231.895242 171.123327 
L 231.895242 167.290931 
L 232.22078 167.290931 
L 232.22078 163.458535 
L 233.006722 163.458535 
L 233.006722 159.626139 
L 234.703912 159.626139 
L 234.703912 155.793743 
L 235.324423 155.793743 
L 235.324423 151.961347 
L 235.723468 151.961347 
L 235.763657 144.296554 
L 235.971876 144.296554 
L 235.971876 140.464158 
L 236.145661 140.464158 
L 236.201534 132.799366 
L 236.274046 132.799366 
L 236.274046 128.96697 
L 236.714604 128.96697 
L 236.714604 125.134574 
L 237.350743 125.134574 
L 237.350743 121.302178 
L 237.891373 121.302178 
L 237.891373 117.469782 
L 238.30378 117.469782 
L 238.30378 113.637386 
L 238.463083 113.637386 
L 238.463083 109.80499 
L 239.519064 109.80499 
L 239.559772 102.140198 
L 240.627449 102.140198 
L 240.627449 98.307802 
L 240.908765 98.307802 
L 240.908765 94.475406 
L 241.758915 94.475406 
L 241.758915 90.64301 
L 242.248518 90.64301 
L 242.248518 86.810614 
L 243.259492 86.810614 
L 243.261778 79.145822 
L 243.381749 79.145822 
L 243.381749 75.313426 
L 244.629676 75.313426 
L 244.629676 71.48103 
L 244.870361 71.48103 
L 244.870361 67.648634 
L 247.431098 67.648634 
L 247.431098 63.816238 
L 289.036096 63.816238 
L 289.036096 59.983842 
L 290.330567 59.983842 
L 290.330567 56.151446 
L 297.356654 56.151446 
L 297.356654 52.31905 
L 298.825956 52.31905 
L 298.825956 48.486653 
L 308.127954 48.486653 
L 308.127954 44.654257 
L 309.24914 44.654257 
L 309.24914 40.821861 
L 310.545107 40.821861 
L 310.545107 36.989465 
L 313.405295 36.989465 
L 313.405295 33.157069 
L 314.93303 33.157069 
L 314.93303 29.324673 
L 315.621179 29.324673 
L 315.621179 25.492277 
L 316.866864 25.492277 
L 316.866864 21.659881 
L 322.215705 21.659881 
L 322.215705 17.827485 
L 322.401427 17.827485 
L 322.401427 13.995089 
L 323.505001 13.995089 
L 323.505001 10.162693 
L 333.092032 10.162693 
L 333.092032 6.330297 
L 333.092032 6.330297 
L 460.8 6.330297 
L 460.8 6.330297 
" clip-path="url(#p2a816802d9)" style="fill: none; stroke: #000000; stroke-width: 1.5; stroke-linecap: square"/>
   </g>
   <g id="line2d_25">
    <path d="M -0.101191 293.76 
L -0.101191 263.100832 
L 191.873067 263.100832 
L 191.873067 259.268436 
L 192.749082 259.268436 
L 192.749082 255.43604 
L 194.201515 255.43604 
L 194.201515 251.603644 
L 196.121325 251.603644 
L 196.190159 243.938851 
L 199.077271 243.938851 
L 199.077271 240.106455 
L 200.900326 240.106455 
L 200.900326 236.274059 
L 201.307103 236.274059 
L 201.360941 228.609267 
L 202.131102 228.609267 
L 202.131102 224.776871 
L 202.376765 224.776871 
L 202.376765 217.112079 
L 202.79544 217.112079 
L 202.79544 209.447287 
L 203.647056 209.447287 
L 203.647056 205.614891 
L 205.373535 205.614891 
L 205.373535 201.782495 
L 207.730132 201.782495 
L 207.798074 194.117703 
L 208.419407 194.117703 
L 208.419407 190.285307 
L 210.741844 190.285307 
L 210.741844 186.452911 
L 212.831618 186.452911 
L 212.831618 178.788119 
L 224.277145 178.788119 
L 224.277145 174.955723 
L 226.238028 174.955723 
L 226.238028 171.123327 
L 227.108495 171.123327 
L 227.108495 167.290931 
L 227.864089 167.290931 
L 227.864089 163.458535 
L 228.204492 163.458535 
L 228.204492 159.626139 
L 230.0248 159.626139 
L 230.0248 155.793743 
L 230.145627 155.793743 
L 230.145627 151.961347 
L 230.268963 151.961347 
L 230.268963 148.12895 
L 230.443951 148.12895 
L 230.443951 144.296554 
L 230.756152 144.296554 
L 230.756152 140.464158 
L 231.418331 140.464158 
L 231.418331 136.631762 
L 231.588332 136.631762 
L 231.588332 132.799366 
L 232.057544 132.799366 
L 232.073893 125.134574 
L 233.121064 125.134574 
L 233.198298 117.469782 
L 233.329687 117.469782 
L 233.404528 105.972594 
L 233.480028 105.972594 
L 233.480028 102.140198 
L 233.599034 102.140198 
L 233.681677 94.475406 
L 234.656932 94.475406 
L 234.656932 90.64301 
L 235.65678 90.64301 
L 235.65678 86.810614 
L 235.856897 86.810614 
L 235.856897 82.978218 
L 236.442298 82.978218 
L 236.442298 79.145822 
L 236.796372 79.145822 
L 236.796372 75.313426 
L 237.093898 75.313426 
L 237.093898 71.48103 
L 237.77526 71.48103 
L 237.77526 67.648634 
L 238.669707 67.648634 
L 238.669707 63.816238 
L 277.88694 63.816238 
L 277.88694 59.983842 
L 279.067723 59.983842 
L 279.067723 56.151446 
L 281.951672 56.151446 
L 281.951672 52.31905 
L 284.840474 52.31905 
L 284.840474 48.486653 
L 290.330567 48.486653 
L 290.330567 44.654257 
L 291.329208 44.654257 
L 291.329208 40.821861 
L 292.21158 40.821861 
L 292.21158 36.989465 
L 293.184309 36.989465 
L 293.184309 33.157069 
L 293.520901 33.157069 
L 293.520901 29.324673 
L 293.750041 29.324673 
L 293.750041 25.492277 
L 294.724145 25.492277 
L 294.724145 21.659881 
L 294.89585 21.659881 
L 294.89585 17.827485 
L 299.011074 17.827485 
L 299.011074 13.995089 
L 300.707884 13.995089 
L 300.707884 10.162693 
L 309.24914 10.162693 
L 309.24914 6.330297 
L 309.24914 6.330297 
L 460.8 6.330297 
L 460.8 6.330297 
" clip-path="url(#p2a816802d9)" style="fill: none; stroke: #00bfbf; stroke-width: 1.5; stroke-linecap: square"/>
   </g>
   <g id="line2d_26">
    <path d="M -0.101191 293.76 
L -0.101191 243.938851 
L 120.434817 243.938851 
L 120.434817 240.106455 
L 139.548777 240.106455 
L 139.548777 236.274059 
L 141.225439 236.274059 
L 141.225439 232.441663 
L 143.92159 232.441663 
L 143.92159 228.609267 
L 147.057774 228.609267 
L 147.057774 224.776871 
L 149.018837 224.776871 
L 149.018837 220.944475 
L 156.594862 220.944475 
L 156.594862 217.112079 
L 158.943417 217.112079 
L 158.943417 213.279683 
L 170.655671 213.279683 
L 170.655671 209.447287 
L 172.751555 209.447287 
L 172.751555 205.614891 
L 176.291973 205.614891 
L 176.291973 197.950099 
L 178.122762 197.950099 
L 178.122762 194.117703 
L 178.845347 194.117703 
L 178.845347 190.285307 
L 180.24444 190.285307 
L 180.24444 186.452911 
L 191.836828 186.452911 
L 191.847637 178.788119 
L 207.775424 178.788119 
L 207.775424 174.955723 
L 209.299776 174.955723 
L 209.299776 171.123327 
L 210.570355 171.123327 
L 210.570355 167.290931 
L 211.848359 167.290931 
L 211.848359 163.458535 
L 211.998236 163.458535 
L 211.998236 159.626139 
L 213.451769 159.626139 
L 213.451769 155.793743 
L 214.293906 155.793743 
L 214.387657 148.12895 
L 215.348913 148.12895 
L 215.348913 144.296554 
L 216.187753 144.296554 
L 216.187753 140.464158 
L 217.350862 140.464158 
L 217.350862 136.631762 
L 218.186399 136.631762 
L 218.186399 132.799366 
L 219.413986 132.799366 
L 219.413986 128.96697 
L 220.434935 128.96697 
L 220.434935 125.134574 
L 221.115962 125.134574 
L 221.115962 121.302178 
L 221.953606 121.302178 
L 222.059941 113.637386 
L 222.168429 113.637386 
L 222.168429 109.80499 
L 223.013255 109.80499 
L 223.079045 102.140198 
L 224.106408 102.140198 
L 224.164719 90.64301 
L 224.793741 90.64301 
L 224.900522 82.978218 
L 225.82087 82.978218 
L 225.82087 79.145822 
L 225.943329 79.145822 
L 225.943329 75.313426 
L 228.192936 75.313426 
L 228.192936 71.48103 
L 229.284952 71.48103 
L 229.284952 67.648634 
L 230.008184 67.648634 
L 230.008184 63.816238 
L 238.805761 63.816238 
L 238.805761 59.983842 
L 242.085117 59.983842 
L 242.085117 56.151446 
L 243.872067 56.151446 
L 243.872067 52.31905 
L 245.591447 52.31905 
L 245.591447 48.486653 
L 251.230149 48.486653 
L 251.230149 44.654257 
L 252.300858 44.654257 
L 252.300858 40.821861 
L 254.431613 40.821861 
L 254.431613 36.989465 
L 255.955179 36.989465 
L 255.955179 33.157069 
L 256.987676 33.157069 
L 256.987676 29.324673 
L 263.916079 29.324673 
L 263.916079 25.492277 
L 265.570759 25.492277 
L 265.570759 21.659881 
L 271.181719 21.659881 
L 271.181719 17.827485 
L 289.522326 17.827485 
L 289.522326 13.995089 
L 290.330567 13.995089 
L 290.330567 10.162693 
L 293.493989 10.162693 
L 293.493989 6.330297 
L 293.493989 6.330297 
L 460.8 6.330297 
L 460.8 6.330297 
" clip-path="url(#p2a816802d9)" style="fill: none; stroke: #bf00bf; stroke-width: 1.5; stroke-linecap: square"/>
   </g>
   <g id="line2d_27">
    <path d="M -1 236.274059 
L -0.101191 236.274059 
L -0.101191 178.788119 
L 201.276172 178.788119 
L 201.276172 167.290931 
L 203.545439 167.290931 
L 203.545439 159.626139 
L 205.399576 159.626139 
L 205.399576 155.793743 
L 209.522986 155.793743 
L 209.522986 151.961347 
L 210.594439 151.961347 
L 210.594439 148.12895 
L 211.563707 148.12895 
L 211.563707 144.296554 
L 212.088351 144.296554 
L 212.088351 140.464158 
L 213.262594 140.464158 
L 213.262594 136.631762 
L 214.016243 136.631762 
L 214.016243 132.799366 
L 214.717859 132.799366 
L 214.717859 128.96697 
L 216.986704 128.96697 
L 216.986704 125.134574 
L 218.139615 125.134574 
L 218.139615 117.469782 
L 218.612735 117.469782 
L 218.612735 113.637386 
L 219.090006 113.637386 
L 219.090006 109.80499 
L 220.311583 109.80499 
L 220.311583 105.972594 
L 220.695334 105.972594 
L 220.695404 94.475406 
L 221.065226 94.475406 
L 221.065226 90.64301 
L 221.422091 90.64301 
L 221.422091 86.810614 
L 223.334475 86.810614 
L 223.334475 82.978218 
L 223.8996 82.978218 
L 223.899617 75.313426 
L 224.170814 75.313426 
L 224.170814 71.48103 
L 224.434964 71.48103 
L 224.434964 67.648634 
L 225.427913 67.648634 
L 225.427913 63.816238 
L 225.957646 63.816238 
L 225.957646 59.983842 
L 227.163109 59.983842 
L 227.163109 56.151446 
L 229.284952 56.151446 
L 229.284952 52.31905 
L 229.93795 52.31905 
L 229.93795 48.486653 
L 231.376732 48.486653 
L 231.376732 44.654257 
L 232.685432 44.654257 
L 232.685432 40.821861 
L 232.928003 40.821861 
L 232.928003 36.989465 
L 237.573825 36.989465 
L 237.573825 33.157069 
L 245.023397 33.157069 
L 245.023397 29.324673 
L 245.338839 29.324673 
L 245.338839 25.492277 
L 245.889823 25.492277 
L 245.889823 21.659881 
L 246.408627 21.659881 
L 246.408627 17.827485 
L 253.599678 17.827485 
L 253.599678 13.995089 
L 260.974094 13.995089 
L 260.974094 10.162693 
L 263.506875 10.162693 
L 263.506875 6.330297 
L 263.506875 6.330297 
L 460.8 6.330297 
L 460.8 6.330297 
" clip-path="url(#p2a816802d9)" style="fill: none; stroke: #000000; stroke-width: 1.5; stroke-linecap: square"/>
   </g>
   <g id="patch_3">
    <path d="M 0 293.76 
L 0 3.456 
" style="fill: none; stroke: #000000; stroke-width: 0.8; stroke-linejoin: miter; stroke-linecap: square"/>
   </g>
   <g id="patch_4">
    <path d="M 460.8 293.76 
L 460.8 3.456 
" style="fill: none; stroke: #000000; stroke-width: 0.8; stroke-linejoin: miter; stroke-linecap: square"/>
   </g>
   <g id="patch_5">
    <path d="M 0 293.76 
L 460.8 293.76 
" style="fill: none; stroke: #000000; stroke-width: 0.8; stroke-linejoin: miter; stroke-linecap: square"/>
   </g>
   <g id="patch_6">
    <path d="M 0 3.456 
L 460.8 3.456 
" style="fill: none; stroke: #000000; stroke-width: 0.8; stroke-linejoin: miter; stroke-linecap: square"/>
   </g>
   <g id="text_6">
    <!-- {f1-f5}, 5-D -->
    <g transform="translate(331.334 287.95392) scale(0.2 -0.2)">
     <defs>
      <path id="DejaVuSans-7b" d="M 3272 -594 
L 3272 -1044 
L 3078 -1044 
Q 2300 -1044 2036 -812 
Q 1772 -581 1772 109 
L 1772 856 
Q 1772 1328 1603 1509 
Q 1434 1691 991 1691 
L 800 1691 
L 800 2138 
L 991 2138 
Q 1438 2138 1605 2317 
Q 1772 2497 1772 2963 
L 1772 3713 
Q 1772 4403 2036 4633 
Q 2300 4863 3078 4863 
L 3272 4863 
L 3272 4416 
L 3059 4416 
Q 2619 4416 2484 4278 
Q 2350 4141 2350 3700 
L 2350 2925 
Q 2350 2434 2208 2212 
Q 2066 1991 1722 1913 
Q 2069 1828 2209 1606 
Q 2350 1384 2350 897 
L 2350 122 
Q 2350 -319 2484 -456 
Q 2619 -594 3059 -594 
L 3272 -594 
z
" transform="scale(0.015625)"/>
      <path id="DejaVuSans-35" d="M 691 4666 
L 3169 4666 
L 3169 4134 
L 1269 4134 
L 1269 2991 
Q 1406 3038 1543 3061 
Q 1681 3084 1819 3084 
Q 2600 3084 3056 2656 
Q 3513 2228 3513 1497 
Q 3513 744 3044 326 
Q 2575 -91 1722 -91 
Q 1428 -91 1123 -41 
Q 819 9 494 109 
L 494 744 
Q 775 591 1075 516 
Q 1375 441 1709 441 
Q 2250 441 2565 725 
Q 2881 1009 2881 1497 
Q 2881 1984 2565 2268 
Q 2250 2553 1709 2553 
Q 1456 2553 1204 2497 
Q 953 2441 691 2322 
L 691 4666 
z
" transform="scale(0.015625)"/>
      <path id="DejaVuSans-7d" d="M 800 -594 
L 1019 -594 
Q 1456 -594 1589 -459 
Q 1722 -325 1722 122 
L 1722 897 
Q 1722 1384 1862 1606 
Q 2003 1828 2350 1913 
Q 2003 1991 1862 2212 
Q 1722 2434 1722 2925 
L 1722 3700 
Q 1722 4144 1589 4280 
Q 1456 4416 1019 4416 
L 800 4416 
L 800 4863 
L 997 4863 
Q 1775 4863 2036 4633 
Q 2297 4403 2297 3713 
L 2297 2963 
Q 2297 2497 2465 2317 
Q 2634 2138 3078 2138 
L 3272 2138 
L 3272 1691 
L 3078 1691 
Q 2634 1691 2465 1509 
Q 2297 1328 2297 856 
L 2297 109 
Q 2297 -581 2036 -812 
Q 1775 -1044 997 -1044 
L 800 -1044 
L 800 -594 
z
" transform="scale(0.015625)"/>
      <path id="DejaVuSans-2c" d="M 750 794 
L 1409 794 
L 1409 256 
L 897 -744 
L 494 -744 
L 750 256 
L 750 794 
z
" transform="scale(0.015625)"/>
     </defs>
     <use xlink:href="#DejaVuSans-7b"/>
     <use xlink:href="#DejaVuSans-66" x="63.623047"/>
     <use xlink:href="#DejaVuSans-31" x="98.828125"/>
     <use xlink:href="#DejaVuSans-2d" x="162.451172"/>
     <use xlink:href="#DejaVuSans-66" x="198.535156"/>
     <use xlink:href="#DejaVuSans-35" x="233.740234"/>
     <use xlink:href="#DejaVuSans-7d" x="297.363281"/>
     <use xlink:href="#DejaVuSans-2c" x="360.986328"/>
     <use xlink:href="#DejaVuSans-20" x="392.773438"/>
     <use xlink:href="#DejaVuSans-35" x="424.560547"/>
     <use xlink:href="#DejaVuSans-2d" x="488.183594"/>
     <use xlink:href="#DejaVuSans-44" x="524.267578"/>
    </g>
   </g>
   <g id="text_7">
    <!-- v2.6.3 -->
    <g style="fill: #808080" transform="translate(214.71875 288.777272) scale(0.1 -0.1)">
     <defs>
      <path id="DejaVuSans-76" d="M 191 3500 
L 800 3500 
L 1894 563 
L 2988 3500 
L 3597 3500 
L 2284 0 
L 1503 0 
L 191 3500 
z
" transform="scale(0.015625)"/>
      <path id="DejaVuSans-32" d="M 1228 531 
L 3431 531 
L 3431 0 
L 469 0 
L 469 531 
Q 828 903 1448 1529 
Q 2069 2156 2228 2338 
Q 2531 2678 2651 2914 
Q 2772 3150 2772 3378 
Q 2772 3750 2511 3984 
Q 2250 4219 1831 4219 
Q 1534 4219 1204 4116 
Q 875 4013 500 3803 
L 500 4441 
Q 881 4594 1212 4672 
Q 1544 4750 1819 4750 
Q 2544 4750 2975 4387 
Q 3406 4025 3406 3419 
Q 3406 3131 3298 2873 
Q 3191 2616 2906 2266 
Q 2828 2175 2409 1742 
Q 1991 1309 1228 531 
z
" transform="scale(0.015625)"/>
      <path id="DejaVuSans-2e" d="M 684 794 
L 1344 794 
L 1344 0 
L 684 0 
L 684 794 
z
" transform="scale(0.015625)"/>
      <path id="DejaVuSans-36" d="M 2113 2584 
Q 1688 2584 1439 2293 
Q 1191 2003 1191 1497 
Q 1191 994 1439 701 
Q 1688 409 2113 409 
Q 2538 409 2786 701 
Q 3034 994 3034 1497 
Q 3034 2003 2786 2293 
Q 2538 2584 2113 2584 
z
M 3366 4563 
L 3366 3988 
Q 3128 4100 2886 4159 
Q 2644 4219 2406 4219 
Q 1781 4219 1451 3797 
Q 1122 3375 1075 2522 
Q 1259 2794 1537 2939 
Q 1816 3084 2150 3084 
Q 2853 3084 3261 2657 
Q 3669 2231 3669 1497 
Q 3669 778 3244 343 
Q 2819 -91 2113 -91 
Q 1303 -91 875 529 
Q 447 1150 447 2328 
Q 447 3434 972 4092 
Q 1497 4750 2381 4750 
Q 2619 4750 2861 4703 
Q 3103 4656 3366 4563 
z
" transform="scale(0.015625)"/>
      <path id="DejaVuSans-33" d="M 2597 2516 
Q 3050 2419 3304 2112 
Q 3559 1806 3559 1356 
Q 3559 666 3084 287 
Q 2609 -91 1734 -91 
Q 1441 -91 1130 -33 
Q 819 25 488 141 
L 488 750 
Q 750 597 1062 519 
Q 1375 441 1716 441 
Q 2309 441 2620 675 
Q 2931 909 2931 1356 
Q 2931 1769 2642 2001 
Q 2353 2234 1838 2234 
L 1294 2234 
L 1294 2753 
L 1863 2753 
Q 2328 2753 2575 2939 
Q 2822 3125 2822 3475 
Q 2822 3834 2567 4026 
Q 2313 4219 1838 4219 
Q 1578 4219 1281 4162 
Q 984 4106 628 3988 
L 628 4550 
Q 988 4650 1302 4700 
Q 1616 4750 1894 4750 
Q 2613 4750 3031 4423 
Q 3450 4097 3450 3541 
Q 3450 3153 3228 2886 
Q 3006 2619 2597 2516 
z
" transform="scale(0.015625)"/>
     </defs>
     <use xlink:href="#DejaVuSans-76"/>
     <use xlink:href="#DejaVuSans-32" x="59.179688"/>
     <use xlink:href="#DejaVuSans-2e" x="122.802734"/>
     <use xlink:href="#DejaVuSans-36" x="154.589844"/>
     <use xlink:href="#DejaVuSans-2e" x="218.212891"/>
     <use xlink:href="#DejaVuSans-33" x="250"/>
    </g>
   </g>
  </g>
 </g>
 <defs>
  <clipPath id="p2a816802d9">
   <rect x="0" y="3.456" width="460.8" height="290.304"/>
  </clipPath>
 </defs>
</svg>
