<?xml version="1.0" encoding="utf-8" standalone="no"?>
<!DOCTYPE svg PUBLIC "-//W3C//DTD SVG 1.1//EN"
  "http://www.w3.org/Graphics/SVG/1.1/DTD/svg11.dtd">
<svg xmlns:xlink="http://www.w3.org/1999/xlink" width="460.8pt" height="345.6pt" viewBox="0 0 460.8 345.6" xmlns="http://www.w3.org/2000/svg" version="1.1">
 <metadata>
  <rdf:RDF xmlns:dc="http://purl.org/dc/elements/1.1/" xmlns:cc="http://creativecommons.org/ns#" xmlns:rdf="http://www.w3.org/1999/02/22-rdf-syntax-ns#">
   <cc:Work>
    <dc:type rdf:resource="http://purl.org/dc/dcmitype/StillImage"/>
    <dc:date>2024-06-22T00:24:30.471137</dc:date>
    <dc:format>image/svg+xml</dc:format>
    <dc:creator>
     <cc:Agent>
      <dc:title>Matplotlib v3.7.5, https://matplotlib.org/</dc:title>
     </cc:Agent>
    </dc:creator>
   </cc:Work>
  </rdf:RDF>
 </metadata>
 <defs>
  <style type="text/css">*{stroke-linejoin: round; stroke-linecap: butt}</style>
 </defs>
 <g id="figure_1">
  <g id="patch_1">
   <path d="M 0 345.6 
L 460.8 345.6 
L 460.8 0 
L 0 0 
z
" style="fill: #ffffff"/>
  </g>
  <g id="axes_1">
   <g id="patch_2">
    <path d="M 0 293.76 
L 460.8 293.76 
L 460.8 3.456 
L 0 3.456 
z
" style="fill: #ffffff"/>
   </g>
   <g id="matplotlib.axis_1">
    <g id="xtick_1">
     <g id="line2d_1">
      <path d="M 101.493326 293.76 
L 101.493326 3.456 
" clip-path="url(#p3a74bd620e)" style="fill: none; stroke: #b0b0b0; stroke-width: 0.8; stroke-linecap: square"/>
     </g>
     <g id="line2d_2">
      <defs>
       <path id="mba1f6c107c" d="M 0 0 
L 0 3.5 
" style="stroke: #000000; stroke-width: 0.8"/>
      </defs>
      <g>
       <use xlink:href="#mba1f6c107c" x="101.493326" y="293.76" style="stroke: #000000; stroke-width: 0.8"/>
      </g>
     </g>
     <g id="text_1">
      <!-- -4 -->
      <g transform="translate(91.523013 315.956875) scale(0.2 -0.2)">
       <defs>
        <path id="DejaVuSans-2d" d="M 313 2009 
L 1997 2009 
L 1997 1497 
L 313 1497 
L 313 2009 
z
" transform="scale(0.015625)"/>
        <path id="DejaVuSans-34" d="M 2419 4116 
L 825 1625 
L 2419 1625 
L 2419 4116 
z
M 2253 4666 
L 3047 4666 
L 3047 1625 
L 3713 1625 
L 3713 1100 
L 3047 1100 
L 3047 0 
L 2419 0 
L 2419 1100 
L 313 1100 
L 313 1709 
L 2253 4666 
z
" transform="scale(0.015625)"/>
       </defs>
       <use xlink:href="#DejaVuSans-2d"/>
       <use xlink:href="#DejaVuSans-34" x="36.083984"/>
      </g>
     </g>
    </g>
    <g id="xtick_2">
     <g id="line2d_3">
      <path d="M 203.096418 293.76 
L 203.096418 3.456 
" clip-path="url(#p3a74bd620e)" style="fill: none; stroke: #b0b0b0; stroke-width: 0.8; stroke-linecap: square"/>
     </g>
     <g id="line2d_4">
      <g>
       <use xlink:href="#mba1f6c107c" x="203.096418" y="293.76" style="stroke: #000000; stroke-width: 0.8"/>
      </g>
     </g>
     <g id="text_2">
      <!-- 0 -->
      <g transform="translate(196.733918 315.956875) scale(0.2 -0.2)">
       <defs>
        <path id="DejaVuSans-30" d="M 2034 4250 
Q 1547 4250 1301 3770 
Q 1056 3291 1056 2328 
Q 1056 1369 1301 889 
Q 1547 409 2034 409 
Q 2525 409 2770 889 
Q 3016 1369 3016 2328 
Q 3016 3291 2770 3770 
Q 2525 4250 2034 4250 
z
M 2034 4750 
Q 2819 4750 3233 4129 
Q 3647 3509 3647 2328 
Q 3647 1150 3233 529 
Q 2819 -91 2034 -91 
Q 1250 -91 836 529 
Q 422 1150 422 2328 
Q 422 3509 836 4129 
Q 1250 4750 2034 4750 
z
" transform="scale(0.015625)"/>
       </defs>
       <use xlink:href="#DejaVuSans-30"/>
      </g>
     </g>
    </g>
    <g id="xtick_3">
     <g id="line2d_5">
      <path d="M 304.699509 293.76 
L 304.699509 3.456 
" clip-path="url(#p3a74bd620e)" style="fill: none; stroke: #b0b0b0; stroke-width: 0.8; stroke-linecap: square"/>
     </g>
     <g id="line2d_6">
      <g>
       <use xlink:href="#mba1f6c107c" x="304.699509" y="293.76" style="stroke: #000000; stroke-width: 0.8"/>
      </g>
     </g>
     <g id="text_3">
      <!-- 4 -->
      <g transform="translate(298.337009 315.956875) scale(0.2 -0.2)">
       <use xlink:href="#DejaVuSans-34"/>
      </g>
     </g>
    </g>
    <g id="xtick_4">
     <g id="line2d_7">
      <path d="M 406.302601 293.76 
L 406.302601 3.456 
" clip-path="url(#p3a74bd620e)" style="fill: none; stroke: #b0b0b0; stroke-width: 0.8; stroke-linecap: square"/>
     </g>
     <g id="line2d_8">
      <g>
       <use xlink:href="#mba1f6c107c" x="406.302601" y="293.76" style="stroke: #000000; stroke-width: 0.8"/>
      </g>
     </g>
     <g id="text_4">
      <!-- 8 -->
      <g transform="translate(399.940101 315.956875) scale(0.2 -0.2)">
       <defs>
        <path id="DejaVuSans-38" d="M 2034 2216 
Q 1584 2216 1326 1975 
Q 1069 1734 1069 1313 
Q 1069 891 1326 650 
Q 1584 409 2034 409 
Q 2484 409 2743 651 
Q 3003 894 3003 1313 
Q 3003 1734 2745 1975 
Q 2488 2216 2034 2216 
z
M 1403 2484 
Q 997 2584 770 2862 
Q 544 3141 544 3541 
Q 544 4100 942 4425 
Q 1341 4750 2034 4750 
Q 2731 4750 3128 4425 
Q 3525 4100 3525 3541 
Q 3525 3141 3298 2862 
Q 3072 2584 2669 2484 
Q 3125 2378 3379 2068 
Q 3634 1759 3634 1313 
Q 3634 634 3220 271 
Q 2806 -91 2034 -91 
Q 1263 -91 848 271 
Q 434 634 434 1313 
Q 434 1759 690 2068 
Q 947 2378 1403 2484 
z
M 1172 3481 
Q 1172 3119 1398 2916 
Q 1625 2713 2034 2713 
Q 2441 2713 2670 2916 
Q 2900 3119 2900 3481 
Q 2900 3844 2670 4047 
Q 2441 4250 2034 4250 
Q 1625 4250 1398 4047 
Q 1172 3844 1172 3481 
z
" transform="scale(0.015625)"/>
       </defs>
       <use xlink:href="#DejaVuSans-38"/>
      </g>
     </g>
    </g>
    <g id="text_5">
     <!-- log10 of Df -->
     <g transform="translate(175.214063 339.313125) scale(0.2 -0.2)">
      <defs>
       <path id="DejaVuSans-6c" d="M 603 4863 
L 1178 4863 
L 1178 0 
L 603 0 
L 603 4863 
z
" transform="scale(0.015625)"/>
       <path id="DejaVuSans-6f" d="M 1959 3097 
Q 1497 3097 1228 2736 
Q 959 2375 959 1747 
Q 959 1119 1226 758 
Q 1494 397 1959 397 
Q 2419 397 2687 759 
Q 2956 1122 2956 1747 
Q 2956 2369 2687 2733 
Q 2419 3097 1959 3097 
z
M 1959 3584 
Q 2709 3584 3137 3096 
Q 3566 2609 3566 1747 
Q 3566 888 3137 398 
Q 2709 -91 1959 -91 
Q 1206 -91 779 398 
Q 353 888 353 1747 
Q 353 2609 779 3096 
Q 1206 3584 1959 3584 
z
" transform="scale(0.015625)"/>
       <path id="DejaVuSans-67" d="M 2906 1791 
Q 2906 2416 2648 2759 
Q 2391 3103 1925 3103 
Q 1463 3103 1205 2759 
Q 947 2416 947 1791 
Q 947 1169 1205 825 
Q 1463 481 1925 481 
Q 2391 481 2648 825 
Q 2906 1169 2906 1791 
z
M 3481 434 
Q 3481 -459 3084 -895 
Q 2688 -1331 1869 -1331 
Q 1566 -1331 1297 -1286 
Q 1028 -1241 775 -1147 
L 775 -588 
Q 1028 -725 1275 -790 
Q 1522 -856 1778 -856 
Q 2344 -856 2625 -561 
Q 2906 -266 2906 331 
L 2906 616 
Q 2728 306 2450 153 
Q 2172 0 1784 0 
Q 1141 0 747 490 
Q 353 981 353 1791 
Q 353 2603 747 3093 
Q 1141 3584 1784 3584 
Q 2172 3584 2450 3431 
Q 2728 3278 2906 2969 
L 2906 3500 
L 3481 3500 
L 3481 434 
z
" transform="scale(0.015625)"/>
       <path id="DejaVuSans-31" d="M 794 531 
L 1825 531 
L 1825 4091 
L 703 3866 
L 703 4441 
L 1819 4666 
L 2450 4666 
L 2450 531 
L 3481 531 
L 3481 0 
L 794 0 
L 794 531 
z
" transform="scale(0.015625)"/>
       <path id="DejaVuSans-20" transform="scale(0.015625)"/>
       <path id="DejaVuSans-66" d="M 2375 4863 
L 2375 4384 
L 1825 4384 
Q 1516 4384 1395 4259 
Q 1275 4134 1275 3809 
L 1275 3500 
L 2222 3500 
L 2222 3053 
L 1275 3053 
L 1275 0 
L 697 0 
L 697 3053 
L 147 3053 
L 147 3500 
L 697 3500 
L 697 3744 
Q 697 4328 969 4595 
Q 1241 4863 1831 4863 
L 2375 4863 
z
" transform="scale(0.015625)"/>
       <path id="DejaVuSans-44" d="M 1259 4147 
L 1259 519 
L 2022 519 
Q 2988 519 3436 956 
Q 3884 1394 3884 2338 
Q 3884 3275 3436 3711 
Q 2988 4147 2022 4147 
L 1259 4147 
z
M 628 4666 
L 1925 4666 
Q 3281 4666 3915 4102 
Q 4550 3538 4550 2338 
Q 4550 1131 3912 565 
Q 3275 0 1925 0 
L 628 0 
L 628 4666 
z
" transform="scale(0.015625)"/>
      </defs>
      <use xlink:href="#DejaVuSans-6c"/>
      <use xlink:href="#DejaVuSans-6f" x="27.783203"/>
      <use xlink:href="#DejaVuSans-67" x="88.964844"/>
      <use xlink:href="#DejaVuSans-31" x="152.441406"/>
      <use xlink:href="#DejaVuSans-30" x="216.064453"/>
      <use xlink:href="#DejaVuSans-20" x="279.6875"/>
      <use xlink:href="#DejaVuSans-6f" x="311.474609"/>
      <use xlink:href="#DejaVuSans-66" x="372.65625"/>
      <use xlink:href="#DejaVuSans-20" x="407.861328"/>
      <use xlink:href="#DejaVuSans-44" x="439.648438"/>
      <use xlink:href="#DejaVuSans-66" x="516.650391"/>
     </g>
    </g>
   </g>
   <g id="matplotlib.axis_2">
    <g id="ytick_1">
     <g id="line2d_9">
      <path d="M 0 293.76 
L 460.8 293.76 
" clip-path="url(#p3a74bd620e)" style="fill: none; stroke: #b0b0b0; stroke-width: 0.8; stroke-linecap: square"/>
     </g>
     <g id="line2d_10">
      <defs>
       <path id="ma24f9de672" d="M 0 0 
L -3.5 0 
" style="stroke: #000000; stroke-width: 0.8"/>
      </defs>
      <g>
       <use xlink:href="#ma24f9de672" x="0" y="293.76" style="stroke: #000000; stroke-width: 0.8"/>
      </g>
     </g>
    </g>
    <g id="ytick_2">
     <g id="line2d_11">
      <path d="M 0 236.274059 
L 460.8 236.274059 
" clip-path="url(#p3a74bd620e)" style="fill: none; stroke: #b0b0b0; stroke-width: 0.8; stroke-linecap: square"/>
     </g>
     <g id="line2d_12">
      <g>
       <use xlink:href="#ma24f9de672" x="0" y="236.274059" style="stroke: #000000; stroke-width: 0.8"/>
      </g>
     </g>
    </g>
    <g id="ytick_3">
     <g id="line2d_13">
      <path d="M 0 178.788119 
L 460.8 178.788119 
" clip-path="url(#p3a74bd620e)" style="fill: none; stroke: #b0b0b0; stroke-width: 0.8; stroke-linecap: square"/>
     </g>
     <g id="line2d_14">
      <g>
       <use xlink:href="#ma24f9de672" x="0" y="178.788119" style="stroke: #000000; stroke-width: 0.8"/>
      </g>
     </g>
    </g>
    <g id="ytick_4">
     <g id="line2d_15">
      <path d="M 0 121.302178 
L 460.8 121.302178 
" clip-path="url(#p3a74bd620e)" style="fill: none; stroke: #b0b0b0; stroke-width: 0.8; stroke-linecap: square"/>
     </g>
     <g id="line2d_16">
      <g>
       <use xlink:href="#ma24f9de672" x="0" y="121.302178" style="stroke: #000000; stroke-width: 0.8"/>
      </g>
     </g>
    </g>
    <g id="ytick_5">
     <g id="line2d_17">
      <path d="M 0 63.816238 
L 460.8 63.816238 
" clip-path="url(#p3a74bd620e)" style="fill: none; stroke: #b0b0b0; stroke-width: 0.8; stroke-linecap: square"/>
     </g>
     <g id="line2d_18">
      <g>
       <use xlink:href="#ma24f9de672" x="0" y="63.816238" style="stroke: #000000; stroke-width: 0.8"/>
      </g>
     </g>
    </g>
    <g id="ytick_6">
     <g id="line2d_19">
      <path d="M 0 6.330297 
L 460.8 6.330297 
" clip-path="url(#p3a74bd620e)" style="fill: none; stroke: #b0b0b0; stroke-width: 0.8; stroke-linecap: square"/>
     </g>
     <g id="line2d_20">
      <g>
       <use xlink:href="#ma24f9de672" x="0" y="6.330297" style="stroke: #000000; stroke-width: 0.8"/>
      </g>
     </g>
    </g>
   </g>
   <g id="line2d_21">
    <path d="M -1 195.554851 
L -0.109766 195.554851 
L -0.109766 181.981782 
L 6.461851 181.981782 
L 6.461851 181.183366 
L 14.394589 181.183366 
L 14.394589 180.38495 
L 14.56271 180.38495 
L 14.56271 179.586535 
L 21.380166 179.586535 
L 21.380166 178.788119 
L 23.374269 178.788119 
L 23.374269 177.989703 
L 32.25898 177.989703 
L 32.25898 177.191287 
L 34.111644 177.191287 
L 34.111644 176.392871 
L 40.084984 176.392871 
L 40.084984 175.594455 
L 50.121773 175.594455 
L 50.121773 174.79604 
L 53.258681 174.79604 
L 53.258681 173.997624 
L 54.863348 173.997624 
L 54.863348 173.199208 
L 56.141353 173.199208 
L 56.141353 172.400792 
L 80.679604 172.400792 
L 80.679604 171.602376 
L 83.356533 171.602376 
L 83.356533 170.80396 
L 84.224982 170.80396 
L 84.224982 170.005545 
L 108.888599 170.005545 
L 108.888599 169.207129 
L 112.663133 169.207129 
L 112.663133 168.408713 
L 125.956606 168.408713 
L 125.956606 167.610297 
L 129.276125 167.610297 
L 129.276125 166.811881 
L 131.964472 166.811881 
L 131.964472 166.013465 
L 132.504326 166.013465 
L 132.504326 165.21505 
L 139.840823 165.21505 
L 139.840823 164.416634 
L 142.98946 164.416634 
L 142.98946 163.618218 
L 143.450734 163.618218 
L 143.450734 162.819802 
L 148.610774 162.819802 
L 148.610774 162.021386 
L 153.634657 162.021386 
L 153.634657 161.22297 
L 154.567913 161.22297 
L 154.567913 160.424554 
L 156.365031 160.424554 
L 156.365031 159.626139 
L 157.019659 159.626139 
L 157.019659 158.827723 
L 161.208112 158.827723 
L 161.208112 158.029307 
L 162.988782 158.029307 
L 162.988782 157.230891 
L 163.927134 157.230891 
L 164.011911 155.634059 
L 164.090765 155.634059 
L 164.090765 154.835644 
L 165.47521 154.835644 
L 165.47521 154.037228 
L 169.500122 154.037228 
L 169.500122 153.238812 
L 169.640254 153.238812 
L 169.640254 152.440396 
L 169.769357 152.440396 
L 169.769357 151.64198 
L 170.052771 151.64198 
L 170.052771 150.843564 
L 173.560722 150.843564 
L 173.560722 150.045149 
L 173.856942 150.045149 
L 173.856942 149.246733 
L 174.577011 149.246733 
L 174.577011 148.448317 
L 175.560407 148.448317 
L 175.560407 147.649901 
L 176.434446 147.649901 
L 176.434446 146.851485 
L 177.244357 146.851485 
L 177.274728 145.254653 
L 177.729685 145.254653 
L 177.729685 144.456238 
L 179.15691 144.456238 
L 179.15691 143.657822 
L 180.939679 143.657822 
L 180.939679 142.859406 
L 182.685509 142.859406 
L 182.685509 142.06099 
L 183.534138 142.06099 
L 183.534138 141.262574 
L 188.955034 141.262574 
L 188.955034 140.464158 
L 189.156569 140.464158 
L 189.156569 139.665743 
L 190.464086 139.665743 
L 190.464086 138.867327 
L 190.909447 138.867327 
L 190.909447 138.068911 
L 191.510769 138.068911 
L 191.510769 137.270495 
L 191.880533 137.270495 
L 191.880533 136.472079 
L 192.218615 136.472079 
L 192.218615 135.673663 
L 192.761489 135.673663 
L 192.761489 134.875248 
L 193.024414 134.875248 
L 193.024414 134.076832 
L 193.497247 134.076832 
L 193.497247 133.278416 
L 194.131771 133.278416 
L 194.131771 132.48 
L 194.538578 132.48 
L 194.538578 131.681584 
L 194.735598 131.681584 
L 194.735598 130.883168 
L 196.061754 130.883168 
L 196.061754 130.084752 
L 196.607409 130.084752 
L 196.607409 129.286337 
L 196.965521 129.286337 
L 196.965521 128.487921 
L 197.559596 128.487921 
L 197.559596 127.689505 
L 197.879121 127.689505 
L 197.879121 126.891089 
L 198.140595 126.891089 
L 198.140595 126.092673 
L 198.358283 126.092673 
L 198.358283 125.294257 
L 199.032707 125.294257 
L 199.032707 122.100594 
L 200.186517 122.100594 
L 200.186517 121.302178 
L 200.351979 121.302178 
L 200.351979 120.503762 
L 201.558506 120.503762 
L 201.558506 119.705347 
L 203.80532 119.705347 
L 203.80532 118.906931 
L 204.031629 118.906931 
L 204.031629 118.108515 
L 204.465391 118.108515 
L 204.465391 117.310099 
L 204.778213 117.310099 
L 204.778213 116.511683 
L 205.284894 116.511683 
L 205.284894 115.713267 
L 205.516057 115.713267 
L 205.516057 114.116436 
L 205.755888 114.116436 
L 205.755888 113.31802 
L 206.16285 113.31802 
L 206.16285 112.519604 
L 206.541358 112.519604 
L 206.541358 111.721188 
L 206.742444 111.721188 
L 206.831033 109.325941 
L 206.9912 109.325941 
L 206.9912 108.527525 
L 207.12698 108.527525 
L 207.12698 107.729109 
L 207.86 107.729109 
L 207.86 106.930693 
L 208.20754 106.930693 
L 208.20754 106.132277 
L 208.422791 106.132277 
L 208.422791 105.333861 
L 208.536814 105.333861 
L 208.614089 102.938614 
L 208.871023 102.938614 
L 208.871023 102.140198 
L 209.31294 102.140198 
L 209.376089 99.74495 
L 209.738712 99.74495 
L 209.738712 98.946535 
L 210.491764 98.946535 
L 210.491764 98.148119 
L 211.190266 98.148119 
L 211.190266 97.349703 
L 211.378495 97.349703 
L 211.378495 95.752871 
L 211.498744 95.752871 
L 211.5001 93.357624 
L 211.941241 93.357624 
L 211.995841 91.760792 
L 212.092554 91.760792 
L 212.092554 90.962376 
L 212.521686 90.962376 
L 212.521686 90.16396 
L 213.596884 90.16396 
L 213.596884 89.365545 
L 213.718147 89.365545 
L 213.786799 87.768713 
L 214.119085 87.768713 
L 214.119085 86.970297 
L 214.367513 86.970297 
L 214.461689 85.373465 
L 214.726308 85.373465 
L 214.726308 84.57505 
L 215.165412 84.57505 
L 215.165412 83.776634 
L 215.823034 83.776634 
L 215.823034 82.978218 
L 217.618047 82.978218 
L 217.618047 82.179802 
L 218.587165 82.179802 
L 218.587165 81.381386 
L 219.024418 81.381386 
L 219.121459 79.784554 
L 220.013613 79.784554 
L 220.013613 78.986139 
L 220.200383 78.986139 
L 220.200383 78.187723 
L 220.988351 78.187723 
L 221.04328 74.994059 
L 221.480524 74.994059 
L 221.499029 73.397228 
L 222.799001 73.397228 
L 222.799001 72.598812 
L 224.010898 72.598812 
L 224.116184 71.00198 
L 224.982529 71.00198 
L 225.051982 69.405149 
L 225.217444 69.405149 
L 225.217444 68.606733 
L 225.460413 68.606733 
L 225.460413 67.808317 
L 225.621386 67.808317 
L 225.641328 66.211485 
L 226.074058 66.211485 
L 226.074058 65.413069 
L 226.759979 65.413069 
L 226.759979 64.614653 
L 226.992698 64.614653 
L 227.015007 62.219406 
L 227.353416 62.219406 
L 227.353416 61.42099 
L 228.123241 61.42099 
L 228.123241 60.622574 
L 228.240383 60.622574 
L 228.240383 59.824158 
L 228.461558 59.824158 
L 228.461558 59.025743 
L 229.67386 59.025743 
L 229.67386 58.227327 
L 231.093223 58.227327 
L 231.093223 57.428911 
L 231.841704 57.428911 
L 231.841704 56.630495 
L 232.660421 56.630495 
L 232.660421 55.832079 
L 233.62624 55.832079 
L 233.62624 55.033663 
L 234.925551 55.033663 
L 234.925551 54.235248 
L 235.521992 54.235248 
L 235.521992 53.436832 
L 237.629598 53.436832 
L 237.64672 51.84 
L 237.787837 51.84 
L 237.787837 51.041584 
L 238.549407 51.041584 
L 238.549416 48.646337 
L 238.81365 48.646337 
L 238.81365 47.847921 
L 239.799585 47.847921 
L 239.799585 47.049505 
L 239.930097 47.049505 
L 239.930097 46.251089 
L 240.186692 46.251089 
L 240.186692 45.452673 
L 240.646628 45.452673 
L 240.646628 44.654257 
L 240.922385 44.654257 
L 240.922385 43.855842 
L 241.612074 43.855842 
L 241.612074 43.057426 
L 241.9414 43.057426 
L 241.9414 42.25901 
L 242.261153 42.25901 
L 242.261174 39.863762 
L 242.571933 39.863762 
L 242.571933 39.065347 
L 242.874188 39.065347 
L 242.874188 38.266931 
L 243.168365 38.266931 
L 243.168376 36.670099 
L 243.454923 36.670099 
L 243.454923 35.871683 
L 243.734204 35.871683 
L 243.734218 31.879604 
L 243.892617 31.879604 
L 243.892617 31.081188 
L 244.208367 31.081188 
L 244.208367 30.282772 
L 244.532009 30.282772 
L 244.532009 29.484356 
L 244.785601 29.484356 
L 244.785621 27.089109 
L 245.033509 27.089109 
L 245.033527 25.492277 
L 245.1908 25.492277 
L 245.275967 23.895446 
L 245.513217 23.895446 
L 245.513231 22.298614 
L 245.770109 22.298614 
L 245.770109 21.500198 
L 246.195799 21.500198 
L 246.195799 20.701782 
L 246.414246 20.701782 
L 246.487876 18.306535 
L 246.534054 18.306535 
L 246.534054 17.508119 
L 247.044781 17.508119 
L 247.07469 15.911287 
L 247.329927 15.911287 
L 247.41972 13.51604 
L 247.641227 13.51604 
L 247.681383 11.120792 
L 248.540127 11.120792 
L 248.540127 10.322376 
L 248.745269 10.322376 
L 248.745269 9.52396 
L 249.175774 9.52396 
L 249.175774 8.725545 
L 251.101279 8.725545 
L 251.101279 7.927129 
L 251.380565 7.927129 
L 251.380565 7.128713 
L 254.060605 7.128713 
L 254.060605 6.330297 
L 254.060605 6.330297 
L 460.8 6.330297 
L 460.8 6.330297 
" clip-path="url(#p3a74bd620e)" style="fill: none; stroke: #ff0000; stroke-width: 3; stroke-linecap: square"/>
   </g>
   <g id="line2d_22">
    <path d="M 222.032497 293.76 
L 222.032497 292.961584 
L 226.845786 292.961584 
L 226.845786 292.163168 
L 228.023584 292.163168 
L 228.023584 291.364752 
L 228.37502 291.364752 
L 228.37502 290.566337 
L 229.207031 290.566337 
L 229.207031 289.767921 
L 229.502547 289.767921 
L 229.517582 287.372673 
L 230.154233 287.372673 
L 230.154233 286.574257 
L 231.309725 286.574257 
L 231.309725 285.775842 
L 232.680266 285.775842 
L 232.680266 284.977426 
L 233.292558 284.977426 
L 233.352231 283.380594 
L 233.716948 283.380594 
L 233.716948 282.582178 
L 234.083492 282.582178 
L 234.083492 281.783762 
L 235.66722 281.783762 
L 235.66722 280.985347 
L 240.323104 280.985347 
L 240.338677 279.388515 
L 240.602319 279.388515 
L 240.602319 278.590099 
L 240.875522 278.590099 
L 240.875522 277.791683 
L 241.225024 277.791683 
L 241.225024 276.993267 
L 241.464045 276.993267 
L 241.464045 276.194851 
L 242.436672 276.194851 
L 242.436672 275.396436 
L 243.419336 275.396436 
L 243.452576 273.799604 
L 243.829194 273.799604 
L 243.898477 272.202772 
L 244.235926 272.202772 
L 244.235926 271.404356 
L 244.509838 271.404356 
L 244.583015 269.009109 
L 244.982628 269.009109 
L 245.052516 266.613861 
L 245.12274 266.613861 
L 245.12274 265.815446 
L 245.341531 265.815446 
L 245.341531 265.01703 
L 245.540643 265.01703 
L 245.636089 261.823366 
L 245.748292 261.823366 
L 245.829774 260.226535 
L 245.916433 260.226535 
L 245.916433 259.428119 
L 246.057606 259.428119 
L 246.057606 258.629703 
L 246.231049 258.629703 
L 246.231049 257.831287 
L 246.389667 257.831287 
L 246.389667 257.032871 
L 246.648709 257.032871 
L 246.649545 255.43604 
L 247.316908 255.43604 
L 247.34528 253.040792 
L 247.486774 253.040792 
L 247.490008 251.44396 
L 247.905766 251.44396 
L 247.905766 250.645545 
L 248.110211 250.645545 
L 248.20099 249.048713 
L 248.307472 249.048713 
L 248.307472 248.250297 
L 248.542733 248.250297 
L 248.542733 247.451881 
L 248.948544 247.451881 
L 248.996981 245.85505 
L 249.155152 245.85505 
L 249.210083 243.459802 
L 249.470607 243.459802 
L 249.470607 242.661386 
L 249.855585 242.661386 
L 249.855585 241.86297 
L 250.125287 241.86297 
L 250.125287 241.064554 
L 251.719343 241.064554 
L 251.719343 240.266139 
L 251.86996 240.266139 
L 251.880209 238.669307 
L 251.982778 238.669307 
L 252.091142 234.677228 
L 252.101505 234.677228 
L 252.212567 227.491485 
L 252.220038 227.491485 
L 252.312915 217.112079 
L 253.06187 217.112079 
L 253.06187 216.313663 
L 253.607078 216.313663 
L 253.648406 213.918416 
L 253.847947 213.918416 
L 253.847947 213.12 
L 254.125418 213.12 
L 254.125418 212.321584 
L 254.318499 212.321584 
L 254.318499 211.523168 
L 254.512781 211.523168 
L 254.512781 210.724752 
L 254.710218 210.724752 
L 254.710218 209.926337 
L 254.85077 209.926337 
L 254.85077 209.127921 
L 255.058815 209.127921 
L 255.058815 208.329505 
L 255.471932 208.329505 
L 255.534189 206.732673 
L 255.586952 206.732673 
L 255.693941 204.337426 
L 256.001623 204.337426 
L 256.001623 203.53901 
L 256.626957 203.53901 
L 256.626957 202.740594 
L 257.271315 202.740594 
L 257.271315 201.942178 
L 257.398495 201.942178 
L 257.398495 201.143762 
L 258.298706 201.143762 
L 258.345901 199.546931 
L 258.814426 199.546931 
L 258.814426 198.748515 
L 258.98951 198.748515 
L 258.98951 197.950099 
L 259.376609 197.950099 
L 259.376609 197.151683 
L 260.319466 197.151683 
L 260.319466 196.353267 
L 260.434245 196.353267 
L 260.434245 195.554851 
L 260.631671 195.554851 
L 260.631671 194.756436 
L 260.842866 194.756436 
L 260.872965 193.159604 
L 261.632339 193.159604 
L 261.632339 192.361188 
L 261.78569 192.361188 
L 261.836454 190.764356 
L 262.410438 190.764356 
L 262.410438 189.965941 
L 262.595782 189.965941 
L 262.595782 189.167525 
L 263.180189 189.167525 
L 263.180189 188.369109 
L 263.479735 188.369109 
L 263.479735 187.570693 
L 264.374501 187.570693 
L 264.374501 186.772277 
L 264.567085 186.772277 
L 264.567085 185.973861 
L 264.84878 185.973861 
L 264.909776 184.37703 
L 265.362433 184.37703 
L 265.472239 182.780198 
L 265.707258 182.780198 
L 265.745913 181.183366 
L 266.009575 181.183366 
L 266.009575 180.38495 
L 266.240085 180.38495 
L 266.240085 179.586535 
L 266.640393 179.586535 
L 266.660906 177.989703 
L 266.858352 177.989703 
L 266.87036 176.392871 
L 267.032658 176.392871 
L 267.032658 175.594455 
L 267.863044 175.594455 
L 267.863044 174.79604 
L 268.080465 174.79604 
L 268.080465 173.997624 
L 269.893793 173.997624 
L 269.893793 173.199208 
L 274.553994 173.199208 
L 274.553994 172.400792 
L 275.917137 172.400792 
L 275.917137 171.602376 
L 276.114253 171.602376 
L 276.139301 170.005545 
L 276.457092 170.005545 
L 276.457092 169.207129 
L 276.901845 169.207129 
L 276.914716 167.610297 
L 277.858116 167.610297 
L 277.858116 166.811881 
L 278.922091 166.811881 
L 278.964211 164.416634 
L 279.593382 164.416634 
L 279.654103 162.819802 
L 279.713811 162.819802 
L 279.799434 159.626139 
L 280.260186 159.626139 
L 280.260186 158.827723 
L 280.534627 158.827723 
L 280.534627 158.029307 
L 280.9463 158.029307 
L 281.049708 155.634059 
L 281.269186 155.634059 
L 281.269186 154.835644 
L 281.471264 154.835644 
L 281.511762 153.238812 
L 281.934827 153.238812 
L 281.934827 152.440396 
L 282.128753 152.440396 
L 282.200518 150.843564 
L 282.250084 150.843564 
L 282.250084 150.045149 
L 282.407694 150.045149 
L 282.407694 149.246733 
L 282.74237 149.246733 
L 282.796906 146.851485 
L 283.032736 146.851485 
L 283.032736 146.053069 
L 283.278061 146.053069 
L 283.278061 145.254653 
L 283.513112 145.254653 
L 283.522149 143.657822 
L 283.632079 143.657822 
L 283.632079 142.859406 
L 284.236633 142.859406 
L 284.29451 141.262574 
L 284.412993 141.262574 
L 284.412993 140.464158 
L 284.688919 140.464158 
L 284.792729 138.867327 
L 285.097008 138.867327 
L 285.129593 137.270495 
L 285.441839 137.270495 
L 285.441839 136.472079 
L 285.58813 136.472079 
L 285.58813 135.673663 
L 286.279896 135.673663 
L 286.279896 134.875248 
L 286.436066 134.875248 
L 286.461849 133.278416 
L 287.027529 133.278416 
L 287.088264 131.681584 
L 287.491946 131.681584 
L 287.491946 130.883168 
L 287.763505 130.883168 
L 287.831028 128.487921 
L 287.979301 128.487921 
L 288.079514 126.092673 
L 288.136311 126.092673 
L 288.136311 125.294257 
L 288.307873 125.294257 
L 288.400211 122.89901 
L 288.448353 122.89901 
L 288.505778 120.503762 
L 288.649021 120.503762 
L 288.695956 118.108515 
L 288.764759 118.108515 
L 288.835124 116.511683 
L 289.020907 116.511683 
L 289.020907 115.713267 
L 289.133927 115.713267 
L 289.203096 114.116436 
L 289.521264 114.116436 
L 289.537758 112.519604 
L 289.729233 112.519604 
L 289.791363 110.922772 
L 290.118696 110.922772 
L 290.173455 108.527525 
L 290.559244 108.527525 
L 290.559244 107.729109 
L 290.937925 107.729109 
L 290.949774 106.132277 
L 291.164262 106.132277 
L 291.170355 104.535446 
L 291.435094 104.535446 
L 291.442635 102.938614 
L 292.223142 102.938614 
L 292.223781 101.341782 
L 293.334768 101.341782 
L 293.334768 100.543366 
L 294.017491 100.543366 
L 294.017491 99.74495 
L 303.797877 99.74495 
L 303.797877 98.946535 
L 308.338541 98.946535 
L 308.338541 98.148119 
L 311.149365 98.148119 
L 311.149365 97.349703 
L 318.489519 97.349703 
L 318.489519 96.551287 
L 319.033048 96.551287 
L 319.033048 95.752871 
L 322.564893 95.752871 
L 322.564893 94.954455 
L 324.406589 94.954455 
L 324.406589 94.15604 
L 326.602476 94.15604 
L 326.620796 92.559208 
L 327.74895 92.559208 
L 327.74895 91.760792 
L 329.160487 91.760792 
L 329.160487 90.962376 
L 329.291796 90.962376 
L 329.291796 90.16396 
L 331.341165 90.16396 
L 331.350606 88.567129 
L 331.645954 88.567129 
L 331.645954 87.768713 
L 331.761384 87.768713 
L 331.761384 86.970297 
L 332.673265 86.970297 
L 332.673265 86.171881 
L 333.317873 86.171881 
L 333.317873 85.373465 
L 334.348496 85.373465 
L 334.348496 84.57505 
L 334.616989 84.57505 
L 334.616989 83.776634 
L 334.885231 83.776634 
L 334.984107 82.179802 
L 335.478 82.179802 
L 335.478 81.381386 
L 335.916193 81.381386 
L 335.972938 78.986139 
L 337.47663 78.986139 
L 337.47663 78.187723 
L 338.38281 78.187723 
L 338.38281 77.389307 
L 338.602101 77.389307 
L 338.602101 76.590891 
L 339.257463 76.590891 
L 339.277279 74.994059 
L 342.022177 74.994059 
L 342.022177 74.195644 
L 342.339581 74.195644 
L 342.384072 71.800396 
L 342.829704 71.800396 
L 342.829704 71.00198 
L 343.142046 71.00198 
L 343.201054 69.405149 
L 343.406793 69.405149 
L 343.406793 68.606733 
L 343.591444 68.606733 
L 343.617484 66.211485 
L 343.83025 66.211485 
L 343.862766 64.614653 
L 344.20617 64.614653 
L 344.20617 63.816238 
L 344.745583 63.816238 
L 344.809055 62.219406 
L 344.872087 62.219406 
L 344.872087 61.42099 
L 345.263224 61.42099 
L 345.351118 59.824158 
L 345.655818 59.824158 
L 345.655818 59.025743 
L 345.899321 59.025743 
L 345.899321 58.227327 
L 346.495457 58.227327 
L 346.495457 57.428911 
L 346.881763 57.428911 
L 346.936703 55.832079 
L 347.107284 55.832079 
L 347.134758 54.235248 
L 348.294311 54.235248 
L 348.294896 52.638416 
L 349.475237 52.638416 
L 349.567909 51.041584 
L 349.655668 51.041584 
L 349.655668 50.243168 
L 349.799377 50.243168 
L 349.799377 49.444752 
L 350.308288 49.444752 
L 350.308288 48.646337 
L 350.51329 48.646337 
L 350.569528 47.049505 
L 351.254406 47.049505 
L 351.254406 46.251089 
L 351.372823 46.251089 
L 351.457645 44.654257 
L 352.372588 44.654257 
L 352.372588 43.855842 
L 353.034404 43.855842 
L 353.034404 43.057426 
L 356.062371 43.057426 
L 356.062371 42.25901 
L 365.068897 42.25901 
L 365.068897 41.460594 
L 370.191821 41.460594 
L 370.191821 40.662178 
L 371.885377 40.662178 
L 371.885377 39.863762 
L 372.014988 39.863762 
L 372.014988 39.065347 
L 372.443565 39.065347 
L 372.443565 38.266931 
L 373.241156 38.266931 
L 373.241156 37.468515 
L 373.84148 37.468515 
L 373.852636 35.871683 
L 375.748106 35.871683 
L 375.823308 34.274851 
L 376.283303 34.274851 
L 376.332247 32.67802 
L 376.901389 32.67802 
L 376.901389 31.879604 
L 377.17653 31.879604 
L 377.211734 30.282772 
L 377.419906 30.282772 
L 377.419906 29.484356 
L 378.276828 29.484356 
L 378.276828 28.685941 
L 378.509884 28.685941 
L 378.509884 27.887525 
L 378.905956 27.887525 
L 378.905956 27.089109 
L 379.243203 27.089109 
L 379.243203 26.290693 
L 379.632854 26.290693 
L 379.632854 25.492277 
L 379.749646 25.492277 
L 379.749646 24.693861 
L 380.02443 24.693861 
L 380.02443 23.895446 
L 380.862008 23.895446 
L 380.90053 21.500198 
L 381.032933 21.500198 
L 381.032933 20.701782 
L 384.139718 20.701782 
L 384.139718 19.903366 
L 384.544461 19.903366 
L 384.544461 19.10495 
L 388.197167 19.10495 
L 388.197167 18.306535 
L 413.042259 18.306535 
L 413.042259 17.508119 
L 415.421985 17.508119 
L 415.421985 16.709703 
L 416.52614 16.709703 
L 416.52614 15.911287 
L 417.993804 15.911287 
L 417.993804 15.112871 
L 418.143771 15.112871 
L 418.143771 14.314455 
L 418.801597 14.314455 
L 418.801597 13.51604 
L 419.663113 13.51604 
L 419.663113 12.717624 
L 420.033982 12.717624 
L 420.033982 11.919208 
L 420.155429 11.919208 
L 420.155429 11.120792 
L 422.055768 11.120792 
L 422.055768 10.322376 
L 422.495004 10.322376 
L 422.495004 9.52396 
L 423.099496 9.52396 
L 423.150374 7.927129 
L 428.480442 7.927129 
L 428.480442 7.128713 
L 430.322699 7.128713 
L 430.322699 6.330297 
L 430.322699 6.330297 
L 460.8 6.330297 
L 460.8 6.330297 
" clip-path="url(#p3a74bd620e)" style="fill: none; stroke: #00bfbf; stroke-width: 1.5; stroke-linecap: square"/>
   </g>
   <g id="line2d_23">
    <path d="M 222.032497 293.76 
L 222.032497 292.961584 
L 225.428315 292.961584 
L 225.428315 292.163168 
L 226.845786 292.163168 
L 226.845786 291.364752 
L 227.755863 291.364752 
L 227.80724 289.767921 
L 228.023584 289.767921 
L 228.023584 288.969505 
L 228.179106 288.969505 
L 228.179106 288.171089 
L 228.37502 288.171089 
L 228.37502 287.372673 
L 228.68278 287.372673 
L 228.68278 286.574257 
L 228.877759 286.574257 
L 228.964818 284.977426 
L 229.207031 284.977426 
L 229.207031 284.17901 
L 229.781732 284.17901 
L 229.781732 283.380594 
L 232.193852 283.380594 
L 232.193852 282.582178 
L 233.352231 282.582178 
L 233.352231 281.783762 
L 234.395617 281.783762 
L 234.395617 280.985347 
L 235.66722 280.985347 
L 235.66722 280.186931 
L 236.192618 280.186931 
L 236.192618 279.388515 
L 236.443206 279.388515 
L 236.443206 278.590099 
L 236.576889 278.590099 
L 236.576889 277.791683 
L 236.861426 277.791683 
L 236.861426 276.993267 
L 237.695139 276.993267 
L 237.695139 276.194851 
L 237.859318 276.194851 
L 237.925479 274.59802 
L 238.109077 274.59802 
L 238.170932 273.001188 
L 238.420985 273.001188 
L 238.420985 272.202772 
L 238.728174 272.202772 
L 238.728174 271.404356 
L 239.021207 271.404356 
L 239.072023 268.210693 
L 239.197129 268.210693 
L 239.197129 267.412277 
L 239.345883 267.412277 
L 239.345883 266.613861 
L 239.525542 266.613861 
L 239.532768 265.01703 
L 239.93381 265.01703 
L 239.93381 264.218614 
L 240.498321 264.218614 
L 240.498321 263.420198 
L 240.875522 263.420198 
L 240.875522 262.621782 
L 241.417436 262.621782 
L 241.464045 261.02495 
L 243.117384 261.02495 
L 243.117384 260.226535 
L 243.74415 260.226535 
L 243.74415 259.428119 
L 243.882952 259.428119 
L 243.934641 257.831287 
L 244.235926 257.831287 
L 244.235926 257.032871 
L 244.423559 257.032871 
L 244.423559 256.234455 
L 244.543974 256.234455 
L 244.543974 255.43604 
L 245.052516 255.43604 
L 245.052516 254.637624 
L 245.246361 254.637624 
L 245.246361 253.839208 
L 245.590049 253.839208 
L 245.594996 252.242376 
L 246.057606 252.242376 
L 246.057606 251.44396 
L 246.275786 251.44396 
L 246.275786 250.645545 
L 246.389667 250.645545 
L 246.419356 249.048713 
L 246.649545 249.048713 
L 246.650306 247.451881 
L 246.915079 247.451881 
L 246.915079 246.653465 
L 247.316908 246.653465 
L 247.316908 245.85505 
L 247.486774 245.85505 
L 247.486774 245.056634 
L 247.718556 245.056634 
L 247.718556 244.258218 
L 247.905766 244.258218 
L 247.905766 243.459802 
L 248.249046 243.459802 
L 248.249046 242.661386 
L 248.542733 242.661386 
L 248.542733 241.86297 
L 248.948544 241.86297 
L 248.948544 241.064554 
L 249.1917 241.064554 
L 249.210083 239.467723 
L 249.649294 239.467723 
L 249.649294 238.669307 
L 249.810869 238.669307 
L 249.880445 237.072475 
L 250.554633 237.072475 
L 250.554633 236.274059 
L 251.198537 236.274059 
L 251.290541 234.677228 
L 251.329237 234.677228 
L 251.384101 233.080396 
L 251.441374 233.080396 
L 251.534172 230.685149 
L 251.577493 230.685149 
L 251.68347 227.491485 
L 251.690981 227.491485 
L 251.769569 224.297822 
L 251.86996 224.297822 
L 251.979921 217.910495 
L 252.041411 217.910495 
L 252.152152 213.12 
L 252.158338 213.12 
L 252.266229 208.329505 
L 252.28725 208.329505 
L 252.28725 207.531089 
L 253.065461 207.531089 
L 253.065461 206.732673 
L 253.45427 206.732673 
L 253.538607 204.337426 
L 253.607078 204.337426 
L 253.620859 202.740594 
L 254.189371 202.740594 
L 254.189371 201.942178 
L 254.318499 201.942178 
L 254.318499 201.143762 
L 254.751623 201.143762 
L 254.830222 199.546931 
L 255.534189 199.546931 
L 255.534189 198.748515 
L 255.693941 198.748515 
L 255.693941 197.950099 
L 255.894783 197.950099 
L 255.894783 197.151683 
L 256.069269 197.151683 
L 256.069269 196.353267 
L 257.751892 196.353267 
L 257.854428 194.756436 
L 258.022745 194.756436 
L 258.032286 193.159604 
L 258.279455 193.159604 
L 258.298706 191.562772 
L 258.611212 191.562772 
L 258.611212 190.764356 
L 258.98951 190.764356 
L 259.006002 189.167525 
L 260.631671 189.167525 
L 260.631671 188.369109 
L 260.942419 188.369109 
L 260.942419 187.570693 
L 261.234357 187.570693 
L 261.234357 186.772277 
L 261.839251 186.772277 
L 261.878653 185.175446 
L 262.280947 185.175446 
L 262.29699 183.578614 
L 262.473171 183.578614 
L 262.473171 182.780198 
L 262.632008 182.780198 
L 262.632008 181.981782 
L 263.072891 181.981782 
L 263.121533 180.38495 
L 263.667327 180.38495 
L 263.667327 179.586535 
L 263.807847 179.586535 
L 263.808389 177.989703 
L 264.011686 177.989703 
L 264.011686 177.191287 
L 264.577504 177.191287 
L 264.577504 176.392871 
L 265.009561 176.392871 
L 265.009561 175.594455 
L 265.322863 175.594455 
L 265.322863 174.79604 
L 266.30306 174.79604 
L 266.30306 173.997624 
L 269.893793 173.997624 
L 269.893793 173.199208 
L 271.333136 173.199208 
L 271.383654 171.602376 
L 271.746196 171.602376 
L 271.746196 170.80396 
L 271.952702 170.80396 
L 271.952702 170.005545 
L 272.618009 170.005545 
L 272.618009 169.207129 
L 272.965224 169.207129 
L 272.98279 167.610297 
L 273.418901 167.610297 
L 273.418901 166.811881 
L 273.620902 166.811881 
L 273.726199 165.21505 
L 273.735989 165.21505 
L 273.735989 164.416634 
L 273.868632 164.416634 
L 273.868632 163.618218 
L 274.116989 163.618218 
L 274.221214 162.021386 
L 274.553994 162.021386 
L 274.553994 161.22297 
L 274.721504 161.22297 
L 274.782887 158.827723 
L 274.863454 158.827723 
L 274.963563 157.230891 
L 275.034253 157.230891 
L 275.034253 156.432475 
L 275.917137 156.432475 
L 275.917137 155.634059 
L 276.114253 155.634059 
L 276.145137 153.238812 
L 276.454923 153.238812 
L 276.457092 151.64198 
L 276.610044 151.64198 
L 276.611486 150.045149 
L 276.901845 150.045149 
L 276.914716 148.448317 
L 277.055503 148.448317 
L 277.055503 147.649901 
L 277.251402 147.649901 
L 277.251402 146.851485 
L 277.397688 146.851485 
L 277.397688 146.053069 
L 277.858116 146.053069 
L 277.862171 144.456238 
L 278.001393 144.456238 
L 278.04975 142.859406 
L 278.268741 142.859406 
L 278.268741 142.06099 
L 278.530261 142.06099 
L 278.602096 140.464158 
L 278.77144 140.464158 
L 278.77144 139.665743 
L 278.954114 139.665743 
L 278.954114 138.867327 
L 279.160363 138.867327 
L 279.160363 138.068911 
L 279.654103 138.068911 
L 279.654103 137.270495 
L 279.799434 137.270495 
L 279.853138 135.673663 
L 279.968237 135.673663 
L 280.035269 134.076832 
L 280.162676 134.076832 
L 280.250412 132.48 
L 280.534627 132.48 
L 280.606338 130.883168 
L 280.652837 130.883168 
L 280.652837 130.084752 
L 281.269186 130.084752 
L 281.308748 128.487921 
L 281.511762 128.487921 
L 281.511762 127.689505 
L 281.62744 127.689505 
L 281.62744 126.891089 
L 282.200518 126.891089 
L 282.200518 126.092673 
L 282.63132 126.092673 
L 282.63132 125.294257 
L 282.796906 125.294257 
L 282.796906 124.495842 
L 283.032736 124.495842 
L 283.032736 123.697426 
L 283.202085 123.697426 
L 283.202085 122.89901 
L 283.522149 122.89901 
L 283.522149 122.100594 
L 284.236633 122.100594 
L 284.236633 121.302178 
L 284.412993 121.302178 
L 284.441016 119.705347 
L 284.690899 119.705347 
L 284.690899 118.906931 
L 284.846444 118.906931 
L 284.936238 117.310099 
L 285.215888 117.310099 
L 285.215888 116.511683 
L 285.58813 116.511683 
L 285.58813 115.713267 
L 285.901598 115.713267 
L 285.901598 114.914851 
L 286.304105 114.914851 
L 286.304105 114.116436 
L 286.85248 114.116436 
L 286.89285 112.519604 
L 287.027529 112.519604 
L 287.027529 111.721188 
L 287.322264 111.721188 
L 287.322264 110.922772 
L 287.698901 110.922772 
L 287.698901 110.124356 
L 288.002398 110.124356 
L 288.002398 109.325941 
L 288.238085 109.325941 
L 288.333023 107.729109 
L 288.448353 107.729109 
L 288.448353 106.930693 
L 288.737978 106.930693 
L 288.767867 105.333861 
L 289.382604 105.333861 
L 289.382604 104.535446 
L 290.118696 104.535446 
L 290.118696 103.73703 
L 290.495282 103.73703 
L 290.495282 102.938614 
L 290.644218 102.938614 
L 290.644218 102.140198 
L 290.931489 102.140198 
L 290.931489 101.341782 
L 291.187216 101.341782 
L 291.187216 100.543366 
L 291.435094 100.543366 
L 291.435094 99.74495 
L 292.235117 99.74495 
L 292.235117 98.946535 
L 293.334768 98.946535 
L 293.334768 98.148119 
L 296.757244 98.148119 
L 296.757244 97.349703 
L 298.518174 97.349703 
L 298.518174 96.551287 
L 303.797877 96.551287 
L 303.855045 94.954455 
L 310.318062 94.954455 
L 310.318062 94.15604 
L 311.149365 94.15604 
L 311.149365 93.357624 
L 318.489519 93.357624 
L 318.489519 92.559208 
L 320.283908 92.559208 
L 320.283908 91.760792 
L 323.766966 91.760792 
L 323.766966 90.962376 
L 324.406589 90.962376 
L 324.452282 88.567129 
L 326.602476 88.567129 
L 326.620796 86.970297 
L 326.803258 86.970297 
L 326.803258 86.171881 
L 327.180998 86.171881 
L 327.180998 85.373465 
L 327.634425 85.373465 
L 327.634425 84.57505 
L 327.74895 84.57505 
L 327.74895 83.776634 
L 328.424062 83.776634 
L 328.48092 82.179802 
L 329.015117 82.179802 
L 329.015117 81.381386 
L 329.343691 81.381386 
L 329.343691 80.58297 
L 329.687142 80.58297 
L 329.687142 79.784554 
L 329.972297 79.784554 
L 330.014039 78.187723 
L 330.48721 78.187723 
L 330.48721 77.389307 
L 330.61184 77.389307 
L 330.61184 76.590891 
L 331.262086 76.590891 
L 331.262086 75.792475 
L 331.761384 75.792475 
L 331.812264 74.195644 
L 331.966335 74.195644 
L 331.974092 72.598812 
L 333.317873 72.598812 
L 333.317873 71.800396 
L 333.450927 71.800396 
L 333.450927 71.00198 
L 333.588922 71.00198 
L 333.588922 70.203564 
L 333.941129 70.203564 
L 333.941129 69.405149 
L 334.543228 69.405149 
L 334.639348 67.808317 
L 334.885231 67.808317 
L 334.984107 65.413069 
L 335.478 65.413069 
L 335.478 64.614653 
L 335.972938 64.614653 
L 335.972938 63.816238 
L 336.662935 63.816238 
L 336.662935 63.017822 
L 336.779585 63.017822 
L 336.779585 62.219406 
L 337.200203 62.219406 
L 337.200203 61.42099 
L 337.735532 61.42099 
L 337.735532 60.622574 
L 338.046771 60.622574 
L 338.046771 59.824158 
L 339.277279 59.824158 
L 339.277279 59.025743 
L 339.506923 59.025743 
L 339.506923 58.227327 
L 339.712104 58.227327 
L 339.712104 57.428911 
L 340.124592 57.428911 
L 340.124592 56.630495 
L 342.408797 56.630495 
L 342.408797 55.832079 
L 342.542104 55.832079 
L 342.542104 55.033663 
L 343.046887 55.033663 
L 343.046887 54.235248 
L 343.591444 54.235248 
L 343.591444 53.436832 
L 344.069413 53.436832 
L 344.173096 51.84 
L 344.660702 51.84 
L 344.660702 51.041584 
L 345.6997 51.041584 
L 345.6997 50.243168 
L 346.160047 50.243168 
L 346.160047 49.444752 
L 348.043056 49.444752 
L 348.043056 48.646337 
L 348.432266 48.646337 
L 348.432266 47.847921 
L 349.412683 47.847921 
L 349.454833 45.452673 
L 349.550157 45.452673 
L 349.550157 44.654257 
L 349.799377 44.654257 
L 349.799377 43.855842 
L 350.08024 43.855842 
L 350.08024 43.057426 
L 350.308288 43.057426 
L 350.308288 42.25901 
L 365.068897 42.25901 
L 365.068897 41.460594 
L 365.597983 41.460594 
L 365.597983 40.662178 
L 367.317111 40.662178 
L 367.317111 39.863762 
L 370.017107 39.863762 
L 370.017107 39.065347 
L 370.164431 39.065347 
L 370.191821 37.468515 
L 370.331486 37.468515 
L 370.331486 36.670099 
L 370.473159 36.670099 
L 370.473159 35.871683 
L 370.686363 35.871683 
L 370.686363 35.073267 
L 371.005728 35.073267 
L 371.005728 34.274851 
L 371.57557 34.274851 
L 371.57557 33.476436 
L 371.885377 33.476436 
L 371.885377 32.67802 
L 372.014988 32.67802 
L 372.014988 31.879604 
L 372.443565 31.879604 
L 372.443565 31.081188 
L 373.241156 31.081188 
L 373.241156 30.282772 
L 373.365506 30.282772 
L 373.365506 29.484356 
L 373.84148 29.484356 
L 373.852636 27.887525 
L 374.266582 27.887525 
L 374.266582 27.089109 
L 376.245268 27.089109 
L 376.33593 24.693861 
L 376.548753 24.693861 
L 376.647762 22.298614 
L 377.17653 22.298614 
L 377.17653 21.500198 
L 378.509884 21.500198 
L 378.509884 20.701782 
L 379.4891 20.701782 
L 379.4891 19.903366 
L 383.443894 19.903366 
L 383.443894 19.10495 
L 387.203174 19.10495 
L 387.203174 18.306535 
L 409.327852 18.306535 
L 409.327852 17.508119 
L 413.042259 17.508119 
L 413.042259 16.709703 
L 413.998203 16.709703 
L 413.998203 15.911287 
L 415.421985 15.911287 
L 415.421985 15.112871 
L 416.410523 15.112871 
L 416.410523 14.314455 
L 416.52614 14.314455 
L 416.52614 13.51604 
L 417.458536 13.51604 
L 417.458536 12.717624 
L 417.911791 12.717624 
L 417.993804 11.120792 
L 418.435487 11.120792 
L 418.435487 10.322376 
L 420.033982 10.322376 
L 420.033982 9.52396 
L 420.155429 9.52396 
L 420.155429 8.725545 
L 421.269459 8.725545 
L 421.269459 7.927129 
L 422.055768 7.927129 
L 422.055768 7.128713 
L 427.447082 7.128713 
L 427.447082 6.330297 
L 427.447082 6.330297 
L 460.8 6.330297 
L 460.8 6.330297 
" clip-path="url(#p3a74bd620e)" style="fill: none; stroke: #bf00bf; stroke-width: 1.5; stroke-linecap: square"/>
   </g>
   <g id="line2d_24">
    <path d="M 221.949596 293.76 
L 222.032497 292.163168 
L 223.327268 292.163168 
L 223.327268 291.364752 
L 223.520807 291.364752 
L 223.520807 290.566337 
L 223.84858 290.566337 
L 223.84858 289.767921 
L 224.609143 289.767921 
L 224.609143 288.969505 
L 225.428315 288.969505 
L 225.428315 288.171089 
L 226.845786 288.171089 
L 226.845786 287.372673 
L 227.461517 287.372673 
L 227.461517 286.574257 
L 227.592062 286.574257 
L 227.592062 285.775842 
L 227.755863 285.775842 
L 227.834832 284.17901 
L 228.037705 284.17901 
L 228.138761 282.582178 
L 228.179106 282.582178 
L 228.179106 281.783762 
L 228.964818 281.783762 
L 228.964818 280.985347 
L 233.557729 280.985347 
L 233.667378 279.388515 
L 234.091487 279.388515 
L 234.091487 278.590099 
L 234.395617 278.590099 
L 234.395617 277.791683 
L 234.659735 277.791683 
L 234.703185 276.194851 
L 235.376662 276.194851 
L 235.376662 275.396436 
L 235.812654 275.396436 
L 235.876411 273.799604 
L 236.192618 273.799604 
L 236.229768 271.404356 
L 236.520093 271.404356 
L 236.576889 269.807525 
L 236.684357 269.807525 
L 236.759474 268.210693 
L 236.861426 268.210693 
L 236.936651 266.613861 
L 237.708161 266.613861 
L 237.708161 265.815446 
L 237.925479 265.815446 
L 237.978547 263.420198 
L 238.336916 263.420198 
L 238.336916 262.621782 
L 238.555292 262.621782 
L 238.644926 261.02495 
L 239.021207 261.02495 
L 239.021207 260.226535 
L 239.345883 260.226535 
L 239.345883 259.428119 
L 239.93381 259.428119 
L 239.93381 258.629703 
L 240.875522 258.629703 
L 240.875522 257.831287 
L 241.278071 257.831287 
L 241.278071 257.032871 
L 241.675583 257.032871 
L 241.762606 255.43604 
L 241.924437 255.43604 
L 241.924437 254.637624 
L 242.508582 254.637624 
L 242.508582 253.839208 
L 243.007726 253.839208 
L 243.007726 253.040792 
L 243.396481 253.040792 
L 243.396481 252.242376 
L 243.852823 252.242376 
L 243.882952 250.645545 
L 244.147298 250.645545 
L 244.153576 249.048713 
L 244.457473 249.048713 
L 244.543974 247.451881 
L 244.597249 247.451881 
L 244.597249 246.653465 
L 245.246361 246.653465 
L 245.255427 245.056634 
L 245.594996 245.056634 
L 245.594996 244.258218 
L 245.775215 244.258218 
L 245.827226 242.661386 
L 246.275786 242.661386 
L 246.275786 241.86297 
L 246.389667 241.86297 
L 246.491921 239.467723 
L 246.649545 239.467723 
L 246.742439 237.870891 
L 246.915079 237.870891 
L 246.915079 237.072475 
L 247.048181 237.072475 
L 247.048181 236.274059 
L 247.209412 236.274059 
L 247.209412 235.475644 
L 247.852012 235.475644 
L 247.870782 233.878812 
L 248.049747 233.878812 
L 248.14775 231.483564 
L 248.23583 231.483564 
L 248.23583 230.685149 
L 248.771438 230.685149 
L 248.771438 229.886733 
L 248.883976 229.886733 
L 248.913944 228.289901 
L 249.014303 228.289901 
L 249.014303 227.491485 
L 249.1917 227.491485 
L 249.1917 226.693069 
L 249.329255 226.693069 
L 249.329255 225.894653 
L 250.198122 225.894653 
L 250.198122 225.096238 
L 250.423317 225.096238 
L 250.423317 224.297822 
L 250.584328 224.297822 
L 250.584328 223.499406 
L 250.759878 223.499406 
L 250.759878 222.70099 
L 250.971465 222.70099 
L 251.03728 218.708911 
L 251.124322 218.708911 
L 251.232027 215.515248 
L 251.290541 215.515248 
L 251.399226 213.12 
L 251.428914 213.12 
L 251.538714 207.531089 
L 251.643077 207.531089 
L 251.665214 205.135842 
L 251.75649 205.135842 
L 251.848677 201.143762 
L 251.871014 201.143762 
L 251.962495 199.546931 
L 252.039178 199.546931 
L 252.057018 196.353267 
L 252.307018 196.353267 
L 252.307018 195.554851 
L 252.529646 195.554851 
L 252.529646 194.756436 
L 253.763642 194.756436 
L 253.848648 193.159604 
L 254.189371 193.159604 
L 254.296795 191.562772 
L 254.361586 191.562772 
L 254.434658 189.167525 
L 254.569569 189.167525 
L 254.658945 186.772277 
L 254.825231 186.772277 
L 254.9328 184.37703 
L 254.946198 184.37703 
L 254.946198 183.578614 
L 255.711802 183.578614 
L 255.721799 181.981782 
L 256.659269 181.981782 
L 256.659269 181.183366 
L 257.15176 181.183366 
L 257.187002 179.586535 
L 257.491046 179.586535 
L 257.491046 178.788119 
L 258.038364 178.788119 
L 258.081682 177.191287 
L 258.815425 177.191287 
L 258.815425 176.392871 
L 259.326204 176.392871 
L 259.326204 175.594455 
L 259.924194 175.594455 
L 259.924194 174.79604 
L 261.209858 174.79604 
L 261.209858 173.997624 
L 264.284642 173.997624 
L 264.284642 173.199208 
L 264.524823 173.199208 
L 264.524823 172.400792 
L 268.898669 172.400792 
L 268.898669 171.602376 
L 269.114427 171.602376 
L 269.114427 170.80396 
L 269.893793 170.80396 
L 269.893793 170.005545 
L 270.403834 170.005545 
L 270.403834 169.207129 
L 270.591369 169.207129 
L 270.591369 168.408713 
L 271.383654 168.408713 
L 271.427181 166.811881 
L 271.726973 166.811881 
L 271.746196 165.21505 
L 271.952702 165.21505 
L 271.952702 164.416634 
L 272.361437 164.416634 
L 272.361437 163.618218 
L 272.618009 163.618218 
L 272.618009 162.819802 
L 272.806558 162.819802 
L 272.8487 161.22297 
L 272.965224 161.22297 
L 273.000567 158.827723 
L 273.120417 158.827723 
L 273.120417 158.029307 
L 273.487321 158.029307 
L 273.594808 156.432475 
L 273.620902 156.432475 
L 273.726199 154.037228 
L 273.735989 154.037228 
L 273.836602 150.843564 
L 273.868632 150.843564 
L 273.901884 149.246733 
L 274.116989 149.246733 
L 274.135308 146.851485 
L 274.237328 146.851485 
L 274.240467 145.254653 
L 274.467472 145.254653 
L 274.511044 143.657822 
L 274.607432 143.657822 
L 274.654086 142.06099 
L 274.747384 142.06099 
L 274.747384 141.262574 
L 274.863454 141.262574 
L 274.863454 140.464158 
L 274.998846 140.464158 
L 275.078107 138.867327 
L 275.289157 138.867327 
L 275.297053 137.270495 
L 275.495132 137.270495 
L 275.598409 134.076832 
L 275.811367 134.076832 
L 275.917137 132.48 
L 276.051478 132.48 
L 276.139301 130.883168 
L 276.299906 130.883168 
L 276.299906 130.084752 
L 276.457092 130.084752 
L 276.457092 129.286337 
L 276.61237 129.286337 
L 276.61237 128.487921 
L 276.727322 128.487921 
L 276.727322 127.689505 
L 276.901845 127.689505 
L 276.914716 126.092673 
L 277.251402 126.092673 
L 277.251402 125.294257 
L 277.463075 125.294257 
L 277.51417 123.697426 
L 277.658945 123.697426 
L 277.658945 122.89901 
L 277.862171 122.89901 
L 277.862171 122.100594 
L 278.033227 122.100594 
L 278.091746 120.503762 
L 278.186563 120.503762 
L 278.189778 118.906931 
L 278.510407 118.906931 
L 278.510407 118.108515 
L 278.671665 118.108515 
L 278.77144 116.511683 
L 279.064885 116.511683 
L 279.160363 114.914851 
L 279.422106 114.914851 
L 279.422106 114.116436 
L 279.769481 114.116436 
L 279.799434 111.721188 
L 280.024909 111.721188 
L 280.024909 110.922772 
L 280.51393 110.922772 
L 280.51393 110.124356 
L 281.066934 110.124356 
L 281.066934 109.325941 
L 283.007971 109.325941 
L 283.007971 108.527525 
L 283.522149 108.527525 
L 283.522149 107.729109 
L 283.935931 107.729109 
L 283.935931 106.930693 
L 284.62468 106.930693 
L 284.694142 105.333861 
L 285.083121 105.333861 
L 285.083121 104.535446 
L 285.215888 104.535446 
L 285.215888 103.73703 
L 286.739683 103.73703 
L 286.739683 102.938614 
L 286.978667 102.938614 
L 286.978667 102.140198 
L 287.206468 102.140198 
L 287.206468 101.341782 
L 287.322264 101.341782 
L 287.322264 100.543366 
L 287.603145 100.543366 
L 287.67903 98.148119 
L 287.852518 98.148119 
L 287.852518 97.349703 
L 288.083013 97.349703 
L 288.091118 95.752871 
L 289.083902 95.752871 
L 289.083902 94.954455 
L 289.650009 94.954455 
L 289.650009 94.15604 
L 294.368307 94.15604 
L 294.368307 93.357624 
L 296.508371 93.357624 
L 296.508371 92.559208 
L 298.518174 92.559208 
L 298.518174 91.760792 
L 301.128442 91.760792 
L 301.128442 90.962376 
L 302.352169 90.962376 
L 302.352169 90.16396 
L 310.318062 90.16396 
L 310.318062 89.365545 
L 312.217397 89.365545 
L 312.217397 88.567129 
L 317.491354 88.567129 
L 317.491354 87.768713 
L 318.725953 87.768713 
L 318.725953 86.970297 
L 319.044336 86.970297 
L 319.044336 86.171881 
L 320.162451 86.171881 
L 320.162451 85.373465 
L 320.283908 85.373465 
L 320.283908 84.57505 
L 320.645667 84.57505 
L 320.645667 83.776634 
L 320.965273 83.776634 
L 320.965273 82.978218 
L 321.359615 82.978218 
L 321.359615 82.179802 
L 322.254181 82.179802 
L 322.254181 81.381386 
L 322.491391 81.381386 
L 322.566903 79.784554 
L 322.650765 79.784554 
L 322.650765 78.986139 
L 323.373649 78.986139 
L 323.373649 78.187723 
L 324.419165 78.187723 
L 324.513555 75.792475 
L 325.235908 75.792475 
L 325.34465 74.195644 
L 325.665909 74.195644 
L 325.665909 73.397228 
L 326.274864 73.397228 
L 326.274864 72.598812 
L 326.672895 72.598812 
L 326.672895 71.800396 
L 326.79559 71.800396 
L 326.829992 69.405149 
L 326.948668 69.405149 
L 326.948668 68.606733 
L 327.728735 68.606733 
L 327.728735 67.808317 
L 328.415652 67.808317 
L 328.415652 67.009901 
L 329.228808 67.009901 
L 329.228808 66.211485 
L 329.687142 66.211485 
L 329.687142 65.413069 
L 329.88752 65.413069 
L 329.88752 64.614653 
L 330.014039 64.614653 
L 330.014039 63.816238 
L 330.425528 63.816238 
L 330.48721 62.219406 
L 330.61184 62.219406 
L 330.61184 61.42099 
L 331.267802 61.42099 
L 331.267802 60.622574 
L 331.641968 60.622574 
L 331.714779 59.025743 
L 331.779735 59.025743 
L 331.779735 58.227327 
L 331.948509 58.227327 
L 331.974092 56.630495 
L 332.529381 56.630495 
L 332.618029 55.033663 
L 332.679439 55.033663 
L 332.766444 53.436832 
L 332.958383 53.436832 
L 332.958383 52.638416 
L 333.134706 52.638416 
L 333.134706 51.84 
L 334.282231 51.84 
L 334.282231 51.041584 
L 334.87425 51.041584 
L 334.87425 50.243168 
L 335.190076 50.243168 
L 335.190076 49.444752 
L 336.005331 49.444752 
L 336.059043 47.847921 
L 336.591625 47.847921 
L 336.591625 47.049505 
L 337.405533 47.049505 
L 337.405533 46.251089 
L 338.046771 46.251089 
L 338.046771 45.452673 
L 341.81302 45.452673 
L 341.81302 44.654257 
L 344.54051 44.654257 
L 344.54051 43.855842 
L 348.221952 43.855842 
L 348.221952 43.057426 
L 349.326064 43.057426 
L 349.326064 42.25901 
L 358.620175 42.25901 
L 358.620175 41.460594 
L 360.417587 41.460594 
L 360.417587 40.662178 
L 361.357965 40.662178 
L 361.357965 39.863762 
L 362.306052 39.863762 
L 362.306052 39.065347 
L 362.763495 39.065347 
L 362.763495 38.266931 
L 363.127379 38.266931 
L 363.127379 37.468515 
L 364.40136 37.468515 
L 364.40136 36.670099 
L 364.627606 36.670099 
L 364.627606 35.871683 
L 365.068897 35.871683 
L 365.068897 35.073267 
L 365.376102 35.073267 
L 365.376102 34.274851 
L 365.533351 34.274851 
L 365.64124 32.67802 
L 366.111474 32.67802 
L 366.111474 31.879604 
L 366.365865 31.879604 
L 366.365865 31.081188 
L 366.790445 31.081188 
L 366.790445 30.282772 
L 367.317111 30.282772 
L 367.317111 29.484356 
L 367.955605 29.484356 
L 367.955605 28.685941 
L 370.017107 28.685941 
L 370.080724 27.089109 
L 370.191821 27.089109 
L 370.230948 25.492277 
L 370.777181 25.492277 
L 370.855396 23.895446 
L 371.005728 23.895446 
L 371.048247 22.298614 
L 371.555397 22.298614 
L 371.57557 20.701782 
L 372.056802 20.701782 
L 372.056802 19.903366 
L 372.443565 19.903366 
L 372.443565 19.10495 
L 373.436573 19.10495 
L 373.436573 18.306535 
L 409.327852 18.306535 
L 409.327852 17.508119 
L 411.591719 17.508119 
L 411.591719 16.709703 
L 411.913363 16.709703 
L 411.913363 15.911287 
L 413.042259 15.911287 
L 413.042259 15.112871 
L 414.252025 15.112871 
L 414.252025 14.314455 
L 414.38504 14.314455 
L 414.422033 12.717624 
L 414.637156 12.717624 
L 414.691014 11.120792 
L 415.042789 11.120792 
L 415.042789 10.322376 
L 415.215415 10.322376 
L 415.215415 9.52396 
L 416.080102 9.52396 
L 416.080102 8.725545 
L 417.014289 8.725545 
L 417.014289 7.927129 
L 417.458536 7.927129 
L 417.458536 7.128713 
L 419.568301 7.128713 
L 419.568301 6.330297 
L 419.568301 6.330297 
L 460.8 6.330297 
L 460.8 6.330297 
" clip-path="url(#p3a74bd620e)" style="fill: none; stroke: #000000; stroke-width: 1.5; stroke-linecap: square"/>
   </g>
   <g id="line2d_25">
    <path d="M -0.109766 293.76 
L -0.109766 291.364752 
L 198.267239 291.364752 
L 198.267239 290.566337 
L 208.334739 290.566337 
L 208.334739 289.767921 
L 212.020498 289.767921 
L 212.020498 288.969505 
L 216.72571 288.969505 
L 216.72571 288.171089 
L 219.285944 288.171089 
L 219.285944 287.372673 
L 219.514696 287.372673 
L 219.514696 286.574257 
L 220.148724 286.574257 
L 220.148724 285.775842 
L 220.974884 285.775842 
L 220.974884 284.977426 
L 221.631323 284.977426 
L 221.631323 284.17901 
L 221.958869 284.17901 
L 222.032497 281.783762 
L 222.588534 281.783762 
L 222.61363 280.186931 
L 222.849336 280.186931 
L 222.849336 279.388515 
L 223.389572 279.388515 
L 223.389572 278.590099 
L 223.520807 278.590099 
L 223.520807 277.791683 
L 223.648955 277.791683 
L 223.700466 276.194851 
L 223.767293 276.194851 
L 223.87338 274.59802 
L 224.149957 274.59802 
L 224.235761 273.001188 
L 224.565459 273.001188 
L 224.640312 270.605941 
L 224.798454 270.605941 
L 224.798454 269.807525 
L 225.198268 269.807525 
L 225.198268 269.009109 
L 225.822498 269.009109 
L 225.822498 268.210693 
L 226.388623 268.210693 
L 226.388623 267.412277 
L 226.629163 267.412277 
L 226.696523 265.815446 
L 226.767901 265.815446 
L 226.767901 265.01703 
L 227.058227 265.01703 
L 227.058227 264.218614 
L 227.260272 264.218614 
L 227.260272 263.420198 
L 227.428883 263.420198 
L 227.509305 259.428119 
L 227.584135 259.428119 
L 227.670261 257.831287 
L 228.119548 257.831287 
L 228.18615 256.234455 
L 228.317199 256.234455 
L 228.317199 255.43604 
L 228.669089 255.43604 
L 228.717434 253.839208 
L 228.996473 253.839208 
L 228.996473 253.040792 
L 229.272329 253.040792 
L 229.354079 250.645545 
L 229.38698 250.645545 
L 229.38698 249.847129 
L 229.543132 249.847129 
L 229.543132 249.048713 
L 230.283974 249.048713 
L 230.283974 248.250297 
L 231.562393 248.250297 
L 231.562393 247.451881 
L 232.775472 247.451881 
L 232.86233 245.85505 
L 232.937571 245.85505 
L 233.02871 244.258218 
L 234.328675 244.258218 
L 234.346138 242.661386 
L 234.53507 242.661386 
L 234.53507 241.86297 
L 235.258187 241.86297 
L 235.261131 240.266139 
L 235.454459 240.266139 
L 235.454459 239.467723 
L 235.592997 239.467723 
L 235.592997 238.669307 
L 236.364693 238.669307 
L 236.364693 237.870891 
L 236.779312 237.870891 
L 236.779312 237.072475 
L 236.970768 237.072475 
L 236.970768 236.274059 
L 237.223619 236.274059 
L 237.223619 235.475644 
L 237.476027 235.475644 
L 237.476607 233.878812 
L 237.805743 233.878812 
L 237.901702 232.28198 
L 238.056392 232.28198 
L 238.090106 230.685149 
L 238.189621 230.685149 
L 238.189621 229.886733 
L 238.326067 229.886733 
L 238.332823 228.289901 
L 238.883309 228.289901 
L 238.907283 226.693069 
L 239.603856 226.693069 
L 239.603856 225.894653 
L 239.968364 225.894653 
L 240.035233 224.297822 
L 240.123028 224.297822 
L 240.123028 223.499406 
L 240.348074 223.499406 
L 240.382882 221.902574 
L 240.622541 221.902574 
L 240.725077 220.305743 
L 240.875522 220.305743 
L 240.923956 217.910495 
L 241.191466 217.910495 
L 241.210413 215.515248 
L 241.40791 215.515248 
L 241.464166 213.918416 
L 241.797306 213.918416 
L 241.884982 212.321584 
L 241.93426 212.321584 
L 242.024975 210.724752 
L 242.103965 210.724752 
L 242.103965 209.926337 
L 242.364371 209.926337 
L 242.364371 209.127921 
L 242.479186 209.127921 
L 242.479186 208.329505 
L 242.712216 208.329505 
L 242.712216 207.531089 
L 242.961131 207.531089 
L 242.961131 206.732673 
L 243.31143 206.732673 
L 243.327525 205.135842 
L 243.527468 205.135842 
L 243.527468 204.337426 
L 243.852823 204.337426 
L 243.882952 202.740594 
L 244.012309 202.740594 
L 244.012309 201.942178 
L 244.273904 201.942178 
L 244.347353 200.345347 
L 244.457473 200.345347 
L 244.457473 199.546931 
L 244.866567 199.546931 
L 244.866567 198.748515 
L 245.123139 198.748515 
L 245.123139 197.950099 
L 245.246361 197.950099 
L 245.246361 197.151683 
L 245.438888 197.151683 
L 245.438888 196.353267 
L 245.594996 196.353267 
L 245.635188 194.756436 
L 245.918137 194.756436 
L 245.918137 193.95802 
L 246.460245 193.95802 
L 246.494708 192.361188 
L 246.649545 192.361188 
L 246.696715 190.764356 
L 246.889515 190.764356 
L 246.889515 189.965941 
L 247.208679 189.965941 
L 247.208679 189.167525 
L 247.496038 189.167525 
L 247.496038 188.369109 
L 247.626801 188.369109 
L 247.626801 187.570693 
L 247.76397 187.570693 
L 247.76397 186.772277 
L 248.179734 186.772277 
L 248.179734 185.973861 
L 248.30056 185.973861 
L 248.30056 185.175446 
L 248.44817 185.175446 
L 248.44817 184.37703 
L 248.856718 184.37703 
L 248.856718 183.578614 
L 248.973237 183.578614 
L 249.016363 181.981782 
L 249.340522 181.981782 
L 249.35551 180.38495 
L 249.476967 180.38495 
L 249.570363 177.989703 
L 249.633516 177.989703 
L 249.681517 176.392871 
L 249.859582 176.392871 
L 249.859582 175.594455 
L 250.07026 175.594455 
L 250.07026 174.79604 
L 250.439888 174.79604 
L 250.439888 173.997624 
L 262.039594 173.997624 
L 262.039594 173.199208 
L 262.277683 173.199208 
L 262.277683 172.400792 
L 263.250158 172.400792 
L 263.250158 171.602376 
L 263.802368 171.602376 
L 263.802368 170.80396 
L 263.969264 170.80396 
L 263.969264 170.005545 
L 264.1589 170.005545 
L 264.1589 169.207129 
L 264.284642 169.207129 
L 264.36089 167.610297 
L 264.430295 167.610297 
L 264.524823 165.21505 
L 264.858223 165.21505 
L 264.858223 164.416634 
L 265.01076 164.416634 
L 265.100271 162.021386 
L 265.498356 162.021386 
L 265.529032 160.424554 
L 265.757711 160.424554 
L 265.820595 158.029307 
L 265.886737 158.029307 
L 265.886737 157.230891 
L 266.046994 157.230891 
L 266.135967 154.835644 
L 266.226029 154.835644 
L 266.304682 153.238812 
L 266.348905 153.238812 
L 266.43141 150.045149 
L 266.461737 150.045149 
L 266.536179 148.448317 
L 266.719403 148.448317 
L 266.76023 146.053069 
L 266.839974 146.053069 
L 266.938183 143.657822 
L 267.055615 143.657822 
L 267.055615 142.859406 
L 267.224064 142.859406 
L 267.268961 141.262574 
L 267.472501 141.262574 
L 267.509302 139.665743 
L 267.726026 139.665743 
L 267.726026 138.867327 
L 267.909614 138.867327 
L 267.909614 138.068911 
L 268.187165 138.068911 
L 268.220599 136.472079 
L 268.311782 136.472079 
L 268.311782 135.673663 
L 268.515773 135.673663 
L 268.527578 134.076832 
L 268.673086 134.076832 
L 268.673998 132.48 
L 268.85175 132.48 
L 268.914554 130.084752 
L 269.062495 130.084752 
L 269.114427 128.487921 
L 269.38637 128.487921 
L 269.38637 127.689505 
L 269.543517 127.689505 
L 269.571409 126.092673 
L 269.785978 126.092673 
L 269.893793 123.697426 
L 269.9936 123.697426 
L 269.9936 122.89901 
L 270.170075 122.89901 
L 270.170075 122.100594 
L 270.338274 122.100594 
L 270.403834 120.503762 
L 270.546769 120.503762 
L 270.546769 119.705347 
L 270.76262 119.705347 
L 270.869243 118.108515 
L 270.948686 118.108515 
L 270.948686 117.310099 
L 271.541034 117.310099 
L 271.541034 116.511683 
L 271.726973 116.511683 
L 271.726973 115.713267 
L 272.046156 115.713267 
L 272.107505 114.116436 
L 272.227588 114.116436 
L 272.227588 113.31802 
L 272.965224 113.31802 
L 272.965224 112.519604 
L 273.719626 112.519604 
L 273.756774 110.922772 
L 274.946406 110.922772 
L 274.946406 110.124356 
L 275.072095 110.124356 
L 275.125259 107.729109 
L 275.312205 107.729109 
L 275.312205 106.930693 
L 275.448076 106.930693 
L 275.448076 106.132277 
L 276.075929 106.132277 
L 276.10321 104.535446 
L 276.349126 104.535446 
L 276.349126 103.73703 
L 276.590282 103.73703 
L 276.644734 102.140198 
L 276.875777 102.140198 
L 276.937313 100.543366 
L 277.970243 100.543366 
L 278.073579 98.148119 
L 278.365085 98.148119 
L 278.365085 97.349703 
L 278.664495 97.349703 
L 278.689731 95.752871 
L 278.867634 95.752871 
L 278.956793 94.15604 
L 279.160363 94.15604 
L 279.160363 93.357624 
L 279.616219 93.357624 
L 279.616219 92.559208 
L 280.031981 92.559208 
L 280.031981 91.760792 
L 280.203054 91.760792 
L 280.23677 90.16396 
L 280.571051 90.16396 
L 280.612419 88.567129 
L 280.693816 88.567129 
L 280.693816 87.768713 
L 280.860771 87.768713 
L 280.860771 86.970297 
L 281.000889 86.970297 
L 281.000889 86.171881 
L 281.562779 86.171881 
L 281.562779 85.373465 
L 281.782479 85.373465 
L 281.868408 83.776634 
L 282.00792 83.776634 
L 282.058008 82.179802 
L 282.672068 82.179802 
L 282.672068 81.381386 
L 282.934497 81.381386 
L 282.934497 80.58297 
L 285.657495 80.58297 
L 285.657495 79.784554 
L 286.741676 79.784554 
L 286.808435 78.187723 
L 290.398722 78.187723 
L 290.398722 77.389307 
L 290.649439 77.389307 
L 290.649439 76.590891 
L 291.279802 76.590891 
L 291.301 74.994059 
L 292.814735 74.994059 
L 292.814735 74.195644 
L 294.368307 74.195644 
L 294.368307 73.397228 
L 294.736193 73.397228 
L 294.736193 72.598812 
L 295.599539 72.598812 
L 295.599539 71.800396 
L 296.611827 71.800396 
L 296.614894 70.203564 
L 297.241868 70.203564 
L 297.241868 69.405149 
L 297.366029 69.405149 
L 297.427067 67.808317 
L 298.956115 67.808317 
L 298.956115 67.009901 
L 299.110577 67.009901 
L 299.110577 66.211485 
L 299.439876 66.211485 
L 299.479282 64.614653 
L 300.300444 64.614653 
L 300.300444 63.816238 
L 302.101926 63.816238 
L 302.101926 63.017822 
L 302.607473 63.017822 
L 302.607473 62.219406 
L 302.972065 62.219406 
L 303.00409 60.622574 
L 303.431421 60.622574 
L 303.431421 59.824158 
L 304.036588 59.824158 
L 304.036588 59.025743 
L 304.359349 59.025743 
L 304.359349 58.227327 
L 304.687075 58.227327 
L 304.687075 57.428911 
L 305.119155 57.428911 
L 305.119155 56.630495 
L 305.322952 56.630495 
L 305.336956 55.033663 
L 305.755292 55.033663 
L 305.755292 54.235248 
L 305.907598 54.235248 
L 305.907598 53.436832 
L 306.115228 53.436832 
L 306.203686 51.84 
L 306.397532 51.84 
L 306.397532 51.041584 
L 306.608858 51.041584 
L 306.658705 49.444752 
L 307.239293 49.444752 
L 307.239293 48.646337 
L 307.706161 48.646337 
L 307.749408 47.049505 
L 308.797759 47.049505 
L 308.797759 46.251089 
L 308.933748 46.251089 
L 308.933748 45.452673 
L 310.036014 45.452673 
L 310.036014 44.654257 
L 311.24681 44.654257 
L 311.339691 43.057426 
L 312.457591 43.057426 
L 312.457591 42.25901 
L 340.036738 42.25901 
L 340.036738 41.460594 
L 349.368163 41.460594 
L 349.368163 40.662178 
L 352.519206 40.662178 
L 352.519206 39.863762 
L 354.291714 39.863762 
L 354.313722 38.266931 
L 354.804055 38.266931 
L 354.857435 36.670099 
L 355.366625 36.670099 
L 355.366625 35.871683 
L 355.527423 35.871683 
L 355.527423 35.073267 
L 355.965581 35.073267 
L 356.019978 33.476436 
L 356.143594 33.476436 
L 356.143594 32.67802 
L 356.676437 32.67802 
L 356.676437 31.879604 
L 358.41178 31.879604 
L 358.514947 30.282772 
L 358.816101 30.282772 
L 358.816101 29.484356 
L 359.425805 29.484356 
L 359.425805 28.685941 
L 359.934033 28.685941 
L 359.934033 27.887525 
L 360.350546 27.887525 
L 360.350546 27.089109 
L 360.702917 27.089109 
L 360.702917 26.290693 
L 361.944732 26.290693 
L 361.944732 25.492277 
L 362.152908 25.492277 
L 362.152908 24.693861 
L 362.521514 24.693861 
L 362.521514 23.895446 
L 362.892628 23.895446 
L 362.892628 23.09703 
L 363.127379 23.09703 
L 363.127379 22.298614 
L 363.522675 22.298614 
L 363.522675 21.500198 
L 364.636276 21.500198 
L 364.636276 20.701782 
L 365.068897 20.701782 
L 365.068897 19.903366 
L 365.225357 19.903366 
L 365.225357 19.10495 
L 369.087557 19.10495 
L 369.087557 18.306535 
L 394.56334 18.306535 
L 394.56334 17.508119 
L 394.872495 17.508119 
L 394.872495 16.709703 
L 396.680478 16.709703 
L 396.680478 15.911287 
L 396.88494 15.911287 
L 396.88494 15.112871 
L 397.28263 15.112871 
L 397.28263 14.314455 
L 397.481631 14.314455 
L 397.52279 12.717624 
L 398.023246 12.717624 
L 398.023246 11.919208 
L 398.3085 11.919208 
L 398.3085 11.120792 
L 398.47533 11.120792 
L 398.47533 10.322376 
L 399.971576 10.322376 
L 399.971576 9.52396 
L 400.096417 9.52396 
L 400.096417 8.725545 
L 402.879248 8.725545 
L 402.879248 7.927129 
L 403.646681 7.927129 
L 403.646681 7.128713 
L 404.008801 7.128713 
L 404.008801 6.330297 
L 404.008801 6.330297 
L 460.8 6.330297 
L 460.8 6.330297 
" clip-path="url(#p3a74bd620e)" style="fill: none; stroke: #00bfbf; stroke-width: 1.5; stroke-linecap: square"/>
   </g>
   <g id="line2d_26">
    <path d="M -1 292.961584 
L -0.109766 292.961584 
L -0.109766 280.985347 
L 25.297045 280.985347 
L 25.297045 280.186931 
L 57.916142 280.186931 
L 57.916142 279.388515 
L 59.110739 279.388515 
L 59.110739 278.590099 
L 60.781023 278.590099 
L 60.781023 277.791683 
L 63.435771 277.791683 
L 63.435771 276.993267 
L 66.772803 276.993267 
L 66.772803 276.194851 
L 67.754361 276.194851 
L 67.754361 275.396436 
L 68.038653 275.396436 
L 68.038653 274.59802 
L 72.221245 274.59802 
L 72.221245 273.799604 
L 73.145428 273.799604 
L 73.145428 273.001188 
L 74.338616 273.001188 
L 74.338616 272.202772 
L 78.152699 272.202772 
L 78.152699 271.404356 
L 80.76353 271.404356 
L 80.76353 270.605941 
L 81.016552 270.605941 
L 81.016552 269.807525 
L 83.36801 269.807525 
L 83.36801 269.009109 
L 88.594183 269.009109 
L 88.594183 268.210693 
L 144.250592 268.210693 
L 144.250592 267.412277 
L 144.83048 267.412277 
L 144.83048 266.613861 
L 145.297776 266.613861 
L 145.297776 265.815446 
L 145.845528 265.815446 
L 145.845528 265.01703 
L 146.413047 265.01703 
L 146.413047 264.218614 
L 146.684045 264.218614 
L 146.684045 263.420198 
L 147.116136 263.420198 
L 147.116136 262.621782 
L 147.67517 262.621782 
L 147.67517 261.823366 
L 147.83505 261.823366 
L 147.83505 261.02495 
L 148.405131 261.02495 
L 148.405131 260.226535 
L 149.692016 260.226535 
L 149.775815 258.629703 
L 150.229458 258.629703 
L 150.229458 257.831287 
L 150.439377 257.831287 
L 150.439377 257.032871 
L 151.589544 257.032871 
L 151.589544 256.234455 
L 165.424723 256.234455 
L 165.424723 255.43604 
L 172.142887 255.43604 
L 172.142887 254.637624 
L 176.295097 254.637624 
L 176.295097 253.839208 
L 177.372198 253.839208 
L 177.372198 253.040792 
L 179.662138 253.040792 
L 179.662138 252.242376 
L 179.815061 252.242376 
L 179.815061 251.44396 
L 180.191254 251.44396 
L 180.191254 250.645545 
L 180.723405 250.645545 
L 180.723405 249.847129 
L 181.717968 249.847129 
L 181.717968 249.048713 
L 182.314629 249.048713 
L 182.314629 248.250297 
L 182.470685 248.250297 
L 182.470685 247.451881 
L 182.858648 247.451881 
L 182.858648 246.653465 
L 184.29977 246.653465 
L 184.29977 245.85505 
L 184.937993 245.85505 
L 184.937993 245.056634 
L 188.18775 245.056634 
L 188.18775 244.258218 
L 188.701001 244.258218 
L 188.701001 243.459802 
L 190.079562 243.459802 
L 190.079562 242.661386 
L 190.412021 242.661386 
L 190.412021 241.86297 
L 193.886145 241.86297 
L 193.886145 241.064554 
L 198.279002 241.064554 
L 198.279002 240.266139 
L 199.032783 240.266139 
L 199.090057 236.274059 
L 199.810251 236.274059 
L 199.810251 235.475644 
L 200.008253 235.475644 
L 200.049855 233.878812 
L 202.050156 233.878812 
L 202.050156 233.080396 
L 203.295957 233.080396 
L 203.358341 231.483564 
L 203.462649 231.483564 
L 203.462649 230.685149 
L 205.516214 230.685149 
L 205.516438 229.088317 
L 206.14167 229.088317 
L 206.153529 227.491485 
L 206.756499 227.491485 
L 206.756499 226.693069 
L 207.411075 226.693069 
L 207.411075 225.894653 
L 208.273437 225.894653 
L 208.273437 225.096238 
L 208.674022 225.096238 
L 208.674022 224.297822 
L 209.000305 224.297822 
L 209.059621 222.70099 
L 209.189313 222.70099 
L 209.189313 221.902574 
L 209.350012 221.902574 
L 209.350012 221.104158 
L 209.612764 221.104158 
L 209.612764 220.305743 
L 209.752911 220.305743 
L 209.752911 219.507327 
L 210.40798 219.507327 
L 210.491772 217.910495 
L 211.1212 217.910495 
L 211.1212 217.112079 
L 211.28871 217.112079 
L 211.378518 214.716832 
L 211.508559 214.716832 
L 211.518567 212.321584 
L 211.634785 212.321584 
L 211.634785 211.523168 
L 211.862358 211.523168 
L 211.901935 209.926337 
L 212.023843 209.926337 
L 212.023843 209.127921 
L 212.393094 209.127921 
L 212.393094 208.329505 
L 212.78053 208.329505 
L 212.860207 206.732673 
L 213.402731 206.732673 
L 213.402731 205.934257 
L 213.597252 205.934257 
L 213.632908 204.337426 
L 213.872311 204.337426 
L 213.890751 202.740594 
L 214.04637 202.740594 
L 214.04876 201.143762 
L 214.291256 201.143762 
L 214.367587 199.546931 
L 214.726308 199.546931 
L 214.726308 198.748515 
L 215.161757 198.748515 
L 215.161757 197.950099 
L 215.2818 197.950099 
L 215.2818 197.151683 
L 215.513482 197.151683 
L 215.513482 196.353267 
L 215.76158 196.353267 
L 215.824985 194.756436 
L 216.588489 194.756436 
L 216.629005 193.159604 
L 216.72571 193.159604 
L 216.72571 192.361188 
L 217.058697 192.361188 
L 217.058697 191.562772 
L 217.578681 191.562772 
L 217.600906 189.965941 
L 217.725379 189.965941 
L 217.833288 188.369109 
L 218.313811 188.369109 
L 218.395724 186.772277 
L 218.528585 186.772277 
L 218.612608 184.37703 
L 219.217545 184.37703 
L 219.217545 183.578614 
L 219.902594 183.578614 
L 219.913572 181.981782 
L 220.185689 181.981782 
L 220.200593 180.38495 
L 220.643642 180.38495 
L 220.643642 179.586535 
L 220.804426 179.586535 
L 220.862075 177.191287 
L 220.988385 177.191287 
L 221.089571 173.997624 
L 221.146326 173.997624 
L 221.146326 173.199208 
L 221.314243 173.199208 
L 221.314243 172.400792 
L 221.685064 172.400792 
L 221.685064 171.602376 
L 221.830046 171.602376 
L 221.830046 170.80396 
L 222.024588 170.80396 
L 222.119641 168.408713 
L 222.232363 168.408713 
L 222.232363 167.610297 
L 222.412861 167.610297 
L 222.412861 166.811881 
L 222.787741 166.811881 
L 222.819142 165.21505 
L 223.060447 165.21505 
L 223.060447 164.416634 
L 223.261027 164.416634 
L 223.261027 163.618218 
L 224.010938 163.618218 
L 224.116184 162.021386 
L 224.530821 162.021386 
L 224.530821 161.22297 
L 224.875571 161.22297 
L 224.98255 159.626139 
L 225.051988 159.626139 
L 225.051988 158.827723 
L 225.460428 158.827723 
L 225.460428 158.029307 
L 225.637922 158.029307 
L 225.641328 156.432475 
L 226.947032 156.432475 
L 227.020153 152.440396 
L 227.353416 152.440396 
L 227.353416 151.64198 
L 227.841434 151.64198 
L 227.923739 150.045149 
L 228.198616 150.045149 
L 228.198616 149.246733 
L 228.461558 149.246733 
L 228.461558 148.448317 
L 228.614263 148.448317 
L 228.614263 147.649901 
L 228.951437 147.649901 
L 228.951437 146.851485 
L 229.451283 146.851485 
L 229.451283 146.053069 
L 229.673872 146.053069 
L 229.673872 145.254653 
L 230.07758 145.254653 
L 230.172961 143.657822 
L 231.091521 143.657822 
L 231.125821 141.262574 
L 231.278099 141.262574 
L 231.338238 139.665743 
L 231.84174 139.665743 
L 231.84174 138.867327 
L 232.123369 138.867327 
L 232.123369 138.068911 
L 232.284483 138.068911 
L 232.284483 137.270495 
L 232.660423 137.270495 
L 232.660423 136.472079 
L 232.784881 136.472079 
L 232.802621 134.875248 
L 233.616005 134.875248 
L 233.659016 133.278416 
L 233.731647 133.278416 
L 233.731647 132.48 
L 233.853343 132.48 
L 233.924266 130.883168 
L 234.044149 130.883168 
L 234.076672 129.286337 
L 234.176642 129.286337 
L 234.266051 127.689505 
L 234.363949 127.689505 
L 234.372909 126.092673 
L 234.662113 126.092673 
L 234.728211 123.697426 
L 234.824819 123.697426 
L 234.907156 120.503762 
L 234.99076 120.503762 
L 235.029743 118.906931 
L 235.161099 118.906931 
L 235.244304 117.310099 
L 235.318211 117.310099 
L 235.318211 116.511683 
L 235.486152 116.511683 
L 235.526737 114.914851 
L 235.63665 114.914851 
L 235.706126 112.519604 
L 235.788055 112.519604 
L 235.788055 111.721188 
L 236.118407 111.721188 
L 236.118407 110.922772 
L 236.394351 110.922772 
L 236.433169 109.325941 
L 238.060372 109.325941 
L 238.060372 108.527525 
L 238.758581 108.527525 
L 238.813652 106.930693 
L 239.000054 106.930693 
L 239.000054 106.132277 
L 239.294714 106.132277 
L 239.294714 105.333861 
L 239.465538 105.333861 
L 239.521338 103.73703 
L 240.089573 103.73703 
L 240.164405 102.140198 
L 240.52174 102.140198 
L 240.52174 101.341782 
L 240.646637 101.341782 
L 240.646637 100.543366 
L 241.211142 100.543366 
L 241.211142 99.74495 
L 241.472703 99.74495 
L 241.472703 98.946535 
L 241.733156 98.946535 
L 241.733156 98.148119 
L 242.046905 98.148119 
L 242.046905 97.349703 
L 243.037582 97.349703 
L 243.037582 96.551287 
L 243.284168 96.551287 
L 243.299289 94.954455 
L 243.864083 94.954455 
L 243.92803 92.559208 
L 244.692173 92.559208 
L 244.692173 91.760792 
L 244.857371 91.760792 
L 244.957354 90.16396 
L 245.208974 90.16396 
L 245.208974 89.365545 
L 245.336005 89.365545 
L 245.420644 85.373465 
L 246.003106 85.373465 
L 246.003106 84.57505 
L 246.238752 84.57505 
L 246.31005 82.978218 
L 246.430872 82.978218 
L 246.430872 82.179802 
L 246.596489 82.179802 
L 246.596489 81.381386 
L 246.978127 81.381386 
L 246.978127 80.58297 
L 247.737139 80.58297 
L 247.847348 78.986139 
L 248.171248 78.986139 
L 248.171248 78.187723 
L 248.579449 78.187723 
L 248.579449 77.389307 
L 248.737632 77.389307 
L 248.737632 76.590891 
L 248.998381 76.590891 
L 248.998381 75.792475 
L 249.37407 75.792475 
L 249.37407 74.994059 
L 249.682724 74.994059 
L 249.682724 74.195644 
L 249.804492 74.195644 
L 249.804492 73.397228 
L 250.464586 73.397228 
L 250.464586 72.598812 
L 251.058141 72.598812 
L 251.058141 71.800396 
L 251.192891 71.800396 
L 251.192891 71.00198 
L 251.747353 71.00198 
L 251.747353 70.203564 
L 251.877605 70.203564 
L 251.877605 69.405149 
L 252.113298 69.405149 
L 252.220492 67.808317 
L 252.909035 67.808317 
L 252.909035 67.009901 
L 253.033568 67.009901 
L 253.033568 66.211485 
L 253.356747 66.211485 
L 253.356747 65.413069 
L 253.804032 65.413069 
L 253.804032 64.614653 
L 254.013302 64.614653 
L 254.013302 63.816238 
L 254.191171 63.816238 
L 254.191171 63.017822 
L 255.16547 63.017822 
L 255.202224 61.42099 
L 255.56713 61.42099 
L 255.56713 60.622574 
L 256.028369 60.622574 
L 256.070519 59.025743 
L 256.18106 59.025743 
L 256.21738 57.428911 
L 256.875014 57.428911 
L 256.875014 56.630495 
L 257.142505 56.630495 
L 257.187448 55.033663 
L 257.673409 55.033663 
L 257.776455 52.638416 
L 257.828436 52.638416 
L 257.863525 51.041584 
L 258.066443 51.041584 
L 258.066443 50.243168 
L 258.215417 50.243168 
L 258.215417 49.444752 
L 258.361018 49.444752 
L 258.361018 48.646337 
L 258.573014 48.646337 
L 258.625384 47.049505 
L 258.730778 47.049505 
L 258.730778 46.251089 
L 258.902608 46.251089 
L 258.902608 45.452673 
L 259.449812 45.452673 
L 259.49917 43.855842 
L 260.587254 43.855842 
L 260.587254 43.057426 
L 262.559047 43.057426 
L 262.559047 42.25901 
L 264.284642 42.25901 
L 264.284642 41.460594 
L 264.524823 41.460594 
L 264.524823 40.662178 
L 268.673998 40.662178 
L 268.673998 39.863762 
L 269.114427 39.863762 
L 269.114427 39.065347 
L 269.807283 39.065347 
L 269.893793 37.468515 
L 270.403834 37.468515 
L 270.403834 36.670099 
L 271.726973 36.670099 
L 271.726973 35.871683 
L 272.965224 35.871683 
L 272.965224 35.073267 
L 273.719626 35.073267 
L 273.719626 34.274851 
L 276.875777 34.274851 
L 276.875777 33.476436 
L 279.160363 33.476436 
L 279.160363 32.67802 
L 280.693816 32.67802 
L 280.751356 31.081188 
L 282.661385 31.081188 
L 282.661385 30.282772 
L 293.933716 30.282772 
L 293.933716 29.484356 
L 297.237338 29.484356 
L 297.237338 28.685941 
L 298.04343 28.685941 
L 298.04343 27.887525 
L 299.49594 27.887525 
L 299.49594 27.089109 
L 300.382357 27.089109 
L 300.382357 26.290693 
L 301.071614 26.290693 
L 301.071614 25.492277 
L 301.258911 25.492277 
L 301.258911 24.693861 
L 302.675884 24.693861 
L 302.675884 23.895446 
L 303.009744 23.895446 
L 303.009744 23.09703 
L 303.606705 23.09703 
L 303.606705 22.298614 
L 303.819183 22.298614 
L 303.819183 21.500198 
L 305.471375 21.500198 
L 305.471375 20.701782 
L 306.419517 20.701782 
L 306.419517 19.903366 
L 306.646986 19.903366 
L 306.646986 19.10495 
L 308.0844 19.10495 
L 308.130281 17.508119 
L 308.457384 17.508119 
L 308.457384 16.709703 
L 308.821877 16.709703 
L 308.821877 15.911287 
L 310.150103 15.911287 
L 310.150103 15.112871 
L 310.682201 15.112871 
L 310.682201 14.314455 
L 310.946646 14.314455 
L 311.030033 12.717624 
L 311.248946 12.717624 
L 311.248946 11.919208 
L 315.3404 11.919208 
L 315.385661 10.322376 
L 316.737143 10.322376 
L 316.737143 9.52396 
L 318.527489 9.52396 
L 318.527489 8.725545 
L 319.339555 8.725545 
L 319.339555 7.927129 
L 323.517609 7.927129 
L 323.517609 7.128713 
L 328.826658 7.128713 
L 328.826658 6.330297 
L 328.826658 6.330297 
L 460.8 6.330297 
L 460.8 6.330297 
" clip-path="url(#p3a74bd620e)" style="fill: none; stroke: #bf00bf; stroke-width: 1.5; stroke-linecap: square"/>
   </g>
   <g id="line2d_27">
    <path d="M -1 195.554851 
L -0.109766 195.554851 
L -0.109766 181.981782 
L 6.461851 181.981782 
L 6.461851 181.183366 
L 14.394589 181.183366 
L 14.394589 180.38495 
L 14.56271 180.38495 
L 14.56271 179.586535 
L 21.380166 179.586535 
L 21.380166 178.788119 
L 23.374269 178.788119 
L 23.374269 177.989703 
L 32.25898 177.989703 
L 32.25898 177.191287 
L 34.111644 177.191287 
L 34.111644 176.392871 
L 40.084984 176.392871 
L 40.084984 175.594455 
L 50.121773 175.594455 
L 50.121773 174.79604 
L 53.258681 174.79604 
L 53.258681 173.997624 
L 54.863348 173.997624 
L 54.863348 173.199208 
L 56.141353 173.199208 
L 56.141353 172.400792 
L 80.679604 172.400792 
L 80.679604 171.602376 
L 83.356533 171.602376 
L 83.356533 170.80396 
L 84.224982 170.80396 
L 84.224982 170.005545 
L 108.888599 170.005545 
L 108.888599 169.207129 
L 112.663133 169.207129 
L 112.663133 168.408713 
L 125.956606 168.408713 
L 125.956606 167.610297 
L 129.276125 167.610297 
L 129.276125 166.811881 
L 131.964472 166.811881 
L 131.964472 166.013465 
L 132.504326 166.013465 
L 132.504326 165.21505 
L 139.840823 165.21505 
L 139.840823 164.416634 
L 142.98946 164.416634 
L 142.98946 163.618218 
L 143.450734 163.618218 
L 143.450734 162.819802 
L 148.610774 162.819802 
L 148.610774 162.021386 
L 153.634657 162.021386 
L 153.634657 161.22297 
L 154.567913 161.22297 
L 154.567913 160.424554 
L 156.365031 160.424554 
L 156.365031 159.626139 
L 157.019659 159.626139 
L 157.019659 158.827723 
L 161.208112 158.827723 
L 161.208112 158.029307 
L 162.988782 158.029307 
L 162.988782 157.230891 
L 163.927134 157.230891 
L 164.011911 155.634059 
L 164.090765 155.634059 
L 164.090765 154.835644 
L 165.47521 154.835644 
L 165.47521 154.037228 
L 169.500122 154.037228 
L 169.500122 153.238812 
L 169.640254 153.238812 
L 169.640254 152.440396 
L 169.769357 152.440396 
L 169.769357 151.64198 
L 170.052771 151.64198 
L 170.052771 150.843564 
L 173.560722 150.843564 
L 173.560722 150.045149 
L 173.856942 150.045149 
L 173.856942 149.246733 
L 174.577011 149.246733 
L 174.577011 148.448317 
L 175.560407 148.448317 
L 175.560407 147.649901 
L 176.434446 147.649901 
L 176.434446 146.851485 
L 177.244357 146.851485 
L 177.274728 145.254653 
L 177.729685 145.254653 
L 177.729685 144.456238 
L 179.15691 144.456238 
L 179.15691 143.657822 
L 180.939679 143.657822 
L 180.939679 142.859406 
L 182.685509 142.859406 
L 182.685509 142.06099 
L 183.534138 142.06099 
L 183.534138 141.262574 
L 188.955034 141.262574 
L 188.955034 140.464158 
L 189.156569 140.464158 
L 189.156569 139.665743 
L 190.464086 139.665743 
L 190.464086 138.867327 
L 190.909447 138.867327 
L 190.909447 138.068911 
L 191.510769 138.068911 
L 191.510769 137.270495 
L 191.880533 137.270495 
L 191.880533 136.472079 
L 192.218615 136.472079 
L 192.218615 135.673663 
L 192.761489 135.673663 
L 192.761489 134.875248 
L 193.024414 134.875248 
L 193.024414 134.076832 
L 193.497247 134.076832 
L 193.497247 133.278416 
L 194.131771 133.278416 
L 194.131771 132.48 
L 194.538578 132.48 
L 194.538578 131.681584 
L 194.735598 131.681584 
L 194.735598 130.883168 
L 196.061754 130.883168 
L 196.061754 130.084752 
L 196.607409 130.084752 
L 196.607409 129.286337 
L 196.965521 129.286337 
L 196.965521 128.487921 
L 197.559596 128.487921 
L 197.559596 127.689505 
L 197.879121 127.689505 
L 197.879121 126.891089 
L 198.140595 126.891089 
L 198.140595 126.092673 
L 198.358283 126.092673 
L 198.358283 125.294257 
L 199.032707 125.294257 
L 199.032707 122.100594 
L 200.186517 122.100594 
L 200.186517 121.302178 
L 200.351979 121.302178 
L 200.351979 120.503762 
L 201.558506 120.503762 
L 201.558506 119.705347 
L 203.80532 119.705347 
L 203.80532 118.906931 
L 204.031629 118.906931 
L 204.031629 118.108515 
L 204.465391 118.108515 
L 204.465391 117.310099 
L 204.778213 117.310099 
L 204.778213 116.511683 
L 205.284894 116.511683 
L 205.284894 115.713267 
L 205.516057 115.713267 
L 205.516057 114.116436 
L 205.755888 114.116436 
L 205.755888 113.31802 
L 206.16285 113.31802 
L 206.16285 112.519604 
L 206.541358 112.519604 
L 206.541358 111.721188 
L 206.742444 111.721188 
L 206.831033 109.325941 
L 206.9912 109.325941 
L 206.9912 108.527525 
L 207.12698 108.527525 
L 207.12698 107.729109 
L 207.86 107.729109 
L 207.86 106.930693 
L 208.20754 106.930693 
L 208.20754 106.132277 
L 208.422791 106.132277 
L 208.422791 105.333861 
L 208.536814 105.333861 
L 208.614089 102.938614 
L 208.871023 102.938614 
L 208.871023 102.140198 
L 209.31294 102.140198 
L 209.376089 99.74495 
L 209.738712 99.74495 
L 209.738712 98.946535 
L 210.491764 98.946535 
L 210.491764 98.148119 
L 211.190266 98.148119 
L 211.190266 97.349703 
L 211.378495 97.349703 
L 211.378495 95.752871 
L 211.498744 95.752871 
L 211.5001 93.357624 
L 211.941241 93.357624 
L 211.995841 91.760792 
L 212.092554 91.760792 
L 212.092554 90.962376 
L 212.521686 90.962376 
L 212.521686 90.16396 
L 213.596884 90.16396 
L 213.596884 89.365545 
L 213.718147 89.365545 
L 213.786799 87.768713 
L 214.119085 87.768713 
L 214.119085 86.970297 
L 214.367513 86.970297 
L 214.461689 85.373465 
L 214.726308 85.373465 
L 214.726308 84.57505 
L 215.165412 84.57505 
L 215.165412 83.776634 
L 215.823034 83.776634 
L 215.823034 82.978218 
L 217.618047 82.978218 
L 217.618047 82.179802 
L 218.587165 82.179802 
L 218.587165 81.381386 
L 219.024418 81.381386 
L 219.121459 79.784554 
L 220.013613 79.784554 
L 220.013613 78.986139 
L 220.200383 78.986139 
L 220.200383 78.187723 
L 220.988351 78.187723 
L 221.04328 74.994059 
L 221.480524 74.994059 
L 221.499029 73.397228 
L 222.799001 73.397228 
L 222.799001 72.598812 
L 224.010898 72.598812 
L 224.116184 71.00198 
L 224.982529 71.00198 
L 225.051982 69.405149 
L 225.217444 69.405149 
L 225.217444 68.606733 
L 225.460413 68.606733 
L 225.460413 67.808317 
L 225.621386 67.808317 
L 225.641328 66.211485 
L 226.074058 66.211485 
L 226.074058 65.413069 
L 226.759979 65.413069 
L 226.759979 64.614653 
L 226.992698 64.614653 
L 227.015007 62.219406 
L 227.353416 62.219406 
L 227.353416 61.42099 
L 228.123241 61.42099 
L 228.123241 60.622574 
L 228.240383 60.622574 
L 228.240383 59.824158 
L 228.461558 59.824158 
L 228.461558 59.025743 
L 229.67386 59.025743 
L 229.67386 58.227327 
L 231.093223 58.227327 
L 231.093223 57.428911 
L 231.841704 57.428911 
L 231.841704 56.630495 
L 232.660421 56.630495 
L 232.660421 55.832079 
L 233.62624 55.832079 
L 233.62624 55.033663 
L 234.925551 55.033663 
L 234.925551 54.235248 
L 235.521992 54.235248 
L 235.521992 53.436832 
L 237.629598 53.436832 
L 237.64672 51.84 
L 237.787837 51.84 
L 237.787837 51.041584 
L 238.549407 51.041584 
L 238.549416 48.646337 
L 238.81365 48.646337 
L 238.81365 47.847921 
L 239.799585 47.847921 
L 239.799585 47.049505 
L 239.930097 47.049505 
L 239.930097 46.251089 
L 240.186692 46.251089 
L 240.186692 45.452673 
L 240.646628 45.452673 
L 240.646628 44.654257 
L 240.922385 44.654257 
L 240.922385 43.855842 
L 241.612074 43.855842 
L 241.612074 43.057426 
L 241.9414 43.057426 
L 241.9414 42.25901 
L 242.261153 42.25901 
L 242.261174 39.863762 
L 242.571933 39.863762 
L 242.571933 39.065347 
L 242.874188 39.065347 
L 242.874188 38.266931 
L 243.168365 38.266931 
L 243.168376 36.670099 
L 243.454923 36.670099 
L 243.454923 35.871683 
L 243.734204 35.871683 
L 243.734218 31.879604 
L 243.892617 31.879604 
L 243.892617 31.081188 
L 244.208367 31.081188 
L 244.208367 30.282772 
L 244.532009 30.282772 
L 244.532009 29.484356 
L 244.785601 29.484356 
L 244.785621 27.089109 
L 245.033509 27.089109 
L 245.033527 25.492277 
L 245.1908 25.492277 
L 245.275967 23.895446 
L 245.513217 23.895446 
L 245.513231 22.298614 
L 245.770109 22.298614 
L 245.770109 21.500198 
L 246.195799 21.500198 
L 246.195799 20.701782 
L 246.414246 20.701782 
L 246.487876 18.306535 
L 246.534054 18.306535 
L 246.534054 17.508119 
L 247.044781 17.508119 
L 247.07469 15.911287 
L 247.329927 15.911287 
L 247.41972 13.51604 
L 247.641227 13.51604 
L 247.681383 11.120792 
L 248.540127 11.120792 
L 248.540127 10.322376 
L 248.745269 10.322376 
L 248.745269 9.52396 
L 249.175774 9.52396 
L 249.175774 8.725545 
L 251.101279 8.725545 
L 251.101279 7.927129 
L 251.380565 7.927129 
L 251.380565 7.128713 
L 254.060605 7.128713 
L 254.060605 6.330297 
L 254.060605 6.330297 
L 460.8 6.330297 
L 460.8 6.330297 
" clip-path="url(#p3a74bd620e)" style="fill: none; stroke: #000000; stroke-width: 1.5; stroke-linecap: square"/>
   </g>
   <g id="patch_3">
    <path d="M 0 293.76 
L 0 3.456 
" style="fill: none; stroke: #000000; stroke-width: 0.8; stroke-linejoin: miter; stroke-linecap: square"/>
   </g>
   <g id="patch_4">
    <path d="M 460.8 293.76 
L 460.8 3.456 
" style="fill: none; stroke: #000000; stroke-width: 0.8; stroke-linejoin: miter; stroke-linecap: square"/>
   </g>
   <g id="patch_5">
    <path d="M 0 293.76 
L 460.8 293.76 
" style="fill: none; stroke: #000000; stroke-width: 0.8; stroke-linejoin: miter; stroke-linecap: square"/>
   </g>
   <g id="patch_6">
    <path d="M 0 3.456 
L 460.8 3.456 
" style="fill: none; stroke: #000000; stroke-width: 0.8; stroke-linejoin: miter; stroke-linecap: square"/>
   </g>
   <g id="text_6">
    <!-- {f1-f24}, 20-D -->
    <g transform="translate(305.884 287.95392) scale(0.2 -0.2)">
     <defs>
      <path id="DejaVuSans-7b" d="M 3272 -594 
L 3272 -1044 
L 3078 -1044 
Q 2300 -1044 2036 -812 
Q 1772 -581 1772 109 
L 1772 856 
Q 1772 1328 1603 1509 
Q 1434 1691 991 1691 
L 800 1691 
L 800 2138 
L 991 2138 
Q 1438 2138 1605 2317 
Q 1772 2497 1772 2963 
L 1772 3713 
Q 1772 4403 2036 4633 
Q 2300 4863 3078 4863 
L 3272 4863 
L 3272 4416 
L 3059 4416 
Q 2619 4416 2484 4278 
Q 2350 4141 2350 3700 
L 2350 2925 
Q 2350 2434 2208 2212 
Q 2066 1991 1722 1913 
Q 2069 1828 2209 1606 
Q 2350 1384 2350 897 
L 2350 122 
Q 2350 -319 2484 -456 
Q 2619 -594 3059 -594 
L 3272 -594 
z
" transform="scale(0.015625)"/>
      <path id="DejaVuSans-32" d="M 1228 531 
L 3431 531 
L 3431 0 
L 469 0 
L 469 531 
Q 828 903 1448 1529 
Q 2069 2156 2228 2338 
Q 2531 2678 2651 2914 
Q 2772 3150 2772 3378 
Q 2772 3750 2511 3984 
Q 2250 4219 1831 4219 
Q 1534 4219 1204 4116 
Q 875 4013 500 3803 
L 500 4441 
Q 881 4594 1212 4672 
Q 1544 4750 1819 4750 
Q 2544 4750 2975 4387 
Q 3406 4025 3406 3419 
Q 3406 3131 3298 2873 
Q 3191 2616 2906 2266 
Q 2828 2175 2409 1742 
Q 1991 1309 1228 531 
z
" transform="scale(0.015625)"/>
      <path id="DejaVuSans-7d" d="M 800 -594 
L 1019 -594 
Q 1456 -594 1589 -459 
Q 1722 -325 1722 122 
L 1722 897 
Q 1722 1384 1862 1606 
Q 2003 1828 2350 1913 
Q 2003 1991 1862 2212 
Q 1722 2434 1722 2925 
L 1722 3700 
Q 1722 4144 1589 4280 
Q 1456 4416 1019 4416 
L 800 4416 
L 800 4863 
L 997 4863 
Q 1775 4863 2036 4633 
Q 2297 4403 2297 3713 
L 2297 2963 
Q 2297 2497 2465 2317 
Q 2634 2138 3078 2138 
L 3272 2138 
L 3272 1691 
L 3078 1691 
Q 2634 1691 2465 1509 
Q 2297 1328 2297 856 
L 2297 109 
Q 2297 -581 2036 -812 
Q 1775 -1044 997 -1044 
L 800 -1044 
L 800 -594 
z
" transform="scale(0.015625)"/>
      <path id="DejaVuSans-2c" d="M 750 794 
L 1409 794 
L 1409 256 
L 897 -744 
L 494 -744 
L 750 256 
L 750 794 
z
" transform="scale(0.015625)"/>
     </defs>
     <use xlink:href="#DejaVuSans-7b"/>
     <use xlink:href="#DejaVuSans-66" x="63.623047"/>
     <use xlink:href="#DejaVuSans-31" x="98.828125"/>
     <use xlink:href="#DejaVuSans-2d" x="162.451172"/>
     <use xlink:href="#DejaVuSans-66" x="198.535156"/>
     <use xlink:href="#DejaVuSans-32" x="233.740234"/>
     <use xlink:href="#DejaVuSans-34" x="297.363281"/>
     <use xlink:href="#DejaVuSans-7d" x="360.986328"/>
     <use xlink:href="#DejaVuSans-2c" x="424.609375"/>
     <use xlink:href="#DejaVuSans-20" x="456.396484"/>
     <use xlink:href="#DejaVuSans-32" x="488.183594"/>
     <use xlink:href="#DejaVuSans-30" x="551.806641"/>
     <use xlink:href="#DejaVuSans-2d" x="615.429688"/>
     <use xlink:href="#DejaVuSans-44" x="651.513672"/>
    </g>
   </g>
   <g id="text_7">
    <!-- v2.6.3 -->
    <g style="fill: #808080" transform="translate(214.71875 288.777272) scale(0.1 -0.1)">
     <defs>
      <path id="DejaVuSans-76" d="M 191 3500 
L 800 3500 
L 1894 563 
L 2988 3500 
L 3597 3500 
L 2284 0 
L 1503 0 
L 191 3500 
z
" transform="scale(0.015625)"/>
      <path id="DejaVuSans-2e" d="M 684 794 
L 1344 794 
L 1344 0 
L 684 0 
L 684 794 
z
" transform="scale(0.015625)"/>
      <path id="DejaVuSans-36" d="M 2113 2584 
Q 1688 2584 1439 2293 
Q 1191 2003 1191 1497 
Q 1191 994 1439 701 
Q 1688 409 2113 409 
Q 2538 409 2786 701 
Q 3034 994 3034 1497 
Q 3034 2003 2786 2293 
Q 2538 2584 2113 2584 
z
M 3366 4563 
L 3366 3988 
Q 3128 4100 2886 4159 
Q 2644 4219 2406 4219 
Q 1781 4219 1451 3797 
Q 1122 3375 1075 2522 
Q 1259 2794 1537 2939 
Q 1816 3084 2150 3084 
Q 2853 3084 3261 2657 
Q 3669 2231 3669 1497 
Q 3669 778 3244 343 
Q 2819 -91 2113 -91 
Q 1303 -91 875 529 
Q 447 1150 447 2328 
Q 447 3434 972 4092 
Q 1497 4750 2381 4750 
Q 2619 4750 2861 4703 
Q 3103 4656 3366 4563 
z
" transform="scale(0.015625)"/>
      <path id="DejaVuSans-33" d="M 2597 2516 
Q 3050 2419 3304 2112 
Q 3559 1806 3559 1356 
Q 3559 666 3084 287 
Q 2609 -91 1734 -91 
Q 1441 -91 1130 -33 
Q 819 25 488 141 
L 488 750 
Q 750 597 1062 519 
Q 1375 441 1716 441 
Q 2309 441 2620 675 
Q 2931 909 2931 1356 
Q 2931 1769 2642 2001 
Q 2353 2234 1838 2234 
L 1294 2234 
L 1294 2753 
L 1863 2753 
Q 2328 2753 2575 2939 
Q 2822 3125 2822 3475 
Q 2822 3834 2567 4026 
Q 2313 4219 1838 4219 
Q 1578 4219 1281 4162 
Q 984 4106 628 3988 
L 628 4550 
Q 988 4650 1302 4700 
Q 1616 4750 1894 4750 
Q 2613 4750 3031 4423 
Q 3450 4097 3450 3541 
Q 3450 3153 3228 2886 
Q 3006 2619 2597 2516 
z
" transform="scale(0.015625)"/>
     </defs>
     <use xlink:href="#DejaVuSans-76"/>
     <use xlink:href="#DejaVuSans-32" x="59.179688"/>
     <use xlink:href="#DejaVuSans-2e" x="122.802734"/>
     <use xlink:href="#DejaVuSans-36" x="154.589844"/>
     <use xlink:href="#DejaVuSans-2e" x="218.212891"/>
     <use xlink:href="#DejaVuSans-33" x="250"/>
    </g>
   </g>
  </g>
 </g>
 <defs>
  <clipPath id="p3a74bd620e">
   <rect x="0" y="3.456" width="460.8" height="290.304"/>
  </clipPath>
 </defs>
</svg>
