<?xml version="1.0" encoding="utf-8" standalone="no"?>
<!DOCTYPE svg PUBLIC "-//W3C//DTD SVG 1.1//EN"
  "http://www.w3.org/Graphics/SVG/1.1/DTD/svg11.dtd">
<svg xmlns:xlink="http://www.w3.org/1999/xlink" width="460.8pt" height="345.6pt" viewBox="0 0 460.8 345.6" xmlns="http://www.w3.org/2000/svg" version="1.1">
 <metadata>
  <rdf:RDF xmlns:dc="http://purl.org/dc/elements/1.1/" xmlns:cc="http://creativecommons.org/ns#" xmlns:rdf="http://www.w3.org/1999/02/22-rdf-syntax-ns#">
   <cc:Work>
    <dc:type rdf:resource="http://purl.org/dc/dcmitype/StillImage"/>
    <dc:date>2024-06-22T00:24:25.750831</dc:date>
    <dc:format>image/svg+xml</dc:format>
    <dc:creator>
     <cc:Agent>
      <dc:title>Matplotlib v3.7.5, https://matplotlib.org/</dc:title>
     </cc:Agent>
    </dc:creator>
   </cc:Work>
  </rdf:RDF>
 </metadata>
 <defs>
  <style type="text/css">*{stroke-linejoin: round; stroke-linecap: butt}</style>
 </defs>
 <g id="figure_1">
  <g id="patch_1">
   <path d="M 0 345.6 
L 460.8 345.6 
L 460.8 0 
L 0 0 
z
" style="fill: #ffffff"/>
  </g>
  <g id="axes_1">
   <g id="patch_2">
    <path d="M 0 293.76 
L 460.8 293.76 
L 460.8 3.456 
L 0 3.456 
z
" style="fill: #ffffff"/>
   </g>
   <g id="matplotlib.axis_1">
    <g id="xtick_1">
     <g id="line2d_1">
      <path d="M 93.564167 293.76 
L 93.564167 3.456 
" clip-path="url(#pd2c11b2254)" style="fill: none; stroke: #b0b0b0; stroke-width: 0.8; stroke-linecap: square"/>
     </g>
     <g id="line2d_2">
      <defs>
       <path id="m8b407ef547" d="M 0 0 
L 0 3.5 
" style="stroke: #000000; stroke-width: 0.8"/>
      </defs>
      <g>
       <use xlink:href="#m8b407ef547" x="93.564167" y="293.76" style="stroke: #000000; stroke-width: 0.8"/>
      </g>
     </g>
     <g id="text_1">
      <!-- -4 -->
      <g transform="translate(83.593854 315.956875) scale(0.2 -0.2)">
       <defs>
        <path id="DejaVuSans-2d" d="M 313 2009 
L 1997 2009 
L 1997 1497 
L 313 1497 
L 313 2009 
z
" transform="scale(0.015625)"/>
        <path id="DejaVuSans-34" d="M 2419 4116 
L 825 1625 
L 2419 1625 
L 2419 4116 
z
M 2253 4666 
L 3047 4666 
L 3047 1625 
L 3713 1625 
L 3713 1100 
L 3047 1100 
L 3047 0 
L 2419 0 
L 2419 1100 
L 313 1100 
L 313 1709 
L 2253 4666 
z
" transform="scale(0.015625)"/>
       </defs>
       <use xlink:href="#DejaVuSans-2d"/>
       <use xlink:href="#DejaVuSans-34" x="36.083984"/>
      </g>
     </g>
    </g>
    <g id="xtick_2">
     <g id="line2d_3">
      <path d="M 187.229525 293.76 
L 187.229525 3.456 
" clip-path="url(#pd2c11b2254)" style="fill: none; stroke: #b0b0b0; stroke-width: 0.8; stroke-linecap: square"/>
     </g>
     <g id="line2d_4">
      <g>
       <use xlink:href="#m8b407ef547" x="187.229525" y="293.76" style="stroke: #000000; stroke-width: 0.8"/>
      </g>
     </g>
     <g id="text_2">
      <!-- 0 -->
      <g transform="translate(180.867025 315.956875) scale(0.2 -0.2)">
       <defs>
        <path id="DejaVuSans-30" d="M 2034 4250 
Q 1547 4250 1301 3770 
Q 1056 3291 1056 2328 
Q 1056 1369 1301 889 
Q 1547 409 2034 409 
Q 2525 409 2770 889 
Q 3016 1369 3016 2328 
Q 3016 3291 2770 3770 
Q 2525 4250 2034 4250 
z
M 2034 4750 
Q 2819 4750 3233 4129 
Q 3647 3509 3647 2328 
Q 3647 1150 3233 529 
Q 2819 -91 2034 -91 
Q 1250 -91 836 529 
Q 422 1150 422 2328 
Q 422 3509 836 4129 
Q 1250 4750 2034 4750 
z
" transform="scale(0.015625)"/>
       </defs>
       <use xlink:href="#DejaVuSans-30"/>
      </g>
     </g>
    </g>
    <g id="xtick_3">
     <g id="line2d_5">
      <path d="M 280.894882 293.76 
L 280.894882 3.456 
" clip-path="url(#pd2c11b2254)" style="fill: none; stroke: #b0b0b0; stroke-width: 0.8; stroke-linecap: square"/>
     </g>
     <g id="line2d_6">
      <g>
       <use xlink:href="#m8b407ef547" x="280.894882" y="293.76" style="stroke: #000000; stroke-width: 0.8"/>
      </g>
     </g>
     <g id="text_3">
      <!-- 4 -->
      <g transform="translate(274.532382 315.956875) scale(0.2 -0.2)">
       <use xlink:href="#DejaVuSans-34"/>
      </g>
     </g>
    </g>
    <g id="xtick_4">
     <g id="line2d_7">
      <path d="M 374.56024 293.76 
L 374.56024 3.456 
" clip-path="url(#pd2c11b2254)" style="fill: none; stroke: #b0b0b0; stroke-width: 0.8; stroke-linecap: square"/>
     </g>
     <g id="line2d_8">
      <g>
       <use xlink:href="#m8b407ef547" x="374.56024" y="293.76" style="stroke: #000000; stroke-width: 0.8"/>
      </g>
     </g>
     <g id="text_4">
      <!-- 8 -->
      <g transform="translate(368.19774 315.956875) scale(0.2 -0.2)">
       <defs>
        <path id="DejaVuSans-38" d="M 2034 2216 
Q 1584 2216 1326 1975 
Q 1069 1734 1069 1313 
Q 1069 891 1326 650 
Q 1584 409 2034 409 
Q 2484 409 2743 651 
Q 3003 894 3003 1313 
Q 3003 1734 2745 1975 
Q 2488 2216 2034 2216 
z
M 1403 2484 
Q 997 2584 770 2862 
Q 544 3141 544 3541 
Q 544 4100 942 4425 
Q 1341 4750 2034 4750 
Q 2731 4750 3128 4425 
Q 3525 4100 3525 3541 
Q 3525 3141 3298 2862 
Q 3072 2584 2669 2484 
Q 3125 2378 3379 2068 
Q 3634 1759 3634 1313 
Q 3634 634 3220 271 
Q 2806 -91 2034 -91 
Q 1263 -91 848 271 
Q 434 634 434 1313 
Q 434 1759 690 2068 
Q 947 2378 1403 2484 
z
M 1172 3481 
Q 1172 3119 1398 2916 
Q 1625 2713 2034 2713 
Q 2441 2713 2670 2916 
Q 2900 3119 2900 3481 
Q 2900 3844 2670 4047 
Q 2441 4250 2034 4250 
Q 1625 4250 1398 4047 
Q 1172 3844 1172 3481 
z
" transform="scale(0.015625)"/>
       </defs>
       <use xlink:href="#DejaVuSans-38"/>
      </g>
     </g>
    </g>
    <g id="text_5">
     <!-- log10 of Df -->
     <g transform="translate(175.214063 339.313125) scale(0.2 -0.2)">
      <defs>
       <path id="DejaVuSans-6c" d="M 603 4863 
L 1178 4863 
L 1178 0 
L 603 0 
L 603 4863 
z
" transform="scale(0.015625)"/>
       <path id="DejaVuSans-6f" d="M 1959 3097 
Q 1497 3097 1228 2736 
Q 959 2375 959 1747 
Q 959 1119 1226 758 
Q 1494 397 1959 397 
Q 2419 397 2687 759 
Q 2956 1122 2956 1747 
Q 2956 2369 2687 2733 
Q 2419 3097 1959 3097 
z
M 1959 3584 
Q 2709 3584 3137 3096 
Q 3566 2609 3566 1747 
Q 3566 888 3137 398 
Q 2709 -91 1959 -91 
Q 1206 -91 779 398 
Q 353 888 353 1747 
Q 353 2609 779 3096 
Q 1206 3584 1959 3584 
z
" transform="scale(0.015625)"/>
       <path id="DejaVuSans-67" d="M 2906 1791 
Q 2906 2416 2648 2759 
Q 2391 3103 1925 3103 
Q 1463 3103 1205 2759 
Q 947 2416 947 1791 
Q 947 1169 1205 825 
Q 1463 481 1925 481 
Q 2391 481 2648 825 
Q 2906 1169 2906 1791 
z
M 3481 434 
Q 3481 -459 3084 -895 
Q 2688 -1331 1869 -1331 
Q 1566 -1331 1297 -1286 
Q 1028 -1241 775 -1147 
L 775 -588 
Q 1028 -725 1275 -790 
Q 1522 -856 1778 -856 
Q 2344 -856 2625 -561 
Q 2906 -266 2906 331 
L 2906 616 
Q 2728 306 2450 153 
Q 2172 0 1784 0 
Q 1141 0 747 490 
Q 353 981 353 1791 
Q 353 2603 747 3093 
Q 1141 3584 1784 3584 
Q 2172 3584 2450 3431 
Q 2728 3278 2906 2969 
L 2906 3500 
L 3481 3500 
L 3481 434 
z
" transform="scale(0.015625)"/>
       <path id="DejaVuSans-31" d="M 794 531 
L 1825 531 
L 1825 4091 
L 703 3866 
L 703 4441 
L 1819 4666 
L 2450 4666 
L 2450 531 
L 3481 531 
L 3481 0 
L 794 0 
L 794 531 
z
" transform="scale(0.015625)"/>
       <path id="DejaVuSans-20" transform="scale(0.015625)"/>
       <path id="DejaVuSans-66" d="M 2375 4863 
L 2375 4384 
L 1825 4384 
Q 1516 4384 1395 4259 
Q 1275 4134 1275 3809 
L 1275 3500 
L 2222 3500 
L 2222 3053 
L 1275 3053 
L 1275 0 
L 697 0 
L 697 3053 
L 147 3053 
L 147 3500 
L 697 3500 
L 697 3744 
Q 697 4328 969 4595 
Q 1241 4863 1831 4863 
L 2375 4863 
z
" transform="scale(0.015625)"/>
       <path id="DejaVuSans-44" d="M 1259 4147 
L 1259 519 
L 2022 519 
Q 2988 519 3436 956 
Q 3884 1394 3884 2338 
Q 3884 3275 3436 3711 
Q 2988 4147 2022 4147 
L 1259 4147 
z
M 628 4666 
L 1925 4666 
Q 3281 4666 3915 4102 
Q 4550 3538 4550 2338 
Q 4550 1131 3912 565 
Q 3275 0 1925 0 
L 628 0 
L 628 4666 
z
" transform="scale(0.015625)"/>
      </defs>
      <use xlink:href="#DejaVuSans-6c"/>
      <use xlink:href="#DejaVuSans-6f" x="27.783203"/>
      <use xlink:href="#DejaVuSans-67" x="88.964844"/>
      <use xlink:href="#DejaVuSans-31" x="152.441406"/>
      <use xlink:href="#DejaVuSans-30" x="216.064453"/>
      <use xlink:href="#DejaVuSans-20" x="279.6875"/>
      <use xlink:href="#DejaVuSans-6f" x="311.474609"/>
      <use xlink:href="#DejaVuSans-66" x="372.65625"/>
      <use xlink:href="#DejaVuSans-20" x="407.861328"/>
      <use xlink:href="#DejaVuSans-44" x="439.648438"/>
      <use xlink:href="#DejaVuSans-66" x="516.650391"/>
     </g>
    </g>
   </g>
   <g id="matplotlib.axis_2">
    <g id="ytick_1">
     <g id="line2d_9">
      <path d="M 0 293.76 
L 460.8 293.76 
" clip-path="url(#pd2c11b2254)" style="fill: none; stroke: #b0b0b0; stroke-width: 0.8; stroke-linecap: square"/>
     </g>
     <g id="line2d_10">
      <defs>
       <path id="mad2406df27" d="M 0 0 
L -3.5 0 
" style="stroke: #000000; stroke-width: 0.8"/>
      </defs>
      <g>
       <use xlink:href="#mad2406df27" x="0" y="293.76" style="stroke: #000000; stroke-width: 0.8"/>
      </g>
     </g>
    </g>
    <g id="ytick_2">
     <g id="line2d_11">
      <path d="M 0 236.274059 
L 460.8 236.274059 
" clip-path="url(#pd2c11b2254)" style="fill: none; stroke: #b0b0b0; stroke-width: 0.8; stroke-linecap: square"/>
     </g>
     <g id="line2d_12">
      <g>
       <use xlink:href="#mad2406df27" x="0" y="236.274059" style="stroke: #000000; stroke-width: 0.8"/>
      </g>
     </g>
    </g>
    <g id="ytick_3">
     <g id="line2d_13">
      <path d="M 0 178.788119 
L 460.8 178.788119 
" clip-path="url(#pd2c11b2254)" style="fill: none; stroke: #b0b0b0; stroke-width: 0.8; stroke-linecap: square"/>
     </g>
     <g id="line2d_14">
      <g>
       <use xlink:href="#mad2406df27" x="0" y="178.788119" style="stroke: #000000; stroke-width: 0.8"/>
      </g>
     </g>
    </g>
    <g id="ytick_4">
     <g id="line2d_15">
      <path d="M 0 121.302178 
L 460.8 121.302178 
" clip-path="url(#pd2c11b2254)" style="fill: none; stroke: #b0b0b0; stroke-width: 0.8; stroke-linecap: square"/>
     </g>
     <g id="line2d_16">
      <g>
       <use xlink:href="#mad2406df27" x="0" y="121.302178" style="stroke: #000000; stroke-width: 0.8"/>
      </g>
     </g>
    </g>
    <g id="ytick_5">
     <g id="line2d_17">
      <path d="M 0 63.816238 
L 460.8 63.816238 
" clip-path="url(#pd2c11b2254)" style="fill: none; stroke: #b0b0b0; stroke-width: 0.8; stroke-linecap: square"/>
     </g>
     <g id="line2d_18">
      <g>
       <use xlink:href="#mad2406df27" x="0" y="63.816238" style="stroke: #000000; stroke-width: 0.8"/>
      </g>
     </g>
    </g>
    <g id="ytick_6">
     <g id="line2d_19">
      <path d="M 0 6.330297 
L 460.8 6.330297 
" clip-path="url(#pd2c11b2254)" style="fill: none; stroke: #b0b0b0; stroke-width: 0.8; stroke-linecap: square"/>
     </g>
     <g id="line2d_20">
      <g>
       <use xlink:href="#mad2406df27" x="0" y="6.330297" style="stroke: #000000; stroke-width: 0.8"/>
      </g>
     </g>
    </g>
   </g>
   <g id="line2d_21">
    <path d="M 66.7861 293.76 
L 66.7861 289.927604 
L 88.731637 289.927604 
L 88.731637 286.095208 
L 88.866493 286.095208 
L 88.866493 282.262812 
L 89.473987 282.262812 
L 89.473987 278.430416 
L 90.388887 278.430416 
L 90.388887 274.59802 
L 91.265502 274.59802 
L 91.265502 270.765624 
L 92.357203 270.765624 
L 92.357203 266.933228 
L 95.038148 266.933228 
L 95.038148 263.100832 
L 97.456289 263.100832 
L 97.456289 259.268436 
L 97.960622 259.268436 
L 97.960622 255.43604 
L 99.325654 255.43604 
L 99.325654 251.603644 
L 99.526018 251.603644 
L 99.526018 247.771248 
L 101.258425 247.771248 
L 101.258425 243.938851 
L 103.803771 243.938851 
L 103.803771 240.106455 
L 107.063499 240.106455 
L 107.063499 236.274059 
L 115.074218 236.274059 
L 115.074218 232.441663 
L 142.052181 232.441663 
L 142.052181 228.609267 
L 144.658768 228.609267 
L 144.658768 224.776871 
L 147.777648 224.776871 
L 147.777648 220.944475 
L 149.864265 220.944475 
L 149.864265 217.112079 
L 163.148463 217.112079 
L 163.148463 213.279683 
L 166.484167 213.279683 
L 166.484167 209.447287 
L 172.105296 209.447287 
L 172.105296 205.614891 
L 178.575835 205.614891 
L 178.575835 201.782495 
L 185.198738 201.782495 
L 185.198738 197.950099 
L 187.788926 197.950099 
L 187.788926 194.117703 
L 189.729649 194.117703 
L 189.729649 190.285307 
L 193.531263 190.285307 
L 193.531263 186.452911 
L 196.839955 186.452911 
L 196.839955 182.620515 
L 199.148207 182.620515 
L 199.148207 178.788119 
L 201.87009 178.788119 
L 201.87009 174.955723 
L 205.631077 174.955723 
L 205.631077 171.123327 
L 207.029436 171.123327 
L 207.029436 167.290931 
L 208.589418 167.290931 
L 208.589418 163.458535 
L 210.42883 163.458535 
L 210.42883 159.626139 
L 212.359444 159.626139 
L 212.359444 155.793743 
L 212.821524 155.793743 
L 212.821524 151.961347 
L 212.937547 151.961347 
L 212.937547 148.12895 
L 213.460822 148.12895 
L 213.460822 144.296554 
L 215.514055 144.296554 
L 215.514055 140.464158 
L 216.309026 140.464158 
L 216.309026 136.631762 
L 216.968386 136.631762 
L 216.968386 132.799366 
L 218.899168 132.799366 
L 218.899168 128.96697 
L 219.227044 128.96697 
L 219.227044 125.134574 
L 219.519875 125.134574 
L 219.519875 121.302178 
L 220.590875 121.302178 
L 220.590875 117.469782 
L 220.808096 117.469782 
L 220.808096 113.637386 
L 221.406381 113.637386 
L 221.406381 109.80499 
L 222.349417 109.80499 
L 222.349417 105.972594 
L 225.672612 105.972594 
L 225.672612 102.140198 
L 226.03237 102.140198 
L 226.03237 98.307802 
L 228.229674 98.307802 
L 228.229674 94.475406 
L 229.058347 94.475406 
L 229.058347 90.64301 
L 229.293681 90.64301 
L 229.293681 86.810614 
L 229.476137 86.810614 
L 229.476137 82.978218 
L 230.156108 82.978218 
L 230.156108 79.145822 
L 231.844324 79.145822 
L 231.844324 75.313426 
L 232.384771 75.313426 
L 232.384771 71.48103 
L 233.201238 71.48103 
L 233.201238 67.648634 
L 234.612829 67.648634 
L 234.612829 63.816238 
L 235.015701 63.816238 
L 235.075058 56.151446 
L 235.536761 56.151446 
L 235.536761 52.31905 
L 242.395825 52.31905 
L 242.395825 48.486653 
L 242.955595 48.486653 
L 242.955595 44.654257 
L 245.239019 44.654257 
L 245.239019 40.821861 
L 249.200048 40.821861 
L 249.200048 36.989465 
L 250.634387 36.989465 
L 250.634387 33.157069 
L 254.442028 33.157069 
L 254.442028 29.324673 
L 255.63922 29.324673 
L 255.63922 25.492277 
L 256.641739 25.492277 
L 256.641739 21.659881 
L 258.804943 21.659881 
L 258.804943 17.827485 
L 261.360356 17.827485 
L 261.360356 13.995089 
L 266.699654 13.995089 
L 266.699654 10.162693 
L 280.724102 10.162693 
L 280.724102 6.330297 
L 280.724102 6.330297 
L 460.8 6.330297 
L 460.8 6.330297 
" clip-path="url(#pd2c11b2254)" style="fill: none; stroke: #ff0000; stroke-width: 3; stroke-linecap: square"/>
   </g>
   <g id="line2d_22">
    <path d="M 201.148964 293.76 
L 201.148964 289.927604 
L 211.323279 289.927604 
L 211.323279 286.095208 
L 211.87346 286.095208 
L 211.87346 282.262812 
L 216.262139 282.262812 
L 216.262139 278.430416 
L 216.540593 278.430416 
L 216.540593 274.59802 
L 221.637479 274.59802 
L 221.637479 270.765624 
L 222.187756 270.765624 
L 222.187756 266.933228 
L 223.486644 266.933228 
L 223.486644 263.100832 
L 225.092611 263.100832 
L 225.092611 259.268436 
L 228.204934 259.268436 
L 228.204934 255.43604 
L 230.231261 255.43604 
L 230.231261 251.603644 
L 230.685558 251.603644 
L 230.685558 247.771248 
L 231.984389 247.771248 
L 231.984389 243.938851 
L 234.758863 243.938851 
L 234.758863 240.106455 
L 241.730557 240.106455 
L 241.730557 236.274059 
L 252.156775 236.274059 
L 252.156775 232.441663 
L 253.480596 232.441663 
L 253.480596 228.609267 
L 253.997495 228.609267 
L 253.997495 224.776871 
L 255.082224 224.776871 
L 255.082224 220.944475 
L 257.160804 220.944475 
L 257.239994 213.279683 
L 258.094983 213.279683 
L 258.142535 205.614891 
L 259.848384 205.614891 
L 259.848384 201.782495 
L 260.539432 201.782495 
L 260.539432 197.950099 
L 261.826427 197.950099 
L 261.826427 194.117703 
L 262.115382 194.117703 
L 262.115382 190.285307 
L 263.001954 190.285307 
L 263.001954 186.452911 
L 263.629304 186.452911 
L 263.629304 182.620515 
L 263.859681 182.620515 
L 263.859681 178.788119 
L 285.372598 178.788119 
L 285.39082 171.123327 
L 294.165616 171.123327 
L 294.165616 167.290931 
L 302.62999 167.290931 
L 302.62999 163.458535 
L 304.659434 163.458535 
L 304.659434 159.626139 
L 305.449766 159.626139 
L 305.449766 155.793743 
L 305.842632 155.793743 
L 305.842632 151.961347 
L 320.382018 151.961347 
L 320.382018 148.12895 
L 320.846807 148.12895 
L 320.846807 144.296554 
L 321.603567 144.296554 
L 321.603567 140.464158 
L 328.307357 140.464158 
L 328.307357 136.631762 
L 333.244833 136.631762 
L 333.244833 132.799366 
L 333.495938 132.799366 
L 333.495938 128.96697 
L 334.344783 128.96697 
L 334.344783 125.134574 
L 336.886201 125.134574 
L 336.886201 121.302178 
L 338.325087 121.302178 
L 338.325087 117.469782 
L 338.768166 117.469782 
L 338.768166 113.637386 
L 341.970783 113.637386 
L 341.970783 109.80499 
L 345.0408 109.80499 
L 345.0408 105.972594 
L 346.357483 105.972594 
L 346.357483 102.140198 
L 349.309495 102.140198 
L 349.383001 94.475406 
L 349.721298 94.475406 
L 349.721298 90.64301 
L 350.00471 90.64301 
L 350.00471 86.810614 
L 350.668001 86.810614 
L 350.747845 79.145822 
L 353.133403 79.145822 
L 353.133403 75.313426 
L 354.098577 75.313426 
L 354.098577 71.48103 
L 355.326736 71.48103 
L 355.326736 67.648634 
L 356.377504 67.648634 
L 356.377504 63.816238 
L 356.530377 63.816238 
L 356.530377 59.983842 
L 357.938211 59.983842 
L 357.938211 56.151446 
L 362.844944 56.151446 
L 362.844944 52.31905 
L 366.113919 52.31905 
L 366.113919 48.486653 
L 367.528251 48.486653 
L 367.528251 44.654257 
L 368.027519 44.654257 
L 368.027519 40.821861 
L 372.650598 40.821861 
L 372.650598 36.989465 
L 374.478617 36.989465 
L 374.478617 33.157069 
L 374.667947 33.157069 
L 374.707646 25.492277 
L 375.100263 25.492277 
L 375.100263 21.659881 
L 384.041035 21.659881 
L 384.041035 17.827485 
L 387.135012 17.827485 
L 387.135012 13.995089 
L 401.282351 13.995089 
L 401.282351 10.162693 
L 432.66779 10.162693 
L 432.66779 6.330297 
L 432.66779 6.330297 
L 460.8 6.330297 
L 460.8 6.330297 
" clip-path="url(#pd2c11b2254)" style="fill: none; stroke: #00bfbf; stroke-width: 1.5; stroke-linecap: square"/>
   </g>
   <g id="line2d_23">
    <path d="M 201.148964 293.76 
L 201.148964 289.927604 
L 210.8079 289.927604 
L 210.8079 286.095208 
L 211.323279 286.095208 
L 211.323279 282.262812 
L 211.87346 282.262812 
L 211.87346 278.430416 
L 215.017952 278.430416 
L 215.017952 274.59802 
L 216.121298 274.59802 
L 216.121298 270.765624 
L 216.540593 270.765624 
L 216.540593 266.933228 
L 218.505498 266.933228 
L 218.505498 263.100832 
L 219.895646 263.100832 
L 219.895646 259.268436 
L 221.637479 259.268436 
L 221.637479 255.43604 
L 222.236055 255.43604 
L 222.236055 251.603644 
L 222.562408 251.603644 
L 222.562408 247.771248 
L 224.04149 247.771248 
L 224.131943 240.106455 
L 230.685558 240.106455 
L 230.685558 236.274059 
L 252.156775 236.274059 
L 252.156775 232.441663 
L 252.396912 232.441663 
L 252.396912 228.609267 
L 252.623533 228.609267 
L 252.623533 224.776871 
L 253.480596 224.776871 
L 253.480596 220.944475 
L 253.997495 220.944475 
L 253.997495 217.112079 
L 255.082224 217.112079 
L 255.161345 209.447287 
L 255.356152 209.447287 
L 255.356152 205.614891 
L 257.160804 205.614891 
L 257.239994 194.117703 
L 257.369844 194.117703 
L 257.369844 190.285307 
L 260.902734 190.285307 
L 260.902734 186.452911 
L 261.607309 186.452911 
L 261.607309 182.620515 
L 262.065401 182.620515 
L 262.065401 178.788119 
L 285.372598 178.788119 
L 285.39082 171.123327 
L 294.165616 171.123327 
L 294.165616 167.290931 
L 295.229434 167.290931 
L 295.29198 159.626139 
L 295.626446 159.626139 
L 295.626446 155.793743 
L 296.12366 155.793743 
L 296.12366 151.961347 
L 301.610199 151.961347 
L 301.610199 148.12895 
L 302.62999 148.12895 
L 302.62999 144.296554 
L 305.449766 144.296554 
L 305.449766 140.464158 
L 305.842632 140.464158 
L 305.842632 136.631762 
L 310.238555 136.631762 
L 310.238555 132.799366 
L 310.625225 132.799366 
L 310.625225 128.96697 
L 312.34435 128.96697 
L 312.34435 125.134574 
L 313.02811 125.134574 
L 313.02811 121.302178 
L 314.984198 121.302178 
L 314.984198 117.469782 
L 319.251535 117.469782 
L 319.251535 113.637386 
L 320.382018 113.637386 
L 320.382018 109.80499 
L 321.83863 109.80499 
L 321.83863 105.972594 
L 322.537565 105.972594 
L 322.537565 102.140198 
L 327.832419 102.140198 
L 327.832419 98.307802 
L 328.307357 98.307802 
L 328.307357 94.475406 
L 331.425765 94.475406 
L 331.425765 90.64301 
L 332.361459 90.64301 
L 332.361459 86.810614 
L 333.495938 86.810614 
L 333.495938 82.978218 
L 335.223488 82.978218 
L 335.223488 79.145822 
L 336.26389 79.145822 
L 336.26389 75.313426 
L 339.722873 75.313426 
L 339.722873 71.48103 
L 345.0408 71.48103 
L 345.0408 67.648634 
L 346.357483 67.648634 
L 346.357483 63.816238 
L 349.721298 63.816238 
L 349.721298 59.983842 
L 349.927851 59.983842 
L 349.927851 56.151446 
L 350.117682 56.151446 
L 350.117682 52.31905 
L 350.643357 52.31905 
L 350.643357 48.486653 
L 356.530377 48.486653 
L 356.530377 44.654257 
L 357.922792 44.654257 
L 357.938211 36.989465 
L 359.394993 36.989465 
L 359.414977 29.324673 
L 359.653567 29.324673 
L 359.653567 25.492277 
L 360.841197 25.492277 
L 360.841197 21.659881 
L 368.027519 21.659881 
L 368.027519 17.827485 
L 370.338498 17.827485 
L 370.338498 13.995089 
L 371.069934 13.995089 
L 371.069934 10.162693 
L 374.707646 10.162693 
L 374.707646 6.330297 
L 374.707646 6.330297 
L 460.8 6.330297 
L 460.8 6.330297 
" clip-path="url(#pd2c11b2254)" style="fill: none; stroke: #bf00bf; stroke-width: 1.5; stroke-linecap: square"/>
   </g>
   <g id="line2d_24">
    <path d="M 192.785918 293.76 
L 192.785918 289.927604 
L 201.148964 289.927604 
L 201.148964 286.095208 
L 201.788704 286.095208 
L 201.788704 282.262812 
L 202.460583 282.262812 
L 202.460583 278.430416 
L 208.914113 278.430416 
L 208.952862 270.765624 
L 209.641356 270.765624 
L 209.641356 266.933228 
L 210.511618 266.933228 
L 210.511618 263.100832 
L 211.279782 263.100832 
L 211.323279 255.43604 
L 213.752221 255.43604 
L 213.752221 251.603644 
L 216.540593 251.603644 
L 216.540593 247.771248 
L 218.710164 247.771248 
L 218.710164 243.938851 
L 221.418476 243.938851 
L 221.418476 240.106455 
L 222.562408 240.106455 
L 222.562408 236.274059 
L 252.156775 236.274059 
L 252.156775 232.441663 
L 252.396912 232.441663 
L 252.396912 228.609267 
L 252.623533 228.609267 
L 252.623533 224.776871 
L 252.895612 224.776871 
L 252.895612 220.944475 
L 253.038311 220.944475 
L 253.046795 213.279683 
L 253.480596 213.279683 
L 253.480596 209.447287 
L 253.997495 209.447287 
L 253.997495 205.614891 
L 254.189759 205.614891 
L 254.189759 201.782495 
L 254.406848 201.782495 
L 254.406848 197.950099 
L 254.603125 197.950099 
L 254.603125 194.117703 
L 255.082224 194.117703 
L 255.082224 190.285307 
L 255.407868 190.285307 
L 255.407868 186.452911 
L 256.273575 186.452911 
L 256.273575 182.620515 
L 257.079203 182.620515 
L 257.079203 178.788119 
L 259.408507 178.788119 
L 259.408507 174.955723 
L 279.224265 174.955723 
L 279.224265 171.123327 
L 282.970312 171.123327 
L 282.970312 167.290931 
L 283.954828 167.290931 
L 283.954828 163.458535 
L 284.292207 163.458535 
L 284.292207 159.626139 
L 284.928476 159.626139 
L 284.928476 155.793743 
L 285.372598 155.793743 
L 285.39082 148.12895 
L 289.868704 148.12895 
L 289.868704 144.296554 
L 294.165616 144.296554 
L 294.165616 140.464158 
L 295.29198 140.464158 
L 295.29198 136.631762 
L 295.626446 136.631762 
L 295.626446 132.799366 
L 301.610199 132.799366 
L 301.610199 128.96697 
L 302.62999 128.96697 
L 302.62999 125.134574 
L 305.449766 125.134574 
L 305.449766 121.302178 
L 305.842632 121.302178 
L 305.842632 117.469782 
L 310.625225 117.469782 
L 310.625225 113.637386 
L 312.34435 113.637386 
L 312.34435 109.80499 
L 313.02811 109.80499 
L 313.02811 105.972594 
L 313.193342 105.972594 
L 313.193342 102.140198 
L 314.984198 102.140198 
L 314.984198 98.307802 
L 316.523002 98.307802 
L 316.523002 94.475406 
L 319.251535 94.475406 
L 319.251535 90.64301 
L 320.382018 90.64301 
L 320.382018 86.810614 
L 321.210133 86.810614 
L 321.210133 82.978218 
L 321.83863 82.978218 
L 321.83863 79.145822 
L 322.391477 79.145822 
L 322.391477 75.313426 
L 328.52893 75.313426 
L 328.52893 71.48103 
L 331.425765 71.48103 
L 331.425765 67.648634 
L 341.360362 67.648634 
L 341.360362 63.816238 
L 345.009739 63.816238 
L 345.0408 56.151446 
L 349.276761 56.151446 
L 349.276761 52.31905 
L 349.721298 52.31905 
L 349.721298 48.486653 
L 349.927851 48.486653 
L 349.927851 44.654257 
L 350.117682 44.654257 
L 350.117682 40.821861 
L 350.253122 40.821861 
L 350.253122 36.989465 
L 356.305788 36.989465 
L 356.372339 29.324673 
L 356.530377 29.324673 
L 356.530377 25.492277 
L 358.629375 25.492277 
L 358.629375 21.659881 
L 359.653567 21.659881 
L 359.653567 17.827485 
L 360.515509 17.827485 
L 360.515509 13.995089 
L 369.135972 13.995089 
L 369.135972 10.162693 
L 370.338498 10.162693 
L 370.338498 6.330297 
L 370.338498 6.330297 
L 460.8 6.330297 
L 460.8 6.330297 
" clip-path="url(#pd2c11b2254)" style="fill: none; stroke: #000000; stroke-width: 1.5; stroke-linecap: square"/>
   </g>
   <g id="line2d_25">
    <path d="M 190.196691 293.76 
L 190.196691 289.927604 
L 191.299589 289.927604 
L 191.299589 286.095208 
L 194.697679 286.095208 
L 194.697679 282.262812 
L 195.10219 282.262812 
L 195.10219 278.430416 
L 196.107236 278.430416 
L 196.107236 274.59802 
L 196.476968 274.59802 
L 196.476968 270.765624 
L 198.510139 270.765624 
L 198.510139 266.933228 
L 198.703869 266.933228 
L 198.703869 263.100832 
L 201.148964 263.100832 
L 201.148964 259.268436 
L 201.394451 259.268436 
L 201.394451 255.43604 
L 201.788704 255.43604 
L 201.788704 251.603644 
L 205.141016 251.603644 
L 205.141016 247.771248 
L 205.746346 247.771248 
L 205.746346 243.938851 
L 206.568027 243.938851 
L 206.568027 240.106455 
L 207.45543 240.106455 
L 207.45543 236.274059 
L 239.884097 236.274059 
L 239.884097 232.441663 
L 243.436745 232.441663 
L 243.436745 228.609267 
L 244.477584 228.609267 
L 244.477584 224.776871 
L 244.924017 224.776871 
L 244.924017 220.944475 
L 245.146896 220.944475 
L 245.146896 217.112079 
L 246.005559 217.112079 
L 246.005559 213.279683 
L 246.19308 213.279683 
L 246.19308 209.447287 
L 246.592219 209.447287 
L 246.592219 205.614891 
L 247.000523 205.614891 
L 247.000523 201.782495 
L 247.291142 201.782495 
L 247.291142 197.950099 
L 248.608119 197.950099 
L 248.608119 194.117703 
L 249.306 194.117703 
L 249.306 190.285307 
L 250.266819 190.285307 
L 250.266819 186.452911 
L 250.969599 186.452911 
L 250.969599 182.620515 
L 251.484185 182.620515 
L 251.589242 174.955723 
L 252.396912 174.955723 
L 252.396912 171.123327 
L 254.584155 171.123327 
L 254.584155 167.290931 
L 256.002266 167.290931 
L 256.092616 159.626139 
L 257.785562 159.626139 
L 257.785562 155.793743 
L 264.419826 155.793743 
L 264.419826 151.961347 
L 269.503135 151.961347 
L 269.503135 148.12895 
L 269.775774 148.12895 
L 269.775774 144.296554 
L 270.813667 144.296554 
L 270.813667 140.464158 
L 272.135673 140.464158 
L 272.135673 136.631762 
L 284.292207 136.631762 
L 284.292207 132.799366 
L 285.39082 132.799366 
L 285.39082 128.96697 
L 290.641866 128.96697 
L 290.641866 125.134574 
L 291.791894 125.134574 
L 291.791894 121.302178 
L 294.279311 121.302178 
L 294.279311 117.469782 
L 298.469495 117.469782 
L 298.469495 113.637386 
L 298.948206 113.637386 
L 298.948206 109.80499 
L 299.247094 109.80499 
L 299.247094 105.972594 
L 300.138144 105.972594 
L 300.138144 102.140198 
L 305.842632 102.140198 
L 305.842632 98.307802 
L 306.472733 98.307802 
L 306.472733 94.475406 
L 308.111147 94.475406 
L 308.111147 90.64301 
L 309.233484 90.64301 
L 309.233484 86.810614 
L 311.198228 86.810614 
L 311.198228 82.978218 
L 311.664165 82.978218 
L 311.664165 79.145822 
L 312.34435 79.145822 
L 312.34435 75.313426 
L 312.966403 75.313426 
L 312.966403 71.48103 
L 314.125086 71.48103 
L 314.125086 67.648634 
L 315.68918 67.648634 
L 315.68918 63.816238 
L 321.210133 63.816238 
L 321.210133 59.983842 
L 327.696639 59.983842 
L 327.696639 56.151446 
L 327.887021 56.151446 
L 327.887021 52.31905 
L 330.29845 52.31905 
L 330.29845 48.486653 
L 331.208612 48.486653 
L 331.208612 44.654257 
L 335.153523 44.654257 
L 335.153523 40.821861 
L 335.496958 40.821861 
L 335.496958 36.989465 
L 335.855423 36.989465 
L 335.855423 33.157069 
L 337.508005 33.157069 
L 337.508005 29.324673 
L 338.015127 29.324673 
L 338.015127 25.492277 
L 341.957598 25.492277 
L 341.957598 21.659881 
L 348.204998 21.659881 
L 348.204998 17.827485 
L 350.780562 17.827485 
L 350.780562 13.995089 
L 356.530377 13.995089 
L 356.530377 10.162693 
L 357.283564 10.162693 
L 357.283564 6.330297 
L 357.283564 6.330297 
L 460.8 6.330297 
L 460.8 6.330297 
" clip-path="url(#pd2c11b2254)" style="fill: none; stroke: #00bfbf; stroke-width: 1.5; stroke-linecap: square"/>
   </g>
   <g id="line2d_26">
    <path d="M 143.380757 293.76 
L 143.380757 289.927604 
L 146.51719 289.927604 
L 146.51719 286.095208 
L 148.174697 286.095208 
L 148.174697 282.262812 
L 149.056619 282.262812 
L 149.056619 278.430416 
L 149.642912 278.430416 
L 149.642912 274.59802 
L 152.751388 274.59802 
L 152.751388 270.765624 
L 152.994949 270.765624 
L 152.994949 266.933228 
L 154.826791 266.933228 
L 154.826791 263.100832 
L 157.727848 263.100832 
L 157.727848 259.268436 
L 166.437425 259.268436 
L 166.437425 255.43604 
L 169.86852 255.43604 
L 169.86852 251.603644 
L 173.073677 251.603644 
L 173.073677 247.771248 
L 177.758545 247.771248 
L 177.758545 243.938851 
L 178.206112 243.938851 
L 178.206112 240.106455 
L 180.051986 240.106455 
L 180.051986 236.274059 
L 183.566461 236.274059 
L 183.566461 232.441663 
L 183.935582 232.441663 
L 183.935582 228.609267 
L 206.094665 228.609267 
L 206.094665 224.776871 
L 212.896986 224.776871 
L 212.896986 220.944475 
L 215.842552 220.944475 
L 215.842552 217.112079 
L 215.963171 217.112079 
L 215.963171 213.279683 
L 217.356539 213.279683 
L 217.356539 209.447287 
L 218.079815 209.447287 
L 218.079815 205.614891 
L 222.966409 205.614891 
L 222.966409 201.782495 
L 223.665512 201.782495 
L 223.665512 197.950099 
L 225.791991 197.950099 
L 225.791991 194.117703 
L 225.935069 194.117703 
L 225.935069 190.285307 
L 226.337277 190.285307 
L 226.337277 186.452911 
L 227.478252 186.452911 
L 227.478252 182.620515 
L 229.154988 182.620515 
L 229.225069 174.955723 
L 229.430676 174.955723 
L 229.430676 171.123327 
L 230.629381 171.123327 
L 230.629381 167.290931 
L 230.751965 167.290931 
L 230.751965 163.458535 
L 231.273519 163.458535 
L 231.273519 159.626139 
L 232.027005 159.626139 
L 232.027005 155.793743 
L 232.980862 155.793743 
L 232.980862 151.961347 
L 233.263327 151.961347 
L 233.263327 148.12895 
L 233.855644 148.12895 
L 233.855644 144.296554 
L 235.164536 144.296554 
L 235.16746 136.631762 
L 235.80243 136.631762 
L 235.80243 132.799366 
L 236.006025 132.799366 
L 236.006025 128.96697 
L 237.87059 128.96697 
L 237.87059 125.134574 
L 243.633646 125.134574 
L 243.633646 121.302178 
L 244.869884 121.302178 
L 244.869884 117.469782 
L 245.722602 117.469782 
L 245.722602 113.637386 
L 246.26371 113.637386 
L 246.26371 109.80499 
L 247.298506 109.80499 
L 247.298506 105.972594 
L 247.641155 105.972594 
L 247.641155 102.140198 
L 250.85579 102.140198 
L 250.85579 98.307802 
L 257.756205 98.307802 
L 257.756205 94.475406 
L 260.34946 94.475406 
L 260.34946 90.64301 
L 263.230289 90.64301 
L 263.230289 86.810614 
L 265.206877 86.810614 
L 265.206877 82.978218 
L 268.67984 82.978218 
L 268.67984 79.145822 
L 269.254726 79.145822 
L 269.254726 75.313426 
L 269.378877 75.313426 
L 269.378877 71.48103 
L 272.732099 71.48103 
L 272.732099 67.648634 
L 275.135079 67.648634 
L 275.135079 63.816238 
L 275.727836 63.816238 
L 275.727836 59.983842 
L 276.881439 59.983842 
L 276.881439 56.151446 
L 278.395538 56.151446 
L 278.395538 52.31905 
L 279.882399 52.31905 
L 279.882399 48.486653 
L 280.969079 48.486653 
L 280.969079 44.654257 
L 286.017763 44.654257 
L 286.017763 40.821861 
L 288.953075 40.821861 
L 288.953075 36.989465 
L 293.71533 36.989465 
L 293.71533 33.157069 
L 295.824111 33.157069 
L 295.824111 29.324673 
L 299.143415 29.324673 
L 299.143415 25.492277 
L 299.696029 25.492277 
L 299.696029 21.659881 
L 301.628145 21.659881 
L 301.685795 13.995089 
L 305.482705 13.995089 
L 305.482705 10.162693 
L 310.862706 10.162693 
L 310.862706 6.330297 
L 310.862706 6.330297 
L 460.8 6.330297 
L 460.8 6.330297 
" clip-path="url(#pd2c11b2254)" style="fill: none; stroke: #bf00bf; stroke-width: 1.5; stroke-linecap: square"/>
   </g>
   <g id="line2d_27">
    <path d="M 66.7861 293.76 
L 66.7861 289.927604 
L 88.731637 289.927604 
L 88.731637 286.095208 
L 88.866493 286.095208 
L 88.866493 282.262812 
L 89.473987 282.262812 
L 89.473987 278.430416 
L 90.388887 278.430416 
L 90.388887 274.59802 
L 91.265502 274.59802 
L 91.265502 270.765624 
L 92.357203 270.765624 
L 92.357203 266.933228 
L 95.038148 266.933228 
L 95.038148 263.100832 
L 97.456289 263.100832 
L 97.456289 259.268436 
L 97.960622 259.268436 
L 97.960622 255.43604 
L 99.325654 255.43604 
L 99.325654 251.603644 
L 99.526018 251.603644 
L 99.526018 247.771248 
L 101.258425 247.771248 
L 101.258425 243.938851 
L 103.803771 243.938851 
L 103.803771 240.106455 
L 107.063499 240.106455 
L 107.063499 236.274059 
L 115.074218 236.274059 
L 115.074218 232.441663 
L 142.052181 232.441663 
L 142.052181 228.609267 
L 144.658768 228.609267 
L 144.658768 224.776871 
L 147.777648 224.776871 
L 147.777648 220.944475 
L 149.864265 220.944475 
L 149.864265 217.112079 
L 163.148463 217.112079 
L 163.148463 213.279683 
L 166.484167 213.279683 
L 166.484167 209.447287 
L 172.105296 209.447287 
L 172.105296 205.614891 
L 178.575835 205.614891 
L 178.575835 201.782495 
L 185.198738 201.782495 
L 185.198738 197.950099 
L 187.788926 197.950099 
L 187.788926 194.117703 
L 189.729649 194.117703 
L 189.729649 190.285307 
L 193.531263 190.285307 
L 193.531263 186.452911 
L 196.839955 186.452911 
L 196.839955 182.620515 
L 199.148207 182.620515 
L 199.148207 178.788119 
L 201.87009 178.788119 
L 201.87009 174.955723 
L 205.631077 174.955723 
L 205.631077 171.123327 
L 207.029436 171.123327 
L 207.029436 167.290931 
L 208.589418 167.290931 
L 208.589418 163.458535 
L 210.42883 163.458535 
L 210.42883 159.626139 
L 212.359444 159.626139 
L 212.359444 155.793743 
L 212.821524 155.793743 
L 212.821524 151.961347 
L 212.937547 151.961347 
L 212.937547 148.12895 
L 213.460822 148.12895 
L 213.460822 144.296554 
L 215.514055 144.296554 
L 215.514055 140.464158 
L 216.309026 140.464158 
L 216.309026 136.631762 
L 216.968386 136.631762 
L 216.968386 132.799366 
L 218.899168 132.799366 
L 218.899168 128.96697 
L 219.227044 128.96697 
L 219.227044 125.134574 
L 219.519875 125.134574 
L 219.519875 121.302178 
L 220.590875 121.302178 
L 220.590875 117.469782 
L 220.808096 117.469782 
L 220.808096 113.637386 
L 221.406381 113.637386 
L 221.406381 109.80499 
L 222.349417 109.80499 
L 222.349417 105.972594 
L 225.672612 105.972594 
L 225.672612 102.140198 
L 226.03237 102.140198 
L 226.03237 98.307802 
L 228.229674 98.307802 
L 228.229674 94.475406 
L 229.058347 94.475406 
L 229.058347 90.64301 
L 229.293681 90.64301 
L 229.293681 86.810614 
L 229.476137 86.810614 
L 229.476137 82.978218 
L 230.156108 82.978218 
L 230.156108 79.145822 
L 231.844324 79.145822 
L 231.844324 75.313426 
L 232.384771 75.313426 
L 232.384771 71.48103 
L 233.201238 71.48103 
L 233.201238 67.648634 
L 234.612829 67.648634 
L 234.612829 63.816238 
L 235.015701 63.816238 
L 235.075058 56.151446 
L 235.536761 56.151446 
L 235.536761 52.31905 
L 242.395825 52.31905 
L 242.395825 48.486653 
L 242.955595 48.486653 
L 242.955595 44.654257 
L 245.239019 44.654257 
L 245.239019 40.821861 
L 249.200048 40.821861 
L 249.200048 36.989465 
L 250.634387 36.989465 
L 250.634387 33.157069 
L 254.442028 33.157069 
L 254.442028 29.324673 
L 255.63922 29.324673 
L 255.63922 25.492277 
L 256.641739 25.492277 
L 256.641739 21.659881 
L 258.804943 21.659881 
L 258.804943 17.827485 
L 261.360356 17.827485 
L 261.360356 13.995089 
L 266.699654 13.995089 
L 266.699654 10.162693 
L 280.724102 10.162693 
L 280.724102 6.330297 
L 280.724102 6.330297 
L 460.8 6.330297 
L 460.8 6.330297 
" clip-path="url(#pd2c11b2254)" style="fill: none; stroke: #000000; stroke-width: 1.5; stroke-linecap: square"/>
   </g>
   <g id="patch_3">
    <path d="M 0 293.76 
L 0 3.456 
" style="fill: none; stroke: #000000; stroke-width: 0.8; stroke-linejoin: miter; stroke-linecap: square"/>
   </g>
   <g id="patch_4">
    <path d="M 460.8 293.76 
L 460.8 3.456 
" style="fill: none; stroke: #000000; stroke-width: 0.8; stroke-linejoin: miter; stroke-linecap: square"/>
   </g>
   <g id="patch_5">
    <path d="M 0 293.76 
L 460.8 293.76 
" style="fill: none; stroke: #000000; stroke-width: 0.8; stroke-linejoin: miter; stroke-linecap: square"/>
   </g>
   <g id="patch_6">
    <path d="M 0 3.456 
L 460.8 3.456 
" style="fill: none; stroke: #000000; stroke-width: 0.8; stroke-linejoin: miter; stroke-linecap: square"/>
   </g>
   <g id="text_6">
    <!-- {f10-f14}, 5-D -->
    <g transform="translate(305.884 287.95392) scale(0.2 -0.2)">
     <defs>
      <path id="DejaVuSans-7b" d="M 3272 -594 
L 3272 -1044 
L 3078 -1044 
Q 2300 -1044 2036 -812 
Q 1772 -581 1772 109 
L 1772 856 
Q 1772 1328 1603 1509 
Q 1434 1691 991 1691 
L 800 1691 
L 800 2138 
L 991 2138 
Q 1438 2138 1605 2317 
Q 1772 2497 1772 2963 
L 1772 3713 
Q 1772 4403 2036 4633 
Q 2300 4863 3078 4863 
L 3272 4863 
L 3272 4416 
L 3059 4416 
Q 2619 4416 2484 4278 
Q 2350 4141 2350 3700 
L 2350 2925 
Q 2350 2434 2208 2212 
Q 2066 1991 1722 1913 
Q 2069 1828 2209 1606 
Q 2350 1384 2350 897 
L 2350 122 
Q 2350 -319 2484 -456 
Q 2619 -594 3059 -594 
L 3272 -594 
z
" transform="scale(0.015625)"/>
      <path id="DejaVuSans-7d" d="M 800 -594 
L 1019 -594 
Q 1456 -594 1589 -459 
Q 1722 -325 1722 122 
L 1722 897 
Q 1722 1384 1862 1606 
Q 2003 1828 2350 1913 
Q 2003 1991 1862 2212 
Q 1722 2434 1722 2925 
L 1722 3700 
Q 1722 4144 1589 4280 
Q 1456 4416 1019 4416 
L 800 4416 
L 800 4863 
L 997 4863 
Q 1775 4863 2036 4633 
Q 2297 4403 2297 3713 
L 2297 2963 
Q 2297 2497 2465 2317 
Q 2634 2138 3078 2138 
L 3272 2138 
L 3272 1691 
L 3078 1691 
Q 2634 1691 2465 1509 
Q 2297 1328 2297 856 
L 2297 109 
Q 2297 -581 2036 -812 
Q 1775 -1044 997 -1044 
L 800 -1044 
L 800 -594 
z
" transform="scale(0.015625)"/>
      <path id="DejaVuSans-2c" d="M 750 794 
L 1409 794 
L 1409 256 
L 897 -744 
L 494 -744 
L 750 256 
L 750 794 
z
" transform="scale(0.015625)"/>
      <path id="DejaVuSans-35" d="M 691 4666 
L 3169 4666 
L 3169 4134 
L 1269 4134 
L 1269 2991 
Q 1406 3038 1543 3061 
Q 1681 3084 1819 3084 
Q 2600 3084 3056 2656 
Q 3513 2228 3513 1497 
Q 3513 744 3044 326 
Q 2575 -91 1722 -91 
Q 1428 -91 1123 -41 
Q 819 9 494 109 
L 494 744 
Q 775 591 1075 516 
Q 1375 441 1709 441 
Q 2250 441 2565 725 
Q 2881 1009 2881 1497 
Q 2881 1984 2565 2268 
Q 2250 2553 1709 2553 
Q 1456 2553 1204 2497 
Q 953 2441 691 2322 
L 691 4666 
z
" transform="scale(0.015625)"/>
     </defs>
     <use xlink:href="#DejaVuSans-7b"/>
     <use xlink:href="#DejaVuSans-66" x="63.623047"/>
     <use xlink:href="#DejaVuSans-31" x="98.828125"/>
     <use xlink:href="#DejaVuSans-30" x="162.451172"/>
     <use xlink:href="#DejaVuSans-2d" x="226.074219"/>
     <use xlink:href="#DejaVuSans-66" x="262.158203"/>
     <use xlink:href="#DejaVuSans-31" x="297.363281"/>
     <use xlink:href="#DejaVuSans-34" x="360.986328"/>
     <use xlink:href="#DejaVuSans-7d" x="424.609375"/>
     <use xlink:href="#DejaVuSans-2c" x="488.232422"/>
     <use xlink:href="#DejaVuSans-20" x="520.019531"/>
     <use xlink:href="#DejaVuSans-35" x="551.806641"/>
     <use xlink:href="#DejaVuSans-2d" x="615.429688"/>
     <use xlink:href="#DejaVuSans-44" x="651.513672"/>
    </g>
   </g>
   <g id="text_7">
    <!-- v2.6.3 -->
    <g style="fill: #808080" transform="translate(214.71875 288.777272) scale(0.1 -0.1)">
     <defs>
      <path id="DejaVuSans-76" d="M 191 3500 
L 800 3500 
L 1894 563 
L 2988 3500 
L 3597 3500 
L 2284 0 
L 1503 0 
L 191 3500 
z
" transform="scale(0.015625)"/>
      <path id="DejaVuSans-32" d="M 1228 531 
L 3431 531 
L 3431 0 
L 469 0 
L 469 531 
Q 828 903 1448 1529 
Q 2069 2156 2228 2338 
Q 2531 2678 2651 2914 
Q 2772 3150 2772 3378 
Q 2772 3750 2511 3984 
Q 2250 4219 1831 4219 
Q 1534 4219 1204 4116 
Q 875 4013 500 3803 
L 500 4441 
Q 881 4594 1212 4672 
Q 1544 4750 1819 4750 
Q 2544 4750 2975 4387 
Q 3406 4025 3406 3419 
Q 3406 3131 3298 2873 
Q 3191 2616 2906 2266 
Q 2828 2175 2409 1742 
Q 1991 1309 1228 531 
z
" transform="scale(0.015625)"/>
      <path id="DejaVuSans-2e" d="M 684 794 
L 1344 794 
L 1344 0 
L 684 0 
L 684 794 
z
" transform="scale(0.015625)"/>
      <path id="DejaVuSans-36" d="M 2113 2584 
Q 1688 2584 1439 2293 
Q 1191 2003 1191 1497 
Q 1191 994 1439 701 
Q 1688 409 2113 409 
Q 2538 409 2786 701 
Q 3034 994 3034 1497 
Q 3034 2003 2786 2293 
Q 2538 2584 2113 2584 
z
M 3366 4563 
L 3366 3988 
Q 3128 4100 2886 4159 
Q 2644 4219 2406 4219 
Q 1781 4219 1451 3797 
Q 1122 3375 1075 2522 
Q 1259 2794 1537 2939 
Q 1816 3084 2150 3084 
Q 2853 3084 3261 2657 
Q 3669 2231 3669 1497 
Q 3669 778 3244 343 
Q 2819 -91 2113 -91 
Q 1303 -91 875 529 
Q 447 1150 447 2328 
Q 447 3434 972 4092 
Q 1497 4750 2381 4750 
Q 2619 4750 2861 4703 
Q 3103 4656 3366 4563 
z
" transform="scale(0.015625)"/>
      <path id="DejaVuSans-33" d="M 2597 2516 
Q 3050 2419 3304 2112 
Q 3559 1806 3559 1356 
Q 3559 666 3084 287 
Q 2609 -91 1734 -91 
Q 1441 -91 1130 -33 
Q 819 25 488 141 
L 488 750 
Q 750 597 1062 519 
Q 1375 441 1716 441 
Q 2309 441 2620 675 
Q 2931 909 2931 1356 
Q 2931 1769 2642 2001 
Q 2353 2234 1838 2234 
L 1294 2234 
L 1294 2753 
L 1863 2753 
Q 2328 2753 2575 2939 
Q 2822 3125 2822 3475 
Q 2822 3834 2567 4026 
Q 2313 4219 1838 4219 
Q 1578 4219 1281 4162 
Q 984 4106 628 3988 
L 628 4550 
Q 988 4650 1302 4700 
Q 1616 4750 1894 4750 
Q 2613 4750 3031 4423 
Q 3450 4097 3450 3541 
Q 3450 3153 3228 2886 
Q 3006 2619 2597 2516 
z
" transform="scale(0.015625)"/>
     </defs>
     <use xlink:href="#DejaVuSans-76"/>
     <use xlink:href="#DejaVuSans-32" x="59.179688"/>
     <use xlink:href="#DejaVuSans-2e" x="122.802734"/>
     <use xlink:href="#DejaVuSans-36" x="154.589844"/>
     <use xlink:href="#DejaVuSans-2e" x="218.212891"/>
     <use xlink:href="#DejaVuSans-33" x="250"/>
    </g>
   </g>
  </g>
 </g>
 <defs>
  <clipPath id="pd2c11b2254">
   <rect x="0" y="3.456" width="460.8" height="290.304"/>
  </clipPath>
 </defs>
</svg>
