<?xml version="1.0" encoding="utf-8" standalone="no"?>
<!DOCTYPE svg PUBLIC "-//W3C//DTD SVG 1.1//EN"
  "http://www.w3.org/Graphics/SVG/1.1/DTD/svg11.dtd">
<svg xmlns:xlink="http://www.w3.org/1999/xlink" width="460.8pt" height="345.6pt" viewBox="0 0 460.8 345.6" xmlns="http://www.w3.org/2000/svg" version="1.1">
 <metadata>
  <rdf:RDF xmlns:dc="http://purl.org/dc/elements/1.1/" xmlns:cc="http://creativecommons.org/ns#" xmlns:rdf="http://www.w3.org/1999/02/22-rdf-syntax-ns#">
   <cc:Work>
    <dc:type rdf:resource="http://purl.org/dc/dcmitype/StillImage"/>
    <dc:date>2024-06-19T23:15:53.160279</dc:date>
    <dc:format>image/svg+xml</dc:format>
    <dc:creator>
     <cc:Agent>
      <dc:title>Matplotlib v3.7.5, https://matplotlib.org/</dc:title>
     </cc:Agent>
    </dc:creator>
   </cc:Work>
  </rdf:RDF>
 </metadata>
 <defs>
  <style type="text/css">*{stroke-linejoin: round; stroke-linecap: butt}</style>
 </defs>
 <g id="figure_1">
  <g id="patch_1">
   <path d="M 0 345.6 
L 460.8 345.6 
L 460.8 0 
L 0 0 
z
" style="fill: #ffffff"/>
  </g>
  <g id="axes_1">
   <g id="patch_2">
    <path d="M 0 293.76 
L 460.8 293.76 
L 460.8 3.456 
L 0 3.456 
z
" style="fill: #ffffff"/>
   </g>
   <g id="matplotlib.axis_1">
    <g id="xtick_1">
     <g id="line2d_1">
      <path d="M 101.409188 293.76 
L 101.409188 3.456 
" clip-path="url(#p592ecd8c31)" style="fill: none; stroke: #b0b0b0; stroke-width: 0.8; stroke-linecap: square"/>
     </g>
     <g id="line2d_2">
      <defs>
       <path id="m72019b497d" d="M 0 0 
L 0 3.5 
" style="stroke: #000000; stroke-width: 0.8"/>
      </defs>
      <g>
       <use xlink:href="#m72019b497d" x="101.409188" y="293.76" style="stroke: #000000; stroke-width: 0.8"/>
      </g>
     </g>
     <g id="text_1">
      <!-- -4 -->
      <g transform="translate(91.438875 315.956875) scale(0.2 -0.2)">
       <defs>
        <path id="DejaVuSans-2d" d="M 313 2009 
L 1997 2009 
L 1997 1497 
L 313 1497 
L 313 2009 
z
" transform="scale(0.015625)"/>
        <path id="DejaVuSans-34" d="M 2419 4116 
L 825 1625 
L 2419 1625 
L 2419 4116 
z
M 2253 4666 
L 3047 4666 
L 3047 1625 
L 3713 1625 
L 3713 1100 
L 3047 1100 
L 3047 0 
L 2419 0 
L 2419 1100 
L 313 1100 
L 313 1709 
L 2253 4666 
z
" transform="scale(0.015625)"/>
       </defs>
       <use xlink:href="#DejaVuSans-2d"/>
       <use xlink:href="#DejaVuSans-34" x="36.083984"/>
      </g>
     </g>
    </g>
    <g id="xtick_2">
     <g id="line2d_3">
      <path d="M 202.928051 293.76 
L 202.928051 3.456 
" clip-path="url(#p592ecd8c31)" style="fill: none; stroke: #b0b0b0; stroke-width: 0.8; stroke-linecap: square"/>
     </g>
     <g id="line2d_4">
      <g>
       <use xlink:href="#m72019b497d" x="202.928051" y="293.76" style="stroke: #000000; stroke-width: 0.8"/>
      </g>
     </g>
     <g id="text_2">
      <!-- 0 -->
      <g transform="translate(196.565551 315.956875) scale(0.2 -0.2)">
       <defs>
        <path id="DejaVuSans-30" d="M 2034 4250 
Q 1547 4250 1301 3770 
Q 1056 3291 1056 2328 
Q 1056 1369 1301 889 
Q 1547 409 2034 409 
Q 2525 409 2770 889 
Q 3016 1369 3016 2328 
Q 3016 3291 2770 3770 
Q 2525 4250 2034 4250 
z
M 2034 4750 
Q 2819 4750 3233 4129 
Q 3647 3509 3647 2328 
Q 3647 1150 3233 529 
Q 2819 -91 2034 -91 
Q 1250 -91 836 529 
Q 422 1150 422 2328 
Q 422 3509 836 4129 
Q 1250 4750 2034 4750 
z
" transform="scale(0.015625)"/>
       </defs>
       <use xlink:href="#DejaVuSans-30"/>
      </g>
     </g>
    </g>
    <g id="xtick_3">
     <g id="line2d_5">
      <path d="M 304.446914 293.76 
L 304.446914 3.456 
" clip-path="url(#p592ecd8c31)" style="fill: none; stroke: #b0b0b0; stroke-width: 0.8; stroke-linecap: square"/>
     </g>
     <g id="line2d_6">
      <g>
       <use xlink:href="#m72019b497d" x="304.446914" y="293.76" style="stroke: #000000; stroke-width: 0.8"/>
      </g>
     </g>
     <g id="text_3">
      <!-- 4 -->
      <g transform="translate(298.084414 315.956875) scale(0.2 -0.2)">
       <use xlink:href="#DejaVuSans-34"/>
      </g>
     </g>
    </g>
    <g id="xtick_4">
     <g id="line2d_7">
      <path d="M 405.965777 293.76 
L 405.965777 3.456 
" clip-path="url(#p592ecd8c31)" style="fill: none; stroke: #b0b0b0; stroke-width: 0.8; stroke-linecap: square"/>
     </g>
     <g id="line2d_8">
      <g>
       <use xlink:href="#m72019b497d" x="405.965777" y="293.76" style="stroke: #000000; stroke-width: 0.8"/>
      </g>
     </g>
     <g id="text_4">
      <!-- 8 -->
      <g transform="translate(399.603277 315.956875) scale(0.2 -0.2)">
       <defs>
        <path id="DejaVuSans-38" d="M 2034 2216 
Q 1584 2216 1326 1975 
Q 1069 1734 1069 1313 
Q 1069 891 1326 650 
Q 1584 409 2034 409 
Q 2484 409 2743 651 
Q 3003 894 3003 1313 
Q 3003 1734 2745 1975 
Q 2488 2216 2034 2216 
z
M 1403 2484 
Q 997 2584 770 2862 
Q 544 3141 544 3541 
Q 544 4100 942 4425 
Q 1341 4750 2034 4750 
Q 2731 4750 3128 4425 
Q 3525 4100 3525 3541 
Q 3525 3141 3298 2862 
Q 3072 2584 2669 2484 
Q 3125 2378 3379 2068 
Q 3634 1759 3634 1313 
Q 3634 634 3220 271 
Q 2806 -91 2034 -91 
Q 1263 -91 848 271 
Q 434 634 434 1313 
Q 434 1759 690 2068 
Q 947 2378 1403 2484 
z
M 1172 3481 
Q 1172 3119 1398 2916 
Q 1625 2713 2034 2713 
Q 2441 2713 2670 2916 
Q 2900 3119 2900 3481 
Q 2900 3844 2670 4047 
Q 2441 4250 2034 4250 
Q 1625 4250 1398 4047 
Q 1172 3844 1172 3481 
z
" transform="scale(0.015625)"/>
       </defs>
       <use xlink:href="#DejaVuSans-38"/>
      </g>
     </g>
    </g>
    <g id="text_5">
     <!-- log10 of Df -->
     <g transform="translate(175.214063 339.313125) scale(0.2 -0.2)">
      <defs>
       <path id="DejaVuSans-6c" d="M 603 4863 
L 1178 4863 
L 1178 0 
L 603 0 
L 603 4863 
z
" transform="scale(0.015625)"/>
       <path id="DejaVuSans-6f" d="M 1959 3097 
Q 1497 3097 1228 2736 
Q 959 2375 959 1747 
Q 959 1119 1226 758 
Q 1494 397 1959 397 
Q 2419 397 2687 759 
Q 2956 1122 2956 1747 
Q 2956 2369 2687 2733 
Q 2419 3097 1959 3097 
z
M 1959 3584 
Q 2709 3584 3137 3096 
Q 3566 2609 3566 1747 
Q 3566 888 3137 398 
Q 2709 -91 1959 -91 
Q 1206 -91 779 398 
Q 353 888 353 1747 
Q 353 2609 779 3096 
Q 1206 3584 1959 3584 
z
" transform="scale(0.015625)"/>
       <path id="DejaVuSans-67" d="M 2906 1791 
Q 2906 2416 2648 2759 
Q 2391 3103 1925 3103 
Q 1463 3103 1205 2759 
Q 947 2416 947 1791 
Q 947 1169 1205 825 
Q 1463 481 1925 481 
Q 2391 481 2648 825 
Q 2906 1169 2906 1791 
z
M 3481 434 
Q 3481 -459 3084 -895 
Q 2688 -1331 1869 -1331 
Q 1566 -1331 1297 -1286 
Q 1028 -1241 775 -1147 
L 775 -588 
Q 1028 -725 1275 -790 
Q 1522 -856 1778 -856 
Q 2344 -856 2625 -561 
Q 2906 -266 2906 331 
L 2906 616 
Q 2728 306 2450 153 
Q 2172 0 1784 0 
Q 1141 0 747 490 
Q 353 981 353 1791 
Q 353 2603 747 3093 
Q 1141 3584 1784 3584 
Q 2172 3584 2450 3431 
Q 2728 3278 2906 2969 
L 2906 3500 
L 3481 3500 
L 3481 434 
z
" transform="scale(0.015625)"/>
       <path id="DejaVuSans-31" d="M 794 531 
L 1825 531 
L 1825 4091 
L 703 3866 
L 703 4441 
L 1819 4666 
L 2450 4666 
L 2450 531 
L 3481 531 
L 3481 0 
L 794 0 
L 794 531 
z
" transform="scale(0.015625)"/>
       <path id="DejaVuSans-20" transform="scale(0.015625)"/>
       <path id="DejaVuSans-66" d="M 2375 4863 
L 2375 4384 
L 1825 4384 
Q 1516 4384 1395 4259 
Q 1275 4134 1275 3809 
L 1275 3500 
L 2222 3500 
L 2222 3053 
L 1275 3053 
L 1275 0 
L 697 0 
L 697 3053 
L 147 3053 
L 147 3500 
L 697 3500 
L 697 3744 
Q 697 4328 969 4595 
Q 1241 4863 1831 4863 
L 2375 4863 
z
" transform="scale(0.015625)"/>
       <path id="DejaVuSans-44" d="M 1259 4147 
L 1259 519 
L 2022 519 
Q 2988 519 3436 956 
Q 3884 1394 3884 2338 
Q 3884 3275 3436 3711 
Q 2988 4147 2022 4147 
L 1259 4147 
z
M 628 4666 
L 1925 4666 
Q 3281 4666 3915 4102 
Q 4550 3538 4550 2338 
Q 4550 1131 3912 565 
Q 3275 0 1925 0 
L 628 0 
L 628 4666 
z
" transform="scale(0.015625)"/>
      </defs>
      <use xlink:href="#DejaVuSans-6c"/>
      <use xlink:href="#DejaVuSans-6f" x="27.783203"/>
      <use xlink:href="#DejaVuSans-67" x="88.964844"/>
      <use xlink:href="#DejaVuSans-31" x="152.441406"/>
      <use xlink:href="#DejaVuSans-30" x="216.064453"/>
      <use xlink:href="#DejaVuSans-20" x="279.6875"/>
      <use xlink:href="#DejaVuSans-6f" x="311.474609"/>
      <use xlink:href="#DejaVuSans-66" x="372.65625"/>
      <use xlink:href="#DejaVuSans-20" x="407.861328"/>
      <use xlink:href="#DejaVuSans-44" x="439.648438"/>
      <use xlink:href="#DejaVuSans-66" x="516.650391"/>
     </g>
    </g>
   </g>
   <g id="matplotlib.axis_2">
    <g id="ytick_1">
     <g id="line2d_9">
      <path d="M 0 293.76 
L 460.8 293.76 
" clip-path="url(#p592ecd8c31)" style="fill: none; stroke: #b0b0b0; stroke-width: 0.8; stroke-linecap: square"/>
     </g>
     <g id="line2d_10">
      <defs>
       <path id="m781389509c" d="M 0 0 
L -3.5 0 
" style="stroke: #000000; stroke-width: 0.8"/>
      </defs>
      <g>
       <use xlink:href="#m781389509c" x="0" y="293.76" style="stroke: #000000; stroke-width: 0.8"/>
      </g>
     </g>
    </g>
    <g id="ytick_2">
     <g id="line2d_11">
      <path d="M 0 236.274059 
L 460.8 236.274059 
" clip-path="url(#p592ecd8c31)" style="fill: none; stroke: #b0b0b0; stroke-width: 0.8; stroke-linecap: square"/>
     </g>
     <g id="line2d_12">
      <g>
       <use xlink:href="#m781389509c" x="0" y="236.274059" style="stroke: #000000; stroke-width: 0.8"/>
      </g>
     </g>
    </g>
    <g id="ytick_3">
     <g id="line2d_13">
      <path d="M 0 178.788119 
L 460.8 178.788119 
" clip-path="url(#p592ecd8c31)" style="fill: none; stroke: #b0b0b0; stroke-width: 0.8; stroke-linecap: square"/>
     </g>
     <g id="line2d_14">
      <g>
       <use xlink:href="#m781389509c" x="0" y="178.788119" style="stroke: #000000; stroke-width: 0.8"/>
      </g>
     </g>
    </g>
    <g id="ytick_4">
     <g id="line2d_15">
      <path d="M 0 121.302178 
L 460.8 121.302178 
" clip-path="url(#p592ecd8c31)" style="fill: none; stroke: #b0b0b0; stroke-width: 0.8; stroke-linecap: square"/>
     </g>
     <g id="line2d_16">
      <g>
       <use xlink:href="#m781389509c" x="0" y="121.302178" style="stroke: #000000; stroke-width: 0.8"/>
      </g>
     </g>
    </g>
    <g id="ytick_5">
     <g id="line2d_17">
      <path d="M 0 63.816238 
L 460.8 63.816238 
" clip-path="url(#p592ecd8c31)" style="fill: none; stroke: #b0b0b0; stroke-width: 0.8; stroke-linecap: square"/>
     </g>
     <g id="line2d_18">
      <g>
       <use xlink:href="#m781389509c" x="0" y="63.816238" style="stroke: #000000; stroke-width: 0.8"/>
      </g>
     </g>
    </g>
    <g id="ytick_6">
     <g id="line2d_19">
      <path d="M 0 6.330297 
L 460.8 6.330297 
" clip-path="url(#p592ecd8c31)" style="fill: none; stroke: #b0b0b0; stroke-width: 0.8; stroke-linecap: square"/>
     </g>
     <g id="line2d_20">
      <g>
       <use xlink:href="#m781389509c" x="0" y="6.330297" style="stroke: #000000; stroke-width: 0.8"/>
      </g>
     </g>
    </g>
   </g>
   <g id="line2d_21">
    <path d="M -0.109675 293.76 
L -0.109675 274.59802 
L 198.86771 274.59802 
L 198.86771 255.43604 
L 204.608452 255.43604 
L 204.608452 251.603644 
L 205.345684 251.603644 
L 205.345684 243.938851 
L 206.253907 243.938851 
L 206.253907 240.106455 
L 206.571054 240.106455 
L 206.571054 236.274059 
L 206.955272 236.274059 
L 206.955272 232.441663 
L 207.471292 232.441663 
L 207.471292 228.609267 
L 207.755904 228.609267 
L 207.755904 224.776871 
L 208.034936 224.776871 
L 208.034936 220.944475 
L 208.169625 220.944475 
L 208.169625 217.112079 
L 208.43693 217.112079 
L 208.43693 213.279683 
L 209.14014 213.279683 
L 209.14014 209.447287 
L 209.459205 209.447287 
L 209.564839 201.782495 
L 210.031449 201.782495 
L 210.031449 197.950099 
L 210.219532 197.950099 
L 210.317266 186.452911 
L 210.563177 186.452911 
L 210.642775 178.788119 
L 210.80614 178.788119 
L 210.80614 174.955723 
L 211.015549 174.955723 
L 211.015549 171.123327 
L 211.203263 171.123327 
L 211.203263 167.290931 
L 212.160774 167.290931 
L 212.160774 163.458535 
L 212.458491 163.458535 
L 212.458491 159.626139 
L 212.588612 159.626139 
L 212.588612 155.793743 
L 213.04169 155.793743 
L 213.04169 151.961347 
L 213.22837 151.961347 
L 213.291881 140.464158 
L 213.419812 140.464158 
L 213.419812 136.631762 
L 213.550905 136.631762 
L 213.611085 125.134574 
L 214.189803 125.134574 
L 214.267317 117.469782 
L 214.732773 117.469782 
L 214.732773 113.637386 
L 215.080278 113.637386 
L 215.13871 105.972594 
L 220.805152 105.972594 
L 220.805152 94.475406 
L 221.232338 94.475406 
L 221.232338 90.64301 
L 224.796019 90.64301 
L 224.865414 82.978218 
L 226.017059 82.978218 
L 226.017059 79.145822 
L 226.826812 79.145822 
L 226.826812 71.48103 
L 229.483461 71.48103 
L 229.483461 67.648634 
L 232.467545 67.648634 
L 232.467545 63.816238 
L 250.650248 63.816238 
L 250.650248 59.983842 
L 252.439768 59.983842 
L 252.439768 56.151446 
L 253.815933 56.151446 
L 253.815933 52.31905 
L 254.345171 52.31905 
L 254.345171 48.486653 
L 254.69271 48.486653 
L 254.69271 44.654257 
L 254.809114 44.654257 
L 254.809114 40.821861 
L 254.925166 40.821861 
L 254.925166 36.989465 
L 255.0424 36.989465 
L 255.147658 29.324673 
L 255.165033 29.324673 
L 255.166475 21.659881 
L 255.403379 21.659881 
L 255.403379 17.827485 
L 255.545315 17.827485 
L 255.545315 13.995089 
L 255.845136 13.995089 
L 255.845136 10.162693 
L 255.97473 10.162693 
L 255.97473 6.330297 
L 255.97473 6.330297 
L 460.8 6.330297 
L 460.8 6.330297 
" clip-path="url(#p592ecd8c31)" style="fill: none; stroke: #ff0000; stroke-width: 3; stroke-linecap: square"/>
   </g>
   <g id="line2d_22">
    <path d="M 221.848432 293.76 
L 221.848432 289.927604 
L 226.657731 289.927604 
L 226.657731 286.095208 
L 227.834553 286.095208 
L 227.834553 282.262812 
L 228.185697 282.262812 
L 228.185697 278.430416 
L 229.017019 278.430416 
L 229.017019 274.59802 
L 229.312289 274.59802 
L 229.327312 263.100832 
L 229.963435 263.100832 
L 229.963435 259.268436 
L 231.11797 259.268436 
L 231.11797 255.43604 
L 232.487375 255.43604 
L 232.487375 251.603644 
L 233.099159 251.603644 
L 233.158783 243.938851 
L 233.523196 243.938851 
L 233.523196 240.106455 
L 233.889437 240.106455 
L 233.889437 236.274059 
L 248.985121 236.274059 
L 248.985121 232.441663 
L 251.510668 232.441663 
L 251.510668 228.609267 
L 251.66116 228.609267 
L 251.6714 220.944475 
L 251.773885 220.944475 
L 251.882159 205.614891 
L 251.892514 205.614891 
L 252.003483 171.123327 
L 252.010948 171.123327 
L 252.103748 121.302178 
L 287.253616 121.302178 
L 287.253616 117.469782 
L 287.524949 117.469782 
L 287.581752 109.80499 
L 287.740567 109.80499 
L 287.840696 98.307802 
L 287.897446 98.307802 
L 287.897446 94.475406 
L 288.068866 94.475406 
L 288.161128 82.978218 
L 288.210831 82.978218 
L 288.266607 75.313426 
L 288.415785 75.313426 
L 288.525373 63.816238 
L 324.137656 63.816238 
L 324.137656 59.983842 
L 326.331723 59.983842 
L 326.350028 52.31905 
L 327.477246 52.31905 
L 327.477246 48.486653 
L 328.887613 48.486653 
L 328.887613 44.654257 
L 329.018814 44.654257 
L 329.018814 40.821861 
L 331.066484 40.821861 
L 331.075917 33.157069 
L 331.37102 33.157069 
L 331.37102 29.324673 
L 331.486354 29.324673 
L 331.486354 25.492277 
L 332.397479 25.492277 
L 332.397479 21.659881 
L 333.041552 21.659881 
L 333.041552 17.827485 
L 334.706406 17.827485 
L 334.706406 13.995089 
L 335.199889 13.995089 
L 335.199889 10.162693 
L 335.648157 10.162693 
L 335.648157 6.330297 
L 335.648157 6.330297 
L 460.8 6.330297 
L 460.8 6.330297 
" clip-path="url(#p592ecd8c31)" style="fill: none; stroke: #00bfbf; stroke-width: 1.5; stroke-linecap: square"/>
   </g>
   <g id="line2d_23">
    <path d="M 221.848432 293.76 
L 221.848432 289.927604 
L 225.241435 289.927604 
L 225.241435 286.095208 
L 226.657731 286.095208 
L 226.657731 282.262812 
L 227.567053 282.262812 
L 227.618388 274.59802 
L 227.834553 274.59802 
L 227.834553 270.765624 
L 227.989946 270.765624 
L 227.989946 266.933228 
L 228.185697 266.933228 
L 228.185697 263.100832 
L 228.493203 263.100832 
L 228.493203 259.268436 
L 228.68802 259.268436 
L 228.775006 251.603644 
L 229.017019 251.603644 
L 229.017019 247.771248 
L 229.591243 247.771248 
L 229.591243 243.938851 
L 232.001363 243.938851 
L 232.001363 240.106455 
L 233.158783 240.106455 
L 233.158783 236.274059 
L 248.985121 236.274059 
L 248.985121 232.441663 
L 250.990293 232.441663 
L 251.082221 224.776871 
L 251.175703 224.776871 
L 251.23293 217.112079 
L 251.32565 217.112079 
L 251.368936 209.447287 
L 251.45161 209.447287 
L 251.560852 190.285307 
L 251.66116 190.285307 
L 251.75996 163.458535 
L 251.832469 163.458535 
L 251.943118 144.296554 
L 251.949299 144.296554 
L 252.0571 125.134574 
L 252.078104 125.134574 
L 252.078104 121.302178 
L 271.158677 121.302178 
L 271.158677 117.469782 
L 271.727253 117.469782 
L 271.727253 113.637386 
L 272.392009 113.637386 
L 272.392009 109.80499 
L 272.756487 109.80499 
L 272.756487 105.972594 
L 273.192237 105.972594 
L 273.192237 102.140198 
L 273.39407 102.140198 
L 273.499281 94.475406 
L 273.509062 94.475406 
L 273.509062 90.64301 
L 273.889746 90.64301 
L 273.993884 82.978218 
L 274.49376 82.978218 
L 274.555092 71.48103 
L 274.635592 71.48103 
L 274.635592 67.648634 
L 274.80625 67.648634 
L 274.80625 63.816238 
L 310.060808 63.816238 
L 310.060808 59.983842 
L 320.018392 59.983842 
L 320.018392 56.151446 
L 323.498563 56.151446 
L 323.498563 52.31905 
L 324.137656 52.31905 
L 324.137656 48.486653 
L 326.331723 48.486653 
L 326.350028 40.821861 
L 327.362816 40.821861 
L 327.362816 36.989465 
L 327.477246 36.989465 
L 327.477246 33.157069 
L 328.151799 33.157069 
L 328.151799 29.324673 
L 328.742363 29.324673 
L 328.742363 25.492277 
L 331.486354 25.492277 
L 331.537191 17.827485 
L 333.041552 17.827485 
L 333.041552 13.995089 
L 334.706406 13.995089 
L 334.706406 10.162693 
L 335.199889 10.162693 
L 335.199889 6.330297 
L 335.199889 6.330297 
L 460.8 6.330297 
L 460.8 6.330297 
" clip-path="url(#p592ecd8c31)" style="fill: none; stroke: #bf00bf; stroke-width: 1.5; stroke-linecap: square"/>
   </g>
   <g id="line2d_24">
    <path d="M 221.7656 293.76 
L 221.848432 286.095208 
L 223.14213 286.095208 
L 223.14213 282.262812 
L 223.335509 282.262812 
L 223.335509 278.430416 
L 223.663009 278.430416 
L 223.663009 274.59802 
L 224.422943 274.59802 
L 224.422943 270.765624 
L 225.241435 270.765624 
L 225.241435 266.933228 
L 226.657731 266.933228 
L 226.657731 263.100832 
L 227.272951 263.100832 
L 227.272951 259.268436 
L 227.403388 259.268436 
L 227.403388 255.43604 
L 227.567053 255.43604 
L 227.645957 247.771248 
L 227.848662 247.771248 
L 227.848662 243.938851 
L 227.989946 243.938851 
L 227.989946 240.106455 
L 228.775006 240.106455 
L 228.775006 236.274059 
L 248.985121 236.274059 
L 248.985121 232.441663 
L 250.215717 232.441663 
L 250.215717 228.609267 
L 250.376594 228.609267 
L 250.376594 224.776871 
L 250.763409 224.776871 
L 250.813665 209.447287 
L 250.990293 209.447287 
L 251.082221 197.950099 
L 251.190816 197.950099 
L 251.269021 186.452911 
L 251.302627 186.452911 
L 251.330189 171.123327 
L 251.45161 171.123327 
L 251.549369 155.793743 
L 251.577773 155.793743 
L 251.662213 140.464158 
L 251.753618 140.464158 
L 251.848063 121.302178 
L 270.367049 121.302178 
L 270.367049 117.469782 
L 271.158677 117.469782 
L 271.158677 113.637386 
L 271.727253 113.637386 
L 271.727253 109.80499 
L 272.392009 109.80499 
L 272.392009 105.972594 
L 272.580401 105.972594 
L 272.580401 102.140198 
L 272.756487 102.140198 
L 272.756487 98.307802 
L 273.260601 98.307802 
L 273.260601 94.475406 
L 273.39407 94.475406 
L 273.499281 86.810614 
L 273.509062 86.810614 
L 273.509062 82.978218 
L 273.67482 82.978218 
L 273.67482 79.145822 
L 273.889746 79.145822 
L 273.903649 71.48103 
L 274.239939 71.48103 
L 274.239939 67.648634 
L 274.635592 67.648634 
L 274.635592 63.816238 
L 310.060808 63.816238 
L 310.060808 59.983842 
L 318.779849 59.983842 
L 318.779849 56.151446 
L 319.897036 56.151446 
L 319.897036 52.31905 
L 320.018392 52.31905 
L 320.018392 48.486653 
L 320.699193 48.486653 
L 320.699193 44.654257 
L 321.093208 44.654257 
L 321.093208 40.821861 
L 321.987032 40.821861 
L 321.987032 36.989465 
L 322.299495 36.989465 
L 322.299495 33.157069 
L 324.244534 33.157069 
L 324.244534 29.324673 
L 324.966288 29.324673 
L 324.966288 25.492277 
L 326.004382 25.492277 
L 326.004382 21.659881 
L 326.402083 21.659881 
L 326.402083 17.827485 
L 326.524677 17.827485 
L 326.524677 13.995089 
L 327.457048 13.995089 
L 327.457048 10.162693 
L 328.143395 10.162693 
L 328.143395 6.330297 
L 328.143395 6.330297 
L 460.8 6.330297 
L 460.8 6.330297 
" clip-path="url(#p592ecd8c31)" style="fill: none; stroke: #000000; stroke-width: 1.5; stroke-linecap: square"/>
   </g>
   <g id="line2d_25">
    <path d="M 216.546044 293.76 
L 216.546044 289.927604 
L 220.791696 289.927604 
L 220.791696 286.095208 
L 221.44759 286.095208 
L 221.44759 282.262812 
L 221.82047 282.262812 
L 221.848432 274.59802 
L 222.404008 274.59802 
L 222.429083 266.933228 
L 222.664594 266.933228 
L 222.664594 263.100832 
L 223.204382 263.100832 
L 223.204382 259.268436 
L 223.335509 259.268436 
L 223.335509 255.43604 
L 223.515018 255.43604 
L 223.515018 251.603644 
L 223.964137 251.603644 
L 224.04987 243.938851 
L 224.422943 243.938851 
L 224.422943 240.106455 
L 225.011578 240.106455 
L 225.011578 236.274059 
L 236.583022 236.274059 
L 236.583022 232.441663 
L 239.405225 232.441663 
L 239.405225 228.609267 
L 239.76943 228.609267 
L 239.76943 224.776871 
L 243.109725 224.776871 
L 243.109725 220.944475 
L 243.325584 220.944475 
L 243.325584 217.112079 
L 243.810023 217.112079 
L 243.810023 213.279683 
L 244.071401 213.279683 
L 244.071401 209.447287 
L 244.663573 209.447287 
L 244.663573 205.614891 
L 246.25593 205.614891 
L 246.290364 197.950099 
L 246.492203 197.950099 
L 246.492203 194.117703 
L 246.684844 194.117703 
L 246.684844 190.285307 
L 247.290864 190.285307 
L 247.290864 186.452911 
L 247.421519 186.452911 
L 247.421519 182.620515 
L 247.558574 182.620515 
L 247.558574 178.788119 
L 247.973994 178.788119 
L 247.973994 174.955723 
L 248.094719 174.955723 
L 248.094719 171.123327 
L 248.242207 171.123327 
L 248.242207 167.290931 
L 248.650416 167.290931 
L 248.650416 163.458535 
L 248.766838 163.458535 
L 248.766838 159.626139 
L 249.133819 159.626139 
L 249.148794 151.961347 
L 249.27015 151.961347 
L 249.363469 140.464158 
L 249.42657 140.464158 
L 249.474532 132.799366 
L 249.652449 132.799366 
L 249.652449 128.96697 
L 249.862952 128.96697 
L 249.862952 125.134574 
L 250.232274 125.134574 
L 250.232274 121.302178 
L 263.939912 121.302178 
L 263.939912 117.469782 
L 264.141735 117.469782 
L 264.211082 109.80499 
L 264.829806 109.80499 
L 264.829806 105.972594 
L 265.278258 105.972594 
L 265.278258 102.140198 
L 265.537398 102.140198 
L 265.537398 98.307802 
L 265.666317 98.307802 
L 265.666317 94.475406 
L 265.826441 94.475406 
L 265.915341 86.810614 
L 266.210538 86.810614 
L 266.315221 79.145822 
L 266.498293 79.145822 
L 266.498293 75.313426 
L 267.287537 75.313426 
L 267.287537 71.48103 
L 267.964838 71.48103 
L 267.964838 67.648634 
L 268.293174 67.648634 
L 268.293174 63.816238 
L 281.774136 63.816238 
L 281.774136 59.983842 
L 290.157982 59.983842 
L 290.157982 56.151446 
L 291.059512 56.151446 
L 291.059512 52.31905 
L 295.354487 52.31905 
L 295.354487 48.486653 
L 296.995455 48.486653 
L 296.995455 44.654257 
L 301.851484 44.654257 
L 301.851484 40.821861 
L 304.43449 40.821861 
L 304.43449 36.989465 
L 304.866211 36.989465 
L 304.866211 33.157069 
L 305.069839 33.157069 
L 305.069839 29.324673 
L 305.949843 29.324673 
L 305.949843 25.492277 
L 306.143529 25.492277 
L 306.143529 21.659881 
L 306.35468 21.659881 
L 306.35468 17.827485 
L 306.984592 17.827485 
L 306.984592 13.995089 
L 311.081591 13.995089 
L 311.081591 10.162693 
L 312.198564 10.162693 
L 312.198564 6.330297 
L 312.198564 6.330297 
L 460.8 6.330297 
L 460.8 6.330297 
" clip-path="url(#p592ecd8c31)" style="fill: none; stroke: #00bfbf; stroke-width: 1.5; stroke-linecap: square"/>
   </g>
   <g id="line2d_26">
    <path d="M -1 289.927604 
L 25.276073 289.927604 
L 25.276073 286.095208 
L 198.867785 286.095208 
L 198.869096 270.765624 
L 205.345841 270.765624 
L 205.346065 263.100832 
L 205.982627 263.100832 
L 205.982627 259.268436 
L 206.585099 259.268436 
L 206.585099 255.43604 
L 207.239132 255.43604 
L 207.239132 251.603644 
L 208.100778 251.603644 
L 208.100778 247.771248 
L 208.827044 247.771248 
L 208.88631 240.106455 
L 209.176461 240.106455 
L 209.176461 236.274059 
L 209.438995 236.274059 
L 209.438995 232.441663 
L 209.579026 232.441663 
L 209.579026 228.609267 
L 210.317274 228.609267 
L 210.317274 224.776871 
L 211.113552 224.776871 
L 211.203286 213.279683 
L 211.34299 213.279683 
L 211.343218 205.614891 
L 211.45934 205.614891 
L 211.45934 201.782495 
L 211.848075 201.782495 
L 211.848075 197.950099 
L 213.225821 197.950099 
L 213.225821 194.117703 
L 213.42018 194.117703 
L 213.42018 190.285307 
L 213.695011 190.285307 
L 213.713436 182.620515 
L 214.189876 182.620515 
L 214.189876 178.788119 
L 215.103332 178.788119 
L 215.103332 174.955723 
L 215.646066 174.955723 
L 215.646066 171.123327 
L 216.112221 171.123327 
L 216.112221 167.290931 
L 216.44942 167.290931 
L 216.546044 155.793743 
L 216.69549 155.793743 
L 216.69549 151.961347 
L 216.878755 151.961347 
L 216.878755 148.12895 
L 217.652705 148.12895 
L 217.652705 144.296554 
L 218.214674 144.296554 
L 218.293613 136.631762 
L 218.347425 136.631762 
L 218.453436 128.96697 
L 218.506086 128.96697 
L 218.506086 125.134574 
L 220.018046 125.134574 
L 220.018046 121.302178 
L 220.805186 121.302178 
L 220.805421 109.80499 
L 223.825233 109.80499 
L 223.825233 105.972594 
L 224.79604 105.972594 
L 224.86542 98.307802 
L 225.273522 98.307802 
L 225.273522 94.475406 
L 226.806341 94.475406 
L 226.831954 82.978218 
L 229.483473 82.978218 
L 229.483473 79.145822 
L 231.649543 79.145822 
L 231.649543 75.313426 
L 232.467548 75.313426 
L 232.467548 71.48103 
L 238.615676 71.48103 
L 238.615676 67.648634 
L 240.447141 67.648634 
L 240.447141 63.816238 
L 257.459798 63.816238 
L 257.459798 59.983842 
L 257.674535 59.983842 
L 257.709956 52.31905 
L 257.852507 52.31905 
L 257.852507 48.486653 
L 257.969611 48.486653 
L 258.001357 40.821861 
L 258.146837 40.821861 
L 258.146837 36.989465 
L 258.516291 36.989465 
L 258.516291 33.157069 
L 258.687978 33.157069 
L 258.687978 29.324673 
L 258.937595 29.324673 
L 258.937595 25.492277 
L 259.234728 25.492277 
L 259.234728 21.659881 
L 259.387349 21.659881 
L 259.387349 17.827485 
L 259.747666 17.827485 
L 259.833429 10.162693 
L 260.371227 10.162693 
L 260.371227 6.330297 
L 260.371227 6.330297 
L 460.8 6.330297 
L 460.8 6.330297 
" clip-path="url(#p592ecd8c31)" style="fill: none; stroke: #bf00bf; stroke-width: 1.5; stroke-linecap: square"/>
   </g>
   <g id="line2d_27">
    <path d="M -0.109675 293.76 
L -0.109675 274.59802 
L 198.86771 274.59802 
L 198.86771 255.43604 
L 204.608452 255.43604 
L 204.608452 251.603644 
L 205.345684 251.603644 
L 205.345684 243.938851 
L 206.253907 243.938851 
L 206.253907 240.106455 
L 206.571054 240.106455 
L 206.571054 236.274059 
L 206.955272 236.274059 
L 206.955272 232.441663 
L 207.471292 232.441663 
L 207.471292 228.609267 
L 207.755904 228.609267 
L 207.755904 224.776871 
L 208.034936 224.776871 
L 208.034936 220.944475 
L 208.169625 220.944475 
L 208.169625 217.112079 
L 208.43693 217.112079 
L 208.43693 213.279683 
L 209.14014 213.279683 
L 209.14014 209.447287 
L 209.459205 209.447287 
L 209.564839 201.782495 
L 210.031449 201.782495 
L 210.031449 197.950099 
L 210.219532 197.950099 
L 210.317266 186.452911 
L 210.563177 186.452911 
L 210.642775 178.788119 
L 210.80614 178.788119 
L 210.80614 174.955723 
L 211.015549 174.955723 
L 211.015549 171.123327 
L 211.203263 171.123327 
L 211.203263 167.290931 
L 212.160774 167.290931 
L 212.160774 163.458535 
L 212.458491 163.458535 
L 212.458491 159.626139 
L 212.588612 159.626139 
L 212.588612 155.793743 
L 213.04169 155.793743 
L 213.04169 151.961347 
L 213.22837 151.961347 
L 213.291881 140.464158 
L 213.419812 140.464158 
L 213.419812 136.631762 
L 213.550905 136.631762 
L 213.611085 125.134574 
L 214.189803 125.134574 
L 214.267317 117.469782 
L 214.732773 117.469782 
L 214.732773 113.637386 
L 215.080278 113.637386 
L 215.13871 105.972594 
L 220.805152 105.972594 
L 220.805152 94.475406 
L 221.232338 94.475406 
L 221.232338 90.64301 
L 224.796019 90.64301 
L 224.865414 82.978218 
L 226.017059 82.978218 
L 226.017059 79.145822 
L 226.826812 79.145822 
L 226.826812 71.48103 
L 229.483461 71.48103 
L 229.483461 67.648634 
L 232.467545 67.648634 
L 232.467545 63.816238 
L 250.650248 63.816238 
L 250.650248 59.983842 
L 252.439768 59.983842 
L 252.439768 56.151446 
L 253.815933 56.151446 
L 253.815933 52.31905 
L 254.345171 52.31905 
L 254.345171 48.486653 
L 254.69271 48.486653 
L 254.69271 44.654257 
L 254.809114 44.654257 
L 254.809114 40.821861 
L 254.925166 40.821861 
L 254.925166 36.989465 
L 255.0424 36.989465 
L 255.147658 29.324673 
L 255.165033 29.324673 
L 255.166475 21.659881 
L 255.403379 21.659881 
L 255.403379 17.827485 
L 255.545315 17.827485 
L 255.545315 13.995089 
L 255.845136 13.995089 
L 255.845136 10.162693 
L 255.97473 10.162693 
L 255.97473 6.330297 
L 255.97473 6.330297 
L 460.8 6.330297 
L 460.8 6.330297 
" clip-path="url(#p592ecd8c31)" style="fill: none; stroke: #000000; stroke-width: 1.5; stroke-linecap: square"/>
   </g>
   <g id="patch_3">
    <path d="M 0 293.76 
L 0 3.456 
" style="fill: none; stroke: #000000; stroke-width: 0.8; stroke-linejoin: miter; stroke-linecap: square"/>
   </g>
   <g id="patch_4">
    <path d="M 460.8 293.76 
L 460.8 3.456 
" style="fill: none; stroke: #000000; stroke-width: 0.8; stroke-linejoin: miter; stroke-linecap: square"/>
   </g>
   <g id="patch_5">
    <path d="M 0 293.76 
L 460.8 293.76 
" style="fill: none; stroke: #000000; stroke-width: 0.8; stroke-linejoin: miter; stroke-linecap: square"/>
   </g>
   <g id="patch_6">
    <path d="M 0 3.456 
L 460.8 3.456 
" style="fill: none; stroke: #000000; stroke-width: 0.8; stroke-linejoin: miter; stroke-linecap: square"/>
   </g>
   <g id="text_6">
    <!-- {f20-f24}, 20-D -->
    <g transform="translate(293.159 287.95392) scale(0.2 -0.2)">
     <defs>
      <path id="DejaVuSans-7b" d="M 3272 -594 
L 3272 -1044 
L 3078 -1044 
Q 2300 -1044 2036 -812 
Q 1772 -581 1772 109 
L 1772 856 
Q 1772 1328 1603 1509 
Q 1434 1691 991 1691 
L 800 1691 
L 800 2138 
L 991 2138 
Q 1438 2138 1605 2317 
Q 1772 2497 1772 2963 
L 1772 3713 
Q 1772 4403 2036 4633 
Q 2300 4863 3078 4863 
L 3272 4863 
L 3272 4416 
L 3059 4416 
Q 2619 4416 2484 4278 
Q 2350 4141 2350 3700 
L 2350 2925 
Q 2350 2434 2208 2212 
Q 2066 1991 1722 1913 
Q 2069 1828 2209 1606 
Q 2350 1384 2350 897 
L 2350 122 
Q 2350 -319 2484 -456 
Q 2619 -594 3059 -594 
L 3272 -594 
z
" transform="scale(0.015625)"/>
      <path id="DejaVuSans-32" d="M 1228 531 
L 3431 531 
L 3431 0 
L 469 0 
L 469 531 
Q 828 903 1448 1529 
Q 2069 2156 2228 2338 
Q 2531 2678 2651 2914 
Q 2772 3150 2772 3378 
Q 2772 3750 2511 3984 
Q 2250 4219 1831 4219 
Q 1534 4219 1204 4116 
Q 875 4013 500 3803 
L 500 4441 
Q 881 4594 1212 4672 
Q 1544 4750 1819 4750 
Q 2544 4750 2975 4387 
Q 3406 4025 3406 3419 
Q 3406 3131 3298 2873 
Q 3191 2616 2906 2266 
Q 2828 2175 2409 1742 
Q 1991 1309 1228 531 
z
" transform="scale(0.015625)"/>
      <path id="DejaVuSans-7d" d="M 800 -594 
L 1019 -594 
Q 1456 -594 1589 -459 
Q 1722 -325 1722 122 
L 1722 897 
Q 1722 1384 1862 1606 
Q 2003 1828 2350 1913 
Q 2003 1991 1862 2212 
Q 1722 2434 1722 2925 
L 1722 3700 
Q 1722 4144 1589 4280 
Q 1456 4416 1019 4416 
L 800 4416 
L 800 4863 
L 997 4863 
Q 1775 4863 2036 4633 
Q 2297 4403 2297 3713 
L 2297 2963 
Q 2297 2497 2465 2317 
Q 2634 2138 3078 2138 
L 3272 2138 
L 3272 1691 
L 3078 1691 
Q 2634 1691 2465 1509 
Q 2297 1328 2297 856 
L 2297 109 
Q 2297 -581 2036 -812 
Q 1775 -1044 997 -1044 
L 800 -1044 
L 800 -594 
z
" transform="scale(0.015625)"/>
      <path id="DejaVuSans-2c" d="M 750 794 
L 1409 794 
L 1409 256 
L 897 -744 
L 494 -744 
L 750 256 
L 750 794 
z
" transform="scale(0.015625)"/>
     </defs>
     <use xlink:href="#DejaVuSans-7b"/>
     <use xlink:href="#DejaVuSans-66" x="63.623047"/>
     <use xlink:href="#DejaVuSans-32" x="98.828125"/>
     <use xlink:href="#DejaVuSans-30" x="162.451172"/>
     <use xlink:href="#DejaVuSans-2d" x="226.074219"/>
     <use xlink:href="#DejaVuSans-66" x="262.158203"/>
     <use xlink:href="#DejaVuSans-32" x="297.363281"/>
     <use xlink:href="#DejaVuSans-34" x="360.986328"/>
     <use xlink:href="#DejaVuSans-7d" x="424.609375"/>
     <use xlink:href="#DejaVuSans-2c" x="488.232422"/>
     <use xlink:href="#DejaVuSans-20" x="520.019531"/>
     <use xlink:href="#DejaVuSans-32" x="551.806641"/>
     <use xlink:href="#DejaVuSans-30" x="615.429688"/>
     <use xlink:href="#DejaVuSans-2d" x="679.052734"/>
     <use xlink:href="#DejaVuSans-44" x="715.136719"/>
    </g>
   </g>
   <g id="text_7">
    <!-- v2.6.3 -->
    <g style="fill: #808080" transform="translate(214.71875 288.777272) scale(0.1 -0.1)">
     <defs>
      <path id="DejaVuSans-76" d="M 191 3500 
L 800 3500 
L 1894 563 
L 2988 3500 
L 3597 3500 
L 2284 0 
L 1503 0 
L 191 3500 
z
" transform="scale(0.015625)"/>
      <path id="DejaVuSans-2e" d="M 684 794 
L 1344 794 
L 1344 0 
L 684 0 
L 684 794 
z
" transform="scale(0.015625)"/>
      <path id="DejaVuSans-36" d="M 2113 2584 
Q 1688 2584 1439 2293 
Q 1191 2003 1191 1497 
Q 1191 994 1439 701 
Q 1688 409 2113 409 
Q 2538 409 2786 701 
Q 3034 994 3034 1497 
Q 3034 2003 2786 2293 
Q 2538 2584 2113 2584 
z
M 3366 4563 
L 3366 3988 
Q 3128 4100 2886 4159 
Q 2644 4219 2406 4219 
Q 1781 4219 1451 3797 
Q 1122 3375 1075 2522 
Q 1259 2794 1537 2939 
Q 1816 3084 2150 3084 
Q 2853 3084 3261 2657 
Q 3669 2231 3669 1497 
Q 3669 778 3244 343 
Q 2819 -91 2113 -91 
Q 1303 -91 875 529 
Q 447 1150 447 2328 
Q 447 3434 972 4092 
Q 1497 4750 2381 4750 
Q 2619 4750 2861 4703 
Q 3103 4656 3366 4563 
z
" transform="scale(0.015625)"/>
      <path id="DejaVuSans-33" d="M 2597 2516 
Q 3050 2419 3304 2112 
Q 3559 1806 3559 1356 
Q 3559 666 3084 287 
Q 2609 -91 1734 -91 
Q 1441 -91 1130 -33 
Q 819 25 488 141 
L 488 750 
Q 750 597 1062 519 
Q 1375 441 1716 441 
Q 2309 441 2620 675 
Q 2931 909 2931 1356 
Q 2931 1769 2642 2001 
Q 2353 2234 1838 2234 
L 1294 2234 
L 1294 2753 
L 1863 2753 
Q 2328 2753 2575 2939 
Q 2822 3125 2822 3475 
Q 2822 3834 2567 4026 
Q 2313 4219 1838 4219 
Q 1578 4219 1281 4162 
Q 984 4106 628 3988 
L 628 4550 
Q 988 4650 1302 4700 
Q 1616 4750 1894 4750 
Q 2613 4750 3031 4423 
Q 3450 4097 3450 3541 
Q 3450 3153 3228 2886 
Q 3006 2619 2597 2516 
z
" transform="scale(0.015625)"/>
     </defs>
     <use xlink:href="#DejaVuSans-76"/>
     <use xlink:href="#DejaVuSans-32" x="59.179688"/>
     <use xlink:href="#DejaVuSans-2e" x="122.802734"/>
     <use xlink:href="#DejaVuSans-36" x="154.589844"/>
     <use xlink:href="#DejaVuSans-2e" x="218.212891"/>
     <use xlink:href="#DejaVuSans-33" x="250"/>
    </g>
   </g>
  </g>
 </g>
 <defs>
  <clipPath id="p592ecd8c31">
   <rect x="0" y="3.456" width="460.8" height="290.304"/>
  </clipPath>
 </defs>
</svg>
