<?xml version="1.0" encoding="utf-8" standalone="no"?>
<!DOCTYPE svg PUBLIC "-//W3C//DTD SVG 1.1//EN"
  "http://www.w3.org/Graphics/SVG/1.1/DTD/svg11.dtd">
<svg xmlns:xlink="http://www.w3.org/1999/xlink" width="460.8pt" height="345.6pt" viewBox="0 0 460.8 345.6" xmlns="http://www.w3.org/2000/svg" version="1.1">
 <metadata>
  <rdf:RDF xmlns:dc="http://purl.org/dc/elements/1.1/" xmlns:cc="http://creativecommons.org/ns#" xmlns:rdf="http://www.w3.org/1999/02/22-rdf-syntax-ns#">
   <cc:Work>
    <dc:type rdf:resource="http://purl.org/dc/dcmitype/StillImage"/>
    <dc:date>2024-06-22T00:24:33.353695</dc:date>
    <dc:format>image/svg+xml</dc:format>
    <dc:creator>
     <cc:Agent>
      <dc:title>Matplotlib v3.7.5, https://matplotlib.org/</dc:title>
     </cc:Agent>
    </dc:creator>
   </cc:Work>
  </rdf:RDF>
 </metadata>
 <defs>
  <style type="text/css">*{stroke-linejoin: round; stroke-linecap: butt}</style>
 </defs>
 <g id="figure_1">
  <g id="patch_1">
   <path d="M 0 345.6 
L 460.8 345.6 
L 460.8 0 
L 0 0 
z
" style="fill: #ffffff"/>
  </g>
  <g id="axes_1">
   <g id="patch_2">
    <path d="M 0 293.76 
L 460.8 293.76 
L 460.8 3.456 
L 0 3.456 
z
" style="fill: #ffffff"/>
   </g>
   <g id="matplotlib.axis_1">
    <g id="xtick_1">
     <g id="line2d_1">
      <path d="M 101.493326 293.76 
L 101.493326 3.456 
" clip-path="url(#p0c802a9fcb)" style="fill: none; stroke: #b0b0b0; stroke-width: 0.8; stroke-linecap: square"/>
     </g>
     <g id="line2d_2">
      <defs>
       <path id="m57f7ba2c20" d="M 0 0 
L 0 3.5 
" style="stroke: #000000; stroke-width: 0.8"/>
      </defs>
      <g>
       <use xlink:href="#m57f7ba2c20" x="101.493326" y="293.76" style="stroke: #000000; stroke-width: 0.8"/>
      </g>
     </g>
     <g id="text_1">
      <!-- -4 -->
      <g transform="translate(91.523013 315.956875) scale(0.2 -0.2)">
       <defs>
        <path id="DejaVuSans-2d" d="M 313 2009 
L 1997 2009 
L 1997 1497 
L 313 1497 
L 313 2009 
z
" transform="scale(0.015625)"/>
        <path id="DejaVuSans-34" d="M 2419 4116 
L 825 1625 
L 2419 1625 
L 2419 4116 
z
M 2253 4666 
L 3047 4666 
L 3047 1625 
L 3713 1625 
L 3713 1100 
L 3047 1100 
L 3047 0 
L 2419 0 
L 2419 1100 
L 313 1100 
L 313 1709 
L 2253 4666 
z
" transform="scale(0.015625)"/>
       </defs>
       <use xlink:href="#DejaVuSans-2d"/>
       <use xlink:href="#DejaVuSans-34" x="36.083984"/>
      </g>
     </g>
    </g>
    <g id="xtick_2">
     <g id="line2d_3">
      <path d="M 203.096418 293.76 
L 203.096418 3.456 
" clip-path="url(#p0c802a9fcb)" style="fill: none; stroke: #b0b0b0; stroke-width: 0.8; stroke-linecap: square"/>
     </g>
     <g id="line2d_4">
      <g>
       <use xlink:href="#m57f7ba2c20" x="203.096418" y="293.76" style="stroke: #000000; stroke-width: 0.8"/>
      </g>
     </g>
     <g id="text_2">
      <!-- 0 -->
      <g transform="translate(196.733918 315.956875) scale(0.2 -0.2)">
       <defs>
        <path id="DejaVuSans-30" d="M 2034 4250 
Q 1547 4250 1301 3770 
Q 1056 3291 1056 2328 
Q 1056 1369 1301 889 
Q 1547 409 2034 409 
Q 2525 409 2770 889 
Q 3016 1369 3016 2328 
Q 3016 3291 2770 3770 
Q 2525 4250 2034 4250 
z
M 2034 4750 
Q 2819 4750 3233 4129 
Q 3647 3509 3647 2328 
Q 3647 1150 3233 529 
Q 2819 -91 2034 -91 
Q 1250 -91 836 529 
Q 422 1150 422 2328 
Q 422 3509 836 4129 
Q 1250 4750 2034 4750 
z
" transform="scale(0.015625)"/>
       </defs>
       <use xlink:href="#DejaVuSans-30"/>
      </g>
     </g>
    </g>
    <g id="xtick_3">
     <g id="line2d_5">
      <path d="M 304.699509 293.76 
L 304.699509 3.456 
" clip-path="url(#p0c802a9fcb)" style="fill: none; stroke: #b0b0b0; stroke-width: 0.8; stroke-linecap: square"/>
     </g>
     <g id="line2d_6">
      <g>
       <use xlink:href="#m57f7ba2c20" x="304.699509" y="293.76" style="stroke: #000000; stroke-width: 0.8"/>
      </g>
     </g>
     <g id="text_3">
      <!-- 4 -->
      <g transform="translate(298.337009 315.956875) scale(0.2 -0.2)">
       <use xlink:href="#DejaVuSans-34"/>
      </g>
     </g>
    </g>
    <g id="xtick_4">
     <g id="line2d_7">
      <path d="M 406.302601 293.76 
L 406.302601 3.456 
" clip-path="url(#p0c802a9fcb)" style="fill: none; stroke: #b0b0b0; stroke-width: 0.8; stroke-linecap: square"/>
     </g>
     <g id="line2d_8">
      <g>
       <use xlink:href="#m57f7ba2c20" x="406.302601" y="293.76" style="stroke: #000000; stroke-width: 0.8"/>
      </g>
     </g>
     <g id="text_4">
      <!-- 8 -->
      <g transform="translate(399.940101 315.956875) scale(0.2 -0.2)">
       <defs>
        <path id="DejaVuSans-38" d="M 2034 2216 
Q 1584 2216 1326 1975 
Q 1069 1734 1069 1313 
Q 1069 891 1326 650 
Q 1584 409 2034 409 
Q 2484 409 2743 651 
Q 3003 894 3003 1313 
Q 3003 1734 2745 1975 
Q 2488 2216 2034 2216 
z
M 1403 2484 
Q 997 2584 770 2862 
Q 544 3141 544 3541 
Q 544 4100 942 4425 
Q 1341 4750 2034 4750 
Q 2731 4750 3128 4425 
Q 3525 4100 3525 3541 
Q 3525 3141 3298 2862 
Q 3072 2584 2669 2484 
Q 3125 2378 3379 2068 
Q 3634 1759 3634 1313 
Q 3634 634 3220 271 
Q 2806 -91 2034 -91 
Q 1263 -91 848 271 
Q 434 634 434 1313 
Q 434 1759 690 2068 
Q 947 2378 1403 2484 
z
M 1172 3481 
Q 1172 3119 1398 2916 
Q 1625 2713 2034 2713 
Q 2441 2713 2670 2916 
Q 2900 3119 2900 3481 
Q 2900 3844 2670 4047 
Q 2441 4250 2034 4250 
Q 1625 4250 1398 4047 
Q 1172 3844 1172 3481 
z
" transform="scale(0.015625)"/>
       </defs>
       <use xlink:href="#DejaVuSans-38"/>
      </g>
     </g>
    </g>
    <g id="text_5">
     <!-- log10 of Df -->
     <g transform="translate(175.214063 339.313125) scale(0.2 -0.2)">
      <defs>
       <path id="DejaVuSans-6c" d="M 603 4863 
L 1178 4863 
L 1178 0 
L 603 0 
L 603 4863 
z
" transform="scale(0.015625)"/>
       <path id="DejaVuSans-6f" d="M 1959 3097 
Q 1497 3097 1228 2736 
Q 959 2375 959 1747 
Q 959 1119 1226 758 
Q 1494 397 1959 397 
Q 2419 397 2687 759 
Q 2956 1122 2956 1747 
Q 2956 2369 2687 2733 
Q 2419 3097 1959 3097 
z
M 1959 3584 
Q 2709 3584 3137 3096 
Q 3566 2609 3566 1747 
Q 3566 888 3137 398 
Q 2709 -91 1959 -91 
Q 1206 -91 779 398 
Q 353 888 353 1747 
Q 353 2609 779 3096 
Q 1206 3584 1959 3584 
z
" transform="scale(0.015625)"/>
       <path id="DejaVuSans-67" d="M 2906 1791 
Q 2906 2416 2648 2759 
Q 2391 3103 1925 3103 
Q 1463 3103 1205 2759 
Q 947 2416 947 1791 
Q 947 1169 1205 825 
Q 1463 481 1925 481 
Q 2391 481 2648 825 
Q 2906 1169 2906 1791 
z
M 3481 434 
Q 3481 -459 3084 -895 
Q 2688 -1331 1869 -1331 
Q 1566 -1331 1297 -1286 
Q 1028 -1241 775 -1147 
L 775 -588 
Q 1028 -725 1275 -790 
Q 1522 -856 1778 -856 
Q 2344 -856 2625 -561 
Q 2906 -266 2906 331 
L 2906 616 
Q 2728 306 2450 153 
Q 2172 0 1784 0 
Q 1141 0 747 490 
Q 353 981 353 1791 
Q 353 2603 747 3093 
Q 1141 3584 1784 3584 
Q 2172 3584 2450 3431 
Q 2728 3278 2906 2969 
L 2906 3500 
L 3481 3500 
L 3481 434 
z
" transform="scale(0.015625)"/>
       <path id="DejaVuSans-31" d="M 794 531 
L 1825 531 
L 1825 4091 
L 703 3866 
L 703 4441 
L 1819 4666 
L 2450 4666 
L 2450 531 
L 3481 531 
L 3481 0 
L 794 0 
L 794 531 
z
" transform="scale(0.015625)"/>
       <path id="DejaVuSans-20" transform="scale(0.015625)"/>
       <path id="DejaVuSans-66" d="M 2375 4863 
L 2375 4384 
L 1825 4384 
Q 1516 4384 1395 4259 
Q 1275 4134 1275 3809 
L 1275 3500 
L 2222 3500 
L 2222 3053 
L 1275 3053 
L 1275 0 
L 697 0 
L 697 3053 
L 147 3053 
L 147 3500 
L 697 3500 
L 697 3744 
Q 697 4328 969 4595 
Q 1241 4863 1831 4863 
L 2375 4863 
z
" transform="scale(0.015625)"/>
       <path id="DejaVuSans-44" d="M 1259 4147 
L 1259 519 
L 2022 519 
Q 2988 519 3436 956 
Q 3884 1394 3884 2338 
Q 3884 3275 3436 3711 
Q 2988 4147 2022 4147 
L 1259 4147 
z
M 628 4666 
L 1925 4666 
Q 3281 4666 3915 4102 
Q 4550 3538 4550 2338 
Q 4550 1131 3912 565 
Q 3275 0 1925 0 
L 628 0 
L 628 4666 
z
" transform="scale(0.015625)"/>
      </defs>
      <use xlink:href="#DejaVuSans-6c"/>
      <use xlink:href="#DejaVuSans-6f" x="27.783203"/>
      <use xlink:href="#DejaVuSans-67" x="88.964844"/>
      <use xlink:href="#DejaVuSans-31" x="152.441406"/>
      <use xlink:href="#DejaVuSans-30" x="216.064453"/>
      <use xlink:href="#DejaVuSans-20" x="279.6875"/>
      <use xlink:href="#DejaVuSans-6f" x="311.474609"/>
      <use xlink:href="#DejaVuSans-66" x="372.65625"/>
      <use xlink:href="#DejaVuSans-20" x="407.861328"/>
      <use xlink:href="#DejaVuSans-44" x="439.648438"/>
      <use xlink:href="#DejaVuSans-66" x="516.650391"/>
     </g>
    </g>
   </g>
   <g id="matplotlib.axis_2">
    <g id="ytick_1">
     <g id="line2d_9">
      <path d="M 0 293.76 
L 460.8 293.76 
" clip-path="url(#p0c802a9fcb)" style="fill: none; stroke: #b0b0b0; stroke-width: 0.8; stroke-linecap: square"/>
     </g>
     <g id="line2d_10">
      <defs>
       <path id="m3a1443532f" d="M 0 0 
L -3.5 0 
" style="stroke: #000000; stroke-width: 0.8"/>
      </defs>
      <g>
       <use xlink:href="#m3a1443532f" x="0" y="293.76" style="stroke: #000000; stroke-width: 0.8"/>
      </g>
     </g>
    </g>
    <g id="ytick_2">
     <g id="line2d_11">
      <path d="M 0 236.274059 
L 460.8 236.274059 
" clip-path="url(#p0c802a9fcb)" style="fill: none; stroke: #b0b0b0; stroke-width: 0.8; stroke-linecap: square"/>
     </g>
     <g id="line2d_12">
      <g>
       <use xlink:href="#m3a1443532f" x="0" y="236.274059" style="stroke: #000000; stroke-width: 0.8"/>
      </g>
     </g>
    </g>
    <g id="ytick_3">
     <g id="line2d_13">
      <path d="M 0 178.788119 
L 460.8 178.788119 
" clip-path="url(#p0c802a9fcb)" style="fill: none; stroke: #b0b0b0; stroke-width: 0.8; stroke-linecap: square"/>
     </g>
     <g id="line2d_14">
      <g>
       <use xlink:href="#m3a1443532f" x="0" y="178.788119" style="stroke: #000000; stroke-width: 0.8"/>
      </g>
     </g>
    </g>
    <g id="ytick_4">
     <g id="line2d_15">
      <path d="M 0 121.302178 
L 460.8 121.302178 
" clip-path="url(#p0c802a9fcb)" style="fill: none; stroke: #b0b0b0; stroke-width: 0.8; stroke-linecap: square"/>
     </g>
     <g id="line2d_16">
      <g>
       <use xlink:href="#m3a1443532f" x="0" y="121.302178" style="stroke: #000000; stroke-width: 0.8"/>
      </g>
     </g>
    </g>
    <g id="ytick_5">
     <g id="line2d_17">
      <path d="M 0 63.816238 
L 460.8 63.816238 
" clip-path="url(#p0c802a9fcb)" style="fill: none; stroke: #b0b0b0; stroke-width: 0.8; stroke-linecap: square"/>
     </g>
     <g id="line2d_18">
      <g>
       <use xlink:href="#m3a1443532f" x="0" y="63.816238" style="stroke: #000000; stroke-width: 0.8"/>
      </g>
     </g>
    </g>
    <g id="ytick_6">
     <g id="line2d_19">
      <path d="M 0 6.330297 
L 460.8 6.330297 
" clip-path="url(#p0c802a9fcb)" style="fill: none; stroke: #b0b0b0; stroke-width: 0.8; stroke-linecap: square"/>
     </g>
     <g id="line2d_20">
      <g>
       <use xlink:href="#m3a1443532f" x="0" y="6.330297" style="stroke: #000000; stroke-width: 0.8"/>
      </g>
     </g>
    </g>
   </g>
   <g id="line2d_21">
    <path d="M -0.109766 293.76 
L -0.109766 286.095208 
L 169.640254 286.095208 
L 169.640254 282.262812 
L 177.274728 282.262812 
L 177.274728 278.430416 
L 177.729685 278.430416 
L 177.729685 274.59802 
L 188.955034 274.59802 
L 188.955034 270.765624 
L 189.156569 270.765624 
L 189.156569 266.933228 
L 191.880533 266.933228 
L 191.880533 263.100832 
L 192.761489 263.100832 
L 192.761489 259.268436 
L 196.061754 259.268436 
L 196.061754 255.43604 
L 198.140595 255.43604 
L 198.140595 251.603644 
L 199.032707 251.603644 
L 199.032707 236.274059 
L 201.558506 236.274059 
L 201.558506 232.441663 
L 204.778213 232.441663 
L 204.778213 228.609267 
L 205.516057 228.609267 
L 205.516057 220.944475 
L 206.742444 220.944475 
L 206.831033 213.279683 
L 207.12698 213.279683 
L 207.12698 209.447287 
L 208.20754 209.447287 
L 208.20754 205.614891 
L 208.609868 205.614891 
L 208.614089 197.950099 
L 208.871023 197.950099 
L 208.871023 194.117703 
L 209.313661 194.117703 
L 209.376089 186.452911 
L 209.738712 186.452911 
L 209.738712 182.620515 
L 210.491764 182.620515 
L 210.491764 178.788119 
L 211.190266 178.788119 
L 211.190266 174.955723 
L 211.378495 174.955723 
L 211.378495 167.290931 
L 211.498744 167.290931 
L 211.5001 155.793743 
L 211.995841 155.793743 
L 212.092554 148.12895 
L 212.521686 148.12895 
L 212.521686 144.296554 
L 213.596884 144.296554 
L 213.596884 140.464158 
L 214.119085 140.464158 
L 214.119085 136.631762 
L 214.367513 136.631762 
L 214.367513 132.799366 
L 215.165412 132.799366 
L 215.165412 128.96697 
L 215.823034 128.96697 
L 215.823034 125.134574 
L 220.200383 125.134574 
L 220.200383 121.302178 
L 220.988351 121.302178 
L 220.988351 109.80499 
L 224.010898 109.80499 
L 224.010898 105.972594 
L 224.982529 105.972594 
L 225.051982 98.307802 
L 225.460413 98.307802 
L 225.460413 94.475406 
L 226.992698 94.475406 
L 227.015007 82.978218 
L 229.67386 82.978218 
L 229.67386 79.145822 
L 231.841704 79.145822 
L 231.841704 75.313426 
L 232.660421 75.313426 
L 232.660421 71.48103 
L 237.64672 71.48103 
L 237.64672 67.648634 
L 237.787837 67.648634 
L 237.787837 63.816238 
L 238.81365 63.816238 
L 238.81365 59.983842 
L 239.930097 59.983842 
L 239.930097 56.151446 
L 240.646628 56.151446 
L 240.646628 52.31905 
L 243.892617 52.31905 
L 243.892617 48.486653 
L 244.208367 48.486653 
L 244.208367 44.654257 
L 245.1908 44.654257 
L 245.1908 40.821861 
L 245.770109 40.821861 
L 245.770109 36.989465 
L 246.487876 36.989465 
L 246.534054 29.324673 
L 247.07469 29.324673 
L 247.07469 25.492277 
L 247.329927 25.492277 
L 247.41972 13.995089 
L 248.540127 13.995089 
L 248.540127 10.162693 
L 249.175774 10.162693 
L 249.175774 6.330297 
L 249.175774 6.330297 
L 460.8 6.330297 
L 460.8 6.330297 
" clip-path="url(#p0c802a9fcb)" style="fill: none; stroke: #ff0000; stroke-width: 3; stroke-linecap: square"/>
   </g>
   <g id="line2d_22">
    <path d="M 222.032497 293.76 
L 222.032497 289.927604 
L 226.845786 289.927604 
L 226.845786 286.095208 
L 228.023584 286.095208 
L 228.023584 282.262812 
L 228.37502 282.262812 
L 228.37502 278.430416 
L 229.207031 278.430416 
L 229.207031 274.59802 
L 229.502547 274.59802 
L 229.517582 263.100832 
L 230.154233 263.100832 
L 230.154233 259.268436 
L 231.309725 259.268436 
L 231.309725 255.43604 
L 232.680266 255.43604 
L 232.680266 251.603644 
L 233.292558 251.603644 
L 233.352231 243.938851 
L 233.716948 243.938851 
L 233.716948 240.106455 
L 234.083492 240.106455 
L 234.083492 236.274059 
L 249.1917 236.274059 
L 249.1917 232.441663 
L 251.719343 232.441663 
L 251.719343 228.609267 
L 251.86996 228.609267 
L 251.880209 220.944475 
L 251.982778 220.944475 
L 252.091142 205.614891 
L 252.101505 205.614891 
L 252.212567 171.123327 
L 252.220038 171.123327 
L 252.312915 121.302178 
L 287.491946 121.302178 
L 287.491946 117.469782 
L 287.763505 117.469782 
L 287.820355 109.80499 
L 287.979301 109.80499 
L 288.079514 98.307802 
L 288.136311 98.307802 
L 288.136311 94.475406 
L 288.307873 94.475406 
L 288.400211 82.978218 
L 288.449955 82.978218 
L 288.505778 75.313426 
L 288.65508 75.313426 
L 288.764759 63.816238 
L 324.406589 63.816238 
L 324.406589 59.983842 
L 326.602476 59.983842 
L 326.620796 52.31905 
L 327.74895 52.31905 
L 327.74895 48.486653 
L 329.160487 48.486653 
L 329.160487 44.654257 
L 329.291796 44.654257 
L 329.291796 40.821861 
L 331.341165 40.821861 
L 331.350606 33.157069 
L 331.645954 33.157069 
L 331.645954 29.324673 
L 331.761384 29.324673 
L 331.761384 25.492277 
L 332.673265 25.492277 
L 332.673265 21.659881 
L 333.317873 21.659881 
L 333.317873 17.827485 
L 334.984107 17.827485 
L 334.984107 13.995089 
L 335.478 13.995089 
L 335.478 10.162693 
L 335.926639 10.162693 
L 335.926639 6.330297 
L 335.926639 6.330297 
L 460.8 6.330297 
L 460.8 6.330297 
" clip-path="url(#p0c802a9fcb)" style="fill: none; stroke: #00bfbf; stroke-width: 1.5; stroke-linecap: square"/>
   </g>
   <g id="line2d_23">
    <path d="M 222.032497 293.76 
L 222.032497 289.927604 
L 225.428315 289.927604 
L 225.428315 286.095208 
L 226.845786 286.095208 
L 226.845786 282.262812 
L 227.755863 282.262812 
L 227.80724 274.59802 
L 228.023584 274.59802 
L 228.023584 270.765624 
L 228.179106 270.765624 
L 228.179106 266.933228 
L 228.37502 266.933228 
L 228.37502 263.100832 
L 228.68278 263.100832 
L 228.68278 259.268436 
L 228.877759 259.268436 
L 228.964818 251.603644 
L 229.207031 251.603644 
L 229.207031 247.771248 
L 229.781732 247.771248 
L 229.781732 243.938851 
L 232.193852 243.938851 
L 232.193852 240.106455 
L 233.352231 240.106455 
L 233.352231 236.274059 
L 249.1917 236.274059 
L 249.1917 232.441663 
L 251.198537 232.441663 
L 251.290541 224.776871 
L 251.384101 224.776871 
L 251.441374 217.112079 
L 251.534172 217.112079 
L 251.577493 209.447287 
L 251.660236 209.447287 
L 251.769569 190.285307 
L 251.86996 190.285307 
L 251.968842 163.458535 
L 252.041411 163.458535 
L 252.152152 144.296554 
L 252.158338 144.296554 
L 252.266229 125.134574 
L 252.28725 125.134574 
L 252.28725 121.302178 
L 271.383654 121.302178 
L 271.383654 117.469782 
L 271.952702 117.469782 
L 271.952702 113.637386 
L 272.618009 113.637386 
L 272.618009 109.80499 
L 272.98279 109.80499 
L 272.98279 105.972594 
L 273.418901 105.972594 
L 273.418901 102.140198 
L 273.620902 102.140198 
L 273.726199 94.475406 
L 273.735989 94.475406 
L 273.735989 90.64301 
L 274.116989 90.64301 
L 274.221214 82.978218 
L 274.721504 82.978218 
L 274.782887 71.48103 
L 274.863454 71.48103 
L 274.863454 67.648634 
L 275.034253 67.648634 
L 275.034253 63.816238 
L 310.318062 63.816238 
L 310.318062 59.983842 
L 320.283908 59.983842 
L 320.283908 56.151446 
L 323.766966 56.151446 
L 323.766966 52.31905 
L 324.406589 52.31905 
L 324.406589 48.486653 
L 326.602476 48.486653 
L 326.620796 40.821861 
L 327.634425 40.821861 
L 327.634425 36.989465 
L 327.74895 36.989465 
L 327.74895 33.157069 
L 328.424062 33.157069 
L 328.424062 29.324673 
L 329.015117 29.324673 
L 329.015117 25.492277 
L 331.761384 25.492277 
L 331.812264 17.827485 
L 333.317873 17.827485 
L 333.317873 13.995089 
L 334.984107 13.995089 
L 334.984107 10.162693 
L 335.478 10.162693 
L 335.478 6.330297 
L 335.478 6.330297 
L 460.8 6.330297 
L 460.8 6.330297 
" clip-path="url(#p0c802a9fcb)" style="fill: none; stroke: #bf00bf; stroke-width: 1.5; stroke-linecap: square"/>
   </g>
   <g id="line2d_24">
    <path d="M 221.949596 293.76 
L 222.032497 286.095208 
L 223.327268 286.095208 
L 223.327268 282.262812 
L 223.520807 282.262812 
L 223.520807 278.430416 
L 223.84858 278.430416 
L 223.84858 274.59802 
L 224.609143 274.59802 
L 224.609143 270.765624 
L 225.428315 270.765624 
L 225.428315 266.933228 
L 226.845786 266.933228 
L 226.845786 263.100832 
L 227.461517 263.100832 
L 227.461517 259.268436 
L 227.592062 259.268436 
L 227.592062 255.43604 
L 227.755863 255.43604 
L 227.834832 247.771248 
L 228.037705 247.771248 
L 228.037705 243.938851 
L 228.179106 243.938851 
L 228.179106 240.106455 
L 228.964818 240.106455 
L 228.964818 236.274059 
L 249.1917 236.274059 
L 249.1917 232.441663 
L 250.423317 232.441663 
L 250.423317 228.609267 
L 250.584328 228.609267 
L 250.584328 224.776871 
L 250.971465 224.776871 
L 251.021762 209.447287 
L 251.198537 209.447287 
L 251.290541 197.950099 
L 251.399226 197.950099 
L 251.477495 186.452911 
L 251.511129 186.452911 
L 251.538714 171.123327 
L 251.660236 171.123327 
L 251.758076 155.793743 
L 251.786504 155.793743 
L 251.871014 140.464158 
L 251.962495 140.464158 
L 252.057018 121.302178 
L 270.591369 121.302178 
L 270.591369 117.469782 
L 271.383654 117.469782 
L 271.383654 113.637386 
L 271.952702 113.637386 
L 271.952702 109.80499 
L 272.618009 109.80499 
L 272.618009 105.972594 
L 272.806558 105.972594 
L 272.806558 102.140198 
L 272.98279 102.140198 
L 272.98279 98.307802 
L 273.487321 98.307802 
L 273.487321 94.475406 
L 273.620902 94.475406 
L 273.726199 86.810614 
L 273.735989 86.810614 
L 273.735989 82.978218 
L 273.901884 82.978218 
L 273.901884 79.145822 
L 274.116989 79.145822 
L 274.130904 71.48103 
L 274.467472 71.48103 
L 274.467472 67.648634 
L 274.863454 67.648634 
L 274.863454 63.816238 
L 310.318062 63.816238 
L 310.318062 59.983842 
L 319.044336 59.983842 
L 319.044336 56.151446 
L 320.162451 56.151446 
L 320.162451 52.31905 
L 320.283908 52.31905 
L 320.283908 48.486653 
L 320.965273 48.486653 
L 320.965273 44.654257 
L 321.359615 44.654257 
L 321.359615 40.821861 
L 322.254181 40.821861 
L 322.254181 36.989465 
L 322.566903 36.989465 
L 322.566903 33.157069 
L 324.513555 33.157069 
L 324.513555 29.324673 
L 325.235908 29.324673 
L 325.235908 25.492277 
L 326.274864 25.492277 
L 326.274864 21.659881 
L 326.672895 21.659881 
L 326.672895 17.827485 
L 326.79559 17.827485 
L 326.79559 13.995089 
L 327.728735 13.995089 
L 327.728735 10.162693 
L 328.415652 10.162693 
L 328.415652 6.330297 
L 328.415652 6.330297 
L 460.8 6.330297 
L 460.8 6.330297 
" clip-path="url(#p0c802a9fcb)" style="fill: none; stroke: #000000; stroke-width: 1.5; stroke-linecap: square"/>
   </g>
   <g id="line2d_25">
    <path d="M 216.72571 293.76 
L 216.72571 289.927604 
L 220.974884 289.927604 
L 220.974884 286.095208 
L 221.631323 286.095208 
L 221.631323 282.262812 
L 222.004512 282.262812 
L 222.032497 274.59802 
L 222.588534 274.59802 
L 222.61363 266.933228 
L 222.849336 266.933228 
L 222.849336 263.100832 
L 223.389572 263.100832 
L 223.389572 259.268436 
L 223.520807 259.268436 
L 223.520807 255.43604 
L 223.700466 255.43604 
L 223.700466 251.603644 
L 224.149957 251.603644 
L 224.235761 243.938851 
L 224.609143 243.938851 
L 224.609143 240.106455 
L 225.198268 240.106455 
L 225.198268 236.274059 
L 236.779312 236.274059 
L 236.779312 232.441663 
L 239.603856 232.441663 
L 239.603856 228.609267 
L 239.968364 228.609267 
L 239.968364 224.776871 
L 243.31143 224.776871 
L 243.31143 220.944475 
L 243.527468 220.944475 
L 243.527468 217.112079 
L 244.012309 217.112079 
L 244.012309 213.279683 
L 244.273904 213.279683 
L 244.273904 209.447287 
L 244.866567 209.447287 
L 244.866567 205.614891 
L 246.460245 205.614891 
L 246.494708 197.950099 
L 246.696715 197.950099 
L 246.696715 194.117703 
L 246.889515 194.117703 
L 246.889515 190.285307 
L 247.496038 190.285307 
L 247.496038 186.452911 
L 247.626801 186.452911 
L 247.626801 182.620515 
L 247.76397 182.620515 
L 247.76397 178.788119 
L 248.179734 178.788119 
L 248.179734 174.955723 
L 248.30056 174.955723 
L 248.30056 171.123327 
L 248.44817 171.123327 
L 248.44817 167.290931 
L 248.856718 167.290931 
L 248.856718 163.458535 
L 248.973237 163.458535 
L 248.973237 159.626139 
L 249.340522 159.626139 
L 249.35551 151.961347 
L 249.476967 151.961347 
L 249.570363 140.464158 
L 249.633516 140.464158 
L 249.681517 132.799366 
L 249.859582 132.799366 
L 249.859582 128.96697 
L 250.07026 128.96697 
L 250.07026 125.134574 
L 250.439888 125.134574 
L 250.439888 121.302178 
L 264.1589 121.302178 
L 264.1589 117.469782 
L 264.36089 117.469782 
L 264.430295 109.80499 
L 265.049532 109.80499 
L 265.049532 105.972594 
L 265.498356 105.972594 
L 265.498356 102.140198 
L 265.757711 102.140198 
L 265.757711 98.307802 
L 265.886737 98.307802 
L 265.886737 94.475406 
L 266.046994 94.475406 
L 266.135967 86.810614 
L 266.43141 86.810614 
L 266.536179 79.145822 
L 266.719403 79.145822 
L 266.719403 75.313426 
L 267.509302 75.313426 
L 267.509302 71.48103 
L 268.187165 71.48103 
L 268.187165 67.648634 
L 268.515773 67.648634 
L 268.515773 63.816238 
L 282.00792 63.816238 
L 282.00792 59.983842 
L 290.398722 59.983842 
L 290.398722 56.151446 
L 291.301 56.151446 
L 291.301 52.31905 
L 295.599539 52.31905 
L 295.599539 48.486653 
L 297.241868 48.486653 
L 297.241868 44.654257 
L 302.101926 44.654257 
L 302.101926 40.821861 
L 304.687075 40.821861 
L 304.687075 36.989465 
L 305.119155 36.989465 
L 305.119155 33.157069 
L 305.322952 33.157069 
L 305.322952 29.324673 
L 306.203686 29.324673 
L 306.203686 25.492277 
L 306.397532 25.492277 
L 306.397532 21.659881 
L 306.608858 21.659881 
L 306.608858 17.827485 
L 307.239293 17.827485 
L 307.239293 13.995089 
L 311.339691 13.995089 
L 311.339691 10.162693 
L 312.457591 10.162693 
L 312.457591 6.330297 
L 312.457591 6.330297 
L 460.8 6.330297 
L 460.8 6.330297 
" clip-path="url(#p0c802a9fcb)" style="fill: none; stroke: #00bfbf; stroke-width: 1.5; stroke-linecap: square"/>
   </g>
   <g id="line2d_26">
    <path d="M -1 289.927604 
L 25.297045 289.927604 
L 25.297045 286.095208 
L 199.032783 286.095208 
L 199.034095 270.765624 
L 205.516214 270.765624 
L 205.516438 263.100832 
L 206.153529 263.100832 
L 206.153529 259.268436 
L 206.756499 259.268436 
L 206.756499 255.43604 
L 207.411075 255.43604 
L 207.411075 251.603644 
L 208.273437 251.603644 
L 208.273437 247.771248 
L 209.000305 247.771248 
L 209.059621 240.106455 
L 209.350012 240.106455 
L 209.350012 236.274059 
L 209.612764 236.274059 
L 209.612764 232.441663 
L 209.752911 232.441663 
L 209.752911 228.609267 
L 210.491772 228.609267 
L 210.491772 224.776871 
L 211.28871 224.776871 
L 211.378518 213.279683 
L 211.518339 213.279683 
L 211.518567 205.614891 
L 211.634785 205.614891 
L 211.634785 201.782495 
L 212.023843 201.782495 
L 212.023843 197.950099 
L 213.402731 197.950099 
L 213.402731 194.117703 
L 213.597252 194.117703 
L 213.597252 190.285307 
L 213.872311 190.285307 
L 213.890751 182.620515 
L 214.291256 182.620515 
L 214.367587 174.955723 
L 215.161757 174.955723 
L 215.161757 171.123327 
L 215.2818 171.123327 
L 215.2818 167.290931 
L 215.513482 167.290931 
L 215.513482 163.458535 
L 215.76158 163.458535 
L 215.824985 155.793743 
L 216.629005 155.793743 
L 216.72571 148.12895 
L 217.058697 148.12895 
L 217.058697 144.296554 
L 217.600906 144.296554 
L 217.600906 140.464158 
L 217.833288 140.464158 
L 217.833288 136.631762 
L 218.395724 136.631762 
L 218.395724 132.799366 
L 218.528585 132.799366 
L 218.528585 128.96697 
L 220.185689 128.96697 
L 220.200593 121.302178 
L 220.988385 121.302178 
L 220.988621 109.80499 
L 224.010938 109.80499 
L 224.010938 105.972594 
L 224.98255 105.972594 
L 225.051988 98.307802 
L 225.460428 98.307802 
L 225.460428 94.475406 
L 226.994519 94.475406 
L 227.020153 82.978218 
L 229.673872 82.978218 
L 229.673872 79.145822 
L 231.84174 79.145822 
L 231.84174 75.313426 
L 232.660423 75.313426 
L 232.660423 71.48103 
L 238.813652 71.48103 
L 238.813652 67.648634 
L 240.646637 67.648634 
L 240.646637 63.816238 
L 256.21738 63.816238 
L 256.21738 59.983842 
L 257.187448 59.983842 
L 257.187448 56.151446 
L 257.673409 56.151446 
L 257.776455 48.486653 
L 257.828436 48.486653 
L 257.863525 40.821861 
L 258.066443 40.821861 
L 258.066443 36.989465 
L 258.215417 36.989465 
L 258.215417 33.157069 
L 258.361018 33.157069 
L 258.361018 29.324673 
L 258.573014 29.324673 
L 258.625384 21.659881 
L 258.730778 21.659881 
L 258.730778 17.827485 
L 258.902608 17.827485 
L 258.902608 13.995089 
L 259.449812 13.995089 
L 259.449812 10.162693 
L 260.587254 10.162693 
L 260.587254 6.330297 
L 260.587254 6.330297 
L 460.8 6.330297 
L 460.8 6.330297 
" clip-path="url(#p0c802a9fcb)" style="fill: none; stroke: #bf00bf; stroke-width: 1.5; stroke-linecap: square"/>
   </g>
   <g id="line2d_27">
    <path d="M -0.109766 293.76 
L -0.109766 286.095208 
L 169.640254 286.095208 
L 169.640254 282.262812 
L 177.274728 282.262812 
L 177.274728 278.430416 
L 177.729685 278.430416 
L 177.729685 274.59802 
L 188.955034 274.59802 
L 188.955034 270.765624 
L 189.156569 270.765624 
L 189.156569 266.933228 
L 191.880533 266.933228 
L 191.880533 263.100832 
L 192.761489 263.100832 
L 192.761489 259.268436 
L 196.061754 259.268436 
L 196.061754 255.43604 
L 198.140595 255.43604 
L 198.140595 251.603644 
L 199.032707 251.603644 
L 199.032707 236.274059 
L 201.558506 236.274059 
L 201.558506 232.441663 
L 204.778213 232.441663 
L 204.778213 228.609267 
L 205.516057 228.609267 
L 205.516057 220.944475 
L 206.742444 220.944475 
L 206.831033 213.279683 
L 207.12698 213.279683 
L 207.12698 209.447287 
L 208.20754 209.447287 
L 208.20754 205.614891 
L 208.609868 205.614891 
L 208.614089 197.950099 
L 208.871023 197.950099 
L 208.871023 194.117703 
L 209.313661 194.117703 
L 209.376089 186.452911 
L 209.738712 186.452911 
L 209.738712 182.620515 
L 210.491764 182.620515 
L 210.491764 178.788119 
L 211.190266 178.788119 
L 211.190266 174.955723 
L 211.378495 174.955723 
L 211.378495 167.290931 
L 211.498744 167.290931 
L 211.5001 155.793743 
L 211.995841 155.793743 
L 212.092554 148.12895 
L 212.521686 148.12895 
L 212.521686 144.296554 
L 213.596884 144.296554 
L 213.596884 140.464158 
L 214.119085 140.464158 
L 214.119085 136.631762 
L 214.367513 136.631762 
L 214.367513 132.799366 
L 215.165412 132.799366 
L 215.165412 128.96697 
L 215.823034 128.96697 
L 215.823034 125.134574 
L 220.200383 125.134574 
L 220.200383 121.302178 
L 220.988351 121.302178 
L 220.988351 109.80499 
L 224.010898 109.80499 
L 224.010898 105.972594 
L 224.982529 105.972594 
L 225.051982 98.307802 
L 225.460413 98.307802 
L 225.460413 94.475406 
L 226.992698 94.475406 
L 227.015007 82.978218 
L 229.67386 82.978218 
L 229.67386 79.145822 
L 231.841704 79.145822 
L 231.841704 75.313426 
L 232.660421 75.313426 
L 232.660421 71.48103 
L 237.64672 71.48103 
L 237.64672 67.648634 
L 237.787837 67.648634 
L 237.787837 63.816238 
L 238.81365 63.816238 
L 238.81365 59.983842 
L 239.930097 59.983842 
L 239.930097 56.151446 
L 240.646628 56.151446 
L 240.646628 52.31905 
L 243.892617 52.31905 
L 243.892617 48.486653 
L 244.208367 48.486653 
L 244.208367 44.654257 
L 245.1908 44.654257 
L 245.1908 40.821861 
L 245.770109 40.821861 
L 245.770109 36.989465 
L 246.487876 36.989465 
L 246.534054 29.324673 
L 247.07469 29.324673 
L 247.07469 25.492277 
L 247.329927 25.492277 
L 247.41972 13.995089 
L 248.540127 13.995089 
L 248.540127 10.162693 
L 249.175774 10.162693 
L 249.175774 6.330297 
L 249.175774 6.330297 
L 460.8 6.330297 
L 460.8 6.330297 
" clip-path="url(#p0c802a9fcb)" style="fill: none; stroke: #000000; stroke-width: 1.5; stroke-linecap: square"/>
   </g>
   <g id="patch_3">
    <path d="M 0 293.76 
L 0 3.456 
" style="fill: none; stroke: #000000; stroke-width: 0.8; stroke-linejoin: miter; stroke-linecap: square"/>
   </g>
   <g id="patch_4">
    <path d="M 460.8 293.76 
L 460.8 3.456 
" style="fill: none; stroke: #000000; stroke-width: 0.8; stroke-linejoin: miter; stroke-linecap: square"/>
   </g>
   <g id="patch_5">
    <path d="M 0 293.76 
L 460.8 293.76 
" style="fill: none; stroke: #000000; stroke-width: 0.8; stroke-linejoin: miter; stroke-linecap: square"/>
   </g>
   <g id="patch_6">
    <path d="M 0 3.456 
L 460.8 3.456 
" style="fill: none; stroke: #000000; stroke-width: 0.8; stroke-linejoin: miter; stroke-linecap: square"/>
   </g>
   <g id="text_6">
    <!-- {f20-f24}, 20-D -->
    <g transform="translate(293.159 287.95392) scale(0.2 -0.2)">
     <defs>
      <path id="DejaVuSans-7b" d="M 3272 -594 
L 3272 -1044 
L 3078 -1044 
Q 2300 -1044 2036 -812 
Q 1772 -581 1772 109 
L 1772 856 
Q 1772 1328 1603 1509 
Q 1434 1691 991 1691 
L 800 1691 
L 800 2138 
L 991 2138 
Q 1438 2138 1605 2317 
Q 1772 2497 1772 2963 
L 1772 3713 
Q 1772 4403 2036 4633 
Q 2300 4863 3078 4863 
L 3272 4863 
L 3272 4416 
L 3059 4416 
Q 2619 4416 2484 4278 
Q 2350 4141 2350 3700 
L 2350 2925 
Q 2350 2434 2208 2212 
Q 2066 1991 1722 1913 
Q 2069 1828 2209 1606 
Q 2350 1384 2350 897 
L 2350 122 
Q 2350 -319 2484 -456 
Q 2619 -594 3059 -594 
L 3272 -594 
z
" transform="scale(0.015625)"/>
      <path id="DejaVuSans-32" d="M 1228 531 
L 3431 531 
L 3431 0 
L 469 0 
L 469 531 
Q 828 903 1448 1529 
Q 2069 2156 2228 2338 
Q 2531 2678 2651 2914 
Q 2772 3150 2772 3378 
Q 2772 3750 2511 3984 
Q 2250 4219 1831 4219 
Q 1534 4219 1204 4116 
Q 875 4013 500 3803 
L 500 4441 
Q 881 4594 1212 4672 
Q 1544 4750 1819 4750 
Q 2544 4750 2975 4387 
Q 3406 4025 3406 3419 
Q 3406 3131 3298 2873 
Q 3191 2616 2906 2266 
Q 2828 2175 2409 1742 
Q 1991 1309 1228 531 
z
" transform="scale(0.015625)"/>
      <path id="DejaVuSans-7d" d="M 800 -594 
L 1019 -594 
Q 1456 -594 1589 -459 
Q 1722 -325 1722 122 
L 1722 897 
Q 1722 1384 1862 1606 
Q 2003 1828 2350 1913 
Q 2003 1991 1862 2212 
Q 1722 2434 1722 2925 
L 1722 3700 
Q 1722 4144 1589 4280 
Q 1456 4416 1019 4416 
L 800 4416 
L 800 4863 
L 997 4863 
Q 1775 4863 2036 4633 
Q 2297 4403 2297 3713 
L 2297 2963 
Q 2297 2497 2465 2317 
Q 2634 2138 3078 2138 
L 3272 2138 
L 3272 1691 
L 3078 1691 
Q 2634 1691 2465 1509 
Q 2297 1328 2297 856 
L 2297 109 
Q 2297 -581 2036 -812 
Q 1775 -1044 997 -1044 
L 800 -1044 
L 800 -594 
z
" transform="scale(0.015625)"/>
      <path id="DejaVuSans-2c" d="M 750 794 
L 1409 794 
L 1409 256 
L 897 -744 
L 494 -744 
L 750 256 
L 750 794 
z
" transform="scale(0.015625)"/>
     </defs>
     <use xlink:href="#DejaVuSans-7b"/>
     <use xlink:href="#DejaVuSans-66" x="63.623047"/>
     <use xlink:href="#DejaVuSans-32" x="98.828125"/>
     <use xlink:href="#DejaVuSans-30" x="162.451172"/>
     <use xlink:href="#DejaVuSans-2d" x="226.074219"/>
     <use xlink:href="#DejaVuSans-66" x="262.158203"/>
     <use xlink:href="#DejaVuSans-32" x="297.363281"/>
     <use xlink:href="#DejaVuSans-34" x="360.986328"/>
     <use xlink:href="#DejaVuSans-7d" x="424.609375"/>
     <use xlink:href="#DejaVuSans-2c" x="488.232422"/>
     <use xlink:href="#DejaVuSans-20" x="520.019531"/>
     <use xlink:href="#DejaVuSans-32" x="551.806641"/>
     <use xlink:href="#DejaVuSans-30" x="615.429688"/>
     <use xlink:href="#DejaVuSans-2d" x="679.052734"/>
     <use xlink:href="#DejaVuSans-44" x="715.136719"/>
    </g>
   </g>
   <g id="text_7">
    <!-- v2.6.3 -->
    <g style="fill: #808080" transform="translate(214.71875 288.777272) scale(0.1 -0.1)">
     <defs>
      <path id="DejaVuSans-76" d="M 191 3500 
L 800 3500 
L 1894 563 
L 2988 3500 
L 3597 3500 
L 2284 0 
L 1503 0 
L 191 3500 
z
" transform="scale(0.015625)"/>
      <path id="DejaVuSans-2e" d="M 684 794 
L 1344 794 
L 1344 0 
L 684 0 
L 684 794 
z
" transform="scale(0.015625)"/>
      <path id="DejaVuSans-36" d="M 2113 2584 
Q 1688 2584 1439 2293 
Q 1191 2003 1191 1497 
Q 1191 994 1439 701 
Q 1688 409 2113 409 
Q 2538 409 2786 701 
Q 3034 994 3034 1497 
Q 3034 2003 2786 2293 
Q 2538 2584 2113 2584 
z
M 3366 4563 
L 3366 3988 
Q 3128 4100 2886 4159 
Q 2644 4219 2406 4219 
Q 1781 4219 1451 3797 
Q 1122 3375 1075 2522 
Q 1259 2794 1537 2939 
Q 1816 3084 2150 3084 
Q 2853 3084 3261 2657 
Q 3669 2231 3669 1497 
Q 3669 778 3244 343 
Q 2819 -91 2113 -91 
Q 1303 -91 875 529 
Q 447 1150 447 2328 
Q 447 3434 972 4092 
Q 1497 4750 2381 4750 
Q 2619 4750 2861 4703 
Q 3103 4656 3366 4563 
z
" transform="scale(0.015625)"/>
      <path id="DejaVuSans-33" d="M 2597 2516 
Q 3050 2419 3304 2112 
Q 3559 1806 3559 1356 
Q 3559 666 3084 287 
Q 2609 -91 1734 -91 
Q 1441 -91 1130 -33 
Q 819 25 488 141 
L 488 750 
Q 750 597 1062 519 
Q 1375 441 1716 441 
Q 2309 441 2620 675 
Q 2931 909 2931 1356 
Q 2931 1769 2642 2001 
Q 2353 2234 1838 2234 
L 1294 2234 
L 1294 2753 
L 1863 2753 
Q 2328 2753 2575 2939 
Q 2822 3125 2822 3475 
Q 2822 3834 2567 4026 
Q 2313 4219 1838 4219 
Q 1578 4219 1281 4162 
Q 984 4106 628 3988 
L 628 4550 
Q 988 4650 1302 4700 
Q 1616 4750 1894 4750 
Q 2613 4750 3031 4423 
Q 3450 4097 3450 3541 
Q 3450 3153 3228 2886 
Q 3006 2619 2597 2516 
z
" transform="scale(0.015625)"/>
     </defs>
     <use xlink:href="#DejaVuSans-76"/>
     <use xlink:href="#DejaVuSans-32" x="59.179688"/>
     <use xlink:href="#DejaVuSans-2e" x="122.802734"/>
     <use xlink:href="#DejaVuSans-36" x="154.589844"/>
     <use xlink:href="#DejaVuSans-2e" x="218.212891"/>
     <use xlink:href="#DejaVuSans-33" x="250"/>
    </g>
   </g>
  </g>
 </g>
 <defs>
  <clipPath id="p0c802a9fcb">
   <rect x="0" y="3.456" width="460.8" height="290.304"/>
  </clipPath>
 </defs>
</svg>
