<?xml version="1.0" encoding="utf-8" standalone="no"?>
<!DOCTYPE svg PUBLIC "-//W3C//DTD SVG 1.1//EN"
  "http://www.w3.org/Graphics/SVG/1.1/DTD/svg11.dtd">
<svg xmlns:xlink="http://www.w3.org/1999/xlink" width="460.8pt" height="345.6pt" viewBox="0 0 460.8 345.6" xmlns="http://www.w3.org/2000/svg" version="1.1">
 <metadata>
  <rdf:RDF xmlns:dc="http://purl.org/dc/elements/1.1/" xmlns:cc="http://creativecommons.org/ns#" xmlns:rdf="http://www.w3.org/1999/02/22-rdf-syntax-ns#">
   <cc:Work>
    <dc:type rdf:resource="http://purl.org/dc/dcmitype/StillImage"/>
    <dc:date>2024-06-22T00:24:28.473237</dc:date>
    <dc:format>image/svg+xml</dc:format>
    <dc:creator>
     <cc:Agent>
      <dc:title>Matplotlib v3.7.5, https://matplotlib.org/</dc:title>
     </cc:Agent>
    </dc:creator>
   </cc:Work>
  </rdf:RDF>
 </metadata>
 <defs>
  <style type="text/css">*{stroke-linejoin: round; stroke-linecap: butt}</style>
 </defs>
 <g id="figure_1">
  <g id="patch_1">
   <path d="M 0 345.6 
L 460.8 345.6 
L 460.8 0 
L 0 0 
z
" style="fill: #ffffff"/>
  </g>
  <g id="axes_1">
   <g id="patch_2">
    <path d="M 0 293.76 
L 460.8 293.76 
L 460.8 3.456 
L 0 3.456 
z
" style="fill: #ffffff"/>
   </g>
   <g id="matplotlib.axis_1">
    <g id="xtick_1">
     <g id="line2d_1">
      <path d="M 93.564167 293.76 
L 93.564167 3.456 
" clip-path="url(#p4e1cddb9bf)" style="fill: none; stroke: #b0b0b0; stroke-width: 0.8; stroke-linecap: square"/>
     </g>
     <g id="line2d_2">
      <defs>
       <path id="m3956bd8b9f" d="M 0 0 
L 0 3.5 
" style="stroke: #000000; stroke-width: 0.8"/>
      </defs>
      <g>
       <use xlink:href="#m3956bd8b9f" x="93.564167" y="293.76" style="stroke: #000000; stroke-width: 0.8"/>
      </g>
     </g>
     <g id="text_1">
      <!-- -4 -->
      <g transform="translate(83.593854 315.956875) scale(0.2 -0.2)">
       <defs>
        <path id="DejaVuSans-2d" d="M 313 2009 
L 1997 2009 
L 1997 1497 
L 313 1497 
L 313 2009 
z
" transform="scale(0.015625)"/>
        <path id="DejaVuSans-34" d="M 2419 4116 
L 825 1625 
L 2419 1625 
L 2419 4116 
z
M 2253 4666 
L 3047 4666 
L 3047 1625 
L 3713 1625 
L 3713 1100 
L 3047 1100 
L 3047 0 
L 2419 0 
L 2419 1100 
L 313 1100 
L 313 1709 
L 2253 4666 
z
" transform="scale(0.015625)"/>
       </defs>
       <use xlink:href="#DejaVuSans-2d"/>
       <use xlink:href="#DejaVuSans-34" x="36.083984"/>
      </g>
     </g>
    </g>
    <g id="xtick_2">
     <g id="line2d_3">
      <path d="M 187.229525 293.76 
L 187.229525 3.456 
" clip-path="url(#p4e1cddb9bf)" style="fill: none; stroke: #b0b0b0; stroke-width: 0.8; stroke-linecap: square"/>
     </g>
     <g id="line2d_4">
      <g>
       <use xlink:href="#m3956bd8b9f" x="187.229525" y="293.76" style="stroke: #000000; stroke-width: 0.8"/>
      </g>
     </g>
     <g id="text_2">
      <!-- 0 -->
      <g transform="translate(180.867025 315.956875) scale(0.2 -0.2)">
       <defs>
        <path id="DejaVuSans-30" d="M 2034 4250 
Q 1547 4250 1301 3770 
Q 1056 3291 1056 2328 
Q 1056 1369 1301 889 
Q 1547 409 2034 409 
Q 2525 409 2770 889 
Q 3016 1369 3016 2328 
Q 3016 3291 2770 3770 
Q 2525 4250 2034 4250 
z
M 2034 4750 
Q 2819 4750 3233 4129 
Q 3647 3509 3647 2328 
Q 3647 1150 3233 529 
Q 2819 -91 2034 -91 
Q 1250 -91 836 529 
Q 422 1150 422 2328 
Q 422 3509 836 4129 
Q 1250 4750 2034 4750 
z
" transform="scale(0.015625)"/>
       </defs>
       <use xlink:href="#DejaVuSans-30"/>
      </g>
     </g>
    </g>
    <g id="xtick_3">
     <g id="line2d_5">
      <path d="M 280.894882 293.76 
L 280.894882 3.456 
" clip-path="url(#p4e1cddb9bf)" style="fill: none; stroke: #b0b0b0; stroke-width: 0.8; stroke-linecap: square"/>
     </g>
     <g id="line2d_6">
      <g>
       <use xlink:href="#m3956bd8b9f" x="280.894882" y="293.76" style="stroke: #000000; stroke-width: 0.8"/>
      </g>
     </g>
     <g id="text_3">
      <!-- 4 -->
      <g transform="translate(274.532382 315.956875) scale(0.2 -0.2)">
       <use xlink:href="#DejaVuSans-34"/>
      </g>
     </g>
    </g>
    <g id="xtick_4">
     <g id="line2d_7">
      <path d="M 374.56024 293.76 
L 374.56024 3.456 
" clip-path="url(#p4e1cddb9bf)" style="fill: none; stroke: #b0b0b0; stroke-width: 0.8; stroke-linecap: square"/>
     </g>
     <g id="line2d_8">
      <g>
       <use xlink:href="#m3956bd8b9f" x="374.56024" y="293.76" style="stroke: #000000; stroke-width: 0.8"/>
      </g>
     </g>
     <g id="text_4">
      <!-- 8 -->
      <g transform="translate(368.19774 315.956875) scale(0.2 -0.2)">
       <defs>
        <path id="DejaVuSans-38" d="M 2034 2216 
Q 1584 2216 1326 1975 
Q 1069 1734 1069 1313 
Q 1069 891 1326 650 
Q 1584 409 2034 409 
Q 2484 409 2743 651 
Q 3003 894 3003 1313 
Q 3003 1734 2745 1975 
Q 2488 2216 2034 2216 
z
M 1403 2484 
Q 997 2584 770 2862 
Q 544 3141 544 3541 
Q 544 4100 942 4425 
Q 1341 4750 2034 4750 
Q 2731 4750 3128 4425 
Q 3525 4100 3525 3541 
Q 3525 3141 3298 2862 
Q 3072 2584 2669 2484 
Q 3125 2378 3379 2068 
Q 3634 1759 3634 1313 
Q 3634 634 3220 271 
Q 2806 -91 2034 -91 
Q 1263 -91 848 271 
Q 434 634 434 1313 
Q 434 1759 690 2068 
Q 947 2378 1403 2484 
z
M 1172 3481 
Q 1172 3119 1398 2916 
Q 1625 2713 2034 2713 
Q 2441 2713 2670 2916 
Q 2900 3119 2900 3481 
Q 2900 3844 2670 4047 
Q 2441 4250 2034 4250 
Q 1625 4250 1398 4047 
Q 1172 3844 1172 3481 
z
" transform="scale(0.015625)"/>
       </defs>
       <use xlink:href="#DejaVuSans-38"/>
      </g>
     </g>
    </g>
    <g id="text_5">
     <!-- log10 of Df -->
     <g transform="translate(175.214063 339.313125) scale(0.2 -0.2)">
      <defs>
       <path id="DejaVuSans-6c" d="M 603 4863 
L 1178 4863 
L 1178 0 
L 603 0 
L 603 4863 
z
" transform="scale(0.015625)"/>
       <path id="DejaVuSans-6f" d="M 1959 3097 
Q 1497 3097 1228 2736 
Q 959 2375 959 1747 
Q 959 1119 1226 758 
Q 1494 397 1959 397 
Q 2419 397 2687 759 
Q 2956 1122 2956 1747 
Q 2956 2369 2687 2733 
Q 2419 3097 1959 3097 
z
M 1959 3584 
Q 2709 3584 3137 3096 
Q 3566 2609 3566 1747 
Q 3566 888 3137 398 
Q 2709 -91 1959 -91 
Q 1206 -91 779 398 
Q 353 888 353 1747 
Q 353 2609 779 3096 
Q 1206 3584 1959 3584 
z
" transform="scale(0.015625)"/>
       <path id="DejaVuSans-67" d="M 2906 1791 
Q 2906 2416 2648 2759 
Q 2391 3103 1925 3103 
Q 1463 3103 1205 2759 
Q 947 2416 947 1791 
Q 947 1169 1205 825 
Q 1463 481 1925 481 
Q 2391 481 2648 825 
Q 2906 1169 2906 1791 
z
M 3481 434 
Q 3481 -459 3084 -895 
Q 2688 -1331 1869 -1331 
Q 1566 -1331 1297 -1286 
Q 1028 -1241 775 -1147 
L 775 -588 
Q 1028 -725 1275 -790 
Q 1522 -856 1778 -856 
Q 2344 -856 2625 -561 
Q 2906 -266 2906 331 
L 2906 616 
Q 2728 306 2450 153 
Q 2172 0 1784 0 
Q 1141 0 747 490 
Q 353 981 353 1791 
Q 353 2603 747 3093 
Q 1141 3584 1784 3584 
Q 2172 3584 2450 3431 
Q 2728 3278 2906 2969 
L 2906 3500 
L 3481 3500 
L 3481 434 
z
" transform="scale(0.015625)"/>
       <path id="DejaVuSans-31" d="M 794 531 
L 1825 531 
L 1825 4091 
L 703 3866 
L 703 4441 
L 1819 4666 
L 2450 4666 
L 2450 531 
L 3481 531 
L 3481 0 
L 794 0 
L 794 531 
z
" transform="scale(0.015625)"/>
       <path id="DejaVuSans-20" transform="scale(0.015625)"/>
       <path id="DejaVuSans-66" d="M 2375 4863 
L 2375 4384 
L 1825 4384 
Q 1516 4384 1395 4259 
Q 1275 4134 1275 3809 
L 1275 3500 
L 2222 3500 
L 2222 3053 
L 1275 3053 
L 1275 0 
L 697 0 
L 697 3053 
L 147 3053 
L 147 3500 
L 697 3500 
L 697 3744 
Q 697 4328 969 4595 
Q 1241 4863 1831 4863 
L 2375 4863 
z
" transform="scale(0.015625)"/>
       <path id="DejaVuSans-44" d="M 1259 4147 
L 1259 519 
L 2022 519 
Q 2988 519 3436 956 
Q 3884 1394 3884 2338 
Q 3884 3275 3436 3711 
Q 2988 4147 2022 4147 
L 1259 4147 
z
M 628 4666 
L 1925 4666 
Q 3281 4666 3915 4102 
Q 4550 3538 4550 2338 
Q 4550 1131 3912 565 
Q 3275 0 1925 0 
L 628 0 
L 628 4666 
z
" transform="scale(0.015625)"/>
      </defs>
      <use xlink:href="#DejaVuSans-6c"/>
      <use xlink:href="#DejaVuSans-6f" x="27.783203"/>
      <use xlink:href="#DejaVuSans-67" x="88.964844"/>
      <use xlink:href="#DejaVuSans-31" x="152.441406"/>
      <use xlink:href="#DejaVuSans-30" x="216.064453"/>
      <use xlink:href="#DejaVuSans-20" x="279.6875"/>
      <use xlink:href="#DejaVuSans-6f" x="311.474609"/>
      <use xlink:href="#DejaVuSans-66" x="372.65625"/>
      <use xlink:href="#DejaVuSans-20" x="407.861328"/>
      <use xlink:href="#DejaVuSans-44" x="439.648438"/>
      <use xlink:href="#DejaVuSans-66" x="516.650391"/>
     </g>
    </g>
   </g>
   <g id="matplotlib.axis_2">
    <g id="ytick_1">
     <g id="line2d_9">
      <path d="M 0 293.76 
L 460.8 293.76 
" clip-path="url(#p4e1cddb9bf)" style="fill: none; stroke: #b0b0b0; stroke-width: 0.8; stroke-linecap: square"/>
     </g>
     <g id="line2d_10">
      <defs>
       <path id="m0928f801f3" d="M 0 0 
L -3.5 0 
" style="stroke: #000000; stroke-width: 0.8"/>
      </defs>
      <g>
       <use xlink:href="#m0928f801f3" x="0" y="293.76" style="stroke: #000000; stroke-width: 0.8"/>
      </g>
     </g>
    </g>
    <g id="ytick_2">
     <g id="line2d_11">
      <path d="M 0 236.274059 
L 460.8 236.274059 
" clip-path="url(#p4e1cddb9bf)" style="fill: none; stroke: #b0b0b0; stroke-width: 0.8; stroke-linecap: square"/>
     </g>
     <g id="line2d_12">
      <g>
       <use xlink:href="#m0928f801f3" x="0" y="236.274059" style="stroke: #000000; stroke-width: 0.8"/>
      </g>
     </g>
    </g>
    <g id="ytick_3">
     <g id="line2d_13">
      <path d="M 0 178.788119 
L 460.8 178.788119 
" clip-path="url(#p4e1cddb9bf)" style="fill: none; stroke: #b0b0b0; stroke-width: 0.8; stroke-linecap: square"/>
     </g>
     <g id="line2d_14">
      <g>
       <use xlink:href="#m0928f801f3" x="0" y="178.788119" style="stroke: #000000; stroke-width: 0.8"/>
      </g>
     </g>
    </g>
    <g id="ytick_4">
     <g id="line2d_15">
      <path d="M 0 121.302178 
L 460.8 121.302178 
" clip-path="url(#p4e1cddb9bf)" style="fill: none; stroke: #b0b0b0; stroke-width: 0.8; stroke-linecap: square"/>
     </g>
     <g id="line2d_16">
      <g>
       <use xlink:href="#m0928f801f3" x="0" y="121.302178" style="stroke: #000000; stroke-width: 0.8"/>
      </g>
     </g>
    </g>
    <g id="ytick_5">
     <g id="line2d_17">
      <path d="M 0 63.816238 
L 460.8 63.816238 
" clip-path="url(#p4e1cddb9bf)" style="fill: none; stroke: #b0b0b0; stroke-width: 0.8; stroke-linecap: square"/>
     </g>
     <g id="line2d_18">
      <g>
       <use xlink:href="#m0928f801f3" x="0" y="63.816238" style="stroke: #000000; stroke-width: 0.8"/>
      </g>
     </g>
    </g>
    <g id="ytick_6">
     <g id="line2d_19">
      <path d="M 0 6.330297 
L 460.8 6.330297 
" clip-path="url(#p4e1cddb9bf)" style="fill: none; stroke: #b0b0b0; stroke-width: 0.8; stroke-linecap: square"/>
     </g>
     <g id="line2d_20">
      <g>
       <use xlink:href="#m0928f801f3" x="0" y="6.330297" style="stroke: #000000; stroke-width: 0.8"/>
      </g>
     </g>
    </g>
   </g>
   <g id="line2d_21">
    <path d="M 147.258371 293.76 
L 147.258371 289.927604 
L 160.194888 289.927604 
L 160.194888 286.095208 
L 172.358072 286.095208 
L 172.358072 282.262812 
L 173.245068 282.262812 
L 173.245068 278.430416 
L 173.49826 278.430416 
L 173.49826 274.59802 
L 174.096646 274.59802 
L 174.096646 270.765624 
L 175.828989 270.765624 
L 175.828989 266.933228 
L 176.423871 266.933228 
L 176.423871 263.100832 
L 177.494997 263.100832 
L 177.494997 259.268436 
L 177.827183 259.268436 
L 177.827183 255.43604 
L 178.876392 255.43604 
L 178.876392 251.603644 
L 181.816875 251.603644 
L 181.918153 243.938851 
L 182.257276 243.938851 
L 182.257276 240.106455 
L 182.944958 240.106455 
L 183.00634 232.441663 
L 184.140969 232.441663 
L 184.140969 228.609267 
L 185.323283 228.609267 
L 185.323283 224.776871 
L 185.623725 224.776871 
L 185.623725 220.944475 
L 186.194872 220.944475 
L 186.194872 217.112079 
L 187.178131 217.112079 
L 187.225893 209.447287 
L 187.560925 209.447287 
L 187.560925 205.614891 
L 187.828345 205.614891 
L 187.828345 201.782495 
L 188.494637 201.782495 
L 188.558896 194.117703 
L 188.909895 194.117703 
L 188.909895 190.285307 
L 189.428423 190.285307 
L 189.428423 186.452911 
L 189.772716 186.452911 
L 189.772716 182.620515 
L 190.292132 182.620515 
L 190.292132 178.788119 
L 191.415501 178.788119 
L 191.415501 174.955723 
L 192.244325 174.955723 
L 192.244325 171.123327 
L 192.797549 171.123327 
L 192.849823 163.458535 
L 193.620536 163.458535 
L 193.620536 159.626139 
L 194.227151 159.626139 
L 194.227151 151.961347 
L 195.335868 151.961347 
L 195.335868 148.12895 
L 195.900774 148.12895 
L 195.900774 144.296554 
L 196.384611 144.296554 
L 196.485 136.631762 
L 196.814882 136.631762 
L 196.814882 132.799366 
L 197.731511 132.799366 
L 197.731511 128.96697 
L 198.350564 128.96697 
L 198.350564 125.134574 
L 199.880933 125.134574 
L 199.88788 117.469782 
L 200.640861 117.469782 
L 200.640861 113.637386 
L 200.939407 113.637386 
L 201.032287 105.972594 
L 202.087637 105.972594 
L 202.087637 102.140198 
L 202.405983 102.140198 
L 202.405983 98.307802 
L 203.428873 98.307802 
L 203.478055 90.64301 
L 203.734335 90.64301 
L 203.734335 86.810614 
L 204.14511 86.810614 
L 204.14511 82.978218 
L 205.399576 82.978218 
L 205.399576 79.145822 
L 206.272282 79.145822 
L 206.272282 75.313426 
L 206.967226 75.313426 
L 206.967226 67.648634 
L 208.342741 67.648634 
L 208.342741 63.816238 
L 209.252677 63.816238 
L 209.252677 59.983842 
L 209.931496 59.983842 
L 209.975488 52.31905 
L 210.59446 52.31905 
L 210.59446 48.486653 
L 210.85172 48.486653 
L 210.85172 44.654257 
L 212.172176 44.654257 
L 212.172176 40.821861 
L 212.448592 40.821861 
L 212.448592 36.989465 
L 213.491857 36.989465 
L 213.491857 33.157069 
L 215.37419 33.157069 
L 215.37419 29.324673 
L 217.121837 29.324673 
L 217.121837 25.492277 
L 217.64346 25.492277 
L 217.64346 21.659881 
L 218.918195 21.659881 
L 218.918195 17.827485 
L 223.0397 17.827485 
L 223.0397 10.162693 
L 224.434964 10.162693 
L 224.434964 6.330297 
L 224.434964 6.330297 
L 460.8 6.330297 
L 460.8 6.330297 
" clip-path="url(#p4e1cddb9bf)" style="fill: none; stroke: #ff0000; stroke-width: 3; stroke-linecap: square"/>
   </g>
   <g id="line2d_22">
    <path d="M 204.970889 293.76 
L 204.970889 289.927604 
L 211.126438 289.927604 
L 211.126438 286.095208 
L 213.288318 286.095208 
L 213.288318 282.262812 
L 213.953749 282.262812 
L 213.953749 278.430416 
L 214.536543 278.430416 
L 214.536543 274.59802 
L 215.784468 274.59802 
L 215.784468 270.765624 
L 216.173285 270.765624 
L 216.173285 266.933228 
L 217.033765 266.933228 
L 217.111778 259.268436 
L 217.162507 259.268436 
L 217.162507 255.43604 
L 217.899245 255.43604 
L 217.899245 251.603644 
L 218.32688 251.603644 
L 218.32688 247.771248 
L 218.679906 247.771248 
L 218.679906 243.938851 
L 219.368107 243.938851 
L 219.368107 240.106455 
L 219.530583 240.106455 
L 219.530583 236.274059 
L 220.419388 236.274059 
L 220.419388 232.441663 
L 220.737687 232.441663 
L 220.737687 228.609267 
L 221.143549 228.609267 
L 221.167268 220.944475 
L 221.796345 220.944475 
L 221.796345 217.112079 
L 222.110826 217.112079 
L 222.110826 213.279683 
L 223.889285 213.279683 
L 223.889285 209.447287 
L 224.178584 209.447287 
L 224.205609 201.782495 
L 224.695022 201.782495 
L 224.695022 197.950099 
L 225.153093 197.950099 
L 225.188784 186.452911 
L 225.429318 186.452911 
L 225.429318 182.620515 
L 225.823189 182.620515 
L 225.86848 174.955723 
L 226.04186 174.955723 
L 226.04186 171.123327 
L 226.177995 171.123327 
L 226.177995 167.290931 
L 226.321624 167.290931 
L 226.321624 163.458535 
L 226.481441 163.458535 
L 226.481441 159.626139 
L 226.85641 159.626139 
L 226.85641 155.793743 
L 227.413887 155.793743 
L 227.413887 151.961347 
L 227.898766 151.961347 
L 227.898766 148.12895 
L 228.248386 148.12895 
L 228.248386 144.296554 
L 228.415504 144.296554 
L 228.415504 140.464158 
L 228.89238 140.464158 
L 228.89238 136.631762 
L 229.11341 136.631762 
L 229.11341 132.799366 
L 229.510143 132.799366 
L 229.510143 128.96697 
L 230.17127 128.96697 
L 230.17127 125.134574 
L 230.388525 125.134574 
L 230.388525 121.302178 
L 230.556383 121.302178 
L 230.556383 117.469782 
L 230.814997 117.469782 
L 230.814997 113.637386 
L 231.223951 113.637386 
L 231.223951 109.80499 
L 231.335289 109.80499 
L 231.335289 105.972594 
L 232.571602 105.972594 
L 232.571602 102.140198 
L 233.588983 102.140198 
L 233.588983 98.307802 
L 233.9106 98.307802 
L 233.9106 94.475406 
L 234.824036 94.475406 
L 234.824036 90.64301 
L 235.463106 90.64301 
L 235.463106 86.810614 
L 236.025586 86.810614 
L 236.025586 82.978218 
L 236.981333 82.978218 
L 237.048627 75.313426 
L 237.160167 75.313426 
L 237.160167 71.48103 
L 237.690176 71.48103 
L 237.690176 67.648634 
L 238.780418 67.648634 
L 238.780418 63.816238 
L 239.372414 63.816238 
L 239.372414 59.983842 
L 240.984935 59.983842 
L 240.984935 56.151446 
L 241.181111 56.151446 
L 241.181111 52.31905 
L 241.614401 52.31905 
L 241.614401 48.486653 
L 242.333234 48.486653 
L 242.333234 44.654257 
L 243.040495 44.654257 
L 243.040495 40.821861 
L 245.389576 40.821861 
L 245.389576 36.989465 
L 247.634917 36.989465 
L 247.634917 33.157069 
L 249.015145 33.157069 
L 249.015145 29.324673 
L 249.932083 29.324673 
L 249.932083 25.492277 
L 253.793572 25.492277 
L 253.793572 21.659881 
L 255.381355 21.659881 
L 255.381355 17.827485 
L 256.955787 17.827485 
L 256.955787 13.995089 
L 258.727852 13.995089 
L 258.727852 10.162693 
L 266.873654 10.162693 
L 266.873654 6.330297 
L 266.873654 6.330297 
L 460.8 6.330297 
L 460.8 6.330297 
" clip-path="url(#p4e1cddb9bf)" style="fill: none; stroke: #00bfbf; stroke-width: 1.5; stroke-linecap: square"/>
   </g>
   <g id="line2d_23">
    <path d="M 204.970889 293.76 
L 204.970889 289.927604 
L 208.572795 289.927604 
L 208.572795 286.095208 
L 211.126438 286.095208 
L 211.126438 282.262812 
L 211.304138 282.262812 
L 211.304138 278.430416 
L 211.71431 278.430416 
L 211.71431 274.59802 
L 212.041947 274.59802 
L 212.041947 270.765624 
L 213.139202 270.765624 
L 213.203559 263.100832 
L 213.288318 263.100832 
L 213.288318 259.268436 
L 213.67098 259.268436 
L 213.67098 255.43604 
L 213.861153 255.43604 
L 213.953749 247.771248 
L 214.226572 247.771248 
L 214.226572 243.938851 
L 214.536543 243.938851 
L 214.536543 240.106455 
L 216.023711 240.106455 
L 216.109947 232.441663 
L 216.173285 232.441663 
L 216.173285 228.609267 
L 216.61523 228.609267 
L 216.61523 224.776871 
L 216.890183 224.776871 
L 216.91029 217.112079 
L 217.162507 217.112079 
L 217.162507 213.279683 
L 218.679906 213.279683 
L 218.679906 209.447287 
L 219.048461 209.447287 
L 219.048461 205.614891 
L 219.191398 205.614891 
L 219.284017 197.950099 
L 219.530583 197.950099 
L 219.530583 194.117703 
L 220.474478 194.117703 
L 220.474478 190.285307 
L 220.737687 190.285307 
L 220.737687 186.452911 
L 221.061584 186.452911 
L 221.061584 182.620515 
L 221.31459 182.620515 
L 221.31459 178.788119 
L 221.796345 178.788119 
L 221.796345 174.955723 
L 222.037126 174.955723 
L 222.110826 167.290931 
L 222.322716 167.290931 
L 222.322716 163.458535 
L 222.563629 163.458535 
L 222.563629 159.626139 
L 222.821314 159.626139 
L 222.9113 151.961347 
L 222.941885 151.961347 
L 222.941885 148.12895 
L 223.640989 148.12895 
L 223.640989 144.296554 
L 224.079948 144.296554 
L 224.178584 132.799366 
L 225.153093 132.799366 
L 225.153093 128.96697 
L 225.456883 128.96697 
L 225.456883 125.134574 
L 226.04186 125.134574 
L 226.118817 117.469782 
L 226.165421 117.469782 
L 226.177995 109.80499 
L 227.413887 109.80499 
L 227.413887 105.972594 
L 227.673648 105.972594 
L 227.673648 102.140198 
L 227.898766 102.140198 
L 227.898766 98.307802 
L 228.248386 98.307802 
L 228.248386 94.475406 
L 228.388474 94.475406 
L 228.388474 90.64301 
L 229.124982 90.64301 
L 229.124982 86.810614 
L 229.369009 86.810614 
L 229.404793 79.145822 
L 230.814899 79.145822 
L 230.820226 71.48103 
L 231.747818 71.48103 
L 231.747818 67.648634 
L 233.028236 67.648634 
L 233.028236 63.816238 
L 233.467542 63.816238 
L 233.467542 59.983842 
L 233.9106 59.983842 
L 233.9106 56.151446 
L 234.240609 56.151446 
L 234.240609 52.31905 
L 235.357864 52.31905 
L 235.357864 48.486653 
L 237.048627 48.486653 
L 237.048627 44.654257 
L 237.690176 44.654257 
L 237.690176 40.821861 
L 237.844059 40.821861 
L 237.844059 36.989465 
L 239.288742 36.989465 
L 239.288742 33.157069 
L 240.834149 33.157069 
L 240.834149 29.324673 
L 240.984935 29.324673 
L 240.984935 25.492277 
L 241.181111 25.492277 
L 241.181111 21.659881 
L 241.614401 21.659881 
L 241.614401 17.827485 
L 242.311286 17.827485 
L 242.311286 13.995089 
L 243.040495 13.995089 
L 243.040495 10.162693 
L 243.396772 10.162693 
L 243.396772 6.330297 
L 243.396772 6.330297 
L 460.8 6.330297 
L 460.8 6.330297 
" clip-path="url(#p4e1cddb9bf)" style="fill: none; stroke: #bf00bf; stroke-width: 1.5; stroke-linecap: square"/>
   </g>
   <g id="line2d_24">
    <path d="M 204.970859 293.76 
L 204.970889 286.095208 
L 205.123312 286.095208 
L 205.123312 282.262812 
L 207.405635 282.262812 
L 207.503389 274.59802 
L 208.428349 274.59802 
L 208.428349 270.765624 
L 208.572795 270.765624 
L 208.572795 266.933228 
L 209.29905 266.933228 
L 209.29905 263.100832 
L 210.036851 263.100832 
L 210.06142 251.603644 
L 210.82493 251.603644 
L 210.82493 247.771248 
L 210.97835 247.771248 
L 211.046672 240.106455 
L 211.304138 240.106455 
L 211.38965 232.441663 
L 211.457085 232.441663 
L 211.459197 224.776871 
L 211.938781 224.776871 
L 212.041947 217.112079 
L 212.526452 217.112079 
L 212.620719 209.447287 
L 213.069357 209.447287 
L 213.069357 205.614891 
L 213.203559 205.614891 
L 213.203559 201.782495 
L 213.861153 201.782495 
L 213.861153 197.950099 
L 214.507545 197.950099 
L 214.507545 194.117703 
L 215.370594 194.117703 
L 215.370594 190.285307 
L 216.173285 190.285307 
L 216.173285 186.452911 
L 216.782742 186.452911 
L 216.782742 182.620515 
L 217.162507 182.620515 
L 217.162507 178.788119 
L 218.945482 178.788119 
L 219.050149 167.290931 
L 219.155598 167.290931 
L 219.155598 163.458535 
L 219.530583 163.458535 
L 219.530583 159.626139 
L 220.615549 159.626139 
L 220.615549 155.793743 
L 221.061584 155.793743 
L 221.061584 151.961347 
L 221.31459 151.961347 
L 221.31459 148.12895 
L 221.796345 148.12895 
L 221.825924 140.464158 
L 222.110826 140.464158 
L 222.110826 136.631762 
L 222.27656 136.631762 
L 222.336308 128.96697 
L 222.628806 128.96697 
L 222.628806 125.134574 
L 222.821314 125.134574 
L 222.821314 121.302178 
L 223.771828 121.302178 
L 223.771828 117.469782 
L 223.891304 117.469782 
L 223.891304 113.637386 
L 224.079948 113.637386 
L 224.079948 109.80499 
L 224.246183 109.80499 
L 224.246183 105.972594 
L 224.799375 105.972594 
L 224.799375 102.140198 
L 225.39516 102.140198 
L 225.456883 94.475406 
L 225.821441 94.475406 
L 225.821924 86.810614 
L 226.784695 86.810614 
L 226.784695 82.978218 
L 227.594256 82.978218 
L 227.594256 79.145822 
L 228.100822 79.145822 
L 228.100822 75.313426 
L 229.039738 75.313426 
L 229.039738 71.48103 
L 229.655161 71.48103 
L 229.655161 67.648634 
L 230.791611 67.648634 
L 230.867219 56.151446 
L 233.028236 56.151446 
L 233.028236 52.31905 
L 233.9106 52.31905 
L 233.9106 48.486653 
L 234.240609 48.486653 
L 234.240609 44.654257 
L 235.357864 44.654257 
L 235.357864 40.821861 
L 236.111553 40.821861 
L 236.111553 36.989465 
L 236.512057 36.989465 
L 236.512057 33.157069 
L 236.976594 33.157069 
L 237.078809 25.492277 
L 239.017302 25.492277 
L 239.017302 21.659881 
L 239.288742 21.659881 
L 239.288742 17.827485 
L 240.251083 17.827485 
L 240.251083 13.995089 
L 240.371448 13.995089 
L 240.453558 6.330297 
L 240.453558 6.330297 
L 460.8 6.330297 
L 460.8 6.330297 
" clip-path="url(#p4e1cddb9bf)" style="fill: none; stroke: #000000; stroke-width: 1.5; stroke-linecap: square"/>
   </g>
   <g id="line2d_25">
    <path d="M 193.52041 293.76 
L 193.52041 289.927604 
L 196.14387 289.927604 
L 196.14387 286.095208 
L 197.044329 286.095208 
L 197.044329 282.262812 
L 197.731511 282.262812 
L 197.731511 278.430416 
L 198.162938 278.430416 
L 198.162938 274.59802 
L 198.80223 274.59802 
L 198.80223 270.765624 
L 199.678862 270.765624 
L 199.782782 259.268436 
L 200.946043 259.268436 
L 200.946043 255.43604 
L 201.143122 255.43604 
L 201.143122 251.603644 
L 201.696195 251.603644 
L 201.748398 240.106455 
L 201.938666 240.106455 
L 201.938666 236.274059 
L 203.207738 236.274059 
L 203.207738 232.441663 
L 203.371114 232.441663 
L 203.371114 228.609267 
L 203.483589 228.609267 
L 203.483589 224.776871 
L 204.133738 224.776871 
L 204.133738 220.944475 
L 204.683152 220.944475 
L 204.683152 217.112079 
L 205.700152 217.112079 
L 205.809049 209.447287 
L 205.876909 209.447287 
L 205.876909 205.614891 
L 206.309674 205.614891 
L 206.309674 201.782495 
L 206.476755 201.782495 
L 206.476755 197.950099 
L 206.681891 197.950099 
L 206.681891 194.117703 
L 206.83503 194.117703 
L 206.889238 186.452911 
L 207.193894 186.452911 
L 207.203597 178.788119 
L 207.405635 178.788119 
L 207.405635 174.955723 
L 208.514514 174.955723 
L 208.514514 171.123327 
L 208.818955 171.123327 
L 208.818955 167.290931 
L 210.051622 167.290931 
L 210.051622 163.458535 
L 211.529655 163.458535 
L 211.562779 155.793743 
L 213.126254 155.793743 
L 213.126254 151.961347 
L 213.238772 151.961347 
L 213.238772 148.12895 
L 213.394007 148.12895 
L 213.394007 144.296554 
L 214.972883 144.296554 
L 214.972883 140.464158 
L 215.464862 140.464158 
L 215.464862 136.631762 
L 216.055205 136.631762 
L 216.148062 128.96697 
L 216.173285 128.96697 
L 216.173285 125.134574 
L 216.730229 125.134574 
L 216.730229 121.302178 
L 217.98731 121.302178 
L 218.061863 113.637386 
L 218.990912 113.637386 
L 219.093081 102.140198 
L 219.226707 102.140198 
L 219.328589 94.475406 
L 219.34662 94.475406 
L 219.34662 90.64301 
L 219.530583 90.64301 
L 219.636344 82.978218 
L 220.118709 82.978218 
L 220.221739 71.48103 
L 222.221475 71.48103 
L 222.221475 67.648634 
L 223.413608 67.648634 
L 223.413608 63.816238 
L 223.690349 63.816238 
L 223.690349 59.983842 
L 225.318871 59.983842 
L 225.318871 56.151446 
L 226.339753 56.151446 
L 226.449709 48.486653 
L 227.350318 48.486653 
L 227.350318 44.654257 
L 227.801685 44.654257 
L 227.801685 40.821861 
L 228.901182 40.821861 
L 228.901182 36.989465 
L 229.411119 36.989465 
L 229.411119 33.157069 
L 229.613659 33.157069 
L 229.613659 29.324673 
L 230.421383 29.324673 
L 230.421383 25.492277 
L 230.640865 25.492277 
L 230.640865 21.659881 
L 230.831631 21.659881 
L 230.831631 17.827485 
L 232.027138 17.827485 
L 232.027138 13.995089 
L 233.019352 13.995089 
L 233.019352 10.162693 
L 233.561092 10.162693 
L 233.561092 6.330297 
L 233.561092 6.330297 
L 460.8 6.330297 
L 460.8 6.330297 
" clip-path="url(#p4e1cddb9bf)" style="fill: none; stroke: #00bfbf; stroke-width: 1.5; stroke-linecap: square"/>
   </g>
   <g id="line2d_26">
    <path d="M 160.194888 293.76 
L 160.194888 289.927604 
L 179.930344 289.927604 
L 179.930344 286.095208 
L 181.483614 286.095208 
L 181.483614 282.262812 
L 182.279887 282.262812 
L 182.279887 278.430416 
L 182.864081 278.430416 
L 182.864081 274.59802 
L 183.261284 274.59802 
L 183.261284 270.765624 
L 185.103283 270.765624 
L 185.103283 266.933228 
L 185.950609 266.933228 
L 185.950609 263.100832 
L 186.602172 263.100832 
L 186.602172 259.268436 
L 186.720571 259.268436 
L 186.720571 255.43604 
L 187.709363 255.43604 
L 187.709363 251.603644 
L 187.822594 251.603644 
L 187.828345 243.938851 
L 188.341386 243.938851 
L 188.341386 240.106455 
L 188.494637 240.106455 
L 188.494637 236.274059 
L 189.00336 236.274059 
L 189.00336 232.441663 
L 189.277681 232.441663 
L 189.340005 224.776871 
L 189.485965 224.776871 
L 189.485965 220.944475 
L 190.062037 220.944475 
L 190.062037 217.112079 
L 190.180861 217.112079 
L 190.286051 209.447287 
L 190.966102 209.447287 
L 190.966102 205.614891 
L 191.346838 205.614891 
L 191.346838 201.782495 
L 191.583616 201.782495 
L 191.674218 194.117703 
L 192.302228 194.117703 
L 192.302228 190.285307 
L 192.607701 190.285307 
L 192.607701 186.452911 
L 192.731764 186.452911 
L 192.731764 182.620515 
L 192.935204 182.620515 
L 192.935204 178.788119 
L 193.118859 178.788119 
L 193.118859 174.955723 
L 193.620536 174.955723 
L 193.620536 171.123327 
L 194.280827 171.123327 
L 194.280827 167.290931 
L 195.900774 167.290931 
L 195.900774 163.458535 
L 196.548998 163.458535 
L 196.548998 159.626139 
L 196.814882 159.626139 
L 196.814882 155.793743 
L 197.180441 155.793743 
L 197.180441 151.961347 
L 197.731511 151.961347 
L 197.731511 148.12895 
L 198.094844 148.12895 
L 198.094844 144.296554 
L 199.914133 144.296554 
L 199.914133 140.464158 
L 200.065694 140.464158 
L 200.065694 136.631762 
L 201.460517 136.631762 
L 201.460517 132.799366 
L 201.591418 132.799366 
L 201.594252 125.134574 
L 202.087637 125.134574 
L 202.087637 121.302178 
L 202.424221 121.302178 
L 202.424221 117.469782 
L 203.569215 117.469782 
L 203.569215 113.637386 
L 204.007222 113.637386 
L 204.007222 109.80499 
L 204.23913 109.80499 
L 204.23913 105.972594 
L 204.598889 105.972594 
L 204.598889 102.140198 
L 205.190881 102.140198 
L 205.190881 98.307802 
L 205.39101 98.307802 
L 205.39101 94.475406 
L 206.05593 94.475406 
L 206.05593 90.64301 
L 206.272282 90.64301 
L 206.272282 86.810614 
L 206.720081 86.810614 
L 206.720081 82.978218 
L 207.816715 82.978218 
L 207.816715 79.145822 
L 208.347628 79.145822 
L 208.347628 75.313426 
L 209.277545 75.313426 
L 209.277545 71.48103 
L 210.031533 71.48103 
L 210.031533 67.648634 
L 210.306885 67.648634 
L 210.306885 63.816238 
L 210.85172 63.816238 
L 210.85172 59.983842 
L 211.273668 59.983842 
L 211.345024 52.31905 
L 212.172176 52.31905 
L 212.172176 48.486653 
L 212.732536 48.486653 
L 212.732536 44.654257 
L 213.491857 44.654257 
L 213.491857 40.821861 
L 215.495981 40.821861 
L 215.495981 36.989465 
L 215.825086 36.989465 
L 215.825086 33.157069 
L 217.423498 33.157069 
L 217.423498 29.324673 
L 218.388378 29.324673 
L 218.388378 25.492277 
L 218.918195 25.492277 
L 218.918195 21.659881 
L 219.350046 21.659881 
L 219.350046 17.827485 
L 223.097322 17.827485 
L 223.097322 13.995089 
L 224.36713 13.995089 
L 224.36713 10.162693 
L 224.788736 10.162693 
L 224.788736 6.330297 
L 224.788736 6.330297 
L 460.8 6.330297 
L 460.8 6.330297 
" clip-path="url(#p4e1cddb9bf)" style="fill: none; stroke: #bf00bf; stroke-width: 1.5; stroke-linecap: square"/>
   </g>
   <g id="line2d_27">
    <path d="M 147.258371 293.76 
L 147.258371 289.927604 
L 160.194888 289.927604 
L 160.194888 286.095208 
L 172.358072 286.095208 
L 172.358072 282.262812 
L 173.245068 282.262812 
L 173.245068 278.430416 
L 173.49826 278.430416 
L 173.49826 274.59802 
L 174.096646 274.59802 
L 174.096646 270.765624 
L 175.828989 270.765624 
L 175.828989 266.933228 
L 176.423871 266.933228 
L 176.423871 263.100832 
L 177.494997 263.100832 
L 177.494997 259.268436 
L 177.827183 259.268436 
L 177.827183 255.43604 
L 178.876392 255.43604 
L 178.876392 251.603644 
L 181.816875 251.603644 
L 181.918153 243.938851 
L 182.257276 243.938851 
L 182.257276 240.106455 
L 182.944958 240.106455 
L 183.00634 232.441663 
L 184.140969 232.441663 
L 184.140969 228.609267 
L 185.323283 228.609267 
L 185.323283 224.776871 
L 185.623725 224.776871 
L 185.623725 220.944475 
L 186.194872 220.944475 
L 186.194872 217.112079 
L 187.178131 217.112079 
L 187.225893 209.447287 
L 187.560925 209.447287 
L 187.560925 205.614891 
L 187.828345 205.614891 
L 187.828345 201.782495 
L 188.494637 201.782495 
L 188.558896 194.117703 
L 188.909895 194.117703 
L 188.909895 190.285307 
L 189.428423 190.285307 
L 189.428423 186.452911 
L 189.772716 186.452911 
L 189.772716 182.620515 
L 190.292132 182.620515 
L 190.292132 178.788119 
L 191.415501 178.788119 
L 191.415501 174.955723 
L 192.244325 174.955723 
L 192.244325 171.123327 
L 192.797549 171.123327 
L 192.849823 163.458535 
L 193.620536 163.458535 
L 193.620536 159.626139 
L 194.227151 159.626139 
L 194.227151 151.961347 
L 195.335868 151.961347 
L 195.335868 148.12895 
L 195.900774 148.12895 
L 195.900774 144.296554 
L 196.384611 144.296554 
L 196.485 136.631762 
L 196.814882 136.631762 
L 196.814882 132.799366 
L 197.731511 132.799366 
L 197.731511 128.96697 
L 198.350564 128.96697 
L 198.350564 125.134574 
L 199.880933 125.134574 
L 199.88788 117.469782 
L 200.640861 117.469782 
L 200.640861 113.637386 
L 200.939407 113.637386 
L 201.032287 105.972594 
L 202.087637 105.972594 
L 202.087637 102.140198 
L 202.405983 102.140198 
L 202.405983 98.307802 
L 203.428873 98.307802 
L 203.478055 90.64301 
L 203.734335 90.64301 
L 203.734335 86.810614 
L 204.14511 86.810614 
L 204.14511 82.978218 
L 205.399576 82.978218 
L 205.399576 79.145822 
L 206.272282 79.145822 
L 206.272282 75.313426 
L 206.967226 75.313426 
L 206.967226 67.648634 
L 208.342741 67.648634 
L 208.342741 63.816238 
L 209.252677 63.816238 
L 209.252677 59.983842 
L 209.931496 59.983842 
L 209.975488 52.31905 
L 210.59446 52.31905 
L 210.59446 48.486653 
L 210.85172 48.486653 
L 210.85172 44.654257 
L 212.172176 44.654257 
L 212.172176 40.821861 
L 212.448592 40.821861 
L 212.448592 36.989465 
L 213.491857 36.989465 
L 213.491857 33.157069 
L 215.37419 33.157069 
L 215.37419 29.324673 
L 217.121837 29.324673 
L 217.121837 25.492277 
L 217.64346 25.492277 
L 217.64346 21.659881 
L 218.918195 21.659881 
L 218.918195 17.827485 
L 223.0397 17.827485 
L 223.0397 10.162693 
L 224.434964 10.162693 
L 224.434964 6.330297 
L 224.434964 6.330297 
L 460.8 6.330297 
L 460.8 6.330297 
" clip-path="url(#p4e1cddb9bf)" style="fill: none; stroke: #000000; stroke-width: 1.5; stroke-linecap: square"/>
   </g>
   <g id="patch_3">
    <path d="M 0 293.76 
L 0 3.456 
" style="fill: none; stroke: #000000; stroke-width: 0.8; stroke-linejoin: miter; stroke-linecap: square"/>
   </g>
   <g id="patch_4">
    <path d="M 460.8 293.76 
L 460.8 3.456 
" style="fill: none; stroke: #000000; stroke-width: 0.8; stroke-linejoin: miter; stroke-linecap: square"/>
   </g>
   <g id="patch_5">
    <path d="M 0 293.76 
L 460.8 293.76 
" style="fill: none; stroke: #000000; stroke-width: 0.8; stroke-linejoin: miter; stroke-linecap: square"/>
   </g>
   <g id="patch_6">
    <path d="M 0 3.456 
L 460.8 3.456 
" style="fill: none; stroke: #000000; stroke-width: 0.8; stroke-linejoin: miter; stroke-linecap: square"/>
   </g>
   <g id="text_6">
    <!-- {f15-f19}, 5-D -->
    <g transform="translate(305.884 287.95392) scale(0.2 -0.2)">
     <defs>
      <path id="DejaVuSans-7b" d="M 3272 -594 
L 3272 -1044 
L 3078 -1044 
Q 2300 -1044 2036 -812 
Q 1772 -581 1772 109 
L 1772 856 
Q 1772 1328 1603 1509 
Q 1434 1691 991 1691 
L 800 1691 
L 800 2138 
L 991 2138 
Q 1438 2138 1605 2317 
Q 1772 2497 1772 2963 
L 1772 3713 
Q 1772 4403 2036 4633 
Q 2300 4863 3078 4863 
L 3272 4863 
L 3272 4416 
L 3059 4416 
Q 2619 4416 2484 4278 
Q 2350 4141 2350 3700 
L 2350 2925 
Q 2350 2434 2208 2212 
Q 2066 1991 1722 1913 
Q 2069 1828 2209 1606 
Q 2350 1384 2350 897 
L 2350 122 
Q 2350 -319 2484 -456 
Q 2619 -594 3059 -594 
L 3272 -594 
z
" transform="scale(0.015625)"/>
      <path id="DejaVuSans-35" d="M 691 4666 
L 3169 4666 
L 3169 4134 
L 1269 4134 
L 1269 2991 
Q 1406 3038 1543 3061 
Q 1681 3084 1819 3084 
Q 2600 3084 3056 2656 
Q 3513 2228 3513 1497 
Q 3513 744 3044 326 
Q 2575 -91 1722 -91 
Q 1428 -91 1123 -41 
Q 819 9 494 109 
L 494 744 
Q 775 591 1075 516 
Q 1375 441 1709 441 
Q 2250 441 2565 725 
Q 2881 1009 2881 1497 
Q 2881 1984 2565 2268 
Q 2250 2553 1709 2553 
Q 1456 2553 1204 2497 
Q 953 2441 691 2322 
L 691 4666 
z
" transform="scale(0.015625)"/>
      <path id="DejaVuSans-39" d="M 703 97 
L 703 672 
Q 941 559 1184 500 
Q 1428 441 1663 441 
Q 2288 441 2617 861 
Q 2947 1281 2994 2138 
Q 2813 1869 2534 1725 
Q 2256 1581 1919 1581 
Q 1219 1581 811 2004 
Q 403 2428 403 3163 
Q 403 3881 828 4315 
Q 1253 4750 1959 4750 
Q 2769 4750 3195 4129 
Q 3622 3509 3622 2328 
Q 3622 1225 3098 567 
Q 2575 -91 1691 -91 
Q 1453 -91 1209 -44 
Q 966 3 703 97 
z
M 1959 2075 
Q 2384 2075 2632 2365 
Q 2881 2656 2881 3163 
Q 2881 3666 2632 3958 
Q 2384 4250 1959 4250 
Q 1534 4250 1286 3958 
Q 1038 3666 1038 3163 
Q 1038 2656 1286 2365 
Q 1534 2075 1959 2075 
z
" transform="scale(0.015625)"/>
      <path id="DejaVuSans-7d" d="M 800 -594 
L 1019 -594 
Q 1456 -594 1589 -459 
Q 1722 -325 1722 122 
L 1722 897 
Q 1722 1384 1862 1606 
Q 2003 1828 2350 1913 
Q 2003 1991 1862 2212 
Q 1722 2434 1722 2925 
L 1722 3700 
Q 1722 4144 1589 4280 
Q 1456 4416 1019 4416 
L 800 4416 
L 800 4863 
L 997 4863 
Q 1775 4863 2036 4633 
Q 2297 4403 2297 3713 
L 2297 2963 
Q 2297 2497 2465 2317 
Q 2634 2138 3078 2138 
L 3272 2138 
L 3272 1691 
L 3078 1691 
Q 2634 1691 2465 1509 
Q 2297 1328 2297 856 
L 2297 109 
Q 2297 -581 2036 -812 
Q 1775 -1044 997 -1044 
L 800 -1044 
L 800 -594 
z
" transform="scale(0.015625)"/>
      <path id="DejaVuSans-2c" d="M 750 794 
L 1409 794 
L 1409 256 
L 897 -744 
L 494 -744 
L 750 256 
L 750 794 
z
" transform="scale(0.015625)"/>
     </defs>
     <use xlink:href="#DejaVuSans-7b"/>
     <use xlink:href="#DejaVuSans-66" x="63.623047"/>
     <use xlink:href="#DejaVuSans-31" x="98.828125"/>
     <use xlink:href="#DejaVuSans-35" x="162.451172"/>
     <use xlink:href="#DejaVuSans-2d" x="226.074219"/>
     <use xlink:href="#DejaVuSans-66" x="262.158203"/>
     <use xlink:href="#DejaVuSans-31" x="297.363281"/>
     <use xlink:href="#DejaVuSans-39" x="360.986328"/>
     <use xlink:href="#DejaVuSans-7d" x="424.609375"/>
     <use xlink:href="#DejaVuSans-2c" x="488.232422"/>
     <use xlink:href="#DejaVuSans-20" x="520.019531"/>
     <use xlink:href="#DejaVuSans-35" x="551.806641"/>
     <use xlink:href="#DejaVuSans-2d" x="615.429688"/>
     <use xlink:href="#DejaVuSans-44" x="651.513672"/>
    </g>
   </g>
   <g id="text_7">
    <!-- v2.6.3 -->
    <g style="fill: #808080" transform="translate(214.71875 288.777272) scale(0.1 -0.1)">
     <defs>
      <path id="DejaVuSans-76" d="M 191 3500 
L 800 3500 
L 1894 563 
L 2988 3500 
L 3597 3500 
L 2284 0 
L 1503 0 
L 191 3500 
z
" transform="scale(0.015625)"/>
      <path id="DejaVuSans-32" d="M 1228 531 
L 3431 531 
L 3431 0 
L 469 0 
L 469 531 
Q 828 903 1448 1529 
Q 2069 2156 2228 2338 
Q 2531 2678 2651 2914 
Q 2772 3150 2772 3378 
Q 2772 3750 2511 3984 
Q 2250 4219 1831 4219 
Q 1534 4219 1204 4116 
Q 875 4013 500 3803 
L 500 4441 
Q 881 4594 1212 4672 
Q 1544 4750 1819 4750 
Q 2544 4750 2975 4387 
Q 3406 4025 3406 3419 
Q 3406 3131 3298 2873 
Q 3191 2616 2906 2266 
Q 2828 2175 2409 1742 
Q 1991 1309 1228 531 
z
" transform="scale(0.015625)"/>
      <path id="DejaVuSans-2e" d="M 684 794 
L 1344 794 
L 1344 0 
L 684 0 
L 684 794 
z
" transform="scale(0.015625)"/>
      <path id="DejaVuSans-36" d="M 2113 2584 
Q 1688 2584 1439 2293 
Q 1191 2003 1191 1497 
Q 1191 994 1439 701 
Q 1688 409 2113 409 
Q 2538 409 2786 701 
Q 3034 994 3034 1497 
Q 3034 2003 2786 2293 
Q 2538 2584 2113 2584 
z
M 3366 4563 
L 3366 3988 
Q 3128 4100 2886 4159 
Q 2644 4219 2406 4219 
Q 1781 4219 1451 3797 
Q 1122 3375 1075 2522 
Q 1259 2794 1537 2939 
Q 1816 3084 2150 3084 
Q 2853 3084 3261 2657 
Q 3669 2231 3669 1497 
Q 3669 778 3244 343 
Q 2819 -91 2113 -91 
Q 1303 -91 875 529 
Q 447 1150 447 2328 
Q 447 3434 972 4092 
Q 1497 4750 2381 4750 
Q 2619 4750 2861 4703 
Q 3103 4656 3366 4563 
z
" transform="scale(0.015625)"/>
      <path id="DejaVuSans-33" d="M 2597 2516 
Q 3050 2419 3304 2112 
Q 3559 1806 3559 1356 
Q 3559 666 3084 287 
Q 2609 -91 1734 -91 
Q 1441 -91 1130 -33 
Q 819 25 488 141 
L 488 750 
Q 750 597 1062 519 
Q 1375 441 1716 441 
Q 2309 441 2620 675 
Q 2931 909 2931 1356 
Q 2931 1769 2642 2001 
Q 2353 2234 1838 2234 
L 1294 2234 
L 1294 2753 
L 1863 2753 
Q 2328 2753 2575 2939 
Q 2822 3125 2822 3475 
Q 2822 3834 2567 4026 
Q 2313 4219 1838 4219 
Q 1578 4219 1281 4162 
Q 984 4106 628 3988 
L 628 4550 
Q 988 4650 1302 4700 
Q 1616 4750 1894 4750 
Q 2613 4750 3031 4423 
Q 3450 4097 3450 3541 
Q 3450 3153 3228 2886 
Q 3006 2619 2597 2516 
z
" transform="scale(0.015625)"/>
     </defs>
     <use xlink:href="#DejaVuSans-76"/>
     <use xlink:href="#DejaVuSans-32" x="59.179688"/>
     <use xlink:href="#DejaVuSans-2e" x="122.802734"/>
     <use xlink:href="#DejaVuSans-36" x="154.589844"/>
     <use xlink:href="#DejaVuSans-2e" x="218.212891"/>
     <use xlink:href="#DejaVuSans-33" x="250"/>
    </g>
   </g>
  </g>
 </g>
 <defs>
  <clipPath id="p4e1cddb9bf">
   <rect x="0" y="3.456" width="460.8" height="290.304"/>
  </clipPath>
 </defs>
</svg>
