<?xml version="1.0" encoding="utf-8" standalone="no"?>
<!DOCTYPE svg PUBLIC "-//W3C//DTD SVG 1.1//EN"
  "http://www.w3.org/Graphics/SVG/1.1/DTD/svg11.dtd">
<svg xmlns:xlink="http://www.w3.org/1999/xlink" width="460.8pt" height="345.6pt" viewBox="0 0 460.8 345.6" xmlns="http://www.w3.org/2000/svg" version="1.1">
 <metadata>
  <rdf:RDF xmlns:dc="http://purl.org/dc/elements/1.1/" xmlns:cc="http://creativecommons.org/ns#" xmlns:rdf="http://www.w3.org/1999/02/22-rdf-syntax-ns#">
   <cc:Work>
    <dc:type rdf:resource="http://purl.org/dc/dcmitype/StillImage"/>
    <dc:date>2024-06-19T23:15:49.757317</dc:date>
    <dc:format>image/svg+xml</dc:format>
    <dc:creator>
     <cc:Agent>
      <dc:title>Matplotlib v3.7.5, https://matplotlib.org/</dc:title>
     </cc:Agent>
    </dc:creator>
   </cc:Work>
  </rdf:RDF>
 </metadata>
 <defs>
  <style type="text/css">*{stroke-linejoin: round; stroke-linecap: butt}</style>
 </defs>
 <g id="figure_1">
  <g id="patch_1">
   <path d="M 0 345.6 
L 460.8 345.6 
L 460.8 0 
L 0 0 
z
" style="fill: #ffffff"/>
  </g>
  <g id="axes_1">
   <g id="patch_2">
    <path d="M 0 293.76 
L 460.8 293.76 
L 460.8 3.456 
L 0 3.456 
z
" style="fill: #ffffff"/>
   </g>
   <g id="matplotlib.axis_1">
    <g id="xtick_1">
     <g id="line2d_1">
      <path d="M 101.409188 293.76 
L 101.409188 3.456 
" clip-path="url(#pea8ca3e4ce)" style="fill: none; stroke: #b0b0b0; stroke-width: 0.8; stroke-linecap: square"/>
     </g>
     <g id="line2d_2">
      <defs>
       <path id="md9b5176796" d="M 0 0 
L 0 3.5 
" style="stroke: #000000; stroke-width: 0.8"/>
      </defs>
      <g>
       <use xlink:href="#md9b5176796" x="101.409188" y="293.76" style="stroke: #000000; stroke-width: 0.8"/>
      </g>
     </g>
     <g id="text_1">
      <!-- -4 -->
      <g transform="translate(91.438875 315.956875) scale(0.2 -0.2)">
       <defs>
        <path id="DejaVuSans-2d" d="M 313 2009 
L 1997 2009 
L 1997 1497 
L 313 1497 
L 313 2009 
z
" transform="scale(0.015625)"/>
        <path id="DejaVuSans-34" d="M 2419 4116 
L 825 1625 
L 2419 1625 
L 2419 4116 
z
M 2253 4666 
L 3047 4666 
L 3047 1625 
L 3713 1625 
L 3713 1100 
L 3047 1100 
L 3047 0 
L 2419 0 
L 2419 1100 
L 313 1100 
L 313 1709 
L 2253 4666 
z
" transform="scale(0.015625)"/>
       </defs>
       <use xlink:href="#DejaVuSans-2d"/>
       <use xlink:href="#DejaVuSans-34" x="36.083984"/>
      </g>
     </g>
    </g>
    <g id="xtick_2">
     <g id="line2d_3">
      <path d="M 202.928051 293.76 
L 202.928051 3.456 
" clip-path="url(#pea8ca3e4ce)" style="fill: none; stroke: #b0b0b0; stroke-width: 0.8; stroke-linecap: square"/>
     </g>
     <g id="line2d_4">
      <g>
       <use xlink:href="#md9b5176796" x="202.928051" y="293.76" style="stroke: #000000; stroke-width: 0.8"/>
      </g>
     </g>
     <g id="text_2">
      <!-- 0 -->
      <g transform="translate(196.565551 315.956875) scale(0.2 -0.2)">
       <defs>
        <path id="DejaVuSans-30" d="M 2034 4250 
Q 1547 4250 1301 3770 
Q 1056 3291 1056 2328 
Q 1056 1369 1301 889 
Q 1547 409 2034 409 
Q 2525 409 2770 889 
Q 3016 1369 3016 2328 
Q 3016 3291 2770 3770 
Q 2525 4250 2034 4250 
z
M 2034 4750 
Q 2819 4750 3233 4129 
Q 3647 3509 3647 2328 
Q 3647 1150 3233 529 
Q 2819 -91 2034 -91 
Q 1250 -91 836 529 
Q 422 1150 422 2328 
Q 422 3509 836 4129 
Q 1250 4750 2034 4750 
z
" transform="scale(0.015625)"/>
       </defs>
       <use xlink:href="#DejaVuSans-30"/>
      </g>
     </g>
    </g>
    <g id="xtick_3">
     <g id="line2d_5">
      <path d="M 304.446914 293.76 
L 304.446914 3.456 
" clip-path="url(#pea8ca3e4ce)" style="fill: none; stroke: #b0b0b0; stroke-width: 0.8; stroke-linecap: square"/>
     </g>
     <g id="line2d_6">
      <g>
       <use xlink:href="#md9b5176796" x="304.446914" y="293.76" style="stroke: #000000; stroke-width: 0.8"/>
      </g>
     </g>
     <g id="text_3">
      <!-- 4 -->
      <g transform="translate(298.084414 315.956875) scale(0.2 -0.2)">
       <use xlink:href="#DejaVuSans-34"/>
      </g>
     </g>
    </g>
    <g id="xtick_4">
     <g id="line2d_7">
      <path d="M 405.965777 293.76 
L 405.965777 3.456 
" clip-path="url(#pea8ca3e4ce)" style="fill: none; stroke: #b0b0b0; stroke-width: 0.8; stroke-linecap: square"/>
     </g>
     <g id="line2d_8">
      <g>
       <use xlink:href="#md9b5176796" x="405.965777" y="293.76" style="stroke: #000000; stroke-width: 0.8"/>
      </g>
     </g>
     <g id="text_4">
      <!-- 8 -->
      <g transform="translate(399.603277 315.956875) scale(0.2 -0.2)">
       <defs>
        <path id="DejaVuSans-38" d="M 2034 2216 
Q 1584 2216 1326 1975 
Q 1069 1734 1069 1313 
Q 1069 891 1326 650 
Q 1584 409 2034 409 
Q 2484 409 2743 651 
Q 3003 894 3003 1313 
Q 3003 1734 2745 1975 
Q 2488 2216 2034 2216 
z
M 1403 2484 
Q 997 2584 770 2862 
Q 544 3141 544 3541 
Q 544 4100 942 4425 
Q 1341 4750 2034 4750 
Q 2731 4750 3128 4425 
Q 3525 4100 3525 3541 
Q 3525 3141 3298 2862 
Q 3072 2584 2669 2484 
Q 3125 2378 3379 2068 
Q 3634 1759 3634 1313 
Q 3634 634 3220 271 
Q 2806 -91 2034 -91 
Q 1263 -91 848 271 
Q 434 634 434 1313 
Q 434 1759 690 2068 
Q 947 2378 1403 2484 
z
M 1172 3481 
Q 1172 3119 1398 2916 
Q 1625 2713 2034 2713 
Q 2441 2713 2670 2916 
Q 2900 3119 2900 3481 
Q 2900 3844 2670 4047 
Q 2441 4250 2034 4250 
Q 1625 4250 1398 4047 
Q 1172 3844 1172 3481 
z
" transform="scale(0.015625)"/>
       </defs>
       <use xlink:href="#DejaVuSans-38"/>
      </g>
     </g>
    </g>
    <g id="text_5">
     <!-- log10 of Df -->
     <g transform="translate(175.214063 339.313125) scale(0.2 -0.2)">
      <defs>
       <path id="DejaVuSans-6c" d="M 603 4863 
L 1178 4863 
L 1178 0 
L 603 0 
L 603 4863 
z
" transform="scale(0.015625)"/>
       <path id="DejaVuSans-6f" d="M 1959 3097 
Q 1497 3097 1228 2736 
Q 959 2375 959 1747 
Q 959 1119 1226 758 
Q 1494 397 1959 397 
Q 2419 397 2687 759 
Q 2956 1122 2956 1747 
Q 2956 2369 2687 2733 
Q 2419 3097 1959 3097 
z
M 1959 3584 
Q 2709 3584 3137 3096 
Q 3566 2609 3566 1747 
Q 3566 888 3137 398 
Q 2709 -91 1959 -91 
Q 1206 -91 779 398 
Q 353 888 353 1747 
Q 353 2609 779 3096 
Q 1206 3584 1959 3584 
z
" transform="scale(0.015625)"/>
       <path id="DejaVuSans-67" d="M 2906 1791 
Q 2906 2416 2648 2759 
Q 2391 3103 1925 3103 
Q 1463 3103 1205 2759 
Q 947 2416 947 1791 
Q 947 1169 1205 825 
Q 1463 481 1925 481 
Q 2391 481 2648 825 
Q 2906 1169 2906 1791 
z
M 3481 434 
Q 3481 -459 3084 -895 
Q 2688 -1331 1869 -1331 
Q 1566 -1331 1297 -1286 
Q 1028 -1241 775 -1147 
L 775 -588 
Q 1028 -725 1275 -790 
Q 1522 -856 1778 -856 
Q 2344 -856 2625 -561 
Q 2906 -266 2906 331 
L 2906 616 
Q 2728 306 2450 153 
Q 2172 0 1784 0 
Q 1141 0 747 490 
Q 353 981 353 1791 
Q 353 2603 747 3093 
Q 1141 3584 1784 3584 
Q 2172 3584 2450 3431 
Q 2728 3278 2906 2969 
L 2906 3500 
L 3481 3500 
L 3481 434 
z
" transform="scale(0.015625)"/>
       <path id="DejaVuSans-31" d="M 794 531 
L 1825 531 
L 1825 4091 
L 703 3866 
L 703 4441 
L 1819 4666 
L 2450 4666 
L 2450 531 
L 3481 531 
L 3481 0 
L 794 0 
L 794 531 
z
" transform="scale(0.015625)"/>
       <path id="DejaVuSans-20" transform="scale(0.015625)"/>
       <path id="DejaVuSans-66" d="M 2375 4863 
L 2375 4384 
L 1825 4384 
Q 1516 4384 1395 4259 
Q 1275 4134 1275 3809 
L 1275 3500 
L 2222 3500 
L 2222 3053 
L 1275 3053 
L 1275 0 
L 697 0 
L 697 3053 
L 147 3053 
L 147 3500 
L 697 3500 
L 697 3744 
Q 697 4328 969 4595 
Q 1241 4863 1831 4863 
L 2375 4863 
z
" transform="scale(0.015625)"/>
       <path id="DejaVuSans-44" d="M 1259 4147 
L 1259 519 
L 2022 519 
Q 2988 519 3436 956 
Q 3884 1394 3884 2338 
Q 3884 3275 3436 3711 
Q 2988 4147 2022 4147 
L 1259 4147 
z
M 628 4666 
L 1925 4666 
Q 3281 4666 3915 4102 
Q 4550 3538 4550 2338 
Q 4550 1131 3912 565 
Q 3275 0 1925 0 
L 628 0 
L 628 4666 
z
" transform="scale(0.015625)"/>
      </defs>
      <use xlink:href="#DejaVuSans-6c"/>
      <use xlink:href="#DejaVuSans-6f" x="27.783203"/>
      <use xlink:href="#DejaVuSans-67" x="88.964844"/>
      <use xlink:href="#DejaVuSans-31" x="152.441406"/>
      <use xlink:href="#DejaVuSans-30" x="216.064453"/>
      <use xlink:href="#DejaVuSans-20" x="279.6875"/>
      <use xlink:href="#DejaVuSans-6f" x="311.474609"/>
      <use xlink:href="#DejaVuSans-66" x="372.65625"/>
      <use xlink:href="#DejaVuSans-20" x="407.861328"/>
      <use xlink:href="#DejaVuSans-44" x="439.648438"/>
      <use xlink:href="#DejaVuSans-66" x="516.650391"/>
     </g>
    </g>
   </g>
   <g id="matplotlib.axis_2">
    <g id="ytick_1">
     <g id="line2d_9">
      <path d="M 0 293.76 
L 460.8 293.76 
" clip-path="url(#pea8ca3e4ce)" style="fill: none; stroke: #b0b0b0; stroke-width: 0.8; stroke-linecap: square"/>
     </g>
     <g id="line2d_10">
      <defs>
       <path id="m31395fed6f" d="M 0 0 
L -3.5 0 
" style="stroke: #000000; stroke-width: 0.8"/>
      </defs>
      <g>
       <use xlink:href="#m31395fed6f" x="0" y="293.76" style="stroke: #000000; stroke-width: 0.8"/>
      </g>
     </g>
    </g>
    <g id="ytick_2">
     <g id="line2d_11">
      <path d="M 0 236.274059 
L 460.8 236.274059 
" clip-path="url(#pea8ca3e4ce)" style="fill: none; stroke: #b0b0b0; stroke-width: 0.8; stroke-linecap: square"/>
     </g>
     <g id="line2d_12">
      <g>
       <use xlink:href="#m31395fed6f" x="0" y="236.274059" style="stroke: #000000; stroke-width: 0.8"/>
      </g>
     </g>
    </g>
    <g id="ytick_3">
     <g id="line2d_13">
      <path d="M 0 178.788119 
L 460.8 178.788119 
" clip-path="url(#pea8ca3e4ce)" style="fill: none; stroke: #b0b0b0; stroke-width: 0.8; stroke-linecap: square"/>
     </g>
     <g id="line2d_14">
      <g>
       <use xlink:href="#m31395fed6f" x="0" y="178.788119" style="stroke: #000000; stroke-width: 0.8"/>
      </g>
     </g>
    </g>
    <g id="ytick_4">
     <g id="line2d_15">
      <path d="M 0 121.302178 
L 460.8 121.302178 
" clip-path="url(#pea8ca3e4ce)" style="fill: none; stroke: #b0b0b0; stroke-width: 0.8; stroke-linecap: square"/>
     </g>
     <g id="line2d_16">
      <g>
       <use xlink:href="#m31395fed6f" x="0" y="121.302178" style="stroke: #000000; stroke-width: 0.8"/>
      </g>
     </g>
    </g>
    <g id="ytick_5">
     <g id="line2d_17">
      <path d="M 0 63.816238 
L 460.8 63.816238 
" clip-path="url(#pea8ca3e4ce)" style="fill: none; stroke: #b0b0b0; stroke-width: 0.8; stroke-linecap: square"/>
     </g>
     <g id="line2d_18">
      <g>
       <use xlink:href="#m31395fed6f" x="0" y="63.816238" style="stroke: #000000; stroke-width: 0.8"/>
      </g>
     </g>
    </g>
    <g id="ytick_6">
     <g id="line2d_19">
      <path d="M 0 6.330297 
L 460.8 6.330297 
" clip-path="url(#pea8ca3e4ce)" style="fill: none; stroke: #b0b0b0; stroke-width: 0.8; stroke-linecap: square"/>
     </g>
     <g id="line2d_20">
      <g>
       <use xlink:href="#m31395fed6f" x="0" y="6.330297" style="stroke: #000000; stroke-width: 0.8"/>
      </g>
     </g>
    </g>
   </g>
   <g id="line2d_21">
    <path d="M -1 171.123327 
L -0.109675 171.123327 
L -0.109675 117.469782 
L 6.456494 117.469782 
L 6.456494 113.637386 
L 14.382656 113.637386 
L 14.382656 109.80499 
L 14.550637 109.80499 
L 14.550637 105.972594 
L 21.362442 105.972594 
L 21.362442 102.140198 
L 23.354892 102.140198 
L 23.354892 98.307802 
L 34.083365 98.307802 
L 34.083365 94.475406 
L 40.051754 94.475406 
L 40.051754 90.64301 
L 41.241905 90.64301 
L 41.241905 86.810614 
L 50.080222 86.810614 
L 50.080222 82.978218 
L 53.214529 82.978218 
L 53.214529 79.145822 
L 54.817866 79.145822 
L 54.817866 75.313426 
L 56.094812 75.313426 
L 56.094812 71.48103 
L 80.18841 71.48103 
L 80.18841 67.648634 
L 80.61272 67.648634 
L 80.61272 63.816238 
L 83.287432 63.816238 
L 83.287432 59.983842 
L 84.155161 59.983842 
L 84.155161 56.151446 
L 103.350946 56.151446 
L 103.350946 52.31905 
L 118.060211 52.31905 
L 118.060211 48.486653 
L 127.585619 48.486653 
L 127.585619 44.654257 
L 129.168955 44.654257 
L 129.168955 40.821861 
L 131.855074 40.821861 
L 131.855074 36.989465 
L 132.394481 36.989465 
L 132.394481 33.157069 
L 148.333219 33.157069 
L 148.333219 29.324673 
L 153.507294 29.324673 
L 153.507294 25.492277 
L 154.439777 25.492277 
L 154.439777 21.659881 
L 155.737095 21.659881 
L 155.737095 17.827485 
L 173.712815 17.827485 
L 173.712815 13.995089 
L 186.075156 13.995089 
L 186.075156 10.162693 
L 188.599504 10.162693 
L 188.599504 6.330297 
L 188.599504 6.330297 
L 460.8 6.330297 
L 460.8 6.330297 
" clip-path="url(#pea8ca3e4ce)" style="fill: none; stroke: #ff0000; stroke-width: 3; stroke-linecap: square"/>
   </g>
   <g id="line2d_22">
    <path d="M 244.849368 293.76 
L 244.849368 289.927604 
L 247.118454 289.927604 
L 247.118454 286.095208 
L 247.281608 286.095208 
L 247.281608 282.262812 
L 248.742166 282.262812 
L 248.742166 278.430416 
L 249.263796 278.430416 
L 249.263796 274.59802 
L 252.852082 274.59802 
L 252.852082 270.765624 
L 253.396838 270.765624 
L 253.396838 266.933228 
L 253.914748 266.933228 
L 253.914748 263.100832 
L 254.639499 263.100832 
L 254.639499 259.268436 
L 255.470535 259.268436 
L 255.481971 251.603644 
L 255.789398 251.603644 
L 255.789398 247.771248 
L 256.414213 247.771248 
L 256.414213 243.938851 
L 257.185112 243.938851 
L 257.185112 240.106455 
L 258.131732 240.106455 
L 258.131732 236.274059 
L 269.670051 236.274059 
L 269.670051 232.441663 
L 282.798103 232.441663 
L 282.798103 228.609267 
L 288.20923 228.609267 
L 288.20923 224.776871 
L 289.281251 224.776871 
L 289.281251 220.944475 
L 289.489048 220.944475 
L 289.489048 217.112079 
L 289.878188 217.112079 
L 289.932902 205.614891 
L 290.318371 205.614891 
L 290.318371 201.782495 
L 290.696738 201.782495 
L 290.708577 194.117703 
L 290.922888 194.117703 
L 290.928975 186.452911 
L 291.193494 186.452911 
L 291.20103 178.788119 
L 291.98089 178.788119 
L 291.981528 171.123327 
L 293.091594 171.123327 
L 293.091594 167.290931 
L 303.546029 167.290931 
L 303.546029 163.458535 
L 308.082929 163.458535 
L 308.082929 159.626139 
L 310.891422 159.626139 
L 310.891422 155.793743 
L 318.225492 155.793743 
L 318.225492 151.961347 
L 318.76857 151.961347 
L 318.76857 148.12895 
L 322.297487 148.12895 
L 322.297487 144.296554 
L 334.071321 144.296554 
L 334.071321 140.464158 
L 334.607611 140.464158 
L 334.607611 136.631762 
L 338.3214 136.631762 
L 338.3214 132.799366 
L 343.332626 132.799366 
L 343.332626 128.96697 
L 346.208213 128.96697 
L 346.208213 125.134574 
L 350.278906 125.134574 
L 350.278906 121.302178 
L 369.884932 121.302178 
L 369.884932 117.469782 
L 371.577085 117.469782 
L 371.577085 113.637386 
L 375.436611 113.637386 
L 375.511751 105.972594 
L 376.588938 105.972594 
L 376.588938 102.140198 
L 377.107026 102.140198 
L 377.107026 98.307802 
L 378.196099 98.307802 
L 378.196099 94.475406 
L 379.318139 94.475406 
L 379.318139 90.64301 
L 379.70939 90.64301 
L 379.70939 86.810614 
L 380.559904 86.810614 
L 380.584763 79.145822 
L 380.717057 79.145822 
L 380.717057 75.313426 
L 383.821267 75.313426 
L 383.821267 71.48103 
L 384.225674 71.48103 
L 384.225674 67.648634 
L 387.875351 67.648634 
L 387.875351 63.816238 
L 412.699847 63.816238 
L 412.699847 59.983842 
L 415.0776 59.983842 
L 415.0776 56.151446 
L 416.180841 56.151446 
L 416.180841 52.31905 
L 417.647287 52.31905 
L 417.647287 48.486653 
L 417.79713 48.486653 
L 417.79713 44.654257 
L 418.45441 44.654257 
L 418.45441 40.821861 
L 419.315213 40.821861 
L 419.315213 36.989465 
L 419.685774 36.989465 
L 419.685774 33.157069 
L 419.807121 33.157069 
L 419.807121 29.324673 
L 421.705884 29.324673 
L 421.705884 25.492277 
L 422.144756 25.492277 
L 422.144756 21.659881 
L 422.748747 21.659881 
L 422.799583 13.995089 
L 428.125232 13.995089 
L 428.125232 10.162693 
L 429.965962 10.162693 
L 429.965962 6.330297 
L 429.965962 6.330297 
L 460.8 6.330297 
L 460.8 6.330297 
" clip-path="url(#pea8ca3e4ce)" style="fill: none; stroke: #00bfbf; stroke-width: 1.5; stroke-linecap: square"/>
   </g>
   <g id="line2d_23">
    <path d="M 244.849368 293.76 
L 244.849368 289.927604 
L 246.445833 289.927604 
L 246.445833 286.095208 
L 246.710386 286.095208 
L 246.710386 282.262812 
L 247.281608 282.262812 
L 247.281608 278.430416 
L 247.513198 278.430416 
L 247.513198 274.59802 
L 248.742166 274.59802 
L 248.742166 270.765624 
L 249.442335 270.765624 
L 249.442335 266.933228 
L 249.603776 266.933228 
L 249.603776 263.100832 
L 251.474825 263.100832 
L 251.474825 259.268436 
L 251.911981 259.268436 
L 251.911981 255.43604 
L 252.028559 255.43604 
L 252.028559 251.603644 
L 252.85567 251.603644 
L 252.85567 247.771248 
L 253.396838 247.771248 
L 253.410608 240.106455 
L 255.481971 240.106455 
L 255.481971 236.274059 
L 269.670051 236.274059 
L 269.670051 232.441663 
L 272.738936 232.441663 
L 272.738936 228.609267 
L 278.928939 228.609267 
L 278.928939 224.776871 
L 282.798103 224.776871 
L 282.798103 220.944475 
L 284.979444 220.944475 
L 284.979444 217.112079 
L 287.084074 217.112079 
L 287.084074 213.279683 
L 287.763644 213.279683 
L 287.763644 209.447287 
L 287.999136 209.447287 
L 288.093995 201.782495 
L 288.20923 201.782495 
L 288.20923 197.950099 
L 288.498614 197.950099 
L 288.528478 190.285307 
L 289.142706 190.285307 
L 289.142706 186.452911 
L 289.878188 186.452911 
L 289.878188 182.620515 
L 290.254462 182.620515 
L 290.254462 178.788119 
L 290.403274 178.788119 
L 290.403274 174.955723 
L 290.690307 174.955723 
L 290.690307 171.123327 
L 290.945822 171.123327 
L 290.945822 167.290931 
L 291.193494 167.290931 
L 291.193494 163.458535 
L 293.091594 163.458535 
L 293.091594 159.626139 
L 296.511233 159.626139 
L 296.511233 155.793743 
L 298.270702 155.793743 
L 298.270702 151.961347 
L 303.546029 151.961347 
L 303.60315 144.296554 
L 310.891422 144.296554 
L 310.891422 140.464158 
L 318.225492 140.464158 
L 318.225492 136.631762 
L 326.909765 136.631762 
L 326.909765 132.799366 
L 329.698751 132.799366 
L 329.698751 128.96697 
L 333.664292 128.96697 
L 333.664292 125.134574 
L 334.607611 125.134574 
L 334.607611 121.302178 
L 365.294902 121.302178 
L 365.294902 117.469782 
L 369.857565 117.469782 
L 369.884932 109.80499 
L 370.166037 109.80499 
L 370.166037 105.972594 
L 370.698164 105.972594 
L 370.698164 102.140198 
L 371.267534 102.140198 
L 371.267534 98.307802 
L 371.577085 98.307802 
L 371.577085 94.475406 
L 373.055986 94.475406 
L 373.055986 90.64301 
L 373.956316 90.64301 
L 373.956316 86.810614 
L 376.236594 86.810614 
L 376.335522 79.145822 
L 378.196099 79.145822 
L 378.196099 75.313426 
L 379.174504 75.313426 
L 379.174504 71.48103 
L 383.12602 71.48103 
L 383.12602 67.648634 
L 386.882182 67.648634 
L 386.882182 63.816238 
L 408.98852 63.816238 
L 408.98852 59.983842 
L 412.699847 59.983842 
L 412.699847 56.151446 
L 413.654999 56.151446 
L 413.654999 52.31905 
L 415.0776 52.31905 
L 415.0776 48.486653 
L 416.065319 48.486653 
L 416.065319 44.654257 
L 416.180841 44.654257 
L 416.180841 40.821861 
L 417.112463 40.821861 
L 417.112463 36.989465 
L 417.565342 36.989465 
L 417.647287 29.324673 
L 418.088604 29.324673 
L 418.088604 25.492277 
L 419.685774 25.492277 
L 419.685774 21.659881 
L 419.807121 21.659881 
L 419.807121 17.827485 
L 420.920227 17.827485 
L 420.920227 13.995089 
L 421.705884 13.995089 
L 421.705884 10.162693 
L 427.092728 10.162693 
L 427.092728 6.330297 
L 427.092728 6.330297 
L 460.8 6.330297 
L 460.8 6.330297 
" clip-path="url(#pea8ca3e4ce)" style="fill: none; stroke: #bf00bf; stroke-width: 1.5; stroke-linecap: square"/>
   </g>
   <g id="line2d_24">
    <path d="M 241.078051 293.76 
L 241.078051 289.927604 
L 241.475234 289.927604 
L 241.475234 286.095208 
L 241.723882 286.095208 
L 241.723882 282.262812 
L 242.307543 282.262812 
L 242.307543 278.430416 
L 242.806273 278.430416 
L 242.806273 274.59802 
L 243.194705 274.59802 
L 243.194705 270.765624 
L 243.9449 270.765624 
L 243.951173 263.100832 
L 245.571468 263.100832 
L 245.571468 259.268436 
L 246.28758 259.268436 
L 246.28758 255.43604 
L 246.710386 255.43604 
L 246.710386 251.603644 
L 246.843379 251.603644 
L 246.843379 247.771248 
L 248.565206 247.771248 
L 248.565206 243.938851 
L 248.677652 243.938851 
L 248.677652 240.106455 
L 249.122562 240.106455 
L 249.122562 236.274059 
L 264.06555 236.274059 
L 264.06555 232.441663 
L 264.305533 232.441663 
L 264.305533 228.609267 
L 268.891332 228.609267 
L 268.891332 224.776871 
L 269.670051 224.776871 
L 269.670051 220.944475 
L 270.179669 220.944475 
L 270.179669 217.112079 
L 271.501711 217.112079 
L 271.501711 213.279683 
L 272.738936 213.279683 
L 272.738936 209.447287 
L 273.492713 209.447287 
L 273.492713 205.614891 
L 276.070854 205.614891 
L 276.070854 201.782495 
L 278.928939 201.782495 
L 278.928939 197.950099 
L 284.388726 197.950099 
L 284.388726 194.117703 
L 284.846787 194.117703 
L 284.846787 190.285307 
L 284.979444 190.285307 
L 284.979444 186.452911 
L 286.501976 186.452911 
L 286.501976 182.620515 
L 286.740762 182.620515 
L 286.740762 178.788119 
L 286.968374 178.788119 
L 286.968374 174.955723 
L 287.084074 174.955723 
L 287.084074 171.123327 
L 287.364722 171.123327 
L 287.440544 159.626139 
L 287.613888 159.626139 
L 287.613888 155.793743 
L 287.844193 155.793743 
L 287.852291 148.12895 
L 288.844251 148.12895 
L 288.844251 144.296554 
L 289.409889 144.296554 
L 289.409889 140.464158 
L 294.124276 140.464158 
L 294.124276 136.631762 
L 296.262566 136.631762 
L 296.262566 132.799366 
L 298.270702 132.799366 
L 298.270702 128.96697 
L 302.101519 128.96697 
L 302.101519 125.134574 
L 325.395933 125.134574 
L 325.395933 121.302178 
L 358.322879 121.302178 
L 358.322879 117.469782 
L 360.118801 117.469782 
L 360.118801 113.637386 
L 362.005701 113.637386 
L 362.005701 109.80499 
L 362.462765 109.80499 
L 362.462765 105.972594 
L 364.32533 105.972594 
L 364.32533 102.140198 
L 365.230324 102.140198 
L 365.230324 98.307802 
L 365.807967 98.307802 
L 365.807967 94.475406 
L 366.062148 94.475406 
L 366.062148 90.64301 
L 369.884932 90.64301 
L 369.884932 86.810614 
L 370.698164 86.810614 
L 370.740649 79.145822 
L 371.247378 79.145822 
L 371.267534 71.48103 
L 371.748368 71.48103 
L 371.748368 67.648634 
L 373.126995 67.648634 
L 373.126995 63.816238 
L 408.98852 63.816238 
L 408.98852 59.983842 
L 411.25051 59.983842 
L 411.25051 56.151446 
L 411.571887 56.151446 
L 411.571887 52.31905 
L 412.699847 52.31905 
L 412.699847 48.486653 
L 413.90861 48.486653 
L 413.90861 44.654257 
L 414.041515 44.654257 
L 414.078478 36.989465 
L 414.293422 36.989465 
L 414.347236 29.324673 
L 414.698719 29.324673 
L 414.698719 25.492277 
L 414.871202 25.492277 
L 414.871202 21.659881 
L 415.735172 21.659881 
L 415.735172 17.827485 
L 416.668585 17.827485 
L 416.668585 13.995089 
L 417.112463 13.995089 
L 417.112463 10.162693 
L 419.220479 10.162693 
L 419.220479 6.330297 
L 419.220479 6.330297 
L 460.8 6.330297 
L 460.8 6.330297 
" clip-path="url(#pea8ca3e4ce)" style="fill: none; stroke: #000000; stroke-width: 1.5; stroke-linecap: square"/>
   </g>
   <g id="line2d_25">
    <path d="M 228.127924 293.76 
L 228.127924 289.927604 
L 229.082262 289.927604 
L 229.082262 286.095208 
L 231.370428 286.095208 
L 231.370428 282.262812 
L 232.582501 282.262812 
L 232.582501 278.430416 
L 232.744466 278.430416 
L 232.744466 274.59802 
L 234.151865 274.59802 
L 234.151865 270.765624 
L 234.34064 270.765624 
L 234.34064 266.933228 
L 235.39769 266.933228 
L 235.39769 263.100832 
L 236.168747 263.100832 
L 236.168747 259.268436 
L 237.026961 259.268436 
L 237.026961 255.43604 
L 237.27916 255.43604 
L 237.279739 247.771248 
L 237.704481 247.771248 
L 237.704481 243.938851 
L 238.128495 243.938851 
L 238.128495 240.106455 
L 239.836244 240.106455 
L 239.836244 236.274059 
L 264.06555 236.274059 
L 264.06555 232.441663 
L 264.305533 232.441663 
L 264.305533 228.609267 
L 268.451267 228.609267 
L 268.451267 224.776871 
L 268.891332 224.776871 
L 268.891332 220.944475 
L 269.670051 220.944475 
L 269.670051 217.112079 
L 270.179669 217.112079 
L 270.179669 213.279683 
L 271.501711 213.279683 
L 271.501711 209.447287 
L 272.738936 209.447287 
L 272.738936 205.614891 
L 273.492713 205.614891 
L 273.492713 201.782495 
L 275.083972 201.782495 
L 275.083972 197.950099 
L 276.646247 197.950099 
L 276.646247 194.117703 
L 277.752655 194.117703 
L 277.843056 186.452911 
L 278.13432 186.452911 
L 278.13432 182.620515 
L 278.433482 182.620515 
L 278.458698 174.955723 
L 278.928939 174.955723 
L 278.928939 171.123327 
L 279.384418 171.123327 
L 279.384418 167.290931 
L 279.970766 167.290931 
L 280.004454 159.626139 
L 280.379792 159.626139 
L 280.461121 151.961347 
L 280.627938 151.961347 
L 280.627938 148.12895 
L 280.767939 148.12895 
L 280.767939 144.296554 
L 281.63474 144.296554 
L 281.63474 140.464158 
L 281.824182 140.464158 
L 281.824182 136.631762 
L 282.437733 136.631762 
L 282.437733 132.799366 
L 282.699945 132.799366 
L 282.699945 128.96697 
L 286.570671 128.96697 
L 286.570671 125.134574 
L 294.124276 125.134574 
L 294.124276 121.302178 
L 339.754847 121.302178 
L 339.754847 117.469782 
L 352.226968 117.469782 
L 352.226968 113.637386 
L 353.998007 113.637386 
L 354.019997 105.972594 
L 354.563258 105.972594 
L 354.563258 102.140198 
L 355.670486 102.140198 
L 355.724837 94.475406 
L 356.380753 94.475406 
L 356.380753 90.64301 
L 358.217738 90.64301 
L 358.217738 86.810614 
L 360.051816 86.810614 
L 360.051816 82.978218 
L 361.64468 82.978218 
L 361.64468 79.145822 
L 362.220984 79.145822 
L 362.220984 75.313426 
L 362.59179 75.313426 
L 362.59179 71.48103 
L 364.922585 71.48103 
L 364.922585 67.648634 
L 368.781584 67.648634 
L 368.781584 63.816238 
L 394.236248 63.816238 
L 394.236248 59.983842 
L 394.545146 59.983842 
L 394.545146 56.151446 
L 396.35163 56.151446 
L 396.35163 52.31905 
L 396.555923 52.31905 
L 396.555923 48.486653 
L 396.953283 48.486653 
L 396.953283 44.654257 
L 397.152119 44.654257 
L 397.193244 36.989465 
L 397.693285 36.989465 
L 397.693285 33.157069 
L 397.978303 33.157069 
L 397.978303 29.324673 
L 398.144994 29.324673 
L 398.144994 25.492277 
L 399.639999 25.492277 
L 399.639999 21.659881 
L 399.764738 21.659881 
L 399.764738 17.827485 
L 402.545262 17.827485 
L 402.545262 13.995089 
L 403.312058 13.995089 
L 403.312058 10.162693 
L 403.673879 10.162693 
L 403.673879 6.330297 
L 403.673879 6.330297 
L 460.8 6.330297 
L 460.8 6.330297 
" clip-path="url(#pea8ca3e4ce)" style="fill: none; stroke: #00bfbf; stroke-width: 1.5; stroke-linecap: square"/>
   </g>
   <g id="line2d_26">
    <path d="M 144.131009 293.76 
L 144.131009 289.927604 
L 144.710416 289.927604 
L 144.710416 286.095208 
L 145.177324 286.095208 
L 145.177324 282.262812 
L 145.724622 282.262812 
L 145.724622 278.430416 
L 146.291671 278.430416 
L 146.291671 274.59802 
L 146.562444 274.59802 
L 146.562444 270.765624 
L 146.994177 270.765624 
L 146.994177 266.933228 
L 147.552748 266.933228 
L 147.552748 263.100832 
L 147.712495 263.100832 
L 147.712495 259.268436 
L 148.282104 259.268436 
L 148.282104 255.43604 
L 149.567922 255.43604 
L 149.651651 247.771248 
L 150.104918 247.771248 
L 150.104918 243.938851 
L 150.314663 243.938851 
L 150.314663 240.106455 
L 151.463876 240.106455 
L 151.463876 236.274059 
L 198.925012 236.274059 
L 198.925012 232.441663 
L 199.884014 232.441663 
L 199.884014 228.609267 
L 208.501031 228.609267 
L 208.501031 224.776871 
L 210.946181 224.776871 
L 210.946181 220.944475 
L 211.726269 220.944475 
L 211.726269 217.112079 
L 212.604135 217.112079 
L 212.683746 209.447287 
L 213.868926 209.447287 
L 213.868926 205.614891 
L 216.408937 205.614891 
L 216.408937 201.782495 
L 217.398308 201.782495 
L 217.398308 197.950099 
L 218.132829 197.950099 
L 218.132829 194.117703 
L 218.431379 194.117703 
L 218.431379 190.285307 
L 222.87553 190.285307 
L 222.87553 186.452911 
L 223.075944 186.452911 
L 223.075944 182.620515 
L 228.424742 182.620515 
L 228.424742 178.788119 
L 231.086369 178.788119 
L 231.086369 174.955723 
L 232.09192 174.955723 
L 232.09192 171.123327 
L 233.537883 171.123327 
L 233.537883 167.290931 
L 233.730343 167.290931 
L 233.730343 163.458535 
L 234.178614 163.458535 
L 234.178614 159.626139 
L 236.237166 159.626139 
L 236.237166 155.793743 
L 239.096339 155.793743 
L 239.096339 151.961347 
L 239.267022 151.961347 
L 239.267022 148.12895 
L 239.965309 148.12895 
L 239.965309 144.296554 
L 241.272522 144.296554 
L 241.272522 140.464158 
L 241.846249 140.464158 
L 241.846249 136.631762 
L 245.005696 136.631762 
L 245.005696 132.799366 
L 245.185451 132.799366 
L 245.185451 128.96697 
L 246.03462 128.96697 
L 246.03462 125.134574 
L 246.226581 125.134574 
L 246.226581 121.302178 
L 264.06555 121.302178 
L 264.06555 117.469782 
L 264.305533 117.469782 
L 264.305533 113.637386 
L 267.216696 113.637386 
L 267.216696 109.80499 
L 268.334624 109.80499 
L 268.411299 102.140198 
L 268.451267 102.140198 
L 268.451267 98.307802 
L 268.598445 98.307802 
L 268.598445 94.475406 
L 268.891332 94.475406 
L 268.891332 90.64301 
L 269.583613 90.64301 
L 269.583613 86.810614 
L 270.179669 86.810614 
L 270.179669 82.978218 
L 270.478713 82.978218 
L 270.478713 79.145822 
L 272.675694 79.145822 
L 272.675694 75.313426 
L 273.345999 75.313426 
L 273.345999 71.48103 
L 278.127667 71.48103 
L 278.127667 67.648634 
L 279.262882 67.648634 
L 279.262882 63.816238 
L 296.990928 63.816238 
L 296.990928 59.983842 
L 297.796352 59.983842 
L 297.796352 56.151446 
L 299.247658 56.151446 
L 299.247658 52.31905 
L 300.13334 52.31905 
L 300.13334 48.486653 
L 300.822026 48.486653 
L 300.822026 44.654257 
L 302.424966 44.654257 
L 302.424966 40.821861 
L 303.355015 40.821861 
L 303.355015 36.989465 
L 303.567317 36.989465 
L 303.567317 33.157069 
L 306.165496 33.157069 
L 306.165496 29.324673 
L 307.828998 29.324673 
L 307.828998 25.492277 
L 310.772189 25.492277 
L 310.772189 21.659881 
L 310.99092 21.659881 
L 310.99092 17.827485 
L 315.078983 17.827485 
L 315.078983 13.995089 
L 319.074822 13.995089 
L 319.074822 10.162693 
L 323.249413 10.162693 
L 323.249413 6.330297 
L 323.249413 6.330297 
L 460.8 6.330297 
L 460.8 6.330297 
" clip-path="url(#pea8ca3e4ce)" style="fill: none; stroke: #bf00bf; stroke-width: 1.5; stroke-linecap: square"/>
   </g>
   <g id="line2d_27">
    <path d="M -1 171.123327 
L -0.109675 171.123327 
L -0.109675 117.469782 
L 6.456494 117.469782 
L 6.456494 113.637386 
L 14.382656 113.637386 
L 14.382656 109.80499 
L 14.550637 109.80499 
L 14.550637 105.972594 
L 21.362442 105.972594 
L 21.362442 102.140198 
L 23.354892 102.140198 
L 23.354892 98.307802 
L 34.083365 98.307802 
L 34.083365 94.475406 
L 40.051754 94.475406 
L 40.051754 90.64301 
L 41.241905 90.64301 
L 41.241905 86.810614 
L 50.080222 86.810614 
L 50.080222 82.978218 
L 53.214529 82.978218 
L 53.214529 79.145822 
L 54.817866 79.145822 
L 54.817866 75.313426 
L 56.094812 75.313426 
L 56.094812 71.48103 
L 80.18841 71.48103 
L 80.18841 67.648634 
L 80.61272 67.648634 
L 80.61272 63.816238 
L 83.287432 63.816238 
L 83.287432 59.983842 
L 84.155161 59.983842 
L 84.155161 56.151446 
L 103.350946 56.151446 
L 103.350946 52.31905 
L 118.060211 52.31905 
L 118.060211 48.486653 
L 127.585619 48.486653 
L 127.585619 44.654257 
L 129.168955 44.654257 
L 129.168955 40.821861 
L 131.855074 40.821861 
L 131.855074 36.989465 
L 132.394481 36.989465 
L 132.394481 33.157069 
L 148.333219 33.157069 
L 148.333219 29.324673 
L 153.507294 29.324673 
L 153.507294 25.492277 
L 154.439777 25.492277 
L 154.439777 21.659881 
L 155.737095 21.659881 
L 155.737095 17.827485 
L 173.712815 17.827485 
L 173.712815 13.995089 
L 186.075156 13.995089 
L 186.075156 10.162693 
L 188.599504 10.162693 
L 188.599504 6.330297 
L 188.599504 6.330297 
L 460.8 6.330297 
L 460.8 6.330297 
" clip-path="url(#pea8ca3e4ce)" style="fill: none; stroke: #000000; stroke-width: 1.5; stroke-linecap: square"/>
   </g>
   <g id="patch_3">
    <path d="M 0 293.76 
L 0 3.456 
" style="fill: none; stroke: #000000; stroke-width: 0.8; stroke-linejoin: miter; stroke-linecap: square"/>
   </g>
   <g id="patch_4">
    <path d="M 460.8 293.76 
L 460.8 3.456 
" style="fill: none; stroke: #000000; stroke-width: 0.8; stroke-linejoin: miter; stroke-linecap: square"/>
   </g>
   <g id="patch_5">
    <path d="M 0 293.76 
L 460.8 293.76 
" style="fill: none; stroke: #000000; stroke-width: 0.8; stroke-linejoin: miter; stroke-linecap: square"/>
   </g>
   <g id="patch_6">
    <path d="M 0 3.456 
L 460.8 3.456 
" style="fill: none; stroke: #000000; stroke-width: 0.8; stroke-linejoin: miter; stroke-linecap: square"/>
   </g>
   <g id="text_6">
    <!-- {f10-f14}, 20-D -->
    <g transform="translate(293.159 287.95392) scale(0.2 -0.2)">
     <defs>
      <path id="DejaVuSans-7b" d="M 3272 -594 
L 3272 -1044 
L 3078 -1044 
Q 2300 -1044 2036 -812 
Q 1772 -581 1772 109 
L 1772 856 
Q 1772 1328 1603 1509 
Q 1434 1691 991 1691 
L 800 1691 
L 800 2138 
L 991 2138 
Q 1438 2138 1605 2317 
Q 1772 2497 1772 2963 
L 1772 3713 
Q 1772 4403 2036 4633 
Q 2300 4863 3078 4863 
L 3272 4863 
L 3272 4416 
L 3059 4416 
Q 2619 4416 2484 4278 
Q 2350 4141 2350 3700 
L 2350 2925 
Q 2350 2434 2208 2212 
Q 2066 1991 1722 1913 
Q 2069 1828 2209 1606 
Q 2350 1384 2350 897 
L 2350 122 
Q 2350 -319 2484 -456 
Q 2619 -594 3059 -594 
L 3272 -594 
z
" transform="scale(0.015625)"/>
      <path id="DejaVuSans-7d" d="M 800 -594 
L 1019 -594 
Q 1456 -594 1589 -459 
Q 1722 -325 1722 122 
L 1722 897 
Q 1722 1384 1862 1606 
Q 2003 1828 2350 1913 
Q 2003 1991 1862 2212 
Q 1722 2434 1722 2925 
L 1722 3700 
Q 1722 4144 1589 4280 
Q 1456 4416 1019 4416 
L 800 4416 
L 800 4863 
L 997 4863 
Q 1775 4863 2036 4633 
Q 2297 4403 2297 3713 
L 2297 2963 
Q 2297 2497 2465 2317 
Q 2634 2138 3078 2138 
L 3272 2138 
L 3272 1691 
L 3078 1691 
Q 2634 1691 2465 1509 
Q 2297 1328 2297 856 
L 2297 109 
Q 2297 -581 2036 -812 
Q 1775 -1044 997 -1044 
L 800 -1044 
L 800 -594 
z
" transform="scale(0.015625)"/>
      <path id="DejaVuSans-2c" d="M 750 794 
L 1409 794 
L 1409 256 
L 897 -744 
L 494 -744 
L 750 256 
L 750 794 
z
" transform="scale(0.015625)"/>
      <path id="DejaVuSans-32" d="M 1228 531 
L 3431 531 
L 3431 0 
L 469 0 
L 469 531 
Q 828 903 1448 1529 
Q 2069 2156 2228 2338 
Q 2531 2678 2651 2914 
Q 2772 3150 2772 3378 
Q 2772 3750 2511 3984 
Q 2250 4219 1831 4219 
Q 1534 4219 1204 4116 
Q 875 4013 500 3803 
L 500 4441 
Q 881 4594 1212 4672 
Q 1544 4750 1819 4750 
Q 2544 4750 2975 4387 
Q 3406 4025 3406 3419 
Q 3406 3131 3298 2873 
Q 3191 2616 2906 2266 
Q 2828 2175 2409 1742 
Q 1991 1309 1228 531 
z
" transform="scale(0.015625)"/>
     </defs>
     <use xlink:href="#DejaVuSans-7b"/>
     <use xlink:href="#DejaVuSans-66" x="63.623047"/>
     <use xlink:href="#DejaVuSans-31" x="98.828125"/>
     <use xlink:href="#DejaVuSans-30" x="162.451172"/>
     <use xlink:href="#DejaVuSans-2d" x="226.074219"/>
     <use xlink:href="#DejaVuSans-66" x="262.158203"/>
     <use xlink:href="#DejaVuSans-31" x="297.363281"/>
     <use xlink:href="#DejaVuSans-34" x="360.986328"/>
     <use xlink:href="#DejaVuSans-7d" x="424.609375"/>
     <use xlink:href="#DejaVuSans-2c" x="488.232422"/>
     <use xlink:href="#DejaVuSans-20" x="520.019531"/>
     <use xlink:href="#DejaVuSans-32" x="551.806641"/>
     <use xlink:href="#DejaVuSans-30" x="615.429688"/>
     <use xlink:href="#DejaVuSans-2d" x="679.052734"/>
     <use xlink:href="#DejaVuSans-44" x="715.136719"/>
    </g>
   </g>
   <g id="text_7">
    <!-- v2.6.3 -->
    <g style="fill: #808080" transform="translate(214.71875 288.777272) scale(0.1 -0.1)">
     <defs>
      <path id="DejaVuSans-76" d="M 191 3500 
L 800 3500 
L 1894 563 
L 2988 3500 
L 3597 3500 
L 2284 0 
L 1503 0 
L 191 3500 
z
" transform="scale(0.015625)"/>
      <path id="DejaVuSans-2e" d="M 684 794 
L 1344 794 
L 1344 0 
L 684 0 
L 684 794 
z
" transform="scale(0.015625)"/>
      <path id="DejaVuSans-36" d="M 2113 2584 
Q 1688 2584 1439 2293 
Q 1191 2003 1191 1497 
Q 1191 994 1439 701 
Q 1688 409 2113 409 
Q 2538 409 2786 701 
Q 3034 994 3034 1497 
Q 3034 2003 2786 2293 
Q 2538 2584 2113 2584 
z
M 3366 4563 
L 3366 3988 
Q 3128 4100 2886 4159 
Q 2644 4219 2406 4219 
Q 1781 4219 1451 3797 
Q 1122 3375 1075 2522 
Q 1259 2794 1537 2939 
Q 1816 3084 2150 3084 
Q 2853 3084 3261 2657 
Q 3669 2231 3669 1497 
Q 3669 778 3244 343 
Q 2819 -91 2113 -91 
Q 1303 -91 875 529 
Q 447 1150 447 2328 
Q 447 3434 972 4092 
Q 1497 4750 2381 4750 
Q 2619 4750 2861 4703 
Q 3103 4656 3366 4563 
z
" transform="scale(0.015625)"/>
      <path id="DejaVuSans-33" d="M 2597 2516 
Q 3050 2419 3304 2112 
Q 3559 1806 3559 1356 
Q 3559 666 3084 287 
Q 2609 -91 1734 -91 
Q 1441 -91 1130 -33 
Q 819 25 488 141 
L 488 750 
Q 750 597 1062 519 
Q 1375 441 1716 441 
Q 2309 441 2620 675 
Q 2931 909 2931 1356 
Q 2931 1769 2642 2001 
Q 2353 2234 1838 2234 
L 1294 2234 
L 1294 2753 
L 1863 2753 
Q 2328 2753 2575 2939 
Q 2822 3125 2822 3475 
Q 2822 3834 2567 4026 
Q 2313 4219 1838 4219 
Q 1578 4219 1281 4162 
Q 984 4106 628 3988 
L 628 4550 
Q 988 4650 1302 4700 
Q 1616 4750 1894 4750 
Q 2613 4750 3031 4423 
Q 3450 4097 3450 3541 
Q 3450 3153 3228 2886 
Q 3006 2619 2597 2516 
z
" transform="scale(0.015625)"/>
     </defs>
     <use xlink:href="#DejaVuSans-76"/>
     <use xlink:href="#DejaVuSans-32" x="59.179688"/>
     <use xlink:href="#DejaVuSans-2e" x="122.802734"/>
     <use xlink:href="#DejaVuSans-36" x="154.589844"/>
     <use xlink:href="#DejaVuSans-2e" x="218.212891"/>
     <use xlink:href="#DejaVuSans-33" x="250"/>
    </g>
   </g>
  </g>
 </g>
 <defs>
  <clipPath id="pea8ca3e4ce">
   <rect x="0" y="3.456" width="460.8" height="290.304"/>
  </clipPath>
 </defs>
</svg>
