<?xml version="1.0" encoding="utf-8" standalone="no"?>
<!DOCTYPE svg PUBLIC "-//W3C//DTD SVG 1.1//EN"
  "http://www.w3.org/Graphics/SVG/1.1/DTD/svg11.dtd">
<svg xmlns:xlink="http://www.w3.org/1999/xlink" width="460.8pt" height="345.6pt" viewBox="0 0 460.8 345.6" xmlns="http://www.w3.org/2000/svg" version="1.1">
 <metadata>
  <rdf:RDF xmlns:dc="http://purl.org/dc/elements/1.1/" xmlns:cc="http://creativecommons.org/ns#" xmlns:rdf="http://www.w3.org/1999/02/22-rdf-syntax-ns#">
   <cc:Work>
    <dc:type rdf:resource="http://purl.org/dc/dcmitype/StillImage"/>
    <dc:date>2024-06-22T00:24:34.233405</dc:date>
    <dc:format>image/svg+xml</dc:format>
    <dc:creator>
     <cc:Agent>
      <dc:title>Matplotlib v3.7.5, https://matplotlib.org/</dc:title>
     </cc:Agent>
    </dc:creator>
   </cc:Work>
  </rdf:RDF>
 </metadata>
 <defs>
  <style type="text/css">*{stroke-linejoin: round; stroke-linecap: butt}</style>
 </defs>
 <g id="figure_1">
  <g id="patch_1">
   <path d="M 0 345.6 
L 460.8 345.6 
L 460.8 0 
L 0 0 
z
" style="fill: #ffffff"/>
  </g>
  <g id="axes_1">
   <g id="patch_2">
    <path d="M 0 293.76 
L 460.8 293.76 
L 460.8 3.456 
L 0 3.456 
z
" style="fill: #ffffff"/>
   </g>
   <g id="matplotlib.axis_1">
    <g id="xtick_1">
     <g id="line2d_1">
      <path d="M 101.493326 293.76 
L 101.493326 3.456 
" clip-path="url(#p5b9f37677b)" style="fill: none; stroke: #b0b0b0; stroke-width: 0.8; stroke-linecap: square"/>
     </g>
     <g id="line2d_2">
      <defs>
       <path id="m4a8d68fd07" d="M 0 0 
L 0 3.5 
" style="stroke: #000000; stroke-width: 0.8"/>
      </defs>
      <g>
       <use xlink:href="#m4a8d68fd07" x="101.493326" y="293.76" style="stroke: #000000; stroke-width: 0.8"/>
      </g>
     </g>
     <g id="text_1">
      <!-- -4 -->
      <g transform="translate(91.523013 315.956875) scale(0.2 -0.2)">
       <defs>
        <path id="DejaVuSans-2d" d="M 313 2009 
L 1997 2009 
L 1997 1497 
L 313 1497 
L 313 2009 
z
" transform="scale(0.015625)"/>
        <path id="DejaVuSans-34" d="M 2419 4116 
L 825 1625 
L 2419 1625 
L 2419 4116 
z
M 2253 4666 
L 3047 4666 
L 3047 1625 
L 3713 1625 
L 3713 1100 
L 3047 1100 
L 3047 0 
L 2419 0 
L 2419 1100 
L 313 1100 
L 313 1709 
L 2253 4666 
z
" transform="scale(0.015625)"/>
       </defs>
       <use xlink:href="#DejaVuSans-2d"/>
       <use xlink:href="#DejaVuSans-34" x="36.083984"/>
      </g>
     </g>
    </g>
    <g id="xtick_2">
     <g id="line2d_3">
      <path d="M 203.096418 293.76 
L 203.096418 3.456 
" clip-path="url(#p5b9f37677b)" style="fill: none; stroke: #b0b0b0; stroke-width: 0.8; stroke-linecap: square"/>
     </g>
     <g id="line2d_4">
      <g>
       <use xlink:href="#m4a8d68fd07" x="203.096418" y="293.76" style="stroke: #000000; stroke-width: 0.8"/>
      </g>
     </g>
     <g id="text_2">
      <!-- 0 -->
      <g transform="translate(196.733918 315.956875) scale(0.2 -0.2)">
       <defs>
        <path id="DejaVuSans-30" d="M 2034 4250 
Q 1547 4250 1301 3770 
Q 1056 3291 1056 2328 
Q 1056 1369 1301 889 
Q 1547 409 2034 409 
Q 2525 409 2770 889 
Q 3016 1369 3016 2328 
Q 3016 3291 2770 3770 
Q 2525 4250 2034 4250 
z
M 2034 4750 
Q 2819 4750 3233 4129 
Q 3647 3509 3647 2328 
Q 3647 1150 3233 529 
Q 2819 -91 2034 -91 
Q 1250 -91 836 529 
Q 422 1150 422 2328 
Q 422 3509 836 4129 
Q 1250 4750 2034 4750 
z
" transform="scale(0.015625)"/>
       </defs>
       <use xlink:href="#DejaVuSans-30"/>
      </g>
     </g>
    </g>
    <g id="xtick_3">
     <g id="line2d_5">
      <path d="M 304.699509 293.76 
L 304.699509 3.456 
" clip-path="url(#p5b9f37677b)" style="fill: none; stroke: #b0b0b0; stroke-width: 0.8; stroke-linecap: square"/>
     </g>
     <g id="line2d_6">
      <g>
       <use xlink:href="#m4a8d68fd07" x="304.699509" y="293.76" style="stroke: #000000; stroke-width: 0.8"/>
      </g>
     </g>
     <g id="text_3">
      <!-- 4 -->
      <g transform="translate(298.337009 315.956875) scale(0.2 -0.2)">
       <use xlink:href="#DejaVuSans-34"/>
      </g>
     </g>
    </g>
    <g id="xtick_4">
     <g id="line2d_7">
      <path d="M 406.302601 293.76 
L 406.302601 3.456 
" clip-path="url(#p5b9f37677b)" style="fill: none; stroke: #b0b0b0; stroke-width: 0.8; stroke-linecap: square"/>
     </g>
     <g id="line2d_8">
      <g>
       <use xlink:href="#m4a8d68fd07" x="406.302601" y="293.76" style="stroke: #000000; stroke-width: 0.8"/>
      </g>
     </g>
     <g id="text_4">
      <!-- 8 -->
      <g transform="translate(399.940101 315.956875) scale(0.2 -0.2)">
       <defs>
        <path id="DejaVuSans-38" d="M 2034 2216 
Q 1584 2216 1326 1975 
Q 1069 1734 1069 1313 
Q 1069 891 1326 650 
Q 1584 409 2034 409 
Q 2484 409 2743 651 
Q 3003 894 3003 1313 
Q 3003 1734 2745 1975 
Q 2488 2216 2034 2216 
z
M 1403 2484 
Q 997 2584 770 2862 
Q 544 3141 544 3541 
Q 544 4100 942 4425 
Q 1341 4750 2034 4750 
Q 2731 4750 3128 4425 
Q 3525 4100 3525 3541 
Q 3525 3141 3298 2862 
Q 3072 2584 2669 2484 
Q 3125 2378 3379 2068 
Q 3634 1759 3634 1313 
Q 3634 634 3220 271 
Q 2806 -91 2034 -91 
Q 1263 -91 848 271 
Q 434 634 434 1313 
Q 434 1759 690 2068 
Q 947 2378 1403 2484 
z
M 1172 3481 
Q 1172 3119 1398 2916 
Q 1625 2713 2034 2713 
Q 2441 2713 2670 2916 
Q 2900 3119 2900 3481 
Q 2900 3844 2670 4047 
Q 2441 4250 2034 4250 
Q 1625 4250 1398 4047 
Q 1172 3844 1172 3481 
z
" transform="scale(0.015625)"/>
       </defs>
       <use xlink:href="#DejaVuSans-38"/>
      </g>
     </g>
    </g>
    <g id="text_5">
     <!-- log10 of Df -->
     <g transform="translate(175.214063 339.313125) scale(0.2 -0.2)">
      <defs>
       <path id="DejaVuSans-6c" d="M 603 4863 
L 1178 4863 
L 1178 0 
L 603 0 
L 603 4863 
z
" transform="scale(0.015625)"/>
       <path id="DejaVuSans-6f" d="M 1959 3097 
Q 1497 3097 1228 2736 
Q 959 2375 959 1747 
Q 959 1119 1226 758 
Q 1494 397 1959 397 
Q 2419 397 2687 759 
Q 2956 1122 2956 1747 
Q 2956 2369 2687 2733 
Q 2419 3097 1959 3097 
z
M 1959 3584 
Q 2709 3584 3137 3096 
Q 3566 2609 3566 1747 
Q 3566 888 3137 398 
Q 2709 -91 1959 -91 
Q 1206 -91 779 398 
Q 353 888 353 1747 
Q 353 2609 779 3096 
Q 1206 3584 1959 3584 
z
" transform="scale(0.015625)"/>
       <path id="DejaVuSans-67" d="M 2906 1791 
Q 2906 2416 2648 2759 
Q 2391 3103 1925 3103 
Q 1463 3103 1205 2759 
Q 947 2416 947 1791 
Q 947 1169 1205 825 
Q 1463 481 1925 481 
Q 2391 481 2648 825 
Q 2906 1169 2906 1791 
z
M 3481 434 
Q 3481 -459 3084 -895 
Q 2688 -1331 1869 -1331 
Q 1566 -1331 1297 -1286 
Q 1028 -1241 775 -1147 
L 775 -588 
Q 1028 -725 1275 -790 
Q 1522 -856 1778 -856 
Q 2344 -856 2625 -561 
Q 2906 -266 2906 331 
L 2906 616 
Q 2728 306 2450 153 
Q 2172 0 1784 0 
Q 1141 0 747 490 
Q 353 981 353 1791 
Q 353 2603 747 3093 
Q 1141 3584 1784 3584 
Q 2172 3584 2450 3431 
Q 2728 3278 2906 2969 
L 2906 3500 
L 3481 3500 
L 3481 434 
z
" transform="scale(0.015625)"/>
       <path id="DejaVuSans-31" d="M 794 531 
L 1825 531 
L 1825 4091 
L 703 3866 
L 703 4441 
L 1819 4666 
L 2450 4666 
L 2450 531 
L 3481 531 
L 3481 0 
L 794 0 
L 794 531 
z
" transform="scale(0.015625)"/>
       <path id="DejaVuSans-20" transform="scale(0.015625)"/>
       <path id="DejaVuSans-66" d="M 2375 4863 
L 2375 4384 
L 1825 4384 
Q 1516 4384 1395 4259 
Q 1275 4134 1275 3809 
L 1275 3500 
L 2222 3500 
L 2222 3053 
L 1275 3053 
L 1275 0 
L 697 0 
L 697 3053 
L 147 3053 
L 147 3500 
L 697 3500 
L 697 3744 
Q 697 4328 969 4595 
Q 1241 4863 1831 4863 
L 2375 4863 
z
" transform="scale(0.015625)"/>
       <path id="DejaVuSans-44" d="M 1259 4147 
L 1259 519 
L 2022 519 
Q 2988 519 3436 956 
Q 3884 1394 3884 2338 
Q 3884 3275 3436 3711 
Q 2988 4147 2022 4147 
L 1259 4147 
z
M 628 4666 
L 1925 4666 
Q 3281 4666 3915 4102 
Q 4550 3538 4550 2338 
Q 4550 1131 3912 565 
Q 3275 0 1925 0 
L 628 0 
L 628 4666 
z
" transform="scale(0.015625)"/>
      </defs>
      <use xlink:href="#DejaVuSans-6c"/>
      <use xlink:href="#DejaVuSans-6f" x="27.783203"/>
      <use xlink:href="#DejaVuSans-67" x="88.964844"/>
      <use xlink:href="#DejaVuSans-31" x="152.441406"/>
      <use xlink:href="#DejaVuSans-30" x="216.064453"/>
      <use xlink:href="#DejaVuSans-20" x="279.6875"/>
      <use xlink:href="#DejaVuSans-6f" x="311.474609"/>
      <use xlink:href="#DejaVuSans-66" x="372.65625"/>
      <use xlink:href="#DejaVuSans-20" x="407.861328"/>
      <use xlink:href="#DejaVuSans-44" x="439.648438"/>
      <use xlink:href="#DejaVuSans-66" x="516.650391"/>
     </g>
    </g>
   </g>
   <g id="matplotlib.axis_2">
    <g id="ytick_1">
     <g id="line2d_9">
      <path d="M 0 293.76 
L 460.8 293.76 
" clip-path="url(#p5b9f37677b)" style="fill: none; stroke: #b0b0b0; stroke-width: 0.8; stroke-linecap: square"/>
     </g>
     <g id="line2d_10">
      <defs>
       <path id="m73b688882f" d="M 0 0 
L -3.5 0 
" style="stroke: #000000; stroke-width: 0.8"/>
      </defs>
      <g>
       <use xlink:href="#m73b688882f" x="0" y="293.76" style="stroke: #000000; stroke-width: 0.8"/>
      </g>
     </g>
    </g>
    <g id="ytick_2">
     <g id="line2d_11">
      <path d="M 0 236.274059 
L 460.8 236.274059 
" clip-path="url(#p5b9f37677b)" style="fill: none; stroke: #b0b0b0; stroke-width: 0.8; stroke-linecap: square"/>
     </g>
     <g id="line2d_12">
      <g>
       <use xlink:href="#m73b688882f" x="0" y="236.274059" style="stroke: #000000; stroke-width: 0.8"/>
      </g>
     </g>
    </g>
    <g id="ytick_3">
     <g id="line2d_13">
      <path d="M 0 178.788119 
L 460.8 178.788119 
" clip-path="url(#p5b9f37677b)" style="fill: none; stroke: #b0b0b0; stroke-width: 0.8; stroke-linecap: square"/>
     </g>
     <g id="line2d_14">
      <g>
       <use xlink:href="#m73b688882f" x="0" y="178.788119" style="stroke: #000000; stroke-width: 0.8"/>
      </g>
     </g>
    </g>
    <g id="ytick_4">
     <g id="line2d_15">
      <path d="M 0 121.302178 
L 460.8 121.302178 
" clip-path="url(#p5b9f37677b)" style="fill: none; stroke: #b0b0b0; stroke-width: 0.8; stroke-linecap: square"/>
     </g>
     <g id="line2d_16">
      <g>
       <use xlink:href="#m73b688882f" x="0" y="121.302178" style="stroke: #000000; stroke-width: 0.8"/>
      </g>
     </g>
    </g>
    <g id="ytick_5">
     <g id="line2d_17">
      <path d="M 0 63.816238 
L 460.8 63.816238 
" clip-path="url(#p5b9f37677b)" style="fill: none; stroke: #b0b0b0; stroke-width: 0.8; stroke-linecap: square"/>
     </g>
     <g id="line2d_18">
      <g>
       <use xlink:href="#m73b688882f" x="0" y="63.816238" style="stroke: #000000; stroke-width: 0.8"/>
      </g>
     </g>
    </g>
    <g id="ytick_6">
     <g id="line2d_19">
      <path d="M 0 6.330297 
L 460.8 6.330297 
" clip-path="url(#p5b9f37677b)" style="fill: none; stroke: #b0b0b0; stroke-width: 0.8; stroke-linecap: square"/>
     </g>
     <g id="line2d_20">
      <g>
       <use xlink:href="#m73b688882f" x="0" y="6.330297" style="stroke: #000000; stroke-width: 0.8"/>
      </g>
     </g>
    </g>
   </g>
   <g id="line2d_21">
    <path d="M 139.840823 293.76 
L 139.840823 289.927604 
L 142.98946 289.927604 
L 142.98946 286.095208 
L 148.610774 286.095208 
L 148.610774 282.262812 
L 156.365031 282.262812 
L 156.365031 278.430416 
L 157.019659 278.430416 
L 157.019659 274.59802 
L 161.208112 274.59802 
L 161.208112 270.765624 
L 162.988782 270.765624 
L 162.988782 266.933228 
L 163.927134 266.933228 
L 164.011911 259.268436 
L 164.090765 259.268436 
L 164.090765 255.43604 
L 165.47521 255.43604 
L 165.47521 251.603644 
L 170.052771 251.603644 
L 170.052771 247.771248 
L 173.560722 247.771248 
L 173.560722 243.938851 
L 174.577011 243.938851 
L 174.577011 240.106455 
L 175.560407 240.106455 
L 175.560407 236.274059 
L 176.434446 236.274059 
L 176.434446 232.441663 
L 177.244357 232.441663 
L 177.244357 228.609267 
L 179.15691 228.609267 
L 179.15691 224.776871 
L 180.939679 224.776871 
L 180.939679 220.944475 
L 182.685509 220.944475 
L 182.685509 217.112079 
L 183.534138 217.112079 
L 183.534138 213.279683 
L 190.464086 213.279683 
L 190.464086 209.447287 
L 190.909447 209.447287 
L 190.909447 205.614891 
L 191.510769 205.614891 
L 191.510769 201.782495 
L 192.218615 201.782495 
L 192.218615 197.950099 
L 193.024414 197.950099 
L 193.024414 194.117703 
L 193.497247 194.117703 
L 193.497247 190.285307 
L 194.131771 190.285307 
L 194.131771 186.452911 
L 194.538578 186.452911 
L 194.538578 182.620515 
L 194.735598 182.620515 
L 194.735598 178.788119 
L 196.607409 178.788119 
L 196.607409 174.955723 
L 196.965521 174.955723 
L 196.965521 171.123327 
L 197.559596 171.123327 
L 197.559596 167.290931 
L 197.879121 167.290931 
L 197.879121 163.458535 
L 198.358283 163.458535 
L 198.358283 159.626139 
L 200.186517 159.626139 
L 200.186517 155.793743 
L 200.351979 155.793743 
L 200.351979 151.961347 
L 203.80532 151.961347 
L 203.80532 148.12895 
L 204.031629 148.12895 
L 204.031629 144.296554 
L 204.465391 144.296554 
L 204.465391 140.464158 
L 205.755888 140.464158 
L 205.755888 136.631762 
L 206.16285 136.631762 
L 206.16285 132.799366 
L 206.541358 132.799366 
L 206.541358 128.96697 
L 206.812861 128.96697 
L 206.812861 125.134574 
L 206.9912 125.134574 
L 206.9912 121.302178 
L 208.422791 121.302178 
L 208.422791 117.469782 
L 208.536814 117.469782 
L 208.536814 113.637386 
L 209.31294 113.637386 
L 209.31294 109.80499 
L 213.718147 109.80499 
L 213.718147 105.972594 
L 214.461689 105.972594 
L 214.461689 102.140198 
L 219.024418 102.140198 
L 219.121459 94.475406 
L 220.013613 94.475406 
L 220.013613 90.64301 
L 221.04328 90.64301 
L 221.04328 86.810614 
L 221.480524 86.810614 
L 221.499029 79.145822 
L 225.217444 79.145822 
L 225.217444 75.313426 
L 225.621386 75.313426 
L 225.621386 71.48103 
L 226.074058 71.48103 
L 226.074058 67.648634 
L 228.240383 67.648634 
L 228.240383 63.816238 
L 235.521992 63.816238 
L 235.521992 59.983842 
L 237.629598 59.983842 
L 237.629598 56.151446 
L 238.549416 56.151446 
L 238.549416 52.31905 
L 239.799585 52.31905 
L 239.799585 48.486653 
L 240.922385 48.486653 
L 240.922385 44.654257 
L 242.261155 44.654257 
L 242.261155 40.821861 
L 243.168365 40.821861 
L 243.168365 36.989465 
L 243.454923 36.989465 
L 243.454923 33.157069 
L 243.734204 33.157069 
L 243.734218 21.659881 
L 245.033509 21.659881 
L 245.033527 13.995089 
L 246.41425 13.995089 
L 246.41425 10.162693 
L 247.044781 10.162693 
L 247.044781 6.330297 
L 247.044781 6.330297 
L 460.8 6.330297 
L 460.8 6.330297 
" clip-path="url(#p5b9f37677b)" style="fill: none; stroke: #ff0000; stroke-width: 3; stroke-linecap: square"/>
   </g>
   <g id="line2d_22">
    <path d="M 235.66722 293.76 
L 235.66722 289.927604 
L 240.323104 289.927604 
L 240.338677 282.262812 
L 240.602319 282.262812 
L 240.602319 278.430416 
L 240.875522 278.430416 
L 240.875522 274.59802 
L 241.225024 274.59802 
L 241.225024 270.765624 
L 241.464045 270.765624 
L 241.464045 266.933228 
L 242.436672 266.933228 
L 242.436672 263.100832 
L 243.419336 263.100832 
L 243.452576 255.43604 
L 243.829194 255.43604 
L 243.898477 247.771248 
L 244.235926 247.771248 
L 244.235926 243.938851 
L 244.509838 243.938851 
L 244.583015 232.441663 
L 244.982628 232.441663 
L 245.005028 224.776871 
L 245.12274 224.776871 
L 245.12274 220.944475 
L 245.341531 220.944475 
L 245.341531 217.112079 
L 245.540643 217.112079 
L 245.636089 201.782495 
L 245.748292 201.782495 
L 245.829774 194.117703 
L 245.916433 194.117703 
L 245.916433 190.285307 
L 246.057606 190.285307 
L 246.057606 186.452911 
L 246.231049 186.452911 
L 246.231049 182.620515 
L 246.389667 182.620515 
L 246.389667 178.788119 
L 246.648709 178.788119 
L 246.649545 171.123327 
L 247.316908 171.123327 
L 247.34528 163.458535 
L 247.490008 163.458535 
L 247.490008 159.626139 
L 247.905766 159.626139 
L 247.905766 155.793743 
L 248.110211 155.793743 
L 248.20099 148.12895 
L 248.307472 148.12895 
L 248.307472 144.296554 
L 248.542733 144.296554 
L 248.542733 140.464158 
L 248.996981 140.464158 
L 248.996981 136.631762 
L 249.155152 136.631762 
L 249.210083 128.96697 
L 249.855585 128.96697 
L 249.855585 125.134574 
L 250.125287 125.134574 
L 250.125287 121.302178 
L 252.018311 121.302178 
L 252.018311 117.469782 
L 253.648406 117.469782 
L 253.648406 113.637386 
L 253.847947 113.637386 
L 253.847947 109.80499 
L 254.318499 109.80499 
L 254.318499 105.972594 
L 254.512781 105.972594 
L 254.512781 102.140198 
L 254.710218 102.140198 
L 254.710218 98.307802 
L 255.058815 98.307802 
L 255.058815 94.475406 
L 255.471932 94.475406 
L 255.534189 86.810614 
L 255.586952 86.810614 
L 255.586952 82.978218 
L 257.271315 82.978218 
L 257.271315 79.145822 
L 258.814426 79.145822 
L 258.814426 75.313426 
L 259.376609 75.313426 
L 259.376609 71.48103 
L 260.631671 71.48103 
L 260.631671 67.648634 
L 261.632339 67.648634 
L 261.632339 63.816238 
L 277.858116 63.816238 
L 277.858116 59.983842 
L 278.922091 59.983842 
L 278.954114 52.31905 
L 279.654103 52.31905 
L 279.757473 40.821861 
L 279.775419 40.821861 
L 279.775419 36.989465 
L 280.260186 36.989465 
L 280.260186 33.157069 
L 281.043832 33.157069 
L 281.043832 29.324673 
L 281.471264 29.324673 
L 281.471264 25.492277 
L 282.250084 25.492277 
L 282.250084 21.659881 
L 282.783668 21.659881 
L 282.796906 13.995089 
L 283.632079 13.995089 
L 283.632079 10.162693 
L 287.088264 10.162693 
L 287.088264 6.330297 
L 287.088264 6.330297 
L 460.8 6.330297 
L 460.8 6.330297 
" clip-path="url(#p5b9f37677b)" style="fill: none; stroke: #00bfbf; stroke-width: 1.5; stroke-linecap: square"/>
   </g>
   <g id="line2d_23">
    <path d="M 234.395617 293.76 
L 234.395617 289.927604 
L 235.66722 289.927604 
L 235.66722 286.095208 
L 236.192618 286.095208 
L 236.192618 282.262812 
L 236.443206 282.262812 
L 236.443206 278.430416 
L 236.576889 278.430416 
L 236.576889 274.59802 
L 236.861426 274.59802 
L 236.861426 270.765624 
L 237.695139 270.765624 
L 237.695139 266.933228 
L 237.859318 266.933228 
L 237.925479 259.268436 
L 238.109077 259.268436 
L 238.170932 251.603644 
L 238.420985 251.603644 
L 238.420985 247.771248 
L 238.728174 247.771248 
L 238.728174 243.938851 
L 239.021207 243.938851 
L 239.072023 228.609267 
L 239.197129 228.609267 
L 239.197129 224.776871 
L 239.345883 224.776871 
L 239.345883 220.944475 
L 239.525542 220.944475 
L 239.532768 213.279683 
L 239.93381 213.279683 
L 239.93381 209.447287 
L 240.498321 209.447287 
L 240.498321 205.614891 
L 240.875522 205.614891 
L 240.875522 201.782495 
L 241.417436 201.782495 
L 241.464045 194.117703 
L 243.117384 194.117703 
L 243.117384 190.285307 
L 243.74415 190.285307 
L 243.74415 186.452911 
L 243.882952 186.452911 
L 243.934641 178.788119 
L 244.235926 178.788119 
L 244.235926 174.955723 
L 244.423559 174.955723 
L 244.423559 171.123327 
L 244.543974 171.123327 
L 244.543974 167.290931 
L 245.246361 167.290931 
L 245.246361 163.458535 
L 245.590049 163.458535 
L 245.594996 155.793743 
L 246.057606 155.793743 
L 246.057606 151.961347 
L 246.275786 151.961347 
L 246.275786 148.12895 
L 246.389667 148.12895 
L 246.419356 140.464158 
L 246.649545 140.464158 
L 246.649545 136.631762 
L 247.316908 136.631762 
L 247.316908 132.799366 
L 247.905766 132.799366 
L 247.905766 128.96697 
L 248.249046 128.96697 
L 248.249046 125.134574 
L 248.542733 125.134574 
L 248.542733 121.302178 
L 249.210083 121.302178 
L 249.210083 117.469782 
L 249.880445 117.469782 
L 249.880445 113.637386 
L 250.554633 113.637386 
L 250.554633 109.80499 
L 251.329237 109.80499 
L 251.329237 105.972594 
L 251.497603 105.972594 
L 251.497603 102.140198 
L 251.690981 102.140198 
L 251.690981 98.307802 
L 251.979921 98.307802 
L 251.979921 94.475406 
L 253.45427 94.475406 
L 253.483169 86.810614 
L 254.189371 86.810614 
L 254.189371 82.978218 
L 254.318499 82.978218 
L 254.318499 79.145822 
L 254.751623 79.145822 
L 254.751623 75.313426 
L 255.534189 75.313426 
L 255.534189 71.48103 
L 258.611212 71.48103 
L 258.611212 67.648634 
L 260.631671 67.648634 
L 260.631671 63.816238 
L 276.454923 63.816238 
L 276.454923 59.983842 
L 276.611486 59.983842 
L 276.611486 56.151446 
L 277.397688 56.151446 
L 277.397688 52.31905 
L 277.858116 52.31905 
L 277.858116 48.486653 
L 278.001393 48.486653 
L 278.04975 40.821861 
L 278.268741 40.821861 
L 278.268741 36.989465 
L 278.530261 36.989465 
L 278.602096 29.324673 
L 278.954114 29.324673 
L 278.954114 25.492277 
L 279.654103 25.492277 
L 279.654103 21.659881 
L 281.308748 21.659881 
L 281.308748 17.827485 
L 282.63132 17.827485 
L 282.63132 13.995089 
L 282.796906 13.995089 
L 282.796906 10.162693 
L 284.846444 10.162693 
L 284.846444 6.330297 
L 284.846444 6.330297 
L 460.8 6.330297 
L 460.8 6.330297 
" clip-path="url(#p5b9f37677b)" style="fill: none; stroke: #bf00bf; stroke-width: 1.5; stroke-linecap: square"/>
   </g>
   <g id="line2d_24">
    <path d="M 228.138761 293.76 
L 228.138761 289.927604 
L 233.557729 289.927604 
L 233.667378 282.262812 
L 234.091487 282.262812 
L 234.091487 278.430416 
L 234.395617 278.430416 
L 234.395617 274.59802 
L 234.659735 274.59802 
L 234.703185 266.933228 
L 235.376662 266.933228 
L 235.376662 263.100832 
L 235.812654 263.100832 
L 235.876411 255.43604 
L 236.192618 255.43604 
L 236.229768 243.938851 
L 236.520093 243.938851 
L 236.576889 236.274059 
L 236.684357 236.274059 
L 236.759474 228.609267 
L 236.861426 228.609267 
L 236.936651 220.944475 
L 237.708161 220.944475 
L 237.708161 217.112079 
L 237.925479 217.112079 
L 237.978547 205.614891 
L 238.336916 205.614891 
L 238.336916 201.782495 
L 238.555292 201.782495 
L 238.644926 194.117703 
L 239.021207 194.117703 
L 239.021207 190.285307 
L 239.345883 190.285307 
L 239.345883 186.452911 
L 239.93381 186.452911 
L 239.93381 182.620515 
L 240.875522 182.620515 
L 240.875522 178.788119 
L 241.762606 178.788119 
L 241.762606 174.955723 
L 243.852823 174.955723 
L 243.882952 167.290931 
L 244.457473 167.290931 
L 244.543974 159.626139 
L 244.597249 159.626139 
L 244.597249 155.793743 
L 245.246361 155.793743 
L 245.255427 148.12895 
L 245.594996 148.12895 
L 245.594996 144.296554 
L 245.827226 144.296554 
L 245.827226 140.464158 
L 246.275786 140.464158 
L 246.275786 136.631762 
L 246.389667 136.631762 
L 246.419231 128.96697 
L 246.649545 128.96697 
L 246.742439 121.302178 
L 247.209412 121.302178 
L 247.209412 117.469782 
L 247.852012 117.469782 
L 247.870782 109.80499 
L 248.049747 109.80499 
L 248.14775 98.307802 
L 248.23583 98.307802 
L 248.23583 94.475406 
L 249.014303 94.475406 
L 249.014303 90.64301 
L 250.198122 90.64301 
L 250.198122 86.810614 
L 250.759878 86.810614 
L 250.759878 82.978218 
L 251.03728 82.978218 
L 251.03728 79.145822 
L 251.209035 79.145822 
L 251.209035 75.313426 
L 251.428914 75.313426 
L 251.428914 71.48103 
L 254.189371 71.48103 
L 254.189371 67.648634 
L 254.9328 67.648634 
L 254.9328 63.816238 
L 271.427181 63.816238 
L 271.427181 59.983842 
L 272.8487 59.983842 
L 272.8487 56.151446 
L 273.594808 56.151446 
L 273.594808 52.31905 
L 273.792628 52.31905 
L 273.792628 48.486653 
L 274.240467 48.486653 
L 274.240467 44.654257 
L 274.747384 44.654257 
L 274.747384 40.821861 
L 274.998846 40.821861 
L 275.078107 33.157069 
L 275.289157 33.157069 
L 275.297053 25.492277 
L 275.571337 25.492277 
L 275.580744 17.827485 
L 276.61237 17.827485 
L 276.61237 13.995089 
L 277.463075 13.995089 
L 277.463075 10.162693 
L 277.658945 10.162693 
L 277.658945 6.330297 
L 277.658945 6.330297 
L 460.8 6.330297 
L 460.8 6.330297 
" clip-path="url(#p5b9f37677b)" style="fill: none; stroke: #000000; stroke-width: 1.5; stroke-linecap: square"/>
   </g>
   <g id="line2d_25">
    <path d="M 221.958869 293.76 
L 221.958869 289.927604 
L 223.767293 289.927604 
L 223.87338 282.262812 
L 224.565459 282.262812 
L 224.640312 274.59802 
L 224.798454 274.59802 
L 224.798454 270.765624 
L 225.822498 270.765624 
L 225.822498 266.933228 
L 226.388623 266.933228 
L 226.388623 263.100832 
L 226.629163 263.100832 
L 226.696523 255.43604 
L 226.767901 255.43604 
L 226.767901 251.603644 
L 227.058227 251.603644 
L 227.058227 247.771248 
L 227.260272 247.771248 
L 227.260272 243.938851 
L 227.428883 243.938851 
L 227.509305 224.776871 
L 227.584135 224.776871 
L 227.584135 220.944475 
L 228.119548 220.944475 
L 228.18615 213.279683 
L 228.669089 213.279683 
L 228.717434 205.614891 
L 228.996473 205.614891 
L 228.996473 201.782495 
L 229.286179 201.782495 
L 229.38698 190.285307 
L 229.543132 190.285307 
L 229.543132 186.452911 
L 230.283974 186.452911 
L 230.283974 182.620515 
L 232.86233 182.620515 
L 232.86233 178.788119 
L 238.056392 178.788119 
L 238.090106 171.123327 
L 238.332823 171.123327 
L 238.332823 167.290931 
L 238.883309 167.290931 
L 238.907283 159.626139 
L 240.123028 159.626139 
L 240.123028 155.793743 
L 240.382882 155.793743 
L 240.382882 151.961347 
L 240.875522 151.961347 
L 240.923956 144.296554 
L 241.201556 144.296554 
L 241.210413 136.631762 
L 241.40791 136.631762 
L 241.464166 128.96697 
L 241.797306 128.96697 
L 241.797306 125.134574 
L 241.93426 125.134574 
L 242.024975 117.469782 
L 242.479186 117.469782 
L 242.479186 113.637386 
L 242.712216 113.637386 
L 242.712216 109.80499 
L 243.852823 109.80499 
L 243.882952 102.140198 
L 244.457473 102.140198 
L 244.457473 98.307802 
L 245.123139 98.307802 
L 245.123139 94.475406 
L 245.246361 94.475406 
L 245.246361 90.64301 
L 245.438888 90.64301 
L 245.438888 86.810614 
L 245.594996 86.810614 
L 245.635188 79.145822 
L 245.918137 79.145822 
L 245.918137 75.313426 
L 246.649545 75.313426 
L 246.649545 71.48103 
L 247.208679 71.48103 
L 247.208679 67.648634 
L 249.016363 67.648634 
L 249.016363 63.816238 
L 265.529032 63.816238 
L 265.529032 59.983842 
L 265.817929 59.983842 
L 265.820595 52.31905 
L 266.125275 52.31905 
L 266.125275 48.486653 
L 266.304682 48.486653 
L 266.35795 36.989465 
L 266.757308 36.989465 
L 266.76023 29.324673 
L 266.908994 29.324673 
L 266.908994 25.492277 
L 267.224064 25.492277 
L 267.224064 21.659881 
L 269.38637 21.659881 
L 269.38637 17.827485 
L 269.543517 17.827485 
L 269.543517 13.995089 
L 269.785978 13.995089 
L 269.785978 10.162693 
L 270.338274 10.162693 
L 270.338274 6.330297 
L 270.338274 6.330297 
L 460.8 6.330297 
L 460.8 6.330297 
" clip-path="url(#p5b9f37677b)" style="fill: none; stroke: #00bfbf; stroke-width: 1.5; stroke-linecap: square"/>
   </g>
   <g id="line2d_26">
    <path d="M 165.424723 293.76 
L 165.424723 289.927604 
L 172.142887 289.927604 
L 172.142887 286.095208 
L 176.295097 286.095208 
L 176.295097 282.262812 
L 177.372198 282.262812 
L 177.372198 278.430416 
L 179.662138 278.430416 
L 179.662138 274.59802 
L 179.815061 274.59802 
L 179.815061 270.765624 
L 180.191254 270.765624 
L 180.191254 266.933228 
L 180.723405 266.933228 
L 180.723405 263.100832 
L 181.717968 263.100832 
L 181.717968 259.268436 
L 182.314629 259.268436 
L 182.314629 255.43604 
L 182.470685 255.43604 
L 182.470685 251.603644 
L 182.858648 251.603644 
L 182.858648 247.771248 
L 184.29977 247.771248 
L 184.29977 243.938851 
L 184.937993 243.938851 
L 184.937993 240.106455 
L 188.18775 240.106455 
L 188.18775 236.274059 
L 188.701001 236.274059 
L 188.701001 232.441663 
L 190.079562 232.441663 
L 190.079562 228.609267 
L 190.412021 228.609267 
L 190.412021 224.776871 
L 193.886145 224.776871 
L 193.886145 220.944475 
L 198.279002 220.944475 
L 198.279002 217.112079 
L 199.810251 217.112079 
L 199.810251 213.279683 
L 200.008253 213.279683 
L 200.008253 209.447287 
L 202.050156 209.447287 
L 202.050156 205.614891 
L 203.295957 205.614891 
L 203.358341 197.950099 
L 203.462649 197.950099 
L 203.462649 194.117703 
L 209.189313 194.117703 
L 209.189313 190.285307 
L 211.508559 190.285307 
L 211.508559 186.452911 
L 211.862358 186.452911 
L 211.862358 182.620515 
L 213.632908 182.620515 
L 213.632908 178.788119 
L 219.217545 178.788119 
L 219.217545 174.955723 
L 219.902594 174.955723 
L 219.913572 167.290931 
L 220.643642 167.290931 
L 220.643642 163.458535 
L 220.804426 163.458535 
L 220.862075 155.793743 
L 221.089571 155.793743 
L 221.146326 148.12895 
L 221.314243 148.12895 
L 221.314243 144.296554 
L 221.830046 144.296554 
L 221.830046 140.464158 
L 222.024588 140.464158 
L 222.119641 128.96697 
L 222.232363 128.96697 
L 222.232363 125.134574 
L 222.412861 125.134574 
L 222.412861 121.302178 
L 222.819142 121.302178 
L 222.819142 117.469782 
L 227.923739 117.469782 
L 227.923739 113.637386 
L 228.951437 113.637386 
L 228.951437 109.80499 
L 230.07758 109.80499 
L 230.07758 105.972594 
L 232.123369 105.972594 
L 232.123369 102.140198 
L 232.802621 102.140198 
L 232.802621 98.307802 
L 233.616005 98.307802 
L 233.616005 94.475406 
L 235.64155 94.475406 
L 235.64155 90.64301 
L 238.758581 90.64301 
L 238.758581 86.810614 
L 239.000054 86.810614 
L 239.000054 82.978218 
L 239.521338 82.978218 
L 239.521338 79.145822 
L 240.089573 79.145822 
L 240.089573 75.313426 
L 240.52174 75.313426 
L 240.52174 71.48103 
L 241.211142 71.48103 
L 241.211142 67.648634 
L 241.733156 67.648634 
L 241.733156 63.816238 
L 243.92803 63.816238 
L 243.92803 59.983842 
L 249.37407 59.983842 
L 249.37407 56.151446 
L 249.682724 56.151446 
L 249.682724 52.31905 
L 249.804492 52.31905 
L 249.804492 48.486653 
L 250.464586 48.486653 
L 250.464586 44.654257 
L 253.356747 44.654257 
L 253.356747 40.821861 
L 253.804032 40.821861 
L 253.804032 36.989465 
L 255.16547 36.989465 
L 255.202224 29.324673 
L 255.56713 29.324673 
L 255.56713 25.492277 
L 256.028369 25.492277 
L 256.028369 21.659881 
L 256.18106 21.659881 
L 256.18106 17.827485 
L 256.875014 17.827485 
L 256.875014 13.995089 
L 257.142505 13.995089 
L 257.142505 10.162693 
L 257.682333 10.162693 
L 257.682333 6.330297 
L 257.682333 6.330297 
L 460.8 6.330297 
L 460.8 6.330297 
" clip-path="url(#p5b9f37677b)" style="fill: none; stroke: #bf00bf; stroke-width: 1.5; stroke-linecap: square"/>
   </g>
   <g id="line2d_27">
    <path d="M 139.840823 293.76 
L 139.840823 289.927604 
L 142.98946 289.927604 
L 142.98946 286.095208 
L 148.610774 286.095208 
L 148.610774 282.262812 
L 156.365031 282.262812 
L 156.365031 278.430416 
L 157.019659 278.430416 
L 157.019659 274.59802 
L 161.208112 274.59802 
L 161.208112 270.765624 
L 162.988782 270.765624 
L 162.988782 266.933228 
L 163.927134 266.933228 
L 164.011911 259.268436 
L 164.090765 259.268436 
L 164.090765 255.43604 
L 165.47521 255.43604 
L 165.47521 251.603644 
L 170.052771 251.603644 
L 170.052771 247.771248 
L 173.560722 247.771248 
L 173.560722 243.938851 
L 174.577011 243.938851 
L 174.577011 240.106455 
L 175.560407 240.106455 
L 175.560407 236.274059 
L 176.434446 236.274059 
L 176.434446 232.441663 
L 177.244357 232.441663 
L 177.244357 228.609267 
L 179.15691 228.609267 
L 179.15691 224.776871 
L 180.939679 224.776871 
L 180.939679 220.944475 
L 182.685509 220.944475 
L 182.685509 217.112079 
L 183.534138 217.112079 
L 183.534138 213.279683 
L 190.464086 213.279683 
L 190.464086 209.447287 
L 190.909447 209.447287 
L 190.909447 205.614891 
L 191.510769 205.614891 
L 191.510769 201.782495 
L 192.218615 201.782495 
L 192.218615 197.950099 
L 193.024414 197.950099 
L 193.024414 194.117703 
L 193.497247 194.117703 
L 193.497247 190.285307 
L 194.131771 190.285307 
L 194.131771 186.452911 
L 194.538578 186.452911 
L 194.538578 182.620515 
L 194.735598 182.620515 
L 194.735598 178.788119 
L 196.607409 178.788119 
L 196.607409 174.955723 
L 196.965521 174.955723 
L 196.965521 171.123327 
L 197.559596 171.123327 
L 197.559596 167.290931 
L 197.879121 167.290931 
L 197.879121 163.458535 
L 198.358283 163.458535 
L 198.358283 159.626139 
L 200.186517 159.626139 
L 200.186517 155.793743 
L 200.351979 155.793743 
L 200.351979 151.961347 
L 203.80532 151.961347 
L 203.80532 148.12895 
L 204.031629 148.12895 
L 204.031629 144.296554 
L 204.465391 144.296554 
L 204.465391 140.464158 
L 205.755888 140.464158 
L 205.755888 136.631762 
L 206.16285 136.631762 
L 206.16285 132.799366 
L 206.541358 132.799366 
L 206.541358 128.96697 
L 206.812861 128.96697 
L 206.812861 125.134574 
L 206.9912 125.134574 
L 206.9912 121.302178 
L 208.422791 121.302178 
L 208.422791 117.469782 
L 208.536814 117.469782 
L 208.536814 113.637386 
L 209.31294 113.637386 
L 209.31294 109.80499 
L 213.718147 109.80499 
L 213.718147 105.972594 
L 214.461689 105.972594 
L 214.461689 102.140198 
L 219.024418 102.140198 
L 219.121459 94.475406 
L 220.013613 94.475406 
L 220.013613 90.64301 
L 221.04328 90.64301 
L 221.04328 86.810614 
L 221.480524 86.810614 
L 221.499029 79.145822 
L 225.217444 79.145822 
L 225.217444 75.313426 
L 225.621386 75.313426 
L 225.621386 71.48103 
L 226.074058 71.48103 
L 226.074058 67.648634 
L 228.240383 67.648634 
L 228.240383 63.816238 
L 235.521992 63.816238 
L 235.521992 59.983842 
L 237.629598 59.983842 
L 237.629598 56.151446 
L 238.549416 56.151446 
L 238.549416 52.31905 
L 239.799585 52.31905 
L 239.799585 48.486653 
L 240.922385 48.486653 
L 240.922385 44.654257 
L 242.261155 44.654257 
L 242.261155 40.821861 
L 243.168365 40.821861 
L 243.168365 36.989465 
L 243.454923 36.989465 
L 243.454923 33.157069 
L 243.734204 33.157069 
L 243.734218 21.659881 
L 245.033509 21.659881 
L 245.033527 13.995089 
L 246.41425 13.995089 
L 246.41425 10.162693 
L 247.044781 10.162693 
L 247.044781 6.330297 
L 247.044781 6.330297 
L 460.8 6.330297 
L 460.8 6.330297 
" clip-path="url(#p5b9f37677b)" style="fill: none; stroke: #000000; stroke-width: 1.5; stroke-linecap: square"/>
   </g>
   <g id="patch_3">
    <path d="M 0 293.76 
L 0 3.456 
" style="fill: none; stroke: #000000; stroke-width: 0.8; stroke-linejoin: miter; stroke-linecap: square"/>
   </g>
   <g id="patch_4">
    <path d="M 460.8 293.76 
L 460.8 3.456 
" style="fill: none; stroke: #000000; stroke-width: 0.8; stroke-linejoin: miter; stroke-linecap: square"/>
   </g>
   <g id="patch_5">
    <path d="M 0 293.76 
L 460.8 293.76 
" style="fill: none; stroke: #000000; stroke-width: 0.8; stroke-linejoin: miter; stroke-linecap: square"/>
   </g>
   <g id="patch_6">
    <path d="M 0 3.456 
L 460.8 3.456 
" style="fill: none; stroke: #000000; stroke-width: 0.8; stroke-linejoin: miter; stroke-linecap: square"/>
   </g>
   <g id="text_6">
    <!-- {f15-f19}, 20-D -->
    <g transform="translate(293.159 287.95392) scale(0.2 -0.2)">
     <defs>
      <path id="DejaVuSans-7b" d="M 3272 -594 
L 3272 -1044 
L 3078 -1044 
Q 2300 -1044 2036 -812 
Q 1772 -581 1772 109 
L 1772 856 
Q 1772 1328 1603 1509 
Q 1434 1691 991 1691 
L 800 1691 
L 800 2138 
L 991 2138 
Q 1438 2138 1605 2317 
Q 1772 2497 1772 2963 
L 1772 3713 
Q 1772 4403 2036 4633 
Q 2300 4863 3078 4863 
L 3272 4863 
L 3272 4416 
L 3059 4416 
Q 2619 4416 2484 4278 
Q 2350 4141 2350 3700 
L 2350 2925 
Q 2350 2434 2208 2212 
Q 2066 1991 1722 1913 
Q 2069 1828 2209 1606 
Q 2350 1384 2350 897 
L 2350 122 
Q 2350 -319 2484 -456 
Q 2619 -594 3059 -594 
L 3272 -594 
z
" transform="scale(0.015625)"/>
      <path id="DejaVuSans-35" d="M 691 4666 
L 3169 4666 
L 3169 4134 
L 1269 4134 
L 1269 2991 
Q 1406 3038 1543 3061 
Q 1681 3084 1819 3084 
Q 2600 3084 3056 2656 
Q 3513 2228 3513 1497 
Q 3513 744 3044 326 
Q 2575 -91 1722 -91 
Q 1428 -91 1123 -41 
Q 819 9 494 109 
L 494 744 
Q 775 591 1075 516 
Q 1375 441 1709 441 
Q 2250 441 2565 725 
Q 2881 1009 2881 1497 
Q 2881 1984 2565 2268 
Q 2250 2553 1709 2553 
Q 1456 2553 1204 2497 
Q 953 2441 691 2322 
L 691 4666 
z
" transform="scale(0.015625)"/>
      <path id="DejaVuSans-39" d="M 703 97 
L 703 672 
Q 941 559 1184 500 
Q 1428 441 1663 441 
Q 2288 441 2617 861 
Q 2947 1281 2994 2138 
Q 2813 1869 2534 1725 
Q 2256 1581 1919 1581 
Q 1219 1581 811 2004 
Q 403 2428 403 3163 
Q 403 3881 828 4315 
Q 1253 4750 1959 4750 
Q 2769 4750 3195 4129 
Q 3622 3509 3622 2328 
Q 3622 1225 3098 567 
Q 2575 -91 1691 -91 
Q 1453 -91 1209 -44 
Q 966 3 703 97 
z
M 1959 2075 
Q 2384 2075 2632 2365 
Q 2881 2656 2881 3163 
Q 2881 3666 2632 3958 
Q 2384 4250 1959 4250 
Q 1534 4250 1286 3958 
Q 1038 3666 1038 3163 
Q 1038 2656 1286 2365 
Q 1534 2075 1959 2075 
z
" transform="scale(0.015625)"/>
      <path id="DejaVuSans-7d" d="M 800 -594 
L 1019 -594 
Q 1456 -594 1589 -459 
Q 1722 -325 1722 122 
L 1722 897 
Q 1722 1384 1862 1606 
Q 2003 1828 2350 1913 
Q 2003 1991 1862 2212 
Q 1722 2434 1722 2925 
L 1722 3700 
Q 1722 4144 1589 4280 
Q 1456 4416 1019 4416 
L 800 4416 
L 800 4863 
L 997 4863 
Q 1775 4863 2036 4633 
Q 2297 4403 2297 3713 
L 2297 2963 
Q 2297 2497 2465 2317 
Q 2634 2138 3078 2138 
L 3272 2138 
L 3272 1691 
L 3078 1691 
Q 2634 1691 2465 1509 
Q 2297 1328 2297 856 
L 2297 109 
Q 2297 -581 2036 -812 
Q 1775 -1044 997 -1044 
L 800 -1044 
L 800 -594 
z
" transform="scale(0.015625)"/>
      <path id="DejaVuSans-2c" d="M 750 794 
L 1409 794 
L 1409 256 
L 897 -744 
L 494 -744 
L 750 256 
L 750 794 
z
" transform="scale(0.015625)"/>
      <path id="DejaVuSans-32" d="M 1228 531 
L 3431 531 
L 3431 0 
L 469 0 
L 469 531 
Q 828 903 1448 1529 
Q 2069 2156 2228 2338 
Q 2531 2678 2651 2914 
Q 2772 3150 2772 3378 
Q 2772 3750 2511 3984 
Q 2250 4219 1831 4219 
Q 1534 4219 1204 4116 
Q 875 4013 500 3803 
L 500 4441 
Q 881 4594 1212 4672 
Q 1544 4750 1819 4750 
Q 2544 4750 2975 4387 
Q 3406 4025 3406 3419 
Q 3406 3131 3298 2873 
Q 3191 2616 2906 2266 
Q 2828 2175 2409 1742 
Q 1991 1309 1228 531 
z
" transform="scale(0.015625)"/>
     </defs>
     <use xlink:href="#DejaVuSans-7b"/>
     <use xlink:href="#DejaVuSans-66" x="63.623047"/>
     <use xlink:href="#DejaVuSans-31" x="98.828125"/>
     <use xlink:href="#DejaVuSans-35" x="162.451172"/>
     <use xlink:href="#DejaVuSans-2d" x="226.074219"/>
     <use xlink:href="#DejaVuSans-66" x="262.158203"/>
     <use xlink:href="#DejaVuSans-31" x="297.363281"/>
     <use xlink:href="#DejaVuSans-39" x="360.986328"/>
     <use xlink:href="#DejaVuSans-7d" x="424.609375"/>
     <use xlink:href="#DejaVuSans-2c" x="488.232422"/>
     <use xlink:href="#DejaVuSans-20" x="520.019531"/>
     <use xlink:href="#DejaVuSans-32" x="551.806641"/>
     <use xlink:href="#DejaVuSans-30" x="615.429688"/>
     <use xlink:href="#DejaVuSans-2d" x="679.052734"/>
     <use xlink:href="#DejaVuSans-44" x="715.136719"/>
    </g>
   </g>
   <g id="text_7">
    <!-- v2.6.3 -->
    <g style="fill: #808080" transform="translate(214.71875 288.777272) scale(0.1 -0.1)">
     <defs>
      <path id="DejaVuSans-76" d="M 191 3500 
L 800 3500 
L 1894 563 
L 2988 3500 
L 3597 3500 
L 2284 0 
L 1503 0 
L 191 3500 
z
" transform="scale(0.015625)"/>
      <path id="DejaVuSans-2e" d="M 684 794 
L 1344 794 
L 1344 0 
L 684 0 
L 684 794 
z
" transform="scale(0.015625)"/>
      <path id="DejaVuSans-36" d="M 2113 2584 
Q 1688 2584 1439 2293 
Q 1191 2003 1191 1497 
Q 1191 994 1439 701 
Q 1688 409 2113 409 
Q 2538 409 2786 701 
Q 3034 994 3034 1497 
Q 3034 2003 2786 2293 
Q 2538 2584 2113 2584 
z
M 3366 4563 
L 3366 3988 
Q 3128 4100 2886 4159 
Q 2644 4219 2406 4219 
Q 1781 4219 1451 3797 
Q 1122 3375 1075 2522 
Q 1259 2794 1537 2939 
Q 1816 3084 2150 3084 
Q 2853 3084 3261 2657 
Q 3669 2231 3669 1497 
Q 3669 778 3244 343 
Q 2819 -91 2113 -91 
Q 1303 -91 875 529 
Q 447 1150 447 2328 
Q 447 3434 972 4092 
Q 1497 4750 2381 4750 
Q 2619 4750 2861 4703 
Q 3103 4656 3366 4563 
z
" transform="scale(0.015625)"/>
      <path id="DejaVuSans-33" d="M 2597 2516 
Q 3050 2419 3304 2112 
Q 3559 1806 3559 1356 
Q 3559 666 3084 287 
Q 2609 -91 1734 -91 
Q 1441 -91 1130 -33 
Q 819 25 488 141 
L 488 750 
Q 750 597 1062 519 
Q 1375 441 1716 441 
Q 2309 441 2620 675 
Q 2931 909 2931 1356 
Q 2931 1769 2642 2001 
Q 2353 2234 1838 2234 
L 1294 2234 
L 1294 2753 
L 1863 2753 
Q 2328 2753 2575 2939 
Q 2822 3125 2822 3475 
Q 2822 3834 2567 4026 
Q 2313 4219 1838 4219 
Q 1578 4219 1281 4162 
Q 984 4106 628 3988 
L 628 4550 
Q 988 4650 1302 4700 
Q 1616 4750 1894 4750 
Q 2613 4750 3031 4423 
Q 3450 4097 3450 3541 
Q 3450 3153 3228 2886 
Q 3006 2619 2597 2516 
z
" transform="scale(0.015625)"/>
     </defs>
     <use xlink:href="#DejaVuSans-76"/>
     <use xlink:href="#DejaVuSans-32" x="59.179688"/>
     <use xlink:href="#DejaVuSans-2e" x="122.802734"/>
     <use xlink:href="#DejaVuSans-36" x="154.589844"/>
     <use xlink:href="#DejaVuSans-2e" x="218.212891"/>
     <use xlink:href="#DejaVuSans-33" x="250"/>
    </g>
   </g>
  </g>
 </g>
 <defs>
  <clipPath id="p5b9f37677b">
   <rect x="0" y="3.456" width="460.8" height="290.304"/>
  </clipPath>
 </defs>
</svg>
