<?xml version="1.0" encoding="utf-8" standalone="no"?>
<!DOCTYPE svg PUBLIC "-//W3C//DTD SVG 1.1//EN"
  "http://www.w3.org/Graphics/SVG/1.1/DTD/svg11.dtd">
<svg xmlns:xlink="http://www.w3.org/1999/xlink" width="460.8pt" height="345.6pt" viewBox="0 0 460.8 345.6" xmlns="http://www.w3.org/2000/svg" version="1.1">
 <metadata>
  <rdf:RDF xmlns:dc="http://purl.org/dc/elements/1.1/" xmlns:cc="http://creativecommons.org/ns#" xmlns:rdf="http://www.w3.org/1999/02/22-rdf-syntax-ns#">
   <cc:Work>
    <dc:type rdf:resource="http://purl.org/dc/dcmitype/StillImage"/>
    <dc:date>2024-06-19T23:15:54.758733</dc:date>
    <dc:format>image/svg+xml</dc:format>
    <dc:creator>
     <cc:Agent>
      <dc:title>Matplotlib v3.7.5, https://matplotlib.org/</dc:title>
     </cc:Agent>
    </dc:creator>
   </cc:Work>
  </rdf:RDF>
 </metadata>
 <defs>
  <style type="text/css">*{stroke-linejoin: round; stroke-linecap: butt}</style>
 </defs>
 <g id="figure_1">
  <g id="patch_1">
   <path d="M 0 345.6 
L 460.8 345.6 
L 460.8 0 
L 0 0 
z
" style="fill: #ffffff"/>
  </g>
  <g id="axes_1">
   <g id="patch_2">
    <path d="M 0 293.76 
L 460.8 293.76 
L 460.8 3.456 
L 0 3.456 
z
" style="fill: #ffffff"/>
   </g>
   <g id="matplotlib.axis_1">
    <g id="xtick_1">
     <g id="line2d_1">
      <path d="M 101.409188 293.76 
L 101.409188 3.456 
" clip-path="url(#pc8a477e06a)" style="fill: none; stroke: #b0b0b0; stroke-width: 0.8; stroke-linecap: square"/>
     </g>
     <g id="line2d_2">
      <defs>
       <path id="mc2f19b7eea" d="M 0 0 
L 0 3.5 
" style="stroke: #000000; stroke-width: 0.8"/>
      </defs>
      <g>
       <use xlink:href="#mc2f19b7eea" x="101.409188" y="293.76" style="stroke: #000000; stroke-width: 0.8"/>
      </g>
     </g>
     <g id="text_1">
      <!-- -4 -->
      <g transform="translate(91.438875 315.956875) scale(0.2 -0.2)">
       <defs>
        <path id="DejaVuSans-2d" d="M 313 2009 
L 1997 2009 
L 1997 1497 
L 313 1497 
L 313 2009 
z
" transform="scale(0.015625)"/>
        <path id="DejaVuSans-34" d="M 2419 4116 
L 825 1625 
L 2419 1625 
L 2419 4116 
z
M 2253 4666 
L 3047 4666 
L 3047 1625 
L 3713 1625 
L 3713 1100 
L 3047 1100 
L 3047 0 
L 2419 0 
L 2419 1100 
L 313 1100 
L 313 1709 
L 2253 4666 
z
" transform="scale(0.015625)"/>
       </defs>
       <use xlink:href="#DejaVuSans-2d"/>
       <use xlink:href="#DejaVuSans-34" x="36.083984"/>
      </g>
     </g>
    </g>
    <g id="xtick_2">
     <g id="line2d_3">
      <path d="M 202.928051 293.76 
L 202.928051 3.456 
" clip-path="url(#pc8a477e06a)" style="fill: none; stroke: #b0b0b0; stroke-width: 0.8; stroke-linecap: square"/>
     </g>
     <g id="line2d_4">
      <g>
       <use xlink:href="#mc2f19b7eea" x="202.928051" y="293.76" style="stroke: #000000; stroke-width: 0.8"/>
      </g>
     </g>
     <g id="text_2">
      <!-- 0 -->
      <g transform="translate(196.565551 315.956875) scale(0.2 -0.2)">
       <defs>
        <path id="DejaVuSans-30" d="M 2034 4250 
Q 1547 4250 1301 3770 
Q 1056 3291 1056 2328 
Q 1056 1369 1301 889 
Q 1547 409 2034 409 
Q 2525 409 2770 889 
Q 3016 1369 3016 2328 
Q 3016 3291 2770 3770 
Q 2525 4250 2034 4250 
z
M 2034 4750 
Q 2819 4750 3233 4129 
Q 3647 3509 3647 2328 
Q 3647 1150 3233 529 
Q 2819 -91 2034 -91 
Q 1250 -91 836 529 
Q 422 1150 422 2328 
Q 422 3509 836 4129 
Q 1250 4750 2034 4750 
z
" transform="scale(0.015625)"/>
       </defs>
       <use xlink:href="#DejaVuSans-30"/>
      </g>
     </g>
    </g>
    <g id="xtick_3">
     <g id="line2d_5">
      <path d="M 304.446914 293.76 
L 304.446914 3.456 
" clip-path="url(#pc8a477e06a)" style="fill: none; stroke: #b0b0b0; stroke-width: 0.8; stroke-linecap: square"/>
     </g>
     <g id="line2d_6">
      <g>
       <use xlink:href="#mc2f19b7eea" x="304.446914" y="293.76" style="stroke: #000000; stroke-width: 0.8"/>
      </g>
     </g>
     <g id="text_3">
      <!-- 4 -->
      <g transform="translate(298.084414 315.956875) scale(0.2 -0.2)">
       <use xlink:href="#DejaVuSans-34"/>
      </g>
     </g>
    </g>
    <g id="xtick_4">
     <g id="line2d_7">
      <path d="M 405.965777 293.76 
L 405.965777 3.456 
" clip-path="url(#pc8a477e06a)" style="fill: none; stroke: #b0b0b0; stroke-width: 0.8; stroke-linecap: square"/>
     </g>
     <g id="line2d_8">
      <g>
       <use xlink:href="#mc2f19b7eea" x="405.965777" y="293.76" style="stroke: #000000; stroke-width: 0.8"/>
      </g>
     </g>
     <g id="text_4">
      <!-- 8 -->
      <g transform="translate(399.603277 315.956875) scale(0.2 -0.2)">
       <defs>
        <path id="DejaVuSans-38" d="M 2034 2216 
Q 1584 2216 1326 1975 
Q 1069 1734 1069 1313 
Q 1069 891 1326 650 
Q 1584 409 2034 409 
Q 2484 409 2743 651 
Q 3003 894 3003 1313 
Q 3003 1734 2745 1975 
Q 2488 2216 2034 2216 
z
M 1403 2484 
Q 997 2584 770 2862 
Q 544 3141 544 3541 
Q 544 4100 942 4425 
Q 1341 4750 2034 4750 
Q 2731 4750 3128 4425 
Q 3525 4100 3525 3541 
Q 3525 3141 3298 2862 
Q 3072 2584 2669 2484 
Q 3125 2378 3379 2068 
Q 3634 1759 3634 1313 
Q 3634 634 3220 271 
Q 2806 -91 2034 -91 
Q 1263 -91 848 271 
Q 434 634 434 1313 
Q 434 1759 690 2068 
Q 947 2378 1403 2484 
z
M 1172 3481 
Q 1172 3119 1398 2916 
Q 1625 2713 2034 2713 
Q 2441 2713 2670 2916 
Q 2900 3119 2900 3481 
Q 2900 3844 2670 4047 
Q 2441 4250 2034 4250 
Q 1625 4250 1398 4047 
Q 1172 3844 1172 3481 
z
" transform="scale(0.015625)"/>
       </defs>
       <use xlink:href="#DejaVuSans-38"/>
      </g>
     </g>
    </g>
    <g id="text_5">
     <!-- log10 of Df -->
     <g transform="translate(175.214063 339.313125) scale(0.2 -0.2)">
      <defs>
       <path id="DejaVuSans-6c" d="M 603 4863 
L 1178 4863 
L 1178 0 
L 603 0 
L 603 4863 
z
" transform="scale(0.015625)"/>
       <path id="DejaVuSans-6f" d="M 1959 3097 
Q 1497 3097 1228 2736 
Q 959 2375 959 1747 
Q 959 1119 1226 758 
Q 1494 397 1959 397 
Q 2419 397 2687 759 
Q 2956 1122 2956 1747 
Q 2956 2369 2687 2733 
Q 2419 3097 1959 3097 
z
M 1959 3584 
Q 2709 3584 3137 3096 
Q 3566 2609 3566 1747 
Q 3566 888 3137 398 
Q 2709 -91 1959 -91 
Q 1206 -91 779 398 
Q 353 888 353 1747 
Q 353 2609 779 3096 
Q 1206 3584 1959 3584 
z
" transform="scale(0.015625)"/>
       <path id="DejaVuSans-67" d="M 2906 1791 
Q 2906 2416 2648 2759 
Q 2391 3103 1925 3103 
Q 1463 3103 1205 2759 
Q 947 2416 947 1791 
Q 947 1169 1205 825 
Q 1463 481 1925 481 
Q 2391 481 2648 825 
Q 2906 1169 2906 1791 
z
M 3481 434 
Q 3481 -459 3084 -895 
Q 2688 -1331 1869 -1331 
Q 1566 -1331 1297 -1286 
Q 1028 -1241 775 -1147 
L 775 -588 
Q 1028 -725 1275 -790 
Q 1522 -856 1778 -856 
Q 2344 -856 2625 -561 
Q 2906 -266 2906 331 
L 2906 616 
Q 2728 306 2450 153 
Q 2172 0 1784 0 
Q 1141 0 747 490 
Q 353 981 353 1791 
Q 353 2603 747 3093 
Q 1141 3584 1784 3584 
Q 2172 3584 2450 3431 
Q 2728 3278 2906 2969 
L 2906 3500 
L 3481 3500 
L 3481 434 
z
" transform="scale(0.015625)"/>
       <path id="DejaVuSans-31" d="M 794 531 
L 1825 531 
L 1825 4091 
L 703 3866 
L 703 4441 
L 1819 4666 
L 2450 4666 
L 2450 531 
L 3481 531 
L 3481 0 
L 794 0 
L 794 531 
z
" transform="scale(0.015625)"/>
       <path id="DejaVuSans-20" transform="scale(0.015625)"/>
       <path id="DejaVuSans-66" d="M 2375 4863 
L 2375 4384 
L 1825 4384 
Q 1516 4384 1395 4259 
Q 1275 4134 1275 3809 
L 1275 3500 
L 2222 3500 
L 2222 3053 
L 1275 3053 
L 1275 0 
L 697 0 
L 697 3053 
L 147 3053 
L 147 3500 
L 697 3500 
L 697 3744 
Q 697 4328 969 4595 
Q 1241 4863 1831 4863 
L 2375 4863 
z
" transform="scale(0.015625)"/>
       <path id="DejaVuSans-44" d="M 1259 4147 
L 1259 519 
L 2022 519 
Q 2988 519 3436 956 
Q 3884 1394 3884 2338 
Q 3884 3275 3436 3711 
Q 2988 4147 2022 4147 
L 1259 4147 
z
M 628 4666 
L 1925 4666 
Q 3281 4666 3915 4102 
Q 4550 3538 4550 2338 
Q 4550 1131 3912 565 
Q 3275 0 1925 0 
L 628 0 
L 628 4666 
z
" transform="scale(0.015625)"/>
      </defs>
      <use xlink:href="#DejaVuSans-6c"/>
      <use xlink:href="#DejaVuSans-6f" x="27.783203"/>
      <use xlink:href="#DejaVuSans-67" x="88.964844"/>
      <use xlink:href="#DejaVuSans-31" x="152.441406"/>
      <use xlink:href="#DejaVuSans-30" x="216.064453"/>
      <use xlink:href="#DejaVuSans-20" x="279.6875"/>
      <use xlink:href="#DejaVuSans-6f" x="311.474609"/>
      <use xlink:href="#DejaVuSans-66" x="372.65625"/>
      <use xlink:href="#DejaVuSans-20" x="407.861328"/>
      <use xlink:href="#DejaVuSans-44" x="439.648438"/>
      <use xlink:href="#DejaVuSans-66" x="516.650391"/>
     </g>
    </g>
   </g>
   <g id="matplotlib.axis_2">
    <g id="ytick_1">
     <g id="line2d_9">
      <path d="M 0 293.76 
L 460.8 293.76 
" clip-path="url(#pc8a477e06a)" style="fill: none; stroke: #b0b0b0; stroke-width: 0.8; stroke-linecap: square"/>
     </g>
     <g id="line2d_10">
      <defs>
       <path id="m9927948145" d="M 0 0 
L -3.5 0 
" style="stroke: #000000; stroke-width: 0.8"/>
      </defs>
      <g>
       <use xlink:href="#m9927948145" x="0" y="293.76" style="stroke: #000000; stroke-width: 0.8"/>
      </g>
     </g>
    </g>
    <g id="ytick_2">
     <g id="line2d_11">
      <path d="M 0 236.274059 
L 460.8 236.274059 
" clip-path="url(#pc8a477e06a)" style="fill: none; stroke: #b0b0b0; stroke-width: 0.8; stroke-linecap: square"/>
     </g>
     <g id="line2d_12">
      <g>
       <use xlink:href="#m9927948145" x="0" y="236.274059" style="stroke: #000000; stroke-width: 0.8"/>
      </g>
     </g>
    </g>
    <g id="ytick_3">
     <g id="line2d_13">
      <path d="M 0 178.788119 
L 460.8 178.788119 
" clip-path="url(#pc8a477e06a)" style="fill: none; stroke: #b0b0b0; stroke-width: 0.8; stroke-linecap: square"/>
     </g>
     <g id="line2d_14">
      <g>
       <use xlink:href="#m9927948145" x="0" y="178.788119" style="stroke: #000000; stroke-width: 0.8"/>
      </g>
     </g>
    </g>
    <g id="ytick_4">
     <g id="line2d_15">
      <path d="M 0 121.302178 
L 460.8 121.302178 
" clip-path="url(#pc8a477e06a)" style="fill: none; stroke: #b0b0b0; stroke-width: 0.8; stroke-linecap: square"/>
     </g>
     <g id="line2d_16">
      <g>
       <use xlink:href="#m9927948145" x="0" y="121.302178" style="stroke: #000000; stroke-width: 0.8"/>
      </g>
     </g>
    </g>
    <g id="ytick_5">
     <g id="line2d_17">
      <path d="M 0 63.816238 
L 460.8 63.816238 
" clip-path="url(#pc8a477e06a)" style="fill: none; stroke: #b0b0b0; stroke-width: 0.8; stroke-linecap: square"/>
     </g>
     <g id="line2d_18">
      <g>
       <use xlink:href="#m9927948145" x="0" y="63.816238" style="stroke: #000000; stroke-width: 0.8"/>
      </g>
     </g>
    </g>
    <g id="ytick_6">
     <g id="line2d_19">
      <path d="M 0 6.330297 
L 460.8 6.330297 
" clip-path="url(#pc8a477e06a)" style="fill: none; stroke: #b0b0b0; stroke-width: 0.8; stroke-linecap: square"/>
     </g>
     <g id="line2d_20">
      <g>
       <use xlink:href="#m9927948145" x="0" y="6.330297" style="stroke: #000000; stroke-width: 0.8"/>
      </g>
     </g>
    </g>
   </g>
   <g id="line2d_21">
    <path d="M 94.987692 293.76 
L 94.987692 289.927604 
L 104.613596 289.927604 
L 104.613596 286.095208 
L 113.307803 286.095208 
L 113.307803 282.262812 
L 120.928979 282.262812 
L 120.928979 278.430416 
L 132.327505 278.430416 
L 132.327505 274.59802 
L 132.685466 274.59802 
L 132.685466 270.765624 
L 139.947622 270.765624 
L 139.947622 266.933228 
L 140.854151 266.933228 
L 140.854151 263.100832 
L 144.201659 263.100832 
L 144.25524 255.43604 
L 148.487576 255.43604 
L 148.487576 251.603644 
L 154.171889 251.603644 
L 154.171889 247.771248 
L 154.303326 247.771248 
L 154.303326 243.938851 
L 156.510593 243.938851 
L 156.510593 240.106455 
L 156.823568 240.106455 
L 156.823568 236.274059 
L 159.339198 236.274059 
L 159.339198 232.441663 
L 162.853666 232.441663 
L 162.853666 228.609267 
L 163.138536 228.609267 
L 163.138536 224.776871 
L 163.875946 224.776871 
L 163.875946 220.944475 
L 165.338031 220.944475 
L 165.338031 217.112079 
L 173.41684 217.112079 
L 173.41684 213.279683 
L 173.852386 213.279683 
L 173.852386 209.447287 
L 173.994394 209.447287 
L 173.994394 205.614891 
L 174.445193 205.614891 
L 174.445193 201.782495 
L 175.414867 201.782495 
L 175.414867 197.950099 
L 176.288182 197.950099 
L 176.288182 194.117703 
L 176.608865 194.117703 
L 176.608865 190.285307 
L 178.844771 190.285307 
L 178.844771 186.452911 
L 179.008398 186.452911 
L 179.008398 182.620515 
L 182.923271 182.620515 
L 182.923271 178.788119 
L 185.755684 178.788119 
L 185.755684 174.955723 
L 189.376505 174.955723 
L 189.376505 171.123327 
L 191.135437 171.123327 
L 191.135437 167.290931 
L 193.289535 167.290931 
L 193.289535 163.458535 
L 194.070742 163.458535 
L 194.070742 159.626139 
L 194.958591 159.626139 
L 194.958591 155.793743 
L 198.417432 155.793743 
L 198.417432 151.961347 
L 200.534156 151.961347 
L 200.624619 144.296554 
L 201.167105 144.296554 
L 201.167105 140.464158 
L 203.728603 140.464158 
L 203.728603 136.631762 
L 205.450476 136.631762 
L 205.450476 132.799366 
L 209.953796 132.799366 
L 209.953796 128.96697 
L 212.200793 128.96697 
L 212.200793 125.134574 
L 215.783115 125.134574 
L 215.783115 121.302178 
L 216.066126 121.302178 
L 216.123568 113.637386 
L 216.259822 113.637386 
L 216.259822 109.80499 
L 217.618082 109.80499 
L 217.653259 102.140198 
L 218.316699 102.140198 
L 218.365625 94.475406 
L 218.448756 94.475406 
L 218.448756 90.64301 
L 219.438442 90.64301 
L 219.534347 82.978218 
L 219.708973 82.978218 
L 219.78173 75.313426 
L 220.000656 75.313426 
L 220.000656 71.48103 
L 220.614739 71.48103 
L 220.694345 63.816238 
L 221.296917 63.816238 
L 221.296917 59.983842 
L 224.321755 59.983842 
L 224.321755 56.151446 
L 227.578049 56.151446 
L 227.578049 52.31905 
L 231.95944 52.31905 
L 231.960743 44.654257 
L 232.72178 44.654257 
L 232.72178 40.821861 
L 233.432567 40.821861 
L 233.432567 36.989465 
L 234.100782 36.989465 
L 234.100788 21.659881 
L 234.284647 21.659881 
L 234.284647 17.827485 
L 236.429892 17.827485 
L 236.429892 13.995089 
L 237.432606 13.995089 
L 237.432606 10.162693 
L 240.361252 10.162693 
L 240.361252 6.330297 
L 240.361252 6.330297 
L 460.8 6.330297 
L 460.8 6.330297 
" clip-path="url(#pc8a477e06a)" style="fill: none; stroke: #ff0000; stroke-width: 3; stroke-linecap: square"/>
   </g>
   <g id="line2d_22">
    <path d="M 235.471852 293.76 
L 235.471852 289.927604 
L 240.123876 289.927604 
L 240.139436 282.262812 
L 240.40286 282.262812 
L 240.40286 278.430416 
L 240.675836 278.430416 
L 240.675836 274.59802 
L 241.025048 274.59802 
L 241.025048 270.765624 
L 241.263872 270.765624 
L 241.263872 266.933228 
L 242.235692 266.933228 
L 242.235692 263.100832 
L 243.217541 263.100832 
L 243.250754 255.43604 
L 243.62706 255.43604 
L 243.696285 247.771248 
L 244.033454 247.771248 
L 244.033454 243.938851 
L 244.307139 243.938851 
L 244.380256 232.441663 
L 244.779538 232.441663 
L 244.801919 224.776871 
L 244.919533 224.776871 
L 244.919533 220.944475 
L 245.138143 220.944475 
L 245.138143 217.112079 
L 245.337091 217.112079 
L 245.432457 201.782495 
L 245.544567 201.782495 
L 245.625981 194.117703 
L 245.712569 194.117703 
L 245.712569 190.285307 
L 245.853625 190.285307 
L 245.853625 186.452911 
L 246.026924 186.452911 
L 246.026924 182.620515 
L 246.18541 182.620515 
L 246.18541 178.788119 
L 246.444237 178.788119 
L 246.445072 171.123327 
L 247.111883 171.123327 
L 247.140231 163.458535 
L 247.284839 163.458535 
L 247.284839 159.626139 
L 247.700252 159.626139 
L 247.700252 155.793743 
L 247.904528 155.793743 
L 247.995232 148.12895 
L 248.101626 148.12895 
L 248.101626 144.296554 
L 248.336691 144.296554 
L 248.336691 140.464158 
L 248.790563 140.464158 
L 248.790563 136.631762 
L 248.948603 136.631762 
L 249.003488 128.96697 
L 249.648455 128.96697 
L 249.648455 125.134574 
L 249.917933 125.134574 
L 249.917933 121.302178 
L 251.809388 121.302178 
L 251.809388 117.469782 
L 253.438132 117.469782 
L 253.438132 113.637386 
L 253.637507 113.637386 
L 253.637507 109.80499 
L 254.107669 109.80499 
L 254.107669 105.972594 
L 254.30179 105.972594 
L 254.30179 102.140198 
L 254.499063 102.140198 
L 254.499063 98.307802 
L 254.847371 98.307802 
L 254.847371 94.475406 
L 255.260146 94.475406 
L 255.322351 86.810614 
L 255.375071 86.810614 
L 255.375071 82.978218 
L 257.058038 82.978218 
L 257.058038 79.145822 
L 258.599869 79.145822 
L 258.599869 75.313426 
L 259.161586 75.313426 
L 259.161586 71.48103 
L 260.415608 71.48103 
L 260.415608 67.648634 
L 261.415446 67.648634 
L 261.415446 63.816238 
L 277.627772 63.816238 
L 277.627772 59.983842 
L 278.690865 59.983842 
L 278.722861 52.31905 
L 279.42227 52.31905 
L 279.525554 40.821861 
L 279.543485 40.821861 
L 279.543485 36.989465 
L 280.027851 36.989465 
L 280.027851 33.157069 
L 280.810847 33.157069 
L 280.810847 29.324673 
L 281.237925 29.324673 
L 281.237925 25.492277 
L 282.016099 25.492277 
L 282.016099 21.659881 
L 282.54924 21.659881 
L 282.562468 13.995089 
L 283.396948 13.995089 
L 283.396948 10.162693 
L 286.850268 10.162693 
L 286.850268 6.330297 
L 286.850268 6.330297 
L 460.8 6.330297 
L 460.8 6.330297 
" clip-path="url(#pc8a477e06a)" style="fill: none; stroke: #00bfbf; stroke-width: 1.5; stroke-linecap: square"/>
   </g>
   <g id="line2d_23">
    <path d="M 234.201303 293.76 
L 234.201303 289.927604 
L 235.471852 289.927604 
L 235.471852 286.095208 
L 235.996814 286.095208 
L 235.996814 282.262812 
L 236.247194 282.262812 
L 236.247194 278.430416 
L 236.380767 278.430416 
L 236.380767 274.59802 
L 236.665068 274.59802 
L 236.665068 270.765624 
L 237.49809 270.765624 
L 237.49809 266.933228 
L 237.662133 266.933228 
L 237.728239 259.268436 
L 237.911685 259.268436 
L 237.973488 251.603644 
L 238.223335 251.603644 
L 238.223335 247.771248 
L 238.530268 247.771248 
L 238.530268 243.938851 
L 238.823058 243.938851 
L 238.873832 228.609267 
L 238.998835 228.609267 
L 238.998835 224.776871 
L 239.147466 224.776871 
L 239.147466 220.944475 
L 239.326976 220.944475 
L 239.334195 213.279683 
L 239.734905 213.279683 
L 239.734905 209.447287 
L 240.298948 209.447287 
L 240.298948 205.614891 
L 240.675836 205.614891 
L 240.675836 201.782495 
L 241.217301 201.782495 
L 241.263872 194.117703 
L 242.91584 194.117703 
L 242.91584 190.285307 
L 243.542086 190.285307 
L 243.542086 186.452911 
L 243.680774 186.452911 
L 243.73242 178.788119 
L 244.033454 178.788119 
L 244.033454 174.955723 
L 244.220932 174.955723 
L 244.220932 171.123327 
L 244.341247 171.123327 
L 244.341247 167.290931 
L 245.043052 167.290931 
L 245.043052 163.458535 
L 245.386455 163.458535 
L 245.391398 155.793743 
L 245.853625 155.793743 
L 245.853625 151.961347 
L 246.071624 151.961347 
L 246.071624 148.12895 
L 246.18541 148.12895 
L 246.215075 140.464158 
L 246.445072 140.464158 
L 246.445072 136.631762 
L 247.111883 136.631762 
L 247.111883 132.799366 
L 247.700252 132.799366 
L 247.700252 128.96697 
L 248.043248 128.96697 
L 248.043248 125.134574 
L 248.336691 125.134574 
L 248.336691 121.302178 
L 249.003488 121.302178 
L 249.003488 117.469782 
L 249.673294 117.469782 
L 249.673294 113.637386 
L 250.346923 113.637386 
L 250.346923 109.80499 
L 251.120886 109.80499 
L 251.120886 105.972594 
L 251.289112 105.972594 
L 251.289112 102.140198 
L 251.48233 102.140198 
L 251.48233 98.307802 
L 251.771029 98.307802 
L 251.771029 94.475406 
L 253.244156 94.475406 
L 253.273031 86.810614 
L 253.978649 86.810614 
L 253.978649 82.978218 
L 254.107669 82.978218 
L 254.107669 79.145822 
L 254.540434 79.145822 
L 254.540434 75.313426 
L 255.322351 75.313426 
L 255.322351 71.48103 
L 258.396824 71.48103 
L 258.396824 67.648634 
L 260.415608 67.648634 
L 260.415608 63.816238 
L 276.225742 63.816238 
L 276.225742 59.983842 
L 276.382175 59.983842 
L 276.382175 56.151446 
L 277.167725 56.151446 
L 277.167725 52.31905 
L 277.627772 52.31905 
L 277.627772 48.486653 
L 277.77093 48.486653 
L 277.819247 40.821861 
L 278.038057 40.821861 
L 278.038057 36.989465 
L 278.299359 36.989465 
L 278.371135 29.324673 
L 278.722861 29.324673 
L 278.722861 25.492277 
L 279.42227 25.492277 
L 279.42227 21.659881 
L 281.075543 21.659881 
L 281.075543 17.827485 
L 282.397019 17.827485 
L 282.397019 13.995089 
L 282.562468 13.995089 
L 282.562468 10.162693 
L 284.610306 10.162693 
L 284.610306 6.330297 
L 284.610306 6.330297 
L 460.8 6.330297 
L 460.8 6.330297 
" clip-path="url(#pc8a477e06a)" style="fill: none; stroke: #bf00bf; stroke-width: 1.5; stroke-linecap: square"/>
   </g>
   <g id="line2d_24">
    <path d="M 227.949634 293.76 
L 227.949634 289.927604 
L 233.36411 289.927604 
L 233.473668 282.262812 
L 233.897425 282.262812 
L 233.897425 278.430416 
L 234.201303 278.430416 
L 234.201303 274.59802 
L 234.465203 274.59802 
L 234.508616 266.933228 
L 235.181535 266.933228 
L 235.181535 263.100832 
L 235.617165 263.100832 
L 235.68087 255.43604 
L 235.996814 255.43604 
L 236.033934 243.938851 
L 236.324018 243.938851 
L 236.380767 236.274059 
L 236.488145 236.274059 
L 236.563201 228.609267 
L 236.665068 228.609267 
L 236.740231 220.944475 
L 237.511101 220.944475 
L 237.511101 217.112079 
L 237.728239 217.112079 
L 237.781263 205.614891 
L 238.139335 205.614891 
L 238.139335 201.782495 
L 238.35753 201.782495 
L 238.447089 194.117703 
L 238.823058 194.117703 
L 238.823058 190.285307 
L 239.147466 190.285307 
L 239.147466 186.452911 
L 239.734905 186.452911 
L 239.734905 182.620515 
L 240.675836 182.620515 
L 240.675836 178.788119 
L 241.562185 178.788119 
L 241.562185 174.955723 
L 243.65067 174.955723 
L 243.680774 167.290931 
L 244.254818 167.290931 
L 244.341247 159.626139 
L 244.394478 159.626139 
L 244.394478 155.793743 
L 245.043052 155.793743 
L 245.05211 148.12895 
L 245.391398 148.12895 
L 245.391398 144.296554 
L 245.623435 144.296554 
L 245.623435 140.464158 
L 246.071624 140.464158 
L 246.071624 136.631762 
L 246.18541 136.631762 
L 246.214949 128.96697 
L 246.445072 128.96697 
L 246.53789 121.302178 
L 247.004476 121.302178 
L 247.004476 117.469782 
L 247.646543 117.469782 
L 247.665297 109.80499 
L 247.844114 109.80499 
L 247.942036 98.307802 
L 248.030043 98.307802 
L 248.030043 94.475406 
L 248.80787 94.475406 
L 248.80787 90.64301 
L 249.990708 90.64301 
L 249.990708 86.810614 
L 250.551998 86.810614 
L 250.551998 82.978218 
L 250.82917 82.978218 
L 250.82917 79.145822 
L 251.000783 79.145822 
L 251.000783 75.313426 
L 251.220479 75.313426 
L 251.220479 71.48103 
L 253.978649 71.48103 
L 253.978649 67.648634 
L 254.721461 67.648634 
L 254.721461 63.816238 
L 271.202168 63.816238 
L 271.202168 59.983842 
L 272.622508 59.983842 
L 272.622508 56.151446 
L 273.367998 56.151446 
L 273.367998 52.31905 
L 273.565654 52.31905 
L 273.565654 48.486653 
L 274.013121 48.486653 
L 274.013121 44.654257 
L 274.519618 44.654257 
L 274.519618 40.821861 
L 274.770872 40.821861 
L 274.850068 33.157069 
L 275.060943 33.157069 
L 275.068832 25.492277 
L 275.342889 25.492277 
L 275.352288 17.827485 
L 276.383059 17.827485 
L 276.383059 13.995089 
L 277.233058 13.995089 
L 277.233058 10.162693 
L 277.428766 10.162693 
L 277.428766 6.330297 
L 277.428766 6.330297 
L 460.8 6.330297 
L 460.8 6.330297 
" clip-path="url(#pc8a477e06a)" style="fill: none; stroke: #000000; stroke-width: 1.5; stroke-linecap: square"/>
   </g>
   <g id="line2d_25">
    <path d="M 221.774865 293.76 
L 221.774865 289.927604 
L 223.58179 289.927604 
L 223.687789 282.262812 
L 224.379294 282.262812 
L 224.454085 274.59802 
L 224.612096 274.59802 
L 224.612096 270.765624 
L 225.635291 270.765624 
L 225.635291 266.933228 
L 226.200947 266.933228 
L 226.200947 263.100832 
L 226.441287 263.100832 
L 226.508592 255.43604 
L 226.579911 255.43604 
L 226.579911 251.603644 
L 226.869996 251.603644 
L 226.869996 247.771248 
L 227.071874 247.771248 
L 227.071874 243.938851 
L 227.240345 243.938851 
L 227.3207 224.776871 
L 227.395468 224.776871 
L 227.395468 220.944475 
L 227.930437 220.944475 
L 227.996984 213.279683 
L 228.479522 213.279683 
L 228.527827 205.614891 
L 228.806635 205.614891 
L 228.806635 201.782495 
L 229.096101 201.782495 
L 229.196819 190.285307 
L 229.352841 190.285307 
L 229.352841 186.452911 
L 230.093069 186.452911 
L 230.093069 182.620515 
L 232.669288 182.620515 
L 232.669288 178.788119 
L 237.859044 178.788119 
L 237.892729 171.123327 
L 238.135245 171.123327 
L 238.135245 167.290931 
L 238.685275 167.290931 
L 238.709229 159.626139 
L 239.923967 159.626139 
L 239.923967 155.793743 
L 240.183605 155.793743 
L 240.183605 151.961347 
L 240.675836 151.961347 
L 240.724231 144.296554 
L 241.001601 144.296554 
L 241.01045 136.631762 
L 241.207784 136.631762 
L 241.263993 128.96697 
L 241.596856 128.96697 
L 241.596856 125.134574 
L 241.733697 125.134574 
L 241.824336 117.469782 
L 242.278171 117.469782 
L 242.278171 113.637386 
L 242.511008 113.637386 
L 242.511008 109.80499 
L 243.65067 109.80499 
L 243.680774 102.140198 
L 244.254818 102.140198 
L 244.254818 98.307802 
L 244.919932 98.307802 
L 244.919932 94.475406 
L 245.043052 94.475406 
L 245.043052 90.64301 
L 245.235419 90.64301 
L 245.235419 86.810614 
L 245.391398 86.810614 
L 245.431557 79.145822 
L 245.714271 79.145822 
L 245.714271 75.313426 
L 246.445072 75.313426 
L 246.445072 71.48103 
L 247.003743 71.48103 
L 247.003743 67.648634 
L 248.809928 67.648634 
L 248.809928 63.816238 
L 265.308908 63.816238 
L 265.308908 59.983842 
L 265.597567 59.983842 
L 265.60023 52.31905 
L 265.904658 52.31905 
L 265.904658 48.486653 
L 266.083915 48.486653 
L 266.13714 36.989465 
L 266.536166 36.989465 
L 266.539086 29.324673 
L 266.687727 29.324673 
L 266.687727 25.492277 
L 267.002536 25.492277 
L 267.002536 21.659881 
L 269.163049 21.659881 
L 269.163049 17.827485 
L 269.320066 17.827485 
L 269.320066 13.995089 
L 269.562326 13.995089 
L 269.562326 10.162693 
L 270.114164 10.162693 
L 270.114164 6.330297 
L 270.114164 6.330297 
L 460.8 6.330297 
L 460.8 6.330297 
" clip-path="url(#pc8a477e06a)" style="fill: none; stroke: #00bfbf; stroke-width: 1.5; stroke-linecap: square"/>
   </g>
   <g id="line2d_26">
    <path d="M 165.287586 293.76 
L 165.287586 289.927604 
L 172.00018 289.927604 
L 172.00018 286.095208 
L 176.148949 286.095208 
L 176.148949 282.262812 
L 177.225156 282.262812 
L 177.225156 278.430416 
L 179.513199 278.430416 
L 179.513199 274.59802 
L 179.665994 274.59802 
L 179.665994 270.765624 
L 180.041876 270.765624 
L 180.041876 266.933228 
L 180.573586 266.933228 
L 180.573586 263.100832 
L 181.567324 263.100832 
L 181.567324 259.268436 
L 182.16349 259.268436 
L 182.16349 255.43604 
L 182.319417 255.43604 
L 182.319417 251.603644 
L 182.707059 251.603644 
L 182.707059 247.771248 
L 184.146986 247.771248 
L 184.146986 243.938851 
L 184.78468 243.938851 
L 184.78468 240.106455 
L 188.031742 240.106455 
L 188.031742 236.274059 
L 188.544568 236.274059 
L 188.544568 232.441663 
L 189.921986 232.441663 
L 189.921986 228.609267 
L 190.254169 228.609267 
L 190.254169 224.776871 
L 193.725414 224.776871 
L 193.725414 220.944475 
L 198.114629 220.944475 
L 198.114629 217.112079 
L 199.644609 217.112079 
L 199.644609 213.279683 
L 199.842446 213.279683 
L 199.842446 209.447287 
L 201.882657 209.447287 
L 201.882657 205.614891 
L 203.127425 205.614891 
L 203.189757 197.950099 
L 203.293978 197.950099 
L 203.293978 194.117703 
L 209.015895 194.117703 
L 209.015895 190.285307 
L 211.333218 190.285307 
L 211.333218 186.452911 
L 211.686725 186.452911 
L 211.686725 182.620515 
L 213.455807 182.620515 
L 213.455807 178.788119 
L 219.035813 178.788119 
L 219.035813 174.955723 
L 219.731264 174.955723 
L 219.731264 171.123327 
L 220.460729 171.123327 
L 220.460729 167.290931 
L 220.67898 167.290931 
L 220.67898 163.458535 
L 220.906288 163.458535 
L 220.962996 155.793743 
L 221.130773 155.793743 
L 221.130773 151.961347 
L 221.366591 151.961347 
L 221.366591 148.12895 
L 221.646149 148.12895 
L 221.646149 144.296554 
L 221.840529 144.296554 
L 221.935504 132.799366 
L 222.048133 132.799366 
L 222.048133 128.96697 
L 222.634425 128.96697 
L 222.634425 125.134574 
L 223.370476 125.134574 
L 223.370476 121.302178 
L 228.761636 121.302178 
L 228.761636 117.469782 
L 231.930939 117.469782 
L 231.930939 113.637386 
L 233.634039 113.637386 
L 233.634039 109.80499 
L 238.959624 109.80499 
L 238.959624 105.972594 
L 239.507088 105.972594 
L 239.548496 98.307802 
L 239.874233 98.307802 
L 239.890539 90.64301 
L 240.018652 90.64301 
L 240.018652 86.810614 
L 240.435709 86.810614 
L 240.435709 82.978218 
L 240.675836 82.978218 
L 240.766561 75.313426 
L 240.819191 75.313426 
L 240.819191 71.48103 
L 241.313557 71.48103 
L 241.313557 67.648634 
L 241.589268 67.648634 
L 241.589268 63.816238 
L 243.725814 63.816238 
L 243.725814 59.983842 
L 249.475737 59.983842 
L 249.475737 56.151446 
L 249.597404 56.151446 
L 249.597404 52.31905 
L 250.256951 52.31905 
L 250.256951 48.486653 
L 253.146714 48.486653 
L 253.146714 44.654257 
L 254.953938 44.654257 
L 254.990662 36.989465 
L 255.355265 36.989465 
L 255.355265 33.157069 
L 255.816122 33.157069 
L 255.816122 29.324673 
L 255.968687 29.324673 
L 255.968687 25.492277 
L 256.86313 25.492277 
L 256.929334 17.827485 
L 257.468714 17.827485 
L 257.468714 13.995089 
L 258.510681 13.995089 
L 258.510681 10.162693 
L 260.361387 10.162693 
L 260.361387 6.330297 
L 260.361387 6.330297 
L 460.8 6.330297 
L 460.8 6.330297 
" clip-path="url(#pc8a477e06a)" style="fill: none; stroke: #bf00bf; stroke-width: 1.5; stroke-linecap: square"/>
   </g>
   <g id="line2d_27">
    <path d="M 94.987692 293.76 
L 94.987692 289.927604 
L 104.613596 289.927604 
L 104.613596 286.095208 
L 113.307803 286.095208 
L 113.307803 282.262812 
L 120.928979 282.262812 
L 120.928979 278.430416 
L 132.327505 278.430416 
L 132.327505 274.59802 
L 132.685466 274.59802 
L 132.685466 270.765624 
L 139.947622 270.765624 
L 139.947622 266.933228 
L 140.854151 266.933228 
L 140.854151 263.100832 
L 144.201659 263.100832 
L 144.25524 255.43604 
L 148.487576 255.43604 
L 148.487576 251.603644 
L 154.171889 251.603644 
L 154.171889 247.771248 
L 154.303326 247.771248 
L 154.303326 243.938851 
L 156.510593 243.938851 
L 156.510593 240.106455 
L 156.823568 240.106455 
L 156.823568 236.274059 
L 159.339198 236.274059 
L 159.339198 232.441663 
L 162.853666 232.441663 
L 162.853666 228.609267 
L 163.138536 228.609267 
L 163.138536 224.776871 
L 163.875946 224.776871 
L 163.875946 220.944475 
L 165.338031 220.944475 
L 165.338031 217.112079 
L 173.41684 217.112079 
L 173.41684 213.279683 
L 173.852386 213.279683 
L 173.852386 209.447287 
L 173.994394 209.447287 
L 173.994394 205.614891 
L 174.445193 205.614891 
L 174.445193 201.782495 
L 175.414867 201.782495 
L 175.414867 197.950099 
L 176.288182 197.950099 
L 176.288182 194.117703 
L 176.608865 194.117703 
L 176.608865 190.285307 
L 178.844771 190.285307 
L 178.844771 186.452911 
L 179.008398 186.452911 
L 179.008398 182.620515 
L 182.923271 182.620515 
L 182.923271 178.788119 
L 185.755684 178.788119 
L 185.755684 174.955723 
L 189.376505 174.955723 
L 189.376505 171.123327 
L 191.135437 171.123327 
L 191.135437 167.290931 
L 193.289535 167.290931 
L 193.289535 163.458535 
L 194.070742 163.458535 
L 194.070742 159.626139 
L 194.958591 159.626139 
L 194.958591 155.793743 
L 198.417432 155.793743 
L 198.417432 151.961347 
L 200.534156 151.961347 
L 200.624619 144.296554 
L 201.167105 144.296554 
L 201.167105 140.464158 
L 203.728603 140.464158 
L 203.728603 136.631762 
L 205.450476 136.631762 
L 205.450476 132.799366 
L 209.953796 132.799366 
L 209.953796 128.96697 
L 212.200793 128.96697 
L 212.200793 125.134574 
L 215.783115 125.134574 
L 215.783115 121.302178 
L 216.066126 121.302178 
L 216.123568 113.637386 
L 216.259822 113.637386 
L 216.259822 109.80499 
L 217.618082 109.80499 
L 217.653259 102.140198 
L 218.316699 102.140198 
L 218.365625 94.475406 
L 218.448756 94.475406 
L 218.448756 90.64301 
L 219.438442 90.64301 
L 219.534347 82.978218 
L 219.708973 82.978218 
L 219.78173 75.313426 
L 220.000656 75.313426 
L 220.000656 71.48103 
L 220.614739 71.48103 
L 220.694345 63.816238 
L 221.296917 63.816238 
L 221.296917 59.983842 
L 224.321755 59.983842 
L 224.321755 56.151446 
L 227.578049 56.151446 
L 227.578049 52.31905 
L 231.95944 52.31905 
L 231.960743 44.654257 
L 232.72178 44.654257 
L 232.72178 40.821861 
L 233.432567 40.821861 
L 233.432567 36.989465 
L 234.100782 36.989465 
L 234.100788 21.659881 
L 234.284647 21.659881 
L 234.284647 17.827485 
L 236.429892 17.827485 
L 236.429892 13.995089 
L 237.432606 13.995089 
L 237.432606 10.162693 
L 240.361252 10.162693 
L 240.361252 6.330297 
L 240.361252 6.330297 
L 460.8 6.330297 
L 460.8 6.330297 
" clip-path="url(#pc8a477e06a)" style="fill: none; stroke: #000000; stroke-width: 1.5; stroke-linecap: square"/>
   </g>
   <g id="patch_3">
    <path d="M 0 293.76 
L 0 3.456 
" style="fill: none; stroke: #000000; stroke-width: 0.8; stroke-linejoin: miter; stroke-linecap: square"/>
   </g>
   <g id="patch_4">
    <path d="M 460.8 293.76 
L 460.8 3.456 
" style="fill: none; stroke: #000000; stroke-width: 0.8; stroke-linejoin: miter; stroke-linecap: square"/>
   </g>
   <g id="patch_5">
    <path d="M 0 293.76 
L 460.8 293.76 
" style="fill: none; stroke: #000000; stroke-width: 0.8; stroke-linejoin: miter; stroke-linecap: square"/>
   </g>
   <g id="patch_6">
    <path d="M 0 3.456 
L 460.8 3.456 
" style="fill: none; stroke: #000000; stroke-width: 0.8; stroke-linejoin: miter; stroke-linecap: square"/>
   </g>
   <g id="text_6">
    <!-- {f15-f19}, 20-D -->
    <g transform="translate(293.159 287.95392) scale(0.2 -0.2)">
     <defs>
      <path id="DejaVuSans-7b" d="M 3272 -594 
L 3272 -1044 
L 3078 -1044 
Q 2300 -1044 2036 -812 
Q 1772 -581 1772 109 
L 1772 856 
Q 1772 1328 1603 1509 
Q 1434 1691 991 1691 
L 800 1691 
L 800 2138 
L 991 2138 
Q 1438 2138 1605 2317 
Q 1772 2497 1772 2963 
L 1772 3713 
Q 1772 4403 2036 4633 
Q 2300 4863 3078 4863 
L 3272 4863 
L 3272 4416 
L 3059 4416 
Q 2619 4416 2484 4278 
Q 2350 4141 2350 3700 
L 2350 2925 
Q 2350 2434 2208 2212 
Q 2066 1991 1722 1913 
Q 2069 1828 2209 1606 
Q 2350 1384 2350 897 
L 2350 122 
Q 2350 -319 2484 -456 
Q 2619 -594 3059 -594 
L 3272 -594 
z
" transform="scale(0.015625)"/>
      <path id="DejaVuSans-35" d="M 691 4666 
L 3169 4666 
L 3169 4134 
L 1269 4134 
L 1269 2991 
Q 1406 3038 1543 3061 
Q 1681 3084 1819 3084 
Q 2600 3084 3056 2656 
Q 3513 2228 3513 1497 
Q 3513 744 3044 326 
Q 2575 -91 1722 -91 
Q 1428 -91 1123 -41 
Q 819 9 494 109 
L 494 744 
Q 775 591 1075 516 
Q 1375 441 1709 441 
Q 2250 441 2565 725 
Q 2881 1009 2881 1497 
Q 2881 1984 2565 2268 
Q 2250 2553 1709 2553 
Q 1456 2553 1204 2497 
Q 953 2441 691 2322 
L 691 4666 
z
" transform="scale(0.015625)"/>
      <path id="DejaVuSans-39" d="M 703 97 
L 703 672 
Q 941 559 1184 500 
Q 1428 441 1663 441 
Q 2288 441 2617 861 
Q 2947 1281 2994 2138 
Q 2813 1869 2534 1725 
Q 2256 1581 1919 1581 
Q 1219 1581 811 2004 
Q 403 2428 403 3163 
Q 403 3881 828 4315 
Q 1253 4750 1959 4750 
Q 2769 4750 3195 4129 
Q 3622 3509 3622 2328 
Q 3622 1225 3098 567 
Q 2575 -91 1691 -91 
Q 1453 -91 1209 -44 
Q 966 3 703 97 
z
M 1959 2075 
Q 2384 2075 2632 2365 
Q 2881 2656 2881 3163 
Q 2881 3666 2632 3958 
Q 2384 4250 1959 4250 
Q 1534 4250 1286 3958 
Q 1038 3666 1038 3163 
Q 1038 2656 1286 2365 
Q 1534 2075 1959 2075 
z
" transform="scale(0.015625)"/>
      <path id="DejaVuSans-7d" d="M 800 -594 
L 1019 -594 
Q 1456 -594 1589 -459 
Q 1722 -325 1722 122 
L 1722 897 
Q 1722 1384 1862 1606 
Q 2003 1828 2350 1913 
Q 2003 1991 1862 2212 
Q 1722 2434 1722 2925 
L 1722 3700 
Q 1722 4144 1589 4280 
Q 1456 4416 1019 4416 
L 800 4416 
L 800 4863 
L 997 4863 
Q 1775 4863 2036 4633 
Q 2297 4403 2297 3713 
L 2297 2963 
Q 2297 2497 2465 2317 
Q 2634 2138 3078 2138 
L 3272 2138 
L 3272 1691 
L 3078 1691 
Q 2634 1691 2465 1509 
Q 2297 1328 2297 856 
L 2297 109 
Q 2297 -581 2036 -812 
Q 1775 -1044 997 -1044 
L 800 -1044 
L 800 -594 
z
" transform="scale(0.015625)"/>
      <path id="DejaVuSans-2c" d="M 750 794 
L 1409 794 
L 1409 256 
L 897 -744 
L 494 -744 
L 750 256 
L 750 794 
z
" transform="scale(0.015625)"/>
      <path id="DejaVuSans-32" d="M 1228 531 
L 3431 531 
L 3431 0 
L 469 0 
L 469 531 
Q 828 903 1448 1529 
Q 2069 2156 2228 2338 
Q 2531 2678 2651 2914 
Q 2772 3150 2772 3378 
Q 2772 3750 2511 3984 
Q 2250 4219 1831 4219 
Q 1534 4219 1204 4116 
Q 875 4013 500 3803 
L 500 4441 
Q 881 4594 1212 4672 
Q 1544 4750 1819 4750 
Q 2544 4750 2975 4387 
Q 3406 4025 3406 3419 
Q 3406 3131 3298 2873 
Q 3191 2616 2906 2266 
Q 2828 2175 2409 1742 
Q 1991 1309 1228 531 
z
" transform="scale(0.015625)"/>
     </defs>
     <use xlink:href="#DejaVuSans-7b"/>
     <use xlink:href="#DejaVuSans-66" x="63.623047"/>
     <use xlink:href="#DejaVuSans-31" x="98.828125"/>
     <use xlink:href="#DejaVuSans-35" x="162.451172"/>
     <use xlink:href="#DejaVuSans-2d" x="226.074219"/>
     <use xlink:href="#DejaVuSans-66" x="262.158203"/>
     <use xlink:href="#DejaVuSans-31" x="297.363281"/>
     <use xlink:href="#DejaVuSans-39" x="360.986328"/>
     <use xlink:href="#DejaVuSans-7d" x="424.609375"/>
     <use xlink:href="#DejaVuSans-2c" x="488.232422"/>
     <use xlink:href="#DejaVuSans-20" x="520.019531"/>
     <use xlink:href="#DejaVuSans-32" x="551.806641"/>
     <use xlink:href="#DejaVuSans-30" x="615.429688"/>
     <use xlink:href="#DejaVuSans-2d" x="679.052734"/>
     <use xlink:href="#DejaVuSans-44" x="715.136719"/>
    </g>
   </g>
   <g id="text_7">
    <!-- v2.6.3 -->
    <g style="fill: #808080" transform="translate(214.71875 288.777272) scale(0.1 -0.1)">
     <defs>
      <path id="DejaVuSans-76" d="M 191 3500 
L 800 3500 
L 1894 563 
L 2988 3500 
L 3597 3500 
L 2284 0 
L 1503 0 
L 191 3500 
z
" transform="scale(0.015625)"/>
      <path id="DejaVuSans-2e" d="M 684 794 
L 1344 794 
L 1344 0 
L 684 0 
L 684 794 
z
" transform="scale(0.015625)"/>
      <path id="DejaVuSans-36" d="M 2113 2584 
Q 1688 2584 1439 2293 
Q 1191 2003 1191 1497 
Q 1191 994 1439 701 
Q 1688 409 2113 409 
Q 2538 409 2786 701 
Q 3034 994 3034 1497 
Q 3034 2003 2786 2293 
Q 2538 2584 2113 2584 
z
M 3366 4563 
L 3366 3988 
Q 3128 4100 2886 4159 
Q 2644 4219 2406 4219 
Q 1781 4219 1451 3797 
Q 1122 3375 1075 2522 
Q 1259 2794 1537 2939 
Q 1816 3084 2150 3084 
Q 2853 3084 3261 2657 
Q 3669 2231 3669 1497 
Q 3669 778 3244 343 
Q 2819 -91 2113 -91 
Q 1303 -91 875 529 
Q 447 1150 447 2328 
Q 447 3434 972 4092 
Q 1497 4750 2381 4750 
Q 2619 4750 2861 4703 
Q 3103 4656 3366 4563 
z
" transform="scale(0.015625)"/>
      <path id="DejaVuSans-33" d="M 2597 2516 
Q 3050 2419 3304 2112 
Q 3559 1806 3559 1356 
Q 3559 666 3084 287 
Q 2609 -91 1734 -91 
Q 1441 -91 1130 -33 
Q 819 25 488 141 
L 488 750 
Q 750 597 1062 519 
Q 1375 441 1716 441 
Q 2309 441 2620 675 
Q 2931 909 2931 1356 
Q 2931 1769 2642 2001 
Q 2353 2234 1838 2234 
L 1294 2234 
L 1294 2753 
L 1863 2753 
Q 2328 2753 2575 2939 
Q 2822 3125 2822 3475 
Q 2822 3834 2567 4026 
Q 2313 4219 1838 4219 
Q 1578 4219 1281 4162 
Q 984 4106 628 3988 
L 628 4550 
Q 988 4650 1302 4700 
Q 1616 4750 1894 4750 
Q 2613 4750 3031 4423 
Q 3450 4097 3450 3541 
Q 3450 3153 3228 2886 
Q 3006 2619 2597 2516 
z
" transform="scale(0.015625)"/>
     </defs>
     <use xlink:href="#DejaVuSans-76"/>
     <use xlink:href="#DejaVuSans-32" x="59.179688"/>
     <use xlink:href="#DejaVuSans-2e" x="122.802734"/>
     <use xlink:href="#DejaVuSans-36" x="154.589844"/>
     <use xlink:href="#DejaVuSans-2e" x="218.212891"/>
     <use xlink:href="#DejaVuSans-33" x="250"/>
    </g>
   </g>
  </g>
 </g>
 <defs>
  <clipPath id="pc8a477e06a">
   <rect x="0" y="3.456" width="460.8" height="290.304"/>
  </clipPath>
 </defs>
</svg>
