<?xml version="1.0" encoding="utf-8" standalone="no"?>
<!DOCTYPE svg PUBLIC "-//W3C//DTD SVG 1.1//EN"
  "http://www.w3.org/Graphics/SVG/1.1/DTD/svg11.dtd">
<svg xmlns:xlink="http://www.w3.org/1999/xlink" width="460.8pt" height="345.6pt" viewBox="0 0 460.8 345.6" xmlns="http://www.w3.org/2000/svg" version="1.1">
 <metadata>
  <rdf:RDF xmlns:dc="http://purl.org/dc/elements/1.1/" xmlns:cc="http://creativecommons.org/ns#" xmlns:rdf="http://www.w3.org/1999/02/22-rdf-syntax-ns#">
   <cc:Work>
    <dc:type rdf:resource="http://purl.org/dc/dcmitype/StillImage"/>
    <dc:date>2024-06-19T23:15:42.680823</dc:date>
    <dc:format>image/svg+xml</dc:format>
    <dc:creator>
     <cc:Agent>
      <dc:title>Matplotlib v3.7.5, https://matplotlib.org/</dc:title>
     </cc:Agent>
    </dc:creator>
   </cc:Work>
  </rdf:RDF>
 </metadata>
 <defs>
  <style type="text/css">*{stroke-linejoin: round; stroke-linecap: butt}</style>
 </defs>
 <g id="figure_1">
  <g id="patch_1">
   <path d="M 0 345.6 
L 460.8 345.6 
L 460.8 0 
L 0 0 
z
" style="fill: #ffffff"/>
  </g>
  <g id="axes_1">
   <g id="patch_2">
    <path d="M 0 293.76 
L 460.8 293.76 
L 460.8 3.456 
L 0 3.456 
z
" style="fill: #ffffff"/>
   </g>
   <g id="matplotlib.axis_1">
    <g id="xtick_1">
     <g id="line2d_1">
      <path d="M 93.635786 293.76 
L 93.635786 3.456 
" clip-path="url(#p476d7fdf21)" style="fill: none; stroke: #b0b0b0; stroke-width: 0.8; stroke-linecap: square"/>
     </g>
     <g id="line2d_2">
      <defs>
       <path id="m77cceed36e" d="M 0 0 
L 0 3.5 
" style="stroke: #000000; stroke-width: 0.8"/>
      </defs>
      <g>
       <use xlink:href="#m77cceed36e" x="93.635786" y="293.76" style="stroke: #000000; stroke-width: 0.8"/>
      </g>
     </g>
     <g id="text_1">
      <!-- -4 -->
      <g transform="translate(83.665473 315.956875) scale(0.2 -0.2)">
       <defs>
        <path id="DejaVuSans-2d" d="M 313 2009 
L 1997 2009 
L 1997 1497 
L 313 1497 
L 313 2009 
z
" transform="scale(0.015625)"/>
        <path id="DejaVuSans-34" d="M 2419 4116 
L 825 1625 
L 2419 1625 
L 2419 4116 
z
M 2253 4666 
L 3047 4666 
L 3047 1625 
L 3713 1625 
L 3713 1100 
L 3047 1100 
L 3047 0 
L 2419 0 
L 2419 1100 
L 313 1100 
L 313 1709 
L 2253 4666 
z
" transform="scale(0.015625)"/>
       </defs>
       <use xlink:href="#DejaVuSans-2d"/>
       <use xlink:href="#DejaVuSans-34" x="36.083984"/>
      </g>
     </g>
    </g>
    <g id="xtick_2">
     <g id="line2d_3">
      <path d="M 187.37284 293.76 
L 187.37284 3.456 
" clip-path="url(#p476d7fdf21)" style="fill: none; stroke: #b0b0b0; stroke-width: 0.8; stroke-linecap: square"/>
     </g>
     <g id="line2d_4">
      <g>
       <use xlink:href="#m77cceed36e" x="187.37284" y="293.76" style="stroke: #000000; stroke-width: 0.8"/>
      </g>
     </g>
     <g id="text_2">
      <!-- 0 -->
      <g transform="translate(181.01034 315.956875) scale(0.2 -0.2)">
       <defs>
        <path id="DejaVuSans-30" d="M 2034 4250 
Q 1547 4250 1301 3770 
Q 1056 3291 1056 2328 
Q 1056 1369 1301 889 
Q 1547 409 2034 409 
Q 2525 409 2770 889 
Q 3016 1369 3016 2328 
Q 3016 3291 2770 3770 
Q 2525 4250 2034 4250 
z
M 2034 4750 
Q 2819 4750 3233 4129 
Q 3647 3509 3647 2328 
Q 3647 1150 3233 529 
Q 2819 -91 2034 -91 
Q 1250 -91 836 529 
Q 422 1150 422 2328 
Q 422 3509 836 4129 
Q 1250 4750 2034 4750 
z
" transform="scale(0.015625)"/>
       </defs>
       <use xlink:href="#DejaVuSans-30"/>
      </g>
     </g>
    </g>
    <g id="xtick_3">
     <g id="line2d_5">
      <path d="M 281.109894 293.76 
L 281.109894 3.456 
" clip-path="url(#p476d7fdf21)" style="fill: none; stroke: #b0b0b0; stroke-width: 0.8; stroke-linecap: square"/>
     </g>
     <g id="line2d_6">
      <g>
       <use xlink:href="#m77cceed36e" x="281.109894" y="293.76" style="stroke: #000000; stroke-width: 0.8"/>
      </g>
     </g>
     <g id="text_3">
      <!-- 4 -->
      <g transform="translate(274.747394 315.956875) scale(0.2 -0.2)">
       <use xlink:href="#DejaVuSans-34"/>
      </g>
     </g>
    </g>
    <g id="xtick_4">
     <g id="line2d_7">
      <path d="M 374.846948 293.76 
L 374.846948 3.456 
" clip-path="url(#p476d7fdf21)" style="fill: none; stroke: #b0b0b0; stroke-width: 0.8; stroke-linecap: square"/>
     </g>
     <g id="line2d_8">
      <g>
       <use xlink:href="#m77cceed36e" x="374.846948" y="293.76" style="stroke: #000000; stroke-width: 0.8"/>
      </g>
     </g>
     <g id="text_4">
      <!-- 8 -->
      <g transform="translate(368.484448 315.956875) scale(0.2 -0.2)">
       <defs>
        <path id="DejaVuSans-38" d="M 2034 2216 
Q 1584 2216 1326 1975 
Q 1069 1734 1069 1313 
Q 1069 891 1326 650 
Q 1584 409 2034 409 
Q 2484 409 2743 651 
Q 3003 894 3003 1313 
Q 3003 1734 2745 1975 
Q 2488 2216 2034 2216 
z
M 1403 2484 
Q 997 2584 770 2862 
Q 544 3141 544 3541 
Q 544 4100 942 4425 
Q 1341 4750 2034 4750 
Q 2731 4750 3128 4425 
Q 3525 4100 3525 3541 
Q 3525 3141 3298 2862 
Q 3072 2584 2669 2484 
Q 3125 2378 3379 2068 
Q 3634 1759 3634 1313 
Q 3634 634 3220 271 
Q 2806 -91 2034 -91 
Q 1263 -91 848 271 
Q 434 634 434 1313 
Q 434 1759 690 2068 
Q 947 2378 1403 2484 
z
M 1172 3481 
Q 1172 3119 1398 2916 
Q 1625 2713 2034 2713 
Q 2441 2713 2670 2916 
Q 2900 3119 2900 3481 
Q 2900 3844 2670 4047 
Q 2441 4250 2034 4250 
Q 1625 4250 1398 4047 
Q 1172 3844 1172 3481 
z
" transform="scale(0.015625)"/>
       </defs>
       <use xlink:href="#DejaVuSans-38"/>
      </g>
     </g>
    </g>
    <g id="text_5">
     <!-- log10 of Df -->
     <g transform="translate(175.214063 339.313125) scale(0.2 -0.2)">
      <defs>
       <path id="DejaVuSans-6c" d="M 603 4863 
L 1178 4863 
L 1178 0 
L 603 0 
L 603 4863 
z
" transform="scale(0.015625)"/>
       <path id="DejaVuSans-6f" d="M 1959 3097 
Q 1497 3097 1228 2736 
Q 959 2375 959 1747 
Q 959 1119 1226 758 
Q 1494 397 1959 397 
Q 2419 397 2687 759 
Q 2956 1122 2956 1747 
Q 2956 2369 2687 2733 
Q 2419 3097 1959 3097 
z
M 1959 3584 
Q 2709 3584 3137 3096 
Q 3566 2609 3566 1747 
Q 3566 888 3137 398 
Q 2709 -91 1959 -91 
Q 1206 -91 779 398 
Q 353 888 353 1747 
Q 353 2609 779 3096 
Q 1206 3584 1959 3584 
z
" transform="scale(0.015625)"/>
       <path id="DejaVuSans-67" d="M 2906 1791 
Q 2906 2416 2648 2759 
Q 2391 3103 1925 3103 
Q 1463 3103 1205 2759 
Q 947 2416 947 1791 
Q 947 1169 1205 825 
Q 1463 481 1925 481 
Q 2391 481 2648 825 
Q 2906 1169 2906 1791 
z
M 3481 434 
Q 3481 -459 3084 -895 
Q 2688 -1331 1869 -1331 
Q 1566 -1331 1297 -1286 
Q 1028 -1241 775 -1147 
L 775 -588 
Q 1028 -725 1275 -790 
Q 1522 -856 1778 -856 
Q 2344 -856 2625 -561 
Q 2906 -266 2906 331 
L 2906 616 
Q 2728 306 2450 153 
Q 2172 0 1784 0 
Q 1141 0 747 490 
Q 353 981 353 1791 
Q 353 2603 747 3093 
Q 1141 3584 1784 3584 
Q 2172 3584 2450 3431 
Q 2728 3278 2906 2969 
L 2906 3500 
L 3481 3500 
L 3481 434 
z
" transform="scale(0.015625)"/>
       <path id="DejaVuSans-31" d="M 794 531 
L 1825 531 
L 1825 4091 
L 703 3866 
L 703 4441 
L 1819 4666 
L 2450 4666 
L 2450 531 
L 3481 531 
L 3481 0 
L 794 0 
L 794 531 
z
" transform="scale(0.015625)"/>
       <path id="DejaVuSans-20" transform="scale(0.015625)"/>
       <path id="DejaVuSans-66" d="M 2375 4863 
L 2375 4384 
L 1825 4384 
Q 1516 4384 1395 4259 
Q 1275 4134 1275 3809 
L 1275 3500 
L 2222 3500 
L 2222 3053 
L 1275 3053 
L 1275 0 
L 697 0 
L 697 3053 
L 147 3053 
L 147 3500 
L 697 3500 
L 697 3744 
Q 697 4328 969 4595 
Q 1241 4863 1831 4863 
L 2375 4863 
z
" transform="scale(0.015625)"/>
       <path id="DejaVuSans-44" d="M 1259 4147 
L 1259 519 
L 2022 519 
Q 2988 519 3436 956 
Q 3884 1394 3884 2338 
Q 3884 3275 3436 3711 
Q 2988 4147 2022 4147 
L 1259 4147 
z
M 628 4666 
L 1925 4666 
Q 3281 4666 3915 4102 
Q 4550 3538 4550 2338 
Q 4550 1131 3912 565 
Q 3275 0 1925 0 
L 628 0 
L 628 4666 
z
" transform="scale(0.015625)"/>
      </defs>
      <use xlink:href="#DejaVuSans-6c"/>
      <use xlink:href="#DejaVuSans-6f" x="27.783203"/>
      <use xlink:href="#DejaVuSans-67" x="88.964844"/>
      <use xlink:href="#DejaVuSans-31" x="152.441406"/>
      <use xlink:href="#DejaVuSans-30" x="216.064453"/>
      <use xlink:href="#DejaVuSans-20" x="279.6875"/>
      <use xlink:href="#DejaVuSans-6f" x="311.474609"/>
      <use xlink:href="#DejaVuSans-66" x="372.65625"/>
      <use xlink:href="#DejaVuSans-20" x="407.861328"/>
      <use xlink:href="#DejaVuSans-44" x="439.648438"/>
      <use xlink:href="#DejaVuSans-66" x="516.650391"/>
     </g>
    </g>
   </g>
   <g id="matplotlib.axis_2">
    <g id="ytick_1">
     <g id="line2d_9">
      <path d="M 0 293.76 
L 460.8 293.76 
" clip-path="url(#p476d7fdf21)" style="fill: none; stroke: #b0b0b0; stroke-width: 0.8; stroke-linecap: square"/>
     </g>
     <g id="line2d_10">
      <defs>
       <path id="m5cf12e06a4" d="M 0 0 
L -3.5 0 
" style="stroke: #000000; stroke-width: 0.8"/>
      </defs>
      <g>
       <use xlink:href="#m5cf12e06a4" x="0" y="293.76" style="stroke: #000000; stroke-width: 0.8"/>
      </g>
     </g>
    </g>
    <g id="ytick_2">
     <g id="line2d_11">
      <path d="M 0 236.274059 
L 460.8 236.274059 
" clip-path="url(#p476d7fdf21)" style="fill: none; stroke: #b0b0b0; stroke-width: 0.8; stroke-linecap: square"/>
     </g>
     <g id="line2d_12">
      <g>
       <use xlink:href="#m5cf12e06a4" x="0" y="236.274059" style="stroke: #000000; stroke-width: 0.8"/>
      </g>
     </g>
    </g>
    <g id="ytick_3">
     <g id="line2d_13">
      <path d="M 0 178.788119 
L 460.8 178.788119 
" clip-path="url(#p476d7fdf21)" style="fill: none; stroke: #b0b0b0; stroke-width: 0.8; stroke-linecap: square"/>
     </g>
     <g id="line2d_14">
      <g>
       <use xlink:href="#m5cf12e06a4" x="0" y="178.788119" style="stroke: #000000; stroke-width: 0.8"/>
      </g>
     </g>
    </g>
    <g id="ytick_4">
     <g id="line2d_15">
      <path d="M 0 121.302178 
L 460.8 121.302178 
" clip-path="url(#p476d7fdf21)" style="fill: none; stroke: #b0b0b0; stroke-width: 0.8; stroke-linecap: square"/>
     </g>
     <g id="line2d_16">
      <g>
       <use xlink:href="#m5cf12e06a4" x="0" y="121.302178" style="stroke: #000000; stroke-width: 0.8"/>
      </g>
     </g>
    </g>
    <g id="ytick_5">
     <g id="line2d_17">
      <path d="M 0 63.816238 
L 460.8 63.816238 
" clip-path="url(#p476d7fdf21)" style="fill: none; stroke: #b0b0b0; stroke-width: 0.8; stroke-linecap: square"/>
     </g>
     <g id="line2d_18">
      <g>
       <use xlink:href="#m5cf12e06a4" x="0" y="63.816238" style="stroke: #000000; stroke-width: 0.8"/>
      </g>
     </g>
    </g>
    <g id="ytick_6">
     <g id="line2d_19">
      <path d="M 0 6.330297 
L 460.8 6.330297 
" clip-path="url(#p476d7fdf21)" style="fill: none; stroke: #b0b0b0; stroke-width: 0.8; stroke-linecap: square"/>
     </g>
     <g id="line2d_20">
      <g>
       <use xlink:href="#m5cf12e06a4" x="0" y="6.330297" style="stroke: #000000; stroke-width: 0.8"/>
      </g>
     </g>
    </g>
   </g>
   <g id="line2d_21">
    <path d="M -1 245.85505 
L 36.371464 245.85505 
L 36.371464 241.064554 
L 52.436624 241.064554 
L 52.436624 236.274059 
L 70.582535 236.274059 
L 70.582535 231.483564 
L 71.623255 231.483564 
L 71.623255 226.693069 
L 75.497467 226.693069 
L 75.497467 221.902574 
L 76.954192 221.902574 
L 76.954192 217.112079 
L 98.502854 217.112079 
L 98.502854 212.321584 
L 100.309056 212.321584 
L 100.309056 207.531089 
L 104.013003 207.531089 
L 104.013003 202.740594 
L 119.276513 202.740594 
L 119.276513 197.950099 
L 127.613198 197.950099 
L 127.613198 193.159604 
L 131.003213 193.159604 
L 131.003213 188.369109 
L 135.596783 188.369109 
L 135.596783 183.578614 
L 144.615784 183.578614 
L 144.615784 178.788119 
L 145.678994 178.788119 
L 145.678994 173.997624 
L 152.454511 173.997624 
L 152.454511 169.207129 
L 152.793002 169.207129 
L 152.793002 164.416634 
L 155.924078 164.416634 
L 155.924078 159.626139 
L 157.607247 159.626139 
L 157.607247 154.835644 
L 157.863836 154.835644 
L 157.863836 150.045149 
L 164.336823 150.045149 
L 164.336823 145.254653 
L 170.112101 145.254653 
L 170.112101 140.464158 
L 172.915988 140.464158 
L 172.915988 135.673663 
L 174.021384 135.673663 
L 174.021384 130.883168 
L 177.462805 130.883168 
L 177.462805 126.092673 
L 177.983062 126.092673 
L 177.983062 121.302178 
L 178.529216 121.302178 
L 178.529216 116.511683 
L 178.563687 116.511683 
L 178.563687 111.721188 
L 178.571896 111.721188 
L 178.571896 106.930693 
L 179.068315 106.930693 
L 179.068315 102.140198 
L 179.397922 102.140198 
L 179.397922 97.349703 
L 180.678325 97.349703 
L 180.678325 92.559208 
L 181.943019 92.559208 
L 181.943019 87.768713 
L 182.429133 87.768713 
L 182.429133 82.978218 
L 184.607959 82.978218 
L 184.607959 78.187723 
L 185.963919 78.187723 
L 185.963919 73.397228 
L 186.812926 73.397228 
L 186.812926 68.606733 
L 187.535297 68.606733 
L 187.535297 63.816238 
L 188.722248 63.816238 
L 188.722248 59.025743 
L 189.165251 59.025743 
L 189.165251 54.235248 
L 189.712596 54.235248 
L 189.712596 49.444752 
L 189.788178 49.444752 
L 189.788178 44.654257 
L 190.500517 44.654257 
L 190.500517 39.863762 
L 191.347064 39.863762 
L 191.347064 35.073267 
L 191.421722 35.073267 
L 191.421722 30.282772 
L 193.016564 30.282772 
L 193.016564 25.492277 
L 195.984912 25.492277 
L 195.984912 20.701782 
L 198.197192 20.701782 
L 198.197192 15.911287 
L 201.465702 15.911287 
L 201.465702 11.120792 
L 201.527435 11.120792 
L 201.527435 6.330297 
L 201.527435 6.330297 
L 201.527435 6.330297 
L 460.8 6.330297 
" clip-path="url(#p476d7fdf21)" style="fill: none; stroke: #ff0000; stroke-width: 3; stroke-linecap: square"/>
   </g>
   <g id="line2d_22">
    <path d="M 235.791816 293.76 
L 235.791816 288.969505 
L 238.229241 288.969505 
L 238.229241 284.17901 
L 238.761177 284.17901 
L 238.761177 279.388515 
L 239.627197 279.388515 
L 239.627197 274.59802 
L 245.078097 274.59802 
L 245.078097 269.807525 
L 246.607672 269.807525 
L 246.607672 265.01703 
L 246.701975 265.01703 
L 246.701975 260.226535 
L 250.203876 260.226535 
L 250.203876 255.43604 
L 253.680687 255.43604 
L 253.680687 250.645545 
L 255.607109 250.645545 
L 255.607109 245.85505 
L 255.835986 245.85505 
L 255.835986 241.064554 
L 257.671085 241.064554 
L 257.671085 236.274059 
L 257.986268 236.274059 
L 257.986268 231.483564 
L 258.851651 231.483564 
L 258.851651 226.693069 
L 259.256917 226.693069 
L 259.256917 221.902574 
L 260.198801 221.902574 
L 260.198801 217.112079 
L 271.156026 217.112079 
L 271.156026 212.321584 
L 279.506696 212.321584 
L 279.506696 207.531089 
L 280.178303 207.531089 
L 280.178303 202.740594 
L 283.602165 202.740594 
L 283.602165 197.950099 
L 285.242368 197.950099 
L 285.242368 193.159604 
L 286.897417 193.159604 
L 286.897417 188.369109 
L 288.023441 188.369109 
L 288.023441 183.578614 
L 289.71731 183.578614 
L 289.71731 178.788119 
L 290.199827 178.788119 
L 290.199827 173.997624 
L 291.051272 173.997624 
L 291.051272 169.207129 
L 292.207519 169.207129 
L 292.207519 164.416634 
L 293.003294 164.416634 
L 293.003294 159.626139 
L 293.331232 159.626139 
L 293.331232 154.835644 
L 293.441697 154.835644 
L 293.441697 150.045149 
L 293.51112 150.045149 
L 293.51112 145.254653 
L 293.787336 145.254653 
L 293.787336 140.464158 
L 294.760436 140.464158 
L 294.760436 135.673663 
L 295.17575 135.673663 
L 295.17575 130.883168 
L 295.901438 130.883168 
L 295.901438 126.092673 
L 299.178862 126.092673 
L 299.178862 121.302178 
L 299.201845 121.302178 
L 299.201845 116.511683 
L 299.690999 116.511683 
L 299.690999 111.721188 
L 299.712473 111.721188 
L 299.712473 106.930693 
L 300.188424 106.930693 
L 300.188424 102.140198 
L 300.982215 102.140198 
L 300.982215 97.349703 
L 301.223234 97.349703 
L 301.223234 92.559208 
L 301.446392 92.559208 
L 301.446392 87.768713 
L 302.136786 87.768713 
L 302.136786 82.978218 
L 303.811824 82.978218 
L 303.811824 78.187723 
L 304.254179 78.187723 
L 304.254179 73.397228 
L 304.908307 73.397228 
L 304.908307 68.606733 
L 306.709115 68.606733 
L 306.709115 63.816238 
L 308.496146 63.816238 
L 308.496146 59.025743 
L 309.927257 59.025743 
L 309.927257 54.235248 
L 310.638055 54.235248 
L 310.638055 49.444752 
L 312.641812 49.444752 
L 312.641812 44.654257 
L 314.487962 44.654257 
L 314.487962 39.863762 
L 315.095078 39.863762 
L 315.095078 35.073267 
L 315.68483 35.073267 
L 315.68483 30.282772 
L 315.87196 30.282772 
L 315.87196 25.492277 
L 315.918759 25.492277 
L 315.918759 20.701782 
L 317.925039 20.701782 
L 317.925039 15.911287 
L 322.492644 15.911287 
L 322.492644 11.120792 
L 326.398223 11.120792 
L 326.398223 6.330297 
L 326.398223 6.330297 
L 326.398223 6.330297 
L 460.8 6.330297 
" clip-path="url(#p476d7fdf21)" style="fill: none; stroke: #00bfbf; stroke-width: 1.5; stroke-linecap: square"/>
   </g>
   <g id="line2d_23">
    <path d="M 222.927855 293.76 
L 222.927855 288.969505 
L 233.848978 288.969505 
L 233.848978 284.17901 
L 235.331362 284.17901 
L 235.331362 279.388515 
L 235.542671 279.388515 
L 235.542671 274.59802 
L 235.791816 274.59802 
L 235.791816 269.807525 
L 237.481994 269.807525 
L 237.481994 265.01703 
L 237.770505 265.01703 
L 237.770505 260.226535 
L 238.229241 260.226535 
L 238.229241 255.43604 
L 238.546475 255.43604 
L 238.546475 250.645545 
L 239.263831 250.645545 
L 239.263831 245.85505 
L 239.627197 245.85505 
L 239.627197 241.064554 
L 240.050979 241.064554 
L 240.050979 236.274059 
L 241.202809 236.274059 
L 241.202809 231.483564 
L 241.415787 231.483564 
L 241.415787 226.693069 
L 245.078097 226.693069 
L 245.078097 221.902574 
L 249.390253 221.902574 
L 249.390253 217.112079 
L 252.919485 217.112079 
L 252.919485 212.321584 
L 267.814353 212.321584 
L 267.814353 207.531089 
L 271.156026 207.531089 
L 271.156026 202.740594 
L 279.095485 202.740594 
L 279.095485 197.950099 
L 279.418634 197.950099 
L 279.418634 193.159604 
L 279.506696 193.159604 
L 279.506696 188.369109 
L 279.947728 188.369109 
L 279.947728 183.578614 
L 280.178303 183.578614 
L 280.178303 178.788119 
L 283.455646 178.788119 
L 283.455646 173.997624 
L 283.602165 173.997624 
L 283.602165 169.207129 
L 284.509074 169.207129 
L 284.509074 164.416634 
L 285.242368 164.416634 
L 285.242368 159.626139 
L 286.897417 159.626139 
L 286.897417 154.835644 
L 286.957518 154.835644 
L 286.957518 150.045149 
L 288.023441 150.045149 
L 288.023441 145.254653 
L 288.823022 145.254653 
L 288.823022 140.464158 
L 288.896154 140.464158 
L 288.896154 135.673663 
L 289.08459 135.673663 
L 289.08459 130.883168 
L 290.199827 130.883168 
L 290.199827 126.092673 
L 291.027504 126.092673 
L 291.027504 121.302178 
L 291.051272 121.302178 
L 291.051272 116.511683 
L 291.13152 116.511683 
L 291.13152 111.721188 
L 291.870814 111.721188 
L 291.870814 106.930693 
L 292.207519 106.930693 
L 292.207519 102.140198 
L 293.331232 102.140198 
L 293.331232 97.349703 
L 293.360708 97.349703 
L 293.360708 92.559208 
L 293.441697 92.559208 
L 293.441697 87.768713 
L 293.443048 87.768713 
L 293.443048 82.978218 
L 293.787336 82.978218 
L 293.787336 78.187723 
L 295.422005 78.187723 
L 295.422005 73.397228 
L 299.690999 73.397228 
L 299.690999 68.606733 
L 299.712473 68.606733 
L 299.712473 63.816238 
L 299.818669 63.816238 
L 299.818669 59.025743 
L 300.188424 59.025743 
L 300.188424 54.235248 
L 301.223234 54.235248 
L 301.223234 49.444752 
L 303.811824 49.444752 
L 303.811824 44.654257 
L 304.254179 44.654257 
L 304.254179 39.863762 
L 304.908307 39.863762 
L 304.908307 35.073267 
L 306.709115 35.073267 
L 306.709115 30.282772 
L 308.575289 30.282772 
L 308.575289 25.492277 
L 309.537399 25.492277 
L 309.537399 20.701782 
L 309.927257 20.701782 
L 309.927257 15.911287 
L 312.641812 15.911287 
L 312.641812 11.120792 
L 315.410464 11.120792 
L 315.410464 6.330297 
L 315.410464 6.330297 
L 315.410464 6.330297 
L 460.8 6.330297 
" clip-path="url(#p476d7fdf21)" style="fill: none; stroke: #bf00bf; stroke-width: 1.5; stroke-linecap: square"/>
   </g>
   <g id="line2d_24">
    <path d="M 208.33101 293.76 
L 208.33101 288.969505 
L 222.927855 288.969505 
L 222.927855 284.17901 
L 228.527928 284.17901 
L 228.527928 279.388515 
L 230.288494 279.388515 
L 230.288494 274.59802 
L 230.33189 274.59802 
L 230.33189 269.807525 
L 231.771814 269.807525 
L 231.771814 265.01703 
L 232.028514 265.01703 
L 232.028514 260.226535 
L 232.030375 260.226535 
L 232.030375 255.43604 
L 232.103253 255.43604 
L 232.103253 250.645545 
L 232.389557 250.645545 
L 232.389557 245.85505 
L 232.398999 245.85505 
L 232.398999 241.064554 
L 233.848978 241.064554 
L 233.848978 236.274059 
L 234.565068 236.274059 
L 234.565068 231.483564 
L 235.331362 231.483564 
L 235.331362 226.693069 
L 235.542671 226.693069 
L 235.542671 221.902574 
L 235.694903 221.902574 
L 235.694903 217.112079 
L 235.791816 217.112079 
L 235.791816 212.321584 
L 236.334396 212.321584 
L 236.334396 207.531089 
L 237.481994 207.531089 
L 237.481994 202.740594 
L 237.55067 202.740594 
L 237.55067 197.950099 
L 242.043271 197.950099 
L 242.043271 193.159604 
L 242.119736 193.159604 
L 242.119736 188.369109 
L 243.566647 188.369109 
L 243.566647 183.578614 
L 253.630795 183.578614 
L 253.630795 178.788119 
L 254.378471 178.788119 
L 254.378471 173.997624 
L 263.610808 173.997624 
L 263.610808 169.207129 
L 264.526971 169.207129 
L 264.526971 164.416634 
L 267.688474 164.416634 
L 267.688474 159.626139 
L 267.814353 159.626139 
L 267.814353 154.835644 
L 268.326487 154.835644 
L 268.326487 150.045149 
L 269.183925 150.045149 
L 269.183925 145.254653 
L 269.647228 145.254653 
L 269.647228 140.464158 
L 270.594602 140.464158 
L 270.594602 135.673663 
L 270.979076 135.673663 
L 270.979076 130.883168 
L 271.156026 130.883168 
L 271.156026 126.092673 
L 272.099116 126.092673 
L 272.099116 121.302178 
L 272.121547 121.302178 
L 272.121547 116.511683 
L 274.438266 116.511683 
L 274.438266 111.721188 
L 274.760409 111.721188 
L 274.760409 106.930693 
L 274.986323 106.930693 
L 274.986323 102.140198 
L 277.26413 102.140198 
L 277.26413 97.349703 
L 278.211603 97.349703 
L 278.211603 92.559208 
L 279.057941 92.559208 
L 279.057941 87.768713 
L 279.087871 87.768713 
L 279.087871 82.978218 
L 280.178303 82.978218 
L 280.178303 78.187723 
L 282.887375 78.187723 
L 282.887375 73.397228 
L 282.912926 73.397228 
L 282.912926 68.606733 
L 283.612759 68.606733 
L 283.612759 63.816238 
L 285.242368 63.816238 
L 285.242368 59.025743 
L 285.331449 59.025743 
L 285.331449 54.235248 
L 286.141343 54.235248 
L 286.141343 49.444752 
L 292.544672 49.444752 
L 292.544672 44.654257 
L 293.331232 44.654257 
L 293.331232 39.863762 
L 293.787336 39.863762 
L 293.787336 35.073267 
L 297.097499 35.073267 
L 297.097499 30.282772 
L 298.422341 30.282772 
L 298.422341 25.492277 
L 302.1743 25.492277 
L 302.1743 20.701782 
L 303.811824 20.701782 
L 303.811824 15.911287 
L 307.069967 15.911287 
L 307.069967 11.120792 
L 312.641812 11.120792 
L 312.641812 6.330297 
L 312.641812 6.330297 
L 312.641812 6.330297 
L 460.8 6.330297 
" clip-path="url(#p476d7fdf21)" style="fill: none; stroke: #000000; stroke-width: 1.5; stroke-linecap: square"/>
   </g>
   <g id="line2d_25">
    <path d="M 203.561986 293.76 
L 203.561986 288.969505 
L 205.01041 288.969505 
L 205.01041 284.17901 
L 208.33101 284.17901 
L 208.33101 279.388515 
L 213.61368 279.388515 
L 213.61368 274.59802 
L 214.127347 274.59802 
L 214.127347 269.807525 
L 217.319874 269.807525 
L 217.319874 265.01703 
L 219.156558 265.01703 
L 219.156558 260.226535 
L 220.127361 260.226535 
L 220.127361 255.43604 
L 220.293631 255.43604 
L 220.293631 250.645545 
L 222.663029 250.645545 
L 222.663029 245.85505 
L 222.79073 245.85505 
L 222.79073 241.064554 
L 223.008508 241.064554 
L 223.008508 236.274059 
L 223.459476 236.274059 
L 223.459476 231.483564 
L 223.802729 231.483564 
L 223.802729 226.693069 
L 226.925323 226.693069 
L 226.925323 221.902574 
L 227.273153 221.902574 
L 227.273153 217.112079 
L 227.497707 217.112079 
L 227.497707 212.321584 
L 227.54177 212.321584 
L 227.54177 207.531089 
L 228.919318 207.531089 
L 228.919318 202.740594 
L 231.144226 202.740594 
L 231.144226 197.950099 
L 232.207764 197.950099 
L 232.207764 193.159604 
L 233.45402 193.159604 
L 233.45402 188.369109 
L 234.574469 188.369109 
L 234.574469 183.578614 
L 235.171536 183.578614 
L 235.171536 178.788119 
L 235.203057 178.788119 
L 235.203057 173.997624 
L 236.265745 173.997624 
L 236.265745 169.207129 
L 238.365633 169.207129 
L 238.365633 164.416634 
L 239.69584 164.416634 
L 239.69584 159.626139 
L 240.378205 159.626139 
L 240.378205 154.835644 
L 240.66524 154.835644 
L 240.66524 150.045149 
L 242.043271 150.045149 
L 242.043271 145.254653 
L 242.050141 145.254653 
L 242.050141 140.464158 
L 242.069025 140.464158 
L 242.069025 135.673663 
L 244.54344 135.673663 
L 244.54344 130.883168 
L 245.87471 130.883168 
L 245.87471 126.092673 
L 247.044169 126.092673 
L 247.044169 121.302178 
L 247.126059 121.302178 
L 247.126059 116.511683 
L 247.90892 116.511683 
L 247.90892 111.721188 
L 250.426641 111.721188 
L 250.426641 106.930693 
L 250.963861 106.930693 
L 250.963861 102.140198 
L 251.030472 102.140198 
L 251.030472 97.349703 
L 251.554069 97.349703 
L 251.554069 92.559208 
L 252.653957 92.559208 
L 252.653957 87.768713 
L 252.747118 87.768713 
L 252.747118 82.978218 
L 253.982783 82.978218 
L 253.982783 78.187723 
L 253.989365 78.187723 
L 253.989365 73.397228 
L 254.759238 73.397228 
L 254.759238 68.606733 
L 255.327079 68.606733 
L 255.327079 63.816238 
L 255.995103 63.816238 
L 255.995103 59.025743 
L 257.499852 59.025743 
L 257.499852 54.235248 
L 258.906042 54.235248 
L 258.906042 49.444752 
L 259.51507 49.444752 
L 259.51507 44.654257 
L 259.953413 44.654257 
L 259.953413 39.863762 
L 260.88189 39.863762 
L 260.88189 35.073267 
L 267.647735 35.073267 
L 267.647735 30.282772 
L 268.330717 30.282772 
L 268.330717 25.492277 
L 268.723017 25.492277 
L 268.723017 20.701782 
L 269.84752 20.701782 
L 269.84752 15.911287 
L 293.012084 15.911287 
L 293.012084 11.120792 
L 297.097499 11.120792 
L 297.097499 6.330297 
L 297.097499 6.330297 
L 297.097499 6.330297 
L 460.8 6.330297 
" clip-path="url(#p476d7fdf21)" style="fill: none; stroke: #00bfbf; stroke-width: 1.5; stroke-linecap: square"/>
   </g>
   <g id="line2d_26">
    <path d="M 162.061161 293.76 
L 162.061161 288.969505 
L 176.775115 288.969505 
L 176.775115 284.17901 
L 182.547892 284.17901 
L 182.547892 279.388515 
L 186.995287 279.388515 
L 186.995287 274.59802 
L 189.479744 274.59802 
L 189.479744 269.807525 
L 194.057329 269.807525 
L 194.057329 265.01703 
L 194.217372 265.01703 
L 194.217372 260.226535 
L 194.851761 260.226535 
L 194.851761 255.43604 
L 195.110015 255.43604 
L 195.110015 250.645545 
L 196.09204 250.645545 
L 196.09204 245.85505 
L 196.288945 245.85505 
L 196.288945 241.064554 
L 197.584504 241.064554 
L 197.584504 236.274059 
L 199.451004 236.274059 
L 199.451004 231.483564 
L 199.666527 231.483564 
L 199.666527 226.693069 
L 200.180687 226.693069 
L 200.180687 221.902574 
L 200.25562 221.902574 
L 200.25562 217.112079 
L 200.285274 217.112079 
L 200.285274 212.321584 
L 200.382066 212.321584 
L 200.382066 207.531089 
L 201.431939 207.531089 
L 201.431939 202.740594 
L 201.825724 202.740594 
L 201.825724 197.950099 
L 202.672097 197.950099 
L 202.672097 193.159604 
L 202.800692 193.159604 
L 202.800692 188.369109 
L 203.082401 188.369109 
L 203.082401 183.578614 
L 203.110119 183.578614 
L 203.110119 178.788119 
L 203.12375 178.788119 
L 203.12375 173.997624 
L 203.564155 173.997624 
L 203.564155 169.207129 
L 204.110072 169.207129 
L 204.110072 164.416634 
L 204.501878 164.416634 
L 204.501878 159.626139 
L 205.110556 159.626139 
L 205.110556 154.835644 
L 205.293 154.835644 
L 205.293 150.045149 
L 205.371093 150.045149 
L 205.371093 145.254653 
L 207.040163 145.254653 
L 207.040163 140.464158 
L 207.376197 140.464158 
L 207.376197 135.673663 
L 208.716316 135.673663 
L 208.716316 130.883168 
L 210.645166 130.883168 
L 210.645166 126.092673 
L 211.994295 126.092673 
L 211.994295 121.302178 
L 212.814536 121.302178 
L 212.814536 116.511683 
L 212.842719 116.511683 
L 212.842719 111.721188 
L 213.041034 111.721188 
L 213.041034 106.930693 
L 213.699197 106.930693 
L 213.699197 102.140198 
L 214.067521 102.140198 
L 214.067521 97.349703 
L 214.899076 97.349703 
L 214.899076 92.559208 
L 217.145619 92.559208 
L 217.145619 87.768713 
L 217.289423 87.768713 
L 217.289423 82.978218 
L 219.329934 82.978218 
L 219.329934 78.187723 
L 222.078759 78.187723 
L 222.078759 73.397228 
L 225.483954 73.397228 
L 225.483954 68.606733 
L 226.181101 68.606733 
L 226.181101 63.816238 
L 226.353742 63.816238 
L 226.353742 59.025743 
L 227.112492 59.025743 
L 227.112492 54.235248 
L 227.665775 54.235248 
L 227.665775 49.444752 
L 227.834994 49.444752 
L 227.834994 44.654257 
L 228.437972 44.654257 
L 228.437972 39.863762 
L 229.250523 39.863762 
L 229.250523 35.073267 
L 230.105792 35.073267 
L 230.105792 30.282772 
L 230.82732 30.282772 
L 230.82732 25.492277 
L 231.144226 25.492277 
L 231.144226 20.701782 
L 231.427265 20.701782 
L 231.427265 15.911287 
L 234.126175 15.911287 
L 234.126175 11.120792 
L 247.126571 11.120792 
L 247.126571 6.330297 
L 247.126571 6.330297 
L 247.126571 6.330297 
L 460.8 6.330297 
" clip-path="url(#p476d7fdf21)" style="fill: none; stroke: #bf00bf; stroke-width: 1.5; stroke-linecap: square"/>
   </g>
   <g id="line2d_27">
    <path d="M -1 245.85505 
L 36.371464 245.85505 
L 36.371464 241.064554 
L 52.436624 241.064554 
L 52.436624 236.274059 
L 70.582535 236.274059 
L 70.582535 231.483564 
L 71.623255 231.483564 
L 71.623255 226.693069 
L 75.497467 226.693069 
L 75.497467 221.902574 
L 76.954192 221.902574 
L 76.954192 217.112079 
L 98.502854 217.112079 
L 98.502854 212.321584 
L 100.309056 212.321584 
L 100.309056 207.531089 
L 104.013003 207.531089 
L 104.013003 202.740594 
L 119.276513 202.740594 
L 119.276513 197.950099 
L 127.613198 197.950099 
L 127.613198 193.159604 
L 131.003213 193.159604 
L 131.003213 188.369109 
L 135.596783 188.369109 
L 135.596783 183.578614 
L 144.615784 183.578614 
L 144.615784 178.788119 
L 145.678994 178.788119 
L 145.678994 173.997624 
L 152.454511 173.997624 
L 152.454511 169.207129 
L 152.793002 169.207129 
L 152.793002 164.416634 
L 155.924078 164.416634 
L 155.924078 159.626139 
L 157.607247 159.626139 
L 157.607247 154.835644 
L 157.863836 154.835644 
L 157.863836 150.045149 
L 164.336823 150.045149 
L 164.336823 145.254653 
L 170.112101 145.254653 
L 170.112101 140.464158 
L 172.915988 140.464158 
L 172.915988 135.673663 
L 174.021384 135.673663 
L 174.021384 130.883168 
L 177.462805 130.883168 
L 177.462805 126.092673 
L 177.983062 126.092673 
L 177.983062 121.302178 
L 178.529216 121.302178 
L 178.529216 116.511683 
L 178.563687 116.511683 
L 178.563687 111.721188 
L 178.571896 111.721188 
L 178.571896 106.930693 
L 179.068315 106.930693 
L 179.068315 102.140198 
L 179.397922 102.140198 
L 179.397922 97.349703 
L 180.678325 97.349703 
L 180.678325 92.559208 
L 181.943019 92.559208 
L 181.943019 87.768713 
L 182.429133 87.768713 
L 182.429133 82.978218 
L 184.607959 82.978218 
L 184.607959 78.187723 
L 185.963919 78.187723 
L 185.963919 73.397228 
L 186.812926 73.397228 
L 186.812926 68.606733 
L 187.535297 68.606733 
L 187.535297 63.816238 
L 188.722248 63.816238 
L 188.722248 59.025743 
L 189.165251 59.025743 
L 189.165251 54.235248 
L 189.712596 54.235248 
L 189.712596 49.444752 
L 189.788178 49.444752 
L 189.788178 44.654257 
L 190.500517 44.654257 
L 190.500517 39.863762 
L 191.347064 39.863762 
L 191.347064 35.073267 
L 191.421722 35.073267 
L 191.421722 30.282772 
L 193.016564 30.282772 
L 193.016564 25.492277 
L 195.984912 25.492277 
L 195.984912 20.701782 
L 198.197192 20.701782 
L 198.197192 15.911287 
L 201.465702 15.911287 
L 201.465702 11.120792 
L 201.527435 11.120792 
L 201.527435 6.330297 
L 201.527435 6.330297 
L 201.527435 6.330297 
L 460.8 6.330297 
" clip-path="url(#p476d7fdf21)" style="fill: none; stroke: #000000; stroke-width: 1.5; stroke-linecap: square"/>
   </g>
   <g id="patch_3">
    <path d="M 0 293.76 
L 0 3.456 
" style="fill: none; stroke: #000000; stroke-width: 0.8; stroke-linejoin: miter; stroke-linecap: square"/>
   </g>
   <g id="patch_4">
    <path d="M 460.8 293.76 
L 460.8 3.456 
" style="fill: none; stroke: #000000; stroke-width: 0.8; stroke-linejoin: miter; stroke-linecap: square"/>
   </g>
   <g id="patch_5">
    <path d="M 0 293.76 
L 460.8 293.76 
" style="fill: none; stroke: #000000; stroke-width: 0.8; stroke-linejoin: miter; stroke-linecap: square"/>
   </g>
   <g id="patch_6">
    <path d="M 0 3.456 
L 460.8 3.456 
" style="fill: none; stroke: #000000; stroke-width: 0.8; stroke-linejoin: miter; stroke-linecap: square"/>
   </g>
   <g id="text_6">
    <!-- {f6-f9}, 5-D -->
    <g transform="translate(331.334 287.95392) scale(0.2 -0.2)">
     <defs>
      <path id="DejaVuSans-7b" d="M 3272 -594 
L 3272 -1044 
L 3078 -1044 
Q 2300 -1044 2036 -812 
Q 1772 -581 1772 109 
L 1772 856 
Q 1772 1328 1603 1509 
Q 1434 1691 991 1691 
L 800 1691 
L 800 2138 
L 991 2138 
Q 1438 2138 1605 2317 
Q 1772 2497 1772 2963 
L 1772 3713 
Q 1772 4403 2036 4633 
Q 2300 4863 3078 4863 
L 3272 4863 
L 3272 4416 
L 3059 4416 
Q 2619 4416 2484 4278 
Q 2350 4141 2350 3700 
L 2350 2925 
Q 2350 2434 2208 2212 
Q 2066 1991 1722 1913 
Q 2069 1828 2209 1606 
Q 2350 1384 2350 897 
L 2350 122 
Q 2350 -319 2484 -456 
Q 2619 -594 3059 -594 
L 3272 -594 
z
" transform="scale(0.015625)"/>
      <path id="DejaVuSans-36" d="M 2113 2584 
Q 1688 2584 1439 2293 
Q 1191 2003 1191 1497 
Q 1191 994 1439 701 
Q 1688 409 2113 409 
Q 2538 409 2786 701 
Q 3034 994 3034 1497 
Q 3034 2003 2786 2293 
Q 2538 2584 2113 2584 
z
M 3366 4563 
L 3366 3988 
Q 3128 4100 2886 4159 
Q 2644 4219 2406 4219 
Q 1781 4219 1451 3797 
Q 1122 3375 1075 2522 
Q 1259 2794 1537 2939 
Q 1816 3084 2150 3084 
Q 2853 3084 3261 2657 
Q 3669 2231 3669 1497 
Q 3669 778 3244 343 
Q 2819 -91 2113 -91 
Q 1303 -91 875 529 
Q 447 1150 447 2328 
Q 447 3434 972 4092 
Q 1497 4750 2381 4750 
Q 2619 4750 2861 4703 
Q 3103 4656 3366 4563 
z
" transform="scale(0.015625)"/>
      <path id="DejaVuSans-39" d="M 703 97 
L 703 672 
Q 941 559 1184 500 
Q 1428 441 1663 441 
Q 2288 441 2617 861 
Q 2947 1281 2994 2138 
Q 2813 1869 2534 1725 
Q 2256 1581 1919 1581 
Q 1219 1581 811 2004 
Q 403 2428 403 3163 
Q 403 3881 828 4315 
Q 1253 4750 1959 4750 
Q 2769 4750 3195 4129 
Q 3622 3509 3622 2328 
Q 3622 1225 3098 567 
Q 2575 -91 1691 -91 
Q 1453 -91 1209 -44 
Q 966 3 703 97 
z
M 1959 2075 
Q 2384 2075 2632 2365 
Q 2881 2656 2881 3163 
Q 2881 3666 2632 3958 
Q 2384 4250 1959 4250 
Q 1534 4250 1286 3958 
Q 1038 3666 1038 3163 
Q 1038 2656 1286 2365 
Q 1534 2075 1959 2075 
z
" transform="scale(0.015625)"/>
      <path id="DejaVuSans-7d" d="M 800 -594 
L 1019 -594 
Q 1456 -594 1589 -459 
Q 1722 -325 1722 122 
L 1722 897 
Q 1722 1384 1862 1606 
Q 2003 1828 2350 1913 
Q 2003 1991 1862 2212 
Q 1722 2434 1722 2925 
L 1722 3700 
Q 1722 4144 1589 4280 
Q 1456 4416 1019 4416 
L 800 4416 
L 800 4863 
L 997 4863 
Q 1775 4863 2036 4633 
Q 2297 4403 2297 3713 
L 2297 2963 
Q 2297 2497 2465 2317 
Q 2634 2138 3078 2138 
L 3272 2138 
L 3272 1691 
L 3078 1691 
Q 2634 1691 2465 1509 
Q 2297 1328 2297 856 
L 2297 109 
Q 2297 -581 2036 -812 
Q 1775 -1044 997 -1044 
L 800 -1044 
L 800 -594 
z
" transform="scale(0.015625)"/>
      <path id="DejaVuSans-2c" d="M 750 794 
L 1409 794 
L 1409 256 
L 897 -744 
L 494 -744 
L 750 256 
L 750 794 
z
" transform="scale(0.015625)"/>
      <path id="DejaVuSans-35" d="M 691 4666 
L 3169 4666 
L 3169 4134 
L 1269 4134 
L 1269 2991 
Q 1406 3038 1543 3061 
Q 1681 3084 1819 3084 
Q 2600 3084 3056 2656 
Q 3513 2228 3513 1497 
Q 3513 744 3044 326 
Q 2575 -91 1722 -91 
Q 1428 -91 1123 -41 
Q 819 9 494 109 
L 494 744 
Q 775 591 1075 516 
Q 1375 441 1709 441 
Q 2250 441 2565 725 
Q 2881 1009 2881 1497 
Q 2881 1984 2565 2268 
Q 2250 2553 1709 2553 
Q 1456 2553 1204 2497 
Q 953 2441 691 2322 
L 691 4666 
z
" transform="scale(0.015625)"/>
     </defs>
     <use xlink:href="#DejaVuSans-7b"/>
     <use xlink:href="#DejaVuSans-66" x="63.623047"/>
     <use xlink:href="#DejaVuSans-36" x="98.828125"/>
     <use xlink:href="#DejaVuSans-2d" x="162.451172"/>
     <use xlink:href="#DejaVuSans-66" x="198.535156"/>
     <use xlink:href="#DejaVuSans-39" x="233.740234"/>
     <use xlink:href="#DejaVuSans-7d" x="297.363281"/>
     <use xlink:href="#DejaVuSans-2c" x="360.986328"/>
     <use xlink:href="#DejaVuSans-20" x="392.773438"/>
     <use xlink:href="#DejaVuSans-35" x="424.560547"/>
     <use xlink:href="#DejaVuSans-2d" x="488.183594"/>
     <use xlink:href="#DejaVuSans-44" x="524.267578"/>
    </g>
   </g>
   <g id="text_7">
    <!-- v2.6.3 -->
    <g style="fill: #808080" transform="translate(214.71875 288.777272) scale(0.1 -0.1)">
     <defs>
      <path id="DejaVuSans-76" d="M 191 3500 
L 800 3500 
L 1894 563 
L 2988 3500 
L 3597 3500 
L 2284 0 
L 1503 0 
L 191 3500 
z
" transform="scale(0.015625)"/>
      <path id="DejaVuSans-32" d="M 1228 531 
L 3431 531 
L 3431 0 
L 469 0 
L 469 531 
Q 828 903 1448 1529 
Q 2069 2156 2228 2338 
Q 2531 2678 2651 2914 
Q 2772 3150 2772 3378 
Q 2772 3750 2511 3984 
Q 2250 4219 1831 4219 
Q 1534 4219 1204 4116 
Q 875 4013 500 3803 
L 500 4441 
Q 881 4594 1212 4672 
Q 1544 4750 1819 4750 
Q 2544 4750 2975 4387 
Q 3406 4025 3406 3419 
Q 3406 3131 3298 2873 
Q 3191 2616 2906 2266 
Q 2828 2175 2409 1742 
Q 1991 1309 1228 531 
z
" transform="scale(0.015625)"/>
      <path id="DejaVuSans-2e" d="M 684 794 
L 1344 794 
L 1344 0 
L 684 0 
L 684 794 
z
" transform="scale(0.015625)"/>
      <path id="DejaVuSans-33" d="M 2597 2516 
Q 3050 2419 3304 2112 
Q 3559 1806 3559 1356 
Q 3559 666 3084 287 
Q 2609 -91 1734 -91 
Q 1441 -91 1130 -33 
Q 819 25 488 141 
L 488 750 
Q 750 597 1062 519 
Q 1375 441 1716 441 
Q 2309 441 2620 675 
Q 2931 909 2931 1356 
Q 2931 1769 2642 2001 
Q 2353 2234 1838 2234 
L 1294 2234 
L 1294 2753 
L 1863 2753 
Q 2328 2753 2575 2939 
Q 2822 3125 2822 3475 
Q 2822 3834 2567 4026 
Q 2313 4219 1838 4219 
Q 1578 4219 1281 4162 
Q 984 4106 628 3988 
L 628 4550 
Q 988 4650 1302 4700 
Q 1616 4750 1894 4750 
Q 2613 4750 3031 4423 
Q 3450 4097 3450 3541 
Q 3450 3153 3228 2886 
Q 3006 2619 2597 2516 
z
" transform="scale(0.015625)"/>
     </defs>
     <use xlink:href="#DejaVuSans-76"/>
     <use xlink:href="#DejaVuSans-32" x="59.179688"/>
     <use xlink:href="#DejaVuSans-2e" x="122.802734"/>
     <use xlink:href="#DejaVuSans-36" x="154.589844"/>
     <use xlink:href="#DejaVuSans-2e" x="218.212891"/>
     <use xlink:href="#DejaVuSans-33" x="250"/>
    </g>
   </g>
  </g>
 </g>
 <defs>
  <clipPath id="p476d7fdf21">
   <rect x="0" y="3.456" width="460.8" height="290.304"/>
  </clipPath>
 </defs>
</svg>
