<?xml version="1.0" encoding="utf-8" standalone="no"?>
<!DOCTYPE svg PUBLIC "-//W3C//DTD SVG 1.1//EN"
  "http://www.w3.org/Graphics/SVG/1.1/DTD/svg11.dtd">
<svg xmlns:xlink="http://www.w3.org/1999/xlink" width="460.8pt" height="345.6pt" viewBox="0 0 460.8 345.6" xmlns="http://www.w3.org/2000/svg" version="1.1">
 <metadata>
  <rdf:RDF xmlns:dc="http://purl.org/dc/elements/1.1/" xmlns:cc="http://creativecommons.org/ns#" xmlns:rdf="http://www.w3.org/1999/02/22-rdf-syntax-ns#">
   <cc:Work>
    <dc:type rdf:resource="http://purl.org/dc/dcmitype/StillImage"/>
    <dc:date>2024-06-19T23:15:55.319340</dc:date>
    <dc:format>image/svg+xml</dc:format>
    <dc:creator>
     <cc:Agent>
      <dc:title>Matplotlib v3.7.5, https://matplotlib.org/</dc:title>
     </cc:Agent>
    </dc:creator>
   </cc:Work>
  </rdf:RDF>
 </metadata>
 <defs>
  <style type="text/css">*{stroke-linejoin: round; stroke-linecap: butt}</style>
 </defs>
 <g id="figure_1">
  <g id="patch_1">
   <path d="M 0 345.6 
L 460.8 345.6 
L 460.8 0 
L 0 0 
z
" style="fill: #ffffff"/>
  </g>
  <g id="axes_1">
   <g id="patch_2">
    <path d="M 62.208 293.76 
L 460.8 293.76 
L 460.8 3.456 
L 62.208 3.456 
z
" style="fill: #ffffff"/>
   </g>
   <g id="line2d_1">
    <path d="M 226.197269 293.76 
L 226.197269 289.927604 
L 226.197269 289.927604 
L 226.197269 286.095208 
L 226.197269 286.095208 
L 226.197269 282.262812 
L 226.197269 282.262812 
L 226.197269 278.430416 
L 226.197269 278.430416 
L 226.197269 274.59802 
L 226.197269 274.59802 
L 226.197269 270.765624 
L 226.197269 270.765624 
L 226.197269 266.933228 
L 226.197269 266.933228 
L 226.197269 263.100832 
L 226.197269 263.100832 
L 226.197269 259.268436 
L 226.197269 259.268436 
L 226.197269 255.43604 
L 226.197269 255.43604 
L 226.197269 251.603644 
L 226.197269 251.603644 
L 226.197269 247.771248 
L 226.197269 247.771248 
L 226.197269 243.938851 
L 226.197269 243.938851 
L 226.197269 240.106455 
L 226.197269 240.106455 
L 226.197269 236.274059 
L 232.862605 236.274059 
L 232.862605 232.441663 
L 235.927154 232.441663 
L 235.927154 228.609267 
L 235.927154 228.609267 
L 235.927154 224.776871 
L 238.83712 224.776871 
L 238.83712 220.944475 
L 238.83712 220.944475 
L 238.83712 217.112079 
L 238.83712 217.112079 
L 238.83712 213.279683 
L 238.83712 213.279683 
L 238.83712 209.447287 
L 241.607353 209.447287 
L 241.607353 205.614891 
L 241.607353 205.614891 
L 241.607353 201.782495 
L 241.607353 201.782495 
L 241.607353 197.950099 
L 244.250659 197.950099 
L 244.250659 194.117703 
L 244.250659 194.117703 
L 244.250659 190.285307 
L 244.250659 190.285307 
L 244.250659 186.452911 
L 244.250659 186.452911 
L 244.250659 182.620515 
L 246.778163 182.620515 
L 246.778163 178.788119 
L 418.219578 178.788119 
L 418.219578 174.955723 
L 419.224575 174.955723 
L 419.224575 171.123327 
L 419.967 171.123327 
L 419.967 167.290931 
L 420.33466 167.290931 
L 420.33466 163.458535 
L 420.699993 163.458535 
L 420.699993 159.626139 
L 422.020099 159.626139 
L 422.020099 155.793743 
L 460.24921 155.793743 
L 460.24921 151.961347 
L 460.736493 151.961347 
L 460.736493 148.12895 
L 461.219695 148.12895 
L 461.219695 144.296554 
L 461.8 144.296554 
" clip-path="url(#p5900b01c24)" style="fill: none; stroke: #f5deb3; stroke-width: 1.5; stroke-linecap: square"/>
   </g>
   <g id="line2d_2">
    <path d="M 415.779015 293.76 
L 415.779015 282.262812 
L 415.779015 282.262812 
L 415.779015 270.765624 
L 415.78531 270.765624 
L 415.78531 259.268436 
L 415.78531 259.268436 
L 415.78531 247.771248 
L 415.78531 247.771248 
L 415.78531 236.274059 
L 461.8 236.274059 
" clip-path="url(#p5900b01c24)" style="fill: none; stroke: #f5deb3; stroke-width: 1.5; stroke-linecap: square"/>
   </g>
   <g id="line2d_3">
    <path d="M 203.884328 293.76 
L 203.884328 289.927604 
L 203.884328 289.927604 
L 203.884328 286.095208 
L 203.884328 286.095208 
L 203.884328 282.262812 
L 203.884328 282.262812 
L 203.884328 278.430416 
L 204.131446 278.430416 
L 204.131446 274.59802 
L 204.377511 274.59802 
L 204.377511 270.765624 
L 204.377511 270.765624 
L 204.377511 266.933228 
L 204.377511 266.933228 
L 204.377511 263.100832 
L 204.377511 263.100832 
L 204.377511 259.268436 
L 204.377511 259.268436 
L 204.377511 255.43604 
L 204.377511 255.43604 
L 204.377511 251.603644 
L 204.377511 251.603644 
L 204.377511 247.771248 
L 204.377511 247.771248 
L 204.377511 243.938851 
L 204.377511 243.938851 
L 204.377511 240.106455 
L 204.622531 240.106455 
L 204.622531 236.274059 
L 204.866515 236.274059 
L 204.866515 232.441663 
L 205.351409 232.441663 
L 205.351409 228.609267 
L 207.716581 228.609267 
L 207.716581 224.776871 
L 208.636156 224.776871 
L 208.636156 220.944475 
L 210.432475 220.944475 
L 210.432475 217.112079 
L 210.432475 217.112079 
L 210.432475 213.279683 
L 211.091935 213.279683 
L 211.091935 209.447287 
L 211.31009 209.447287 
L 211.31009 205.614891 
L 211.527424 205.614891 
L 211.527424 201.782495 
L 212.601983 201.782495 
L 212.601983 197.950099 
L 212.814514 197.950099 
L 212.814514 194.117703 
L 213.44745 194.117703 
L 213.44745 190.285307 
L 215.305639 190.285307 
L 215.305639 186.452911 
L 218.468189 186.452911 
L 218.468189 182.620515 
L 220.915954 182.620515 
L 220.915954 178.788119 
L 220.915954 178.788119 
L 220.915954 178.788119 
L 460.8 178.788119 
" clip-path="url(#p5900b01c24)" style="fill: none; stroke: #f5deb3; stroke-width: 1.5; stroke-linecap: square"/>
   </g>
   <g id="line2d_4">
    <path d="M 162.128165 293.76 
L 162.128165 289.927604 
L 163.140509 289.927604 
L 163.140509 286.095208 
L 164.626482 286.095208 
L 164.626482 282.262812 
L 166.550063 282.262812 
L 166.550063 278.430416 
L 168.411583 278.430416 
L 168.411583 274.59802 
L 174.901799 274.59802 
L 174.901799 270.765624 
L 174.901799 270.765624 
L 174.901799 266.933228 
L 175.309589 266.933228 
L 175.309589 263.100832 
L 178.086171 263.100832 
L 178.086171 259.268436 
L 178.086171 259.268436 
L 178.086171 255.43604 
L 181.470326 255.43604 
L 181.470326 251.603644 
L 185.35389 251.603644 
L 185.35389 247.771248 
L 186.032746 247.771248 
L 186.032746 243.938851 
L 187.366958 243.938851 
L 187.366958 240.106455 
L 210.432475 240.106455 
L 210.432475 236.274059 
L 315.276126 236.274059 
L 315.276126 232.441663 
L 317.875443 232.441663 
L 317.875443 228.609267 
L 318.252023 228.609267 
L 318.252023 224.776871 
L 318.693926 224.776871 
L 318.693926 220.944475 
L 319.333758 220.944475 
L 319.333758 217.112079 
L 320.821434 217.112079 
L 320.821434 213.279683 
L 321.016924 213.279683 
L 321.016924 209.447287 
L 321.114421 209.447287 
L 321.114421 205.614891 
L 321.211754 205.614891 
L 321.211754 201.782495 
L 321.567243 201.782495 
L 321.567243 197.950099 
L 321.760226 197.950099 
L 321.760226 194.117703 
L 321.824411 194.117703 
L 321.824411 190.285307 
L 323.281292 190.285307 
L 323.281292 186.452911 
L 323.53095 186.452911 
L 323.53095 182.620515 
L 323.81053 182.620515 
L 323.81053 178.788119 
L 449.822006 178.788119 
L 449.822006 174.955723 
L 449.825496 174.955723 
L 449.825496 171.123327 
L 450.51231 171.123327 
L 450.51231 167.290931 
L 451.68984 167.290931 
L 451.68984 163.458535 
L 452.284764 163.458535 
L 452.284764 159.626139 
L 452.860376 159.626139 
L 452.860376 155.793743 
L 452.913323 155.793743 
L 452.913323 151.961347 
L 453.061976 151.961347 
L 453.061976 148.12895 
L 453.101552 148.12895 
L 453.101552 144.296554 
L 453.187208 144.296554 
L 453.187208 140.464158 
L 453.292455 140.464158 
L 453.292455 136.631762 
L 454.075754 136.631762 
L 454.075754 132.799366 
L 454.662746 132.799366 
L 454.662746 128.96697 
L 455.167535 128.96697 
L 455.167535 125.134574 
L 456.538016 125.134574 
L 456.538016 121.302178 
L 456.538016 121.302178 
L 456.538016 121.302178 
L 460.8 121.302178 
" clip-path="url(#p5900b01c24)" style="fill: none; stroke: #f5deb3; stroke-width: 1.5; stroke-linecap: square"/>
   </g>
   <g id="line2d_5">
    <path d="M 404.610418 293.76 
L 404.610418 289.927604 
L 404.785862 289.927604 
L 404.785862 286.095208 
L 405.309017 286.095208 
L 405.309017 282.262812 
L 405.819991 282.262812 
L 405.819991 278.430416 
L 405.864861 278.430416 
L 405.864861 274.59802 
L 406.274546 274.59802 
L 406.274546 270.765624 
L 406.710817 270.765624 
L 406.710817 266.933228 
L 408.100946 266.933228 
L 408.100946 263.100832 
L 408.879509 263.100832 
L 408.879509 259.268436 
L 409.59868 259.268436 
L 409.59868 255.43604 
L 410.149589 255.43604 
L 410.149589 251.603644 
L 412.469003 251.603644 
L 412.469003 247.771248 
L 413.210907 247.771248 
L 413.210907 243.938851 
L 414.602483 243.938851 
L 414.602483 240.106455 
L 432.997204 240.106455 
L 432.997204 236.274059 
L 432.997204 236.274059 
L 432.997204 236.274059 
L 460.8 236.274059 
" clip-path="url(#p5900b01c24)" style="fill: none; stroke: #f5deb3; stroke-width: 1.5; stroke-linecap: square"/>
   </g>
   <g id="line2d_6"/>
   <g id="line2d_7">
    <path d="M 202.632606 293.76 
L 202.632606 289.927604 
L 214.487155 289.927604 
L 214.487155 286.095208 
L 215.508458 286.095208 
L 215.508458 282.262812 
L 216.312682 282.262812 
L 216.312682 278.430416 
L 216.511998 278.430416 
L 216.511998 274.59802 
L 217.10585 274.59802 
L 217.10585 270.765624 
L 218.08222 270.765624 
L 218.08222 266.933228 
L 218.08222 266.933228 
L 218.08222 263.100832 
L 218.468189 263.100832 
L 218.468189 259.268436 
L 223.617013 259.268436 
L 223.617013 255.43604 
L 225.349939 255.43604 
L 225.349939 251.603644 
L 226.866286 251.603644 
L 226.866286 247.771248 
L 228.343803 247.771248 
L 228.343803 243.938851 
L 236.492865 243.938851 
L 236.492865 240.106455 
L 236.492865 240.106455 
L 236.492865 236.274059 
L 344.17409 236.274059 
L 344.17409 232.441663 
L 344.888208 232.441663 
L 344.888208 228.609267 
L 346.332428 228.609267 
L 346.332428 224.776871 
L 346.687905 224.776871 
L 346.687905 220.944475 
L 346.854434 220.944475 
L 346.854434 217.112079 
L 347.124022 217.112079 
L 347.124022 213.279683 
L 347.268665 213.279683 
L 347.268665 209.447287 
L 347.638947 209.447287 
L 347.638947 205.614891 
L 347.659449 205.614891 
L 347.659449 201.782495 
L 348.514009 201.782495 
L 348.514009 197.950099 
L 349.076765 197.950099 
L 349.076765 194.117703 
L 349.614273 194.117703 
L 349.614273 190.285307 
L 351.023621 190.285307 
L 351.023621 186.452911 
L 351.543376 186.452911 
L 351.543376 182.620515 
L 351.811047 182.620515 
L 351.811047 178.788119 
L 461.8 178.788119 
" clip-path="url(#p5900b01c24)" style="fill: none; stroke: #f5deb3; stroke-width: 1.5; stroke-linecap: square"/>
   </g>
   <g id="line2d_8">
    <path d="M 433.808911 293.76 
L 433.808911 289.927604 
L 435.604595 289.927604 
L 435.609059 282.262812 
L 435.925163 282.262812 
L 435.925163 278.430416 
L 437.893636 278.430416 
L 437.893636 274.59802 
L 438.779348 274.59802 
L 438.779348 270.765624 
L 440.383734 270.765624 
L 440.383734 266.933228 
L 440.866668 266.933228 
L 440.866668 263.100832 
L 441.353677 263.100832 
L 441.353677 259.268436 
L 442.287706 259.268436 
L 442.287706 255.43604 
L 445.00616 255.43604 
L 445.00616 251.603644 
L 446.054942 251.603644 
L 446.054942 247.771248 
L 447.486117 247.771248 
L 447.486117 243.938851 
L 447.916935 243.938851 
L 447.916935 240.106455 
L 452.298138 240.106455 
L 452.298138 236.274059 
L 461.8 236.274059 
L 461.8 236.274059 
" clip-path="url(#p5900b01c24)" style="fill: none; stroke: #f5deb3; stroke-width: 1.5; stroke-linecap: square"/>
   </g>
   <g id="line2d_9">
    <path d="M 196.777605 293.76 
L 196.777605 289.927604 
L 198.705778 289.927604 
L 198.705778 286.095208 
L 202.37897 286.095208 
L 202.37897 282.262812 
L 203.386893 282.262812 
L 203.386893 278.430416 
L 203.636146 278.430416 
L 203.636146 274.59802 
L 204.377511 274.59802 
L 204.377511 270.765624 
L 205.832263 270.765624 
L 205.832263 266.933228 
L 206.071195 266.933228 
L 206.071195 263.100832 
L 207.484379 263.100832 
L 207.484379 259.268436 
L 211.959652 259.268436 
L 211.959652 255.43604 
L 213.026265 255.43604 
L 213.026265 251.603644 
L 217.10585 251.603644 
L 217.10585 247.771248 
L 218.468189 247.771248 
L 218.468189 243.938851 
L 220.915954 243.938851 
L 220.915954 240.106455 
L 222.909003 240.106455 
L 222.909003 236.274059 
L 340.534215 236.274059 
L 340.534215 232.441663 
L 343.561164 232.441663 
L 343.561164 228.609267 
L 343.934074 228.609267 
L 343.934074 224.776871 
L 344.478129 224.776871 
L 344.478129 220.944475 
L 344.715898 220.944475 
L 344.715898 217.112079 
L 345.678514 217.112079 
L 345.678514 213.279683 
L 345.74212 213.279683 
L 345.74212 209.447287 
L 346.290463 209.447287 
L 346.290463 205.614891 
L 346.729583 205.614891 
L 346.729583 201.782495 
L 347.309925 201.782495 
L 347.309925 197.950099 
L 347.597922 197.950099 
L 347.597922 194.117703 
L 348.088311 194.117703 
L 348.088311 190.285307 
L 348.836255 190.285307 
L 348.836255 186.452911 
L 348.916536 186.452911 
L 348.916536 182.620515 
L 352.474842 182.620515 
L 352.474842 178.788119 
L 457.002086 178.788119 
L 457.002086 174.955723 
L 457.072914 174.955723 
L 457.072914 171.123327 
L 458.456505 171.123327 
L 458.456505 167.290931 
L 458.615534 167.290931 
L 458.615534 163.458535 
L 458.750216 163.458535 
L 458.750216 159.626139 
L 459.472115 159.626139 
L 459.472115 155.793743 
L 459.516382 155.793743 
L 459.516382 151.961347 
L 460.094626 151.961347 
L 460.094626 148.12895 
L 460.199671 148.12895 
L 460.199671 144.296554 
L 460.519464 144.296554 
L 460.519464 140.464158 
L 461.8 140.464158 
" clip-path="url(#p5900b01c24)" style="fill: none; stroke: #f5deb3; stroke-width: 1.5; stroke-linecap: square"/>
   </g>
   <g id="line2d_10">
    <path d="M 240.567647 293.76 
L 240.567647 289.927604 
L 242.375019 289.927604 
L 242.375019 286.095208 
L 250.317878 286.095208 
L 250.317878 282.262812 
L 250.317878 282.262812 
L 250.317878 278.430416 
L 254.586152 278.430416 
L 254.586152 274.59802 
L 261.279533 274.59802 
L 261.279533 270.765624 
L 265.855878 270.765624 
L 265.855878 266.933228 
L 422.515158 266.933228 
L 422.515158 263.100832 
L 422.655028 263.100832 
L 422.655028 259.268436 
L 422.861416 259.268436 
L 422.861416 255.43604 
L 423.078164 255.43604 
L 423.078164 251.603644 
L 423.094803 251.603644 
L 423.094803 247.771248 
L 423.86054 247.771248 
L 423.86054 243.938851 
L 424.502709 243.938851 
L 424.502709 240.106455 
L 461.8 240.106455 
" clip-path="url(#p5900b01c24)" style="fill: none; stroke: #f5deb3; stroke-width: 1.5; stroke-linecap: square"/>
   </g>
   <g id="line2d_11">
    <path d="M 152.720436 293.76 
L 152.720436 289.927604 
L 161.615254 289.927604 
L 161.615254 286.095208 
L 163.140509 286.095208 
L 163.140509 282.262812 
L 164.135397 282.262812 
L 164.135397 278.430416 
L 165.596288 278.430416 
L 165.596288 274.59802 
L 167.021103 274.59802 
L 167.021103 270.765624 
L 170.657084 270.765624 
L 170.657084 266.933228 
L 174.491106 266.933228 
L 174.491106 263.100832 
L 174.901799 263.100832 
L 174.901799 259.268436 
L 177.306401 259.268436 
L 177.306401 255.43604 
L 182.196148 255.43604 
L 182.196148 251.603644 
L 187.366958 251.603644 
L 187.366958 247.771248 
L 187.695746 247.771248 
L 187.695746 243.938851 
L 197.611867 243.938851 
L 197.611867 240.106455 
L 206.071195 240.106455 
L 206.071195 236.274059 
L 305.128247 236.274059 
L 305.128247 232.441663 
L 305.936472 232.441663 
L 305.936472 228.609267 
L 307.272615 228.609267 
L 307.272615 224.776871 
L 307.396307 224.776871 
L 307.396307 220.944475 
L 308.860287 220.944475 
L 308.860287 217.112079 
L 309.180632 217.112079 
L 309.180632 213.279683 
L 310.366334 213.279683 
L 310.366334 209.447287 
L 310.911432 209.447287 
L 310.911432 205.614891 
L 311.027572 205.614891 
L 311.027572 201.782495 
L 312.176291 201.782495 
L 312.176291 197.950099 
L 312.591824 197.950099 
L 312.591824 194.117703 
L 312.89216 194.117703 
L 312.89216 190.285307 
L 313.710116 190.285307 
L 313.710116 186.452911 
L 314.698378 186.452911 
L 314.698378 182.620515 
L 315.705672 182.620515 
L 315.705672 178.788119 
L 315.705672 178.788119 
L 315.705672 178.788119 
L 460.8 178.788119 
" clip-path="url(#p5900b01c24)" style="fill: none; stroke: #f5deb3; stroke-width: 1.5; stroke-linecap: square"/>
   </g>
   <g id="line2d_12">
    <path d="M 106.377104 293.76 
L 106.377104 289.927604 
L 106.377104 289.927604 
L 106.377104 286.095208 
L 106.377104 286.095208 
L 106.377104 282.262812 
L 106.377104 282.262812 
L 106.377104 278.430416 
L 106.377104 278.430416 
L 106.377104 274.59802 
L 106.377104 274.59802 
L 106.377104 270.765624 
L 106.377104 270.765624 
L 106.377104 266.933228 
L 106.377104 266.933228 
L 106.377104 263.100832 
L 106.377104 263.100832 
L 106.377104 259.268436 
L 106.377104 259.268436 
L 106.377104 255.43604 
L 106.377104 255.43604 
L 106.377104 251.603644 
L 106.377104 251.603644 
L 106.377104 247.771248 
L 106.377104 247.771248 
L 106.377104 243.938851 
L 106.377104 243.938851 
L 106.377104 240.106455 
L 106.377104 240.106455 
L 106.377104 236.274059 
L 145.698267 236.274059 
L 145.698267 232.441663 
L 158.438189 232.441663 
L 158.438189 228.609267 
L 158.438189 228.609267 
L 158.438189 224.776871 
L 158.438189 224.776871 
L 158.438189 220.944475 
L 158.438189 220.944475 
L 158.438189 217.112079 
L 158.438189 217.112079 
L 158.438189 213.279683 
L 158.438189 213.279683 
L 158.438189 209.447287 
L 158.438189 209.447287 
L 158.438189 205.614891 
L 158.438189 205.614891 
L 158.438189 201.782495 
L 158.438189 201.782495 
L 158.438189 197.950099 
L 168.867728 197.950099 
L 168.867728 194.117703 
L 168.867728 194.117703 
L 168.867728 190.285307 
L 168.867728 190.285307 
L 168.867728 186.452911 
L 168.867728 186.452911 
L 168.867728 182.620515 
L 185.35389 182.620515 
L 185.35389 178.788119 
L 413.565231 178.788119 
L 413.565231 174.955723 
L 415.589848 174.955723 
L 415.589848 171.123327 
L 418.813925 171.123327 
L 418.813925 167.290931 
L 426.408366 167.290931 
L 426.408366 163.458535 
L 426.544345 163.458535 
L 426.544345 159.626139 
L 427.420482 159.626139 
L 427.420482 155.793743 
L 428.576753 155.793743 
L 428.576753 151.961347 
L 428.808266 151.961347 
L 428.808266 148.12895 
L 429.123839 148.12895 
L 429.123839 144.296554 
L 429.417819 144.296554 
L 429.417819 140.464158 
L 429.645989 140.464158 
L 429.645989 136.631762 
L 429.749854 136.631762 
L 429.749854 132.799366 
L 429.853533 132.799366 
L 429.853533 128.96697 
L 429.957025 128.96697 
L 429.957025 125.134574 
L 433.661335 125.134574 
L 433.661335 121.302178 
L 433.661335 121.302178 
L 433.661335 121.302178 
L 460.8 121.302178 
" clip-path="url(#p5900b01c24)" style="fill: none; stroke: #f5deb3; stroke-width: 1.5; stroke-linecap: square"/>
   </g>
   <g id="line2d_13">
    <path d="M 323.68644 293.76 
L 323.68644 289.927604 
L 323.68644 289.927604 
L 323.68644 286.095208 
L 324.610679 286.095208 
L 324.610679 282.262812 
L 324.610679 282.262812 
L 324.610679 278.430416 
L 325.999703 278.430416 
L 325.999703 274.59802 
L 326.148689 274.59802 
L 326.148689 270.765624 
L 326.148689 270.765624 
L 326.148689 266.933228 
L 326.148689 266.933228 
L 326.148689 263.100832 
L 326.946631 263.100832 
L 326.946631 259.268436 
L 329.304493 259.268436 
L 329.304493 255.43604 
L 329.304493 255.43604 
L 329.304493 251.603644 
L 329.304493 251.603644 
L 329.304493 247.771248 
L 329.417083 247.771248 
L 329.417083 243.938851 
L 329.417083 243.938851 
L 329.417083 240.106455 
L 329.417083 240.106455 
L 329.417083 236.274059 
L 329.417083 236.274059 
L 329.417083 236.274059 
L 460.8 236.274059 
" clip-path="url(#p5900b01c24)" style="fill: none; stroke: #f5deb3; stroke-width: 1.5; stroke-linecap: square"/>
   </g>
   <g id="line2d_14">
    <path d="M 182.555664 293.76 
L 182.555664 289.927604 
L 184.320392 289.927604 
L 184.320392 286.095208 
L 185.35389 286.095208 
L 185.35389 282.262812 
L 186.703708 282.262812 
L 186.703708 278.430416 
L 187.036286 278.430416 
L 187.036286 274.59802 
L 187.036286 274.59802 
L 187.036286 270.765624 
L 187.366958 270.765624 
L 187.366958 266.933228 
L 187.695746 266.933228 
L 187.695746 263.100832 
L 188.347754 263.100832 
L 188.347754 259.268436 
L 188.347754 259.268436 
L 188.347754 255.43604 
L 188.347754 255.43604 
L 188.347754 251.603644 
L 188.347754 251.603644 
L 188.347754 247.771248 
L 188.671016 247.771248 
L 188.671016 243.938851 
L 188.992477 243.938851 
L 188.992477 240.106455 
L 188.992477 240.106455 
L 188.992477 236.274059 
L 270.174352 236.274059 
L 270.174352 232.441663 
L 271.34009 232.441663 
L 271.34009 228.609267 
L 273.008336 228.609267 
L 273.008336 224.776871 
L 273.603208 224.776871 
L 273.603208 220.944475 
L 274.118737 220.944475 
L 274.118737 217.112079 
L 276.839688 217.112079 
L 276.839688 213.279683 
L 277.049133 213.279683 
L 277.049133 209.447287 
L 277.188342 209.447287 
L 277.188342 205.614891 
L 277.741844 205.614891 
L 277.741844 201.782495 
L 278.562267 201.782495 
L 278.562267 197.950099 
L 278.765563 197.950099 
L 278.765563 194.117703 
L 278.900697 194.117703 
L 278.900697 190.285307 
L 280.300816 190.285307 
L 280.300816 186.452911 
L 280.694689 186.452911 
L 280.694689 182.620515 
L 280.955785 182.620515 
L 280.955785 178.788119 
L 291.029365 178.788119 
L 291.029365 174.955723 
L 294.479254 174.955723 
L 294.479254 171.123327 
L 294.889947 171.123327 
L 294.889947 167.290931 
L 296.553819 167.290931 
L 296.553819 163.458535 
L 296.999397 163.458535 
L 296.999397 159.626139 
L 297.539361 159.626139 
L 297.539361 155.793743 
L 298.460288 155.793743 
L 298.460288 151.961347 
L 299.461341 151.961347 
L 299.461341 148.12895 
L 299.885103 148.12895 
L 299.885103 144.296554 
L 302.184296 144.296554 
L 302.184296 140.464158 
L 309.340141 140.464158 
L 309.340141 136.631762 
L 312.062443 136.631762 
L 312.062443 132.799366 
L 316.132045 132.799366 
L 316.132045 128.96697 
L 461.8 128.96697 
" clip-path="url(#p5900b01c24)" style="fill: none; stroke: #f5deb3; stroke-width: 1.5; stroke-linecap: square"/>
   </g>
   <g id="line2d_15"/>
   <g id="line2d_16">
    <path d="M 335.824675 293.76 
L 335.824675 289.927604 
L 336.30083 289.927604 
L 336.30083 286.095208 
L 337.388648 286.095208 
L 337.388648 282.262812 
L 337.876412 282.262812 
L 337.876412 278.430416 
L 342.180345 278.430416 
L 342.180345 274.59802 
L 345.826821 274.59802 
L 345.826821 270.765624 
L 348.149317 270.765624 
L 348.149317 266.933228 
L 349.93045 266.933228 
L 349.93045 263.100832 
L 350.791107 263.100832 
L 350.791107 259.268436 
L 351.081603 259.268436 
L 351.081603 255.43604 
L 352.17234 255.43604 
L 352.17234 251.603644 
L 352.587873 251.603644 
L 352.587873 247.771248 
L 356.322466 247.771248 
L 356.322466 243.938851 
L 357.457855 243.938851 
L 357.457855 240.106455 
L 368.847975 240.106455 
L 368.847975 236.274059 
L 433.337191 236.274059 
L 433.337191 232.441663 
L 434.075434 232.441663 
L 434.075434 228.609267 
L 437.475894 228.609267 
L 437.475894 224.776871 
L 438.516757 224.776871 
L 438.516757 220.944475 
L 438.758215 220.944475 
L 438.758215 217.112079 
L 439.451531 217.112079 
L 439.451531 213.279683 
L 440.740187 213.279683 
L 440.740187 209.447287 
L 441.996694 209.447287 
L 441.996694 205.614891 
L 443.010844 205.614891 
L 443.010844 201.782495 
L 443.740544 201.782495 
L 443.740544 197.950099 
L 446.459558 197.950099 
L 446.459558 194.117703 
L 447.369717 194.117703 
L 447.369717 190.285307 
L 449.006664 190.285307 
L 449.006664 186.452911 
L 449.835963 186.452911 
L 449.835963 182.620515 
L 450.010143 182.620515 
L 450.010143 178.788119 
L 459.279897 178.788119 
L 459.279897 174.955723 
L 460.272507 174.955723 
L 460.272507 171.123327 
L 461.8 171.123327 
L 461.8 171.123327 
" clip-path="url(#p5900b01c24)" style="fill: none; stroke: #f5deb3; stroke-width: 1.5; stroke-linecap: square"/>
   </g>
   <g id="line2d_17">
    <path d="M 363.853045 293.76 
L 363.853045 289.927604 
L 370.527107 289.927604 
L 370.527107 286.095208 
L 370.527107 286.095208 
L 370.527107 282.262812 
L 370.664854 282.262812 
L 370.664854 278.430416 
L 373.510278 278.430416 
L 373.510278 274.59802 
L 387.49128 274.59802 
L 387.49128 270.765624 
L 393.84049 270.765624 
L 393.84049 266.933228 
L 398.175835 266.933228 
L 398.175835 263.100832 
L 399.917251 263.100832 
L 399.917251 259.268436 
L 400.264258 259.268436 
L 400.264258 255.43604 
L 407.733025 255.43604 
L 407.733025 251.603644 
L 410.461063 251.603644 
L 410.461063 247.771248 
L 414.073221 247.771248 
L 414.073221 243.938851 
L 425.105685 243.938851 
L 425.105685 240.106455 
L 430.36915 240.106455 
L 430.36915 236.274059 
L 461.8 236.274059 
" clip-path="url(#p5900b01c24)" style="fill: none; stroke: #f5deb3; stroke-width: 1.5; stroke-linecap: square"/>
   </g>
   <g id="line2d_18">
    <path d="M 106.377104 293.76 
L 106.377104 289.927604 
L 106.377104 289.927604 
L 106.377104 286.095208 
L 106.377104 286.095208 
L 106.377104 282.262812 
L 106.377104 282.262812 
L 106.377104 278.430416 
L 106.377104 278.430416 
L 106.377104 274.59802 
L 106.377104 274.59802 
L 106.377104 270.765624 
L 106.377104 270.765624 
L 106.377104 266.933228 
L 106.377104 266.933228 
L 106.377104 263.100832 
L 107.703647 263.100832 
L 107.703647 259.268436 
L 107.703647 259.268436 
L 107.703647 255.43604 
L 107.703647 255.43604 
L 107.703647 251.603644 
L 107.703647 251.603644 
L 107.703647 247.771248 
L 107.703647 247.771248 
L 107.703647 243.938851 
L 107.703647 243.938851 
L 107.703647 240.106455 
L 110.268607 240.106455 
L 110.268607 236.274059 
L 111.50956 236.274059 
L 111.50956 232.441663 
L 111.50956 232.441663 
L 111.50956 228.609267 
L 115.079901 228.609267 
L 115.079901 224.776871 
L 116.222555 224.776871 
L 116.222555 220.944475 
L 118.44214 220.944475 
L 118.44214 217.112079 
L 124.630432 217.112079 
L 124.630432 213.279683 
L 125.600238 213.279683 
L 125.600238 209.447287 
L 125.600238 209.447287 
L 125.600238 205.614891 
L 128.415533 205.614891 
L 128.415533 201.782495 
L 139.994654 201.782495 
L 139.994654 197.950099 
L 140.739208 197.950099 
L 140.739208 194.117703 
L 140.739208 194.117703 
L 140.739208 190.285307 
L 145.015394 190.285307 
L 145.015394 186.452911 
L 146.373153 186.452911 
L 146.373153 182.620515 
L 148.351704 182.620515 
L 148.351704 178.788119 
L 461.8 178.788119 
" clip-path="url(#p5900b01c24)" style="fill: none; stroke: #f5deb3; stroke-width: 1.5; stroke-linecap: square"/>
   </g>
   <g id="line2d_19">
    <path d="M 417.215191 293.76 
L 417.215191 289.927604 
L 424.513532 289.927604 
L 424.513532 286.095208 
L 428.034612 286.095208 
L 428.034612 282.262812 
L 429.660838 282.262812 
L 429.660838 278.430416 
L 431.2473 278.430416 
L 431.2473 274.59802 
L 432.608195 274.59802 
L 432.608195 270.765624 
L 438.295594 270.765624 
L 438.295594 266.933228 
L 438.304116 266.933228 
L 438.304116 263.100832 
L 440.99694 263.100832 
L 440.99694 259.268436 
L 442.263843 259.268436 
L 442.263843 255.43604 
L 442.291683 255.43604 
L 442.291683 251.603644 
L 442.299634 251.603644 
L 442.299634 247.771248 
L 442.307585 247.771248 
L 442.307585 243.938851 
L 444.705697 243.938851 
L 444.705697 240.106455 
L 455.963613 240.106455 
L 455.963613 236.274059 
L 461.8 236.274059 
" clip-path="url(#p5900b01c24)" style="fill: none; stroke: #f5deb3; stroke-width: 1.5; stroke-linecap: square"/>
   </g>
   <g id="line2d_20">
    <path d="M 179.990704 293.76 
L 179.990704 289.927604 
L 187.366958 289.927604 
L 187.366958 286.095208 
L 188.022671 286.095208 
L 188.022671 282.262812 
L 192.415168 282.262812 
L 192.415168 278.430416 
L 200.833286 278.430416 
L 200.833286 274.59802 
L 204.131446 274.59802 
L 204.131446 270.765624 
L 205.592337 270.765624 
L 205.592337 266.933228 
L 206.309143 266.933228 
L 206.309143 263.100832 
L 212.814514 263.100832 
L 212.814514 259.268436 
L 215.508458 259.268436 
L 215.508458 255.43604 
L 217.30245 255.43604 
L 217.30245 251.603644 
L 219.986753 251.603644 
L 219.986753 247.771248 
L 222.551713 247.771248 
L 222.551713 243.938851 
L 226.532747 243.938851 
L 226.532747 240.106455 
L 236.351956 240.106455 
L 236.351956 236.274059 
L 314.370835 236.274059 
L 314.370835 232.441663 
L 315.705672 232.441663 
L 315.705672 228.609267 
L 318.21789 228.609267 
L 318.21789 224.776871 
L 318.795425 224.776871 
L 318.795425 220.944475 
L 322.65238 220.944475 
L 322.65238 217.112079 
L 325.036976 217.112079 
L 325.036976 213.279683 
L 325.036976 213.279683 
L 325.036976 209.447287 
L 325.339557 209.447287 
L 325.339557 205.614891 
L 325.339557 205.614891 
L 325.339557 201.782495 
L 325.490255 201.782495 
L 325.490255 197.950099 
L 325.940001 197.950099 
L 325.940001 194.117703 
L 329.022055 194.117703 
L 329.022055 190.285307 
L 329.669609 190.285307 
L 329.669609 186.452911 
L 331.379835 186.452911 
L 331.379835 182.620515 
L 339.693198 182.620515 
L 339.693198 178.788119 
L 428.717785 178.788119 
L 428.717785 174.955723 
L 429.108851 174.955723 
L 429.108851 171.123327 
L 433.721333 171.123327 
L 433.721333 167.290931 
L 439.002877 167.290931 
L 439.002877 163.458535 
L 440.173751 163.458535 
L 440.173751 159.626139 
L 440.280897 159.626139 
L 440.280897 155.793743 
L 440.428925 155.793743 
L 440.428925 151.961347 
L 440.687063 151.961347 
L 440.687063 148.12895 
L 444.08462 148.12895 
L 444.08462 144.296554 
L 461.8 144.296554 
" clip-path="url(#p5900b01c24)" style="fill: none; stroke: #f5deb3; stroke-width: 1.5; stroke-linecap: square"/>
   </g>
   <g id="line2d_21">
    <path d="M 396.494652 293.76 
L 396.600076 263.100832 
L 396.626402 263.100832 
L 396.670252 255.43604 
L 397.133024 255.43604 
L 397.133024 251.603644 
L 397.97906 251.603644 
L 397.97906 247.771248 
L 403.242108 247.771248 
L 403.242108 243.938851 
L 404.97596 243.938851 
L 405.082141 178.788119 
L 405.089718 178.788119 
L 405.104869 128.96697 
L 405.28637 128.96697 
L 405.384445 90.64301 
L 405.414589 90.64301 
L 405.512446 48.486653 
L 406.651855 48.486653 
L 406.651855 44.654257 
L 406.968072 44.654257 
L 406.968072 40.821861 
L 407.246084 40.821861 
L 407.246084 36.989465 
L 409.444321 36.989465 
L 409.444321 33.157069 
L 415.634042 33.157069 
L 415.634042 29.324673 
L 415.634042 29.324673 
L 460.8 29.324673 
L 460.8 29.324673 
" clip-path="url(#p5900b01c24)" style="fill: none; stroke: #f5deb3; stroke-width: 1.5; stroke-linecap: square"/>
   </g>
   <g id="line2d_22">
    <path d="M 207.251239 293.76 
L 207.251239 289.927604 
L 211.527424 289.927604 
L 211.527424 286.095208 
L 217.30245 286.095208 
L 217.30245 282.262812 
L 220.731307 282.262812 
L 220.731307 278.430416 
L 224.835504 278.430416 
L 224.835504 274.59802 
L 228.667065 274.59802 
L 228.667065 270.765624 
L 228.828019 270.765624 
L 228.828019 266.933228 
L 229.626125 266.933228 
L 229.626125 263.100832 
L 231.035473 263.100832 
L 231.035473 259.268436 
L 231.497708 259.268436 
L 231.497708 255.43604 
L 235.642204 255.43604 
L 235.642204 251.603644 
L 235.927154 251.603644 
L 235.927154 247.771248 
L 236.913538 247.771248 
L 236.913538 243.938851 
L 241.864378 243.938851 
L 241.864378 240.106455 
L 261.096061 240.106455 
L 261.096061 236.274059 
L 319.166068 236.274059 
L 319.166068 232.441663 
L 329.473295 232.441663 
L 329.473295 228.609267 
L 329.473295 228.609267 
L 329.473295 224.776871 
L 330.392981 224.776871 
L 330.392981 220.944475 
L 331.271014 220.944475 
L 331.271014 217.112079 
L 332.162706 217.112079 
L 332.162706 213.279683 
L 335.648254 213.279683 
L 335.648254 209.447287 
L 335.95036 209.447287 
L 335.95036 205.614891 
L 336.275867 205.614891 
L 336.275867 201.782495 
L 337.11861 201.782495 
L 337.11861 197.950099 
L 338.982863 197.950099 
L 338.982863 194.117703 
L 343.473069 194.117703 
L 343.473069 190.285307 
L 343.890327 190.285307 
L 343.890327 186.452911 
L 346.499985 186.452911 
L 346.499985 182.620515 
L 349.98954 182.620515 
L 349.98954 178.788119 
L 368.477632 178.788119 
L 368.477632 174.955723 
L 371.035136 174.955723 
L 371.035136 171.123327 
L 376.433983 171.123327 
L 376.433983 167.290931 
L 376.855711 167.290931 
L 376.855711 163.458535 
L 377.298913 163.458535 
L 377.298913 159.626139 
L 380.052855 159.626139 
L 380.052855 155.793743 
L 380.425805 155.793743 
L 380.425805 151.961347 
L 381.176018 151.961347 
L 381.176018 148.12895 
L 381.359199 148.12895 
L 381.359199 144.296554 
L 381.473393 144.296554 
L 381.473393 140.464158 
L 381.689741 140.464158 
L 381.689741 136.631762 
L 382.345197 136.631762 
L 382.345197 132.799366 
L 385.120346 132.799366 
L 385.120346 128.96697 
L 388.267187 128.96697 
L 388.267187 125.134574 
L 392.282014 125.134574 
L 392.282014 121.302178 
L 392.282014 121.302178 
L 392.282014 121.302178 
L 460.8 121.302178 
" clip-path="url(#p5900b01c24)" style="fill: none; stroke: #f5deb3; stroke-width: 1.5; stroke-linecap: square"/>
   </g>
   <g id="line2d_23">
    <path d="M 266.024845 293.76 
L 266.024845 289.927604 
L 275.852097 289.927604 
L 275.852097 286.095208 
L 277.948046 286.095208 
L 277.948046 282.262812 
L 278.968145 282.262812 
L 278.968145 278.430416 
L 280.694689 278.430416 
L 280.694689 274.59802 
L 283.441406 274.59802 
L 283.441406 270.765624 
L 285.644511 270.765624 
L 285.644511 266.933228 
L 298.508353 266.933228 
L 298.508353 263.100832 
L 461.8 263.100832 
" clip-path="url(#p5900b01c24)" style="fill: none; stroke: #f5deb3; stroke-width: 1.5; stroke-linecap: square"/>
   </g>
   <g id="line2d_24">
    <path d="M 328.795104 293.76 
L 328.795104 289.927604 
L 336.250893 289.927604 
L 336.250893 286.095208 
L 348.21026 286.095208 
L 348.21026 282.262812 
L 348.271137 282.262812 
L 348.271137 278.430416 
L 348.291416 278.430416 
L 348.291416 274.59802 
L 351.639116 274.59802 
L 351.639116 270.765624 
L 353.761515 270.765624 
L 353.761515 266.933228 
L 353.872056 266.933228 
L 353.872056 263.100832 
L 358.723828 263.100832 
L 358.723828 259.268436 
L 359.010778 259.268436 
L 359.010778 255.43604 
L 363.339858 255.43604 
L 363.339858 251.603644 
L 363.449098 251.603644 
L 363.449098 247.771248 
L 367.628315 247.771248 
L 367.628315 243.938851 
L 371.606449 243.938851 
L 371.606449 240.106455 
L 371.660565 240.106455 
L 371.660565 236.274059 
L 461.8 236.274059 
" clip-path="url(#p5900b01c24)" style="fill: none; stroke: #f5deb3; stroke-width: 1.5; stroke-linecap: square"/>
   </g>
   <g id="line2d_25">
    <path d="M 272.407267 293.76 
L 272.407267 289.927604 
L 275.923203 289.927604 
L 275.923203 286.095208 
L 276.62948 286.095208 
L 276.62948 282.262812 
L 277.741844 282.262812 
L 277.741844 278.430416 
L 290.810174 278.430416 
L 290.810174 274.59802 
L 292.27381 274.59802 
L 292.27381 270.765624 
L 292.594081 270.765624 
L 292.594081 266.933228 
L 296.702727 266.933228 
L 296.702727 263.100832 
L 304.568655 263.100832 
L 304.568655 259.268436 
L 309.894973 259.268436 
L 309.894973 255.43604 
L 311.104868 255.43604 
L 311.104868 251.603644 
L 316.695684 251.603644 
L 316.695684 247.771248 
L 317.600015 247.771248 
L 317.600015 243.938851 
L 321.244162 243.938851 
L 321.244162 240.106455 
L 399.701387 240.106455 
L 399.701387 236.274059 
L 461.8 236.274059 
" clip-path="url(#p5900b01c24)" style="fill: none; stroke: #f5deb3; stroke-width: 1.5; stroke-linecap: square"/>
   </g>
   <g id="line2d_26">
    <path d="M 315.848147 293.76 
L 315.848147 289.927604 
L 316.765753 289.927604 
L 316.765753 286.095208 
L 320.032782 286.095208 
L 320.032782 282.262812 
L 320.821434 282.262812 
L 320.821434 278.430416 
L 320.951834 278.430416 
L 320.951834 274.59802 
L 321.244162 274.59802 
L 321.244162 270.765624 
L 321.276551 270.765624 
L 321.276551 266.933228 
L 322.144268 266.933228 
L 322.144268 263.100832 
L 322.144268 263.100832 
L 322.144268 259.268436 
L 323.250009 259.268436 
L 323.250009 255.43604 
L 324.365659 255.43604 
L 324.365659 251.603644 
L 324.945892 251.603644 
L 324.945892 247.771248 
L 326.267601 247.771248 
L 326.267601 243.938851 
L 326.534261 243.938851 
L 326.534261 240.106455 
L 340.950171 240.106455 
L 340.950171 236.274059 
L 399.342599 236.274059 
L 399.342599 232.441663 
L 405.195691 232.441663 
L 405.195691 228.609267 
L 412.134691 228.609267 
L 412.134691 224.776871 
L 412.56892 224.776871 
L 412.56892 220.944475 
L 413.085718 220.944475 
L 413.085718 217.112079 
L 413.480129 217.112079 
L 413.480129 213.279683 
L 413.943393 213.279683 
L 413.943393 209.447287 
L 414.319092 209.447287 
L 414.319092 205.614891 
L 417.771287 205.614891 
L 417.771287 201.782495 
L 417.838146 201.782495 
L 417.838146 197.950099 
L 418.273864 197.950099 
L 418.273864 194.117703 
L 419.926004 194.117703 
L 419.926004 190.285307 
L 419.972854 190.285307 
L 419.972854 186.452911 
L 424.160745 186.452911 
L 424.160745 182.620515 
L 424.524352 182.620515 
L 424.524352 178.788119 
L 458.158271 178.788119 
L 458.158271 174.955723 
L 461.00448 174.955723 
L 461.00448 171.123327 
L 461.133705 171.123327 
L 461.133705 167.290931 
L 461.576614 167.290931 
L 461.576614 163.458535 
L 461.627829 163.458535 
L 461.627829 159.626139 
L 461.8 159.626139 
" clip-path="url(#p5900b01c24)" style="fill: none; stroke: #f5deb3; stroke-width: 1.5; stroke-linecap: square"/>
   </g>
   <g id="line2d_27">
    <path d="M 267.851538 293.76 
L 267.851538 289.927604 
L 267.851538 289.927604 
L 267.851538 286.095208 
L 271.876146 286.095208 
L 271.876146 282.262812 
L 273.529183 282.262812 
L 273.529183 278.430416 
L 275.709623 278.430416 
L 275.709623 274.59802 
L 286.950581 274.59802 
L 286.950581 270.765624 
L 292.700445 270.765624 
L 292.700445 266.933228 
L 292.753553 266.933228 
L 292.753553 263.100832 
L 293.07118 263.100832 
L 293.07118 259.268436 
L 295.500557 259.268436 
L 295.500557 255.43604 
L 299.555779 255.43604 
L 299.555779 251.603644 
L 305.213858 251.603644 
L 305.213858 247.771248 
L 309.538908 247.771248 
L 309.538908 243.938851 
L 309.973801 243.938851 
L 309.973801 240.106455 
L 314.553033 240.106455 
L 314.553033 236.274059 
L 329.304493 236.274059 
L 329.304493 232.441663 
L 333.827686 232.441663 
L 333.827686 228.609267 
L 334.061666 228.609267 
L 334.061666 224.776871 
L 334.320537 224.776871 
L 334.320537 220.944475 
L 334.475303 220.944475 
L 334.475303 217.112079 
L 334.629656 217.112079 
L 334.629656 213.279683 
L 334.629656 213.279683 
L 334.629656 209.447287 
L 334.809214 209.447287 
L 334.809214 205.614891 
L 335.192109 205.614891 
L 335.192109 201.782495 
L 335.369928 201.782495 
L 335.369928 197.950099 
L 335.623007 197.950099 
L 335.623007 194.117703 
L 336.896726 194.117703 
L 336.896726 190.285307 
L 336.946107 190.285307 
L 336.946107 186.452911 
L 337.43761 186.452911 
L 337.43761 182.620515 
L 338.480375 182.620515 
L 338.480375 178.788119 
L 461.8 178.788119 
" clip-path="url(#p5900b01c24)" style="fill: none; stroke: #f5deb3; stroke-width: 1.5; stroke-linecap: square"/>
   </g>
   <g id="line2d_28">
    <path d="M 233.459014 293.76 
L 233.459014 289.927604 
L 233.607159 289.927604 
L 233.607159 286.095208 
L 233.754923 286.095208 
L 233.754923 282.262812 
L 233.902311 282.262812 
L 233.902311 278.430416 
L 239.508863 278.430416 
L 239.508863 274.59802 
L 239.508863 274.59802 
L 239.508863 270.765624 
L 239.508863 270.765624 
L 239.508863 266.933228 
L 239.508863 266.933228 
L 239.508863 263.100832 
L 239.642279 263.100832 
L 239.642279 259.268436 
L 244.98417 259.268436 
L 244.98417 255.43604 
L 244.98417 255.43604 
L 244.98417 251.603644 
L 245.347459 251.603644 
L 245.347459 247.771248 
L 250.538959 247.771248 
L 250.538959 243.938851 
L 254.688916 243.938851 
L 254.688916 240.106455 
L 263.171575 240.106455 
L 263.171575 236.274059 
L 433.406804 236.274059 
L 433.406804 232.441663 
L 433.592029 232.441663 
L 433.592029 228.609267 
L 433.730558 228.609267 
L 433.730558 224.776871 
L 433.859553 224.776871 
L 433.859553 220.944475 
L 433.937731 220.944475 
L 433.937731 217.112079 
L 434.722805 217.112079 
L 434.722805 213.279683 
L 435.093358 213.279683 
L 435.093358 209.447287 
L 435.183377 209.447287 
L 435.183377 205.614891 
L 435.20586 205.614891 
L 435.20586 201.782495 
L 435.920723 201.782495 
L 435.920723 197.950099 
L 436.018328 197.950099 
L 436.018328 194.117703 
L 436.771405 194.117703 
L 436.771405 190.285307 
L 437.428329 190.285307 
L 437.428329 186.452911 
L 437.738951 186.452911 
L 437.738951 182.620515 
L 438.030788 182.620515 
L 438.030788 178.788119 
L 457.834195 178.788119 
L 457.834195 174.955723 
L 460.19384 174.955723 
L 460.19384 171.123327 
L 460.362696 171.123327 
L 460.362696 167.290931 
L 461.271228 167.290931 
L 461.271228 163.458535 
L 461.322714 163.458535 
L 461.322714 159.626139 
L 461.8 159.626139 
" clip-path="url(#p5900b01c24)" style="fill: none; stroke: #f5deb3; stroke-width: 1.5; stroke-linecap: square"/>
   </g>
   <g id="line2d_29">
    <path d="M 102.204049 293.76 
L 102.204049 289.927604 
L 102.204049 289.927604 
L 102.204049 286.095208 
L 102.204049 286.095208 
L 102.204049 282.262812 
L 102.204049 282.262812 
L 102.204049 278.430416 
L 102.204049 278.430416 
L 102.204049 274.59802 
L 102.204049 274.59802 
L 102.204049 270.765624 
L 103.628865 270.765624 
L 103.628865 266.933228 
L 103.628865 266.933228 
L 103.628865 263.100832 
L 103.628865 263.100832 
L 103.628865 259.268436 
L 103.628865 259.268436 
L 103.628865 255.43604 
L 103.628865 255.43604 
L 103.628865 251.603644 
L 103.628865 251.603644 
L 103.628865 247.771248 
L 103.628865 247.771248 
L 103.628865 243.938851 
L 103.628865 243.938851 
L 103.628865 240.106455 
L 103.628865 240.106455 
L 103.628865 236.274059 
L 131.099836 236.274059 
L 131.099836 232.441663 
L 131.099836 232.441663 
L 131.099836 228.609267 
L 131.099836 228.609267 
L 131.099836 224.776871 
L 227.527635 224.776871 
L 227.527635 220.944475 
L 227.527635 220.944475 
L 227.527635 217.112079 
L 227.527635 217.112079 
L 227.527635 213.279683 
L 228.343803 213.279683 
L 228.343803 209.447287 
L 228.343803 209.447287 
L 228.343803 205.614891 
L 228.343803 205.614891 
L 228.343803 201.782495 
L 228.988526 201.782495 
L 228.988526 197.950099 
L 228.988526 197.950099 
L 228.988526 194.117703 
L 228.988526 194.117703 
L 228.988526 190.285307 
L 229.308206 190.285307 
L 229.308206 186.452911 
L 229.308206 186.452911 
L 229.308206 182.620515 
L 229.308206 182.620515 
L 229.308206 178.788119 
L 229.308206 178.788119 
L 229.308206 178.788119 
L 460.8 178.788119 
" clip-path="url(#p5900b01c24)" style="fill: none; stroke: #f5deb3; stroke-width: 1.5; stroke-linecap: square"/>
   </g>
   <g id="line2d_30">
    <path d="M 229.148588 293.76 
L 229.148588 289.927604 
L 229.148588 289.927604 
L 229.148588 286.095208 
L 229.942302 286.095208 
L 229.942302 282.262812 
L 231.344041 282.262812 
L 231.344041 278.430416 
L 231.956271 278.430416 
L 231.956271 274.59802 
L 231.956271 274.59802 
L 231.956271 270.765624 
L 232.862605 270.765624 
L 232.862605 266.933228 
L 233.16158 266.933228 
L 233.16158 263.100832 
L 233.310489 263.100832 
L 233.310489 259.268436 
L 233.459014 259.268436 
L 233.459014 255.43604 
L 233.902311 255.43604 
L 233.902311 251.603644 
L 234.778815 251.603644 
L 234.778815 247.771248 
L 235.4992 247.771248 
L 235.4992 243.938851 
L 235.642204 243.938851 
L 235.642204 240.106455 
L 236.913538 240.106455 
L 236.913538 236.274059 
L 237.192293 236.274059 
L 237.192293 232.441663 
L 237.607916 232.441663 
L 237.607916 228.609267 
L 238.566217 228.609267 
L 238.566217 224.776871 
L 238.972096 224.776871 
L 238.972096 220.944475 
L 239.508863 220.944475 
L 239.508863 217.112079 
L 240.436357 217.112079 
L 240.436357 213.279683 
L 240.829335 213.279683 
L 240.829335 209.447287 
L 242.120264 209.447287 
L 242.120264 205.614891 
L 243.507703 205.614891 
L 243.507703 201.782495 
L 243.880377 201.782495 
L 243.880377 197.950099 
L 244.127496 197.950099 
L 244.127496 194.117703 
L 245.105521 194.117703 
L 245.105521 190.285307 
L 245.828312 190.285307 
L 245.828312 186.452911 
L 246.067245 186.452911 
L 246.067245 182.620515 
L 258.847642 182.620515 
L 258.847642 178.788119 
L 263.260143 178.788119 
L 263.260143 174.955723 
L 263.260143 174.955723 
L 263.260143 171.123327 
L 263.260143 171.123327 
L 263.260143 167.290931 
L 263.260143 167.290931 
L 263.260143 163.458535 
L 263.260143 163.458535 
L 263.260143 159.626139 
L 263.260143 159.626139 
L 263.260143 155.793743 
L 263.260143 155.793743 
L 263.260143 151.961347 
L 263.260143 151.961347 
L 263.260143 148.12895 
L 263.260143 148.12895 
L 263.260143 144.296554 
L 263.260143 144.296554 
L 263.260143 140.464158 
L 263.260143 140.464158 
L 263.260143 136.631762 
L 263.260143 136.631762 
L 263.260143 132.799366 
L 263.260143 132.799366 
L 263.260143 128.96697 
L 263.260143 128.96697 
L 263.260143 125.134574 
L 263.260143 125.134574 
L 263.260143 121.302178 
L 263.260143 121.302178 
L 263.260143 121.302178 
L 460.8 121.302178 
" clip-path="url(#p5900b01c24)" style="fill: none; stroke: #f5deb3; stroke-width: 1.5; stroke-linecap: square"/>
   </g>
   <g id="matplotlib.axis_1">
    <g id="xtick_1">
     <g id="line2d_31">
      <path d="M 195.072 293.76 
L 195.072 3.456 
" clip-path="url(#p5900b01c24)" style="fill: none; stroke: #b0b0b0; stroke-width: 0.8; stroke-linecap: square"/>
     </g>
     <g id="line2d_32">
      <defs>
       <path id="m4a34af8a02" d="M 0 0 
L 0 3.5 
" style="stroke: #000000; stroke-width: 0.8"/>
      </defs>
      <g>
       <use xlink:href="#m4a34af8a02" x="195.072" y="293.76" style="stroke: #000000; stroke-width: 0.8"/>
      </g>
     </g>
     <g id="text_1">
      <!-- 1 -->
      <g transform="translate(188.7095 315.956875) scale(0.2 -0.2)">
       <defs>
        <path id="DejaVuSans-31" d="M 794 531 
L 1825 531 
L 1825 4091 
L 703 3866 
L 703 4441 
L 1819 4666 
L 2450 4666 
L 2450 531 
L 3481 531 
L 3481 0 
L 794 0 
L 794 531 
z
" transform="scale(0.015625)"/>
       </defs>
       <use xlink:href="#DejaVuSans-31"/>
      </g>
     </g>
    </g>
    <g id="xtick_2">
     <g id="line2d_33">
      <path d="M 460.8 293.76 
L 460.8 3.456 
" clip-path="url(#p5900b01c24)" style="fill: none; stroke: #b0b0b0; stroke-width: 0.8; stroke-linecap: square"/>
     </g>
     <g id="line2d_34">
      <g>
       <use xlink:href="#m4a34af8a02" x="460.8" y="293.76" style="stroke: #000000; stroke-width: 0.8"/>
      </g>
     </g>
     <g id="text_2">
      <!-- 3 -->
      <g transform="translate(454.4375 315.956875) scale(0.2 -0.2)">
       <defs>
        <path id="DejaVuSans-33" d="M 2597 2516 
Q 3050 2419 3304 2112 
Q 3559 1806 3559 1356 
Q 3559 666 3084 287 
Q 2609 -91 1734 -91 
Q 1441 -91 1130 -33 
Q 819 25 488 141 
L 488 750 
Q 750 597 1062 519 
Q 1375 441 1716 441 
Q 2309 441 2620 675 
Q 2931 909 2931 1356 
Q 2931 1769 2642 2001 
Q 2353 2234 1838 2234 
L 1294 2234 
L 1294 2753 
L 1863 2753 
Q 2328 2753 2575 2939 
Q 2822 3125 2822 3475 
Q 2822 3834 2567 4026 
Q 2313 4219 1838 4219 
Q 1578 4219 1281 4162 
Q 984 4106 628 3988 
L 628 4550 
Q 988 4650 1302 4700 
Q 1616 4750 1894 4750 
Q 2613 4750 3031 4423 
Q 3450 4097 3450 3541 
Q 3450 3153 3228 2886 
Q 3006 2619 2597 2516 
z
" transform="scale(0.015625)"/>
       </defs>
       <use xlink:href="#DejaVuSans-33"/>
      </g>
     </g>
    </g>
    <g id="xtick_3">
     <g id="line2d_35">
      <path d="M 102.204049 293.76 
L 102.204049 3.456 
" clip-path="url(#p5900b01c24)" style="fill: none; stroke: #b0b0b0; stroke-width: 0.8; stroke-linecap: square"/>
     </g>
     <g id="line2d_36">
      <defs>
       <path id="m3dd68d2a0d" d="M 0 0 
L 0 2 
" style="stroke: #000000; stroke-width: 0.6"/>
      </defs>
      <g>
       <use xlink:href="#m3dd68d2a0d" x="102.204049" y="293.76" style="stroke: #000000; stroke-width: 0.6"/>
      </g>
     </g>
    </g>
    <g id="xtick_4">
     <g id="line2d_37">
      <path d="M 125.600238 293.76 
L 125.600238 3.456 
" clip-path="url(#p5900b01c24)" style="fill: none; stroke: #b0b0b0; stroke-width: 0.8; stroke-linecap: square"/>
     </g>
     <g id="line2d_38">
      <g>
       <use xlink:href="#m3dd68d2a0d" x="125.600238" y="293.76" style="stroke: #000000; stroke-width: 0.6"/>
      </g>
     </g>
    </g>
    <g id="xtick_5">
     <g id="line2d_39">
      <path d="M 142.200099 293.76 
L 142.200099 3.456 
" clip-path="url(#p5900b01c24)" style="fill: none; stroke: #b0b0b0; stroke-width: 0.8; stroke-linecap: square"/>
     </g>
     <g id="line2d_40">
      <g>
       <use xlink:href="#m3dd68d2a0d" x="142.200099" y="293.76" style="stroke: #000000; stroke-width: 0.6"/>
      </g>
     </g>
    </g>
    <g id="xtick_6">
     <g id="line2d_41">
      <path d="M 155.075951 293.76 
L 155.075951 3.456 
" clip-path="url(#p5900b01c24)" style="fill: none; stroke: #b0b0b0; stroke-width: 0.8; stroke-linecap: square"/>
     </g>
     <g id="line2d_42">
      <g>
       <use xlink:href="#m3dd68d2a0d" x="155.075951" y="293.76" style="stroke: #000000; stroke-width: 0.6"/>
      </g>
     </g>
    </g>
    <g id="xtick_7">
     <g id="line2d_43">
      <path d="M 165.596288 293.76 
L 165.596288 3.456 
" clip-path="url(#p5900b01c24)" style="fill: none; stroke: #b0b0b0; stroke-width: 0.8; stroke-linecap: square"/>
     </g>
     <g id="line2d_44">
      <g>
       <use xlink:href="#m3dd68d2a0d" x="165.596288" y="293.76" style="stroke: #000000; stroke-width: 0.6"/>
      </g>
     </g>
    </g>
    <g id="xtick_8">
     <g id="line2d_45">
      <path d="M 174.491106 293.76 
L 174.491106 3.456 
" clip-path="url(#p5900b01c24)" style="fill: none; stroke: #b0b0b0; stroke-width: 0.8; stroke-linecap: square"/>
     </g>
     <g id="line2d_46">
      <g>
       <use xlink:href="#m3dd68d2a0d" x="174.491106" y="293.76" style="stroke: #000000; stroke-width: 0.6"/>
      </g>
     </g>
    </g>
    <g id="xtick_9">
     <g id="line2d_47">
      <path d="M 182.196148 293.76 
L 182.196148 3.456 
" clip-path="url(#p5900b01c24)" style="fill: none; stroke: #b0b0b0; stroke-width: 0.8; stroke-linecap: square"/>
     </g>
     <g id="line2d_48">
      <g>
       <use xlink:href="#m3dd68d2a0d" x="182.196148" y="293.76" style="stroke: #000000; stroke-width: 0.6"/>
      </g>
     </g>
    </g>
    <g id="xtick_10">
     <g id="line2d_49">
      <path d="M 188.992477 293.76 
L 188.992477 3.456 
" clip-path="url(#p5900b01c24)" style="fill: none; stroke: #b0b0b0; stroke-width: 0.8; stroke-linecap: square"/>
     </g>
     <g id="line2d_50">
      <g>
       <use xlink:href="#m3dd68d2a0d" x="188.992477" y="293.76" style="stroke: #000000; stroke-width: 0.6"/>
      </g>
     </g>
    </g>
    <g id="xtick_11">
     <g id="line2d_51">
      <path d="M 235.068049 293.76 
L 235.068049 3.456 
" clip-path="url(#p5900b01c24)" style="fill: none; stroke: #b0b0b0; stroke-width: 0.8; stroke-linecap: square"/>
     </g>
     <g id="line2d_52">
      <g>
       <use xlink:href="#m3dd68d2a0d" x="235.068049" y="293.76" style="stroke: #000000; stroke-width: 0.6"/>
      </g>
     </g>
    </g>
    <g id="xtick_12">
     <g id="line2d_53">
      <path d="M 258.464238 293.76 
L 258.464238 3.456 
" clip-path="url(#p5900b01c24)" style="fill: none; stroke: #b0b0b0; stroke-width: 0.8; stroke-linecap: square"/>
     </g>
     <g id="line2d_54">
      <g>
       <use xlink:href="#m3dd68d2a0d" x="258.464238" y="293.76" style="stroke: #000000; stroke-width: 0.6"/>
      </g>
     </g>
    </g>
    <g id="xtick_13">
     <g id="line2d_55">
      <path d="M 275.064099 293.76 
L 275.064099 3.456 
" clip-path="url(#p5900b01c24)" style="fill: none; stroke: #b0b0b0; stroke-width: 0.8; stroke-linecap: square"/>
     </g>
     <g id="line2d_56">
      <g>
       <use xlink:href="#m3dd68d2a0d" x="275.064099" y="293.76" style="stroke: #000000; stroke-width: 0.6"/>
      </g>
     </g>
    </g>
    <g id="xtick_14">
     <g id="line2d_57">
      <path d="M 287.939951 293.76 
L 287.939951 3.456 
" clip-path="url(#p5900b01c24)" style="fill: none; stroke: #b0b0b0; stroke-width: 0.8; stroke-linecap: square"/>
     </g>
     <g id="line2d_58">
      <g>
       <use xlink:href="#m3dd68d2a0d" x="287.939951" y="293.76" style="stroke: #000000; stroke-width: 0.6"/>
      </g>
     </g>
    </g>
    <g id="xtick_15">
     <g id="line2d_59">
      <path d="M 298.460288 293.76 
L 298.460288 3.456 
" clip-path="url(#p5900b01c24)" style="fill: none; stroke: #b0b0b0; stroke-width: 0.8; stroke-linecap: square"/>
     </g>
     <g id="line2d_60">
      <g>
       <use xlink:href="#m3dd68d2a0d" x="298.460288" y="293.76" style="stroke: #000000; stroke-width: 0.6"/>
      </g>
     </g>
    </g>
    <g id="xtick_16">
     <g id="line2d_61">
      <path d="M 307.355106 293.76 
L 307.355106 3.456 
" clip-path="url(#p5900b01c24)" style="fill: none; stroke: #b0b0b0; stroke-width: 0.8; stroke-linecap: square"/>
     </g>
     <g id="line2d_62">
      <g>
       <use xlink:href="#m3dd68d2a0d" x="307.355106" y="293.76" style="stroke: #000000; stroke-width: 0.6"/>
      </g>
     </g>
    </g>
    <g id="xtick_17">
     <g id="line2d_63">
      <path d="M 315.060148 293.76 
L 315.060148 3.456 
" clip-path="url(#p5900b01c24)" style="fill: none; stroke: #b0b0b0; stroke-width: 0.8; stroke-linecap: square"/>
     </g>
     <g id="line2d_64">
      <g>
       <use xlink:href="#m3dd68d2a0d" x="315.060148" y="293.76" style="stroke: #000000; stroke-width: 0.6"/>
      </g>
     </g>
    </g>
    <g id="xtick_18">
     <g id="line2d_65">
      <path d="M 321.856477 293.76 
L 321.856477 3.456 
" clip-path="url(#p5900b01c24)" style="fill: none; stroke: #b0b0b0; stroke-width: 0.8; stroke-linecap: square"/>
     </g>
     <g id="line2d_66">
      <g>
       <use xlink:href="#m3dd68d2a0d" x="321.856477" y="293.76" style="stroke: #000000; stroke-width: 0.6"/>
      </g>
     </g>
    </g>
    <g id="xtick_19">
     <g id="line2d_67">
      <path d="M 367.932049 293.76 
L 367.932049 3.456 
" clip-path="url(#p5900b01c24)" style="fill: none; stroke: #b0b0b0; stroke-width: 0.8; stroke-linecap: square"/>
     </g>
     <g id="line2d_68">
      <g>
       <use xlink:href="#m3dd68d2a0d" x="367.932049" y="293.76" style="stroke: #000000; stroke-width: 0.6"/>
      </g>
     </g>
    </g>
    <g id="xtick_20">
     <g id="line2d_69">
      <path d="M 391.328238 293.76 
L 391.328238 3.456 
" clip-path="url(#p5900b01c24)" style="fill: none; stroke: #b0b0b0; stroke-width: 0.8; stroke-linecap: square"/>
     </g>
     <g id="line2d_70">
      <g>
       <use xlink:href="#m3dd68d2a0d" x="391.328238" y="293.76" style="stroke: #000000; stroke-width: 0.6"/>
      </g>
     </g>
    </g>
    <g id="xtick_21">
     <g id="line2d_71">
      <path d="M 407.928099 293.76 
L 407.928099 3.456 
" clip-path="url(#p5900b01c24)" style="fill: none; stroke: #b0b0b0; stroke-width: 0.8; stroke-linecap: square"/>
     </g>
     <g id="line2d_72">
      <g>
       <use xlink:href="#m3dd68d2a0d" x="407.928099" y="293.76" style="stroke: #000000; stroke-width: 0.6"/>
      </g>
     </g>
    </g>
    <g id="xtick_22">
     <g id="line2d_73">
      <path d="M 420.803951 293.76 
L 420.803951 3.456 
" clip-path="url(#p5900b01c24)" style="fill: none; stroke: #b0b0b0; stroke-width: 0.8; stroke-linecap: square"/>
     </g>
     <g id="line2d_74">
      <g>
       <use xlink:href="#m3dd68d2a0d" x="420.803951" y="293.76" style="stroke: #000000; stroke-width: 0.6"/>
      </g>
     </g>
    </g>
    <g id="xtick_23">
     <g id="line2d_75">
      <path d="M 431.324288 293.76 
L 431.324288 3.456 
" clip-path="url(#p5900b01c24)" style="fill: none; stroke: #b0b0b0; stroke-width: 0.8; stroke-linecap: square"/>
     </g>
     <g id="line2d_76">
      <g>
       <use xlink:href="#m3dd68d2a0d" x="431.324288" y="293.76" style="stroke: #000000; stroke-width: 0.6"/>
      </g>
     </g>
    </g>
    <g id="xtick_24">
     <g id="line2d_77">
      <path d="M 440.219106 293.76 
L 440.219106 3.456 
" clip-path="url(#p5900b01c24)" style="fill: none; stroke: #b0b0b0; stroke-width: 0.8; stroke-linecap: square"/>
     </g>
     <g id="line2d_78">
      <g>
       <use xlink:href="#m3dd68d2a0d" x="440.219106" y="293.76" style="stroke: #000000; stroke-width: 0.6"/>
      </g>
     </g>
    </g>
    <g id="xtick_25">
     <g id="line2d_79">
      <path d="M 447.924148 293.76 
L 447.924148 3.456 
" clip-path="url(#p5900b01c24)" style="fill: none; stroke: #b0b0b0; stroke-width: 0.8; stroke-linecap: square"/>
     </g>
     <g id="line2d_80">
      <g>
       <use xlink:href="#m3dd68d2a0d" x="447.924148" y="293.76" style="stroke: #000000; stroke-width: 0.6"/>
      </g>
     </g>
    </g>
    <g id="xtick_26">
     <g id="line2d_81">
      <path d="M 454.720477 293.76 
L 454.720477 3.456 
" clip-path="url(#p5900b01c24)" style="fill: none; stroke: #b0b0b0; stroke-width: 0.8; stroke-linecap: square"/>
     </g>
     <g id="line2d_82">
      <g>
       <use xlink:href="#m3dd68d2a0d" x="454.720477" y="293.76" style="stroke: #000000; stroke-width: 0.6"/>
      </g>
     </g>
    </g>
    <g id="text_3">
     <!-- log10 of FEvals / DIM -->
     <g transform="translate(156.430563 339.313125) scale(0.2 -0.2)">
      <defs>
       <path id="DejaVuSans-6c" d="M 603 4863 
L 1178 4863 
L 1178 0 
L 603 0 
L 603 4863 
z
" transform="scale(0.015625)"/>
       <path id="DejaVuSans-6f" d="M 1959 3097 
Q 1497 3097 1228 2736 
Q 959 2375 959 1747 
Q 959 1119 1226 758 
Q 1494 397 1959 397 
Q 2419 397 2687 759 
Q 2956 1122 2956 1747 
Q 2956 2369 2687 2733 
Q 2419 3097 1959 3097 
z
M 1959 3584 
Q 2709 3584 3137 3096 
Q 3566 2609 3566 1747 
Q 3566 888 3137 398 
Q 2709 -91 1959 -91 
Q 1206 -91 779 398 
Q 353 888 353 1747 
Q 353 2609 779 3096 
Q 1206 3584 1959 3584 
z
" transform="scale(0.015625)"/>
       <path id="DejaVuSans-67" d="M 2906 1791 
Q 2906 2416 2648 2759 
Q 2391 3103 1925 3103 
Q 1463 3103 1205 2759 
Q 947 2416 947 1791 
Q 947 1169 1205 825 
Q 1463 481 1925 481 
Q 2391 481 2648 825 
Q 2906 1169 2906 1791 
z
M 3481 434 
Q 3481 -459 3084 -895 
Q 2688 -1331 1869 -1331 
Q 1566 -1331 1297 -1286 
Q 1028 -1241 775 -1147 
L 775 -588 
Q 1028 -725 1275 -790 
Q 1522 -856 1778 -856 
Q 2344 -856 2625 -561 
Q 2906 -266 2906 331 
L 2906 616 
Q 2728 306 2450 153 
Q 2172 0 1784 0 
Q 1141 0 747 490 
Q 353 981 353 1791 
Q 353 2603 747 3093 
Q 1141 3584 1784 3584 
Q 2172 3584 2450 3431 
Q 2728 3278 2906 2969 
L 2906 3500 
L 3481 3500 
L 3481 434 
z
" transform="scale(0.015625)"/>
       <path id="DejaVuSans-30" d="M 2034 4250 
Q 1547 4250 1301 3770 
Q 1056 3291 1056 2328 
Q 1056 1369 1301 889 
Q 1547 409 2034 409 
Q 2525 409 2770 889 
Q 3016 1369 3016 2328 
Q 3016 3291 2770 3770 
Q 2525 4250 2034 4250 
z
M 2034 4750 
Q 2819 4750 3233 4129 
Q 3647 3509 3647 2328 
Q 3647 1150 3233 529 
Q 2819 -91 2034 -91 
Q 1250 -91 836 529 
Q 422 1150 422 2328 
Q 422 3509 836 4129 
Q 1250 4750 2034 4750 
z
" transform="scale(0.015625)"/>
       <path id="DejaVuSans-20" transform="scale(0.015625)"/>
       <path id="DejaVuSans-66" d="M 2375 4863 
L 2375 4384 
L 1825 4384 
Q 1516 4384 1395 4259 
Q 1275 4134 1275 3809 
L 1275 3500 
L 2222 3500 
L 2222 3053 
L 1275 3053 
L 1275 0 
L 697 0 
L 697 3053 
L 147 3053 
L 147 3500 
L 697 3500 
L 697 3744 
Q 697 4328 969 4595 
Q 1241 4863 1831 4863 
L 2375 4863 
z
" transform="scale(0.015625)"/>
       <path id="DejaVuSans-46" d="M 628 4666 
L 3309 4666 
L 3309 4134 
L 1259 4134 
L 1259 2759 
L 3109 2759 
L 3109 2228 
L 1259 2228 
L 1259 0 
L 628 0 
L 628 4666 
z
" transform="scale(0.015625)"/>
       <path id="DejaVuSans-45" d="M 628 4666 
L 3578 4666 
L 3578 4134 
L 1259 4134 
L 1259 2753 
L 3481 2753 
L 3481 2222 
L 1259 2222 
L 1259 531 
L 3634 531 
L 3634 0 
L 628 0 
L 628 4666 
z
" transform="scale(0.015625)"/>
       <path id="DejaVuSans-76" d="M 191 3500 
L 800 3500 
L 1894 563 
L 2988 3500 
L 3597 3500 
L 2284 0 
L 1503 0 
L 191 3500 
z
" transform="scale(0.015625)"/>
       <path id="DejaVuSans-61" d="M 2194 1759 
Q 1497 1759 1228 1600 
Q 959 1441 959 1056 
Q 959 750 1161 570 
Q 1363 391 1709 391 
Q 2188 391 2477 730 
Q 2766 1069 2766 1631 
L 2766 1759 
L 2194 1759 
z
M 3341 1997 
L 3341 0 
L 2766 0 
L 2766 531 
Q 2569 213 2275 61 
Q 1981 -91 1556 -91 
Q 1019 -91 701 211 
Q 384 513 384 1019 
Q 384 1609 779 1909 
Q 1175 2209 1959 2209 
L 2766 2209 
L 2766 2266 
Q 2766 2663 2505 2880 
Q 2244 3097 1772 3097 
Q 1472 3097 1187 3025 
Q 903 2953 641 2809 
L 641 3341 
Q 956 3463 1253 3523 
Q 1550 3584 1831 3584 
Q 2591 3584 2966 3190 
Q 3341 2797 3341 1997 
z
" transform="scale(0.015625)"/>
       <path id="DejaVuSans-73" d="M 2834 3397 
L 2834 2853 
Q 2591 2978 2328 3040 
Q 2066 3103 1784 3103 
Q 1356 3103 1142 2972 
Q 928 2841 928 2578 
Q 928 2378 1081 2264 
Q 1234 2150 1697 2047 
L 1894 2003 
Q 2506 1872 2764 1633 
Q 3022 1394 3022 966 
Q 3022 478 2636 193 
Q 2250 -91 1575 -91 
Q 1294 -91 989 -36 
Q 684 19 347 128 
L 347 722 
Q 666 556 975 473 
Q 1284 391 1588 391 
Q 1994 391 2212 530 
Q 2431 669 2431 922 
Q 2431 1156 2273 1281 
Q 2116 1406 1581 1522 
L 1381 1569 
Q 847 1681 609 1914 
Q 372 2147 372 2553 
Q 372 3047 722 3315 
Q 1072 3584 1716 3584 
Q 2034 3584 2315 3537 
Q 2597 3491 2834 3397 
z
" transform="scale(0.015625)"/>
       <path id="DejaVuSans-2f" d="M 1625 4666 
L 2156 4666 
L 531 -594 
L 0 -594 
L 1625 4666 
z
" transform="scale(0.015625)"/>
       <path id="DejaVuSans-44" d="M 1259 4147 
L 1259 519 
L 2022 519 
Q 2988 519 3436 956 
Q 3884 1394 3884 2338 
Q 3884 3275 3436 3711 
Q 2988 4147 2022 4147 
L 1259 4147 
z
M 628 4666 
L 1925 4666 
Q 3281 4666 3915 4102 
Q 4550 3538 4550 2338 
Q 4550 1131 3912 565 
Q 3275 0 1925 0 
L 628 0 
L 628 4666 
z
" transform="scale(0.015625)"/>
       <path id="DejaVuSans-49" d="M 628 4666 
L 1259 4666 
L 1259 0 
L 628 0 
L 628 4666 
z
" transform="scale(0.015625)"/>
       <path id="DejaVuSans-4d" d="M 628 4666 
L 1569 4666 
L 2759 1491 
L 3956 4666 
L 4897 4666 
L 4897 0 
L 4281 0 
L 4281 4097 
L 3078 897 
L 2444 897 
L 1241 4097 
L 1241 0 
L 628 0 
L 628 4666 
z
" transform="scale(0.015625)"/>
      </defs>
      <use xlink:href="#DejaVuSans-6c"/>
      <use xlink:href="#DejaVuSans-6f" x="27.783203"/>
      <use xlink:href="#DejaVuSans-67" x="88.964844"/>
      <use xlink:href="#DejaVuSans-31" x="152.441406"/>
      <use xlink:href="#DejaVuSans-30" x="216.064453"/>
      <use xlink:href="#DejaVuSans-20" x="279.6875"/>
      <use xlink:href="#DejaVuSans-6f" x="311.474609"/>
      <use xlink:href="#DejaVuSans-66" x="372.65625"/>
      <use xlink:href="#DejaVuSans-20" x="407.861328"/>
      <use xlink:href="#DejaVuSans-46" x="439.648438"/>
      <use xlink:href="#DejaVuSans-45" x="497.167969"/>
      <use xlink:href="#DejaVuSans-76" x="560.351562"/>
      <use xlink:href="#DejaVuSans-61" x="619.53125"/>
      <use xlink:href="#DejaVuSans-6c" x="680.810547"/>
      <use xlink:href="#DejaVuSans-73" x="708.59375"/>
      <use xlink:href="#DejaVuSans-20" x="760.693359"/>
      <use xlink:href="#DejaVuSans-2f" x="792.480469"/>
      <use xlink:href="#DejaVuSans-20" x="826.171875"/>
      <use xlink:href="#DejaVuSans-44" x="857.958984"/>
      <use xlink:href="#DejaVuSans-49" x="934.960938"/>
      <use xlink:href="#DejaVuSans-4d" x="964.453125"/>
     </g>
    </g>
   </g>
   <g id="matplotlib.axis_2">
    <g id="ytick_1">
     <g id="line2d_83">
      <path d="M 62.208 293.76 
L 460.8 293.76 
" clip-path="url(#p5900b01c24)" style="fill: none; stroke: #b0b0b0; stroke-width: 0.8; stroke-linecap: square"/>
     </g>
     <g id="line2d_84">
      <defs>
       <path id="m53f6fd6bdc" d="M 0 0 
L -3.5 0 
" style="stroke: #000000; stroke-width: 0.8"/>
      </defs>
      <g>
       <use xlink:href="#m53f6fd6bdc" x="62.208" y="293.76" style="stroke: #000000; stroke-width: 0.8"/>
      </g>
     </g>
     <g id="text_4">
      <!-- 0.0 -->
      <g transform="translate(29.763 299.83875) scale(0.16 -0.16)">
       <defs>
        <path id="DejaVuSans-2e" d="M 684 794 
L 1344 794 
L 1344 0 
L 684 0 
L 684 794 
z
" transform="scale(0.015625)"/>
       </defs>
       <use xlink:href="#DejaVuSans-30"/>
       <use xlink:href="#DejaVuSans-2e" x="63.623047"/>
       <use xlink:href="#DejaVuSans-30" x="95.410156"/>
      </g>
     </g>
    </g>
    <g id="ytick_2">
     <g id="line2d_85">
      <path d="M 62.208 236.274059 
L 460.8 236.274059 
" clip-path="url(#p5900b01c24)" style="fill: none; stroke: #b0b0b0; stroke-width: 0.8; stroke-linecap: square"/>
     </g>
     <g id="line2d_86">
      <g>
       <use xlink:href="#m53f6fd6bdc" x="62.208" y="236.274059" style="stroke: #000000; stroke-width: 0.8"/>
      </g>
     </g>
     <g id="text_5">
      <!-- 0.2 -->
      <g transform="translate(29.763 242.352809) scale(0.16 -0.16)">
       <defs>
        <path id="DejaVuSans-32" d="M 1228 531 
L 3431 531 
L 3431 0 
L 469 0 
L 469 531 
Q 828 903 1448 1529 
Q 2069 2156 2228 2338 
Q 2531 2678 2651 2914 
Q 2772 3150 2772 3378 
Q 2772 3750 2511 3984 
Q 2250 4219 1831 4219 
Q 1534 4219 1204 4116 
Q 875 4013 500 3803 
L 500 4441 
Q 881 4594 1212 4672 
Q 1544 4750 1819 4750 
Q 2544 4750 2975 4387 
Q 3406 4025 3406 3419 
Q 3406 3131 3298 2873 
Q 3191 2616 2906 2266 
Q 2828 2175 2409 1742 
Q 1991 1309 1228 531 
z
" transform="scale(0.015625)"/>
       </defs>
       <use xlink:href="#DejaVuSans-30"/>
       <use xlink:href="#DejaVuSans-2e" x="63.623047"/>
       <use xlink:href="#DejaVuSans-32" x="95.410156"/>
      </g>
     </g>
    </g>
    <g id="ytick_3">
     <g id="line2d_87">
      <path d="M 62.208 178.788119 
L 460.8 178.788119 
" clip-path="url(#p5900b01c24)" style="fill: none; stroke: #b0b0b0; stroke-width: 0.8; stroke-linecap: square"/>
     </g>
     <g id="line2d_88">
      <g>
       <use xlink:href="#m53f6fd6bdc" x="62.208" y="178.788119" style="stroke: #000000; stroke-width: 0.8"/>
      </g>
     </g>
     <g id="text_6">
      <!-- 0.4 -->
      <g transform="translate(29.763 184.866869) scale(0.16 -0.16)">
       <defs>
        <path id="DejaVuSans-34" d="M 2419 4116 
L 825 1625 
L 2419 1625 
L 2419 4116 
z
M 2253 4666 
L 3047 4666 
L 3047 1625 
L 3713 1625 
L 3713 1100 
L 3047 1100 
L 3047 0 
L 2419 0 
L 2419 1100 
L 313 1100 
L 313 1709 
L 2253 4666 
z
" transform="scale(0.015625)"/>
       </defs>
       <use xlink:href="#DejaVuSans-30"/>
       <use xlink:href="#DejaVuSans-2e" x="63.623047"/>
       <use xlink:href="#DejaVuSans-34" x="95.410156"/>
      </g>
     </g>
    </g>
    <g id="ytick_4">
     <g id="line2d_89">
      <path d="M 62.208 121.302178 
L 460.8 121.302178 
" clip-path="url(#p5900b01c24)" style="fill: none; stroke: #b0b0b0; stroke-width: 0.8; stroke-linecap: square"/>
     </g>
     <g id="line2d_90">
      <g>
       <use xlink:href="#m53f6fd6bdc" x="62.208" y="121.302178" style="stroke: #000000; stroke-width: 0.8"/>
      </g>
     </g>
     <g id="text_7">
      <!-- 0.6 -->
      <g transform="translate(29.763 127.380928) scale(0.16 -0.16)">
       <defs>
        <path id="DejaVuSans-36" d="M 2113 2584 
Q 1688 2584 1439 2293 
Q 1191 2003 1191 1497 
Q 1191 994 1439 701 
Q 1688 409 2113 409 
Q 2538 409 2786 701 
Q 3034 994 3034 1497 
Q 3034 2003 2786 2293 
Q 2538 2584 2113 2584 
z
M 3366 4563 
L 3366 3988 
Q 3128 4100 2886 4159 
Q 2644 4219 2406 4219 
Q 1781 4219 1451 3797 
Q 1122 3375 1075 2522 
Q 1259 2794 1537 2939 
Q 1816 3084 2150 3084 
Q 2853 3084 3261 2657 
Q 3669 2231 3669 1497 
Q 3669 778 3244 343 
Q 2819 -91 2113 -91 
Q 1303 -91 875 529 
Q 447 1150 447 2328 
Q 447 3434 972 4092 
Q 1497 4750 2381 4750 
Q 2619 4750 2861 4703 
Q 3103 4656 3366 4563 
z
" transform="scale(0.015625)"/>
       </defs>
       <use xlink:href="#DejaVuSans-30"/>
       <use xlink:href="#DejaVuSans-2e" x="63.623047"/>
       <use xlink:href="#DejaVuSans-36" x="95.410156"/>
      </g>
     </g>
    </g>
    <g id="ytick_5">
     <g id="line2d_91">
      <path d="M 62.208 63.816238 
L 460.8 63.816238 
" clip-path="url(#p5900b01c24)" style="fill: none; stroke: #b0b0b0; stroke-width: 0.8; stroke-linecap: square"/>
     </g>
     <g id="line2d_92">
      <g>
       <use xlink:href="#m53f6fd6bdc" x="62.208" y="63.816238" style="stroke: #000000; stroke-width: 0.8"/>
      </g>
     </g>
     <g id="text_8">
      <!-- 0.8 -->
      <g transform="translate(29.763 69.894988) scale(0.16 -0.16)">
       <defs>
        <path id="DejaVuSans-38" d="M 2034 2216 
Q 1584 2216 1326 1975 
Q 1069 1734 1069 1313 
Q 1069 891 1326 650 
Q 1584 409 2034 409 
Q 2484 409 2743 651 
Q 3003 894 3003 1313 
Q 3003 1734 2745 1975 
Q 2488 2216 2034 2216 
z
M 1403 2484 
Q 997 2584 770 2862 
Q 544 3141 544 3541 
Q 544 4100 942 4425 
Q 1341 4750 2034 4750 
Q 2731 4750 3128 4425 
Q 3525 4100 3525 3541 
Q 3525 3141 3298 2862 
Q 3072 2584 2669 2484 
Q 3125 2378 3379 2068 
Q 3634 1759 3634 1313 
Q 3634 634 3220 271 
Q 2806 -91 2034 -91 
Q 1263 -91 848 271 
Q 434 634 434 1313 
Q 434 1759 690 2068 
Q 947 2378 1403 2484 
z
M 1172 3481 
Q 1172 3119 1398 2916 
Q 1625 2713 2034 2713 
Q 2441 2713 2670 2916 
Q 2900 3119 2900 3481 
Q 2900 3844 2670 4047 
Q 2441 4250 2034 4250 
Q 1625 4250 1398 4047 
Q 1172 3844 1172 3481 
z
" transform="scale(0.015625)"/>
       </defs>
       <use xlink:href="#DejaVuSans-30"/>
       <use xlink:href="#DejaVuSans-2e" x="63.623047"/>
       <use xlink:href="#DejaVuSans-38" x="95.410156"/>
      </g>
     </g>
    </g>
    <g id="ytick_6">
     <g id="line2d_93">
      <path d="M 62.208 6.330297 
L 460.8 6.330297 
" clip-path="url(#p5900b01c24)" style="fill: none; stroke: #b0b0b0; stroke-width: 0.8; stroke-linecap: square"/>
     </g>
     <g id="line2d_94">
      <g>
       <use xlink:href="#m53f6fd6bdc" x="62.208" y="6.330297" style="stroke: #000000; stroke-width: 0.8"/>
      </g>
     </g>
     <g id="text_9">
      <!-- 1.0 -->
      <g transform="translate(29.763 12.409047) scale(0.16 -0.16)">
       <use xlink:href="#DejaVuSans-31"/>
       <use xlink:href="#DejaVuSans-2e" x="63.623047"/>
       <use xlink:href="#DejaVuSans-30" x="95.410156"/>
      </g>
     </g>
    </g>
    <g id="text_10">
     <!-- proportion of trials -->
     <g transform="translate(21.603625 241.61425) rotate(-90) scale(0.2 -0.2)">
      <defs>
       <path id="DejaVuSans-70" d="M 1159 525 
L 1159 -1331 
L 581 -1331 
L 581 3500 
L 1159 3500 
L 1159 2969 
Q 1341 3281 1617 3432 
Q 1894 3584 2278 3584 
Q 2916 3584 3314 3078 
Q 3713 2572 3713 1747 
Q 3713 922 3314 415 
Q 2916 -91 2278 -91 
Q 1894 -91 1617 61 
Q 1341 213 1159 525 
z
M 3116 1747 
Q 3116 2381 2855 2742 
Q 2594 3103 2138 3103 
Q 1681 3103 1420 2742 
Q 1159 2381 1159 1747 
Q 1159 1113 1420 752 
Q 1681 391 2138 391 
Q 2594 391 2855 752 
Q 3116 1113 3116 1747 
z
" transform="scale(0.015625)"/>
       <path id="DejaVuSans-72" d="M 2631 2963 
Q 2534 3019 2420 3045 
Q 2306 3072 2169 3072 
Q 1681 3072 1420 2755 
Q 1159 2438 1159 1844 
L 1159 0 
L 581 0 
L 581 3500 
L 1159 3500 
L 1159 2956 
Q 1341 3275 1631 3429 
Q 1922 3584 2338 3584 
Q 2397 3584 2469 3576 
Q 2541 3569 2628 3553 
L 2631 2963 
z
" transform="scale(0.015625)"/>
       <path id="DejaVuSans-74" d="M 1172 4494 
L 1172 3500 
L 2356 3500 
L 2356 3053 
L 1172 3053 
L 1172 1153 
Q 1172 725 1289 603 
Q 1406 481 1766 481 
L 2356 481 
L 2356 0 
L 1766 0 
Q 1100 0 847 248 
Q 594 497 594 1153 
L 594 3053 
L 172 3053 
L 172 3500 
L 594 3500 
L 594 4494 
L 1172 4494 
z
" transform="scale(0.015625)"/>
       <path id="DejaVuSans-69" d="M 603 3500 
L 1178 3500 
L 1178 0 
L 603 0 
L 603 3500 
z
M 603 4863 
L 1178 4863 
L 1178 4134 
L 603 4134 
L 603 4863 
z
" transform="scale(0.015625)"/>
       <path id="DejaVuSans-6e" d="M 3513 2113 
L 3513 0 
L 2938 0 
L 2938 2094 
Q 2938 2591 2744 2837 
Q 2550 3084 2163 3084 
Q 1697 3084 1428 2787 
Q 1159 2491 1159 1978 
L 1159 0 
L 581 0 
L 581 3500 
L 1159 3500 
L 1159 2956 
Q 1366 3272 1645 3428 
Q 1925 3584 2291 3584 
Q 2894 3584 3203 3211 
Q 3513 2838 3513 2113 
z
" transform="scale(0.015625)"/>
      </defs>
      <use xlink:href="#DejaVuSans-70"/>
      <use xlink:href="#DejaVuSans-72" x="63.476562"/>
      <use xlink:href="#DejaVuSans-6f" x="102.339844"/>
      <use xlink:href="#DejaVuSans-70" x="163.521484"/>
      <use xlink:href="#DejaVuSans-6f" x="226.998047"/>
      <use xlink:href="#DejaVuSans-72" x="288.179688"/>
      <use xlink:href="#DejaVuSans-74" x="329.292969"/>
      <use xlink:href="#DejaVuSans-69" x="368.501953"/>
      <use xlink:href="#DejaVuSans-6f" x="396.285156"/>
      <use xlink:href="#DejaVuSans-6e" x="457.466797"/>
      <use xlink:href="#DejaVuSans-20" x="520.845703"/>
      <use xlink:href="#DejaVuSans-6f" x="552.632812"/>
      <use xlink:href="#DejaVuSans-66" x="613.814453"/>
      <use xlink:href="#DejaVuSans-20" x="649.019531"/>
      <use xlink:href="#DejaVuSans-74" x="680.806641"/>
      <use xlink:href="#DejaVuSans-72" x="720.015625"/>
      <use xlink:href="#DejaVuSans-69" x="761.128906"/>
      <use xlink:href="#DejaVuSans-61" x="788.912109"/>
      <use xlink:href="#DejaVuSans-6c" x="850.191406"/>
      <use xlink:href="#DejaVuSans-73" x="877.974609"/>
     </g>
    </g>
   </g>
   <g id="line2d_95">
    <path d="M 156.218604 293.76 
L 156.218604 289.927604 
L 176.116625 289.927604 
L 176.116625 286.095208 
L 176.515949 286.095208 
L 176.515949 282.262812 
L 179.236417 282.262812 
L 179.236417 278.430416 
L 181.834378 278.430416 
L 181.834378 274.59802 
L 185.694316 274.59802 
L 185.694316 270.765624 
L 185.694316 270.765624 
L 185.694316 266.933228 
L 187.036286 266.933228 
L 187.036286 263.100832 
L 189.630076 263.100832 
L 189.630076 259.268436 
L 190.884518 259.268436 
L 190.884518 255.43604 
L 190.884518 255.43604 
L 190.884518 251.603644 
L 201.353128 251.603644 
L 201.353128 247.771248 
L 202.37897 247.771248 
L 202.37897 243.938851 
L 203.136558 243.938851 
L 203.136558 240.106455 
L 211.091935 240.106455 
L 211.091935 236.274059 
L 213.237241 236.274059 
L 213.237241 232.441663 
L 214.692867 232.441663 
L 214.692867 228.609267 
L 216.312682 228.609267 
L 216.312682 224.776871 
L 216.312682 224.776871 
L 216.312682 220.944475 
L 218.275527 220.944475 
L 218.275527 217.112079 
L 219.986753 217.112079 
L 219.986753 213.279683 
L 222.372235 213.279683 
L 222.372235 209.447287 
L 224.142377 209.447287 
L 224.142377 205.614891 
L 224.489981 205.614891 
L 224.489981 201.782495 
L 226.028795 201.782495 
L 226.028795 197.950099 
L 228.01872 197.950099 
L 228.01872 194.117703 
L 229.308206 194.117703 
L 229.308206 190.285307 
L 229.626125 190.285307 
L 229.626125 186.452911 
L 229.626125 186.452911 
L 229.626125 182.620515 
L 229.942302 182.620515 
L 229.942302 178.788119 
L 406.474605 178.788119 
L 406.474605 174.955723 
L 407.689585 174.955723 
L 407.689585 171.123327 
L 407.718549 171.123327 
L 407.718549 167.290931 
L 409.913133 167.290931 
L 409.913133 163.458535 
L 410.357425 163.458535 
L 410.357425 159.626139 
L 411.690412 159.626139 
L 411.690412 155.793743 
L 412.134691 155.793743 
L 412.134691 151.961347 
L 412.602187 151.961347 
L 412.602187 148.12895 
L 412.966867 148.12895 
L 412.966867 144.296554 
L 413.302978 144.296554 
L 413.302978 140.464158 
L 413.414581 140.464158 
L 413.414581 136.631762 
L 413.611003 136.631762 
L 413.611003 132.799366 
L 416.461147 132.799366 
L 416.461147 128.96697 
L 418.478481 128.96697 
L 418.478481 125.134574 
L 418.855718 125.134574 
L 418.855718 121.302178 
L 421.383818 121.302178 
L 421.383818 117.469782 
L 449.141003 117.469782 
L 449.141003 113.637386 
L 449.141003 113.637386 
L 449.141003 113.637386 
L 460.8 113.637386 
" clip-path="url(#p5900b01c24)" style="fill: none; stroke: #000000; stroke-width: 1.5; stroke-linecap: square"/>
   </g>
   <g id="line2d_96">
    <path clip-path="url(#p5900b01c24)" style="fill: none; stroke: #000000; stroke-width: 1.5; stroke-linecap: square"/>
   </g>
   <g id="line2d_97">
    <path d="M 188.671016 293.76 
L 188.671016 289.927604 
L 189.946252 289.927604 
L 189.946252 286.095208 
L 190.573455 286.095208 
L 190.573455 282.262812 
L 195.646155 282.262812 
L 195.646155 278.430416 
L 195.646155 278.430416 
L 195.646155 274.59802 
L 196.777605 274.59802 
L 196.777605 270.765624 
L 197.611867 270.765624 
L 197.611867 266.933228 
L 197.887295 266.933228 
L 197.887295 263.100832 
L 205.832263 263.100832 
L 205.832263 259.268436 
L 208.636156 259.268436 
L 208.636156 255.43604 
L 209.316345 255.43604 
L 209.316345 251.603644 
L 212.388666 251.603644 
L 212.388666 247.771248 
L 212.814514 247.771248 
L 212.814514 243.938851 
L 214.897848 243.938851 
L 214.897848 240.106455 
L 226.699757 240.106455 
L 226.699757 236.274059 
L 274.338277 236.274059 
L 274.338277 232.441663 
L 275.638254 232.441663 
L 275.638254 228.609267 
L 277.396528 228.609267 
L 277.396528 224.776871 
L 277.396528 224.776871 
L 277.396528 220.944475 
L 277.948046 220.944475 
L 277.948046 217.112079 
L 278.290087 217.112079 
L 278.290087 213.279683 
L 279.102806 213.279683 
L 279.102806 209.447287 
L 279.638328 209.447287 
L 279.638328 205.614891 
L 279.638328 205.614891 
L 279.638328 201.782495 
L 279.638328 201.782495 
L 279.638328 197.950099 
L 280.563696 197.950099 
L 280.563696 194.117703 
L 281.603402 194.117703 
L 281.603402 190.285307 
L 281.924505 190.285307 
L 281.924505 186.452911 
L 282.371069 186.452911 
L 282.371069 182.620515 
L 285.644511 182.620515 
L 285.644511 178.788119 
L 416.523326 178.788119 
L 416.523326 174.955723 
L 419.348978 174.955723 
L 419.348978 171.123327 
L 422.256907 171.123327 
L 422.256907 167.290931 
L 422.79456 167.290931 
L 422.79456 163.458535 
L 424.632449 163.458535 
L 424.632449 159.626139 
L 424.998471 159.626139 
L 424.998471 155.793743 
L 425.447434 155.793743 
L 425.447434 151.961347 
L 426.308794 151.961347 
L 426.308794 148.12895 
L 426.768532 148.12895 
L 426.768532 144.296554 
L 427.322642 144.296554 
L 427.322642 140.464158 
L 427.502745 140.464158 
L 427.502745 136.631762 
L 427.988778 136.631762 
L 427.988778 132.799366 
L 429.452598 132.799366 
L 429.452598 128.96697 
L 429.779495 128.96697 
L 429.779495 125.134574 
L 430.285981 125.134574 
L 430.285981 121.302178 
L 430.285981 121.302178 
L 430.285981 121.302178 
L 460.8 121.302178 
" clip-path="url(#p5900b01c24)" style="fill: none; stroke: #00bfbf; stroke-width: 1.5; stroke-linecap: square"/>
   </g>
   <g id="line2d_98">
    <path clip-path="url(#p5900b01c24)" style="fill: none; stroke: #00bfbf; stroke-width: 1.5; stroke-linecap: square"/>
   </g>
   <g id="line2d_99">
    <path d="M 188.671016 293.76 
L 188.671016 289.927604 
L 189.946252 289.927604 
L 189.946252 286.095208 
L 190.573455 286.095208 
L 190.573455 282.262812 
L 195.646155 282.262812 
L 195.646155 278.430416 
L 195.646155 278.430416 
L 195.646155 274.59802 
L 196.777605 274.59802 
L 196.777605 270.765624 
L 197.611867 270.765624 
L 197.611867 266.933228 
L 197.887295 266.933228 
L 197.887295 263.100832 
L 205.832263 263.100832 
L 205.832263 259.268436 
L 208.636156 259.268436 
L 208.636156 255.43604 
L 209.316345 255.43604 
L 209.316345 251.603644 
L 212.388666 251.603644 
L 212.388666 247.771248 
L 212.814514 247.771248 
L 212.814514 243.938851 
L 214.897848 243.938851 
L 214.897848 240.106455 
L 226.699757 240.106455 
L 226.699757 236.274059 
L 312.967001 236.274059 
L 312.967001 232.441663 
L 314.114787 232.441663 
L 314.114787 228.609267 
L 314.879547 228.609267 
L 314.879547 224.776871 
L 315.060148 224.776871 
L 315.060148 220.944475 
L 315.204223 220.944475 
L 315.204223 217.112079 
L 316.238147 217.112079 
L 316.238147 213.279683 
L 317.25387 213.279683 
L 317.25387 209.447287 
L 317.806709 209.447287 
L 317.806709 205.614891 
L 318.149563 205.614891 
L 318.149563 201.782495 
L 318.149563 201.782495 
L 318.149563 197.950099 
L 319.700969 197.950099 
L 319.700969 194.117703 
L 320.526951 194.117703 
L 320.526951 190.285307 
L 320.559746 190.285307 
L 320.559746 186.452911 
L 321.049441 186.452911 
L 321.049441 182.620515 
L 323.53095 182.620515 
L 323.53095 178.788119 
L 429.447631 178.788119 
L 429.447631 174.955723 
L 429.601418 174.955723 
L 429.601418 171.123327 
L 430.148735 171.123327 
L 430.148735 167.290931 
L 430.418017 167.290931 
L 430.418017 163.458535 
L 430.442435 163.458535 
L 430.442435 159.626139 
L 430.661733 159.626139 
L 430.661733 155.793743 
L 431.530684 155.793743 
L 431.530684 151.961347 
L 432.09331 151.961347 
L 432.09331 148.12895 
L 432.29225 148.12895 
L 432.29225 144.296554 
L 432.655202 144.296554 
L 432.655202 140.464158 
L 433.30003 140.464158 
L 433.30003 136.631762 
L 435.528645 136.631762 
L 435.528645 132.799366 
L 435.586733 132.799366 
L 435.586733 128.96697 
L 435.885189 128.96697 
L 435.885189 125.134574 
L 435.94292 125.134574 
L 435.94292 121.302178 
L 435.94292 121.302178 
L 435.94292 121.302178 
L 460.8 121.302178 
" clip-path="url(#p5900b01c24)" style="fill: none; stroke: #bf00bf; stroke-width: 1.5; stroke-linecap: square"/>
   </g>
   <g id="line2d_100">
    <path clip-path="url(#p5900b01c24)" style="fill: none; stroke: #bf00bf; stroke-width: 1.5; stroke-linecap: square"/>
   </g>
   <g id="line2d_101">
    <path d="M 188.671016 293.76 
L 188.671016 289.927604 
L 189.946252 289.927604 
L 189.946252 286.095208 
L 190.573455 286.095208 
L 190.573455 282.262812 
L 195.646155 282.262812 
L 195.646155 278.430416 
L 195.646155 278.430416 
L 195.646155 274.59802 
L 196.777605 274.59802 
L 196.777605 270.765624 
L 197.611867 270.765624 
L 197.611867 266.933228 
L 197.887295 266.933228 
L 197.887295 263.100832 
L 205.832263 263.100832 
L 205.832263 259.268436 
L 208.636156 259.268436 
L 208.636156 255.43604 
L 209.316345 255.43604 
L 209.316345 251.603644 
L 212.388666 251.603644 
L 212.388666 247.771248 
L 212.814514 247.771248 
L 212.814514 243.938851 
L 214.897848 243.938851 
L 214.897848 240.106455 
L 226.699757 240.106455 
L 226.699757 236.274059 
L 342.674104 236.274059 
L 342.674104 232.441663 
L 343.977788 232.441663 
L 343.977788 228.609267 
L 344.152312 228.609267 
L 344.152312 224.776871 
L 344.304589 224.776871 
L 344.304589 220.944475 
L 346.164384 220.944475 
L 346.164384 217.112079 
L 347.289299 217.112079 
L 347.289299 213.279683 
L 347.454103 213.279683 
L 347.454103 209.447287 
L 347.679943 209.447287 
L 347.679943 205.614891 
L 348.453387 205.614891 
L 348.453387 201.782495 
L 349.236549 201.782495 
L 349.236549 197.950099 
L 349.236549 197.950099 
L 349.236549 194.117703 
L 349.752813 194.117703 
L 349.752813 190.285307 
L 350.38194 190.285307 
L 350.38194 186.452911 
L 350.518651 186.452911 
L 350.518651 182.620515 
L 352.531385 182.620515 
L 352.531385 178.788119 
L 435.573333 178.788119 
L 435.573333 174.955723 
L 435.902959 174.955723 
L 435.902959 171.123327 
L 436.155582 171.123327 
L 436.155582 167.290931 
L 436.261619 167.290931 
L 436.261619 163.458535 
L 436.530258 163.458535 
L 436.530258 159.626139 
L 436.683832 159.626139 
L 436.683832 155.793743 
L 436.967961 155.793743 
L 436.967961 151.961347 
L 437.120376 151.961347 
L 437.120376 148.12895 
L 437.957967 148.12895 
L 437.957967 144.296554 
L 438.073581 144.296554 
L 438.073581 140.464158 
L 438.63973 140.464158 
L 438.63973 136.631762 
L 440.674797 136.631762 
L 440.674797 132.799366 
L 440.691151 132.799366 
L 440.691151 128.96697 
L 440.850364 128.96697 
L 440.850364 125.134574 
L 441.402153 125.134574 
L 441.402153 121.302178 
L 441.402153 121.302178 
L 441.402153 121.302178 
L 460.8 121.302178 
" clip-path="url(#p5900b01c24)" style="fill: none; stroke: #ff0000; stroke-width: 3; stroke-linecap: square"/>
   </g>
   <g id="line2d_102">
    <path clip-path="url(#p5900b01c24)" style="fill: none; stroke: #ff0000; stroke-width: 3; stroke-linecap: square"/>
   </g>
   <g id="line2d_103">
    <path d="M 460.8 293.76 
L 460.8 3.456 
" clip-path="url(#p5900b01c24)" style="fill: none; stroke: #000000; stroke-width: 1.5; stroke-linecap: square"/>
   </g>
   <g id="patch_3">
    <path d="M 62.208 293.76 
L 62.208 3.456 
" style="fill: none; stroke: #000000; stroke-width: 0.8; stroke-linejoin: miter; stroke-linecap: square"/>
   </g>
   <g id="patch_4">
    <path d="M 460.8 293.76 
L 460.8 3.456 
" style="fill: none; stroke: #000000; stroke-width: 0.8; stroke-linejoin: miter; stroke-linecap: square"/>
   </g>
   <g id="patch_5">
    <path d="M 62.208 293.76 
L 460.8 293.76 
" style="fill: none; stroke: #000000; stroke-width: 0.8; stroke-linejoin: miter; stroke-linecap: square"/>
   </g>
   <g id="patch_6">
    <path d="M 62.208 3.456 
L 460.8 3.456 
" style="fill: none; stroke: #000000; stroke-width: 0.8; stroke-linejoin: miter; stroke-linecap: square"/>
   </g>
   <g id="text_11">
    <!-- {f1-f5}, 20-D -->
    <g transform="translate(195.0165 24.458955) scale(0.2 -0.2)">
     <defs>
      <path id="DejaVuSans-7b" d="M 3272 -594 
L 3272 -1044 
L 3078 -1044 
Q 2300 -1044 2036 -812 
Q 1772 -581 1772 109 
L 1772 856 
Q 1772 1328 1603 1509 
Q 1434 1691 991 1691 
L 800 1691 
L 800 2138 
L 991 2138 
Q 1438 2138 1605 2317 
Q 1772 2497 1772 2963 
L 1772 3713 
Q 1772 4403 2036 4633 
Q 2300 4863 3078 4863 
L 3272 4863 
L 3272 4416 
L 3059 4416 
Q 2619 4416 2484 4278 
Q 2350 4141 2350 3700 
L 2350 2925 
Q 2350 2434 2208 2212 
Q 2066 1991 1722 1913 
Q 2069 1828 2209 1606 
Q 2350 1384 2350 897 
L 2350 122 
Q 2350 -319 2484 -456 
Q 2619 -594 3059 -594 
L 3272 -594 
z
" transform="scale(0.015625)"/>
      <path id="DejaVuSans-2d" d="M 313 2009 
L 1997 2009 
L 1997 1497 
L 313 1497 
L 313 2009 
z
" transform="scale(0.015625)"/>
      <path id="DejaVuSans-35" d="M 691 4666 
L 3169 4666 
L 3169 4134 
L 1269 4134 
L 1269 2991 
Q 1406 3038 1543 3061 
Q 1681 3084 1819 3084 
Q 2600 3084 3056 2656 
Q 3513 2228 3513 1497 
Q 3513 744 3044 326 
Q 2575 -91 1722 -91 
Q 1428 -91 1123 -41 
Q 819 9 494 109 
L 494 744 
Q 775 591 1075 516 
Q 1375 441 1709 441 
Q 2250 441 2565 725 
Q 2881 1009 2881 1497 
Q 2881 1984 2565 2268 
Q 2250 2553 1709 2553 
Q 1456 2553 1204 2497 
Q 953 2441 691 2322 
L 691 4666 
z
" transform="scale(0.015625)"/>
      <path id="DejaVuSans-7d" d="M 800 -594 
L 1019 -594 
Q 1456 -594 1589 -459 
Q 1722 -325 1722 122 
L 1722 897 
Q 1722 1384 1862 1606 
Q 2003 1828 2350 1913 
Q 2003 1991 1862 2212 
Q 1722 2434 1722 2925 
L 1722 3700 
Q 1722 4144 1589 4280 
Q 1456 4416 1019 4416 
L 800 4416 
L 800 4863 
L 997 4863 
Q 1775 4863 2036 4633 
Q 2297 4403 2297 3713 
L 2297 2963 
Q 2297 2497 2465 2317 
Q 2634 2138 3078 2138 
L 3272 2138 
L 3272 1691 
L 3078 1691 
Q 2634 1691 2465 1509 
Q 2297 1328 2297 856 
L 2297 109 
Q 2297 -581 2036 -812 
Q 1775 -1044 997 -1044 
L 800 -1044 
L 800 -594 
z
" transform="scale(0.015625)"/>
      <path id="DejaVuSans-2c" d="M 750 794 
L 1409 794 
L 1409 256 
L 897 -744 
L 494 -744 
L 750 256 
L 750 794 
z
" transform="scale(0.015625)"/>
     </defs>
     <use xlink:href="#DejaVuSans-7b"/>
     <use xlink:href="#DejaVuSans-66" x="63.623047"/>
     <use xlink:href="#DejaVuSans-31" x="98.828125"/>
     <use xlink:href="#DejaVuSans-2d" x="162.451172"/>
     <use xlink:href="#DejaVuSans-66" x="198.535156"/>
     <use xlink:href="#DejaVuSans-35" x="233.740234"/>
     <use xlink:href="#DejaVuSans-7d" x="297.363281"/>
     <use xlink:href="#DejaVuSans-2c" x="360.986328"/>
     <use xlink:href="#DejaVuSans-20" x="392.773438"/>
     <use xlink:href="#DejaVuSans-32" x="424.560547"/>
     <use xlink:href="#DejaVuSans-30" x="488.183594"/>
     <use xlink:href="#DejaVuSans-2d" x="551.806641"/>
     <use xlink:href="#DejaVuSans-44" x="587.890625"/>
    </g>
   </g>
   <g id="text_12">
    <!-- absolute targets -->
    <g transform="translate(62.208 609.166194) scale(0.14 -0.14)">
     <defs>
      <path id="DejaVuSans-62" d="M 3116 1747 
Q 3116 2381 2855 2742 
Q 2594 3103 2138 3103 
Q 1681 3103 1420 2742 
Q 1159 2381 1159 1747 
Q 1159 1113 1420 752 
Q 1681 391 2138 391 
Q 2594 391 2855 752 
Q 3116 1113 3116 1747 
z
M 1159 2969 
Q 1341 3281 1617 3432 
Q 1894 3584 2278 3584 
Q 2916 3584 3314 3078 
Q 3713 2572 3713 1747 
Q 3713 922 3314 415 
Q 2916 -91 2278 -91 
Q 1894 -91 1617 61 
Q 1341 213 1159 525 
L 1159 0 
L 581 0 
L 581 4863 
L 1159 4863 
L 1159 2969 
z
" transform="scale(0.015625)"/>
      <path id="DejaVuSans-75" d="M 544 1381 
L 544 3500 
L 1119 3500 
L 1119 1403 
Q 1119 906 1312 657 
Q 1506 409 1894 409 
Q 2359 409 2629 706 
Q 2900 1003 2900 1516 
L 2900 3500 
L 3475 3500 
L 3475 0 
L 2900 0 
L 2900 538 
Q 2691 219 2414 64 
Q 2138 -91 1772 -91 
Q 1169 -91 856 284 
Q 544 659 544 1381 
z
M 1991 3584 
L 1991 3584 
z
" transform="scale(0.015625)"/>
      <path id="DejaVuSans-65" d="M 3597 1894 
L 3597 1613 
L 953 1613 
Q 991 1019 1311 708 
Q 1631 397 2203 397 
Q 2534 397 2845 478 
Q 3156 559 3463 722 
L 3463 178 
Q 3153 47 2828 -22 
Q 2503 -91 2169 -91 
Q 1331 -91 842 396 
Q 353 884 353 1716 
Q 353 2575 817 3079 
Q 1281 3584 2069 3584 
Q 2775 3584 3186 3129 
Q 3597 2675 3597 1894 
z
M 3022 2063 
Q 3016 2534 2758 2815 
Q 2500 3097 2075 3097 
Q 1594 3097 1305 2825 
Q 1016 2553 972 2059 
L 3022 2063 
z
" transform="scale(0.015625)"/>
     </defs>
     <use xlink:href="#DejaVuSans-61"/>
     <use xlink:href="#DejaVuSans-62" x="61.279297"/>
     <use xlink:href="#DejaVuSans-73" x="124.755859"/>
     <use xlink:href="#DejaVuSans-6f" x="176.855469"/>
     <use xlink:href="#DejaVuSans-6c" x="238.037109"/>
     <use xlink:href="#DejaVuSans-75" x="265.820312"/>
     <use xlink:href="#DejaVuSans-74" x="329.199219"/>
     <use xlink:href="#DejaVuSans-65" x="368.408203"/>
     <use xlink:href="#DejaVuSans-20" x="429.931641"/>
     <use xlink:href="#DejaVuSans-74" x="461.71875"/>
     <use xlink:href="#DejaVuSans-61" x="500.927734"/>
     <use xlink:href="#DejaVuSans-72" x="562.207031"/>
     <use xlink:href="#DejaVuSans-67" x="601.570312"/>
     <use xlink:href="#DejaVuSans-65" x="665.046875"/>
     <use xlink:href="#DejaVuSans-74" x="726.570312"/>
     <use xlink:href="#DejaVuSans-73" x="765.779297"/>
    </g>
   </g>
   <g id="text_13">
    <!-- v2.6.3 -->
    <g style="fill: #808080" transform="translate(245.82275 288.777272) scale(0.1 -0.1)">
     <use xlink:href="#DejaVuSans-76"/>
     <use xlink:href="#DejaVuSans-32" x="59.179688"/>
     <use xlink:href="#DejaVuSans-2e" x="122.802734"/>
     <use xlink:href="#DejaVuSans-36" x="154.589844"/>
     <use xlink:href="#DejaVuSans-2e" x="218.212891"/>
     <use xlink:href="#DejaVuSans-33" x="250"/>
    </g>
   </g>
   <g id="legend_1">
    <g id="patch_7">
     <path d="M 76.208 136.881 
L 205.429875 136.881 
Q 209.429875 136.881 209.429875 132.881 
L 209.429875 17.456 
Q 209.429875 13.456 205.429875 13.456 
L 76.208 13.456 
Q 72.208 13.456 72.208 17.456 
L 72.208 132.881 
Q 72.208 136.881 76.208 136.881 
z
" style="fill: #ffffff; opacity: 0.2; stroke: #cccccc; stroke-linejoin: miter"/>
    </g>
    <g id="line2d_104">
     <path d="M 80.208 29.652875 
L 80.208 29.652875 
L 100.208 29.652875 
L 100.208 29.652875 
L 120.208 29.652875 
" style="fill: none; stroke: #000000; stroke-width: 1.5; stroke-linecap: square"/>
    </g>
    <g id="text_14">
     <!-- 1: 4/5 -->
     <g transform="translate(136.208 36.652875) scale(0.2 -0.2)">
      <defs>
       <path id="DejaVuSans-3a" d="M 750 794 
L 1409 794 
L 1409 0 
L 750 0 
L 750 794 
z
M 750 3309 
L 1409 3309 
L 1409 2516 
L 750 2516 
L 750 3309 
z
" transform="scale(0.015625)"/>
      </defs>
      <use xlink:href="#DejaVuSans-31"/>
      <use xlink:href="#DejaVuSans-3a" x="63.623047"/>
      <use xlink:href="#DejaVuSans-20" x="97.314453"/>
      <use xlink:href="#DejaVuSans-34" x="129.101562"/>
      <use xlink:href="#DejaVuSans-2f" x="192.724609"/>
      <use xlink:href="#DejaVuSans-35" x="226.416016"/>
     </g>
    </g>
    <g id="line2d_105">
     <path d="M 80.208 59.009125 
L 80.208 59.009125 
L 100.208 59.009125 
L 100.208 59.009125 
L 120.208 59.009125 
" style="fill: none; stroke: #00bfbf; stroke-width: 1.5; stroke-linecap: square"/>
    </g>
    <g id="text_15">
     <!-- -1: 3/5 -->
     <g transform="translate(136.208 66.009125) scale(0.2 -0.2)">
      <use xlink:href="#DejaVuSans-2d"/>
      <use xlink:href="#DejaVuSans-31" x="36.083984"/>
      <use xlink:href="#DejaVuSans-3a" x="99.707031"/>
      <use xlink:href="#DejaVuSans-20" x="133.398438"/>
      <use xlink:href="#DejaVuSans-33" x="165.185547"/>
      <use xlink:href="#DejaVuSans-2f" x="228.808594"/>
      <use xlink:href="#DejaVuSans-35" x="262.5"/>
     </g>
    </g>
    <g id="line2d_106">
     <path d="M 80.208 88.365375 
L 80.208 88.365375 
L 100.208 88.365375 
L 100.208 88.365375 
L 120.208 88.365375 
" style="fill: none; stroke: #bf00bf; stroke-width: 1.5; stroke-linecap: square"/>
    </g>
    <g id="text_16">
     <!-- -4: 3/5 -->
     <g transform="translate(136.208 95.365375) scale(0.2 -0.2)">
      <use xlink:href="#DejaVuSans-2d"/>
      <use xlink:href="#DejaVuSans-34" x="36.083984"/>
      <use xlink:href="#DejaVuSans-3a" x="99.707031"/>
      <use xlink:href="#DejaVuSans-20" x="133.398438"/>
      <use xlink:href="#DejaVuSans-33" x="165.185547"/>
      <use xlink:href="#DejaVuSans-2f" x="228.808594"/>
      <use xlink:href="#DejaVuSans-35" x="262.5"/>
     </g>
    </g>
    <g id="line2d_107">
     <path d="M 80.208 117.721625 
L 80.208 117.721625 
L 100.208 117.721625 
L 100.208 117.721625 
L 120.208 117.721625 
" style="fill: none; stroke: #ff0000; stroke-width: 3; stroke-linecap: square"/>
    </g>
    <g id="text_17">
     <!-- -8: 3/5 -->
     <g transform="translate(136.208 124.721625) scale(0.2 -0.2)">
      <use xlink:href="#DejaVuSans-2d"/>
      <use xlink:href="#DejaVuSans-38" x="36.083984"/>
      <use xlink:href="#DejaVuSans-3a" x="99.707031"/>
      <use xlink:href="#DejaVuSans-20" x="133.398438"/>
      <use xlink:href="#DejaVuSans-33" x="165.185547"/>
      <use xlink:href="#DejaVuSans-2f" x="228.808594"/>
      <use xlink:href="#DejaVuSans-35" x="262.5"/>
     </g>
    </g>
   </g>
  </g>
 </g>
 <defs>
  <clipPath id="p5900b01c24">
   <rect x="62.208" y="3.456" width="398.592" height="290.304"/>
  </clipPath>
 </defs>
</svg>
