<?xml version="1.0" encoding="utf-8" standalone="no"?>
<!DOCTYPE svg PUBLIC "-//W3C//DTD SVG 1.1//EN"
  "http://www.w3.org/Graphics/SVG/1.1/DTD/svg11.dtd">
<svg xmlns:xlink="http://www.w3.org/1999/xlink" width="460.8pt" height="345.6pt" viewBox="0 0 460.8 345.6" xmlns="http://www.w3.org/2000/svg" version="1.1">
 <metadata>
  <rdf:RDF xmlns:dc="http://purl.org/dc/elements/1.1/" xmlns:cc="http://creativecommons.org/ns#" xmlns:rdf="http://www.w3.org/1999/02/22-rdf-syntax-ns#">
   <cc:Work>
    <dc:type rdf:resource="http://purl.org/dc/dcmitype/StillImage"/>
    <dc:date>2024-06-22T00:24:30.808838</dc:date>
    <dc:format>image/svg+xml</dc:format>
    <dc:creator>
     <cc:Agent>
      <dc:title>Matplotlib v3.7.5, https://matplotlib.org/</dc:title>
     </cc:Agent>
    </dc:creator>
   </cc:Work>
  </rdf:RDF>
 </metadata>
 <defs>
  <style type="text/css">*{stroke-linejoin: round; stroke-linecap: butt}</style>
 </defs>
 <g id="figure_1">
  <g id="patch_1">
   <path d="M 0 345.6 
L 460.8 345.6 
L 460.8 0 
L 0 0 
z
" style="fill: #ffffff"/>
  </g>
  <g id="axes_1">
   <g id="patch_2">
    <path d="M 62.208 293.76 
L 460.8 293.76 
L 460.8 3.456 
L 62.208 3.456 
z
" style="fill: #ffffff"/>
   </g>
   <g id="line2d_1"/>
   <g id="line2d_2"/>
   <g id="line2d_3"/>
   <g id="line2d_4">
    <path d="M 448.448292 293.76 
L 448.476875 286.095208 
L 449.759157 286.095208 
L 449.759157 282.262812 
L 450.677586 282.262812 
L 450.677586 278.430416 
L 451.282984 278.430416 
L 451.282984 274.59802 
L 451.848413 274.59802 
L 451.89893 266.933228 
L 452.056931 266.933228 
L 452.056931 263.100832 
L 453.042178 263.100832 
L 453.111442 251.603644 
L 455.354905 251.603644 
L 455.354905 247.771248 
L 456.11088 247.771248 
L 456.11088 243.938851 
L 457.330856 243.938851 
L 457.330856 240.106455 
L 457.541878 240.106455 
L 457.541878 236.274059 
L 458.815946 236.274059 
L 458.815946 232.441663 
L 459.663694 232.441663 
L 459.663694 228.609267 
L 460.89513 228.609267 
L 460.89513 224.776871 
L 461.176716 224.776871 
L 461.176716 220.944475 
L 461.8 220.944475 
L 461.8 220.944475 
" clip-path="url(#p5f3abeb77e)" style="fill: none; stroke: #f5deb3; stroke-width: 1.5; stroke-linecap: square"/>
   </g>
   <g id="line2d_5"/>
   <g id="line2d_6"/>
   <g id="line2d_7">
    <path d="M 447.055721 293.76 
L 447.121582 286.095208 
L 447.238484 286.095208 
L 447.238484 282.262812 
L 447.558749 282.262812 
L 447.558749 278.430416 
L 448.068223 278.430416 
L 448.068223 274.59802 
L 448.391083 274.59802 
L 448.391083 270.765624 
L 448.808119 270.765624 
L 448.808119 266.933228 
L 449.088011 266.933228 
L 449.151595 259.268436 
L 449.825496 259.268436 
L 449.881301 251.603644 
L 449.957944 251.603644 
L 449.957944 247.771248 
L 450.069244 247.771248 
L 450.069244 243.938851 
L 452.421701 243.938851 
L 452.421701 240.106455 
L 461.8 240.106455 
L 461.8 240.106455 
" clip-path="url(#p5f3abeb77e)" style="fill: none; stroke: #f5deb3; stroke-width: 1.5; stroke-linecap: square"/>
   </g>
   <g id="line2d_8"/>
   <g id="line2d_9">
    <path d="M 444.53002 293.76 
L 444.53002 289.927604 
L 445.025124 289.927604 
L 445.025124 286.095208 
L 445.286194 286.095208 
L 445.286194 282.262812 
L 445.549847 282.262812 
L 445.549847 278.430416 
L 446.069841 278.430416 
L 446.069841 274.59802 
L 446.374416 274.59802 
L 446.374416 270.765624 
L 446.916432 270.765624 
L 446.916432 266.933228 
L 447.117925 266.933228 
L 447.117925 263.100832 
L 447.351508 263.100832 
L 447.398839 255.43604 
L 447.5406 255.43604 
L 447.642162 247.771248 
L 447.656657 247.771248 
L 447.667525 240.106455 
L 448.294415 240.106455 
L 448.294415 236.274059 
L 452.278076 236.274059 
L 452.278076 232.441663 
L 457.86456 232.441663 
L 457.86456 228.609267 
L 458.558574 228.609267 
L 458.666451 217.112079 
L 459.000784 217.112079 
L 459.000784 213.279683 
L 459.13754 213.279683 
L 459.13754 209.447287 
L 459.401217 209.447287 
L 459.472115 197.950099 
L 459.622484 197.950099 
L 459.622484 194.117703 
L 459.822369 194.117703 
L 459.822369 190.285307 
L 460.68448 190.285307 
L 460.68448 186.452911 
L 460.99873 186.452911 
L 460.99873 182.620515 
L 461.587999 182.620515 
L 461.587999 178.788119 
L 461.786874 178.788119 
L 461.786874 174.955723 
L 461.8 174.955723 
" clip-path="url(#p5f3abeb77e)" style="fill: none; stroke: #f5deb3; stroke-width: 1.5; stroke-linecap: square"/>
   </g>
   <g id="line2d_10"/>
   <g id="line2d_11">
    <path clip-path="url(#p5f3abeb77e)" style="fill: none; stroke: #f5deb3; stroke-width: 1.5; stroke-linecap: square"/>
   </g>
   <g id="line2d_12">
    <path clip-path="url(#p5f3abeb77e)" style="fill: none; stroke: #f5deb3; stroke-width: 1.5; stroke-linecap: square"/>
   </g>
   <g id="line2d_13"/>
   <g id="line2d_14"/>
   <g id="line2d_15"/>
   <g id="line2d_16">
    <path clip-path="url(#p5f3abeb77e)" style="fill: none; stroke: #f5deb3; stroke-width: 1.5; stroke-linecap: square"/>
   </g>
   <g id="line2d_17">
    <path clip-path="url(#p5f3abeb77e)" style="fill: none; stroke: #f5deb3; stroke-width: 1.5; stroke-linecap: square"/>
   </g>
   <g id="line2d_18">
    <path d="M 412.362234 293.76 
L 412.362234 289.927604 
L 421.068772 289.927604 
L 421.068772 286.095208 
L 423.227744 286.095208 
L 423.227744 282.262812 
L 424.556803 282.262812 
L 424.556803 278.430416 
L 425.014566 278.430416 
L 425.014566 274.59802 
L 427.636172 274.59802 
L 427.636172 270.765624 
L 435.025752 270.765624 
L 435.025752 266.933228 
L 441.539279 266.933228 
L 441.539279 263.100832 
L 441.876673 263.100832 
L 441.876673 259.268436 
L 441.952715 259.268436 
L 441.952715 255.43604 
L 449.013742 255.43604 
L 449.013742 251.603644 
L 455.633247 251.603644 
L 455.633247 247.771248 
L 459.696052 247.771248 
L 459.696052 243.938851 
L 461.8 243.938851 
" clip-path="url(#p5f3abeb77e)" style="fill: none; stroke: #f5deb3; stroke-width: 1.5; stroke-linecap: square"/>
   </g>
   <g id="line2d_19"/>
   <g id="line2d_20"/>
   <g id="line2d_21"/>
   <g id="line2d_22"/>
   <g id="line2d_23"/>
   <g id="line2d_24">
    <path d="M 0 0 
" clip-path="url(#p5f3abeb77e)" style="fill: none; stroke: #f5deb3; stroke-width: 1.5; stroke-linecap: square"/>
   </g>
   <g id="line2d_25"/>
   <g id="line2d_26">
    <path clip-path="url(#p5f3abeb77e)" style="fill: none; stroke: #f5deb3; stroke-width: 1.5; stroke-linecap: square"/>
   </g>
   <g id="line2d_27">
    <path d="M 437.432655 293.76 
L 437.432655 289.927604 
L 437.78196 289.927604 
L 437.78196 286.095208 
L 438.372247 286.095208 
L 438.372247 282.262812 
L 439.526664 282.262812 
L 439.526664 278.430416 
L 440.768771 278.430416 
L 440.768771 274.59802 
L 446.670022 274.59802 
L 446.670022 270.765624 
L 449.769637 270.765624 
L 449.769637 266.933228 
L 451.767494 266.933228 
L 451.767494 263.100832 
L 456.785984 263.100832 
L 456.785984 259.268436 
L 457.198958 259.268436 
L 457.198958 255.43604 
L 461.8 255.43604 
" clip-path="url(#p5f3abeb77e)" style="fill: none; stroke: #f5deb3; stroke-width: 1.5; stroke-linecap: square"/>
   </g>
   <g id="line2d_28">
    <path d="M 444.884642 293.76 
L 444.98719 286.095208 
L 445.187959 286.095208 
L 445.187959 282.262812 
L 445.666223 282.262812 
L 445.748671 274.59802 
L 446.155433 274.59802 
L 446.155433 270.765624 
L 446.381825 270.765624 
L 446.381825 266.933228 
L 447.329649 266.933228 
L 447.329649 263.100832 
L 447.504284 263.100832 
L 447.580521 255.43604 
L 448.619578 255.43604 
L 448.619578 251.603644 
L 449.172774 251.603644 
L 449.172774 247.771248 
L 449.964907 247.771248 
L 450.017099 240.106455 
L 450.076193 240.106455 
L 450.076193 236.274059 
L 450.308507 236.274059 
L 450.308507 232.441663 
L 450.749746 232.441663 
L 450.749746 228.609267 
L 451.55454 228.609267 
L 451.55454 224.776871 
L 452.264698 224.776871 
L 452.264698 220.944475 
L 452.501709 220.944475 
L 452.501709 217.112079 
L 453.675642 217.112079 
L 453.675642 213.279683 
L 454.130836 213.279683 
L 454.130836 209.447287 
L 454.874144 209.447287 
L 454.874144 205.614891 
L 455.386603 205.614891 
L 455.386603 201.782495 
L 456.229673 201.782495 
L 456.229673 197.950099 
L 458.076667 197.950099 
L 458.137126 190.285307 
L 458.696381 190.285307 
L 458.696381 186.452911 
L 458.902476 186.452911 
L 458.902476 182.620515 
L 459.942555 182.620515 
L 459.942555 178.788119 
L 461.362728 178.788119 
L 461.42555 171.123327 
L 461.8 171.123327 
L 461.8 171.123327 
" clip-path="url(#p5f3abeb77e)" style="fill: none; stroke: #f5deb3; stroke-width: 1.5; stroke-linecap: square"/>
   </g>
   <g id="line2d_29"/>
   <g id="line2d_30"/>
   <g id="matplotlib.axis_1">
    <g id="xtick_1">
     <g id="line2d_31">
      <path d="M 62.208 293.76 
L 62.208 3.456 
" clip-path="url(#p5f3abeb77e)" style="fill: none; stroke: #b0b0b0; stroke-width: 0.8; stroke-linecap: square"/>
     </g>
     <g id="line2d_32">
      <defs>
       <path id="ma6ff50b157" d="M 0 0 
L 0 3.5 
" style="stroke: #000000; stroke-width: 0.8"/>
      </defs>
      <g>
       <use xlink:href="#ma6ff50b157" x="62.208" y="293.76" style="stroke: #000000; stroke-width: 0.8"/>
      </g>
     </g>
     <g id="text_1">
      <!-- 0 -->
      <g transform="translate(55.8455 315.956875) scale(0.2 -0.2)">
       <defs>
        <path id="DejaVuSans-30" d="M 2034 4250 
Q 1547 4250 1301 3770 
Q 1056 3291 1056 2328 
Q 1056 1369 1301 889 
Q 1547 409 2034 409 
Q 2525 409 2770 889 
Q 3016 1369 3016 2328 
Q 3016 3291 2770 3770 
Q 2525 4250 2034 4250 
z
M 2034 4750 
Q 2819 4750 3233 4129 
Q 3647 3509 3647 2328 
Q 3647 1150 3233 529 
Q 2819 -91 2034 -91 
Q 1250 -91 836 529 
Q 422 1150 422 2328 
Q 422 3509 836 4129 
Q 1250 4750 2034 4750 
z
" transform="scale(0.015625)"/>
       </defs>
       <use xlink:href="#DejaVuSans-30"/>
      </g>
     </g>
    </g>
    <g id="xtick_2">
     <g id="line2d_33">
      <path d="M 327.936 293.76 
L 327.936 3.456 
" clip-path="url(#p5f3abeb77e)" style="fill: none; stroke: #b0b0b0; stroke-width: 0.8; stroke-linecap: square"/>
     </g>
     <g id="line2d_34">
      <g>
       <use xlink:href="#ma6ff50b157" x="327.936" y="293.76" style="stroke: #000000; stroke-width: 0.8"/>
      </g>
     </g>
     <g id="text_2">
      <!-- 2 -->
      <g transform="translate(321.5735 315.956875) scale(0.2 -0.2)">
       <defs>
        <path id="DejaVuSans-32" d="M 1228 531 
L 3431 531 
L 3431 0 
L 469 0 
L 469 531 
Q 828 903 1448 1529 
Q 2069 2156 2228 2338 
Q 2531 2678 2651 2914 
Q 2772 3150 2772 3378 
Q 2772 3750 2511 3984 
Q 2250 4219 1831 4219 
Q 1534 4219 1204 4116 
Q 875 4013 500 3803 
L 500 4441 
Q 881 4594 1212 4672 
Q 1544 4750 1819 4750 
Q 2544 4750 2975 4387 
Q 3406 4025 3406 3419 
Q 3406 3131 3298 2873 
Q 3191 2616 2906 2266 
Q 2828 2175 2409 1742 
Q 1991 1309 1228 531 
z
" transform="scale(0.015625)"/>
       </defs>
       <use xlink:href="#DejaVuSans-32"/>
      </g>
     </g>
    </g>
    <g id="xtick_3">
     <g id="line2d_35">
      <path d="M 102.204049 293.76 
L 102.204049 3.456 
" clip-path="url(#p5f3abeb77e)" style="fill: none; stroke: #b0b0b0; stroke-width: 0.8; stroke-linecap: square"/>
     </g>
     <g id="line2d_36">
      <defs>
       <path id="macb4193365" d="M 0 0 
L 0 2 
" style="stroke: #000000; stroke-width: 0.6"/>
      </defs>
      <g>
       <use xlink:href="#macb4193365" x="102.204049" y="293.76" style="stroke: #000000; stroke-width: 0.6"/>
      </g>
     </g>
    </g>
    <g id="xtick_4">
     <g id="line2d_37">
      <path d="M 125.600238 293.76 
L 125.600238 3.456 
" clip-path="url(#p5f3abeb77e)" style="fill: none; stroke: #b0b0b0; stroke-width: 0.8; stroke-linecap: square"/>
     </g>
     <g id="line2d_38">
      <g>
       <use xlink:href="#macb4193365" x="125.600238" y="293.76" style="stroke: #000000; stroke-width: 0.6"/>
      </g>
     </g>
    </g>
    <g id="xtick_5">
     <g id="line2d_39">
      <path d="M 142.200099 293.76 
L 142.200099 3.456 
" clip-path="url(#p5f3abeb77e)" style="fill: none; stroke: #b0b0b0; stroke-width: 0.8; stroke-linecap: square"/>
     </g>
     <g id="line2d_40">
      <g>
       <use xlink:href="#macb4193365" x="142.200099" y="293.76" style="stroke: #000000; stroke-width: 0.6"/>
      </g>
     </g>
    </g>
    <g id="xtick_6">
     <g id="line2d_41">
      <path d="M 155.075951 293.76 
L 155.075951 3.456 
" clip-path="url(#p5f3abeb77e)" style="fill: none; stroke: #b0b0b0; stroke-width: 0.8; stroke-linecap: square"/>
     </g>
     <g id="line2d_42">
      <g>
       <use xlink:href="#macb4193365" x="155.075951" y="293.76" style="stroke: #000000; stroke-width: 0.6"/>
      </g>
     </g>
    </g>
    <g id="xtick_7">
     <g id="line2d_43">
      <path d="M 165.596288 293.76 
L 165.596288 3.456 
" clip-path="url(#p5f3abeb77e)" style="fill: none; stroke: #b0b0b0; stroke-width: 0.8; stroke-linecap: square"/>
     </g>
     <g id="line2d_44">
      <g>
       <use xlink:href="#macb4193365" x="165.596288" y="293.76" style="stroke: #000000; stroke-width: 0.6"/>
      </g>
     </g>
    </g>
    <g id="xtick_8">
     <g id="line2d_45">
      <path d="M 174.491106 293.76 
L 174.491106 3.456 
" clip-path="url(#p5f3abeb77e)" style="fill: none; stroke: #b0b0b0; stroke-width: 0.8; stroke-linecap: square"/>
     </g>
     <g id="line2d_46">
      <g>
       <use xlink:href="#macb4193365" x="174.491106" y="293.76" style="stroke: #000000; stroke-width: 0.6"/>
      </g>
     </g>
    </g>
    <g id="xtick_9">
     <g id="line2d_47">
      <path d="M 182.196148 293.76 
L 182.196148 3.456 
" clip-path="url(#p5f3abeb77e)" style="fill: none; stroke: #b0b0b0; stroke-width: 0.8; stroke-linecap: square"/>
     </g>
     <g id="line2d_48">
      <g>
       <use xlink:href="#macb4193365" x="182.196148" y="293.76" style="stroke: #000000; stroke-width: 0.6"/>
      </g>
     </g>
    </g>
    <g id="xtick_10">
     <g id="line2d_49">
      <path d="M 188.992477 293.76 
L 188.992477 3.456 
" clip-path="url(#p5f3abeb77e)" style="fill: none; stroke: #b0b0b0; stroke-width: 0.8; stroke-linecap: square"/>
     </g>
     <g id="line2d_50">
      <g>
       <use xlink:href="#macb4193365" x="188.992477" y="293.76" style="stroke: #000000; stroke-width: 0.6"/>
      </g>
     </g>
    </g>
    <g id="xtick_11">
     <g id="line2d_51">
      <path d="M 235.068049 293.76 
L 235.068049 3.456 
" clip-path="url(#p5f3abeb77e)" style="fill: none; stroke: #b0b0b0; stroke-width: 0.8; stroke-linecap: square"/>
     </g>
     <g id="line2d_52">
      <g>
       <use xlink:href="#macb4193365" x="235.068049" y="293.76" style="stroke: #000000; stroke-width: 0.6"/>
      </g>
     </g>
    </g>
    <g id="xtick_12">
     <g id="line2d_53">
      <path d="M 258.464238 293.76 
L 258.464238 3.456 
" clip-path="url(#p5f3abeb77e)" style="fill: none; stroke: #b0b0b0; stroke-width: 0.8; stroke-linecap: square"/>
     </g>
     <g id="line2d_54">
      <g>
       <use xlink:href="#macb4193365" x="258.464238" y="293.76" style="stroke: #000000; stroke-width: 0.6"/>
      </g>
     </g>
    </g>
    <g id="xtick_13">
     <g id="line2d_55">
      <path d="M 275.064099 293.76 
L 275.064099 3.456 
" clip-path="url(#p5f3abeb77e)" style="fill: none; stroke: #b0b0b0; stroke-width: 0.8; stroke-linecap: square"/>
     </g>
     <g id="line2d_56">
      <g>
       <use xlink:href="#macb4193365" x="275.064099" y="293.76" style="stroke: #000000; stroke-width: 0.6"/>
      </g>
     </g>
    </g>
    <g id="xtick_14">
     <g id="line2d_57">
      <path d="M 287.939951 293.76 
L 287.939951 3.456 
" clip-path="url(#p5f3abeb77e)" style="fill: none; stroke: #b0b0b0; stroke-width: 0.8; stroke-linecap: square"/>
     </g>
     <g id="line2d_58">
      <g>
       <use xlink:href="#macb4193365" x="287.939951" y="293.76" style="stroke: #000000; stroke-width: 0.6"/>
      </g>
     </g>
    </g>
    <g id="xtick_15">
     <g id="line2d_59">
      <path d="M 298.460288 293.76 
L 298.460288 3.456 
" clip-path="url(#p5f3abeb77e)" style="fill: none; stroke: #b0b0b0; stroke-width: 0.8; stroke-linecap: square"/>
     </g>
     <g id="line2d_60">
      <g>
       <use xlink:href="#macb4193365" x="298.460288" y="293.76" style="stroke: #000000; stroke-width: 0.6"/>
      </g>
     </g>
    </g>
    <g id="xtick_16">
     <g id="line2d_61">
      <path d="M 307.355106 293.76 
L 307.355106 3.456 
" clip-path="url(#p5f3abeb77e)" style="fill: none; stroke: #b0b0b0; stroke-width: 0.8; stroke-linecap: square"/>
     </g>
     <g id="line2d_62">
      <g>
       <use xlink:href="#macb4193365" x="307.355106" y="293.76" style="stroke: #000000; stroke-width: 0.6"/>
      </g>
     </g>
    </g>
    <g id="xtick_17">
     <g id="line2d_63">
      <path d="M 315.060148 293.76 
L 315.060148 3.456 
" clip-path="url(#p5f3abeb77e)" style="fill: none; stroke: #b0b0b0; stroke-width: 0.8; stroke-linecap: square"/>
     </g>
     <g id="line2d_64">
      <g>
       <use xlink:href="#macb4193365" x="315.060148" y="293.76" style="stroke: #000000; stroke-width: 0.6"/>
      </g>
     </g>
    </g>
    <g id="xtick_18">
     <g id="line2d_65">
      <path d="M 321.856477 293.76 
L 321.856477 3.456 
" clip-path="url(#p5f3abeb77e)" style="fill: none; stroke: #b0b0b0; stroke-width: 0.8; stroke-linecap: square"/>
     </g>
     <g id="line2d_66">
      <g>
       <use xlink:href="#macb4193365" x="321.856477" y="293.76" style="stroke: #000000; stroke-width: 0.6"/>
      </g>
     </g>
    </g>
    <g id="xtick_19">
     <g id="line2d_67">
      <path d="M 367.932049 293.76 
L 367.932049 3.456 
" clip-path="url(#p5f3abeb77e)" style="fill: none; stroke: #b0b0b0; stroke-width: 0.8; stroke-linecap: square"/>
     </g>
     <g id="line2d_68">
      <g>
       <use xlink:href="#macb4193365" x="367.932049" y="293.76" style="stroke: #000000; stroke-width: 0.6"/>
      </g>
     </g>
    </g>
    <g id="xtick_20">
     <g id="line2d_69">
      <path d="M 391.328238 293.76 
L 391.328238 3.456 
" clip-path="url(#p5f3abeb77e)" style="fill: none; stroke: #b0b0b0; stroke-width: 0.8; stroke-linecap: square"/>
     </g>
     <g id="line2d_70">
      <g>
       <use xlink:href="#macb4193365" x="391.328238" y="293.76" style="stroke: #000000; stroke-width: 0.6"/>
      </g>
     </g>
    </g>
    <g id="xtick_21">
     <g id="line2d_71">
      <path d="M 407.928099 293.76 
L 407.928099 3.456 
" clip-path="url(#p5f3abeb77e)" style="fill: none; stroke: #b0b0b0; stroke-width: 0.8; stroke-linecap: square"/>
     </g>
     <g id="line2d_72">
      <g>
       <use xlink:href="#macb4193365" x="407.928099" y="293.76" style="stroke: #000000; stroke-width: 0.6"/>
      </g>
     </g>
    </g>
    <g id="xtick_22">
     <g id="line2d_73">
      <path d="M 420.803951 293.76 
L 420.803951 3.456 
" clip-path="url(#p5f3abeb77e)" style="fill: none; stroke: #b0b0b0; stroke-width: 0.8; stroke-linecap: square"/>
     </g>
     <g id="line2d_74">
      <g>
       <use xlink:href="#macb4193365" x="420.803951" y="293.76" style="stroke: #000000; stroke-width: 0.6"/>
      </g>
     </g>
    </g>
    <g id="xtick_23">
     <g id="line2d_75">
      <path d="M 431.324288 293.76 
L 431.324288 3.456 
" clip-path="url(#p5f3abeb77e)" style="fill: none; stroke: #b0b0b0; stroke-width: 0.8; stroke-linecap: square"/>
     </g>
     <g id="line2d_76">
      <g>
       <use xlink:href="#macb4193365" x="431.324288" y="293.76" style="stroke: #000000; stroke-width: 0.6"/>
      </g>
     </g>
    </g>
    <g id="xtick_24">
     <g id="line2d_77">
      <path d="M 440.219106 293.76 
L 440.219106 3.456 
" clip-path="url(#p5f3abeb77e)" style="fill: none; stroke: #b0b0b0; stroke-width: 0.8; stroke-linecap: square"/>
     </g>
     <g id="line2d_78">
      <g>
       <use xlink:href="#macb4193365" x="440.219106" y="293.76" style="stroke: #000000; stroke-width: 0.6"/>
      </g>
     </g>
    </g>
    <g id="xtick_25">
     <g id="line2d_79">
      <path d="M 447.924148 293.76 
L 447.924148 3.456 
" clip-path="url(#p5f3abeb77e)" style="fill: none; stroke: #b0b0b0; stroke-width: 0.8; stroke-linecap: square"/>
     </g>
     <g id="line2d_80">
      <g>
       <use xlink:href="#macb4193365" x="447.924148" y="293.76" style="stroke: #000000; stroke-width: 0.6"/>
      </g>
     </g>
    </g>
    <g id="xtick_26">
     <g id="line2d_81">
      <path d="M 454.720477 293.76 
L 454.720477 3.456 
" clip-path="url(#p5f3abeb77e)" style="fill: none; stroke: #b0b0b0; stroke-width: 0.8; stroke-linecap: square"/>
     </g>
     <g id="line2d_82">
      <g>
       <use xlink:href="#macb4193365" x="454.720477" y="293.76" style="stroke: #000000; stroke-width: 0.6"/>
      </g>
     </g>
    </g>
    <g id="text_3">
     <!-- log10 of FEvals / DIM -->
     <g transform="translate(156.430563 339.313125) scale(0.2 -0.2)">
      <defs>
       <path id="DejaVuSans-6c" d="M 603 4863 
L 1178 4863 
L 1178 0 
L 603 0 
L 603 4863 
z
" transform="scale(0.015625)"/>
       <path id="DejaVuSans-6f" d="M 1959 3097 
Q 1497 3097 1228 2736 
Q 959 2375 959 1747 
Q 959 1119 1226 758 
Q 1494 397 1959 397 
Q 2419 397 2687 759 
Q 2956 1122 2956 1747 
Q 2956 2369 2687 2733 
Q 2419 3097 1959 3097 
z
M 1959 3584 
Q 2709 3584 3137 3096 
Q 3566 2609 3566 1747 
Q 3566 888 3137 398 
Q 2709 -91 1959 -91 
Q 1206 -91 779 398 
Q 353 888 353 1747 
Q 353 2609 779 3096 
Q 1206 3584 1959 3584 
z
" transform="scale(0.015625)"/>
       <path id="DejaVuSans-67" d="M 2906 1791 
Q 2906 2416 2648 2759 
Q 2391 3103 1925 3103 
Q 1463 3103 1205 2759 
Q 947 2416 947 1791 
Q 947 1169 1205 825 
Q 1463 481 1925 481 
Q 2391 481 2648 825 
Q 2906 1169 2906 1791 
z
M 3481 434 
Q 3481 -459 3084 -895 
Q 2688 -1331 1869 -1331 
Q 1566 -1331 1297 -1286 
Q 1028 -1241 775 -1147 
L 775 -588 
Q 1028 -725 1275 -790 
Q 1522 -856 1778 -856 
Q 2344 -856 2625 -561 
Q 2906 -266 2906 331 
L 2906 616 
Q 2728 306 2450 153 
Q 2172 0 1784 0 
Q 1141 0 747 490 
Q 353 981 353 1791 
Q 353 2603 747 3093 
Q 1141 3584 1784 3584 
Q 2172 3584 2450 3431 
Q 2728 3278 2906 2969 
L 2906 3500 
L 3481 3500 
L 3481 434 
z
" transform="scale(0.015625)"/>
       <path id="DejaVuSans-31" d="M 794 531 
L 1825 531 
L 1825 4091 
L 703 3866 
L 703 4441 
L 1819 4666 
L 2450 4666 
L 2450 531 
L 3481 531 
L 3481 0 
L 794 0 
L 794 531 
z
" transform="scale(0.015625)"/>
       <path id="DejaVuSans-20" transform="scale(0.015625)"/>
       <path id="DejaVuSans-66" d="M 2375 4863 
L 2375 4384 
L 1825 4384 
Q 1516 4384 1395 4259 
Q 1275 4134 1275 3809 
L 1275 3500 
L 2222 3500 
L 2222 3053 
L 1275 3053 
L 1275 0 
L 697 0 
L 697 3053 
L 147 3053 
L 147 3500 
L 697 3500 
L 697 3744 
Q 697 4328 969 4595 
Q 1241 4863 1831 4863 
L 2375 4863 
z
" transform="scale(0.015625)"/>
       <path id="DejaVuSans-46" d="M 628 4666 
L 3309 4666 
L 3309 4134 
L 1259 4134 
L 1259 2759 
L 3109 2759 
L 3109 2228 
L 1259 2228 
L 1259 0 
L 628 0 
L 628 4666 
z
" transform="scale(0.015625)"/>
       <path id="DejaVuSans-45" d="M 628 4666 
L 3578 4666 
L 3578 4134 
L 1259 4134 
L 1259 2753 
L 3481 2753 
L 3481 2222 
L 1259 2222 
L 1259 531 
L 3634 531 
L 3634 0 
L 628 0 
L 628 4666 
z
" transform="scale(0.015625)"/>
       <path id="DejaVuSans-76" d="M 191 3500 
L 800 3500 
L 1894 563 
L 2988 3500 
L 3597 3500 
L 2284 0 
L 1503 0 
L 191 3500 
z
" transform="scale(0.015625)"/>
       <path id="DejaVuSans-61" d="M 2194 1759 
Q 1497 1759 1228 1600 
Q 959 1441 959 1056 
Q 959 750 1161 570 
Q 1363 391 1709 391 
Q 2188 391 2477 730 
Q 2766 1069 2766 1631 
L 2766 1759 
L 2194 1759 
z
M 3341 1997 
L 3341 0 
L 2766 0 
L 2766 531 
Q 2569 213 2275 61 
Q 1981 -91 1556 -91 
Q 1019 -91 701 211 
Q 384 513 384 1019 
Q 384 1609 779 1909 
Q 1175 2209 1959 2209 
L 2766 2209 
L 2766 2266 
Q 2766 2663 2505 2880 
Q 2244 3097 1772 3097 
Q 1472 3097 1187 3025 
Q 903 2953 641 2809 
L 641 3341 
Q 956 3463 1253 3523 
Q 1550 3584 1831 3584 
Q 2591 3584 2966 3190 
Q 3341 2797 3341 1997 
z
" transform="scale(0.015625)"/>
       <path id="DejaVuSans-73" d="M 2834 3397 
L 2834 2853 
Q 2591 2978 2328 3040 
Q 2066 3103 1784 3103 
Q 1356 3103 1142 2972 
Q 928 2841 928 2578 
Q 928 2378 1081 2264 
Q 1234 2150 1697 2047 
L 1894 2003 
Q 2506 1872 2764 1633 
Q 3022 1394 3022 966 
Q 3022 478 2636 193 
Q 2250 -91 1575 -91 
Q 1294 -91 989 -36 
Q 684 19 347 128 
L 347 722 
Q 666 556 975 473 
Q 1284 391 1588 391 
Q 1994 391 2212 530 
Q 2431 669 2431 922 
Q 2431 1156 2273 1281 
Q 2116 1406 1581 1522 
L 1381 1569 
Q 847 1681 609 1914 
Q 372 2147 372 2553 
Q 372 3047 722 3315 
Q 1072 3584 1716 3584 
Q 2034 3584 2315 3537 
Q 2597 3491 2834 3397 
z
" transform="scale(0.015625)"/>
       <path id="DejaVuSans-2f" d="M 1625 4666 
L 2156 4666 
L 531 -594 
L 0 -594 
L 1625 4666 
z
" transform="scale(0.015625)"/>
       <path id="DejaVuSans-44" d="M 1259 4147 
L 1259 519 
L 2022 519 
Q 2988 519 3436 956 
Q 3884 1394 3884 2338 
Q 3884 3275 3436 3711 
Q 2988 4147 2022 4147 
L 1259 4147 
z
M 628 4666 
L 1925 4666 
Q 3281 4666 3915 4102 
Q 4550 3538 4550 2338 
Q 4550 1131 3912 565 
Q 3275 0 1925 0 
L 628 0 
L 628 4666 
z
" transform="scale(0.015625)"/>
       <path id="DejaVuSans-49" d="M 628 4666 
L 1259 4666 
L 1259 0 
L 628 0 
L 628 4666 
z
" transform="scale(0.015625)"/>
       <path id="DejaVuSans-4d" d="M 628 4666 
L 1569 4666 
L 2759 1491 
L 3956 4666 
L 4897 4666 
L 4897 0 
L 4281 0 
L 4281 4097 
L 3078 897 
L 2444 897 
L 1241 4097 
L 1241 0 
L 628 0 
L 628 4666 
z
" transform="scale(0.015625)"/>
      </defs>
      <use xlink:href="#DejaVuSans-6c"/>
      <use xlink:href="#DejaVuSans-6f" x="27.783203"/>
      <use xlink:href="#DejaVuSans-67" x="88.964844"/>
      <use xlink:href="#DejaVuSans-31" x="152.441406"/>
      <use xlink:href="#DejaVuSans-30" x="216.064453"/>
      <use xlink:href="#DejaVuSans-20" x="279.6875"/>
      <use xlink:href="#DejaVuSans-6f" x="311.474609"/>
      <use xlink:href="#DejaVuSans-66" x="372.65625"/>
      <use xlink:href="#DejaVuSans-20" x="407.861328"/>
      <use xlink:href="#DejaVuSans-46" x="439.648438"/>
      <use xlink:href="#DejaVuSans-45" x="497.167969"/>
      <use xlink:href="#DejaVuSans-76" x="560.351562"/>
      <use xlink:href="#DejaVuSans-61" x="619.53125"/>
      <use xlink:href="#DejaVuSans-6c" x="680.810547"/>
      <use xlink:href="#DejaVuSans-73" x="708.59375"/>
      <use xlink:href="#DejaVuSans-20" x="760.693359"/>
      <use xlink:href="#DejaVuSans-2f" x="792.480469"/>
      <use xlink:href="#DejaVuSans-20" x="826.171875"/>
      <use xlink:href="#DejaVuSans-44" x="857.958984"/>
      <use xlink:href="#DejaVuSans-49" x="934.960938"/>
      <use xlink:href="#DejaVuSans-4d" x="964.453125"/>
     </g>
    </g>
   </g>
   <g id="matplotlib.axis_2">
    <g id="ytick_1">
     <g id="line2d_83">
      <path d="M 62.208 293.76 
L 460.8 293.76 
" clip-path="url(#p5f3abeb77e)" style="fill: none; stroke: #b0b0b0; stroke-width: 0.8; stroke-linecap: square"/>
     </g>
     <g id="line2d_84">
      <defs>
       <path id="m75e561d214" d="M 0 0 
L -3.5 0 
" style="stroke: #000000; stroke-width: 0.8"/>
      </defs>
      <g>
       <use xlink:href="#m75e561d214" x="62.208" y="293.76" style="stroke: #000000; stroke-width: 0.8"/>
      </g>
     </g>
     <g id="text_4">
      <!-- 0.0 -->
      <g transform="translate(29.763 299.83875) scale(0.16 -0.16)">
       <defs>
        <path id="DejaVuSans-2e" d="M 684 794 
L 1344 794 
L 1344 0 
L 684 0 
L 684 794 
z
" transform="scale(0.015625)"/>
       </defs>
       <use xlink:href="#DejaVuSans-30"/>
       <use xlink:href="#DejaVuSans-2e" x="63.623047"/>
       <use xlink:href="#DejaVuSans-30" x="95.410156"/>
      </g>
     </g>
    </g>
    <g id="ytick_2">
     <g id="line2d_85">
      <path d="M 62.208 236.274059 
L 460.8 236.274059 
" clip-path="url(#p5f3abeb77e)" style="fill: none; stroke: #b0b0b0; stroke-width: 0.8; stroke-linecap: square"/>
     </g>
     <g id="line2d_86">
      <g>
       <use xlink:href="#m75e561d214" x="62.208" y="236.274059" style="stroke: #000000; stroke-width: 0.8"/>
      </g>
     </g>
     <g id="text_5">
      <!-- 0.2 -->
      <g transform="translate(29.763 242.352809) scale(0.16 -0.16)">
       <use xlink:href="#DejaVuSans-30"/>
       <use xlink:href="#DejaVuSans-2e" x="63.623047"/>
       <use xlink:href="#DejaVuSans-32" x="95.410156"/>
      </g>
     </g>
    </g>
    <g id="ytick_3">
     <g id="line2d_87">
      <path d="M 62.208 178.788119 
L 460.8 178.788119 
" clip-path="url(#p5f3abeb77e)" style="fill: none; stroke: #b0b0b0; stroke-width: 0.8; stroke-linecap: square"/>
     </g>
     <g id="line2d_88">
      <g>
       <use xlink:href="#m75e561d214" x="62.208" y="178.788119" style="stroke: #000000; stroke-width: 0.8"/>
      </g>
     </g>
     <g id="text_6">
      <!-- 0.4 -->
      <g transform="translate(29.763 184.866869) scale(0.16 -0.16)">
       <defs>
        <path id="DejaVuSans-34" d="M 2419 4116 
L 825 1625 
L 2419 1625 
L 2419 4116 
z
M 2253 4666 
L 3047 4666 
L 3047 1625 
L 3713 1625 
L 3713 1100 
L 3047 1100 
L 3047 0 
L 2419 0 
L 2419 1100 
L 313 1100 
L 313 1709 
L 2253 4666 
z
" transform="scale(0.015625)"/>
       </defs>
       <use xlink:href="#DejaVuSans-30"/>
       <use xlink:href="#DejaVuSans-2e" x="63.623047"/>
       <use xlink:href="#DejaVuSans-34" x="95.410156"/>
      </g>
     </g>
    </g>
    <g id="ytick_4">
     <g id="line2d_89">
      <path d="M 62.208 121.302178 
L 460.8 121.302178 
" clip-path="url(#p5f3abeb77e)" style="fill: none; stroke: #b0b0b0; stroke-width: 0.8; stroke-linecap: square"/>
     </g>
     <g id="line2d_90">
      <g>
       <use xlink:href="#m75e561d214" x="62.208" y="121.302178" style="stroke: #000000; stroke-width: 0.8"/>
      </g>
     </g>
     <g id="text_7">
      <!-- 0.6 -->
      <g transform="translate(29.763 127.380928) scale(0.16 -0.16)">
       <defs>
        <path id="DejaVuSans-36" d="M 2113 2584 
Q 1688 2584 1439 2293 
Q 1191 2003 1191 1497 
Q 1191 994 1439 701 
Q 1688 409 2113 409 
Q 2538 409 2786 701 
Q 3034 994 3034 1497 
Q 3034 2003 2786 2293 
Q 2538 2584 2113 2584 
z
M 3366 4563 
L 3366 3988 
Q 3128 4100 2886 4159 
Q 2644 4219 2406 4219 
Q 1781 4219 1451 3797 
Q 1122 3375 1075 2522 
Q 1259 2794 1537 2939 
Q 1816 3084 2150 3084 
Q 2853 3084 3261 2657 
Q 3669 2231 3669 1497 
Q 3669 778 3244 343 
Q 2819 -91 2113 -91 
Q 1303 -91 875 529 
Q 447 1150 447 2328 
Q 447 3434 972 4092 
Q 1497 4750 2381 4750 
Q 2619 4750 2861 4703 
Q 3103 4656 3366 4563 
z
" transform="scale(0.015625)"/>
       </defs>
       <use xlink:href="#DejaVuSans-30"/>
       <use xlink:href="#DejaVuSans-2e" x="63.623047"/>
       <use xlink:href="#DejaVuSans-36" x="95.410156"/>
      </g>
     </g>
    </g>
    <g id="ytick_5">
     <g id="line2d_91">
      <path d="M 62.208 63.816238 
L 460.8 63.816238 
" clip-path="url(#p5f3abeb77e)" style="fill: none; stroke: #b0b0b0; stroke-width: 0.8; stroke-linecap: square"/>
     </g>
     <g id="line2d_92">
      <g>
       <use xlink:href="#m75e561d214" x="62.208" y="63.816238" style="stroke: #000000; stroke-width: 0.8"/>
      </g>
     </g>
     <g id="text_8">
      <!-- 0.8 -->
      <g transform="translate(29.763 69.894988) scale(0.16 -0.16)">
       <defs>
        <path id="DejaVuSans-38" d="M 2034 2216 
Q 1584 2216 1326 1975 
Q 1069 1734 1069 1313 
Q 1069 891 1326 650 
Q 1584 409 2034 409 
Q 2484 409 2743 651 
Q 3003 894 3003 1313 
Q 3003 1734 2745 1975 
Q 2488 2216 2034 2216 
z
M 1403 2484 
Q 997 2584 770 2862 
Q 544 3141 544 3541 
Q 544 4100 942 4425 
Q 1341 4750 2034 4750 
Q 2731 4750 3128 4425 
Q 3525 4100 3525 3541 
Q 3525 3141 3298 2862 
Q 3072 2584 2669 2484 
Q 3125 2378 3379 2068 
Q 3634 1759 3634 1313 
Q 3634 634 3220 271 
Q 2806 -91 2034 -91 
Q 1263 -91 848 271 
Q 434 634 434 1313 
Q 434 1759 690 2068 
Q 947 2378 1403 2484 
z
M 1172 3481 
Q 1172 3119 1398 2916 
Q 1625 2713 2034 2713 
Q 2441 2713 2670 2916 
Q 2900 3119 2900 3481 
Q 2900 3844 2670 4047 
Q 2441 4250 2034 4250 
Q 1625 4250 1398 4047 
Q 1172 3844 1172 3481 
z
" transform="scale(0.015625)"/>
       </defs>
       <use xlink:href="#DejaVuSans-30"/>
       <use xlink:href="#DejaVuSans-2e" x="63.623047"/>
       <use xlink:href="#DejaVuSans-38" x="95.410156"/>
      </g>
     </g>
    </g>
    <g id="ytick_6">
     <g id="line2d_93">
      <path d="M 62.208 6.330297 
L 460.8 6.330297 
" clip-path="url(#p5f3abeb77e)" style="fill: none; stroke: #b0b0b0; stroke-width: 0.8; stroke-linecap: square"/>
     </g>
     <g id="line2d_94">
      <g>
       <use xlink:href="#m75e561d214" x="62.208" y="6.330297" style="stroke: #000000; stroke-width: 0.8"/>
      </g>
     </g>
     <g id="text_9">
      <!-- 1.0 -->
      <g transform="translate(29.763 12.409047) scale(0.16 -0.16)">
       <use xlink:href="#DejaVuSans-31"/>
       <use xlink:href="#DejaVuSans-2e" x="63.623047"/>
       <use xlink:href="#DejaVuSans-30" x="95.410156"/>
      </g>
     </g>
    </g>
    <g id="text_10">
     <!-- proportion of trials -->
     <g transform="translate(21.603625 241.61425) rotate(-90) scale(0.2 -0.2)">
      <defs>
       <path id="DejaVuSans-70" d="M 1159 525 
L 1159 -1331 
L 581 -1331 
L 581 3500 
L 1159 3500 
L 1159 2969 
Q 1341 3281 1617 3432 
Q 1894 3584 2278 3584 
Q 2916 3584 3314 3078 
Q 3713 2572 3713 1747 
Q 3713 922 3314 415 
Q 2916 -91 2278 -91 
Q 1894 -91 1617 61 
Q 1341 213 1159 525 
z
M 3116 1747 
Q 3116 2381 2855 2742 
Q 2594 3103 2138 3103 
Q 1681 3103 1420 2742 
Q 1159 2381 1159 1747 
Q 1159 1113 1420 752 
Q 1681 391 2138 391 
Q 2594 391 2855 752 
Q 3116 1113 3116 1747 
z
" transform="scale(0.015625)"/>
       <path id="DejaVuSans-72" d="M 2631 2963 
Q 2534 3019 2420 3045 
Q 2306 3072 2169 3072 
Q 1681 3072 1420 2755 
Q 1159 2438 1159 1844 
L 1159 0 
L 581 0 
L 581 3500 
L 1159 3500 
L 1159 2956 
Q 1341 3275 1631 3429 
Q 1922 3584 2338 3584 
Q 2397 3584 2469 3576 
Q 2541 3569 2628 3553 
L 2631 2963 
z
" transform="scale(0.015625)"/>
       <path id="DejaVuSans-74" d="M 1172 4494 
L 1172 3500 
L 2356 3500 
L 2356 3053 
L 1172 3053 
L 1172 1153 
Q 1172 725 1289 603 
Q 1406 481 1766 481 
L 2356 481 
L 2356 0 
L 1766 0 
Q 1100 0 847 248 
Q 594 497 594 1153 
L 594 3053 
L 172 3053 
L 172 3500 
L 594 3500 
L 594 4494 
L 1172 4494 
z
" transform="scale(0.015625)"/>
       <path id="DejaVuSans-69" d="M 603 3500 
L 1178 3500 
L 1178 0 
L 603 0 
L 603 3500 
z
M 603 4863 
L 1178 4863 
L 1178 4134 
L 603 4134 
L 603 4863 
z
" transform="scale(0.015625)"/>
       <path id="DejaVuSans-6e" d="M 3513 2113 
L 3513 0 
L 2938 0 
L 2938 2094 
Q 2938 2591 2744 2837 
Q 2550 3084 2163 3084 
Q 1697 3084 1428 2787 
Q 1159 2491 1159 1978 
L 1159 0 
L 581 0 
L 581 3500 
L 1159 3500 
L 1159 2956 
Q 1366 3272 1645 3428 
Q 1925 3584 2291 3584 
Q 2894 3584 3203 3211 
Q 3513 2838 3513 2113 
z
" transform="scale(0.015625)"/>
      </defs>
      <use xlink:href="#DejaVuSans-70"/>
      <use xlink:href="#DejaVuSans-72" x="63.476562"/>
      <use xlink:href="#DejaVuSans-6f" x="102.339844"/>
      <use xlink:href="#DejaVuSans-70" x="163.521484"/>
      <use xlink:href="#DejaVuSans-6f" x="226.998047"/>
      <use xlink:href="#DejaVuSans-72" x="288.179688"/>
      <use xlink:href="#DejaVuSans-74" x="329.292969"/>
      <use xlink:href="#DejaVuSans-69" x="368.501953"/>
      <use xlink:href="#DejaVuSans-6f" x="396.285156"/>
      <use xlink:href="#DejaVuSans-6e" x="457.466797"/>
      <use xlink:href="#DejaVuSans-20" x="520.845703"/>
      <use xlink:href="#DejaVuSans-6f" x="552.632812"/>
      <use xlink:href="#DejaVuSans-66" x="613.814453"/>
      <use xlink:href="#DejaVuSans-20" x="649.019531"/>
      <use xlink:href="#DejaVuSans-74" x="680.806641"/>
      <use xlink:href="#DejaVuSans-72" x="720.015625"/>
      <use xlink:href="#DejaVuSans-69" x="761.128906"/>
      <use xlink:href="#DejaVuSans-61" x="788.912109"/>
      <use xlink:href="#DejaVuSans-6c" x="850.191406"/>
      <use xlink:href="#DejaVuSans-73" x="877.974609"/>
     </g>
    </g>
   </g>
   <g id="line2d_95">
    <path d="M 192.112269 293.76 
L 192.112269 289.927604 
L 209.090505 289.927604 
L 209.090505 286.095208 
L 213.656895 286.095208 
L 213.656895 282.262812 
L 216.511998 282.262812 
L 216.511998 278.430416 
L 219.421965 278.430416 
L 219.421965 270.765624 
L 221.100011 270.765624 
L 221.100011 266.933228 
L 221.283484 266.933228 
L 221.283484 263.100832 
L 222.909003 263.100832 
L 222.909003 259.268436 
L 223.086822 259.268436 
L 223.086822 251.603644 
L 223.440823 251.603644 
L 223.440823 247.771248 
L 225.690365 247.771248 
L 225.690365 243.938851 
L 233.459014 243.938851 
L 233.459014 240.106455 
L 234.778815 240.106455 
L 234.778815 236.274059 
L 304.525384 236.274059 
L 304.525384 232.441663 
L 305.299343 232.441663 
L 305.299343 228.609267 
L 306.566644 228.609267 
L 306.566644 224.776871 
L 306.816798 224.776871 
L 306.816798 220.944475 
L 307.929261 220.944475 
L 307.929261 217.112079 
L 308.538153 217.112079 
L 308.538153 213.279683 
L 309.657841 213.279683 
L 309.657841 209.447287 
L 311.066233 209.447287 
L 311.066233 205.614891 
L 312.214191 205.614891 
L 312.214191 201.782495 
L 313.302588 201.782495 
L 313.302588 197.950099 
L 314.662076 197.950099 
L 314.662076 194.117703 
L 315.634303 194.117703 
L 315.634303 190.285307 
L 316.835737 190.285307 
L 316.835737 186.452911 
L 318.21789 186.452911 
L 318.21789 182.620515 
L 328.281178 182.620515 
L 328.281178 174.955723 
L 329.219907 174.955723 
L 329.219907 171.123327 
L 329.332661 171.123327 
L 329.332661 167.290931 
L 330.806223 167.290931 
L 330.806223 163.458535 
L 331.461316 163.458535 
L 331.461316 159.626139 
L 331.813076 159.626139 
L 331.813076 155.793743 
L 331.974707 155.793743 
L 332.08221 148.12895 
L 332.563509 148.12895 
L 332.563509 144.296554 
L 339.740244 144.296554 
L 339.740244 140.464158 
L 366.174489 140.464158 
L 366.174489 136.631762 
L 369.441245 136.631762 
L 369.441245 132.799366 
L 369.595623 132.799366 
L 369.595623 128.96697 
L 370.733604 128.96697 
L 370.733604 125.134574 
L 370.92567 125.134574 
L 371.007789 117.469782 
L 371.552281 117.469782 
L 371.552281 113.637386 
L 372.185562 113.637386 
L 372.185562 109.80499 
L 372.65268 109.80499 
L 372.65268 105.972594 
L 373.628024 105.972594 
L 373.628024 102.140198 
L 373.745531 102.140198 
L 373.745531 98.307802 
L 374.161403 98.307802 
L 374.161403 94.475406 
L 376.396623 94.475406 
L 376.396623 90.64301 
L 377.921011 90.64301 
L 377.921011 86.810614 
L 378.990824 86.810614 
L 378.990824 82.978218 
L 381.370629 82.978218 
L 381.370629 79.145822 
L 389.352147 79.145822 
L 389.352147 75.313426 
L 399.709704 75.313426 
L 399.709704 71.48103 
L 400.984622 71.48103 
L 400.984622 67.648634 
L 405.127588 67.648634 
L 405.127588 63.816238 
L 407.070653 63.816238 
L 407.070653 59.983842 
L 411.02435 59.983842 
L 411.099496 52.31905 
L 411.181362 52.31905 
L 411.181362 48.486653 
L 411.629563 48.486653 
L 411.629563 44.654257 
L 412.728428 44.654257 
L 412.728428 40.821861 
L 413.302978 40.821861 
L 413.302978 36.989465 
L 414.196288 36.989465 
L 414.273879 29.324673 
L 414.8717 29.324673 
L 414.8717 25.492277 
L 415.55194 25.492277 
L 415.55194 21.659881 
L 418.885552 21.659881 
L 418.885552 17.827485 
L 421.034299 17.827485 
L 421.034299 13.995089 
L 423.189001 13.995089 
L 423.189001 10.162693 
L 425.93518 10.162693 
L 425.93518 6.330297 
L 425.93518 6.330297 
L 460.8 6.330297 
L 460.8 6.330297 
" clip-path="url(#p5f3abeb77e)" style="fill: none; stroke: #000000; stroke-width: 1.5; stroke-linecap: square"/>
   </g>
   <g id="line2d_96">
    <path clip-path="url(#p5f3abeb77e)" style="fill: none; stroke: #000000; stroke-width: 1.5; stroke-linecap: square"/>
   </g>
   <g id="line2d_97">
    <path d="M 288.799055 293.76 
L 288.799055 286.095208 
L 290.313927 286.095208 
L 290.313927 278.430416 
L 290.974646 278.430416 
L 290.974646 274.59802 
L 292.220258 274.59802 
L 292.220258 270.765624 
L 292.434168 270.765624 
L 292.434168 266.933228 
L 293.07118 266.933228 
L 293.07118 263.100832 
L 297.294549 263.100832 
L 297.294549 259.268436 
L 297.685751 259.268436 
L 297.685751 255.43604 
L 298.267626 255.43604 
L 298.267626 251.603644 
L 299.129582 251.603644 
L 299.129582 247.771248 
L 299.650064 247.771248 
L 299.650064 243.938851 
L 300.723405 243.938851 
L 300.723405 240.106455 
L 303.959885 240.106455 
L 303.959885 236.274059 
L 340.580581 236.274059 
L 340.580581 232.441663 
L 341.111125 232.441663 
L 341.111125 228.609267 
L 344.152312 228.609267 
L 344.152312 224.776871 
L 348.996706 224.776871 
L 348.996706 220.944475 
L 380.565042 220.944475 
L 380.565042 213.279683 
L 381.072722 213.279683 
L 381.072722 205.614891 
L 381.961868 205.614891 
L 381.961868 201.782495 
L 382.580693 201.782495 
L 382.580693 197.950099 
L 383.170802 197.950099 
L 383.259353 190.285307 
L 384.300638 190.285307 
L 384.344072 182.620515 
L 384.571566 182.620515 
L 384.657995 174.955723 
L 386.044619 174.955723 
L 386.044619 167.290931 
L 389.142774 167.290931 
L 389.142774 163.458535 
L 395.025193 163.458535 
L 395.025193 159.626139 
L 403.802629 159.626139 
L 403.802629 155.793743 
L 409.605686 155.793743 
L 409.605686 151.961347 
L 411.08584 151.961347 
L 411.08584 148.12895 
L 413.065927 148.12895 
L 413.065927 144.296554 
L 413.191158 144.296554 
L 413.191158 140.464158 
L 420.218196 140.464158 
L 420.218196 136.631762 
L 421.068772 136.631762 
L 421.114704 128.96697 
L 421.708516 128.96697 
L 421.708516 125.134574 
L 421.991843 125.134574 
L 422.037046 117.469782 
L 422.234396 117.469782 
L 422.234396 113.637386 
L 423.641223 113.637386 
L 423.668683 105.972594 
L 423.866012 105.972594 
L 423.866012 102.140198 
L 424.475643 102.140198 
L 424.475643 98.307802 
L 425.987948 98.307802 
L 425.987948 94.475406 
L 426.382179 94.475406 
L 426.382179 90.64301 
L 426.903666 90.64301 
L 426.903666 86.810614 
L 427.410191 86.810614 
L 427.410191 82.978218 
L 427.958202 82.978218 
L 427.958202 79.145822 
L 429.655889 79.145822 
L 429.655889 75.313426 
L 429.804185 75.313426 
L 429.902838 67.648634 
L 431.102671 67.648634 
L 431.102671 63.816238 
L 431.333904 63.816238 
L 431.333904 59.983842 
L 431.817451 59.983842 
L 431.817451 56.151446 
L 432.330066 56.151446 
L 432.330066 52.31905 
L 433.313968 52.31905 
L 433.313968 48.486653 
L 434.189936 48.486653 
L 434.189936 44.654257 
L 436.50389 44.654257 
L 436.50389 40.821861 
L 437.20729 40.821861 
L 437.20729 36.989465 
L 442.947979 36.989465 
L 442.947979 33.157069 
L 446.599953 33.157069 
L 446.599953 29.324673 
L 448.58037 29.324673 
L 448.58037 25.492277 
L 455.202514 25.492277 
L 455.202514 21.659881 
L 455.89455 21.659881 
L 455.89455 17.827485 
L 456.646633 17.827485 
L 456.646633 13.995089 
L 459.196898 13.995089 
L 459.196898 10.162693 
L 460.412095 10.162693 
L 460.412095 6.330297 
L 460.412095 6.330297 
L 460.8 6.330297 
L 460.8 6.330297 
" clip-path="url(#p5f3abeb77e)" style="fill: none; stroke: #00bfbf; stroke-width: 1.5; stroke-linecap: square"/>
   </g>
   <g id="line2d_98">
    <path clip-path="url(#p5f3abeb77e)" style="fill: none; stroke: #00bfbf; stroke-width: 1.5; stroke-linecap: square"/>
   </g>
   <g id="line2d_99">
    <path d="M 370.829717 293.76 
L 370.829717 289.927604 
L 375.099043 289.927604 
L 375.099043 286.095208 
L 375.568529 286.095208 
L 375.66954 278.430416 
L 376.409079 278.430416 
L 376.409079 274.59802 
L 376.645233 274.59802 
L 376.645233 270.765624 
L 376.806256 270.765624 
L 376.806256 266.933228 
L 378.126896 266.933228 
L 378.126896 263.100832 
L 378.416311 263.100832 
L 378.416311 259.268436 
L 378.919322 259.268436 
L 378.919322 255.43604 
L 379.536082 255.43604 
L 379.536082 251.603644 
L 379.912376 251.603644 
L 379.912376 247.771248 
L 380.309517 247.771248 
L 380.309517 243.938851 
L 381.107175 243.938851 
L 381.107175 240.106455 
L 382.018399 240.106455 
L 382.018399 236.274059 
L 390.816272 236.274059 
L 390.816272 232.441663 
L 391.902393 232.441663 
L 391.988026 224.776871 
L 392.282014 224.776871 
L 392.282014 220.944475 
L 392.612145 220.944475 
L 392.612145 217.112079 
L 392.874897 217.112079 
L 392.874897 209.447287 
L 394.299028 209.447287 
L 394.299028 205.614891 
L 394.417653 205.614891 
L 394.417653 201.782495 
L 394.962017 201.782495 
L 394.962017 197.950099 
L 395.079288 197.950099 
L 395.142336 190.285307 
L 396.097587 190.285307 
L 396.097587 186.452911 
L 396.801602 186.452911 
L 396.801602 182.620515 
L 399.584817 182.620515 
L 399.584817 178.788119 
L 421.906991 178.788119 
L 421.906991 174.955723 
L 429.961949 174.955723 
L 429.961949 171.123327 
L 430.290877 171.123327 
L 430.290877 167.290931 
L 430.603335 167.290931 
L 430.603335 163.458535 
L 430.977032 163.458535 
L 430.977032 159.626139 
L 431.17021 159.626139 
L 431.17021 155.793743 
L 431.969812 155.793743 
L 431.969812 148.12895 
L 432.09331 148.12895 
L 432.09331 144.296554 
L 432.334791 144.296554 
L 432.334791 140.464158 
L 432.927095 140.464158 
L 432.927095 136.631762 
L 434.372667 136.631762 
L 434.459263 128.96697 
L 434.908379 128.96697 
L 434.908379 125.134574 
L 435.030261 125.134574 
L 435.10687 113.637386 
L 436.631224 113.637386 
L 436.631224 109.80499 
L 437.419677 109.80499 
L 437.419677 105.972594 
L 441.527193 105.972594 
L 441.527193 102.140198 
L 443.195115 102.140198 
L 443.195115 98.307802 
L 443.460682 98.307802 
L 443.460682 94.475406 
L 447.147175 94.475406 
L 447.147175 90.64301 
L 447.267673 90.64301 
L 447.267673 86.810614 
L 447.938572 86.810614 
L 447.938572 82.978218 
L 449.091546 82.978218 
L 449.091546 79.145822 
L 449.260936 79.145822 
L 449.260936 75.313426 
L 449.870841 75.313426 
L 449.870841 71.48103 
L 451.047736 71.48103 
L 451.047736 67.648634 
L 451.479989 67.648634 
L 451.479989 63.816238 
L 453.926443 63.816238 
L 453.926443 59.983842 
L 454.389344 59.983842 
L 454.389344 56.151446 
L 457.75213 56.151446 
L 457.75213 52.31905 
L 457.75213 52.31905 
L 460.8 52.31905 
L 460.8 52.31905 
" clip-path="url(#p5f3abeb77e)" style="fill: none; stroke: #bf00bf; stroke-width: 1.5; stroke-linecap: square"/>
   </g>
   <g id="line2d_100">
    <path clip-path="url(#p5f3abeb77e)" style="fill: none; stroke: #bf00bf; stroke-width: 1.5; stroke-linecap: square"/>
   </g>
   <g id="line2d_101">
    <path d="M 402.311536 293.76 
L 402.311536 289.927604 
L 402.533711 289.927604 
L 402.533711 286.095208 
L 403.054051 286.095208 
L 403.054051 282.262812 
L 403.460736 282.262812 
L 403.460736 278.430416 
L 404.173308 278.430416 
L 404.173308 274.59802 
L 404.587494 274.59802 
L 404.587494 270.765624 
L 404.823932 270.765624 
L 404.823932 266.933228 
L 405.157866 266.933228 
L 405.157866 263.100832 
L 405.218374 263.100832 
L 405.218374 259.268436 
L 405.655171 259.268436 
L 405.655171 255.43604 
L 405.81251 255.43604 
L 405.81251 251.603644 
L 406.177974 251.603644 
L 406.177974 247.771248 
L 406.777078 247.771248 
L 406.777078 243.938851 
L 407.631615 243.938851 
L 407.631615 240.106455 
L 408.63778 240.106455 
L 408.63778 236.274059 
L 427.59002 236.274059 
L 427.59002 232.441663 
L 432.348965 232.441663 
L 432.348965 228.609267 
L 432.594085 228.609267 
L 432.594085 224.776871 
L 433.001875 224.776871 
L 433.001875 220.944475 
L 433.034561 220.944475 
L 433.034561 217.112079 
L 433.062563 217.112079 
L 433.062563 213.279683 
L 433.545778 213.279683 
L 433.545778 209.447287 
L 433.550405 209.447287 
L 433.550405 205.614891 
L 433.702879 205.614891 
L 433.702879 201.782495 
L 434.395468 201.782495 
L 434.395468 197.950099 
L 435.398851 197.950099 
L 435.398851 194.117703 
L 435.591199 194.117703 
L 435.591199 190.285307 
L 435.684904 190.285307 
L 435.684904 186.452911 
L 435.902959 186.452911 
L 435.902959 182.620515 
L 436.027192 182.620515 
L 436.027192 178.788119 
L 436.788904 178.788119 
L 436.788904 174.955723 
L 437.063811 174.955723 
L 437.063811 171.123327 
L 437.220315 171.123327 
L 437.220315 167.290931 
L 437.78196 167.290931 
L 437.78196 163.458535 
L 437.940819 163.458535 
L 437.940819 159.626139 
L 438.116342 159.626139 
L 438.116342 155.793743 
L 438.210306 155.793743 
L 438.210306 151.961347 
L 439.250697 151.961347 
L 439.250697 148.12895 
L 439.826221 148.12895 
L 439.826221 144.296554 
L 439.95472 144.296554 
L 439.95472 140.464158 
L 440.041605 140.464158 
L 440.041605 136.631762 
L 440.095326 136.631762 
L 440.095326 132.799366 
L 440.383734 132.799366 
L 440.383734 128.96697 
L 441.061965 128.96697 
L 441.061965 125.134574 
L 442.032651 125.134574 
L 442.032651 121.302178 
L 457.852416 121.302178 
L 457.852416 117.469782 
L 459.208763 117.469782 
L 459.208763 113.637386 
L 460.539755 113.637386 
L 460.539755 109.80499 
L 460.539755 109.80499 
L 460.539755 109.80499 
L 460.8 109.80499 
" clip-path="url(#p5f3abeb77e)" style="fill: none; stroke: #ff0000; stroke-width: 3; stroke-linecap: square"/>
   </g>
   <g id="line2d_102">
    <path clip-path="url(#p5f3abeb77e)" style="fill: none; stroke: #ff0000; stroke-width: 3; stroke-linecap: square"/>
   </g>
   <g id="line2d_103">
    <path d="M 460.8 293.76 
L 460.8 3.456 
" clip-path="url(#p5f3abeb77e)" style="fill: none; stroke: #000000; stroke-width: 1.5; stroke-linecap: square"/>
   </g>
   <g id="patch_3">
    <path d="M 62.208 293.76 
L 62.208 3.456 
" style="fill: none; stroke: #000000; stroke-width: 0.8; stroke-linejoin: miter; stroke-linecap: square"/>
   </g>
   <g id="patch_4">
    <path d="M 460.8 293.76 
L 460.8 3.456 
" style="fill: none; stroke: #000000; stroke-width: 0.8; stroke-linejoin: miter; stroke-linecap: square"/>
   </g>
   <g id="patch_5">
    <path d="M 62.208 293.76 
L 460.8 293.76 
" style="fill: none; stroke: #000000; stroke-width: 0.8; stroke-linejoin: miter; stroke-linecap: square"/>
   </g>
   <g id="patch_6">
    <path d="M 62.208 3.456 
L 460.8 3.456 
" style="fill: none; stroke: #000000; stroke-width: 0.8; stroke-linejoin: miter; stroke-linecap: square"/>
   </g>
   <g id="text_11">
    <!-- {f10-f14}, 20-D -->
    <g transform="translate(182.2915 24.458955) scale(0.2 -0.2)">
     <defs>
      <path id="DejaVuSans-7b" d="M 3272 -594 
L 3272 -1044 
L 3078 -1044 
Q 2300 -1044 2036 -812 
Q 1772 -581 1772 109 
L 1772 856 
Q 1772 1328 1603 1509 
Q 1434 1691 991 1691 
L 800 1691 
L 800 2138 
L 991 2138 
Q 1438 2138 1605 2317 
Q 1772 2497 1772 2963 
L 1772 3713 
Q 1772 4403 2036 4633 
Q 2300 4863 3078 4863 
L 3272 4863 
L 3272 4416 
L 3059 4416 
Q 2619 4416 2484 4278 
Q 2350 4141 2350 3700 
L 2350 2925 
Q 2350 2434 2208 2212 
Q 2066 1991 1722 1913 
Q 2069 1828 2209 1606 
Q 2350 1384 2350 897 
L 2350 122 
Q 2350 -319 2484 -456 
Q 2619 -594 3059 -594 
L 3272 -594 
z
" transform="scale(0.015625)"/>
      <path id="DejaVuSans-2d" d="M 313 2009 
L 1997 2009 
L 1997 1497 
L 313 1497 
L 313 2009 
z
" transform="scale(0.015625)"/>
      <path id="DejaVuSans-7d" d="M 800 -594 
L 1019 -594 
Q 1456 -594 1589 -459 
Q 1722 -325 1722 122 
L 1722 897 
Q 1722 1384 1862 1606 
Q 2003 1828 2350 1913 
Q 2003 1991 1862 2212 
Q 1722 2434 1722 2925 
L 1722 3700 
Q 1722 4144 1589 4280 
Q 1456 4416 1019 4416 
L 800 4416 
L 800 4863 
L 997 4863 
Q 1775 4863 2036 4633 
Q 2297 4403 2297 3713 
L 2297 2963 
Q 2297 2497 2465 2317 
Q 2634 2138 3078 2138 
L 3272 2138 
L 3272 1691 
L 3078 1691 
Q 2634 1691 2465 1509 
Q 2297 1328 2297 856 
L 2297 109 
Q 2297 -581 2036 -812 
Q 1775 -1044 997 -1044 
L 800 -1044 
L 800 -594 
z
" transform="scale(0.015625)"/>
      <path id="DejaVuSans-2c" d="M 750 794 
L 1409 794 
L 1409 256 
L 897 -744 
L 494 -744 
L 750 256 
L 750 794 
z
" transform="scale(0.015625)"/>
     </defs>
     <use xlink:href="#DejaVuSans-7b"/>
     <use xlink:href="#DejaVuSans-66" x="63.623047"/>
     <use xlink:href="#DejaVuSans-31" x="98.828125"/>
     <use xlink:href="#DejaVuSans-30" x="162.451172"/>
     <use xlink:href="#DejaVuSans-2d" x="226.074219"/>
     <use xlink:href="#DejaVuSans-66" x="262.158203"/>
     <use xlink:href="#DejaVuSans-31" x="297.363281"/>
     <use xlink:href="#DejaVuSans-34" x="360.986328"/>
     <use xlink:href="#DejaVuSans-7d" x="424.609375"/>
     <use xlink:href="#DejaVuSans-2c" x="488.232422"/>
     <use xlink:href="#DejaVuSans-20" x="520.019531"/>
     <use xlink:href="#DejaVuSans-32" x="551.806641"/>
     <use xlink:href="#DejaVuSans-30" x="615.429688"/>
     <use xlink:href="#DejaVuSans-2d" x="679.052734"/>
     <use xlink:href="#DejaVuSans-44" x="715.136719"/>
    </g>
   </g>
   <g id="text_12">
    <!-- absolute targets -->
    <g transform="translate(62.208 609.932673) scale(0.14 -0.14)">
     <defs>
      <path id="DejaVuSans-62" d="M 3116 1747 
Q 3116 2381 2855 2742 
Q 2594 3103 2138 3103 
Q 1681 3103 1420 2742 
Q 1159 2381 1159 1747 
Q 1159 1113 1420 752 
Q 1681 391 2138 391 
Q 2594 391 2855 752 
Q 3116 1113 3116 1747 
z
M 1159 2969 
Q 1341 3281 1617 3432 
Q 1894 3584 2278 3584 
Q 2916 3584 3314 3078 
Q 3713 2572 3713 1747 
Q 3713 922 3314 415 
Q 2916 -91 2278 -91 
Q 1894 -91 1617 61 
Q 1341 213 1159 525 
L 1159 0 
L 581 0 
L 581 4863 
L 1159 4863 
L 1159 2969 
z
" transform="scale(0.015625)"/>
      <path id="DejaVuSans-75" d="M 544 1381 
L 544 3500 
L 1119 3500 
L 1119 1403 
Q 1119 906 1312 657 
Q 1506 409 1894 409 
Q 2359 409 2629 706 
Q 2900 1003 2900 1516 
L 2900 3500 
L 3475 3500 
L 3475 0 
L 2900 0 
L 2900 538 
Q 2691 219 2414 64 
Q 2138 -91 1772 -91 
Q 1169 -91 856 284 
Q 544 659 544 1381 
z
M 1991 3584 
L 1991 3584 
z
" transform="scale(0.015625)"/>
      <path id="DejaVuSans-65" d="M 3597 1894 
L 3597 1613 
L 953 1613 
Q 991 1019 1311 708 
Q 1631 397 2203 397 
Q 2534 397 2845 478 
Q 3156 559 3463 722 
L 3463 178 
Q 3153 47 2828 -22 
Q 2503 -91 2169 -91 
Q 1331 -91 842 396 
Q 353 884 353 1716 
Q 353 2575 817 3079 
Q 1281 3584 2069 3584 
Q 2775 3584 3186 3129 
Q 3597 2675 3597 1894 
z
M 3022 2063 
Q 3016 2534 2758 2815 
Q 2500 3097 2075 3097 
Q 1594 3097 1305 2825 
Q 1016 2553 972 2059 
L 3022 2063 
z
" transform="scale(0.015625)"/>
     </defs>
     <use xlink:href="#DejaVuSans-61"/>
     <use xlink:href="#DejaVuSans-62" x="61.279297"/>
     <use xlink:href="#DejaVuSans-73" x="124.755859"/>
     <use xlink:href="#DejaVuSans-6f" x="176.855469"/>
     <use xlink:href="#DejaVuSans-6c" x="238.037109"/>
     <use xlink:href="#DejaVuSans-75" x="265.820312"/>
     <use xlink:href="#DejaVuSans-74" x="329.199219"/>
     <use xlink:href="#DejaVuSans-65" x="368.408203"/>
     <use xlink:href="#DejaVuSans-20" x="429.931641"/>
     <use xlink:href="#DejaVuSans-74" x="461.71875"/>
     <use xlink:href="#DejaVuSans-61" x="500.927734"/>
     <use xlink:href="#DejaVuSans-72" x="562.207031"/>
     <use xlink:href="#DejaVuSans-67" x="601.570312"/>
     <use xlink:href="#DejaVuSans-65" x="665.046875"/>
     <use xlink:href="#DejaVuSans-74" x="726.570312"/>
     <use xlink:href="#DejaVuSans-73" x="765.779297"/>
    </g>
   </g>
   <g id="text_13">
    <!-- v2.6.3 -->
    <g style="fill: #808080" transform="translate(245.82275 288.777272) scale(0.1 -0.1)">
     <defs>
      <path id="DejaVuSans-33" d="M 2597 2516 
Q 3050 2419 3304 2112 
Q 3559 1806 3559 1356 
Q 3559 666 3084 287 
Q 2609 -91 1734 -91 
Q 1441 -91 1130 -33 
Q 819 25 488 141 
L 488 750 
Q 750 597 1062 519 
Q 1375 441 1716 441 
Q 2309 441 2620 675 
Q 2931 909 2931 1356 
Q 2931 1769 2642 2001 
Q 2353 2234 1838 2234 
L 1294 2234 
L 1294 2753 
L 1863 2753 
Q 2328 2753 2575 2939 
Q 2822 3125 2822 3475 
Q 2822 3834 2567 4026 
Q 2313 4219 1838 4219 
Q 1578 4219 1281 4162 
Q 984 4106 628 3988 
L 628 4550 
Q 988 4650 1302 4700 
Q 1616 4750 1894 4750 
Q 2613 4750 3031 4423 
Q 3450 4097 3450 3541 
Q 3450 3153 3228 2886 
Q 3006 2619 2597 2516 
z
" transform="scale(0.015625)"/>
     </defs>
     <use xlink:href="#DejaVuSans-76"/>
     <use xlink:href="#DejaVuSans-32" x="59.179688"/>
     <use xlink:href="#DejaVuSans-2e" x="122.802734"/>
     <use xlink:href="#DejaVuSans-36" x="154.589844"/>
     <use xlink:href="#DejaVuSans-2e" x="218.212891"/>
     <use xlink:href="#DejaVuSans-33" x="250"/>
    </g>
   </g>
   <g id="legend_1">
    <g id="patch_7">
     <path d="M 76.208 136.881 
L 205.429875 136.881 
Q 209.429875 136.881 209.429875 132.881 
L 209.429875 17.456 
Q 209.429875 13.456 205.429875 13.456 
L 76.208 13.456 
Q 72.208 13.456 72.208 17.456 
L 72.208 132.881 
Q 72.208 136.881 76.208 136.881 
z
" style="fill: #ffffff; opacity: 0.2; stroke: #cccccc; stroke-linejoin: miter"/>
    </g>
    <g id="line2d_104">
     <path d="M 80.208 29.652875 
L 80.208 29.652875 
L 100.208 29.652875 
L 100.208 29.652875 
L 120.208 29.652875 
" style="fill: none; stroke: #000000; stroke-width: 1.5; stroke-linecap: square"/>
    </g>
    <g id="text_14">
     <!-- 1: 5/5 -->
     <g transform="translate(136.208 36.652875) scale(0.2 -0.2)">
      <defs>
       <path id="DejaVuSans-3a" d="M 750 794 
L 1409 794 
L 1409 0 
L 750 0 
L 750 794 
z
M 750 3309 
L 1409 3309 
L 1409 2516 
L 750 2516 
L 750 3309 
z
" transform="scale(0.015625)"/>
       <path id="DejaVuSans-35" d="M 691 4666 
L 3169 4666 
L 3169 4134 
L 1269 4134 
L 1269 2991 
Q 1406 3038 1543 3061 
Q 1681 3084 1819 3084 
Q 2600 3084 3056 2656 
Q 3513 2228 3513 1497 
Q 3513 744 3044 326 
Q 2575 -91 1722 -91 
Q 1428 -91 1123 -41 
Q 819 9 494 109 
L 494 744 
Q 775 591 1075 516 
Q 1375 441 1709 441 
Q 2250 441 2565 725 
Q 2881 1009 2881 1497 
Q 2881 1984 2565 2268 
Q 2250 2553 1709 2553 
Q 1456 2553 1204 2497 
Q 953 2441 691 2322 
L 691 4666 
z
" transform="scale(0.015625)"/>
      </defs>
      <use xlink:href="#DejaVuSans-31"/>
      <use xlink:href="#DejaVuSans-3a" x="63.623047"/>
      <use xlink:href="#DejaVuSans-20" x="97.314453"/>
      <use xlink:href="#DejaVuSans-35" x="129.101562"/>
      <use xlink:href="#DejaVuSans-2f" x="192.724609"/>
      <use xlink:href="#DejaVuSans-35" x="226.416016"/>
     </g>
    </g>
    <g id="line2d_105">
     <path d="M 80.208 59.009125 
L 80.208 59.009125 
L 100.208 59.009125 
L 100.208 59.009125 
L 120.208 59.009125 
" style="fill: none; stroke: #00bfbf; stroke-width: 1.5; stroke-linecap: square"/>
    </g>
    <g id="text_15">
     <!-- -1: 5/5 -->
     <g transform="translate(136.208 66.009125) scale(0.2 -0.2)">
      <use xlink:href="#DejaVuSans-2d"/>
      <use xlink:href="#DejaVuSans-31" x="36.083984"/>
      <use xlink:href="#DejaVuSans-3a" x="99.707031"/>
      <use xlink:href="#DejaVuSans-20" x="133.398438"/>
      <use xlink:href="#DejaVuSans-35" x="165.185547"/>
      <use xlink:href="#DejaVuSans-2f" x="228.808594"/>
      <use xlink:href="#DejaVuSans-35" x="262.5"/>
     </g>
    </g>
    <g id="line2d_106">
     <path d="M 80.208 88.365375 
L 80.208 88.365375 
L 100.208 88.365375 
L 100.208 88.365375 
L 120.208 88.365375 
" style="fill: none; stroke: #bf00bf; stroke-width: 1.5; stroke-linecap: square"/>
    </g>
    <g id="text_16">
     <!-- -4: 5/5 -->
     <g transform="translate(136.208 95.365375) scale(0.2 -0.2)">
      <use xlink:href="#DejaVuSans-2d"/>
      <use xlink:href="#DejaVuSans-34" x="36.083984"/>
      <use xlink:href="#DejaVuSans-3a" x="99.707031"/>
      <use xlink:href="#DejaVuSans-20" x="133.398438"/>
      <use xlink:href="#DejaVuSans-35" x="165.185547"/>
      <use xlink:href="#DejaVuSans-2f" x="228.808594"/>
      <use xlink:href="#DejaVuSans-35" x="262.5"/>
     </g>
    </g>
    <g id="line2d_107">
     <path d="M 80.208 117.721625 
L 80.208 117.721625 
L 100.208 117.721625 
L 100.208 117.721625 
L 120.208 117.721625 
" style="fill: none; stroke: #ff0000; stroke-width: 3; stroke-linecap: square"/>
    </g>
    <g id="text_17">
     <!-- -8: 5/5 -->
     <g transform="translate(136.208 124.721625) scale(0.2 -0.2)">
      <use xlink:href="#DejaVuSans-2d"/>
      <use xlink:href="#DejaVuSans-38" x="36.083984"/>
      <use xlink:href="#DejaVuSans-3a" x="99.707031"/>
      <use xlink:href="#DejaVuSans-20" x="133.398438"/>
      <use xlink:href="#DejaVuSans-35" x="165.185547"/>
      <use xlink:href="#DejaVuSans-2f" x="228.808594"/>
      <use xlink:href="#DejaVuSans-35" x="262.5"/>
     </g>
    </g>
   </g>
  </g>
 </g>
 <defs>
  <clipPath id="p5f3abeb77e">
   <rect x="62.208" y="3.456" width="398.592" height="290.304"/>
  </clipPath>
 </defs>
</svg>
