<?xml version="1.0" encoding="utf-8" standalone="no"?>
<!DOCTYPE svg PUBLIC "-//W3C//DTD SVG 1.1//EN"
  "http://www.w3.org/Graphics/SVG/1.1/DTD/svg11.dtd">
<svg xmlns:xlink="http://www.w3.org/1999/xlink" width="460.8pt" height="345.6pt" viewBox="0 0 460.8 345.6" xmlns="http://www.w3.org/2000/svg" version="1.1">
 <metadata>
  <rdf:RDF xmlns:dc="http://purl.org/dc/elements/1.1/" xmlns:cc="http://creativecommons.org/ns#" xmlns:rdf="http://www.w3.org/1999/02/22-rdf-syntax-ns#">
   <cc:Work>
    <dc:type rdf:resource="http://purl.org/dc/dcmitype/StillImage"/>
    <dc:date>2024-06-22T18:41:35.517708</dc:date>
    <dc:format>image/svg+xml</dc:format>
    <dc:creator>
     <cc:Agent>
      <dc:title>Matplotlib v3.7.5, https://matplotlib.org/</dc:title>
     </cc:Agent>
    </dc:creator>
   </cc:Work>
  </rdf:RDF>
 </metadata>
 <defs>
  <style type="text/css">*{stroke-linejoin: round; stroke-linecap: butt}</style>
 </defs>
 <g id="figure_1">
  <g id="patch_1">
   <path d="M 0 345.6 
L 460.8 345.6 
L 460.8 0 
L 0 0 
z
" style="fill: #ffffff"/>
  </g>
  <g id="axes_1">
   <g id="patch_2">
    <path d="M 0 293.76 
L 460.8 293.76 
L 460.8 3.456 
L 0 3.456 
z
" style="fill: #ffffff"/>
   </g>
   <g id="matplotlib.axis_1">
    <g id="xtick_1">
     <g id="line2d_1">
      <path d="M 93.278783 293.76 
L 93.278783 3.456 
" clip-path="url(#pb738dec056)" style="fill: none; stroke: #b0b0b0; stroke-width: 0.8; stroke-linecap: square"/>
     </g>
     <g id="line2d_2">
      <defs>
       <path id="m293b39fe1c" d="M 0 0 
L 0 3.5 
" style="stroke: #000000; stroke-width: 0.8"/>
      </defs>
      <g>
       <use xlink:href="#m293b39fe1c" x="93.278783" y="293.76" style="stroke: #000000; stroke-width: 0.8"/>
      </g>
     </g>
     <g id="text_1">
      <!-- -4 -->
      <g transform="translate(83.308471 315.956875) scale(0.2 -0.2)">
       <defs>
        <path id="DejaVuSans-2d" d="M 313 2009 
L 1997 2009 
L 1997 1497 
L 313 1497 
L 313 2009 
z
" transform="scale(0.015625)"/>
        <path id="DejaVuSans-34" d="M 2419 4116 
L 825 1625 
L 2419 1625 
L 2419 4116 
z
M 2253 4666 
L 3047 4666 
L 3047 1625 
L 3713 1625 
L 3713 1100 
L 3047 1100 
L 3047 0 
L 2419 0 
L 2419 1100 
L 313 1100 
L 313 1709 
L 2253 4666 
z
" transform="scale(0.015625)"/>
       </defs>
       <use xlink:href="#DejaVuSans-2d"/>
       <use xlink:href="#DejaVuSans-34" x="36.083984"/>
      </g>
     </g>
    </g>
    <g id="xtick_2">
     <g id="line2d_3">
      <path d="M 186.658449 293.76 
L 186.658449 3.456 
" clip-path="url(#pb738dec056)" style="fill: none; stroke: #b0b0b0; stroke-width: 0.8; stroke-linecap: square"/>
     </g>
     <g id="line2d_4">
      <g>
       <use xlink:href="#m293b39fe1c" x="186.658449" y="293.76" style="stroke: #000000; stroke-width: 0.8"/>
      </g>
     </g>
     <g id="text_2">
      <!-- 0 -->
      <g transform="translate(180.295949 315.956875) scale(0.2 -0.2)">
       <defs>
        <path id="DejaVuSans-30" d="M 2034 4250 
Q 1547 4250 1301 3770 
Q 1056 3291 1056 2328 
Q 1056 1369 1301 889 
Q 1547 409 2034 409 
Q 2525 409 2770 889 
Q 3016 1369 3016 2328 
Q 3016 3291 2770 3770 
Q 2525 4250 2034 4250 
z
M 2034 4750 
Q 2819 4750 3233 4129 
Q 3647 3509 3647 2328 
Q 3647 1150 3233 529 
Q 2819 -91 2034 -91 
Q 1250 -91 836 529 
Q 422 1150 422 2328 
Q 422 3509 836 4129 
Q 1250 4750 2034 4750 
z
" transform="scale(0.015625)"/>
       </defs>
       <use xlink:href="#DejaVuSans-30"/>
      </g>
     </g>
    </g>
    <g id="xtick_3">
     <g id="line2d_5">
      <path d="M 280.038114 293.76 
L 280.038114 3.456 
" clip-path="url(#pb738dec056)" style="fill: none; stroke: #b0b0b0; stroke-width: 0.8; stroke-linecap: square"/>
     </g>
     <g id="line2d_6">
      <g>
       <use xlink:href="#m293b39fe1c" x="280.038114" y="293.76" style="stroke: #000000; stroke-width: 0.8"/>
      </g>
     </g>
     <g id="text_3">
      <!-- 4 -->
      <g transform="translate(273.675614 315.956875) scale(0.2 -0.2)">
       <use xlink:href="#DejaVuSans-34"/>
      </g>
     </g>
    </g>
    <g id="xtick_4">
     <g id="line2d_7">
      <path d="M 373.417779 293.76 
L 373.417779 3.456 
" clip-path="url(#pb738dec056)" style="fill: none; stroke: #b0b0b0; stroke-width: 0.8; stroke-linecap: square"/>
     </g>
     <g id="line2d_8">
      <g>
       <use xlink:href="#m293b39fe1c" x="373.417779" y="293.76" style="stroke: #000000; stroke-width: 0.8"/>
      </g>
     </g>
     <g id="text_4">
      <!-- 8 -->
      <g transform="translate(367.055279 315.956875) scale(0.2 -0.2)">
       <defs>
        <path id="DejaVuSans-38" d="M 2034 2216 
Q 1584 2216 1326 1975 
Q 1069 1734 1069 1313 
Q 1069 891 1326 650 
Q 1584 409 2034 409 
Q 2484 409 2743 651 
Q 3003 894 3003 1313 
Q 3003 1734 2745 1975 
Q 2488 2216 2034 2216 
z
M 1403 2484 
Q 997 2584 770 2862 
Q 544 3141 544 3541 
Q 544 4100 942 4425 
Q 1341 4750 2034 4750 
Q 2731 4750 3128 4425 
Q 3525 4100 3525 3541 
Q 3525 3141 3298 2862 
Q 3072 2584 2669 2484 
Q 3125 2378 3379 2068 
Q 3634 1759 3634 1313 
Q 3634 634 3220 271 
Q 2806 -91 2034 -91 
Q 1263 -91 848 271 
Q 434 634 434 1313 
Q 434 1759 690 2068 
Q 947 2378 1403 2484 
z
M 1172 3481 
Q 1172 3119 1398 2916 
Q 1625 2713 2034 2713 
Q 2441 2713 2670 2916 
Q 2900 3119 2900 3481 
Q 2900 3844 2670 4047 
Q 2441 4250 2034 4250 
Q 1625 4250 1398 4047 
Q 1172 3844 1172 3481 
z
" transform="scale(0.015625)"/>
       </defs>
       <use xlink:href="#DejaVuSans-38"/>
      </g>
     </g>
    </g>
    <g id="text_5">
     <!-- log10 of Df -->
     <g transform="translate(175.214063 339.313125) scale(0.2 -0.2)">
      <defs>
       <path id="DejaVuSans-6c" d="M 603 4863 
L 1178 4863 
L 1178 0 
L 603 0 
L 603 4863 
z
" transform="scale(0.015625)"/>
       <path id="DejaVuSans-6f" d="M 1959 3097 
Q 1497 3097 1228 2736 
Q 959 2375 959 1747 
Q 959 1119 1226 758 
Q 1494 397 1959 397 
Q 2419 397 2687 759 
Q 2956 1122 2956 1747 
Q 2956 2369 2687 2733 
Q 2419 3097 1959 3097 
z
M 1959 3584 
Q 2709 3584 3137 3096 
Q 3566 2609 3566 1747 
Q 3566 888 3137 398 
Q 2709 -91 1959 -91 
Q 1206 -91 779 398 
Q 353 888 353 1747 
Q 353 2609 779 3096 
Q 1206 3584 1959 3584 
z
" transform="scale(0.015625)"/>
       <path id="DejaVuSans-67" d="M 2906 1791 
Q 2906 2416 2648 2759 
Q 2391 3103 1925 3103 
Q 1463 3103 1205 2759 
Q 947 2416 947 1791 
Q 947 1169 1205 825 
Q 1463 481 1925 481 
Q 2391 481 2648 825 
Q 2906 1169 2906 1791 
z
M 3481 434 
Q 3481 -459 3084 -895 
Q 2688 -1331 1869 -1331 
Q 1566 -1331 1297 -1286 
Q 1028 -1241 775 -1147 
L 775 -588 
Q 1028 -725 1275 -790 
Q 1522 -856 1778 -856 
Q 2344 -856 2625 -561 
Q 2906 -266 2906 331 
L 2906 616 
Q 2728 306 2450 153 
Q 2172 0 1784 0 
Q 1141 0 747 490 
Q 353 981 353 1791 
Q 353 2603 747 3093 
Q 1141 3584 1784 3584 
Q 2172 3584 2450 3431 
Q 2728 3278 2906 2969 
L 2906 3500 
L 3481 3500 
L 3481 434 
z
" transform="scale(0.015625)"/>
       <path id="DejaVuSans-31" d="M 794 531 
L 1825 531 
L 1825 4091 
L 703 3866 
L 703 4441 
L 1819 4666 
L 2450 4666 
L 2450 531 
L 3481 531 
L 3481 0 
L 794 0 
L 794 531 
z
" transform="scale(0.015625)"/>
       <path id="DejaVuSans-20" transform="scale(0.015625)"/>
       <path id="DejaVuSans-66" d="M 2375 4863 
L 2375 4384 
L 1825 4384 
Q 1516 4384 1395 4259 
Q 1275 4134 1275 3809 
L 1275 3500 
L 2222 3500 
L 2222 3053 
L 1275 3053 
L 1275 0 
L 697 0 
L 697 3053 
L 147 3053 
L 147 3500 
L 697 3500 
L 697 3744 
Q 697 4328 969 4595 
Q 1241 4863 1831 4863 
L 2375 4863 
z
" transform="scale(0.015625)"/>
       <path id="DejaVuSans-44" d="M 1259 4147 
L 1259 519 
L 2022 519 
Q 2988 519 3436 956 
Q 3884 1394 3884 2338 
Q 3884 3275 3436 3711 
Q 2988 4147 2022 4147 
L 1259 4147 
z
M 628 4666 
L 1925 4666 
Q 3281 4666 3915 4102 
Q 4550 3538 4550 2338 
Q 4550 1131 3912 565 
Q 3275 0 1925 0 
L 628 0 
L 628 4666 
z
" transform="scale(0.015625)"/>
      </defs>
      <use xlink:href="#DejaVuSans-6c"/>
      <use xlink:href="#DejaVuSans-6f" x="27.783203"/>
      <use xlink:href="#DejaVuSans-67" x="88.964844"/>
      <use xlink:href="#DejaVuSans-31" x="152.441406"/>
      <use xlink:href="#DejaVuSans-30" x="216.064453"/>
      <use xlink:href="#DejaVuSans-20" x="279.6875"/>
      <use xlink:href="#DejaVuSans-6f" x="311.474609"/>
      <use xlink:href="#DejaVuSans-66" x="372.65625"/>
      <use xlink:href="#DejaVuSans-20" x="407.861328"/>
      <use xlink:href="#DejaVuSans-44" x="439.648438"/>
      <use xlink:href="#DejaVuSans-66" x="516.650391"/>
     </g>
    </g>
   </g>
   <g id="matplotlib.axis_2">
    <g id="ytick_1">
     <g id="line2d_9">
      <path d="M 0 293.76 
L 460.8 293.76 
" clip-path="url(#pb738dec056)" style="fill: none; stroke: #b0b0b0; stroke-width: 0.8; stroke-linecap: square"/>
     </g>
     <g id="line2d_10">
      <defs>
       <path id="m6c6985e0fd" d="M 0 0 
L -3.5 0 
" style="stroke: #000000; stroke-width: 0.8"/>
      </defs>
      <g>
       <use xlink:href="#m6c6985e0fd" x="0" y="293.76" style="stroke: #000000; stroke-width: 0.8"/>
      </g>
     </g>
    </g>
    <g id="ytick_2">
     <g id="line2d_11">
      <path d="M 0 236.274059 
L 460.8 236.274059 
" clip-path="url(#pb738dec056)" style="fill: none; stroke: #b0b0b0; stroke-width: 0.8; stroke-linecap: square"/>
     </g>
     <g id="line2d_12">
      <g>
       <use xlink:href="#m6c6985e0fd" x="0" y="236.274059" style="stroke: #000000; stroke-width: 0.8"/>
      </g>
     </g>
    </g>
    <g id="ytick_3">
     <g id="line2d_13">
      <path d="M 0 178.788119 
L 460.8 178.788119 
" clip-path="url(#pb738dec056)" style="fill: none; stroke: #b0b0b0; stroke-width: 0.8; stroke-linecap: square"/>
     </g>
     <g id="line2d_14">
      <g>
       <use xlink:href="#m6c6985e0fd" x="0" y="178.788119" style="stroke: #000000; stroke-width: 0.8"/>
      </g>
     </g>
    </g>
    <g id="ytick_4">
     <g id="line2d_15">
      <path d="M 0 121.302178 
L 460.8 121.302178 
" clip-path="url(#pb738dec056)" style="fill: none; stroke: #b0b0b0; stroke-width: 0.8; stroke-linecap: square"/>
     </g>
     <g id="line2d_16">
      <g>
       <use xlink:href="#m6c6985e0fd" x="0" y="121.302178" style="stroke: #000000; stroke-width: 0.8"/>
      </g>
     </g>
    </g>
    <g id="ytick_5">
     <g id="line2d_17">
      <path d="M 0 63.816238 
L 460.8 63.816238 
" clip-path="url(#pb738dec056)" style="fill: none; stroke: #b0b0b0; stroke-width: 0.8; stroke-linecap: square"/>
     </g>
     <g id="line2d_18">
      <g>
       <use xlink:href="#m6c6985e0fd" x="0" y="63.816238" style="stroke: #000000; stroke-width: 0.8"/>
      </g>
     </g>
    </g>
    <g id="ytick_6">
     <g id="line2d_19">
      <path d="M 0 6.330297 
L 460.8 6.330297 
" clip-path="url(#pb738dec056)" style="fill: none; stroke: #b0b0b0; stroke-width: 0.8; stroke-linecap: square"/>
     </g>
     <g id="line2d_20">
      <g>
       <use xlink:href="#m6c6985e0fd" x="0" y="6.330297" style="stroke: #000000; stroke-width: 0.8"/>
      </g>
     </g>
    </g>
   </g>
   <g id="line2d_21">
    <path d="M -1 15.911287 
L 25.621957 15.911287 
L 25.621957 11.120792 
L 147.36917 11.120792 
L 147.36917 6.330297 
L 147.36917 6.330297 
L 147.36917 6.330297 
L 460.8 6.330297 
" clip-path="url(#pb738dec056)" style="fill: none; stroke: #ff0000; stroke-width: 3; stroke-linecap: square"/>
   </g>
   <g id="line2d_22">
    <path d="M 234.892819 293.76 
L 234.892819 288.969505 
L 237.32095 288.969505 
L 237.32095 284.17901 
L 237.850859 284.17901 
L 237.850859 279.388515 
L 238.713577 279.388515 
L 238.713577 274.59802 
L 244.143694 274.59802 
L 244.143694 269.807525 
L 245.667438 269.807525 
L 245.667438 265.01703 
L 245.761381 265.01703 
L 245.761381 260.226535 
L 249.249931 260.226535 
L 249.249931 255.43604 
L 252.713486 255.43604 
L 252.713486 250.645545 
L 254.632562 250.645545 
L 254.632562 245.85505 
L 254.860567 245.85505 
L 254.860567 241.064554 
L 256.68867 241.064554 
L 256.68867 236.274059 
L 257.00265 236.274059 
L 257.00265 231.483564 
L 257.864734 231.483564 
L 257.864734 226.693069 
L 258.268455 226.693069 
L 258.268455 221.902574 
L 259.206748 221.902574 
L 259.206748 217.112079 
L 270.122197 217.112079 
L 270.122197 212.321584 
L 278.441028 212.321584 
L 278.441028 207.531089 
L 279.110075 207.531089 
L 279.110075 202.740594 
L 282.520882 202.740594 
L 282.520882 197.950099 
L 284.154831 197.950099 
L 284.154831 193.159604 
L 285.80357 193.159604 
L 285.80357 188.369109 
L 286.925301 188.369109 
L 286.925301 183.578614 
L 288.612712 183.578614 
L 288.612712 178.788119 
L 289.09339 178.788119 
L 289.09339 173.997624 
L 289.941588 173.997624 
L 289.941588 169.207129 
L 291.093427 169.207129 
L 291.093427 164.416634 
L 291.886168 164.416634 
L 291.886168 159.626139 
L 292.212856 159.626139 
L 292.212856 154.835644 
L 292.3229 154.835644 
L 292.3229 150.045149 
L 292.392058 150.045149 
L 292.392058 145.254653 
L 292.667221 145.254653 
L 292.667221 140.464158 
L 293.63661 140.464158 
L 293.63661 135.673663 
L 294.050341 135.673663 
L 294.050341 130.883168 
L 294.773262 130.883168 
L 294.773262 126.092673 
L 298.03819 126.092673 
L 298.03819 121.302178 
L 298.061086 121.302178 
L 298.061086 116.511683 
L 298.548375 116.511683 
L 298.548375 111.721188 
L 298.569767 111.721188 
L 298.569767 106.930693 
L 299.043904 106.930693 
L 299.043904 102.140198 
L 299.834668 102.140198 
L 299.834668 97.349703 
L 300.074768 97.349703 
L 300.074768 92.559208 
L 300.297075 92.559208 
L 300.297075 87.768713 
L 300.984837 87.768713 
L 300.984837 82.978218 
L 302.653489 82.978218 
L 302.653489 78.187723 
L 303.094157 78.187723 
L 303.094157 73.397228 
L 303.745791 73.397228 
L 303.745791 68.606733 
L 305.539734 68.606733 
L 305.539734 63.816238 
L 307.319951 63.816238 
L 307.319951 59.025743 
L 308.745605 59.025743 
L 308.745605 54.235248 
L 309.453694 54.235248 
L 309.453694 49.444752 
L 311.449811 49.444752 
L 311.449811 44.654257 
L 313.288922 44.654257 
L 313.288922 39.863762 
L 313.893724 39.863762 
L 313.893724 35.073267 
L 314.481226 35.073267 
L 314.481226 30.282772 
L 314.667643 30.282772 
L 314.667643 25.492277 
L 314.714264 25.492277 
L 314.714264 20.701782 
L 316.712895 20.701782 
L 316.712895 15.911287 
L 321.263085 15.911287 
L 321.263085 11.120792 
L 325.153773 11.120792 
L 325.153773 6.330297 
L 325.153773 6.330297 
L 325.153773 6.330297 
L 460.8 6.330297 
" clip-path="url(#pb738dec056)" style="fill: none; stroke: #00bfbf; stroke-width: 1.5; stroke-linecap: square"/>
   </g>
   <g id="line2d_23">
    <path d="M 222.077904 293.76 
L 222.077904 288.969505 
L 232.957388 288.969505 
L 232.957388 284.17901 
L 234.434121 284.17901 
L 234.434121 279.388515 
L 234.644624 279.388515 
L 234.644624 274.59802 
L 234.892819 274.59802 
L 234.892819 269.807525 
L 236.576552 269.807525 
L 236.576552 265.01703 
L 236.863963 265.01703 
L 236.863963 260.226535 
L 237.32095 260.226535 
L 237.32095 255.43604 
L 237.636976 255.43604 
L 237.636976 250.645545 
L 238.351596 250.645545 
L 238.351596 245.85505 
L 238.713577 245.85505 
L 238.713577 241.064554 
L 239.135743 241.064554 
L 239.135743 236.274059 
L 240.283182 236.274059 
L 240.283182 231.483564 
L 240.495347 231.483564 
L 240.495347 226.693069 
L 244.143694 226.693069 
L 244.143694 221.902574 
L 248.43941 221.902574 
L 248.43941 217.112079 
L 251.955186 217.112079 
L 251.955186 212.321584 
L 266.793264 212.321584 
L 266.793264 207.531089 
L 270.122197 207.531089 
L 270.122197 202.740594 
L 278.031385 202.740594 
L 278.031385 197.950099 
L 278.353302 197.950099 
L 278.353302 193.159604 
L 278.441028 193.159604 
L 278.441028 188.369109 
L 278.880379 188.369109 
L 278.880379 183.578614 
L 279.110075 183.578614 
L 279.110075 178.788119 
L 282.374922 178.788119 
L 282.374922 173.997624 
L 282.520882 173.997624 
L 282.520882 169.207129 
L 283.424334 169.207129 
L 283.424334 164.416634 
L 284.154831 164.416634 
L 284.154831 159.626139 
L 285.80357 159.626139 
L 285.80357 154.835644 
L 285.863443 154.835644 
L 285.863443 150.045149 
L 286.925301 150.045149 
L 286.925301 145.254653 
L 287.721834 145.254653 
L 287.721834 140.464158 
L 287.794687 140.464158 
L 287.794687 135.673663 
L 287.982405 135.673663 
L 287.982405 130.883168 
L 289.09339 130.883168 
L 289.09339 126.092673 
L 289.917911 126.092673 
L 289.917911 121.302178 
L 289.941588 121.302178 
L 289.941588 116.511683 
L 290.02153 116.511683 
L 290.02153 111.721188 
L 290.758006 111.721188 
L 290.758006 106.930693 
L 291.093427 106.930693 
L 291.093427 102.140198 
L 292.212856 102.140198 
L 292.212856 97.349703 
L 292.24222 97.349703 
L 292.24222 92.559208 
L 292.3229 92.559208 
L 292.3229 87.768713 
L 292.324245 87.768713 
L 292.324245 82.978218 
L 292.667221 82.978218 
L 292.667221 78.187723 
L 294.295657 78.187723 
L 294.295657 73.397228 
L 298.548375 73.397228 
L 298.548375 68.606733 
L 298.569767 68.606733 
L 298.569767 63.816238 
L 298.675559 63.816238 
L 298.675559 59.025743 
L 299.043904 59.025743 
L 299.043904 54.235248 
L 300.074768 54.235248 
L 300.074768 49.444752 
L 302.653489 49.444752 
L 302.653489 44.654257 
L 303.094157 44.654257 
L 303.094157 39.863762 
L 303.745791 39.863762 
L 303.745791 35.073267 
L 305.539734 35.073267 
L 305.539734 30.282772 
L 307.398792 30.282772 
L 307.398792 25.492277 
L 308.357234 25.492277 
L 308.357234 20.701782 
L 308.745605 20.701782 
L 308.745605 15.911287 
L 311.449811 15.911287 
L 311.449811 11.120792 
L 314.207907 11.120792 
L 314.207907 6.330297 
L 314.207907 6.330297 
L 314.207907 6.330297 
L 460.8 6.330297 
" clip-path="url(#pb738dec056)" style="fill: none; stroke: #bf00bf; stroke-width: 1.5; stroke-linecap: square"/>
   </g>
   <g id="line2d_24">
    <path d="M 219.342362 293.76 
L 219.342362 288.969505 
L 222.077904 288.969505 
L 222.077904 284.17901 
L 223.152196 284.17901 
L 223.152196 279.388515 
L 227.656625 279.388515 
L 227.656625 274.59802 
L 228.024214 274.59802 
L 228.024214 269.807525 
L 230.002555 269.807525 
L 230.002555 265.01703 
L 232.630261 265.01703 
L 232.630261 260.226535 
L 232.957388 260.226535 
L 232.957388 255.43604 
L 234.434121 255.43604 
L 234.434121 250.645545 
L 234.55451 250.645545 
L 234.55451 245.85505 
L 234.644624 245.85505 
L 234.644624 241.064554 
L 234.707649 241.064554 
L 234.707649 236.274059 
L 236.576552 236.274059 
L 236.576552 231.483564 
L 236.863963 231.483564 
L 236.863963 226.693069 
L 237.636976 226.693069 
L 237.636976 221.902574 
L 237.938018 221.902574 
L 237.938018 217.112079 
L 238.713577 217.112079 
L 238.713577 212.321584 
L 239.330015 212.321584 
L 239.330015 207.531089 
L 240.889344 207.531089 
L 240.889344 202.740594 
L 241.163161 202.740594 
L 241.163161 197.950099 
L 246.295329 197.950099 
L 246.295329 193.159604 
L 253.918209 193.159604 
L 253.918209 188.369109 
L 258.086181 188.369109 
L 258.086181 183.578614 
L 260.797766 183.578614 
L 260.797766 178.788119 
L 265.329639 178.788119 
L 265.329639 173.997624 
L 266.793264 173.997624 
L 266.793264 169.207129 
L 267.219742 169.207129 
L 267.219742 164.416634 
L 267.287825 164.416634 
L 267.287825 159.626139 
L 267.385891 159.626139 
L 267.385891 154.835644 
L 269.821269 154.835644 
L 269.821269 150.045149 
L 270.122197 150.045149 
L 270.122197 145.254653 
L 271.438973 145.254653 
L 271.438973 140.464158 
L 272.520396 140.464158 
L 272.520396 135.673663 
L 273.124029 135.673663 
L 273.124029 130.883168 
L 273.596022 130.883168 
L 273.596022 126.092673 
L 273.695845 126.092673 
L 273.695845 121.302178 
L 276.583075 121.302178 
L 276.583075 116.511683 
L 276.912734 116.511683 
L 276.912734 111.721188 
L 277.240468 111.721188 
L 277.240468 106.930693 
L 277.979164 106.930693 
L 277.979164 102.140198 
L 278.031385 102.140198 
L 278.031385 97.349703 
L 278.128009 97.349703 
L 278.128009 92.559208 
L 278.700706 92.559208 
L 278.700706 87.768713 
L 278.880379 87.768713 
L 278.880379 82.978218 
L 279.804649 82.978218 
L 279.804649 78.187723 
L 280.817326 78.187723 
L 280.817326 73.397228 
L 284.154831 73.397228 
L 284.154831 68.606733 
L 284.478528 68.606733 
L 284.478528 63.816238 
L 284.953311 63.816238 
L 284.953311 59.025743 
L 286.39624 59.025743 
L 286.39624 54.235248 
L 286.920226 54.235248 
L 286.920226 49.444752 
L 287.143139 49.444752 
L 287.143139 44.654257 
L 290.54577 44.654257 
L 290.54577 39.863762 
L 292.735226 39.863762 
L 292.735226 35.073267 
L 292.784286 35.073267 
L 292.784286 30.282772 
L 296.925705 30.282772 
L 296.925705 25.492277 
L 297.977584 25.492277 
L 297.977584 20.701782 
L 302.639388 20.701782 
L 302.639388 15.911287 
L 303.745791 15.911287 
L 303.745791 11.120792 
L 304.918976 11.120792 
L 304.918976 6.330297 
L 304.918976 6.330297 
L 304.918976 6.330297 
L 460.8 6.330297 
" clip-path="url(#pb738dec056)" style="fill: none; stroke: #000000; stroke-width: 1.5; stroke-linecap: square"/>
   </g>
   <g id="line2d_25">
    <path d="M 214.85312 293.76 
L 214.85312 288.969505 
L 215.569718 288.969505 
L 215.569718 284.17901 
L 217.614945 284.17901 
L 217.614945 279.388515 
L 219.342362 279.388515 
L 219.342362 274.59802 
L 219.572086 274.59802 
L 219.572086 269.807525 
L 219.747043 269.807525 
L 219.747043 265.01703 
L 220.150033 265.01703 
L 220.150033 260.226535 
L 224.92427 260.226535 
L 224.92427 255.43604 
L 225.600859 255.43604 
L 225.600859 250.645545 
L 225.769899 250.645545 
L 225.769899 245.85505 
L 225.93196 245.85505 
L 225.93196 241.064554 
L 227.254059 241.064554 
L 227.254059 236.274059 
L 227.656625 236.274059 
L 227.656625 231.483564 
L 228.435382 231.483564 
L 228.435382 226.693069 
L 228.801382 226.693069 
L 228.801382 221.902574 
L 229.725292 221.902574 
L 229.725292 217.112079 
L 230.002555 217.112079 
L 230.002555 212.321584 
L 230.647595 212.321584 
L 230.647595 207.531089 
L 231.181365 207.531089 
L 231.181365 202.740594 
L 232.215439 202.740594 
L 232.215439 197.950099 
L 232.630261 197.950099 
L 232.630261 193.159604 
L 234.116356 193.159604 
L 234.116356 188.369109 
L 234.36196 188.369109 
L 234.36196 183.578614 
L 234.613028 183.578614 
L 234.613028 178.788119 
L 238.423797 178.788119 
L 238.423797 173.997624 
L 239.209077 173.997624 
L 239.209077 169.207129 
L 240.125261 169.207129 
L 240.125261 164.416634 
L 240.42811 164.416634 
L 240.42811 159.626139 
L 241.002345 159.626139 
L 241.002345 154.835644 
L 241.020906 154.835644 
L 241.020906 150.045149 
L 241.30963 150.045149 
L 241.30963 145.254653 
L 241.967085 145.254653 
L 241.967085 140.464158 
L 242.331503 140.464158 
L 242.331503 135.673663 
L 242.958982 135.673663 
L 242.958982 130.883168 
L 243.58064 130.883168 
L 243.58064 126.092673 
L 244.460421 126.092673 
L 244.460421 121.302178 
L 246.295329 121.302178 
L 246.295329 116.511683 
L 248.887181 116.511683 
L 248.887181 111.721188 
L 249.310403 111.721188 
L 249.310403 106.930693 
L 252.090217 106.930693 
L 252.090217 102.140198 
L 253.362683 102.140198 
L 253.362683 97.349703 
L 253.437475 97.349703 
L 253.437475 92.559208 
L 254.645842 92.559208 
L 254.645842 87.768713 
L 254.960845 87.768713 
L 254.960845 82.978218 
L 255.751598 82.978218 
L 255.751598 78.187723 
L 255.896049 78.187723 
L 255.896049 73.397228 
L 256.155065 73.397228 
L 256.155065 68.606733 
L 256.590963 68.606733 
L 256.590963 63.816238 
L 257.527108 63.816238 
L 257.527108 59.025743 
L 257.755328 59.025743 
L 257.755328 54.235248 
L 257.821073 54.235248 
L 257.821073 49.444752 
L 257.90858 49.444752 
L 257.90858 44.654257 
L 258.487022 44.654257 
L 258.487022 39.863762 
L 258.563346 39.863762 
L 258.563346 35.073267 
L 258.578987 35.073267 
L 258.578987 30.282772 
L 259.365385 30.282772 
L 259.365385 25.492277 
L 263.932171 25.492277 
L 263.932171 20.701782 
L 265.642288 20.701782 
L 265.642288 15.911287 
L 275.688683 15.911287 
L 275.688683 11.120792 
L 287.034008 11.120792 
L 287.034008 6.330297 
L 287.034008 6.330297 
L 287.034008 6.330297 
L 460.8 6.330297 
" clip-path="url(#pb738dec056)" style="fill: none; stroke: #00bfbf; stroke-width: 1.5; stroke-linecap: square"/>
   </g>
   <g id="line2d_26">
    <path d="M 38.345418 293.76 
L 38.345418 288.969505 
L 145.470794 288.969505 
L 145.470794 284.17901 
L 149.456262 284.17901 
L 149.456262 279.388515 
L 160.544324 279.388515 
L 160.544324 274.59802 
L 162.936846 274.59802 
L 162.936846 269.807525 
L 167.991525 269.807525 
L 167.991525 265.01703 
L 170.866878 265.01703 
L 170.866878 260.226535 
L 171.13641 260.226535 
L 171.13641 255.43604 
L 172.121847 255.43604 
L 172.121847 250.645545 
L 173.731957 250.645545 
L 173.731957 245.85505 
L 176.101129 245.85505 
L 176.101129 241.064554 
L 179.07984 241.064554 
L 179.07984 236.274059 
L 179.791188 236.274059 
L 179.791188 231.483564 
L 180.045889 231.483564 
L 180.045889 226.693069 
L 181.250151 226.693069 
L 181.250151 221.902574 
L 181.406074 221.902574 
L 181.406074 217.112079 
L 181.969127 217.112079 
L 181.969127 212.321584 
L 182.444548 212.321584 
L 182.444548 207.531089 
L 182.470163 207.531089 
L 182.470163 202.740594 
L 185.998817 202.740594 
L 185.998817 197.950099 
L 188.410506 197.950099 
L 188.410506 193.159604 
L 188.623301 193.159604 
L 188.623301 188.369109 
L 188.6972 188.369109 
L 188.6972 183.578614 
L 189.899775 183.578614 
L 189.899775 178.788119 
L 189.993477 178.788119 
L 189.993477 173.997624 
L 191.661265 173.997624 
L 191.661265 169.207129 
L 193.318335 169.207129 
L 193.318335 164.416634 
L 194.34502 164.416634 
L 194.34502 159.626139 
L 194.889011 159.626139 
L 194.889011 154.835644 
L 195.051552 154.835644 
L 195.051552 150.045149 
L 195.358022 150.045149 
L 195.358022 145.254653 
L 197.544281 145.254653 
L 197.544281 140.464158 
L 197.720226 140.464158 
L 197.720226 135.673663 
L 197.787678 135.673663 
L 197.787678 130.883168 
L 198.490104 130.883168 
L 198.490104 126.092673 
L 198.496217 126.092673 
L 198.496217 121.302178 
L 198.778374 121.302178 
L 198.778374 116.511683 
L 199.354768 116.511683 
L 199.354768 111.721188 
L 199.371535 111.721188 
L 199.371535 106.930693 
L 199.42711 106.930693 
L 199.42711 102.140198 
L 199.845858 102.140198 
L 199.845858 97.349703 
L 199.946976 97.349703 
L 199.946976 92.559208 
L 200.317984 92.559208 
L 200.317984 87.768713 
L 200.401964 87.768713 
L 200.401964 82.978218 
L 200.408226 82.978218 
L 200.408226 78.187723 
L 200.416279 78.187723 
L 200.416279 73.397228 
L 200.423156 73.397228 
L 200.423156 68.606733 
L 200.684848 68.606733 
L 200.684848 63.816238 
L 200.879358 63.816238 
L 200.879358 59.025743 
L 201.365808 59.025743 
L 201.365808 54.235248 
L 201.660075 54.235248 
L 201.660075 49.444752 
L 201.849345 49.444752 
L 201.849345 44.654257 
L 202.034497 44.654257 
L 202.034497 39.863762 
L 203.542166 39.863762 
L 203.542166 35.073267 
L 204.671003 35.073267 
L 204.671003 30.282772 
L 204.793769 30.282772 
L 204.793769 25.492277 
L 205.764898 25.492277 
L 205.764898 20.701782 
L 210.381834 20.701782 
L 210.381834 15.911287 
L 214.011703 15.911287 
L 214.011703 11.120792 
L 233.429319 11.120792 
L 233.429319 6.330297 
L 233.429319 6.330297 
L 233.429319 6.330297 
L 460.8 6.330297 
" clip-path="url(#pb738dec056)" style="fill: none; stroke: #bf00bf; stroke-width: 1.5; stroke-linecap: square"/>
   </g>
   <g id="line2d_27">
    <path d="M -1 15.911287 
L 25.621957 15.911287 
L 25.621957 11.120792 
L 147.36917 11.120792 
L 147.36917 6.330297 
L 147.36917 6.330297 
L 147.36917 6.330297 
L 460.8 6.330297 
" clip-path="url(#pb738dec056)" style="fill: none; stroke: #000000; stroke-width: 1.5; stroke-linecap: square"/>
   </g>
   <g id="patch_3">
    <path d="M 0 293.76 
L 0 3.456 
" style="fill: none; stroke: #000000; stroke-width: 0.8; stroke-linejoin: miter; stroke-linecap: square"/>
   </g>
   <g id="patch_4">
    <path d="M 460.8 293.76 
L 460.8 3.456 
" style="fill: none; stroke: #000000; stroke-width: 0.8; stroke-linejoin: miter; stroke-linecap: square"/>
   </g>
   <g id="patch_5">
    <path d="M 0 293.76 
L 460.8 293.76 
" style="fill: none; stroke: #000000; stroke-width: 0.8; stroke-linejoin: miter; stroke-linecap: square"/>
   </g>
   <g id="patch_6">
    <path d="M 0 3.456 
L 460.8 3.456 
" style="fill: none; stroke: #000000; stroke-width: 0.8; stroke-linejoin: miter; stroke-linecap: square"/>
   </g>
   <g id="text_6">
    <!-- {f6-f9}, 5-D -->
    <g transform="translate(331.334 287.95392) scale(0.2 -0.2)">
     <defs>
      <path id="DejaVuSans-7b" d="M 3272 -594 
L 3272 -1044 
L 3078 -1044 
Q 2300 -1044 2036 -812 
Q 1772 -581 1772 109 
L 1772 856 
Q 1772 1328 1603 1509 
Q 1434 1691 991 1691 
L 800 1691 
L 800 2138 
L 991 2138 
Q 1438 2138 1605 2317 
Q 1772 2497 1772 2963 
L 1772 3713 
Q 1772 4403 2036 4633 
Q 2300 4863 3078 4863 
L 3272 4863 
L 3272 4416 
L 3059 4416 
Q 2619 4416 2484 4278 
Q 2350 4141 2350 3700 
L 2350 2925 
Q 2350 2434 2208 2212 
Q 2066 1991 1722 1913 
Q 2069 1828 2209 1606 
Q 2350 1384 2350 897 
L 2350 122 
Q 2350 -319 2484 -456 
Q 2619 -594 3059 -594 
L 3272 -594 
z
" transform="scale(0.015625)"/>
      <path id="DejaVuSans-36" d="M 2113 2584 
Q 1688 2584 1439 2293 
Q 1191 2003 1191 1497 
Q 1191 994 1439 701 
Q 1688 409 2113 409 
Q 2538 409 2786 701 
Q 3034 994 3034 1497 
Q 3034 2003 2786 2293 
Q 2538 2584 2113 2584 
z
M 3366 4563 
L 3366 3988 
Q 3128 4100 2886 4159 
Q 2644 4219 2406 4219 
Q 1781 4219 1451 3797 
Q 1122 3375 1075 2522 
Q 1259 2794 1537 2939 
Q 1816 3084 2150 3084 
Q 2853 3084 3261 2657 
Q 3669 2231 3669 1497 
Q 3669 778 3244 343 
Q 2819 -91 2113 -91 
Q 1303 -91 875 529 
Q 447 1150 447 2328 
Q 447 3434 972 4092 
Q 1497 4750 2381 4750 
Q 2619 4750 2861 4703 
Q 3103 4656 3366 4563 
z
" transform="scale(0.015625)"/>
      <path id="DejaVuSans-39" d="M 703 97 
L 703 672 
Q 941 559 1184 500 
Q 1428 441 1663 441 
Q 2288 441 2617 861 
Q 2947 1281 2994 2138 
Q 2813 1869 2534 1725 
Q 2256 1581 1919 1581 
Q 1219 1581 811 2004 
Q 403 2428 403 3163 
Q 403 3881 828 4315 
Q 1253 4750 1959 4750 
Q 2769 4750 3195 4129 
Q 3622 3509 3622 2328 
Q 3622 1225 3098 567 
Q 2575 -91 1691 -91 
Q 1453 -91 1209 -44 
Q 966 3 703 97 
z
M 1959 2075 
Q 2384 2075 2632 2365 
Q 2881 2656 2881 3163 
Q 2881 3666 2632 3958 
Q 2384 4250 1959 4250 
Q 1534 4250 1286 3958 
Q 1038 3666 1038 3163 
Q 1038 2656 1286 2365 
Q 1534 2075 1959 2075 
z
" transform="scale(0.015625)"/>
      <path id="DejaVuSans-7d" d="M 800 -594 
L 1019 -594 
Q 1456 -594 1589 -459 
Q 1722 -325 1722 122 
L 1722 897 
Q 1722 1384 1862 1606 
Q 2003 1828 2350 1913 
Q 2003 1991 1862 2212 
Q 1722 2434 1722 2925 
L 1722 3700 
Q 1722 4144 1589 4280 
Q 1456 4416 1019 4416 
L 800 4416 
L 800 4863 
L 997 4863 
Q 1775 4863 2036 4633 
Q 2297 4403 2297 3713 
L 2297 2963 
Q 2297 2497 2465 2317 
Q 2634 2138 3078 2138 
L 3272 2138 
L 3272 1691 
L 3078 1691 
Q 2634 1691 2465 1509 
Q 2297 1328 2297 856 
L 2297 109 
Q 2297 -581 2036 -812 
Q 1775 -1044 997 -1044 
L 800 -1044 
L 800 -594 
z
" transform="scale(0.015625)"/>
      <path id="DejaVuSans-2c" d="M 750 794 
L 1409 794 
L 1409 256 
L 897 -744 
L 494 -744 
L 750 256 
L 750 794 
z
" transform="scale(0.015625)"/>
      <path id="DejaVuSans-35" d="M 691 4666 
L 3169 4666 
L 3169 4134 
L 1269 4134 
L 1269 2991 
Q 1406 3038 1543 3061 
Q 1681 3084 1819 3084 
Q 2600 3084 3056 2656 
Q 3513 2228 3513 1497 
Q 3513 744 3044 326 
Q 2575 -91 1722 -91 
Q 1428 -91 1123 -41 
Q 819 9 494 109 
L 494 744 
Q 775 591 1075 516 
Q 1375 441 1709 441 
Q 2250 441 2565 725 
Q 2881 1009 2881 1497 
Q 2881 1984 2565 2268 
Q 2250 2553 1709 2553 
Q 1456 2553 1204 2497 
Q 953 2441 691 2322 
L 691 4666 
z
" transform="scale(0.015625)"/>
     </defs>
     <use xlink:href="#DejaVuSans-7b"/>
     <use xlink:href="#DejaVuSans-66" x="63.623047"/>
     <use xlink:href="#DejaVuSans-36" x="98.828125"/>
     <use xlink:href="#DejaVuSans-2d" x="162.451172"/>
     <use xlink:href="#DejaVuSans-66" x="198.535156"/>
     <use xlink:href="#DejaVuSans-39" x="233.740234"/>
     <use xlink:href="#DejaVuSans-7d" x="297.363281"/>
     <use xlink:href="#DejaVuSans-2c" x="360.986328"/>
     <use xlink:href="#DejaVuSans-20" x="392.773438"/>
     <use xlink:href="#DejaVuSans-35" x="424.560547"/>
     <use xlink:href="#DejaVuSans-2d" x="488.183594"/>
     <use xlink:href="#DejaVuSans-44" x="524.267578"/>
    </g>
   </g>
   <g id="text_7">
    <!-- v2.6.3 -->
    <g style="fill: #808080" transform="translate(214.71875 288.777272) scale(0.1 -0.1)">
     <defs>
      <path id="DejaVuSans-76" d="M 191 3500 
L 800 3500 
L 1894 563 
L 2988 3500 
L 3597 3500 
L 2284 0 
L 1503 0 
L 191 3500 
z
" transform="scale(0.015625)"/>
      <path id="DejaVuSans-32" d="M 1228 531 
L 3431 531 
L 3431 0 
L 469 0 
L 469 531 
Q 828 903 1448 1529 
Q 2069 2156 2228 2338 
Q 2531 2678 2651 2914 
Q 2772 3150 2772 3378 
Q 2772 3750 2511 3984 
Q 2250 4219 1831 4219 
Q 1534 4219 1204 4116 
Q 875 4013 500 3803 
L 500 4441 
Q 881 4594 1212 4672 
Q 1544 4750 1819 4750 
Q 2544 4750 2975 4387 
Q 3406 4025 3406 3419 
Q 3406 3131 3298 2873 
Q 3191 2616 2906 2266 
Q 2828 2175 2409 1742 
Q 1991 1309 1228 531 
z
" transform="scale(0.015625)"/>
      <path id="DejaVuSans-2e" d="M 684 794 
L 1344 794 
L 1344 0 
L 684 0 
L 684 794 
z
" transform="scale(0.015625)"/>
      <path id="DejaVuSans-33" d="M 2597 2516 
Q 3050 2419 3304 2112 
Q 3559 1806 3559 1356 
Q 3559 666 3084 287 
Q 2609 -91 1734 -91 
Q 1441 -91 1130 -33 
Q 819 25 488 141 
L 488 750 
Q 750 597 1062 519 
Q 1375 441 1716 441 
Q 2309 441 2620 675 
Q 2931 909 2931 1356 
Q 2931 1769 2642 2001 
Q 2353 2234 1838 2234 
L 1294 2234 
L 1294 2753 
L 1863 2753 
Q 2328 2753 2575 2939 
Q 2822 3125 2822 3475 
Q 2822 3834 2567 4026 
Q 2313 4219 1838 4219 
Q 1578 4219 1281 4162 
Q 984 4106 628 3988 
L 628 4550 
Q 988 4650 1302 4700 
Q 1616 4750 1894 4750 
Q 2613 4750 3031 4423 
Q 3450 4097 3450 3541 
Q 3450 3153 3228 2886 
Q 3006 2619 2597 2516 
z
" transform="scale(0.015625)"/>
     </defs>
     <use xlink:href="#DejaVuSans-76"/>
     <use xlink:href="#DejaVuSans-32" x="59.179688"/>
     <use xlink:href="#DejaVuSans-2e" x="122.802734"/>
     <use xlink:href="#DejaVuSans-36" x="154.589844"/>
     <use xlink:href="#DejaVuSans-2e" x="218.212891"/>
     <use xlink:href="#DejaVuSans-33" x="250"/>
    </g>
   </g>
  </g>
 </g>
 <defs>
  <clipPath id="pb738dec056">
   <rect x="0" y="3.456" width="460.8" height="290.304"/>
  </clipPath>
 </defs>
</svg>
