<?xml version="1.0" encoding="utf-8" standalone="no"?>
<!DOCTYPE svg PUBLIC "-//W3C//DTD SVG 1.1//EN"
  "http://www.w3.org/Graphics/SVG/1.1/DTD/svg11.dtd">
<svg xmlns:xlink="http://www.w3.org/1999/xlink" width="460.8pt" height="345.6pt" viewBox="0 0 460.8 345.6" xmlns="http://www.w3.org/2000/svg" version="1.1">
 <metadata>
  <rdf:RDF xmlns:dc="http://purl.org/dc/elements/1.1/" xmlns:cc="http://creativecommons.org/ns#" xmlns:rdf="http://www.w3.org/1999/02/22-rdf-syntax-ns#">
   <cc:Work>
    <dc:type rdf:resource="http://purl.org/dc/dcmitype/StillImage"/>
    <dc:date>2024-06-22T18:41:37.898488</dc:date>
    <dc:format>image/svg+xml</dc:format>
    <dc:creator>
     <cc:Agent>
      <dc:title>Matplotlib v3.7.5, https://matplotlib.org/</dc:title>
     </cc:Agent>
    </dc:creator>
   </cc:Work>
  </rdf:RDF>
 </metadata>
 <defs>
  <style type="text/css">*{stroke-linejoin: round; stroke-linecap: butt}</style>
 </defs>
 <g id="figure_1">
  <g id="patch_1">
   <path d="M 0 345.6 
L 460.8 345.6 
L 460.8 0 
L 0 0 
z
" style="fill: #ffffff"/>
  </g>
  <g id="axes_1">
   <g id="patch_2">
    <path d="M 0 293.76 
L 460.8 293.76 
L 460.8 3.456 
L 0 3.456 
z
" style="fill: #ffffff"/>
   </g>
   <g id="matplotlib.axis_1">
    <g id="xtick_1">
     <g id="line2d_1">
      <path d="M 101.493326 293.76 
L 101.493326 3.456 
" clip-path="url(#p8d3b444a7b)" style="fill: none; stroke: #b0b0b0; stroke-width: 0.8; stroke-linecap: square"/>
     </g>
     <g id="line2d_2">
      <defs>
       <path id="mad926ee7c5" d="M 0 0 
L 0 3.5 
" style="stroke: #000000; stroke-width: 0.8"/>
      </defs>
      <g>
       <use xlink:href="#mad926ee7c5" x="101.493326" y="293.76" style="stroke: #000000; stroke-width: 0.8"/>
      </g>
     </g>
     <g id="text_1">
      <!-- -4 -->
      <g transform="translate(91.523013 315.956875) scale(0.2 -0.2)">
       <defs>
        <path id="DejaVuSans-2d" d="M 313 2009 
L 1997 2009 
L 1997 1497 
L 313 1497 
L 313 2009 
z
" transform="scale(0.015625)"/>
        <path id="DejaVuSans-34" d="M 2419 4116 
L 825 1625 
L 2419 1625 
L 2419 4116 
z
M 2253 4666 
L 3047 4666 
L 3047 1625 
L 3713 1625 
L 3713 1100 
L 3047 1100 
L 3047 0 
L 2419 0 
L 2419 1100 
L 313 1100 
L 313 1709 
L 2253 4666 
z
" transform="scale(0.015625)"/>
       </defs>
       <use xlink:href="#DejaVuSans-2d"/>
       <use xlink:href="#DejaVuSans-34" x="36.083984"/>
      </g>
     </g>
    </g>
    <g id="xtick_2">
     <g id="line2d_3">
      <path d="M 203.096418 293.76 
L 203.096418 3.456 
" clip-path="url(#p8d3b444a7b)" style="fill: none; stroke: #b0b0b0; stroke-width: 0.8; stroke-linecap: square"/>
     </g>
     <g id="line2d_4">
      <g>
       <use xlink:href="#mad926ee7c5" x="203.096418" y="293.76" style="stroke: #000000; stroke-width: 0.8"/>
      </g>
     </g>
     <g id="text_2">
      <!-- 0 -->
      <g transform="translate(196.733918 315.956875) scale(0.2 -0.2)">
       <defs>
        <path id="DejaVuSans-30" d="M 2034 4250 
Q 1547 4250 1301 3770 
Q 1056 3291 1056 2328 
Q 1056 1369 1301 889 
Q 1547 409 2034 409 
Q 2525 409 2770 889 
Q 3016 1369 3016 2328 
Q 3016 3291 2770 3770 
Q 2525 4250 2034 4250 
z
M 2034 4750 
Q 2819 4750 3233 4129 
Q 3647 3509 3647 2328 
Q 3647 1150 3233 529 
Q 2819 -91 2034 -91 
Q 1250 -91 836 529 
Q 422 1150 422 2328 
Q 422 3509 836 4129 
Q 1250 4750 2034 4750 
z
" transform="scale(0.015625)"/>
       </defs>
       <use xlink:href="#DejaVuSans-30"/>
      </g>
     </g>
    </g>
    <g id="xtick_3">
     <g id="line2d_5">
      <path d="M 304.699509 293.76 
L 304.699509 3.456 
" clip-path="url(#p8d3b444a7b)" style="fill: none; stroke: #b0b0b0; stroke-width: 0.8; stroke-linecap: square"/>
     </g>
     <g id="line2d_6">
      <g>
       <use xlink:href="#mad926ee7c5" x="304.699509" y="293.76" style="stroke: #000000; stroke-width: 0.8"/>
      </g>
     </g>
     <g id="text_3">
      <!-- 4 -->
      <g transform="translate(298.337009 315.956875) scale(0.2 -0.2)">
       <use xlink:href="#DejaVuSans-34"/>
      </g>
     </g>
    </g>
    <g id="xtick_4">
     <g id="line2d_7">
      <path d="M 406.302601 293.76 
L 406.302601 3.456 
" clip-path="url(#p8d3b444a7b)" style="fill: none; stroke: #b0b0b0; stroke-width: 0.8; stroke-linecap: square"/>
     </g>
     <g id="line2d_8">
      <g>
       <use xlink:href="#mad926ee7c5" x="406.302601" y="293.76" style="stroke: #000000; stroke-width: 0.8"/>
      </g>
     </g>
     <g id="text_4">
      <!-- 8 -->
      <g transform="translate(399.940101 315.956875) scale(0.2 -0.2)">
       <defs>
        <path id="DejaVuSans-38" d="M 2034 2216 
Q 1584 2216 1326 1975 
Q 1069 1734 1069 1313 
Q 1069 891 1326 650 
Q 1584 409 2034 409 
Q 2484 409 2743 651 
Q 3003 894 3003 1313 
Q 3003 1734 2745 1975 
Q 2488 2216 2034 2216 
z
M 1403 2484 
Q 997 2584 770 2862 
Q 544 3141 544 3541 
Q 544 4100 942 4425 
Q 1341 4750 2034 4750 
Q 2731 4750 3128 4425 
Q 3525 4100 3525 3541 
Q 3525 3141 3298 2862 
Q 3072 2584 2669 2484 
Q 3125 2378 3379 2068 
Q 3634 1759 3634 1313 
Q 3634 634 3220 271 
Q 2806 -91 2034 -91 
Q 1263 -91 848 271 
Q 434 634 434 1313 
Q 434 1759 690 2068 
Q 947 2378 1403 2484 
z
M 1172 3481 
Q 1172 3119 1398 2916 
Q 1625 2713 2034 2713 
Q 2441 2713 2670 2916 
Q 2900 3119 2900 3481 
Q 2900 3844 2670 4047 
Q 2441 4250 2034 4250 
Q 1625 4250 1398 4047 
Q 1172 3844 1172 3481 
z
" transform="scale(0.015625)"/>
       </defs>
       <use xlink:href="#DejaVuSans-38"/>
      </g>
     </g>
    </g>
    <g id="text_5">
     <!-- log10 of Df -->
     <g transform="translate(175.214063 339.313125) scale(0.2 -0.2)">
      <defs>
       <path id="DejaVuSans-6c" d="M 603 4863 
L 1178 4863 
L 1178 0 
L 603 0 
L 603 4863 
z
" transform="scale(0.015625)"/>
       <path id="DejaVuSans-6f" d="M 1959 3097 
Q 1497 3097 1228 2736 
Q 959 2375 959 1747 
Q 959 1119 1226 758 
Q 1494 397 1959 397 
Q 2419 397 2687 759 
Q 2956 1122 2956 1747 
Q 2956 2369 2687 2733 
Q 2419 3097 1959 3097 
z
M 1959 3584 
Q 2709 3584 3137 3096 
Q 3566 2609 3566 1747 
Q 3566 888 3137 398 
Q 2709 -91 1959 -91 
Q 1206 -91 779 398 
Q 353 888 353 1747 
Q 353 2609 779 3096 
Q 1206 3584 1959 3584 
z
" transform="scale(0.015625)"/>
       <path id="DejaVuSans-67" d="M 2906 1791 
Q 2906 2416 2648 2759 
Q 2391 3103 1925 3103 
Q 1463 3103 1205 2759 
Q 947 2416 947 1791 
Q 947 1169 1205 825 
Q 1463 481 1925 481 
Q 2391 481 2648 825 
Q 2906 1169 2906 1791 
z
M 3481 434 
Q 3481 -459 3084 -895 
Q 2688 -1331 1869 -1331 
Q 1566 -1331 1297 -1286 
Q 1028 -1241 775 -1147 
L 775 -588 
Q 1028 -725 1275 -790 
Q 1522 -856 1778 -856 
Q 2344 -856 2625 -561 
Q 2906 -266 2906 331 
L 2906 616 
Q 2728 306 2450 153 
Q 2172 0 1784 0 
Q 1141 0 747 490 
Q 353 981 353 1791 
Q 353 2603 747 3093 
Q 1141 3584 1784 3584 
Q 2172 3584 2450 3431 
Q 2728 3278 2906 2969 
L 2906 3500 
L 3481 3500 
L 3481 434 
z
" transform="scale(0.015625)"/>
       <path id="DejaVuSans-31" d="M 794 531 
L 1825 531 
L 1825 4091 
L 703 3866 
L 703 4441 
L 1819 4666 
L 2450 4666 
L 2450 531 
L 3481 531 
L 3481 0 
L 794 0 
L 794 531 
z
" transform="scale(0.015625)"/>
       <path id="DejaVuSans-20" transform="scale(0.015625)"/>
       <path id="DejaVuSans-66" d="M 2375 4863 
L 2375 4384 
L 1825 4384 
Q 1516 4384 1395 4259 
Q 1275 4134 1275 3809 
L 1275 3500 
L 2222 3500 
L 2222 3053 
L 1275 3053 
L 1275 0 
L 697 0 
L 697 3053 
L 147 3053 
L 147 3500 
L 697 3500 
L 697 3744 
Q 697 4328 969 4595 
Q 1241 4863 1831 4863 
L 2375 4863 
z
" transform="scale(0.015625)"/>
       <path id="DejaVuSans-44" d="M 1259 4147 
L 1259 519 
L 2022 519 
Q 2988 519 3436 956 
Q 3884 1394 3884 2338 
Q 3884 3275 3436 3711 
Q 2988 4147 2022 4147 
L 1259 4147 
z
M 628 4666 
L 1925 4666 
Q 3281 4666 3915 4102 
Q 4550 3538 4550 2338 
Q 4550 1131 3912 565 
Q 3275 0 1925 0 
L 628 0 
L 628 4666 
z
" transform="scale(0.015625)"/>
      </defs>
      <use xlink:href="#DejaVuSans-6c"/>
      <use xlink:href="#DejaVuSans-6f" x="27.783203"/>
      <use xlink:href="#DejaVuSans-67" x="88.964844"/>
      <use xlink:href="#DejaVuSans-31" x="152.441406"/>
      <use xlink:href="#DejaVuSans-30" x="216.064453"/>
      <use xlink:href="#DejaVuSans-20" x="279.6875"/>
      <use xlink:href="#DejaVuSans-6f" x="311.474609"/>
      <use xlink:href="#DejaVuSans-66" x="372.65625"/>
      <use xlink:href="#DejaVuSans-20" x="407.861328"/>
      <use xlink:href="#DejaVuSans-44" x="439.648438"/>
      <use xlink:href="#DejaVuSans-66" x="516.650391"/>
     </g>
    </g>
   </g>
   <g id="matplotlib.axis_2">
    <g id="ytick_1">
     <g id="line2d_9">
      <path d="M 0 293.76 
L 460.8 293.76 
" clip-path="url(#p8d3b444a7b)" style="fill: none; stroke: #b0b0b0; stroke-width: 0.8; stroke-linecap: square"/>
     </g>
     <g id="line2d_10">
      <defs>
       <path id="m09101b2eff" d="M 0 0 
L -3.5 0 
" style="stroke: #000000; stroke-width: 0.8"/>
      </defs>
      <g>
       <use xlink:href="#m09101b2eff" x="0" y="293.76" style="stroke: #000000; stroke-width: 0.8"/>
      </g>
     </g>
    </g>
    <g id="ytick_2">
     <g id="line2d_11">
      <path d="M 0 236.274059 
L 460.8 236.274059 
" clip-path="url(#p8d3b444a7b)" style="fill: none; stroke: #b0b0b0; stroke-width: 0.8; stroke-linecap: square"/>
     </g>
     <g id="line2d_12">
      <g>
       <use xlink:href="#m09101b2eff" x="0" y="236.274059" style="stroke: #000000; stroke-width: 0.8"/>
      </g>
     </g>
    </g>
    <g id="ytick_3">
     <g id="line2d_13">
      <path d="M 0 178.788119 
L 460.8 178.788119 
" clip-path="url(#p8d3b444a7b)" style="fill: none; stroke: #b0b0b0; stroke-width: 0.8; stroke-linecap: square"/>
     </g>
     <g id="line2d_14">
      <g>
       <use xlink:href="#m09101b2eff" x="0" y="178.788119" style="stroke: #000000; stroke-width: 0.8"/>
      </g>
     </g>
    </g>
    <g id="ytick_4">
     <g id="line2d_15">
      <path d="M 0 121.302178 
L 460.8 121.302178 
" clip-path="url(#p8d3b444a7b)" style="fill: none; stroke: #b0b0b0; stroke-width: 0.8; stroke-linecap: square"/>
     </g>
     <g id="line2d_16">
      <g>
       <use xlink:href="#m09101b2eff" x="0" y="121.302178" style="stroke: #000000; stroke-width: 0.8"/>
      </g>
     </g>
    </g>
    <g id="ytick_5">
     <g id="line2d_17">
      <path d="M 0 63.816238 
L 460.8 63.816238 
" clip-path="url(#p8d3b444a7b)" style="fill: none; stroke: #b0b0b0; stroke-width: 0.8; stroke-linecap: square"/>
     </g>
     <g id="line2d_18">
      <g>
       <use xlink:href="#m09101b2eff" x="0" y="63.816238" style="stroke: #000000; stroke-width: 0.8"/>
      </g>
     </g>
    </g>
    <g id="ytick_6">
     <g id="line2d_19">
      <path d="M 0 6.330297 
L 460.8 6.330297 
" clip-path="url(#p8d3b444a7b)" style="fill: none; stroke: #b0b0b0; stroke-width: 0.8; stroke-linecap: square"/>
     </g>
     <g id="line2d_20">
      <g>
       <use xlink:href="#m09101b2eff" x="0" y="6.330297" style="stroke: #000000; stroke-width: 0.8"/>
      </g>
     </g>
    </g>
   </g>
   <g id="line2d_21">
    <path d="M -1 182.620515 
L -0.109766 182.620515 
L -0.109766 125.134574 
L 165.200252 125.134574 
L 165.200252 121.302178 
L 227.831931 121.302178 
L 227.831931 117.469782 
L 230.452706 117.469782 
L 230.452706 109.80499 
L 230.571476 109.80499 
L 230.571476 105.972594 
L 230.754635 105.972594 
L 230.754635 102.140198 
L 232.153202 102.140198 
L 232.167804 94.475406 
L 234.295015 94.475406 
L 234.295015 86.810614 
L 235.174857 86.810614 
L 235.174857 82.978218 
L 235.521992 82.978218 
L 235.521992 79.145822 
L 236.087827 79.145822 
L 236.08783 71.48103 
L 236.626052 71.48103 
L 236.626055 63.816238 
L 237.139234 63.816238 
L 237.139234 59.983842 
L 238.099094 59.983842 
L 238.099094 56.151446 
L 238.982068 56.151446 
L 238.982068 52.31905 
L 239.3984 52.31905 
L 239.3984 48.486653 
L 239.799591 48.486653 
L 239.799591 44.654257 
L 240.1867 44.654257 
L 240.1867 40.821861 
L 240.560681 40.821861 
L 240.560681 36.989465 
L 240.922399 36.989465 
L 240.922399 33.157069 
L 241.272625 33.157069 
L 241.272625 29.324673 
L 241.612079 29.324673 
L 241.612082 21.659881 
L 241.941402 21.659881 
L 241.941402 17.827485 
L 242.874189 17.827485 
L 242.874189 13.995089 
L 244.00661 13.995089 
L 244.00661 10.162693 
L 245.275978 10.162693 
L 245.275978 6.330297 
L 245.275978 6.330297 
L 460.8 6.330297 
L 460.8 6.330297 
" clip-path="url(#p8d3b444a7b)" style="fill: none; stroke: #ff0000; stroke-width: 3; stroke-linecap: square"/>
   </g>
   <g id="line2d_22">
    <path d="M 253.608645 293.76 
L 253.608645 289.927604 
L 258.298706 289.927604 
L 258.298706 286.095208 
L 258.98951 286.095208 
L 258.98951 282.262812 
L 260.319466 282.262812 
L 260.319466 278.430416 
L 260.434245 278.430416 
L 260.434245 274.59802 
L 260.842866 274.59802 
L 260.872965 266.933228 
L 261.78569 266.933228 
L 261.836454 259.268436 
L 262.410438 259.268436 
L 262.410438 255.43604 
L 262.595782 255.43604 
L 262.595782 251.603644 
L 263.180189 251.603644 
L 263.180189 247.771248 
L 263.479735 247.771248 
L 263.479735 243.938851 
L 264.374501 243.938851 
L 264.374501 240.106455 
L 264.567085 240.106455 
L 264.567085 236.274059 
L 264.84878 236.274059 
L 264.909776 228.609267 
L 265.362433 228.609267 
L 265.472239 220.944475 
L 265.707258 220.944475 
L 265.745913 213.279683 
L 266.009575 213.279683 
L 266.009575 209.447287 
L 266.240085 209.447287 
L 266.240085 205.614891 
L 266.640393 205.614891 
L 266.660906 197.950099 
L 266.858352 197.950099 
L 266.87036 190.285307 
L 267.032658 190.285307 
L 267.032658 186.452911 
L 267.863044 186.452911 
L 267.863044 182.620515 
L 268.080465 182.620515 
L 268.080465 178.788119 
L 276.114253 178.788119 
L 276.139301 171.123327 
L 276.901845 171.123327 
L 276.914716 163.458535 
L 278.964211 163.458535 
L 278.964211 159.626139 
L 279.593382 159.626139 
L 279.593382 155.793743 
L 279.799434 155.793743 
L 279.799434 151.961347 
L 280.534627 151.961347 
L 280.534627 148.12895 
L 281.049708 148.12895 
L 281.049708 144.296554 
L 281.934827 144.296554 
L 281.934827 140.464158 
L 282.128753 140.464158 
L 282.200518 132.799366 
L 282.407694 132.799366 
L 282.407694 128.96697 
L 282.74237 128.96697 
L 282.74237 125.134574 
L 283.278061 125.134574 
L 283.278061 121.302178 
L 283.522149 121.302178 
L 283.522149 117.469782 
L 284.236633 117.469782 
L 284.236633 113.637386 
L 284.412993 113.637386 
L 284.412993 109.80499 
L 285.129593 109.80499 
L 285.129593 105.972594 
L 285.58813 105.972594 
L 285.58813 102.140198 
L 286.436066 102.140198 
L 286.461849 94.475406 
L 287.027529 94.475406 
L 287.027529 90.64301 
L 287.831028 90.64301 
L 287.831028 86.810614 
L 288.649021 86.810614 
L 288.649021 82.978218 
L 288.835124 82.978218 
L 288.835124 79.145822 
L 289.133927 79.145822 
L 289.203096 71.48103 
L 289.791363 71.48103 
L 289.791363 67.648634 
L 294.017491 67.648634 
L 294.017491 63.816238 
L 365.068897 63.816238 
L 365.068897 59.983842 
L 372.014988 59.983842 
L 372.014988 56.151446 
L 372.443565 56.151446 
L 372.443565 52.31905 
L 373.241156 52.31905 
L 373.241156 48.486653 
L 373.84148 48.486653 
L 373.852636 40.821861 
L 376.283303 40.821861 
L 376.332247 33.157069 
L 377.17653 33.157069 
L 377.211734 25.492277 
L 378.276828 25.492277 
L 378.276828 21.659881 
L 378.905956 21.659881 
L 378.905956 17.827485 
L 379.243203 17.827485 
L 379.243203 13.995089 
L 379.749646 13.995089 
L 379.749646 10.162693 
L 380.862008 10.162693 
L 380.862008 6.330297 
L 380.862008 6.330297 
L 460.8 6.330297 
L 460.8 6.330297 
" clip-path="url(#p8d3b444a7b)" style="fill: none; stroke: #00bfbf; stroke-width: 1.5; stroke-linecap: square"/>
   </g>
   <g id="line2d_23">
    <path d="M 253.608645 293.76 
L 253.608645 289.927604 
L 254.830222 289.927604 
L 254.830222 286.095208 
L 255.894783 286.095208 
L 255.894783 282.262812 
L 256.069269 282.262812 
L 256.069269 278.430416 
L 256.612192 278.430416 
L 256.612192 274.59802 
L 257.272021 274.59802 
L 257.272021 270.765624 
L 258.298706 270.765624 
L 258.298706 266.933228 
L 258.98951 266.933228 
L 259.006002 259.268436 
L 259.752393 259.268436 
L 259.752393 255.43604 
L 259.929029 255.43604 
L 259.929029 251.603644 
L 260.48454 251.603644 
L 260.48454 247.771248 
L 261.652039 247.771248 
L 261.652039 243.938851 
L 261.793676 243.938851 
L 261.793676 240.106455 
L 261.970791 240.106455 
L 261.970791 236.274059 
L 262.154173 236.274059 
L 262.154173 232.441663 
L 262.267723 232.441663 
L 262.267723 228.609267 
L 262.473171 228.609267 
L 262.578152 220.944475 
L 262.738505 220.944475 
L 262.738505 217.112079 
L 262.85888 217.112079 
L 262.85888 213.279683 
L 263.072891 213.279683 
L 263.072891 209.447287 
L 263.236985 209.447287 
L 263.236985 205.614891 
L 263.683809 205.614891 
L 263.683809 201.782495 
L 263.823836 201.782495 
L 263.849671 194.117703 
L 264.275359 194.117703 
L 264.275359 190.285307 
L 264.522234 190.285307 
L 264.522234 186.452911 
L 266.352135 186.452911 
L 266.352135 182.620515 
L 266.651038 182.620515 
L 266.651038 178.788119 
L 273.868632 178.788119 
L 273.868632 174.955723 
L 276.114253 174.955723 
L 276.145137 163.458535 
L 276.901845 163.458535 
L 276.914716 155.793743 
L 277.251402 155.793743 
L 277.344387 148.12895 
L 278.340067 148.12895 
L 278.340067 144.296554 
L 278.903697 144.296554 
L 278.903697 140.464158 
L 279.72341 140.464158 
L 279.799434 132.799366 
L 280.162676 132.799366 
L 280.250412 125.134574 
L 280.534627 125.134574 
L 280.534627 121.302178 
L 281.591772 121.302178 
L 281.591772 117.469782 
L 282.179738 117.469782 
L 282.200518 109.80499 
L 282.339646 109.80499 
L 282.339646 105.972594 
L 283.235425 105.972594 
L 283.235425 102.140198 
L 284.127406 102.140198 
L 284.127406 98.307802 
L 284.412993 98.307802 
L 284.441016 90.64301 
L 284.936238 90.64301 
L 284.936238 86.810614 
L 285.248438 86.810614 
L 285.248438 82.978218 
L 287.027529 82.978218 
L 287.027529 79.145822 
L 287.698901 79.145822 
L 287.698901 75.313426 
L 287.831028 75.313426 
L 287.831028 71.48103 
L 288.008818 71.48103 
L 288.008818 67.648634 
L 290.759024 67.648634 
L 290.759024 63.816238 
L 360.771619 63.816238 
L 360.771619 59.983842 
L 368.327336 59.983842 
L 368.327336 56.151446 
L 369.28432 56.151446 
L 369.28432 52.31905 
L 370.331486 52.31905 
L 370.331486 48.486653 
L 372.014988 48.486653 
L 372.014988 44.654257 
L 372.443565 44.654257 
L 372.443565 40.821861 
L 373.242505 40.821861 
L 373.242505 36.989465 
L 373.83305 36.989465 
L 373.84148 29.324673 
L 375.114129 29.324673 
L 375.114129 25.492277 
L 375.832486 25.492277 
L 375.832486 21.659881 
L 376.283303 21.659881 
L 376.283303 17.827485 
L 377.545822 17.827485 
L 377.545822 13.995089 
L 378.314689 13.995089 
L 378.360309 6.330297 
L 378.360309 6.330297 
L 460.8 6.330297 
L 460.8 6.330297 
" clip-path="url(#p8d3b444a7b)" style="fill: none; stroke: #bf00bf; stroke-width: 1.5; stroke-linecap: square"/>
   </g>
   <g id="line2d_24">
    <path d="M 251.532754 293.76 
L 251.532754 289.927604 
L 252.381201 289.927604 
L 252.381201 286.095208 
L 253.216337 286.095208 
L 253.216337 282.262812 
L 253.334984 282.262812 
L 253.334984 278.430416 
L 253.608645 278.430416 
L 253.618531 270.765624 
L 253.816677 270.765624 
L 253.816677 266.933228 
L 254.005386 266.933228 
L 254.005386 263.100832 
L 254.711414 263.100832 
L 254.711414 259.268436 
L 254.830222 259.268436 
L 254.830222 255.43604 
L 255.367996 255.43604 
L 255.474754 247.771248 
L 255.484525 247.771248 
L 255.484525 243.938851 
L 255.715308 243.938851 
L 255.778608 236.274059 
L 255.863725 236.274059 
L 255.894783 228.609267 
L 256.612192 228.609267 
L 256.612192 224.776871 
L 257.019499 224.776871 
L 257.019499 220.944475 
L 257.252568 220.944475 
L 257.252568 217.112079 
L 257.783671 217.112079 
L 257.867858 205.614891 
L 258.000304 205.614891 
L 258.000304 201.782495 
L 258.32566 201.782495 
L 258.32566 197.950099 
L 258.451577 197.950099 
L 258.451577 194.117703 
L 258.607141 194.117703 
L 258.607141 190.285307 
L 258.75039 190.285307 
L 258.75039 186.452911 
L 259.277002 186.452911 
L 259.277002 182.620515 
L 259.95513 182.620515 
L 259.95513 178.788119 
L 273.588739 178.788119 
L 273.588739 174.955723 
L 275.101952 174.955723 
L 275.169813 167.290931 
L 275.796368 167.290931 
L 275.796368 163.458535 
L 276.114253 163.458535 
L 276.145137 155.793743 
L 276.29351 155.793743 
L 276.29351 151.961347 
L 276.470057 151.961347 
L 276.470057 148.12895 
L 276.901845 148.12895 
L 276.914716 136.631762 
L 277.102185 136.631762 
L 277.102185 132.799366 
L 277.251402 132.799366 
L 277.251402 128.96697 
L 277.701844 128.96697 
L 277.701844 125.134574 
L 278.13816 125.134574 
L 278.13816 121.302178 
L 278.684834 121.302178 
L 278.684834 117.469782 
L 279.799434 117.469782 
L 279.799434 113.637386 
L 281.4842 113.637386 
L 281.4842 109.80499 
L 282.200518 109.80499 
L 282.200518 105.972594 
L 282.339646 105.972594 
L 282.339646 102.140198 
L 282.493343 102.140198 
L 282.493343 98.307802 
L 284.127406 98.307802 
L 284.127406 94.475406 
L 284.412993 94.475406 
L 284.448554 82.978218 
L 284.712124 82.978218 
L 284.712124 79.145822 
L 284.936238 79.145822 
L 284.936238 75.313426 
L 285.568804 75.313426 
L 285.568804 71.48103 
L 286.460353 71.48103 
L 286.460353 67.648634 
L 287.027529 67.648634 
L 287.027529 63.816238 
L 359.690967 63.816238 
L 359.690967 59.983842 
L 360.771619 59.983842 
L 360.771619 56.151446 
L 361.178297 56.151446 
L 361.178297 52.31905 
L 364.725247 52.31905 
L 364.725247 48.486653 
L 365.385133 48.486653 
L 365.385133 44.654257 
L 366.239391 44.654257 
L 366.239391 40.821861 
L 367.025927 40.821861 
L 367.025927 36.989465 
L 367.269156 36.989465 
L 367.269156 33.157069 
L 368.327336 33.157069 
L 368.327336 29.324673 
L 369.28432 29.324673 
L 369.28432 25.492277 
L 370.740349 25.492277 
L 370.740349 21.659881 
L 371.028569 21.659881 
L 371.028569 17.827485 
L 371.295882 17.827485 
L 371.295882 13.995089 
L 371.539782 13.995089 
L 371.539782 10.162693 
L 374.408701 10.162693 
L 374.408701 6.330297 
L 374.408701 6.330297 
L 460.8 6.330297 
L 460.8 6.330297 
" clip-path="url(#p8d3b444a7b)" style="fill: none; stroke: #000000; stroke-width: 1.5; stroke-linecap: square"/>
   </g>
   <g id="line2d_25">
    <path d="M -0.109766 293.76 
L -0.109766 263.100832 
L 211.969511 263.100832 
L 211.969511 259.268436 
L 224.571988 259.268436 
L 224.571988 255.43604 
L 226.133083 255.43604 
L 226.133083 251.603644 
L 227.78167 251.603644 
L 227.78167 247.771248 
L 228.893413 247.771248 
L 228.893413 243.938851 
L 229.411711 243.938851 
L 229.411711 240.106455 
L 234.002167 240.106455 
L 234.002167 236.274059 
L 235.805065 236.274059 
L 235.805065 232.441663 
L 238.39416 232.441663 
L 238.39416 228.609267 
L 238.845319 228.609267 
L 238.845319 224.776871 
L 239.440745 224.776871 
L 239.53045 217.112079 
L 239.666096 217.112079 
L 239.709972 209.447287 
L 239.793215 209.447287 
L 239.793215 205.614891 
L 240.014602 205.614891 
L 240.025458 197.950099 
L 240.371464 197.950099 
L 240.371464 194.117703 
L 240.945756 194.117703 
L 240.945756 190.285307 
L 241.604878 190.285307 
L 241.604878 186.452911 
L 242.197301 186.452911 
L 242.197301 182.620515 
L 243.453597 182.620515 
L 243.453597 178.788119 
L 265.627736 178.788119 
L 265.627736 174.955723 
L 266.382655 174.955723 
L 266.382655 171.123327 
L 266.670027 171.123327 
L 266.670027 167.290931 
L 266.909945 167.290931 
L 266.909945 163.458535 
L 267.18822 163.458535 
L 267.226138 155.793743 
L 268.072052 155.793743 
L 268.072052 151.961347 
L 268.546265 151.961347 
L 268.546265 148.12895 
L 268.779688 148.12895 
L 268.779688 144.296554 
L 268.912636 144.296554 
L 269.003728 136.631762 
L 269.47762 136.631762 
L 269.47762 132.799366 
L 269.73427 132.799366 
L 269.843796 125.134574 
L 270.750163 125.134574 
L 270.750163 121.302178 
L 272.10399 121.302178 
L 272.10399 117.469782 
L 272.315829 117.469782 
L 272.315829 113.637386 
L 272.458096 113.637386 
L 272.559394 102.140198 
L 272.769933 102.140198 
L 272.769933 98.307802 
L 273.5346 98.307802 
L 273.5346 94.475406 
L 274.035123 94.475406 
L 274.035123 90.64301 
L 274.486319 90.64301 
L 274.588853 82.978218 
L 274.793385 82.978218 
L 274.793385 79.145822 
L 275.142519 79.145822 
L 275.142519 75.313426 
L 275.959728 75.313426 
L 275.959728 71.48103 
L 276.198166 71.48103 
L 276.198166 67.648634 
L 276.611249 67.648634 
L 276.611249 63.816238 
L 344.193489 63.816238 
L 344.193489 59.983842 
L 349.718041 59.983842 
L 349.718041 56.151446 
L 352.269005 56.151446 
L 352.269005 52.31905 
L 353.266599 52.31905 
L 353.266599 48.486653 
L 353.380502 48.486653 
L 353.380502 44.654257 
L 353.620041 44.654257 
L 353.71605 36.989465 
L 356.787135 36.989465 
L 356.787135 33.157069 
L 357.170139 33.157069 
L 357.170139 29.324673 
L 357.56215 29.324673 
L 357.56215 25.492277 
L 357.868469 25.492277 
L 357.868469 21.659881 
L 358.018819 21.659881 
L 358.018819 17.827485 
L 358.201148 17.827485 
L 358.201148 13.995089 
L 358.630996 13.995089 
L 358.630996 10.162693 
L 359.019534 10.162693 
L 359.019534 6.330297 
L 359.019534 6.330297 
L 460.8 6.330297 
L 460.8 6.330297 
" clip-path="url(#p8d3b444a7b)" style="fill: none; stroke: #00bfbf; stroke-width: 1.5; stroke-linecap: square"/>
   </g>
   <g id="line2d_26">
    <path d="M -0.109766 293.76 
L -0.109766 236.274059 
L 61.302226 236.274059 
L 61.302226 232.441663 
L 61.668705 232.441663 
L 61.668705 228.609267 
L 63.667984 228.609267 
L 63.667984 224.776871 
L 64.211589 224.776871 
L 64.211589 220.944475 
L 64.802391 220.944475 
L 64.809334 213.279683 
L 65.602227 213.279683 
L 65.602227 209.447287 
L 65.822047 209.447287 
L 65.822047 205.614891 
L 68.369857 205.614891 
L 68.411546 197.950099 
L 68.852244 197.950099 
L 68.871043 190.285307 
L 69.476914 190.285307 
L 69.535865 182.620515 
L 73.045702 182.620515 
L 73.045702 178.788119 
L 237.738145 178.788119 
L 237.738145 174.955723 
L 239.906223 174.955723 
L 239.906223 171.123327 
L 241.998314 171.123327 
L 241.998314 167.290931 
L 242.676383 167.290931 
L 242.719662 159.626139 
L 245.377751 159.626139 
L 245.394846 151.961347 
L 245.538232 151.961347 
L 245.625004 140.464158 
L 245.933846 140.464158 
L 245.933846 136.631762 
L 246.300435 136.631762 
L 246.300435 132.799366 
L 248.53183 132.799366 
L 248.589237 125.134574 
L 249.641951 125.134574 
L 249.641951 121.302178 
L 250.528005 121.302178 
L 250.528005 117.469782 
L 251.123396 117.469782 
L 251.123396 113.637386 
L 251.982388 113.637386 
L 251.982388 109.80499 
L 252.250019 109.80499 
L 252.250019 105.972594 
L 252.907963 105.972594 
L 252.907963 102.140198 
L 254.322235 102.140198 
L 254.322235 98.307802 
L 254.744257 98.307802 
L 254.744257 94.475406 
L 255.806454 94.475406 
L 255.833663 86.810614 
L 256.381012 86.810614 
L 256.381012 82.978218 
L 257.310824 82.978218 
L 257.310824 79.145822 
L 257.445823 79.145822 
L 257.445823 75.313426 
L 257.697816 75.313426 
L 257.78441 67.648634 
L 258.086595 67.648634 
L 258.086595 63.816238 
L 315.748431 63.816238 
L 315.748431 59.983842 
L 316.826152 59.983842 
L 316.826152 56.151446 
L 317.298335 56.151446 
L 317.298335 52.31905 
L 318.200846 52.31905 
L 318.200846 48.486653 
L 318.328591 48.486653 
L 318.328591 44.654257 
L 319.568014 44.654257 
L 319.568014 40.821861 
L 319.788624 40.821861 
L 319.788624 36.989465 
L 320.820291 36.989465 
L 320.920937 29.324673 
L 322.521686 29.324673 
L 322.521686 25.492277 
L 322.881593 25.492277 
L 322.881593 21.659881 
L 325.075531 21.659881 
L 325.075531 17.827485 
L 325.884112 17.827485 
L 325.884112 13.995089 
L 329.128668 13.995089 
L 329.128668 10.162693 
L 341.025882 10.162693 
L 341.025882 6.330297 
L 341.025882 6.330297 
L 460.8 6.330297 
L 460.8 6.330297 
" clip-path="url(#p8d3b444a7b)" style="fill: none; stroke: #bf00bf; stroke-width: 1.5; stroke-linecap: square"/>
   </g>
   <g id="line2d_27">
    <path d="M -1 182.620515 
L -0.109766 182.620515 
L -0.109766 125.134574 
L 165.200252 125.134574 
L 165.200252 121.302178 
L 227.831931 121.302178 
L 227.831931 117.469782 
L 230.452706 117.469782 
L 230.452706 109.80499 
L 230.571476 109.80499 
L 230.571476 105.972594 
L 230.754635 105.972594 
L 230.754635 102.140198 
L 232.153202 102.140198 
L 232.167804 94.475406 
L 234.295015 94.475406 
L 234.295015 86.810614 
L 235.174857 86.810614 
L 235.174857 82.978218 
L 235.521992 82.978218 
L 235.521992 79.145822 
L 236.087827 79.145822 
L 236.08783 71.48103 
L 236.626052 71.48103 
L 236.626055 63.816238 
L 237.139234 63.816238 
L 237.139234 59.983842 
L 238.099094 59.983842 
L 238.099094 56.151446 
L 238.982068 56.151446 
L 238.982068 52.31905 
L 239.3984 52.31905 
L 239.3984 48.486653 
L 239.799591 48.486653 
L 239.799591 44.654257 
L 240.1867 44.654257 
L 240.1867 40.821861 
L 240.560681 40.821861 
L 240.560681 36.989465 
L 240.922399 36.989465 
L 240.922399 33.157069 
L 241.272625 33.157069 
L 241.272625 29.324673 
L 241.612079 29.324673 
L 241.612082 21.659881 
L 241.941402 21.659881 
L 241.941402 17.827485 
L 242.874189 17.827485 
L 242.874189 13.995089 
L 244.00661 13.995089 
L 244.00661 10.162693 
L 245.275978 10.162693 
L 245.275978 6.330297 
L 245.275978 6.330297 
L 460.8 6.330297 
L 460.8 6.330297 
" clip-path="url(#p8d3b444a7b)" style="fill: none; stroke: #000000; stroke-width: 1.5; stroke-linecap: square"/>
   </g>
   <g id="patch_3">
    <path d="M 0 293.76 
L 0 3.456 
" style="fill: none; stroke: #000000; stroke-width: 0.8; stroke-linejoin: miter; stroke-linecap: square"/>
   </g>
   <g id="patch_4">
    <path d="M 460.8 293.76 
L 460.8 3.456 
" style="fill: none; stroke: #000000; stroke-width: 0.8; stroke-linejoin: miter; stroke-linecap: square"/>
   </g>
   <g id="patch_5">
    <path d="M 0 293.76 
L 460.8 293.76 
" style="fill: none; stroke: #000000; stroke-width: 0.8; stroke-linejoin: miter; stroke-linecap: square"/>
   </g>
   <g id="patch_6">
    <path d="M 0 3.456 
L 460.8 3.456 
" style="fill: none; stroke: #000000; stroke-width: 0.8; stroke-linejoin: miter; stroke-linecap: square"/>
   </g>
   <g id="text_6">
    <!-- {f1-f5}, 20-D -->
    <g transform="translate(318.609 287.95392) scale(0.2 -0.2)">
     <defs>
      <path id="DejaVuSans-7b" d="M 3272 -594 
L 3272 -1044 
L 3078 -1044 
Q 2300 -1044 2036 -812 
Q 1772 -581 1772 109 
L 1772 856 
Q 1772 1328 1603 1509 
Q 1434 1691 991 1691 
L 800 1691 
L 800 2138 
L 991 2138 
Q 1438 2138 1605 2317 
Q 1772 2497 1772 2963 
L 1772 3713 
Q 1772 4403 2036 4633 
Q 2300 4863 3078 4863 
L 3272 4863 
L 3272 4416 
L 3059 4416 
Q 2619 4416 2484 4278 
Q 2350 4141 2350 3700 
L 2350 2925 
Q 2350 2434 2208 2212 
Q 2066 1991 1722 1913 
Q 2069 1828 2209 1606 
Q 2350 1384 2350 897 
L 2350 122 
Q 2350 -319 2484 -456 
Q 2619 -594 3059 -594 
L 3272 -594 
z
" transform="scale(0.015625)"/>
      <path id="DejaVuSans-35" d="M 691 4666 
L 3169 4666 
L 3169 4134 
L 1269 4134 
L 1269 2991 
Q 1406 3038 1543 3061 
Q 1681 3084 1819 3084 
Q 2600 3084 3056 2656 
Q 3513 2228 3513 1497 
Q 3513 744 3044 326 
Q 2575 -91 1722 -91 
Q 1428 -91 1123 -41 
Q 819 9 494 109 
L 494 744 
Q 775 591 1075 516 
Q 1375 441 1709 441 
Q 2250 441 2565 725 
Q 2881 1009 2881 1497 
Q 2881 1984 2565 2268 
Q 2250 2553 1709 2553 
Q 1456 2553 1204 2497 
Q 953 2441 691 2322 
L 691 4666 
z
" transform="scale(0.015625)"/>
      <path id="DejaVuSans-7d" d="M 800 -594 
L 1019 -594 
Q 1456 -594 1589 -459 
Q 1722 -325 1722 122 
L 1722 897 
Q 1722 1384 1862 1606 
Q 2003 1828 2350 1913 
Q 2003 1991 1862 2212 
Q 1722 2434 1722 2925 
L 1722 3700 
Q 1722 4144 1589 4280 
Q 1456 4416 1019 4416 
L 800 4416 
L 800 4863 
L 997 4863 
Q 1775 4863 2036 4633 
Q 2297 4403 2297 3713 
L 2297 2963 
Q 2297 2497 2465 2317 
Q 2634 2138 3078 2138 
L 3272 2138 
L 3272 1691 
L 3078 1691 
Q 2634 1691 2465 1509 
Q 2297 1328 2297 856 
L 2297 109 
Q 2297 -581 2036 -812 
Q 1775 -1044 997 -1044 
L 800 -1044 
L 800 -594 
z
" transform="scale(0.015625)"/>
      <path id="DejaVuSans-2c" d="M 750 794 
L 1409 794 
L 1409 256 
L 897 -744 
L 494 -744 
L 750 256 
L 750 794 
z
" transform="scale(0.015625)"/>
      <path id="DejaVuSans-32" d="M 1228 531 
L 3431 531 
L 3431 0 
L 469 0 
L 469 531 
Q 828 903 1448 1529 
Q 2069 2156 2228 2338 
Q 2531 2678 2651 2914 
Q 2772 3150 2772 3378 
Q 2772 3750 2511 3984 
Q 2250 4219 1831 4219 
Q 1534 4219 1204 4116 
Q 875 4013 500 3803 
L 500 4441 
Q 881 4594 1212 4672 
Q 1544 4750 1819 4750 
Q 2544 4750 2975 4387 
Q 3406 4025 3406 3419 
Q 3406 3131 3298 2873 
Q 3191 2616 2906 2266 
Q 2828 2175 2409 1742 
Q 1991 1309 1228 531 
z
" transform="scale(0.015625)"/>
     </defs>
     <use xlink:href="#DejaVuSans-7b"/>
     <use xlink:href="#DejaVuSans-66" x="63.623047"/>
     <use xlink:href="#DejaVuSans-31" x="98.828125"/>
     <use xlink:href="#DejaVuSans-2d" x="162.451172"/>
     <use xlink:href="#DejaVuSans-66" x="198.535156"/>
     <use xlink:href="#DejaVuSans-35" x="233.740234"/>
     <use xlink:href="#DejaVuSans-7d" x="297.363281"/>
     <use xlink:href="#DejaVuSans-2c" x="360.986328"/>
     <use xlink:href="#DejaVuSans-20" x="392.773438"/>
     <use xlink:href="#DejaVuSans-32" x="424.560547"/>
     <use xlink:href="#DejaVuSans-30" x="488.183594"/>
     <use xlink:href="#DejaVuSans-2d" x="551.806641"/>
     <use xlink:href="#DejaVuSans-44" x="587.890625"/>
    </g>
   </g>
   <g id="text_7">
    <!-- v2.6.3 -->
    <g style="fill: #808080" transform="translate(214.71875 288.777272) scale(0.1 -0.1)">
     <defs>
      <path id="DejaVuSans-76" d="M 191 3500 
L 800 3500 
L 1894 563 
L 2988 3500 
L 3597 3500 
L 2284 0 
L 1503 0 
L 191 3500 
z
" transform="scale(0.015625)"/>
      <path id="DejaVuSans-2e" d="M 684 794 
L 1344 794 
L 1344 0 
L 684 0 
L 684 794 
z
" transform="scale(0.015625)"/>
      <path id="DejaVuSans-36" d="M 2113 2584 
Q 1688 2584 1439 2293 
Q 1191 2003 1191 1497 
Q 1191 994 1439 701 
Q 1688 409 2113 409 
Q 2538 409 2786 701 
Q 3034 994 3034 1497 
Q 3034 2003 2786 2293 
Q 2538 2584 2113 2584 
z
M 3366 4563 
L 3366 3988 
Q 3128 4100 2886 4159 
Q 2644 4219 2406 4219 
Q 1781 4219 1451 3797 
Q 1122 3375 1075 2522 
Q 1259 2794 1537 2939 
Q 1816 3084 2150 3084 
Q 2853 3084 3261 2657 
Q 3669 2231 3669 1497 
Q 3669 778 3244 343 
Q 2819 -91 2113 -91 
Q 1303 -91 875 529 
Q 447 1150 447 2328 
Q 447 3434 972 4092 
Q 1497 4750 2381 4750 
Q 2619 4750 2861 4703 
Q 3103 4656 3366 4563 
z
" transform="scale(0.015625)"/>
      <path id="DejaVuSans-33" d="M 2597 2516 
Q 3050 2419 3304 2112 
Q 3559 1806 3559 1356 
Q 3559 666 3084 287 
Q 2609 -91 1734 -91 
Q 1441 -91 1130 -33 
Q 819 25 488 141 
L 488 750 
Q 750 597 1062 519 
Q 1375 441 1716 441 
Q 2309 441 2620 675 
Q 2931 909 2931 1356 
Q 2931 1769 2642 2001 
Q 2353 2234 1838 2234 
L 1294 2234 
L 1294 2753 
L 1863 2753 
Q 2328 2753 2575 2939 
Q 2822 3125 2822 3475 
Q 2822 3834 2567 4026 
Q 2313 4219 1838 4219 
Q 1578 4219 1281 4162 
Q 984 4106 628 3988 
L 628 4550 
Q 988 4650 1302 4700 
Q 1616 4750 1894 4750 
Q 2613 4750 3031 4423 
Q 3450 4097 3450 3541 
Q 3450 3153 3228 2886 
Q 3006 2619 2597 2516 
z
" transform="scale(0.015625)"/>
     </defs>
     <use xlink:href="#DejaVuSans-76"/>
     <use xlink:href="#DejaVuSans-32" x="59.179688"/>
     <use xlink:href="#DejaVuSans-2e" x="122.802734"/>
     <use xlink:href="#DejaVuSans-36" x="154.589844"/>
     <use xlink:href="#DejaVuSans-2e" x="218.212891"/>
     <use xlink:href="#DejaVuSans-33" x="250"/>
    </g>
   </g>
  </g>
 </g>
 <defs>
  <clipPath id="p8d3b444a7b">
   <rect x="0" y="3.456" width="460.8" height="290.304"/>
  </clipPath>
 </defs>
</svg>
