<?xml version="1.0" encoding="utf-8" standalone="no"?>
<!DOCTYPE svg PUBLIC "-//W3C//DTD SVG 1.1//EN"
  "http://www.w3.org/Graphics/SVG/1.1/DTD/svg11.dtd">
<svg xmlns:xlink="http://www.w3.org/1999/xlink" width="460.8pt" height="345.6pt" viewBox="0 0 460.8 345.6" xmlns="http://www.w3.org/2000/svg" version="1.1">
 <metadata>
  <rdf:RDF xmlns:dc="http://purl.org/dc/elements/1.1/" xmlns:cc="http://creativecommons.org/ns#" xmlns:rdf="http://www.w3.org/1999/02/22-rdf-syntax-ns#">
   <cc:Work>
    <dc:type rdf:resource="http://purl.org/dc/dcmitype/StillImage"/>
    <dc:date>2024-06-22T18:41:37.106547</dc:date>
    <dc:format>image/svg+xml</dc:format>
    <dc:creator>
     <cc:Agent>
      <dc:title>Matplotlib v3.7.5, https://matplotlib.org/</dc:title>
     </cc:Agent>
    </dc:creator>
   </cc:Work>
  </rdf:RDF>
 </metadata>
 <defs>
  <style type="text/css">*{stroke-linejoin: round; stroke-linecap: butt}</style>
 </defs>
 <g id="figure_1">
  <g id="patch_1">
   <path d="M 0 345.6 
L 460.8 345.6 
L 460.8 0 
L 0 0 
z
" style="fill: #ffffff"/>
  </g>
  <g id="axes_1">
   <g id="patch_2">
    <path d="M 0 293.76 
L 460.8 293.76 
L 460.8 3.456 
L 0 3.456 
z
" style="fill: #ffffff"/>
   </g>
   <g id="matplotlib.axis_1">
    <g id="xtick_1">
     <g id="line2d_1">
      <path d="M 101.493326 293.76 
L 101.493326 3.456 
" clip-path="url(#p404242d772)" style="fill: none; stroke: #b0b0b0; stroke-width: 0.8; stroke-linecap: square"/>
     </g>
     <g id="line2d_2">
      <defs>
       <path id="m750bc4c147" d="M 0 0 
L 0 3.5 
" style="stroke: #000000; stroke-width: 0.8"/>
      </defs>
      <g>
       <use xlink:href="#m750bc4c147" x="101.493326" y="293.76" style="stroke: #000000; stroke-width: 0.8"/>
      </g>
     </g>
     <g id="text_1">
      <!-- -4 -->
      <g transform="translate(91.523013 315.956875) scale(0.2 -0.2)">
       <defs>
        <path id="DejaVuSans-2d" d="M 313 2009 
L 1997 2009 
L 1997 1497 
L 313 1497 
L 313 2009 
z
" transform="scale(0.015625)"/>
        <path id="DejaVuSans-34" d="M 2419 4116 
L 825 1625 
L 2419 1625 
L 2419 4116 
z
M 2253 4666 
L 3047 4666 
L 3047 1625 
L 3713 1625 
L 3713 1100 
L 3047 1100 
L 3047 0 
L 2419 0 
L 2419 1100 
L 313 1100 
L 313 1709 
L 2253 4666 
z
" transform="scale(0.015625)"/>
       </defs>
       <use xlink:href="#DejaVuSans-2d"/>
       <use xlink:href="#DejaVuSans-34" x="36.083984"/>
      </g>
     </g>
    </g>
    <g id="xtick_2">
     <g id="line2d_3">
      <path d="M 203.096418 293.76 
L 203.096418 3.456 
" clip-path="url(#p404242d772)" style="fill: none; stroke: #b0b0b0; stroke-width: 0.8; stroke-linecap: square"/>
     </g>
     <g id="line2d_4">
      <g>
       <use xlink:href="#m750bc4c147" x="203.096418" y="293.76" style="stroke: #000000; stroke-width: 0.8"/>
      </g>
     </g>
     <g id="text_2">
      <!-- 0 -->
      <g transform="translate(196.733918 315.956875) scale(0.2 -0.2)">
       <defs>
        <path id="DejaVuSans-30" d="M 2034 4250 
Q 1547 4250 1301 3770 
Q 1056 3291 1056 2328 
Q 1056 1369 1301 889 
Q 1547 409 2034 409 
Q 2525 409 2770 889 
Q 3016 1369 3016 2328 
Q 3016 3291 2770 3770 
Q 2525 4250 2034 4250 
z
M 2034 4750 
Q 2819 4750 3233 4129 
Q 3647 3509 3647 2328 
Q 3647 1150 3233 529 
Q 2819 -91 2034 -91 
Q 1250 -91 836 529 
Q 422 1150 422 2328 
Q 422 3509 836 4129 
Q 1250 4750 2034 4750 
z
" transform="scale(0.015625)"/>
       </defs>
       <use xlink:href="#DejaVuSans-30"/>
      </g>
     </g>
    </g>
    <g id="xtick_3">
     <g id="line2d_5">
      <path d="M 304.699509 293.76 
L 304.699509 3.456 
" clip-path="url(#p404242d772)" style="fill: none; stroke: #b0b0b0; stroke-width: 0.8; stroke-linecap: square"/>
     </g>
     <g id="line2d_6">
      <g>
       <use xlink:href="#m750bc4c147" x="304.699509" y="293.76" style="stroke: #000000; stroke-width: 0.8"/>
      </g>
     </g>
     <g id="text_3">
      <!-- 4 -->
      <g transform="translate(298.337009 315.956875) scale(0.2 -0.2)">
       <use xlink:href="#DejaVuSans-34"/>
      </g>
     </g>
    </g>
    <g id="xtick_4">
     <g id="line2d_7">
      <path d="M 406.302601 293.76 
L 406.302601 3.456 
" clip-path="url(#p404242d772)" style="fill: none; stroke: #b0b0b0; stroke-width: 0.8; stroke-linecap: square"/>
     </g>
     <g id="line2d_8">
      <g>
       <use xlink:href="#m750bc4c147" x="406.302601" y="293.76" style="stroke: #000000; stroke-width: 0.8"/>
      </g>
     </g>
     <g id="text_4">
      <!-- 8 -->
      <g transform="translate(399.940101 315.956875) scale(0.2 -0.2)">
       <defs>
        <path id="DejaVuSans-38" d="M 2034 2216 
Q 1584 2216 1326 1975 
Q 1069 1734 1069 1313 
Q 1069 891 1326 650 
Q 1584 409 2034 409 
Q 2484 409 2743 651 
Q 3003 894 3003 1313 
Q 3003 1734 2745 1975 
Q 2488 2216 2034 2216 
z
M 1403 2484 
Q 997 2584 770 2862 
Q 544 3141 544 3541 
Q 544 4100 942 4425 
Q 1341 4750 2034 4750 
Q 2731 4750 3128 4425 
Q 3525 4100 3525 3541 
Q 3525 3141 3298 2862 
Q 3072 2584 2669 2484 
Q 3125 2378 3379 2068 
Q 3634 1759 3634 1313 
Q 3634 634 3220 271 
Q 2806 -91 2034 -91 
Q 1263 -91 848 271 
Q 434 634 434 1313 
Q 434 1759 690 2068 
Q 947 2378 1403 2484 
z
M 1172 3481 
Q 1172 3119 1398 2916 
Q 1625 2713 2034 2713 
Q 2441 2713 2670 2916 
Q 2900 3119 2900 3481 
Q 2900 3844 2670 4047 
Q 2441 4250 2034 4250 
Q 1625 4250 1398 4047 
Q 1172 3844 1172 3481 
z
" transform="scale(0.015625)"/>
       </defs>
       <use xlink:href="#DejaVuSans-38"/>
      </g>
     </g>
    </g>
    <g id="text_5">
     <!-- log10 of Df -->
     <g transform="translate(175.214063 339.313125) scale(0.2 -0.2)">
      <defs>
       <path id="DejaVuSans-6c" d="M 603 4863 
L 1178 4863 
L 1178 0 
L 603 0 
L 603 4863 
z
" transform="scale(0.015625)"/>
       <path id="DejaVuSans-6f" d="M 1959 3097 
Q 1497 3097 1228 2736 
Q 959 2375 959 1747 
Q 959 1119 1226 758 
Q 1494 397 1959 397 
Q 2419 397 2687 759 
Q 2956 1122 2956 1747 
Q 2956 2369 2687 2733 
Q 2419 3097 1959 3097 
z
M 1959 3584 
Q 2709 3584 3137 3096 
Q 3566 2609 3566 1747 
Q 3566 888 3137 398 
Q 2709 -91 1959 -91 
Q 1206 -91 779 398 
Q 353 888 353 1747 
Q 353 2609 779 3096 
Q 1206 3584 1959 3584 
z
" transform="scale(0.015625)"/>
       <path id="DejaVuSans-67" d="M 2906 1791 
Q 2906 2416 2648 2759 
Q 2391 3103 1925 3103 
Q 1463 3103 1205 2759 
Q 947 2416 947 1791 
Q 947 1169 1205 825 
Q 1463 481 1925 481 
Q 2391 481 2648 825 
Q 2906 1169 2906 1791 
z
M 3481 434 
Q 3481 -459 3084 -895 
Q 2688 -1331 1869 -1331 
Q 1566 -1331 1297 -1286 
Q 1028 -1241 775 -1147 
L 775 -588 
Q 1028 -725 1275 -790 
Q 1522 -856 1778 -856 
Q 2344 -856 2625 -561 
Q 2906 -266 2906 331 
L 2906 616 
Q 2728 306 2450 153 
Q 2172 0 1784 0 
Q 1141 0 747 490 
Q 353 981 353 1791 
Q 353 2603 747 3093 
Q 1141 3584 1784 3584 
Q 2172 3584 2450 3431 
Q 2728 3278 2906 2969 
L 2906 3500 
L 3481 3500 
L 3481 434 
z
" transform="scale(0.015625)"/>
       <path id="DejaVuSans-31" d="M 794 531 
L 1825 531 
L 1825 4091 
L 703 3866 
L 703 4441 
L 1819 4666 
L 2450 4666 
L 2450 531 
L 3481 531 
L 3481 0 
L 794 0 
L 794 531 
z
" transform="scale(0.015625)"/>
       <path id="DejaVuSans-20" transform="scale(0.015625)"/>
       <path id="DejaVuSans-66" d="M 2375 4863 
L 2375 4384 
L 1825 4384 
Q 1516 4384 1395 4259 
Q 1275 4134 1275 3809 
L 1275 3500 
L 2222 3500 
L 2222 3053 
L 1275 3053 
L 1275 0 
L 697 0 
L 697 3053 
L 147 3053 
L 147 3500 
L 697 3500 
L 697 3744 
Q 697 4328 969 4595 
Q 1241 4863 1831 4863 
L 2375 4863 
z
" transform="scale(0.015625)"/>
       <path id="DejaVuSans-44" d="M 1259 4147 
L 1259 519 
L 2022 519 
Q 2988 519 3436 956 
Q 3884 1394 3884 2338 
Q 3884 3275 3436 3711 
Q 2988 4147 2022 4147 
L 1259 4147 
z
M 628 4666 
L 1925 4666 
Q 3281 4666 3915 4102 
Q 4550 3538 4550 2338 
Q 4550 1131 3912 565 
Q 3275 0 1925 0 
L 628 0 
L 628 4666 
z
" transform="scale(0.015625)"/>
      </defs>
      <use xlink:href="#DejaVuSans-6c"/>
      <use xlink:href="#DejaVuSans-6f" x="27.783203"/>
      <use xlink:href="#DejaVuSans-67" x="88.964844"/>
      <use xlink:href="#DejaVuSans-31" x="152.441406"/>
      <use xlink:href="#DejaVuSans-30" x="216.064453"/>
      <use xlink:href="#DejaVuSans-20" x="279.6875"/>
      <use xlink:href="#DejaVuSans-6f" x="311.474609"/>
      <use xlink:href="#DejaVuSans-66" x="372.65625"/>
      <use xlink:href="#DejaVuSans-20" x="407.861328"/>
      <use xlink:href="#DejaVuSans-44" x="439.648438"/>
      <use xlink:href="#DejaVuSans-66" x="516.650391"/>
     </g>
    </g>
   </g>
   <g id="matplotlib.axis_2">
    <g id="ytick_1">
     <g id="line2d_9">
      <path d="M 0 293.76 
L 460.8 293.76 
" clip-path="url(#p404242d772)" style="fill: none; stroke: #b0b0b0; stroke-width: 0.8; stroke-linecap: square"/>
     </g>
     <g id="line2d_10">
      <defs>
       <path id="m6d6ffd279a" d="M 0 0 
L -3.5 0 
" style="stroke: #000000; stroke-width: 0.8"/>
      </defs>
      <g>
       <use xlink:href="#m6d6ffd279a" x="0" y="293.76" style="stroke: #000000; stroke-width: 0.8"/>
      </g>
     </g>
    </g>
    <g id="ytick_2">
     <g id="line2d_11">
      <path d="M 0 236.274059 
L 460.8 236.274059 
" clip-path="url(#p404242d772)" style="fill: none; stroke: #b0b0b0; stroke-width: 0.8; stroke-linecap: square"/>
     </g>
     <g id="line2d_12">
      <g>
       <use xlink:href="#m6d6ffd279a" x="0" y="236.274059" style="stroke: #000000; stroke-width: 0.8"/>
      </g>
     </g>
    </g>
    <g id="ytick_3">
     <g id="line2d_13">
      <path d="M 0 178.788119 
L 460.8 178.788119 
" clip-path="url(#p404242d772)" style="fill: none; stroke: #b0b0b0; stroke-width: 0.8; stroke-linecap: square"/>
     </g>
     <g id="line2d_14">
      <g>
       <use xlink:href="#m6d6ffd279a" x="0" y="178.788119" style="stroke: #000000; stroke-width: 0.8"/>
      </g>
     </g>
    </g>
    <g id="ytick_4">
     <g id="line2d_15">
      <path d="M 0 121.302178 
L 460.8 121.302178 
" clip-path="url(#p404242d772)" style="fill: none; stroke: #b0b0b0; stroke-width: 0.8; stroke-linecap: square"/>
     </g>
     <g id="line2d_16">
      <g>
       <use xlink:href="#m6d6ffd279a" x="0" y="121.302178" style="stroke: #000000; stroke-width: 0.8"/>
      </g>
     </g>
    </g>
    <g id="ytick_5">
     <g id="line2d_17">
      <path d="M 0 63.816238 
L 460.8 63.816238 
" clip-path="url(#p404242d772)" style="fill: none; stroke: #b0b0b0; stroke-width: 0.8; stroke-linecap: square"/>
     </g>
     <g id="line2d_18">
      <g>
       <use xlink:href="#m6d6ffd279a" x="0" y="63.816238" style="stroke: #000000; stroke-width: 0.8"/>
      </g>
     </g>
    </g>
    <g id="ytick_6">
     <g id="line2d_19">
      <path d="M 0 6.330297 
L 460.8 6.330297 
" clip-path="url(#p404242d772)" style="fill: none; stroke: #b0b0b0; stroke-width: 0.8; stroke-linecap: square"/>
     </g>
     <g id="line2d_20">
      <g>
       <use xlink:href="#m6d6ffd279a" x="0" y="6.330297" style="stroke: #000000; stroke-width: 0.8"/>
      </g>
     </g>
    </g>
   </g>
   <g id="line2d_21">
    <path d="M -1 183.578614 
L 7.59682 183.578614 
L 7.59682 178.788119 
L 12.361439 178.788119 
L 12.361439 173.997624 
L 14.129153 173.997624 
L 14.129153 169.207129 
L 16.452655 169.207129 
L 16.452655 164.416634 
L 25.030029 164.416634 
L 25.030029 159.626139 
L 26.28633 159.626139 
L 26.28633 154.835644 
L 31.994524 154.835644 
L 31.994524 150.045149 
L 33.157746 150.045149 
L 33.157746 145.254653 
L 36.249896 145.254653 
L 36.249896 140.464158 
L 37.425086 140.464158 
L 37.425086 135.673663 
L 39.026828 135.673663 
L 39.026828 130.883168 
L 62.311429 130.883168 
L 62.311429 126.092673 
L 69.719536 126.092673 
L 69.719536 121.302178 
L 74.636234 121.302178 
L 74.636234 116.511683 
L 79.652545 116.511683 
L 79.652545 111.721188 
L 80.471665 111.721188 
L 80.471665 106.930693 
L 101.853616 106.930693 
L 101.853616 102.140198 
L 108.454579 102.140198 
L 108.454579 97.349703 
L 112.725938 97.349703 
L 112.725938 92.559208 
L 119.106342 92.559208 
L 119.106342 87.768713 
L 143.670653 87.768713 
L 143.670653 82.978218 
L 148.826552 82.978218 
L 148.826552 78.187723 
L 150.957937 78.187723 
L 150.957937 73.397228 
L 158.632201 73.397228 
L 158.632201 68.606733 
L 173.462798 68.606733 
L 173.462798 63.816238 
L 173.84676 63.816238 
L 173.84676 59.025743 
L 183.050729 59.025743 
L 183.050729 54.235248 
L 191.356546 54.235248 
L 191.356546 49.444752 
L 192.45382 49.444752 
L 192.45382 44.654257 
L 194.289276 44.654257 
L 194.289276 39.863762 
L 197.771096 39.863762 
L 197.771096 35.073267 
L 198.149755 35.073267 
L 198.149755 30.282772 
L 199.213734 30.282772 
L 199.213734 25.492277 
L 200.667139 25.492277 
L 200.667139 20.701782 
L 201.480471 20.701782 
L 201.480471 15.911287 
L 205.680965 15.911287 
L 205.680965 11.120792 
L 206.258891 11.120792 
L 206.258891 6.330297 
L 206.258891 6.330297 
L 206.258891 6.330297 
L 460.8 6.330297 
" clip-path="url(#p404242d772)" style="fill: none; stroke: #ff0000; stroke-width: 3; stroke-linecap: square"/>
   </g>
   <g id="line2d_22">
    <path d="M 274.553994 293.76 
L 274.553994 288.969505 
L 275.917137 288.969505 
L 275.917137 284.17901 
L 276.457092 284.17901 
L 276.457092 279.388515 
L 280.9463 279.388515 
L 280.9463 274.59802 
L 281.269186 274.59802 
L 281.269186 269.807525 
L 281.511762 269.807525 
L 281.511762 265.01703 
L 283.513112 265.01703 
L 283.513112 260.226535 
L 284.29451 260.226535 
L 284.29451 255.43604 
L 284.688919 255.43604 
L 284.688919 250.645545 
L 284.792729 250.645545 
L 284.792729 245.85505 
L 285.097008 245.85505 
L 285.097008 241.064554 
L 285.441839 241.064554 
L 285.441839 236.274059 
L 286.279896 236.274059 
L 286.279896 231.483564 
L 289.020907 231.483564 
L 289.020907 226.693069 
L 289.537758 226.693069 
L 289.537758 221.902574 
L 334.616989 221.902574 
L 334.616989 217.112079 
L 335.916193 217.112079 
L 335.916193 212.321584 
L 335.972938 212.321584 
L 335.972938 207.531089 
L 337.47663 207.531089 
L 337.47663 202.740594 
L 338.38281 202.740594 
L 338.38281 197.950099 
L 339.257463 197.950099 
L 339.257463 193.159604 
L 339.277279 193.159604 
L 339.277279 188.369109 
L 342.022177 188.369109 
L 342.022177 183.578614 
L 342.339581 183.578614 
L 342.339581 178.788119 
L 342.347792 178.788119 
L 342.347792 173.997624 
L 342.384072 173.997624 
L 342.384072 169.207129 
L 342.829704 169.207129 
L 342.829704 164.416634 
L 343.142046 164.416634 
L 343.142046 159.626139 
L 343.201054 159.626139 
L 343.201054 154.835644 
L 343.406793 154.835644 
L 343.406793 150.045149 
L 343.591444 150.045149 
L 343.591444 145.254653 
L 343.605747 145.254653 
L 343.605747 140.464158 
L 343.83025 140.464158 
L 343.83025 135.673663 
L 343.862766 135.673663 
L 343.862766 130.883168 
L 344.20617 130.883168 
L 344.20617 126.092673 
L 344.745583 126.092673 
L 344.745583 121.302178 
L 344.809055 121.302178 
L 344.809055 116.511683 
L 344.872087 116.511683 
L 344.872087 111.721188 
L 345.263224 111.721188 
L 345.263224 106.930693 
L 345.351118 106.930693 
L 345.351118 102.140198 
L 345.655818 102.140198 
L 345.655818 97.349703 
L 345.899321 97.349703 
L 345.899321 92.559208 
L 346.881763 92.559208 
L 346.881763 87.768713 
L 346.936703 87.768713 
L 346.936703 82.978218 
L 347.107284 82.978218 
L 347.107284 78.187723 
L 347.134758 78.187723 
L 347.134758 73.397228 
L 348.294311 73.397228 
L 348.294311 68.606733 
L 348.294896 68.606733 
L 348.294896 63.816238 
L 349.475237 63.816238 
L 349.475237 59.025743 
L 349.567909 59.025743 
L 349.567909 54.235248 
L 349.655668 54.235248 
L 349.655668 49.444752 
L 349.799377 49.444752 
L 349.799377 44.654257 
L 350.308288 44.654257 
L 350.308288 39.863762 
L 350.51329 39.863762 
L 350.51329 35.073267 
L 351.254406 35.073267 
L 351.254406 30.282772 
L 351.372823 30.282772 
L 351.372823 25.492277 
L 351.457645 25.492277 
L 351.457645 20.701782 
L 352.372588 20.701782 
L 352.372588 15.911287 
L 353.034404 15.911287 
L 353.034404 11.120792 
L 356.062371 11.120792 
L 356.062371 6.330297 
L 356.062371 6.330297 
L 356.062371 6.330297 
L 460.8 6.330297 
" clip-path="url(#p404242d772)" style="fill: none; stroke: #00bfbf; stroke-width: 1.5; stroke-linecap: square"/>
   </g>
   <g id="line2d_23">
    <path d="M 274.553994 293.76 
L 274.553994 288.969505 
L 275.917137 288.969505 
L 275.917137 284.17901 
L 276.457092 284.17901 
L 276.457092 279.388515 
L 276.992344 279.388515 
L 276.992344 274.59802 
L 277.392992 274.59802 
L 277.392992 269.807525 
L 277.725576 269.807525 
L 277.725576 265.01703 
L 278.51961 265.01703 
L 278.51961 260.226535 
L 279.002491 260.226535 
L 279.002491 255.43604 
L 280.035269 255.43604 
L 280.035269 250.645545 
L 280.418318 250.645545 
L 280.418318 245.85505 
L 280.9463 245.85505 
L 280.9463 241.064554 
L 281.026281 241.064554 
L 281.026281 236.274059 
L 281.269186 236.274059 
L 281.269186 231.483564 
L 285.05192 231.483564 
L 285.05192 226.693069 
L 288.354182 226.693069 
L 288.354182 221.902574 
L 324.419165 221.902574 
L 324.419165 217.112079 
L 324.452282 217.112079 
L 324.452282 212.321584 
L 326.803258 212.321584 
L 326.803258 207.531089 
L 328.48092 207.531089 
L 328.48092 202.740594 
L 329.343691 202.740594 
L 329.343691 197.950099 
L 329.687142 197.950099 
L 329.687142 193.159604 
L 330.48721 193.159604 
L 330.48721 188.369109 
L 330.61184 188.369109 
L 330.61184 183.578614 
L 331.262086 183.578614 
L 331.262086 178.788119 
L 331.3197 178.788119 
L 331.3197 173.997624 
L 331.974092 173.997624 
L 331.974092 169.207129 
L 333.318788 169.207129 
L 333.318788 164.416634 
L 333.588922 164.416634 
L 333.588922 159.626139 
L 334.638889 159.626139 
L 334.638889 154.835644 
L 334.639348 154.835644 
L 334.639348 150.045149 
L 334.894174 150.045149 
L 334.894174 145.254653 
L 335.137517 145.254653 
L 335.137517 140.464158 
L 335.972938 140.464158 
L 335.972938 135.673663 
L 336.779585 135.673663 
L 336.779585 130.883168 
L 337.200203 130.883168 
L 337.200203 126.092673 
L 337.735532 126.092673 
L 337.735532 121.302178 
L 338.081125 121.302178 
L 338.081125 116.511683 
L 338.452582 116.511683 
L 338.452582 111.721188 
L 339.277279 111.721188 
L 339.277279 106.930693 
L 339.506923 106.930693 
L 339.506923 102.140198 
L 339.712104 102.140198 
L 339.712104 97.349703 
L 340.058367 97.349703 
L 340.058367 92.559208 
L 340.148242 92.559208 
L 340.148242 87.768713 
L 342.276809 87.768713 
L 342.276809 82.978218 
L 342.408797 82.978218 
L 342.408797 78.187723 
L 342.50674 78.187723 
L 342.50674 73.397228 
L 342.899621 73.397228 
L 342.899621 68.606733 
L 343.597307 68.606733 
L 343.597307 63.816238 
L 344.809055 63.816238 
L 344.809055 59.025743 
L 345.092911 59.025743 
L 345.092911 54.235248 
L 345.171186 54.235248 
L 345.171186 49.444752 
L 345.275322 49.444752 
L 345.275322 44.654257 
L 345.75363 44.654257 
L 345.75363 39.863762 
L 346.160047 39.863762 
L 346.160047 35.073267 
L 349.550157 35.073267 
L 349.550157 30.282772 
L 349.706458 30.282772 
L 349.706458 25.492277 
L 349.799377 25.492277 
L 349.799377 20.701782 
L 350.08024 20.701782 
L 350.08024 15.911287 
L 350.232585 15.911287 
L 350.232585 11.120792 
L 350.308288 11.120792 
L 350.308288 6.330297 
L 350.308288 6.330297 
L 350.308288 6.330297 
L 460.8 6.330297 
" clip-path="url(#p404242d772)" style="fill: none; stroke: #bf00bf; stroke-width: 1.5; stroke-linecap: square"/>
   </g>
   <g id="line2d_24">
    <path d="M 269.95964 293.76 
L 269.95964 288.969505 
L 270.912445 288.969505 
L 270.912445 284.17901 
L 271.420625 284.17901 
L 271.420625 279.388515 
L 271.531744 279.388515 
L 271.531744 274.59802 
L 272.026421 274.59802 
L 272.026421 269.807525 
L 273.377852 269.807525 
L 273.377852 265.01703 
L 274.26672 265.01703 
L 274.26672 260.226535 
L 274.553994 260.226535 
L 274.553994 255.43604 
L 275.353266 255.43604 
L 275.353266 250.645545 
L 275.917137 250.645545 
L 275.917137 245.85505 
L 276.457092 245.85505 
L 276.457092 241.064554 
L 277.392992 241.064554 
L 277.392992 236.274059 
L 278.127842 236.274059 
L 278.127842 231.483564 
L 279.27603 231.483564 
L 279.27603 226.693069 
L 280.222903 226.693069 
L 280.222903 221.902574 
L 306.061947 221.902574 
L 306.061947 217.112079 
L 319.088963 217.112079 
L 319.088963 212.321584 
L 324.416253 212.321584 
L 324.416253 207.531089 
L 324.419165 207.531089 
L 324.419165 202.740594 
L 324.452282 202.740594 
L 324.452282 197.950099 
L 324.485157 197.950099 
L 324.485157 193.159604 
L 326.803258 193.159604 
L 326.803258 188.369109 
L 326.946853 188.369109 
L 326.946853 183.578614 
L 328.48092 183.578614 
L 328.48092 178.788119 
L 328.980068 178.788119 
L 328.980068 173.997624 
L 329.332221 173.997624 
L 329.332221 169.207129 
L 329.343691 169.207129 
L 329.343691 164.416634 
L 329.593529 164.416634 
L 329.593529 159.626139 
L 329.687142 159.626139 
L 329.687142 154.835644 
L 329.71174 154.835644 
L 329.71174 150.045149 
L 330.082586 150.045149 
L 330.082586 145.254653 
L 330.48721 145.254653 
L 330.48721 140.464158 
L 330.489507 140.464158 
L 330.489507 135.673663 
L 330.61184 135.673663 
L 330.61184 130.883168 
L 331.492255 130.883168 
L 331.492255 126.092673 
L 331.909878 126.092673 
L 331.909878 121.302178 
L 331.974092 121.302178 
L 331.974092 116.511683 
L 331.995589 116.511683 
L 331.995589 111.721188 
L 332.11398 111.721188 
L 332.11398 106.930693 
L 332.394783 106.930693 
L 332.394783 102.140198 
L 333.318788 102.140198 
L 333.318788 97.349703 
L 333.588922 97.349703 
L 333.588922 92.559208 
L 334.452317 92.559208 
L 334.452317 87.768713 
L 334.58049 87.768713 
L 334.58049 82.978218 
L 334.638889 82.978218 
L 334.638889 78.187723 
L 334.639348 78.187723 
L 334.639348 73.397228 
L 334.790075 73.397228 
L 334.790075 68.606733 
L 334.894174 68.606733 
L 334.894174 63.816238 
L 335.137517 63.816238 
L 335.137517 59.025743 
L 335.972938 59.025743 
L 335.972938 54.235248 
L 336.214745 54.235248 
L 336.214745 49.444752 
L 336.574706 49.444752 
L 336.574706 44.654257 
L 336.779585 44.654257 
L 336.779585 39.863762 
L 337.556624 39.863762 
L 337.556624 35.073267 
L 337.74808 35.073267 
L 337.74808 30.282772 
L 339.208921 30.282772 
L 339.208921 25.492277 
L 339.506923 25.492277 
L 339.506923 20.701782 
L 341.154257 20.701782 
L 341.154257 15.911287 
L 342.192439 15.911287 
L 342.192439 11.120792 
L 343.750553 11.120792 
L 343.750553 6.330297 
L 343.750553 6.330297 
L 343.750553 6.330297 
L 460.8 6.330297 
" clip-path="url(#p404242d772)" style="fill: none; stroke: #000000; stroke-width: 1.5; stroke-linecap: square"/>
   </g>
   <g id="line2d_25">
    <path d="M 262.095382 293.76 
L 262.095382 288.969505 
L 262.809576 288.969505 
L 262.809576 284.17901 
L 262.875626 284.17901 
L 262.875626 279.388515 
L 263.47674 279.388515 
L 263.47674 274.59802 
L 263.518941 274.59802 
L 263.518941 269.807525 
L 263.948905 269.807525 
L 263.948905 265.01703 
L 264.304175 265.01703 
L 264.304175 260.226535 
L 264.748285 260.226535 
L 264.748285 255.43604 
L 265.11555 255.43604 
L 265.11555 250.645545 
L 266.085183 250.645545 
L 266.085183 245.85505 
L 267.864648 245.85505 
L 267.864648 241.064554 
L 268.112697 241.064554 
L 268.112697 236.274059 
L 269.105585 236.274059 
L 269.105585 231.483564 
L 269.667288 231.483564 
L 269.667288 226.693069 
L 270.253426 226.693069 
L 270.253426 221.902574 
L 271.689328 221.902574 
L 271.689328 217.112079 
L 272.405689 217.112079 
L 272.405689 212.321584 
L 274.802285 212.321584 
L 274.802285 207.531089 
L 275.713949 207.531089 
L 275.713949 202.740594 
L 276.273158 202.740594 
L 276.273158 197.950099 
L 277.403931 197.950099 
L 277.403931 193.159604 
L 277.646883 193.159604 
L 277.646883 188.369109 
L 278.727507 188.369109 
L 278.727507 183.578614 
L 279.23545 183.578614 
L 279.23545 178.788119 
L 279.3513 178.788119 
L 279.3513 173.997624 
L 279.687746 173.997624 
L 279.687746 169.207129 
L 282.479701 169.207129 
L 282.479701 164.416634 
L 285.97409 164.416634 
L 285.97409 159.626139 
L 286.917644 159.626139 
L 286.917644 154.835644 
L 290.945451 154.835644 
L 290.945451 150.045149 
L 293.690519 150.045149 
L 293.690519 145.254653 
L 294.170908 145.254653 
L 294.170908 140.464158 
L 295.290198 140.464158 
L 295.290198 135.673663 
L 295.603547 135.673663 
L 295.603547 130.883168 
L 295.826372 130.883168 
L 295.826372 126.092673 
L 296.251054 126.092673 
L 296.251054 121.302178 
L 297.899071 121.302178 
L 297.899071 116.511683 
L 298.61087 116.511683 
L 298.61087 111.721188 
L 299.550638 111.721188 
L 299.550638 106.930693 
L 300.413569 106.930693 
L 300.413569 102.140198 
L 301.063907 102.140198 
L 301.063907 97.349703 
L 301.686019 97.349703 
L 301.686019 92.559208 
L 301.787757 92.559208 
L 301.787757 87.768713 
L 302.681015 87.768713 
L 302.681015 82.978218 
L 302.869339 82.978218 
L 302.869339 78.187723 
L 303.481065 78.187723 
L 303.481065 73.397228 
L 304.078507 73.397228 
L 304.078507 68.606733 
L 304.920102 68.606733 
L 304.920102 63.816238 
L 305.428843 63.816238 
L 305.428843 59.025743 
L 305.606229 59.025743 
L 305.606229 54.235248 
L 306.38617 54.235248 
L 306.38617 49.444752 
L 308.896922 49.444752 
L 308.896922 44.654257 
L 309.45025 44.654257 
L 309.45025 39.863762 
L 309.701097 39.863762 
L 309.701097 35.073267 
L 310.035221 35.073267 
L 310.035221 30.282772 
L 310.284154 30.282772 
L 310.284154 25.492277 
L 311.307496 25.492277 
L 311.307496 20.701782 
L 311.691446 20.701782 
L 311.691446 15.911287 
L 314.036388 15.911287 
L 314.036388 11.120792 
L 314.163904 11.120792 
L 314.163904 6.330297 
L 314.163904 6.330297 
L 314.163904 6.330297 
L 460.8 6.330297 
" clip-path="url(#p404242d772)" style="fill: none; stroke: #00bfbf; stroke-width: 1.5; stroke-linecap: square"/>
   </g>
   <g id="line2d_26">
    <path d="M 215.991328 293.76 
L 215.991328 288.969505 
L 216.520883 288.969505 
L 216.520883 284.17901 
L 218.154363 284.17901 
L 218.154363 279.388515 
L 218.497093 279.388515 
L 218.497093 274.59802 
L 218.824228 274.59802 
L 218.824228 269.807525 
L 219.482251 269.807525 
L 219.482251 265.01703 
L 220.21584 265.01703 
L 220.21584 260.226535 
L 220.27028 260.226535 
L 220.27028 255.43604 
L 223.117525 255.43604 
L 223.117525 250.645545 
L 223.605667 250.645545 
L 223.605667 245.85505 
L 224.628903 245.85505 
L 224.628903 241.064554 
L 224.960454 241.064554 
L 224.960454 236.274059 
L 226.4489 236.274059 
L 226.4489 231.483564 
L 227.998267 231.483564 
L 227.998267 226.693069 
L 228.508334 226.693069 
L 228.508334 221.902574 
L 228.711465 221.902574 
L 228.711465 217.112079 
L 229.258671 217.112079 
L 229.258671 212.321584 
L 229.501074 212.321584 
L 229.501074 207.531089 
L 230.151118 207.531089 
L 230.151118 202.740594 
L 230.965996 202.740594 
L 230.965996 197.950099 
L 230.978139 197.950099 
L 230.978139 193.159604 
L 231.931107 193.159604 
L 231.931107 188.369109 
L 232.236382 188.369109 
L 232.236382 183.578614 
L 232.370217 183.578614 
L 232.370217 178.788119 
L 234.366942 178.788119 
L 234.366942 173.997624 
L 234.444311 173.997624 
L 234.444311 169.207129 
L 234.512111 169.207129 
L 234.512111 164.416634 
L 234.55478 164.416634 
L 234.55478 159.626139 
L 234.565283 159.626139 
L 234.565283 154.835644 
L 234.586215 154.835644 
L 234.586215 150.045149 
L 234.632526 150.045149 
L 234.632526 145.254653 
L 234.691217 145.254653 
L 234.691217 140.464158 
L 234.722543 140.464158 
L 234.722543 135.673663 
L 234.724408 135.673663 
L 234.724408 130.883168 
L 234.771452 130.883168 
L 234.771452 126.092673 
L 234.783044 126.092673 
L 234.783044 121.302178 
L 234.791908 121.302178 
L 234.791908 116.511683 
L 234.879868 116.511683 
L 234.879868 111.721188 
L 234.908957 111.721188 
L 234.908957 106.930693 
L 234.940425 106.930693 
L 234.940425 102.140198 
L 234.982363 102.140198 
L 234.982363 97.349703 
L 235.023692 97.349703 
L 235.023692 92.559208 
L 235.064863 92.559208 
L 235.064863 87.768713 
L 235.126988 87.768713 
L 235.126988 82.978218 
L 235.136246 82.978218 
L 235.136246 78.187723 
L 235.138158 78.187723 
L 235.138158 73.397228 
L 235.146542 73.397228 
L 235.146542 68.606733 
L 235.309765 68.606733 
L 235.309765 63.816238 
L 235.354097 63.816238 
L 235.354097 59.025743 
L 235.658738 59.025743 
L 235.658738 54.235248 
L 235.689993 54.235248 
L 235.689993 49.444752 
L 235.740188 49.444752 
L 235.740188 44.654257 
L 235.759227 44.654257 
L 235.759227 39.863762 
L 235.771973 39.863762 
L 235.771973 35.073267 
L 235.796156 35.073267 
L 235.796156 30.282772 
L 236.930817 30.282772 
L 236.930817 25.492277 
L 237.048147 25.492277 
L 237.048147 20.701782 
L 237.709234 20.701782 
L 237.709234 15.911287 
L 244.709032 15.911287 
L 244.709032 11.120792 
L 252.212516 11.120792 
L 252.212516 6.330297 
L 252.212516 6.330297 
L 252.212516 6.330297 
L 460.8 6.330297 
" clip-path="url(#p404242d772)" style="fill: none; stroke: #bf00bf; stroke-width: 1.5; stroke-linecap: square"/>
   </g>
   <g id="line2d_27">
    <path d="M -1 183.578614 
L 7.59682 183.578614 
L 7.59682 178.788119 
L 12.361439 178.788119 
L 12.361439 173.997624 
L 14.129153 173.997624 
L 14.129153 169.207129 
L 16.452655 169.207129 
L 16.452655 164.416634 
L 25.030029 164.416634 
L 25.030029 159.626139 
L 26.28633 159.626139 
L 26.28633 154.835644 
L 31.994524 154.835644 
L 31.994524 150.045149 
L 33.157746 150.045149 
L 33.157746 145.254653 
L 36.249896 145.254653 
L 36.249896 140.464158 
L 37.425086 140.464158 
L 37.425086 135.673663 
L 39.026828 135.673663 
L 39.026828 130.883168 
L 62.311429 130.883168 
L 62.311429 126.092673 
L 69.719536 126.092673 
L 69.719536 121.302178 
L 74.636234 121.302178 
L 74.636234 116.511683 
L 79.652545 116.511683 
L 79.652545 111.721188 
L 80.471665 111.721188 
L 80.471665 106.930693 
L 101.853616 106.930693 
L 101.853616 102.140198 
L 108.454579 102.140198 
L 108.454579 97.349703 
L 112.725938 97.349703 
L 112.725938 92.559208 
L 119.106342 92.559208 
L 119.106342 87.768713 
L 143.670653 87.768713 
L 143.670653 82.978218 
L 148.826552 82.978218 
L 148.826552 78.187723 
L 150.957937 78.187723 
L 150.957937 73.397228 
L 158.632201 73.397228 
L 158.632201 68.606733 
L 173.462798 68.606733 
L 173.462798 63.816238 
L 173.84676 63.816238 
L 173.84676 59.025743 
L 183.050729 59.025743 
L 183.050729 54.235248 
L 191.356546 54.235248 
L 191.356546 49.444752 
L 192.45382 49.444752 
L 192.45382 44.654257 
L 194.289276 44.654257 
L 194.289276 39.863762 
L 197.771096 39.863762 
L 197.771096 35.073267 
L 198.149755 35.073267 
L 198.149755 30.282772 
L 199.213734 30.282772 
L 199.213734 25.492277 
L 200.667139 25.492277 
L 200.667139 20.701782 
L 201.480471 20.701782 
L 201.480471 15.911287 
L 205.680965 15.911287 
L 205.680965 11.120792 
L 206.258891 11.120792 
L 206.258891 6.330297 
L 206.258891 6.330297 
L 206.258891 6.330297 
L 460.8 6.330297 
" clip-path="url(#p404242d772)" style="fill: none; stroke: #000000; stroke-width: 1.5; stroke-linecap: square"/>
   </g>
   <g id="patch_3">
    <path d="M 0 293.76 
L 0 3.456 
" style="fill: none; stroke: #000000; stroke-width: 0.8; stroke-linejoin: miter; stroke-linecap: square"/>
   </g>
   <g id="patch_4">
    <path d="M 460.8 293.76 
L 460.8 3.456 
" style="fill: none; stroke: #000000; stroke-width: 0.8; stroke-linejoin: miter; stroke-linecap: square"/>
   </g>
   <g id="patch_5">
    <path d="M 0 293.76 
L 460.8 293.76 
" style="fill: none; stroke: #000000; stroke-width: 0.8; stroke-linejoin: miter; stroke-linecap: square"/>
   </g>
   <g id="patch_6">
    <path d="M 0 3.456 
L 460.8 3.456 
" style="fill: none; stroke: #000000; stroke-width: 0.8; stroke-linejoin: miter; stroke-linecap: square"/>
   </g>
   <g id="text_6">
    <!-- {f6-f9}, 20-D -->
    <g transform="translate(318.609 287.95392) scale(0.2 -0.2)">
     <defs>
      <path id="DejaVuSans-7b" d="M 3272 -594 
L 3272 -1044 
L 3078 -1044 
Q 2300 -1044 2036 -812 
Q 1772 -581 1772 109 
L 1772 856 
Q 1772 1328 1603 1509 
Q 1434 1691 991 1691 
L 800 1691 
L 800 2138 
L 991 2138 
Q 1438 2138 1605 2317 
Q 1772 2497 1772 2963 
L 1772 3713 
Q 1772 4403 2036 4633 
Q 2300 4863 3078 4863 
L 3272 4863 
L 3272 4416 
L 3059 4416 
Q 2619 4416 2484 4278 
Q 2350 4141 2350 3700 
L 2350 2925 
Q 2350 2434 2208 2212 
Q 2066 1991 1722 1913 
Q 2069 1828 2209 1606 
Q 2350 1384 2350 897 
L 2350 122 
Q 2350 -319 2484 -456 
Q 2619 -594 3059 -594 
L 3272 -594 
z
" transform="scale(0.015625)"/>
      <path id="DejaVuSans-36" d="M 2113 2584 
Q 1688 2584 1439 2293 
Q 1191 2003 1191 1497 
Q 1191 994 1439 701 
Q 1688 409 2113 409 
Q 2538 409 2786 701 
Q 3034 994 3034 1497 
Q 3034 2003 2786 2293 
Q 2538 2584 2113 2584 
z
M 3366 4563 
L 3366 3988 
Q 3128 4100 2886 4159 
Q 2644 4219 2406 4219 
Q 1781 4219 1451 3797 
Q 1122 3375 1075 2522 
Q 1259 2794 1537 2939 
Q 1816 3084 2150 3084 
Q 2853 3084 3261 2657 
Q 3669 2231 3669 1497 
Q 3669 778 3244 343 
Q 2819 -91 2113 -91 
Q 1303 -91 875 529 
Q 447 1150 447 2328 
Q 447 3434 972 4092 
Q 1497 4750 2381 4750 
Q 2619 4750 2861 4703 
Q 3103 4656 3366 4563 
z
" transform="scale(0.015625)"/>
      <path id="DejaVuSans-39" d="M 703 97 
L 703 672 
Q 941 559 1184 500 
Q 1428 441 1663 441 
Q 2288 441 2617 861 
Q 2947 1281 2994 2138 
Q 2813 1869 2534 1725 
Q 2256 1581 1919 1581 
Q 1219 1581 811 2004 
Q 403 2428 403 3163 
Q 403 3881 828 4315 
Q 1253 4750 1959 4750 
Q 2769 4750 3195 4129 
Q 3622 3509 3622 2328 
Q 3622 1225 3098 567 
Q 2575 -91 1691 -91 
Q 1453 -91 1209 -44 
Q 966 3 703 97 
z
M 1959 2075 
Q 2384 2075 2632 2365 
Q 2881 2656 2881 3163 
Q 2881 3666 2632 3958 
Q 2384 4250 1959 4250 
Q 1534 4250 1286 3958 
Q 1038 3666 1038 3163 
Q 1038 2656 1286 2365 
Q 1534 2075 1959 2075 
z
" transform="scale(0.015625)"/>
      <path id="DejaVuSans-7d" d="M 800 -594 
L 1019 -594 
Q 1456 -594 1589 -459 
Q 1722 -325 1722 122 
L 1722 897 
Q 1722 1384 1862 1606 
Q 2003 1828 2350 1913 
Q 2003 1991 1862 2212 
Q 1722 2434 1722 2925 
L 1722 3700 
Q 1722 4144 1589 4280 
Q 1456 4416 1019 4416 
L 800 4416 
L 800 4863 
L 997 4863 
Q 1775 4863 2036 4633 
Q 2297 4403 2297 3713 
L 2297 2963 
Q 2297 2497 2465 2317 
Q 2634 2138 3078 2138 
L 3272 2138 
L 3272 1691 
L 3078 1691 
Q 2634 1691 2465 1509 
Q 2297 1328 2297 856 
L 2297 109 
Q 2297 -581 2036 -812 
Q 1775 -1044 997 -1044 
L 800 -1044 
L 800 -594 
z
" transform="scale(0.015625)"/>
      <path id="DejaVuSans-2c" d="M 750 794 
L 1409 794 
L 1409 256 
L 897 -744 
L 494 -744 
L 750 256 
L 750 794 
z
" transform="scale(0.015625)"/>
      <path id="DejaVuSans-32" d="M 1228 531 
L 3431 531 
L 3431 0 
L 469 0 
L 469 531 
Q 828 903 1448 1529 
Q 2069 2156 2228 2338 
Q 2531 2678 2651 2914 
Q 2772 3150 2772 3378 
Q 2772 3750 2511 3984 
Q 2250 4219 1831 4219 
Q 1534 4219 1204 4116 
Q 875 4013 500 3803 
L 500 4441 
Q 881 4594 1212 4672 
Q 1544 4750 1819 4750 
Q 2544 4750 2975 4387 
Q 3406 4025 3406 3419 
Q 3406 3131 3298 2873 
Q 3191 2616 2906 2266 
Q 2828 2175 2409 1742 
Q 1991 1309 1228 531 
z
" transform="scale(0.015625)"/>
     </defs>
     <use xlink:href="#DejaVuSans-7b"/>
     <use xlink:href="#DejaVuSans-66" x="63.623047"/>
     <use xlink:href="#DejaVuSans-36" x="98.828125"/>
     <use xlink:href="#DejaVuSans-2d" x="162.451172"/>
     <use xlink:href="#DejaVuSans-66" x="198.535156"/>
     <use xlink:href="#DejaVuSans-39" x="233.740234"/>
     <use xlink:href="#DejaVuSans-7d" x="297.363281"/>
     <use xlink:href="#DejaVuSans-2c" x="360.986328"/>
     <use xlink:href="#DejaVuSans-20" x="392.773438"/>
     <use xlink:href="#DejaVuSans-32" x="424.560547"/>
     <use xlink:href="#DejaVuSans-30" x="488.183594"/>
     <use xlink:href="#DejaVuSans-2d" x="551.806641"/>
     <use xlink:href="#DejaVuSans-44" x="587.890625"/>
    </g>
   </g>
   <g id="text_7">
    <!-- v2.6.3 -->
    <g style="fill: #808080" transform="translate(214.71875 288.777272) scale(0.1 -0.1)">
     <defs>
      <path id="DejaVuSans-76" d="M 191 3500 
L 800 3500 
L 1894 563 
L 2988 3500 
L 3597 3500 
L 2284 0 
L 1503 0 
L 191 3500 
z
" transform="scale(0.015625)"/>
      <path id="DejaVuSans-2e" d="M 684 794 
L 1344 794 
L 1344 0 
L 684 0 
L 684 794 
z
" transform="scale(0.015625)"/>
      <path id="DejaVuSans-33" d="M 2597 2516 
Q 3050 2419 3304 2112 
Q 3559 1806 3559 1356 
Q 3559 666 3084 287 
Q 2609 -91 1734 -91 
Q 1441 -91 1130 -33 
Q 819 25 488 141 
L 488 750 
Q 750 597 1062 519 
Q 1375 441 1716 441 
Q 2309 441 2620 675 
Q 2931 909 2931 1356 
Q 2931 1769 2642 2001 
Q 2353 2234 1838 2234 
L 1294 2234 
L 1294 2753 
L 1863 2753 
Q 2328 2753 2575 2939 
Q 2822 3125 2822 3475 
Q 2822 3834 2567 4026 
Q 2313 4219 1838 4219 
Q 1578 4219 1281 4162 
Q 984 4106 628 3988 
L 628 4550 
Q 988 4650 1302 4700 
Q 1616 4750 1894 4750 
Q 2613 4750 3031 4423 
Q 3450 4097 3450 3541 
Q 3450 3153 3228 2886 
Q 3006 2619 2597 2516 
z
" transform="scale(0.015625)"/>
     </defs>
     <use xlink:href="#DejaVuSans-76"/>
     <use xlink:href="#DejaVuSans-32" x="59.179688"/>
     <use xlink:href="#DejaVuSans-2e" x="122.802734"/>
     <use xlink:href="#DejaVuSans-36" x="154.589844"/>
     <use xlink:href="#DejaVuSans-2e" x="218.212891"/>
     <use xlink:href="#DejaVuSans-33" x="250"/>
    </g>
   </g>
  </g>
 </g>
 <defs>
  <clipPath id="p404242d772">
   <rect x="0" y="3.456" width="460.8" height="290.304"/>
  </clipPath>
 </defs>
</svg>
