<?xml version="1.0" encoding="utf-8" standalone="no"?>
<!DOCTYPE svg PUBLIC "-//W3C//DTD SVG 1.1//EN"
  "http://www.w3.org/Graphics/SVG/1.1/DTD/svg11.dtd">
<svg xmlns:xlink="http://www.w3.org/1999/xlink" width="460.8pt" height="345.6pt" viewBox="0 0 460.8 345.6" xmlns="http://www.w3.org/2000/svg" version="1.1">
 <metadata>
  <rdf:RDF xmlns:dc="http://purl.org/dc/elements/1.1/" xmlns:cc="http://creativecommons.org/ns#" xmlns:rdf="http://www.w3.org/1999/02/22-rdf-syntax-ns#">
   <cc:Work>
    <dc:type rdf:resource="http://purl.org/dc/dcmitype/StillImage"/>
    <dc:date>2024-06-22T18:41:34.987540</dc:date>
    <dc:format>image/svg+xml</dc:format>
    <dc:creator>
     <cc:Agent>
      <dc:title>Matplotlib v3.7.5, https://matplotlib.org/</dc:title>
     </cc:Agent>
    </dc:creator>
   </cc:Work>
  </rdf:RDF>
 </metadata>
 <defs>
  <style type="text/css">*{stroke-linejoin: round; stroke-linecap: butt}</style>
 </defs>
 <g id="figure_1">
  <g id="patch_1">
   <path d="M 0 345.6 
L 460.8 345.6 
L 460.8 0 
L 0 0 
z
" style="fill: #ffffff"/>
  </g>
  <g id="axes_1">
   <g id="patch_2">
    <path d="M 0 293.76 
L 460.8 293.76 
L 460.8 3.456 
L 0 3.456 
z
" style="fill: #ffffff"/>
   </g>
   <g id="matplotlib.axis_1">
    <g id="xtick_1">
     <g id="line2d_1">
      <path d="M 93.278783 293.76 
L 93.278783 3.456 
" clip-path="url(#p1d5045dce7)" style="fill: none; stroke: #b0b0b0; stroke-width: 0.8; stroke-linecap: square"/>
     </g>
     <g id="line2d_2">
      <defs>
       <path id="ma55d412cfe" d="M 0 0 
L 0 3.5 
" style="stroke: #000000; stroke-width: 0.8"/>
      </defs>
      <g>
       <use xlink:href="#ma55d412cfe" x="93.278783" y="293.76" style="stroke: #000000; stroke-width: 0.8"/>
      </g>
     </g>
     <g id="text_1">
      <!-- -4 -->
      <g transform="translate(83.308471 315.956875) scale(0.2 -0.2)">
       <defs>
        <path id="DejaVuSans-2d" d="M 313 2009 
L 1997 2009 
L 1997 1497 
L 313 1497 
L 313 2009 
z
" transform="scale(0.015625)"/>
        <path id="DejaVuSans-34" d="M 2419 4116 
L 825 1625 
L 2419 1625 
L 2419 4116 
z
M 2253 4666 
L 3047 4666 
L 3047 1625 
L 3713 1625 
L 3713 1100 
L 3047 1100 
L 3047 0 
L 2419 0 
L 2419 1100 
L 313 1100 
L 313 1709 
L 2253 4666 
z
" transform="scale(0.015625)"/>
       </defs>
       <use xlink:href="#DejaVuSans-2d"/>
       <use xlink:href="#DejaVuSans-34" x="36.083984"/>
      </g>
     </g>
    </g>
    <g id="xtick_2">
     <g id="line2d_3">
      <path d="M 186.658449 293.76 
L 186.658449 3.456 
" clip-path="url(#p1d5045dce7)" style="fill: none; stroke: #b0b0b0; stroke-width: 0.8; stroke-linecap: square"/>
     </g>
     <g id="line2d_4">
      <g>
       <use xlink:href="#ma55d412cfe" x="186.658449" y="293.76" style="stroke: #000000; stroke-width: 0.8"/>
      </g>
     </g>
     <g id="text_2">
      <!-- 0 -->
      <g transform="translate(180.295949 315.956875) scale(0.2 -0.2)">
       <defs>
        <path id="DejaVuSans-30" d="M 2034 4250 
Q 1547 4250 1301 3770 
Q 1056 3291 1056 2328 
Q 1056 1369 1301 889 
Q 1547 409 2034 409 
Q 2525 409 2770 889 
Q 3016 1369 3016 2328 
Q 3016 3291 2770 3770 
Q 2525 4250 2034 4250 
z
M 2034 4750 
Q 2819 4750 3233 4129 
Q 3647 3509 3647 2328 
Q 3647 1150 3233 529 
Q 2819 -91 2034 -91 
Q 1250 -91 836 529 
Q 422 1150 422 2328 
Q 422 3509 836 4129 
Q 1250 4750 2034 4750 
z
" transform="scale(0.015625)"/>
       </defs>
       <use xlink:href="#DejaVuSans-30"/>
      </g>
     </g>
    </g>
    <g id="xtick_3">
     <g id="line2d_5">
      <path d="M 280.038114 293.76 
L 280.038114 3.456 
" clip-path="url(#p1d5045dce7)" style="fill: none; stroke: #b0b0b0; stroke-width: 0.8; stroke-linecap: square"/>
     </g>
     <g id="line2d_6">
      <g>
       <use xlink:href="#ma55d412cfe" x="280.038114" y="293.76" style="stroke: #000000; stroke-width: 0.8"/>
      </g>
     </g>
     <g id="text_3">
      <!-- 4 -->
      <g transform="translate(273.675614 315.956875) scale(0.2 -0.2)">
       <use xlink:href="#DejaVuSans-34"/>
      </g>
     </g>
    </g>
    <g id="xtick_4">
     <g id="line2d_7">
      <path d="M 373.417779 293.76 
L 373.417779 3.456 
" clip-path="url(#p1d5045dce7)" style="fill: none; stroke: #b0b0b0; stroke-width: 0.8; stroke-linecap: square"/>
     </g>
     <g id="line2d_8">
      <g>
       <use xlink:href="#ma55d412cfe" x="373.417779" y="293.76" style="stroke: #000000; stroke-width: 0.8"/>
      </g>
     </g>
     <g id="text_4">
      <!-- 8 -->
      <g transform="translate(367.055279 315.956875) scale(0.2 -0.2)">
       <defs>
        <path id="DejaVuSans-38" d="M 2034 2216 
Q 1584 2216 1326 1975 
Q 1069 1734 1069 1313 
Q 1069 891 1326 650 
Q 1584 409 2034 409 
Q 2484 409 2743 651 
Q 3003 894 3003 1313 
Q 3003 1734 2745 1975 
Q 2488 2216 2034 2216 
z
M 1403 2484 
Q 997 2584 770 2862 
Q 544 3141 544 3541 
Q 544 4100 942 4425 
Q 1341 4750 2034 4750 
Q 2731 4750 3128 4425 
Q 3525 4100 3525 3541 
Q 3525 3141 3298 2862 
Q 3072 2584 2669 2484 
Q 3125 2378 3379 2068 
Q 3634 1759 3634 1313 
Q 3634 634 3220 271 
Q 2806 -91 2034 -91 
Q 1263 -91 848 271 
Q 434 634 434 1313 
Q 434 1759 690 2068 
Q 947 2378 1403 2484 
z
M 1172 3481 
Q 1172 3119 1398 2916 
Q 1625 2713 2034 2713 
Q 2441 2713 2670 2916 
Q 2900 3119 2900 3481 
Q 2900 3844 2670 4047 
Q 2441 4250 2034 4250 
Q 1625 4250 1398 4047 
Q 1172 3844 1172 3481 
z
" transform="scale(0.015625)"/>
       </defs>
       <use xlink:href="#DejaVuSans-38"/>
      </g>
     </g>
    </g>
    <g id="text_5">
     <!-- log10 of Df -->
     <g transform="translate(175.214063 339.313125) scale(0.2 -0.2)">
      <defs>
       <path id="DejaVuSans-6c" d="M 603 4863 
L 1178 4863 
L 1178 0 
L 603 0 
L 603 4863 
z
" transform="scale(0.015625)"/>
       <path id="DejaVuSans-6f" d="M 1959 3097 
Q 1497 3097 1228 2736 
Q 959 2375 959 1747 
Q 959 1119 1226 758 
Q 1494 397 1959 397 
Q 2419 397 2687 759 
Q 2956 1122 2956 1747 
Q 2956 2369 2687 2733 
Q 2419 3097 1959 3097 
z
M 1959 3584 
Q 2709 3584 3137 3096 
Q 3566 2609 3566 1747 
Q 3566 888 3137 398 
Q 2709 -91 1959 -91 
Q 1206 -91 779 398 
Q 353 888 353 1747 
Q 353 2609 779 3096 
Q 1206 3584 1959 3584 
z
" transform="scale(0.015625)"/>
       <path id="DejaVuSans-67" d="M 2906 1791 
Q 2906 2416 2648 2759 
Q 2391 3103 1925 3103 
Q 1463 3103 1205 2759 
Q 947 2416 947 1791 
Q 947 1169 1205 825 
Q 1463 481 1925 481 
Q 2391 481 2648 825 
Q 2906 1169 2906 1791 
z
M 3481 434 
Q 3481 -459 3084 -895 
Q 2688 -1331 1869 -1331 
Q 1566 -1331 1297 -1286 
Q 1028 -1241 775 -1147 
L 775 -588 
Q 1028 -725 1275 -790 
Q 1522 -856 1778 -856 
Q 2344 -856 2625 -561 
Q 2906 -266 2906 331 
L 2906 616 
Q 2728 306 2450 153 
Q 2172 0 1784 0 
Q 1141 0 747 490 
Q 353 981 353 1791 
Q 353 2603 747 3093 
Q 1141 3584 1784 3584 
Q 2172 3584 2450 3431 
Q 2728 3278 2906 2969 
L 2906 3500 
L 3481 3500 
L 3481 434 
z
" transform="scale(0.015625)"/>
       <path id="DejaVuSans-31" d="M 794 531 
L 1825 531 
L 1825 4091 
L 703 3866 
L 703 4441 
L 1819 4666 
L 2450 4666 
L 2450 531 
L 3481 531 
L 3481 0 
L 794 0 
L 794 531 
z
" transform="scale(0.015625)"/>
       <path id="DejaVuSans-20" transform="scale(0.015625)"/>
       <path id="DejaVuSans-66" d="M 2375 4863 
L 2375 4384 
L 1825 4384 
Q 1516 4384 1395 4259 
Q 1275 4134 1275 3809 
L 1275 3500 
L 2222 3500 
L 2222 3053 
L 1275 3053 
L 1275 0 
L 697 0 
L 697 3053 
L 147 3053 
L 147 3500 
L 697 3500 
L 697 3744 
Q 697 4328 969 4595 
Q 1241 4863 1831 4863 
L 2375 4863 
z
" transform="scale(0.015625)"/>
       <path id="DejaVuSans-44" d="M 1259 4147 
L 1259 519 
L 2022 519 
Q 2988 519 3436 956 
Q 3884 1394 3884 2338 
Q 3884 3275 3436 3711 
Q 2988 4147 2022 4147 
L 1259 4147 
z
M 628 4666 
L 1925 4666 
Q 3281 4666 3915 4102 
Q 4550 3538 4550 2338 
Q 4550 1131 3912 565 
Q 3275 0 1925 0 
L 628 0 
L 628 4666 
z
" transform="scale(0.015625)"/>
      </defs>
      <use xlink:href="#DejaVuSans-6c"/>
      <use xlink:href="#DejaVuSans-6f" x="27.783203"/>
      <use xlink:href="#DejaVuSans-67" x="88.964844"/>
      <use xlink:href="#DejaVuSans-31" x="152.441406"/>
      <use xlink:href="#DejaVuSans-30" x="216.064453"/>
      <use xlink:href="#DejaVuSans-20" x="279.6875"/>
      <use xlink:href="#DejaVuSans-6f" x="311.474609"/>
      <use xlink:href="#DejaVuSans-66" x="372.65625"/>
      <use xlink:href="#DejaVuSans-20" x="407.861328"/>
      <use xlink:href="#DejaVuSans-44" x="439.648438"/>
      <use xlink:href="#DejaVuSans-66" x="516.650391"/>
     </g>
    </g>
   </g>
   <g id="matplotlib.axis_2">
    <g id="ytick_1">
     <g id="line2d_9">
      <path d="M 0 293.76 
L 460.8 293.76 
" clip-path="url(#p1d5045dce7)" style="fill: none; stroke: #b0b0b0; stroke-width: 0.8; stroke-linecap: square"/>
     </g>
     <g id="line2d_10">
      <defs>
       <path id="m08b7161a67" d="M 0 0 
L -3.5 0 
" style="stroke: #000000; stroke-width: 0.8"/>
      </defs>
      <g>
       <use xlink:href="#m08b7161a67" x="0" y="293.76" style="stroke: #000000; stroke-width: 0.8"/>
      </g>
     </g>
    </g>
    <g id="ytick_2">
     <g id="line2d_11">
      <path d="M 0 236.274059 
L 460.8 236.274059 
" clip-path="url(#p1d5045dce7)" style="fill: none; stroke: #b0b0b0; stroke-width: 0.8; stroke-linecap: square"/>
     </g>
     <g id="line2d_12">
      <g>
       <use xlink:href="#m08b7161a67" x="0" y="236.274059" style="stroke: #000000; stroke-width: 0.8"/>
      </g>
     </g>
    </g>
    <g id="ytick_3">
     <g id="line2d_13">
      <path d="M 0 178.788119 
L 460.8 178.788119 
" clip-path="url(#p1d5045dce7)" style="fill: none; stroke: #b0b0b0; stroke-width: 0.8; stroke-linecap: square"/>
     </g>
     <g id="line2d_14">
      <g>
       <use xlink:href="#m08b7161a67" x="0" y="178.788119" style="stroke: #000000; stroke-width: 0.8"/>
      </g>
     </g>
    </g>
    <g id="ytick_4">
     <g id="line2d_15">
      <path d="M 0 121.302178 
L 460.8 121.302178 
" clip-path="url(#p1d5045dce7)" style="fill: none; stroke: #b0b0b0; stroke-width: 0.8; stroke-linecap: square"/>
     </g>
     <g id="line2d_16">
      <g>
       <use xlink:href="#m08b7161a67" x="0" y="121.302178" style="stroke: #000000; stroke-width: 0.8"/>
      </g>
     </g>
    </g>
    <g id="ytick_5">
     <g id="line2d_17">
      <path d="M 0 63.816238 
L 460.8 63.816238 
" clip-path="url(#p1d5045dce7)" style="fill: none; stroke: #b0b0b0; stroke-width: 0.8; stroke-linecap: square"/>
     </g>
     <g id="line2d_18">
      <g>
       <use xlink:href="#m08b7161a67" x="0" y="63.816238" style="stroke: #000000; stroke-width: 0.8"/>
      </g>
     </g>
    </g>
    <g id="ytick_6">
     <g id="line2d_19">
      <path d="M 0 6.330297 
L 460.8 6.330297 
" clip-path="url(#p1d5045dce7)" style="fill: none; stroke: #b0b0b0; stroke-width: 0.8; stroke-linecap: square"/>
     </g>
     <g id="line2d_20">
      <g>
       <use xlink:href="#m08b7161a67" x="0" y="6.330297" style="stroke: #000000; stroke-width: 0.8"/>
      </g>
     </g>
    </g>
   </g>
   <g id="line2d_21">
    <path d="M -1 185.973861 
L -0.578074 185.973861 
L -0.578074 185.175446 
L -0.100882 185.175446 
L -0.100882 142.06099 
L 9.735011 142.06099 
L 9.735011 141.262574 
L 16.985614 141.262574 
L 16.985614 140.464158 
L 25.621957 140.464158 
L 25.621957 139.665743 
L 38.26298 139.665743 
L 38.26298 138.867327 
L 52.804756 138.867327 
L 52.804756 138.068911 
L 53.134357 138.068911 
L 53.134357 137.270495 
L 53.595532 137.270495 
L 53.595532 136.472079 
L 59.295299 136.472079 
L 59.295299 135.673663 
L 59.408894 135.673663 
L 59.408894 134.875248 
L 64.698731 134.875248 
L 64.698731 134.076832 
L 66.789086 134.076832 
L 66.792904 132.48 
L 73.621905 132.48 
L 73.621905 131.681584 
L 73.911899 131.681584 
L 73.911899 130.883168 
L 76.616615 130.883168 
L 76.616615 130.084752 
L 81.388915 130.084752 
L 81.388915 129.286337 
L 87.684117 129.286337 
L 87.684117 128.487921 
L 87.84617 128.487921 
L 87.84617 127.689505 
L 88.340854 127.689505 
L 88.340854 126.891089 
L 88.692438 126.891089 
L 88.692438 126.092673 
L 91.651124 126.092673 
L 91.651124 125.294257 
L 99.544049 125.294257 
L 99.544049 124.495842 
L 104.479917 124.495842 
L 104.479917 123.697426 
L 105.824683 123.697426 
L 105.824683 122.89901 
L 112.419973 122.89901 
L 112.419973 122.100594 
L 116.478969 122.100594 
L 116.478969 121.302178 
L 120.824635 121.302178 
L 120.824635 120.503762 
L 129.624557 120.503762 
L 129.624557 119.705347 
L 139.839422 119.705347 
L 139.839422 118.906931 
L 147.36917 118.906931 
L 147.36917 118.108515 
L 155.8674 118.108515 
L 155.8674 117.310099 
L 159.115818 117.310099 
L 159.115818 116.511683 
L 160.371861 116.511683 
L 160.371861 115.713267 
L 162.927905 115.713267 
L 163.023473 114.116436 
L 164.839516 114.116436 
L 164.839516 113.31802 
L 164.980164 113.31802 
L 164.980164 112.519604 
L 165.206868 112.519604 
L 165.206868 111.721188 
L 165.486355 111.721188 
L 165.486355 110.922772 
L 170.28493 110.922772 
L 170.28493 110.124356 
L 171.026553 110.124356 
L 171.078558 108.527525 
L 171.72869 108.527525 
L 171.72869 107.729109 
L 172.511875 107.729109 
L 172.511875 106.930693 
L 172.931136 106.930693 
L 172.931136 106.132277 
L 173.14126 106.132277 
L 173.14126 105.333861 
L 173.713753 105.333861 
L 173.713753 104.535446 
L 174.331653 104.535446 
L 174.331653 103.73703 
L 174.689865 103.73703 
L 174.689865 102.938614 
L 175.866998 102.938614 
L 175.866998 102.140198 
L 176.163333 102.140198 
L 176.163333 101.341782 
L 178.164125 101.341782 
L 178.164125 100.543366 
L 178.480565 100.543366 
L 178.480565 99.74495 
L 178.676867 99.74495 
L 178.676867 98.946535 
L 179.524385 98.946535 
L 179.524385 98.148119 
L 180.976326 98.148119 
L 180.976326 97.349703 
L 181.346972 97.349703 
L 181.346972 96.551287 
L 182.6008 96.551287 
L 182.615658 94.954455 
L 182.923642 94.954455 
L 182.957973 87.768713 
L 183.86261 87.768713 
L 183.86261 86.970297 
L 184.627679 86.970297 
L 184.627679 86.171881 
L 185.22972 86.171881 
L 185.22972 85.373465 
L 185.473113 85.373465 
L 185.473113 84.57505 
L 185.680331 84.57505 
L 185.680331 83.776634 
L 185.922657 83.776634 
L 185.922753 82.179802 
L 186.607211 82.179802 
L 186.628205 78.187723 
L 186.76123 78.187723 
L 186.840272 76.590891 
L 187.150043 76.590891 
L 187.150043 75.792475 
L 187.306122 75.792475 
L 187.306122 74.994059 
L 187.420838 74.994059 
L 187.420838 74.195644 
L 187.549021 74.195644 
L 187.55471 72.598812 
L 187.674731 72.598812 
L 187.674731 71.00198 
L 187.950511 71.00198 
L 187.950511 70.203564 
L 188.188832 70.203564 
L 188.188832 69.405149 
L 188.841684 69.405149 
L 188.88225 67.009901 
L 189.028667 67.009901 
L 189.028667 66.211485 
L 189.340598 66.211485 
L 189.340598 65.413069 
L 189.782305 65.413069 
L 189.782305 64.614653 
L 189.938695 64.614653 
L 189.938695 63.816238 
L 190.051885 63.816238 
L 190.051885 63.017822 
L 190.223069 63.017822 
L 190.303025 60.622574 
L 190.770948 60.622574 
L 190.770948 59.824158 
L 191.026035 59.824158 
L 191.087653 57.428911 
L 191.229089 57.428911 
L 191.229089 56.630495 
L 192.72299 56.630495 
L 192.72299 55.832079 
L 193.365341 55.832079 
L 193.457764 51.041584 
L 193.634731 51.041584 
L 193.68285 43.057426 
L 193.812277 43.057426 
L 193.812277 42.25901 
L 194.396382 42.25901 
L 194.396382 41.460594 
L 197.745567 41.460594 
L 197.745583 37.468515 
L 199.781795 37.468515 
L 199.781795 36.670099 
L 200.662252 36.670099 
L 200.662252 33.476436 
L 202.924597 33.476436 
L 202.924608 27.887525 
L 205.332485 27.887525 
L 205.332485 27.089109 
L 206.335947 27.089109 
L 206.335947 21.500198 
L 206.947932 21.500198 
L 206.947932 20.701782 
L 207.689765 20.701782 
L 207.689765 19.10495 
L 208.038399 19.10495 
L 208.038399 18.306535 
L 208.275788 18.306535 
L 208.275788 17.508119 
L 208.755819 17.508119 
L 208.755819 16.709703 
L 209.22863 16.709703 
L 209.22863 15.911287 
L 209.485397 15.911287 
L 209.485397 15.112871 
L 209.863139 15.112871 
L 209.952117 13.51604 
L 210.123421 13.51604 
L 210.123421 12.717624 
L 210.592999 12.717624 
L 210.592999 11.919208 
L 211.082515 11.919208 
L 211.115989 10.322376 
L 211.438111 10.322376 
L 211.475319 8.725545 
L 212.57389 8.725545 
L 212.57389 7.927129 
L 212.74473 7.927129 
L 212.74473 7.128713 
L 213.517312 7.128713 
L 213.517312 6.330297 
L 213.517312 6.330297 
L 460.8 6.330297 
L 460.8 6.330297 
" clip-path="url(#p1d5045dce7)" style="fill: none; stroke: #ff0000; stroke-width: 3; stroke-linecap: square"/>
   </g>
   <g id="line2d_22">
    <path d="M 199.49838 293.76 
L 199.49838 292.961584 
L 200.535432 292.961584 
L 200.535432 292.163168 
L 204.3457 292.163168 
L 204.3457 291.364752 
L 206.063832 291.364752 
L 206.063832 290.566337 
L 209.690406 290.566337 
L 209.690406 289.767921 
L 210.482473 289.767921 
L 210.482473 288.969505 
L 210.678714 288.969505 
L 210.678714 288.171089 
L 211.227216 288.171089 
L 211.227216 287.372673 
L 211.912577 287.372673 
L 211.912577 286.574257 
L 212.366085 286.574257 
L 212.366085 285.775842 
L 212.637759 285.775842 
L 212.637759 284.977426 
L 213.30116 284.977426 
L 213.30116 284.17901 
L 213.882176 284.17901 
L 213.903967 282.582178 
L 214.50092 282.582178 
L 214.50092 281.783762 
L 215.126296 281.783762 
L 215.211845 279.388515 
L 215.513926 279.388515 
L 215.60251 277.791683 
L 215.880114 277.791683 
L 215.880114 276.993267 
L 215.993909 276.993267 
L 215.993909 276.194851 
L 216.198575 276.194851 
L 216.25541 274.59802 
L 216.371782 274.59802 
L 216.449557 271.404356 
L 216.500131 271.404356 
L 216.500131 270.605941 
L 217.234622 270.605941 
L 217.234622 269.807525 
L 217.577865 269.807525 
L 217.660952 267.412277 
L 217.81148 267.412277 
L 217.81148 266.613861 
L 218.012902 266.613861 
L 218.012902 265.815446 
L 218.699004 265.815446 
L 218.70171 264.218614 
L 218.860984 264.218614 
L 218.860984 263.420198 
L 219.240202 263.420198 
L 219.240202 262.621782 
L 219.747078 262.621782 
L 219.747078 261.823366 
L 220.040292 261.823366 
L 220.064407 260.226535 
L 220.20582 260.226535 
L 220.20582 259.428119 
L 220.377259 259.428119 
L 220.46903 257.831287 
L 220.492677 257.831287 
L 220.492677 257.032871 
L 220.6472 257.032871 
L 220.6472 256.234455 
L 220.961454 256.234455 
L 220.961454 255.43604 
L 221.119835 255.43604 
L 221.119835 254.637624 
L 221.433357 254.637624 
L 221.510053 253.040792 
L 222.208749 253.040792 
L 222.208749 252.242376 
L 222.609362 252.242376 
L 222.609362 251.44396 
L 222.804979 251.44396 
L 222.804979 250.645545 
L 223.206392 250.645545 
L 223.206392 249.847129 
L 223.404418 249.847129 
L 223.494808 248.250297 
L 223.521751 248.250297 
L 223.521751 247.451881 
L 224.009671 247.451881 
L 224.009671 246.653465 
L 224.406047 246.653465 
L 224.501927 241.86297 
L 224.741727 241.86297 
L 224.741727 241.064554 
L 224.984234 241.064554 
L 224.984234 240.266139 
L 225.134397 240.266139 
L 225.179549 238.669307 
L 225.352401 238.669307 
L 225.456765 236.274059 
L 225.488121 236.274059 
L 225.488121 235.475644 
L 225.631312 235.475644 
L 225.631312 234.677228 
L 225.790641 234.677228 
L 225.790641 233.878812 
L 225.982781 233.878812 
L 225.982781 233.080396 
L 226.164466 233.080396 
L 226.164466 232.28198 
L 226.678119 232.28198 
L 226.720243 229.886733 
L 226.83184 229.886733 
L 226.83184 229.088317 
L 227.033513 229.088317 
L 227.077449 227.491485 
L 227.199566 227.491485 
L 227.203643 225.894653 
L 227.48764 225.894653 
L 227.552197 223.499406 
L 227.623487 223.499406 
L 227.719556 221.104158 
L 228.194227 221.104158 
L 228.280959 219.507327 
L 228.414582 219.507327 
L 228.515062 217.910495 
L 228.764663 217.910495 
L 228.810105 216.313663 
L 228.940539 216.313663 
L 228.976719 214.716832 
L 229.170236 214.716832 
L 229.223631 213.12 
L 229.328394 213.12 
L 229.328394 212.321584 
L 229.469216 212.321584 
L 229.563346 209.926337 
L 229.685808 209.926337 
L 229.792919 206.732673 
L 229.853154 206.732673 
L 229.877344 204.337426 
L 229.981935 204.337426 
L 230.019926 202.740594 
L 230.110979 202.740594 
L 230.155206 201.143762 
L 230.511005 201.143762 
L 230.594976 198.748515 
L 230.629684 198.748515 
L 230.729881 197.151683 
L 230.792976 197.151683 
L 230.792976 195.554851 
L 230.938005 195.554851 
L 231.020703 193.95802 
L 231.276804 193.95802 
L 231.375047 190.764356 
L 231.392725 190.764356 
L 231.392725 189.965941 
L 231.578807 189.965941 
L 231.578807 189.167525 
L 231.709943 189.167525 
L 231.81195 187.570693 
L 231.82509 187.570693 
L 231.862226 185.973861 
L 232.374046 185.973861 
L 232.390573 184.37703 
L 232.739773 184.37703 
L 232.739773 183.578614 
L 232.876504 183.578614 
L 232.876504 182.780198 
L 233.19714 182.780198 
L 233.19714 181.981782 
L 233.361258 181.981782 
L 233.361258 181.183366 
L 233.793267 181.183366 
L 233.902374 179.586535 
L 234.042816 179.586535 
L 234.10779 177.989703 
L 234.51841 177.989703 
L 234.549303 176.392871 
L 234.744911 176.392871 
L 234.744911 175.594455 
L 234.884842 175.594455 
L 234.892819 173.997624 
L 235.191267 173.997624 
L 235.191267 173.199208 
L 235.305675 173.199208 
L 235.305675 172.400792 
L 235.497116 172.400792 
L 235.497116 171.602376 
L 235.635679 171.602376 
L 235.682843 170.005545 
L 236.258507 170.005545 
L 236.353045 166.013465 
L 236.436795 166.013465 
L 236.436795 165.21505 
L 236.724682 165.21505 
L 236.724682 164.416634 
L 236.965188 164.416634 
L 236.965188 163.618218 
L 237.165771 163.618218 
L 237.165771 162.819802 
L 237.32095 162.819802 
L 237.32095 162.021386 
L 237.83446 162.021386 
L 237.850859 160.424554 
L 238.052105 160.424554 
L 238.052105 159.626139 
L 238.191384 159.626139 
L 238.235665 158.029307 
L 238.579184 158.029307 
L 238.642295 156.432475 
L 238.713577 156.432475 
L 238.713577 155.634059 
L 239.37569 155.634059 
L 239.37569 154.835644 
L 240.07848 154.835644 
L 240.17396 153.238812 
L 240.249898 153.238812 
L 240.249898 152.440396 
L 240.445475 152.440396 
L 240.445475 151.64198 
L 240.877443 151.64198 
L 240.877443 150.843564 
L 240.993245 150.843564 
L 241.021517 149.246733 
L 241.594084 149.246733 
L 241.594084 148.448317 
L 242.299187 148.448317 
L 242.299187 147.649901 
L 242.639401 147.649901 
L 242.639401 146.851485 
L 243.537204 146.851485 
L 243.537204 146.053069 
L 243.701583 146.053069 
L 243.755688 144.456238 
L 244.00996 144.456238 
L 244.113698 142.859406 
L 244.143694 142.859406 
L 244.143694 142.06099 
L 244.471544 142.06099 
L 244.471544 141.262574 
L 244.641104 141.262574 
L 244.641104 140.464158 
L 244.834146 140.464158 
L 244.834146 139.665743 
L 245.667438 139.665743 
L 245.761381 137.270495 
L 245.922286 137.270495 
L 245.990186 134.875248 
L 246.212982 134.875248 
L 246.212982 134.076832 
L 246.697533 134.076832 
L 246.724848 132.48 
L 246.809873 132.48 
L 246.879596 130.883168 
L 247.058309 130.883168 
L 247.085011 129.286337 
L 247.443606 129.286337 
L 247.443606 128.487921 
L 248.182308 128.487921 
L 248.255614 126.891089 
L 248.895474 126.891089 
L 248.895474 126.092673 
L 249.169755 126.092673 
L 249.249931 124.495842 
L 249.314284 124.495842 
L 249.314284 123.697426 
L 251.387662 123.697426 
L 251.387662 122.89901 
L 252.707445 122.89901 
L 252.713486 121.302178 
L 253.019467 121.302178 
L 253.019467 120.503762 
L 253.222767 120.503762 
L 253.222767 119.705347 
L 254.304187 119.705347 
L 254.304187 118.906931 
L 254.602406 118.906931 
L 254.632562 117.310099 
L 254.860567 117.310099 
L 254.860567 116.511683 
L 256.172037 116.511683 
L 256.172037 115.713267 
L 256.376428 115.713267 
L 256.455376 114.116436 
L 256.68867 114.116436 
L 256.68867 113.31802 
L 257.00265 113.31802 
L 257.00265 112.519604 
L 257.307758 112.519604 
L 257.355164 110.922772 
L 257.864734 110.922772 
L 257.938696 109.325941 
L 258.268455 109.325941 
L 258.268455 108.527525 
L 259.05581 108.527525 
L 259.05581 107.729109 
L 259.206748 107.729109 
L 259.206748 106.930693 
L 259.744751 106.930693 
L 259.744751 106.132277 
L 261.02782 106.132277 
L 261.02782 105.333861 
L 261.315893 105.333861 
L 261.315893 104.535446 
L 262.199761 104.535446 
L 262.199761 103.73703 
L 262.825198 103.73703 
L 262.825198 102.938614 
L 263.054873 102.938614 
L 263.054873 102.140198 
L 266.059652 102.140198 
L 266.059652 101.341782 
L 270.122197 101.341782 
L 270.122197 100.543366 
L 276.575293 100.543366 
L 276.575293 99.74495 
L 278.441028 99.74495 
L 278.441028 98.946535 
L 279.110075 98.946535 
L 279.110075 98.148119 
L 279.531559 98.148119 
L 279.531559 97.349703 
L 282.520882 97.349703 
L 282.520882 96.551287 
L 283.60703 96.551287 
L 283.609058 94.15604 
L 284.060652 94.15604 
L 284.154831 92.559208 
L 284.502172 92.559208 
L 284.520338 90.962376 
L 285.155367 90.962376 
L 285.155367 90.16396 
L 285.80357 90.16396 
L 285.80357 89.365545 
L 285.992014 89.365545 
L 285.992014 88.567129 
L 286.925301 88.567129 
L 286.925301 87.768713 
L 288.612712 87.768713 
L 288.612712 86.970297 
L 289.09339 86.970297 
L 289.09339 86.171881 
L 289.941588 86.171881 
L 289.941588 85.373465 
L 291.093427 85.373465 
L 291.093427 84.57505 
L 291.574661 84.57505 
L 291.574661 83.776634 
L 291.846607 83.776634 
L 291.886168 82.179802 
L 292.212856 82.179802 
L 292.3229 80.58297 
L 292.392058 80.58297 
L 292.392058 79.784554 
L 292.667221 79.784554 
L 292.667221 78.986139 
L 293.240038 78.986139 
L 293.26837 77.389307 
L 293.63661 77.389307 
L 293.63661 76.590891 
L 294.050341 76.590891 
L 294.050341 75.792475 
L 294.773262 75.792475 
L 294.773262 74.994059 
L 298.03819 74.994059 
L 298.061086 73.397228 
L 298.548375 73.397228 
L 298.569767 71.800396 
L 299.043904 71.800396 
L 299.043904 71.00198 
L 299.172255 71.00198 
L 299.172255 70.203564 
L 299.834668 70.203564 
L 299.870925 68.606733 
L 300.074768 68.606733 
L 300.074768 67.808317 
L 300.297075 67.808317 
L 300.297075 67.009901 
L 300.984837 67.009901 
L 300.984837 66.211485 
L 301.706927 66.211485 
L 301.706927 65.413069 
L 302.653489 65.413069 
L 302.653489 64.614653 
L 302.926568 64.614653 
L 302.926568 63.816238 
L 303.094157 63.816238 
L 303.094157 63.017822 
L 303.73018 63.017822 
L 303.745791 61.42099 
L 304.518102 61.42099 
L 304.535164 59.824158 
L 304.90977 59.824158 
L 304.90977 59.025743 
L 305.539734 59.025743 
L 305.539734 58.227327 
L 307.319951 58.227327 
L 307.319951 57.428911 
L 308.745605 57.428911 
L 308.745605 56.630495 
L 309.453694 56.630495 
L 309.453694 55.832079 
L 309.597901 55.832079 
L 309.597901 55.033663 
L 311.449811 55.033663 
L 311.449811 54.235248 
L 313.288922 54.235248 
L 313.288922 53.436832 
L 313.893724 53.436832 
L 313.972441 51.84 
L 314.481226 51.84 
L 314.481226 51.041584 
L 314.667643 51.041584 
L 314.714264 49.444752 
L 315.900376 49.444752 
L 315.900376 48.646337 
L 316.712895 48.646337 
L 316.712895 47.847921 
L 318.578299 47.847921 
L 318.578299 47.049505 
L 319.404808 47.049505 
L 319.404808 46.251089 
L 319.86818 46.251089 
L 319.86818 45.452673 
L 320.622631 45.452673 
L 320.622631 44.654257 
L 321.263085 44.654257 
L 321.263085 43.855842 
L 325.153773 43.855842 
L 325.153773 43.057426 
L 326.777452 43.057426 
L 326.777452 42.25901 
L 327.305974 42.25901 
L 327.305974 41.460594 
L 330.020891 41.460594 
L 330.020891 40.662178 
L 332.076055 40.662178 
L 332.076055 39.863762 
L 332.22839 39.863762 
L 332.22839 39.065347 
L 332.478729 39.065347 
L 332.482237 37.468515 
L 333.261616 37.468515 
L 333.324985 35.871683 
L 334.879366 35.871683 
L 334.879366 35.073267 
L 335.271161 35.073267 
L 335.271161 34.274851 
L 335.708926 34.274851 
L 335.708926 33.476436 
L 335.858651 33.476436 
L 335.858651 32.67802 
L 336.383565 32.67802 
L 336.383565 31.879604 
L 336.70759 31.879604 
L 336.70759 31.081188 
L 337.293149 31.081188 
L 337.293149 30.282772 
L 337.734877 30.282772 
L 337.734877 29.484356 
L 340.927724 29.484356 
L 340.927724 28.685941 
L 341.851741 28.685941 
L 341.851741 27.887525 
L 343.988378 27.887525 
L 343.988378 27.089109 
L 345.301045 27.089109 
L 345.301045 26.290693 
L 348.244053 26.290693 
L 348.317334 24.693861 
L 348.6546 24.693861 
L 348.6546 23.895446 
L 348.937147 23.895446 
L 348.937147 23.09703 
L 349.598415 23.09703 
L 349.678016 21.500198 
L 352.056297 21.500198 
L 352.056297 20.701782 
L 353.018527 20.701782 
L 353.018527 19.903366 
L 354.24294 19.903366 
L 354.24294 19.10495 
L 355.290504 19.10495 
L 355.290504 18.306535 
L 355.44291 18.306535 
L 355.44291 17.508119 
L 356.846449 17.508119 
L 356.846449 16.709703 
L 361.738217 16.709703 
L 361.738217 15.911287 
L 364.997221 15.911287 
L 364.997221 15.112871 
L 366.407239 15.112871 
L 366.407239 14.314455 
L 366.904984 14.314455 
L 366.904984 13.51604 
L 371.513962 13.51604 
L 371.513962 12.717624 
L 373.336406 12.717624 
L 373.336406 11.919208 
L 373.525157 11.919208 
L 373.564735 10.322376 
L 373.956155 10.322376 
L 373.956155 9.52396 
L 382.869656 9.52396 
L 382.869656 8.725545 
L 385.954196 8.725545 
L 385.954196 7.927129 
L 400.058385 7.927129 
L 400.058385 7.128713 
L 431.348094 7.128713 
L 431.348094 6.330297 
L 431.348094 6.330297 
L 460.8 6.330297 
L 460.8 6.330297 
" clip-path="url(#p1d5045dce7)" style="fill: none; stroke: #00bfbf; stroke-width: 1.5; stroke-linecap: square"/>
   </g>
   <g id="line2d_23">
    <path d="M 199.49838 293.76 
L 199.588025 292.163168 
L 200.535432 292.163168 
L 200.535432 291.364752 
L 204.3457 291.364752 
L 204.3457 290.566337 
L 204.893038 290.566337 
L 204.893038 289.767921 
L 206.063832 289.767921 
L 206.063832 288.969505 
L 206.860944 288.969505 
L 206.860944 288.171089 
L 207.936619 288.171089 
L 207.936619 287.372673 
L 208.390085 287.372673 
L 208.390085 286.574257 
L 209.782387 286.574257 
L 209.844638 284.977426 
L 210.164907 284.977426 
L 210.164907 284.17901 
L 210.482473 284.17901 
L 210.482473 283.380594 
L 210.659631 283.380594 
L 210.678714 281.783762 
L 211.068552 281.783762 
L 211.068552 280.985347 
L 211.227216 280.985347 
L 211.227216 280.186931 
L 211.395189 280.186931 
L 211.395189 279.388515 
L 211.912577 279.388515 
L 211.912577 278.590099 
L 212.489098 278.590099 
L 212.553259 276.993267 
L 212.637759 276.993267 
L 212.637759 276.194851 
L 213.019253 276.194851 
L 213.019253 275.396436 
L 213.208847 275.396436 
L 213.30116 273.799604 
L 213.38946 273.799604 
L 213.38946 273.001188 
L 213.573151 273.001188 
L 213.573151 272.202772 
L 213.882176 272.202772 
L 213.897025 270.605941 
L 214.362118 270.605941 
L 214.362118 269.807525 
L 214.799976 269.807525 
L 214.799976 269.009109 
L 215.211845 269.009109 
L 215.211845 268.210693 
L 215.364809 268.210693 
L 215.462098 265.815446 
L 215.504185 265.815446 
L 215.513926 264.218614 
L 215.880114 264.218614 
L 215.954523 262.621782 
L 215.993909 262.621782 
L 215.993909 261.823366 
L 216.198575 261.823366 
L 216.248684 259.428119 
L 216.375572 259.428119 
L 216.425624 257.831287 
L 216.500131 257.831287 
L 216.500131 257.032871 
L 217.13285 257.032871 
L 217.13285 256.234455 
L 217.319642 256.234455 
L 217.319642 255.43604 
L 217.577865 255.43604 
L 217.63443 253.839208 
L 217.81148 253.839208 
L 217.839026 252.242376 
L 218.012902 252.242376 
L 218.012902 251.44396 
L 218.286748 251.44396 
L 218.380333 249.847129 
L 218.522833 249.847129 
L 218.615171 248.250297 
L 218.860984 248.250297 
L 218.860984 247.451881 
L 219.224934 247.451881 
L 219.240202 245.85505 
L 219.802001 245.85505 
L 219.802001 245.056634 
L 220.040292 245.056634 
L 220.064407 243.459802 
L 220.377259 243.459802 
L 220.387316 241.86297 
L 220.63955 241.86297 
L 220.63955 241.064554 
L 220.961454 241.064554 
L 220.961454 240.266139 
L 221.119835 240.266139 
L 221.119835 239.467723 
L 221.359882 239.467723 
L 221.433357 237.870891 
L 221.558204 237.870891 
L 221.644601 236.274059 
L 221.883561 236.274059 
L 221.884779 234.677228 
L 222.077904 234.677228 
L 222.141678 232.28198 
L 222.208749 232.28198 
L 222.261881 229.886733 
L 222.609362 229.886733 
L 222.609362 229.088317 
L 222.958853 229.088317 
L 222.958853 228.289901 
L 223.348647 228.289901 
L 223.448309 223.499406 
L 223.489594 223.499406 
L 223.598517 221.104158 
L 223.874317 221.104158 
L 223.874317 220.305743 
L 224.466345 220.305743 
L 224.498692 218.708911 
L 224.586207 218.708911 
L 224.586207 217.910495 
L 224.769208 217.910495 
L 224.769208 217.112079 
L 225.24062 217.112079 
L 225.24062 216.313663 
L 225.352401 216.313663 
L 225.456765 212.321584 
L 225.475585 212.321584 
L 225.488121 210.724752 
L 225.982781 210.724752 
L 225.982781 209.926337 
L 226.254521 209.926337 
L 226.358057 207.531089 
L 226.456715 207.531089 
L 226.456715 206.732673 
L 226.646953 206.732673 
L 226.735611 202.740594 
L 226.83184 202.740594 
L 226.904871 201.143762 
L 226.979212 201.143762 
L 227.077449 198.748515 
L 227.203643 198.748515 
L 227.203643 197.950099 
L 227.48764 197.950099 
L 227.552197 196.353267 
L 227.623487 196.353267 
L 227.691857 194.756436 
L 227.739492 194.756436 
L 227.739492 193.95802 
L 227.887903 193.95802 
L 227.887903 193.159604 
L 228.00498 193.159604 
L 228.00498 192.361188 
L 228.179937 192.361188 
L 228.179937 191.562772 
L 228.426119 191.562772 
L 228.426119 190.764356 
L 228.669402 190.764356 
L 228.705077 189.167525 
L 228.940539 189.167525 
L 228.940539 188.369109 
L 229.220365 188.369109 
L 229.328394 184.37703 
L 229.38665 184.37703 
L 229.38665 183.578614 
L 229.664711 183.578614 
L 229.76612 181.183366 
L 229.778091 181.183366 
L 229.877344 178.788119 
L 229.981935 178.788119 
L 229.981935 177.989703 
L 230.110881 177.989703 
L 230.116192 176.392871 
L 230.729881 176.392871 
L 230.792976 173.997624 
L 231.040955 173.997624 
L 231.13478 172.400792 
L 231.578807 172.400792 
L 231.578807 171.602376 
L 231.82509 171.602376 
L 231.82509 170.80396 
L 232.140296 170.80396 
L 232.140296 170.005545 
L 232.317468 170.005545 
L 232.374046 168.408713 
L 232.755433 168.408713 
L 232.755433 167.610297 
L 232.957388 167.610297 
L 232.957388 166.811881 
L 233.19714 166.811881 
L 233.19714 166.013465 
L 233.361258 166.013465 
L 233.361258 165.21505 
L 233.526142 165.21505 
L 233.526142 164.416634 
L 234.21033 164.416634 
L 234.21033 163.618218 
L 234.434121 163.618218 
L 234.51841 162.021386 
L 234.549303 162.021386 
L 234.644624 159.626139 
L 234.884842 159.626139 
L 234.892819 158.029307 
L 235.044545 158.029307 
L 235.13522 156.432475 
L 235.191267 156.432475 
L 235.252129 154.835644 
L 235.497116 154.835644 
L 235.553378 153.238812 
L 236.201774 153.238812 
L 236.201774 152.440396 
L 236.325596 152.440396 
L 236.325596 151.64198 
L 236.576552 151.64198 
L 236.576552 150.843564 
L 236.724682 150.843564 
L 236.724682 150.045149 
L 236.863963 150.045149 
L 236.965188 148.448317 
L 237.046013 148.448317 
L 237.118602 146.851485 
L 237.165771 146.851485 
L 237.165771 146.053069 
L 237.32095 146.053069 
L 237.32095 145.254653 
L 237.636976 145.254653 
L 237.735738 143.657822 
L 238.191384 143.657822 
L 238.191384 142.859406 
L 238.351596 142.859406 
L 238.351596 142.06099 
L 238.558879 142.06099 
L 238.558879 141.262574 
L 238.713577 141.262574 
L 238.713577 140.464158 
L 238.829081 140.464158 
L 238.829081 139.665743 
L 239.099521 139.665743 
L 239.135743 138.068911 
L 239.37569 138.068911 
L 239.37569 137.270495 
L 240.07848 137.270495 
L 240.17396 134.875248 
L 240.249898 134.875248 
L 240.283182 133.278416 
L 240.445475 133.278416 
L 240.495347 131.681584 
L 240.877443 131.681584 
L 240.877443 130.883168 
L 241.021517 130.883168 
L 241.021517 130.084752 
L 241.509626 130.084752 
L 241.572203 128.487921 
L 242.299187 128.487921 
L 242.299187 127.689505 
L 242.55618 127.689505 
L 242.654378 125.294257 
L 243.340247 125.294257 
L 243.340247 124.495842 
L 243.537204 124.495842 
L 243.537204 123.697426 
L 244.00996 123.697426 
L 244.115517 121.302178 
L 244.123472 121.302178 
L 244.143694 119.705347 
L 245.147494 119.705347 
L 245.147494 118.906931 
L 245.398946 118.906931 
L 245.398946 118.108515 
L 245.634145 118.108515 
L 245.634145 117.310099 
L 245.922286 117.310099 
L 245.922286 116.511683 
L 246.212982 116.511683 
L 246.212982 115.713267 
L 246.36123 115.713267 
L 246.36123 114.914851 
L 246.676399 114.914851 
L 246.676399 114.116436 
L 248.43941 114.116436 
L 248.43941 113.31802 
L 251.387662 113.31802 
L 251.387662 112.519604 
L 251.627066 112.519604 
L 251.627066 111.721188 
L 251.852996 111.721188 
L 251.955186 110.124356 
L 252.707445 110.124356 
L 252.707445 109.325941 
L 253.222767 109.325941 
L 253.222767 108.527525 
L 254.304187 108.527525 
L 254.383068 106.930693 
L 254.57728 106.930693 
L 254.57728 106.132277 
L 256.376428 106.132277 
L 256.455376 103.73703 
L 256.584831 103.73703 
L 256.584831 102.938614 
L 260.106944 102.938614 
L 260.106944 102.140198 
L 260.80937 102.140198 
L 260.80937 101.341782 
L 261.266065 101.341782 
L 261.266065 100.543366 
L 266.793264 100.543366 
L 266.793264 99.74495 
L 269.072222 99.74495 
L 269.074332 98.148119 
L 270.122197 98.148119 
L 270.122197 97.349703 
L 271.259773 97.349703 
L 271.27038 95.752871 
L 276.575293 95.752871 
L 276.575293 94.954455 
L 278.031385 94.954455 
L 278.031385 94.15604 
L 278.353302 94.15604 
L 278.441028 92.559208 
L 278.880379 92.559208 
L 278.880379 91.760792 
L 279.110075 91.760792 
L 279.110075 90.962376 
L 279.55104 90.962376 
L 279.55104 90.16396 
L 281.088023 90.16396 
L 281.088023 89.365545 
L 282.374922 89.365545 
L 282.374922 88.567129 
L 282.520882 88.567129 
L 282.520882 87.768713 
L 283.424334 87.768713 
L 283.424334 86.970297 
L 283.578658 86.970297 
L 283.60703 84.57505 
L 284.060652 84.57505 
L 284.154831 82.978218 
L 284.502172 82.978218 
L 284.520338 81.381386 
L 285.155367 81.381386 
L 285.155367 80.58297 
L 285.80357 80.58297 
L 285.863443 78.986139 
L 285.992014 78.986139 
L 285.992014 78.187723 
L 286.925301 78.187723 
L 286.925301 77.389307 
L 287.721834 77.389307 
L 287.794687 75.792475 
L 287.982405 75.792475 
L 287.982405 74.994059 
L 289.09339 74.994059 
L 289.09339 74.195644 
L 289.445019 74.195644 
L 289.445019 73.397228 
L 289.917911 73.397228 
L 290.02153 71.00198 
L 290.758006 71.00198 
L 290.758006 70.203564 
L 291.093427 70.203564 
L 291.111396 68.606733 
L 291.574661 68.606733 
L 291.574661 67.808317 
L 292.212856 67.808317 
L 292.3229 65.413069 
L 292.324245 65.413069 
L 292.324245 64.614653 
L 292.667221 64.614653 
L 292.667221 63.816238 
L 293.26837 63.816238 
L 293.26837 63.017822 
L 294.295657 63.017822 
L 294.391299 60.622574 
L 294.724745 60.622574 
L 294.724745 59.824158 
L 295.220442 59.824158 
L 295.220442 59.025743 
L 298.548375 59.025743 
L 298.569767 57.428911 
L 298.675559 57.428911 
L 298.675559 56.630495 
L 299.043904 56.630495 
L 299.043904 55.832079 
L 300.074768 55.832079 
L 300.074768 55.033663 
L 300.690246 55.033663 
L 300.690246 54.235248 
L 301.706927 54.235248 
L 301.706927 53.436832 
L 302.653489 53.436832 
L 302.653489 52.638416 
L 303.094157 52.638416 
L 303.094157 51.84 
L 303.745791 51.84 
L 303.745791 51.041584 
L 304.518102 51.041584 
L 304.518102 50.243168 
L 304.90977 50.243168 
L 304.90977 49.444752 
L 305.539734 49.444752 
L 305.539734 48.646337 
L 307.188121 48.646337 
L 307.188121 47.847921 
L 307.398792 47.847921 
L 307.398792 47.049505 
L 308.357234 47.049505 
L 308.357234 46.251089 
L 308.745605 46.251089 
L 308.745605 45.452673 
L 309.292284 45.452673 
L 309.292284 44.654257 
L 309.597901 44.654257 
L 309.677775 43.057426 
L 311.391657 43.057426 
L 311.449811 41.460594 
L 312.073331 41.460594 
L 312.073331 40.662178 
L 313.972441 40.662178 
L 314.049348 38.266931 
L 314.207907 38.266931 
L 314.207907 37.468515 
L 315.900376 37.468515 
L 315.900376 36.670099 
L 318.277773 36.670099 
L 318.277773 35.871683 
L 318.578299 35.871683 
L 318.578299 35.073267 
L 319.404808 35.073267 
L 319.404808 34.274851 
L 320.856977 34.274851 
L 320.856977 33.476436 
L 321.553781 33.476436 
L 321.553781 32.67802 
L 323.726653 32.67802 
L 323.726653 31.879604 
L 325.240697 31.879604 
L 325.240697 31.081188 
L 325.860316 31.081188 
L 325.860316 30.282772 
L 326.777452 30.282772 
L 326.832484 28.685941 
L 327.305974 28.685941 
L 327.305974 27.887525 
L 329.793202 27.887525 
L 329.793202 27.089109 
L 330.020891 27.089109 
L 330.020891 26.290693 
L 330.414871 26.290693 
L 330.414871 25.492277 
L 331.34771 25.492277 
L 331.34771 24.693861 
L 332.076055 24.693861 
L 332.076055 23.895446 
L 332.478729 23.895446 
L 332.482237 22.298614 
L 334.20101 22.298614 
L 334.20101 21.500198 
L 335.238239 21.500198 
L 335.238239 20.701782 
L 338.686671 20.701782 
L 338.686671 19.903366 
L 343.988378 19.903366 
L 343.988378 19.10495 
L 345.301045 19.10495 
L 345.301045 18.306535 
L 348.6546 18.306535 
L 348.6546 17.508119 
L 348.860523 17.508119 
L 348.860523 16.709703 
L 349.049774 16.709703 
L 349.049774 15.911287 
L 349.573846 15.911287 
L 349.573846 15.112871 
L 355.44291 15.112871 
L 355.44291 14.314455 
L 356.831077 14.314455 
L 356.846449 12.717624 
L 358.298788 12.717624 
L 358.318712 11.120792 
L 358.556574 11.120792 
L 358.556574 10.322376 
L 359.740581 10.322376 
L 359.740581 9.52396 
L 366.904984 9.52396 
L 366.904984 8.725545 
L 369.208914 8.725545 
L 369.208914 7.927129 
L 369.938119 7.927129 
L 369.938119 7.128713 
L 373.564735 7.128713 
L 373.564735 6.330297 
L 373.564735 6.330297 
L 460.8 6.330297 
L 460.8 6.330297 
" clip-path="url(#p1d5045dce7)" style="fill: none; stroke: #bf00bf; stroke-width: 1.5; stroke-linecap: square"/>
   </g>
   <g id="line2d_24">
    <path d="M 198.162385 293.76 
L 198.162385 292.961584 
L 199.49838 292.961584 
L 199.588025 291.364752 
L 200.289995 291.364752 
L 200.289995 290.566337 
L 200.535432 290.566337 
L 200.535432 289.767921 
L 201.343998 289.767921 
L 201.343998 288.969505 
L 202.092154 288.969505 
L 202.092154 288.171089 
L 204.747736 288.171089 
L 204.747736 287.372673 
L 204.893038 287.372673 
L 204.893038 286.574257 
L 205.754486 286.574257 
L 205.802926 284.977426 
L 206.063832 284.977426 
L 206.121378 283.380594 
L 206.991349 283.380594 
L 206.991349 282.582178 
L 207.155749 282.582178 
L 207.155749 281.783762 
L 207.351621 281.783762 
L 207.450451 278.590099 
L 207.561414 278.590099 
L 207.657272 276.194851 
L 207.901503 276.194851 
L 207.936619 274.59802 
L 208.148567 274.59802 
L 208.148567 273.799604 
L 208.390085 273.799604 
L 208.390085 273.001188 
L 208.657222 273.001188 
L 208.657222 272.202772 
L 209.132833 272.202772 
L 209.153294 270.605941 
L 209.368002 270.605941 
L 209.423117 268.210693 
L 209.555377 268.210693 
L 209.555377 267.412277 
L 209.844638 267.412277 
L 209.913679 265.815446 
L 210.482473 265.815446 
L 210.482473 265.01703 
L 210.659631 265.01703 
L 210.764546 262.621782 
L 210.812111 262.621782 
L 210.812111 261.823366 
L 211.068552 261.823366 
L 211.135 259.428119 
L 211.25361 259.428119 
L 211.331332 257.831287 
L 211.831854 257.831287 
L 211.831854 257.032871 
L 212.169832 257.032871 
L 212.266655 255.43604 
L 212.294108 255.43604 
L 212.294108 254.637624 
L 212.419466 254.637624 
L 212.489098 253.040792 
L 212.553259 253.040792 
L 212.603935 251.44396 
L 212.901733 251.44396 
L 212.989556 249.847129 
L 213.101076 249.847129 
L 213.12946 248.250297 
L 213.36335 248.250297 
L 213.36335 247.451881 
L 213.859133 247.451881 
L 213.859133 246.653465 
L 214.125692 246.653465 
L 214.125692 245.85505 
L 214.362118 245.85505 
L 214.362118 245.056634 
L 214.514779 245.056634 
L 214.584486 243.459802 
L 214.845496 243.459802 
L 214.852613 241.86297 
L 215.00165 241.86297 
L 215.079501 240.266139 
L 215.364809 240.266139 
L 215.364809 239.467723 
L 215.504185 239.467723 
L 215.504185 238.669307 
L 215.820329 238.669307 
L 215.820329 237.870891 
L 215.993909 237.870891 
L 215.993909 237.072475 
L 216.308576 237.072475 
L 216.375572 235.475644 
L 216.936709 235.475644 
L 216.936709 234.677228 
L 217.091259 234.677228 
L 217.091259 233.878812 
L 217.429419 233.878812 
L 217.429419 233.080396 
L 217.577865 233.080396 
L 217.577865 232.28198 
L 217.728505 232.28198 
L 217.728505 231.483564 
L 218.012902 231.483564 
L 218.013514 229.088317 
L 218.37824 229.088317 
L 218.380333 227.491485 
L 218.54899 227.491485 
L 218.54899 226.693069 
L 218.665808 226.693069 
L 218.674901 225.096238 
L 218.847059 225.096238 
L 218.860984 223.499406 
L 219.240202 223.499406 
L 219.342746 220.305743 
L 219.682873 220.305743 
L 219.682873 219.507327 
L 219.802001 219.507327 
L 219.802001 218.708911 
L 220.029106 218.708911 
L 220.064407 217.112079 
L 220.21821 217.112079 
L 220.252033 215.515248 
L 220.387316 215.515248 
L 220.387316 214.716832 
L 220.63955 214.716832 
L 220.67513 213.12 
L 221.119835 213.12 
L 221.119835 212.321584 
L 221.231688 212.321584 
L 221.302179 208.329505 
L 221.351518 208.329505 
L 221.351518 207.531089 
L 221.644601 207.531089 
L 221.644601 206.732673 
L 221.883561 206.732673 
L 221.949692 204.337426 
L 222.060464 204.337426 
L 222.141678 201.143762 
L 222.205146 201.143762 
L 222.205146 200.345347 
L 222.491965 200.345347 
L 222.491965 199.546931 
L 222.998594 199.546931 
L 222.998594 198.748515 
L 223.152196 198.748515 
L 223.152196 197.950099 
L 223.396473 197.950099 
L 223.489594 196.353267 
L 223.53963 196.353267 
L 223.542117 194.756436 
L 223.654796 194.756436 
L 223.654796 193.159604 
L 223.881025 193.159604 
L 223.881025 192.361188 
L 224.017886 192.361188 
L 224.091417 190.764356 
L 224.574747 190.764356 
L 224.586207 189.167525 
L 225.145485 189.167525 
L 225.145485 188.369109 
L 225.350328 188.369109 
L 225.350328 187.570693 
L 225.475585 187.570693 
L 225.475585 186.772277 
L 225.970195 186.772277 
L 225.980987 185.175446 
L 226.25688 185.175446 
L 226.358057 183.578614 
L 226.456715 183.578614 
L 226.456715 182.780198 
L 226.646953 182.780198 
L 226.646953 181.981782 
L 226.809666 181.981782 
L 226.83184 180.38495 
L 226.932392 180.38495 
L 226.932392 179.586535 
L 227.077449 179.586535 
L 227.118639 177.989703 
L 227.656625 177.989703 
L 227.739492 176.392871 
L 227.974625 176.392871 
L 228.079693 173.997624 
L 228.179937 173.997624 
L 228.288314 172.400792 
L 228.418437 172.400792 
L 228.436651 170.005545 
L 228.894583 170.005545 
L 228.894583 169.207129 
L 229.170381 169.207129 
L 229.241409 166.013465 
L 229.672531 166.013465 
L 229.672531 165.21505 
L 230.002555 165.21505 
L 230.110881 163.618218 
L 230.533449 163.618218 
L 230.533449 162.819802 
L 231.512474 162.819802 
L 231.578807 161.22297 
L 231.627622 161.22297 
L 231.627622 160.424554 
L 231.865487 160.424554 
L 231.865487 159.626139 
L 232.049454 159.626139 
L 232.140296 158.029307 
L 232.187228 158.029307 
L 232.187228 157.230891 
L 232.374046 157.230891 
L 232.374046 156.432475 
L 232.565636 156.432475 
L 232.630261 154.835644 
L 232.716815 154.835644 
L 232.778035 153.238812 
L 232.957388 153.238812 
L 232.995433 151.64198 
L 233.19714 151.64198 
L 233.278952 150.045149 
L 233.328282 150.045149 
L 233.328282 149.246733 
L 233.526142 149.246733 
L 233.526142 148.448317 
L 234.116806 148.448317 
L 234.116806 147.649901 
L 234.434121 147.649901 
L 234.518893 146.053069 
L 234.55451 146.053069 
L 234.644624 143.657822 
L 234.707649 143.657822 
L 234.792336 142.06099 
L 234.884842 142.06099 
L 234.988443 140.464158 
L 235.022858 140.464158 
L 235.044545 138.867327 
L 235.179605 138.867327 
L 235.252129 137.270495 
L 235.481087 137.270495 
L 235.497116 135.673663 
L 235.768577 135.673663 
L 235.768577 134.875248 
L 235.992592 134.875248 
L 236.009416 133.278416 
L 236.325596 133.278416 
L 236.362833 131.681584 
L 236.576552 131.681584 
L 236.576552 130.883168 
L 236.724682 130.883168 
L 236.724682 130.084752 
L 236.863963 130.084752 
L 236.863963 129.286337 
L 237.008843 129.286337 
L 237.118602 126.891089 
L 237.165771 126.891089 
L 237.165771 126.092673 
L 237.371456 126.092673 
L 237.38208 124.495842 
L 237.636976 124.495842 
L 237.636976 123.697426 
L 237.772704 123.697426 
L 237.819906 122.100594 
L 237.938018 122.100594 
L 237.938018 121.302178 
L 238.713577 121.302178 
L 238.713577 120.503762 
L 238.829081 120.503762 
L 238.829081 119.705347 
L 239.106363 119.705347 
L 239.106363 118.906931 
L 239.297182 118.906931 
L 239.330015 117.310099 
L 240.07848 117.310099 
L 240.17396 115.713267 
L 240.889344 115.713267 
L 240.889344 114.914851 
L 241.021517 114.914851 
L 241.021517 114.116436 
L 241.163161 114.116436 
L 241.163161 113.31802 
L 242.096369 113.31802 
L 242.096369 112.519604 
L 242.253332 112.519604 
L 242.299187 110.922772 
L 242.55618 110.922772 
L 242.55618 110.124356 
L 243.332944 110.124356 
L 243.332944 109.325941 
L 243.537204 109.325941 
L 243.537204 108.527525 
L 246.295329 108.527525 
L 246.295329 107.729109 
L 248.658439 107.729109 
L 248.658439 106.930693 
L 250.034199 106.930693 
L 250.034199 106.132277 
L 251.251932 106.132277 
L 251.251932 105.333861 
L 251.387662 105.333861 
L 251.387662 104.535446 
L 251.627066 104.535446 
L 251.67891 102.938614 
L 252.049252 102.938614 
L 252.049252 102.140198 
L 252.268456 102.140198 
L 252.268456 101.341782 
L 252.707445 101.341782 
L 252.707445 100.543366 
L 253.222767 100.543366 
L 253.222767 99.74495 
L 253.82655 99.74495 
L 253.918209 98.148119 
L 254.304874 98.148119 
L 254.383068 96.551287 
L 256.338293 96.551287 
L 256.385421 94.954455 
L 258.086181 94.954455 
L 258.086181 94.15604 
L 258.848233 94.15604 
L 258.848233 93.357624 
L 260.797766 93.357624 
L 260.797766 92.559208 
L 262.763618 92.559208 
L 262.763618 91.760792 
L 265.329639 91.760792 
L 265.329639 90.962376 
L 266.793264 90.962376 
L 266.793264 90.16396 
L 267.219742 90.16396 
L 267.287825 88.567129 
L 267.385891 88.567129 
L 267.385891 87.768713 
L 269.068235 87.768713 
L 269.074332 86.171881 
L 269.821269 86.171881 
L 269.821269 85.373465 
L 270.122197 85.373465 
L 270.122197 84.57505 
L 271.438973 84.57505 
L 271.438973 83.776634 
L 272.520396 83.776634 
L 272.520396 82.978218 
L 273.124029 82.978218 
L 273.124029 82.179802 
L 273.596022 82.179802 
L 273.695845 80.58297 
L 274.871389 80.58297 
L 274.871389 79.784554 
L 276.182603 79.784554 
L 276.182603 78.986139 
L 276.575293 78.986139 
L 276.583075 77.389307 
L 276.912734 77.389307 
L 276.912734 76.590891 
L 277.240468 76.590891 
L 277.240468 75.792475 
L 277.979164 75.792475 
L 278.031385 74.195644 
L 278.128009 74.195644 
L 278.128009 73.397228 
L 278.700706 73.397228 
L 278.700706 72.598812 
L 278.880379 72.598812 
L 278.880379 71.800396 
L 279.55104 71.800396 
L 279.55104 71.00198 
L 279.804649 71.00198 
L 279.804649 70.203564 
L 280.278851 70.203564 
L 280.278851 69.405149 
L 280.588463 69.405149 
L 280.588463 68.606733 
L 280.817326 68.606733 
L 280.817326 67.808317 
L 281.295142 67.808317 
L 281.295142 67.009901 
L 283.088727 67.009901 
L 283.088727 66.211485 
L 283.549163 66.211485 
L 283.60703 63.816238 
L 284.060652 63.816238 
L 284.154831 62.219406 
L 284.478528 62.219406 
L 284.520338 59.824158 
L 284.953311 59.824158 
L 284.953311 59.025743 
L 285.878843 59.025743 
L 285.901158 57.428911 
L 285.992014 57.428911 
L 285.992014 56.630495 
L 286.39624 56.630495 
L 286.39624 55.832079 
L 286.920226 55.832079 
L 286.920226 55.033663 
L 287.143139 55.033663 
L 287.143139 54.235248 
L 288.424493 54.235248 
L 288.424493 53.436832 
L 289.445019 53.436832 
L 289.445019 52.638416 
L 290.54577 52.638416 
L 290.54577 51.84 
L 292.735226 51.84 
L 292.784286 50.243168 
L 293.26837 50.243168 
L 293.26837 49.444752 
L 294.328943 49.444752 
L 294.328943 48.646337 
L 296.925705 48.646337 
L 296.925705 47.847921 
L 297.977584 47.847921 
L 297.977584 47.049505 
L 302.639388 47.049505 
L 302.639388 46.251089 
L 303.03354 46.251089 
L 303.03354 45.452673 
L 303.745791 45.452673 
L 303.745791 44.654257 
L 304.518102 44.654257 
L 304.518102 43.855842 
L 304.90977 43.855842 
L 304.918976 42.25901 
L 305.60996 42.25901 
L 305.60996 41.460594 
L 307.188121 41.460594 
L 307.188121 40.662178 
L 307.863333 40.662178 
L 307.863333 39.863762 
L 308.299163 39.863762 
L 308.299163 39.065347 
L 309.292284 39.065347 
L 309.292284 38.266931 
L 309.597901 38.266931 
L 309.677775 36.670099 
L 310.900396 36.670099 
L 310.900396 35.871683 
L 311.106198 35.871683 
L 311.106198 35.073267 
L 311.391657 35.073267 
L 311.391657 34.274851 
L 311.900598 34.274851 
L 311.900598 33.476436 
L 314.023453 33.476436 
L 314.049348 31.879604 
L 315.900376 31.879604 
L 315.900376 31.081188 
L 316.768577 31.081188 
L 316.768577 30.282772 
L 317.930535 30.282772 
L 317.930535 29.484356 
L 318.056439 29.484356 
L 318.056439 28.685941 
L 318.578299 28.685941 
L 318.578299 27.887525 
L 319.006802 27.887525 
L 319.006802 27.089109 
L 321.654461 27.089109 
L 321.654461 26.290693 
L 325.240697 26.290693 
L 325.240697 25.492277 
L 325.854705 25.492277 
L 325.860316 23.895446 
L 326.777452 23.895446 
L 326.777452 23.09703 
L 327.305974 23.09703 
L 327.305974 22.298614 
L 327.580959 22.298614 
L 327.580959 21.500198 
L 332.478729 21.500198 
L 332.57437 19.903366 
L 335.238239 19.903366 
L 335.238239 19.10495 
L 336.019747 19.10495 
L 336.019747 18.306535 
L 339.331431 18.306535 
L 339.331431 17.508119 
L 343.174859 17.508119 
L 343.174859 16.709703 
L 347.095565 16.709703 
L 347.095565 15.911287 
L 348.6546 15.911287 
L 348.6546 15.112871 
L 348.860523 15.112871 
L 348.860523 14.314455 
L 349.049774 14.314455 
L 349.049774 13.51604 
L 354.540256 13.51604 
L 354.540256 12.717624 
L 355.44291 12.717624 
L 355.44291 11.919208 
L 356.831077 11.919208 
L 356.831077 11.120792 
L 358.298788 11.120792 
L 358.318712 9.52396 
L 358.556574 9.52396 
L 358.556574 8.725545 
L 359.763306 8.725545 
L 359.763306 7.927129 
L 363.476651 7.927129 
L 363.476651 7.128713 
L 366.939948 7.128713 
L 366.939948 6.330297 
L 366.939948 6.330297 
L 460.8 6.330297 
L 460.8 6.330297 
" clip-path="url(#p1d5045dce7)" style="fill: none; stroke: #000000; stroke-width: 1.5; stroke-linecap: square"/>
   </g>
   <g id="line2d_25">
    <path d="M -0.100882 293.76 
L -0.100882 290.566337 
L 191.052214 290.566337 
L 191.052214 289.767921 
L 193.378864 289.767921 
L 193.378864 288.969505 
L 194.156837 288.969505 
L 194.156837 288.171089 
L 194.992101 288.171089 
L 194.992101 287.372673 
L 195.330515 287.372673 
L 195.330515 286.574257 
L 195.66739 286.574257 
L 195.66739 284.977426 
L 195.983684 284.977426 
L 195.983684 284.17901 
L 196.184047 284.17901 
L 196.218859 282.582178 
L 196.387617 282.582178 
L 196.493237 280.186931 
L 197.013597 280.186931 
L 197.095287 278.590099 
L 197.320409 278.590099 
L 197.320409 277.791683 
L 197.5133 277.791683 
L 197.5133 276.993267 
L 197.850205 276.993267 
L 197.850205 276.194851 
L 198.004177 276.194851 
L 198.004177 275.396436 
L 198.162385 275.396436 
L 198.162385 274.59802 
L 199.107709 274.59802 
L 199.107709 273.799604 
L 199.22282 273.799604 
L 199.330507 271.404356 
L 199.352484 271.404356 
L 199.352484 270.605941 
L 199.49838 270.605941 
L 199.523779 268.210693 
L 199.658871 268.210693 
L 199.712539 265.815446 
L 199.807718 265.815446 
L 199.807718 265.01703 
L 199.934469 265.01703 
L 200.039825 261.823366 
L 200.106006 261.823366 
L 200.108442 260.226535 
L 200.263672 260.226535 
L 200.263672 259.428119 
L 200.524172 259.428119 
L 200.524172 258.629703 
L 200.801419 258.629703 
L 200.801419 257.831287 
L 200.930481 257.831287 
L 200.930481 257.032871 
L 201.247277 257.032871 
L 201.343998 255.43604 
L 201.464533 255.43604 
L 201.572374 253.839208 
L 201.721042 253.839208 
L 201.808806 251.44396 
L 202.05947 251.44396 
L 202.092154 249.847129 
L 202.227496 249.847129 
L 202.227496 249.048713 
L 202.401139 249.048713 
L 202.401139 248.250297 
L 202.750568 248.250297 
L 202.774629 246.653465 
L 203.038629 246.653465 
L 203.079093 245.056634 
L 203.151731 245.056634 
L 203.206367 241.86297 
L 203.598535 241.86297 
L 203.598535 241.064554 
L 203.897249 241.064554 
L 203.897249 240.266139 
L 204.027607 240.266139 
L 204.043147 238.669307 
L 204.676141 238.669307 
L 204.676141 237.870891 
L 204.823456 237.870891 
L 204.893038 236.274059 
L 204.957694 236.274059 
L 204.957694 235.475644 
L 205.087886 235.475644 
L 205.193069 233.878812 
L 205.357824 233.878812 
L 205.357824 233.080396 
L 205.672531 233.080396 
L 205.754486 231.483564 
L 206.006503 231.483564 
L 206.006503 230.685149 
L 206.397019 230.685149 
L 206.397019 229.886733 
L 206.756744 229.886733 
L 206.756744 229.088317 
L 207.014293 229.088317 
L 207.117672 227.491485 
L 207.320905 227.491485 
L 207.424492 225.096238 
L 207.483198 225.096238 
L 207.483198 224.297822 
L 207.901503 224.297822 
L 207.901503 223.499406 
L 208.187902 223.499406 
L 208.187902 222.70099 
L 208.315655 222.70099 
L 208.375291 221.104158 
L 208.550597 221.104158 
L 208.641922 219.507327 
L 208.686367 219.507327 
L 208.686367 218.708911 
L 208.977625 218.708911 
L 208.977625 217.910495 
L 209.341549 217.910495 
L 209.423117 215.515248 
L 209.483304 215.515248 
L 209.486969 213.918416 
L 209.741825 213.918416 
L 209.741825 213.12 
L 209.913679 213.12 
L 209.913679 212.321584 
L 210.069892 212.321584 
L 210.069892 211.523168 
L 210.249701 211.523168 
L 210.275392 209.926337 
L 210.669565 209.926337 
L 210.669565 209.127921 
L 211.333672 209.127921 
L 211.389603 207.531089 
L 213.323665 207.531089 
L 213.323665 206.732673 
L 213.461962 206.732673 
L 213.461962 205.934257 
L 213.859133 205.934257 
L 213.872651 204.337426 
L 214.362118 204.337426 
L 214.428718 202.740594 
L 214.514779 202.740594 
L 214.584486 201.143762 
L 214.85312 201.143762 
L 214.85312 200.345347 
L 215.00165 200.345347 
L 215.00165 199.546931 
L 215.512222 199.546931 
L 215.569718 197.950099 
L 216.070212 197.950099 
L 216.070212 197.151683 
L 216.188402 197.151683 
L 216.188402 196.353267 
L 216.307688 196.353267 
L 216.308576 194.756436 
L 216.936709 194.756436 
L 216.936709 193.95802 
L 217.371356 193.95802 
L 217.429419 192.361188 
L 217.614945 192.361188 
L 217.614945 191.562772 
L 217.820856 191.562772 
L 217.916821 189.167525 
L 218.380333 189.167525 
L 218.486759 186.772277 
L 218.847059 186.772277 
L 218.945996 184.37703 
L 219.019671 184.37703 
L 219.019671 183.578614 
L 219.342362 183.578614 
L 219.342362 182.780198 
L 219.572086 182.780198 
L 219.572086 181.981782 
L 219.73145 181.981782 
L 219.778799 179.586535 
L 219.913308 179.586535 
L 219.984915 177.989703 
L 220.064407 177.989703 
L 220.150033 176.392871 
L 220.190474 176.392871 
L 220.190474 175.594455 
L 220.313905 175.594455 
L 220.322233 173.997624 
L 220.609594 173.997624 
L 220.609594 173.199208 
L 220.841441 173.199208 
L 220.915227 171.602376 
L 221.231688 171.602376 
L 221.259568 170.005545 
L 221.348941 170.005545 
L 221.348941 169.207129 
L 221.51284 169.207129 
L 221.51284 168.408713 
L 221.891886 168.408713 
L 221.959531 166.811881 
L 222.100756 166.811881 
L 222.100756 166.013465 
L 222.326237 166.013465 
L 222.43054 164.416634 
L 222.702244 164.416634 
L 222.812073 162.819802 
L 223.628917 162.819802 
L 223.628917 162.021386 
L 223.860819 162.021386 
L 223.860819 161.22297 
L 224.163438 161.22297 
L 224.163438 160.424554 
L 224.459249 160.424554 
L 224.496805 158.827723 
L 224.574747 158.827723 
L 224.574747 158.029307 
L 224.761062 158.029307 
L 224.761062 157.230891 
L 224.92427 157.230891 
L 224.985303 154.835644 
L 225.600859 154.835644 
L 225.653448 153.238812 
L 225.769899 153.238812 
L 225.769899 152.440396 
L 225.927095 152.440396 
L 225.93196 150.843564 
L 226.095642 150.843564 
L 226.111346 149.246733 
L 226.239491 149.246733 
L 226.239491 148.448317 
L 226.594462 148.448317 
L 226.594462 147.649901 
L 226.887079 147.649901 
L 226.887079 146.851485 
L 227.023829 146.851485 
L 227.023829 146.053069 
L 227.202198 146.053069 
L 227.254059 142.859406 
L 227.349031 142.859406 
L 227.349031 142.06099 
L 227.536721 142.06099 
L 227.536721 141.262574 
L 227.656625 141.262574 
L 227.656625 140.464158 
L 227.947949 140.464158 
L 227.973322 138.867327 
L 228.237164 138.867327 
L 228.2759 136.472079 
L 228.435382 136.472079 
L 228.525177 133.278416 
L 228.778533 133.278416 
L 228.801382 131.681584 
L 229.067884 131.681584 
L 229.151658 129.286337 
L 229.335034 129.286337 
L 229.335034 128.487921 
L 229.725292 128.487921 
L 229.73777 126.891089 
L 229.897158 126.891089 
L 230.002555 124.495842 
L 230.074184 124.495842 
L 230.074184 123.697426 
L 230.311247 123.697426 
L 230.311247 122.89901 
L 230.518935 122.89901 
L 230.518935 122.100594 
L 230.647595 122.100594 
L 230.647595 121.302178 
L 231.181365 121.302178 
L 231.232621 119.705347 
L 231.348757 119.705347 
L 231.348757 118.906931 
L 231.512474 118.906931 
L 231.512474 118.108515 
L 231.680827 118.108515 
L 231.680827 117.310099 
L 231.99 117.310099 
L 232.031391 115.713267 
L 232.215439 115.713267 
L 232.215439 114.914851 
L 232.396995 114.914851 
L 232.396995 114.116436 
L 232.56096 114.116436 
L 232.630261 112.519604 
L 232.70666 112.519604 
L 232.716815 110.922772 
L 232.971438 110.922772 
L 233.043721 109.325941 
L 233.273722 109.325941 
L 233.273722 108.527525 
L 233.46666 108.527525 
L 233.576014 106.132277 
L 234.116356 106.132277 
L 234.116356 105.333861 
L 234.36196 105.333861 
L 234.417631 103.73703 
L 234.601329 103.73703 
L 234.613028 102.140198 
L 235.191984 102.140198 
L 235.191984 101.341782 
L 235.731921 101.341782 
L 235.731921 100.543366 
L 237.008843 100.543366 
L 237.008843 99.74495 
L 238.423797 99.74495 
L 238.423797 98.946535 
L 238.890831 98.946535 
L 238.890831 97.349703 
L 239.209077 97.349703 
L 239.209077 96.551287 
L 240.125261 96.551287 
L 240.125261 95.752871 
L 240.42811 95.752871 
L 240.42811 94.954455 
L 241.002345 94.954455 
L 241.020906 93.357624 
L 241.218369 93.357624 
L 241.30963 91.760792 
L 241.967085 91.760792 
L 241.967085 90.962376 
L 242.331503 90.962376 
L 242.331503 90.16396 
L 242.958982 90.16396 
L 242.981195 88.567129 
L 243.412078 88.567129 
L 243.412078 87.768713 
L 243.58064 87.768713 
L 243.58064 86.970297 
L 243.978418 86.970297 
L 243.978418 86.171881 
L 244.460421 86.171881 
L 244.460421 85.373465 
L 246.295329 85.373465 
L 246.295329 84.57505 
L 246.513359 84.57505 
L 246.513359 83.776634 
L 246.868851 83.776634 
L 246.868851 82.978218 
L 247.029713 82.978218 
L 247.029713 82.179802 
L 247.298421 82.179802 
L 247.298421 81.381386 
L 247.502925 81.381386 
L 247.502925 80.58297 
L 248.334684 80.58297 
L 248.334684 79.784554 
L 248.855792 79.784554 
L 248.887181 78.187723 
L 249.310403 78.187723 
L 249.310403 77.389307 
L 249.624546 77.389307 
L 249.624546 76.590891 
L 250.155294 76.590891 
L 250.155294 75.792475 
L 251.324117 75.792475 
L 251.324117 74.994059 
L 251.67891 74.994059 
L 251.742738 73.397228 
L 252.068053 73.397228 
L 252.090217 71.800396 
L 253.362683 71.800396 
L 253.437475 70.203564 
L 253.615096 70.203564 
L 253.615096 69.405149 
L 254.645842 69.405149 
L 254.645842 68.606733 
L 254.960845 68.606733 
L 254.960845 67.808317 
L 255.751598 67.808317 
L 255.751598 67.009901 
L 255.896049 67.009901 
L 255.896049 66.211485 
L 256.155065 66.211485 
L 256.155065 65.413069 
L 256.590963 65.413069 
L 256.590963 64.614653 
L 257.527108 64.614653 
L 257.527108 63.816238 
L 257.755328 63.816238 
L 257.821073 62.219406 
L 257.90858 62.219406 
L 257.90858 61.42099 
L 258.487022 61.42099 
L 258.578987 59.025743 
L 258.617124 59.025743 
L 258.617124 58.227327 
L 258.848233 58.227327 
L 258.848233 57.428911 
L 259.365385 57.428911 
L 259.365385 56.630495 
L 262.763618 56.630495 
L 262.763618 55.832079 
L 263.932171 55.832079 
L 263.932171 55.033663 
L 265.642288 55.033663 
L 265.642288 54.235248 
L 269.342415 54.235248 
L 269.342415 53.436832 
L 270.072867 53.436832 
L 270.072867 52.638416 
L 270.246157 52.638416 
L 270.246157 51.84 
L 270.803688 51.84 
L 270.803688 51.041584 
L 274.253806 51.041584 
L 274.253806 50.243168 
L 274.871389 50.243168 
L 274.871389 49.444752 
L 275.688683 49.444752 
L 275.688683 48.646337 
L 275.977881 48.646337 
L 275.977881 47.847921 
L 278.290103 47.847921 
L 278.290103 47.049505 
L 281.295142 47.049505 
L 281.295142 46.251089 
L 281.45681 46.251089 
L 281.45681 45.452673 
L 282.11337 45.452673 
L 282.11337 44.654257 
L 284.278281 44.654257 
L 284.278281 43.855842 
L 285.878843 43.855842 
L 285.901158 42.25901 
L 287.034008 42.25901 
L 287.034008 41.460594 
L 287.486771 41.460594 
L 287.486771 40.662178 
L 289.445019 40.662178 
L 289.445019 39.863762 
L 291.605178 39.863762 
L 291.605178 39.065347 
L 291.746537 39.065347 
L 291.746537 38.266931 
L 293.26837 38.266931 
L 293.284835 36.670099 
L 293.808628 36.670099 
L 293.808628 35.871683 
L 294.446648 35.871683 
L 294.446648 35.073267 
L 294.831106 35.073267 
L 294.831106 34.274851 
L 296.169518 34.274851 
L 296.169518 33.476436 
L 296.533476 33.476436 
L 296.533476 32.67802 
L 297.350702 32.67802 
L 297.350702 31.879604 
L 297.882504 31.879604 
L 297.882504 31.081188 
L 298.53345 31.081188 
L 298.53345 30.282772 
L 301.291914 30.282772 
L 301.291914 29.484356 
L 304.90977 29.484356 
L 304.90977 28.685941 
L 305.134572 28.685941 
L 305.146368 27.089109 
L 305.559437 27.089109 
L 305.635101 24.693861 
L 306.099984 24.693861 
L 306.099984 23.895446 
L 307.121525 23.895446 
L 307.121525 23.09703 
L 307.247793 23.09703 
L 307.247793 22.298614 
L 308.778233 22.298614 
L 308.778233 21.500198 
L 310.753204 21.500198 
L 310.753204 20.701782 
L 311.391657 20.701782 
L 311.391657 19.903366 
L 312.679977 19.903366 
L 312.679977 19.10495 
L 324.79275 19.10495 
L 324.79275 18.306535 
L 325.962268 18.306535 
L 325.962268 17.508119 
L 329.759849 17.508119 
L 329.759849 16.709703 
L 332.34902 16.709703 
L 332.34902 15.911287 
L 334.464642 15.911287 
L 334.464642 15.112871 
L 337.193302 15.112871 
L 337.193302 14.314455 
L 337.990963 14.314455 
L 337.990963 13.51604 
L 338.113671 13.51604 
L 338.113671 12.717624 
L 338.350963 12.717624 
L 338.350963 11.919208 
L 338.703487 11.919208 
L 338.703487 11.120792 
L 339.120719 11.120792 
L 339.120719 10.322376 
L 339.331431 10.322376 
L 339.331431 9.52396 
L 342.430079 9.52396 
L 342.430079 8.725545 
L 343.174859 8.725545 
L 343.174859 7.927129 
L 344.280789 7.927129 
L 344.280789 7.128713 
L 345.788308 7.128713 
L 345.788308 6.330297 
L 345.788308 6.330297 
L 460.8 6.330297 
L 460.8 6.330297 
" clip-path="url(#p1d5045dce7)" style="fill: none; stroke: #00bfbf; stroke-width: 1.5; stroke-linecap: square"/>
   </g>
   <g id="line2d_26">
    <path d="M -0.100882 293.76 
L -0.100882 281.783762 
L 38.345418 281.783762 
L 38.345418 280.985347 
L 66.391532 280.985347 
L 66.391532 280.186931 
L 72.37996 280.186931 
L 72.37996 279.388515 
L 72.617462 279.388515 
L 72.617462 278.590099 
L 75.711261 278.590099 
L 75.711261 277.791683 
L 77.071088 277.791683 
L 77.071088 276.993267 
L 77.986999 276.993267 
L 77.986999 276.194851 
L 80.013673 276.194851 
L 80.013673 275.396436 
L 80.504331 275.396436 
L 80.504331 274.59802 
L 80.882199 274.59802 
L 80.882199 273.799604 
L 89.388443 273.799604 
L 89.388443 273.001188 
L 89.964439 273.001188 
L 89.964439 272.202772 
L 92.688459 272.202772 
L 92.688459 271.404356 
L 93.126306 271.404356 
L 93.14321 269.807525 
L 96.614058 269.807525 
L 96.614058 269.009109 
L 97.663713 269.009109 
L 97.663713 268.210693 
L 114.945631 268.210693 
L 114.945631 267.412277 
L 117.328929 267.412277 
L 117.328929 266.613861 
L 120.816346 266.613861 
L 120.816346 265.815446 
L 124.285385 265.815446 
L 124.285385 265.01703 
L 124.45289 265.01703 
L 124.45289 264.218614 
L 127.016941 264.218614 
L 127.016941 263.420198 
L 129.417449 263.420198 
L 129.417449 262.621782 
L 130.371237 262.621782 
L 130.371237 261.823366 
L 133.172691 261.823366 
L 133.172691 261.02495 
L 134.377394 261.02495 
L 134.377394 260.226535 
L 141.814669 260.226535 
L 141.814669 259.428119 
L 142.455369 259.428119 
L 142.455369 258.629703 
L 145.134337 258.629703 
L 145.134337 257.831287 
L 145.470794 257.831287 
L 145.470794 257.032871 
L 146.559314 257.032871 
L 146.559314 256.234455 
L 147.752745 256.234455 
L 147.752745 255.43604 
L 149.456262 255.43604 
L 149.456262 254.637624 
L 152.729897 254.637624 
L 152.729897 253.839208 
L 154.271585 253.839208 
L 154.271585 253.040792 
L 155.90459 253.040792 
L 155.90459 252.242376 
L 156.811001 252.242376 
L 156.811001 251.44396 
L 157.930806 251.44396 
L 157.930806 250.645545 
L 160.544324 250.645545 
L 160.544324 249.847129 
L 161.593323 249.847129 
L 161.593323 249.048713 
L 162.552439 249.048713 
L 162.552439 248.250297 
L 162.936846 248.250297 
L 162.936846 247.451881 
L 164.997455 247.451881 
L 164.997455 246.653465 
L 166.9121 246.653465 
L 166.9121 245.85505 
L 167.2189 245.85505 
L 167.2189 245.056634 
L 167.537833 245.056634 
L 167.537833 244.258218 
L 167.991525 244.258218 
L 167.991525 243.459802 
L 168.838457 243.459802 
L 168.884029 241.86297 
L 170.866878 241.86297 
L 170.866878 241.064554 
L 171.044878 241.064554 
L 171.13641 239.467723 
L 172.121847 239.467723 
L 172.156688 237.870891 
L 173.731957 237.870891 
L 173.731957 237.072475 
L 174.543029 237.072475 
L 174.543029 236.274059 
L 175.076113 236.274059 
L 175.076113 235.475644 
L 176.101129 235.475644 
L 176.101129 234.677228 
L 176.732253 234.677228 
L 176.732253 233.878812 
L 178.711764 233.878812 
L 178.711764 233.080396 
L 179.07984 233.080396 
L 179.165399 231.483564 
L 179.791188 231.483564 
L 179.861705 229.886733 
L 180.045889 229.886733 
L 180.045889 229.088317 
L 180.321242 229.088317 
L 180.321242 228.289901 
L 181.195122 228.289901 
L 181.250151 226.693069 
L 181.380373 226.693069 
L 181.406074 224.297822 
L 181.969127 224.297822 
L 181.969127 223.499406 
L 182.444548 223.499406 
L 182.470163 221.902574 
L 182.925022 221.902574 
L 182.939372 218.708911 
L 183.230149 218.708911 
L 183.230149 217.910495 
L 183.455341 217.910495 
L 183.455341 217.112079 
L 183.77741 217.112079 
L 183.785854 215.515248 
L 184.34185 215.515248 
L 184.34185 214.716832 
L 184.909139 214.716832 
L 184.909139 213.918416 
L 185.187149 213.918416 
L 185.187149 213.12 
L 185.998817 213.12 
L 185.998817 212.321584 
L 186.124288 212.321584 
L 186.124288 211.523168 
L 186.380733 211.523168 
L 186.380733 210.724752 
L 187.282803 210.724752 
L 187.282803 209.926337 
L 187.549021 209.926337 
L 187.549021 209.127921 
L 187.763702 209.127921 
L 187.763702 207.531089 
L 187.950511 207.531089 
L 187.950511 206.732673 
L 188.344559 206.732673 
L 188.410506 205.135842 
L 188.623301 205.135842 
L 188.6972 203.53901 
L 188.887737 203.53901 
L 188.893936 201.942178 
L 189.539004 201.942178 
L 189.539004 201.143762 
L 189.683136 201.143762 
L 189.782305 199.546931 
L 189.899775 199.546931 
L 189.993477 197.950099 
L 190.026641 197.950099 
L 190.064718 196.353267 
L 190.169695 196.353267 
L 190.169695 195.554851 
L 190.303025 195.554851 
L 190.380524 193.95802 
L 191.087653 193.95802 
L 191.087653 193.159604 
L 191.326771 193.159604 
L 191.326771 192.361188 
L 191.661265 192.361188 
L 191.661265 191.562772 
L 192.001327 191.562772 
L 192.060369 189.167525 
L 192.147117 189.167525 
L 192.239767 187.570693 
L 192.633245 187.570693 
L 192.72299 185.175446 
L 192.811815 185.175446 
L 192.89925 182.780198 
L 193.318335 182.780198 
L 193.419946 181.183366 
L 193.455553 181.183366 
L 193.456649 179.586535 
L 193.606969 179.586535 
L 193.683062 177.191287 
L 193.727868 177.191287 
L 193.805752 175.594455 
L 194.34502 175.594455 
L 194.34502 174.79604 
L 194.609446 174.79604 
L 194.633166 173.199208 
L 194.889011 173.199208 
L 194.889011 172.400792 
L 195.019179 172.400792 
L 195.051552 170.80396 
L 195.268372 170.80396 
L 195.358022 169.207129 
L 195.391691 169.207129 
L 195.405036 167.610297 
L 195.782048 167.610297 
L 195.842593 166.013465 
L 195.983684 166.013465 
L 195.983684 165.21505 
L 196.143654 165.21505 
L 196.239747 163.618218 
L 196.279257 163.618218 
L 196.387617 160.424554 
L 196.888618 160.424554 
L 196.888618 159.626139 
L 197.083108 159.626139 
L 197.088012 158.029307 
L 197.480967 158.029307 
L 197.544281 156.432475 
L 197.647077 156.432475 
L 197.720226 154.835644 
L 197.787678 154.835644 
L 197.787678 154.037228 
L 198.162385 154.037228 
L 198.162385 153.238812 
L 198.316515 153.238812 
L 198.368099 151.64198 
L 198.490104 151.64198 
L 198.582279 149.246733 
L 198.778374 149.246733 
L 198.778374 148.448317 
L 198.947118 148.448317 
L 198.947118 147.649901 
L 199.354768 147.649901 
L 199.42711 145.254653 
L 199.845858 145.254653 
L 199.946976 143.657822 
L 199.983713 143.657822 
L 199.983713 142.859406 
L 200.317984 142.859406 
L 200.423156 138.068911 
L 200.653155 138.068911 
L 200.684848 136.472079 
L 200.879358 136.472079 
L 200.879358 135.673663 
L 201.130376 135.673663 
L 201.130376 134.875248 
L 201.350857 134.875248 
L 201.365808 133.278416 
L 201.660075 133.278416 
L 201.660075 132.48 
L 201.849345 132.48 
L 201.935115 130.883168 
L 202.034497 130.883168 
L 202.034497 130.084752 
L 203.213975 130.084752 
L 203.213975 129.286337 
L 203.513339 129.286337 
L 203.542166 127.689505 
L 203.65089 127.689505 
L 203.65089 126.891089 
L 204.387463 126.891089 
L 204.463667 125.294257 
L 204.560238 125.294257 
L 204.671003 122.89901 
L 204.723714 122.89901 
L 204.793769 121.302178 
L 205.672531 121.302178 
L 205.764898 118.906931 
L 206.301417 118.906931 
L 206.301417 118.108515 
L 206.773273 118.108515 
L 206.814179 116.511683 
L 206.964867 116.511683 
L 206.964867 115.713267 
L 207.139908 115.713267 
L 207.139908 114.914851 
L 207.486865 114.914851 
L 207.502559 113.31802 
L 207.613829 113.31802 
L 207.613829 112.519604 
L 208.19086 112.519604 
L 208.19086 111.721188 
L 208.375291 111.721188 
L 208.375291 110.922772 
L 208.619155 110.922772 
L 208.703361 108.527525 
L 209.378431 108.527525 
L 209.486969 106.930693 
L 209.678552 106.930693 
L 209.745261 104.535446 
L 209.84471 104.535446 
L 209.84471 103.73703 
L 210.087376 103.73703 
L 210.118685 102.140198 
L 210.332388 102.140198 
L 210.381834 100.543366 
L 210.949443 100.543366 
L 211.004455 98.148119 
L 211.088098 98.148119 
L 211.117301 96.551287 
L 211.3893 96.551287 
L 211.3893 95.752871 
L 211.66132 95.752871 
L 211.747105 94.15604 
L 211.808951 94.15604 
L 211.808951 93.357624 
L 212.154585 93.357624 
L 212.261746 90.962376 
L 212.285301 90.962376 
L 212.353715 89.365545 
L 212.453304 89.365545 
L 212.520503 87.768713 
L 212.58944 87.768713 
L 212.614875 86.171881 
L 212.91127 86.171881 
L 212.969064 84.57505 
L 213.283389 84.57505 
L 213.283389 83.776634 
L 213.569961 83.776634 
L 213.569961 82.978218 
L 214.011703 82.978218 
L 214.011703 82.179802 
L 214.501097 82.179802 
L 214.501097 81.381386 
L 214.893953 81.381386 
L 214.893953 80.58297 
L 215.139599 80.58297 
L 215.139599 79.784554 
L 215.712697 79.784554 
L 215.712697 78.986139 
L 215.936006 78.986139 
L 216.035451 77.389307 
L 216.084489 77.389307 
L 216.132048 74.195644 
L 216.305945 74.195644 
L 216.389011 71.800396 
L 216.526996 71.800396 
L 216.63396 68.606733 
L 216.698468 68.606733 
L 216.698468 67.808317 
L 216.972629 67.808317 
L 217.076548 64.614653 
L 217.314715 64.614653 
L 217.314715 63.816238 
L 217.580285 63.816238 
L 217.665393 62.219406 
L 217.694429 62.219406 
L 217.798773 59.824158 
L 217.967108 59.824158 
L 217.967108 59.025743 
L 218.383315 59.025743 
L 218.467156 57.428911 
L 218.612344 57.428911 
L 218.649596 55.832079 
L 219.136875 55.832079 
L 219.136875 55.033663 
L 219.710919 55.033663 
L 219.710919 54.235248 
L 219.824877 54.235248 
L 219.824877 53.436832 
L 220.443894 53.436832 
L 220.443894 52.638416 
L 221.009121 52.638416 
L 221.009121 51.84 
L 221.692345 51.84 
L 221.692345 51.041584 
L 222.475916 51.041584 
L 222.475916 50.243168 
L 222.973255 50.243168 
L 223.082247 48.646337 
L 223.13762 48.646337 
L 223.13762 47.847921 
L 223.935352 47.847921 
L 223.935352 47.049505 
L 224.067169 47.049505 
L 224.120898 45.452673 
L 225.588702 45.452673 
L 225.588702 44.654257 
L 227.962032 44.654257 
L 227.962032 43.855842 
L 229.766703 43.855842 
L 229.766703 43.057426 
L 230.752397 43.057426 
L 230.752397 42.25901 
L 232.97407 42.25901 
L 232.97407 41.460594 
L 233.145875 41.460594 
L 233.145875 40.662178 
L 233.429319 40.662178 
L 233.437857 39.065347 
L 233.819186 39.065347 
L 233.819186 38.266931 
L 234.415295 38.266931 
L 234.415295 37.468515 
L 235.052136 37.468515 
L 235.129084 35.871683 
L 235.491173 35.871683 
L 235.491173 35.073267 
L 236.329627 35.073267 
L 236.329627 34.274851 
L 238.852525 34.274851 
L 238.852525 33.476436 
L 239.644817 33.476436 
L 239.644817 32.67802 
L 240.043611 32.67802 
L 240.043611 31.879604 
L 240.345736 31.879604 
L 240.345736 31.081188 
L 241.079339 31.081188 
L 241.079339 30.282772 
L 242.196431 30.282772 
L 242.196431 29.484356 
L 242.566169 29.484356 
L 242.566169 28.685941 
L 243.886741 28.685941 
L 243.886741 27.887525 
L 244.017685 27.887525 
L 244.017685 27.089109 
L 244.84838 27.089109 
L 244.84838 26.290693 
L 245.116677 26.290693 
L 245.116677 25.492277 
L 245.885752 25.492277 
L 245.885752 24.693861 
L 246.72797 24.693861 
L 246.72797 23.895446 
L 247.049323 23.895446 
L 247.049323 23.09703 
L 248.46734 23.09703 
L 248.46734 22.298614 
L 250.735207 22.298614 
L 250.735207 21.500198 
L 252.05221 21.500198 
L 252.05221 20.701782 
L 252.423214 20.701782 
L 252.423214 19.903366 
L 252.926028 19.903366 
L 252.926028 19.10495 
L 254.423028 19.10495 
L 254.423028 18.306535 
L 254.861132 18.306535 
L 254.861132 17.508119 
L 256.408196 17.508119 
L 256.408196 16.709703 
L 256.652785 16.709703 
L 256.652785 15.911287 
L 257.417278 15.911287 
L 257.417278 15.112871 
L 257.615896 15.112871 
L 257.615896 14.314455 
L 259.367875 14.314455 
L 259.367875 13.51604 
L 259.678215 13.51604 
L 259.678215 12.717624 
L 260.550708 12.717624 
L 260.550708 11.919208 
L 260.912249 11.919208 
L 260.912249 11.120792 
L 263.287643 11.120792 
L 263.287643 10.322376 
L 267.894145 10.322376 
L 267.894145 9.52396 
L 275.010962 9.52396 
L 275.010962 8.725545 
L 278.442312 8.725545 
L 278.442312 7.927129 
L 284.278281 7.927129 
L 284.278281 7.128713 
L 308.792786 7.128713 
L 308.792786 6.330297 
L 308.792786 6.330297 
L 460.8 6.330297 
L 460.8 6.330297 
" clip-path="url(#p1d5045dce7)" style="fill: none; stroke: #bf00bf; stroke-width: 1.5; stroke-linecap: square"/>
   </g>
   <g id="line2d_27">
    <path d="M -1 185.973861 
L -0.578074 185.973861 
L -0.578074 185.175446 
L -0.100882 185.175446 
L -0.100882 142.06099 
L 9.735011 142.06099 
L 9.735011 141.262574 
L 16.985614 141.262574 
L 16.985614 140.464158 
L 25.621957 140.464158 
L 25.621957 139.665743 
L 38.26298 139.665743 
L 38.26298 138.867327 
L 52.804756 138.867327 
L 52.804756 138.068911 
L 53.134357 138.068911 
L 53.134357 137.270495 
L 53.595532 137.270495 
L 53.595532 136.472079 
L 59.295299 136.472079 
L 59.295299 135.673663 
L 59.408894 135.673663 
L 59.408894 134.875248 
L 64.698731 134.875248 
L 64.698731 134.076832 
L 66.789086 134.076832 
L 66.792904 132.48 
L 73.621905 132.48 
L 73.621905 131.681584 
L 73.911899 131.681584 
L 73.911899 130.883168 
L 76.616615 130.883168 
L 76.616615 130.084752 
L 81.388915 130.084752 
L 81.388915 129.286337 
L 87.684117 129.286337 
L 87.684117 128.487921 
L 87.84617 128.487921 
L 87.84617 127.689505 
L 88.340854 127.689505 
L 88.340854 126.891089 
L 88.692438 126.891089 
L 88.692438 126.092673 
L 91.651124 126.092673 
L 91.651124 125.294257 
L 99.544049 125.294257 
L 99.544049 124.495842 
L 104.479917 124.495842 
L 104.479917 123.697426 
L 105.824683 123.697426 
L 105.824683 122.89901 
L 112.419973 122.89901 
L 112.419973 122.100594 
L 116.478969 122.100594 
L 116.478969 121.302178 
L 120.824635 121.302178 
L 120.824635 120.503762 
L 129.624557 120.503762 
L 129.624557 119.705347 
L 139.839422 119.705347 
L 139.839422 118.906931 
L 147.36917 118.906931 
L 147.36917 118.108515 
L 155.8674 118.108515 
L 155.8674 117.310099 
L 159.115818 117.310099 
L 159.115818 116.511683 
L 160.371861 116.511683 
L 160.371861 115.713267 
L 162.927905 115.713267 
L 163.023473 114.116436 
L 164.839516 114.116436 
L 164.839516 113.31802 
L 164.980164 113.31802 
L 164.980164 112.519604 
L 165.206868 112.519604 
L 165.206868 111.721188 
L 165.486355 111.721188 
L 165.486355 110.922772 
L 170.28493 110.922772 
L 170.28493 110.124356 
L 171.026553 110.124356 
L 171.078558 108.527525 
L 171.72869 108.527525 
L 171.72869 107.729109 
L 172.511875 107.729109 
L 172.511875 106.930693 
L 172.931136 106.930693 
L 172.931136 106.132277 
L 173.14126 106.132277 
L 173.14126 105.333861 
L 173.713753 105.333861 
L 173.713753 104.535446 
L 174.331653 104.535446 
L 174.331653 103.73703 
L 174.689865 103.73703 
L 174.689865 102.938614 
L 175.866998 102.938614 
L 175.866998 102.140198 
L 176.163333 102.140198 
L 176.163333 101.341782 
L 178.164125 101.341782 
L 178.164125 100.543366 
L 178.480565 100.543366 
L 178.480565 99.74495 
L 178.676867 99.74495 
L 178.676867 98.946535 
L 179.524385 98.946535 
L 179.524385 98.148119 
L 180.976326 98.148119 
L 180.976326 97.349703 
L 181.346972 97.349703 
L 181.346972 96.551287 
L 182.6008 96.551287 
L 182.615658 94.954455 
L 182.923642 94.954455 
L 182.957973 87.768713 
L 183.86261 87.768713 
L 183.86261 86.970297 
L 184.627679 86.970297 
L 184.627679 86.171881 
L 185.22972 86.171881 
L 185.22972 85.373465 
L 185.473113 85.373465 
L 185.473113 84.57505 
L 185.680331 84.57505 
L 185.680331 83.776634 
L 185.922657 83.776634 
L 185.922753 82.179802 
L 186.607211 82.179802 
L 186.628205 78.187723 
L 186.76123 78.187723 
L 186.840272 76.590891 
L 187.150043 76.590891 
L 187.150043 75.792475 
L 187.306122 75.792475 
L 187.306122 74.994059 
L 187.420838 74.994059 
L 187.420838 74.195644 
L 187.549021 74.195644 
L 187.55471 72.598812 
L 187.674731 72.598812 
L 187.674731 71.00198 
L 187.950511 71.00198 
L 187.950511 70.203564 
L 188.188832 70.203564 
L 188.188832 69.405149 
L 188.841684 69.405149 
L 188.88225 67.009901 
L 189.028667 67.009901 
L 189.028667 66.211485 
L 189.340598 66.211485 
L 189.340598 65.413069 
L 189.782305 65.413069 
L 189.782305 64.614653 
L 189.938695 64.614653 
L 189.938695 63.816238 
L 190.051885 63.816238 
L 190.051885 63.017822 
L 190.223069 63.017822 
L 190.303025 60.622574 
L 190.770948 60.622574 
L 190.770948 59.824158 
L 191.026035 59.824158 
L 191.087653 57.428911 
L 191.229089 57.428911 
L 191.229089 56.630495 
L 192.72299 56.630495 
L 192.72299 55.832079 
L 193.365341 55.832079 
L 193.457764 51.041584 
L 193.634731 51.041584 
L 193.68285 43.057426 
L 193.812277 43.057426 
L 193.812277 42.25901 
L 194.396382 42.25901 
L 194.396382 41.460594 
L 197.745567 41.460594 
L 197.745583 37.468515 
L 199.781795 37.468515 
L 199.781795 36.670099 
L 200.662252 36.670099 
L 200.662252 33.476436 
L 202.924597 33.476436 
L 202.924608 27.887525 
L 205.332485 27.887525 
L 205.332485 27.089109 
L 206.335947 27.089109 
L 206.335947 21.500198 
L 206.947932 21.500198 
L 206.947932 20.701782 
L 207.689765 20.701782 
L 207.689765 19.10495 
L 208.038399 19.10495 
L 208.038399 18.306535 
L 208.275788 18.306535 
L 208.275788 17.508119 
L 208.755819 17.508119 
L 208.755819 16.709703 
L 209.22863 16.709703 
L 209.22863 15.911287 
L 209.485397 15.911287 
L 209.485397 15.112871 
L 209.863139 15.112871 
L 209.952117 13.51604 
L 210.123421 13.51604 
L 210.123421 12.717624 
L 210.592999 12.717624 
L 210.592999 11.919208 
L 211.082515 11.919208 
L 211.115989 10.322376 
L 211.438111 10.322376 
L 211.475319 8.725545 
L 212.57389 8.725545 
L 212.57389 7.927129 
L 212.74473 7.927129 
L 212.74473 7.128713 
L 213.517312 7.128713 
L 213.517312 6.330297 
L 213.517312 6.330297 
L 460.8 6.330297 
L 460.8 6.330297 
" clip-path="url(#p1d5045dce7)" style="fill: none; stroke: #000000; stroke-width: 1.5; stroke-linecap: square"/>
   </g>
   <g id="patch_3">
    <path d="M 0 293.76 
L 0 3.456 
" style="fill: none; stroke: #000000; stroke-width: 0.8; stroke-linejoin: miter; stroke-linecap: square"/>
   </g>
   <g id="patch_4">
    <path d="M 460.8 293.76 
L 460.8 3.456 
" style="fill: none; stroke: #000000; stroke-width: 0.8; stroke-linejoin: miter; stroke-linecap: square"/>
   </g>
   <g id="patch_5">
    <path d="M 0 293.76 
L 460.8 293.76 
" style="fill: none; stroke: #000000; stroke-width: 0.8; stroke-linejoin: miter; stroke-linecap: square"/>
   </g>
   <g id="patch_6">
    <path d="M 0 3.456 
L 460.8 3.456 
" style="fill: none; stroke: #000000; stroke-width: 0.8; stroke-linejoin: miter; stroke-linecap: square"/>
   </g>
   <g id="text_6">
    <!-- {f1-f24}, 5-D -->
    <g transform="translate(318.609 287.95392) scale(0.2 -0.2)">
     <defs>
      <path id="DejaVuSans-7b" d="M 3272 -594 
L 3272 -1044 
L 3078 -1044 
Q 2300 -1044 2036 -812 
Q 1772 -581 1772 109 
L 1772 856 
Q 1772 1328 1603 1509 
Q 1434 1691 991 1691 
L 800 1691 
L 800 2138 
L 991 2138 
Q 1438 2138 1605 2317 
Q 1772 2497 1772 2963 
L 1772 3713 
Q 1772 4403 2036 4633 
Q 2300 4863 3078 4863 
L 3272 4863 
L 3272 4416 
L 3059 4416 
Q 2619 4416 2484 4278 
Q 2350 4141 2350 3700 
L 2350 2925 
Q 2350 2434 2208 2212 
Q 2066 1991 1722 1913 
Q 2069 1828 2209 1606 
Q 2350 1384 2350 897 
L 2350 122 
Q 2350 -319 2484 -456 
Q 2619 -594 3059 -594 
L 3272 -594 
z
" transform="scale(0.015625)"/>
      <path id="DejaVuSans-32" d="M 1228 531 
L 3431 531 
L 3431 0 
L 469 0 
L 469 531 
Q 828 903 1448 1529 
Q 2069 2156 2228 2338 
Q 2531 2678 2651 2914 
Q 2772 3150 2772 3378 
Q 2772 3750 2511 3984 
Q 2250 4219 1831 4219 
Q 1534 4219 1204 4116 
Q 875 4013 500 3803 
L 500 4441 
Q 881 4594 1212 4672 
Q 1544 4750 1819 4750 
Q 2544 4750 2975 4387 
Q 3406 4025 3406 3419 
Q 3406 3131 3298 2873 
Q 3191 2616 2906 2266 
Q 2828 2175 2409 1742 
Q 1991 1309 1228 531 
z
" transform="scale(0.015625)"/>
      <path id="DejaVuSans-7d" d="M 800 -594 
L 1019 -594 
Q 1456 -594 1589 -459 
Q 1722 -325 1722 122 
L 1722 897 
Q 1722 1384 1862 1606 
Q 2003 1828 2350 1913 
Q 2003 1991 1862 2212 
Q 1722 2434 1722 2925 
L 1722 3700 
Q 1722 4144 1589 4280 
Q 1456 4416 1019 4416 
L 800 4416 
L 800 4863 
L 997 4863 
Q 1775 4863 2036 4633 
Q 2297 4403 2297 3713 
L 2297 2963 
Q 2297 2497 2465 2317 
Q 2634 2138 3078 2138 
L 3272 2138 
L 3272 1691 
L 3078 1691 
Q 2634 1691 2465 1509 
Q 2297 1328 2297 856 
L 2297 109 
Q 2297 -581 2036 -812 
Q 1775 -1044 997 -1044 
L 800 -1044 
L 800 -594 
z
" transform="scale(0.015625)"/>
      <path id="DejaVuSans-2c" d="M 750 794 
L 1409 794 
L 1409 256 
L 897 -744 
L 494 -744 
L 750 256 
L 750 794 
z
" transform="scale(0.015625)"/>
      <path id="DejaVuSans-35" d="M 691 4666 
L 3169 4666 
L 3169 4134 
L 1269 4134 
L 1269 2991 
Q 1406 3038 1543 3061 
Q 1681 3084 1819 3084 
Q 2600 3084 3056 2656 
Q 3513 2228 3513 1497 
Q 3513 744 3044 326 
Q 2575 -91 1722 -91 
Q 1428 -91 1123 -41 
Q 819 9 494 109 
L 494 744 
Q 775 591 1075 516 
Q 1375 441 1709 441 
Q 2250 441 2565 725 
Q 2881 1009 2881 1497 
Q 2881 1984 2565 2268 
Q 2250 2553 1709 2553 
Q 1456 2553 1204 2497 
Q 953 2441 691 2322 
L 691 4666 
z
" transform="scale(0.015625)"/>
     </defs>
     <use xlink:href="#DejaVuSans-7b"/>
     <use xlink:href="#DejaVuSans-66" x="63.623047"/>
     <use xlink:href="#DejaVuSans-31" x="98.828125"/>
     <use xlink:href="#DejaVuSans-2d" x="162.451172"/>
     <use xlink:href="#DejaVuSans-66" x="198.535156"/>
     <use xlink:href="#DejaVuSans-32" x="233.740234"/>
     <use xlink:href="#DejaVuSans-34" x="297.363281"/>
     <use xlink:href="#DejaVuSans-7d" x="360.986328"/>
     <use xlink:href="#DejaVuSans-2c" x="424.609375"/>
     <use xlink:href="#DejaVuSans-20" x="456.396484"/>
     <use xlink:href="#DejaVuSans-35" x="488.183594"/>
     <use xlink:href="#DejaVuSans-2d" x="551.806641"/>
     <use xlink:href="#DejaVuSans-44" x="587.890625"/>
    </g>
   </g>
   <g id="text_7">
    <!-- v2.6.3 -->
    <g style="fill: #808080" transform="translate(214.71875 288.777272) scale(0.1 -0.1)">
     <defs>
      <path id="DejaVuSans-76" d="M 191 3500 
L 800 3500 
L 1894 563 
L 2988 3500 
L 3597 3500 
L 2284 0 
L 1503 0 
L 191 3500 
z
" transform="scale(0.015625)"/>
      <path id="DejaVuSans-2e" d="M 684 794 
L 1344 794 
L 1344 0 
L 684 0 
L 684 794 
z
" transform="scale(0.015625)"/>
      <path id="DejaVuSans-36" d="M 2113 2584 
Q 1688 2584 1439 2293 
Q 1191 2003 1191 1497 
Q 1191 994 1439 701 
Q 1688 409 2113 409 
Q 2538 409 2786 701 
Q 3034 994 3034 1497 
Q 3034 2003 2786 2293 
Q 2538 2584 2113 2584 
z
M 3366 4563 
L 3366 3988 
Q 3128 4100 2886 4159 
Q 2644 4219 2406 4219 
Q 1781 4219 1451 3797 
Q 1122 3375 1075 2522 
Q 1259 2794 1537 2939 
Q 1816 3084 2150 3084 
Q 2853 3084 3261 2657 
Q 3669 2231 3669 1497 
Q 3669 778 3244 343 
Q 2819 -91 2113 -91 
Q 1303 -91 875 529 
Q 447 1150 447 2328 
Q 447 3434 972 4092 
Q 1497 4750 2381 4750 
Q 2619 4750 2861 4703 
Q 3103 4656 3366 4563 
z
" transform="scale(0.015625)"/>
      <path id="DejaVuSans-33" d="M 2597 2516 
Q 3050 2419 3304 2112 
Q 3559 1806 3559 1356 
Q 3559 666 3084 287 
Q 2609 -91 1734 -91 
Q 1441 -91 1130 -33 
Q 819 25 488 141 
L 488 750 
Q 750 597 1062 519 
Q 1375 441 1716 441 
Q 2309 441 2620 675 
Q 2931 909 2931 1356 
Q 2931 1769 2642 2001 
Q 2353 2234 1838 2234 
L 1294 2234 
L 1294 2753 
L 1863 2753 
Q 2328 2753 2575 2939 
Q 2822 3125 2822 3475 
Q 2822 3834 2567 4026 
Q 2313 4219 1838 4219 
Q 1578 4219 1281 4162 
Q 984 4106 628 3988 
L 628 4550 
Q 988 4650 1302 4700 
Q 1616 4750 1894 4750 
Q 2613 4750 3031 4423 
Q 3450 4097 3450 3541 
Q 3450 3153 3228 2886 
Q 3006 2619 2597 2516 
z
" transform="scale(0.015625)"/>
     </defs>
     <use xlink:href="#DejaVuSans-76"/>
     <use xlink:href="#DejaVuSans-32" x="59.179688"/>
     <use xlink:href="#DejaVuSans-2e" x="122.802734"/>
     <use xlink:href="#DejaVuSans-36" x="154.589844"/>
     <use xlink:href="#DejaVuSans-2e" x="218.212891"/>
     <use xlink:href="#DejaVuSans-33" x="250"/>
    </g>
   </g>
  </g>
 </g>
 <defs>
  <clipPath id="p1d5045dce7">
   <rect x="0" y="3.456" width="460.8" height="290.304"/>
  </clipPath>
 </defs>
</svg>
