<?xml version="1.0" encoding="utf-8" standalone="no"?>
<!DOCTYPE svg PUBLIC "-//W3C//DTD SVG 1.1//EN"
  "http://www.w3.org/Graphics/SVG/1.1/DTD/svg11.dtd">
<svg xmlns:xlink="http://www.w3.org/1999/xlink" width="460.8pt" height="345.6pt" viewBox="0 0 460.8 345.6" xmlns="http://www.w3.org/2000/svg" version="1.1">
 <metadata>
  <rdf:RDF xmlns:dc="http://purl.org/dc/elements/1.1/" xmlns:cc="http://creativecommons.org/ns#" xmlns:rdf="http://www.w3.org/1999/02/22-rdf-syntax-ns#">
   <cc:Work>
    <dc:type rdf:resource="http://purl.org/dc/dcmitype/StillImage"/>
    <dc:date>2024-06-21T19:46:29.456183</dc:date>
    <dc:format>image/svg+xml</dc:format>
    <dc:creator>
     <cc:Agent>
      <dc:title>Matplotlib v3.7.5, https://matplotlib.org/</dc:title>
     </cc:Agent>
    </dc:creator>
   </cc:Work>
  </rdf:RDF>
 </metadata>
 <defs>
  <style type="text/css">*{stroke-linejoin: round; stroke-linecap: butt}</style>
 </defs>
 <g id="figure_1">
  <g id="patch_1">
   <path d="M 0 345.6 
L 460.8 345.6 
L 460.8 0 
L 0 0 
z
" style="fill: #ffffff"/>
  </g>
  <g id="axes_1">
   <g id="patch_2">
    <path d="M 0 293.76 
L 460.8 293.76 
L 460.8 3.456 
L 0 3.456 
z
" style="fill: #ffffff"/>
   </g>
   <g id="matplotlib.axis_1">
    <g id="xtick_1">
     <g id="line2d_1">
      <path d="M 93.065885 293.76 
L 93.065885 3.456 
" clip-path="url(#pbdf39742c8)" style="fill: none; stroke: #b0b0b0; stroke-width: 0.8; stroke-linecap: square"/>
     </g>
     <g id="line2d_2">
      <defs>
       <path id="m9c56b4b8b9" d="M 0 0 
L 0 3.5 
" style="stroke: #000000; stroke-width: 0.8"/>
      </defs>
      <g>
       <use xlink:href="#m9c56b4b8b9" x="93.065885" y="293.76" style="stroke: #000000; stroke-width: 0.8"/>
      </g>
     </g>
     <g id="text_1">
      <!-- -4 -->
      <g transform="translate(83.095573 315.956875) scale(0.2 -0.2)">
       <defs>
        <path id="DejaVuSans-2d" d="M 313 2009 
L 1997 2009 
L 1997 1497 
L 313 1497 
L 313 2009 
z
" transform="scale(0.015625)"/>
        <path id="DejaVuSans-34" d="M 2419 4116 
L 825 1625 
L 2419 1625 
L 2419 4116 
z
M 2253 4666 
L 3047 4666 
L 3047 1625 
L 3713 1625 
L 3713 1100 
L 3047 1100 
L 3047 0 
L 2419 0 
L 2419 1100 
L 313 1100 
L 313 1709 
L 2253 4666 
z
" transform="scale(0.015625)"/>
       </defs>
       <use xlink:href="#DejaVuSans-2d"/>
       <use xlink:href="#DejaVuSans-34" x="36.083984"/>
      </g>
     </g>
    </g>
    <g id="xtick_2">
     <g id="line2d_3">
      <path d="M 186.232423 293.76 
L 186.232423 3.456 
" clip-path="url(#pbdf39742c8)" style="fill: none; stroke: #b0b0b0; stroke-width: 0.8; stroke-linecap: square"/>
     </g>
     <g id="line2d_4">
      <g>
       <use xlink:href="#m9c56b4b8b9" x="186.232423" y="293.76" style="stroke: #000000; stroke-width: 0.8"/>
      </g>
     </g>
     <g id="text_2">
      <!-- 0 -->
      <g transform="translate(179.869923 315.956875) scale(0.2 -0.2)">
       <defs>
        <path id="DejaVuSans-30" d="M 2034 4250 
Q 1547 4250 1301 3770 
Q 1056 3291 1056 2328 
Q 1056 1369 1301 889 
Q 1547 409 2034 409 
Q 2525 409 2770 889 
Q 3016 1369 3016 2328 
Q 3016 3291 2770 3770 
Q 2525 4250 2034 4250 
z
M 2034 4750 
Q 2819 4750 3233 4129 
Q 3647 3509 3647 2328 
Q 3647 1150 3233 529 
Q 2819 -91 2034 -91 
Q 1250 -91 836 529 
Q 422 1150 422 2328 
Q 422 3509 836 4129 
Q 1250 4750 2034 4750 
z
" transform="scale(0.015625)"/>
       </defs>
       <use xlink:href="#DejaVuSans-30"/>
      </g>
     </g>
    </g>
    <g id="xtick_3">
     <g id="line2d_5">
      <path d="M 279.39896 293.76 
L 279.39896 3.456 
" clip-path="url(#pbdf39742c8)" style="fill: none; stroke: #b0b0b0; stroke-width: 0.8; stroke-linecap: square"/>
     </g>
     <g id="line2d_6">
      <g>
       <use xlink:href="#m9c56b4b8b9" x="279.39896" y="293.76" style="stroke: #000000; stroke-width: 0.8"/>
      </g>
     </g>
     <g id="text_3">
      <!-- 4 -->
      <g transform="translate(273.03646 315.956875) scale(0.2 -0.2)">
       <use xlink:href="#DejaVuSans-34"/>
      </g>
     </g>
    </g>
    <g id="xtick_4">
     <g id="line2d_7">
      <path d="M 372.565497 293.76 
L 372.565497 3.456 
" clip-path="url(#pbdf39742c8)" style="fill: none; stroke: #b0b0b0; stroke-width: 0.8; stroke-linecap: square"/>
     </g>
     <g id="line2d_8">
      <g>
       <use xlink:href="#m9c56b4b8b9" x="372.565497" y="293.76" style="stroke: #000000; stroke-width: 0.8"/>
      </g>
     </g>
     <g id="text_4">
      <!-- 8 -->
      <g transform="translate(366.202997 315.956875) scale(0.2 -0.2)">
       <defs>
        <path id="DejaVuSans-38" d="M 2034 2216 
Q 1584 2216 1326 1975 
Q 1069 1734 1069 1313 
Q 1069 891 1326 650 
Q 1584 409 2034 409 
Q 2484 409 2743 651 
Q 3003 894 3003 1313 
Q 3003 1734 2745 1975 
Q 2488 2216 2034 2216 
z
M 1403 2484 
Q 997 2584 770 2862 
Q 544 3141 544 3541 
Q 544 4100 942 4425 
Q 1341 4750 2034 4750 
Q 2731 4750 3128 4425 
Q 3525 4100 3525 3541 
Q 3525 3141 3298 2862 
Q 3072 2584 2669 2484 
Q 3125 2378 3379 2068 
Q 3634 1759 3634 1313 
Q 3634 634 3220 271 
Q 2806 -91 2034 -91 
Q 1263 -91 848 271 
Q 434 634 434 1313 
Q 434 1759 690 2068 
Q 947 2378 1403 2484 
z
M 1172 3481 
Q 1172 3119 1398 2916 
Q 1625 2713 2034 2713 
Q 2441 2713 2670 2916 
Q 2900 3119 2900 3481 
Q 2900 3844 2670 4047 
Q 2441 4250 2034 4250 
Q 1625 4250 1398 4047 
Q 1172 3844 1172 3481 
z
" transform="scale(0.015625)"/>
       </defs>
       <use xlink:href="#DejaVuSans-38"/>
      </g>
     </g>
    </g>
    <g id="text_5">
     <!-- log10 of Df -->
     <g transform="translate(175.214063 339.313125) scale(0.2 -0.2)">
      <defs>
       <path id="DejaVuSans-6c" d="M 603 4863 
L 1178 4863 
L 1178 0 
L 603 0 
L 603 4863 
z
" transform="scale(0.015625)"/>
       <path id="DejaVuSans-6f" d="M 1959 3097 
Q 1497 3097 1228 2736 
Q 959 2375 959 1747 
Q 959 1119 1226 758 
Q 1494 397 1959 397 
Q 2419 397 2687 759 
Q 2956 1122 2956 1747 
Q 2956 2369 2687 2733 
Q 2419 3097 1959 3097 
z
M 1959 3584 
Q 2709 3584 3137 3096 
Q 3566 2609 3566 1747 
Q 3566 888 3137 398 
Q 2709 -91 1959 -91 
Q 1206 -91 779 398 
Q 353 888 353 1747 
Q 353 2609 779 3096 
Q 1206 3584 1959 3584 
z
" transform="scale(0.015625)"/>
       <path id="DejaVuSans-67" d="M 2906 1791 
Q 2906 2416 2648 2759 
Q 2391 3103 1925 3103 
Q 1463 3103 1205 2759 
Q 947 2416 947 1791 
Q 947 1169 1205 825 
Q 1463 481 1925 481 
Q 2391 481 2648 825 
Q 2906 1169 2906 1791 
z
M 3481 434 
Q 3481 -459 3084 -895 
Q 2688 -1331 1869 -1331 
Q 1566 -1331 1297 -1286 
Q 1028 -1241 775 -1147 
L 775 -588 
Q 1028 -725 1275 -790 
Q 1522 -856 1778 -856 
Q 2344 -856 2625 -561 
Q 2906 -266 2906 331 
L 2906 616 
Q 2728 306 2450 153 
Q 2172 0 1784 0 
Q 1141 0 747 490 
Q 353 981 353 1791 
Q 353 2603 747 3093 
Q 1141 3584 1784 3584 
Q 2172 3584 2450 3431 
Q 2728 3278 2906 2969 
L 2906 3500 
L 3481 3500 
L 3481 434 
z
" transform="scale(0.015625)"/>
       <path id="DejaVuSans-31" d="M 794 531 
L 1825 531 
L 1825 4091 
L 703 3866 
L 703 4441 
L 1819 4666 
L 2450 4666 
L 2450 531 
L 3481 531 
L 3481 0 
L 794 0 
L 794 531 
z
" transform="scale(0.015625)"/>
       <path id="DejaVuSans-20" transform="scale(0.015625)"/>
       <path id="DejaVuSans-66" d="M 2375 4863 
L 2375 4384 
L 1825 4384 
Q 1516 4384 1395 4259 
Q 1275 4134 1275 3809 
L 1275 3500 
L 2222 3500 
L 2222 3053 
L 1275 3053 
L 1275 0 
L 697 0 
L 697 3053 
L 147 3053 
L 147 3500 
L 697 3500 
L 697 3744 
Q 697 4328 969 4595 
Q 1241 4863 1831 4863 
L 2375 4863 
z
" transform="scale(0.015625)"/>
       <path id="DejaVuSans-44" d="M 1259 4147 
L 1259 519 
L 2022 519 
Q 2988 519 3436 956 
Q 3884 1394 3884 2338 
Q 3884 3275 3436 3711 
Q 2988 4147 2022 4147 
L 1259 4147 
z
M 628 4666 
L 1925 4666 
Q 3281 4666 3915 4102 
Q 4550 3538 4550 2338 
Q 4550 1131 3912 565 
Q 3275 0 1925 0 
L 628 0 
L 628 4666 
z
" transform="scale(0.015625)"/>
      </defs>
      <use xlink:href="#DejaVuSans-6c"/>
      <use xlink:href="#DejaVuSans-6f" x="27.783203"/>
      <use xlink:href="#DejaVuSans-67" x="88.964844"/>
      <use xlink:href="#DejaVuSans-31" x="152.441406"/>
      <use xlink:href="#DejaVuSans-30" x="216.064453"/>
      <use xlink:href="#DejaVuSans-20" x="279.6875"/>
      <use xlink:href="#DejaVuSans-6f" x="311.474609"/>
      <use xlink:href="#DejaVuSans-66" x="372.65625"/>
      <use xlink:href="#DejaVuSans-20" x="407.861328"/>
      <use xlink:href="#DejaVuSans-44" x="439.648438"/>
      <use xlink:href="#DejaVuSans-66" x="516.650391"/>
     </g>
    </g>
   </g>
   <g id="matplotlib.axis_2">
    <g id="ytick_1">
     <g id="line2d_9">
      <path d="M 0 293.76 
L 460.8 293.76 
" clip-path="url(#pbdf39742c8)" style="fill: none; stroke: #b0b0b0; stroke-width: 0.8; stroke-linecap: square"/>
     </g>
     <g id="line2d_10">
      <defs>
       <path id="m6c3e3830af" d="M 0 0 
L -3.5 0 
" style="stroke: #000000; stroke-width: 0.8"/>
      </defs>
      <g>
       <use xlink:href="#m6c3e3830af" x="0" y="293.76" style="stroke: #000000; stroke-width: 0.8"/>
      </g>
     </g>
    </g>
    <g id="ytick_2">
     <g id="line2d_11">
      <path d="M 0 236.274059 
L 460.8 236.274059 
" clip-path="url(#pbdf39742c8)" style="fill: none; stroke: #b0b0b0; stroke-width: 0.8; stroke-linecap: square"/>
     </g>
     <g id="line2d_12">
      <g>
       <use xlink:href="#m6c3e3830af" x="0" y="236.274059" style="stroke: #000000; stroke-width: 0.8"/>
      </g>
     </g>
    </g>
    <g id="ytick_3">
     <g id="line2d_13">
      <path d="M 0 178.788119 
L 460.8 178.788119 
" clip-path="url(#pbdf39742c8)" style="fill: none; stroke: #b0b0b0; stroke-width: 0.8; stroke-linecap: square"/>
     </g>
     <g id="line2d_14">
      <g>
       <use xlink:href="#m6c3e3830af" x="0" y="178.788119" style="stroke: #000000; stroke-width: 0.8"/>
      </g>
     </g>
    </g>
    <g id="ytick_4">
     <g id="line2d_15">
      <path d="M 0 121.302178 
L 460.8 121.302178 
" clip-path="url(#pbdf39742c8)" style="fill: none; stroke: #b0b0b0; stroke-width: 0.8; stroke-linecap: square"/>
     </g>
     <g id="line2d_16">
      <g>
       <use xlink:href="#m6c3e3830af" x="0" y="121.302178" style="stroke: #000000; stroke-width: 0.8"/>
      </g>
     </g>
    </g>
    <g id="ytick_5">
     <g id="line2d_17">
      <path d="M 0 63.816238 
L 460.8 63.816238 
" clip-path="url(#pbdf39742c8)" style="fill: none; stroke: #b0b0b0; stroke-width: 0.8; stroke-linecap: square"/>
     </g>
     <g id="line2d_18">
      <g>
       <use xlink:href="#m6c3e3830af" x="0" y="63.816238" style="stroke: #000000; stroke-width: 0.8"/>
      </g>
     </g>
    </g>
    <g id="ytick_6">
     <g id="line2d_19">
      <path d="M 0 6.330297 
L 460.8 6.330297 
" clip-path="url(#pbdf39742c8)" style="fill: none; stroke: #b0b0b0; stroke-width: 0.8; stroke-linecap: square"/>
     </g>
     <g id="line2d_20">
      <g>
       <use xlink:href="#m6c3e3830af" x="0" y="6.330297" style="stroke: #000000; stroke-width: 0.8"/>
      </g>
     </g>
    </g>
   </g>
   <g id="line2d_21">
    <path d="M -0.100652 293.76 
L -0.100652 121.302178 
L 193.192783 121.302178 
L 193.192783 117.469782 
L 197.294236 117.469782 
L 197.294236 113.637386 
L 202.461446 113.637386 
L 202.461456 98.307802 
L 204.305708 98.307802 
L 204.305708 90.64301 
L 205.865009 90.64301 
L 205.865009 79.145822 
L 207.215731 79.145822 
L 207.215738 71.48103 
L 208.407158 71.48103 
L 208.407158 56.151446 
L 210.437012 56.151446 
L 210.437012 52.31905 
L 212.126852 52.31905 
L 212.126852 48.486653 
L 212.876472 48.486653 
L 212.876472 44.654257 
L 213.574366 44.654257 
L 213.574366 40.821861 
L 215.418628 40.821861 
L 215.418628 36.989465 
L 216.484386 36.989465 
L 216.484386 33.157069 
L 216.977899 33.157069 
L 216.977899 29.324673 
L 217.89814 29.324673 
L 217.89814 17.827485 
L 218.32865 17.827485 
L 218.32865 13.995089 
L 219.138245 13.995089 
L 219.138245 10.162693 
L 220.242894 10.162693 
L 220.242894 6.330297 
L 220.242894 6.330297 
L 460.8 6.330297 
L 460.8 6.330297 
" clip-path="url(#pbdf39742c8)" style="fill: none; stroke: #ff0000; stroke-width: 3; stroke-linecap: square"/>
   </g>
   <g id="line2d_22">
    <path d="M 215.500929 293.76 
L 215.500929 289.927604 
L 217.137705 289.927604 
L 217.137705 286.095208 
L 219.874274 286.095208 
L 219.874274 282.262812 
L 221.701583 282.262812 
L 221.701583 278.430416 
L 223.9863 278.430416 
L 223.9863 274.59802 
L 224.470734 274.59802 
L 224.470734 270.765624 
L 224.942187 270.765624 
L 224.942187 263.100832 
L 225.467001 263.100832 
L 225.467001 259.268436 
L 226.160753 259.268436 
L 226.160753 251.603644 
L 226.681009 251.603644 
L 226.681009 247.771248 
L 226.968426 247.771248 
L 226.968426 243.938851 
L 227.103963 243.938851 
L 227.199812 236.274059 
L 227.759935 236.274059 
L 227.759935 232.441663 
L 228.242535 232.441663 
L 228.242535 228.609267 
L 229.241706 228.609267 
L 229.241706 224.776871 
L 229.984891 224.776871 
L 229.984891 220.944475 
L 230.266218 220.944475 
L 230.266218 213.279683 
L 230.846961 213.279683 
L 230.846961 209.447287 
L 231.282866 209.447287 
L 231.282866 205.614891 
L 231.860168 205.614891 
L 231.860168 201.782495 
L 232.208571 201.782495 
L 232.208571 197.950099 
L 233.259661 197.950099 
L 233.368519 190.285307 
L 234.013972 190.285307 
L 234.013972 186.452911 
L 235.144925 186.452911 
L 235.144925 182.620515 
L 235.733423 182.620515 
L 235.733423 174.955723 
L 236.184385 174.955723 
L 236.184385 171.123327 
L 236.624468 171.123327 
L 236.624468 167.290931 
L 237.64774 167.290931 
L 237.64774 163.458535 
L 238.829343 163.458535 
L 238.829343 159.626139 
L 239.530529 159.626139 
L 239.625791 151.961347 
L 240.471413 151.961347 
L 240.471413 148.12895 
L 242.085605 148.12895 
L 242.085605 144.296554 
L 242.981359 144.296554 
L 242.981359 140.464158 
L 243.145362 140.464158 
L 243.199344 132.799366 
L 243.453035 132.799366 
L 243.556537 125.134574 
L 243.913566 125.134574 
L 243.913566 121.302178 
L 244.275341 121.302178 
L 244.275341 117.469782 
L 245.109005 117.469782 
L 245.109005 113.637386 
L 245.360997 113.637386 
L 245.428742 102.140198 
L 245.65103 102.140198 
L 245.65103 98.307802 
L 246.134475 98.307802 
L 246.161727 90.64301 
L 246.246559 90.64301 
L 246.246559 86.810614 
L 246.494428 86.810614 
L 246.521068 79.145822 
L 246.878845 79.145822 
L 246.878845 75.313426 
L 247.615861 75.313426 
L 247.615861 71.48103 
L 248.327399 71.48103 
L 248.327399 67.648634 
L 248.745254 67.648634 
L 248.745254 63.816238 
L 308.89128 63.816238 
L 308.89128 59.983842 
L 313.255836 59.983842 
L 313.255836 56.151446 
L 315.17937 56.151446 
L 315.17937 52.31905 
L 317.851181 52.31905 
L 317.851181 48.486653 
L 326.03162 48.486653 
L 326.03162 44.654257 
L 329.267657 44.654257 
L 329.267657 40.821861 
L 331.31813 40.821861 
L 331.31813 36.989465 
L 331.723385 36.989465 
L 331.723385 33.157069 
L 332.500985 33.157069 
L 332.500985 29.324673 
L 334.115043 29.324673 
L 334.115043 25.492277 
L 334.505944 25.492277 
L 334.505944 21.659881 
L 334.94271 21.659881 
L 334.94271 17.827485 
L 335.615809 17.827485 
L 335.615809 13.995089 
L 335.939094 13.995089 
L 335.939094 10.162693 
L 341.071504 10.162693 
L 341.071504 6.330297 
L 341.071504 6.330297 
L 460.8 6.330297 
L 460.8 6.330297 
" clip-path="url(#pbdf39742c8)" style="fill: none; stroke: #00bfbf; stroke-width: 1.5; stroke-linecap: square"/>
   </g>
   <g id="line2d_23">
    <path d="M 215.500929 293.76 
L 215.500929 289.927604 
L 216.63727 289.927604 
L 216.63727 286.095208 
L 217.137705 286.095208 
L 217.137705 282.262812 
L 217.788534 282.262812 
L 217.788534 278.430416 
L 219.874274 278.430416 
L 219.874274 274.59802 
L 221.701583 274.59802 
L 221.701583 270.765624 
L 222.83888 270.765624 
L 222.83888 266.933228 
L 223.08818 266.933228 
L 223.08818 263.100832 
L 223.36335 263.100832 
L 223.36335 259.268436 
L 223.9863 259.268436 
L 223.9863 255.43604 
L 224.942187 255.43604 
L 224.942187 247.771248 
L 225.467001 247.771248 
L 225.467001 243.938851 
L 226.129658 243.938851 
L 226.218113 228.609267 
L 226.386988 228.609267 
L 226.386988 224.776871 
L 226.54009 224.776871 
L 226.54009 220.944475 
L 226.968426 220.944475 
L 226.968426 217.112079 
L 227.103963 217.112079 
L 227.103963 213.279683 
L 227.367775 213.279683 
L 227.367775 209.447287 
L 227.484585 209.447287 
L 227.484585 205.614891 
L 228.697197 205.614891 
L 228.7845 194.117703 
L 228.863102 194.117703 
L 228.863102 190.285307 
L 229.241706 190.285307 
L 229.241706 186.452911 
L 230.266218 186.452911 
L 230.266218 178.788119 
L 234.013972 178.788119 
L 234.013972 174.955723 
L 234.508083 174.955723 
L 234.508083 171.123327 
L 234.715193 171.123327 
L 234.715193 167.290931 
L 235.015755 167.290931 
L 235.015755 163.458535 
L 236.184385 163.458535 
L 236.184385 159.626139 
L 236.624468 159.626139 
L 236.624468 155.793743 
L 237.193134 155.793743 
L 237.193134 151.961347 
L 237.64774 151.961347 
L 237.64774 148.12895 
L 238.283982 148.12895 
L 238.283982 144.296554 
L 238.553804 144.296554 
L 238.553804 140.464158 
L 238.829343 140.464158 
L 238.829343 136.631762 
L 239.530529 136.631762 
L 239.625791 128.96697 
L 240.471413 128.96697 
L 240.471413 125.134574 
L 240.958409 125.134574 
L 240.958409 121.302178 
L 242.002574 121.302178 
L 242.085605 113.637386 
L 242.784851 113.637386 
L 242.784851 109.80499 
L 242.981359 109.80499 
L 242.981359 105.972594 
L 243.453035 105.972594 
L 243.558352 94.475406 
L 243.566289 94.475406 
L 243.566289 90.64301 
L 244.587974 90.64301 
L 244.587974 86.810614 
L 244.838852 86.810614 
L 244.838852 82.978218 
L 245.073513 82.978218 
L 245.073513 79.145822 
L 245.360997 79.145822 
L 245.360997 75.313426 
L 245.65103 75.313426 
L 245.65103 71.48103 
L 245.79894 71.48103 
L 245.79894 67.648634 
L 246.113389 67.648634 
L 246.113389 63.816238 
L 288.784394 63.816238 
L 288.784394 59.983842 
L 306.487 59.983842 
L 306.487 56.151446 
L 308.89128 56.151446 
L 308.89128 52.31905 
L 313.255836 52.31905 
L 313.332567 44.654257 
L 315.17937 44.654257 
L 315.17937 40.821861 
L 317.851181 40.821861 
L 317.851181 36.989465 
L 322.987785 36.989465 
L 322.987785 33.157069 
L 324.498373 33.157069 
L 324.498373 29.324673 
L 325.116578 29.324673 
L 325.116578 25.492277 
L 326.03162 25.492277 
L 326.03162 21.659881 
L 329.040487 21.659881 
L 329.040487 17.827485 
L 329.267657 17.827485 
L 329.267657 13.995089 
L 331.31813 13.995089 
L 331.31813 10.162693 
L 331.723385 10.162693 
L 331.723385 6.330297 
L 331.723385 6.330297 
L 460.8 6.330297 
L 460.8 6.330297 
" clip-path="url(#pbdf39742c8)" style="fill: none; stroke: #bf00bf; stroke-width: 1.5; stroke-linecap: square"/>
   </g>
   <g id="line2d_24">
    <path d="M 200.884454 293.76 
L 200.884454 289.927604 
L 206.68294 289.927604 
L 206.68294 286.095208 
L 208.941467 286.095208 
L 208.941467 282.262812 
L 209.077092 282.262812 
L 209.077092 278.430416 
L 211.809571 278.430416 
L 211.809571 274.59802 
L 212.643017 274.59802 
L 212.643017 270.765624 
L 214.094722 270.765624 
L 214.094722 266.933228 
L 214.355136 266.933228 
L 214.355136 263.100832 
L 215.327745 263.100832 
L 215.327745 259.268436 
L 215.500929 259.268436 
L 215.500929 255.43604 
L 217.515923 255.43604 
L 217.515923 247.771248 
L 217.879817 247.771248 
L 217.879817 243.938851 
L 218.842121 243.938851 
L 218.842121 240.106455 
L 219.715588 240.106455 
L 219.749333 232.441663 
L 220.797083 232.441663 
L 220.797083 224.776871 
L 221.443118 224.776871 
L 221.553637 217.112079 
L 221.697989 217.112079 
L 221.697989 213.279683 
L 223.14433 213.279683 
L 223.14433 205.614891 
L 223.506592 205.614891 
L 223.579954 197.950099 
L 226.129658 197.950099 
L 226.129658 194.117703 
L 226.291999 194.117703 
L 226.291999 190.285307 
L 226.414446 190.285307 
L 226.414446 186.452911 
L 227.915271 186.452911 
L 227.915271 178.788119 
L 230.984074 178.788119 
L 230.984074 174.955723 
L 231.098959 174.955723 
L 231.098959 171.123327 
L 232.185666 171.123327 
L 232.185666 167.290931 
L 232.74652 167.290931 
L 232.74652 163.458535 
L 233.582462 163.458535 
L 233.582462 159.626139 
L 234.25645 159.626139 
L 234.25645 155.793743 
L 234.508083 155.793743 
L 234.508083 151.961347 
L 234.642835 151.961347 
L 234.715193 144.296554 
L 234.943629 144.296554 
L 234.943629 140.464158 
L 235.230463 140.464158 
L 235.230463 136.631762 
L 235.453966 136.631762 
L 235.470752 128.96697 
L 235.823363 128.96697 
L 235.823363 125.134574 
L 236.184385 125.134574 
L 236.184385 121.302178 
L 236.624468 121.302178 
L 236.624468 117.469782 
L 236.829684 117.469782 
L 236.840283 109.80499 
L 237.27711 109.80499 
L 237.27711 105.972594 
L 238.283982 105.972594 
L 238.283982 102.140198 
L 238.560631 102.140198 
L 238.560631 98.307802 
L 238.751014 98.307802 
L 238.751014 94.475406 
L 239.530529 94.475406 
L 239.625791 86.810614 
L 240.471413 86.810614 
L 240.471413 82.978218 
L 241.543812 82.978218 
L 241.543812 79.145822 
L 241.700417 79.145822 
L 241.700417 75.313426 
L 242.002574 75.313426 
L 242.002574 71.48103 
L 242.777565 71.48103 
L 242.777565 67.648634 
L 242.981359 67.648634 
L 242.981359 63.816238 
L 288.784394 63.816238 
L 288.784394 59.983842 
L 306.487 59.983842 
L 306.487 56.151446 
L 307.160671 56.151446 
L 307.160671 52.31905 
L 307.595506 52.31905 
L 307.595506 48.486653 
L 308.89128 48.486653 
L 308.89128 44.654257 
L 311.188721 44.654257 
L 311.188721 40.821861 
L 313.332567 40.821861 
L 313.332567 36.989465 
L 315.17937 36.989465 
L 315.17937 33.157069 
L 317.851181 33.157069 
L 317.851181 29.324673 
L 318.278706 29.324673 
L 318.278706 25.492277 
L 320.920322 25.492277 
L 320.920322 21.659881 
L 324.498373 21.659881 
L 324.498373 17.827485 
L 325.11098 17.827485 
L 325.116578 10.162693 
L 326.03162 10.162693 
L 326.03162 6.330297 
L 326.03162 6.330297 
L 460.8 6.330297 
L 460.8 6.330297 
" clip-path="url(#pbdf39742c8)" style="fill: none; stroke: #000000; stroke-width: 1.5; stroke-linecap: square"/>
   </g>
   <g id="line2d_25">
    <path d="M -0.100652 293.76 
L -0.100652 278.430416 
L 192.9375 278.430416 
L 192.9375 274.59802 
L 195.220802 274.59802 
L 195.220802 266.933228 
L 196.64544 266.933228 
L 196.64544 263.100832 
L 197.398635 263.100832 
L 197.398635 259.268436 
L 198.768117 259.268436 
L 198.768117 251.603644 
L 199.203173 251.603644 
L 199.203173 247.771248 
L 199.49449 247.771248 
L 199.49449 243.938851 
L 199.649288 243.938851 
L 199.649288 240.106455 
L 200.884454 240.106455 
L 200.884454 236.274059 
L 201.348201 236.274059 
L 201.348201 228.609267 
L 202.688061 228.609267 
L 202.688061 220.944475 
L 203.577442 220.944475 
L 203.577442 217.112079 
L 204.208991 217.112079 
L 204.208991 213.279683 
L 204.619797 213.279683 
L 204.619797 209.447287 
L 204.889119 209.447287 
L 204.889119 205.614891 
L 206.284846 205.614891 
L 206.284846 201.782495 
L 206.84772 201.782495 
L 206.84772 197.950099 
L 207.840199 197.950099 
L 207.840199 194.117703 
L 208.074604 194.117703 
L 208.074604 190.285307 
L 208.500658 190.285307 
L 208.500658 186.452911 
L 209.005183 186.452911 
L 209.005183 182.620515 
L 214.094722 182.620515 
L 214.094722 178.788119 
L 219.27718 178.788119 
L 219.27718 174.955723 
L 223.651811 174.955723 
L 223.651811 171.123327 
L 223.946947 171.123327 
L 223.946947 167.290931 
L 226.683635 167.290931 
L 226.683635 163.458535 
L 226.830133 163.458535 
L 226.830133 159.626139 
L 227.453 159.626139 
L 227.453 155.793743 
L 227.716239 155.793743 
L 227.754887 148.12895 
L 228.545064 148.12895 
L 228.615557 140.464158 
L 229.21342 140.464158 
L 229.21342 136.631762 
L 229.372445 136.631762 
L 229.466387 128.96697 
L 229.549066 128.96697 
L 229.549066 125.134574 
L 229.992803 125.134574 
L 229.992803 121.302178 
L 230.820731 121.302178 
L 230.820731 117.469782 
L 230.984074 117.469782 
L 230.984074 113.637386 
L 231.46051 113.637386 
L 231.46051 109.80499 
L 231.866577 109.80499 
L 231.866577 105.972594 
L 232.030166 105.972594 
L 232.030166 102.140198 
L 232.175535 102.140198 
L 232.185666 94.475406 
L 232.439708 94.475406 
L 232.511826 86.810614 
L 232.741302 86.810614 
L 232.741302 82.978218 
L 232.9338 82.978218 
L 233.042904 75.313426 
L 233.8826 75.313426 
L 233.8826 71.48103 
L 234.655185 71.48103 
L 234.655185 67.648634 
L 235.193891 67.648634 
L 235.193891 63.816238 
L 281.469479 63.816238 
L 281.469479 59.983842 
L 283.629449 59.983842 
L 283.629449 56.151446 
L 286.830616 56.151446 
L 286.830616 52.31905 
L 288.784394 52.31905 
L 288.784394 48.486653 
L 291.08066 48.486653 
L 291.08066 44.654257 
L 292.615447 44.654257 
L 292.615447 40.821861 
L 293.138044 40.821861 
L 293.138044 36.989465 
L 294.158189 36.989465 
L 294.158189 33.157069 
L 295.493546 33.157069 
L 295.493546 29.324673 
L 295.856673 29.324673 
L 295.856673 25.492277 
L 297.852082 25.492277 
L 297.852082 21.659881 
L 300.604251 21.659881 
L 300.604251 17.827485 
L 304.449907 17.827485 
L 304.449907 13.995089 
L 304.937525 13.995089 
L 304.937525 10.162693 
L 305.401346 10.162693 
L 305.401346 6.330297 
L 305.401346 6.330297 
L 460.8 6.330297 
L 460.8 6.330297 
" clip-path="url(#pbdf39742c8)" style="fill: none; stroke: #00bfbf; stroke-width: 1.5; stroke-linecap: square"/>
   </g>
   <g id="line2d_26">
    <path d="M -0.100652 293.76 
L -0.100652 236.274059 
L 66.240002 236.274059 
L 66.240002 232.441663 
L 72.214761 232.441663 
L 72.214761 228.609267 
L 72.451721 228.609267 
L 72.451721 224.776871 
L 75.538458 224.776871 
L 75.538458 220.944475 
L 76.895183 220.944475 
L 76.895183 217.112079 
L 77.809002 217.112079 
L 77.809002 213.279683 
L 79.831051 213.279683 
L 79.831051 209.447287 
L 80.320589 209.447287 
L 80.320589 205.614891 
L 80.697595 205.614891 
L 80.697595 201.782495 
L 89.759105 201.782495 
L 89.759105 197.950099 
L 92.476908 197.950099 
L 92.476908 194.117703 
L 92.913756 194.117703 
L 92.930622 186.452911 
L 96.393548 186.452911 
L 96.393548 182.620515 
L 97.440807 182.620515 
L 97.440807 178.788119 
L 205.216199 178.788119 
L 205.216199 174.955723 
L 206.34215 174.955723 
L 206.34215 171.123327 
L 207.028958 171.123327 
L 207.028958 167.290931 
L 207.715689 167.290931 
L 207.715689 163.458535 
L 208.22702 163.458535 
L 208.22702 159.626139 
L 208.90055 159.626139 
L 208.90055 155.793743 
L 209.639114 155.793743 
L 209.639114 151.961347 
L 210.475742 151.961347 
L 210.522862 144.296554 
L 211.325522 144.296554 
L 211.325522 140.464158 
L 211.777284 140.464158 
L 211.869043 132.799366 
L 212.482987 132.799366 
L 212.482987 128.96697 
L 212.796594 128.96697 
L 212.796594 125.134574 
L 214.190018 125.134574 
L 214.190018 121.302178 
L 215.632559 121.302178 
L 215.632559 117.469782 
L 215.895128 117.469782 
L 215.895128 113.637386 
L 216.053195 113.637386 
L 216.139519 105.972594 
L 216.477415 105.972594 
L 216.477415 102.140198 
L 217.301672 102.140198 
L 217.301672 98.307802 
L 217.911282 98.307802 
L 217.911282 94.475406 
L 218.150554 94.475406 
L 218.150554 90.64301 
L 218.505494 90.64301 
L 218.505494 86.810614 
L 218.636721 86.810614 
L 218.636721 82.978218 
L 219.209454 82.978218 
L 219.209454 79.145822 
L 219.323152 79.145822 
L 219.323152 75.313426 
L 220.504693 75.313426 
L 220.504693 71.48103 
L 221.186358 71.48103 
L 221.186358 67.648634 
L 222.464345 67.648634 
L 222.464345 63.816238 
L 238.307372 63.816238 
L 238.307372 59.983842 
L 240.529104 59.983842 
L 240.529104 56.151446 
L 250.162934 56.151446 
L 250.162934 52.31905 
L 251.847087 52.31905 
L 251.847087 48.486653 
L 252.348754 48.486653 
L 252.348754 44.654257 
L 253.842337 44.654257 
L 253.842337 40.821861 
L 254.279441 40.821861 
L 254.279441 36.989465 
L 256.067005 36.989465 
L 256.067005 33.157069 
L 256.829754 33.157069 
L 256.829754 29.324673 
L 257.027917 29.324673 
L 257.027917 25.492277 
L 257.770356 25.492277 
L 257.770356 21.659881 
L 258.775898 21.659881 
L 258.775898 17.827485 
L 259.08553 17.827485 
L 259.08553 13.995089 
L 262.68672 13.995089 
L 262.68672 10.162693 
L 277.8068 10.162693 
L 277.8068 6.330297 
L 277.8068 6.330297 
L 460.8 6.330297 
L 460.8 6.330297 
" clip-path="url(#pbdf39742c8)" style="fill: none; stroke: #bf00bf; stroke-width: 1.5; stroke-linecap: square"/>
   </g>
   <g id="line2d_27">
    <path d="M -0.100652 293.76 
L -0.100652 121.302178 
L 193.192783 121.302178 
L 193.192783 117.469782 
L 197.294236 117.469782 
L 197.294236 113.637386 
L 202.461446 113.637386 
L 202.461456 98.307802 
L 204.305708 98.307802 
L 204.305708 90.64301 
L 205.865009 90.64301 
L 205.865009 79.145822 
L 207.215731 79.145822 
L 207.215738 71.48103 
L 208.407158 71.48103 
L 208.407158 56.151446 
L 210.437012 56.151446 
L 210.437012 52.31905 
L 212.126852 52.31905 
L 212.126852 48.486653 
L 212.876472 48.486653 
L 212.876472 44.654257 
L 213.574366 44.654257 
L 213.574366 40.821861 
L 215.418628 40.821861 
L 215.418628 36.989465 
L 216.484386 36.989465 
L 216.484386 33.157069 
L 216.977899 33.157069 
L 216.977899 29.324673 
L 217.89814 29.324673 
L 217.89814 17.827485 
L 218.32865 17.827485 
L 218.32865 13.995089 
L 219.138245 13.995089 
L 219.138245 10.162693 
L 220.242894 10.162693 
L 220.242894 6.330297 
L 220.242894 6.330297 
L 460.8 6.330297 
L 460.8 6.330297 
" clip-path="url(#pbdf39742c8)" style="fill: none; stroke: #000000; stroke-width: 1.5; stroke-linecap: square"/>
   </g>
   <g id="patch_3">
    <path d="M 0 293.76 
L 0 3.456 
" style="fill: none; stroke: #000000; stroke-width: 0.8; stroke-linejoin: miter; stroke-linecap: square"/>
   </g>
   <g id="patch_4">
    <path d="M 460.8 293.76 
L 460.8 3.456 
" style="fill: none; stroke: #000000; stroke-width: 0.8; stroke-linejoin: miter; stroke-linecap: square"/>
   </g>
   <g id="patch_5">
    <path d="M 0 293.76 
L 460.8 293.76 
" style="fill: none; stroke: #000000; stroke-width: 0.8; stroke-linejoin: miter; stroke-linecap: square"/>
   </g>
   <g id="patch_6">
    <path d="M 0 3.456 
L 460.8 3.456 
" style="fill: none; stroke: #000000; stroke-width: 0.8; stroke-linejoin: miter; stroke-linecap: square"/>
   </g>
   <g id="text_6">
    <!-- {f1-f5}, 5-D -->
    <g transform="translate(331.334 287.95392) scale(0.2 -0.2)">
     <defs>
      <path id="DejaVuSans-7b" d="M 3272 -594 
L 3272 -1044 
L 3078 -1044 
Q 2300 -1044 2036 -812 
Q 1772 -581 1772 109 
L 1772 856 
Q 1772 1328 1603 1509 
Q 1434 1691 991 1691 
L 800 1691 
L 800 2138 
L 991 2138 
Q 1438 2138 1605 2317 
Q 1772 2497 1772 2963 
L 1772 3713 
Q 1772 4403 2036 4633 
Q 2300 4863 3078 4863 
L 3272 4863 
L 3272 4416 
L 3059 4416 
Q 2619 4416 2484 4278 
Q 2350 4141 2350 3700 
L 2350 2925 
Q 2350 2434 2208 2212 
Q 2066 1991 1722 1913 
Q 2069 1828 2209 1606 
Q 2350 1384 2350 897 
L 2350 122 
Q 2350 -319 2484 -456 
Q 2619 -594 3059 -594 
L 3272 -594 
z
" transform="scale(0.015625)"/>
      <path id="DejaVuSans-35" d="M 691 4666 
L 3169 4666 
L 3169 4134 
L 1269 4134 
L 1269 2991 
Q 1406 3038 1543 3061 
Q 1681 3084 1819 3084 
Q 2600 3084 3056 2656 
Q 3513 2228 3513 1497 
Q 3513 744 3044 326 
Q 2575 -91 1722 -91 
Q 1428 -91 1123 -41 
Q 819 9 494 109 
L 494 744 
Q 775 591 1075 516 
Q 1375 441 1709 441 
Q 2250 441 2565 725 
Q 2881 1009 2881 1497 
Q 2881 1984 2565 2268 
Q 2250 2553 1709 2553 
Q 1456 2553 1204 2497 
Q 953 2441 691 2322 
L 691 4666 
z
" transform="scale(0.015625)"/>
      <path id="DejaVuSans-7d" d="M 800 -594 
L 1019 -594 
Q 1456 -594 1589 -459 
Q 1722 -325 1722 122 
L 1722 897 
Q 1722 1384 1862 1606 
Q 2003 1828 2350 1913 
Q 2003 1991 1862 2212 
Q 1722 2434 1722 2925 
L 1722 3700 
Q 1722 4144 1589 4280 
Q 1456 4416 1019 4416 
L 800 4416 
L 800 4863 
L 997 4863 
Q 1775 4863 2036 4633 
Q 2297 4403 2297 3713 
L 2297 2963 
Q 2297 2497 2465 2317 
Q 2634 2138 3078 2138 
L 3272 2138 
L 3272 1691 
L 3078 1691 
Q 2634 1691 2465 1509 
Q 2297 1328 2297 856 
L 2297 109 
Q 2297 -581 2036 -812 
Q 1775 -1044 997 -1044 
L 800 -1044 
L 800 -594 
z
" transform="scale(0.015625)"/>
      <path id="DejaVuSans-2c" d="M 750 794 
L 1409 794 
L 1409 256 
L 897 -744 
L 494 -744 
L 750 256 
L 750 794 
z
" transform="scale(0.015625)"/>
     </defs>
     <use xlink:href="#DejaVuSans-7b"/>
     <use xlink:href="#DejaVuSans-66" x="63.623047"/>
     <use xlink:href="#DejaVuSans-31" x="98.828125"/>
     <use xlink:href="#DejaVuSans-2d" x="162.451172"/>
     <use xlink:href="#DejaVuSans-66" x="198.535156"/>
     <use xlink:href="#DejaVuSans-35" x="233.740234"/>
     <use xlink:href="#DejaVuSans-7d" x="297.363281"/>
     <use xlink:href="#DejaVuSans-2c" x="360.986328"/>
     <use xlink:href="#DejaVuSans-20" x="392.773438"/>
     <use xlink:href="#DejaVuSans-35" x="424.560547"/>
     <use xlink:href="#DejaVuSans-2d" x="488.183594"/>
     <use xlink:href="#DejaVuSans-44" x="524.267578"/>
    </g>
   </g>
   <g id="text_7">
    <!-- v2.6.3 -->
    <g style="fill: #808080" transform="translate(214.71875 288.777272) scale(0.1 -0.1)">
     <defs>
      <path id="DejaVuSans-76" d="M 191 3500 
L 800 3500 
L 1894 563 
L 2988 3500 
L 3597 3500 
L 2284 0 
L 1503 0 
L 191 3500 
z
" transform="scale(0.015625)"/>
      <path id="DejaVuSans-32" d="M 1228 531 
L 3431 531 
L 3431 0 
L 469 0 
L 469 531 
Q 828 903 1448 1529 
Q 2069 2156 2228 2338 
Q 2531 2678 2651 2914 
Q 2772 3150 2772 3378 
Q 2772 3750 2511 3984 
Q 2250 4219 1831 4219 
Q 1534 4219 1204 4116 
Q 875 4013 500 3803 
L 500 4441 
Q 881 4594 1212 4672 
Q 1544 4750 1819 4750 
Q 2544 4750 2975 4387 
Q 3406 4025 3406 3419 
Q 3406 3131 3298 2873 
Q 3191 2616 2906 2266 
Q 2828 2175 2409 1742 
Q 1991 1309 1228 531 
z
" transform="scale(0.015625)"/>
      <path id="DejaVuSans-2e" d="M 684 794 
L 1344 794 
L 1344 0 
L 684 0 
L 684 794 
z
" transform="scale(0.015625)"/>
      <path id="DejaVuSans-36" d="M 2113 2584 
Q 1688 2584 1439 2293 
Q 1191 2003 1191 1497 
Q 1191 994 1439 701 
Q 1688 409 2113 409 
Q 2538 409 2786 701 
Q 3034 994 3034 1497 
Q 3034 2003 2786 2293 
Q 2538 2584 2113 2584 
z
M 3366 4563 
L 3366 3988 
Q 3128 4100 2886 4159 
Q 2644 4219 2406 4219 
Q 1781 4219 1451 3797 
Q 1122 3375 1075 2522 
Q 1259 2794 1537 2939 
Q 1816 3084 2150 3084 
Q 2853 3084 3261 2657 
Q 3669 2231 3669 1497 
Q 3669 778 3244 343 
Q 2819 -91 2113 -91 
Q 1303 -91 875 529 
Q 447 1150 447 2328 
Q 447 3434 972 4092 
Q 1497 4750 2381 4750 
Q 2619 4750 2861 4703 
Q 3103 4656 3366 4563 
z
" transform="scale(0.015625)"/>
      <path id="DejaVuSans-33" d="M 2597 2516 
Q 3050 2419 3304 2112 
Q 3559 1806 3559 1356 
Q 3559 666 3084 287 
Q 2609 -91 1734 -91 
Q 1441 -91 1130 -33 
Q 819 25 488 141 
L 488 750 
Q 750 597 1062 519 
Q 1375 441 1716 441 
Q 2309 441 2620 675 
Q 2931 909 2931 1356 
Q 2931 1769 2642 2001 
Q 2353 2234 1838 2234 
L 1294 2234 
L 1294 2753 
L 1863 2753 
Q 2328 2753 2575 2939 
Q 2822 3125 2822 3475 
Q 2822 3834 2567 4026 
Q 2313 4219 1838 4219 
Q 1578 4219 1281 4162 
Q 984 4106 628 3988 
L 628 4550 
Q 988 4650 1302 4700 
Q 1616 4750 1894 4750 
Q 2613 4750 3031 4423 
Q 3450 4097 3450 3541 
Q 3450 3153 3228 2886 
Q 3006 2619 2597 2516 
z
" transform="scale(0.015625)"/>
     </defs>
     <use xlink:href="#DejaVuSans-76"/>
     <use xlink:href="#DejaVuSans-32" x="59.179688"/>
     <use xlink:href="#DejaVuSans-2e" x="122.802734"/>
     <use xlink:href="#DejaVuSans-36" x="154.589844"/>
     <use xlink:href="#DejaVuSans-2e" x="218.212891"/>
     <use xlink:href="#DejaVuSans-33" x="250"/>
    </g>
   </g>
  </g>
 </g>
 <defs>
  <clipPath id="pbdf39742c8">
   <rect x="0" y="3.456" width="460.8" height="290.304"/>
  </clipPath>
 </defs>
</svg>
