<?xml version="1.0" encoding="utf-8" standalone="no"?>
<!DOCTYPE svg PUBLIC "-//W3C//DTD SVG 1.1//EN"
  "http://www.w3.org/Graphics/SVG/1.1/DTD/svg11.dtd">
<svg xmlns:xlink="http://www.w3.org/1999/xlink" width="460.8pt" height="345.6pt" viewBox="0 0 460.8 345.6" xmlns="http://www.w3.org/2000/svg" version="1.1">
 <metadata>
  <rdf:RDF xmlns:dc="http://purl.org/dc/elements/1.1/" xmlns:cc="http://creativecommons.org/ns#" xmlns:rdf="http://www.w3.org/1999/02/22-rdf-syntax-ns#">
   <cc:Work>
    <dc:type rdf:resource="http://purl.org/dc/dcmitype/StillImage"/>
    <dc:date>2024-06-21T19:46:28.489110</dc:date>
    <dc:format>image/svg+xml</dc:format>
    <dc:creator>
     <cc:Agent>
      <dc:title>Matplotlib v3.7.5, https://matplotlib.org/</dc:title>
     </cc:Agent>
    </dc:creator>
   </cc:Work>
  </rdf:RDF>
 </metadata>
 <defs>
  <style type="text/css">*{stroke-linejoin: round; stroke-linecap: butt}</style>
 </defs>
 <g id="figure_1">
  <g id="patch_1">
   <path d="M 0 345.6 
L 460.8 345.6 
L 460.8 0 
L 0 0 
z
" style="fill: #ffffff"/>
  </g>
  <g id="axes_1">
   <g id="patch_2">
    <path d="M 0 293.76 
L 460.8 293.76 
L 460.8 3.456 
L 0 3.456 
z
" style="fill: #ffffff"/>
   </g>
   <g id="matplotlib.axis_1">
    <g id="xtick_1">
     <g id="line2d_1">
      <path d="M 93.065885 293.76 
L 93.065885 3.456 
" clip-path="url(#p6048e43103)" style="fill: none; stroke: #b0b0b0; stroke-width: 0.8; stroke-linecap: square"/>
     </g>
     <g id="line2d_2">
      <defs>
       <path id="m7ac3acdcf3" d="M 0 0 
L 0 3.5 
" style="stroke: #000000; stroke-width: 0.8"/>
      </defs>
      <g>
       <use xlink:href="#m7ac3acdcf3" x="93.065885" y="293.76" style="stroke: #000000; stroke-width: 0.8"/>
      </g>
     </g>
     <g id="text_1">
      <!-- -4 -->
      <g transform="translate(83.095573 315.956875) scale(0.2 -0.2)">
       <defs>
        <path id="DejaVuSans-2d" d="M 313 2009 
L 1997 2009 
L 1997 1497 
L 313 1497 
L 313 2009 
z
" transform="scale(0.015625)"/>
        <path id="DejaVuSans-34" d="M 2419 4116 
L 825 1625 
L 2419 1625 
L 2419 4116 
z
M 2253 4666 
L 3047 4666 
L 3047 1625 
L 3713 1625 
L 3713 1100 
L 3047 1100 
L 3047 0 
L 2419 0 
L 2419 1100 
L 313 1100 
L 313 1709 
L 2253 4666 
z
" transform="scale(0.015625)"/>
       </defs>
       <use xlink:href="#DejaVuSans-2d"/>
       <use xlink:href="#DejaVuSans-34" x="36.083984"/>
      </g>
     </g>
    </g>
    <g id="xtick_2">
     <g id="line2d_3">
      <path d="M 186.232423 293.76 
L 186.232423 3.456 
" clip-path="url(#p6048e43103)" style="fill: none; stroke: #b0b0b0; stroke-width: 0.8; stroke-linecap: square"/>
     </g>
     <g id="line2d_4">
      <g>
       <use xlink:href="#m7ac3acdcf3" x="186.232423" y="293.76" style="stroke: #000000; stroke-width: 0.8"/>
      </g>
     </g>
     <g id="text_2">
      <!-- 0 -->
      <g transform="translate(179.869923 315.956875) scale(0.2 -0.2)">
       <defs>
        <path id="DejaVuSans-30" d="M 2034 4250 
Q 1547 4250 1301 3770 
Q 1056 3291 1056 2328 
Q 1056 1369 1301 889 
Q 1547 409 2034 409 
Q 2525 409 2770 889 
Q 3016 1369 3016 2328 
Q 3016 3291 2770 3770 
Q 2525 4250 2034 4250 
z
M 2034 4750 
Q 2819 4750 3233 4129 
Q 3647 3509 3647 2328 
Q 3647 1150 3233 529 
Q 2819 -91 2034 -91 
Q 1250 -91 836 529 
Q 422 1150 422 2328 
Q 422 3509 836 4129 
Q 1250 4750 2034 4750 
z
" transform="scale(0.015625)"/>
       </defs>
       <use xlink:href="#DejaVuSans-30"/>
      </g>
     </g>
    </g>
    <g id="xtick_3">
     <g id="line2d_5">
      <path d="M 279.39896 293.76 
L 279.39896 3.456 
" clip-path="url(#p6048e43103)" style="fill: none; stroke: #b0b0b0; stroke-width: 0.8; stroke-linecap: square"/>
     </g>
     <g id="line2d_6">
      <g>
       <use xlink:href="#m7ac3acdcf3" x="279.39896" y="293.76" style="stroke: #000000; stroke-width: 0.8"/>
      </g>
     </g>
     <g id="text_3">
      <!-- 4 -->
      <g transform="translate(273.03646 315.956875) scale(0.2 -0.2)">
       <use xlink:href="#DejaVuSans-34"/>
      </g>
     </g>
    </g>
    <g id="xtick_4">
     <g id="line2d_7">
      <path d="M 372.565497 293.76 
L 372.565497 3.456 
" clip-path="url(#p6048e43103)" style="fill: none; stroke: #b0b0b0; stroke-width: 0.8; stroke-linecap: square"/>
     </g>
     <g id="line2d_8">
      <g>
       <use xlink:href="#m7ac3acdcf3" x="372.565497" y="293.76" style="stroke: #000000; stroke-width: 0.8"/>
      </g>
     </g>
     <g id="text_4">
      <!-- 8 -->
      <g transform="translate(366.202997 315.956875) scale(0.2 -0.2)">
       <defs>
        <path id="DejaVuSans-38" d="M 2034 2216 
Q 1584 2216 1326 1975 
Q 1069 1734 1069 1313 
Q 1069 891 1326 650 
Q 1584 409 2034 409 
Q 2484 409 2743 651 
Q 3003 894 3003 1313 
Q 3003 1734 2745 1975 
Q 2488 2216 2034 2216 
z
M 1403 2484 
Q 997 2584 770 2862 
Q 544 3141 544 3541 
Q 544 4100 942 4425 
Q 1341 4750 2034 4750 
Q 2731 4750 3128 4425 
Q 3525 4100 3525 3541 
Q 3525 3141 3298 2862 
Q 3072 2584 2669 2484 
Q 3125 2378 3379 2068 
Q 3634 1759 3634 1313 
Q 3634 634 3220 271 
Q 2806 -91 2034 -91 
Q 1263 -91 848 271 
Q 434 634 434 1313 
Q 434 1759 690 2068 
Q 947 2378 1403 2484 
z
M 1172 3481 
Q 1172 3119 1398 2916 
Q 1625 2713 2034 2713 
Q 2441 2713 2670 2916 
Q 2900 3119 2900 3481 
Q 2900 3844 2670 4047 
Q 2441 4250 2034 4250 
Q 1625 4250 1398 4047 
Q 1172 3844 1172 3481 
z
" transform="scale(0.015625)"/>
       </defs>
       <use xlink:href="#DejaVuSans-38"/>
      </g>
     </g>
    </g>
    <g id="text_5">
     <!-- log10 of Df -->
     <g transform="translate(175.214063 339.313125) scale(0.2 -0.2)">
      <defs>
       <path id="DejaVuSans-6c" d="M 603 4863 
L 1178 4863 
L 1178 0 
L 603 0 
L 603 4863 
z
" transform="scale(0.015625)"/>
       <path id="DejaVuSans-6f" d="M 1959 3097 
Q 1497 3097 1228 2736 
Q 959 2375 959 1747 
Q 959 1119 1226 758 
Q 1494 397 1959 397 
Q 2419 397 2687 759 
Q 2956 1122 2956 1747 
Q 2956 2369 2687 2733 
Q 2419 3097 1959 3097 
z
M 1959 3584 
Q 2709 3584 3137 3096 
Q 3566 2609 3566 1747 
Q 3566 888 3137 398 
Q 2709 -91 1959 -91 
Q 1206 -91 779 398 
Q 353 888 353 1747 
Q 353 2609 779 3096 
Q 1206 3584 1959 3584 
z
" transform="scale(0.015625)"/>
       <path id="DejaVuSans-67" d="M 2906 1791 
Q 2906 2416 2648 2759 
Q 2391 3103 1925 3103 
Q 1463 3103 1205 2759 
Q 947 2416 947 1791 
Q 947 1169 1205 825 
Q 1463 481 1925 481 
Q 2391 481 2648 825 
Q 2906 1169 2906 1791 
z
M 3481 434 
Q 3481 -459 3084 -895 
Q 2688 -1331 1869 -1331 
Q 1566 -1331 1297 -1286 
Q 1028 -1241 775 -1147 
L 775 -588 
Q 1028 -725 1275 -790 
Q 1522 -856 1778 -856 
Q 2344 -856 2625 -561 
Q 2906 -266 2906 331 
L 2906 616 
Q 2728 306 2450 153 
Q 2172 0 1784 0 
Q 1141 0 747 490 
Q 353 981 353 1791 
Q 353 2603 747 3093 
Q 1141 3584 1784 3584 
Q 2172 3584 2450 3431 
Q 2728 3278 2906 2969 
L 2906 3500 
L 3481 3500 
L 3481 434 
z
" transform="scale(0.015625)"/>
       <path id="DejaVuSans-31" d="M 794 531 
L 1825 531 
L 1825 4091 
L 703 3866 
L 703 4441 
L 1819 4666 
L 2450 4666 
L 2450 531 
L 3481 531 
L 3481 0 
L 794 0 
L 794 531 
z
" transform="scale(0.015625)"/>
       <path id="DejaVuSans-20" transform="scale(0.015625)"/>
       <path id="DejaVuSans-66" d="M 2375 4863 
L 2375 4384 
L 1825 4384 
Q 1516 4384 1395 4259 
Q 1275 4134 1275 3809 
L 1275 3500 
L 2222 3500 
L 2222 3053 
L 1275 3053 
L 1275 0 
L 697 0 
L 697 3053 
L 147 3053 
L 147 3500 
L 697 3500 
L 697 3744 
Q 697 4328 969 4595 
Q 1241 4863 1831 4863 
L 2375 4863 
z
" transform="scale(0.015625)"/>
       <path id="DejaVuSans-44" d="M 1259 4147 
L 1259 519 
L 2022 519 
Q 2988 519 3436 956 
Q 3884 1394 3884 2338 
Q 3884 3275 3436 3711 
Q 2988 4147 2022 4147 
L 1259 4147 
z
M 628 4666 
L 1925 4666 
Q 3281 4666 3915 4102 
Q 4550 3538 4550 2338 
Q 4550 1131 3912 565 
Q 3275 0 1925 0 
L 628 0 
L 628 4666 
z
" transform="scale(0.015625)"/>
      </defs>
      <use xlink:href="#DejaVuSans-6c"/>
      <use xlink:href="#DejaVuSans-6f" x="27.783203"/>
      <use xlink:href="#DejaVuSans-67" x="88.964844"/>
      <use xlink:href="#DejaVuSans-31" x="152.441406"/>
      <use xlink:href="#DejaVuSans-30" x="216.064453"/>
      <use xlink:href="#DejaVuSans-20" x="279.6875"/>
      <use xlink:href="#DejaVuSans-6f" x="311.474609"/>
      <use xlink:href="#DejaVuSans-66" x="372.65625"/>
      <use xlink:href="#DejaVuSans-20" x="407.861328"/>
      <use xlink:href="#DejaVuSans-44" x="439.648438"/>
      <use xlink:href="#DejaVuSans-66" x="516.650391"/>
     </g>
    </g>
   </g>
   <g id="matplotlib.axis_2">
    <g id="ytick_1">
     <g id="line2d_9">
      <path d="M 0 293.76 
L 460.8 293.76 
" clip-path="url(#p6048e43103)" style="fill: none; stroke: #b0b0b0; stroke-width: 0.8; stroke-linecap: square"/>
     </g>
     <g id="line2d_10">
      <defs>
       <path id="m50503c2a6a" d="M 0 0 
L -3.5 0 
" style="stroke: #000000; stroke-width: 0.8"/>
      </defs>
      <g>
       <use xlink:href="#m50503c2a6a" x="0" y="293.76" style="stroke: #000000; stroke-width: 0.8"/>
      </g>
     </g>
    </g>
    <g id="ytick_2">
     <g id="line2d_11">
      <path d="M 0 236.274059 
L 460.8 236.274059 
" clip-path="url(#p6048e43103)" style="fill: none; stroke: #b0b0b0; stroke-width: 0.8; stroke-linecap: square"/>
     </g>
     <g id="line2d_12">
      <g>
       <use xlink:href="#m50503c2a6a" x="0" y="236.274059" style="stroke: #000000; stroke-width: 0.8"/>
      </g>
     </g>
    </g>
    <g id="ytick_3">
     <g id="line2d_13">
      <path d="M 0 178.788119 
L 460.8 178.788119 
" clip-path="url(#p6048e43103)" style="fill: none; stroke: #b0b0b0; stroke-width: 0.8; stroke-linecap: square"/>
     </g>
     <g id="line2d_14">
      <g>
       <use xlink:href="#m50503c2a6a" x="0" y="178.788119" style="stroke: #000000; stroke-width: 0.8"/>
      </g>
     </g>
    </g>
    <g id="ytick_4">
     <g id="line2d_15">
      <path d="M 0 121.302178 
L 460.8 121.302178 
" clip-path="url(#p6048e43103)" style="fill: none; stroke: #b0b0b0; stroke-width: 0.8; stroke-linecap: square"/>
     </g>
     <g id="line2d_16">
      <g>
       <use xlink:href="#m50503c2a6a" x="0" y="121.302178" style="stroke: #000000; stroke-width: 0.8"/>
      </g>
     </g>
    </g>
    <g id="ytick_5">
     <g id="line2d_17">
      <path d="M 0 63.816238 
L 460.8 63.816238 
" clip-path="url(#p6048e43103)" style="fill: none; stroke: #b0b0b0; stroke-width: 0.8; stroke-linecap: square"/>
     </g>
     <g id="line2d_18">
      <g>
       <use xlink:href="#m50503c2a6a" x="0" y="63.816238" style="stroke: #000000; stroke-width: 0.8"/>
      </g>
     </g>
    </g>
    <g id="ytick_6">
     <g id="line2d_19">
      <path d="M 0 6.330297 
L 460.8 6.330297 
" clip-path="url(#p6048e43103)" style="fill: none; stroke: #b0b0b0; stroke-width: 0.8; stroke-linecap: square"/>
     </g>
     <g id="line2d_20">
      <g>
       <use xlink:href="#m50503c2a6a" x="0" y="6.330297" style="stroke: #000000; stroke-width: 0.8"/>
      </g>
     </g>
    </g>
   </g>
   <g id="line2d_21">
    <path d="M 66.64006 293.76 
L 66.64006 289.927604 
L 73.742095 289.927604 
L 73.742095 286.095208 
L 87.645527 286.095208 
L 87.645527 282.262812 
L 88.138525 282.262812 
L 88.138525 278.430416 
L 96.114985 278.430416 
L 96.114985 274.59802 
L 108.917854 274.59802 
L 108.917854 270.765624 
L 120.548866 270.765624 
L 120.548866 266.933228 
L 125.036769 266.933228 
L 125.036769 263.100832 
L 131.644728 263.100832 
L 131.644728 259.268436 
L 137.460171 259.268436 
L 137.494238 251.603644 
L 139.520802 251.603644 
L 139.520802 247.771248 
L 140.583698 247.771248 
L 140.583698 243.938851 
L 147.946935 243.938851 
L 147.946935 240.106455 
L 151.03051 240.106455 
L 151.03051 236.274059 
L 152.280423 236.274059 
L 152.280423 232.441663 
L 153.196289 232.441663 
L 153.196289 228.609267 
L 155.511632 228.609267 
L 155.511632 224.776871 
L 156.467676 224.776871 
L 156.467676 220.944475 
L 158.752641 220.944475 
L 158.752641 217.112079 
L 159.53034 217.112079 
L 159.53034 213.279683 
L 160.477519 213.279683 
L 160.477519 209.447287 
L 165.066749 209.447287 
L 165.066749 205.614891 
L 167.289881 205.614891 
L 167.289881 201.782495 
L 168.472857 201.782495 
L 168.472857 197.950099 
L 168.801991 197.950099 
L 168.858381 190.285307 
L 169.89627 190.285307 
L 169.89627 186.452911 
L 170.088249 186.452911 
L 170.088249 182.620515 
L 170.352665 182.620515 
L 170.352665 178.788119 
L 172.32051 178.788119 
L 172.32051 174.955723 
L 173.302762 174.955723 
L 173.302762 171.123327 
L 175.371577 171.123327 
L 175.371577 167.290931 
L 175.60002 167.290931 
L 175.60002 163.458535 
L 176.729931 163.458535 
L 176.729931 159.626139 
L 177.176811 159.626139 
L 177.176811 155.793743 
L 177.310826 155.793743 
L 177.310826 151.961347 
L 177.576861 151.961347 
L 177.576861 148.12895 
L 178.621668 148.12895 
L 178.621668 144.296554 
L 179.115201 144.296554 
L 179.168326 136.631762 
L 179.510844 136.631762 
L 179.510844 132.799366 
L 179.809831 132.799366 
L 179.809831 128.96697 
L 180.041905 128.96697 
L 180.041905 125.134574 
L 180.232416 125.134574 
L 180.232416 121.302178 
L 185.97152 121.302178 
L 185.97152 117.469782 
L 186.252325 117.469782 
L 186.252325 113.637386 
L 187.580683 113.637386 
L 187.580683 109.80499 
L 187.754565 109.80499 
L 187.772367 102.140198 
L 188.734342 102.140198 
L 188.734342 98.307802 
L 191.47283 98.307802 
L 191.47283 94.475406 
L 195.058594 94.475406 
L 195.058594 90.64301 
L 195.306911 90.64301 
L 195.306911 86.810614 
L 197.294236 86.810614 
L 197.367726 79.145822 
L 199.26857 79.145822 
L 199.26857 75.313426 
L 200.204263 75.313426 
L 200.267942 67.648634 
L 202.461456 67.648634 
L 202.461456 56.151446 
L 202.961903 56.151446 
L 203.041737 48.486653 
L 204.305708 48.486653 
L 204.305708 33.157069 
L 205.865009 33.157069 
L 205.865009 25.492277 
L 207.215731 25.492277 
L 207.215731 21.659881 
L 208.407158 21.659881 
L 208.513163 13.995089 
L 209.472926 13.995089 
L 209.472926 10.162693 
L 211.317172 10.162693 
L 211.317172 6.330297 
L 211.317172 6.330297 
L 460.8 6.330297 
L 460.8 6.330297 
" clip-path="url(#p6048e43103)" style="fill: none; stroke: #ff0000; stroke-width: 3; stroke-linecap: square"/>
   </g>
   <g id="line2d_22">
    <path d="M 203.879304 293.76 
L 203.879304 289.927604 
L 210.002071 289.927604 
L 210.002071 286.095208 
L 212.152438 286.095208 
L 212.152438 282.262812 
L 212.814325 282.262812 
L 212.814325 278.430416 
L 213.394015 278.430416 
L 213.394015 274.59802 
L 214.635295 274.59802 
L 214.635295 270.765624 
L 215.022041 270.765624 
L 215.022041 266.933228 
L 215.877939 266.933228 
L 215.955536 259.268436 
L 216.005995 259.268436 
L 216.005995 255.43604 
L 216.738809 255.43604 
L 216.738809 251.603644 
L 217.164167 251.603644 
L 217.164167 247.771248 
L 217.515313 247.771248 
L 217.515313 243.938851 
L 218.199849 243.938851 
L 218.199849 240.106455 
L 218.36146 240.106455 
L 218.36146 236.274059 
L 219.245531 236.274059 
L 219.245531 232.441663 
L 219.562136 232.441663 
L 219.562136 228.609267 
L 219.965836 228.609267 
L 219.989428 220.944475 
L 220.615155 220.944475 
L 220.615155 217.112079 
L 220.927961 217.112079 
L 220.927961 213.279683 
L 222.696949 213.279683 
L 222.696949 209.447287 
L 222.984707 209.447287 
L 223.011589 201.782495 
L 223.498395 201.782495 
L 223.498395 197.950099 
L 223.954026 197.950099 
L 223.989527 186.452911 
L 224.228781 186.452911 
L 224.228781 182.620515 
L 224.620554 182.620515 
L 224.665603 174.955723 
L 224.838061 174.955723 
L 224.838061 171.123327 
L 224.97347 171.123327 
L 224.97347 167.290931 
L 225.116335 167.290931 
L 225.116335 163.458535 
L 225.2753 163.458535 
L 225.2753 159.626139 
L 225.648272 159.626139 
L 225.648272 155.793743 
L 226.202781 155.793743 
L 226.202781 151.961347 
L 226.685077 151.961347 
L 226.685077 148.12895 
L 227.032835 148.12895 
L 227.032835 144.296554 
L 227.199064 144.296554 
L 227.199064 140.464158 
L 227.6734 140.464158 
L 227.6734 136.631762 
L 227.893253 136.631762 
L 227.893253 132.799366 
L 228.287873 132.799366 
L 228.287873 128.96697 
L 228.945479 128.96697 
L 228.945479 125.134574 
L 229.161577 125.134574 
L 229.161577 121.302178 
L 229.328541 121.302178 
L 229.328541 117.469782 
L 229.585778 117.469782 
L 229.585778 113.637386 
L 229.992554 113.637386 
L 230.103299 105.972594 
L 231.333028 105.972594 
L 231.333028 102.140198 
L 232.344991 102.140198 
L 232.344991 98.307802 
L 232.664895 98.307802 
L 232.664895 94.475406 
L 233.573466 94.475406 
L 233.573466 90.64301 
L 234.209133 90.64301 
L 234.209133 86.810614 
L 234.768617 86.810614 
L 234.768617 82.978218 
L 235.719275 82.978218 
L 235.786211 75.313426 
L 235.897156 75.313426 
L 235.897156 71.48103 
L 236.424343 71.48103 
L 236.424343 67.648634 
L 237.508779 67.648634 
L 237.508779 63.816238 
L 238.097622 63.816238 
L 238.097622 59.983842 
L 239.701556 59.983842 
L 239.701556 56.151446 
L 239.896687 56.151446 
L 239.896687 52.31905 
L 240.327669 52.31905 
L 240.327669 48.486653 
L 241.042674 48.486653 
L 241.042674 44.654257 
L 241.746168 44.654257 
L 241.746168 40.821861 
L 244.082739 40.821861 
L 244.082739 36.989465 
L 246.316122 36.989465 
L 246.316122 33.157069 
L 247.688999 33.157069 
L 247.688999 29.324673 
L 248.601054 29.324673 
L 248.601054 25.492277 
L 252.441979 25.492277 
L 252.441979 21.659881 
L 254.021306 21.659881 
L 254.021306 17.827485 
L 255.587354 17.827485 
L 255.587354 13.995089 
L 257.349981 13.995089 
L 257.349981 10.162693 
L 265.452402 10.162693 
L 265.452402 6.330297 
L 265.452402 6.330297 
L 460.8 6.330297 
L 460.8 6.330297 
" clip-path="url(#p6048e43103)" style="fill: none; stroke: #00bfbf; stroke-width: 1.5; stroke-linecap: square"/>
   </g>
   <g id="line2d_23">
    <path d="M 203.879304 293.76 
L 203.879304 289.927604 
L 207.462028 289.927604 
L 207.462028 286.095208 
L 210.002071 286.095208 
L 210.002071 282.262812 
L 210.178825 282.262812 
L 210.178825 278.430416 
L 210.586813 278.430416 
L 210.586813 274.59802 
L 210.912705 274.59802 
L 210.912705 270.765624 
L 212.004117 270.765624 
L 212.068131 263.100832 
L 212.152438 263.100832 
L 212.152438 259.268436 
L 212.533062 259.268436 
L 212.533062 255.43604 
L 212.722222 255.43604 
L 212.814325 247.771248 
L 213.085695 247.771248 
L 213.085695 243.938851 
L 213.394015 243.938851 
L 213.394015 240.106455 
L 214.873264 240.106455 
L 214.95904 232.441663 
L 215.022041 232.441663 
L 215.022041 228.609267 
L 215.461632 228.609267 
L 215.461632 224.776871 
L 215.735121 224.776871 
L 215.755122 217.112079 
L 216.005995 217.112079 
L 216.005995 213.279683 
L 217.515313 213.279683 
L 217.515313 209.447287 
L 217.881905 209.447287 
L 217.881905 205.614891 
L 218.024081 205.614891 
L 218.116207 197.950099 
L 218.36146 197.950099 
L 218.36146 194.117703 
L 219.300328 194.117703 
L 219.300328 190.285307 
L 219.562136 190.285307 
L 219.562136 186.452911 
L 219.884307 186.452911 
L 219.884307 182.620515 
L 220.135966 182.620515 
L 220.135966 178.788119 
L 220.615155 178.788119 
L 220.615155 174.955723 
L 220.854654 174.955723 
L 220.927961 167.290931 
L 221.138723 167.290931 
L 221.138723 163.458535 
L 221.378353 163.458535 
L 221.378353 159.626139 
L 221.634666 159.626139 
L 221.724173 151.961347 
L 221.754594 151.961347 
L 221.754594 148.12895 
L 222.449976 148.12895 
L 222.449976 144.296554 
L 222.886596 144.296554 
L 222.984707 132.799366 
L 223.954026 132.799366 
L 223.954026 128.96697 
L 224.256199 128.96697 
L 224.256199 125.134574 
L 224.838061 125.134574 
L 224.914608 117.469782 
L 224.960964 117.469782 
L 224.97347 109.80499 
L 226.202781 109.80499 
L 226.202781 105.972594 
L 226.461158 105.972594 
L 226.461158 102.140198 
L 226.685077 102.140198 
L 226.685077 98.307802 
L 227.032835 98.307802 
L 227.032835 94.475406 
L 227.172177 94.475406 
L 227.172177 90.64301 
L 227.904763 90.64301 
L 227.904763 86.810614 
L 228.147491 86.810614 
L 228.183084 79.145822 
L 229.58568 79.145822 
L 229.590979 71.48103 
L 230.513631 71.48103 
L 230.513631 67.648634 
L 231.78723 67.648634 
L 231.78723 63.816238 
L 232.224196 63.816238 
L 232.224196 59.983842 
L 232.664895 59.983842 
L 232.664895 56.151446 
L 232.993146 56.151446 
L 232.993146 52.31905 
L 234.104452 52.31905 
L 234.104452 48.486653 
L 235.786211 48.486653 
L 235.786211 44.654257 
L 236.424343 44.654257 
L 236.424343 40.821861 
L 236.577406 40.821861 
L 236.577406 36.989465 
L 238.014396 36.989465 
L 238.014396 33.157069 
L 239.551572 33.157069 
L 239.551572 29.324673 
L 239.701556 29.324673 
L 239.701556 25.492277 
L 239.896687 25.492277 
L 239.896687 21.659881 
L 240.327669 21.659881 
L 240.327669 17.827485 
L 241.020843 17.827485 
L 241.020843 13.995089 
L 241.746168 13.995089 
L 241.746168 10.162693 
L 242.100548 10.162693 
L 242.100548 6.330297 
L 242.100548 6.330297 
L 460.8 6.330297 
L 460.8 6.330297 
" clip-path="url(#p6048e43103)" style="fill: none; stroke: #bf00bf; stroke-width: 1.5; stroke-linecap: square"/>
   </g>
   <g id="line2d_24">
    <path d="M 201.630902 293.76 
L 201.630902 289.927604 
L 205.333205 289.927604 
L 205.333205 286.095208 
L 207.099285 286.095208 
L 207.099285 282.262812 
L 207.426992 282.262812 
L 207.462028 274.59802 
L 208.655512 274.59802 
L 208.655512 270.765624 
L 208.890144 270.765624 
L 208.890144 266.933228 
L 210.002071 266.933228 
L 210.002071 263.100832 
L 210.178825 263.100832 
L 210.283501 255.43604 
L 210.330957 255.43604 
L 210.330957 251.603644 
L 210.586813 251.603644 
L 210.65311 243.938851 
L 210.848993 243.938851 
L 210.848993 240.106455 
L 211.348372 240.106455 
L 211.348372 236.274059 
L 211.685579 236.274059 
L 211.782181 228.609267 
L 211.934643 228.609267 
L 212.004117 220.944475 
L 212.068131 220.944475 
L 212.118691 213.279683 
L 212.503432 213.279683 
L 212.503432 209.447287 
L 212.614697 209.447287 
L 212.614697 205.614891 
L 212.876374 205.614891 
L 212.876374 201.782495 
L 213.371024 201.782495 
L 213.371024 197.950099 
L 213.636976 197.950099 
L 213.636976 194.117703 
L 214.510934 194.117703 
L 214.588607 186.452911 
L 214.873264 186.452911 
L 214.873264 182.620515 
L 215.814877 182.620515 
L 215.814877 178.788119 
L 216.441576 178.788119 
L 216.441576 174.955723 
L 217.515313 174.955723 
L 217.515313 171.123327 
L 217.881905 171.123327 
L 217.881905 167.290931 
L 218.050178 167.290931 
L 218.050178 163.458535 
L 218.166729 163.458535 
L 218.175801 155.793743 
L 218.347566 155.793743 
L 218.36146 148.12895 
L 219.300328 148.12895 
L 219.300328 144.296554 
L 219.526916 144.296554 
L 219.562136 136.631762 
L 219.884307 136.631762 
L 219.884307 132.799366 
L 220.135966 132.799366 
L 220.171465 125.134574 
L 220.615155 125.134574 
L 220.615155 121.302178 
L 220.774436 121.302178 
L 220.774436 117.469782 
L 221.138723 117.469782 
L 221.138723 113.637386 
L 221.389564 113.637386 
L 221.389564 109.80499 
L 221.634666 109.80499 
L 221.634666 105.972594 
L 221.984153 105.972594 
L 221.984153 102.140198 
L 222.489626 102.140198 
L 222.489626 98.307802 
L 222.886596 98.307802 
L 222.886596 94.475406 
L 223.029427 94.475406 
L 223.029427 90.64301 
L 224.631617 90.64301 
L 224.631617 86.810614 
L 224.960964 86.810614 
L 224.960964 82.978218 
L 225.454444 82.978218 
L 225.465212 75.313426 
L 226.600267 75.313426 
L 226.600267 71.48103 
L 228.718192 71.48103 
L 228.718192 67.648634 
L 229.14833 67.648634 
L 229.14833 63.816238 
L 229.58568 63.816238 
L 229.58568 59.983842 
L 231.336281 59.983842 
L 231.336281 56.151446 
L 231.519828 56.151446 
L 231.519828 52.31905 
L 232.463648 52.31905 
L 232.463648 48.486653 
L 232.664895 48.486653 
L 232.664895 44.654257 
L 232.993146 44.654257 
L 232.993146 40.821861 
L 233.983631 40.821861 
L 233.983631 36.989465 
L 234.104452 36.989465 
L 234.104452 33.157069 
L 234.45211 33.157069 
L 234.486446 25.492277 
L 235.786211 25.492277 
L 235.786211 21.659881 
L 236.526405 21.659881 
L 236.577406 13.995089 
L 237.230016 13.995089 
L 237.230016 10.162693 
L 241.746168 10.162693 
L 241.746168 6.330297 
L 241.746168 6.330297 
L 460.8 6.330297 
L 460.8 6.330297 
" clip-path="url(#p6048e43103)" style="fill: none; stroke: #000000; stroke-width: 1.5; stroke-linecap: square"/>
   </g>
   <g id="line2d_25">
    <path d="M 190.616159 293.76 
L 190.616159 289.927604 
L 194.547054 289.927604 
L 194.547054 286.095208 
L 195.73628 286.095208 
L 195.73628 282.262812 
L 196.563936 282.262812 
L 196.563936 278.430416 
L 196.870048 278.430416 
L 196.870048 274.59802 
L 197.062499 274.59802 
L 197.062499 270.765624 
L 197.552255 270.765624 
L 197.552255 266.933228 
L 198.897485 266.933228 
L 198.897485 263.100832 
L 199.256719 263.100832 
L 199.256719 259.268436 
L 200.066499 259.268436 
L 200.066499 255.43604 
L 200.343113 255.43604 
L 200.343113 251.603644 
L 200.787954 251.603644 
L 200.787954 247.771248 
L 201.112308 247.771248 
L 201.112308 243.938851 
L 201.260637 243.938851 
L 201.260637 240.106455 
L 201.598293 240.106455 
L 201.630902 232.441663 
L 201.939182 232.441663 
L 201.939182 228.609267 
L 202.31182 228.609267 
L 202.31182 224.776871 
L 202.615588 224.776871 
L 202.615588 220.944475 
L 202.742572 220.944475 
L 202.742572 217.112079 
L 204.489902 217.112079 
L 204.489902 213.279683 
L 205.536317 213.279683 
L 205.536317 209.447287 
L 205.925942 209.447287 
L 205.925942 205.614891 
L 206.541807 205.614891 
L 206.64495 197.950099 
L 207.009642 197.950099 
L 207.009642 194.117703 
L 207.426992 194.117703 
L 207.426992 190.285307 
L 207.899699 190.285307 
L 207.899699 186.452911 
L 208.165721 186.452911 
L 208.165721 182.620515 
L 208.890144 182.620515 
L 208.890144 178.788119 
L 209.008839 178.788119 
L 209.008839 174.955723 
L 209.263114 174.955723 
L 209.263114 171.123327 
L 209.590432 171.123327 
L 209.590432 167.290931 
L 210.188736 167.290931 
L 210.188736 163.458535 
L 210.907131 163.458535 
L 210.907131 159.626139 
L 212.97476 159.626139 
L 212.97476 155.793743 
L 213.371024 155.793743 
L 213.384511 148.12895 
L 214.510934 148.12895 
L 214.510934 144.296554 
L 215.020341 144.296554 
L 215.020341 140.464158 
L 215.694978 140.464158 
L 215.694978 136.631762 
L 215.813991 136.631762 
L 215.814877 128.96697 
L 216.441576 128.96697 
L 216.441576 125.134574 
L 216.875231 125.134574 
L 216.875231 121.302178 
L 217.881905 121.302178 
L 217.988089 109.80499 
L 218.347566 109.80499 
L 218.429097 102.140198 
L 219.411382 102.140198 
L 219.482825 94.475406 
L 219.562136 94.475406 
L 219.562136 90.64301 
L 219.687915 90.64301 
L 219.687915 86.810614 
L 219.811064 86.810614 
L 219.819373 79.145822 
L 220.106078 79.145822 
L 220.106078 75.313426 
L 220.337396 75.313426 
L 220.411014 67.648634 
L 220.843738 67.648634 
L 220.843738 63.816238 
L 221.593837 63.816238 
L 221.593837 59.983842 
L 226.077287 59.983842 
L 226.077287 56.151446 
L 226.505674 56.151446 
L 226.505674 52.31905 
L 226.694246 52.31905 
L 226.734482 44.654257 
L 227.747809 44.654257 
L 227.747809 40.821861 
L 227.914571 40.821861 
L 228.003595 29.324673 
L 228.628646 29.324673 
L 228.628646 25.492277 
L 229.785588 25.492277 
L 229.785588 21.659881 
L 230.704859 21.659881 
L 230.704859 17.827485 
L 231.152042 17.827485 
L 231.152042 13.995089 
L 231.501806 13.995089 
L 231.501806 10.162693 
L 233.03684 10.162693 
L 233.03684 6.330297 
L 233.03684 6.330297 
L 460.8 6.330297 
L 460.8 6.330297 
" clip-path="url(#p6048e43103)" style="fill: none; stroke: #00bfbf; stroke-width: 1.5; stroke-linecap: square"/>
   </g>
   <g id="line2d_26">
    <path d="M 153.919478 293.76 
L 153.919478 289.927604 
L 156.453098 289.927604 
L 156.453098 286.095208 
L 157.570348 286.095208 
L 157.570348 282.262812 
L 161.224505 282.262812 
L 161.224505 278.430416 
L 162.181432 278.430416 
L 162.181432 274.59802 
L 164.620868 274.59802 
L 164.620868 270.765624 
L 166.531143 270.765624 
L 166.531143 266.933228 
L 166.837243 266.933228 
L 166.837243 263.100832 
L 167.155448 263.100832 
L 167.155448 259.268436 
L 168.453103 259.268436 
L 168.498571 251.603644 
L 170.654488 251.603644 
L 170.654488 247.771248 
L 171.76376 247.771248 
L 171.76376 243.938851 
L 174.144655 243.938851 
L 174.144655 240.106455 
L 174.676522 240.106455 
L 174.676522 236.274059 
L 176.328882 236.274059 
L 176.328882 232.441663 
L 178.303875 232.441663 
L 178.303875 228.609267 
L 178.756475 228.609267 
L 178.756475 224.776871 
L 179.451192 224.776871 
L 179.451192 220.944475 
L 180.781565 220.944475 
L 180.781565 217.112079 
L 180.988237 217.112079 
L 180.988237 213.279683 
L 183.036625 213.279683 
L 183.036625 209.447287 
L 183.35796 209.447287 
L 183.366385 201.782495 
L 183.921111 201.782495 
L 183.921111 197.950099 
L 184.487105 197.950099 
L 184.487105 194.117703 
L 184.764481 194.117703 
L 184.764481 190.285307 
L 185.699481 190.285307 
L 185.699481 186.452911 
L 185.955341 186.452911 
L 185.955341 182.620515 
L 188.788185 182.620515 
L 188.788185 178.788119 
L 189.630918 178.788119 
L 189.630918 174.955723 
L 191.563106 174.955723 
L 191.563106 171.123327 
L 191.801002 171.123327 
L 191.801002 167.290931 
L 192.193582 167.290931 
L 192.239335 159.626139 
L 192.378353 159.626139 
L 192.45898 151.961347 
L 193.165083 151.961347 
L 193.165083 148.12895 
L 193.544575 148.12895 
L 193.544575 144.296554 
L 194.23235 144.296554 
L 194.23235 140.464158 
L 194.945733 140.464158 
L 194.945733 136.631762 
L 195.872709 136.631762 
L 195.872709 132.799366 
L 196.633289 132.799366 
L 196.633289 128.96697 
L 199.178616 128.96697 
L 199.178616 125.134574 
L 199.903345 125.134574 
L 199.903345 121.302178 
L 200.67132 121.302178 
L 200.67132 117.469782 
L 201.474222 117.469782 
L 201.474222 113.637386 
L 203.404019 113.637386 
L 203.404019 109.80499 
L 203.920973 109.80499 
L 203.920973 105.972594 
L 204.256456 105.972594 
L 204.256456 102.140198 
L 206.492494 102.140198 
L 206.492494 98.307802 
L 206.667135 98.307802 
L 206.667135 94.475406 
L 207.0133 94.475406 
L 207.0133 90.64301 
L 207.139974 90.64301 
L 207.139974 86.810614 
L 207.426515 86.810614 
L 207.426515 82.978218 
L 207.899699 82.978218 
L 207.899699 79.145822 
L 208.143007 79.145822 
L 208.143007 75.313426 
L 209.008839 75.313426 
L 209.04742 67.648634 
L 209.199985 67.648634 
L 209.199985 63.816238 
L 209.607876 63.816238 
L 209.607876 59.983842 
L 209.852329 59.983842 
L 209.852329 56.151446 
L 210.467976 56.151446 
L 210.501676 48.486653 
L 211.170458 48.486653 
L 211.263817 40.821861 
L 211.775516 40.821861 
L 211.775516 36.989465 
L 212.03545 36.989465 
L 212.129607 25.492277 
L 213.716689 25.492277 
L 213.716689 21.659881 
L 214.403482 21.659881 
L 214.403482 17.827485 
L 217.166771 17.827485 
L 217.197567 10.162693 
L 217.884881 10.162693 
L 217.884881 6.330297 
L 217.884881 6.330297 
L 460.8 6.330297 
L 460.8 6.330297 
" clip-path="url(#p6048e43103)" style="fill: none; stroke: #bf00bf; stroke-width: 1.5; stroke-linecap: square"/>
   </g>
   <g id="line2d_27">
    <path d="M 66.64006 293.76 
L 66.64006 289.927604 
L 73.742095 289.927604 
L 73.742095 286.095208 
L 87.645527 286.095208 
L 87.645527 282.262812 
L 88.138525 282.262812 
L 88.138525 278.430416 
L 96.114985 278.430416 
L 96.114985 274.59802 
L 108.917854 274.59802 
L 108.917854 270.765624 
L 120.548866 270.765624 
L 120.548866 266.933228 
L 125.036769 266.933228 
L 125.036769 263.100832 
L 131.644728 263.100832 
L 131.644728 259.268436 
L 137.460171 259.268436 
L 137.494238 251.603644 
L 139.520802 251.603644 
L 139.520802 247.771248 
L 140.583698 247.771248 
L 140.583698 243.938851 
L 147.946935 243.938851 
L 147.946935 240.106455 
L 151.03051 240.106455 
L 151.03051 236.274059 
L 152.280423 236.274059 
L 152.280423 232.441663 
L 153.196289 232.441663 
L 153.196289 228.609267 
L 155.511632 228.609267 
L 155.511632 224.776871 
L 156.467676 224.776871 
L 156.467676 220.944475 
L 158.752641 220.944475 
L 158.752641 217.112079 
L 159.53034 217.112079 
L 159.53034 213.279683 
L 160.477519 213.279683 
L 160.477519 209.447287 
L 165.066749 209.447287 
L 165.066749 205.614891 
L 167.289881 205.614891 
L 167.289881 201.782495 
L 168.472857 201.782495 
L 168.472857 197.950099 
L 168.801991 197.950099 
L 168.858381 190.285307 
L 169.89627 190.285307 
L 169.89627 186.452911 
L 170.088249 186.452911 
L 170.088249 182.620515 
L 170.352665 182.620515 
L 170.352665 178.788119 
L 172.32051 178.788119 
L 172.32051 174.955723 
L 173.302762 174.955723 
L 173.302762 171.123327 
L 175.371577 171.123327 
L 175.371577 167.290931 
L 175.60002 167.290931 
L 175.60002 163.458535 
L 176.729931 163.458535 
L 176.729931 159.626139 
L 177.176811 159.626139 
L 177.176811 155.793743 
L 177.310826 155.793743 
L 177.310826 151.961347 
L 177.576861 151.961347 
L 177.576861 148.12895 
L 178.621668 148.12895 
L 178.621668 144.296554 
L 179.115201 144.296554 
L 179.168326 136.631762 
L 179.510844 136.631762 
L 179.510844 132.799366 
L 179.809831 132.799366 
L 179.809831 128.96697 
L 180.041905 128.96697 
L 180.041905 125.134574 
L 180.232416 125.134574 
L 180.232416 121.302178 
L 185.97152 121.302178 
L 185.97152 117.469782 
L 186.252325 117.469782 
L 186.252325 113.637386 
L 187.580683 113.637386 
L 187.580683 109.80499 
L 187.754565 109.80499 
L 187.772367 102.140198 
L 188.734342 102.140198 
L 188.734342 98.307802 
L 191.47283 98.307802 
L 191.47283 94.475406 
L 195.058594 94.475406 
L 195.058594 90.64301 
L 195.306911 90.64301 
L 195.306911 86.810614 
L 197.294236 86.810614 
L 197.367726 79.145822 
L 199.26857 79.145822 
L 199.26857 75.313426 
L 200.204263 75.313426 
L 200.267942 67.648634 
L 202.461456 67.648634 
L 202.461456 56.151446 
L 202.961903 56.151446 
L 203.041737 48.486653 
L 204.305708 48.486653 
L 204.305708 33.157069 
L 205.865009 33.157069 
L 205.865009 25.492277 
L 207.215731 25.492277 
L 207.215731 21.659881 
L 208.407158 21.659881 
L 208.513163 13.995089 
L 209.472926 13.995089 
L 209.472926 10.162693 
L 211.317172 10.162693 
L 211.317172 6.330297 
L 211.317172 6.330297 
L 460.8 6.330297 
L 460.8 6.330297 
" clip-path="url(#p6048e43103)" style="fill: none; stroke: #000000; stroke-width: 1.5; stroke-linecap: square"/>
   </g>
   <g id="patch_3">
    <path d="M 0 293.76 
L 0 3.456 
" style="fill: none; stroke: #000000; stroke-width: 0.8; stroke-linejoin: miter; stroke-linecap: square"/>
   </g>
   <g id="patch_4">
    <path d="M 460.8 293.76 
L 460.8 3.456 
" style="fill: none; stroke: #000000; stroke-width: 0.8; stroke-linejoin: miter; stroke-linecap: square"/>
   </g>
   <g id="patch_5">
    <path d="M 0 293.76 
L 460.8 293.76 
" style="fill: none; stroke: #000000; stroke-width: 0.8; stroke-linejoin: miter; stroke-linecap: square"/>
   </g>
   <g id="patch_6">
    <path d="M 0 3.456 
L 460.8 3.456 
" style="fill: none; stroke: #000000; stroke-width: 0.8; stroke-linejoin: miter; stroke-linecap: square"/>
   </g>
   <g id="text_6">
    <!-- {f15-f19}, 5-D -->
    <g transform="translate(305.884 287.95392) scale(0.2 -0.2)">
     <defs>
      <path id="DejaVuSans-7b" d="M 3272 -594 
L 3272 -1044 
L 3078 -1044 
Q 2300 -1044 2036 -812 
Q 1772 -581 1772 109 
L 1772 856 
Q 1772 1328 1603 1509 
Q 1434 1691 991 1691 
L 800 1691 
L 800 2138 
L 991 2138 
Q 1438 2138 1605 2317 
Q 1772 2497 1772 2963 
L 1772 3713 
Q 1772 4403 2036 4633 
Q 2300 4863 3078 4863 
L 3272 4863 
L 3272 4416 
L 3059 4416 
Q 2619 4416 2484 4278 
Q 2350 4141 2350 3700 
L 2350 2925 
Q 2350 2434 2208 2212 
Q 2066 1991 1722 1913 
Q 2069 1828 2209 1606 
Q 2350 1384 2350 897 
L 2350 122 
Q 2350 -319 2484 -456 
Q 2619 -594 3059 -594 
L 3272 -594 
z
" transform="scale(0.015625)"/>
      <path id="DejaVuSans-35" d="M 691 4666 
L 3169 4666 
L 3169 4134 
L 1269 4134 
L 1269 2991 
Q 1406 3038 1543 3061 
Q 1681 3084 1819 3084 
Q 2600 3084 3056 2656 
Q 3513 2228 3513 1497 
Q 3513 744 3044 326 
Q 2575 -91 1722 -91 
Q 1428 -91 1123 -41 
Q 819 9 494 109 
L 494 744 
Q 775 591 1075 516 
Q 1375 441 1709 441 
Q 2250 441 2565 725 
Q 2881 1009 2881 1497 
Q 2881 1984 2565 2268 
Q 2250 2553 1709 2553 
Q 1456 2553 1204 2497 
Q 953 2441 691 2322 
L 691 4666 
z
" transform="scale(0.015625)"/>
      <path id="DejaVuSans-39" d="M 703 97 
L 703 672 
Q 941 559 1184 500 
Q 1428 441 1663 441 
Q 2288 441 2617 861 
Q 2947 1281 2994 2138 
Q 2813 1869 2534 1725 
Q 2256 1581 1919 1581 
Q 1219 1581 811 2004 
Q 403 2428 403 3163 
Q 403 3881 828 4315 
Q 1253 4750 1959 4750 
Q 2769 4750 3195 4129 
Q 3622 3509 3622 2328 
Q 3622 1225 3098 567 
Q 2575 -91 1691 -91 
Q 1453 -91 1209 -44 
Q 966 3 703 97 
z
M 1959 2075 
Q 2384 2075 2632 2365 
Q 2881 2656 2881 3163 
Q 2881 3666 2632 3958 
Q 2384 4250 1959 4250 
Q 1534 4250 1286 3958 
Q 1038 3666 1038 3163 
Q 1038 2656 1286 2365 
Q 1534 2075 1959 2075 
z
" transform="scale(0.015625)"/>
      <path id="DejaVuSans-7d" d="M 800 -594 
L 1019 -594 
Q 1456 -594 1589 -459 
Q 1722 -325 1722 122 
L 1722 897 
Q 1722 1384 1862 1606 
Q 2003 1828 2350 1913 
Q 2003 1991 1862 2212 
Q 1722 2434 1722 2925 
L 1722 3700 
Q 1722 4144 1589 4280 
Q 1456 4416 1019 4416 
L 800 4416 
L 800 4863 
L 997 4863 
Q 1775 4863 2036 4633 
Q 2297 4403 2297 3713 
L 2297 2963 
Q 2297 2497 2465 2317 
Q 2634 2138 3078 2138 
L 3272 2138 
L 3272 1691 
L 3078 1691 
Q 2634 1691 2465 1509 
Q 2297 1328 2297 856 
L 2297 109 
Q 2297 -581 2036 -812 
Q 1775 -1044 997 -1044 
L 800 -1044 
L 800 -594 
z
" transform="scale(0.015625)"/>
      <path id="DejaVuSans-2c" d="M 750 794 
L 1409 794 
L 1409 256 
L 897 -744 
L 494 -744 
L 750 256 
L 750 794 
z
" transform="scale(0.015625)"/>
     </defs>
     <use xlink:href="#DejaVuSans-7b"/>
     <use xlink:href="#DejaVuSans-66" x="63.623047"/>
     <use xlink:href="#DejaVuSans-31" x="98.828125"/>
     <use xlink:href="#DejaVuSans-35" x="162.451172"/>
     <use xlink:href="#DejaVuSans-2d" x="226.074219"/>
     <use xlink:href="#DejaVuSans-66" x="262.158203"/>
     <use xlink:href="#DejaVuSans-31" x="297.363281"/>
     <use xlink:href="#DejaVuSans-39" x="360.986328"/>
     <use xlink:href="#DejaVuSans-7d" x="424.609375"/>
     <use xlink:href="#DejaVuSans-2c" x="488.232422"/>
     <use xlink:href="#DejaVuSans-20" x="520.019531"/>
     <use xlink:href="#DejaVuSans-35" x="551.806641"/>
     <use xlink:href="#DejaVuSans-2d" x="615.429688"/>
     <use xlink:href="#DejaVuSans-44" x="651.513672"/>
    </g>
   </g>
   <g id="text_7">
    <!-- v2.6.3 -->
    <g style="fill: #808080" transform="translate(214.71875 288.777272) scale(0.1 -0.1)">
     <defs>
      <path id="DejaVuSans-76" d="M 191 3500 
L 800 3500 
L 1894 563 
L 2988 3500 
L 3597 3500 
L 2284 0 
L 1503 0 
L 191 3500 
z
" transform="scale(0.015625)"/>
      <path id="DejaVuSans-32" d="M 1228 531 
L 3431 531 
L 3431 0 
L 469 0 
L 469 531 
Q 828 903 1448 1529 
Q 2069 2156 2228 2338 
Q 2531 2678 2651 2914 
Q 2772 3150 2772 3378 
Q 2772 3750 2511 3984 
Q 2250 4219 1831 4219 
Q 1534 4219 1204 4116 
Q 875 4013 500 3803 
L 500 4441 
Q 881 4594 1212 4672 
Q 1544 4750 1819 4750 
Q 2544 4750 2975 4387 
Q 3406 4025 3406 3419 
Q 3406 3131 3298 2873 
Q 3191 2616 2906 2266 
Q 2828 2175 2409 1742 
Q 1991 1309 1228 531 
z
" transform="scale(0.015625)"/>
      <path id="DejaVuSans-2e" d="M 684 794 
L 1344 794 
L 1344 0 
L 684 0 
L 684 794 
z
" transform="scale(0.015625)"/>
      <path id="DejaVuSans-36" d="M 2113 2584 
Q 1688 2584 1439 2293 
Q 1191 2003 1191 1497 
Q 1191 994 1439 701 
Q 1688 409 2113 409 
Q 2538 409 2786 701 
Q 3034 994 3034 1497 
Q 3034 2003 2786 2293 
Q 2538 2584 2113 2584 
z
M 3366 4563 
L 3366 3988 
Q 3128 4100 2886 4159 
Q 2644 4219 2406 4219 
Q 1781 4219 1451 3797 
Q 1122 3375 1075 2522 
Q 1259 2794 1537 2939 
Q 1816 3084 2150 3084 
Q 2853 3084 3261 2657 
Q 3669 2231 3669 1497 
Q 3669 778 3244 343 
Q 2819 -91 2113 -91 
Q 1303 -91 875 529 
Q 447 1150 447 2328 
Q 447 3434 972 4092 
Q 1497 4750 2381 4750 
Q 2619 4750 2861 4703 
Q 3103 4656 3366 4563 
z
" transform="scale(0.015625)"/>
      <path id="DejaVuSans-33" d="M 2597 2516 
Q 3050 2419 3304 2112 
Q 3559 1806 3559 1356 
Q 3559 666 3084 287 
Q 2609 -91 1734 -91 
Q 1441 -91 1130 -33 
Q 819 25 488 141 
L 488 750 
Q 750 597 1062 519 
Q 1375 441 1716 441 
Q 2309 441 2620 675 
Q 2931 909 2931 1356 
Q 2931 1769 2642 2001 
Q 2353 2234 1838 2234 
L 1294 2234 
L 1294 2753 
L 1863 2753 
Q 2328 2753 2575 2939 
Q 2822 3125 2822 3475 
Q 2822 3834 2567 4026 
Q 2313 4219 1838 4219 
Q 1578 4219 1281 4162 
Q 984 4106 628 3988 
L 628 4550 
Q 988 4650 1302 4700 
Q 1616 4750 1894 4750 
Q 2613 4750 3031 4423 
Q 3450 4097 3450 3541 
Q 3450 3153 3228 2886 
Q 3006 2619 2597 2516 
z
" transform="scale(0.015625)"/>
     </defs>
     <use xlink:href="#DejaVuSans-76"/>
     <use xlink:href="#DejaVuSans-32" x="59.179688"/>
     <use xlink:href="#DejaVuSans-2e" x="122.802734"/>
     <use xlink:href="#DejaVuSans-36" x="154.589844"/>
     <use xlink:href="#DejaVuSans-2e" x="218.212891"/>
     <use xlink:href="#DejaVuSans-33" x="250"/>
    </g>
   </g>
  </g>
 </g>
 <defs>
  <clipPath id="p6048e43103">
   <rect x="0" y="3.456" width="460.8" height="290.304"/>
  </clipPath>
 </defs>
</svg>
