<?xml version="1.0" encoding="utf-8" standalone="no"?>
<!DOCTYPE svg PUBLIC "-//W3C//DTD SVG 1.1//EN"
  "http://www.w3.org/Graphics/SVG/1.1/DTD/svg11.dtd">
<svg xmlns:xlink="http://www.w3.org/1999/xlink" width="460.8pt" height="345.6pt" viewBox="0 0 460.8 345.6" xmlns="http://www.w3.org/2000/svg" version="1.1">
 <metadata>
  <rdf:RDF xmlns:dc="http://purl.org/dc/elements/1.1/" xmlns:cc="http://creativecommons.org/ns#" xmlns:rdf="http://www.w3.org/1999/02/22-rdf-syntax-ns#">
   <cc:Work>
    <dc:type rdf:resource="http://purl.org/dc/dcmitype/StillImage"/>
    <dc:date>2024-06-21T19:46:24.698643</dc:date>
    <dc:format>image/svg+xml</dc:format>
    <dc:creator>
     <cc:Agent>
      <dc:title>Matplotlib v3.7.5, https://matplotlib.org/</dc:title>
     </cc:Agent>
    </dc:creator>
   </cc:Work>
  </rdf:RDF>
 </metadata>
 <defs>
  <style type="text/css">*{stroke-linejoin: round; stroke-linecap: butt}</style>
 </defs>
 <g id="figure_1">
  <g id="patch_1">
   <path d="M 0 345.6 
L 460.8 345.6 
L 460.8 0 
L 0 0 
z
" style="fill: #ffffff"/>
  </g>
  <g id="axes_1">
   <g id="patch_2">
    <path d="M 0 293.76 
L 460.8 293.76 
L 460.8 3.456 
L 0 3.456 
z
" style="fill: #ffffff"/>
   </g>
   <g id="matplotlib.axis_1">
    <g id="xtick_1">
     <g id="line2d_1">
      <path d="M 93.065885 293.76 
L 93.065885 3.456 
" clip-path="url(#paa1748a8be)" style="fill: none; stroke: #b0b0b0; stroke-width: 0.8; stroke-linecap: square"/>
     </g>
     <g id="line2d_2">
      <defs>
       <path id="m435d799e43" d="M 0 0 
L 0 3.5 
" style="stroke: #000000; stroke-width: 0.8"/>
      </defs>
      <g>
       <use xlink:href="#m435d799e43" x="93.065885" y="293.76" style="stroke: #000000; stroke-width: 0.8"/>
      </g>
     </g>
     <g id="text_1">
      <!-- -4 -->
      <g transform="translate(83.095573 315.956875) scale(0.2 -0.2)">
       <defs>
        <path id="DejaVuSans-2d" d="M 313 2009 
L 1997 2009 
L 1997 1497 
L 313 1497 
L 313 2009 
z
" transform="scale(0.015625)"/>
        <path id="DejaVuSans-34" d="M 2419 4116 
L 825 1625 
L 2419 1625 
L 2419 4116 
z
M 2253 4666 
L 3047 4666 
L 3047 1625 
L 3713 1625 
L 3713 1100 
L 3047 1100 
L 3047 0 
L 2419 0 
L 2419 1100 
L 313 1100 
L 313 1709 
L 2253 4666 
z
" transform="scale(0.015625)"/>
       </defs>
       <use xlink:href="#DejaVuSans-2d"/>
       <use xlink:href="#DejaVuSans-34" x="36.083984"/>
      </g>
     </g>
    </g>
    <g id="xtick_2">
     <g id="line2d_3">
      <path d="M 186.232423 293.76 
L 186.232423 3.456 
" clip-path="url(#paa1748a8be)" style="fill: none; stroke: #b0b0b0; stroke-width: 0.8; stroke-linecap: square"/>
     </g>
     <g id="line2d_4">
      <g>
       <use xlink:href="#m435d799e43" x="186.232423" y="293.76" style="stroke: #000000; stroke-width: 0.8"/>
      </g>
     </g>
     <g id="text_2">
      <!-- 0 -->
      <g transform="translate(179.869923 315.956875) scale(0.2 -0.2)">
       <defs>
        <path id="DejaVuSans-30" d="M 2034 4250 
Q 1547 4250 1301 3770 
Q 1056 3291 1056 2328 
Q 1056 1369 1301 889 
Q 1547 409 2034 409 
Q 2525 409 2770 889 
Q 3016 1369 3016 2328 
Q 3016 3291 2770 3770 
Q 2525 4250 2034 4250 
z
M 2034 4750 
Q 2819 4750 3233 4129 
Q 3647 3509 3647 2328 
Q 3647 1150 3233 529 
Q 2819 -91 2034 -91 
Q 1250 -91 836 529 
Q 422 1150 422 2328 
Q 422 3509 836 4129 
Q 1250 4750 2034 4750 
z
" transform="scale(0.015625)"/>
       </defs>
       <use xlink:href="#DejaVuSans-30"/>
      </g>
     </g>
    </g>
    <g id="xtick_3">
     <g id="line2d_5">
      <path d="M 279.39896 293.76 
L 279.39896 3.456 
" clip-path="url(#paa1748a8be)" style="fill: none; stroke: #b0b0b0; stroke-width: 0.8; stroke-linecap: square"/>
     </g>
     <g id="line2d_6">
      <g>
       <use xlink:href="#m435d799e43" x="279.39896" y="293.76" style="stroke: #000000; stroke-width: 0.8"/>
      </g>
     </g>
     <g id="text_3">
      <!-- 4 -->
      <g transform="translate(273.03646 315.956875) scale(0.2 -0.2)">
       <use xlink:href="#DejaVuSans-34"/>
      </g>
     </g>
    </g>
    <g id="xtick_4">
     <g id="line2d_7">
      <path d="M 372.565497 293.76 
L 372.565497 3.456 
" clip-path="url(#paa1748a8be)" style="fill: none; stroke: #b0b0b0; stroke-width: 0.8; stroke-linecap: square"/>
     </g>
     <g id="line2d_8">
      <g>
       <use xlink:href="#m435d799e43" x="372.565497" y="293.76" style="stroke: #000000; stroke-width: 0.8"/>
      </g>
     </g>
     <g id="text_4">
      <!-- 8 -->
      <g transform="translate(366.202997 315.956875) scale(0.2 -0.2)">
       <defs>
        <path id="DejaVuSans-38" d="M 2034 2216 
Q 1584 2216 1326 1975 
Q 1069 1734 1069 1313 
Q 1069 891 1326 650 
Q 1584 409 2034 409 
Q 2484 409 2743 651 
Q 3003 894 3003 1313 
Q 3003 1734 2745 1975 
Q 2488 2216 2034 2216 
z
M 1403 2484 
Q 997 2584 770 2862 
Q 544 3141 544 3541 
Q 544 4100 942 4425 
Q 1341 4750 2034 4750 
Q 2731 4750 3128 4425 
Q 3525 4100 3525 3541 
Q 3525 3141 3298 2862 
Q 3072 2584 2669 2484 
Q 3125 2378 3379 2068 
Q 3634 1759 3634 1313 
Q 3634 634 3220 271 
Q 2806 -91 2034 -91 
Q 1263 -91 848 271 
Q 434 634 434 1313 
Q 434 1759 690 2068 
Q 947 2378 1403 2484 
z
M 1172 3481 
Q 1172 3119 1398 2916 
Q 1625 2713 2034 2713 
Q 2441 2713 2670 2916 
Q 2900 3119 2900 3481 
Q 2900 3844 2670 4047 
Q 2441 4250 2034 4250 
Q 1625 4250 1398 4047 
Q 1172 3844 1172 3481 
z
" transform="scale(0.015625)"/>
       </defs>
       <use xlink:href="#DejaVuSans-38"/>
      </g>
     </g>
    </g>
    <g id="text_5">
     <!-- log10 of Df -->
     <g transform="translate(175.214063 339.313125) scale(0.2 -0.2)">
      <defs>
       <path id="DejaVuSans-6c" d="M 603 4863 
L 1178 4863 
L 1178 0 
L 603 0 
L 603 4863 
z
" transform="scale(0.015625)"/>
       <path id="DejaVuSans-6f" d="M 1959 3097 
Q 1497 3097 1228 2736 
Q 959 2375 959 1747 
Q 959 1119 1226 758 
Q 1494 397 1959 397 
Q 2419 397 2687 759 
Q 2956 1122 2956 1747 
Q 2956 2369 2687 2733 
Q 2419 3097 1959 3097 
z
M 1959 3584 
Q 2709 3584 3137 3096 
Q 3566 2609 3566 1747 
Q 3566 888 3137 398 
Q 2709 -91 1959 -91 
Q 1206 -91 779 398 
Q 353 888 353 1747 
Q 353 2609 779 3096 
Q 1206 3584 1959 3584 
z
" transform="scale(0.015625)"/>
       <path id="DejaVuSans-67" d="M 2906 1791 
Q 2906 2416 2648 2759 
Q 2391 3103 1925 3103 
Q 1463 3103 1205 2759 
Q 947 2416 947 1791 
Q 947 1169 1205 825 
Q 1463 481 1925 481 
Q 2391 481 2648 825 
Q 2906 1169 2906 1791 
z
M 3481 434 
Q 3481 -459 3084 -895 
Q 2688 -1331 1869 -1331 
Q 1566 -1331 1297 -1286 
Q 1028 -1241 775 -1147 
L 775 -588 
Q 1028 -725 1275 -790 
Q 1522 -856 1778 -856 
Q 2344 -856 2625 -561 
Q 2906 -266 2906 331 
L 2906 616 
Q 2728 306 2450 153 
Q 2172 0 1784 0 
Q 1141 0 747 490 
Q 353 981 353 1791 
Q 353 2603 747 3093 
Q 1141 3584 1784 3584 
Q 2172 3584 2450 3431 
Q 2728 3278 2906 2969 
L 2906 3500 
L 3481 3500 
L 3481 434 
z
" transform="scale(0.015625)"/>
       <path id="DejaVuSans-31" d="M 794 531 
L 1825 531 
L 1825 4091 
L 703 3866 
L 703 4441 
L 1819 4666 
L 2450 4666 
L 2450 531 
L 3481 531 
L 3481 0 
L 794 0 
L 794 531 
z
" transform="scale(0.015625)"/>
       <path id="DejaVuSans-20" transform="scale(0.015625)"/>
       <path id="DejaVuSans-66" d="M 2375 4863 
L 2375 4384 
L 1825 4384 
Q 1516 4384 1395 4259 
Q 1275 4134 1275 3809 
L 1275 3500 
L 2222 3500 
L 2222 3053 
L 1275 3053 
L 1275 0 
L 697 0 
L 697 3053 
L 147 3053 
L 147 3500 
L 697 3500 
L 697 3744 
Q 697 4328 969 4595 
Q 1241 4863 1831 4863 
L 2375 4863 
z
" transform="scale(0.015625)"/>
       <path id="DejaVuSans-44" d="M 1259 4147 
L 1259 519 
L 2022 519 
Q 2988 519 3436 956 
Q 3884 1394 3884 2338 
Q 3884 3275 3436 3711 
Q 2988 4147 2022 4147 
L 1259 4147 
z
M 628 4666 
L 1925 4666 
Q 3281 4666 3915 4102 
Q 4550 3538 4550 2338 
Q 4550 1131 3912 565 
Q 3275 0 1925 0 
L 628 0 
L 628 4666 
z
" transform="scale(0.015625)"/>
      </defs>
      <use xlink:href="#DejaVuSans-6c"/>
      <use xlink:href="#DejaVuSans-6f" x="27.783203"/>
      <use xlink:href="#DejaVuSans-67" x="88.964844"/>
      <use xlink:href="#DejaVuSans-31" x="152.441406"/>
      <use xlink:href="#DejaVuSans-30" x="216.064453"/>
      <use xlink:href="#DejaVuSans-20" x="279.6875"/>
      <use xlink:href="#DejaVuSans-6f" x="311.474609"/>
      <use xlink:href="#DejaVuSans-66" x="372.65625"/>
      <use xlink:href="#DejaVuSans-20" x="407.861328"/>
      <use xlink:href="#DejaVuSans-44" x="439.648438"/>
      <use xlink:href="#DejaVuSans-66" x="516.650391"/>
     </g>
    </g>
   </g>
   <g id="matplotlib.axis_2">
    <g id="ytick_1">
     <g id="line2d_9">
      <path d="M 0 293.76 
L 460.8 293.76 
" clip-path="url(#paa1748a8be)" style="fill: none; stroke: #b0b0b0; stroke-width: 0.8; stroke-linecap: square"/>
     </g>
     <g id="line2d_10">
      <defs>
       <path id="mfd50b249be" d="M 0 0 
L -3.5 0 
" style="stroke: #000000; stroke-width: 0.8"/>
      </defs>
      <g>
       <use xlink:href="#mfd50b249be" x="0" y="293.76" style="stroke: #000000; stroke-width: 0.8"/>
      </g>
     </g>
    </g>
    <g id="ytick_2">
     <g id="line2d_11">
      <path d="M 0 236.274059 
L 460.8 236.274059 
" clip-path="url(#paa1748a8be)" style="fill: none; stroke: #b0b0b0; stroke-width: 0.8; stroke-linecap: square"/>
     </g>
     <g id="line2d_12">
      <g>
       <use xlink:href="#mfd50b249be" x="0" y="236.274059" style="stroke: #000000; stroke-width: 0.8"/>
      </g>
     </g>
    </g>
    <g id="ytick_3">
     <g id="line2d_13">
      <path d="M 0 178.788119 
L 460.8 178.788119 
" clip-path="url(#paa1748a8be)" style="fill: none; stroke: #b0b0b0; stroke-width: 0.8; stroke-linecap: square"/>
     </g>
     <g id="line2d_14">
      <g>
       <use xlink:href="#mfd50b249be" x="0" y="178.788119" style="stroke: #000000; stroke-width: 0.8"/>
      </g>
     </g>
    </g>
    <g id="ytick_4">
     <g id="line2d_15">
      <path d="M 0 121.302178 
L 460.8 121.302178 
" clip-path="url(#paa1748a8be)" style="fill: none; stroke: #b0b0b0; stroke-width: 0.8; stroke-linecap: square"/>
     </g>
     <g id="line2d_16">
      <g>
       <use xlink:href="#mfd50b249be" x="0" y="121.302178" style="stroke: #000000; stroke-width: 0.8"/>
      </g>
     </g>
    </g>
    <g id="ytick_5">
     <g id="line2d_17">
      <path d="M 0 63.816238 
L 460.8 63.816238 
" clip-path="url(#paa1748a8be)" style="fill: none; stroke: #b0b0b0; stroke-width: 0.8; stroke-linecap: square"/>
     </g>
     <g id="line2d_18">
      <g>
       <use xlink:href="#mfd50b249be" x="0" y="63.816238" style="stroke: #000000; stroke-width: 0.8"/>
      </g>
     </g>
    </g>
    <g id="ytick_6">
     <g id="line2d_19">
      <path d="M 0 6.330297 
L 460.8 6.330297 
" clip-path="url(#paa1748a8be)" style="fill: none; stroke: #b0b0b0; stroke-width: 0.8; stroke-linecap: square"/>
     </g>
     <g id="line2d_20">
      <g>
       <use xlink:href="#mfd50b249be" x="0" y="6.330297" style="stroke: #000000; stroke-width: 0.8"/>
      </g>
     </g>
    </g>
   </g>
   <g id="line2d_21">
    <path d="M -1 254.637624 
L -0.100652 254.637624 
L -0.100652 166.811881 
L 7.527963 166.811881 
L 7.527963 166.013465 
L 16.946846 166.013465 
L 16.946846 165.21505 
L 59.2733 165.21505 
L 59.2733 164.416634 
L 66.64006 164.416634 
L 66.64006 163.618218 
L 72.354068 163.618218 
L 72.354068 162.819802 
L 73.742095 162.819802 
L 73.742095 162.021386 
L 76.441746 162.021386 
L 76.441746 161.22297 
L 87.645527 161.22297 
L 87.645527 160.424554 
L 88.138525 160.424554 
L 88.138525 159.626139 
L 96.114985 159.626139 
L 96.114985 158.827723 
L 99.316852 158.827723 
L 99.316852 158.029307 
L 105.58315 158.029307 
L 105.58315 157.230891 
L 108.917854 157.230891 
L 108.917854 156.432475 
L 120.548866 156.432475 
L 120.548866 155.634059 
L 125.036769 155.634059 
L 125.036769 154.835644 
L 131.644728 154.835644 
L 131.644728 154.037228 
L 137.460171 154.037228 
L 137.494238 152.440396 
L 139.520802 152.440396 
L 139.520802 151.64198 
L 140.583698 151.64198 
L 140.583698 150.843564 
L 147.946935 150.843564 
L 147.946935 150.045149 
L 151.03051 150.045149 
L 151.03051 149.246733 
L 152.280423 149.246733 
L 152.280423 148.448317 
L 153.196289 148.448317 
L 153.196289 147.649901 
L 155.511632 147.649901 
L 155.511632 146.851485 
L 156.467676 146.851485 
L 156.467676 146.053069 
L 158.752641 146.053069 
L 158.752641 145.254653 
L 159.53034 145.254653 
L 159.53034 144.456238 
L 160.477519 144.456238 
L 160.477519 143.657822 
L 162.556041 143.657822 
L 162.556041 142.859406 
L 165.066749 142.859406 
L 165.066749 142.06099 
L 165.757272 142.06099 
L 165.757272 141.262574 
L 167.289881 141.262574 
L 167.289881 140.464158 
L 168.472857 140.464158 
L 168.472857 139.665743 
L 168.801991 139.665743 
L 168.858381 138.068911 
L 169.667216 138.068911 
L 169.667216 137.270495 
L 169.89627 137.270495 
L 169.89627 136.472079 
L 170.088249 136.472079 
L 170.088249 135.673663 
L 170.352665 135.673663 
L 170.352665 134.875248 
L 170.476894 134.875248 
L 170.476894 134.076832 
L 172.32051 134.076832 
L 172.32051 133.278416 
L 173.302762 133.278416 
L 173.302762 132.48 
L 174.283622 132.48 
L 174.283622 131.681584 
L 175.369565 131.681584 
L 175.371577 130.084752 
L 175.60002 130.084752 
L 175.699199 128.487921 
L 176.729931 128.487921 
L 176.729931 127.689505 
L 177.176811 127.689505 
L 177.176811 126.891089 
L 177.310826 126.891089 
L 177.310826 126.092673 
L 177.576861 126.092673 
L 177.576861 125.294257 
L 178.621668 125.294257 
L 178.621668 124.495842 
L 179.115201 124.495842 
L 179.168326 122.89901 
L 179.380835 122.89901 
L 179.459584 121.302178 
L 179.510844 121.302178 
L 179.510844 120.503762 
L 179.809831 120.503762 
L 179.809831 119.705347 
L 180.041905 119.705347 
L 180.041905 118.906931 
L 180.232416 118.906931 
L 180.232416 118.108515 
L 180.836469 118.108515 
L 180.836469 117.310099 
L 182.053696 117.310099 
L 182.053696 116.511683 
L 182.50614 116.511683 
L 182.50614 112.519604 
L 183.218477 112.519604 
L 183.218477 111.721188 
L 184.791447 111.721188 
L 184.791447 110.922772 
L 185.049792 110.922772 
L 185.091285 109.325941 
L 185.256537 109.325941 
L 185.256537 108.527525 
L 185.498311 108.527525 
L 185.498311 107.729109 
L 185.97152 107.729109 
L 185.97152 106.930693 
L 186.252325 106.930693 
L 186.252325 106.132277 
L 186.855352 106.132277 
L 186.878618 104.535446 
L 186.993072 104.535446 
L 186.993072 103.73703 
L 187.246385 103.73703 
L 187.246385 102.140198 
L 187.521536 102.140198 
L 187.580683 100.543366 
L 187.754565 100.543366 
L 187.772367 98.148119 
L 187.980481 98.148119 
L 187.980481 97.349703 
L 188.26652 97.349703 
L 188.362289 95.752871 
L 188.451148 95.752871 
L 188.451148 94.15604 
L 188.597231 94.15604 
L 188.597231 93.357624 
L 188.734342 93.357624 
L 188.746173 91.760792 
L 189.592927 91.760792 
L 189.592927 90.962376 
L 189.769971 90.962376 
L 189.789375 88.567129 
L 190.335535 88.567129 
L 190.436219 86.171881 
L 190.467066 86.171881 
L 190.467066 85.373465 
L 190.651517 85.373465 
L 190.651517 84.57505 
L 191.161921 84.57505 
L 191.161921 83.776634 
L 191.47283 83.776634 
L 191.582109 82.179802 
L 191.860936 82.179802 
L 191.860936 81.381386 
L 192.19509 81.381386 
L 192.19509 80.58297 
L 193.013701 80.58297 
L 193.013701 78.986139 
L 193.192783 78.986139 
L 193.240792 76.590891 
L 193.31215 76.590891 
L 193.31215 75.792475 
L 193.623516 75.792475 
L 193.623516 74.994059 
L 194.165273 74.994059 
L 194.165273 74.195644 
L 194.60637 74.195644 
L 194.60637 73.397228 
L 195.058594 73.397228 
L 195.058594 72.598812 
L 195.306911 72.598812 
L 195.391148 70.203564 
L 195.860988 70.203564 
L 195.860988 68.606733 
L 197.294236 68.606733 
L 197.367726 66.211485 
L 197.902291 66.211485 
L 197.902291 65.413069 
L 199.26857 65.413069 
L 199.26857 64.614653 
L 200.078957 64.614653 
L 200.078957 63.017822 
L 200.204263 63.017822 
L 200.267942 61.42099 
L 202.461446 61.42099 
L 202.461456 55.832079 
L 202.63871 55.832079 
L 202.63871 55.033663 
L 202.961903 55.033663 
L 203.041737 51.84 
L 204.305708 51.84 
L 204.326351 46.251089 
L 204.623138 46.251089 
L 204.623138 45.452673 
L 204.75958 45.452673 
L 204.75958 44.654257 
L 204.918921 44.654257 
L 204.918921 43.855842 
L 205.203108 43.855842 
L 205.203108 43.057426 
L 205.501305 43.057426 
L 205.501305 42.25901 
L 205.865009 42.25901 
L 205.865009 38.266931 
L 206.301234 38.266931 
L 206.301234 37.468515 
L 207.215731 37.468515 
L 207.215738 35.073267 
L 208.164945 35.073267 
L 208.164945 34.274851 
L 208.407158 34.274851 
L 208.513163 28.685941 
L 208.646563 28.685941 
L 208.646563 27.887525 
L 209.029153 27.887525 
L 209.029153 27.089109 
L 209.266542 27.089109 
L 209.366439 25.492277 
L 209.472926 25.492277 
L 209.472926 24.693861 
L 210.238456 24.693861 
L 210.32155 23.09703 
L 210.437012 23.09703 
L 210.437012 22.298614 
L 210.603022 22.298614 
L 210.603022 21.500198 
L 211.317172 21.500198 
L 211.317172 20.701782 
L 211.589061 20.701782 
L 211.589061 19.903366 
L 211.968404 19.903366 
L 211.968404 19.10495 
L 212.126852 19.10495 
L 212.219673 17.508119 
L 212.876472 17.508119 
L 212.876472 16.709703 
L 213.574366 16.709703 
L 213.574366 15.911287 
L 215.083936 15.911287 
L 215.083936 15.112871 
L 215.418628 15.112871 
L 215.418628 14.314455 
L 215.630498 14.314455 
L 215.630498 13.51604 
L 216.329245 13.51604 
L 216.329245 12.717624 
L 216.484386 12.717624 
L 216.484386 11.919208 
L 216.977899 11.919208 
L 216.977899 11.120792 
L 217.89814 11.120792 
L 217.89814 8.725545 
L 218.32865 8.725545 
L 218.32865 7.927129 
L 219.138245 7.927129 
L 219.138245 7.128713 
L 220.242894 7.128713 
L 220.242894 6.330297 
L 220.242894 6.330297 
L 460.8 6.330297 
L 460.8 6.330297 
" clip-path="url(#paa1748a8be)" style="fill: none; stroke: #ff0000; stroke-width: 3; stroke-linecap: square"/>
   </g>
   <g id="line2d_22">
    <path d="M 199.043048 293.76 
L 199.043048 292.961584 
L 200.077733 292.961584 
L 200.077733 292.163168 
L 203.879304 292.163168 
L 203.879304 291.364752 
L 205.593516 291.364752 
L 205.593516 290.566337 
L 209.211812 290.566337 
L 209.211812 289.767921 
L 210.002071 289.767921 
L 210.002071 288.969505 
L 210.197864 288.969505 
L 210.197864 288.171089 
L 210.745115 288.171089 
L 210.745115 287.372673 
L 211.428912 287.372673 
L 211.428912 286.574257 
L 211.881384 286.574257 
L 211.881384 285.775842 
L 212.152438 285.775842 
L 212.152438 284.977426 
L 212.814325 284.977426 
L 212.814325 284.17901 
L 213.394015 284.17901 
L 213.415756 282.582178 
L 214.011346 282.582178 
L 214.011346 281.783762 
L 214.635295 281.783762 
L 214.720649 279.388515 
L 215.022041 279.388515 
L 215.110422 277.791683 
L 215.387393 277.791683 
L 215.387393 276.993267 
L 215.500929 276.993267 
L 215.500929 276.194851 
L 215.705127 276.194851 
L 215.761833 274.59802 
L 215.877939 274.59802 
L 215.955536 271.404356 
L 216.005995 271.404356 
L 216.005995 270.605941 
L 216.738809 270.605941 
L 216.738809 269.807525 
L 217.081269 269.807525 
L 217.164167 267.412277 
L 217.31435 267.412277 
L 217.31435 266.613861 
L 217.515313 266.613861 
L 217.515313 265.815446 
L 218.199849 265.815446 
L 218.202549 264.218614 
L 218.36146 264.218614 
L 218.36146 263.420198 
L 218.739812 263.420198 
L 218.739812 262.621782 
L 219.245531 262.621782 
L 219.245531 261.823366 
L 219.538075 261.823366 
L 219.562136 260.226535 
L 219.703226 260.226535 
L 219.703226 259.428119 
L 219.874274 259.428119 
L 219.965836 257.831287 
L 219.989428 257.831287 
L 219.989428 257.032871 
L 220.143598 257.032871 
L 220.143598 256.234455 
L 220.457135 256.234455 
L 220.457135 255.43604 
L 220.615155 255.43604 
L 220.615155 254.637624 
L 220.927961 254.637624 
L 221.004482 253.040792 
L 221.701583 253.040792 
L 221.701583 252.242376 
L 222.101282 252.242376 
L 222.101282 251.44396 
L 222.296453 251.44396 
L 222.296453 250.645545 
L 222.696949 250.645545 
L 222.696949 249.847129 
L 222.894523 249.847129 
L 222.984707 248.250297 
L 223.011589 248.250297 
L 223.011589 247.451881 
L 223.498395 247.451881 
L 223.498395 246.653465 
L 223.893866 246.653465 
L 223.989527 241.86297 
L 224.228781 241.86297 
L 224.228781 241.064554 
L 224.470734 241.064554 
L 224.470734 240.266139 
L 224.620554 240.266139 
L 224.665603 238.669307 
L 224.838061 238.669307 
L 224.942187 236.274059 
L 224.97347 236.274059 
L 224.97347 235.475644 
L 225.116335 235.475644 
L 225.116335 234.677228 
L 225.2753 234.677228 
L 225.2753 233.878812 
L 225.467001 233.878812 
L 225.467001 233.080396 
L 225.648272 233.080396 
L 225.648272 232.28198 
L 226.160753 232.28198 
L 226.202781 229.886733 
L 226.314122 229.886733 
L 226.314122 229.088317 
L 226.515335 229.088317 
L 226.559171 227.491485 
L 226.681009 227.491485 
L 226.685077 225.894653 
L 226.968426 225.894653 
L 227.032835 223.499406 
L 227.103963 223.499406 
L 227.199812 221.104158 
L 227.6734 221.104158 
L 227.759935 219.507327 
L 227.893253 219.507327 
L 227.993503 217.910495 
L 228.242535 217.910495 
L 228.287873 216.313663 
L 228.418009 216.313663 
L 228.454106 214.716832 
L 228.647182 214.716832 
L 228.700455 213.12 
L 228.804979 213.12 
L 228.804979 212.321584 
L 228.945479 212.321584 
L 229.039395 209.926337 
L 229.161577 209.926337 
L 229.268444 206.732673 
L 229.328541 206.732673 
L 229.352676 204.337426 
L 229.457028 204.337426 
L 229.494932 202.740594 
L 229.585778 202.740594 
L 229.629904 201.143762 
L 229.984891 201.143762 
L 230.06867 198.748515 
L 230.103299 198.748515 
L 230.203267 197.151683 
L 230.266218 197.151683 
L 230.266218 195.554851 
L 230.410916 195.554851 
L 230.493426 193.95802 
L 230.748942 193.95802 
L 230.846961 190.764356 
L 230.864598 190.764356 
L 230.864598 189.965941 
L 231.050256 189.965941 
L 231.050256 189.167525 
L 231.181092 189.167525 
L 231.282866 187.570693 
L 231.295976 187.570693 
L 231.333028 185.973861 
L 231.84368 185.973861 
L 231.860168 184.37703 
L 232.208571 184.37703 
L 232.208571 183.578614 
L 232.344991 183.578614 
L 232.344991 182.780198 
L 232.664895 182.780198 
L 232.664895 181.981782 
L 232.828639 181.981782 
L 232.828639 181.183366 
L 233.259661 181.183366 
L 233.368519 179.586535 
L 233.508641 179.586535 
L 233.573466 177.989703 
L 233.983149 177.989703 
L 234.013972 176.392871 
L 234.209133 176.392871 
L 234.209133 175.594455 
L 234.348745 175.594455 
L 234.356704 173.997624 
L 234.65447 173.997624 
L 234.65447 173.199208 
L 234.768617 173.199208 
L 234.768617 172.400792 
L 234.959622 172.400792 
L 234.959622 171.602376 
L 235.097868 171.602376 
L 235.144925 170.005545 
L 235.719275 170.005545 
L 235.813597 166.013465 
L 235.897156 166.013465 
L 235.897156 165.21505 
L 236.184385 165.21505 
L 236.184385 164.416634 
L 236.424343 164.416634 
L 236.424343 163.618218 
L 236.624468 163.618218 
L 236.624468 162.819802 
L 236.779293 162.819802 
L 236.779293 162.021386 
L 237.29163 162.021386 
L 237.307992 160.424554 
L 237.508779 160.424554 
L 237.508779 159.626139 
L 237.64774 159.626139 
L 237.69192 158.029307 
L 238.034655 158.029307 
L 238.097622 156.432475 
L 238.168741 156.432475 
L 238.168741 155.634059 
L 238.829343 155.634059 
L 238.829343 154.835644 
L 239.530529 154.835644 
L 239.625791 153.238812 
L 239.701556 153.238812 
L 239.701556 152.440396 
L 239.896687 152.440396 
L 239.896687 151.64198 
L 240.327669 151.64198 
L 240.327669 150.843564 
L 240.443206 150.843564 
L 240.471413 149.246733 
L 241.042674 149.246733 
L 241.042674 148.448317 
L 241.746168 148.448317 
L 241.746168 147.649901 
L 242.085605 147.649901 
L 242.085605 146.851485 
L 242.981359 146.851485 
L 242.981359 146.053069 
L 243.145362 146.053069 
L 243.199344 144.456238 
L 243.453035 144.456238 
L 243.556537 142.859406 
L 243.586465 142.859406 
L 243.586465 142.06099 
L 243.913566 142.06099 
L 243.913566 141.262574 
L 244.082739 141.262574 
L 244.082739 140.464158 
L 244.275341 140.464158 
L 244.275341 139.665743 
L 245.10673 139.665743 
L 245.20046 137.270495 
L 245.360997 137.270495 
L 245.428742 134.875248 
L 245.65103 134.875248 
L 245.65103 134.076832 
L 246.134475 134.076832 
L 246.161727 132.48 
L 246.246559 132.48 
L 246.316122 130.883168 
L 246.494428 130.883168 
L 246.521068 129.286337 
L 246.878845 129.286337 
L 246.878845 128.487921 
L 247.615861 128.487921 
L 247.688999 126.891089 
L 248.327399 126.891089 
L 248.327399 126.092673 
L 248.601054 126.092673 
L 248.681047 124.495842 
L 248.745254 124.495842 
L 248.745254 123.697426 
L 250.813899 123.697426 
L 250.813899 122.89901 
L 252.13067 122.89901 
L 252.136697 121.302178 
L 252.441979 121.302178 
L 252.441979 120.503762 
L 252.644816 120.503762 
L 252.644816 119.705347 
L 253.723768 119.705347 
L 253.723768 118.906931 
L 254.021306 118.906931 
L 254.051393 117.310099 
L 254.278878 117.310099 
L 254.278878 116.511683 
L 255.587354 116.511683 
L 255.587354 115.713267 
L 255.791279 115.713267 
L 255.870046 114.116436 
L 256.102808 114.116436 
L 256.102808 113.31802 
L 256.416072 113.31802 
L 256.416072 112.519604 
L 256.720483 112.519604 
L 256.767781 110.922772 
L 257.276188 110.922772 
L 257.349981 109.325941 
L 257.678987 109.325941 
L 257.678987 108.527525 
L 258.464545 108.527525 
L 258.464545 107.729109 
L 258.615139 107.729109 
L 258.615139 106.930693 
L 259.151914 106.930693 
L 259.151914 106.132277 
L 260.432055 106.132277 
L 260.432055 105.333861 
L 260.71947 105.333861 
L 260.71947 104.535446 
L 261.601321 104.535446 
L 261.601321 103.73703 
L 262.22533 103.73703 
L 262.22533 102.938614 
L 262.454481 102.938614 
L 262.454481 102.140198 
L 265.452402 102.140198 
L 265.452402 101.341782 
L 269.505674 101.341782 
L 269.505674 100.543366 
L 275.944042 100.543366 
L 275.944042 99.74495 
L 277.805519 99.74495 
L 277.805519 98.946535 
L 278.473038 98.946535 
L 278.473038 98.148119 
L 278.893561 98.148119 
L 278.893561 97.349703 
L 281.876061 97.349703 
L 281.876061 96.551287 
L 282.95973 96.551287 
L 282.961754 94.15604 
L 283.412317 94.15604 
L 283.506281 92.559208 
L 283.852829 92.559208 
L 283.870954 90.962376 
L 284.504533 90.962376 
L 284.504533 90.16396 
L 285.151257 90.16396 
L 285.151257 89.365545 
L 285.339271 89.365545 
L 285.339271 88.567129 
L 286.270428 88.567129 
L 286.270428 87.768713 
L 287.953987 87.768713 
L 287.953987 86.970297 
L 288.433568 86.970297 
L 288.433568 86.171881 
L 289.27983 86.171881 
L 289.27983 85.373465 
L 290.42904 85.373465 
L 290.42904 84.57505 
L 290.909176 84.57505 
L 290.909176 83.776634 
L 291.180501 83.776634 
L 291.219972 82.179802 
L 291.545914 82.179802 
L 291.655707 80.58297 
L 291.724707 80.58297 
L 291.724707 79.784554 
L 291.999242 79.784554 
L 291.999242 78.986139 
L 292.570752 78.986139 
L 292.599019 77.389307 
L 292.966419 77.389307 
L 292.966419 76.590891 
L 293.379206 76.590891 
L 293.379206 75.792475 
L 294.100477 75.792475 
L 294.100477 74.994059 
L 297.357953 74.994059 
L 297.380796 73.397228 
L 297.866973 73.397228 
L 297.888316 71.800396 
L 298.361371 71.800396 
L 298.361371 71.00198 
L 298.48943 71.00198 
L 298.48943 70.203564 
L 299.15033 70.203564 
L 299.186505 68.606733 
L 299.389882 68.606733 
L 299.389882 67.808317 
L 299.611682 67.808317 
L 299.611682 67.009901 
L 300.297874 67.009901 
L 300.297874 66.211485 
L 301.018316 66.211485 
L 301.018316 65.413069 
L 301.962717 65.413069 
L 301.962717 64.614653 
L 302.235173 64.614653 
L 302.235173 63.816238 
L 302.40238 63.816238 
L 302.40238 63.017822 
L 303.036952 63.017822 
L 303.052527 61.42099 
L 303.823075 61.42099 
L 303.840098 59.824158 
L 304.213849 59.824158 
L 304.213849 59.025743 
L 304.842375 59.025743 
L 304.842375 58.227327 
L 306.618529 58.227327 
L 306.618529 57.428911 
L 308.04093 57.428911 
L 308.04093 56.630495 
L 308.747402 56.630495 
L 308.747402 55.832079 
L 308.89128 55.832079 
L 308.89128 55.033663 
L 310.738963 55.033663 
L 310.738963 54.235248 
L 312.573877 54.235248 
L 312.573877 53.436832 
L 313.177298 53.436832 
L 313.255836 51.84 
L 313.76346 51.84 
L 313.76346 51.041584 
L 313.949451 51.041584 
L 313.995965 49.444752 
L 315.17937 49.444752 
L 315.17937 48.646337 
L 315.990035 48.646337 
L 315.990035 47.847921 
L 317.851181 47.847921 
L 317.851181 47.049505 
L 318.675804 47.049505 
L 318.675804 46.251089 
L 319.138118 46.251089 
L 319.138118 45.452673 
L 319.890848 45.452673 
L 319.890848 44.654257 
L 320.529839 44.654257 
L 320.529839 43.855842 
L 324.411648 43.855842 
L 324.411648 43.057426 
L 326.03162 43.057426 
L 326.03162 42.25901 
L 326.558937 42.25901 
L 326.558937 41.460594 
L 329.267657 41.460594 
L 329.267657 40.662178 
L 331.31813 40.662178 
L 331.31813 39.863762 
L 331.470117 39.863762 
L 331.470117 39.065347 
L 331.719885 39.065347 
L 331.723385 37.468515 
L 332.500985 37.468515 
L 332.564209 35.871683 
L 334.115043 35.871683 
L 334.115043 35.073267 
L 334.505944 35.073267 
L 334.505944 34.274851 
L 334.94271 34.274851 
L 334.94271 33.476436 
L 335.092093 33.476436 
L 335.092093 32.67802 
L 335.615809 32.67802 
L 335.615809 31.879604 
L 335.939094 31.879604 
L 335.939094 31.081188 
L 336.523317 31.081188 
L 336.523317 30.282772 
L 336.964036 30.282772 
L 336.964036 29.484356 
L 340.149597 29.484356 
L 340.149597 28.685941 
L 341.071504 28.685941 
L 341.071504 27.887525 
L 343.203265 27.887525 
L 343.203265 27.089109 
L 344.512935 27.089109 
L 344.512935 26.290693 
L 347.449227 26.290693 
L 347.522341 24.693861 
L 347.858837 24.693861 
L 347.858837 23.895446 
L 348.140739 23.895446 
L 348.140739 23.09703 
L 348.800498 23.09703 
L 348.879917 21.500198 
L 351.25277 21.500198 
L 351.25277 20.701782 
L 352.212804 20.701782 
L 352.212804 19.903366 
L 353.434422 19.903366 
L 353.434422 19.10495 
L 354.479595 19.10495 
L 354.479595 18.306535 
L 354.631653 18.306535 
L 354.631653 17.508119 
L 356.031989 17.508119 
L 356.031989 16.709703 
L 360.912591 16.709703 
L 360.912591 15.911287 
L 364.164158 15.911287 
L 364.164158 15.112871 
L 365.570958 15.112871 
L 365.570958 14.314455 
L 366.067567 14.314455 
L 366.067567 13.51604 
L 370.666025 13.51604 
L 370.666025 12.717624 
L 372.484309 12.717624 
L 372.484309 11.919208 
L 372.67263 11.919208 
L 372.712117 10.322376 
L 373.102644 10.322376 
L 373.102644 9.52396 
L 381.995801 9.52396 
L 381.995801 8.725545 
L 385.073301 8.725545 
L 385.073301 7.927129 
L 399.145298 7.927129 
L 399.145298 7.128713 
L 430.363592 7.128713 
L 430.363592 6.330297 
L 430.363592 6.330297 
L 460.8 6.330297 
L 460.8 6.330297 
" clip-path="url(#paa1748a8be)" style="fill: none; stroke: #00bfbf; stroke-width: 1.5; stroke-linecap: square"/>
   </g>
   <g id="line2d_23">
    <path d="M 199.043048 293.76 
L 199.132488 292.163168 
L 200.077733 292.163168 
L 200.077733 291.364752 
L 203.879304 291.364752 
L 203.879304 290.566337 
L 204.425394 290.566337 
L 204.425394 289.767921 
L 205.593516 289.767921 
L 205.593516 288.969505 
L 206.388808 288.969505 
L 206.388808 288.171089 
L 207.462028 288.171089 
L 207.462028 287.372673 
L 207.914459 287.372673 
L 207.914459 286.574257 
L 209.303584 286.574257 
L 209.365692 284.977426 
L 209.68523 284.977426 
L 209.68523 284.17901 
L 210.002071 284.17901 
L 210.002071 283.380594 
L 210.178825 283.380594 
L 210.197864 281.783762 
L 210.586813 281.783762 
L 210.586813 280.985347 
L 210.745115 280.985347 
L 210.745115 280.186931 
L 210.912705 280.186931 
L 210.912705 279.388515 
L 211.428912 279.388515 
L 211.428912 278.590099 
L 212.004117 278.590099 
L 212.068131 276.993267 
L 212.152438 276.993267 
L 212.152438 276.194851 
L 212.533062 276.194851 
L 212.533062 275.396436 
L 212.722222 275.396436 
L 212.814325 273.799604 
L 212.902424 273.799604 
L 212.902424 273.001188 
L 213.085695 273.001188 
L 213.085695 272.202772 
L 213.394015 272.202772 
L 213.40883 270.605941 
L 213.872861 270.605941 
L 213.872861 269.807525 
L 214.309721 269.807525 
L 214.309721 269.009109 
L 214.720649 269.009109 
L 214.720649 268.210693 
L 214.873264 268.210693 
L 214.970331 265.815446 
L 215.012322 265.815446 
L 215.022041 264.218614 
L 215.387393 264.218614 
L 215.461632 262.621782 
L 215.500929 262.621782 
L 215.500929 261.823366 
L 215.705127 261.823366 
L 215.755122 259.428119 
L 215.88172 259.428119 
L 215.931658 257.831287 
L 216.005995 257.831287 
L 216.005995 257.032871 
L 216.63727 257.032871 
L 216.63727 256.234455 
L 216.823635 256.234455 
L 216.823635 255.43604 
L 217.081269 255.43604 
L 217.137705 253.839208 
L 217.31435 253.839208 
L 217.341834 252.242376 
L 217.515313 252.242376 
L 217.515313 251.44396 
L 217.788534 251.44396 
L 217.881905 249.847129 
L 218.024081 249.847129 
L 218.116207 248.250297 
L 218.36146 248.250297 
L 218.36146 247.451881 
L 218.724579 247.451881 
L 218.739812 245.85505 
L 219.300328 245.85505 
L 219.300328 245.056634 
L 219.538075 245.056634 
L 219.562136 243.459802 
L 219.874274 243.459802 
L 219.884307 241.86297 
L 220.135966 241.86297 
L 220.135966 241.064554 
L 220.457135 241.064554 
L 220.457135 240.266139 
L 220.615155 240.266139 
L 220.615155 239.467723 
L 220.854654 239.467723 
L 220.927961 237.870891 
L 221.052523 237.870891 
L 221.138723 236.274059 
L 221.377138 236.274059 
L 221.378353 234.677228 
L 221.571037 234.677228 
L 221.634666 232.28198 
L 221.701583 232.28198 
L 221.754594 229.886733 
L 222.101282 229.886733 
L 222.101282 229.088317 
L 222.449976 229.088317 
L 222.449976 228.289901 
L 222.83888 228.289901 
L 222.938314 223.499406 
L 222.979505 223.499406 
L 223.08818 221.104158 
L 223.36335 221.104158 
L 223.36335 220.305743 
L 223.954026 220.305743 
L 223.9863 218.708911 
L 224.073616 218.708911 
L 224.073616 217.910495 
L 224.256199 217.910495 
L 224.256199 217.112079 
L 224.726534 217.112079 
L 224.726534 216.313663 
L 224.838061 216.313663 
L 224.942187 212.321584 
L 224.960964 212.321584 
L 224.97347 210.724752 
L 225.467001 210.724752 
L 225.467001 209.926337 
L 225.738122 209.926337 
L 225.841421 207.531089 
L 225.939854 207.531089 
L 225.939854 206.732673 
L 226.129658 206.732673 
L 226.218113 202.740594 
L 226.314122 202.740594 
L 226.386988 201.143762 
L 226.461158 201.143762 
L 226.559171 198.748515 
L 226.685077 198.748515 
L 226.685077 197.950099 
L 226.968426 197.950099 
L 227.032835 196.353267 
L 227.103963 196.353267 
L 227.172177 194.756436 
L 227.219703 194.756436 
L 227.219703 193.95802 
L 227.367775 193.95802 
L 227.367775 193.159604 
L 227.484585 193.159604 
L 227.484585 192.361188 
L 227.659143 192.361188 
L 227.659143 191.562772 
L 227.904763 191.562772 
L 227.904763 190.764356 
L 228.147491 190.764356 
L 228.183084 189.167525 
L 228.418009 189.167525 
L 228.418009 188.369109 
L 228.697197 188.369109 
L 228.804979 184.37703 
L 228.863102 184.37703 
L 228.863102 183.578614 
L 229.140528 183.578614 
L 229.241706 181.183366 
L 229.253649 181.183366 
L 229.352676 178.788119 
L 229.457028 178.788119 
L 229.457028 177.989703 
L 229.58568 177.989703 
L 229.590979 176.392871 
L 230.203267 176.392871 
L 230.266218 173.997624 
L 230.513631 173.997624 
L 230.607242 172.400792 
L 231.050256 172.400792 
L 231.050256 171.602376 
L 231.295976 171.602376 
L 231.295976 170.80396 
L 231.610463 170.80396 
L 231.610463 170.005545 
L 231.78723 170.005545 
L 231.84368 168.408713 
L 232.224196 168.408713 
L 232.224196 167.610297 
L 232.42569 167.610297 
L 232.42569 166.811881 
L 232.664895 166.811881 
L 232.664895 166.013465 
L 232.828639 166.013465 
L 232.828639 165.21505 
L 232.993146 165.21505 
L 232.993146 164.416634 
L 233.675772 164.416634 
L 233.675772 163.618218 
L 233.899052 163.618218 
L 233.983149 162.021386 
L 234.013972 162.021386 
L 234.109075 159.626139 
L 234.348745 159.626139 
L 234.356704 158.029307 
L 234.508083 158.029307 
L 234.598552 156.432475 
L 234.65447 156.432475 
L 234.715193 154.835644 
L 234.959622 154.835644 
L 235.015755 153.238812 
L 235.662671 153.238812 
L 235.662671 152.440396 
L 235.786211 152.440396 
L 235.786211 151.64198 
L 236.036594 151.64198 
L 236.036594 150.843564 
L 236.184385 150.843564 
L 236.184385 150.045149 
L 236.323349 150.045149 
L 236.424343 148.448317 
L 236.504983 148.448317 
L 236.577406 146.851485 
L 236.624468 146.851485 
L 236.624468 146.053069 
L 236.779293 146.053069 
L 236.779293 145.254653 
L 237.094597 145.254653 
L 237.193134 143.657822 
L 237.64774 143.657822 
L 237.64774 142.859406 
L 237.807586 142.859406 
L 237.807586 142.06099 
L 238.014396 142.06099 
L 238.014396 141.262574 
L 238.168741 141.262574 
L 238.168741 140.464158 
L 238.283982 140.464158 
L 238.283982 139.665743 
L 238.553804 139.665743 
L 238.589944 138.068911 
L 238.829343 138.068911 
L 238.829343 137.270495 
L 239.530529 137.270495 
L 239.625791 134.875248 
L 239.701556 134.875248 
L 239.734763 133.278416 
L 239.896687 133.278416 
L 239.946445 131.681584 
L 240.327669 131.681584 
L 240.327669 130.883168 
L 240.471413 130.883168 
L 240.471413 130.084752 
L 240.958409 130.084752 
L 241.020843 128.487921 
L 241.746168 128.487921 
L 241.746168 127.689505 
L 242.002574 127.689505 
L 242.100548 125.294257 
L 242.784851 125.294257 
L 242.784851 124.495842 
L 242.981359 124.495842 
L 242.981359 123.697426 
L 243.453035 123.697426 
L 243.558352 121.302178 
L 243.566289 121.302178 
L 243.586465 119.705347 
L 244.587974 119.705347 
L 244.587974 118.906931 
L 244.838852 118.906931 
L 244.838852 118.108515 
L 245.073513 118.108515 
L 245.073513 117.310099 
L 245.360997 117.310099 
L 245.360997 116.511683 
L 245.65103 116.511683 
L 245.65103 115.713267 
L 245.79894 115.713267 
L 245.79894 114.914851 
L 246.113389 114.914851 
L 246.113389 114.116436 
L 247.872376 114.116436 
L 247.872376 113.31802 
L 250.813899 113.31802 
L 250.813899 112.519604 
L 251.052757 112.519604 
L 251.052757 111.721188 
L 251.278171 111.721188 
L 251.380128 110.124356 
L 252.13067 110.124356 
L 252.13067 109.325941 
L 252.644816 109.325941 
L 252.644816 108.527525 
L 253.723768 108.527525 
L 253.802468 106.930693 
L 253.996237 106.930693 
L 253.996237 106.132277 
L 255.791279 106.132277 
L 255.870046 103.73703 
L 255.999206 103.73703 
L 255.999206 102.938614 
L 259.51328 102.938614 
L 259.51328 102.140198 
L 260.214103 102.140198 
L 260.214103 101.341782 
L 260.669756 101.341782 
L 260.669756 100.543366 
L 266.18434 100.543366 
L 266.18434 99.74495 
L 268.458096 99.74495 
L 268.460201 98.148119 
L 269.505674 98.148119 
L 269.505674 97.349703 
L 270.640654 97.349703 
L 270.651237 95.752871 
L 275.944042 95.752871 
L 275.944042 94.954455 
L 277.39681 94.954455 
L 277.39681 94.15604 
L 277.717993 94.15604 
L 277.805519 92.559208 
L 278.243867 92.559208 
L 278.243867 91.760792 
L 278.473038 91.760792 
L 278.473038 90.962376 
L 278.912997 90.962376 
L 278.912997 90.16396 
L 280.446473 90.16396 
L 280.446473 89.365545 
L 281.730434 89.365545 
L 281.730434 88.567129 
L 281.876061 88.567129 
L 281.876061 87.768713 
L 282.777451 87.768713 
L 282.777451 86.970297 
L 282.931423 86.970297 
L 282.95973 84.57505 
L 283.412317 84.57505 
L 283.506281 82.978218 
L 283.852829 82.978218 
L 283.870954 81.381386 
L 284.504533 81.381386 
L 284.504533 80.58297 
L 285.151257 80.58297 
L 285.210993 78.986139 
L 285.339271 78.986139 
L 285.339271 78.187723 
L 286.270428 78.187723 
L 286.270428 77.389307 
L 287.065142 77.389307 
L 287.137829 75.792475 
L 287.325119 75.792475 
L 287.325119 74.994059 
L 288.433568 74.994059 
L 288.433568 74.195644 
L 288.784394 74.195644 
L 288.784394 73.397228 
L 289.256207 73.397228 
L 289.35959 71.00198 
L 290.094385 71.00198 
L 290.094385 70.203564 
L 290.42904 70.203564 
L 290.446968 68.606733 
L 290.909176 68.606733 
L 290.909176 67.808317 
L 291.545914 67.808317 
L 291.655707 65.413069 
L 291.657049 65.413069 
L 291.657049 64.614653 
L 291.999242 64.614653 
L 291.999242 63.816238 
L 292.599019 63.816238 
L 292.599019 63.017822 
L 293.623962 63.017822 
L 293.719385 60.622574 
L 294.05207 60.622574 
L 294.05207 59.824158 
L 294.546636 59.824158 
L 294.546636 59.025743 
L 297.866973 59.025743 
L 297.888316 57.428911 
L 297.993867 57.428911 
L 297.993867 56.630495 
L 298.361371 56.630495 
L 298.361371 55.832079 
L 299.389882 55.832079 
L 299.389882 55.033663 
L 300.003956 55.033663 
L 300.003956 54.235248 
L 301.018316 54.235248 
L 301.018316 53.436832 
L 301.962717 53.436832 
L 301.962717 52.638416 
L 302.40238 52.638416 
L 302.40238 51.84 
L 303.052527 51.84 
L 303.052527 51.041584 
L 303.823075 51.041584 
L 303.823075 50.243168 
L 304.213849 50.243168 
L 304.213849 49.444752 
L 304.842375 49.444752 
L 304.842375 48.646337 
L 306.487 48.646337 
L 306.487 47.847921 
L 306.69719 47.847921 
L 306.69719 47.049505 
L 307.653445 47.049505 
L 307.653445 46.251089 
L 308.04093 46.251089 
L 308.04093 45.452673 
L 308.586361 45.452673 
L 308.586361 44.654257 
L 308.89128 44.654257 
L 308.970972 43.057426 
L 310.680942 43.057426 
L 310.738963 41.460594 
L 311.36106 41.460594 
L 311.36106 40.662178 
L 313.255836 40.662178 
L 313.332567 38.266931 
L 313.490764 38.266931 
L 313.490764 37.468515 
L 315.17937 37.468515 
L 315.17937 36.670099 
L 317.551341 36.670099 
L 317.551341 35.871683 
L 317.851181 35.871683 
L 317.851181 35.073267 
L 318.675804 35.073267 
L 318.675804 34.274851 
L 320.124658 34.274851 
L 320.124658 33.476436 
L 320.819872 33.476436 
L 320.819872 32.67802 
L 322.987785 32.67802 
L 322.987785 31.879604 
L 324.498373 31.879604 
L 324.498373 31.081188 
L 325.116578 31.081188 
L 325.116578 30.282772 
L 326.03162 30.282772 
L 326.086527 28.685941 
L 326.558937 28.685941 
L 326.558937 27.887525 
L 329.040487 27.887525 
L 329.040487 27.089109 
L 329.267657 27.089109 
L 329.267657 26.290693 
L 329.660737 26.290693 
L 329.660737 25.492277 
L 330.591448 25.492277 
L 330.591448 24.693861 
L 331.31813 24.693861 
L 331.31813 23.895446 
L 331.719885 23.895446 
L 331.723385 22.298614 
L 333.438235 22.298614 
L 333.438235 21.500198 
L 334.473097 21.500198 
L 334.473097 20.701782 
L 337.913658 20.701782 
L 337.913658 19.903366 
L 343.203265 19.903366 
L 343.203265 19.10495 
L 344.512935 19.10495 
L 344.512935 18.306535 
L 347.858837 18.306535 
L 347.858837 17.508119 
L 348.06429 17.508119 
L 348.06429 16.709703 
L 348.253109 16.709703 
L 348.253109 15.911287 
L 348.775985 15.911287 
L 348.775985 15.112871 
L 354.631653 15.112871 
L 354.631653 14.314455 
L 356.016652 14.314455 
L 356.031989 12.717624 
L 357.481013 12.717624 
L 357.500891 11.120792 
L 357.73821 11.120792 
L 357.73821 10.322376 
L 358.919515 10.322376 
L 358.919515 9.52396 
L 366.067567 9.52396 
L 366.067567 8.725545 
L 368.366238 8.725545 
L 368.366238 7.927129 
L 369.093779 7.927129 
L 369.093779 7.128713 
L 372.712117 7.128713 
L 372.712117 6.330297 
L 372.712117 6.330297 
L 460.8 6.330297 
L 460.8 6.330297 
" clip-path="url(#paa1748a8be)" style="fill: none; stroke: #bf00bf; stroke-width: 1.5; stroke-linecap: square"/>
   </g>
   <g id="line2d_24">
    <path d="M 197.710102 293.76 
L 197.710102 292.961584 
L 199.043048 292.961584 
L 199.132488 291.364752 
L 199.832857 291.364752 
L 199.832857 290.566337 
L 200.077733 290.566337 
L 200.077733 289.767921 
L 200.884454 289.767921 
L 200.884454 288.969505 
L 201.630902 288.969505 
L 201.630902 288.171089 
L 204.280423 288.171089 
L 204.280423 287.372673 
L 204.425394 287.372673 
L 204.425394 286.574257 
L 205.284876 286.574257 
L 205.333205 284.977426 
L 205.593516 284.977426 
L 205.65093 283.380594 
L 206.518916 283.380594 
L 206.518916 282.582178 
L 206.68294 282.582178 
L 206.68294 281.783762 
L 206.878365 281.783762 
L 206.976969 278.590099 
L 207.08768 278.590099 
L 207.183319 276.194851 
L 207.426992 276.194851 
L 207.462028 274.59802 
L 207.673492 274.59802 
L 207.673492 273.799604 
L 207.914459 273.799604 
L 207.914459 273.001188 
L 208.180986 273.001188 
L 208.180986 272.202772 
L 208.655512 272.202772 
L 208.675927 270.605941 
L 208.890144 270.605941 
L 208.945133 268.210693 
L 209.077092 268.210693 
L 209.077092 267.412277 
L 209.365692 267.412277 
L 209.434576 265.815446 
L 210.002071 265.815446 
L 210.002071 265.01703 
L 210.178825 265.01703 
L 210.283501 262.621782 
L 210.330957 262.621782 
L 210.330957 261.823366 
L 210.586813 261.823366 
L 210.65311 259.428119 
L 210.771448 259.428119 
L 210.848993 257.831287 
L 211.348372 257.831287 
L 211.348372 257.032871 
L 211.685579 257.032871 
L 211.782181 255.43604 
L 211.809571 255.43604 
L 211.809571 254.637624 
L 211.934643 254.637624 
L 212.004117 253.040792 
L 212.068131 253.040792 
L 212.118691 251.44396 
L 212.41581 251.44396 
L 212.503432 249.847129 
L 212.614697 249.847129 
L 212.643017 248.250297 
L 212.876374 248.250297 
L 212.876374 247.451881 
L 213.371024 247.451881 
L 213.371024 246.653465 
L 213.636976 246.653465 
L 213.636976 245.85505 
L 213.872861 245.85505 
L 213.872861 245.056634 
L 214.025175 245.056634 
L 214.094722 243.459802 
L 214.355136 243.459802 
L 214.362238 241.86297 
L 214.510934 241.86297 
L 214.588607 240.266139 
L 214.873264 240.266139 
L 214.873264 239.467723 
L 215.012322 239.467723 
L 215.012322 238.669307 
L 215.327745 238.669307 
L 215.327745 237.870891 
L 215.500929 237.870891 
L 215.500929 237.072475 
L 215.814877 237.072475 
L 215.88172 235.475644 
L 216.441576 235.475644 
L 216.441576 234.677228 
L 216.595773 234.677228 
L 216.595773 233.878812 
L 216.933162 233.878812 
L 216.933162 233.080396 
L 217.081269 233.080396 
L 217.081269 232.28198 
L 217.231565 232.28198 
L 217.231565 231.483564 
L 217.515313 231.483564 
L 217.515923 229.088317 
L 217.879817 229.088317 
L 217.881905 227.491485 
L 218.050178 227.491485 
L 218.050178 226.693069 
L 218.166729 226.693069 
L 218.175801 225.096238 
L 218.347566 225.096238 
L 218.36146 223.499406 
L 218.739812 223.499406 
L 218.842121 220.305743 
L 219.181472 220.305743 
L 219.181472 219.507327 
L 219.300328 219.507327 
L 219.300328 218.708911 
L 219.526916 218.708911 
L 219.562136 217.112079 
L 219.715588 217.112079 
L 219.749333 215.515248 
L 219.884307 215.515248 
L 219.884307 214.716832 
L 220.135966 214.716832 
L 220.171465 213.12 
L 220.615155 213.12 
L 220.615155 212.321584 
L 220.726753 212.321584 
L 220.797083 208.329505 
L 220.846309 208.329505 
L 220.846309 207.531089 
L 221.138723 207.531089 
L 221.138723 206.732673 
L 221.377138 206.732673 
L 221.443118 204.337426 
L 221.553637 204.337426 
L 221.634666 201.143762 
L 221.697989 201.143762 
L 221.697989 200.345347 
L 221.984153 200.345347 
L 221.984153 199.546931 
L 222.489626 199.546931 
L 222.489626 198.748515 
L 222.642877 198.748515 
L 222.642877 197.950099 
L 222.886596 197.950099 
L 222.979505 196.353267 
L 223.029427 196.353267 
L 223.031908 194.756436 
L 223.14433 194.756436 
L 223.14433 193.159604 
L 223.370042 193.159604 
L 223.370042 192.361188 
L 223.506592 192.361188 
L 223.579954 190.764356 
L 224.062181 190.764356 
L 224.073616 189.167525 
L 224.631617 189.167525 
L 224.631617 188.369109 
L 224.835992 188.369109 
L 224.835992 187.570693 
L 224.960964 187.570693 
L 224.960964 186.772277 
L 225.454444 186.772277 
L 225.465212 185.175446 
L 225.740475 185.175446 
L 225.841421 183.578614 
L 225.939854 183.578614 
L 225.939854 182.780198 
L 226.129658 182.780198 
L 226.129658 181.981782 
L 226.291999 181.981782 
L 226.314122 180.38495 
L 226.414446 180.38495 
L 226.414446 179.586535 
L 226.559171 179.586535 
L 226.600267 177.989703 
L 227.137026 177.989703 
L 227.219703 176.392871 
L 227.454299 176.392871 
L 227.559128 173.997624 
L 227.659143 173.997624 
L 227.767273 172.400792 
L 227.897098 172.400792 
L 227.915271 170.005545 
L 228.372158 170.005545 
L 228.372158 169.207129 
L 228.647326 169.207129 
L 228.718192 166.013465 
L 229.14833 166.013465 
L 229.14833 165.21505 
L 229.477601 165.21505 
L 229.58568 163.618218 
L 230.007283 163.618218 
L 230.007283 162.819802 
L 230.984074 162.819802 
L 231.050256 161.22297 
L 231.098959 161.22297 
L 231.098959 160.424554 
L 231.336281 160.424554 
L 231.336281 159.626139 
L 231.519828 159.626139 
L 231.610463 158.029307 
L 231.657288 158.029307 
L 231.657288 157.230891 
L 231.84368 157.230891 
L 231.84368 156.432475 
L 232.034832 156.432475 
L 232.099309 154.835644 
L 232.185666 154.835644 
L 232.246746 153.238812 
L 232.42569 153.238812 
L 232.463648 151.64198 
L 232.664895 151.64198 
L 232.74652 150.045149 
L 232.795738 150.045149 
L 232.795738 149.246733 
L 232.993146 149.246733 
L 232.993146 148.448317 
L 233.582462 148.448317 
L 233.582462 147.649901 
L 233.899052 147.649901 
L 233.983631 146.053069 
L 234.019167 146.053069 
L 234.109075 143.657822 
L 234.171957 143.657822 
L 234.25645 142.06099 
L 234.348745 142.06099 
L 234.45211 140.464158 
L 234.486446 140.464158 
L 234.508083 138.867327 
L 234.642835 138.867327 
L 234.715193 137.270495 
L 234.943629 137.270495 
L 234.959622 135.673663 
L 235.230463 135.673663 
L 235.230463 134.875248 
L 235.453966 134.875248 
L 235.470752 133.278416 
L 235.786211 133.278416 
L 235.823363 131.681584 
L 236.036594 131.681584 
L 236.036594 130.883168 
L 236.184385 130.883168 
L 236.184385 130.084752 
L 236.323349 130.084752 
L 236.323349 129.286337 
L 236.467898 129.286337 
L 236.577406 126.891089 
L 236.624468 126.891089 
L 236.624468 126.092673 
L 236.829684 126.092673 
L 236.840283 124.495842 
L 237.094597 124.495842 
L 237.094597 123.697426 
L 237.230016 123.697426 
L 237.27711 122.100594 
L 237.394952 122.100594 
L 237.394952 121.302178 
L 238.168741 121.302178 
L 238.168741 120.503762 
L 238.283982 120.503762 
L 238.283982 119.705347 
L 238.560631 119.705347 
L 238.560631 118.906931 
L 238.751014 118.906931 
L 238.783772 117.310099 
L 239.530529 117.310099 
L 239.625791 115.713267 
L 240.339542 115.713267 
L 240.339542 114.914851 
L 240.471413 114.914851 
L 240.471413 114.116436 
L 240.612735 114.116436 
L 240.612735 113.31802 
L 241.543812 113.31802 
L 241.543812 112.519604 
L 241.700417 112.519604 
L 241.746168 110.922772 
L 242.002574 110.922772 
L 242.002574 110.124356 
L 242.777565 110.124356 
L 242.777565 109.325941 
L 242.981359 109.325941 
L 242.981359 108.527525 
L 245.733189 108.527525 
L 245.733189 107.729109 
L 248.090905 107.729109 
L 248.090905 106.930693 
L 249.463526 106.930693 
L 249.463526 106.132277 
L 250.678479 106.132277 
L 250.678479 105.333861 
L 250.813899 105.333861 
L 250.813899 104.535446 
L 251.052757 104.535446 
L 251.104482 102.938614 
L 251.473979 102.938614 
L 251.473979 102.140198 
L 251.692683 102.140198 
L 251.692683 101.341782 
L 252.13067 101.341782 
L 252.13067 100.543366 
L 252.644816 100.543366 
L 252.644816 99.74495 
L 253.247221 99.74495 
L 253.33867 98.148119 
L 253.724453 98.148119 
L 253.802468 96.551287 
L 255.75323 96.551287 
L 255.800251 94.954455 
L 257.49713 94.954455 
L 257.49713 94.15604 
L 258.257442 94.15604 
L 258.257442 93.357624 
L 260.202526 93.357624 
L 260.202526 92.559208 
L 262.163891 92.559208 
L 262.163891 91.760792 
L 264.724055 91.760792 
L 264.724055 90.962376 
L 266.18434 90.962376 
L 266.18434 90.16396 
L 266.609844 90.16396 
L 266.677772 88.567129 
L 266.775614 88.567129 
L 266.775614 87.768713 
L 268.454119 87.768713 
L 268.460201 86.171881 
L 269.205433 86.171881 
L 269.205433 85.373465 
L 269.505674 85.373465 
L 269.505674 84.57505 
L 270.819446 84.57505 
L 270.819446 83.776634 
L 271.8984 83.776634 
L 271.8984 82.978218 
L 272.500656 82.978218 
L 272.500656 82.179802 
L 272.971572 82.179802 
L 273.071166 80.58297 
L 274.244027 80.58297 
L 274.244027 79.784554 
L 275.552249 79.784554 
L 275.552249 78.986139 
L 275.944042 78.986139 
L 275.951806 77.389307 
L 276.280713 77.389307 
L 276.280713 76.590891 
L 276.6077 76.590891 
L 276.6077 75.792475 
L 277.344709 75.792475 
L 277.39681 74.195644 
L 277.493215 74.195644 
L 277.493215 73.397228 
L 278.064605 73.397228 
L 278.064605 72.598812 
L 278.243867 72.598812 
L 278.243867 71.800396 
L 278.912997 71.800396 
L 278.912997 71.00198 
L 279.166028 71.00198 
L 279.166028 70.203564 
L 279.639147 70.203564 
L 279.639147 69.405149 
L 279.948053 69.405149 
L 279.948053 68.606733 
L 280.176393 68.606733 
L 280.176393 67.808317 
L 280.653119 67.808317 
L 280.653119 67.009901 
L 282.44261 67.009901 
L 282.44261 66.211485 
L 282.901995 66.211485 
L 282.95973 63.816238 
L 283.412317 63.816238 
L 283.506281 62.219406 
L 283.829239 62.219406 
L 283.870954 59.824158 
L 284.302939 59.824158 
L 284.302939 59.025743 
L 285.226358 59.025743 
L 285.248622 57.428911 
L 285.339271 57.428911 
L 285.339271 56.630495 
L 285.742574 56.630495 
L 285.742574 55.832079 
L 286.265364 55.832079 
L 286.265364 55.033663 
L 286.487769 55.033663 
L 286.487769 54.235248 
L 287.766198 54.235248 
L 287.766198 53.436832 
L 288.784394 53.436832 
L 288.784394 52.638416 
L 289.882633 52.638416 
L 289.882633 51.84 
L 292.067092 51.84 
L 292.11604 50.243168 
L 292.599019 50.243168 
L 292.599019 49.444752 
L 293.657172 49.444752 
L 293.657172 48.646337 
L 296.248007 48.646337 
L 296.248007 47.847921 
L 297.297485 47.847921 
L 297.297485 47.049505 
L 301.948649 47.049505 
L 301.948649 46.251089 
L 302.341902 46.251089 
L 302.341902 45.452673 
L 303.052527 45.452673 
L 303.052527 44.654257 
L 303.823075 44.654257 
L 303.823075 43.855842 
L 304.213849 43.855842 
L 304.223034 42.25901 
L 304.912441 42.25901 
L 304.912441 41.460594 
L 306.487 41.460594 
L 306.487 40.662178 
L 307.160671 40.662178 
L 307.160671 39.863762 
L 307.595506 39.863762 
L 307.595506 39.065347 
L 308.586361 39.065347 
L 308.586361 38.266931 
L 308.89128 38.266931 
L 308.970972 36.670099 
L 310.190802 36.670099 
L 310.190802 35.871683 
L 310.396135 35.871683 
L 310.396135 35.073267 
L 310.680942 35.073267 
L 310.680942 34.274851 
L 311.188721 34.274851 
L 311.188721 33.476436 
L 313.306731 33.476436 
L 313.332567 31.879604 
L 315.17937 31.879604 
L 315.17937 31.081188 
L 316.04559 31.081188 
L 316.04559 30.282772 
L 317.204895 30.282772 
L 317.204895 29.484356 
L 317.330512 29.484356 
L 317.330512 28.685941 
L 317.851181 28.685941 
L 317.851181 27.887525 
L 318.278706 27.887525 
L 318.278706 27.089109 
L 320.920322 27.089109 
L 320.920322 26.290693 
L 324.498373 26.290693 
L 324.498373 25.492277 
L 325.11098 25.492277 
L 325.116578 23.895446 
L 326.03162 23.895446 
L 326.03162 23.09703 
L 326.558937 23.09703 
L 326.558937 22.298614 
L 326.833294 22.298614 
L 326.833294 21.500198 
L 331.719885 21.500198 
L 331.815308 19.903366 
L 334.473097 19.903366 
L 334.473097 19.10495 
L 335.252822 19.10495 
L 335.252822 18.306535 
L 338.556946 18.306535 
L 338.556946 17.508119 
L 342.391602 17.508119 
L 342.391602 16.709703 
L 346.30336 16.709703 
L 346.30336 15.911287 
L 347.858837 15.911287 
L 347.858837 15.112871 
L 348.06429 15.112871 
L 348.06429 14.314455 
L 348.253109 14.314455 
L 348.253109 13.51604 
L 353.731059 13.51604 
L 353.731059 12.717624 
L 354.631653 12.717624 
L 354.631653 11.919208 
L 356.016652 11.919208 
L 356.016652 11.120792 
L 357.481013 11.120792 
L 357.500891 9.52396 
L 357.73821 9.52396 
L 357.73821 8.725545 
L 358.942189 8.725545 
L 358.942189 7.927129 
L 362.647059 7.927129 
L 362.647059 7.128713 
L 366.10245 7.128713 
L 366.10245 6.330297 
L 366.10245 6.330297 
L 460.8 6.330297 
L 460.8 6.330297 
" clip-path="url(#paa1748a8be)" style="fill: none; stroke: #000000; stroke-width: 1.5; stroke-linecap: square"/>
   </g>
   <g id="line2d_25">
    <path d="M -0.100652 293.76 
L -0.100652 290.566337 
L 190.616159 290.566337 
L 190.616159 289.767921 
L 192.9375 289.767921 
L 192.9375 288.969505 
L 193.713697 288.969505 
L 193.713697 288.171089 
L 194.547054 288.171089 
L 194.547054 287.372673 
L 194.884696 287.372673 
L 194.884696 286.574257 
L 195.220802 286.574257 
L 195.220802 284.977426 
L 195.536375 284.977426 
L 195.536375 284.17901 
L 195.73628 284.17901 
L 195.771013 282.582178 
L 195.939385 282.582178 
L 196.044764 280.186931 
L 196.563936 280.186931 
L 196.64544 278.590099 
L 196.870048 278.590099 
L 196.870048 277.791683 
L 197.062499 277.791683 
L 197.062499 276.993267 
L 197.398635 276.993267 
L 197.398635 276.194851 
L 197.552255 276.194851 
L 197.552255 275.396436 
L 197.710102 275.396436 
L 197.710102 274.59802 
L 198.653269 274.59802 
L 198.653269 273.799604 
L 198.768117 273.799604 
L 198.875558 271.404356 
L 198.897485 271.404356 
L 198.897485 270.605941 
L 199.043048 270.605941 
L 199.068389 268.210693 
L 199.203173 268.210693 
L 199.256719 265.815446 
L 199.35168 265.815446 
L 199.35168 265.01703 
L 199.478142 265.01703 
L 199.583258 261.823366 
L 199.649288 261.823366 
L 199.651718 260.226535 
L 199.806593 260.226535 
L 199.806593 259.428119 
L 200.066499 259.428119 
L 200.066499 258.629703 
L 200.343113 258.629703 
L 200.343113 257.831287 
L 200.471881 257.831287 
L 200.471881 257.032871 
L 200.787954 257.032871 
L 200.884454 255.43604 
L 201.004714 255.43604 
L 201.112308 253.839208 
L 201.260637 253.839208 
L 201.348201 251.44396 
L 201.598293 251.44396 
L 201.630902 249.847129 
L 201.765935 249.847129 
L 201.765935 249.048713 
L 201.939182 249.048713 
L 201.939182 248.250297 
L 202.287813 248.250297 
L 202.31182 246.653465 
L 202.575217 246.653465 
L 202.615588 245.056634 
L 202.688061 245.056634 
L 202.742572 241.86297 
L 203.133846 241.86297 
L 203.133846 241.064554 
L 203.431877 241.064554 
L 203.431877 240.266139 
L 203.561937 240.266139 
L 203.577442 238.669307 
L 204.208991 238.669307 
L 204.208991 237.870891 
L 204.35597 237.870891 
L 204.425394 236.274059 
L 204.489902 236.274059 
L 204.489902 235.475644 
L 204.619797 235.475644 
L 204.72474 233.878812 
L 204.889119 233.878812 
L 204.889119 233.080396 
L 205.203108 233.080396 
L 205.284876 231.483564 
L 205.536317 231.483564 
L 205.536317 230.685149 
L 205.925942 230.685149 
L 205.925942 229.886733 
L 206.284846 229.886733 
L 206.284846 229.088317 
L 206.541807 229.088317 
L 206.64495 227.491485 
L 206.84772 227.491485 
L 206.95107 225.096238 
L 207.009642 225.096238 
L 207.009642 224.297822 
L 207.426992 224.297822 
L 207.426992 223.499406 
L 207.712738 223.499406 
L 207.712738 222.70099 
L 207.840199 222.70099 
L 207.899699 221.104158 
L 208.074604 221.104158 
L 208.165721 219.507327 
L 208.210065 219.507327 
L 208.210065 218.708911 
L 208.500658 218.708911 
L 208.500658 217.910495 
L 208.863751 217.910495 
L 208.945133 215.515248 
L 209.005183 215.515248 
L 209.008839 213.918416 
L 209.263114 213.918416 
L 209.263114 213.12 
L 209.434576 213.12 
L 209.434576 212.321584 
L 209.590432 212.321584 
L 209.590432 211.523168 
L 209.769831 211.523168 
L 209.795463 209.926337 
L 210.188736 209.926337 
L 210.188736 209.127921 
L 210.851328 209.127921 
L 210.907131 207.531089 
L 212.836779 207.531089 
L 212.836779 206.732673 
L 212.97476 206.732673 
L 212.97476 205.934257 
L 213.371024 205.934257 
L 213.384511 204.337426 
L 213.872861 204.337426 
L 213.939309 202.740594 
L 214.025175 202.740594 
L 214.094722 201.143762 
L 214.362743 201.143762 
L 214.362743 200.345347 
L 214.510934 200.345347 
L 214.510934 199.546931 
L 215.020341 199.546931 
L 215.077706 197.950099 
L 215.577057 197.950099 
L 215.577057 197.151683 
L 215.694978 197.151683 
L 215.694978 196.353267 
L 215.813991 196.353267 
L 215.814877 194.756436 
L 216.441576 194.756436 
L 216.441576 193.95802 
L 216.875231 193.95802 
L 216.933162 192.361188 
L 217.118264 192.361188 
L 217.118264 191.562772 
L 217.323706 191.562772 
L 217.419451 189.167525 
L 217.881905 189.167525 
L 217.988089 186.772277 
L 218.347566 186.772277 
L 218.446277 184.37703 
L 218.519784 184.37703 
L 218.519784 183.578614 
L 218.841738 183.578614 
L 218.841738 182.780198 
L 219.070938 182.780198 
L 219.070938 181.981782 
L 219.229939 181.981782 
L 219.27718 179.586535 
L 219.411382 179.586535 
L 219.482825 177.989703 
L 219.562136 177.989703 
L 219.647566 176.392871 
L 219.687915 176.392871 
L 219.687915 175.594455 
L 219.811064 175.594455 
L 219.819373 173.997624 
L 220.106078 173.997624 
L 220.106078 173.199208 
L 220.337396 173.199208 
L 220.411014 171.602376 
L 220.726753 171.602376 
L 220.754569 170.005545 
L 220.843738 170.005545 
L 220.843738 169.207129 
L 221.007263 169.207129 
L 221.007263 168.408713 
L 221.385443 168.408713 
L 221.452934 166.811881 
L 221.593837 166.811881 
L 221.593837 166.013465 
L 221.818804 166.013465 
L 221.922869 164.416634 
L 222.193952 164.416634 
L 222.303531 162.819802 
L 223.118511 162.819802 
L 223.118511 162.021386 
L 223.349883 162.021386 
L 223.349883 161.22297 
L 223.651811 161.22297 
L 223.651811 160.424554 
L 223.946947 160.424554 
L 223.984418 158.827723 
L 224.062181 158.827723 
L 224.062181 158.029307 
L 224.248071 158.029307 
L 224.248071 157.230891 
L 224.410907 157.230891 
L 224.471801 154.835644 
L 225.085951 154.835644 
L 225.13842 153.238812 
L 225.254605 153.238812 
L 225.254605 152.440396 
L 225.411443 152.440396 
L 225.416297 150.843564 
L 225.579605 150.843564 
L 225.595273 149.246733 
L 225.723126 149.246733 
L 225.723126 148.448317 
L 226.077287 148.448317 
L 226.077287 147.649901 
L 226.369236 147.649901 
L 226.369236 146.851485 
L 226.505674 146.851485 
L 226.505674 146.053069 
L 226.683635 146.053069 
L 226.735379 142.859406 
L 226.830133 142.859406 
L 226.830133 142.06099 
L 227.017395 142.06099 
L 227.017395 141.262574 
L 227.137026 141.262574 
L 227.137026 140.464158 
L 227.427684 140.464158 
L 227.453 138.867327 
L 227.716239 138.867327 
L 227.754887 136.472079 
L 227.914005 136.472079 
L 228.003595 133.278416 
L 228.256373 133.278416 
L 228.27917 131.681584 
L 228.545064 131.681584 
L 228.628646 129.286337 
L 228.811604 129.286337 
L 228.811604 128.487921 
L 229.200971 128.487921 
L 229.21342 126.891089 
L 229.372445 126.891089 
L 229.477601 124.495842 
L 229.549066 124.495842 
L 229.549066 123.697426 
L 229.785588 123.697426 
L 229.785588 122.89901 
L 229.992803 122.89901 
L 229.992803 122.100594 
L 230.121169 122.100594 
L 230.121169 121.302178 
L 230.653721 121.302178 
L 230.704859 119.705347 
L 230.820731 119.705347 
L 230.820731 118.906931 
L 230.984074 118.906931 
L 230.984074 118.108515 
L 231.152042 118.108515 
L 231.152042 117.310099 
L 231.46051 117.310099 
L 231.501806 115.713267 
L 231.685435 115.713267 
L 231.685435 114.914851 
L 231.866577 114.914851 
L 231.866577 114.116436 
L 232.030166 114.116436 
L 232.099309 112.519604 
L 232.175535 112.519604 
L 232.185666 110.922772 
L 232.439708 110.922772 
L 232.511826 109.325941 
L 232.741302 109.325941 
L 232.741302 108.527525 
L 232.9338 108.527525 
L 233.042904 106.132277 
L 233.582013 106.132277 
L 233.582013 105.333861 
L 233.827056 105.333861 
L 233.8826 103.73703 
L 234.065879 103.73703 
L 234.077551 102.140198 
L 234.655185 102.140198 
L 234.655185 101.341782 
L 235.193891 101.341782 
L 235.193891 100.543366 
L 236.467898 100.543366 
L 236.467898 99.74495 
L 237.879623 99.74495 
L 237.879623 98.946535 
L 238.34559 98.946535 
L 238.34559 97.349703 
L 238.66311 97.349703 
L 238.66311 96.551287 
L 239.577203 96.551287 
L 239.577203 95.752871 
L 239.879361 95.752871 
L 239.879361 94.954455 
L 240.452285 94.954455 
L 240.470804 93.357624 
L 240.667817 93.357624 
L 240.758869 91.760792 
L 241.414823 91.760792 
L 241.414823 90.962376 
L 241.77841 90.962376 
L 241.77841 90.16396 
L 242.404457 90.16396 
L 242.426618 88.567129 
L 242.856519 88.567129 
L 242.856519 87.768713 
L 243.024696 87.768713 
L 243.024696 86.970297 
L 243.421566 86.970297 
L 243.421566 86.171881 
L 243.902468 86.171881 
L 243.902468 85.373465 
L 245.733189 85.373465 
L 245.733189 84.57505 
L 245.950721 84.57505 
L 245.950721 83.776634 
L 246.305402 83.776634 
L 246.305402 82.978218 
L 246.465896 82.978218 
L 246.465896 82.179802 
L 246.733991 82.179802 
L 246.733991 81.381386 
L 246.938029 81.381386 
L 246.938029 80.58297 
L 247.767889 80.58297 
L 247.767889 79.784554 
L 248.287808 79.784554 
L 248.319125 78.187723 
L 248.741381 78.187723 
L 248.741381 77.389307 
L 249.054807 77.389307 
L 249.054807 76.590891 
L 249.584344 76.590891 
L 249.584344 75.792475 
L 250.750499 75.792475 
L 250.750499 74.994059 
L 251.104482 74.994059 
L 251.168164 73.397228 
L 251.492738 73.397228 
L 251.51485 71.800396 
L 252.784412 71.800396 
L 252.859034 70.203564 
L 253.036249 70.203564 
L 253.036249 69.405149 
L 254.064642 69.405149 
L 254.064642 68.606733 
L 254.378927 68.606733 
L 254.378927 67.808317 
L 255.167875 67.808317 
L 255.167875 67.009901 
L 255.311996 67.009901 
L 255.311996 66.211485 
L 255.570421 66.211485 
L 255.570421 65.413069 
L 256.005324 65.413069 
L 256.005324 64.614653 
L 256.939333 64.614653 
L 256.939333 63.816238 
L 257.167031 63.816238 
L 257.232626 62.219406 
L 257.319934 62.219406 
L 257.319934 61.42099 
L 257.897056 61.42099 
L 257.98881 59.025743 
L 258.026861 59.025743 
L 258.026861 58.227327 
L 258.257442 58.227327 
L 258.257442 57.428911 
L 258.773414 57.428911 
L 258.773414 56.630495 
L 262.163891 56.630495 
L 262.163891 55.832079 
L 263.329776 55.832079 
L 263.329776 55.033663 
L 265.03599 55.033663 
L 265.03599 54.235248 
L 268.727672 54.235248 
L 268.727672 53.436832 
L 269.456458 53.436832 
L 269.456458 52.638416 
L 269.629352 52.638416 
L 269.629352 51.84 
L 270.185611 51.84 
L 270.185611 51.041584 
L 273.627854 51.041584 
L 273.627854 50.243168 
L 274.244027 50.243168 
L 274.244027 49.444752 
L 275.059456 49.444752 
L 275.059456 48.646337 
L 275.347993 48.646337 
L 275.347993 47.847921 
L 277.654939 47.847921 
L 277.654939 47.049505 
L 280.653119 47.049505 
L 280.653119 46.251089 
L 280.814417 46.251089 
L 280.814417 45.452673 
L 281.469479 45.452673 
L 281.469479 44.654257 
L 283.629449 44.654257 
L 283.629449 43.855842 
L 285.226358 43.855842 
L 285.248622 42.25901 
L 286.378886 42.25901 
L 286.378886 41.460594 
L 286.830616 41.460594 
L 286.830616 40.662178 
L 288.784394 40.662178 
L 288.784394 39.863762 
L 290.939623 39.863762 
L 290.939623 39.065347 
L 291.08066 39.065347 
L 291.08066 38.266931 
L 292.599019 38.266931 
L 292.615447 36.670099 
L 293.138044 36.670099 
L 293.138044 35.871683 
L 293.774608 35.871683 
L 293.774608 35.073267 
L 294.158189 35.073267 
L 294.158189 34.274851 
L 295.493546 34.274851 
L 295.493546 33.476436 
L 295.856673 33.476436 
L 295.856673 32.67802 
L 296.672033 32.67802 
L 296.672033 31.879604 
L 297.202622 31.879604 
L 297.202622 31.081188 
L 297.852082 31.081188 
L 297.852082 30.282772 
L 300.604251 30.282772 
L 300.604251 29.484356 
L 304.213849 29.484356 
L 304.213849 28.685941 
L 304.438138 28.685941 
L 304.449907 27.089109 
L 304.862034 27.089109 
L 304.937525 24.693861 
L 305.401346 24.693861 
L 305.401346 23.895446 
L 306.420556 23.895446 
L 306.420556 23.09703 
L 306.546536 23.09703 
L 306.546536 22.298614 
L 308.073482 22.298614 
L 308.073482 21.500198 
L 310.043946 21.500198 
L 310.043946 20.701782 
L 310.680942 20.701782 
L 310.680942 19.903366 
L 311.966322 19.903366 
L 311.966322 19.10495 
L 324.051448 19.10495 
L 324.051448 18.306535 
L 325.218297 18.306535 
L 325.218297 17.508119 
L 329.00721 17.508119 
L 329.00721 16.709703 
L 331.590472 16.709703 
L 331.590472 15.911287 
L 333.701266 15.911287 
L 333.701266 15.112871 
L 336.423697 15.112871 
L 336.423697 14.314455 
L 337.219538 14.314455 
L 337.219538 13.51604 
L 337.341966 13.51604 
L 337.341966 12.717624 
L 337.578717 12.717624 
L 337.578717 11.919208 
L 337.930436 11.919208 
L 337.930436 11.120792 
L 338.346716 11.120792 
L 338.346716 10.322376 
L 338.556946 10.322376 
L 338.556946 9.52396 
L 341.648522 9.52396 
L 341.648522 8.725545 
L 342.391602 8.725545 
L 342.391602 7.927129 
L 343.495008 7.927129 
L 343.495008 7.128713 
L 344.999086 7.128713 
L 344.999086 6.330297 
L 344.999086 6.330297 
L 460.8 6.330297 
L 460.8 6.330297 
" clip-path="url(#paa1748a8be)" style="fill: none; stroke: #00bfbf; stroke-width: 1.5; stroke-linecap: square"/>
   </g>
   <g id="line2d_26">
    <path d="M -0.100652 293.76 
L -0.100652 281.783762 
L 38.257899 281.783762 
L 38.257899 280.985347 
L 66.240002 280.985347 
L 66.240002 280.186931 
L 72.214761 280.186931 
L 72.214761 279.388515 
L 72.451721 279.388515 
L 72.451721 278.590099 
L 75.538458 278.590099 
L 75.538458 277.791683 
L 76.895183 277.791683 
L 76.895183 276.993267 
L 77.809002 276.993267 
L 77.809002 276.194851 
L 79.831051 276.194851 
L 79.831051 275.396436 
L 80.320589 275.396436 
L 80.320589 274.59802 
L 80.697595 274.59802 
L 80.697595 273.799604 
L 89.184424 273.799604 
L 89.184424 273.001188 
L 89.759105 273.001188 
L 89.759105 272.202772 
L 92.476908 272.202772 
L 92.476908 271.404356 
L 92.913756 271.404356 
L 92.930622 269.807525 
L 96.393548 269.807525 
L 96.393548 269.009109 
L 97.440807 269.009109 
L 97.440807 268.210693 
L 114.683281 268.210693 
L 114.683281 267.412277 
L 117.061139 267.412277 
L 117.061139 266.613861 
L 120.540596 266.613861 
L 120.540596 265.815446 
L 124.001718 265.815446 
L 124.001718 265.01703 
L 124.168841 265.01703 
L 124.168841 264.218614 
L 126.72704 264.218614 
L 126.72704 263.420198 
L 129.122068 263.420198 
L 129.122068 262.621782 
L 130.07368 262.621782 
L 130.07368 261.823366 
L 132.86874 261.823366 
L 132.86874 261.02495 
L 134.070693 261.02495 
L 134.070693 260.226535 
L 141.490993 260.226535 
L 141.490993 259.428119 
L 142.130231 259.428119 
L 142.130231 258.629703 
L 144.803085 258.629703 
L 144.803085 257.831287 
L 145.138774 257.831287 
L 145.138774 257.032871 
L 146.224809 257.032871 
L 146.224809 256.234455 
L 147.415517 256.234455 
L 147.415517 255.43604 
L 149.115146 255.43604 
L 149.115146 254.637624 
L 152.381309 254.637624 
L 152.381309 253.839208 
L 153.919478 253.839208 
L 153.919478 253.040792 
L 155.548756 253.040792 
L 155.548756 252.242376 
L 156.453098 252.242376 
L 156.453098 251.44396 
L 157.570348 251.44396 
L 157.570348 250.645545 
L 160.177901 250.645545 
L 160.177901 249.847129 
L 161.224505 249.847129 
L 161.224505 249.048713 
L 162.181432 249.048713 
L 162.181432 248.250297 
L 162.564961 248.250297 
L 162.564961 247.451881 
L 164.620868 247.451881 
L 164.620868 246.653465 
L 166.531143 246.653465 
L 166.531143 245.85505 
L 166.837243 245.85505 
L 166.837243 245.056634 
L 167.155448 245.056634 
L 167.155448 244.258218 
L 167.608104 244.258218 
L 167.608104 243.459802 
L 168.453103 243.459802 
L 168.498571 241.86297 
L 170.476894 241.86297 
L 170.476894 241.064554 
L 170.654488 241.064554 
L 170.745811 239.467723 
L 171.728999 239.467723 
L 171.76376 237.870891 
L 173.335434 237.870891 
L 173.335434 237.072475 
L 174.144655 237.072475 
L 174.144655 236.274059 
L 174.676522 236.274059 
L 174.676522 235.475644 
L 175.699199 235.475644 
L 175.699199 234.677228 
L 176.328882 234.677228 
L 176.328882 233.878812 
L 178.303875 233.878812 
L 178.303875 233.080396 
L 178.671111 233.080396 
L 178.756475 231.483564 
L 179.380835 231.483564 
L 179.451192 229.886733 
L 179.634955 229.886733 
L 179.634955 229.088317 
L 179.90968 229.088317 
L 179.90968 228.289901 
L 180.781565 228.289901 
L 180.836469 226.693069 
L 180.966394 226.693069 
L 180.992036 224.297822 
L 181.553804 224.297822 
L 181.553804 223.499406 
L 182.028139 223.499406 
L 182.09345 221.104158 
L 182.507517 221.104158 
L 182.521834 217.910495 
L 182.811948 217.910495 
L 182.811948 217.112079 
L 183.036625 217.112079 
L 183.036625 216.313663 
L 183.35796 216.313663 
L 183.366385 214.716832 
L 183.921111 214.716832 
L 183.921111 213.918416 
L 184.487105 213.918416 
L 184.487105 213.12 
L 184.764481 213.12 
L 184.764481 212.321584 
L 185.574296 212.321584 
L 185.574296 211.523168 
L 185.699481 211.523168 
L 185.699481 210.724752 
L 185.955341 210.724752 
L 185.955341 209.926337 
L 186.855352 209.926337 
L 186.855352 209.127921 
L 187.120962 209.127921 
L 187.120962 208.329505 
L 187.335153 208.329505 
L 187.335153 206.732673 
L 187.521536 206.732673 
L 187.521536 205.934257 
L 187.914685 205.934257 
L 187.980481 204.337426 
L 188.19279 204.337426 
L 188.26652 202.740594 
L 188.456623 202.740594 
L 188.462808 201.143762 
L 188.788185 201.143762 
L 188.788185 200.345347 
L 189.106403 200.345347 
L 189.106403 199.546931 
L 189.250207 199.546931 
L 189.250207 198.748515 
L 189.466351 198.748515 
L 189.559839 197.151683 
L 189.592927 197.151683 
L 189.630918 195.554851 
L 189.735654 195.554851 
L 189.735654 194.756436 
L 189.946003 194.756436 
L 189.946003 193.95802 
L 190.651517 193.95802 
L 190.651517 193.159604 
L 190.89009 193.159604 
L 190.89009 192.361188 
L 191.223821 192.361188 
L 191.223821 191.562772 
L 191.55603 191.562772 
L 191.622013 188.369109 
L 191.708564 188.369109 
L 191.801002 186.772277 
L 192.193582 186.772277 
L 192.283122 184.37703 
L 192.371745 184.37703 
L 192.45898 181.981782 
L 192.877108 181.981782 
L 192.978488 180.38495 
L 193.014013 180.38495 
L 193.015107 178.788119 
L 193.165083 178.788119 
L 193.241003 176.392871 
L 193.285707 176.392871 
L 193.3854 173.997624 
L 193.544575 173.997624 
L 193.544575 173.199208 
L 193.90145 173.199208 
L 193.90145 172.400792 
L 194.165273 172.400792 
L 194.23235 170.80396 
L 194.4442 170.80396 
L 194.4442 170.005545 
L 194.574071 170.005545 
L 194.60637 168.408713 
L 194.822694 168.408713 
L 194.91214 166.811881 
L 194.945733 166.811881 
L 194.945733 166.013465 
L 195.259286 166.013465 
L 195.335198 164.416634 
L 195.395605 164.416634 
L 195.395605 163.618218 
L 195.536375 163.618218 
L 195.536375 162.819802 
L 195.695979 162.819802 
L 195.695979 162.021386 
L 195.831272 162.021386 
L 195.939385 158.827723 
L 196.439243 158.827723 
L 196.439243 158.029307 
L 196.633289 158.029307 
L 196.633289 157.230891 
L 197.030239 157.230891 
L 197.030239 156.432475 
L 197.195971 156.432475 
L 197.268952 154.037228 
L 197.336251 154.037228 
L 197.336251 153.238812 
L 197.710102 153.238812 
L 197.710102 152.440396 
L 197.863881 152.440396 
L 197.915347 150.843564 
L 198.037074 150.843564 
L 198.129038 148.448317 
L 198.324685 148.448317 
L 198.324685 147.649901 
L 198.899764 147.649901 
L 198.971941 145.254653 
L 199.178616 145.254653 
L 199.178616 144.456238 
L 199.389734 144.456238 
L 199.490621 142.859406 
L 199.860782 142.859406 
L 199.965713 138.068911 
L 200.195188 138.068911 
L 200.226808 136.472079 
L 200.420875 136.472079 
L 200.420875 135.673663 
L 200.67132 135.673663 
L 200.67132 134.875248 
L 200.891298 134.875248 
L 200.906214 133.278416 
L 201.199809 133.278416 
L 201.199809 132.48 
L 201.388648 132.48 
L 201.474222 130.883168 
L 201.573377 130.883168 
L 201.573377 130.084752 
L 202.750163 130.084752 
L 202.750163 129.286337 
L 203.048844 129.286337 
L 203.077604 127.689505 
L 203.186081 127.689505 
L 203.186081 126.891089 
L 203.404019 126.891089 
L 203.404019 126.092673 
L 203.920973 126.092673 
L 203.997002 124.495842 
L 204.093353 124.495842 
L 204.203865 122.100594 
L 204.256456 122.100594 
L 204.326351 120.503762 
L 205.203108 120.503762 
L 205.295264 118.108515 
L 205.830558 118.108515 
L 205.830558 117.310099 
L 206.301337 117.310099 
L 206.34215 115.713267 
L 206.492494 115.713267 
L 206.492494 114.914851 
L 206.667135 114.914851 
L 206.667135 114.116436 
L 207.0133 114.116436 
L 207.028958 112.519604 
L 207.139974 112.519604 
L 207.139974 111.721188 
L 207.426515 111.721188 
L 207.426515 110.922772 
L 207.715689 110.922772 
L 207.715689 110.124356 
L 207.899699 110.124356 
L 207.899699 109.325941 
L 208.143007 109.325941 
L 208.22702 106.930693 
L 208.90055 106.930693 
L 209.008839 105.333861 
L 209.04742 105.333861 
L 209.04742 104.535446 
L 209.199985 104.535446 
L 209.266542 102.140198 
L 209.365764 102.140198 
L 209.365764 101.341782 
L 209.607876 101.341782 
L 209.639114 99.74495 
L 209.852329 99.74495 
L 209.901662 98.148119 
L 210.467976 98.148119 
L 210.522862 94.954455 
L 210.606315 94.954455 
L 210.606315 94.15604 
L 210.906829 94.15604 
L 210.906829 93.357624 
L 211.170458 93.357624 
L 211.263817 90.962376 
L 211.325522 90.962376 
L 211.325522 90.16396 
L 211.775516 90.16396 
L 211.869043 86.970297 
L 211.968404 86.970297 
L 212.03545 85.373465 
L 212.104229 85.373465 
L 212.129607 83.776634 
L 212.482987 83.776634 
L 212.482987 82.978218 
L 212.796594 82.978218 
L 212.796594 82.179802 
L 213.082512 82.179802 
L 213.082512 81.381386 
L 213.523246 81.381386 
L 213.523246 80.58297 
L 213.716689 80.58297 
L 213.716689 79.784554 
L 214.190018 79.784554 
L 214.190018 78.986139 
L 214.403482 78.986139 
L 214.403482 78.187723 
L 214.648568 78.187723 
L 214.648568 77.389307 
L 215.092416 77.389307 
L 215.092416 76.590891 
L 215.220358 76.590891 
L 215.220358 75.792475 
L 215.443157 75.792475 
L 215.443157 74.994059 
L 215.591301 74.994059 
L 215.638752 71.800396 
L 215.812252 71.800396 
L 215.895128 69.405149 
L 216.053195 69.405149 
L 216.157419 66.211485 
L 216.190879 66.211485 
L 216.203879 64.614653 
L 216.477415 64.614653 
L 216.514045 62.219406 
L 217.166771 62.219406 
L 217.197567 59.824158 
L 217.301672 59.824158 
L 217.301672 59.025743 
L 217.884881 59.025743 
L 217.911282 57.428911 
L 218.113387 57.428911 
L 218.150554 55.832079 
L 218.505494 55.832079 
L 218.505494 55.033663 
L 218.636721 55.033663 
L 218.636721 54.235248 
L 219.209454 54.235248 
L 219.209454 53.436832 
L 219.323152 53.436832 
L 219.323152 52.638416 
L 219.940756 52.638416 
L 219.940756 51.84 
L 220.504693 51.84 
L 220.504693 51.041584 
L 221.186358 51.041584 
L 221.186358 50.243168 
L 221.96814 50.243168 
L 221.96814 49.444752 
L 222.464345 49.444752 
L 222.573088 47.847921 
L 223.424245 47.847921 
L 223.424245 47.049505 
L 223.555762 47.049505 
L 223.609368 45.452673 
L 225.073822 45.452673 
L 225.073822 44.654257 
L 227.441735 44.654257 
L 227.441735 43.855842 
L 229.242288 43.855842 
L 229.242288 43.057426 
L 229.840424 43.057426 
L 229.850898 41.460594 
L 232.442334 41.460594 
L 232.442334 40.662178 
L 232.613747 40.662178 
L 232.613747 39.863762 
L 232.896544 39.863762 
L 232.905062 38.266931 
L 233.285521 38.266931 
L 233.285521 37.468515 
L 233.880269 37.468515 
L 233.880269 36.670099 
L 234.515657 36.670099 
L 234.515657 35.871683 
L 234.953692 35.871683 
L 234.953692 35.073267 
L 235.790233 35.073267 
L 235.790233 34.274851 
L 238.307372 34.274851 
L 238.307372 33.476436 
L 239.097856 33.476436 
L 239.097856 32.67802 
L 239.49574 32.67802 
L 239.49574 31.879604 
L 240.529104 31.879604 
L 240.529104 31.081188 
L 241.643646 31.081188 
L 241.643646 30.282772 
L 242.01254 30.282772 
L 242.01254 29.484356 
L 243.330098 29.484356 
L 243.330098 28.685941 
L 243.460743 28.685941 
L 243.460743 27.887525 
L 244.289543 27.887525 
L 244.289543 27.089109 
L 244.557227 27.089109 
L 244.557227 26.290693 
L 245.324547 26.290693 
L 245.324547 25.492277 
L 246.164843 25.492277 
L 246.164843 24.693861 
L 246.485462 24.693861 
L 246.485462 23.895446 
L 247.900242 23.895446 
L 247.900242 23.09703 
L 250.162934 23.09703 
L 250.162934 22.298614 
L 251.47693 22.298614 
L 251.47693 21.500198 
L 251.847087 21.500198 
L 251.847087 20.701782 
L 252.348754 20.701782 
L 252.348754 19.903366 
L 253.842337 19.903366 
L 253.842337 19.10495 
L 254.279441 19.10495 
L 254.279441 18.306535 
L 255.822974 18.306535 
L 255.822974 17.508119 
L 256.067005 17.508119 
L 256.067005 16.709703 
L 256.829754 16.709703 
L 256.829754 15.911287 
L 257.027917 15.911287 
L 257.027917 15.112871 
L 257.770356 15.112871 
L 257.770356 14.314455 
L 258.257442 14.314455 
L 258.257442 13.51604 
L 258.775898 13.51604 
L 258.775898 12.717624 
L 259.08553 12.717624 
L 259.08553 11.919208 
L 259.956032 11.919208 
L 259.956032 11.120792 
L 260.316748 11.120792 
L 260.316748 10.322376 
L 262.68672 10.322376 
L 262.68672 9.52396 
L 267.282708 9.52396 
L 267.282708 8.725545 
L 274.383281 8.725545 
L 274.383281 7.927129 
L 277.8068 7.927129 
L 277.8068 7.128713 
L 282.48855 7.128713 
L 282.48855 6.330297 
L 282.48855 6.330297 
L 460.8 6.330297 
L 460.8 6.330297 
" clip-path="url(#paa1748a8be)" style="fill: none; stroke: #bf00bf; stroke-width: 1.5; stroke-linecap: square"/>
   </g>
   <g id="line2d_27">
    <path d="M -1 254.637624 
L -0.100652 254.637624 
L -0.100652 166.811881 
L 7.527963 166.811881 
L 7.527963 166.013465 
L 16.946846 166.013465 
L 16.946846 165.21505 
L 59.2733 165.21505 
L 59.2733 164.416634 
L 66.64006 164.416634 
L 66.64006 163.618218 
L 72.354068 163.618218 
L 72.354068 162.819802 
L 73.742095 162.819802 
L 73.742095 162.021386 
L 76.441746 162.021386 
L 76.441746 161.22297 
L 87.645527 161.22297 
L 87.645527 160.424554 
L 88.138525 160.424554 
L 88.138525 159.626139 
L 96.114985 159.626139 
L 96.114985 158.827723 
L 99.316852 158.827723 
L 99.316852 158.029307 
L 105.58315 158.029307 
L 105.58315 157.230891 
L 108.917854 157.230891 
L 108.917854 156.432475 
L 120.548866 156.432475 
L 120.548866 155.634059 
L 125.036769 155.634059 
L 125.036769 154.835644 
L 131.644728 154.835644 
L 131.644728 154.037228 
L 137.460171 154.037228 
L 137.494238 152.440396 
L 139.520802 152.440396 
L 139.520802 151.64198 
L 140.583698 151.64198 
L 140.583698 150.843564 
L 147.946935 150.843564 
L 147.946935 150.045149 
L 151.03051 150.045149 
L 151.03051 149.246733 
L 152.280423 149.246733 
L 152.280423 148.448317 
L 153.196289 148.448317 
L 153.196289 147.649901 
L 155.511632 147.649901 
L 155.511632 146.851485 
L 156.467676 146.851485 
L 156.467676 146.053069 
L 158.752641 146.053069 
L 158.752641 145.254653 
L 159.53034 145.254653 
L 159.53034 144.456238 
L 160.477519 144.456238 
L 160.477519 143.657822 
L 162.556041 143.657822 
L 162.556041 142.859406 
L 165.066749 142.859406 
L 165.066749 142.06099 
L 165.757272 142.06099 
L 165.757272 141.262574 
L 167.289881 141.262574 
L 167.289881 140.464158 
L 168.472857 140.464158 
L 168.472857 139.665743 
L 168.801991 139.665743 
L 168.858381 138.068911 
L 169.667216 138.068911 
L 169.667216 137.270495 
L 169.89627 137.270495 
L 169.89627 136.472079 
L 170.088249 136.472079 
L 170.088249 135.673663 
L 170.352665 135.673663 
L 170.352665 134.875248 
L 170.476894 134.875248 
L 170.476894 134.076832 
L 172.32051 134.076832 
L 172.32051 133.278416 
L 173.302762 133.278416 
L 173.302762 132.48 
L 174.283622 132.48 
L 174.283622 131.681584 
L 175.369565 131.681584 
L 175.371577 130.084752 
L 175.60002 130.084752 
L 175.699199 128.487921 
L 176.729931 128.487921 
L 176.729931 127.689505 
L 177.176811 127.689505 
L 177.176811 126.891089 
L 177.310826 126.891089 
L 177.310826 126.092673 
L 177.576861 126.092673 
L 177.576861 125.294257 
L 178.621668 125.294257 
L 178.621668 124.495842 
L 179.115201 124.495842 
L 179.168326 122.89901 
L 179.380835 122.89901 
L 179.459584 121.302178 
L 179.510844 121.302178 
L 179.510844 120.503762 
L 179.809831 120.503762 
L 179.809831 119.705347 
L 180.041905 119.705347 
L 180.041905 118.906931 
L 180.232416 118.906931 
L 180.232416 118.108515 
L 180.836469 118.108515 
L 180.836469 117.310099 
L 182.053696 117.310099 
L 182.053696 116.511683 
L 182.50614 116.511683 
L 182.50614 112.519604 
L 183.218477 112.519604 
L 183.218477 111.721188 
L 184.791447 111.721188 
L 184.791447 110.922772 
L 185.049792 110.922772 
L 185.091285 109.325941 
L 185.256537 109.325941 
L 185.256537 108.527525 
L 185.498311 108.527525 
L 185.498311 107.729109 
L 185.97152 107.729109 
L 185.97152 106.930693 
L 186.252325 106.930693 
L 186.252325 106.132277 
L 186.855352 106.132277 
L 186.878618 104.535446 
L 186.993072 104.535446 
L 186.993072 103.73703 
L 187.246385 103.73703 
L 187.246385 102.140198 
L 187.521536 102.140198 
L 187.580683 100.543366 
L 187.754565 100.543366 
L 187.772367 98.148119 
L 187.980481 98.148119 
L 187.980481 97.349703 
L 188.26652 97.349703 
L 188.362289 95.752871 
L 188.451148 95.752871 
L 188.451148 94.15604 
L 188.597231 94.15604 
L 188.597231 93.357624 
L 188.734342 93.357624 
L 188.746173 91.760792 
L 189.592927 91.760792 
L 189.592927 90.962376 
L 189.769971 90.962376 
L 189.789375 88.567129 
L 190.335535 88.567129 
L 190.436219 86.171881 
L 190.467066 86.171881 
L 190.467066 85.373465 
L 190.651517 85.373465 
L 190.651517 84.57505 
L 191.161921 84.57505 
L 191.161921 83.776634 
L 191.47283 83.776634 
L 191.582109 82.179802 
L 191.860936 82.179802 
L 191.860936 81.381386 
L 192.19509 81.381386 
L 192.19509 80.58297 
L 193.013701 80.58297 
L 193.013701 78.986139 
L 193.192783 78.986139 
L 193.240792 76.590891 
L 193.31215 76.590891 
L 193.31215 75.792475 
L 193.623516 75.792475 
L 193.623516 74.994059 
L 194.165273 74.994059 
L 194.165273 74.195644 
L 194.60637 74.195644 
L 194.60637 73.397228 
L 195.058594 73.397228 
L 195.058594 72.598812 
L 195.306911 72.598812 
L 195.391148 70.203564 
L 195.860988 70.203564 
L 195.860988 68.606733 
L 197.294236 68.606733 
L 197.367726 66.211485 
L 197.902291 66.211485 
L 197.902291 65.413069 
L 199.26857 65.413069 
L 199.26857 64.614653 
L 200.078957 64.614653 
L 200.078957 63.017822 
L 200.204263 63.017822 
L 200.267942 61.42099 
L 202.461446 61.42099 
L 202.461456 55.832079 
L 202.63871 55.832079 
L 202.63871 55.033663 
L 202.961903 55.033663 
L 203.041737 51.84 
L 204.305708 51.84 
L 204.326351 46.251089 
L 204.623138 46.251089 
L 204.623138 45.452673 
L 204.75958 45.452673 
L 204.75958 44.654257 
L 204.918921 44.654257 
L 204.918921 43.855842 
L 205.203108 43.855842 
L 205.203108 43.057426 
L 205.501305 43.057426 
L 205.501305 42.25901 
L 205.865009 42.25901 
L 205.865009 38.266931 
L 206.301234 38.266931 
L 206.301234 37.468515 
L 207.215731 37.468515 
L 207.215738 35.073267 
L 208.164945 35.073267 
L 208.164945 34.274851 
L 208.407158 34.274851 
L 208.513163 28.685941 
L 208.646563 28.685941 
L 208.646563 27.887525 
L 209.029153 27.887525 
L 209.029153 27.089109 
L 209.266542 27.089109 
L 209.366439 25.492277 
L 209.472926 25.492277 
L 209.472926 24.693861 
L 210.238456 24.693861 
L 210.32155 23.09703 
L 210.437012 23.09703 
L 210.437012 22.298614 
L 210.603022 22.298614 
L 210.603022 21.500198 
L 211.317172 21.500198 
L 211.317172 20.701782 
L 211.589061 20.701782 
L 211.589061 19.903366 
L 211.968404 19.903366 
L 211.968404 19.10495 
L 212.126852 19.10495 
L 212.219673 17.508119 
L 212.876472 17.508119 
L 212.876472 16.709703 
L 213.574366 16.709703 
L 213.574366 15.911287 
L 215.083936 15.911287 
L 215.083936 15.112871 
L 215.418628 15.112871 
L 215.418628 14.314455 
L 215.630498 14.314455 
L 215.630498 13.51604 
L 216.329245 13.51604 
L 216.329245 12.717624 
L 216.484386 12.717624 
L 216.484386 11.919208 
L 216.977899 11.919208 
L 216.977899 11.120792 
L 217.89814 11.120792 
L 217.89814 8.725545 
L 218.32865 8.725545 
L 218.32865 7.927129 
L 219.138245 7.927129 
L 219.138245 7.128713 
L 220.242894 7.128713 
L 220.242894 6.330297 
L 220.242894 6.330297 
L 460.8 6.330297 
L 460.8 6.330297 
" clip-path="url(#paa1748a8be)" style="fill: none; stroke: #000000; stroke-width: 1.5; stroke-linecap: square"/>
   </g>
   <g id="patch_3">
    <path d="M 0 293.76 
L 0 3.456 
" style="fill: none; stroke: #000000; stroke-width: 0.8; stroke-linejoin: miter; stroke-linecap: square"/>
   </g>
   <g id="patch_4">
    <path d="M 460.8 293.76 
L 460.8 3.456 
" style="fill: none; stroke: #000000; stroke-width: 0.8; stroke-linejoin: miter; stroke-linecap: square"/>
   </g>
   <g id="patch_5">
    <path d="M 0 293.76 
L 460.8 293.76 
" style="fill: none; stroke: #000000; stroke-width: 0.8; stroke-linejoin: miter; stroke-linecap: square"/>
   </g>
   <g id="patch_6">
    <path d="M 0 3.456 
L 460.8 3.456 
" style="fill: none; stroke: #000000; stroke-width: 0.8; stroke-linejoin: miter; stroke-linecap: square"/>
   </g>
   <g id="text_6">
    <!-- {f1-f24}, 5-D -->
    <g transform="translate(318.609 287.95392) scale(0.2 -0.2)">
     <defs>
      <path id="DejaVuSans-7b" d="M 3272 -594 
L 3272 -1044 
L 3078 -1044 
Q 2300 -1044 2036 -812 
Q 1772 -581 1772 109 
L 1772 856 
Q 1772 1328 1603 1509 
Q 1434 1691 991 1691 
L 800 1691 
L 800 2138 
L 991 2138 
Q 1438 2138 1605 2317 
Q 1772 2497 1772 2963 
L 1772 3713 
Q 1772 4403 2036 4633 
Q 2300 4863 3078 4863 
L 3272 4863 
L 3272 4416 
L 3059 4416 
Q 2619 4416 2484 4278 
Q 2350 4141 2350 3700 
L 2350 2925 
Q 2350 2434 2208 2212 
Q 2066 1991 1722 1913 
Q 2069 1828 2209 1606 
Q 2350 1384 2350 897 
L 2350 122 
Q 2350 -319 2484 -456 
Q 2619 -594 3059 -594 
L 3272 -594 
z
" transform="scale(0.015625)"/>
      <path id="DejaVuSans-32" d="M 1228 531 
L 3431 531 
L 3431 0 
L 469 0 
L 469 531 
Q 828 903 1448 1529 
Q 2069 2156 2228 2338 
Q 2531 2678 2651 2914 
Q 2772 3150 2772 3378 
Q 2772 3750 2511 3984 
Q 2250 4219 1831 4219 
Q 1534 4219 1204 4116 
Q 875 4013 500 3803 
L 500 4441 
Q 881 4594 1212 4672 
Q 1544 4750 1819 4750 
Q 2544 4750 2975 4387 
Q 3406 4025 3406 3419 
Q 3406 3131 3298 2873 
Q 3191 2616 2906 2266 
Q 2828 2175 2409 1742 
Q 1991 1309 1228 531 
z
" transform="scale(0.015625)"/>
      <path id="DejaVuSans-7d" d="M 800 -594 
L 1019 -594 
Q 1456 -594 1589 -459 
Q 1722 -325 1722 122 
L 1722 897 
Q 1722 1384 1862 1606 
Q 2003 1828 2350 1913 
Q 2003 1991 1862 2212 
Q 1722 2434 1722 2925 
L 1722 3700 
Q 1722 4144 1589 4280 
Q 1456 4416 1019 4416 
L 800 4416 
L 800 4863 
L 997 4863 
Q 1775 4863 2036 4633 
Q 2297 4403 2297 3713 
L 2297 2963 
Q 2297 2497 2465 2317 
Q 2634 2138 3078 2138 
L 3272 2138 
L 3272 1691 
L 3078 1691 
Q 2634 1691 2465 1509 
Q 2297 1328 2297 856 
L 2297 109 
Q 2297 -581 2036 -812 
Q 1775 -1044 997 -1044 
L 800 -1044 
L 800 -594 
z
" transform="scale(0.015625)"/>
      <path id="DejaVuSans-2c" d="M 750 794 
L 1409 794 
L 1409 256 
L 897 -744 
L 494 -744 
L 750 256 
L 750 794 
z
" transform="scale(0.015625)"/>
      <path id="DejaVuSans-35" d="M 691 4666 
L 3169 4666 
L 3169 4134 
L 1269 4134 
L 1269 2991 
Q 1406 3038 1543 3061 
Q 1681 3084 1819 3084 
Q 2600 3084 3056 2656 
Q 3513 2228 3513 1497 
Q 3513 744 3044 326 
Q 2575 -91 1722 -91 
Q 1428 -91 1123 -41 
Q 819 9 494 109 
L 494 744 
Q 775 591 1075 516 
Q 1375 441 1709 441 
Q 2250 441 2565 725 
Q 2881 1009 2881 1497 
Q 2881 1984 2565 2268 
Q 2250 2553 1709 2553 
Q 1456 2553 1204 2497 
Q 953 2441 691 2322 
L 691 4666 
z
" transform="scale(0.015625)"/>
     </defs>
     <use xlink:href="#DejaVuSans-7b"/>
     <use xlink:href="#DejaVuSans-66" x="63.623047"/>
     <use xlink:href="#DejaVuSans-31" x="98.828125"/>
     <use xlink:href="#DejaVuSans-2d" x="162.451172"/>
     <use xlink:href="#DejaVuSans-66" x="198.535156"/>
     <use xlink:href="#DejaVuSans-32" x="233.740234"/>
     <use xlink:href="#DejaVuSans-34" x="297.363281"/>
     <use xlink:href="#DejaVuSans-7d" x="360.986328"/>
     <use xlink:href="#DejaVuSans-2c" x="424.609375"/>
     <use xlink:href="#DejaVuSans-20" x="456.396484"/>
     <use xlink:href="#DejaVuSans-35" x="488.183594"/>
     <use xlink:href="#DejaVuSans-2d" x="551.806641"/>
     <use xlink:href="#DejaVuSans-44" x="587.890625"/>
    </g>
   </g>
   <g id="text_7">
    <!-- v2.6.3 -->
    <g style="fill: #808080" transform="translate(214.71875 288.777272) scale(0.1 -0.1)">
     <defs>
      <path id="DejaVuSans-76" d="M 191 3500 
L 800 3500 
L 1894 563 
L 2988 3500 
L 3597 3500 
L 2284 0 
L 1503 0 
L 191 3500 
z
" transform="scale(0.015625)"/>
      <path id="DejaVuSans-2e" d="M 684 794 
L 1344 794 
L 1344 0 
L 684 0 
L 684 794 
z
" transform="scale(0.015625)"/>
      <path id="DejaVuSans-36" d="M 2113 2584 
Q 1688 2584 1439 2293 
Q 1191 2003 1191 1497 
Q 1191 994 1439 701 
Q 1688 409 2113 409 
Q 2538 409 2786 701 
Q 3034 994 3034 1497 
Q 3034 2003 2786 2293 
Q 2538 2584 2113 2584 
z
M 3366 4563 
L 3366 3988 
Q 3128 4100 2886 4159 
Q 2644 4219 2406 4219 
Q 1781 4219 1451 3797 
Q 1122 3375 1075 2522 
Q 1259 2794 1537 2939 
Q 1816 3084 2150 3084 
Q 2853 3084 3261 2657 
Q 3669 2231 3669 1497 
Q 3669 778 3244 343 
Q 2819 -91 2113 -91 
Q 1303 -91 875 529 
Q 447 1150 447 2328 
Q 447 3434 972 4092 
Q 1497 4750 2381 4750 
Q 2619 4750 2861 4703 
Q 3103 4656 3366 4563 
z
" transform="scale(0.015625)"/>
      <path id="DejaVuSans-33" d="M 2597 2516 
Q 3050 2419 3304 2112 
Q 3559 1806 3559 1356 
Q 3559 666 3084 287 
Q 2609 -91 1734 -91 
Q 1441 -91 1130 -33 
Q 819 25 488 141 
L 488 750 
Q 750 597 1062 519 
Q 1375 441 1716 441 
Q 2309 441 2620 675 
Q 2931 909 2931 1356 
Q 2931 1769 2642 2001 
Q 2353 2234 1838 2234 
L 1294 2234 
L 1294 2753 
L 1863 2753 
Q 2328 2753 2575 2939 
Q 2822 3125 2822 3475 
Q 2822 3834 2567 4026 
Q 2313 4219 1838 4219 
Q 1578 4219 1281 4162 
Q 984 4106 628 3988 
L 628 4550 
Q 988 4650 1302 4700 
Q 1616 4750 1894 4750 
Q 2613 4750 3031 4423 
Q 3450 4097 3450 3541 
Q 3450 3153 3228 2886 
Q 3006 2619 2597 2516 
z
" transform="scale(0.015625)"/>
     </defs>
     <use xlink:href="#DejaVuSans-76"/>
     <use xlink:href="#DejaVuSans-32" x="59.179688"/>
     <use xlink:href="#DejaVuSans-2e" x="122.802734"/>
     <use xlink:href="#DejaVuSans-36" x="154.589844"/>
     <use xlink:href="#DejaVuSans-2e" x="218.212891"/>
     <use xlink:href="#DejaVuSans-33" x="250"/>
    </g>
   </g>
  </g>
 </g>
 <defs>
  <clipPath id="paa1748a8be">
   <rect x="0" y="3.456" width="460.8" height="290.304"/>
  </clipPath>
 </defs>
</svg>
