<?xml version="1.0" encoding="utf-8" standalone="no"?>
<!DOCTYPE svg PUBLIC "-//W3C//DTD SVG 1.1//EN"
  "http://www.w3.org/Graphics/SVG/1.1/DTD/svg11.dtd">
<svg xmlns:xlink="http://www.w3.org/1999/xlink" width="460.8pt" height="345.6pt" viewBox="0 0 460.8 345.6" xmlns="http://www.w3.org/2000/svg" version="1.1">
 <metadata>
  <rdf:RDF xmlns:dc="http://purl.org/dc/elements/1.1/" xmlns:cc="http://creativecommons.org/ns#" xmlns:rdf="http://www.w3.org/1999/02/22-rdf-syntax-ns#">
   <cc:Work>
    <dc:type rdf:resource="http://purl.org/dc/dcmitype/StillImage"/>
    <dc:date>2024-06-21T19:46:30.489925</dc:date>
    <dc:format>image/svg+xml</dc:format>
    <dc:creator>
     <cc:Agent>
      <dc:title>Matplotlib v3.7.5, https://matplotlib.org/</dc:title>
     </cc:Agent>
    </dc:creator>
   </cc:Work>
  </rdf:RDF>
 </metadata>
 <defs>
  <style type="text/css">*{stroke-linejoin: round; stroke-linecap: butt}</style>
 </defs>
 <g id="figure_1">
  <g id="patch_1">
   <path d="M 0 345.6 
L 460.8 345.6 
L 460.8 0 
L 0 0 
z
" style="fill: #ffffff"/>
  </g>
  <g id="axes_1">
   <g id="patch_2">
    <path d="M 0 293.76 
L 460.8 293.76 
L 460.8 3.456 
L 0 3.456 
z
" style="fill: #ffffff"/>
   </g>
   <g id="matplotlib.axis_1">
    <g id="xtick_1">
     <g id="line2d_1">
      <path d="M 101.409188 293.76 
L 101.409188 3.456 
" clip-path="url(#p090481cfee)" style="fill: none; stroke: #b0b0b0; stroke-width: 0.8; stroke-linecap: square"/>
     </g>
     <g id="line2d_2">
      <defs>
       <path id="md1dc03210f" d="M 0 0 
L 0 3.5 
" style="stroke: #000000; stroke-width: 0.8"/>
      </defs>
      <g>
       <use xlink:href="#md1dc03210f" x="101.409188" y="293.76" style="stroke: #000000; stroke-width: 0.8"/>
      </g>
     </g>
     <g id="text_1">
      <!-- -4 -->
      <g transform="translate(91.438875 315.956875) scale(0.2 -0.2)">
       <defs>
        <path id="DejaVuSans-2d" d="M 313 2009 
L 1997 2009 
L 1997 1497 
L 313 1497 
L 313 2009 
z
" transform="scale(0.015625)"/>
        <path id="DejaVuSans-34" d="M 2419 4116 
L 825 1625 
L 2419 1625 
L 2419 4116 
z
M 2253 4666 
L 3047 4666 
L 3047 1625 
L 3713 1625 
L 3713 1100 
L 3047 1100 
L 3047 0 
L 2419 0 
L 2419 1100 
L 313 1100 
L 313 1709 
L 2253 4666 
z
" transform="scale(0.015625)"/>
       </defs>
       <use xlink:href="#DejaVuSans-2d"/>
       <use xlink:href="#DejaVuSans-34" x="36.083984"/>
      </g>
     </g>
    </g>
    <g id="xtick_2">
     <g id="line2d_3">
      <path d="M 202.928051 293.76 
L 202.928051 3.456 
" clip-path="url(#p090481cfee)" style="fill: none; stroke: #b0b0b0; stroke-width: 0.8; stroke-linecap: square"/>
     </g>
     <g id="line2d_4">
      <g>
       <use xlink:href="#md1dc03210f" x="202.928051" y="293.76" style="stroke: #000000; stroke-width: 0.8"/>
      </g>
     </g>
     <g id="text_2">
      <!-- 0 -->
      <g transform="translate(196.565551 315.956875) scale(0.2 -0.2)">
       <defs>
        <path id="DejaVuSans-30" d="M 2034 4250 
Q 1547 4250 1301 3770 
Q 1056 3291 1056 2328 
Q 1056 1369 1301 889 
Q 1547 409 2034 409 
Q 2525 409 2770 889 
Q 3016 1369 3016 2328 
Q 3016 3291 2770 3770 
Q 2525 4250 2034 4250 
z
M 2034 4750 
Q 2819 4750 3233 4129 
Q 3647 3509 3647 2328 
Q 3647 1150 3233 529 
Q 2819 -91 2034 -91 
Q 1250 -91 836 529 
Q 422 1150 422 2328 
Q 422 3509 836 4129 
Q 1250 4750 2034 4750 
z
" transform="scale(0.015625)"/>
       </defs>
       <use xlink:href="#DejaVuSans-30"/>
      </g>
     </g>
    </g>
    <g id="xtick_3">
     <g id="line2d_5">
      <path d="M 304.446914 293.76 
L 304.446914 3.456 
" clip-path="url(#p090481cfee)" style="fill: none; stroke: #b0b0b0; stroke-width: 0.8; stroke-linecap: square"/>
     </g>
     <g id="line2d_6">
      <g>
       <use xlink:href="#md1dc03210f" x="304.446914" y="293.76" style="stroke: #000000; stroke-width: 0.8"/>
      </g>
     </g>
     <g id="text_3">
      <!-- 4 -->
      <g transform="translate(298.084414 315.956875) scale(0.2 -0.2)">
       <use xlink:href="#DejaVuSans-34"/>
      </g>
     </g>
    </g>
    <g id="xtick_4">
     <g id="line2d_7">
      <path d="M 405.965777 293.76 
L 405.965777 3.456 
" clip-path="url(#p090481cfee)" style="fill: none; stroke: #b0b0b0; stroke-width: 0.8; stroke-linecap: square"/>
     </g>
     <g id="line2d_8">
      <g>
       <use xlink:href="#md1dc03210f" x="405.965777" y="293.76" style="stroke: #000000; stroke-width: 0.8"/>
      </g>
     </g>
     <g id="text_4">
      <!-- 8 -->
      <g transform="translate(399.603277 315.956875) scale(0.2 -0.2)">
       <defs>
        <path id="DejaVuSans-38" d="M 2034 2216 
Q 1584 2216 1326 1975 
Q 1069 1734 1069 1313 
Q 1069 891 1326 650 
Q 1584 409 2034 409 
Q 2484 409 2743 651 
Q 3003 894 3003 1313 
Q 3003 1734 2745 1975 
Q 2488 2216 2034 2216 
z
M 1403 2484 
Q 997 2584 770 2862 
Q 544 3141 544 3541 
Q 544 4100 942 4425 
Q 1341 4750 2034 4750 
Q 2731 4750 3128 4425 
Q 3525 4100 3525 3541 
Q 3525 3141 3298 2862 
Q 3072 2584 2669 2484 
Q 3125 2378 3379 2068 
Q 3634 1759 3634 1313 
Q 3634 634 3220 271 
Q 2806 -91 2034 -91 
Q 1263 -91 848 271 
Q 434 634 434 1313 
Q 434 1759 690 2068 
Q 947 2378 1403 2484 
z
M 1172 3481 
Q 1172 3119 1398 2916 
Q 1625 2713 2034 2713 
Q 2441 2713 2670 2916 
Q 2900 3119 2900 3481 
Q 2900 3844 2670 4047 
Q 2441 4250 2034 4250 
Q 1625 4250 1398 4047 
Q 1172 3844 1172 3481 
z
" transform="scale(0.015625)"/>
       </defs>
       <use xlink:href="#DejaVuSans-38"/>
      </g>
     </g>
    </g>
    <g id="text_5">
     <!-- log10 of Df -->
     <g transform="translate(175.214063 339.313125) scale(0.2 -0.2)">
      <defs>
       <path id="DejaVuSans-6c" d="M 603 4863 
L 1178 4863 
L 1178 0 
L 603 0 
L 603 4863 
z
" transform="scale(0.015625)"/>
       <path id="DejaVuSans-6f" d="M 1959 3097 
Q 1497 3097 1228 2736 
Q 959 2375 959 1747 
Q 959 1119 1226 758 
Q 1494 397 1959 397 
Q 2419 397 2687 759 
Q 2956 1122 2956 1747 
Q 2956 2369 2687 2733 
Q 2419 3097 1959 3097 
z
M 1959 3584 
Q 2709 3584 3137 3096 
Q 3566 2609 3566 1747 
Q 3566 888 3137 398 
Q 2709 -91 1959 -91 
Q 1206 -91 779 398 
Q 353 888 353 1747 
Q 353 2609 779 3096 
Q 1206 3584 1959 3584 
z
" transform="scale(0.015625)"/>
       <path id="DejaVuSans-67" d="M 2906 1791 
Q 2906 2416 2648 2759 
Q 2391 3103 1925 3103 
Q 1463 3103 1205 2759 
Q 947 2416 947 1791 
Q 947 1169 1205 825 
Q 1463 481 1925 481 
Q 2391 481 2648 825 
Q 2906 1169 2906 1791 
z
M 3481 434 
Q 3481 -459 3084 -895 
Q 2688 -1331 1869 -1331 
Q 1566 -1331 1297 -1286 
Q 1028 -1241 775 -1147 
L 775 -588 
Q 1028 -725 1275 -790 
Q 1522 -856 1778 -856 
Q 2344 -856 2625 -561 
Q 2906 -266 2906 331 
L 2906 616 
Q 2728 306 2450 153 
Q 2172 0 1784 0 
Q 1141 0 747 490 
Q 353 981 353 1791 
Q 353 2603 747 3093 
Q 1141 3584 1784 3584 
Q 2172 3584 2450 3431 
Q 2728 3278 2906 2969 
L 2906 3500 
L 3481 3500 
L 3481 434 
z
" transform="scale(0.015625)"/>
       <path id="DejaVuSans-31" d="M 794 531 
L 1825 531 
L 1825 4091 
L 703 3866 
L 703 4441 
L 1819 4666 
L 2450 4666 
L 2450 531 
L 3481 531 
L 3481 0 
L 794 0 
L 794 531 
z
" transform="scale(0.015625)"/>
       <path id="DejaVuSans-20" transform="scale(0.015625)"/>
       <path id="DejaVuSans-66" d="M 2375 4863 
L 2375 4384 
L 1825 4384 
Q 1516 4384 1395 4259 
Q 1275 4134 1275 3809 
L 1275 3500 
L 2222 3500 
L 2222 3053 
L 1275 3053 
L 1275 0 
L 697 0 
L 697 3053 
L 147 3053 
L 147 3500 
L 697 3500 
L 697 3744 
Q 697 4328 969 4595 
Q 1241 4863 1831 4863 
L 2375 4863 
z
" transform="scale(0.015625)"/>
       <path id="DejaVuSans-44" d="M 1259 4147 
L 1259 519 
L 2022 519 
Q 2988 519 3436 956 
Q 3884 1394 3884 2338 
Q 3884 3275 3436 3711 
Q 2988 4147 2022 4147 
L 1259 4147 
z
M 628 4666 
L 1925 4666 
Q 3281 4666 3915 4102 
Q 4550 3538 4550 2338 
Q 4550 1131 3912 565 
Q 3275 0 1925 0 
L 628 0 
L 628 4666 
z
" transform="scale(0.015625)"/>
      </defs>
      <use xlink:href="#DejaVuSans-6c"/>
      <use xlink:href="#DejaVuSans-6f" x="27.783203"/>
      <use xlink:href="#DejaVuSans-67" x="88.964844"/>
      <use xlink:href="#DejaVuSans-31" x="152.441406"/>
      <use xlink:href="#DejaVuSans-30" x="216.064453"/>
      <use xlink:href="#DejaVuSans-20" x="279.6875"/>
      <use xlink:href="#DejaVuSans-6f" x="311.474609"/>
      <use xlink:href="#DejaVuSans-66" x="372.65625"/>
      <use xlink:href="#DejaVuSans-20" x="407.861328"/>
      <use xlink:href="#DejaVuSans-44" x="439.648438"/>
      <use xlink:href="#DejaVuSans-66" x="516.650391"/>
     </g>
    </g>
   </g>
   <g id="matplotlib.axis_2">
    <g id="ytick_1">
     <g id="line2d_9">
      <path d="M 0 293.76 
L 460.8 293.76 
" clip-path="url(#p090481cfee)" style="fill: none; stroke: #b0b0b0; stroke-width: 0.8; stroke-linecap: square"/>
     </g>
     <g id="line2d_10">
      <defs>
       <path id="mfad78ed9f4" d="M 0 0 
L -3.5 0 
" style="stroke: #000000; stroke-width: 0.8"/>
      </defs>
      <g>
       <use xlink:href="#mfad78ed9f4" x="0" y="293.76" style="stroke: #000000; stroke-width: 0.8"/>
      </g>
     </g>
    </g>
    <g id="ytick_2">
     <g id="line2d_11">
      <path d="M 0 236.274059 
L 460.8 236.274059 
" clip-path="url(#p090481cfee)" style="fill: none; stroke: #b0b0b0; stroke-width: 0.8; stroke-linecap: square"/>
     </g>
     <g id="line2d_12">
      <g>
       <use xlink:href="#mfad78ed9f4" x="0" y="236.274059" style="stroke: #000000; stroke-width: 0.8"/>
      </g>
     </g>
    </g>
    <g id="ytick_3">
     <g id="line2d_13">
      <path d="M 0 178.788119 
L 460.8 178.788119 
" clip-path="url(#p090481cfee)" style="fill: none; stroke: #b0b0b0; stroke-width: 0.8; stroke-linecap: square"/>
     </g>
     <g id="line2d_14">
      <g>
       <use xlink:href="#mfad78ed9f4" x="0" y="178.788119" style="stroke: #000000; stroke-width: 0.8"/>
      </g>
     </g>
    </g>
    <g id="ytick_4">
     <g id="line2d_15">
      <path d="M 0 121.302178 
L 460.8 121.302178 
" clip-path="url(#p090481cfee)" style="fill: none; stroke: #b0b0b0; stroke-width: 0.8; stroke-linecap: square"/>
     </g>
     <g id="line2d_16">
      <g>
       <use xlink:href="#mfad78ed9f4" x="0" y="121.302178" style="stroke: #000000; stroke-width: 0.8"/>
      </g>
     </g>
    </g>
    <g id="ytick_5">
     <g id="line2d_17">
      <path d="M 0 63.816238 
L 460.8 63.816238 
" clip-path="url(#p090481cfee)" style="fill: none; stroke: #b0b0b0; stroke-width: 0.8; stroke-linecap: square"/>
     </g>
     <g id="line2d_18">
      <g>
       <use xlink:href="#mfad78ed9f4" x="0" y="63.816238" style="stroke: #000000; stroke-width: 0.8"/>
      </g>
     </g>
    </g>
    <g id="ytick_6">
     <g id="line2d_19">
      <path d="M 0 6.330297 
L 460.8 6.330297 
" clip-path="url(#p090481cfee)" style="fill: none; stroke: #b0b0b0; stroke-width: 0.8; stroke-linecap: square"/>
     </g>
     <g id="line2d_20">
      <g>
       <use xlink:href="#mfad78ed9f4" x="0" y="6.330297" style="stroke: #000000; stroke-width: 0.8"/>
      </g>
     </g>
    </g>
   </g>
   <g id="line2d_21">
    <path d="M -1 229.886733 
L -0.109675 229.886733 
L -0.109675 217.910495 
L 3.684196 217.910495 
L 3.684196 217.112079 
L 4.799228 217.112079 
L 4.799228 216.313663 
L 5.234571 216.313663 
L 5.234571 215.515248 
L 7.590522 215.515248 
L 7.590522 214.716832 
L 8.396005 214.716832 
L 8.396005 213.918416 
L 9.787687 213.918416 
L 9.787687 213.12 
L 11.819001 213.12 
L 11.924292 211.523168 
L 12.351191 211.523168 
L 12.458012 209.926337 
L 12.469488 209.926337 
L 12.469488 209.127921 
L 14.11744 209.127921 
L 14.11744 208.329505 
L 15.790153 208.329505 
L 15.790153 207.531089 
L 16.120367 207.531089 
L 16.120367 206.732673 
L 16.439016 206.732673 
L 16.439016 205.934257 
L 17.422241 205.934257 
L 17.45054 204.337426 
L 17.935659 204.337426 
L 17.935659 203.53901 
L 19.19066 203.53901 
L 19.19066 202.740594 
L 24.604091 202.740594 
L 24.604091 201.942178 
L 25.009279 201.942178 
L 25.009279 201.143762 
L 26.264538 201.143762 
L 26.278898 199.546931 
L 31.968001 199.546931 
L 31.968001 198.748515 
L 33.130258 198.748515 
L 33.130258 197.950099 
L 36.219845 197.950099 
L 36.219845 197.151683 
L 37.39406 197.151683 
L 37.39406 196.353267 
L 38.994475 196.353267 
L 38.994475 195.554851 
L 53.916074 195.554851 
L 53.916074 194.756436 
L 62.259773 194.756436 
L 62.259773 193.95802 
L 69.661739 193.95802 
L 69.661739 193.159604 
L 70.33385 193.159604 
L 70.33385 192.361188 
L 74.57436 192.361188 
L 74.57436 191.562772 
L 79.586513 191.562772 
L 79.586513 190.764356 
L 80.404954 190.764356 
L 80.404954 189.965941 
L 101.76918 189.965941 
L 101.76918 189.167525 
L 101.995253 189.167525 
L 101.995253 188.369109 
L 102.312419 188.369109 
L 102.312419 187.570693 
L 104.063482 187.570693 
L 104.063482 186.772277 
L 108.364671 186.772277 
L 108.364671 185.973861 
L 111.201794 185.973861 
L 111.201794 185.175446 
L 112.632488 185.175446 
L 112.632488 184.37703 
L 119.007603 184.37703 
L 119.007603 183.578614 
L 121.871816 183.578614 
L 121.871816 182.780198 
L 123.938238 182.780198 
L 123.938238 181.981782 
L 124.731645 181.981782 
L 124.731645 181.183366 
L 128.572914 181.183366 
L 128.572914 180.38495 
L 129.16521 180.38495 
L 129.16521 179.586535 
L 135.632855 179.586535 
L 135.632855 178.788119 
L 140.532965 178.788119 
L 140.532965 177.989703 
L 143.55155 177.989703 
L 143.55155 177.191287 
L 146.047253 177.191287 
L 146.047253 176.392871 
L 146.923082 176.392871 
L 146.923082 175.594455 
L 148.703175 175.594455 
L 148.703175 174.79604 
L 150.832793 174.79604 
L 150.832793 173.997624 
L 152.201393 173.997624 
L 152.201393 173.199208 
L 154.280232 173.199208 
L 154.280232 172.400792 
L 155.609583 172.400792 
L 155.609583 171.602376 
L 156.837369 171.602376 
L 156.837369 170.80396 
L 157.027765 170.80396 
L 157.027765 170.005545 
L 157.207767 170.005545 
L 157.207767 169.207129 
L 167.390713 169.207129 
L 167.390713 168.408713 
L 170.580193 168.408713 
L 170.580193 167.610297 
L 171.381116 167.610297 
L 171.381116 166.811881 
L 171.96967 166.811881 
L 171.96967 166.013465 
L 172.414508 166.013465 
L 172.414508 165.21505 
L 172.701324 165.21505 
L 172.701324 164.416634 
L 173.318997 164.416634 
L 173.318997 163.618218 
L 173.702641 163.618218 
L 173.702641 162.819802 
L 174.617954 162.819802 
L 174.617954 162.021386 
L 177.194791 162.021386 
L 177.194791 161.22297 
L 179.335838 161.22297 
L 179.413422 159.626139 
L 180.745446 159.626139 
L 180.745446 158.827723 
L 182.213863 158.827723 
L 182.213863 158.029307 
L 182.509883 158.029307 
L 182.509883 157.230891 
L 182.89898 157.230891 
L 182.89898 156.432475 
L 184.057482 156.432475 
L 184.057482 155.634059 
L 184.321213 155.634059 
L 184.377204 154.037228 
L 185.811159 154.037228 
L 185.811159 153.238812 
L 186.896865 153.238812 
L 186.896865 152.440396 
L 187.269249 152.440396 
L 187.30727 150.843564 
L 188.240141 150.843564 
L 188.303951 149.246733 
L 188.544009 149.246733 
L 188.544009 148.448317 
L 189.913095 148.448317 
L 189.913095 147.649901 
L 190.123257 147.649901 
L 190.123257 146.851485 
L 190.697946 146.851485 
L 190.697946 146.053069 
L 191.993001 146.053069 
L 191.993001 145.254653 
L 192.320507 145.254653 
L 192.320507 144.456238 
L 192.480277 144.456238 
L 192.480277 143.657822 
L 194.214084 143.657822 
L 194.214084 142.859406 
L 195.273858 142.859406 
L 195.273858 142.06099 
L 196.253292 142.06099 
L 196.253292 141.262574 
L 197.862836 141.262574 
L 197.862836 140.464158 
L 198.328776 140.464158 
L 198.328776 139.665743 
L 198.86771 139.665743 
L 198.86771 138.068911 
L 200.101155 138.068911 
L 200.106481 136.472079 
L 200.736931 136.472079 
L 200.736931 135.673663 
L 201.879426 135.673663 
L 201.909294 134.076832 
L 202.128126 134.076832 
L 202.128126 133.278416 
L 202.981654 133.278416 
L 202.981654 132.48 
L 204.978398 132.48 
L 204.978398 131.681584 
L 205.456281 131.681584 
L 205.456281 130.883168 
L 206.502666 130.883168 
L 206.5546 129.286337 
L 207.191304 129.286337 
L 207.287453 126.891089 
L 207.826151 126.891089 
L 207.933696 125.294257 
L 208.380742 125.294257 
L 208.470538 123.697426 
L 209.293925 123.697426 
L 209.293925 122.89901 
L 209.425268 122.89901 
L 209.507863 120.503762 
L 209.916858 120.503762 
L 209.916858 119.705347 
L 210.03198 119.705347 
L 210.03198 118.906931 
L 210.317266 118.906931 
L 210.317266 117.310099 
L 210.479323 117.310099 
L 210.47943 115.713267 
L 210.63005 115.713267 
L 210.643905 114.116436 
L 210.750161 114.116436 
L 210.750161 113.31802 
L 211.118533 113.31802 
L 211.118533 112.519604 
L 211.375657 112.519604 
L 211.375657 111.721188 
L 211.526072 111.721188 
L 211.526072 110.922772 
L 211.674727 110.922772 
L 211.674983 109.325941 
L 211.894742 109.325941 
L 211.939746 107.729109 
L 212.053276 107.729109 
L 212.053276 106.930693 
L 212.287929 106.930693 
L 212.302892 105.333861 
L 212.480032 105.333861 
L 212.541065 103.73703 
L 212.802538 103.73703 
L 212.907851 100.543366 
L 213.137779 100.543366 
L 213.137779 99.74495 
L 213.339485 99.74495 
L 213.419812 97.349703 
L 213.916969 97.349703 
L 213.916969 96.551287 
L 214.061267 96.551287 
L 214.061267 95.752871 
L 214.313485 95.752871 
L 214.313485 94.954455 
L 214.806307 94.954455 
L 214.814987 93.357624 
L 215.369152 93.357624 
L 215.369152 92.559208 
L 215.582402 92.559208 
L 215.582402 91.760792 
L 215.756898 91.760792 
L 215.756898 90.962376 
L 216.132302 90.962376 
L 216.132302 90.16396 
L 216.341387 90.16396 
L 216.341387 89.365545 
L 216.904059 89.365545 
L 216.904059 88.567129 
L 217.408664 88.567129 
L 217.408664 87.768713 
L 218.071553 87.768713 
L 218.179611 86.171881 
L 218.868189 86.171881 
L 218.877391 84.57505 
L 219.157604 84.57505 
L 219.185277 82.978218 
L 220.059932 82.978218 
L 220.059932 82.179802 
L 220.240175 82.179802 
L 220.240175 81.381386 
L 220.708526 81.381386 
L 220.805152 78.187723 
L 221.069313 78.187723 
L 221.069313 77.389307 
L 222.267846 77.389307 
L 222.267846 76.590891 
L 223.20613 76.590891 
L 223.20613 75.792475 
L 223.946452 75.792475 
L 224.035792 74.195644 
L 224.39386 74.195644 
L 224.401421 72.598812 
L 224.731716 72.598812 
L 224.731716 71.800396 
L 224.865414 71.800396 
L 224.865414 71.00198 
L 225.769297 71.00198 
L 225.769297 70.203564 
L 226.397829 70.203564 
L 226.397829 69.405149 
L 226.826812 69.405149 
L 226.826812 67.009901 
L 227.809256 67.009901 
L 227.809256 66.211485 
L 228.230835 66.211485 
L 228.314373 64.614653 
L 229.068615 64.614653 
L 229.068615 63.816238 
L 229.280294 63.816238 
L 229.280294 63.017822 
L 229.483461 63.017822 
L 229.483461 62.219406 
L 231.138952 62.219406 
L 231.138952 61.42099 
L 231.846602 61.42099 
L 231.846602 60.622574 
L 232.177582 60.622574 
L 232.177582 59.824158 
L 234.100785 59.824158 
L 234.100788 57.428911 
L 234.494535 57.428911 
L 234.494535 56.630495 
L 235.326742 56.630495 
L 235.326745 55.033663 
L 236.942649 55.033663 
L 236.942649 54.235248 
L 237.112791 54.235248 
L 237.112791 53.436832 
L 237.432606 53.436832 
L 237.432606 51.84 
L 237.901707 51.84 
L 237.90171 49.444752 
L 238.35165 49.444752 
L 238.35165 48.646337 
L 238.918453 48.646337 
L 238.918453 47.847921 
L 239.199939 47.847921 
L 239.199943 46.251089 
L 239.470335 46.251089 
L 239.470335 45.452673 
L 239.600789 45.452673 
L 239.600797 43.057426 
L 239.987584 43.057426 
L 239.987584 42.25901 
L 240.361248 42.25901 
L 240.447132 38.266931 
L 240.722667 38.266931 
L 240.722667 37.468515 
L 241.072609 37.468515 
L 241.072611 34.274851 
L 241.411783 34.274851 
L 241.411783 33.476436 
L 242.060319 33.476436 
L 242.06034 31.879604 
L 242.4155 31.879604 
L 242.4155 31.081188 
L 242.693335 31.081188 
L 242.693335 30.282772 
L 242.966786 30.282772 
L 242.966792 28.685941 
L 243.253099 28.685941 
L 243.355032 26.290693 
L 243.532158 26.290693 
L 243.532158 24.693861 
L 243.719651 24.693861 
L 243.804333 22.298614 
L 244.582679 22.298614 
L 244.644688 19.10495 
L 244.828346 19.10495 
L 244.828346 18.306535 
L 245.541737 18.306535 
L 245.541737 17.508119 
L 245.769009 17.508119 
L 245.769009 16.709703 
L 245.938433 16.709703 
L 245.938433 15.911287 
L 246.083419 15.911287 
L 246.083419 15.112871 
L 246.20996 15.112871 
L 246.20996 14.314455 
L 246.479327 14.314455 
L 246.479327 13.51604 
L 246.633942 13.51604 
L 246.68333 11.919208 
L 247.816046 11.919208 
L 247.816046 11.120792 
L 247.927388 11.120792 
L 247.937447 9.52396 
L 248.262342 9.52396 
L 248.262342 8.725545 
L 249.90595 8.725545 
L 249.90595 7.927129 
L 254.020104 7.927129 
L 254.020104 7.128713 
L 255.28902 7.128713 
L 255.28902 6.330297 
L 255.28902 6.330297 
L 460.8 6.330297 
L 460.8 6.330297 
" clip-path="url(#p090481cfee)" style="fill: none; stroke: #ff0000; stroke-width: 3; stroke-linecap: square"/>
   </g>
   <g id="line2d_22">
    <path d="M 221.848432 293.76 
L 221.848432 292.961584 
L 226.657731 292.961584 
L 226.657731 292.163168 
L 227.834553 292.163168 
L 227.834553 291.364752 
L 228.185697 291.364752 
L 228.185697 290.566337 
L 229.017019 290.566337 
L 229.017019 289.767921 
L 229.312289 289.767921 
L 229.327312 287.372673 
L 229.963435 287.372673 
L 229.963435 286.574257 
L 231.11797 286.574257 
L 231.11797 285.775842 
L 232.487375 285.775842 
L 232.487375 284.977426 
L 233.099159 284.977426 
L 233.158783 283.380594 
L 233.523196 283.380594 
L 233.523196 282.582178 
L 233.889437 282.582178 
L 233.889437 281.783762 
L 235.471852 281.783762 
L 235.471852 280.985347 
L 240.123876 280.985347 
L 240.139436 279.388515 
L 240.40286 279.388515 
L 240.40286 278.590099 
L 240.675836 278.590099 
L 240.675836 277.791683 
L 241.025048 277.791683 
L 241.025048 276.993267 
L 241.263872 276.993267 
L 241.263872 276.194851 
L 242.235692 276.194851 
L 242.235692 275.396436 
L 243.217541 275.396436 
L 243.250754 273.799604 
L 243.62706 273.799604 
L 243.696285 272.202772 
L 244.033454 272.202772 
L 244.033454 271.404356 
L 244.307139 271.404356 
L 244.380256 269.009109 
L 244.779538 269.009109 
L 244.849368 266.613861 
L 244.919533 266.613861 
L 244.919533 265.815446 
L 245.138143 265.815446 
L 245.138143 265.01703 
L 245.337091 265.01703 
L 245.432457 261.823366 
L 245.544567 261.823366 
L 245.625981 260.226535 
L 245.712569 260.226535 
L 245.712569 259.428119 
L 245.853625 259.428119 
L 245.853625 258.629703 
L 246.026924 258.629703 
L 246.026924 257.831287 
L 246.18541 257.831287 
L 246.18541 257.032871 
L 246.444237 257.032871 
L 246.445072 255.43604 
L 247.111883 255.43604 
L 247.140231 253.040792 
L 247.281608 253.040792 
L 247.284839 251.44396 
L 247.700252 251.44396 
L 247.700252 250.645545 
L 247.904528 250.645545 
L 247.995232 249.048713 
L 248.101626 249.048713 
L 248.101626 248.250297 
L 248.336691 248.250297 
L 248.336691 247.451881 
L 248.742166 247.451881 
L 248.790563 245.85505 
L 248.948603 245.85505 
L 249.003488 243.459802 
L 249.263796 243.459802 
L 249.263796 242.661386 
L 249.648455 242.661386 
L 249.648455 241.86297 
L 249.917933 241.86297 
L 249.917933 241.064554 
L 251.510668 241.064554 
L 251.510668 240.266139 
L 251.66116 240.266139 
L 251.6714 238.669307 
L 251.773885 238.669307 
L 251.882159 234.677228 
L 251.892514 234.677228 
L 252.003483 227.491485 
L 252.010948 227.491485 
L 252.103748 217.112079 
L 252.852082 217.112079 
L 252.852082 216.313663 
L 253.396838 216.313663 
L 253.438132 213.918416 
L 253.637507 213.918416 
L 253.637507 213.12 
L 253.914748 213.12 
L 253.914748 212.321584 
L 254.107669 212.321584 
L 254.107669 211.523168 
L 254.30179 211.523168 
L 254.30179 210.724752 
L 254.499063 210.724752 
L 254.499063 209.926337 
L 254.639499 209.926337 
L 254.639499 209.127921 
L 254.847371 209.127921 
L 254.847371 208.329505 
L 255.260146 208.329505 
L 255.322351 206.732673 
L 255.375071 206.732673 
L 255.481971 204.337426 
L 255.789398 204.337426 
L 255.789398 203.53901 
L 256.414213 203.53901 
L 256.414213 202.740594 
L 257.058038 202.740594 
L 257.058038 201.942178 
L 257.185112 201.942178 
L 257.185112 201.143762 
L 258.084576 201.143762 
L 258.131732 199.546931 
L 258.599869 199.546931 
L 258.599869 198.748515 
L 258.774808 198.748515 
L 258.774808 197.950099 
L 259.161586 197.950099 
L 259.161586 197.151683 
L 260.103661 197.151683 
L 260.103661 196.353267 
L 260.218345 196.353267 
L 260.218345 195.554851 
L 260.415608 195.554851 
L 260.415608 194.756436 
L 260.626627 194.756436 
L 260.656701 193.159604 
L 261.415446 193.159604 
L 261.415446 192.361188 
L 261.56867 192.361188 
L 261.619392 190.764356 
L 262.192899 190.764356 
L 262.192899 189.965941 
L 262.37809 189.965941 
L 262.37809 189.167525 
L 262.962013 189.167525 
L 262.962013 188.369109 
L 263.261311 188.369109 
L 263.261311 187.570693 
L 264.155335 187.570693 
L 264.155335 186.772277 
L 264.347759 186.772277 
L 264.347759 185.973861 
L 264.62922 185.973861 
L 264.690166 184.37703 
L 265.142448 184.37703 
L 265.252163 182.780198 
L 265.486987 182.780198 
L 265.52561 181.183366 
L 265.789053 181.183366 
L 265.789053 180.38495 
L 266.019373 180.38495 
L 266.019373 179.586535 
L 266.419348 179.586535 
L 266.439845 177.989703 
L 266.637126 177.989703 
L 266.649125 176.392871 
L 266.811288 176.392871 
L 266.811288 175.594455 
L 267.640986 175.594455 
L 267.640986 174.79604 
L 267.858227 174.79604 
L 267.858227 173.997624 
L 269.670051 173.997624 
L 269.670051 173.199208 
L 274.326389 173.199208 
L 274.326389 172.400792 
L 275.688402 172.400792 
L 275.688402 171.602376 
L 275.885355 171.602376 
L 275.910382 170.005545 
L 276.227909 170.005545 
L 276.227909 169.207129 
L 276.672294 169.207129 
L 276.685154 167.610297 
L 277.627772 167.610297 
L 277.627772 166.811881 
L 278.690865 166.811881 
L 278.73295 164.416634 
L 279.361599 164.416634 
L 279.42227 162.819802 
L 279.481929 162.819802 
L 279.567481 159.626139 
L 280.027851 159.626139 
L 280.027851 158.827723 
L 280.302064 158.827723 
L 280.302064 158.029307 
L 280.713396 158.029307 
L 280.816718 155.634059 
L 281.036014 155.634059 
L 281.036014 154.835644 
L 281.237925 154.835644 
L 281.278389 153.238812 
L 281.701104 153.238812 
L 281.701104 152.440396 
L 281.894869 152.440396 
L 281.966574 150.843564 
L 282.016099 150.843564 
L 282.016099 150.045149 
L 282.173579 150.045149 
L 282.173579 149.246733 
L 282.507977 149.246733 
L 282.562468 146.851485 
L 282.798103 146.851485 
L 282.798103 146.053069 
L 283.043224 146.053069 
L 283.043224 145.254653 
L 283.27808 145.254653 
L 283.287109 143.657822 
L 283.396948 143.657822 
L 283.396948 142.859406 
L 284.001001 142.859406 
L 284.05883 141.262574 
L 284.177215 141.262574 
L 284.177215 140.464158 
L 284.452912 140.464158 
L 284.556636 138.867327 
L 284.860662 138.867327 
L 284.893221 137.270495 
L 285.205208 137.270495 
L 285.205208 136.472079 
L 285.351377 136.472079 
L 285.351377 135.673663 
L 286.04257 135.673663 
L 286.04257 134.875248 
L 286.198611 134.875248 
L 286.224372 133.278416 
L 286.789583 133.278416 
L 286.850268 131.681584 
L 287.253616 131.681584 
L 287.253616 130.883168 
L 287.524949 130.883168 
L 287.592416 128.487921 
L 287.740567 128.487921 
L 287.840696 126.092673 
L 287.897446 126.092673 
L 287.897446 125.294257 
L 288.068866 125.294257 
L 288.161128 122.89901 
L 288.20923 122.89901 
L 288.266607 120.503762 
L 288.409731 120.503762 
L 288.456627 118.108515 
L 288.525373 118.108515 
L 288.59568 116.511683 
L 288.781309 116.511683 
L 288.781309 115.713267 
L 288.894235 115.713267 
L 288.963347 114.116436 
L 289.281251 114.116436 
L 289.297731 112.519604 
L 289.489048 112.519604 
L 289.551127 110.922772 
L 289.878188 110.922772 
L 289.932902 108.527525 
L 290.318371 108.527525 
L 290.318371 107.729109 
L 290.696738 107.729109 
L 290.708577 106.132277 
L 290.922888 106.132277 
L 290.928975 104.535446 
L 291.193494 104.535446 
L 291.20103 102.938614 
L 291.98089 102.938614 
L 291.981528 101.341782 
L 293.091594 101.341782 
L 293.091594 100.543366 
L 293.773751 100.543366 
L 293.773751 99.74495 
L 303.546029 99.74495 
L 303.546029 98.946535 
L 308.082929 98.946535 
L 308.082929 98.148119 
L 310.891422 98.148119 
L 310.891422 97.349703 
L 318.225492 97.349703 
L 318.225492 96.551287 
L 318.76857 96.551287 
L 318.76857 95.752871 
L 322.297487 95.752871 
L 322.297487 94.954455 
L 324.137656 94.954455 
L 324.137656 94.15604 
L 326.331723 94.15604 
L 326.350028 92.559208 
L 327.477246 92.559208 
L 327.477246 91.760792 
L 328.887613 91.760792 
L 328.887613 90.962376 
L 329.018814 90.962376 
L 329.018814 90.16396 
L 331.066484 90.16396 
L 331.075917 88.567129 
L 331.37102 88.567129 
L 331.37102 87.768713 
L 331.486354 87.768713 
L 331.486354 86.970297 
L 332.397479 86.970297 
L 332.397479 86.171881 
L 333.041552 86.171881 
L 333.041552 85.373465 
L 334.071321 85.373465 
L 334.071321 84.57505 
L 334.339591 84.57505 
L 334.339591 83.776634 
L 334.607611 83.776634 
L 334.706406 82.179802 
L 335.199889 82.179802 
L 335.199889 81.381386 
L 335.637719 81.381386 
L 335.694417 78.986139 
L 337.196862 78.986139 
L 337.196862 78.187723 
L 338.102291 78.187723 
L 338.102291 77.389307 
L 338.3214 77.389307 
L 338.3214 76.590891 
L 338.976219 76.590891 
L 338.996019 74.994059 
L 341.738641 74.994059 
L 341.738641 74.195644 
L 342.055782 74.195644 
L 342.100236 71.800396 
L 342.545499 71.800396 
L 342.545499 71.00198 
L 342.857581 71.00198 
L 342.91654 69.405149 
L 343.122109 69.405149 
L 343.122109 68.606733 
L 343.306607 68.606733 
L 343.332626 66.211485 
L 343.545215 66.211485 
L 343.577704 64.614653 
L 343.920823 64.614653 
L 343.920823 63.816238 
L 344.45979 63.816238 
L 344.523208 62.219406 
L 344.586188 62.219406 
L 344.586188 61.42099 
L 344.977001 61.42099 
L 345.064823 59.824158 
L 345.369269 59.824158 
L 345.369269 59.025743 
L 345.612571 59.025743 
L 345.612571 58.227327 
L 346.208213 58.227327 
L 346.208213 57.428911 
L 346.594198 57.428911 
L 346.649092 55.832079 
L 346.819532 55.832079 
L 346.846984 54.235248 
L 348.005575 54.235248 
L 348.00616 52.638416 
L 349.185522 52.638416 
L 349.278118 51.041584 
L 349.365803 51.041584 
L 349.365803 50.243168 
L 349.509394 50.243168 
L 349.509394 49.444752 
L 350.017882 49.444752 
L 350.017882 48.646337 
L 350.222715 48.646337 
L 350.278906 47.049505 
L 350.963216 47.049505 
L 350.963216 46.251089 
L 351.081535 46.251089 
L 351.166287 44.654257 
L 352.080471 44.654257 
L 352.080471 43.855842 
L 352.741739 43.855842 
L 352.741739 43.057426 
L 355.767196 43.057426 
L 355.767196 42.25901 
L 364.766255 42.25901 
L 364.766255 41.460594 
L 369.884932 41.460594 
L 369.884932 40.662178 
L 371.577085 40.662178 
L 371.577085 39.863762 
L 371.706588 39.863762 
L 371.706588 39.065347 
L 372.13481 39.065347 
L 372.13481 38.266931 
L 372.93174 38.266931 
L 372.93174 37.468515 
L 373.531566 37.468515 
L 373.542712 35.871683 
L 375.436611 35.871683 
L 375.511751 34.274851 
L 375.971364 34.274851 
L 376.020267 32.67802 
L 376.588938 32.67802 
L 376.588938 31.879604 
L 376.863851 31.879604 
L 376.899026 30.282772 
L 377.107026 30.282772 
L 377.107026 29.484356 
L 377.963236 29.484356 
L 377.963236 28.685941 
L 378.196099 28.685941 
L 378.196099 27.887525 
L 378.591844 27.887525 
L 378.591844 27.089109 
L 378.92881 27.089109 
L 378.92881 26.290693 
L 379.318139 26.290693 
L 379.318139 25.492277 
L 379.434834 25.492277 
L 379.434834 24.693861 
L 379.70939 24.693861 
L 379.70939 23.895446 
L 380.546274 23.895446 
L 380.584763 21.500198 
L 380.717057 21.500198 
L 380.717057 20.701782 
L 383.821267 20.701782 
L 383.821267 19.903366 
L 384.225674 19.903366 
L 384.225674 19.10495 
L 387.875351 19.10495 
L 387.875351 18.306535 
L 412.699847 18.306535 
L 412.699847 17.508119 
L 415.0776 17.508119 
L 415.0776 16.709703 
L 416.180841 16.709703 
L 416.180841 15.911287 
L 417.647287 15.911287 
L 417.647287 15.112871 
L 417.79713 15.112871 
L 417.79713 14.314455 
L 418.45441 14.314455 
L 418.45441 13.51604 
L 419.315213 13.51604 
L 419.315213 12.717624 
L 419.685774 12.717624 
L 419.685774 11.919208 
L 419.807121 11.919208 
L 419.807121 11.120792 
L 421.705884 11.120792 
L 421.705884 10.322376 
L 422.144756 10.322376 
L 422.144756 9.52396 
L 422.748747 9.52396 
L 422.799583 7.927129 
L 428.125232 7.927129 
L 428.125232 7.128713 
L 429.965962 7.128713 
L 429.965962 6.330297 
L 429.965962 6.330297 
L 460.8 6.330297 
L 460.8 6.330297 
" clip-path="url(#p090481cfee)" style="fill: none; stroke: #00bfbf; stroke-width: 1.5; stroke-linecap: square"/>
   </g>
   <g id="line2d_23">
    <path d="M 221.848432 293.76 
L 221.848432 292.961584 
L 225.241435 292.961584 
L 225.241435 292.163168 
L 226.657731 292.163168 
L 226.657731 291.364752 
L 227.058329 291.364752 
L 227.058329 290.566337 
L 227.449964 290.566337 
L 227.449964 289.767921 
L 227.567053 289.767921 
L 227.567053 288.969505 
L 227.834553 288.969505 
L 227.834553 288.171089 
L 228.185697 288.171089 
L 228.185697 287.372673 
L 229.017019 287.372673 
L 229.017019 286.574257 
L 229.21103 286.574257 
L 229.21103 285.775842 
L 229.542671 285.775842 
L 229.542671 284.977426 
L 231.11797 284.977426 
L 231.11797 284.17901 
L 231.479894 284.17901 
L 231.479894 283.380594 
L 232.001363 283.380594 
L 232.001363 282.582178 
L 232.44104 282.582178 
L 232.44104 281.783762 
L 234.201303 281.783762 
L 234.201303 280.985347 
L 235.471852 280.985347 
L 235.471852 280.186931 
L 236.247194 280.186931 
L 236.247194 279.388515 
L 236.380767 279.388515 
L 236.380767 278.590099 
L 236.665068 278.590099 
L 236.665068 277.791683 
L 237.373372 277.791683 
L 237.373372 276.993267 
L 237.49809 276.993267 
L 237.49809 276.194851 
L 237.662133 276.194851 
L 237.728239 274.59802 
L 237.911685 274.59802 
L 237.973488 273.001188 
L 238.223335 273.001188 
L 238.223335 272.202772 
L 238.823058 272.202772 
L 238.873832 269.009109 
L 238.998835 269.009109 
L 238.998835 268.210693 
L 239.147466 268.210693 
L 239.147466 267.412277 
L 239.326976 267.412277 
L 239.334195 265.815446 
L 239.79634 265.815446 
L 239.79634 265.01703 
L 240.139436 265.01703 
L 240.139436 264.218614 
L 240.298948 264.218614 
L 240.298948 263.420198 
L 240.675836 263.420198 
L 240.675836 262.621782 
L 241.217301 262.621782 
L 241.263872 261.02495 
L 243.217541 261.02495 
L 243.217541 260.226535 
L 243.542086 260.226535 
L 243.542086 259.428119 
L 243.680774 259.428119 
L 243.680774 258.629703 
L 243.832566 258.629703 
L 243.832566 257.831287 
L 244.220932 257.831287 
L 244.220932 257.032871 
L 244.341247 257.032871 
L 244.356981 255.43604 
L 244.478969 255.43604 
L 244.478969 254.637624 
L 244.849368 254.637624 
L 244.849368 253.839208 
L 245.043052 253.839208 
L 245.043052 253.040792 
L 245.386455 253.040792 
L 245.391398 251.44396 
L 245.693909 251.44396 
L 245.693909 250.645545 
L 245.815173 250.645545 
L 245.853625 249.048713 
L 246.071624 249.048713 
L 246.071624 248.250297 
L 246.493027 248.250297 
L 246.493027 247.451881 
L 246.710386 247.451881 
L 246.73327 245.85505 
L 246.915242 245.85505 
L 246.915242 245.056634 
L 247.118454 245.056634 
L 247.118454 244.258218 
L 247.281608 244.258218 
L 247.391732 242.661386 
L 247.513198 242.661386 
L 247.513198 241.86297 
L 248.530409 241.86297 
L 248.530409 241.064554 
L 248.742166 241.064554 
L 248.790563 239.467723 
L 248.985121 239.467723 
L 249.003488 237.870891 
L 249.673294 237.870891 
L 249.673294 237.072475 
L 250.11067 237.072475 
L 250.11067 236.274059 
L 250.346923 236.274059 
L 250.412106 234.677228 
L 250.990293 234.677228 
L 251.082221 233.080396 
L 251.120886 233.080396 
L 251.120886 232.28198 
L 251.23293 232.28198 
L 251.32565 230.685149 
L 251.368936 230.685149 
L 251.466996 228.289901 
L 251.48233 228.289901 
L 251.585353 225.096238 
L 251.66116 225.096238 
L 251.771671 218.708911 
L 251.832469 218.708911 
L 251.943118 213.918416 
L 251.949299 213.918416 
L 252.0571 208.329505 
L 252.078104 208.329505 
L 252.078104 207.531089 
L 252.505354 207.531089 
L 252.505354 206.732673 
L 252.85567 206.732673 
L 252.85567 205.934257 
L 253.244156 205.934257 
L 253.244156 205.135842 
L 253.398403 205.135842 
L 253.438132 202.740594 
L 253.54051 202.740594 
L 253.54051 201.942178 
L 254.107669 201.942178 
L 254.107669 201.143762 
L 254.618968 201.143762 
L 254.618968 200.345347 
L 255.260146 200.345347 
L 255.322351 198.748515 
L 255.682646 198.748515 
L 255.682646 197.950099 
L 255.856987 197.950099 
L 255.856987 197.151683 
L 256.399461 197.151683 
L 256.399461 196.353267 
L 257.058742 196.353267 
L 257.058742 195.554851 
L 258.084576 195.554851 
L 258.084576 194.756436 
L 258.774808 194.756436 
L 258.791286 193.159604 
L 259.161586 193.159604 
L 259.161586 192.361188 
L 259.537059 192.361188 
L 259.537059 191.562772 
L 259.713548 191.562772 
L 259.713548 190.764356 
L 260.227815 190.764356 
L 260.268599 189.167525 
L 260.415608 189.167525 
L 260.415608 188.369109 
L 261.43513 188.369109 
L 261.43513 187.570693 
L 261.576649 187.570693 
L 261.576649 186.772277 
L 261.753617 186.772277 
L 261.753617 185.973861 
L 261.936848 185.973861 
L 261.936848 185.175446 
L 262.050303 185.175446 
L 262.050303 184.37703 
L 262.255581 184.37703 
L 262.360475 182.780198 
L 262.520695 182.780198 
L 262.520695 181.981782 
L 262.64097 181.981782 
L 262.64097 181.183366 
L 262.854803 181.183366 
L 262.854803 180.38495 
L 263.018762 180.38495 
L 263.018762 179.586535 
L 263.465215 179.586535 
L 263.465215 178.788119 
L 263.605127 178.788119 
L 263.63094 177.191287 
L 264.056275 177.191287 
L 264.056275 176.392871 
L 264.302945 176.392871 
L 264.302945 175.594455 
L 266.13133 175.594455 
L 266.13133 174.79604 
L 266.429985 174.79604 
L 266.429985 173.997624 
L 267.921833 173.997624 
L 267.921833 173.199208 
L 269.670051 173.199208 
L 269.670051 172.400792 
L 271.158677 172.400792 
L 271.158677 171.602376 
L 271.727253 171.602376 
L 271.727253 170.80396 
L 272.392009 170.80396 
L 272.392009 170.005545 
L 272.756487 170.005545 
L 272.756487 169.207129 
L 273.192237 169.207129 
L 273.192237 168.408713 
L 273.39407 168.408713 
L 273.499281 166.811881 
L 273.509062 166.811881 
L 273.509062 166.013465 
L 273.641595 166.013465 
L 273.641595 165.21505 
L 273.889746 165.21505 
L 273.993884 163.618218 
L 274.326389 163.618218 
L 274.326389 162.819802 
L 274.49376 162.819802 
L 274.555092 160.424554 
L 274.635592 160.424554 
L 274.635592 159.626139 
L 274.831216 159.626139 
L 274.831216 158.827723 
L 275.281676 158.827723 
L 275.313144 157.230891 
L 275.688402 157.230891 
L 275.688402 156.432475 
L 275.885355 156.432475 
L 275.916212 154.037228 
L 276.217747 154.037228 
L 276.227909 151.64198 
L 276.382175 151.64198 
L 276.382175 150.843564 
L 276.672294 150.843564 
L 276.762718 148.448317 
L 277.021561 148.448317 
L 277.114469 146.851485 
L 277.163034 146.851485 
L 277.163034 146.053069 
L 277.350459 146.053069 
L 277.350459 145.254653 
L 277.495342 145.254653 
L 277.495342 144.456238 
L 277.782813 144.456238 
L 277.782813 143.657822 
L 278.038057 143.657822 
L 278.109323 142.06099 
L 278.288717 142.06099 
L 278.288717 141.262574 
L 278.672486 141.262574 
L 278.771198 138.867327 
L 279.189517 138.867327 
L 279.189517 138.068911 
L 279.49152 138.068911 
L 279.567481 136.472079 
L 279.80312 136.472079 
L 279.80312 135.673663 
L 279.930422 135.673663 
L 280.018084 134.076832 
L 280.159496 134.076832 
L 280.185851 132.48 
L 280.302064 132.48 
L 280.302064 131.681584 
L 280.713396 131.681584 
L 280.810847 129.286337 
L 281.036014 129.286337 
L 281.091838 127.689505 
L 281.358333 127.689505 
L 281.358333 126.891089 
L 281.945811 126.891089 
L 282.004431 124.495842 
L 282.105587 124.495842 
L 282.105587 123.697426 
L 282.798103 123.697426 
L 282.798103 122.89901 
L 283.000623 122.89901 
L 283.000623 122.100594 
L 283.766857 122.100594 
L 283.766857 121.302178 
L 283.891865 121.302178 
L 283.891865 120.503762 
L 284.177215 120.503762 
L 284.205214 118.906931 
L 284.700026 118.906931 
L 284.700026 118.108515 
L 284.815613 118.108515 
L 284.815613 117.310099 
L 284.979444 117.310099 
L 285.011968 115.713267 
L 286.789583 115.713267 
L 286.789583 114.914851 
L 287.460399 114.914851 
L 287.460399 114.116436 
L 287.592416 114.116436 
L 287.592416 113.31802 
L 287.763644 113.31802 
L 287.770059 111.721188 
L 288.115137 111.721188 
L 288.20923 110.124356 
L 288.966126 110.124356 
L 288.966126 109.325941 
L 289.128169 109.325941 
L 289.128169 108.527525 
L 289.281251 108.527525 
L 289.281251 107.729109 
L 289.489048 107.729109 
L 289.538737 106.132277 
L 289.825451 106.132277 
L 289.901701 103.73703 
L 290.277154 103.73703 
L 290.314427 102.140198 
L 290.43001 102.140198 
L 290.517985 100.543366 
L 290.896968 100.543366 
L 290.896968 99.74495 
L 293.091594 99.74495 
L 293.091594 98.946535 
L 295.495624 98.946535 
L 295.495624 98.148119 
L 303.546029 98.148119 
L 303.546029 97.349703 
L 308.082929 97.349703 
L 308.082929 96.551287 
L 310.060808 96.551287 
L 310.060808 95.752871 
L 310.891422 95.752871 
L 310.891422 94.954455 
L 314.755354 94.954455 
L 314.755354 94.15604 
L 315.212595 94.15604 
L 315.212595 93.357624 
L 315.715687 93.357624 
L 315.715687 92.559208 
L 323.498563 92.559208 
L 323.498563 91.760792 
L 324.137656 91.760792 
L 324.183311 89.365545 
L 326.331723 89.365545 
L 326.350028 87.768713 
L 326.532338 87.768713 
L 326.532338 86.970297 
L 327.362816 86.970297 
L 327.362816 86.171881 
L 327.477246 86.171881 
L 327.477246 85.373465 
L 328.151799 85.373465 
L 328.20861 83.776634 
L 329.018814 83.776634 
L 329.070666 82.179802 
L 329.413832 82.179802 
L 329.413832 81.381386 
L 329.698751 81.381386 
L 329.753286 78.986139 
L 330.213237 78.986139 
L 330.213237 78.187723 
L 330.337763 78.187723 
L 330.337763 77.389307 
L 330.98747 77.389307 
L 331.075917 74.994059 
L 331.486354 74.994059 
L 331.486354 74.195644 
L 331.698885 74.195644 
L 331.698885 73.397228 
L 332.98752 73.397228 
L 333.042467 71.00198 
L 333.312377 71.00198 
L 333.312377 70.203564 
L 334.031477 70.203564 
L 334.071321 68.606733 
L 334.361474 68.606733 
L 334.361933 67.009901 
L 334.616547 67.009901 
L 334.616547 66.211485 
L 334.859688 66.211485 
L 334.859688 65.413069 
L 335.694417 65.413069 
L 335.694417 64.614653 
L 336.500395 64.614653 
L 336.500395 63.816238 
L 336.920664 63.816238 
L 336.920664 63.017822 
L 337.455549 63.017822 
L 337.455549 62.219406 
L 337.800856 62.219406 
L 337.800856 61.42099 
L 338.172005 61.42099 
L 338.172005 60.622574 
L 338.3214 60.622574 
L 338.3214 59.824158 
L 338.996019 59.824158 
L 338.996019 59.025743 
L 339.225472 59.025743 
L 339.225472 58.227327 
L 339.430483 58.227327 
L 339.430483 57.428911 
L 339.776459 57.428911 
L 339.866259 55.832079 
L 341.993062 55.832079 
L 341.993062 55.033663 
L 342.124941 55.033663 
L 342.222803 53.436832 
L 342.615357 53.436832 
L 342.615357 52.638416 
L 343.312465 52.638416 
L 343.312465 51.84 
L 344.523208 51.84 
L 344.523208 51.041584 
L 344.806829 51.041584 
L 344.885039 49.444752 
L 344.989089 49.444752 
L 344.989089 48.646337 
L 345.467001 48.646337 
L 345.467001 47.847921 
L 345.87308 47.847921 
L 345.87308 47.049505 
L 349.260381 47.049505 
L 349.260381 46.251089 
L 349.416551 46.251089 
L 349.509394 44.654257 
L 349.790024 44.654257 
L 349.790024 43.855842 
L 349.942242 43.855842 
L 350.017882 42.25901 
L 360.47254 42.25901 
L 360.47254 41.460594 
L 367.706921 41.460594 
L 367.706921 40.662178 
L 368.021993 40.662178 
L 368.021993 39.863762 
L 368.978183 39.863762 
L 368.978183 39.065347 
L 369.884932 39.065347 
L 369.884932 38.266931 
L 370.024481 38.266931 
L 370.024481 37.468515 
L 370.698164 37.468515 
L 370.698164 36.670099 
L 371.267534 36.670099 
L 371.267534 35.871683 
L 371.577085 35.871683 
L 371.577085 35.073267 
L 371.706588 35.073267 
L 371.706588 34.274851 
L 372.084817 34.274851 
L 372.13481 32.67802 
L 372.283252 32.67802 
L 372.302323 31.081188 
L 372.933088 31.081188 
L 372.933088 30.282772 
L 373.523143 30.282772 
L 373.531566 28.685941 
L 374.80316 28.685941 
L 374.80316 27.887525 
L 375.073783 27.887525 
L 375.073783 27.089109 
L 375.436611 27.089109 
L 375.520921 25.492277 
L 375.971364 25.492277 
L 375.971364 24.693861 
L 376.335522 24.693861 
L 376.335522 23.895446 
L 377.232837 23.895446 
L 377.232837 23.09703 
L 377.359803 23.09703 
L 377.359803 22.298614 
L 378.001067 22.298614 
L 378.046649 20.701782 
L 378.623595 20.701782 
L 378.623595 19.903366 
L 379.739209 19.903366 
L 379.739209 19.10495 
L 382.486089 19.10495 
L 382.486089 18.306535 
L 412.699847 18.306535 
L 412.699847 17.508119 
L 413.654999 17.508119 
L 413.654999 16.709703 
L 415.038861 16.709703 
L 415.0776 15.112871 
L 415.28963 15.112871 
L 415.28963 14.314455 
L 416.180841 14.314455 
L 416.180841 13.51604 
L 416.506247 13.51604 
L 416.506247 12.717624 
L 417.647287 12.717624 
L 417.647287 11.919208 
L 417.79713 11.919208 
L 417.79713 11.120792 
L 418.525219 11.120792 
L 418.525219 10.322376 
L 418.665322 10.322376 
L 418.665322 9.52396 
L 420.319522 9.52396 
L 420.34536 7.927129 
L 421.705884 7.927129 
L 421.705884 7.128713 
L 422.144756 7.128713 
L 422.144756 6.330297 
L 422.144756 6.330297 
L 460.8 6.330297 
L 460.8 6.330297 
" clip-path="url(#p090481cfee)" style="fill: none; stroke: #bf00bf; stroke-width: 1.5; stroke-linecap: square"/>
   </g>
   <g id="line2d_24">
    <path d="M 221.848432 293.76 
L 221.848432 292.961584 
L 222.996532 292.961584 
L 222.996532 292.163168 
L 223.964187 292.163168 
L 223.964187 291.364752 
L 225.01772 291.364752 
L 225.01772 290.566337 
L 225.241435 290.566337 
L 225.241435 289.767921 
L 226.074911 289.767921 
L 226.074911 288.969505 
L 226.657731 288.969505 
L 226.657731 288.171089 
L 227.058329 288.171089 
L 227.058329 287.372673 
L 227.30637 287.372673 
L 227.30637 286.574257 
L 227.449964 286.574257 
L 227.526923 284.977426 
L 227.567053 284.977426 
L 227.567053 284.17901 
L 227.834553 284.17901 
L 227.92561 282.582178 
L 229.21103 282.582178 
L 229.21103 281.783762 
L 233.280676 281.783762 
L 233.316412 280.186931 
L 234.201303 280.186931 
L 234.201303 279.388515 
L 234.382211 279.388515 
L 234.382211 278.590099 
L 234.854029 278.590099 
L 234.854029 277.791683 
L 235.338422 277.791683 
L 235.338422 276.993267 
L 235.471852 276.993267 
L 235.471852 276.194851 
L 235.912522 276.194851 
L 235.912522 275.396436 
L 236.035216 275.396436 
L 236.035216 274.59802 
L 236.247194 274.59802 
L 236.265441 273.001188 
L 236.380767 273.001188 
L 236.41582 271.404356 
L 236.895776 271.404356 
L 236.895776 270.605941 
L 237.274964 270.605941 
L 237.274964 269.807525 
L 237.728239 269.807525 
L 237.728239 269.009109 
L 237.973488 269.009109 
L 237.973488 268.210693 
L 238.085837 268.210693 
L 238.092873 266.613861 
L 238.223335 266.613861 
L 238.223335 265.815446 
L 238.581661 265.815446 
L 238.581661 265.01703 
L 238.873832 265.01703 
L 238.915426 263.420198 
L 239.147466 263.420198 
L 239.147466 262.621782 
L 239.326976 262.621782 
L 239.356343 261.02495 
L 239.684423 261.02495 
L 239.684423 260.226535 
L 239.79634 260.226535 
L 239.79634 259.428119 
L 240.03677 259.428119 
L 240.03677 258.629703 
L 240.624849 258.629703 
L 240.675836 257.032871 
L 240.797667 257.032871 
L 240.797667 256.234455 
L 242.776825 256.234455 
L 242.859657 254.637624 
L 243.792569 254.637624 
L 243.792569 253.839208 
L 244.019019 253.839208 
L 244.019019 253.040792 
L 244.220932 253.040792 
L 244.220932 252.242376 
L 244.341247 252.242376 
L 244.356981 250.645545 
L 244.478969 250.645545 
L 244.478969 249.847129 
L 244.849368 249.847129 
L 244.905564 247.451881 
L 244.966985 247.451881 
L 245.043052 245.85505 
L 245.391398 245.85505 
L 245.41024 244.258218 
L 245.804432 244.258218 
L 245.853625 241.86297 
L 246.144558 241.86297 
L 246.144558 241.064554 
L 246.267525 241.064554 
L 246.28586 239.467723 
L 246.627028 239.467723 
L 246.710386 237.072475 
L 247.118454 237.072475 
L 247.118454 236.274059 
L 248.060068 236.274059 
L 248.121013 234.677228 
L 248.977268 234.677228 
L 249.003488 232.28198 
L 249.113291 232.28198 
L 249.113291 231.483564 
L 249.673294 231.483564 
L 249.781011 229.088317 
L 250.11067 229.088317 
L 250.11067 228.289901 
L 250.346923 228.289901 
L 250.346923 227.491485 
L 250.59348 227.491485 
L 250.675932 225.894653 
L 250.856203 225.894653 
L 250.958973 224.297822 
L 250.971972 224.297822 
L 251.082221 219.507327 
L 251.23293 219.507327 
L 251.324234 215.515248 
L 251.402787 215.515248 
L 251.50798 211.523168 
L 251.529471 211.523168 
L 251.560852 209.127921 
L 251.66116 209.127921 
L 251.771029 205.135842 
L 251.818681 205.135842 
L 251.829684 203.53901 
L 251.943118 203.53901 
L 252.049987 201.143762 
L 252.171977 201.143762 
L 252.248269 199.546931 
L 252.991675 199.546931 
L 253.006421 197.950099 
L 253.12497 197.950099 
L 253.12497 197.151683 
L 253.398403 197.151683 
L 253.408281 195.554851 
L 253.606263 195.554851 
L 253.606263 194.756436 
L 253.794816 194.756436 
L 253.794816 193.95802 
L 254.093049 193.95802 
L 254.107669 192.361188 
L 254.500259 192.361188 
L 254.500259 191.562772 
L 254.618968 191.562772 
L 254.618968 190.764356 
L 254.766601 190.764356 
L 254.766601 189.965941 
L 255.156296 189.965941 
L 255.262965 188.369109 
L 255.272729 188.369109 
L 255.272729 187.570693 
L 255.50332 187.570693 
L 255.566568 185.973861 
L 255.651614 185.973861 
L 255.682646 184.37703 
L 256.399461 184.37703 
L 256.399461 183.578614 
L 256.80643 183.578614 
L 256.80643 182.780198 
L 257.039306 182.780198 
L 257.039306 181.981782 
L 257.569969 181.981782 
L 257.654086 179.586535 
L 257.786422 179.586535 
L 257.786422 178.788119 
L 258.111508 178.788119 
L 258.111508 177.989703 
L 258.237321 177.989703 
L 258.237321 177.191287 
L 258.392756 177.191287 
L 258.392756 176.392871 
L 258.535886 176.392871 
L 258.535886 175.594455 
L 259.062062 175.594455 
L 259.062062 174.79604 
L 259.739628 174.79604 
L 259.739628 173.997624 
L 267.921833 173.997624 
L 267.921833 173.199208 
L 269.670051 173.199208 
L 269.735844 171.602376 
L 270.687858 171.602376 
L 270.687858 170.80396 
L 270.88536 170.80396 
L 270.913968 169.207129 
L 271.158677 169.207129 
L 271.195617 167.610297 
L 271.306644 167.610297 
L 271.306644 166.811881 
L 271.727253 166.811881 
L 271.800911 165.21505 
L 271.917664 165.21505 
L 271.917664 164.416634 
L 272.371154 164.416634 
L 272.392009 162.819802 
L 272.557574 162.819802 
L 272.557574 162.021386 
L 272.756487 162.021386 
L 272.756487 161.22297 
L 272.95452 161.22297 
L 272.95452 160.424554 
L 273.151222 160.424554 
L 273.192237 158.827723 
L 273.319501 158.827723 
L 273.398891 156.432475 
L 273.464431 156.432475 
L 273.509062 154.037228 
L 273.755583 154.037228 
L 273.755583 153.238812 
L 273.992393 153.238812 
L 274.039353 150.843564 
L 274.111161 150.843564 
L 274.111161 150.045149 
L 274.326389 150.045149 
L 274.326389 149.246733 
L 274.49376 149.246733 
L 274.551491 146.851485 
L 274.873893 146.851485 
L 274.941697 144.456238 
L 275.124998 144.456238 
L 275.124998 143.657822 
L 275.313144 143.657822 
L 275.313144 142.859406 
L 275.567733 142.859406 
L 275.567733 142.06099 
L 275.688402 142.06099 
L 275.688402 141.262574 
L 275.885355 141.262574 
L 275.916212 139.665743 
L 276.064463 139.665743 
L 276.064463 138.867327 
L 276.225742 138.867327 
L 276.240863 136.472079 
L 276.672294 136.472079 
L 276.718677 133.278416 
L 276.872467 133.278416 
L 276.872467 132.48 
L 277.021561 132.48 
L 277.119419 130.883168 
L 277.148221 130.883168 
L 277.163034 129.286337 
L 277.468777 129.286337 
L 277.471629 127.689505 
L 277.897274 127.689505 
L 277.907584 126.092673 
L 278.453805 126.092673 
L 278.453805 125.294257 
L 279.020782 125.294257 
L 279.04451 123.697426 
L 279.567481 123.697426 
L 279.567481 122.89901 
L 279.990598 122.89901 
L 279.990598 122.100594 
L 280.252806 122.100594 
L 280.252806 121.302178 
L 281.25085 121.302178 
L 281.25085 120.503762 
L 281.966574 120.503762 
L 281.966574 119.705347 
L 282.105587 119.705347 
L 282.105587 118.906931 
L 282.249914 118.906931 
L 282.259156 117.310099 
L 282.798103 117.310099 
L 282.798103 116.511683 
L 283.891865 116.511683 
L 283.891865 115.713267 
L 284.177215 115.713267 
L 284.212747 113.31802 
L 284.476098 113.31802 
L 284.476098 112.519604 
L 284.700026 112.519604 
L 284.700026 111.721188 
L 284.979444 111.721188 
L 284.979444 110.922772 
L 285.332068 110.922772 
L 285.332068 110.124356 
L 286.222878 110.124356 
L 286.222878 109.325941 
L 286.437268 109.325941 
L 286.437268 108.527525 
L 286.757682 108.527525 
L 286.789583 106.930693 
L 287.035733 106.930693 
L 287.055748 105.333861 
L 287.392056 105.333861 
L 287.501349 102.938614 
L 287.580897 102.938614 
L 287.580897 102.140198 
L 287.763644 102.140198 
L 287.763644 101.341782 
L 288.364129 101.341782 
L 288.417819 99.74495 
L 288.910818 99.74495 
L 288.960387 98.148119 
L 289.121957 98.148119 
L 289.121957 97.349703 
L 290.521449 97.349703 
L 290.521449 96.551287 
L 293.87882 96.551287 
L 293.87882 95.752871 
L 295.405603 95.752871 
L 295.495624 94.15604 
L 295.992561 94.15604 
L 295.992561 93.357624 
L 303.546029 93.357624 
L 303.546029 92.559208 
L 305.808222 92.559208 
L 305.808222 91.760792 
L 306.16223 91.760792 
L 306.16223 90.962376 
L 310.060808 90.962376 
L 310.060808 90.16396 
L 315.454001 90.16396 
L 315.454001 89.365545 
L 317.135494 89.365545 
L 317.135494 88.567129 
L 318.824438 88.567129 
L 318.824438 87.768713 
L 320.371585 87.768713 
L 320.371585 86.970297 
L 321.445895 86.970297 
L 321.445895 86.171881 
L 322.607545 86.171881 
L 322.607545 85.373465 
L 322.861055 85.373465 
L 322.861055 84.57505 
L 324.147313 84.57505 
L 324.216159 81.381386 
L 324.840998 81.381386 
L 324.840998 80.58297 
L 325.881135 80.58297 
L 325.881135 79.784554 
L 326.207937 79.784554 
L 326.219771 78.187723 
L 326.445926 78.187723 
L 326.532338 76.590891 
L 326.675815 76.590891 
L 326.675815 75.792475 
L 327.477246 75.792475 
L 327.477246 74.994059 
L 327.932884 74.994059 
L 327.932884 74.195644 
L 328.20861 74.195644 
L 328.20861 73.397228 
L 328.564314 73.397228 
L 328.612732 71.800396 
L 328.707344 71.800396 
L 328.707344 71.00198 
L 329.059205 71.00198 
L 329.070666 69.405149 
L 329.320297 69.405149 
L 329.413832 67.808317 
L 329.438409 67.808317 
L 329.438409 67.009901 
L 329.808948 67.009901 
L 329.808948 66.211485 
L 330.213237 66.211485 
L 330.215532 64.614653 
L 330.337763 64.614653 
L 330.337763 63.816238 
L 331.217449 63.816238 
L 331.217449 63.017822 
L 331.634725 63.017822 
L 331.720365 60.622574 
L 331.838657 60.622574 
L 331.838657 59.824158 
L 332.119228 59.824158 
L 332.119228 59.025743 
L 333.042467 59.025743 
L 333.042467 58.227327 
L 333.312377 58.227327 
L 333.312377 57.428911 
L 334.175057 57.428911 
L 334.175057 56.630495 
L 334.303123 56.630495 
L 334.361933 54.235248 
L 334.512535 54.235248 
L 334.616547 52.638416 
L 334.859688 52.638416 
L 334.859688 51.84 
L 335.523302 51.84 
L 335.523302 51.041584 
L 335.694417 51.041584 
L 335.694417 50.243168 
L 335.936023 50.243168 
L 335.936023 49.444752 
L 336.295686 49.444752 
L 336.295686 48.646337 
L 336.500395 48.646337 
L 336.500395 47.847921 
L 337.27679 47.847921 
L 337.27679 47.049505 
L 337.468087 47.049505 
L 337.468087 46.251089 
L 338.927717 46.251089 
L 338.927717 45.452673 
L 339.225472 45.452673 
L 339.225472 44.654257 
L 340.871441 44.654257 
L 340.871441 43.855842 
L 341.908762 43.855842 
L 341.908762 43.057426 
L 343.465584 43.057426 
L 343.465584 42.25901 
L 353.68473 42.25901 
L 353.68473 41.460594 
L 356.435124 41.460594 
L 356.435124 40.662178 
L 359.392783 40.662178 
L 359.392783 39.863762 
L 360.167125 39.863762 
L 360.167125 39.065347 
L 360.47254 39.065347 
L 360.47254 38.266931 
L 360.676199 38.266931 
L 360.676199 37.468515 
L 360.87888 37.468515 
L 360.87888 36.670099 
L 364.42289 36.670099 
L 364.42289 35.871683 
L 364.744301 35.871683 
L 364.744301 35.073267 
L 365.082229 35.073267 
L 365.082229 34.274851 
L 365.935778 34.274851 
L 365.935778 33.476436 
L 366.328991 33.476436 
L 366.328991 32.67802 
L 366.721662 32.67802 
L 366.721662 31.879604 
L 366.926719 31.879604 
L 366.964691 30.282772 
L 368.021993 30.282772 
L 368.021993 29.484356 
L 368.827233 29.484356 
L 368.827233 28.685941 
L 368.978183 28.685941 
L 369.077194 27.089109 
L 370.433005 27.089109 
L 370.515182 25.492277 
L 370.698164 25.492277 
L 370.720986 23.895446 
L 370.988078 23.895446 
L 370.988078 23.09703 
L 371.231776 23.09703 
L 371.231776 22.298614 
L 371.744694 22.298614 
L 371.744694 21.500198 
L 372.302323 21.500198 
L 372.302323 20.701782 
L 372.764242 20.701782 
L 372.764242 19.903366 
L 374.098316 19.903366 
L 374.098316 19.10495 
L 376.072988 19.10495 
L 376.072988 18.306535 
L 410.473281 18.306535 
L 410.473281 17.508119 
L 410.786845 17.508119 
L 410.85631 15.911287 
L 410.92588 15.911287 
L 410.92588 15.112871 
L 413.340838 15.112871 
L 413.407107 13.51604 
L 413.654999 13.51604 
L 413.685204 11.919208 
L 415.122865 11.919208 
L 415.122865 11.120792 
L 415.28963 11.120792 
L 415.28963 10.322376 
L 415.784845 10.322376 
L 415.784845 9.52396 
L 415.969352 9.52396 
L 415.969352 8.725545 
L 416.411101 8.725545 
L 416.506247 7.128713 
L 416.919109 7.128713 
L 416.919109 6.330297 
L 416.919109 6.330297 
L 460.8 6.330297 
L 460.8 6.330297 
" clip-path="url(#p090481cfee)" style="fill: none; stroke: #000000; stroke-width: 1.5; stroke-linecap: square"/>
   </g>
   <g id="line2d_25">
    <path d="M -0.109675 293.76 
L -0.109675 287.372673 
L 211.793789 287.372673 
L 211.793789 286.574257 
L 218.217875 286.574257 
L 218.217875 285.775842 
L 219.569829 285.775842 
L 219.569829 284.977426 
L 219.753368 284.977426 
L 219.753368 284.17901 
L 220.056644 284.17901 
L 220.056644 283.380594 
L 220.903517 283.380594 
L 221.006678 281.783762 
L 221.144439 281.783762 
L 221.144439 280.985347 
L 221.269573 280.985347 
L 221.269573 280.186931 
L 221.44184 280.186931 
L 221.44184 279.388515 
L 221.611637 279.388515 
L 221.611637 278.590099 
L 222.48697 278.590099 
L 222.48697 277.791683 
L 222.665483 277.791683 
L 222.665483 276.993267 
L 222.871535 276.993267 
L 222.871535 276.194851 
L 223.263631 276.194851 
L 223.263631 275.396436 
L 223.538413 275.396436 
L 223.635866 273.001188 
L 223.743408 273.001188 
L 223.743408 272.202772 
L 223.981003 272.202772 
L 223.981003 271.404356 
L 224.142638 271.404356 
L 224.142638 270.605941 
L 224.385818 270.605941 
L 224.385818 269.807525 
L 225.189069 269.807525 
L 225.189069 269.009109 
L 225.448927 269.009109 
L 225.448927 268.210693 
L 225.653706 268.210693 
L 225.653706 267.412277 
L 225.945619 267.412277 
L 225.959338 265.815446 
L 226.088276 265.815446 
L 226.088276 265.01703 
L 226.281587 265.01703 
L 226.281587 264.218614 
L 226.418948 264.218614 
L 226.495586 262.621782 
L 226.534659 262.621782 
L 226.562424 261.02495 
L 227.112197 261.02495 
L 227.20498 259.428119 
L 227.225832 259.428119 
L 227.225832 258.629703 
L 227.412873 258.629703 
L 227.499546 257.032871 
L 227.592839 257.032871 
L 227.592839 256.234455 
L 227.830034 256.234455 
L 227.830034 255.43604 
L 228.027465 255.43604 
L 228.119259 253.839208 
L 228.483858 253.839208 
L 228.483858 253.040792 
L 228.70366 253.040792 
L 228.70366 252.242376 
L 228.850279 252.242376 
L 228.850279 251.44396 
L 228.962859 251.44396 
L 229.065778 249.847129 
L 229.213422 249.847129 
L 229.235024 247.451881 
L 229.399455 247.451881 
L 229.399455 246.653465 
L 229.571971 246.653465 
L 229.571971 245.85505 
L 230.16779 245.85505 
L 230.16779 245.056634 
L 231.823615 245.056634 
L 231.823615 244.258218 
L 233.126018 244.258218 
L 233.22775 242.661386 
L 233.29929 242.661386 
L 233.29929 241.86297 
L 233.808179 241.86297 
L 233.808179 241.064554 
L 235.609583 241.064554 
L 235.609583 240.266139 
L 236.475069 240.266139 
L 236.475069 239.467723 
L 237.097704 239.467723 
L 237.113752 237.870891 
L 237.258128 237.870891 
L 237.258128 237.072475 
L 237.429047 237.072475 
L 237.527339 235.475644 
L 238.196531 235.475644 
L 238.299764 233.080396 
L 238.647316 233.080396 
L 238.69673 231.483564 
L 238.770061 231.483564 
L 238.813778 229.886733 
L 239.242249 229.886733 
L 239.331879 227.491485 
L 239.467413 227.491485 
L 239.575481 225.096238 
L 239.594427 225.096238 
L 239.678803 221.902574 
L 239.754432 221.902574 
L 239.826477 219.507327 
L 240.078198 219.507327 
L 240.172196 217.910495 
L 240.623068 217.910495 
L 240.675836 215.515248 
L 240.746013 215.515248 
L 240.746013 214.716832 
L 241.089912 214.716832 
L 241.182759 213.12 
L 241.404588 213.12 
L 241.493576 209.926337 
L 241.996519 209.926337 
L 241.996519 209.127921 
L 242.277333 209.127921 
L 242.277333 208.329505 
L 242.463105 208.329505 
L 242.562379 206.732673 
L 242.776825 206.732673 
L 242.776825 205.934257 
L 242.889181 205.934257 
L 242.889181 205.135842 
L 243.16395 205.135842 
L 243.251775 203.53901 
L 243.276764 203.53901 
L 243.276764 202.740594 
L 243.792569 202.740594 
L 243.86346 201.143762 
L 244.019019 201.143762 
L 244.107564 198.748515 
L 244.220932 198.748515 
L 244.326388 196.353267 
L 244.381031 196.353267 
L 244.478969 194.756436 
L 244.910838 194.756436 
L 244.910838 193.95802 
L 245.49512 193.95802 
L 245.49512 193.159604 
L 245.747099 193.159604 
L 245.747099 192.361188 
L 246.28586 192.361188 
L 246.28586 191.562772 
L 246.750179 191.562772 
L 246.750179 190.764356 
L 246.979592 190.764356 
L 246.979592 189.965941 
L 247.45344 189.965941 
L 247.542499 188.369109 
L 247.929612 188.369109 
L 248.013475 186.772277 
L 248.058571 186.772277 
L 248.128737 185.175446 
L 248.601975 185.175446 
L 248.688315 183.578614 
L 248.73474 183.578614 
L 248.73474 182.780198 
L 249.19327 182.780198 
L 249.19327 181.981782 
L 249.377335 181.981782 
L 249.462547 180.38495 
L 249.495754 180.38495 
L 249.600599 178.788119 
L 249.609266 178.788119 
L 249.609266 177.989703 
L 249.736691 177.989703 
L 249.736691 177.191287 
L 249.908566 177.191287 
L 249.962967 175.594455 
L 250.173906 175.594455 
L 250.173906 174.79604 
L 250.476085 174.79604 
L 250.476085 173.997624 
L 261.878105 173.997624 
L 261.878105 173.199208 
L 262.591708 173.199208 
L 262.657703 171.602376 
L 263.258318 171.602376 
L 263.300484 170.005545 
L 263.547751 170.005545 
L 263.547751 169.207129 
L 263.730092 169.207129 
L 263.730092 168.408713 
L 263.923064 168.408713 
L 263.923064 167.610297 
L 264.048613 167.610297 
L 264.12626 165.21505 
L 264.308883 165.21505 
L 264.319402 163.618218 
L 264.528809 163.618218 
L 264.528809 162.819802 
L 264.747679 162.819802 
L 264.796586 160.424554 
L 264.875072 160.424554 
L 264.895769 158.029307 
L 265.109036 158.029307 
L 265.175774 156.432475 
L 265.407531 156.432475 
L 265.407531 155.634059 
L 265.595961 155.634059 
L 265.595961 154.835644 
L 265.752122 154.835644 
L 265.752122 154.037228 
L 265.864598 154.037228 
L 265.864598 153.238812 
L 266.080842 153.238812 
L 266.177979 150.045149 
L 266.365014 150.045149 
L 266.448957 147.649901 
L 266.578196 147.649901 
L 266.688677 146.053069 
L 266.966721 146.053069 
L 267.004607 144.456238 
L 267.126089 144.456238 
L 267.126089 143.657822 
L 267.314418 143.657822 
L 267.316203 142.06099 
L 267.642588 142.06099 
L 267.702534 140.464158 
L 267.84982 140.464158 
L 267.921833 138.068911 
L 268.138815 138.068911 
L 268.138815 137.270495 
L 268.32364 137.270495 
L 268.32364 136.472079 
L 268.45211 136.472079 
L 268.556869 134.875248 
L 268.596408 134.875248 
L 268.689708 133.278416 
L 268.737741 133.278416 
L 268.780724 131.681584 
L 268.882497 131.681584 
L 268.936708 130.084752 
L 269.254224 130.084752 
L 269.254224 129.286337 
L 269.443734 129.286337 
L 269.510661 127.689505 
L 269.620096 127.689505 
L 269.670051 126.092673 
L 270.018511 126.092673 
L 270.029386 124.495842 
L 270.525712 124.495842 
L 270.525712 123.697426 
L 270.697862 123.697426 
L 270.697862 122.89901 
L 270.88536 122.89901 
L 270.88536 122.100594 
L 271.464098 122.100594 
L 271.464098 121.302178 
L 271.616569 121.302178 
L 271.616569 120.503762 
L 271.878416 120.503762 
L 271.878416 119.705347 
L 272.09008 119.705347 
L 272.179865 118.108515 
L 272.232228 118.108515 
L 272.333443 115.713267 
L 272.426606 115.713267 
L 272.426606 114.914851 
L 272.543807 114.914851 
L 272.543807 114.116436 
L 272.680028 114.116436 
L 272.680028 113.31802 
L 273.30784 113.31802 
L 273.30784 112.519604 
L 273.505651 112.519604 
L 273.505651 111.721188 
L 273.807948 111.721188 
L 273.807948 110.922772 
L 274.25877 110.922772 
L 274.361219 109.325941 
L 274.565581 109.325941 
L 274.574474 107.729109 
L 274.914426 107.729109 
L 274.914426 106.930693 
L 275.485382 106.930693 
L 275.485382 106.132277 
L 275.62633 106.132277 
L 275.730957 104.535446 
L 275.969198 104.535446 
L 276.044128 102.938614 
L 276.381938 102.938614 
L 276.381938 102.140198 
L 276.923549 102.140198 
L 276.923549 101.341782 
L 277.173963 101.341782 
L 277.173963 100.543366 
L 277.416714 100.543366 
L 277.416714 99.74495 
L 278.155793 99.74495 
L 278.155793 98.946535 
L 278.274625 98.946535 
L 278.381651 97.349703 
L 278.496442 97.349703 
L 278.528031 95.752871 
L 278.641889 95.752871 
L 278.641889 94.954455 
L 278.928461 94.954455 
L 279.003964 93.357624 
L 279.119718 93.357624 
L 279.119718 92.559208 
L 279.417576 92.559208 
L 279.455885 90.962376 
L 279.728601 90.962376 
L 279.728601 90.16396 
L 280.210655 90.16396 
L 280.210655 89.365545 
L 280.88396 89.365545 
L 280.88396 88.567129 
L 281.063939 88.567129 
L 281.120701 86.171881 
L 281.247177 86.171881 
L 281.247177 85.373465 
L 281.463701 85.373465 
L 281.463701 84.57505 
L 281.706824 84.57505 
L 281.706824 83.776634 
L 281.897337 83.776634 
L 281.897337 82.978218 
L 282.245525 82.978218 
L 282.245525 82.179802 
L 285.230839 82.179802 
L 285.230839 81.381386 
L 285.737018 81.381386 
L 285.737018 80.58297 
L 286.679789 80.58297 
L 286.679789 79.784554 
L 290.704258 79.784554 
L 290.704258 78.986139 
L 291.929213 78.986139 
L 291.929213 78.187723 
L 292.956207 78.187723 
L 292.956207 77.389307 
L 293.447049 77.389307 
L 293.447049 76.590891 
L 293.862182 76.590891 
L 293.92704 74.994059 
L 294.769066 74.994059 
L 294.769066 74.195644 
L 295.045403 74.195644 
L 295.045403 73.397228 
L 295.358492 73.397228 
L 295.358492 72.598812 
L 295.581132 72.598812 
L 295.581132 71.800396 
L 296.005463 71.800396 
L 296.005463 71.00198 
L 297.337608 71.00198 
L 297.337608 70.203564 
L 297.652113 70.203564 
L 297.652113 69.405149 
L 297.795977 69.405149 
L 297.795977 68.606733 
L 298.363322 68.606733 
L 298.363322 67.808317 
L 299.30231 67.808317 
L 299.30231 67.009901 
L 300.164527 67.009901 
L 300.164527 66.211485 
L 300.417804 66.211485 
L 300.417804 65.413069 
L 300.814326 65.413069 
L 300.814326 64.614653 
L 300.969795 64.614653 
L 300.969795 63.816238 
L 301.325405 63.816238 
L 301.435921 61.42099 
L 301.537576 61.42099 
L 301.537576 60.622574 
L 301.811574 60.622574 
L 301.811574 59.824158 
L 302.430092 59.824158 
L 302.430092 59.025743 
L 302.551533 59.025743 
L 302.618261 57.428911 
L 303.22948 57.428911 
L 303.22948 56.630495 
L 303.826426 56.630495 
L 303.826426 55.832079 
L 304.667323 55.832079 
L 304.667323 55.033663 
L 305.175643 55.033663 
L 305.175643 54.235248 
L 305.352882 54.235248 
L 305.352882 53.436832 
L 306.132176 53.436832 
L 306.132176 52.638416 
L 307.188501 52.638416 
L 307.188501 51.84 
L 307.626926 51.84 
L 307.626926 51.041584 
L 308.640846 51.041584 
L 308.640846 50.243168 
L 309.193716 50.243168 
L 309.193716 49.444752 
L 309.444355 49.444752 
L 309.444355 48.646337 
L 309.778202 48.646337 
L 309.778202 47.847921 
L 310.026928 47.847921 
L 310.026928 47.049505 
L 311.049422 47.049505 
L 311.049422 46.251089 
L 311.433054 46.251089 
L 311.433054 45.452673 
L 313.389369 45.452673 
L 313.389369 44.654257 
L 313.776052 44.654257 
L 313.776052 43.855842 
L 313.903462 43.855842 
L 313.903462 43.057426 
L 314.608245 43.057426 
L 314.608245 42.25901 
L 343.127425 42.25901 
L 343.127425 41.460594 
L 343.908153 41.460594 
L 343.908153 40.662178 
L 349.428125 40.662178 
L 349.428125 39.863762 
L 351.976974 39.863762 
L 351.976974 39.065347 
L 352.973742 39.065347 
L 352.973742 38.266931 
L 353.08755 38.266931 
L 353.08755 37.468515 
L 353.217834 37.468515 
L 353.326891 35.871683 
L 353.42282 35.871683 
L 353.42282 35.073267 
L 353.68473 35.073267 
L 353.68473 34.274851 
L 354.996505 34.274851 
L 354.996505 33.476436 
L 356.291105 33.476436 
L 356.291105 32.67802 
L 356.491359 32.67802 
L 356.5693 31.081188 
L 356.874045 31.081188 
L 356.874045 30.282772 
L 357.265732 30.282772 
L 357.265732 29.484356 
L 357.571796 29.484356 
L 357.571796 28.685941 
L 357.722022 28.685941 
L 357.722022 27.887525 
L 357.904199 27.887525 
L 357.904199 27.089109 
L 358.048682 27.089109 
L 358.048682 26.290693 
L 358.333691 26.290693 
L 358.333691 25.492277 
L 358.721907 25.492277 
L 358.755234 23.895446 
L 359.170111 23.895446 
L 359.170111 23.09703 
L 359.485889 23.09703 
L 359.485889 22.298614 
L 362.301026 22.298614 
L 362.301026 21.500198 
L 362.989484 21.500198 
L 362.989484 20.701782 
L 364.328339 20.701782 
L 364.328339 19.903366 
L 365.731436 19.903366 
L 365.731436 19.10495 
L 368.598867 19.10495 
L 368.598867 18.306535 
L 391.295233 18.306535 
L 391.295233 17.508119 
L 393.632858 17.508119 
L 393.632858 16.709703 
L 393.757502 16.709703 
L 393.757502 15.911287 
L 394.793364 15.911287 
L 394.793364 15.112871 
L 395.282951 15.112871 
L 395.282951 14.314455 
L 396.220352 14.314455 
L 396.220352 13.51604 
L 396.407218 13.51604 
L 396.407218 12.717624 
L 397.123903 12.717624 
L 397.123903 11.919208 
L 397.272342 11.919208 
L 397.272342 11.120792 
L 397.582624 11.120792 
L 397.582624 10.322376 
L 398.77987 10.322376 
L 398.77987 9.52396 
L 399.515183 9.52396 
L 399.515183 8.725545 
L 400.572479 8.725545 
L 400.572479 7.927129 
L 401.468636 7.927129 
L 401.468636 7.128713 
L 409.207632 7.128713 
L 409.207632 6.330297 
L 409.207632 6.330297 
L 460.8 6.330297 
L 460.8 6.330297 
" clip-path="url(#p090481cfee)" style="fill: none; stroke: #00bfbf; stroke-width: 1.5; stroke-linecap: square"/>
   </g>
   <g id="line2d_26">
    <path d="M -0.109675 293.76 
L -0.109675 281.783762 
L 61.251407 281.783762 
L 61.251407 280.985347 
L 61.617582 280.985347 
L 61.617582 280.186931 
L 63.615203 280.186931 
L 63.615203 279.388515 
L 64.158358 279.388515 
L 64.158358 278.590099 
L 64.74867 278.590099 
L 64.755607 276.993267 
L 65.547843 276.993267 
L 65.547843 276.194851 
L 65.767481 276.194851 
L 65.767481 275.396436 
L 68.313179 275.396436 
L 68.354833 273.799604 
L 68.795165 273.799604 
L 68.813949 272.202772 
L 69.419318 272.202772 
L 69.47822 270.605941 
L 72.985147 270.605941 
L 72.985147 269.807525 
L 145.145506 269.807525 
L 145.145506 269.009109 
L 148.280409 269.009109 
L 148.280409 268.210693 
L 148.638549 268.210693 
L 148.638549 267.412277 
L 148.921488 267.412277 
L 148.921488 266.613861 
L 151.557972 266.613861 
L 151.583205 265.01703 
L 152.618334 265.01703 
L 152.618334 264.218614 
L 152.794863 264.218614 
L 152.794863 263.420198 
L 153.449741 263.420198 
L 153.449741 262.621782 
L 153.92228 262.621782 
L 153.92228 261.823366 
L 154.182035 261.823366 
L 154.182035 261.02495 
L 154.395148 261.02495 
L 154.395148 260.226535 
L 155.166597 260.226535 
L 155.166597 259.428119 
L 156.435663 259.428119 
L 156.435663 258.629703 
L 157.353984 258.629703 
L 157.353984 257.831287 
L 161.621803 257.831287 
L 161.621803 257.032871 
L 164.533899 257.032871 
L 164.533899 256.234455 
L 166.798779 256.234455 
L 166.798779 255.43604 
L 168.30243 255.43604 
L 168.30243 254.637624 
L 171.16848 254.637624 
L 171.16848 253.839208 
L 172.438792 253.839208 
L 172.438792 253.040792 
L 173.254529 253.040792 
L 173.254529 252.242376 
L 174.233047 252.242376 
L 174.233047 251.44396 
L 180.304987 251.44396 
L 180.304987 250.645545 
L 180.765437 250.645545 
L 180.765437 249.847129 
L 183.237074 249.847129 
L 183.237074 249.048713 
L 186.525946 249.048713 
L 186.525946 248.250297 
L 188.00741 248.250297 
L 188.00741 247.451881 
L 188.516486 247.451881 
L 188.516486 246.653465 
L 189.146287 246.653465 
L 189.146287 245.85505 
L 192.167223 245.85505 
L 192.167223 245.056634 
L 192.462381 245.056634 
L 192.462381 244.258218 
L 192.785046 244.258218 
L 192.785046 243.459802 
L 194.448517 243.459802 
L 194.448517 242.661386 
L 194.692592 242.661386 
L 194.692592 241.86297 
L 194.824536 241.86297 
L 194.824536 241.064554 
L 198.524301 241.064554 
L 198.633766 239.467723 
L 198.647953 239.467723 
L 198.647953 238.669307 
L 198.86778 238.669307 
L 198.867861 237.072475 
L 199.147796 237.072475 
L 199.147796 236.274059 
L 199.986071 236.274059 
L 199.986071 235.475644 
L 200.720739 235.475644 
L 200.725069 233.878812 
L 201.144428 233.878812 
L 201.144428 233.080396 
L 202.21329 233.080396 
L 202.21329 232.28198 
L 202.50622 232.28198 
L 202.50622 231.483564 
L 204.874232 231.483564 
L 204.874232 230.685149 
L 207.191304 230.685149 
L 207.281049 229.088317 
L 207.940655 229.088317 
L 207.940655 228.289901 
L 208.731296 228.289901 
L 208.731296 227.491485 
L 209.116486 227.491485 
L 209.116486 226.693069 
L 209.425364 226.693069 
L 209.42541 225.096238 
L 209.554955 225.096238 
L 209.658844 223.499406 
L 210.264734 223.499406 
L 210.317292 221.104158 
L 210.530034 221.104158 
L 210.530034 220.305743 
L 210.671518 220.305743 
L 210.781059 217.910495 
L 210.809614 217.910495 
L 210.809614 217.112079 
L 211.045085 217.112079 
L 211.045085 216.313663 
L 211.584273 216.313663 
L 211.584273 215.515248 
L 211.828556 215.515248 
L 211.894789 213.918416 
L 212.167809 213.918416 
L 212.167809 213.12 
L 212.709645 213.12 
L 212.723678 211.523168 
L 212.907894 211.523168 
L 212.929588 209.127921 
L 213.070048 209.127921 
L 213.136309 207.531089 
L 213.421767 207.531089 
L 213.474831 205.934257 
L 214.81665 205.934257 
L 214.81665 205.135842 
L 215.812271 205.135842 
L 215.881896 203.53901 
L 216.000113 203.53901 
L 216.000113 202.740594 
L 216.341387 202.740594 
L 216.341387 201.942178 
L 217.126819 201.942178 
L 217.126819 201.143762 
L 217.242445 201.143762 
L 217.294593 199.546931 
L 217.598442 199.546931 
L 217.598442 198.748515 
L 217.973513 198.748515 
L 217.973513 197.950099 
L 218.315959 197.950099 
L 218.315959 197.151683 
L 218.642823 197.151683 
L 218.642823 196.353267 
L 218.8763 196.353267 
L 218.974028 194.756436 
L 219.059207 194.756436 
L 219.059207 193.95802 
L 219.191912 193.95802 
L 219.3003 190.764356 
L 219.303146 190.764356 
L 219.303146 189.965941 
L 219.44109 189.965941 
L 219.44109 189.167525 
L 219.902258 189.167525 
L 219.902258 188.369109 
L 220.033281 188.369109 
L 220.087677 186.772277 
L 220.393309 186.772277 
L 220.393309 185.973861 
L 220.790174 185.973861 
L 220.838119 182.780198 
L 220.916992 182.780198 
L 220.916992 181.981782 
L 221.107394 181.981782 
L 221.107394 181.183366 
L 221.317753 181.183366 
L 221.357194 179.586535 
L 221.468738 179.586535 
L 221.518147 177.989703 
L 221.582979 177.989703 
L 221.582979 177.191287 
L 222.014206 177.191287 
L 222.014206 176.392871 
L 222.173718 176.392871 
L 222.268422 174.79604 
L 222.591189 174.79604 
L 222.626469 173.199208 
L 222.72181 173.199208 
L 222.72181 172.400792 
L 222.85686 172.400792 
L 222.93256 170.80396 
L 223.019284 170.80396 
L 223.019284 170.005545 
L 223.420298 170.005545 
L 223.420298 169.207129 
L 223.945198 169.207129 
L 223.945198 168.408713 
L 224.120725 168.408713 
L 224.162178 166.811881 
L 224.394709 166.811881 
L 224.442686 165.21505 
L 224.707448 165.21505 
L 224.773962 162.819802 
L 224.865425 162.819802 
L 224.865425 162.021386 
L 226.174399 162.021386 
L 226.261174 160.424554 
L 226.397842 160.424554 
L 226.410324 158.827723 
L 226.826816 158.827723 
L 226.826816 156.432475 
L 227.809256 156.432475 
L 227.809256 155.634059 
L 228.230849 155.634059 
L 228.318901 154.037228 
L 228.521864 154.037228 
L 228.521864 153.238812 
L 229.068615 153.238812 
L 229.068615 152.440396 
L 229.310818 152.440396 
L 229.310818 151.64198 
L 229.483482 151.64198 
L 229.483482 150.843564 
L 229.608346 150.843564 
L 229.608346 150.045149 
L 229.866139 150.045149 
L 229.960323 148.448317 
L 230.344855 148.448317 
L 230.344855 147.649901 
L 230.620263 147.649901 
L 230.620263 146.851485 
L 230.774525 146.851485 
L 230.786658 145.254653 
L 231.339289 145.254653 
L 231.339289 144.456238 
L 231.738836 144.456238 
L 231.832204 142.859406 
L 232.021998 142.859406 
L 232.092134 140.464158 
L 232.177582 140.464158 
L 232.177582 139.665743 
L 232.593816 139.665743 
L 232.651063 138.068911 
L 232.899239 138.068911 
L 232.899239 137.270495 
L 234.115613 137.270495 
L 234.172652 135.673663 
L 234.249957 135.673663 
L 234.360334 133.278416 
L 234.370829 133.278416 
L 234.438015 130.883168 
L 234.489227 130.883168 
L 234.597266 125.294257 
L 234.685153 125.294257 
L 234.787563 122.100594 
L 234.828858 122.100594 
L 234.932068 119.705347 
L 234.941319 119.705347 
L 234.951605 117.310099 
L 235.114693 117.310099 
L 235.158989 115.713267 
L 235.463377 115.713267 
L 235.563783 112.519604 
L 235.576518 112.519604 
L 235.600681 110.922772 
L 236.181061 110.922772 
L 236.181061 110.124356 
L 236.734402 110.124356 
L 236.734402 109.325941 
L 236.851634 109.325941 
L 236.851634 108.527525 
L 237.512173 108.527525 
L 237.54106 106.930693 
L 237.715299 106.930693 
L 237.715299 106.132277 
L 238.181573 106.132277 
L 238.198272 104.535446 
L 238.317376 104.535446 
L 238.317376 103.73703 
L 238.69673 103.73703 
L 238.69673 102.938614 
L 238.918455 102.938614 
L 238.918455 102.140198 
L 239.27648 102.140198 
L 239.27648 101.341782 
L 239.427444 101.341782 
L 239.427444 100.543366 
L 239.707341 100.543366 
L 239.707341 99.74495 
L 240.048717 99.74495 
L 240.048717 98.946535 
L 240.447138 98.946535 
L 240.447163 97.349703 
L 240.675836 97.349703 
L 240.675836 96.551287 
L 240.867773 96.551287 
L 240.867773 95.752871 
L 241.311433 95.752871 
L 241.317853 94.15604 
L 241.797697 94.15604 
L 241.797697 93.357624 
L 242.416286 93.357624 
L 242.518447 90.962376 
L 243.355037 90.962376 
L 243.355037 90.16396 
L 243.706892 90.16396 
L 243.706892 89.365545 
L 244.491643 89.365545 
L 244.550992 86.970297 
L 245.174333 86.970297 
L 245.191414 85.373465 
L 245.334681 85.373465 
L 245.421381 82.978218 
L 245.729967 82.978218 
L 245.729967 82.179802 
L 246.08342 82.179802 
L 246.096253 80.58297 
L 248.325797 80.58297 
L 248.383157 78.986139 
L 249.434998 78.986139 
L 249.434998 78.187723 
L 249.871323 78.187723 
L 249.871323 77.389307 
L 250.320317 77.389307 
L 250.320317 76.590891 
L 251.194184 76.590891 
L 251.194184 75.792475 
L 251.604463 75.792475 
L 251.604463 74.994059 
L 251.773495 74.994059 
L 251.773495 74.195644 
L 252.003432 74.195644 
L 252.103843 71.800396 
L 252.698303 71.800396 
L 252.698303 71.00198 
L 253.125649 71.00198 
L 253.168561 69.405149 
L 254.100485 69.405149 
L 254.111402 67.808317 
L 254.533074 67.808317 
L 254.533074 67.009901 
L 255.280892 67.009901 
L 255.280892 66.211485 
L 255.554958 66.211485 
L 255.621577 63.816238 
L 255.801241 63.816238 
L 255.801241 63.017822 
L 256.006969 63.017822 
L 256.006969 62.219406 
L 256.159059 62.219406 
L 256.168473 60.622574 
L 256.398091 60.622574 
L 256.41413 59.025743 
L 256.542262 59.025743 
L 256.550628 57.428911 
L 256.963571 57.428911 
L 256.963571 56.630495 
L 257.232401 56.630495 
L 257.232401 55.832079 
L 257.484184 55.832079 
L 257.582204 53.436832 
L 257.806086 53.436832 
L 257.806086 52.638416 
L 258.162869 52.638416 
L 258.268334 49.444752 
L 258.322629 49.444752 
L 258.396732 47.847921 
L 258.538413 47.847921 
L 258.538413 47.049505 
L 258.848521 47.049505 
L 258.848521 46.251089 
L 258.96423 46.251089 
L 259.036184 43.855842 
L 259.124715 43.855842 
L 259.124715 43.057426 
L 259.505209 43.057426 
L 259.505209 42.25901 
L 267.921833 42.25901 
L 267.921833 41.460594 
L 268.737741 41.460594 
L 268.737741 40.662178 
L 269.670051 40.662178 
L 269.752225 38.266931 
L 270.697862 38.266931 
L 270.697862 37.468515 
L 271.616569 37.468515 
L 271.616569 36.670099 
L 272.05718 36.670099 
L 272.05718 35.871683 
L 272.426606 35.871683 
L 272.426606 35.073267 
L 273.505651 35.073267 
L 273.505651 34.274851 
L 275.62633 34.274851 
L 275.709578 32.67802 
L 278.928461 32.67802 
L 278.928461 31.879604 
L 281.146908 31.879604 
L 281.146908 31.081188 
L 289.959523 31.081188 
L 289.959523 30.282772 
L 304.986861 30.282772 
L 304.986861 29.484356 
L 314.135536 29.484356 
L 314.135536 28.685941 
L 315.486676 28.685941 
L 315.486676 27.887525 
L 316.148436 27.887525 
L 316.148436 27.089109 
L 316.563503 27.089109 
L 316.563503 26.290693 
L 317.035295 26.290693 
L 317.035295 25.492277 
L 317.937058 25.492277 
L 318.017124 23.895446 
L 318.064697 23.895446 
L 318.064697 23.09703 
L 319.303093 23.09703 
L 319.303093 22.298614 
L 319.52352 22.298614 
L 319.52352 21.500198 
L 320.554331 21.500198 
L 320.654894 19.903366 
L 320.715397 19.903366 
L 320.715397 19.10495 
L 320.99253 19.10495 
L 320.99253 18.306535 
L 322.254316 18.306535 
L 322.254316 17.508119 
L 322.613924 17.508119 
L 322.613924 16.709703 
L 324.001954 16.709703 
L 324.044971 15.112871 
L 324.476143 15.112871 
L 324.476143 14.314455 
L 324.806044 14.314455 
L 324.806044 13.51604 
L 325.400071 13.51604 
L 325.485549 11.919208 
L 325.613955 11.919208 
L 325.613955 11.120792 
L 325.902249 11.120792 
L 325.902249 10.322376 
L 326.881866 10.322376 
L 326.881866 9.52396 
L 327.285961 9.52396 
L 327.285961 8.725545 
L 328.85582 8.725545 
L 328.85582 7.927129 
L 329.259579 7.927129 
L 329.259579 7.128713 
L 333.53234 7.128713 
L 333.53234 6.330297 
L 333.53234 6.330297 
L 460.8 6.330297 
L 460.8 6.330297 
" clip-path="url(#p090481cfee)" style="fill: none; stroke: #bf00bf; stroke-width: 1.5; stroke-linecap: square"/>
   </g>
   <g id="line2d_27">
    <path d="M -1 229.886733 
L -0.109675 229.886733 
L -0.109675 217.910495 
L 3.684196 217.910495 
L 3.684196 217.112079 
L 4.799228 217.112079 
L 4.799228 216.313663 
L 5.234571 216.313663 
L 5.234571 215.515248 
L 7.590522 215.515248 
L 7.590522 214.716832 
L 8.396005 214.716832 
L 8.396005 213.918416 
L 9.787687 213.918416 
L 9.787687 213.12 
L 11.819001 213.12 
L 11.924292 211.523168 
L 12.351191 211.523168 
L 12.458012 209.926337 
L 12.469488 209.926337 
L 12.469488 209.127921 
L 14.11744 209.127921 
L 14.11744 208.329505 
L 15.790153 208.329505 
L 15.790153 207.531089 
L 16.120367 207.531089 
L 16.120367 206.732673 
L 16.439016 206.732673 
L 16.439016 205.934257 
L 17.422241 205.934257 
L 17.45054 204.337426 
L 17.935659 204.337426 
L 17.935659 203.53901 
L 19.19066 203.53901 
L 19.19066 202.740594 
L 24.604091 202.740594 
L 24.604091 201.942178 
L 25.009279 201.942178 
L 25.009279 201.143762 
L 26.264538 201.143762 
L 26.278898 199.546931 
L 31.968001 199.546931 
L 31.968001 198.748515 
L 33.130258 198.748515 
L 33.130258 197.950099 
L 36.219845 197.950099 
L 36.219845 197.151683 
L 37.39406 197.151683 
L 37.39406 196.353267 
L 38.994475 196.353267 
L 38.994475 195.554851 
L 53.916074 195.554851 
L 53.916074 194.756436 
L 62.259773 194.756436 
L 62.259773 193.95802 
L 69.661739 193.95802 
L 69.661739 193.159604 
L 70.33385 193.159604 
L 70.33385 192.361188 
L 74.57436 192.361188 
L 74.57436 191.562772 
L 79.586513 191.562772 
L 79.586513 190.764356 
L 80.404954 190.764356 
L 80.404954 189.965941 
L 101.76918 189.965941 
L 101.76918 189.167525 
L 101.995253 189.167525 
L 101.995253 188.369109 
L 102.312419 188.369109 
L 102.312419 187.570693 
L 104.063482 187.570693 
L 104.063482 186.772277 
L 108.364671 186.772277 
L 108.364671 185.973861 
L 111.201794 185.973861 
L 111.201794 185.175446 
L 112.632488 185.175446 
L 112.632488 184.37703 
L 119.007603 184.37703 
L 119.007603 183.578614 
L 121.871816 183.578614 
L 121.871816 182.780198 
L 123.938238 182.780198 
L 123.938238 181.981782 
L 124.731645 181.981782 
L 124.731645 181.183366 
L 128.572914 181.183366 
L 128.572914 180.38495 
L 129.16521 180.38495 
L 129.16521 179.586535 
L 135.632855 179.586535 
L 135.632855 178.788119 
L 140.532965 178.788119 
L 140.532965 177.989703 
L 143.55155 177.989703 
L 143.55155 177.191287 
L 146.047253 177.191287 
L 146.047253 176.392871 
L 146.923082 176.392871 
L 146.923082 175.594455 
L 148.703175 175.594455 
L 148.703175 174.79604 
L 150.832793 174.79604 
L 150.832793 173.997624 
L 152.201393 173.997624 
L 152.201393 173.199208 
L 154.280232 173.199208 
L 154.280232 172.400792 
L 155.609583 172.400792 
L 155.609583 171.602376 
L 156.837369 171.602376 
L 156.837369 170.80396 
L 157.027765 170.80396 
L 157.027765 170.005545 
L 157.207767 170.005545 
L 157.207767 169.207129 
L 167.390713 169.207129 
L 167.390713 168.408713 
L 170.580193 168.408713 
L 170.580193 167.610297 
L 171.381116 167.610297 
L 171.381116 166.811881 
L 171.96967 166.811881 
L 171.96967 166.013465 
L 172.414508 166.013465 
L 172.414508 165.21505 
L 172.701324 165.21505 
L 172.701324 164.416634 
L 173.318997 164.416634 
L 173.318997 163.618218 
L 173.702641 163.618218 
L 173.702641 162.819802 
L 174.617954 162.819802 
L 174.617954 162.021386 
L 177.194791 162.021386 
L 177.194791 161.22297 
L 179.335838 161.22297 
L 179.413422 159.626139 
L 180.745446 159.626139 
L 180.745446 158.827723 
L 182.213863 158.827723 
L 182.213863 158.029307 
L 182.509883 158.029307 
L 182.509883 157.230891 
L 182.89898 157.230891 
L 182.89898 156.432475 
L 184.057482 156.432475 
L 184.057482 155.634059 
L 184.321213 155.634059 
L 184.377204 154.037228 
L 185.811159 154.037228 
L 185.811159 153.238812 
L 186.896865 153.238812 
L 186.896865 152.440396 
L 187.269249 152.440396 
L 187.30727 150.843564 
L 188.240141 150.843564 
L 188.303951 149.246733 
L 188.544009 149.246733 
L 188.544009 148.448317 
L 189.913095 148.448317 
L 189.913095 147.649901 
L 190.123257 147.649901 
L 190.123257 146.851485 
L 190.697946 146.851485 
L 190.697946 146.053069 
L 191.993001 146.053069 
L 191.993001 145.254653 
L 192.320507 145.254653 
L 192.320507 144.456238 
L 192.480277 144.456238 
L 192.480277 143.657822 
L 194.214084 143.657822 
L 194.214084 142.859406 
L 195.273858 142.859406 
L 195.273858 142.06099 
L 196.253292 142.06099 
L 196.253292 141.262574 
L 197.862836 141.262574 
L 197.862836 140.464158 
L 198.328776 140.464158 
L 198.328776 139.665743 
L 198.86771 139.665743 
L 198.86771 138.068911 
L 200.101155 138.068911 
L 200.106481 136.472079 
L 200.736931 136.472079 
L 200.736931 135.673663 
L 201.879426 135.673663 
L 201.909294 134.076832 
L 202.128126 134.076832 
L 202.128126 133.278416 
L 202.981654 133.278416 
L 202.981654 132.48 
L 204.978398 132.48 
L 204.978398 131.681584 
L 205.456281 131.681584 
L 205.456281 130.883168 
L 206.502666 130.883168 
L 206.5546 129.286337 
L 207.191304 129.286337 
L 207.287453 126.891089 
L 207.826151 126.891089 
L 207.933696 125.294257 
L 208.380742 125.294257 
L 208.470538 123.697426 
L 209.293925 123.697426 
L 209.293925 122.89901 
L 209.425268 122.89901 
L 209.507863 120.503762 
L 209.916858 120.503762 
L 209.916858 119.705347 
L 210.03198 119.705347 
L 210.03198 118.906931 
L 210.317266 118.906931 
L 210.317266 117.310099 
L 210.479323 117.310099 
L 210.47943 115.713267 
L 210.63005 115.713267 
L 210.643905 114.116436 
L 210.750161 114.116436 
L 210.750161 113.31802 
L 211.118533 113.31802 
L 211.118533 112.519604 
L 211.375657 112.519604 
L 211.375657 111.721188 
L 211.526072 111.721188 
L 211.526072 110.922772 
L 211.674727 110.922772 
L 211.674983 109.325941 
L 211.894742 109.325941 
L 211.939746 107.729109 
L 212.053276 107.729109 
L 212.053276 106.930693 
L 212.287929 106.930693 
L 212.302892 105.333861 
L 212.480032 105.333861 
L 212.541065 103.73703 
L 212.802538 103.73703 
L 212.907851 100.543366 
L 213.137779 100.543366 
L 213.137779 99.74495 
L 213.339485 99.74495 
L 213.419812 97.349703 
L 213.916969 97.349703 
L 213.916969 96.551287 
L 214.061267 96.551287 
L 214.061267 95.752871 
L 214.313485 95.752871 
L 214.313485 94.954455 
L 214.806307 94.954455 
L 214.814987 93.357624 
L 215.369152 93.357624 
L 215.369152 92.559208 
L 215.582402 92.559208 
L 215.582402 91.760792 
L 215.756898 91.760792 
L 215.756898 90.962376 
L 216.132302 90.962376 
L 216.132302 90.16396 
L 216.341387 90.16396 
L 216.341387 89.365545 
L 216.904059 89.365545 
L 216.904059 88.567129 
L 217.408664 88.567129 
L 217.408664 87.768713 
L 218.071553 87.768713 
L 218.179611 86.171881 
L 218.868189 86.171881 
L 218.877391 84.57505 
L 219.157604 84.57505 
L 219.185277 82.978218 
L 220.059932 82.978218 
L 220.059932 82.179802 
L 220.240175 82.179802 
L 220.240175 81.381386 
L 220.708526 81.381386 
L 220.805152 78.187723 
L 221.069313 78.187723 
L 221.069313 77.389307 
L 222.267846 77.389307 
L 222.267846 76.590891 
L 223.20613 76.590891 
L 223.20613 75.792475 
L 223.946452 75.792475 
L 224.035792 74.195644 
L 224.39386 74.195644 
L 224.401421 72.598812 
L 224.731716 72.598812 
L 224.731716 71.800396 
L 224.865414 71.800396 
L 224.865414 71.00198 
L 225.769297 71.00198 
L 225.769297 70.203564 
L 226.397829 70.203564 
L 226.397829 69.405149 
L 226.826812 69.405149 
L 226.826812 67.009901 
L 227.809256 67.009901 
L 227.809256 66.211485 
L 228.230835 66.211485 
L 228.314373 64.614653 
L 229.068615 64.614653 
L 229.068615 63.816238 
L 229.280294 63.816238 
L 229.280294 63.017822 
L 229.483461 63.017822 
L 229.483461 62.219406 
L 231.138952 62.219406 
L 231.138952 61.42099 
L 231.846602 61.42099 
L 231.846602 60.622574 
L 232.177582 60.622574 
L 232.177582 59.824158 
L 234.100785 59.824158 
L 234.100788 57.428911 
L 234.494535 57.428911 
L 234.494535 56.630495 
L 235.326742 56.630495 
L 235.326745 55.033663 
L 236.942649 55.033663 
L 236.942649 54.235248 
L 237.112791 54.235248 
L 237.112791 53.436832 
L 237.432606 53.436832 
L 237.432606 51.84 
L 237.901707 51.84 
L 237.90171 49.444752 
L 238.35165 49.444752 
L 238.35165 48.646337 
L 238.918453 48.646337 
L 238.918453 47.847921 
L 239.199939 47.847921 
L 239.199943 46.251089 
L 239.470335 46.251089 
L 239.470335 45.452673 
L 239.600789 45.452673 
L 239.600797 43.057426 
L 239.987584 43.057426 
L 239.987584 42.25901 
L 240.361248 42.25901 
L 240.447132 38.266931 
L 240.722667 38.266931 
L 240.722667 37.468515 
L 241.072609 37.468515 
L 241.072611 34.274851 
L 241.411783 34.274851 
L 241.411783 33.476436 
L 242.060319 33.476436 
L 242.06034 31.879604 
L 242.4155 31.879604 
L 242.4155 31.081188 
L 242.693335 31.081188 
L 242.693335 30.282772 
L 242.966786 30.282772 
L 242.966792 28.685941 
L 243.253099 28.685941 
L 243.355032 26.290693 
L 243.532158 26.290693 
L 243.532158 24.693861 
L 243.719651 24.693861 
L 243.804333 22.298614 
L 244.582679 22.298614 
L 244.644688 19.10495 
L 244.828346 19.10495 
L 244.828346 18.306535 
L 245.541737 18.306535 
L 245.541737 17.508119 
L 245.769009 17.508119 
L 245.769009 16.709703 
L 245.938433 16.709703 
L 245.938433 15.911287 
L 246.083419 15.911287 
L 246.083419 15.112871 
L 246.20996 15.112871 
L 246.20996 14.314455 
L 246.479327 14.314455 
L 246.479327 13.51604 
L 246.633942 13.51604 
L 246.68333 11.919208 
L 247.816046 11.919208 
L 247.816046 11.120792 
L 247.927388 11.120792 
L 247.937447 9.52396 
L 248.262342 9.52396 
L 248.262342 8.725545 
L 249.90595 8.725545 
L 249.90595 7.927129 
L 254.020104 7.927129 
L 254.020104 7.128713 
L 255.28902 7.128713 
L 255.28902 6.330297 
L 255.28902 6.330297 
L 460.8 6.330297 
L 460.8 6.330297 
" clip-path="url(#p090481cfee)" style="fill: none; stroke: #000000; stroke-width: 1.5; stroke-linecap: square"/>
   </g>
   <g id="patch_3">
    <path d="M 0 293.76 
L 0 3.456 
" style="fill: none; stroke: #000000; stroke-width: 0.8; stroke-linejoin: miter; stroke-linecap: square"/>
   </g>
   <g id="patch_4">
    <path d="M 460.8 293.76 
L 460.8 3.456 
" style="fill: none; stroke: #000000; stroke-width: 0.8; stroke-linejoin: miter; stroke-linecap: square"/>
   </g>
   <g id="patch_5">
    <path d="M 0 293.76 
L 460.8 293.76 
" style="fill: none; stroke: #000000; stroke-width: 0.8; stroke-linejoin: miter; stroke-linecap: square"/>
   </g>
   <g id="patch_6">
    <path d="M 0 3.456 
L 460.8 3.456 
" style="fill: none; stroke: #000000; stroke-width: 0.8; stroke-linejoin: miter; stroke-linecap: square"/>
   </g>
   <g id="text_6">
    <!-- {f1-f24}, 20-D -->
    <g transform="translate(305.884 287.95392) scale(0.2 -0.2)">
     <defs>
      <path id="DejaVuSans-7b" d="M 3272 -594 
L 3272 -1044 
L 3078 -1044 
Q 2300 -1044 2036 -812 
Q 1772 -581 1772 109 
L 1772 856 
Q 1772 1328 1603 1509 
Q 1434 1691 991 1691 
L 800 1691 
L 800 2138 
L 991 2138 
Q 1438 2138 1605 2317 
Q 1772 2497 1772 2963 
L 1772 3713 
Q 1772 4403 2036 4633 
Q 2300 4863 3078 4863 
L 3272 4863 
L 3272 4416 
L 3059 4416 
Q 2619 4416 2484 4278 
Q 2350 4141 2350 3700 
L 2350 2925 
Q 2350 2434 2208 2212 
Q 2066 1991 1722 1913 
Q 2069 1828 2209 1606 
Q 2350 1384 2350 897 
L 2350 122 
Q 2350 -319 2484 -456 
Q 2619 -594 3059 -594 
L 3272 -594 
z
" transform="scale(0.015625)"/>
      <path id="DejaVuSans-32" d="M 1228 531 
L 3431 531 
L 3431 0 
L 469 0 
L 469 531 
Q 828 903 1448 1529 
Q 2069 2156 2228 2338 
Q 2531 2678 2651 2914 
Q 2772 3150 2772 3378 
Q 2772 3750 2511 3984 
Q 2250 4219 1831 4219 
Q 1534 4219 1204 4116 
Q 875 4013 500 3803 
L 500 4441 
Q 881 4594 1212 4672 
Q 1544 4750 1819 4750 
Q 2544 4750 2975 4387 
Q 3406 4025 3406 3419 
Q 3406 3131 3298 2873 
Q 3191 2616 2906 2266 
Q 2828 2175 2409 1742 
Q 1991 1309 1228 531 
z
" transform="scale(0.015625)"/>
      <path id="DejaVuSans-7d" d="M 800 -594 
L 1019 -594 
Q 1456 -594 1589 -459 
Q 1722 -325 1722 122 
L 1722 897 
Q 1722 1384 1862 1606 
Q 2003 1828 2350 1913 
Q 2003 1991 1862 2212 
Q 1722 2434 1722 2925 
L 1722 3700 
Q 1722 4144 1589 4280 
Q 1456 4416 1019 4416 
L 800 4416 
L 800 4863 
L 997 4863 
Q 1775 4863 2036 4633 
Q 2297 4403 2297 3713 
L 2297 2963 
Q 2297 2497 2465 2317 
Q 2634 2138 3078 2138 
L 3272 2138 
L 3272 1691 
L 3078 1691 
Q 2634 1691 2465 1509 
Q 2297 1328 2297 856 
L 2297 109 
Q 2297 -581 2036 -812 
Q 1775 -1044 997 -1044 
L 800 -1044 
L 800 -594 
z
" transform="scale(0.015625)"/>
      <path id="DejaVuSans-2c" d="M 750 794 
L 1409 794 
L 1409 256 
L 897 -744 
L 494 -744 
L 750 256 
L 750 794 
z
" transform="scale(0.015625)"/>
     </defs>
     <use xlink:href="#DejaVuSans-7b"/>
     <use xlink:href="#DejaVuSans-66" x="63.623047"/>
     <use xlink:href="#DejaVuSans-31" x="98.828125"/>
     <use xlink:href="#DejaVuSans-2d" x="162.451172"/>
     <use xlink:href="#DejaVuSans-66" x="198.535156"/>
     <use xlink:href="#DejaVuSans-32" x="233.740234"/>
     <use xlink:href="#DejaVuSans-34" x="297.363281"/>
     <use xlink:href="#DejaVuSans-7d" x="360.986328"/>
     <use xlink:href="#DejaVuSans-2c" x="424.609375"/>
     <use xlink:href="#DejaVuSans-20" x="456.396484"/>
     <use xlink:href="#DejaVuSans-32" x="488.183594"/>
     <use xlink:href="#DejaVuSans-30" x="551.806641"/>
     <use xlink:href="#DejaVuSans-2d" x="615.429688"/>
     <use xlink:href="#DejaVuSans-44" x="651.513672"/>
    </g>
   </g>
   <g id="text_7">
    <!-- v2.6.3 -->
    <g style="fill: #808080" transform="translate(214.71875 288.777272) scale(0.1 -0.1)">
     <defs>
      <path id="DejaVuSans-76" d="M 191 3500 
L 800 3500 
L 1894 563 
L 2988 3500 
L 3597 3500 
L 2284 0 
L 1503 0 
L 191 3500 
z
" transform="scale(0.015625)"/>
      <path id="DejaVuSans-2e" d="M 684 794 
L 1344 794 
L 1344 0 
L 684 0 
L 684 794 
z
" transform="scale(0.015625)"/>
      <path id="DejaVuSans-36" d="M 2113 2584 
Q 1688 2584 1439 2293 
Q 1191 2003 1191 1497 
Q 1191 994 1439 701 
Q 1688 409 2113 409 
Q 2538 409 2786 701 
Q 3034 994 3034 1497 
Q 3034 2003 2786 2293 
Q 2538 2584 2113 2584 
z
M 3366 4563 
L 3366 3988 
Q 3128 4100 2886 4159 
Q 2644 4219 2406 4219 
Q 1781 4219 1451 3797 
Q 1122 3375 1075 2522 
Q 1259 2794 1537 2939 
Q 1816 3084 2150 3084 
Q 2853 3084 3261 2657 
Q 3669 2231 3669 1497 
Q 3669 778 3244 343 
Q 2819 -91 2113 -91 
Q 1303 -91 875 529 
Q 447 1150 447 2328 
Q 447 3434 972 4092 
Q 1497 4750 2381 4750 
Q 2619 4750 2861 4703 
Q 3103 4656 3366 4563 
z
" transform="scale(0.015625)"/>
      <path id="DejaVuSans-33" d="M 2597 2516 
Q 3050 2419 3304 2112 
Q 3559 1806 3559 1356 
Q 3559 666 3084 287 
Q 2609 -91 1734 -91 
Q 1441 -91 1130 -33 
Q 819 25 488 141 
L 488 750 
Q 750 597 1062 519 
Q 1375 441 1716 441 
Q 2309 441 2620 675 
Q 2931 909 2931 1356 
Q 2931 1769 2642 2001 
Q 2353 2234 1838 2234 
L 1294 2234 
L 1294 2753 
L 1863 2753 
Q 2328 2753 2575 2939 
Q 2822 3125 2822 3475 
Q 2822 3834 2567 4026 
Q 2313 4219 1838 4219 
Q 1578 4219 1281 4162 
Q 984 4106 628 3988 
L 628 4550 
Q 988 4650 1302 4700 
Q 1616 4750 1894 4750 
Q 2613 4750 3031 4423 
Q 3450 4097 3450 3541 
Q 3450 3153 3228 2886 
Q 3006 2619 2597 2516 
z
" transform="scale(0.015625)"/>
     </defs>
     <use xlink:href="#DejaVuSans-76"/>
     <use xlink:href="#DejaVuSans-32" x="59.179688"/>
     <use xlink:href="#DejaVuSans-2e" x="122.802734"/>
     <use xlink:href="#DejaVuSans-36" x="154.589844"/>
     <use xlink:href="#DejaVuSans-2e" x="218.212891"/>
     <use xlink:href="#DejaVuSans-33" x="250"/>
    </g>
   </g>
  </g>
 </g>
 <defs>
  <clipPath id="p090481cfee">
   <rect x="0" y="3.456" width="460.8" height="290.304"/>
  </clipPath>
 </defs>
</svg>
