<?xml version="1.0" encoding="utf-8" standalone="no"?>
<!DOCTYPE svg PUBLIC "-//W3C//DTD SVG 1.1//EN"
  "http://www.w3.org/Graphics/SVG/1.1/DTD/svg11.dtd">
<svg xmlns:xlink="http://www.w3.org/1999/xlink" width="460.8pt" height="345.6pt" viewBox="0 0 460.8 345.6" xmlns="http://www.w3.org/2000/svg" version="1.1">
 <metadata>
  <rdf:RDF xmlns:dc="http://purl.org/dc/elements/1.1/" xmlns:cc="http://creativecommons.org/ns#" xmlns:rdf="http://www.w3.org/1999/02/22-rdf-syntax-ns#">
   <cc:Work>
    <dc:type rdf:resource="http://purl.org/dc/dcmitype/StillImage"/>
    <dc:date>2024-06-21T19:46:25.672854</dc:date>
    <dc:format>image/svg+xml</dc:format>
    <dc:creator>
     <cc:Agent>
      <dc:title>Matplotlib v3.7.5, https://matplotlib.org/</dc:title>
     </cc:Agent>
    </dc:creator>
   </cc:Work>
  </rdf:RDF>
 </metadata>
 <defs>
  <style type="text/css">*{stroke-linejoin: round; stroke-linecap: butt}</style>
 </defs>
 <g id="figure_1">
  <g id="patch_1">
   <path d="M 0 345.6 
L 460.8 345.6 
L 460.8 0 
L 0 0 
z
" style="fill: #ffffff"/>
  </g>
  <g id="axes_1">
   <g id="patch_2">
    <path d="M 0 293.76 
L 460.8 293.76 
L 460.8 3.456 
L 0 3.456 
z
" style="fill: #ffffff"/>
   </g>
   <g id="matplotlib.axis_1">
    <g id="xtick_1">
     <g id="line2d_1">
      <path d="M 93.065885 293.76 
L 93.065885 3.456 
" clip-path="url(#pbf6956a279)" style="fill: none; stroke: #b0b0b0; stroke-width: 0.8; stroke-linecap: square"/>
     </g>
     <g id="line2d_2">
      <defs>
       <path id="m9b3cc1e7a7" d="M 0 0 
L 0 3.5 
" style="stroke: #000000; stroke-width: 0.8"/>
      </defs>
      <g>
       <use xlink:href="#m9b3cc1e7a7" x="93.065885" y="293.76" style="stroke: #000000; stroke-width: 0.8"/>
      </g>
     </g>
     <g id="text_1">
      <!-- -4 -->
      <g transform="translate(83.095573 315.956875) scale(0.2 -0.2)">
       <defs>
        <path id="DejaVuSans-2d" d="M 313 2009 
L 1997 2009 
L 1997 1497 
L 313 1497 
L 313 2009 
z
" transform="scale(0.015625)"/>
        <path id="DejaVuSans-34" d="M 2419 4116 
L 825 1625 
L 2419 1625 
L 2419 4116 
z
M 2253 4666 
L 3047 4666 
L 3047 1625 
L 3713 1625 
L 3713 1100 
L 3047 1100 
L 3047 0 
L 2419 0 
L 2419 1100 
L 313 1100 
L 313 1709 
L 2253 4666 
z
" transform="scale(0.015625)"/>
       </defs>
       <use xlink:href="#DejaVuSans-2d"/>
       <use xlink:href="#DejaVuSans-34" x="36.083984"/>
      </g>
     </g>
    </g>
    <g id="xtick_2">
     <g id="line2d_3">
      <path d="M 186.232423 293.76 
L 186.232423 3.456 
" clip-path="url(#pbf6956a279)" style="fill: none; stroke: #b0b0b0; stroke-width: 0.8; stroke-linecap: square"/>
     </g>
     <g id="line2d_4">
      <g>
       <use xlink:href="#m9b3cc1e7a7" x="186.232423" y="293.76" style="stroke: #000000; stroke-width: 0.8"/>
      </g>
     </g>
     <g id="text_2">
      <!-- 0 -->
      <g transform="translate(179.869923 315.956875) scale(0.2 -0.2)">
       <defs>
        <path id="DejaVuSans-30" d="M 2034 4250 
Q 1547 4250 1301 3770 
Q 1056 3291 1056 2328 
Q 1056 1369 1301 889 
Q 1547 409 2034 409 
Q 2525 409 2770 889 
Q 3016 1369 3016 2328 
Q 3016 3291 2770 3770 
Q 2525 4250 2034 4250 
z
M 2034 4750 
Q 2819 4750 3233 4129 
Q 3647 3509 3647 2328 
Q 3647 1150 3233 529 
Q 2819 -91 2034 -91 
Q 1250 -91 836 529 
Q 422 1150 422 2328 
Q 422 3509 836 4129 
Q 1250 4750 2034 4750 
z
" transform="scale(0.015625)"/>
       </defs>
       <use xlink:href="#DejaVuSans-30"/>
      </g>
     </g>
    </g>
    <g id="xtick_3">
     <g id="line2d_5">
      <path d="M 279.39896 293.76 
L 279.39896 3.456 
" clip-path="url(#pbf6956a279)" style="fill: none; stroke: #b0b0b0; stroke-width: 0.8; stroke-linecap: square"/>
     </g>
     <g id="line2d_6">
      <g>
       <use xlink:href="#m9b3cc1e7a7" x="279.39896" y="293.76" style="stroke: #000000; stroke-width: 0.8"/>
      </g>
     </g>
     <g id="text_3">
      <!-- 4 -->
      <g transform="translate(273.03646 315.956875) scale(0.2 -0.2)">
       <use xlink:href="#DejaVuSans-34"/>
      </g>
     </g>
    </g>
    <g id="xtick_4">
     <g id="line2d_7">
      <path d="M 372.565497 293.76 
L 372.565497 3.456 
" clip-path="url(#pbf6956a279)" style="fill: none; stroke: #b0b0b0; stroke-width: 0.8; stroke-linecap: square"/>
     </g>
     <g id="line2d_8">
      <g>
       <use xlink:href="#m9b3cc1e7a7" x="372.565497" y="293.76" style="stroke: #000000; stroke-width: 0.8"/>
      </g>
     </g>
     <g id="text_4">
      <!-- 8 -->
      <g transform="translate(366.202997 315.956875) scale(0.2 -0.2)">
       <defs>
        <path id="DejaVuSans-38" d="M 2034 2216 
Q 1584 2216 1326 1975 
Q 1069 1734 1069 1313 
Q 1069 891 1326 650 
Q 1584 409 2034 409 
Q 2484 409 2743 651 
Q 3003 894 3003 1313 
Q 3003 1734 2745 1975 
Q 2488 2216 2034 2216 
z
M 1403 2484 
Q 997 2584 770 2862 
Q 544 3141 544 3541 
Q 544 4100 942 4425 
Q 1341 4750 2034 4750 
Q 2731 4750 3128 4425 
Q 3525 4100 3525 3541 
Q 3525 3141 3298 2862 
Q 3072 2584 2669 2484 
Q 3125 2378 3379 2068 
Q 3634 1759 3634 1313 
Q 3634 634 3220 271 
Q 2806 -91 2034 -91 
Q 1263 -91 848 271 
Q 434 634 434 1313 
Q 434 1759 690 2068 
Q 947 2378 1403 2484 
z
M 1172 3481 
Q 1172 3119 1398 2916 
Q 1625 2713 2034 2713 
Q 2441 2713 2670 2916 
Q 2900 3119 2900 3481 
Q 2900 3844 2670 4047 
Q 2441 4250 2034 4250 
Q 1625 4250 1398 4047 
Q 1172 3844 1172 3481 
z
" transform="scale(0.015625)"/>
       </defs>
       <use xlink:href="#DejaVuSans-38"/>
      </g>
     </g>
    </g>
    <g id="text_5">
     <!-- log10 of Df -->
     <g transform="translate(175.214063 339.313125) scale(0.2 -0.2)">
      <defs>
       <path id="DejaVuSans-6c" d="M 603 4863 
L 1178 4863 
L 1178 0 
L 603 0 
L 603 4863 
z
" transform="scale(0.015625)"/>
       <path id="DejaVuSans-6f" d="M 1959 3097 
Q 1497 3097 1228 2736 
Q 959 2375 959 1747 
Q 959 1119 1226 758 
Q 1494 397 1959 397 
Q 2419 397 2687 759 
Q 2956 1122 2956 1747 
Q 2956 2369 2687 2733 
Q 2419 3097 1959 3097 
z
M 1959 3584 
Q 2709 3584 3137 3096 
Q 3566 2609 3566 1747 
Q 3566 888 3137 398 
Q 2709 -91 1959 -91 
Q 1206 -91 779 398 
Q 353 888 353 1747 
Q 353 2609 779 3096 
Q 1206 3584 1959 3584 
z
" transform="scale(0.015625)"/>
       <path id="DejaVuSans-67" d="M 2906 1791 
Q 2906 2416 2648 2759 
Q 2391 3103 1925 3103 
Q 1463 3103 1205 2759 
Q 947 2416 947 1791 
Q 947 1169 1205 825 
Q 1463 481 1925 481 
Q 2391 481 2648 825 
Q 2906 1169 2906 1791 
z
M 3481 434 
Q 3481 -459 3084 -895 
Q 2688 -1331 1869 -1331 
Q 1566 -1331 1297 -1286 
Q 1028 -1241 775 -1147 
L 775 -588 
Q 1028 -725 1275 -790 
Q 1522 -856 1778 -856 
Q 2344 -856 2625 -561 
Q 2906 -266 2906 331 
L 2906 616 
Q 2728 306 2450 153 
Q 2172 0 1784 0 
Q 1141 0 747 490 
Q 353 981 353 1791 
Q 353 2603 747 3093 
Q 1141 3584 1784 3584 
Q 2172 3584 2450 3431 
Q 2728 3278 2906 2969 
L 2906 3500 
L 3481 3500 
L 3481 434 
z
" transform="scale(0.015625)"/>
       <path id="DejaVuSans-31" d="M 794 531 
L 1825 531 
L 1825 4091 
L 703 3866 
L 703 4441 
L 1819 4666 
L 2450 4666 
L 2450 531 
L 3481 531 
L 3481 0 
L 794 0 
L 794 531 
z
" transform="scale(0.015625)"/>
       <path id="DejaVuSans-20" transform="scale(0.015625)"/>
       <path id="DejaVuSans-66" d="M 2375 4863 
L 2375 4384 
L 1825 4384 
Q 1516 4384 1395 4259 
Q 1275 4134 1275 3809 
L 1275 3500 
L 2222 3500 
L 2222 3053 
L 1275 3053 
L 1275 0 
L 697 0 
L 697 3053 
L 147 3053 
L 147 3500 
L 697 3500 
L 697 3744 
Q 697 4328 969 4595 
Q 1241 4863 1831 4863 
L 2375 4863 
z
" transform="scale(0.015625)"/>
       <path id="DejaVuSans-44" d="M 1259 4147 
L 1259 519 
L 2022 519 
Q 2988 519 3436 956 
Q 3884 1394 3884 2338 
Q 3884 3275 3436 3711 
Q 2988 4147 2022 4147 
L 1259 4147 
z
M 628 4666 
L 1925 4666 
Q 3281 4666 3915 4102 
Q 4550 3538 4550 2338 
Q 4550 1131 3912 565 
Q 3275 0 1925 0 
L 628 0 
L 628 4666 
z
" transform="scale(0.015625)"/>
      </defs>
      <use xlink:href="#DejaVuSans-6c"/>
      <use xlink:href="#DejaVuSans-6f" x="27.783203"/>
      <use xlink:href="#DejaVuSans-67" x="88.964844"/>
      <use xlink:href="#DejaVuSans-31" x="152.441406"/>
      <use xlink:href="#DejaVuSans-30" x="216.064453"/>
      <use xlink:href="#DejaVuSans-20" x="279.6875"/>
      <use xlink:href="#DejaVuSans-6f" x="311.474609"/>
      <use xlink:href="#DejaVuSans-66" x="372.65625"/>
      <use xlink:href="#DejaVuSans-20" x="407.861328"/>
      <use xlink:href="#DejaVuSans-44" x="439.648438"/>
      <use xlink:href="#DejaVuSans-66" x="516.650391"/>
     </g>
    </g>
   </g>
   <g id="matplotlib.axis_2">
    <g id="ytick_1">
     <g id="line2d_9">
      <path d="M 0 293.76 
L 460.8 293.76 
" clip-path="url(#pbf6956a279)" style="fill: none; stroke: #b0b0b0; stroke-width: 0.8; stroke-linecap: square"/>
     </g>
     <g id="line2d_10">
      <defs>
       <path id="m0eac1beac1" d="M 0 0 
L -3.5 0 
" style="stroke: #000000; stroke-width: 0.8"/>
      </defs>
      <g>
       <use xlink:href="#m0eac1beac1" x="0" y="293.76" style="stroke: #000000; stroke-width: 0.8"/>
      </g>
     </g>
    </g>
    <g id="ytick_2">
     <g id="line2d_11">
      <path d="M 0 236.274059 
L 460.8 236.274059 
" clip-path="url(#pbf6956a279)" style="fill: none; stroke: #b0b0b0; stroke-width: 0.8; stroke-linecap: square"/>
     </g>
     <g id="line2d_12">
      <g>
       <use xlink:href="#m0eac1beac1" x="0" y="236.274059" style="stroke: #000000; stroke-width: 0.8"/>
      </g>
     </g>
    </g>
    <g id="ytick_3">
     <g id="line2d_13">
      <path d="M 0 178.788119 
L 460.8 178.788119 
" clip-path="url(#pbf6956a279)" style="fill: none; stroke: #b0b0b0; stroke-width: 0.8; stroke-linecap: square"/>
     </g>
     <g id="line2d_14">
      <g>
       <use xlink:href="#m0eac1beac1" x="0" y="178.788119" style="stroke: #000000; stroke-width: 0.8"/>
      </g>
     </g>
    </g>
    <g id="ytick_4">
     <g id="line2d_15">
      <path d="M 0 121.302178 
L 460.8 121.302178 
" clip-path="url(#pbf6956a279)" style="fill: none; stroke: #b0b0b0; stroke-width: 0.8; stroke-linecap: square"/>
     </g>
     <g id="line2d_16">
      <g>
       <use xlink:href="#m0eac1beac1" x="0" y="121.302178" style="stroke: #000000; stroke-width: 0.8"/>
      </g>
     </g>
    </g>
    <g id="ytick_5">
     <g id="line2d_17">
      <path d="M 0 63.816238 
L 460.8 63.816238 
" clip-path="url(#pbf6956a279)" style="fill: none; stroke: #b0b0b0; stroke-width: 0.8; stroke-linecap: square"/>
     </g>
     <g id="line2d_18">
      <g>
       <use xlink:href="#m0eac1beac1" x="0" y="63.816238" style="stroke: #000000; stroke-width: 0.8"/>
      </g>
     </g>
    </g>
    <g id="ytick_6">
     <g id="line2d_19">
      <path d="M 0 6.330297 
L 460.8 6.330297 
" clip-path="url(#pbf6956a279)" style="fill: none; stroke: #b0b0b0; stroke-width: 0.8; stroke-linecap: square"/>
     </g>
     <g id="line2d_20">
      <g>
       <use xlink:href="#m0eac1beac1" x="0" y="6.330297" style="stroke: #000000; stroke-width: 0.8"/>
      </g>
     </g>
    </g>
   </g>
   <g id="line2d_21">
    <path d="M -1 163.458535 
L -0.100652 163.458535 
L -0.100652 48.486653 
L 7.527963 48.486653 
L 7.527963 44.654257 
L 16.946846 44.654257 
L 16.946846 40.821861 
L 59.2733 40.821861 
L 59.2733 36.989465 
L 72.354068 36.989465 
L 72.354068 33.157069 
L 76.441746 33.157069 
L 76.441746 29.324673 
L 99.316852 29.324673 
L 99.316852 25.492277 
L 105.58315 25.492277 
L 105.58315 21.659881 
L 162.556041 21.659881 
L 162.556041 17.827485 
L 185.049792 17.827485 
L 185.049792 13.995089 
L 186.993072 13.995089 
L 186.993072 10.162693 
L 187.759313 10.162693 
L 187.759313 6.330297 
L 187.759313 6.330297 
L 460.8 6.330297 
L 460.8 6.330297 
" clip-path="url(#pbf6956a279)" style="fill: none; stroke: #ff0000; stroke-width: 3; stroke-linecap: square"/>
   </g>
   <g id="line2d_22">
    <path d="M 200.077733 293.76 
L 200.077733 289.927604 
L 210.197864 289.927604 
L 210.197864 286.095208 
L 210.745115 286.095208 
L 210.745115 282.262812 
L 215.110422 282.262812 
L 215.110422 278.430416 
L 215.387393 278.430416 
L 215.387393 274.59802 
L 220.457135 274.59802 
L 220.457135 270.765624 
L 221.004482 270.765624 
L 221.004482 266.933228 
L 222.296453 266.933228 
L 222.296453 263.100832 
L 223.893866 263.100832 
L 223.893866 259.268436 
L 226.989615 259.268436 
L 226.989615 255.43604 
L 229.00515 255.43604 
L 229.00515 251.603644 
L 229.457028 251.603644 
L 229.457028 247.771248 
L 230.748942 247.771248 
L 230.748942 243.938851 
L 233.508641 243.938851 
L 233.508641 240.106455 
L 240.443206 240.106455 
L 240.443206 236.274059 
L 250.813899 236.274059 
L 250.813899 232.441663 
L 252.13067 232.441663 
L 252.13067 228.609267 
L 252.644816 228.609267 
L 252.644816 224.776871 
L 253.723768 224.776871 
L 253.723768 220.944475 
L 255.791279 220.944475 
L 255.870046 213.279683 
L 256.720483 213.279683 
L 256.767781 205.614891 
L 258.464545 205.614891 
L 258.464545 201.782495 
L 259.151914 201.782495 
L 259.151914 197.950099 
L 260.432055 197.950099 
L 260.432055 194.117703 
L 260.71947 194.117703 
L 260.71947 190.285307 
L 261.601321 190.285307 
L 261.601321 186.452911 
L 262.22533 186.452911 
L 262.22533 182.620515 
L 262.454481 182.620515 
L 262.454481 178.788119 
L 283.852829 178.788119 
L 283.870954 171.123327 
L 292.599019 171.123327 
L 292.599019 167.290931 
L 301.018316 167.290931 
L 301.018316 163.458535 
L 303.036952 163.458535 
L 303.036952 159.626139 
L 303.823075 159.626139 
L 303.823075 155.793743 
L 304.213849 155.793743 
L 304.213849 151.961347 
L 318.675804 151.961347 
L 318.675804 148.12895 
L 319.138118 148.12895 
L 319.138118 144.296554 
L 319.890848 144.296554 
L 319.890848 140.464158 
L 326.558937 140.464158 
L 326.558937 136.631762 
L 331.470117 136.631762 
L 331.470117 132.799366 
L 331.719885 132.799366 
L 331.719885 128.96697 
L 332.564209 128.96697 
L 332.564209 125.134574 
L 335.092093 125.134574 
L 335.092093 121.302178 
L 336.523317 121.302178 
L 336.523317 117.469782 
L 336.964036 117.469782 
L 336.964036 113.637386 
L 340.149597 113.637386 
L 340.149597 109.80499 
L 343.203265 109.80499 
L 343.203265 105.972594 
L 344.512935 105.972594 
L 344.512935 102.140198 
L 347.449227 102.140198 
L 347.522341 94.475406 
L 347.858837 94.475406 
L 347.858837 90.64301 
L 348.140739 90.64301 
L 348.140739 86.810614 
L 348.800498 86.810614 
L 348.879917 79.145822 
L 351.25277 79.145822 
L 351.25277 75.313426 
L 352.212804 75.313426 
L 352.212804 71.48103 
L 353.434422 71.48103 
L 353.434422 67.648634 
L 354.479595 67.648634 
L 354.479595 63.816238 
L 354.631653 63.816238 
L 354.631653 59.983842 
L 356.031989 59.983842 
L 356.031989 56.151446 
L 360.912591 56.151446 
L 360.912591 52.31905 
L 364.164158 52.31905 
L 364.164158 48.486653 
L 365.570958 48.486653 
L 365.570958 44.654257 
L 366.067567 44.654257 
L 366.067567 40.821861 
L 370.666025 40.821861 
L 370.666025 36.989465 
L 372.484309 36.989465 
L 372.484309 33.157069 
L 372.67263 33.157069 
L 372.712117 25.492277 
L 373.102644 25.492277 
L 373.102644 21.659881 
L 381.995801 21.659881 
L 381.995801 17.827485 
L 385.073301 17.827485 
L 385.073301 13.995089 
L 399.145298 13.995089 
L 399.145298 10.162693 
L 430.363592 10.162693 
L 430.363592 6.330297 
L 430.363592 6.330297 
L 460.8 6.330297 
L 460.8 6.330297 
" clip-path="url(#pbf6956a279)" style="fill: none; stroke: #00bfbf; stroke-width: 1.5; stroke-linecap: square"/>
   </g>
   <g id="line2d_23">
    <path d="M 200.077733 293.76 
L 200.077733 289.927604 
L 209.68523 289.927604 
L 209.68523 286.095208 
L 210.197864 286.095208 
L 210.197864 282.262812 
L 210.745115 282.262812 
L 210.745115 278.430416 
L 213.872861 278.430416 
L 213.872861 274.59802 
L 214.970331 274.59802 
L 214.970331 270.765624 
L 215.387393 270.765624 
L 215.387393 266.933228 
L 217.341834 266.933228 
L 217.341834 263.100832 
L 218.724579 263.100832 
L 218.724579 259.268436 
L 220.457135 259.268436 
L 220.457135 255.43604 
L 221.052523 255.43604 
L 221.052523 251.603644 
L 221.377138 251.603644 
L 221.377138 247.771248 
L 222.848343 247.771248 
L 222.938314 240.106455 
L 229.457028 240.106455 
L 229.457028 236.274059 
L 250.813899 236.274059 
L 250.813899 232.441663 
L 251.052757 232.441663 
L 251.052757 228.609267 
L 251.278171 228.609267 
L 251.278171 224.776871 
L 252.13067 224.776871 
L 252.13067 220.944475 
L 252.644816 220.944475 
L 252.644816 217.112079 
L 253.723768 217.112079 
L 253.802468 209.447287 
L 253.996237 209.447287 
L 253.996237 205.614891 
L 255.791279 205.614891 
L 255.870046 194.117703 
L 255.999206 194.117703 
L 255.999206 190.285307 
L 259.51328 190.285307 
L 259.51328 186.452911 
L 260.214103 186.452911 
L 260.214103 182.620515 
L 260.669756 182.620515 
L 260.669756 178.788119 
L 283.852829 178.788119 
L 283.870954 171.123327 
L 292.599019 171.123327 
L 292.599019 167.290931 
L 293.657172 167.290931 
L 293.719385 159.626139 
L 294.05207 159.626139 
L 294.05207 155.793743 
L 294.546636 155.793743 
L 294.546636 151.961347 
L 300.003956 151.961347 
L 300.003956 148.12895 
L 301.018316 148.12895 
L 301.018316 144.296554 
L 303.823075 144.296554 
L 303.823075 140.464158 
L 304.213849 140.464158 
L 304.213849 136.631762 
L 308.586361 136.631762 
L 308.586361 132.799366 
L 308.970972 132.799366 
L 308.970972 128.96697 
L 310.680942 128.96697 
L 310.680942 125.134574 
L 311.36106 125.134574 
L 311.36106 121.302178 
L 313.306731 121.302178 
L 313.306731 117.469782 
L 317.551341 117.469782 
L 317.551341 113.637386 
L 318.675804 113.637386 
L 318.675804 109.80499 
L 320.124658 109.80499 
L 320.124658 105.972594 
L 320.819872 105.972594 
L 320.819872 102.140198 
L 326.086527 102.140198 
L 326.086527 98.307802 
L 326.558937 98.307802 
L 326.558937 94.475406 
L 329.660737 94.475406 
L 329.660737 90.64301 
L 330.591448 90.64301 
L 330.591448 86.810614 
L 331.719885 86.810614 
L 331.719885 82.978218 
L 333.438235 82.978218 
L 333.438235 79.145822 
L 334.473097 79.145822 
L 334.473097 75.313426 
L 337.913658 75.313426 
L 337.913658 71.48103 
L 343.203265 71.48103 
L 343.203265 67.648634 
L 344.512935 67.648634 
L 344.512935 63.816238 
L 347.858837 63.816238 
L 347.858837 59.983842 
L 348.06429 59.983842 
L 348.06429 56.151446 
L 348.253109 56.151446 
L 348.253109 52.31905 
L 348.775985 52.31905 
L 348.775985 48.486653 
L 354.631653 48.486653 
L 354.631653 44.654257 
L 356.016652 44.654257 
L 356.031989 36.989465 
L 357.481013 36.989465 
L 357.500891 29.324673 
L 357.73821 29.324673 
L 357.73821 25.492277 
L 358.919515 25.492277 
L 358.919515 21.659881 
L 366.067567 21.659881 
L 366.067567 17.827485 
L 368.366238 17.827485 
L 368.366238 13.995089 
L 369.093779 13.995089 
L 369.093779 10.162693 
L 372.712117 10.162693 
L 372.712117 6.330297 
L 372.712117 6.330297 
L 460.8 6.330297 
L 460.8 6.330297 
" clip-path="url(#pbf6956a279)" style="fill: none; stroke: #bf00bf; stroke-width: 1.5; stroke-linecap: square"/>
   </g>
   <g id="line2d_24">
    <path d="M 200.077733 293.76 
L 200.077733 289.927604 
L 204.280423 289.927604 
L 204.280423 286.095208 
L 205.65093 286.095208 
L 205.65093 282.262812 
L 206.930955 282.262812 
L 206.930955 278.430416 
L 207.08768 278.430416 
L 207.183319 270.765624 
L 207.673492 270.765624 
L 207.673492 266.933228 
L 208.675927 266.933228 
L 208.675927 263.100832 
L 210.197864 263.100832 
L 210.197864 259.268436 
L 210.643 259.268436 
L 210.643 255.43604 
L 210.771448 255.43604 
L 210.771448 251.603644 
L 213.872861 251.603644 
L 213.872861 247.771248 
L 214.362238 247.771248 
L 214.362238 243.938851 
L 217.231565 243.938851 
L 217.231565 240.106455 
L 221.377138 240.106455 
L 221.377138 236.274059 
L 236.467898 236.274059 
L 236.467898 232.441663 
L 248.090905 232.441663 
L 248.090905 228.609267 
L 249.463526 228.609267 
L 249.463526 224.776871 
L 250.678479 224.776871 
L 250.678479 220.944475 
L 250.813899 220.944475 
L 250.813899 217.112079 
L 251.052757 217.112079 
L 251.104482 209.447287 
L 251.473979 209.447287 
L 251.473979 205.614891 
L 251.692683 205.614891 
L 251.692683 201.782495 
L 252.13067 201.782495 
L 252.13067 197.950099 
L 252.644816 197.950099 
L 252.644816 194.117703 
L 253.247221 194.117703 
L 253.247221 190.285307 
L 253.802468 190.285307 
L 253.802468 186.452911 
L 255.75323 186.452911 
L 255.800251 178.788119 
L 258.257442 178.788119 
L 258.257442 174.955723 
L 262.163891 174.955723 
L 262.163891 171.123327 
L 274.244027 171.123327 
L 274.244027 167.290931 
L 280.653119 167.290931 
L 280.653119 163.458535 
L 282.44261 163.458535 
L 282.44261 159.626139 
L 283.852829 159.626139 
L 283.870954 151.961347 
L 285.226358 151.961347 
L 285.248622 144.296554 
L 292.599019 144.296554 
L 292.599019 140.464158 
L 293.657172 140.464158 
L 293.657172 136.631762 
L 302.341902 136.631762 
L 302.341902 132.799366 
L 303.823075 132.799366 
L 303.823075 128.96697 
L 304.213849 128.96697 
L 304.213849 125.134574 
L 304.912441 125.134574 
L 304.912441 121.302178 
L 308.586361 121.302178 
L 308.586361 117.469782 
L 308.970972 117.469782 
L 308.970972 113.637386 
L 310.190802 113.637386 
L 310.190802 109.80499 
L 310.396135 109.80499 
L 310.396135 105.972594 
L 310.680942 105.972594 
L 310.680942 102.140198 
L 313.306731 102.140198 
L 313.306731 98.307802 
L 316.04559 98.307802 
L 316.04559 94.475406 
L 317.204895 94.475406 
L 317.204895 90.64301 
L 317.330512 90.64301 
L 317.330512 86.810614 
L 326.558937 86.810614 
L 326.558937 82.978218 
L 326.833294 82.978218 
L 326.833294 79.145822 
L 331.719885 79.145822 
L 331.815308 71.48103 
L 334.473097 71.48103 
L 334.473097 67.648634 
L 335.252822 67.648634 
L 335.252822 63.816238 
L 338.556946 63.816238 
L 338.556946 59.983842 
L 342.391602 59.983842 
L 342.391602 56.151446 
L 346.30336 56.151446 
L 346.30336 52.31905 
L 347.858837 52.31905 
L 347.858837 48.486653 
L 348.06429 48.486653 
L 348.06429 44.654257 
L 348.253109 44.654257 
L 348.253109 40.821861 
L 353.731059 40.821861 
L 353.731059 36.989465 
L 354.631653 36.989465 
L 354.631653 33.157069 
L 356.016652 33.157069 
L 356.016652 29.324673 
L 357.481013 29.324673 
L 357.500891 21.659881 
L 357.73821 21.659881 
L 357.73821 17.827485 
L 358.942189 17.827485 
L 358.942189 13.995089 
L 362.647059 13.995089 
L 362.647059 10.162693 
L 366.10245 10.162693 
L 366.10245 6.330297 
L 366.10245 6.330297 
L 460.8 6.330297 
L 460.8 6.330297 
" clip-path="url(#pbf6956a279)" style="fill: none; stroke: #000000; stroke-width: 1.5; stroke-linecap: square"/>
   </g>
   <g id="line2d_25">
    <path d="M 193.713697 293.76 
L 193.713697 289.927604 
L 194.884696 289.927604 
L 194.884696 286.095208 
L 198.653269 286.095208 
L 198.653269 282.262812 
L 199.054007 282.262812 
L 199.054007 278.430416 
L 199.239424 278.430416 
L 199.239424 274.59802 
L 199.478142 274.59802 
L 199.478916 266.933228 
L 199.651718 266.933228 
L 199.651718 263.100832 
L 201.765935 263.100832 
L 201.765935 259.268436 
L 202.575217 259.268436 
L 202.575217 255.43604 
L 203.431877 255.43604 
L 203.431877 251.603644 
L 204.35597 251.603644 
L 204.35597 247.771248 
L 204.72474 247.771248 
L 204.72474 243.938851 
L 208.863751 243.938851 
L 208.863751 240.106455 
L 213.872861 240.106455 
L 213.872861 236.274059 
L 234.065879 236.274059 
L 234.065879 232.441663 
L 236.467898 232.441663 
L 236.467898 228.609267 
L 240.667817 228.609267 
L 240.667817 224.776871 
L 242.426618 224.776871 
L 242.426618 220.944475 
L 243.421566 220.944475 
L 243.421566 217.112079 
L 245.950721 217.112079 
L 245.950721 213.279683 
L 246.305402 213.279683 
L 246.305402 209.447287 
L 246.465896 209.447287 
L 246.465896 205.614891 
L 246.733991 205.614891 
L 246.733991 201.782495 
L 246.938029 201.782495 
L 246.938029 197.950099 
L 247.767889 197.950099 
L 247.767889 194.117703 
L 248.287808 194.117703 
L 248.287808 190.285307 
L 249.054807 190.285307 
L 249.054807 186.452911 
L 249.584344 186.452911 
L 249.584344 182.620515 
L 251.104482 182.620515 
L 251.104482 178.788119 
L 251.492738 178.788119 
L 251.492738 174.955723 
L 258.257442 174.955723 
L 258.257442 171.123327 
L 262.163891 171.123327 
L 262.163891 167.290931 
L 269.456458 167.290931 
L 269.456458 163.458535 
L 269.629352 163.458535 
L 269.629352 159.626139 
L 270.185611 159.626139 
L 270.185611 155.793743 
L 273.627854 155.793743 
L 273.627854 151.961347 
L 274.244027 151.961347 
L 274.244027 148.12895 
L 275.347993 148.12895 
L 275.347993 144.296554 
L 277.654939 144.296554 
L 277.654939 140.464158 
L 280.653119 140.464158 
L 280.653119 136.631762 
L 280.814417 136.631762 
L 280.814417 132.799366 
L 285.226358 132.799366 
L 285.248622 125.134574 
L 290.939623 125.134574 
L 290.939623 121.302178 
L 292.599019 121.302178 
L 292.599019 117.469782 
L 293.774608 117.469782 
L 293.774608 113.637386 
L 296.672033 113.637386 
L 296.672033 109.80499 
L 297.202622 109.80499 
L 297.202622 105.972594 
L 304.213849 105.972594 
L 304.213849 102.140198 
L 304.438138 102.140198 
L 304.438138 98.307802 
L 304.862034 98.307802 
L 304.912441 90.64301 
L 306.420556 90.64301 
L 306.420556 86.810614 
L 306.546536 86.810614 
L 306.546536 82.978218 
L 308.073482 82.978218 
L 308.073482 79.145822 
L 310.043946 79.145822 
L 310.043946 75.313426 
L 310.680942 75.313426 
L 310.680942 71.48103 
L 311.966322 71.48103 
L 311.966322 67.648634 
L 324.051448 67.648634 
L 324.051448 63.816238 
L 325.218297 63.816238 
L 325.218297 59.983842 
L 329.00721 59.983842 
L 329.00721 56.151446 
L 331.590472 56.151446 
L 331.590472 52.31905 
L 333.701266 52.31905 
L 333.701266 48.486653 
L 336.423697 48.486653 
L 336.423697 44.654257 
L 337.219538 44.654257 
L 337.219538 40.821861 
L 337.341966 40.821861 
L 337.341966 36.989465 
L 337.578717 36.989465 
L 337.578717 33.157069 
L 337.930436 33.157069 
L 337.930436 29.324673 
L 338.346716 29.324673 
L 338.346716 25.492277 
L 338.556946 25.492277 
L 338.556946 21.659881 
L 341.648522 21.659881 
L 341.648522 17.827485 
L 342.391602 17.827485 
L 342.391602 13.995089 
L 343.495008 13.995089 
L 343.495008 10.162693 
L 344.999086 10.162693 
L 344.999086 6.330297 
L 344.999086 6.330297 
L 460.8 6.330297 
L 460.8 6.330297 
" clip-path="url(#pbf6956a279)" style="fill: none; stroke: #00bfbf; stroke-width: 1.5; stroke-linecap: square"/>
   </g>
   <g id="line2d_26">
    <path d="M 117.061139 293.76 
L 117.061139 289.927604 
L 120.540596 289.927604 
L 120.540596 286.095208 
L 124.001718 286.095208 
L 124.001718 282.262812 
L 124.168841 282.262812 
L 124.168841 278.430416 
L 126.72704 278.430416 
L 126.72704 274.59802 
L 129.122068 274.59802 
L 129.122068 270.765624 
L 130.07368 270.765624 
L 130.07368 266.933228 
L 132.86874 266.933228 
L 132.86874 263.100832 
L 134.070693 263.100832 
L 134.070693 259.268436 
L 141.490993 259.268436 
L 141.490993 255.43604 
L 142.130231 255.43604 
L 142.130231 251.603644 
L 144.803085 251.603644 
L 144.803085 247.771248 
L 146.224809 247.771248 
L 146.224809 243.938851 
L 147.415517 243.938851 
L 147.415517 240.106455 
L 155.548756 240.106455 
L 155.548756 236.274059 
L 179.90968 236.274059 
L 179.90968 232.441663 
L 180.966394 232.441663 
L 180.966394 228.609267 
L 189.735654 228.609267 
L 189.735654 224.776871 
L 192.978488 224.776871 
L 192.978488 220.944475 
L 194.574071 220.944475 
L 194.574071 217.112079 
L 194.822694 217.112079 
L 194.822694 213.279683 
L 197.030239 213.279683 
L 197.030239 209.447287 
L 198.129038 209.447287 
L 198.129038 205.614891 
L 200.891298 205.614891 
L 200.891298 201.782495 
L 203.997002 201.782495 
L 204.093353 194.117703 
L 204.108696 194.117703 
L 204.108696 190.285307 
L 205.830558 190.285307 
L 205.830558 186.452911 
L 209.254728 186.452911 
L 209.365764 178.788119 
L 210.906829 178.788119 
L 210.906829 174.955723 
L 211.178228 174.955723 
L 211.178228 171.123327 
L 211.800785 171.123327 
L 211.800785 167.290931 
L 213.082512 167.290931 
L 213.082512 163.458535 
L 214.648568 163.458535 
L 214.648568 159.626139 
L 216.483626 159.626139 
L 216.483626 155.793743 
L 219.940756 155.793743 
L 219.940756 151.961347 
L 221.96814 151.961347 
L 221.96814 148.12895 
L 222.573088 148.12895 
L 222.573088 144.296554 
L 223.424245 144.296554 
L 223.424245 140.464158 
L 223.555762 140.464158 
L 223.609368 132.799366 
L 225.073822 132.799366 
L 225.073822 128.96697 
L 227.441735 128.96697 
L 227.441735 125.134574 
L 229.242288 125.134574 
L 229.242288 121.302178 
L 229.840424 121.302178 
L 229.850898 113.637386 
L 232.442334 113.637386 
L 232.442334 109.80499 
L 232.613747 109.80499 
L 232.613747 105.972594 
L 232.905062 105.972594 
L 232.905062 102.140198 
L 233.285521 102.140198 
L 233.285521 98.307802 
L 233.880269 98.307802 
L 233.880269 94.475406 
L 234.515657 94.475406 
L 234.515657 90.64301 
L 234.953692 90.64301 
L 234.953692 86.810614 
L 235.790233 86.810614 
L 235.790233 82.978218 
L 239.097856 82.978218 
L 239.097856 79.145822 
L 239.49574 79.145822 
L 239.49574 75.313426 
L 241.643646 75.313426 
L 241.643646 71.48103 
L 242.01254 71.48103 
L 242.01254 67.648634 
L 243.330098 67.648634 
L 243.330098 63.816238 
L 243.460743 63.816238 
L 243.460743 59.983842 
L 244.289543 59.983842 
L 244.289543 56.151446 
L 244.557227 56.151446 
L 244.557227 52.31905 
L 245.324547 52.31905 
L 245.324547 48.486653 
L 246.164843 48.486653 
L 246.164843 44.654257 
L 246.485462 44.654257 
L 246.485462 40.821861 
L 247.900242 40.821861 
L 247.900242 36.989465 
L 251.47693 36.989465 
L 251.47693 33.157069 
L 255.822974 33.157069 
L 255.822974 29.324673 
L 258.257442 29.324673 
L 258.257442 25.492277 
L 259.956032 25.492277 
L 259.956032 21.659881 
L 260.316748 21.659881 
L 260.316748 17.827485 
L 267.282708 17.827485 
L 267.282708 13.995089 
L 274.383281 13.995089 
L 274.383281 10.162693 
L 282.48855 10.162693 
L 282.48855 6.330297 
L 282.48855 6.330297 
L 460.8 6.330297 
L 460.8 6.330297 
" clip-path="url(#pbf6956a279)" style="fill: none; stroke: #bf00bf; stroke-width: 1.5; stroke-linecap: square"/>
   </g>
   <g id="line2d_27">
    <path d="M -1 163.458535 
L -0.100652 163.458535 
L -0.100652 48.486653 
L 7.527963 48.486653 
L 7.527963 44.654257 
L 16.946846 44.654257 
L 16.946846 40.821861 
L 59.2733 40.821861 
L 59.2733 36.989465 
L 72.354068 36.989465 
L 72.354068 33.157069 
L 76.441746 33.157069 
L 76.441746 29.324673 
L 99.316852 29.324673 
L 99.316852 25.492277 
L 105.58315 25.492277 
L 105.58315 21.659881 
L 162.556041 21.659881 
L 162.556041 17.827485 
L 185.049792 17.827485 
L 185.049792 13.995089 
L 186.993072 13.995089 
L 186.993072 10.162693 
L 187.759313 10.162693 
L 187.759313 6.330297 
L 187.759313 6.330297 
L 460.8 6.330297 
L 460.8 6.330297 
" clip-path="url(#pbf6956a279)" style="fill: none; stroke: #000000; stroke-width: 1.5; stroke-linecap: square"/>
   </g>
   <g id="patch_3">
    <path d="M 0 293.76 
L 0 3.456 
" style="fill: none; stroke: #000000; stroke-width: 0.8; stroke-linejoin: miter; stroke-linecap: square"/>
   </g>
   <g id="patch_4">
    <path d="M 460.8 293.76 
L 460.8 3.456 
" style="fill: none; stroke: #000000; stroke-width: 0.8; stroke-linejoin: miter; stroke-linecap: square"/>
   </g>
   <g id="patch_5">
    <path d="M 0 293.76 
L 460.8 293.76 
" style="fill: none; stroke: #000000; stroke-width: 0.8; stroke-linejoin: miter; stroke-linecap: square"/>
   </g>
   <g id="patch_6">
    <path d="M 0 3.456 
L 460.8 3.456 
" style="fill: none; stroke: #000000; stroke-width: 0.8; stroke-linejoin: miter; stroke-linecap: square"/>
   </g>
   <g id="text_6">
    <!-- {f10-f14}, 5-D -->
    <g transform="translate(305.884 287.95392) scale(0.2 -0.2)">
     <defs>
      <path id="DejaVuSans-7b" d="M 3272 -594 
L 3272 -1044 
L 3078 -1044 
Q 2300 -1044 2036 -812 
Q 1772 -581 1772 109 
L 1772 856 
Q 1772 1328 1603 1509 
Q 1434 1691 991 1691 
L 800 1691 
L 800 2138 
L 991 2138 
Q 1438 2138 1605 2317 
Q 1772 2497 1772 2963 
L 1772 3713 
Q 1772 4403 2036 4633 
Q 2300 4863 3078 4863 
L 3272 4863 
L 3272 4416 
L 3059 4416 
Q 2619 4416 2484 4278 
Q 2350 4141 2350 3700 
L 2350 2925 
Q 2350 2434 2208 2212 
Q 2066 1991 1722 1913 
Q 2069 1828 2209 1606 
Q 2350 1384 2350 897 
L 2350 122 
Q 2350 -319 2484 -456 
Q 2619 -594 3059 -594 
L 3272 -594 
z
" transform="scale(0.015625)"/>
      <path id="DejaVuSans-7d" d="M 800 -594 
L 1019 -594 
Q 1456 -594 1589 -459 
Q 1722 -325 1722 122 
L 1722 897 
Q 1722 1384 1862 1606 
Q 2003 1828 2350 1913 
Q 2003 1991 1862 2212 
Q 1722 2434 1722 2925 
L 1722 3700 
Q 1722 4144 1589 4280 
Q 1456 4416 1019 4416 
L 800 4416 
L 800 4863 
L 997 4863 
Q 1775 4863 2036 4633 
Q 2297 4403 2297 3713 
L 2297 2963 
Q 2297 2497 2465 2317 
Q 2634 2138 3078 2138 
L 3272 2138 
L 3272 1691 
L 3078 1691 
Q 2634 1691 2465 1509 
Q 2297 1328 2297 856 
L 2297 109 
Q 2297 -581 2036 -812 
Q 1775 -1044 997 -1044 
L 800 -1044 
L 800 -594 
z
" transform="scale(0.015625)"/>
      <path id="DejaVuSans-2c" d="M 750 794 
L 1409 794 
L 1409 256 
L 897 -744 
L 494 -744 
L 750 256 
L 750 794 
z
" transform="scale(0.015625)"/>
      <path id="DejaVuSans-35" d="M 691 4666 
L 3169 4666 
L 3169 4134 
L 1269 4134 
L 1269 2991 
Q 1406 3038 1543 3061 
Q 1681 3084 1819 3084 
Q 2600 3084 3056 2656 
Q 3513 2228 3513 1497 
Q 3513 744 3044 326 
Q 2575 -91 1722 -91 
Q 1428 -91 1123 -41 
Q 819 9 494 109 
L 494 744 
Q 775 591 1075 516 
Q 1375 441 1709 441 
Q 2250 441 2565 725 
Q 2881 1009 2881 1497 
Q 2881 1984 2565 2268 
Q 2250 2553 1709 2553 
Q 1456 2553 1204 2497 
Q 953 2441 691 2322 
L 691 4666 
z
" transform="scale(0.015625)"/>
     </defs>
     <use xlink:href="#DejaVuSans-7b"/>
     <use xlink:href="#DejaVuSans-66" x="63.623047"/>
     <use xlink:href="#DejaVuSans-31" x="98.828125"/>
     <use xlink:href="#DejaVuSans-30" x="162.451172"/>
     <use xlink:href="#DejaVuSans-2d" x="226.074219"/>
     <use xlink:href="#DejaVuSans-66" x="262.158203"/>
     <use xlink:href="#DejaVuSans-31" x="297.363281"/>
     <use xlink:href="#DejaVuSans-34" x="360.986328"/>
     <use xlink:href="#DejaVuSans-7d" x="424.609375"/>
     <use xlink:href="#DejaVuSans-2c" x="488.232422"/>
     <use xlink:href="#DejaVuSans-20" x="520.019531"/>
     <use xlink:href="#DejaVuSans-35" x="551.806641"/>
     <use xlink:href="#DejaVuSans-2d" x="615.429688"/>
     <use xlink:href="#DejaVuSans-44" x="651.513672"/>
    </g>
   </g>
   <g id="text_7">
    <!-- v2.6.3 -->
    <g style="fill: #808080" transform="translate(214.71875 288.777272) scale(0.1 -0.1)">
     <defs>
      <path id="DejaVuSans-76" d="M 191 3500 
L 800 3500 
L 1894 563 
L 2988 3500 
L 3597 3500 
L 2284 0 
L 1503 0 
L 191 3500 
z
" transform="scale(0.015625)"/>
      <path id="DejaVuSans-32" d="M 1228 531 
L 3431 531 
L 3431 0 
L 469 0 
L 469 531 
Q 828 903 1448 1529 
Q 2069 2156 2228 2338 
Q 2531 2678 2651 2914 
Q 2772 3150 2772 3378 
Q 2772 3750 2511 3984 
Q 2250 4219 1831 4219 
Q 1534 4219 1204 4116 
Q 875 4013 500 3803 
L 500 4441 
Q 881 4594 1212 4672 
Q 1544 4750 1819 4750 
Q 2544 4750 2975 4387 
Q 3406 4025 3406 3419 
Q 3406 3131 3298 2873 
Q 3191 2616 2906 2266 
Q 2828 2175 2409 1742 
Q 1991 1309 1228 531 
z
" transform="scale(0.015625)"/>
      <path id="DejaVuSans-2e" d="M 684 794 
L 1344 794 
L 1344 0 
L 684 0 
L 684 794 
z
" transform="scale(0.015625)"/>
      <path id="DejaVuSans-36" d="M 2113 2584 
Q 1688 2584 1439 2293 
Q 1191 2003 1191 1497 
Q 1191 994 1439 701 
Q 1688 409 2113 409 
Q 2538 409 2786 701 
Q 3034 994 3034 1497 
Q 3034 2003 2786 2293 
Q 2538 2584 2113 2584 
z
M 3366 4563 
L 3366 3988 
Q 3128 4100 2886 4159 
Q 2644 4219 2406 4219 
Q 1781 4219 1451 3797 
Q 1122 3375 1075 2522 
Q 1259 2794 1537 2939 
Q 1816 3084 2150 3084 
Q 2853 3084 3261 2657 
Q 3669 2231 3669 1497 
Q 3669 778 3244 343 
Q 2819 -91 2113 -91 
Q 1303 -91 875 529 
Q 447 1150 447 2328 
Q 447 3434 972 4092 
Q 1497 4750 2381 4750 
Q 2619 4750 2861 4703 
Q 3103 4656 3366 4563 
z
" transform="scale(0.015625)"/>
      <path id="DejaVuSans-33" d="M 2597 2516 
Q 3050 2419 3304 2112 
Q 3559 1806 3559 1356 
Q 3559 666 3084 287 
Q 2609 -91 1734 -91 
Q 1441 -91 1130 -33 
Q 819 25 488 141 
L 488 750 
Q 750 597 1062 519 
Q 1375 441 1716 441 
Q 2309 441 2620 675 
Q 2931 909 2931 1356 
Q 2931 1769 2642 2001 
Q 2353 2234 1838 2234 
L 1294 2234 
L 1294 2753 
L 1863 2753 
Q 2328 2753 2575 2939 
Q 2822 3125 2822 3475 
Q 2822 3834 2567 4026 
Q 2313 4219 1838 4219 
Q 1578 4219 1281 4162 
Q 984 4106 628 3988 
L 628 4550 
Q 988 4650 1302 4700 
Q 1616 4750 1894 4750 
Q 2613 4750 3031 4423 
Q 3450 4097 3450 3541 
Q 3450 3153 3228 2886 
Q 3006 2619 2597 2516 
z
" transform="scale(0.015625)"/>
     </defs>
     <use xlink:href="#DejaVuSans-76"/>
     <use xlink:href="#DejaVuSans-32" x="59.179688"/>
     <use xlink:href="#DejaVuSans-2e" x="122.802734"/>
     <use xlink:href="#DejaVuSans-36" x="154.589844"/>
     <use xlink:href="#DejaVuSans-2e" x="218.212891"/>
     <use xlink:href="#DejaVuSans-33" x="250"/>
    </g>
   </g>
  </g>
 </g>
 <defs>
  <clipPath id="pbf6956a279">
   <rect x="0" y="3.456" width="460.8" height="290.304"/>
  </clipPath>
 </defs>
</svg>
