<?xml version="1.0" encoding="utf-8" standalone="no"?>
<!DOCTYPE svg PUBLIC "-//W3C//DTD SVG 1.1//EN"
  "http://www.w3.org/Graphics/SVG/1.1/DTD/svg11.dtd">
<svg xmlns:xlink="http://www.w3.org/1999/xlink" width="460.8pt" height="345.6pt" viewBox="0 0 460.8 345.6" xmlns="http://www.w3.org/2000/svg" version="1.1">
 <metadata>
  <rdf:RDF xmlns:dc="http://purl.org/dc/elements/1.1/" xmlns:cc="http://creativecommons.org/ns#" xmlns:rdf="http://www.w3.org/1999/02/22-rdf-syntax-ns#">
   <cc:Work>
    <dc:type rdf:resource="http://purl.org/dc/dcmitype/StillImage"/>
    <dc:date>2024-06-21T19:46:31.436073</dc:date>
    <dc:format>image/svg+xml</dc:format>
    <dc:creator>
     <cc:Agent>
      <dc:title>Matplotlib v3.7.5, https://matplotlib.org/</dc:title>
     </cc:Agent>
    </dc:creator>
   </cc:Work>
  </rdf:RDF>
 </metadata>
 <defs>
  <style type="text/css">*{stroke-linejoin: round; stroke-linecap: butt}</style>
 </defs>
 <g id="figure_1">
  <g id="patch_1">
   <path d="M 0 345.6 
L 460.8 345.6 
L 460.8 0 
L 0 0 
z
" style="fill: #ffffff"/>
  </g>
  <g id="axes_1">
   <g id="patch_2">
    <path d="M 0 293.76 
L 460.8 293.76 
L 460.8 3.456 
L 0 3.456 
z
" style="fill: #ffffff"/>
   </g>
   <g id="matplotlib.axis_1">
    <g id="xtick_1">
     <g id="line2d_1">
      <path d="M 101.409188 293.76 
L 101.409188 3.456 
" clip-path="url(#p3f77c0b55c)" style="fill: none; stroke: #b0b0b0; stroke-width: 0.8; stroke-linecap: square"/>
     </g>
     <g id="line2d_2">
      <defs>
       <path id="mff461f75ce" d="M 0 0 
L 0 3.5 
" style="stroke: #000000; stroke-width: 0.8"/>
      </defs>
      <g>
       <use xlink:href="#mff461f75ce" x="101.409188" y="293.76" style="stroke: #000000; stroke-width: 0.8"/>
      </g>
     </g>
     <g id="text_1">
      <!-- -4 -->
      <g transform="translate(91.438875 315.956875) scale(0.2 -0.2)">
       <defs>
        <path id="DejaVuSans-2d" d="M 313 2009 
L 1997 2009 
L 1997 1497 
L 313 1497 
L 313 2009 
z
" transform="scale(0.015625)"/>
        <path id="DejaVuSans-34" d="M 2419 4116 
L 825 1625 
L 2419 1625 
L 2419 4116 
z
M 2253 4666 
L 3047 4666 
L 3047 1625 
L 3713 1625 
L 3713 1100 
L 3047 1100 
L 3047 0 
L 2419 0 
L 2419 1100 
L 313 1100 
L 313 1709 
L 2253 4666 
z
" transform="scale(0.015625)"/>
       </defs>
       <use xlink:href="#DejaVuSans-2d"/>
       <use xlink:href="#DejaVuSans-34" x="36.083984"/>
      </g>
     </g>
    </g>
    <g id="xtick_2">
     <g id="line2d_3">
      <path d="M 202.928051 293.76 
L 202.928051 3.456 
" clip-path="url(#p3f77c0b55c)" style="fill: none; stroke: #b0b0b0; stroke-width: 0.8; stroke-linecap: square"/>
     </g>
     <g id="line2d_4">
      <g>
       <use xlink:href="#mff461f75ce" x="202.928051" y="293.76" style="stroke: #000000; stroke-width: 0.8"/>
      </g>
     </g>
     <g id="text_2">
      <!-- 0 -->
      <g transform="translate(196.565551 315.956875) scale(0.2 -0.2)">
       <defs>
        <path id="DejaVuSans-30" d="M 2034 4250 
Q 1547 4250 1301 3770 
Q 1056 3291 1056 2328 
Q 1056 1369 1301 889 
Q 1547 409 2034 409 
Q 2525 409 2770 889 
Q 3016 1369 3016 2328 
Q 3016 3291 2770 3770 
Q 2525 4250 2034 4250 
z
M 2034 4750 
Q 2819 4750 3233 4129 
Q 3647 3509 3647 2328 
Q 3647 1150 3233 529 
Q 2819 -91 2034 -91 
Q 1250 -91 836 529 
Q 422 1150 422 2328 
Q 422 3509 836 4129 
Q 1250 4750 2034 4750 
z
" transform="scale(0.015625)"/>
       </defs>
       <use xlink:href="#DejaVuSans-30"/>
      </g>
     </g>
    </g>
    <g id="xtick_3">
     <g id="line2d_5">
      <path d="M 304.446914 293.76 
L 304.446914 3.456 
" clip-path="url(#p3f77c0b55c)" style="fill: none; stroke: #b0b0b0; stroke-width: 0.8; stroke-linecap: square"/>
     </g>
     <g id="line2d_6">
      <g>
       <use xlink:href="#mff461f75ce" x="304.446914" y="293.76" style="stroke: #000000; stroke-width: 0.8"/>
      </g>
     </g>
     <g id="text_3">
      <!-- 4 -->
      <g transform="translate(298.084414 315.956875) scale(0.2 -0.2)">
       <use xlink:href="#DejaVuSans-34"/>
      </g>
     </g>
    </g>
    <g id="xtick_4">
     <g id="line2d_7">
      <path d="M 405.965777 293.76 
L 405.965777 3.456 
" clip-path="url(#p3f77c0b55c)" style="fill: none; stroke: #b0b0b0; stroke-width: 0.8; stroke-linecap: square"/>
     </g>
     <g id="line2d_8">
      <g>
       <use xlink:href="#mff461f75ce" x="405.965777" y="293.76" style="stroke: #000000; stroke-width: 0.8"/>
      </g>
     </g>
     <g id="text_4">
      <!-- 8 -->
      <g transform="translate(399.603277 315.956875) scale(0.2 -0.2)">
       <defs>
        <path id="DejaVuSans-38" d="M 2034 2216 
Q 1584 2216 1326 1975 
Q 1069 1734 1069 1313 
Q 1069 891 1326 650 
Q 1584 409 2034 409 
Q 2484 409 2743 651 
Q 3003 894 3003 1313 
Q 3003 1734 2745 1975 
Q 2488 2216 2034 2216 
z
M 1403 2484 
Q 997 2584 770 2862 
Q 544 3141 544 3541 
Q 544 4100 942 4425 
Q 1341 4750 2034 4750 
Q 2731 4750 3128 4425 
Q 3525 4100 3525 3541 
Q 3525 3141 3298 2862 
Q 3072 2584 2669 2484 
Q 3125 2378 3379 2068 
Q 3634 1759 3634 1313 
Q 3634 634 3220 271 
Q 2806 -91 2034 -91 
Q 1263 -91 848 271 
Q 434 634 434 1313 
Q 434 1759 690 2068 
Q 947 2378 1403 2484 
z
M 1172 3481 
Q 1172 3119 1398 2916 
Q 1625 2713 2034 2713 
Q 2441 2713 2670 2916 
Q 2900 3119 2900 3481 
Q 2900 3844 2670 4047 
Q 2441 4250 2034 4250 
Q 1625 4250 1398 4047 
Q 1172 3844 1172 3481 
z
" transform="scale(0.015625)"/>
       </defs>
       <use xlink:href="#DejaVuSans-38"/>
      </g>
     </g>
    </g>
    <g id="text_5">
     <!-- log10 of Df -->
     <g transform="translate(175.214063 339.313125) scale(0.2 -0.2)">
      <defs>
       <path id="DejaVuSans-6c" d="M 603 4863 
L 1178 4863 
L 1178 0 
L 603 0 
L 603 4863 
z
" transform="scale(0.015625)"/>
       <path id="DejaVuSans-6f" d="M 1959 3097 
Q 1497 3097 1228 2736 
Q 959 2375 959 1747 
Q 959 1119 1226 758 
Q 1494 397 1959 397 
Q 2419 397 2687 759 
Q 2956 1122 2956 1747 
Q 2956 2369 2687 2733 
Q 2419 3097 1959 3097 
z
M 1959 3584 
Q 2709 3584 3137 3096 
Q 3566 2609 3566 1747 
Q 3566 888 3137 398 
Q 2709 -91 1959 -91 
Q 1206 -91 779 398 
Q 353 888 353 1747 
Q 353 2609 779 3096 
Q 1206 3584 1959 3584 
z
" transform="scale(0.015625)"/>
       <path id="DejaVuSans-67" d="M 2906 1791 
Q 2906 2416 2648 2759 
Q 2391 3103 1925 3103 
Q 1463 3103 1205 2759 
Q 947 2416 947 1791 
Q 947 1169 1205 825 
Q 1463 481 1925 481 
Q 2391 481 2648 825 
Q 2906 1169 2906 1791 
z
M 3481 434 
Q 3481 -459 3084 -895 
Q 2688 -1331 1869 -1331 
Q 1566 -1331 1297 -1286 
Q 1028 -1241 775 -1147 
L 775 -588 
Q 1028 -725 1275 -790 
Q 1522 -856 1778 -856 
Q 2344 -856 2625 -561 
Q 2906 -266 2906 331 
L 2906 616 
Q 2728 306 2450 153 
Q 2172 0 1784 0 
Q 1141 0 747 490 
Q 353 981 353 1791 
Q 353 2603 747 3093 
Q 1141 3584 1784 3584 
Q 2172 3584 2450 3431 
Q 2728 3278 2906 2969 
L 2906 3500 
L 3481 3500 
L 3481 434 
z
" transform="scale(0.015625)"/>
       <path id="DejaVuSans-31" d="M 794 531 
L 1825 531 
L 1825 4091 
L 703 3866 
L 703 4441 
L 1819 4666 
L 2450 4666 
L 2450 531 
L 3481 531 
L 3481 0 
L 794 0 
L 794 531 
z
" transform="scale(0.015625)"/>
       <path id="DejaVuSans-20" transform="scale(0.015625)"/>
       <path id="DejaVuSans-66" d="M 2375 4863 
L 2375 4384 
L 1825 4384 
Q 1516 4384 1395 4259 
Q 1275 4134 1275 3809 
L 1275 3500 
L 2222 3500 
L 2222 3053 
L 1275 3053 
L 1275 0 
L 697 0 
L 697 3053 
L 147 3053 
L 147 3500 
L 697 3500 
L 697 3744 
Q 697 4328 969 4595 
Q 1241 4863 1831 4863 
L 2375 4863 
z
" transform="scale(0.015625)"/>
       <path id="DejaVuSans-44" d="M 1259 4147 
L 1259 519 
L 2022 519 
Q 2988 519 3436 956 
Q 3884 1394 3884 2338 
Q 3884 3275 3436 3711 
Q 2988 4147 2022 4147 
L 1259 4147 
z
M 628 4666 
L 1925 4666 
Q 3281 4666 3915 4102 
Q 4550 3538 4550 2338 
Q 4550 1131 3912 565 
Q 3275 0 1925 0 
L 628 0 
L 628 4666 
z
" transform="scale(0.015625)"/>
      </defs>
      <use xlink:href="#DejaVuSans-6c"/>
      <use xlink:href="#DejaVuSans-6f" x="27.783203"/>
      <use xlink:href="#DejaVuSans-67" x="88.964844"/>
      <use xlink:href="#DejaVuSans-31" x="152.441406"/>
      <use xlink:href="#DejaVuSans-30" x="216.064453"/>
      <use xlink:href="#DejaVuSans-20" x="279.6875"/>
      <use xlink:href="#DejaVuSans-6f" x="311.474609"/>
      <use xlink:href="#DejaVuSans-66" x="372.65625"/>
      <use xlink:href="#DejaVuSans-20" x="407.861328"/>
      <use xlink:href="#DejaVuSans-44" x="439.648438"/>
      <use xlink:href="#DejaVuSans-66" x="516.650391"/>
     </g>
    </g>
   </g>
   <g id="matplotlib.axis_2">
    <g id="ytick_1">
     <g id="line2d_9">
      <path d="M 0 293.76 
L 460.8 293.76 
" clip-path="url(#p3f77c0b55c)" style="fill: none; stroke: #b0b0b0; stroke-width: 0.8; stroke-linecap: square"/>
     </g>
     <g id="line2d_10">
      <defs>
       <path id="m720aa10fed" d="M 0 0 
L -3.5 0 
" style="stroke: #000000; stroke-width: 0.8"/>
      </defs>
      <g>
       <use xlink:href="#m720aa10fed" x="0" y="293.76" style="stroke: #000000; stroke-width: 0.8"/>
      </g>
     </g>
    </g>
    <g id="ytick_2">
     <g id="line2d_11">
      <path d="M 0 236.274059 
L 460.8 236.274059 
" clip-path="url(#p3f77c0b55c)" style="fill: none; stroke: #b0b0b0; stroke-width: 0.8; stroke-linecap: square"/>
     </g>
     <g id="line2d_12">
      <g>
       <use xlink:href="#m720aa10fed" x="0" y="236.274059" style="stroke: #000000; stroke-width: 0.8"/>
      </g>
     </g>
    </g>
    <g id="ytick_3">
     <g id="line2d_13">
      <path d="M 0 178.788119 
L 460.8 178.788119 
" clip-path="url(#p3f77c0b55c)" style="fill: none; stroke: #b0b0b0; stroke-width: 0.8; stroke-linecap: square"/>
     </g>
     <g id="line2d_14">
      <g>
       <use xlink:href="#m720aa10fed" x="0" y="178.788119" style="stroke: #000000; stroke-width: 0.8"/>
      </g>
     </g>
    </g>
    <g id="ytick_4">
     <g id="line2d_15">
      <path d="M 0 121.302178 
L 460.8 121.302178 
" clip-path="url(#p3f77c0b55c)" style="fill: none; stroke: #b0b0b0; stroke-width: 0.8; stroke-linecap: square"/>
     </g>
     <g id="line2d_16">
      <g>
       <use xlink:href="#m720aa10fed" x="0" y="121.302178" style="stroke: #000000; stroke-width: 0.8"/>
      </g>
     </g>
    </g>
    <g id="ytick_5">
     <g id="line2d_17">
      <path d="M 0 63.816238 
L 460.8 63.816238 
" clip-path="url(#p3f77c0b55c)" style="fill: none; stroke: #b0b0b0; stroke-width: 0.8; stroke-linecap: square"/>
     </g>
     <g id="line2d_18">
      <g>
       <use xlink:href="#m720aa10fed" x="0" y="63.816238" style="stroke: #000000; stroke-width: 0.8"/>
      </g>
     </g>
    </g>
    <g id="ytick_6">
     <g id="line2d_19">
      <path d="M 0 6.330297 
L 460.8 6.330297 
" clip-path="url(#p3f77c0b55c)" style="fill: none; stroke: #b0b0b0; stroke-width: 0.8; stroke-linecap: square"/>
     </g>
     <g id="line2d_20">
      <g>
       <use xlink:href="#m720aa10fed" x="0" y="6.330297" style="stroke: #000000; stroke-width: 0.8"/>
      </g>
     </g>
    </g>
   </g>
   <g id="line2d_21">
    <path d="M -1 174.955723 
L 3.684196 174.955723 
L 3.684196 171.123327 
L 4.799228 171.123327 
L 4.799228 167.290931 
L 5.234571 167.290931 
L 5.234571 163.458535 
L 8.396005 163.458535 
L 8.396005 159.626139 
L 9.787687 159.626139 
L 9.787687 155.793743 
L 11.819001 155.793743 
L 11.924292 148.12895 
L 12.458012 148.12895 
L 12.469488 140.464158 
L 15.790153 140.464158 
L 15.790153 136.631762 
L 16.120367 136.631762 
L 16.120367 132.799366 
L 17.422241 132.799366 
L 17.45054 125.134574 
L 17.935659 125.134574 
L 17.935659 121.302178 
L 19.19066 121.302178 
L 19.19066 117.469782 
L 24.604091 117.469782 
L 24.604091 113.637386 
L 26.278898 113.637386 
L 26.278898 109.80499 
L 53.916074 109.80499 
L 53.916074 105.972594 
L 70.33385 105.972594 
L 70.33385 102.140198 
L 101.995253 102.140198 
L 101.995253 98.307802 
L 102.312419 98.307802 
L 102.312419 94.475406 
L 104.063482 94.475406 
L 104.063482 90.64301 
L 111.201794 90.64301 
L 111.201794 86.810614 
L 121.871816 86.810614 
L 121.871816 82.978218 
L 129.16521 82.978218 
L 129.16521 79.145822 
L 135.632855 79.145822 
L 135.632855 75.313426 
L 146.047253 75.313426 
L 146.047253 71.48103 
L 157.027765 71.48103 
L 157.027765 67.648634 
L 157.207767 67.648634 
L 157.207767 63.816238 
L 177.194791 63.816238 
L 177.194791 59.983842 
L 186.896865 59.983842 
L 186.896865 56.151446 
L 187.30727 56.151446 
L 187.30727 52.31905 
L 189.913095 52.31905 
L 189.913095 48.486653 
L 190.697946 48.486653 
L 190.697946 44.654257 
L 191.993001 44.654257 
L 191.993001 40.821861 
L 192.320507 40.821861 
L 192.320507 36.989465 
L 204.978398 36.989465 
L 204.978398 33.157069 
L 205.456281 33.157069 
L 205.456281 29.324673 
L 207.287453 29.324673 
L 207.287453 25.492277 
L 207.933696 25.492277 
L 207.933696 21.659881 
L 209.293925 21.659881 
L 209.293925 17.827485 
L 211.939746 17.827485 
L 211.939746 13.995089 
L 212.053276 13.995089 
L 212.053276 10.162693 
L 224.035792 10.162693 
L 224.035792 6.330297 
L 224.035792 6.330297 
L 460.8 6.330297 
L 460.8 6.330297 
" clip-path="url(#p3f77c0b55c)" style="fill: none; stroke: #ff0000; stroke-width: 3; stroke-linecap: square"/>
   </g>
   <g id="line2d_22">
    <path d="M 244.849368 293.76 
L 244.849368 289.927604 
L 247.118454 289.927604 
L 247.118454 286.095208 
L 247.281608 286.095208 
L 247.281608 282.262812 
L 248.742166 282.262812 
L 248.742166 278.430416 
L 249.263796 278.430416 
L 249.263796 274.59802 
L 252.852082 274.59802 
L 252.852082 270.765624 
L 253.396838 270.765624 
L 253.396838 266.933228 
L 253.914748 266.933228 
L 253.914748 263.100832 
L 254.639499 263.100832 
L 254.639499 259.268436 
L 255.470535 259.268436 
L 255.481971 251.603644 
L 255.789398 251.603644 
L 255.789398 247.771248 
L 256.414213 247.771248 
L 256.414213 243.938851 
L 257.185112 243.938851 
L 257.185112 240.106455 
L 258.131732 240.106455 
L 258.131732 236.274059 
L 269.670051 236.274059 
L 269.670051 232.441663 
L 282.798103 232.441663 
L 282.798103 228.609267 
L 288.20923 228.609267 
L 288.20923 224.776871 
L 289.281251 224.776871 
L 289.281251 220.944475 
L 289.489048 220.944475 
L 289.489048 217.112079 
L 289.878188 217.112079 
L 289.932902 205.614891 
L 290.318371 205.614891 
L 290.318371 201.782495 
L 290.696738 201.782495 
L 290.708577 194.117703 
L 290.922888 194.117703 
L 290.928975 186.452911 
L 291.193494 186.452911 
L 291.20103 178.788119 
L 291.98089 178.788119 
L 291.981528 171.123327 
L 293.091594 171.123327 
L 293.091594 167.290931 
L 303.546029 167.290931 
L 303.546029 163.458535 
L 308.082929 163.458535 
L 308.082929 159.626139 
L 310.891422 159.626139 
L 310.891422 155.793743 
L 318.225492 155.793743 
L 318.225492 151.961347 
L 318.76857 151.961347 
L 318.76857 148.12895 
L 322.297487 148.12895 
L 322.297487 144.296554 
L 334.071321 144.296554 
L 334.071321 140.464158 
L 334.607611 140.464158 
L 334.607611 136.631762 
L 338.3214 136.631762 
L 338.3214 132.799366 
L 343.332626 132.799366 
L 343.332626 128.96697 
L 346.208213 128.96697 
L 346.208213 125.134574 
L 350.278906 125.134574 
L 350.278906 121.302178 
L 369.884932 121.302178 
L 369.884932 117.469782 
L 371.577085 117.469782 
L 371.577085 113.637386 
L 375.436611 113.637386 
L 375.511751 105.972594 
L 376.588938 105.972594 
L 376.588938 102.140198 
L 377.107026 102.140198 
L 377.107026 98.307802 
L 378.196099 98.307802 
L 378.196099 94.475406 
L 379.318139 94.475406 
L 379.318139 90.64301 
L 379.70939 90.64301 
L 379.70939 86.810614 
L 380.559904 86.810614 
L 380.584763 79.145822 
L 380.717057 79.145822 
L 380.717057 75.313426 
L 383.821267 75.313426 
L 383.821267 71.48103 
L 384.225674 71.48103 
L 384.225674 67.648634 
L 387.875351 67.648634 
L 387.875351 63.816238 
L 412.699847 63.816238 
L 412.699847 59.983842 
L 415.0776 59.983842 
L 415.0776 56.151446 
L 416.180841 56.151446 
L 416.180841 52.31905 
L 417.647287 52.31905 
L 417.647287 48.486653 
L 417.79713 48.486653 
L 417.79713 44.654257 
L 418.45441 44.654257 
L 418.45441 40.821861 
L 419.315213 40.821861 
L 419.315213 36.989465 
L 419.685774 36.989465 
L 419.685774 33.157069 
L 419.807121 33.157069 
L 419.807121 29.324673 
L 421.705884 29.324673 
L 421.705884 25.492277 
L 422.144756 25.492277 
L 422.144756 21.659881 
L 422.748747 21.659881 
L 422.799583 13.995089 
L 428.125232 13.995089 
L 428.125232 10.162693 
L 429.965962 10.162693 
L 429.965962 6.330297 
L 429.965962 6.330297 
L 460.8 6.330297 
L 460.8 6.330297 
" clip-path="url(#p3f77c0b55c)" style="fill: none; stroke: #00bfbf; stroke-width: 1.5; stroke-linecap: square"/>
   </g>
   <g id="line2d_23">
    <path d="M 244.849368 293.76 
L 244.849368 289.927604 
L 246.710386 289.927604 
L 246.710386 286.095208 
L 247.118454 286.095208 
L 247.118454 282.262812 
L 247.281608 282.262812 
L 247.391732 274.59802 
L 247.513198 274.59802 
L 247.513198 270.765624 
L 248.530409 270.765624 
L 248.530409 266.933228 
L 248.742166 266.933228 
L 248.742166 263.100832 
L 250.11067 263.100832 
L 250.11067 259.268436 
L 250.412106 259.268436 
L 250.412106 255.43604 
L 251.837051 255.43604 
L 251.837051 251.603644 
L 252.505354 251.603644 
L 252.505354 247.771248 
L 252.85567 247.771248 
L 252.85567 243.938851 
L 253.410608 243.938851 
L 253.410608 240.106455 
L 253.54051 240.106455 
L 253.54051 236.274059 
L 267.921833 236.274059 
L 267.921833 232.441663 
L 269.670051 232.441663 
L 269.670051 228.609267 
L 282.798103 228.609267 
L 282.798103 224.776871 
L 284.979444 224.776871 
L 284.979444 220.944475 
L 287.763644 220.944475 
L 287.763644 217.112079 
L 288.20923 217.112079 
L 288.20923 213.279683 
L 288.966126 213.279683 
L 288.966126 209.447287 
L 289.128169 209.447287 
L 289.128169 205.614891 
L 289.281251 205.614891 
L 289.281251 201.782495 
L 289.489048 201.782495 
L 289.538737 194.117703 
L 289.825451 194.117703 
L 289.901701 182.620515 
L 290.277154 182.620515 
L 290.314427 174.955723 
L 290.43001 174.955723 
L 290.43001 171.123327 
L 290.896968 171.123327 
L 290.896968 167.290931 
L 293.091594 167.290931 
L 293.091594 163.458535 
L 295.495624 163.458535 
L 295.495624 159.626139 
L 303.546029 159.626139 
L 303.546029 155.793743 
L 308.082929 155.793743 
L 308.082929 151.961347 
L 310.891422 151.961347 
L 310.891422 148.12895 
L 314.755354 148.12895 
L 314.755354 144.296554 
L 315.212595 144.296554 
L 315.212595 140.464158 
L 315.715687 140.464158 
L 315.715687 136.631762 
L 329.698751 136.631762 
L 329.728955 128.96697 
L 334.071321 128.96697 
L 334.071321 125.134574 
L 338.3214 125.134574 
L 338.3214 121.302178 
L 367.706921 121.302178 
L 367.706921 117.469782 
L 369.884932 117.469782 
L 369.884932 113.637386 
L 370.698164 113.637386 
L 370.698164 109.80499 
L 371.267534 109.80499 
L 371.267534 105.972594 
L 371.577085 105.972594 
L 371.577085 102.140198 
L 372.084817 102.140198 
L 372.084817 98.307802 
L 372.283252 98.307802 
L 372.302323 90.64301 
L 375.073783 90.64301 
L 375.073783 86.810614 
L 375.436611 86.810614 
L 375.436611 82.978218 
L 376.335522 82.978218 
L 376.335522 79.145822 
L 377.359803 79.145822 
L 377.359803 75.313426 
L 378.623595 75.313426 
L 378.623595 71.48103 
L 379.739209 71.48103 
L 379.739209 67.648634 
L 382.486089 67.648634 
L 382.486089 63.816238 
L 412.699847 63.816238 
L 412.699847 59.983842 
L 413.654999 59.983842 
L 413.654999 56.151446 
L 415.038861 56.151446 
L 415.0776 48.486653 
L 415.28963 48.486653 
L 415.28963 44.654257 
L 416.180841 44.654257 
L 416.180841 40.821861 
L 416.506247 40.821861 
L 416.506247 36.989465 
L 417.647287 36.989465 
L 417.647287 33.157069 
L 417.79713 33.157069 
L 417.79713 29.324673 
L 418.525219 29.324673 
L 418.525219 25.492277 
L 418.665322 25.492277 
L 418.665322 21.659881 
L 420.319522 21.659881 
L 420.34536 13.995089 
L 421.705884 13.995089 
L 421.705884 10.162693 
L 422.144756 10.162693 
L 422.144756 6.330297 
L 422.144756 6.330297 
L 460.8 6.330297 
L 460.8 6.330297 
" clip-path="url(#p3f77c0b55c)" style="fill: none; stroke: #bf00bf; stroke-width: 1.5; stroke-linecap: square"/>
   </g>
   <g id="line2d_24">
    <path d="M 240.03677 293.76 
L 240.03677 289.927604 
L 240.624849 289.927604 
L 240.624849 286.095208 
L 244.849368 286.095208 
L 244.849368 282.262812 
L 244.966985 282.262812 
L 244.966985 278.430416 
L 245.41024 278.430416 
L 245.41024 274.59802 
L 246.144558 274.59802 
L 246.144558 270.765624 
L 246.267525 270.765624 
L 246.267525 266.933228 
L 246.627028 266.933228 
L 246.710386 255.43604 
L 247.118454 255.43604 
L 247.118454 251.603644 
L 248.121013 251.603644 
L 248.121013 247.771248 
L 248.977268 247.771248 
L 248.977268 243.938851 
L 249.113291 243.938851 
L 249.113291 240.106455 
L 250.11067 240.106455 
L 250.11067 236.274059 
L 267.921833 236.274059 
L 267.921833 232.441663 
L 269.670051 232.441663 
L 269.670051 228.609267 
L 270.88536 228.609267 
L 270.88536 224.776871 
L 272.95452 224.776871 
L 272.95452 220.944475 
L 282.249914 220.944475 
L 282.249914 217.112079 
L 282.798103 217.112079 
L 282.798103 213.279683 
L 284.979444 213.279683 
L 284.979444 209.447287 
L 286.437268 209.447287 
L 286.437268 205.614891 
L 286.757682 205.614891 
L 286.757682 201.782495 
L 287.035733 201.782495 
L 287.055748 194.117703 
L 287.392056 194.117703 
L 287.501349 182.620515 
L 287.580897 182.620515 
L 287.580897 178.788119 
L 287.763644 178.788119 
L 287.763644 174.955723 
L 288.364129 174.955723 
L 288.417819 167.290931 
L 288.910818 167.290931 
L 288.960387 159.626139 
L 289.121957 159.626139 
L 289.121957 155.793743 
L 290.521449 155.793743 
L 290.521449 151.961347 
L 293.87882 151.961347 
L 293.87882 148.12895 
L 295.405603 148.12895 
L 295.495624 140.464158 
L 295.992561 140.464158 
L 295.992561 136.631762 
L 303.546029 136.631762 
L 303.546029 132.799366 
L 306.16223 132.799366 
L 306.16223 128.96697 
L 315.454001 128.96697 
L 315.454001 125.134574 
L 335.523302 125.134574 
L 335.523302 121.302178 
L 353.68473 121.302178 
L 353.68473 117.469782 
L 356.435124 117.469782 
L 356.435124 113.637386 
L 360.167125 113.637386 
L 360.167125 109.80499 
L 360.676199 109.80499 
L 360.676199 105.972594 
L 364.744301 105.972594 
L 364.744301 102.140198 
L 366.328991 102.140198 
L 366.328991 98.307802 
L 366.926719 98.307802 
L 366.926719 94.475406 
L 368.827233 94.475406 
L 368.827233 90.64301 
L 369.077194 90.64301 
L 369.077194 86.810614 
L 370.515182 86.810614 
L 370.515182 82.978218 
L 370.698164 82.978218 
L 370.698164 79.145822 
L 371.744694 79.145822 
L 371.744694 75.313426 
L 372.302323 75.313426 
L 372.302323 71.48103 
L 372.764242 71.48103 
L 372.764242 67.648634 
L 376.072988 67.648634 
L 376.072988 63.816238 
L 410.473281 63.816238 
L 410.473281 59.983842 
L 410.786845 59.983842 
L 410.85631 52.31905 
L 410.92588 52.31905 
L 410.92588 48.486653 
L 413.340838 48.486653 
L 413.407107 40.821861 
L 413.654999 40.821861 
L 413.685204 33.157069 
L 415.122865 33.157069 
L 415.122865 29.324673 
L 415.28963 29.324673 
L 415.28963 25.492277 
L 415.784845 25.492277 
L 415.784845 21.659881 
L 415.969352 21.659881 
L 415.969352 17.827485 
L 416.411101 17.827485 
L 416.506247 10.162693 
L 416.919109 10.162693 
L 416.919109 6.330297 
L 416.919109 6.330297 
L 460.8 6.330297 
L 460.8 6.330297 
" clip-path="url(#p3f77c0b55c)" style="fill: none; stroke: #000000; stroke-width: 1.5; stroke-linecap: square"/>
   </g>
   <g id="line2d_25">
    <path d="M 228.962859 293.76 
L 228.962859 289.927604 
L 229.571971 289.927604 
L 229.571971 286.095208 
L 231.823615 286.095208 
L 231.823615 282.262812 
L 233.126018 282.262812 
L 233.22775 274.59802 
L 236.475069 274.59802 
L 236.475069 270.765624 
L 237.113752 270.765624 
L 237.113752 266.933228 
L 237.258128 266.933228 
L 237.258128 263.100832 
L 238.206304 263.100832 
L 238.299764 255.43604 
L 239.575481 255.43604 
L 239.678803 240.106455 
L 241.089912 240.106455 
L 241.089912 236.274059 
L 267.921833 236.274059 
L 267.921833 232.441663 
L 268.737741 232.441663 
L 268.737741 228.609267 
L 269.670051 228.609267 
L 269.670051 224.776871 
L 270.697862 224.776871 
L 270.697862 220.944475 
L 270.88536 220.944475 
L 270.88536 217.112079 
L 271.616569 217.112079 
L 271.616569 213.279683 
L 272.426606 213.279683 
L 272.426606 209.447287 
L 272.680028 209.447287 
L 272.680028 205.614891 
L 273.505651 205.614891 
L 273.505651 201.782495 
L 275.62633 201.782495 
L 275.62633 197.950099 
L 276.923549 197.950099 
L 276.923549 194.117703 
L 278.155793 194.117703 
L 278.155793 190.285307 
L 278.274625 190.285307 
L 278.381651 182.620515 
L 278.528031 182.620515 
L 278.528031 178.788119 
L 278.641889 178.788119 
L 278.641889 174.955723 
L 278.928461 174.955723 
L 278.928461 171.123327 
L 279.417576 171.123327 
L 279.417576 167.290931 
L 279.728601 167.290931 
L 279.728601 163.458535 
L 280.210655 163.458535 
L 280.210655 159.626139 
L 280.88396 159.626139 
L 280.88396 155.793743 
L 281.063939 155.793743 
L 281.120701 144.296554 
L 281.247177 144.296554 
L 281.247177 140.464158 
L 281.463701 140.464158 
L 281.463701 136.631762 
L 281.706824 136.631762 
L 281.706824 132.799366 
L 281.897337 132.799366 
L 281.897337 128.96697 
L 285.230839 128.96697 
L 285.230839 125.134574 
L 293.862182 125.134574 
L 293.862182 121.302178 
L 343.127425 121.302178 
L 343.127425 117.469782 
L 353.217834 117.469782 
L 353.217834 113.637386 
L 353.68473 113.637386 
L 353.68473 109.80499 
L 354.996505 109.80499 
L 354.996505 105.972594 
L 356.291105 105.972594 
L 356.291105 102.140198 
L 356.5693 102.140198 
L 356.5693 98.307802 
L 358.048682 98.307802 
L 358.048682 94.475406 
L 358.755234 94.475406 
L 358.755234 90.64301 
L 359.170111 90.64301 
L 359.170111 86.810614 
L 359.485889 86.810614 
L 359.485889 82.978218 
L 362.301026 82.978218 
L 362.301026 79.145822 
L 362.989484 79.145822 
L 362.989484 75.313426 
L 364.328339 75.313426 
L 364.328339 71.48103 
L 365.731436 71.48103 
L 365.731436 67.648634 
L 368.598867 67.648634 
L 368.598867 63.816238 
L 391.295233 63.816238 
L 391.295233 59.983842 
L 393.632858 59.983842 
L 393.632858 56.151446 
L 393.757502 56.151446 
L 393.757502 52.31905 
L 394.793364 52.31905 
L 394.793364 48.486653 
L 395.282951 48.486653 
L 395.282951 44.654257 
L 396.220352 44.654257 
L 396.220352 40.821861 
L 396.407218 40.821861 
L 396.407218 36.989465 
L 397.123903 36.989465 
L 397.123903 33.157069 
L 397.272342 33.157069 
L 397.272342 29.324673 
L 397.582624 29.324673 
L 397.582624 25.492277 
L 398.77987 25.492277 
L 398.77987 21.659881 
L 399.515183 21.659881 
L 399.515183 17.827485 
L 400.572479 17.827485 
L 400.572479 13.995089 
L 401.468636 13.995089 
L 401.468636 10.162693 
L 409.207632 10.162693 
L 409.207632 6.330297 
L 409.207632 6.330297 
L 460.8 6.330297 
L 460.8 6.330297 
" clip-path="url(#p3f77c0b55c)" style="fill: none; stroke: #00bfbf; stroke-width: 1.5; stroke-linecap: square"/>
   </g>
   <g id="line2d_26">
    <path d="M 145.145506 293.76 
L 145.145506 289.927604 
L 148.280409 289.927604 
L 148.280409 286.095208 
L 148.638549 286.095208 
L 148.638549 282.262812 
L 148.921488 282.262812 
L 148.921488 278.430416 
L 151.557972 278.430416 
L 151.583205 270.765624 
L 152.618334 270.765624 
L 152.618334 266.933228 
L 152.794863 266.933228 
L 152.794863 263.100832 
L 153.449741 263.100832 
L 153.449741 259.268436 
L 153.92228 259.268436 
L 153.92228 255.43604 
L 154.182035 255.43604 
L 154.182035 251.603644 
L 154.395148 251.603644 
L 154.395148 247.771248 
L 155.166597 247.771248 
L 155.166597 243.938851 
L 156.435663 243.938851 
L 156.435663 240.106455 
L 157.353984 240.106455 
L 157.353984 236.274059 
L 201.144428 236.274059 
L 201.144428 232.441663 
L 204.874232 232.441663 
L 204.874232 228.609267 
L 208.731296 228.609267 
L 208.731296 224.776871 
L 209.116486 224.776871 
L 209.116486 220.944475 
L 209.554955 220.944475 
L 209.554955 217.112079 
L 210.724993 217.112079 
L 210.781059 209.447287 
L 217.242445 209.447287 
L 217.242445 205.614891 
L 219.902258 205.614891 
L 219.902258 201.782495 
L 223.019284 201.782495 
L 223.019284 197.950099 
L 224.120725 197.950099 
L 224.162178 190.285307 
L 224.707448 190.285307 
L 224.727716 182.620515 
L 226.174399 182.620515 
L 226.174399 178.788119 
L 226.410324 178.788119 
L 226.410324 174.955723 
L 229.608346 174.955723 
L 229.608346 171.123327 
L 230.344855 171.123327 
L 230.344855 167.290931 
L 230.620263 167.290931 
L 230.620263 163.458535 
L 231.339289 163.458535 
L 231.339289 159.626139 
L 231.832204 159.626139 
L 231.832204 155.793743 
L 232.021998 155.793743 
L 232.092134 148.12895 
L 234.115613 148.12895 
L 234.115613 144.296554 
L 238.198272 144.296554 
L 238.198272 140.464158 
L 239.27648 140.464158 
L 239.27648 136.631762 
L 239.427444 136.631762 
L 239.427444 132.799366 
L 244.491643 132.799366 
L 244.550992 125.134574 
L 253.125649 125.134574 
L 253.125649 121.302178 
L 267.921833 121.302178 
L 267.921833 117.469782 
L 268.737741 117.469782 
L 268.737741 113.637386 
L 269.670051 113.637386 
L 269.752225 102.140198 
L 270.697862 102.140198 
L 270.697862 98.307802 
L 271.616569 98.307802 
L 271.616569 94.475406 
L 272.05718 94.475406 
L 272.05718 90.64301 
L 272.426606 90.64301 
L 272.426606 86.810614 
L 273.505651 86.810614 
L 273.505651 82.978218 
L 275.62633 82.978218 
L 275.709578 75.313426 
L 278.928461 75.313426 
L 278.928461 71.48103 
L 281.146908 71.48103 
L 281.146908 67.648634 
L 289.959523 67.648634 
L 289.959523 63.816238 
L 304.986861 63.816238 
L 304.986861 59.983842 
L 314.135536 59.983842 
L 314.135536 56.151446 
L 316.148436 56.151446 
L 316.148436 52.31905 
L 318.017124 52.31905 
L 318.017124 48.486653 
L 320.715397 48.486653 
L 320.715397 44.654257 
L 320.99253 44.654257 
L 320.99253 40.821861 
L 324.001954 40.821861 
L 324.044971 33.157069 
L 324.476143 33.157069 
L 324.476143 29.324673 
L 325.400071 29.324673 
L 325.485549 21.659881 
L 326.881866 21.659881 
L 326.881866 17.827485 
L 327.285961 17.827485 
L 327.285961 13.995089 
L 329.259579 13.995089 
L 329.259579 10.162693 
L 333.53234 10.162693 
L 333.53234 6.330297 
L 333.53234 6.330297 
L 460.8 6.330297 
L 460.8 6.330297 
" clip-path="url(#p3f77c0b55c)" style="fill: none; stroke: #bf00bf; stroke-width: 1.5; stroke-linecap: square"/>
   </g>
   <g id="line2d_27">
    <path d="M -1 174.955723 
L 3.684196 174.955723 
L 3.684196 171.123327 
L 4.799228 171.123327 
L 4.799228 167.290931 
L 5.234571 167.290931 
L 5.234571 163.458535 
L 8.396005 163.458535 
L 8.396005 159.626139 
L 9.787687 159.626139 
L 9.787687 155.793743 
L 11.819001 155.793743 
L 11.924292 148.12895 
L 12.458012 148.12895 
L 12.469488 140.464158 
L 15.790153 140.464158 
L 15.790153 136.631762 
L 16.120367 136.631762 
L 16.120367 132.799366 
L 17.422241 132.799366 
L 17.45054 125.134574 
L 17.935659 125.134574 
L 17.935659 121.302178 
L 19.19066 121.302178 
L 19.19066 117.469782 
L 24.604091 117.469782 
L 24.604091 113.637386 
L 26.278898 113.637386 
L 26.278898 109.80499 
L 53.916074 109.80499 
L 53.916074 105.972594 
L 70.33385 105.972594 
L 70.33385 102.140198 
L 101.995253 102.140198 
L 101.995253 98.307802 
L 102.312419 98.307802 
L 102.312419 94.475406 
L 104.063482 94.475406 
L 104.063482 90.64301 
L 111.201794 90.64301 
L 111.201794 86.810614 
L 121.871816 86.810614 
L 121.871816 82.978218 
L 129.16521 82.978218 
L 129.16521 79.145822 
L 135.632855 79.145822 
L 135.632855 75.313426 
L 146.047253 75.313426 
L 146.047253 71.48103 
L 157.027765 71.48103 
L 157.027765 67.648634 
L 157.207767 67.648634 
L 157.207767 63.816238 
L 177.194791 63.816238 
L 177.194791 59.983842 
L 186.896865 59.983842 
L 186.896865 56.151446 
L 187.30727 56.151446 
L 187.30727 52.31905 
L 189.913095 52.31905 
L 189.913095 48.486653 
L 190.697946 48.486653 
L 190.697946 44.654257 
L 191.993001 44.654257 
L 191.993001 40.821861 
L 192.320507 40.821861 
L 192.320507 36.989465 
L 204.978398 36.989465 
L 204.978398 33.157069 
L 205.456281 33.157069 
L 205.456281 29.324673 
L 207.287453 29.324673 
L 207.287453 25.492277 
L 207.933696 25.492277 
L 207.933696 21.659881 
L 209.293925 21.659881 
L 209.293925 17.827485 
L 211.939746 17.827485 
L 211.939746 13.995089 
L 212.053276 13.995089 
L 212.053276 10.162693 
L 224.035792 10.162693 
L 224.035792 6.330297 
L 224.035792 6.330297 
L 460.8 6.330297 
L 460.8 6.330297 
" clip-path="url(#p3f77c0b55c)" style="fill: none; stroke: #000000; stroke-width: 1.5; stroke-linecap: square"/>
   </g>
   <g id="patch_3">
    <path d="M 0 293.76 
L 0 3.456 
" style="fill: none; stroke: #000000; stroke-width: 0.8; stroke-linejoin: miter; stroke-linecap: square"/>
   </g>
   <g id="patch_4">
    <path d="M 460.8 293.76 
L 460.8 3.456 
" style="fill: none; stroke: #000000; stroke-width: 0.8; stroke-linejoin: miter; stroke-linecap: square"/>
   </g>
   <g id="patch_5">
    <path d="M 0 293.76 
L 460.8 293.76 
" style="fill: none; stroke: #000000; stroke-width: 0.8; stroke-linejoin: miter; stroke-linecap: square"/>
   </g>
   <g id="patch_6">
    <path d="M 0 3.456 
L 460.8 3.456 
" style="fill: none; stroke: #000000; stroke-width: 0.8; stroke-linejoin: miter; stroke-linecap: square"/>
   </g>
   <g id="text_6">
    <!-- {f10-f14}, 20-D -->
    <g transform="translate(293.159 287.95392) scale(0.2 -0.2)">
     <defs>
      <path id="DejaVuSans-7b" d="M 3272 -594 
L 3272 -1044 
L 3078 -1044 
Q 2300 -1044 2036 -812 
Q 1772 -581 1772 109 
L 1772 856 
Q 1772 1328 1603 1509 
Q 1434 1691 991 1691 
L 800 1691 
L 800 2138 
L 991 2138 
Q 1438 2138 1605 2317 
Q 1772 2497 1772 2963 
L 1772 3713 
Q 1772 4403 2036 4633 
Q 2300 4863 3078 4863 
L 3272 4863 
L 3272 4416 
L 3059 4416 
Q 2619 4416 2484 4278 
Q 2350 4141 2350 3700 
L 2350 2925 
Q 2350 2434 2208 2212 
Q 2066 1991 1722 1913 
Q 2069 1828 2209 1606 
Q 2350 1384 2350 897 
L 2350 122 
Q 2350 -319 2484 -456 
Q 2619 -594 3059 -594 
L 3272 -594 
z
" transform="scale(0.015625)"/>
      <path id="DejaVuSans-7d" d="M 800 -594 
L 1019 -594 
Q 1456 -594 1589 -459 
Q 1722 -325 1722 122 
L 1722 897 
Q 1722 1384 1862 1606 
Q 2003 1828 2350 1913 
Q 2003 1991 1862 2212 
Q 1722 2434 1722 2925 
L 1722 3700 
Q 1722 4144 1589 4280 
Q 1456 4416 1019 4416 
L 800 4416 
L 800 4863 
L 997 4863 
Q 1775 4863 2036 4633 
Q 2297 4403 2297 3713 
L 2297 2963 
Q 2297 2497 2465 2317 
Q 2634 2138 3078 2138 
L 3272 2138 
L 3272 1691 
L 3078 1691 
Q 2634 1691 2465 1509 
Q 2297 1328 2297 856 
L 2297 109 
Q 2297 -581 2036 -812 
Q 1775 -1044 997 -1044 
L 800 -1044 
L 800 -594 
z
" transform="scale(0.015625)"/>
      <path id="DejaVuSans-2c" d="M 750 794 
L 1409 794 
L 1409 256 
L 897 -744 
L 494 -744 
L 750 256 
L 750 794 
z
" transform="scale(0.015625)"/>
      <path id="DejaVuSans-32" d="M 1228 531 
L 3431 531 
L 3431 0 
L 469 0 
L 469 531 
Q 828 903 1448 1529 
Q 2069 2156 2228 2338 
Q 2531 2678 2651 2914 
Q 2772 3150 2772 3378 
Q 2772 3750 2511 3984 
Q 2250 4219 1831 4219 
Q 1534 4219 1204 4116 
Q 875 4013 500 3803 
L 500 4441 
Q 881 4594 1212 4672 
Q 1544 4750 1819 4750 
Q 2544 4750 2975 4387 
Q 3406 4025 3406 3419 
Q 3406 3131 3298 2873 
Q 3191 2616 2906 2266 
Q 2828 2175 2409 1742 
Q 1991 1309 1228 531 
z
" transform="scale(0.015625)"/>
     </defs>
     <use xlink:href="#DejaVuSans-7b"/>
     <use xlink:href="#DejaVuSans-66" x="63.623047"/>
     <use xlink:href="#DejaVuSans-31" x="98.828125"/>
     <use xlink:href="#DejaVuSans-30" x="162.451172"/>
     <use xlink:href="#DejaVuSans-2d" x="226.074219"/>
     <use xlink:href="#DejaVuSans-66" x="262.158203"/>
     <use xlink:href="#DejaVuSans-31" x="297.363281"/>
     <use xlink:href="#DejaVuSans-34" x="360.986328"/>
     <use xlink:href="#DejaVuSans-7d" x="424.609375"/>
     <use xlink:href="#DejaVuSans-2c" x="488.232422"/>
     <use xlink:href="#DejaVuSans-20" x="520.019531"/>
     <use xlink:href="#DejaVuSans-32" x="551.806641"/>
     <use xlink:href="#DejaVuSans-30" x="615.429688"/>
     <use xlink:href="#DejaVuSans-2d" x="679.052734"/>
     <use xlink:href="#DejaVuSans-44" x="715.136719"/>
    </g>
   </g>
   <g id="text_7">
    <!-- v2.6.3 -->
    <g style="fill: #808080" transform="translate(214.71875 288.777272) scale(0.1 -0.1)">
     <defs>
      <path id="DejaVuSans-76" d="M 191 3500 
L 800 3500 
L 1894 563 
L 2988 3500 
L 3597 3500 
L 2284 0 
L 1503 0 
L 191 3500 
z
" transform="scale(0.015625)"/>
      <path id="DejaVuSans-2e" d="M 684 794 
L 1344 794 
L 1344 0 
L 684 0 
L 684 794 
z
" transform="scale(0.015625)"/>
      <path id="DejaVuSans-36" d="M 2113 2584 
Q 1688 2584 1439 2293 
Q 1191 2003 1191 1497 
Q 1191 994 1439 701 
Q 1688 409 2113 409 
Q 2538 409 2786 701 
Q 3034 994 3034 1497 
Q 3034 2003 2786 2293 
Q 2538 2584 2113 2584 
z
M 3366 4563 
L 3366 3988 
Q 3128 4100 2886 4159 
Q 2644 4219 2406 4219 
Q 1781 4219 1451 3797 
Q 1122 3375 1075 2522 
Q 1259 2794 1537 2939 
Q 1816 3084 2150 3084 
Q 2853 3084 3261 2657 
Q 3669 2231 3669 1497 
Q 3669 778 3244 343 
Q 2819 -91 2113 -91 
Q 1303 -91 875 529 
Q 447 1150 447 2328 
Q 447 3434 972 4092 
Q 1497 4750 2381 4750 
Q 2619 4750 2861 4703 
Q 3103 4656 3366 4563 
z
" transform="scale(0.015625)"/>
      <path id="DejaVuSans-33" d="M 2597 2516 
Q 3050 2419 3304 2112 
Q 3559 1806 3559 1356 
Q 3559 666 3084 287 
Q 2609 -91 1734 -91 
Q 1441 -91 1130 -33 
Q 819 25 488 141 
L 488 750 
Q 750 597 1062 519 
Q 1375 441 1716 441 
Q 2309 441 2620 675 
Q 2931 909 2931 1356 
Q 2931 1769 2642 2001 
Q 2353 2234 1838 2234 
L 1294 2234 
L 1294 2753 
L 1863 2753 
Q 2328 2753 2575 2939 
Q 2822 3125 2822 3475 
Q 2822 3834 2567 4026 
Q 2313 4219 1838 4219 
Q 1578 4219 1281 4162 
Q 984 4106 628 3988 
L 628 4550 
Q 988 4650 1302 4700 
Q 1616 4750 1894 4750 
Q 2613 4750 3031 4423 
Q 3450 4097 3450 3541 
Q 3450 3153 3228 2886 
Q 3006 2619 2597 2516 
z
" transform="scale(0.015625)"/>
     </defs>
     <use xlink:href="#DejaVuSans-76"/>
     <use xlink:href="#DejaVuSans-32" x="59.179688"/>
     <use xlink:href="#DejaVuSans-2e" x="122.802734"/>
     <use xlink:href="#DejaVuSans-36" x="154.589844"/>
     <use xlink:href="#DejaVuSans-2e" x="218.212891"/>
     <use xlink:href="#DejaVuSans-33" x="250"/>
    </g>
   </g>
  </g>
 </g>
 <defs>
  <clipPath id="p3f77c0b55c">
   <rect x="0" y="3.456" width="460.8" height="290.304"/>
  </clipPath>
 </defs>
</svg>
