<?xml version="1.0" encoding="utf-8" standalone="no"?>
<!DOCTYPE svg PUBLIC "-//W3C//DTD SVG 1.1//EN"
  "http://www.w3.org/Graphics/SVG/1.1/DTD/svg11.dtd">
<svg xmlns:xlink="http://www.w3.org/1999/xlink" width="460.8pt" height="345.6pt" viewBox="0 0 460.8 345.6" xmlns="http://www.w3.org/2000/svg" version="1.1">
 <metadata>
  <rdf:RDF xmlns:dc="http://purl.org/dc/elements/1.1/" xmlns:cc="http://creativecommons.org/ns#" xmlns:rdf="http://www.w3.org/1999/02/22-rdf-syntax-ns#">
   <cc:Work>
    <dc:type rdf:resource="http://purl.org/dc/dcmitype/StillImage"/>
    <dc:date>2024-06-21T19:46:27.612639</dc:date>
    <dc:format>image/svg+xml</dc:format>
    <dc:creator>
     <cc:Agent>
      <dc:title>Matplotlib v3.7.5, https://matplotlib.org/</dc:title>
     </cc:Agent>
    </dc:creator>
   </cc:Work>
  </rdf:RDF>
 </metadata>
 <defs>
  <style type="text/css">*{stroke-linejoin: round; stroke-linecap: butt}</style>
 </defs>
 <g id="figure_1">
  <g id="patch_1">
   <path d="M 0 345.6 
L 460.8 345.6 
L 460.8 0 
L 0 0 
z
" style="fill: #ffffff"/>
  </g>
  <g id="axes_1">
   <g id="patch_2">
    <path d="M 0 293.76 
L 460.8 293.76 
L 460.8 3.456 
L 0 3.456 
z
" style="fill: #ffffff"/>
   </g>
   <g id="matplotlib.axis_1">
    <g id="xtick_1">
     <g id="line2d_1">
      <path d="M 93.065885 293.76 
L 93.065885 3.456 
" clip-path="url(#p1bd6ffce2b)" style="fill: none; stroke: #b0b0b0; stroke-width: 0.8; stroke-linecap: square"/>
     </g>
     <g id="line2d_2">
      <defs>
       <path id="m853062d504" d="M 0 0 
L 0 3.5 
" style="stroke: #000000; stroke-width: 0.8"/>
      </defs>
      <g>
       <use xlink:href="#m853062d504" x="93.065885" y="293.76" style="stroke: #000000; stroke-width: 0.8"/>
      </g>
     </g>
     <g id="text_1">
      <!-- -4 -->
      <g transform="translate(83.095573 315.956875) scale(0.2 -0.2)">
       <defs>
        <path id="DejaVuSans-2d" d="M 313 2009 
L 1997 2009 
L 1997 1497 
L 313 1497 
L 313 2009 
z
" transform="scale(0.015625)"/>
        <path id="DejaVuSans-34" d="M 2419 4116 
L 825 1625 
L 2419 1625 
L 2419 4116 
z
M 2253 4666 
L 3047 4666 
L 3047 1625 
L 3713 1625 
L 3713 1100 
L 3047 1100 
L 3047 0 
L 2419 0 
L 2419 1100 
L 313 1100 
L 313 1709 
L 2253 4666 
z
" transform="scale(0.015625)"/>
       </defs>
       <use xlink:href="#DejaVuSans-2d"/>
       <use xlink:href="#DejaVuSans-34" x="36.083984"/>
      </g>
     </g>
    </g>
    <g id="xtick_2">
     <g id="line2d_3">
      <path d="M 186.232423 293.76 
L 186.232423 3.456 
" clip-path="url(#p1bd6ffce2b)" style="fill: none; stroke: #b0b0b0; stroke-width: 0.8; stroke-linecap: square"/>
     </g>
     <g id="line2d_4">
      <g>
       <use xlink:href="#m853062d504" x="186.232423" y="293.76" style="stroke: #000000; stroke-width: 0.8"/>
      </g>
     </g>
     <g id="text_2">
      <!-- 0 -->
      <g transform="translate(179.869923 315.956875) scale(0.2 -0.2)">
       <defs>
        <path id="DejaVuSans-30" d="M 2034 4250 
Q 1547 4250 1301 3770 
Q 1056 3291 1056 2328 
Q 1056 1369 1301 889 
Q 1547 409 2034 409 
Q 2525 409 2770 889 
Q 3016 1369 3016 2328 
Q 3016 3291 2770 3770 
Q 2525 4250 2034 4250 
z
M 2034 4750 
Q 2819 4750 3233 4129 
Q 3647 3509 3647 2328 
Q 3647 1150 3233 529 
Q 2819 -91 2034 -91 
Q 1250 -91 836 529 
Q 422 1150 422 2328 
Q 422 3509 836 4129 
Q 1250 4750 2034 4750 
z
" transform="scale(0.015625)"/>
       </defs>
       <use xlink:href="#DejaVuSans-30"/>
      </g>
     </g>
    </g>
    <g id="xtick_3">
     <g id="line2d_5">
      <path d="M 279.39896 293.76 
L 279.39896 3.456 
" clip-path="url(#p1bd6ffce2b)" style="fill: none; stroke: #b0b0b0; stroke-width: 0.8; stroke-linecap: square"/>
     </g>
     <g id="line2d_6">
      <g>
       <use xlink:href="#m853062d504" x="279.39896" y="293.76" style="stroke: #000000; stroke-width: 0.8"/>
      </g>
     </g>
     <g id="text_3">
      <!-- 4 -->
      <g transform="translate(273.03646 315.956875) scale(0.2 -0.2)">
       <use xlink:href="#DejaVuSans-34"/>
      </g>
     </g>
    </g>
    <g id="xtick_4">
     <g id="line2d_7">
      <path d="M 372.565497 293.76 
L 372.565497 3.456 
" clip-path="url(#p1bd6ffce2b)" style="fill: none; stroke: #b0b0b0; stroke-width: 0.8; stroke-linecap: square"/>
     </g>
     <g id="line2d_8">
      <g>
       <use xlink:href="#m853062d504" x="372.565497" y="293.76" style="stroke: #000000; stroke-width: 0.8"/>
      </g>
     </g>
     <g id="text_4">
      <!-- 8 -->
      <g transform="translate(366.202997 315.956875) scale(0.2 -0.2)">
       <defs>
        <path id="DejaVuSans-38" d="M 2034 2216 
Q 1584 2216 1326 1975 
Q 1069 1734 1069 1313 
Q 1069 891 1326 650 
Q 1584 409 2034 409 
Q 2484 409 2743 651 
Q 3003 894 3003 1313 
Q 3003 1734 2745 1975 
Q 2488 2216 2034 2216 
z
M 1403 2484 
Q 997 2584 770 2862 
Q 544 3141 544 3541 
Q 544 4100 942 4425 
Q 1341 4750 2034 4750 
Q 2731 4750 3128 4425 
Q 3525 4100 3525 3541 
Q 3525 3141 3298 2862 
Q 3072 2584 2669 2484 
Q 3125 2378 3379 2068 
Q 3634 1759 3634 1313 
Q 3634 634 3220 271 
Q 2806 -91 2034 -91 
Q 1263 -91 848 271 
Q 434 634 434 1313 
Q 434 1759 690 2068 
Q 947 2378 1403 2484 
z
M 1172 3481 
Q 1172 3119 1398 2916 
Q 1625 2713 2034 2713 
Q 2441 2713 2670 2916 
Q 2900 3119 2900 3481 
Q 2900 3844 2670 4047 
Q 2441 4250 2034 4250 
Q 1625 4250 1398 4047 
Q 1172 3844 1172 3481 
z
" transform="scale(0.015625)"/>
       </defs>
       <use xlink:href="#DejaVuSans-38"/>
      </g>
     </g>
    </g>
    <g id="text_5">
     <!-- log10 of Df -->
     <g transform="translate(175.214063 339.313125) scale(0.2 -0.2)">
      <defs>
       <path id="DejaVuSans-6c" d="M 603 4863 
L 1178 4863 
L 1178 0 
L 603 0 
L 603 4863 
z
" transform="scale(0.015625)"/>
       <path id="DejaVuSans-6f" d="M 1959 3097 
Q 1497 3097 1228 2736 
Q 959 2375 959 1747 
Q 959 1119 1226 758 
Q 1494 397 1959 397 
Q 2419 397 2687 759 
Q 2956 1122 2956 1747 
Q 2956 2369 2687 2733 
Q 2419 3097 1959 3097 
z
M 1959 3584 
Q 2709 3584 3137 3096 
Q 3566 2609 3566 1747 
Q 3566 888 3137 398 
Q 2709 -91 1959 -91 
Q 1206 -91 779 398 
Q 353 888 353 1747 
Q 353 2609 779 3096 
Q 1206 3584 1959 3584 
z
" transform="scale(0.015625)"/>
       <path id="DejaVuSans-67" d="M 2906 1791 
Q 2906 2416 2648 2759 
Q 2391 3103 1925 3103 
Q 1463 3103 1205 2759 
Q 947 2416 947 1791 
Q 947 1169 1205 825 
Q 1463 481 1925 481 
Q 2391 481 2648 825 
Q 2906 1169 2906 1791 
z
M 3481 434 
Q 3481 -459 3084 -895 
Q 2688 -1331 1869 -1331 
Q 1566 -1331 1297 -1286 
Q 1028 -1241 775 -1147 
L 775 -588 
Q 1028 -725 1275 -790 
Q 1522 -856 1778 -856 
Q 2344 -856 2625 -561 
Q 2906 -266 2906 331 
L 2906 616 
Q 2728 306 2450 153 
Q 2172 0 1784 0 
Q 1141 0 747 490 
Q 353 981 353 1791 
Q 353 2603 747 3093 
Q 1141 3584 1784 3584 
Q 2172 3584 2450 3431 
Q 2728 3278 2906 2969 
L 2906 3500 
L 3481 3500 
L 3481 434 
z
" transform="scale(0.015625)"/>
       <path id="DejaVuSans-31" d="M 794 531 
L 1825 531 
L 1825 4091 
L 703 3866 
L 703 4441 
L 1819 4666 
L 2450 4666 
L 2450 531 
L 3481 531 
L 3481 0 
L 794 0 
L 794 531 
z
" transform="scale(0.015625)"/>
       <path id="DejaVuSans-20" transform="scale(0.015625)"/>
       <path id="DejaVuSans-66" d="M 2375 4863 
L 2375 4384 
L 1825 4384 
Q 1516 4384 1395 4259 
Q 1275 4134 1275 3809 
L 1275 3500 
L 2222 3500 
L 2222 3053 
L 1275 3053 
L 1275 0 
L 697 0 
L 697 3053 
L 147 3053 
L 147 3500 
L 697 3500 
L 697 3744 
Q 697 4328 969 4595 
Q 1241 4863 1831 4863 
L 2375 4863 
z
" transform="scale(0.015625)"/>
       <path id="DejaVuSans-44" d="M 1259 4147 
L 1259 519 
L 2022 519 
Q 2988 519 3436 956 
Q 3884 1394 3884 2338 
Q 3884 3275 3436 3711 
Q 2988 4147 2022 4147 
L 1259 4147 
z
M 628 4666 
L 1925 4666 
Q 3281 4666 3915 4102 
Q 4550 3538 4550 2338 
Q 4550 1131 3912 565 
Q 3275 0 1925 0 
L 628 0 
L 628 4666 
z
" transform="scale(0.015625)"/>
      </defs>
      <use xlink:href="#DejaVuSans-6c"/>
      <use xlink:href="#DejaVuSans-6f" x="27.783203"/>
      <use xlink:href="#DejaVuSans-67" x="88.964844"/>
      <use xlink:href="#DejaVuSans-31" x="152.441406"/>
      <use xlink:href="#DejaVuSans-30" x="216.064453"/>
      <use xlink:href="#DejaVuSans-20" x="279.6875"/>
      <use xlink:href="#DejaVuSans-6f" x="311.474609"/>
      <use xlink:href="#DejaVuSans-66" x="372.65625"/>
      <use xlink:href="#DejaVuSans-20" x="407.861328"/>
      <use xlink:href="#DejaVuSans-44" x="439.648438"/>
      <use xlink:href="#DejaVuSans-66" x="516.650391"/>
     </g>
    </g>
   </g>
   <g id="matplotlib.axis_2">
    <g id="ytick_1">
     <g id="line2d_9">
      <path d="M 0 293.76 
L 460.8 293.76 
" clip-path="url(#p1bd6ffce2b)" style="fill: none; stroke: #b0b0b0; stroke-width: 0.8; stroke-linecap: square"/>
     </g>
     <g id="line2d_10">
      <defs>
       <path id="me32c28dfd4" d="M 0 0 
L -3.5 0 
" style="stroke: #000000; stroke-width: 0.8"/>
      </defs>
      <g>
       <use xlink:href="#me32c28dfd4" x="0" y="293.76" style="stroke: #000000; stroke-width: 0.8"/>
      </g>
     </g>
    </g>
    <g id="ytick_2">
     <g id="line2d_11">
      <path d="M 0 236.274059 
L 460.8 236.274059 
" clip-path="url(#p1bd6ffce2b)" style="fill: none; stroke: #b0b0b0; stroke-width: 0.8; stroke-linecap: square"/>
     </g>
     <g id="line2d_12">
      <g>
       <use xlink:href="#me32c28dfd4" x="0" y="236.274059" style="stroke: #000000; stroke-width: 0.8"/>
      </g>
     </g>
    </g>
    <g id="ytick_3">
     <g id="line2d_13">
      <path d="M 0 178.788119 
L 460.8 178.788119 
" clip-path="url(#p1bd6ffce2b)" style="fill: none; stroke: #b0b0b0; stroke-width: 0.8; stroke-linecap: square"/>
     </g>
     <g id="line2d_14">
      <g>
       <use xlink:href="#me32c28dfd4" x="0" y="178.788119" style="stroke: #000000; stroke-width: 0.8"/>
      </g>
     </g>
    </g>
    <g id="ytick_4">
     <g id="line2d_15">
      <path d="M 0 121.302178 
L 460.8 121.302178 
" clip-path="url(#p1bd6ffce2b)" style="fill: none; stroke: #b0b0b0; stroke-width: 0.8; stroke-linecap: square"/>
     </g>
     <g id="line2d_16">
      <g>
       <use xlink:href="#me32c28dfd4" x="0" y="121.302178" style="stroke: #000000; stroke-width: 0.8"/>
      </g>
     </g>
    </g>
    <g id="ytick_5">
     <g id="line2d_17">
      <path d="M 0 63.816238 
L 460.8 63.816238 
" clip-path="url(#p1bd6ffce2b)" style="fill: none; stroke: #b0b0b0; stroke-width: 0.8; stroke-linecap: square"/>
     </g>
     <g id="line2d_18">
      <g>
       <use xlink:href="#me32c28dfd4" x="0" y="63.816238" style="stroke: #000000; stroke-width: 0.8"/>
      </g>
     </g>
    </g>
    <g id="ytick_6">
     <g id="line2d_19">
      <path d="M 0 6.330297 
L 460.8 6.330297 
" clip-path="url(#p1bd6ffce2b)" style="fill: none; stroke: #b0b0b0; stroke-width: 0.8; stroke-linecap: square"/>
     </g>
     <g id="line2d_20">
      <g>
       <use xlink:href="#me32c28dfd4" x="0" y="6.330297" style="stroke: #000000; stroke-width: 0.8"/>
      </g>
     </g>
    </g>
   </g>
   <g id="line2d_21">
    <path d="M -0.100652 293.76 
L -0.100652 282.262812 
L 169.667216 282.262812 
L 169.667216 278.430416 
L 174.283622 278.430416 
L 174.283622 274.59802 
L 179.459584 274.59802 
L 179.459584 270.765624 
L 182.50614 270.765624 
L 182.50614 251.603644 
L 183.218477 251.603644 
L 183.218477 247.771248 
L 184.791447 247.771248 
L 184.791447 243.938851 
L 185.091285 243.938851 
L 185.091285 240.106455 
L 185.256537 240.106455 
L 185.256537 236.274059 
L 185.498311 236.274059 
L 185.498311 232.441663 
L 186.855352 232.441663 
L 186.878618 224.776871 
L 187.246385 224.776871 
L 187.246385 217.112079 
L 187.521536 217.112079 
L 187.521536 213.279683 
L 188.362289 213.279683 
L 188.451148 201.782495 
L 188.597231 201.782495 
L 188.597231 197.950099 
L 188.746173 197.950099 
L 188.746173 194.117703 
L 189.592927 194.117703 
L 189.592927 190.285307 
L 189.769971 190.285307 
L 189.789375 178.788119 
L 190.335535 178.788119 
L 190.436219 167.290931 
L 190.467066 167.290931 
L 190.467066 163.458535 
L 190.651517 163.458535 
L 190.651517 159.626139 
L 191.161921 159.626139 
L 191.161921 155.793743 
L 191.582109 155.793743 
L 191.582109 151.961347 
L 191.860936 151.961347 
L 191.860936 148.12895 
L 192.19509 148.12895 
L 192.19509 144.296554 
L 193.013701 144.296554 
L 193.013701 136.631762 
L 193.240792 136.631762 
L 193.31215 125.134574 
L 193.623516 125.134574 
L 193.623516 121.302178 
L 194.165273 121.302178 
L 194.165273 117.469782 
L 195.391148 117.469782 
L 195.391148 109.80499 
L 195.860988 109.80499 
L 195.860988 102.140198 
L 197.902291 102.140198 
L 197.902291 98.307802 
L 202.63871 98.307802 
L 202.63871 94.475406 
L 203.030749 94.475406 
L 203.030749 86.810614 
L 204.623138 86.810614 
L 204.623138 82.978218 
L 204.75958 82.978218 
L 204.75958 79.145822 
L 204.918921 79.145822 
L 204.918921 75.313426 
L 205.203108 75.313426 
L 205.203108 71.48103 
L 205.501305 71.48103 
L 205.501305 67.648634 
L 206.301234 67.648634 
L 206.301234 63.816238 
L 208.164945 63.816238 
L 208.164945 59.983842 
L 208.440176 59.983842 
L 208.440176 56.151446 
L 208.646563 56.151446 
L 208.646563 52.31905 
L 209.029153 52.31905 
L 209.029153 48.486653 
L 209.266542 48.486653 
L 209.366439 40.821861 
L 210.238456 40.821861 
L 210.32155 33.157069 
L 210.603022 33.157069 
L 210.603022 29.324673 
L 211.589061 29.324673 
L 211.589061 25.492277 
L 211.968404 25.492277 
L 211.968404 21.659881 
L 212.219673 21.659881 
L 212.219673 17.827485 
L 215.083936 17.827485 
L 215.083936 13.995089 
L 215.630498 13.995089 
L 215.630498 10.162693 
L 216.329245 10.162693 
L 216.329245 6.330297 
L 216.329245 6.330297 
L 460.8 6.330297 
L 460.8 6.330297 
" clip-path="url(#p1bd6ffce2b)" style="fill: none; stroke: #ff0000; stroke-width: 3; stroke-linecap: square"/>
   </g>
   <g id="line2d_22">
    <path d="M 199.043048 293.76 
L 199.043048 289.927604 
L 205.593516 289.927604 
L 205.593516 286.095208 
L 209.211812 286.095208 
L 209.211812 282.262812 
L 211.428912 282.262812 
L 211.428912 278.430416 
L 211.881384 278.430416 
L 211.881384 274.59802 
L 213.415756 274.59802 
L 213.415756 270.765624 
L 214.011346 270.765624 
L 214.011346 266.933228 
L 214.705209 266.933228 
L 214.720649 259.268436 
L 215.705127 259.268436 
L 215.761833 251.603644 
L 215.88172 251.603644 
L 215.931658 243.938851 
L 217.081269 243.938851 
L 217.081269 240.106455 
L 217.31435 240.106455 
L 217.31435 236.274059 
L 218.202549 236.274059 
L 218.202549 232.441663 
L 218.739812 232.441663 
L 218.739812 228.609267 
L 219.538075 228.609267 
L 219.538075 224.776871 
L 219.703226 224.776871 
L 219.703226 220.944475 
L 220.143598 220.944475 
L 220.143598 217.112079 
L 222.101282 217.112079 
L 222.101282 213.279683 
L 222.894523 213.279683 
L 222.894523 209.447287 
L 223.905587 209.447287 
L 223.905587 205.614891 
L 226.314122 205.614891 
L 226.314122 201.782495 
L 226.515335 201.782495 
L 226.559171 194.117703 
L 227.993503 194.117703 
L 227.993503 190.285307 
L 228.418009 190.285307 
L 228.454106 182.620515 
L 228.647182 182.620515 
L 228.700455 174.955723 
L 228.804979 174.955723 
L 228.804979 171.123327 
L 229.039395 171.123327 
L 229.039395 167.290931 
L 229.259692 167.290931 
L 229.352676 151.961347 
L 229.494932 151.961347 
L 229.494932 148.12895 
L 229.629904 148.12895 
L 229.629904 144.296554 
L 230.06867 144.296554 
L 230.06867 140.464158 
L 230.203267 140.464158 
L 230.203267 136.631762 
L 230.410916 136.631762 
L 230.493426 128.96697 
L 230.765821 128.96697 
L 230.864598 117.469782 
L 231.050256 117.469782 
L 231.050256 113.637386 
L 231.181092 113.637386 
L 231.181092 109.80499 
L 231.295976 109.80499 
L 231.295976 105.972594 
L 231.84368 105.972594 
L 231.84368 102.140198 
L 232.828639 102.140198 
L 232.828639 98.307802 
L 233.983149 98.307802 
L 233.983149 94.475406 
L 234.348745 94.475406 
L 234.348745 90.64301 
L 234.65447 90.64301 
L 234.65447 86.810614 
L 234.959622 86.810614 
L 234.959622 82.978218 
L 235.097868 82.978218 
L 235.097868 79.145822 
L 235.813597 79.145822 
L 235.813597 75.313426 
L 237.29163 75.313426 
L 237.29163 71.48103 
L 237.69192 71.48103 
L 237.69192 67.648634 
L 238.034655 67.648634 
L 238.034655 63.816238 
L 275.944042 63.816238 
L 275.944042 59.983842 
L 278.893561 59.983842 
L 278.893561 56.151446 
L 282.95973 56.151446 
L 282.961754 44.654257 
L 283.412317 44.654257 
L 283.412317 40.821861 
L 284.504533 40.821861 
L 284.504533 36.989465 
L 285.339271 36.989465 
L 285.339271 33.157069 
L 290.909176 33.157069 
L 290.909176 29.324673 
L 291.180501 29.324673 
L 291.180501 25.492277 
L 292.570752 25.492277 
L 292.570752 21.659881 
L 298.48943 21.659881 
L 298.48943 17.827485 
L 299.186505 17.827485 
L 299.186505 13.995089 
L 302.235173 13.995089 
L 302.235173 10.162693 
L 303.840098 10.162693 
L 303.840098 6.330297 
L 303.840098 6.330297 
L 460.8 6.330297 
L 460.8 6.330297 
" clip-path="url(#p1bd6ffce2b)" style="fill: none; stroke: #00bfbf; stroke-width: 1.5; stroke-linecap: square"/>
   </g>
   <g id="line2d_23">
    <path d="M 199.043048 293.76 
L 199.132488 286.095208 
L 204.425394 286.095208 
L 204.425394 282.262812 
L 205.593516 282.262812 
L 205.593516 278.430416 
L 206.388808 278.430416 
L 206.388808 274.59802 
L 207.914459 274.59802 
L 207.914459 270.765624 
L 209.303584 270.765624 
L 209.365692 263.100832 
L 211.428912 263.100832 
L 211.428912 259.268436 
L 212.902424 259.268436 
L 212.902424 255.43604 
L 213.40883 255.43604 
L 213.40883 251.603644 
L 214.309721 251.603644 
L 214.309721 247.771248 
L 214.720649 247.771248 
L 214.720649 243.938851 
L 215.012322 243.938851 
L 215.012322 240.106455 
L 215.705127 240.106455 
L 215.705127 236.274059 
L 215.88172 236.274059 
L 215.931658 228.609267 
L 216.823635 228.609267 
L 216.823635 224.776871 
L 217.081269 224.776871 
L 217.081269 220.944475 
L 217.31435 220.944475 
L 217.31435 217.112079 
L 218.739812 217.112079 
L 218.739812 213.279683 
L 219.538075 213.279683 
L 219.538075 209.447287 
L 221.617932 209.447287 
L 221.617932 205.614891 
L 222.101282 205.614891 
L 222.101282 201.782495 
L 222.894523 201.782495 
L 222.979505 194.117703 
L 224.073616 194.117703 
L 224.073616 190.285307 
L 224.726534 190.285307 
L 224.726534 186.452911 
L 224.847513 186.452911 
L 224.847513 182.620515 
L 225.738122 182.620515 
L 225.841421 171.123327 
L 225.939854 171.123327 
L 225.939854 167.290931 
L 226.314122 167.290931 
L 226.314122 163.458535 
L 226.559171 163.458535 
L 226.559171 159.626139 
L 227.219703 159.626139 
L 227.219703 155.793743 
L 227.659143 155.793743 
L 227.659143 151.961347 
L 228.418009 151.961347 
L 228.418009 148.12895 
L 228.700455 148.12895 
L 228.804979 140.464158 
L 229.140528 140.464158 
L 229.159278 132.799366 
L 229.253649 132.799366 
L 229.352676 121.302178 
L 230.203267 121.302178 
L 230.203267 117.469782 
L 230.607242 117.469782 
L 230.607242 113.637386 
L 231.050256 113.637386 
L 231.050256 109.80499 
L 231.295976 109.80499 
L 231.295976 105.972594 
L 231.610463 105.972594 
L 231.610463 102.140198 
L 231.84368 102.140198 
L 231.84368 98.307802 
L 232.828639 98.307802 
L 232.828639 94.475406 
L 233.675772 94.475406 
L 233.675772 90.64301 
L 233.983149 90.64301 
L 233.983149 86.810614 
L 234.348745 86.810614 
L 234.348745 82.978218 
L 234.598552 82.978218 
L 234.65447 75.313426 
L 234.959622 75.313426 
L 234.959622 71.48103 
L 235.662671 71.48103 
L 235.662671 67.648634 
L 236.504983 67.648634 
L 236.504983 63.816238 
L 268.458096 63.816238 
L 268.460201 56.151446 
L 270.640654 56.151446 
L 270.651237 48.486653 
L 275.944042 48.486653 
L 275.944042 44.654257 
L 278.912997 44.654257 
L 278.912997 40.821861 
L 280.446473 40.821861 
L 280.446473 36.989465 
L 282.931423 36.989465 
L 282.95973 25.492277 
L 283.412317 25.492277 
L 283.412317 21.659881 
L 284.504533 21.659881 
L 284.504533 17.827485 
L 285.339271 17.827485 
L 285.339271 13.995089 
L 290.446968 13.995089 
L 290.446968 10.162693 
L 290.909176 10.162693 
L 290.909176 6.330297 
L 290.909176 6.330297 
L 460.8 6.330297 
L 460.8 6.330297 
" clip-path="url(#p1bd6ffce2b)" style="fill: none; stroke: #bf00bf; stroke-width: 1.5; stroke-linecap: square"/>
   </g>
   <g id="line2d_24">
    <path d="M 197.710102 293.76 
L 197.710102 289.927604 
L 199.043048 289.927604 
L 199.132488 282.262812 
L 199.832857 282.262812 
L 199.832857 278.430416 
L 204.425394 278.430416 
L 204.425394 274.59802 
L 205.284876 274.59802 
L 205.284876 270.765624 
L 205.593516 270.765624 
L 205.593516 266.933228 
L 206.518916 266.933228 
L 206.518916 263.100832 
L 206.878365 263.100832 
L 206.976969 251.603644 
L 207.914459 251.603644 
L 207.914459 247.771248 
L 208.180986 247.771248 
L 208.180986 243.938851 
L 208.945133 243.938851 
L 208.945133 240.106455 
L 209.365692 240.106455 
L 209.434576 232.441663 
L 212.41581 232.441663 
L 212.41581 228.609267 
L 214.025175 228.609267 
L 214.025175 224.776871 
L 215.012322 224.776871 
L 215.012322 220.944475 
L 215.88172 220.944475 
L 215.88172 217.112079 
L 216.595773 217.112079 
L 216.595773 213.279683 
L 216.933162 213.279683 
L 216.933162 209.447287 
L 217.081269 209.447287 
L 217.081269 205.614891 
L 218.739812 205.614891 
L 218.8354 197.950099 
L 219.181472 197.950099 
L 219.181472 194.117703 
L 220.726753 194.117703 
L 220.754569 186.452911 
L 220.846309 186.452911 
L 220.846309 182.620515 
L 221.617932 182.620515 
L 221.617932 178.788119 
L 222.979505 178.788119 
L 223.031908 171.123327 
L 223.370042 171.123327 
L 223.370042 167.290931 
L 224.062181 167.290931 
L 224.073616 159.626139 
L 224.835992 159.626139 
L 224.835992 155.793743 
L 225.740475 155.793743 
L 225.841421 148.12895 
L 225.939854 148.12895 
L 225.939854 144.296554 
L 226.314122 144.296554 
L 226.314122 140.464158 
L 226.559171 140.464158 
L 226.559171 136.631762 
L 227.219703 136.631762 
L 227.219703 132.799366 
L 227.454299 132.799366 
L 227.559128 125.134574 
L 227.659143 125.134574 
L 227.767273 117.469782 
L 227.897098 117.469782 
L 227.897098 113.637386 
L 228.372158 113.637386 
L 228.372158 109.80499 
L 228.647326 109.80499 
L 228.705379 98.307802 
L 230.007283 98.307802 
L 230.007283 94.475406 
L 231.050256 94.475406 
L 231.050256 90.64301 
L 231.610463 90.64301 
L 231.657288 82.978218 
L 231.84368 82.978218 
L 231.84368 79.145822 
L 232.034832 79.145822 
L 232.034832 75.313426 
L 232.246746 75.313426 
L 232.246746 71.48103 
L 232.795738 71.48103 
L 232.795738 67.648634 
L 234.348745 67.648634 
L 234.348745 63.816238 
L 234.959622 63.816238 
L 234.959622 59.983842 
L 253.724453 59.983842 
L 253.724453 56.151446 
L 268.454119 56.151446 
L 268.460201 48.486653 
L 275.552249 48.486653 
L 275.552249 44.654257 
L 275.944042 44.654257 
L 275.944042 40.821861 
L 278.912997 40.821861 
L 278.912997 36.989465 
L 279.639147 36.989465 
L 279.639147 33.157069 
L 279.948053 33.157069 
L 279.948053 29.324673 
L 282.901995 29.324673 
L 282.95973 17.827485 
L 283.412317 17.827485 
L 283.412317 13.995089 
L 285.339271 13.995089 
L 285.339271 10.162693 
L 287.766198 10.162693 
L 287.766198 6.330297 
L 287.766198 6.330297 
L 460.8 6.330297 
L 460.8 6.330297 
" clip-path="url(#p1bd6ffce2b)" style="fill: none; stroke: #000000; stroke-width: 1.5; stroke-linecap: square"/>
   </g>
   <g id="line2d_25">
    <path d="M 195.536375 293.76 
L 195.536375 289.927604 
L 195.771013 289.927604 
L 195.771013 286.095208 
L 195.939385 286.095208 
L 196.044764 274.59802 
L 197.710102 274.59802 
L 197.710102 270.765624 
L 198.875558 270.765624 
L 198.875558 266.933228 
L 199.043048 266.933228 
L 199.068389 259.268436 
L 199.35168 259.268436 
L 199.35168 255.43604 
L 199.583258 255.43604 
L 199.583258 251.603644 
L 199.806593 251.603644 
L 199.806593 247.771248 
L 200.471881 247.771248 
L 200.471881 243.938851 
L 201.004714 243.938851 
L 201.004714 240.106455 
L 202.287813 240.106455 
L 202.287813 236.274059 
L 202.689137 236.274059 
L 202.689137 232.441663 
L 203.133846 232.441663 
L 203.133846 228.609267 
L 203.561937 228.609267 
L 203.561937 224.776871 
L 204.425394 224.776871 
L 204.425394 220.944475 
L 205.203108 220.944475 
L 205.284876 213.279683 
L 206.878365 213.279683 
L 206.95107 205.614891 
L 207.712738 205.614891 
L 207.712738 201.782495 
L 208.210065 201.782495 
L 208.210065 197.950099 
L 208.945133 197.950099 
L 208.945133 194.117703 
L 209.434576 194.117703 
L 209.434576 190.285307 
L 209.769831 190.285307 
L 209.795463 182.620515 
L 210.851328 182.620515 
L 210.851328 178.788119 
L 212.836779 178.788119 
L 212.836779 174.955723 
L 213.939309 174.955723 
L 214.025175 167.290931 
L 215.577057 167.290931 
L 215.577057 163.458535 
L 216.933162 163.458535 
L 216.933162 159.626139 
L 217.323706 159.626139 
L 217.419451 148.12895 
L 218.446277 148.12895 
L 218.519784 140.464158 
L 219.229939 140.464158 
L 219.229939 136.631762 
L 220.726753 136.631762 
L 220.754569 128.96697 
L 221.007263 128.96697 
L 221.007263 125.134574 
L 221.385443 125.134574 
L 221.452934 117.469782 
L 221.818804 117.469782 
L 221.922869 109.80499 
L 222.193952 109.80499 
L 222.303531 102.140198 
L 223.118511 102.140198 
L 223.118511 98.307802 
L 223.349883 98.307802 
L 223.349883 94.475406 
L 223.984418 94.475406 
L 224.062181 86.810614 
L 224.248071 86.810614 
L 224.248071 82.978218 
L 224.4185 82.978218 
L 224.471801 75.313426 
L 225.13842 75.313426 
L 225.13842 71.48103 
L 225.411443 71.48103 
L 225.411443 67.648634 
L 225.579605 67.648634 
L 225.595273 59.983842 
L 225.723126 59.983842 
L 225.723126 56.151446 
L 226.369236 56.151446 
L 226.369236 52.31905 
L 227.017395 52.31905 
L 227.017395 48.486653 
L 227.427684 48.486653 
L 227.427684 44.654257 
L 228.256373 44.654257 
L 228.256373 40.821861 
L 228.811604 40.821861 
L 228.811604 36.989465 
L 238.34559 36.989465 
L 238.34559 29.324673 
L 242.856519 29.324673 
L 242.856519 25.492277 
L 250.750499 25.492277 
L 250.750499 21.659881 
L 251.168164 21.659881 
L 251.168164 17.827485 
L 253.036249 17.827485 
L 253.036249 13.995089 
L 258.026861 13.995089 
L 258.026861 10.162693 
L 268.727672 10.162693 
L 268.727672 6.330297 
L 268.727672 6.330297 
L 460.8 6.330297 
L 460.8 6.330297 
" clip-path="url(#p1bd6ffce2b)" style="fill: none; stroke: #00bfbf; stroke-width: 1.5; stroke-linecap: square"/>
   </g>
   <g id="line2d_26">
    <path d="M 89.184424 293.76 
L 89.184424 289.927604 
L 114.683281 289.927604 
L 114.683281 286.095208 
L 152.381309 286.095208 
L 152.381309 282.262812 
L 182.09345 282.262812 
L 182.09345 278.430416 
L 182.507517 278.430416 
L 182.521834 263.100832 
L 182.811948 263.100832 
L 182.811948 259.268436 
L 186.855352 259.268436 
L 186.855352 255.43604 
L 187.120962 255.43604 
L 187.120962 251.603644 
L 187.335153 251.603644 
L 187.335153 243.938851 
L 187.521536 243.938851 
L 187.521536 240.106455 
L 187.914685 240.106455 
L 187.914685 236.274059 
L 188.456623 236.274059 
L 188.462808 228.609267 
L 189.106403 228.609267 
L 189.106403 224.776871 
L 189.250207 224.776871 
L 189.250207 220.944475 
L 189.592927 220.944475 
L 189.592927 217.112079 
L 189.946003 217.112079 
L 189.946003 213.279683 
L 190.651517 213.279683 
L 190.651517 209.447287 
L 190.89009 209.447287 
L 190.89009 205.614891 
L 191.55603 205.614891 
L 191.622013 194.117703 
L 191.708564 194.117703 
L 191.708564 190.285307 
L 192.283122 190.285307 
L 192.371745 182.620515 
L 193.014013 182.620515 
L 193.015107 174.955723 
L 193.240857 174.955723 
L 193.285707 163.458535 
L 193.363413 163.458535 
L 193.3854 155.793743 
L 194.165273 155.793743 
L 194.165273 151.961347 
L 195.335198 151.961347 
L 195.395605 144.296554 
L 195.536375 144.296554 
L 195.536375 140.464158 
L 195.695979 140.464158 
L 195.695979 136.631762 
L 195.831272 136.631762 
L 195.939385 125.134574 
L 196.439243 125.134574 
L 196.439243 121.302178 
L 197.195971 121.302178 
L 197.262823 113.637386 
L 197.710102 113.637386 
L 197.710102 109.80499 
L 197.863881 109.80499 
L 197.915347 102.140198 
L 200.195188 102.140198 
L 200.195188 98.307802 
L 202.750163 98.307802 
L 202.750163 94.475406 
L 203.048844 94.475406 
L 203.048844 90.64301 
L 203.186081 90.64301 
L 203.186081 86.810614 
L 205.203108 86.810614 
L 205.203108 82.978218 
L 206.301337 82.978218 
L 206.301337 79.145822 
L 208.165129 79.145822 
L 208.165129 75.313426 
L 209.266542 75.313426 
L 209.266542 71.48103 
L 210.606315 71.48103 
L 210.606315 67.648634 
L 211.968404 67.648634 
L 211.968404 63.816238 
L 215.092416 63.816238 
L 215.092416 59.983842 
L 215.220358 59.983842 
L 215.220358 56.151446 
L 215.443157 56.151446 
L 215.443157 52.31905 
L 215.591301 52.31905 
L 215.638752 40.821861 
L 215.812252 40.821861 
L 215.836876 33.157069 
L 216.115708 33.157069 
L 216.203879 17.827485 
L 216.514045 17.827485 
L 216.514045 13.995089 
L 217.168597 13.995089 
L 217.168597 10.162693 
L 218.113387 10.162693 
L 218.113387 6.330297 
L 218.113387 6.330297 
L 460.8 6.330297 
L 460.8 6.330297 
" clip-path="url(#p1bd6ffce2b)" style="fill: none; stroke: #bf00bf; stroke-width: 1.5; stroke-linecap: square"/>
   </g>
   <g id="line2d_27">
    <path d="M -0.100652 293.76 
L -0.100652 282.262812 
L 169.667216 282.262812 
L 169.667216 278.430416 
L 174.283622 278.430416 
L 174.283622 274.59802 
L 179.459584 274.59802 
L 179.459584 270.765624 
L 182.50614 270.765624 
L 182.50614 251.603644 
L 183.218477 251.603644 
L 183.218477 247.771248 
L 184.791447 247.771248 
L 184.791447 243.938851 
L 185.091285 243.938851 
L 185.091285 240.106455 
L 185.256537 240.106455 
L 185.256537 236.274059 
L 185.498311 236.274059 
L 185.498311 232.441663 
L 186.855352 232.441663 
L 186.878618 224.776871 
L 187.246385 224.776871 
L 187.246385 217.112079 
L 187.521536 217.112079 
L 187.521536 213.279683 
L 188.362289 213.279683 
L 188.451148 201.782495 
L 188.597231 201.782495 
L 188.597231 197.950099 
L 188.746173 197.950099 
L 188.746173 194.117703 
L 189.592927 194.117703 
L 189.592927 190.285307 
L 189.769971 190.285307 
L 189.789375 178.788119 
L 190.335535 178.788119 
L 190.436219 167.290931 
L 190.467066 167.290931 
L 190.467066 163.458535 
L 190.651517 163.458535 
L 190.651517 159.626139 
L 191.161921 159.626139 
L 191.161921 155.793743 
L 191.582109 155.793743 
L 191.582109 151.961347 
L 191.860936 151.961347 
L 191.860936 148.12895 
L 192.19509 148.12895 
L 192.19509 144.296554 
L 193.013701 144.296554 
L 193.013701 136.631762 
L 193.240792 136.631762 
L 193.31215 125.134574 
L 193.623516 125.134574 
L 193.623516 121.302178 
L 194.165273 121.302178 
L 194.165273 117.469782 
L 195.391148 117.469782 
L 195.391148 109.80499 
L 195.860988 109.80499 
L 195.860988 102.140198 
L 197.902291 102.140198 
L 197.902291 98.307802 
L 202.63871 98.307802 
L 202.63871 94.475406 
L 203.030749 94.475406 
L 203.030749 86.810614 
L 204.623138 86.810614 
L 204.623138 82.978218 
L 204.75958 82.978218 
L 204.75958 79.145822 
L 204.918921 79.145822 
L 204.918921 75.313426 
L 205.203108 75.313426 
L 205.203108 71.48103 
L 205.501305 71.48103 
L 205.501305 67.648634 
L 206.301234 67.648634 
L 206.301234 63.816238 
L 208.164945 63.816238 
L 208.164945 59.983842 
L 208.440176 59.983842 
L 208.440176 56.151446 
L 208.646563 56.151446 
L 208.646563 52.31905 
L 209.029153 52.31905 
L 209.029153 48.486653 
L 209.266542 48.486653 
L 209.366439 40.821861 
L 210.238456 40.821861 
L 210.32155 33.157069 
L 210.603022 33.157069 
L 210.603022 29.324673 
L 211.589061 29.324673 
L 211.589061 25.492277 
L 211.968404 25.492277 
L 211.968404 21.659881 
L 212.219673 21.659881 
L 212.219673 17.827485 
L 215.083936 17.827485 
L 215.083936 13.995089 
L 215.630498 13.995089 
L 215.630498 10.162693 
L 216.329245 10.162693 
L 216.329245 6.330297 
L 216.329245 6.330297 
L 460.8 6.330297 
L 460.8 6.330297 
" clip-path="url(#p1bd6ffce2b)" style="fill: none; stroke: #000000; stroke-width: 1.5; stroke-linecap: square"/>
   </g>
   <g id="patch_3">
    <path d="M 0 293.76 
L 0 3.456 
" style="fill: none; stroke: #000000; stroke-width: 0.8; stroke-linejoin: miter; stroke-linecap: square"/>
   </g>
   <g id="patch_4">
    <path d="M 460.8 293.76 
L 460.8 3.456 
" style="fill: none; stroke: #000000; stroke-width: 0.8; stroke-linejoin: miter; stroke-linecap: square"/>
   </g>
   <g id="patch_5">
    <path d="M 0 293.76 
L 460.8 293.76 
" style="fill: none; stroke: #000000; stroke-width: 0.8; stroke-linejoin: miter; stroke-linecap: square"/>
   </g>
   <g id="patch_6">
    <path d="M 0 3.456 
L 460.8 3.456 
" style="fill: none; stroke: #000000; stroke-width: 0.8; stroke-linejoin: miter; stroke-linecap: square"/>
   </g>
   <g id="text_6">
    <!-- {f20-f24}, 5-D -->
    <g transform="translate(305.884 287.95392) scale(0.2 -0.2)">
     <defs>
      <path id="DejaVuSans-7b" d="M 3272 -594 
L 3272 -1044 
L 3078 -1044 
Q 2300 -1044 2036 -812 
Q 1772 -581 1772 109 
L 1772 856 
Q 1772 1328 1603 1509 
Q 1434 1691 991 1691 
L 800 1691 
L 800 2138 
L 991 2138 
Q 1438 2138 1605 2317 
Q 1772 2497 1772 2963 
L 1772 3713 
Q 1772 4403 2036 4633 
Q 2300 4863 3078 4863 
L 3272 4863 
L 3272 4416 
L 3059 4416 
Q 2619 4416 2484 4278 
Q 2350 4141 2350 3700 
L 2350 2925 
Q 2350 2434 2208 2212 
Q 2066 1991 1722 1913 
Q 2069 1828 2209 1606 
Q 2350 1384 2350 897 
L 2350 122 
Q 2350 -319 2484 -456 
Q 2619 -594 3059 -594 
L 3272 -594 
z
" transform="scale(0.015625)"/>
      <path id="DejaVuSans-32" d="M 1228 531 
L 3431 531 
L 3431 0 
L 469 0 
L 469 531 
Q 828 903 1448 1529 
Q 2069 2156 2228 2338 
Q 2531 2678 2651 2914 
Q 2772 3150 2772 3378 
Q 2772 3750 2511 3984 
Q 2250 4219 1831 4219 
Q 1534 4219 1204 4116 
Q 875 4013 500 3803 
L 500 4441 
Q 881 4594 1212 4672 
Q 1544 4750 1819 4750 
Q 2544 4750 2975 4387 
Q 3406 4025 3406 3419 
Q 3406 3131 3298 2873 
Q 3191 2616 2906 2266 
Q 2828 2175 2409 1742 
Q 1991 1309 1228 531 
z
" transform="scale(0.015625)"/>
      <path id="DejaVuSans-7d" d="M 800 -594 
L 1019 -594 
Q 1456 -594 1589 -459 
Q 1722 -325 1722 122 
L 1722 897 
Q 1722 1384 1862 1606 
Q 2003 1828 2350 1913 
Q 2003 1991 1862 2212 
Q 1722 2434 1722 2925 
L 1722 3700 
Q 1722 4144 1589 4280 
Q 1456 4416 1019 4416 
L 800 4416 
L 800 4863 
L 997 4863 
Q 1775 4863 2036 4633 
Q 2297 4403 2297 3713 
L 2297 2963 
Q 2297 2497 2465 2317 
Q 2634 2138 3078 2138 
L 3272 2138 
L 3272 1691 
L 3078 1691 
Q 2634 1691 2465 1509 
Q 2297 1328 2297 856 
L 2297 109 
Q 2297 -581 2036 -812 
Q 1775 -1044 997 -1044 
L 800 -1044 
L 800 -594 
z
" transform="scale(0.015625)"/>
      <path id="DejaVuSans-2c" d="M 750 794 
L 1409 794 
L 1409 256 
L 897 -744 
L 494 -744 
L 750 256 
L 750 794 
z
" transform="scale(0.015625)"/>
      <path id="DejaVuSans-35" d="M 691 4666 
L 3169 4666 
L 3169 4134 
L 1269 4134 
L 1269 2991 
Q 1406 3038 1543 3061 
Q 1681 3084 1819 3084 
Q 2600 3084 3056 2656 
Q 3513 2228 3513 1497 
Q 3513 744 3044 326 
Q 2575 -91 1722 -91 
Q 1428 -91 1123 -41 
Q 819 9 494 109 
L 494 744 
Q 775 591 1075 516 
Q 1375 441 1709 441 
Q 2250 441 2565 725 
Q 2881 1009 2881 1497 
Q 2881 1984 2565 2268 
Q 2250 2553 1709 2553 
Q 1456 2553 1204 2497 
Q 953 2441 691 2322 
L 691 4666 
z
" transform="scale(0.015625)"/>
     </defs>
     <use xlink:href="#DejaVuSans-7b"/>
     <use xlink:href="#DejaVuSans-66" x="63.623047"/>
     <use xlink:href="#DejaVuSans-32" x="98.828125"/>
     <use xlink:href="#DejaVuSans-30" x="162.451172"/>
     <use xlink:href="#DejaVuSans-2d" x="226.074219"/>
     <use xlink:href="#DejaVuSans-66" x="262.158203"/>
     <use xlink:href="#DejaVuSans-32" x="297.363281"/>
     <use xlink:href="#DejaVuSans-34" x="360.986328"/>
     <use xlink:href="#DejaVuSans-7d" x="424.609375"/>
     <use xlink:href="#DejaVuSans-2c" x="488.232422"/>
     <use xlink:href="#DejaVuSans-20" x="520.019531"/>
     <use xlink:href="#DejaVuSans-35" x="551.806641"/>
     <use xlink:href="#DejaVuSans-2d" x="615.429688"/>
     <use xlink:href="#DejaVuSans-44" x="651.513672"/>
    </g>
   </g>
   <g id="text_7">
    <!-- v2.6.3 -->
    <g style="fill: #808080" transform="translate(214.71875 288.777272) scale(0.1 -0.1)">
     <defs>
      <path id="DejaVuSans-76" d="M 191 3500 
L 800 3500 
L 1894 563 
L 2988 3500 
L 3597 3500 
L 2284 0 
L 1503 0 
L 191 3500 
z
" transform="scale(0.015625)"/>
      <path id="DejaVuSans-2e" d="M 684 794 
L 1344 794 
L 1344 0 
L 684 0 
L 684 794 
z
" transform="scale(0.015625)"/>
      <path id="DejaVuSans-36" d="M 2113 2584 
Q 1688 2584 1439 2293 
Q 1191 2003 1191 1497 
Q 1191 994 1439 701 
Q 1688 409 2113 409 
Q 2538 409 2786 701 
Q 3034 994 3034 1497 
Q 3034 2003 2786 2293 
Q 2538 2584 2113 2584 
z
M 3366 4563 
L 3366 3988 
Q 3128 4100 2886 4159 
Q 2644 4219 2406 4219 
Q 1781 4219 1451 3797 
Q 1122 3375 1075 2522 
Q 1259 2794 1537 2939 
Q 1816 3084 2150 3084 
Q 2853 3084 3261 2657 
Q 3669 2231 3669 1497 
Q 3669 778 3244 343 
Q 2819 -91 2113 -91 
Q 1303 -91 875 529 
Q 447 1150 447 2328 
Q 447 3434 972 4092 
Q 1497 4750 2381 4750 
Q 2619 4750 2861 4703 
Q 3103 4656 3366 4563 
z
" transform="scale(0.015625)"/>
      <path id="DejaVuSans-33" d="M 2597 2516 
Q 3050 2419 3304 2112 
Q 3559 1806 3559 1356 
Q 3559 666 3084 287 
Q 2609 -91 1734 -91 
Q 1441 -91 1130 -33 
Q 819 25 488 141 
L 488 750 
Q 750 597 1062 519 
Q 1375 441 1716 441 
Q 2309 441 2620 675 
Q 2931 909 2931 1356 
Q 2931 1769 2642 2001 
Q 2353 2234 1838 2234 
L 1294 2234 
L 1294 2753 
L 1863 2753 
Q 2328 2753 2575 2939 
Q 2822 3125 2822 3475 
Q 2822 3834 2567 4026 
Q 2313 4219 1838 4219 
Q 1578 4219 1281 4162 
Q 984 4106 628 3988 
L 628 4550 
Q 988 4650 1302 4700 
Q 1616 4750 1894 4750 
Q 2613 4750 3031 4423 
Q 3450 4097 3450 3541 
Q 3450 3153 3228 2886 
Q 3006 2619 2597 2516 
z
" transform="scale(0.015625)"/>
     </defs>
     <use xlink:href="#DejaVuSans-76"/>
     <use xlink:href="#DejaVuSans-32" x="59.179688"/>
     <use xlink:href="#DejaVuSans-2e" x="122.802734"/>
     <use xlink:href="#DejaVuSans-36" x="154.589844"/>
     <use xlink:href="#DejaVuSans-2e" x="218.212891"/>
     <use xlink:href="#DejaVuSans-33" x="250"/>
    </g>
   </g>
  </g>
 </g>
 <defs>
  <clipPath id="p1bd6ffce2b">
   <rect x="0" y="3.456" width="460.8" height="290.304"/>
  </clipPath>
 </defs>
</svg>
