<?xml version="1.0" encoding="utf-8" standalone="no"?>
<!DOCTYPE svg PUBLIC "-//W3C//DTD SVG 1.1//EN"
  "http://www.w3.org/Graphics/SVG/1.1/DTD/svg11.dtd">
<svg xmlns:xlink="http://www.w3.org/1999/xlink" width="460.8pt" height="345.6pt" viewBox="0 0 460.8 345.6" xmlns="http://www.w3.org/2000/svg" version="1.1">
 <metadata>
  <rdf:RDF xmlns:dc="http://purl.org/dc/elements/1.1/" xmlns:cc="http://creativecommons.org/ns#" xmlns:rdf="http://www.w3.org/1999/02/22-rdf-syntax-ns#">
   <cc:Work>
    <dc:type rdf:resource="http://purl.org/dc/dcmitype/StillImage"/>
    <dc:date>2024-06-21T19:46:26.658315</dc:date>
    <dc:format>image/svg+xml</dc:format>
    <dc:creator>
     <cc:Agent>
      <dc:title>Matplotlib v3.7.5, https://matplotlib.org/</dc:title>
     </cc:Agent>
    </dc:creator>
   </cc:Work>
  </rdf:RDF>
 </metadata>
 <defs>
  <style type="text/css">*{stroke-linejoin: round; stroke-linecap: butt}</style>
 </defs>
 <g id="figure_1">
  <g id="patch_1">
   <path d="M 0 345.6 
L 460.8 345.6 
L 460.8 0 
L 0 0 
z
" style="fill: #ffffff"/>
  </g>
  <g id="axes_1">
   <g id="patch_2">
    <path d="M 0 293.76 
L 460.8 293.76 
L 460.8 3.456 
L 0 3.456 
z
" style="fill: #ffffff"/>
   </g>
   <g id="matplotlib.axis_1">
    <g id="xtick_1">
     <g id="line2d_1">
      <path d="M 93.065885 293.76 
L 93.065885 3.456 
" clip-path="url(#pca0cfe1908)" style="fill: none; stroke: #b0b0b0; stroke-width: 0.8; stroke-linecap: square"/>
     </g>
     <g id="line2d_2">
      <defs>
       <path id="m8dcfc44200" d="M 0 0 
L 0 3.5 
" style="stroke: #000000; stroke-width: 0.8"/>
      </defs>
      <g>
       <use xlink:href="#m8dcfc44200" x="93.065885" y="293.76" style="stroke: #000000; stroke-width: 0.8"/>
      </g>
     </g>
     <g id="text_1">
      <!-- -4 -->
      <g transform="translate(83.095573 315.956875) scale(0.2 -0.2)">
       <defs>
        <path id="DejaVuSans-2d" d="M 313 2009 
L 1997 2009 
L 1997 1497 
L 313 1497 
L 313 2009 
z
" transform="scale(0.015625)"/>
        <path id="DejaVuSans-34" d="M 2419 4116 
L 825 1625 
L 2419 1625 
L 2419 4116 
z
M 2253 4666 
L 3047 4666 
L 3047 1625 
L 3713 1625 
L 3713 1100 
L 3047 1100 
L 3047 0 
L 2419 0 
L 2419 1100 
L 313 1100 
L 313 1709 
L 2253 4666 
z
" transform="scale(0.015625)"/>
       </defs>
       <use xlink:href="#DejaVuSans-2d"/>
       <use xlink:href="#DejaVuSans-34" x="36.083984"/>
      </g>
     </g>
    </g>
    <g id="xtick_2">
     <g id="line2d_3">
      <path d="M 186.232423 293.76 
L 186.232423 3.456 
" clip-path="url(#pca0cfe1908)" style="fill: none; stroke: #b0b0b0; stroke-width: 0.8; stroke-linecap: square"/>
     </g>
     <g id="line2d_4">
      <g>
       <use xlink:href="#m8dcfc44200" x="186.232423" y="293.76" style="stroke: #000000; stroke-width: 0.8"/>
      </g>
     </g>
     <g id="text_2">
      <!-- 0 -->
      <g transform="translate(179.869923 315.956875) scale(0.2 -0.2)">
       <defs>
        <path id="DejaVuSans-30" d="M 2034 4250 
Q 1547 4250 1301 3770 
Q 1056 3291 1056 2328 
Q 1056 1369 1301 889 
Q 1547 409 2034 409 
Q 2525 409 2770 889 
Q 3016 1369 3016 2328 
Q 3016 3291 2770 3770 
Q 2525 4250 2034 4250 
z
M 2034 4750 
Q 2819 4750 3233 4129 
Q 3647 3509 3647 2328 
Q 3647 1150 3233 529 
Q 2819 -91 2034 -91 
Q 1250 -91 836 529 
Q 422 1150 422 2328 
Q 422 3509 836 4129 
Q 1250 4750 2034 4750 
z
" transform="scale(0.015625)"/>
       </defs>
       <use xlink:href="#DejaVuSans-30"/>
      </g>
     </g>
    </g>
    <g id="xtick_3">
     <g id="line2d_5">
      <path d="M 279.39896 293.76 
L 279.39896 3.456 
" clip-path="url(#pca0cfe1908)" style="fill: none; stroke: #b0b0b0; stroke-width: 0.8; stroke-linecap: square"/>
     </g>
     <g id="line2d_6">
      <g>
       <use xlink:href="#m8dcfc44200" x="279.39896" y="293.76" style="stroke: #000000; stroke-width: 0.8"/>
      </g>
     </g>
     <g id="text_3">
      <!-- 4 -->
      <g transform="translate(273.03646 315.956875) scale(0.2 -0.2)">
       <use xlink:href="#DejaVuSans-34"/>
      </g>
     </g>
    </g>
    <g id="xtick_4">
     <g id="line2d_7">
      <path d="M 372.565497 293.76 
L 372.565497 3.456 
" clip-path="url(#pca0cfe1908)" style="fill: none; stroke: #b0b0b0; stroke-width: 0.8; stroke-linecap: square"/>
     </g>
     <g id="line2d_8">
      <g>
       <use xlink:href="#m8dcfc44200" x="372.565497" y="293.76" style="stroke: #000000; stroke-width: 0.8"/>
      </g>
     </g>
     <g id="text_4">
      <!-- 8 -->
      <g transform="translate(366.202997 315.956875) scale(0.2 -0.2)">
       <defs>
        <path id="DejaVuSans-38" d="M 2034 2216 
Q 1584 2216 1326 1975 
Q 1069 1734 1069 1313 
Q 1069 891 1326 650 
Q 1584 409 2034 409 
Q 2484 409 2743 651 
Q 3003 894 3003 1313 
Q 3003 1734 2745 1975 
Q 2488 2216 2034 2216 
z
M 1403 2484 
Q 997 2584 770 2862 
Q 544 3141 544 3541 
Q 544 4100 942 4425 
Q 1341 4750 2034 4750 
Q 2731 4750 3128 4425 
Q 3525 4100 3525 3541 
Q 3525 3141 3298 2862 
Q 3072 2584 2669 2484 
Q 3125 2378 3379 2068 
Q 3634 1759 3634 1313 
Q 3634 634 3220 271 
Q 2806 -91 2034 -91 
Q 1263 -91 848 271 
Q 434 634 434 1313 
Q 434 1759 690 2068 
Q 947 2378 1403 2484 
z
M 1172 3481 
Q 1172 3119 1398 2916 
Q 1625 2713 2034 2713 
Q 2441 2713 2670 2916 
Q 2900 3119 2900 3481 
Q 2900 3844 2670 4047 
Q 2441 4250 2034 4250 
Q 1625 4250 1398 4047 
Q 1172 3844 1172 3481 
z
" transform="scale(0.015625)"/>
       </defs>
       <use xlink:href="#DejaVuSans-38"/>
      </g>
     </g>
    </g>
    <g id="text_5">
     <!-- log10 of Df -->
     <g transform="translate(175.214063 339.313125) scale(0.2 -0.2)">
      <defs>
       <path id="DejaVuSans-6c" d="M 603 4863 
L 1178 4863 
L 1178 0 
L 603 0 
L 603 4863 
z
" transform="scale(0.015625)"/>
       <path id="DejaVuSans-6f" d="M 1959 3097 
Q 1497 3097 1228 2736 
Q 959 2375 959 1747 
Q 959 1119 1226 758 
Q 1494 397 1959 397 
Q 2419 397 2687 759 
Q 2956 1122 2956 1747 
Q 2956 2369 2687 2733 
Q 2419 3097 1959 3097 
z
M 1959 3584 
Q 2709 3584 3137 3096 
Q 3566 2609 3566 1747 
Q 3566 888 3137 398 
Q 2709 -91 1959 -91 
Q 1206 -91 779 398 
Q 353 888 353 1747 
Q 353 2609 779 3096 
Q 1206 3584 1959 3584 
z
" transform="scale(0.015625)"/>
       <path id="DejaVuSans-67" d="M 2906 1791 
Q 2906 2416 2648 2759 
Q 2391 3103 1925 3103 
Q 1463 3103 1205 2759 
Q 947 2416 947 1791 
Q 947 1169 1205 825 
Q 1463 481 1925 481 
Q 2391 481 2648 825 
Q 2906 1169 2906 1791 
z
M 3481 434 
Q 3481 -459 3084 -895 
Q 2688 -1331 1869 -1331 
Q 1566 -1331 1297 -1286 
Q 1028 -1241 775 -1147 
L 775 -588 
Q 1028 -725 1275 -790 
Q 1522 -856 1778 -856 
Q 2344 -856 2625 -561 
Q 2906 -266 2906 331 
L 2906 616 
Q 2728 306 2450 153 
Q 2172 0 1784 0 
Q 1141 0 747 490 
Q 353 981 353 1791 
Q 353 2603 747 3093 
Q 1141 3584 1784 3584 
Q 2172 3584 2450 3431 
Q 2728 3278 2906 2969 
L 2906 3500 
L 3481 3500 
L 3481 434 
z
" transform="scale(0.015625)"/>
       <path id="DejaVuSans-31" d="M 794 531 
L 1825 531 
L 1825 4091 
L 703 3866 
L 703 4441 
L 1819 4666 
L 2450 4666 
L 2450 531 
L 3481 531 
L 3481 0 
L 794 0 
L 794 531 
z
" transform="scale(0.015625)"/>
       <path id="DejaVuSans-20" transform="scale(0.015625)"/>
       <path id="DejaVuSans-66" d="M 2375 4863 
L 2375 4384 
L 1825 4384 
Q 1516 4384 1395 4259 
Q 1275 4134 1275 3809 
L 1275 3500 
L 2222 3500 
L 2222 3053 
L 1275 3053 
L 1275 0 
L 697 0 
L 697 3053 
L 147 3053 
L 147 3500 
L 697 3500 
L 697 3744 
Q 697 4328 969 4595 
Q 1241 4863 1831 4863 
L 2375 4863 
z
" transform="scale(0.015625)"/>
       <path id="DejaVuSans-44" d="M 1259 4147 
L 1259 519 
L 2022 519 
Q 2988 519 3436 956 
Q 3884 1394 3884 2338 
Q 3884 3275 3436 3711 
Q 2988 4147 2022 4147 
L 1259 4147 
z
M 628 4666 
L 1925 4666 
Q 3281 4666 3915 4102 
Q 4550 3538 4550 2338 
Q 4550 1131 3912 565 
Q 3275 0 1925 0 
L 628 0 
L 628 4666 
z
" transform="scale(0.015625)"/>
      </defs>
      <use xlink:href="#DejaVuSans-6c"/>
      <use xlink:href="#DejaVuSans-6f" x="27.783203"/>
      <use xlink:href="#DejaVuSans-67" x="88.964844"/>
      <use xlink:href="#DejaVuSans-31" x="152.441406"/>
      <use xlink:href="#DejaVuSans-30" x="216.064453"/>
      <use xlink:href="#DejaVuSans-20" x="279.6875"/>
      <use xlink:href="#DejaVuSans-6f" x="311.474609"/>
      <use xlink:href="#DejaVuSans-66" x="372.65625"/>
      <use xlink:href="#DejaVuSans-20" x="407.861328"/>
      <use xlink:href="#DejaVuSans-44" x="439.648438"/>
      <use xlink:href="#DejaVuSans-66" x="516.650391"/>
     </g>
    </g>
   </g>
   <g id="matplotlib.axis_2">
    <g id="ytick_1">
     <g id="line2d_9">
      <path d="M 0 293.76 
L 460.8 293.76 
" clip-path="url(#pca0cfe1908)" style="fill: none; stroke: #b0b0b0; stroke-width: 0.8; stroke-linecap: square"/>
     </g>
     <g id="line2d_10">
      <defs>
       <path id="m4643fe908d" d="M 0 0 
L -3.5 0 
" style="stroke: #000000; stroke-width: 0.8"/>
      </defs>
      <g>
       <use xlink:href="#m4643fe908d" x="0" y="293.76" style="stroke: #000000; stroke-width: 0.8"/>
      </g>
     </g>
    </g>
    <g id="ytick_2">
     <g id="line2d_11">
      <path d="M 0 236.274059 
L 460.8 236.274059 
" clip-path="url(#pca0cfe1908)" style="fill: none; stroke: #b0b0b0; stroke-width: 0.8; stroke-linecap: square"/>
     </g>
     <g id="line2d_12">
      <g>
       <use xlink:href="#m4643fe908d" x="0" y="236.274059" style="stroke: #000000; stroke-width: 0.8"/>
      </g>
     </g>
    </g>
    <g id="ytick_3">
     <g id="line2d_13">
      <path d="M 0 178.788119 
L 460.8 178.788119 
" clip-path="url(#pca0cfe1908)" style="fill: none; stroke: #b0b0b0; stroke-width: 0.8; stroke-linecap: square"/>
     </g>
     <g id="line2d_14">
      <g>
       <use xlink:href="#m4643fe908d" x="0" y="178.788119" style="stroke: #000000; stroke-width: 0.8"/>
      </g>
     </g>
    </g>
    <g id="ytick_4">
     <g id="line2d_15">
      <path d="M 0 121.302178 
L 460.8 121.302178 
" clip-path="url(#pca0cfe1908)" style="fill: none; stroke: #b0b0b0; stroke-width: 0.8; stroke-linecap: square"/>
     </g>
     <g id="line2d_16">
      <g>
       <use xlink:href="#m4643fe908d" x="0" y="121.302178" style="stroke: #000000; stroke-width: 0.8"/>
      </g>
     </g>
    </g>
    <g id="ytick_5">
     <g id="line2d_17">
      <path d="M 0 63.816238 
L 460.8 63.816238 
" clip-path="url(#pca0cfe1908)" style="fill: none; stroke: #b0b0b0; stroke-width: 0.8; stroke-linecap: square"/>
     </g>
     <g id="line2d_18">
      <g>
       <use xlink:href="#m4643fe908d" x="0" y="63.816238" style="stroke: #000000; stroke-width: 0.8"/>
      </g>
     </g>
    </g>
    <g id="ytick_6">
     <g id="line2d_19">
      <path d="M 0 6.330297 
L 460.8 6.330297 
" clip-path="url(#pca0cfe1908)" style="fill: none; stroke: #b0b0b0; stroke-width: 0.8; stroke-linecap: square"/>
     </g>
     <g id="line2d_20">
      <g>
       <use xlink:href="#m4643fe908d" x="0" y="6.330297" style="stroke: #000000; stroke-width: 0.8"/>
      </g>
     </g>
    </g>
   </g>
   <g id="line2d_21">
    <path d="M -1 221.902574 
L -0.100652 221.902574 
L -0.100652 217.112079 
L -0.100652 217.112079 
L -0.100652 212.321584 
L -0.100652 212.321584 
L -0.100652 207.531089 
L -0.100652 207.531089 
L -0.100652 202.740594 
L -0.100652 202.740594 
L -0.100652 197.950099 
L -0.100652 197.950099 
L -0.100652 193.159604 
L -0.100652 193.159604 
L -0.100652 188.369109 
L -0.100652 188.369109 
L -0.100652 183.578614 
L -0.100652 183.578614 
L -0.100652 178.788119 
L -0.100652 178.788119 
L -0.100652 173.997624 
L -0.100652 173.997624 
L -0.100652 169.207129 
L -0.100652 169.207129 
L -0.100652 164.416634 
L -0.100652 164.416634 
L -0.100652 159.626139 
L -0.100652 159.626139 
L -0.100652 154.835644 
L -0.100652 154.835644 
L -0.100652 150.045149 
L -0.100652 150.045149 
L -0.100652 145.254653 
L -0.100652 145.254653 
L -0.100652 140.464158 
L -0.100652 140.464158 
L -0.100652 135.673663 
L -0.100652 135.673663 
L -0.100652 130.883168 
L -0.100652 130.883168 
L -0.100652 126.092673 
L -0.100652 126.092673 
L -0.100652 121.302178 
L -0.100652 121.302178 
L -0.100652 116.511683 
L -0.100652 116.511683 
L -0.100652 111.721188 
L -0.100652 111.721188 
L -0.100652 106.930693 
L -0.100652 106.930693 
L -0.100652 102.140198 
L -0.100652 102.140198 
L -0.100652 97.349703 
L -0.100652 97.349703 
L -0.100652 92.559208 
L -0.100652 92.559208 
L -0.100652 87.768713 
L -0.100652 87.768713 
L -0.100652 82.978218 
L -0.100652 82.978218 
L -0.100652 78.187723 
L -0.100652 78.187723 
L -0.100652 73.397228 
L -0.100652 73.397228 
L -0.100652 68.606733 
L 165.757272 68.606733 
L 165.757272 63.816238 
L 170.476894 63.816238 
L 170.476894 59.025743 
L 175.369565 59.025743 
L 175.369565 54.235248 
L 175.699199 54.235248 
L 175.699199 49.444752 
L 179.380835 49.444752 
L 179.380835 44.654257 
L 180.836469 44.654257 
L 180.836469 39.863762 
L 182.053696 39.863762 
L 182.053696 35.073267 
L 187.980481 35.073267 
L 187.980481 30.282772 
L 188.26652 30.282772 
L 188.26652 25.492277 
L 194.60637 25.492277 
L 194.60637 20.701782 
L 200.078957 20.701782 
L 200.078957 15.911287 
L 200.078957 15.911287 
L 200.078957 11.120792 
L 204.326351 11.120792 
L 204.326351 6.330297 
L 204.326351 6.330297 
L 204.326351 6.330297 
L 460.8 6.330297 
" clip-path="url(#pca0cfe1908)" style="fill: none; stroke: #ff0000; stroke-width: 3; stroke-linecap: square"/>
   </g>
   <g id="line2d_22">
    <path d="M 234.356704 293.76 
L 234.356704 288.969505 
L 236.779293 288.969505 
L 236.779293 284.17901 
L 237.307992 284.17901 
L 237.307992 279.388515 
L 238.168741 279.388515 
L 238.168741 274.59802 
L 243.586465 274.59802 
L 243.586465 269.807525 
L 245.10673 269.807525 
L 245.10673 265.01703 
L 245.20046 265.01703 
L 245.20046 260.226535 
L 248.681047 260.226535 
L 248.681047 255.43604 
L 252.136697 255.43604 
L 252.136697 250.645545 
L 254.051393 250.645545 
L 254.051393 245.85505 
L 254.278878 245.85505 
L 254.278878 241.064554 
L 256.102808 241.064554 
L 256.102808 236.274059 
L 256.416072 236.274059 
L 256.416072 231.483564 
L 257.276188 231.483564 
L 257.276188 226.693069 
L 257.678987 226.693069 
L 257.678987 221.902574 
L 258.615139 221.902574 
L 258.615139 217.112079 
L 269.505674 217.112079 
L 269.505674 212.321584 
L 277.805519 212.321584 
L 277.805519 207.531089 
L 278.473038 207.531089 
L 278.473038 202.740594 
L 281.876061 202.740594 
L 281.876061 197.950099 
L 283.506281 197.950099 
L 283.506281 193.159604 
L 285.151257 193.159604 
L 285.151257 188.369109 
L 286.270428 188.369109 
L 286.270428 183.578614 
L 287.953987 183.578614 
L 287.953987 178.788119 
L 288.433568 178.788119 
L 288.433568 173.997624 
L 289.27983 173.997624 
L 289.27983 169.207129 
L 290.42904 169.207129 
L 290.42904 164.416634 
L 291.219972 164.416634 
L 291.219972 159.626139 
L 291.545914 159.626139 
L 291.545914 154.835644 
L 291.655707 154.835644 
L 291.655707 150.045149 
L 291.724707 150.045149 
L 291.724707 145.254653 
L 291.999242 145.254653 
L 291.999242 140.464158 
L 292.966419 140.464158 
L 292.966419 135.673663 
L 293.379206 135.673663 
L 293.379206 130.883168 
L 294.100477 130.883168 
L 294.100477 126.092673 
L 297.357953 126.092673 
L 297.357953 121.302178 
L 297.380796 121.302178 
L 297.380796 116.511683 
L 297.866973 116.511683 
L 297.866973 111.721188 
L 297.888316 111.721188 
L 297.888316 106.930693 
L 298.361371 106.930693 
L 298.361371 102.140198 
L 299.15033 102.140198 
L 299.15033 97.349703 
L 299.389882 97.349703 
L 299.389882 92.559208 
L 299.611682 92.559208 
L 299.611682 87.768713 
L 300.297874 87.768713 
L 300.297874 82.978218 
L 301.962717 82.978218 
L 301.962717 78.187723 
L 302.40238 78.187723 
L 302.40238 73.397228 
L 303.052527 73.397228 
L 303.052527 68.606733 
L 304.842375 68.606733 
L 304.842375 63.816238 
L 306.618529 63.816238 
L 306.618529 59.025743 
L 308.04093 59.025743 
L 308.04093 54.235248 
L 308.747402 54.235248 
L 308.747402 49.444752 
L 310.738963 49.444752 
L 310.738963 44.654257 
L 312.573877 44.654257 
L 312.573877 39.863762 
L 313.177298 39.863762 
L 313.177298 35.073267 
L 313.76346 35.073267 
L 313.76346 30.282772 
L 313.949451 30.282772 
L 313.949451 25.492277 
L 313.995965 25.492277 
L 313.995965 20.701782 
L 315.990035 20.701782 
L 315.990035 15.911287 
L 320.529839 15.911287 
L 320.529839 11.120792 
L 324.411648 11.120792 
L 324.411648 6.330297 
L 324.411648 6.330297 
L 324.411648 6.330297 
L 460.8 6.330297 
" clip-path="url(#pca0cfe1908)" style="fill: none; stroke: #00bfbf; stroke-width: 1.5; stroke-linecap: square"/>
   </g>
   <g id="line2d_23">
    <path d="M 221.571037 293.76 
L 221.571037 288.969505 
L 232.42569 288.969505 
L 232.42569 284.17901 
L 233.899052 284.17901 
L 233.899052 279.388515 
L 234.109075 279.388515 
L 234.109075 274.59802 
L 234.356704 274.59802 
L 234.356704 269.807525 
L 236.036594 269.807525 
L 236.036594 265.01703 
L 236.323349 265.01703 
L 236.323349 260.226535 
L 236.779293 260.226535 
L 236.779293 255.43604 
L 237.094597 255.43604 
L 237.094597 250.645545 
L 237.807586 250.645545 
L 237.807586 245.85505 
L 238.168741 245.85505 
L 238.168741 241.064554 
L 238.589944 241.064554 
L 238.589944 236.274059 
L 239.734763 236.274059 
L 239.734763 231.483564 
L 239.946445 231.483564 
L 239.946445 226.693069 
L 243.586465 226.693069 
L 243.586465 221.902574 
L 247.872376 221.902574 
L 247.872376 217.112079 
L 251.380128 217.112079 
L 251.380128 212.321584 
L 266.18434 212.321584 
L 266.18434 207.531089 
L 269.505674 207.531089 
L 269.505674 202.740594 
L 277.39681 202.740594 
L 277.39681 197.950099 
L 277.717993 197.950099 
L 277.717993 193.159604 
L 277.805519 193.159604 
L 277.805519 188.369109 
L 278.243867 188.369109 
L 278.243867 183.578614 
L 278.473038 183.578614 
L 278.473038 178.788119 
L 281.730434 178.788119 
L 281.730434 173.997624 
L 281.876061 173.997624 
L 281.876061 169.207129 
L 282.777451 169.207129 
L 282.777451 164.416634 
L 283.506281 164.416634 
L 283.506281 159.626139 
L 285.151257 159.626139 
L 285.151257 154.835644 
L 285.210993 154.835644 
L 285.210993 150.045149 
L 286.270428 150.045149 
L 286.270428 145.254653 
L 287.065142 145.254653 
L 287.065142 140.464158 
L 287.137829 140.464158 
L 287.137829 135.673663 
L 287.325119 135.673663 
L 287.325119 130.883168 
L 288.433568 130.883168 
L 288.433568 126.092673 
L 289.256207 126.092673 
L 289.256207 121.302178 
L 289.27983 121.302178 
L 289.27983 116.511683 
L 289.35959 116.511683 
L 289.35959 111.721188 
L 290.094385 111.721188 
L 290.094385 106.930693 
L 290.42904 106.930693 
L 290.42904 102.140198 
L 291.545914 102.140198 
L 291.545914 97.349703 
L 291.575211 97.349703 
L 291.575211 92.559208 
L 291.655707 92.559208 
L 291.655707 87.768713 
L 291.657049 87.768713 
L 291.657049 82.978218 
L 291.999242 82.978218 
L 291.999242 78.187723 
L 293.623962 78.187723 
L 293.623962 73.397228 
L 297.866973 73.397228 
L 297.866973 68.606733 
L 297.888316 68.606733 
L 297.888316 63.816238 
L 297.993867 63.816238 
L 297.993867 59.025743 
L 298.361371 59.025743 
L 298.361371 54.235248 
L 299.389882 54.235248 
L 299.389882 49.444752 
L 301.962717 49.444752 
L 301.962717 44.654257 
L 302.40238 44.654257 
L 302.40238 39.863762 
L 303.052527 39.863762 
L 303.052527 35.073267 
L 304.842375 35.073267 
L 304.842375 30.282772 
L 306.69719 30.282772 
L 306.69719 25.492277 
L 307.653445 25.492277 
L 307.653445 20.701782 
L 308.04093 20.701782 
L 308.04093 15.911287 
L 310.738963 15.911287 
L 310.738963 11.120792 
L 313.490764 11.120792 
L 313.490764 6.330297 
L 313.490764 6.330297 
L 313.490764 6.330297 
L 460.8 6.330297 
" clip-path="url(#pca0cfe1908)" style="fill: none; stroke: #bf00bf; stroke-width: 1.5; stroke-linecap: square"/>
   </g>
   <g id="line2d_24">
    <path d="M 218.841738 293.76 
L 218.841738 288.969505 
L 221.571037 288.969505 
L 221.571037 284.17901 
L 222.642877 284.17901 
L 222.642877 279.388515 
L 227.137026 279.388515 
L 227.137026 274.59802 
L 227.503776 274.59802 
L 227.503776 269.807525 
L 229.477601 269.807525 
L 229.477601 265.01703 
L 232.099309 265.01703 
L 232.099309 260.226535 
L 232.42569 260.226535 
L 232.42569 255.43604 
L 233.899052 255.43604 
L 233.899052 250.645545 
L 234.019167 250.645545 
L 234.019167 245.85505 
L 234.109075 245.85505 
L 234.109075 241.064554 
L 234.171957 241.064554 
L 234.171957 236.274059 
L 236.036594 236.274059 
L 236.036594 231.483564 
L 236.323349 231.483564 
L 236.323349 226.693069 
L 237.094597 226.693069 
L 237.094597 221.902574 
L 237.394952 221.902574 
L 237.394952 217.112079 
L 238.168741 217.112079 
L 238.168741 212.321584 
L 238.783772 212.321584 
L 238.783772 207.531089 
L 240.339542 207.531089 
L 240.339542 202.740594 
L 240.612735 202.740594 
L 240.612735 197.950099 
L 245.733189 197.950099 
L 245.733189 193.159604 
L 253.33867 193.159604 
L 253.33867 188.369109 
L 257.49713 188.369109 
L 257.49713 183.578614 
L 260.202526 183.578614 
L 260.202526 178.788119 
L 264.724055 178.788119 
L 264.724055 173.997624 
L 266.18434 173.997624 
L 266.18434 169.207129 
L 266.609844 169.207129 
L 266.609844 164.416634 
L 266.677772 164.416634 
L 266.677772 159.626139 
L 266.775614 159.626139 
L 266.775614 154.835644 
L 269.205433 154.835644 
L 269.205433 150.045149 
L 269.505674 150.045149 
L 269.505674 145.254653 
L 270.819446 145.254653 
L 270.819446 140.464158 
L 271.8984 140.464158 
L 271.8984 135.673663 
L 272.500656 135.673663 
L 272.500656 130.883168 
L 272.971572 130.883168 
L 272.971572 126.092673 
L 273.071166 126.092673 
L 273.071166 121.302178 
L 275.951806 121.302178 
L 275.951806 116.511683 
L 276.280713 116.511683 
L 276.280713 111.721188 
L 276.6077 111.721188 
L 276.6077 106.930693 
L 277.344709 106.930693 
L 277.344709 102.140198 
L 277.39681 102.140198 
L 277.39681 97.349703 
L 277.493215 97.349703 
L 277.493215 92.559208 
L 278.064605 92.559208 
L 278.064605 87.768713 
L 278.243867 87.768713 
L 278.243867 82.978218 
L 279.166028 82.978218 
L 279.166028 78.187723 
L 280.176393 78.187723 
L 280.176393 73.397228 
L 283.506281 73.397228 
L 283.506281 68.606733 
L 283.829239 68.606733 
L 283.829239 63.816238 
L 284.302939 63.816238 
L 284.302939 59.025743 
L 285.742574 59.025743 
L 285.742574 54.235248 
L 286.265364 54.235248 
L 286.265364 49.444752 
L 286.487769 49.444752 
L 286.487769 44.654257 
L 289.882633 44.654257 
L 289.882633 39.863762 
L 292.067092 39.863762 
L 292.067092 35.073267 
L 292.11604 35.073267 
L 292.11604 30.282772 
L 296.248007 30.282772 
L 296.248007 25.492277 
L 297.297485 25.492277 
L 297.297485 20.701782 
L 301.948649 20.701782 
L 301.948649 15.911287 
L 303.052527 15.911287 
L 303.052527 11.120792 
L 304.223034 11.120792 
L 304.223034 6.330297 
L 304.223034 6.330297 
L 304.223034 6.330297 
L 460.8 6.330297 
" clip-path="url(#pca0cfe1908)" style="fill: none; stroke: #000000; stroke-width: 1.5; stroke-linecap: square"/>
   </g>
   <g id="line2d_25">
    <path d="M 214.362743 293.76 
L 214.362743 288.969505 
L 215.077706 288.969505 
L 215.077706 284.17901 
L 217.118264 284.17901 
L 217.118264 279.388515 
L 218.841738 279.388515 
L 218.841738 274.59802 
L 219.070938 274.59802 
L 219.070938 269.807525 
L 219.245496 269.807525 
L 219.245496 265.01703 
L 219.647566 265.01703 
L 219.647566 260.226535 
L 224.410907 260.226535 
L 224.410907 255.43604 
L 225.085951 255.43604 
L 225.085951 250.645545 
L 225.254605 250.645545 
L 225.254605 245.85505 
L 225.416297 245.85505 
L 225.416297 241.064554 
L 226.735379 241.064554 
L 226.735379 236.274059 
L 227.137026 236.274059 
L 227.137026 231.483564 
L 227.914005 231.483564 
L 227.914005 226.693069 
L 228.27917 226.693069 
L 228.27917 221.902574 
L 229.200971 221.902574 
L 229.200971 217.112079 
L 229.477601 217.112079 
L 229.477601 212.321584 
L 230.121169 212.321584 
L 230.121169 207.531089 
L 230.653721 207.531089 
L 230.653721 202.740594 
L 231.685435 202.740594 
L 231.685435 197.950099 
L 232.099309 197.950099 
L 232.099309 193.159604 
L 233.582013 193.159604 
L 233.582013 188.369109 
L 233.827056 188.369109 
L 233.827056 183.578614 
L 234.077551 183.578614 
L 234.077551 178.788119 
L 237.879623 178.788119 
L 237.879623 173.997624 
L 238.66311 173.997624 
L 238.66311 169.207129 
L 239.577203 169.207129 
L 239.577203 164.416634 
L 239.879361 164.416634 
L 239.879361 159.626139 
L 240.452285 159.626139 
L 240.452285 154.835644 
L 240.470804 154.835644 
L 240.470804 150.045149 
L 240.758869 150.045149 
L 240.758869 145.254653 
L 241.414823 145.254653 
L 241.414823 140.464158 
L 241.77841 140.464158 
L 241.77841 135.673663 
L 242.404457 135.673663 
L 242.404457 130.883168 
L 243.024696 130.883168 
L 243.024696 126.092673 
L 243.902468 126.092673 
L 243.902468 121.302178 
L 245.733189 121.302178 
L 245.733189 116.511683 
L 248.319125 116.511683 
L 248.319125 111.721188 
L 248.741381 111.721188 
L 248.741381 106.930693 
L 251.51485 106.930693 
L 251.51485 102.140198 
L 252.784412 102.140198 
L 252.784412 97.349703 
L 252.859034 97.349703 
L 252.859034 92.559208 
L 254.064642 92.559208 
L 254.064642 87.768713 
L 254.378927 87.768713 
L 254.378927 82.978218 
L 255.167875 82.978218 
L 255.167875 78.187723 
L 255.311996 78.187723 
L 255.311996 73.397228 
L 255.570421 73.397228 
L 255.570421 68.606733 
L 256.005324 68.606733 
L 256.005324 63.816238 
L 256.939333 63.816238 
L 256.939333 59.025743 
L 257.167031 59.025743 
L 257.167031 54.235248 
L 257.232626 54.235248 
L 257.232626 49.444752 
L 257.319934 49.444752 
L 257.319934 44.654257 
L 257.897056 44.654257 
L 257.897056 39.863762 
L 257.973206 39.863762 
L 257.973206 35.073267 
L 257.98881 35.073267 
L 257.98881 30.282772 
L 258.773414 30.282772 
L 258.773414 25.492277 
L 263.329776 25.492277 
L 263.329776 20.701782 
L 265.03599 20.701782 
L 265.03599 15.911287 
L 275.059456 15.911287 
L 275.059456 11.120792 
L 286.378886 11.120792 
L 286.378886 6.330297 
L 286.378886 6.330297 
L 286.378886 6.330297 
L 460.8 6.330297 
" clip-path="url(#pca0cfe1908)" style="fill: none; stroke: #00bfbf; stroke-width: 1.5; stroke-linecap: square"/>
   </g>
   <g id="line2d_26">
    <path d="M 38.257899 293.76 
L 38.257899 288.969505 
L 145.138774 288.969505 
L 145.138774 284.17901 
L 149.115146 284.17901 
L 149.115146 279.388515 
L 160.177901 279.388515 
L 160.177901 274.59802 
L 162.564961 274.59802 
L 162.564961 269.807525 
L 167.608104 269.807525 
L 167.608104 265.01703 
L 170.476894 265.01703 
L 170.476894 260.226535 
L 170.745811 260.226535 
L 170.745811 255.43604 
L 171.728999 255.43604 
L 171.728999 250.645545 
L 173.335434 250.645545 
L 173.335434 245.85505 
L 175.699199 245.85505 
L 175.699199 241.064554 
L 178.671111 241.064554 
L 178.671111 236.274059 
L 179.380835 236.274059 
L 179.380835 231.483564 
L 179.634955 231.483564 
L 179.634955 226.693069 
L 180.836469 226.693069 
L 180.836469 221.902574 
L 180.992036 221.902574 
L 180.992036 217.112079 
L 181.553804 217.112079 
L 181.553804 212.321584 
L 182.028139 212.321584 
L 182.028139 207.531089 
L 182.053696 207.531089 
L 182.053696 202.740594 
L 185.574296 202.740594 
L 185.574296 197.950099 
L 187.980481 197.950099 
L 187.980481 193.159604 
L 188.19279 193.159604 
L 188.19279 188.369109 
L 188.26652 188.369109 
L 188.26652 183.578614 
L 189.466351 183.578614 
L 189.466351 178.788119 
L 189.559839 178.788119 
L 189.559839 173.997624 
L 191.223821 173.997624 
L 191.223821 169.207129 
L 192.877108 169.207129 
L 192.877108 164.416634 
L 193.90145 164.416634 
L 193.90145 159.626139 
L 194.4442 159.626139 
L 194.4442 154.835644 
L 194.60637 154.835644 
L 194.60637 150.045149 
L 194.91214 150.045149 
L 194.91214 145.254653 
L 195.259286 145.254653 
L 195.259286 140.464158 
L 197.268952 140.464158 
L 197.268952 135.673663 
L 197.336251 135.673663 
L 197.336251 130.883168 
L 198.037074 130.883168 
L 198.037074 126.092673 
L 198.043173 126.092673 
L 198.043173 121.302178 
L 198.324685 121.302178 
L 198.324685 116.511683 
L 198.899764 116.511683 
L 198.899764 111.721188 
L 198.916493 111.721188 
L 198.916493 106.930693 
L 198.971941 106.930693 
L 198.971941 102.140198 
L 199.389734 102.140198 
L 199.389734 97.349703 
L 199.490621 97.349703 
L 199.490621 92.559208 
L 199.860782 92.559208 
L 199.860782 87.768713 
L 199.94457 87.768713 
L 199.94457 82.978218 
L 199.950818 82.978218 
L 199.950818 78.187723 
L 199.958852 78.187723 
L 199.958852 73.397228 
L 199.965713 73.397228 
L 199.965713 68.606733 
L 200.226808 68.606733 
L 200.226808 63.816238 
L 200.420875 63.816238 
L 200.420875 59.025743 
L 200.906214 59.025743 
L 200.906214 54.235248 
L 201.199809 54.235248 
L 201.199809 49.444752 
L 201.388648 49.444752 
L 201.388648 44.654257 
L 201.573377 44.654257 
L 201.573377 39.863762 
L 203.077604 39.863762 
L 203.077604 35.073267 
L 204.203865 35.073267 
L 204.203865 30.282772 
L 204.326351 30.282772 
L 204.326351 25.492277 
L 205.295264 25.492277 
L 205.295264 20.701782 
L 209.901662 20.701782 
L 209.901662 15.911287 
L 213.523246 15.911287 
L 213.523246 11.120792 
L 232.896544 11.120792 
L 232.896544 6.330297 
L 232.896544 6.330297 
L 232.896544 6.330297 
L 460.8 6.330297 
" clip-path="url(#pca0cfe1908)" style="fill: none; stroke: #bf00bf; stroke-width: 1.5; stroke-linecap: square"/>
   </g>
   <g id="line2d_27">
    <path d="M -1 221.902574 
L -0.100652 221.902574 
L -0.100652 217.112079 
L -0.100652 217.112079 
L -0.100652 212.321584 
L -0.100652 212.321584 
L -0.100652 207.531089 
L -0.100652 207.531089 
L -0.100652 202.740594 
L -0.100652 202.740594 
L -0.100652 197.950099 
L -0.100652 197.950099 
L -0.100652 193.159604 
L -0.100652 193.159604 
L -0.100652 188.369109 
L -0.100652 188.369109 
L -0.100652 183.578614 
L -0.100652 183.578614 
L -0.100652 178.788119 
L -0.100652 178.788119 
L -0.100652 173.997624 
L -0.100652 173.997624 
L -0.100652 169.207129 
L -0.100652 169.207129 
L -0.100652 164.416634 
L -0.100652 164.416634 
L -0.100652 159.626139 
L -0.100652 159.626139 
L -0.100652 154.835644 
L -0.100652 154.835644 
L -0.100652 150.045149 
L -0.100652 150.045149 
L -0.100652 145.254653 
L -0.100652 145.254653 
L -0.100652 140.464158 
L -0.100652 140.464158 
L -0.100652 135.673663 
L -0.100652 135.673663 
L -0.100652 130.883168 
L -0.100652 130.883168 
L -0.100652 126.092673 
L -0.100652 126.092673 
L -0.100652 121.302178 
L -0.100652 121.302178 
L -0.100652 116.511683 
L -0.100652 116.511683 
L -0.100652 111.721188 
L -0.100652 111.721188 
L -0.100652 106.930693 
L -0.100652 106.930693 
L -0.100652 102.140198 
L -0.100652 102.140198 
L -0.100652 97.349703 
L -0.100652 97.349703 
L -0.100652 92.559208 
L -0.100652 92.559208 
L -0.100652 87.768713 
L -0.100652 87.768713 
L -0.100652 82.978218 
L -0.100652 82.978218 
L -0.100652 78.187723 
L -0.100652 78.187723 
L -0.100652 73.397228 
L -0.100652 73.397228 
L -0.100652 68.606733 
L 165.757272 68.606733 
L 165.757272 63.816238 
L 170.476894 63.816238 
L 170.476894 59.025743 
L 175.369565 59.025743 
L 175.369565 54.235248 
L 175.699199 54.235248 
L 175.699199 49.444752 
L 179.380835 49.444752 
L 179.380835 44.654257 
L 180.836469 44.654257 
L 180.836469 39.863762 
L 182.053696 39.863762 
L 182.053696 35.073267 
L 187.980481 35.073267 
L 187.980481 30.282772 
L 188.26652 30.282772 
L 188.26652 25.492277 
L 194.60637 25.492277 
L 194.60637 20.701782 
L 200.078957 20.701782 
L 200.078957 15.911287 
L 200.078957 15.911287 
L 200.078957 11.120792 
L 204.326351 11.120792 
L 204.326351 6.330297 
L 204.326351 6.330297 
L 204.326351 6.330297 
L 460.8 6.330297 
" clip-path="url(#pca0cfe1908)" style="fill: none; stroke: #000000; stroke-width: 1.5; stroke-linecap: square"/>
   </g>
   <g id="patch_3">
    <path d="M 0 293.76 
L 0 3.456 
" style="fill: none; stroke: #000000; stroke-width: 0.8; stroke-linejoin: miter; stroke-linecap: square"/>
   </g>
   <g id="patch_4">
    <path d="M 460.8 293.76 
L 460.8 3.456 
" style="fill: none; stroke: #000000; stroke-width: 0.8; stroke-linejoin: miter; stroke-linecap: square"/>
   </g>
   <g id="patch_5">
    <path d="M 0 293.76 
L 460.8 293.76 
" style="fill: none; stroke: #000000; stroke-width: 0.8; stroke-linejoin: miter; stroke-linecap: square"/>
   </g>
   <g id="patch_6">
    <path d="M 0 3.456 
L 460.8 3.456 
" style="fill: none; stroke: #000000; stroke-width: 0.8; stroke-linejoin: miter; stroke-linecap: square"/>
   </g>
   <g id="text_6">
    <!-- {f6-f9}, 5-D -->
    <g transform="translate(331.334 287.95392) scale(0.2 -0.2)">
     <defs>
      <path id="DejaVuSans-7b" d="M 3272 -594 
L 3272 -1044 
L 3078 -1044 
Q 2300 -1044 2036 -812 
Q 1772 -581 1772 109 
L 1772 856 
Q 1772 1328 1603 1509 
Q 1434 1691 991 1691 
L 800 1691 
L 800 2138 
L 991 2138 
Q 1438 2138 1605 2317 
Q 1772 2497 1772 2963 
L 1772 3713 
Q 1772 4403 2036 4633 
Q 2300 4863 3078 4863 
L 3272 4863 
L 3272 4416 
L 3059 4416 
Q 2619 4416 2484 4278 
Q 2350 4141 2350 3700 
L 2350 2925 
Q 2350 2434 2208 2212 
Q 2066 1991 1722 1913 
Q 2069 1828 2209 1606 
Q 2350 1384 2350 897 
L 2350 122 
Q 2350 -319 2484 -456 
Q 2619 -594 3059 -594 
L 3272 -594 
z
" transform="scale(0.015625)"/>
      <path id="DejaVuSans-36" d="M 2113 2584 
Q 1688 2584 1439 2293 
Q 1191 2003 1191 1497 
Q 1191 994 1439 701 
Q 1688 409 2113 409 
Q 2538 409 2786 701 
Q 3034 994 3034 1497 
Q 3034 2003 2786 2293 
Q 2538 2584 2113 2584 
z
M 3366 4563 
L 3366 3988 
Q 3128 4100 2886 4159 
Q 2644 4219 2406 4219 
Q 1781 4219 1451 3797 
Q 1122 3375 1075 2522 
Q 1259 2794 1537 2939 
Q 1816 3084 2150 3084 
Q 2853 3084 3261 2657 
Q 3669 2231 3669 1497 
Q 3669 778 3244 343 
Q 2819 -91 2113 -91 
Q 1303 -91 875 529 
Q 447 1150 447 2328 
Q 447 3434 972 4092 
Q 1497 4750 2381 4750 
Q 2619 4750 2861 4703 
Q 3103 4656 3366 4563 
z
" transform="scale(0.015625)"/>
      <path id="DejaVuSans-39" d="M 703 97 
L 703 672 
Q 941 559 1184 500 
Q 1428 441 1663 441 
Q 2288 441 2617 861 
Q 2947 1281 2994 2138 
Q 2813 1869 2534 1725 
Q 2256 1581 1919 1581 
Q 1219 1581 811 2004 
Q 403 2428 403 3163 
Q 403 3881 828 4315 
Q 1253 4750 1959 4750 
Q 2769 4750 3195 4129 
Q 3622 3509 3622 2328 
Q 3622 1225 3098 567 
Q 2575 -91 1691 -91 
Q 1453 -91 1209 -44 
Q 966 3 703 97 
z
M 1959 2075 
Q 2384 2075 2632 2365 
Q 2881 2656 2881 3163 
Q 2881 3666 2632 3958 
Q 2384 4250 1959 4250 
Q 1534 4250 1286 3958 
Q 1038 3666 1038 3163 
Q 1038 2656 1286 2365 
Q 1534 2075 1959 2075 
z
" transform="scale(0.015625)"/>
      <path id="DejaVuSans-7d" d="M 800 -594 
L 1019 -594 
Q 1456 -594 1589 -459 
Q 1722 -325 1722 122 
L 1722 897 
Q 1722 1384 1862 1606 
Q 2003 1828 2350 1913 
Q 2003 1991 1862 2212 
Q 1722 2434 1722 2925 
L 1722 3700 
Q 1722 4144 1589 4280 
Q 1456 4416 1019 4416 
L 800 4416 
L 800 4863 
L 997 4863 
Q 1775 4863 2036 4633 
Q 2297 4403 2297 3713 
L 2297 2963 
Q 2297 2497 2465 2317 
Q 2634 2138 3078 2138 
L 3272 2138 
L 3272 1691 
L 3078 1691 
Q 2634 1691 2465 1509 
Q 2297 1328 2297 856 
L 2297 109 
Q 2297 -581 2036 -812 
Q 1775 -1044 997 -1044 
L 800 -1044 
L 800 -594 
z
" transform="scale(0.015625)"/>
      <path id="DejaVuSans-2c" d="M 750 794 
L 1409 794 
L 1409 256 
L 897 -744 
L 494 -744 
L 750 256 
L 750 794 
z
" transform="scale(0.015625)"/>
      <path id="DejaVuSans-35" d="M 691 4666 
L 3169 4666 
L 3169 4134 
L 1269 4134 
L 1269 2991 
Q 1406 3038 1543 3061 
Q 1681 3084 1819 3084 
Q 2600 3084 3056 2656 
Q 3513 2228 3513 1497 
Q 3513 744 3044 326 
Q 2575 -91 1722 -91 
Q 1428 -91 1123 -41 
Q 819 9 494 109 
L 494 744 
Q 775 591 1075 516 
Q 1375 441 1709 441 
Q 2250 441 2565 725 
Q 2881 1009 2881 1497 
Q 2881 1984 2565 2268 
Q 2250 2553 1709 2553 
Q 1456 2553 1204 2497 
Q 953 2441 691 2322 
L 691 4666 
z
" transform="scale(0.015625)"/>
     </defs>
     <use xlink:href="#DejaVuSans-7b"/>
     <use xlink:href="#DejaVuSans-66" x="63.623047"/>
     <use xlink:href="#DejaVuSans-36" x="98.828125"/>
     <use xlink:href="#DejaVuSans-2d" x="162.451172"/>
     <use xlink:href="#DejaVuSans-66" x="198.535156"/>
     <use xlink:href="#DejaVuSans-39" x="233.740234"/>
     <use xlink:href="#DejaVuSans-7d" x="297.363281"/>
     <use xlink:href="#DejaVuSans-2c" x="360.986328"/>
     <use xlink:href="#DejaVuSans-20" x="392.773438"/>
     <use xlink:href="#DejaVuSans-35" x="424.560547"/>
     <use xlink:href="#DejaVuSans-2d" x="488.183594"/>
     <use xlink:href="#DejaVuSans-44" x="524.267578"/>
    </g>
   </g>
   <g id="text_7">
    <!-- v2.6.3 -->
    <g style="fill: #808080" transform="translate(214.71875 288.777272) scale(0.1 -0.1)">
     <defs>
      <path id="DejaVuSans-76" d="M 191 3500 
L 800 3500 
L 1894 563 
L 2988 3500 
L 3597 3500 
L 2284 0 
L 1503 0 
L 191 3500 
z
" transform="scale(0.015625)"/>
      <path id="DejaVuSans-32" d="M 1228 531 
L 3431 531 
L 3431 0 
L 469 0 
L 469 531 
Q 828 903 1448 1529 
Q 2069 2156 2228 2338 
Q 2531 2678 2651 2914 
Q 2772 3150 2772 3378 
Q 2772 3750 2511 3984 
Q 2250 4219 1831 4219 
Q 1534 4219 1204 4116 
Q 875 4013 500 3803 
L 500 4441 
Q 881 4594 1212 4672 
Q 1544 4750 1819 4750 
Q 2544 4750 2975 4387 
Q 3406 4025 3406 3419 
Q 3406 3131 3298 2873 
Q 3191 2616 2906 2266 
Q 2828 2175 2409 1742 
Q 1991 1309 1228 531 
z
" transform="scale(0.015625)"/>
      <path id="DejaVuSans-2e" d="M 684 794 
L 1344 794 
L 1344 0 
L 684 0 
L 684 794 
z
" transform="scale(0.015625)"/>
      <path id="DejaVuSans-33" d="M 2597 2516 
Q 3050 2419 3304 2112 
Q 3559 1806 3559 1356 
Q 3559 666 3084 287 
Q 2609 -91 1734 -91 
Q 1441 -91 1130 -33 
Q 819 25 488 141 
L 488 750 
Q 750 597 1062 519 
Q 1375 441 1716 441 
Q 2309 441 2620 675 
Q 2931 909 2931 1356 
Q 2931 1769 2642 2001 
Q 2353 2234 1838 2234 
L 1294 2234 
L 1294 2753 
L 1863 2753 
Q 2328 2753 2575 2939 
Q 2822 3125 2822 3475 
Q 2822 3834 2567 4026 
Q 2313 4219 1838 4219 
Q 1578 4219 1281 4162 
Q 984 4106 628 3988 
L 628 4550 
Q 988 4650 1302 4700 
Q 1616 4750 1894 4750 
Q 2613 4750 3031 4423 
Q 3450 4097 3450 3541 
Q 3450 3153 3228 2886 
Q 3006 2619 2597 2516 
z
" transform="scale(0.015625)"/>
     </defs>
     <use xlink:href="#DejaVuSans-76"/>
     <use xlink:href="#DejaVuSans-32" x="59.179688"/>
     <use xlink:href="#DejaVuSans-2e" x="122.802734"/>
     <use xlink:href="#DejaVuSans-36" x="154.589844"/>
     <use xlink:href="#DejaVuSans-2e" x="218.212891"/>
     <use xlink:href="#DejaVuSans-33" x="250"/>
    </g>
   </g>
  </g>
 </g>
 <defs>
  <clipPath id="pca0cfe1908">
   <rect x="0" y="3.456" width="460.8" height="290.304"/>
  </clipPath>
 </defs>
</svg>
