<?xml version="1.0" encoding="utf-8" standalone="no"?>
<!DOCTYPE svg PUBLIC "-//W3C//DTD SVG 1.1//EN"
  "http://www.w3.org/Graphics/SVG/1.1/DTD/svg11.dtd">
<svg xmlns:xlink="http://www.w3.org/1999/xlink" width="460.8pt" height="345.6pt" viewBox="0 0 460.8 345.6" xmlns="http://www.w3.org/2000/svg" version="1.1">
 <metadata>
  <rdf:RDF xmlns:dc="http://purl.org/dc/elements/1.1/" xmlns:cc="http://creativecommons.org/ns#" xmlns:rdf="http://www.w3.org/1999/02/22-rdf-syntax-ns#">
   <cc:Work>
    <dc:type rdf:resource="http://purl.org/dc/dcmitype/StillImage"/>
    <dc:date>2024-06-21T19:46:35.085025</dc:date>
    <dc:format>image/svg+xml</dc:format>
    <dc:creator>
     <cc:Agent>
      <dc:title>Matplotlib v3.7.5, https://matplotlib.org/</dc:title>
     </cc:Agent>
    </dc:creator>
   </cc:Work>
  </rdf:RDF>
 </metadata>
 <defs>
  <style type="text/css">*{stroke-linejoin: round; stroke-linecap: butt}</style>
 </defs>
 <g id="figure_1">
  <g id="patch_1">
   <path d="M 0 345.6 
L 460.8 345.6 
L 460.8 0 
L 0 0 
z
" style="fill: #ffffff"/>
  </g>
  <g id="axes_1">
   <g id="patch_2">
    <path d="M 0 293.76 
L 460.8 293.76 
L 460.8 3.456 
L 0 3.456 
z
" style="fill: #ffffff"/>
   </g>
   <g id="matplotlib.axis_1">
    <g id="xtick_1">
     <g id="line2d_1">
      <path d="M 101.409188 293.76 
L 101.409188 3.456 
" clip-path="url(#p34dbc4b53c)" style="fill: none; stroke: #b0b0b0; stroke-width: 0.8; stroke-linecap: square"/>
     </g>
     <g id="line2d_2">
      <defs>
       <path id="m045b98f81b" d="M 0 0 
L 0 3.5 
" style="stroke: #000000; stroke-width: 0.8"/>
      </defs>
      <g>
       <use xlink:href="#m045b98f81b" x="101.409188" y="293.76" style="stroke: #000000; stroke-width: 0.8"/>
      </g>
     </g>
     <g id="text_1">
      <!-- -4 -->
      <g transform="translate(91.438875 315.956875) scale(0.2 -0.2)">
       <defs>
        <path id="DejaVuSans-2d" d="M 313 2009 
L 1997 2009 
L 1997 1497 
L 313 1497 
L 313 2009 
z
" transform="scale(0.015625)"/>
        <path id="DejaVuSans-34" d="M 2419 4116 
L 825 1625 
L 2419 1625 
L 2419 4116 
z
M 2253 4666 
L 3047 4666 
L 3047 1625 
L 3713 1625 
L 3713 1100 
L 3047 1100 
L 3047 0 
L 2419 0 
L 2419 1100 
L 313 1100 
L 313 1709 
L 2253 4666 
z
" transform="scale(0.015625)"/>
       </defs>
       <use xlink:href="#DejaVuSans-2d"/>
       <use xlink:href="#DejaVuSans-34" x="36.083984"/>
      </g>
     </g>
    </g>
    <g id="xtick_2">
     <g id="line2d_3">
      <path d="M 202.928051 293.76 
L 202.928051 3.456 
" clip-path="url(#p34dbc4b53c)" style="fill: none; stroke: #b0b0b0; stroke-width: 0.8; stroke-linecap: square"/>
     </g>
     <g id="line2d_4">
      <g>
       <use xlink:href="#m045b98f81b" x="202.928051" y="293.76" style="stroke: #000000; stroke-width: 0.8"/>
      </g>
     </g>
     <g id="text_2">
      <!-- 0 -->
      <g transform="translate(196.565551 315.956875) scale(0.2 -0.2)">
       <defs>
        <path id="DejaVuSans-30" d="M 2034 4250 
Q 1547 4250 1301 3770 
Q 1056 3291 1056 2328 
Q 1056 1369 1301 889 
Q 1547 409 2034 409 
Q 2525 409 2770 889 
Q 3016 1369 3016 2328 
Q 3016 3291 2770 3770 
Q 2525 4250 2034 4250 
z
M 2034 4750 
Q 2819 4750 3233 4129 
Q 3647 3509 3647 2328 
Q 3647 1150 3233 529 
Q 2819 -91 2034 -91 
Q 1250 -91 836 529 
Q 422 1150 422 2328 
Q 422 3509 836 4129 
Q 1250 4750 2034 4750 
z
" transform="scale(0.015625)"/>
       </defs>
       <use xlink:href="#DejaVuSans-30"/>
      </g>
     </g>
    </g>
    <g id="xtick_3">
     <g id="line2d_5">
      <path d="M 304.446914 293.76 
L 304.446914 3.456 
" clip-path="url(#p34dbc4b53c)" style="fill: none; stroke: #b0b0b0; stroke-width: 0.8; stroke-linecap: square"/>
     </g>
     <g id="line2d_6">
      <g>
       <use xlink:href="#m045b98f81b" x="304.446914" y="293.76" style="stroke: #000000; stroke-width: 0.8"/>
      </g>
     </g>
     <g id="text_3">
      <!-- 4 -->
      <g transform="translate(298.084414 315.956875) scale(0.2 -0.2)">
       <use xlink:href="#DejaVuSans-34"/>
      </g>
     </g>
    </g>
    <g id="xtick_4">
     <g id="line2d_7">
      <path d="M 405.965777 293.76 
L 405.965777 3.456 
" clip-path="url(#p34dbc4b53c)" style="fill: none; stroke: #b0b0b0; stroke-width: 0.8; stroke-linecap: square"/>
     </g>
     <g id="line2d_8">
      <g>
       <use xlink:href="#m045b98f81b" x="405.965777" y="293.76" style="stroke: #000000; stroke-width: 0.8"/>
      </g>
     </g>
     <g id="text_4">
      <!-- 8 -->
      <g transform="translate(399.603277 315.956875) scale(0.2 -0.2)">
       <defs>
        <path id="DejaVuSans-38" d="M 2034 2216 
Q 1584 2216 1326 1975 
Q 1069 1734 1069 1313 
Q 1069 891 1326 650 
Q 1584 409 2034 409 
Q 2484 409 2743 651 
Q 3003 894 3003 1313 
Q 3003 1734 2745 1975 
Q 2488 2216 2034 2216 
z
M 1403 2484 
Q 997 2584 770 2862 
Q 544 3141 544 3541 
Q 544 4100 942 4425 
Q 1341 4750 2034 4750 
Q 2731 4750 3128 4425 
Q 3525 4100 3525 3541 
Q 3525 3141 3298 2862 
Q 3072 2584 2669 2484 
Q 3125 2378 3379 2068 
Q 3634 1759 3634 1313 
Q 3634 634 3220 271 
Q 2806 -91 2034 -91 
Q 1263 -91 848 271 
Q 434 634 434 1313 
Q 434 1759 690 2068 
Q 947 2378 1403 2484 
z
M 1172 3481 
Q 1172 3119 1398 2916 
Q 1625 2713 2034 2713 
Q 2441 2713 2670 2916 
Q 2900 3119 2900 3481 
Q 2900 3844 2670 4047 
Q 2441 4250 2034 4250 
Q 1625 4250 1398 4047 
Q 1172 3844 1172 3481 
z
" transform="scale(0.015625)"/>
       </defs>
       <use xlink:href="#DejaVuSans-38"/>
      </g>
     </g>
    </g>
    <g id="text_5">
     <!-- log10 of Df -->
     <g transform="translate(175.214063 339.313125) scale(0.2 -0.2)">
      <defs>
       <path id="DejaVuSans-6c" d="M 603 4863 
L 1178 4863 
L 1178 0 
L 603 0 
L 603 4863 
z
" transform="scale(0.015625)"/>
       <path id="DejaVuSans-6f" d="M 1959 3097 
Q 1497 3097 1228 2736 
Q 959 2375 959 1747 
Q 959 1119 1226 758 
Q 1494 397 1959 397 
Q 2419 397 2687 759 
Q 2956 1122 2956 1747 
Q 2956 2369 2687 2733 
Q 2419 3097 1959 3097 
z
M 1959 3584 
Q 2709 3584 3137 3096 
Q 3566 2609 3566 1747 
Q 3566 888 3137 398 
Q 2709 -91 1959 -91 
Q 1206 -91 779 398 
Q 353 888 353 1747 
Q 353 2609 779 3096 
Q 1206 3584 1959 3584 
z
" transform="scale(0.015625)"/>
       <path id="DejaVuSans-67" d="M 2906 1791 
Q 2906 2416 2648 2759 
Q 2391 3103 1925 3103 
Q 1463 3103 1205 2759 
Q 947 2416 947 1791 
Q 947 1169 1205 825 
Q 1463 481 1925 481 
Q 2391 481 2648 825 
Q 2906 1169 2906 1791 
z
M 3481 434 
Q 3481 -459 3084 -895 
Q 2688 -1331 1869 -1331 
Q 1566 -1331 1297 -1286 
Q 1028 -1241 775 -1147 
L 775 -588 
Q 1028 -725 1275 -790 
Q 1522 -856 1778 -856 
Q 2344 -856 2625 -561 
Q 2906 -266 2906 331 
L 2906 616 
Q 2728 306 2450 153 
Q 2172 0 1784 0 
Q 1141 0 747 490 
Q 353 981 353 1791 
Q 353 2603 747 3093 
Q 1141 3584 1784 3584 
Q 2172 3584 2450 3431 
Q 2728 3278 2906 2969 
L 2906 3500 
L 3481 3500 
L 3481 434 
z
" transform="scale(0.015625)"/>
       <path id="DejaVuSans-31" d="M 794 531 
L 1825 531 
L 1825 4091 
L 703 3866 
L 703 4441 
L 1819 4666 
L 2450 4666 
L 2450 531 
L 3481 531 
L 3481 0 
L 794 0 
L 794 531 
z
" transform="scale(0.015625)"/>
       <path id="DejaVuSans-20" transform="scale(0.015625)"/>
       <path id="DejaVuSans-66" d="M 2375 4863 
L 2375 4384 
L 1825 4384 
Q 1516 4384 1395 4259 
Q 1275 4134 1275 3809 
L 1275 3500 
L 2222 3500 
L 2222 3053 
L 1275 3053 
L 1275 0 
L 697 0 
L 697 3053 
L 147 3053 
L 147 3500 
L 697 3500 
L 697 3744 
Q 697 4328 969 4595 
Q 1241 4863 1831 4863 
L 2375 4863 
z
" transform="scale(0.015625)"/>
       <path id="DejaVuSans-44" d="M 1259 4147 
L 1259 519 
L 2022 519 
Q 2988 519 3436 956 
Q 3884 1394 3884 2338 
Q 3884 3275 3436 3711 
Q 2988 4147 2022 4147 
L 1259 4147 
z
M 628 4666 
L 1925 4666 
Q 3281 4666 3915 4102 
Q 4550 3538 4550 2338 
Q 4550 1131 3912 565 
Q 3275 0 1925 0 
L 628 0 
L 628 4666 
z
" transform="scale(0.015625)"/>
      </defs>
      <use xlink:href="#DejaVuSans-6c"/>
      <use xlink:href="#DejaVuSans-6f" x="27.783203"/>
      <use xlink:href="#DejaVuSans-67" x="88.964844"/>
      <use xlink:href="#DejaVuSans-31" x="152.441406"/>
      <use xlink:href="#DejaVuSans-30" x="216.064453"/>
      <use xlink:href="#DejaVuSans-20" x="279.6875"/>
      <use xlink:href="#DejaVuSans-6f" x="311.474609"/>
      <use xlink:href="#DejaVuSans-66" x="372.65625"/>
      <use xlink:href="#DejaVuSans-20" x="407.861328"/>
      <use xlink:href="#DejaVuSans-44" x="439.648438"/>
      <use xlink:href="#DejaVuSans-66" x="516.650391"/>
     </g>
    </g>
   </g>
   <g id="matplotlib.axis_2">
    <g id="ytick_1">
     <g id="line2d_9">
      <path d="M 0 293.76 
L 460.8 293.76 
" clip-path="url(#p34dbc4b53c)" style="fill: none; stroke: #b0b0b0; stroke-width: 0.8; stroke-linecap: square"/>
     </g>
     <g id="line2d_10">
      <defs>
       <path id="m3f3d6a23a7" d="M 0 0 
L -3.5 0 
" style="stroke: #000000; stroke-width: 0.8"/>
      </defs>
      <g>
       <use xlink:href="#m3f3d6a23a7" x="0" y="293.76" style="stroke: #000000; stroke-width: 0.8"/>
      </g>
     </g>
    </g>
    <g id="ytick_2">
     <g id="line2d_11">
      <path d="M 0 236.274059 
L 460.8 236.274059 
" clip-path="url(#p34dbc4b53c)" style="fill: none; stroke: #b0b0b0; stroke-width: 0.8; stroke-linecap: square"/>
     </g>
     <g id="line2d_12">
      <g>
       <use xlink:href="#m3f3d6a23a7" x="0" y="236.274059" style="stroke: #000000; stroke-width: 0.8"/>
      </g>
     </g>
    </g>
    <g id="ytick_3">
     <g id="line2d_13">
      <path d="M 0 178.788119 
L 460.8 178.788119 
" clip-path="url(#p34dbc4b53c)" style="fill: none; stroke: #b0b0b0; stroke-width: 0.8; stroke-linecap: square"/>
     </g>
     <g id="line2d_14">
      <g>
       <use xlink:href="#m3f3d6a23a7" x="0" y="178.788119" style="stroke: #000000; stroke-width: 0.8"/>
      </g>
     </g>
    </g>
    <g id="ytick_4">
     <g id="line2d_15">
      <path d="M 0 121.302178 
L 460.8 121.302178 
" clip-path="url(#p34dbc4b53c)" style="fill: none; stroke: #b0b0b0; stroke-width: 0.8; stroke-linecap: square"/>
     </g>
     <g id="line2d_16">
      <g>
       <use xlink:href="#m3f3d6a23a7" x="0" y="121.302178" style="stroke: #000000; stroke-width: 0.8"/>
      </g>
     </g>
    </g>
    <g id="ytick_5">
     <g id="line2d_17">
      <path d="M 0 63.816238 
L 460.8 63.816238 
" clip-path="url(#p34dbc4b53c)" style="fill: none; stroke: #b0b0b0; stroke-width: 0.8; stroke-linecap: square"/>
     </g>
     <g id="line2d_18">
      <g>
       <use xlink:href="#m3f3d6a23a7" x="0" y="63.816238" style="stroke: #000000; stroke-width: 0.8"/>
      </g>
     </g>
    </g>
    <g id="ytick_6">
     <g id="line2d_19">
      <path d="M 0 6.330297 
L 460.8 6.330297 
" clip-path="url(#p34dbc4b53c)" style="fill: none; stroke: #b0b0b0; stroke-width: 0.8; stroke-linecap: square"/>
     </g>
     <g id="line2d_20">
      <g>
       <use xlink:href="#m3f3d6a23a7" x="0" y="6.330297" style="stroke: #000000; stroke-width: 0.8"/>
      </g>
     </g>
    </g>
   </g>
   <g id="line2d_21">
    <path d="M 123.938238 293.76 
L 123.938238 289.927604 
L 124.731645 289.927604 
L 124.731645 286.095208 
L 128.572914 286.095208 
L 128.572914 282.262812 
L 140.532965 282.262812 
L 140.532965 278.430416 
L 146.923082 278.430416 
L 146.923082 274.59802 
L 152.201393 274.59802 
L 152.201393 270.765624 
L 154.280232 270.765624 
L 154.280232 266.933228 
L 155.609583 266.933228 
L 155.609583 263.100832 
L 156.837369 263.100832 
L 156.837369 259.268436 
L 167.390713 259.268436 
L 167.390713 255.43604 
L 170.580193 255.43604 
L 170.580193 251.603644 
L 171.381116 251.603644 
L 171.381116 247.771248 
L 171.96967 247.771248 
L 171.96967 243.938851 
L 172.414508 243.938851 
L 172.414508 240.106455 
L 172.701324 240.106455 
L 172.701324 236.274059 
L 174.617954 236.274059 
L 174.617954 232.441663 
L 179.335838 232.441663 
L 179.335838 228.609267 
L 180.745446 228.609267 
L 180.745446 224.776871 
L 182.213863 224.776871 
L 182.213863 220.944475 
L 182.509883 220.944475 
L 182.509883 217.112079 
L 184.057482 217.112079 
L 184.057482 213.279683 
L 184.321213 213.279683 
L 184.377204 205.614891 
L 185.811159 205.614891 
L 185.811159 201.782495 
L 188.240141 201.782495 
L 188.303951 194.117703 
L 188.544009 194.117703 
L 188.544009 190.285307 
L 190.123257 190.285307 
L 190.123257 186.452911 
L 194.214084 186.452911 
L 194.214084 182.620515 
L 195.273858 182.620515 
L 195.273858 178.788119 
L 197.862836 178.788119 
L 197.862836 174.955723 
L 198.328776 174.955723 
L 198.328776 171.123327 
L 200.101155 171.123327 
L 200.101155 167.290931 
L 200.736931 167.290931 
L 200.736931 163.458535 
L 201.879426 163.458535 
L 201.909294 155.793743 
L 202.981654 155.793743 
L 202.981654 151.961347 
L 206.502666 151.961347 
L 206.5546 144.296554 
L 208.380742 144.296554 
L 208.470538 136.631762 
L 210.63005 136.631762 
L 210.63005 132.799366 
L 212.287929 132.799366 
L 212.287929 128.96697 
L 213.339485 128.96697 
L 213.339485 125.134574 
L 214.806307 125.134574 
L 214.806307 121.302178 
L 215.582402 121.302178 
L 215.582402 117.469782 
L 216.132302 117.469782 
L 216.132302 113.637386 
L 217.408664 113.637386 
L 217.408664 109.80499 
L 218.071553 109.80499 
L 218.071553 105.972594 
L 218.868189 105.972594 
L 218.877391 98.307802 
L 219.157604 98.307802 
L 219.185277 90.64301 
L 220.059932 90.64301 
L 220.059932 86.810614 
L 220.708526 86.810614 
L 220.708526 82.978218 
L 221.069313 82.978218 
L 221.069313 79.145822 
L 223.20613 79.145822 
L 223.20613 75.313426 
L 223.946452 75.313426 
L 223.946452 71.48103 
L 224.731716 71.48103 
L 224.731716 67.648634 
L 231.138952 67.648634 
L 231.138952 63.816238 
L 236.942649 63.816238 
L 236.942649 59.983842 
L 237.432606 59.983842 
L 237.432606 56.151446 
L 237.901707 56.151446 
L 237.901707 52.31905 
L 239.199943 52.31905 
L 239.199943 48.486653 
L 239.600789 48.486653 
L 239.600791 40.821861 
L 240.361248 40.821861 
L 240.361248 33.157069 
L 241.072609 33.157069 
L 241.072611 25.492277 
L 242.060319 25.492277 
L 242.06034 17.827485 
L 242.966792 17.827485 
L 242.966792 13.995089 
L 245.541737 13.995089 
L 245.541737 10.162693 
L 246.20996 10.162693 
L 246.20996 6.330297 
L 246.20996 6.330297 
L 460.8 6.330297 
L 460.8 6.330297 
" clip-path="url(#p34dbc4b53c)" style="fill: none; stroke: #ff0000; stroke-width: 3; stroke-linecap: square"/>
   </g>
   <g id="line2d_22">
    <path d="M 235.471852 293.76 
L 235.471852 289.927604 
L 240.123876 289.927604 
L 240.139436 282.262812 
L 240.40286 282.262812 
L 240.40286 278.430416 
L 240.675836 278.430416 
L 240.675836 274.59802 
L 241.025048 274.59802 
L 241.025048 270.765624 
L 241.263872 270.765624 
L 241.263872 266.933228 
L 242.235692 266.933228 
L 242.235692 263.100832 
L 243.217541 263.100832 
L 243.250754 255.43604 
L 243.62706 255.43604 
L 243.696285 247.771248 
L 244.033454 247.771248 
L 244.033454 243.938851 
L 244.307139 243.938851 
L 244.380256 232.441663 
L 244.779538 232.441663 
L 244.801919 224.776871 
L 244.919533 224.776871 
L 244.919533 220.944475 
L 245.138143 220.944475 
L 245.138143 217.112079 
L 245.337091 217.112079 
L 245.432457 201.782495 
L 245.544567 201.782495 
L 245.625981 194.117703 
L 245.712569 194.117703 
L 245.712569 190.285307 
L 245.853625 190.285307 
L 245.853625 186.452911 
L 246.026924 186.452911 
L 246.026924 182.620515 
L 246.18541 182.620515 
L 246.18541 178.788119 
L 246.444237 178.788119 
L 246.445072 171.123327 
L 247.111883 171.123327 
L 247.140231 163.458535 
L 247.284839 163.458535 
L 247.284839 159.626139 
L 247.700252 159.626139 
L 247.700252 155.793743 
L 247.904528 155.793743 
L 247.995232 148.12895 
L 248.101626 148.12895 
L 248.101626 144.296554 
L 248.336691 144.296554 
L 248.336691 140.464158 
L 248.790563 140.464158 
L 248.790563 136.631762 
L 248.948603 136.631762 
L 249.003488 128.96697 
L 249.648455 128.96697 
L 249.648455 125.134574 
L 249.917933 125.134574 
L 249.917933 121.302178 
L 251.809388 121.302178 
L 251.809388 117.469782 
L 253.438132 117.469782 
L 253.438132 113.637386 
L 253.637507 113.637386 
L 253.637507 109.80499 
L 254.107669 109.80499 
L 254.107669 105.972594 
L 254.30179 105.972594 
L 254.30179 102.140198 
L 254.499063 102.140198 
L 254.499063 98.307802 
L 254.847371 98.307802 
L 254.847371 94.475406 
L 255.260146 94.475406 
L 255.322351 86.810614 
L 255.375071 86.810614 
L 255.375071 82.978218 
L 257.058038 82.978218 
L 257.058038 79.145822 
L 258.599869 79.145822 
L 258.599869 75.313426 
L 259.161586 75.313426 
L 259.161586 71.48103 
L 260.415608 71.48103 
L 260.415608 67.648634 
L 261.415446 67.648634 
L 261.415446 63.816238 
L 277.627772 63.816238 
L 277.627772 59.983842 
L 278.690865 59.983842 
L 278.722861 52.31905 
L 279.42227 52.31905 
L 279.525554 40.821861 
L 279.543485 40.821861 
L 279.543485 36.989465 
L 280.027851 36.989465 
L 280.027851 33.157069 
L 280.810847 33.157069 
L 280.810847 29.324673 
L 281.237925 29.324673 
L 281.237925 25.492277 
L 282.016099 25.492277 
L 282.016099 21.659881 
L 282.54924 21.659881 
L 282.562468 13.995089 
L 283.396948 13.995089 
L 283.396948 10.162693 
L 286.850268 10.162693 
L 286.850268 6.330297 
L 286.850268 6.330297 
L 460.8 6.330297 
L 460.8 6.330297 
" clip-path="url(#p34dbc4b53c)" style="fill: none; stroke: #00bfbf; stroke-width: 1.5; stroke-linecap: square"/>
   </g>
   <g id="line2d_23">
    <path d="M 234.201303 293.76 
L 234.201303 289.927604 
L 235.471852 289.927604 
L 235.471852 286.095208 
L 236.247194 286.095208 
L 236.247194 282.262812 
L 236.380767 282.262812 
L 236.380767 278.430416 
L 236.665068 278.430416 
L 236.665068 274.59802 
L 237.373372 274.59802 
L 237.373372 270.765624 
L 237.49809 270.765624 
L 237.49809 266.933228 
L 237.662133 266.933228 
L 237.728239 259.268436 
L 237.911685 259.268436 
L 237.973488 251.603644 
L 238.223335 251.603644 
L 238.223335 247.771248 
L 238.823058 247.771248 
L 238.873832 232.441663 
L 238.998835 232.441663 
L 238.998835 228.609267 
L 239.147466 228.609267 
L 239.147466 224.776871 
L 239.326976 224.776871 
L 239.334195 217.112079 
L 239.79634 217.112079 
L 239.79634 213.279683 
L 240.139436 213.279683 
L 240.139436 209.447287 
L 240.298948 209.447287 
L 240.298948 205.614891 
L 240.675836 205.614891 
L 240.675836 201.782495 
L 241.217301 201.782495 
L 241.263872 194.117703 
L 243.217541 194.117703 
L 243.217541 190.285307 
L 243.542086 190.285307 
L 243.542086 186.452911 
L 243.680774 186.452911 
L 243.680774 182.620515 
L 243.832566 182.620515 
L 243.832566 178.788119 
L 244.220932 178.788119 
L 244.220932 174.955723 
L 244.341247 174.955723 
L 244.356981 167.290931 
L 244.478969 167.290931 
L 244.478969 163.458535 
L 245.043052 163.458535 
L 245.043052 159.626139 
L 245.386455 159.626139 
L 245.391398 151.961347 
L 245.693909 151.961347 
L 245.693909 148.12895 
L 245.815173 148.12895 
L 245.853625 140.464158 
L 246.071624 140.464158 
L 246.071624 136.631762 
L 246.493027 136.631762 
L 246.493027 132.799366 
L 246.73327 132.799366 
L 246.73327 128.96697 
L 246.915242 128.96697 
L 246.915242 125.134574 
L 248.790563 125.134574 
L 248.790563 121.302178 
L 249.003488 121.302178 
L 249.003488 117.469782 
L 249.673294 117.469782 
L 249.673294 113.637386 
L 250.346923 113.637386 
L 250.346923 109.80499 
L 251.120886 109.80499 
L 251.120886 105.972594 
L 251.376719 105.972594 
L 251.48233 98.307802 
L 251.771029 98.307802 
L 251.771029 94.475406 
L 253.244156 94.475406 
L 253.244156 90.64301 
L 253.438132 90.64301 
L 253.438132 86.810614 
L 254.107669 86.810614 
L 254.107669 82.978218 
L 255.260146 82.978218 
L 255.322351 75.313426 
L 259.161586 75.313426 
L 259.161586 71.48103 
L 260.227815 71.48103 
L 260.227815 67.648634 
L 260.415608 67.648634 
L 260.415608 63.816238 
L 275.281676 63.816238 
L 275.313144 56.151446 
L 276.217747 56.151446 
L 276.225742 48.486653 
L 276.382175 48.486653 
L 276.382175 44.654257 
L 277.350459 44.654257 
L 277.350459 40.821861 
L 277.782813 40.821861 
L 277.782813 36.989465 
L 278.038057 36.989465 
L 278.038057 33.157069 
L 278.722861 33.157069 
L 278.722861 29.324673 
L 279.189517 29.324673 
L 279.189517 25.492277 
L 280.159496 25.492277 
L 280.159496 21.659881 
L 280.810847 21.659881 
L 280.810847 17.827485 
L 281.091838 17.827485 
L 281.091838 13.995089 
L 282.004431 13.995089 
L 282.004431 10.162693 
L 283.766857 10.162693 
L 283.766857 6.330297 
L 283.766857 6.330297 
L 460.8 6.330297 
L 460.8 6.330297 
" clip-path="url(#p34dbc4b53c)" style="fill: none; stroke: #bf00bf; stroke-width: 1.5; stroke-linecap: square"/>
   </g>
   <g id="line2d_24">
    <path d="M 233.280676 293.76 
L 233.316412 286.095208 
L 234.201303 286.095208 
L 234.201303 282.262812 
L 234.382211 282.262812 
L 234.382211 278.430416 
L 234.854029 278.430416 
L 234.854029 274.59802 
L 235.338422 274.59802 
L 235.338422 270.765624 
L 235.471852 270.765624 
L 235.471852 266.933228 
L 235.912522 266.933228 
L 235.912522 263.100832 
L 236.035216 263.100832 
L 236.035216 259.268436 
L 236.247194 259.268436 
L 236.265441 251.603644 
L 236.380767 251.603644 
L 236.41582 243.938851 
L 236.895776 243.938851 
L 236.895776 240.106455 
L 237.274964 240.106455 
L 237.274964 236.274059 
L 237.728239 236.274059 
L 237.728239 232.441663 
L 237.973488 232.441663 
L 237.973488 228.609267 
L 238.085837 228.609267 
L 238.092873 220.944475 
L 238.223335 220.944475 
L 238.223335 217.112079 
L 238.581661 217.112079 
L 238.581661 213.279683 
L 238.873832 213.279683 
L 238.915426 205.614891 
L 239.147466 205.614891 
L 239.147466 201.782495 
L 239.326976 201.782495 
L 239.356343 194.117703 
L 239.684423 194.117703 
L 239.684423 190.285307 
L 239.79634 190.285307 
L 239.79634 186.452911 
L 240.675836 186.452911 
L 240.675836 182.620515 
L 240.797667 182.620515 
L 240.797667 178.788119 
L 242.776825 178.788119 
L 242.859657 171.123327 
L 243.792569 171.123327 
L 243.792569 167.290931 
L 244.019019 167.290931 
L 244.019019 163.458535 
L 244.220932 163.458535 
L 244.220932 159.626139 
L 244.341247 159.626139 
L 244.356981 151.961347 
L 244.478969 151.961347 
L 244.478969 148.12895 
L 244.863295 148.12895 
L 244.905564 140.464158 
L 245.043052 140.464158 
L 245.043052 136.631762 
L 245.391398 136.631762 
L 245.391398 132.799366 
L 245.804432 132.799366 
L 245.853625 121.302178 
L 246.28586 121.302178 
L 246.28586 117.469782 
L 248.060068 117.469782 
L 248.060068 113.637386 
L 249.003488 113.637386 
L 249.003488 109.80499 
L 249.673294 109.80499 
L 249.6979 102.140198 
L 250.346923 102.140198 
L 250.346923 98.307802 
L 250.59348 98.307802 
L 250.59348 94.475406 
L 250.958973 94.475406 
L 250.958973 90.64301 
L 251.771029 90.64301 
L 251.771029 86.810614 
L 252.049987 86.810614 
L 252.049987 82.978218 
L 252.248269 82.978218 
L 252.248269 79.145822 
L 252.991675 79.145822 
L 252.991675 75.313426 
L 254.093049 75.313426 
L 254.107669 67.648634 
L 254.766601 67.648634 
L 254.766601 63.816238 
L 270.913968 63.816238 
L 270.913968 59.983842 
L 272.371154 59.983842 
L 272.371154 56.151446 
L 273.398891 56.151446 
L 273.398891 52.31905 
L 273.755583 52.31905 
L 273.755583 48.486653 
L 274.53781 48.486653 
L 274.551491 40.821861 
L 274.904092 40.821861 
L 274.904092 36.989465 
L 275.313144 36.989465 
L 275.313144 33.157069 
L 276.225742 33.157069 
L 276.225742 29.324673 
L 276.718677 29.324673 
L 276.718677 25.492277 
L 277.119419 25.492277 
L 277.148221 17.827485 
L 277.468777 17.827485 
L 277.468777 13.995089 
L 279.020782 13.995089 
L 279.020782 10.162693 
L 280.252806 10.162693 
L 280.252806 6.330297 
L 280.252806 6.330297 
L 460.8 6.330297 
L 460.8 6.330297 
" clip-path="url(#p34dbc4b53c)" style="fill: none; stroke: #000000; stroke-width: 1.5; stroke-linecap: square"/>
   </g>
   <g id="line2d_25">
    <path d="M 222.871535 293.76 
L 222.871535 289.927604 
L 223.263631 289.927604 
L 223.263631 286.095208 
L 223.538413 286.095208 
L 223.635866 274.59802 
L 223.743408 274.59802 
L 223.743408 270.765624 
L 225.189069 270.765624 
L 225.189069 266.933228 
L 225.448927 266.933228 
L 225.448927 263.100832 
L 225.653706 263.100832 
L 225.653706 259.268436 
L 225.959338 259.268436 
L 225.959338 255.43604 
L 226.088276 255.43604 
L 226.088276 251.603644 
L 226.418948 251.603644 
L 226.495586 243.938851 
L 226.534659 243.938851 
L 226.562424 236.274059 
L 227.112197 236.274059 
L 227.20498 228.609267 
L 227.225832 228.609267 
L 227.225832 224.776871 
L 227.412873 224.776871 
L 227.499546 217.112079 
L 227.830034 217.112079 
L 227.830034 213.279683 
L 228.027465 213.279683 
L 228.119259 205.614891 
L 228.483858 205.614891 
L 228.483858 201.782495 
L 228.850279 201.782495 
L 228.850279 197.950099 
L 229.065778 197.950099 
L 229.065778 194.117703 
L 229.213422 194.117703 
L 229.235024 186.452911 
L 229.399455 186.452911 
L 229.399455 182.620515 
L 230.16779 182.620515 
L 230.16779 178.788119 
L 233.29929 178.788119 
L 233.29929 174.955723 
L 237.097704 174.955723 
L 237.097704 171.123327 
L 237.429047 171.123327 
L 237.527339 163.458535 
L 238.69673 163.458535 
L 238.770061 155.793743 
L 238.813778 155.793743 
L 238.813778 151.961347 
L 239.311443 151.961347 
L 239.311443 148.12895 
L 239.754432 148.12895 
L 239.754432 144.296554 
L 240.078198 144.296554 
L 240.078198 140.464158 
L 240.623068 140.464158 
L 240.675836 128.96697 
L 241.430174 128.96697 
L 241.493576 117.469782 
L 242.277333 117.469782 
L 242.277333 113.637386 
L 242.463105 113.637386 
L 242.562379 105.972594 
L 242.776825 105.972594 
L 242.776825 102.140198 
L 242.889181 102.140198 
L 242.889181 98.307802 
L 243.16395 98.307802 
L 243.16395 94.475406 
L 243.792569 94.475406 
L 243.792569 90.64301 
L 244.019019 90.64301 
L 244.107564 82.978218 
L 244.220932 82.978218 
L 244.230275 75.313426 
L 244.478969 75.313426 
L 244.478969 71.48103 
L 245.49512 71.48103 
L 245.49512 67.648634 
L 246.28586 67.648634 
L 246.28586 63.816238 
L 265.595961 63.816238 
L 265.595961 59.983842 
L 265.752122 59.983842 
L 265.752122 56.151446 
L 266.15025 56.151446 
L 266.177979 48.486653 
L 266.39155 48.486653 
L 266.39155 44.654257 
L 266.578196 44.654257 
L 266.578196 40.821861 
L 267.126089 40.821861 
L 267.126089 36.989465 
L 267.314418 36.989465 
L 267.316203 29.324673 
L 267.702534 29.324673 
L 267.702534 25.492277 
L 268.138815 25.492277 
L 268.138815 21.659881 
L 268.45211 21.659881 
L 268.45211 17.827485 
L 268.596408 17.827485 
L 268.596408 13.995089 
L 268.936708 13.995089 
L 268.936708 10.162693 
L 270.018511 10.162693 
L 270.018511 6.330297 
L 270.018511 6.330297 
L 460.8 6.330297 
L 460.8 6.330297 
" clip-path="url(#p34dbc4b53c)" style="fill: none; stroke: #00bfbf; stroke-width: 1.5; stroke-linecap: square"/>
   </g>
   <g id="line2d_26">
    <path d="M 161.621803 293.76 
L 161.621803 289.927604 
L 164.533899 289.927604 
L 164.533899 286.095208 
L 166.798779 286.095208 
L 166.798779 282.262812 
L 168.30243 282.262812 
L 168.30243 278.430416 
L 171.16848 278.430416 
L 171.16848 274.59802 
L 172.438792 274.59802 
L 172.438792 270.765624 
L 173.254529 270.765624 
L 173.254529 266.933228 
L 174.233047 266.933228 
L 174.233047 263.100832 
L 180.304987 263.100832 
L 180.304987 259.268436 
L 180.765437 259.268436 
L 180.765437 255.43604 
L 183.237074 255.43604 
L 183.237074 251.603644 
L 186.525946 251.603644 
L 186.525946 247.771248 
L 188.00741 247.771248 
L 188.00741 243.938851 
L 188.516486 243.938851 
L 188.516486 240.106455 
L 189.146287 240.106455 
L 189.146287 236.274059 
L 192.167223 236.274059 
L 192.167223 232.441663 
L 192.462381 232.441663 
L 192.462381 228.609267 
L 192.785046 228.609267 
L 192.785046 224.776871 
L 194.448517 224.776871 
L 194.448517 220.944475 
L 194.692592 220.944475 
L 194.692592 217.112079 
L 194.824536 217.112079 
L 194.824536 213.279683 
L 198.524301 213.279683 
L 198.633766 205.614891 
L 198.647953 205.614891 
L 198.647953 201.782495 
L 199.147796 201.782495 
L 199.147796 197.950099 
L 199.986071 197.950099 
L 199.986071 194.117703 
L 200.720739 194.117703 
L 200.725069 186.452911 
L 202.50622 186.452911 
L 202.50622 182.620515 
L 210.671518 182.620515 
L 210.671518 178.788119 
L 220.393309 178.788119 
L 220.393309 174.955723 
L 220.790174 174.955723 
L 220.790174 171.123327 
L 220.916992 171.123327 
L 220.916992 167.290931 
L 221.107394 167.290931 
L 221.107394 163.458535 
L 221.317753 163.458535 
L 221.357194 155.793743 
L 221.468738 155.793743 
L 221.518147 148.12895 
L 221.582979 148.12895 
L 221.582979 144.296554 
L 222.014206 144.296554 
L 222.014206 140.464158 
L 222.173718 140.464158 
L 222.173718 136.631762 
L 222.591189 136.631762 
L 222.626469 128.96697 
L 222.72181 128.96697 
L 222.72181 125.134574 
L 222.85686 125.134574 
L 222.85686 121.302178 
L 223.945198 121.302178 
L 223.945198 117.469782 
L 229.866139 117.469782 
L 229.866139 113.637386 
L 232.593816 113.637386 
L 232.651063 105.972594 
L 232.899239 105.972594 
L 232.899239 102.140198 
L 234.489227 102.140198 
L 234.489227 98.307802 
L 236.181061 98.307802 
L 236.181061 94.475406 
L 237.715299 94.475406 
L 237.715299 90.64301 
L 238.181573 90.64301 
L 238.181573 86.810614 
L 238.317376 86.810614 
L 238.317376 82.978218 
L 238.69673 82.978218 
L 238.69673 79.145822 
L 240.048717 79.145822 
L 240.048717 75.313426 
L 240.675836 75.313426 
L 240.675836 71.48103 
L 240.867773 71.48103 
L 240.867773 67.648634 
L 241.317853 67.648634 
L 241.317853 63.816238 
L 243.706892 63.816238 
L 243.706892 59.983842 
L 251.194184 59.983842 
L 251.194184 56.151446 
L 251.604463 56.151446 
L 251.604463 52.31905 
L 252.103843 52.31905 
L 252.103843 48.486653 
L 253.168561 48.486653 
L 253.168561 44.654257 
L 254.100485 44.654257 
L 254.100485 40.821861 
L 256.159059 40.821861 
L 256.159059 36.989465 
L 256.398091 36.989465 
L 256.41413 29.324673 
L 256.542262 29.324673 
L 256.550628 21.659881 
L 256.963571 21.659881 
L 256.963571 17.827485 
L 257.582204 17.827485 
L 257.582204 13.995089 
L 257.806086 13.995089 
L 257.806086 10.162693 
L 258.396732 10.162693 
L 258.396732 6.330297 
L 258.396732 6.330297 
L 460.8 6.330297 
L 460.8 6.330297 
" clip-path="url(#p34dbc4b53c)" style="fill: none; stroke: #bf00bf; stroke-width: 1.5; stroke-linecap: square"/>
   </g>
   <g id="line2d_27">
    <path d="M 123.938238 293.76 
L 123.938238 289.927604 
L 124.731645 289.927604 
L 124.731645 286.095208 
L 128.572914 286.095208 
L 128.572914 282.262812 
L 140.532965 282.262812 
L 140.532965 278.430416 
L 146.923082 278.430416 
L 146.923082 274.59802 
L 152.201393 274.59802 
L 152.201393 270.765624 
L 154.280232 270.765624 
L 154.280232 266.933228 
L 155.609583 266.933228 
L 155.609583 263.100832 
L 156.837369 263.100832 
L 156.837369 259.268436 
L 167.390713 259.268436 
L 167.390713 255.43604 
L 170.580193 255.43604 
L 170.580193 251.603644 
L 171.381116 251.603644 
L 171.381116 247.771248 
L 171.96967 247.771248 
L 171.96967 243.938851 
L 172.414508 243.938851 
L 172.414508 240.106455 
L 172.701324 240.106455 
L 172.701324 236.274059 
L 174.617954 236.274059 
L 174.617954 232.441663 
L 179.335838 232.441663 
L 179.335838 228.609267 
L 180.745446 228.609267 
L 180.745446 224.776871 
L 182.213863 224.776871 
L 182.213863 220.944475 
L 182.509883 220.944475 
L 182.509883 217.112079 
L 184.057482 217.112079 
L 184.057482 213.279683 
L 184.321213 213.279683 
L 184.377204 205.614891 
L 185.811159 205.614891 
L 185.811159 201.782495 
L 188.240141 201.782495 
L 188.303951 194.117703 
L 188.544009 194.117703 
L 188.544009 190.285307 
L 190.123257 190.285307 
L 190.123257 186.452911 
L 194.214084 186.452911 
L 194.214084 182.620515 
L 195.273858 182.620515 
L 195.273858 178.788119 
L 197.862836 178.788119 
L 197.862836 174.955723 
L 198.328776 174.955723 
L 198.328776 171.123327 
L 200.101155 171.123327 
L 200.101155 167.290931 
L 200.736931 167.290931 
L 200.736931 163.458535 
L 201.879426 163.458535 
L 201.909294 155.793743 
L 202.981654 155.793743 
L 202.981654 151.961347 
L 206.502666 151.961347 
L 206.5546 144.296554 
L 208.380742 144.296554 
L 208.470538 136.631762 
L 210.63005 136.631762 
L 210.63005 132.799366 
L 212.287929 132.799366 
L 212.287929 128.96697 
L 213.339485 128.96697 
L 213.339485 125.134574 
L 214.806307 125.134574 
L 214.806307 121.302178 
L 215.582402 121.302178 
L 215.582402 117.469782 
L 216.132302 117.469782 
L 216.132302 113.637386 
L 217.408664 113.637386 
L 217.408664 109.80499 
L 218.071553 109.80499 
L 218.071553 105.972594 
L 218.868189 105.972594 
L 218.877391 98.307802 
L 219.157604 98.307802 
L 219.185277 90.64301 
L 220.059932 90.64301 
L 220.059932 86.810614 
L 220.708526 86.810614 
L 220.708526 82.978218 
L 221.069313 82.978218 
L 221.069313 79.145822 
L 223.20613 79.145822 
L 223.20613 75.313426 
L 223.946452 75.313426 
L 223.946452 71.48103 
L 224.731716 71.48103 
L 224.731716 67.648634 
L 231.138952 67.648634 
L 231.138952 63.816238 
L 236.942649 63.816238 
L 236.942649 59.983842 
L 237.432606 59.983842 
L 237.432606 56.151446 
L 237.901707 56.151446 
L 237.901707 52.31905 
L 239.199943 52.31905 
L 239.199943 48.486653 
L 239.600789 48.486653 
L 239.600791 40.821861 
L 240.361248 40.821861 
L 240.361248 33.157069 
L 241.072609 33.157069 
L 241.072611 25.492277 
L 242.060319 25.492277 
L 242.06034 17.827485 
L 242.966792 17.827485 
L 242.966792 13.995089 
L 245.541737 13.995089 
L 245.541737 10.162693 
L 246.20996 10.162693 
L 246.20996 6.330297 
L 246.20996 6.330297 
L 460.8 6.330297 
L 460.8 6.330297 
" clip-path="url(#p34dbc4b53c)" style="fill: none; stroke: #000000; stroke-width: 1.5; stroke-linecap: square"/>
   </g>
   <g id="patch_3">
    <path d="M 0 293.76 
L 0 3.456 
" style="fill: none; stroke: #000000; stroke-width: 0.8; stroke-linejoin: miter; stroke-linecap: square"/>
   </g>
   <g id="patch_4">
    <path d="M 460.8 293.76 
L 460.8 3.456 
" style="fill: none; stroke: #000000; stroke-width: 0.8; stroke-linejoin: miter; stroke-linecap: square"/>
   </g>
   <g id="patch_5">
    <path d="M 0 293.76 
L 460.8 293.76 
" style="fill: none; stroke: #000000; stroke-width: 0.8; stroke-linejoin: miter; stroke-linecap: square"/>
   </g>
   <g id="patch_6">
    <path d="M 0 3.456 
L 460.8 3.456 
" style="fill: none; stroke: #000000; stroke-width: 0.8; stroke-linejoin: miter; stroke-linecap: square"/>
   </g>
   <g id="text_6">
    <!-- {f15-f19}, 20-D -->
    <g transform="translate(293.159 287.95392) scale(0.2 -0.2)">
     <defs>
      <path id="DejaVuSans-7b" d="M 3272 -594 
L 3272 -1044 
L 3078 -1044 
Q 2300 -1044 2036 -812 
Q 1772 -581 1772 109 
L 1772 856 
Q 1772 1328 1603 1509 
Q 1434 1691 991 1691 
L 800 1691 
L 800 2138 
L 991 2138 
Q 1438 2138 1605 2317 
Q 1772 2497 1772 2963 
L 1772 3713 
Q 1772 4403 2036 4633 
Q 2300 4863 3078 4863 
L 3272 4863 
L 3272 4416 
L 3059 4416 
Q 2619 4416 2484 4278 
Q 2350 4141 2350 3700 
L 2350 2925 
Q 2350 2434 2208 2212 
Q 2066 1991 1722 1913 
Q 2069 1828 2209 1606 
Q 2350 1384 2350 897 
L 2350 122 
Q 2350 -319 2484 -456 
Q 2619 -594 3059 -594 
L 3272 -594 
z
" transform="scale(0.015625)"/>
      <path id="DejaVuSans-35" d="M 691 4666 
L 3169 4666 
L 3169 4134 
L 1269 4134 
L 1269 2991 
Q 1406 3038 1543 3061 
Q 1681 3084 1819 3084 
Q 2600 3084 3056 2656 
Q 3513 2228 3513 1497 
Q 3513 744 3044 326 
Q 2575 -91 1722 -91 
Q 1428 -91 1123 -41 
Q 819 9 494 109 
L 494 744 
Q 775 591 1075 516 
Q 1375 441 1709 441 
Q 2250 441 2565 725 
Q 2881 1009 2881 1497 
Q 2881 1984 2565 2268 
Q 2250 2553 1709 2553 
Q 1456 2553 1204 2497 
Q 953 2441 691 2322 
L 691 4666 
z
" transform="scale(0.015625)"/>
      <path id="DejaVuSans-39" d="M 703 97 
L 703 672 
Q 941 559 1184 500 
Q 1428 441 1663 441 
Q 2288 441 2617 861 
Q 2947 1281 2994 2138 
Q 2813 1869 2534 1725 
Q 2256 1581 1919 1581 
Q 1219 1581 811 2004 
Q 403 2428 403 3163 
Q 403 3881 828 4315 
Q 1253 4750 1959 4750 
Q 2769 4750 3195 4129 
Q 3622 3509 3622 2328 
Q 3622 1225 3098 567 
Q 2575 -91 1691 -91 
Q 1453 -91 1209 -44 
Q 966 3 703 97 
z
M 1959 2075 
Q 2384 2075 2632 2365 
Q 2881 2656 2881 3163 
Q 2881 3666 2632 3958 
Q 2384 4250 1959 4250 
Q 1534 4250 1286 3958 
Q 1038 3666 1038 3163 
Q 1038 2656 1286 2365 
Q 1534 2075 1959 2075 
z
" transform="scale(0.015625)"/>
      <path id="DejaVuSans-7d" d="M 800 -594 
L 1019 -594 
Q 1456 -594 1589 -459 
Q 1722 -325 1722 122 
L 1722 897 
Q 1722 1384 1862 1606 
Q 2003 1828 2350 1913 
Q 2003 1991 1862 2212 
Q 1722 2434 1722 2925 
L 1722 3700 
Q 1722 4144 1589 4280 
Q 1456 4416 1019 4416 
L 800 4416 
L 800 4863 
L 997 4863 
Q 1775 4863 2036 4633 
Q 2297 4403 2297 3713 
L 2297 2963 
Q 2297 2497 2465 2317 
Q 2634 2138 3078 2138 
L 3272 2138 
L 3272 1691 
L 3078 1691 
Q 2634 1691 2465 1509 
Q 2297 1328 2297 856 
L 2297 109 
Q 2297 -581 2036 -812 
Q 1775 -1044 997 -1044 
L 800 -1044 
L 800 -594 
z
" transform="scale(0.015625)"/>
      <path id="DejaVuSans-2c" d="M 750 794 
L 1409 794 
L 1409 256 
L 897 -744 
L 494 -744 
L 750 256 
L 750 794 
z
" transform="scale(0.015625)"/>
      <path id="DejaVuSans-32" d="M 1228 531 
L 3431 531 
L 3431 0 
L 469 0 
L 469 531 
Q 828 903 1448 1529 
Q 2069 2156 2228 2338 
Q 2531 2678 2651 2914 
Q 2772 3150 2772 3378 
Q 2772 3750 2511 3984 
Q 2250 4219 1831 4219 
Q 1534 4219 1204 4116 
Q 875 4013 500 3803 
L 500 4441 
Q 881 4594 1212 4672 
Q 1544 4750 1819 4750 
Q 2544 4750 2975 4387 
Q 3406 4025 3406 3419 
Q 3406 3131 3298 2873 
Q 3191 2616 2906 2266 
Q 2828 2175 2409 1742 
Q 1991 1309 1228 531 
z
" transform="scale(0.015625)"/>
     </defs>
     <use xlink:href="#DejaVuSans-7b"/>
     <use xlink:href="#DejaVuSans-66" x="63.623047"/>
     <use xlink:href="#DejaVuSans-31" x="98.828125"/>
     <use xlink:href="#DejaVuSans-35" x="162.451172"/>
     <use xlink:href="#DejaVuSans-2d" x="226.074219"/>
     <use xlink:href="#DejaVuSans-66" x="262.158203"/>
     <use xlink:href="#DejaVuSans-31" x="297.363281"/>
     <use xlink:href="#DejaVuSans-39" x="360.986328"/>
     <use xlink:href="#DejaVuSans-7d" x="424.609375"/>
     <use xlink:href="#DejaVuSans-2c" x="488.232422"/>
     <use xlink:href="#DejaVuSans-20" x="520.019531"/>
     <use xlink:href="#DejaVuSans-32" x="551.806641"/>
     <use xlink:href="#DejaVuSans-30" x="615.429688"/>
     <use xlink:href="#DejaVuSans-2d" x="679.052734"/>
     <use xlink:href="#DejaVuSans-44" x="715.136719"/>
    </g>
   </g>
   <g id="text_7">
    <!-- v2.6.3 -->
    <g style="fill: #808080" transform="translate(214.71875 288.777272) scale(0.1 -0.1)">
     <defs>
      <path id="DejaVuSans-76" d="M 191 3500 
L 800 3500 
L 1894 563 
L 2988 3500 
L 3597 3500 
L 2284 0 
L 1503 0 
L 191 3500 
z
" transform="scale(0.015625)"/>
      <path id="DejaVuSans-2e" d="M 684 794 
L 1344 794 
L 1344 0 
L 684 0 
L 684 794 
z
" transform="scale(0.015625)"/>
      <path id="DejaVuSans-36" d="M 2113 2584 
Q 1688 2584 1439 2293 
Q 1191 2003 1191 1497 
Q 1191 994 1439 701 
Q 1688 409 2113 409 
Q 2538 409 2786 701 
Q 3034 994 3034 1497 
Q 3034 2003 2786 2293 
Q 2538 2584 2113 2584 
z
M 3366 4563 
L 3366 3988 
Q 3128 4100 2886 4159 
Q 2644 4219 2406 4219 
Q 1781 4219 1451 3797 
Q 1122 3375 1075 2522 
Q 1259 2794 1537 2939 
Q 1816 3084 2150 3084 
Q 2853 3084 3261 2657 
Q 3669 2231 3669 1497 
Q 3669 778 3244 343 
Q 2819 -91 2113 -91 
Q 1303 -91 875 529 
Q 447 1150 447 2328 
Q 447 3434 972 4092 
Q 1497 4750 2381 4750 
Q 2619 4750 2861 4703 
Q 3103 4656 3366 4563 
z
" transform="scale(0.015625)"/>
      <path id="DejaVuSans-33" d="M 2597 2516 
Q 3050 2419 3304 2112 
Q 3559 1806 3559 1356 
Q 3559 666 3084 287 
Q 2609 -91 1734 -91 
Q 1441 -91 1130 -33 
Q 819 25 488 141 
L 488 750 
Q 750 597 1062 519 
Q 1375 441 1716 441 
Q 2309 441 2620 675 
Q 2931 909 2931 1356 
Q 2931 1769 2642 2001 
Q 2353 2234 1838 2234 
L 1294 2234 
L 1294 2753 
L 1863 2753 
Q 2328 2753 2575 2939 
Q 2822 3125 2822 3475 
Q 2822 3834 2567 4026 
Q 2313 4219 1838 4219 
Q 1578 4219 1281 4162 
Q 984 4106 628 3988 
L 628 4550 
Q 988 4650 1302 4700 
Q 1616 4750 1894 4750 
Q 2613 4750 3031 4423 
Q 3450 4097 3450 3541 
Q 3450 3153 3228 2886 
Q 3006 2619 2597 2516 
z
" transform="scale(0.015625)"/>
     </defs>
     <use xlink:href="#DejaVuSans-76"/>
     <use xlink:href="#DejaVuSans-32" x="59.179688"/>
     <use xlink:href="#DejaVuSans-2e" x="122.802734"/>
     <use xlink:href="#DejaVuSans-36" x="154.589844"/>
     <use xlink:href="#DejaVuSans-2e" x="218.212891"/>
     <use xlink:href="#DejaVuSans-33" x="250"/>
    </g>
   </g>
  </g>
 </g>
 <defs>
  <clipPath id="p34dbc4b53c">
   <rect x="0" y="3.456" width="460.8" height="290.304"/>
  </clipPath>
 </defs>
</svg>
