<?xml version="1.0" encoding="utf-8" standalone="no"?>
<!DOCTYPE svg PUBLIC "-//W3C//DTD SVG 1.1//EN"
  "http://www.w3.org/Graphics/SVG/1.1/DTD/svg11.dtd">
<svg xmlns:xlink="http://www.w3.org/1999/xlink" width="460.8pt" height="345.6pt" viewBox="0 0 460.8 345.6" xmlns="http://www.w3.org/2000/svg" version="1.1">
 <metadata>
  <rdf:RDF xmlns:dc="http://purl.org/dc/elements/1.1/" xmlns:cc="http://creativecommons.org/ns#" xmlns:rdf="http://www.w3.org/1999/02/22-rdf-syntax-ns#">
   <cc:Work>
    <dc:type rdf:resource="http://purl.org/dc/dcmitype/StillImage"/>
    <dc:date>2024-06-21T19:46:32.407088</dc:date>
    <dc:format>image/svg+xml</dc:format>
    <dc:creator>
     <cc:Agent>
      <dc:title>Matplotlib v3.7.5, https://matplotlib.org/</dc:title>
     </cc:Agent>
    </dc:creator>
   </cc:Work>
  </rdf:RDF>
 </metadata>
 <defs>
  <style type="text/css">*{stroke-linejoin: round; stroke-linecap: butt}</style>
 </defs>
 <g id="figure_1">
  <g id="patch_1">
   <path d="M 0 345.6 
L 460.8 345.6 
L 460.8 0 
L 0 0 
z
" style="fill: #ffffff"/>
  </g>
  <g id="axes_1">
   <g id="patch_2">
    <path d="M 0 293.76 
L 460.8 293.76 
L 460.8 3.456 
L 0 3.456 
z
" style="fill: #ffffff"/>
   </g>
   <g id="matplotlib.axis_1">
    <g id="xtick_1">
     <g id="line2d_1">
      <path d="M 101.409188 293.76 
L 101.409188 3.456 
" clip-path="url(#pf7114b583d)" style="fill: none; stroke: #b0b0b0; stroke-width: 0.8; stroke-linecap: square"/>
     </g>
     <g id="line2d_2">
      <defs>
       <path id="m37390ba082" d="M 0 0 
L 0 3.5 
" style="stroke: #000000; stroke-width: 0.8"/>
      </defs>
      <g>
       <use xlink:href="#m37390ba082" x="101.409188" y="293.76" style="stroke: #000000; stroke-width: 0.8"/>
      </g>
     </g>
     <g id="text_1">
      <!-- -4 -->
      <g transform="translate(91.438875 315.956875) scale(0.2 -0.2)">
       <defs>
        <path id="DejaVuSans-2d" d="M 313 2009 
L 1997 2009 
L 1997 1497 
L 313 1497 
L 313 2009 
z
" transform="scale(0.015625)"/>
        <path id="DejaVuSans-34" d="M 2419 4116 
L 825 1625 
L 2419 1625 
L 2419 4116 
z
M 2253 4666 
L 3047 4666 
L 3047 1625 
L 3713 1625 
L 3713 1100 
L 3047 1100 
L 3047 0 
L 2419 0 
L 2419 1100 
L 313 1100 
L 313 1709 
L 2253 4666 
z
" transform="scale(0.015625)"/>
       </defs>
       <use xlink:href="#DejaVuSans-2d"/>
       <use xlink:href="#DejaVuSans-34" x="36.083984"/>
      </g>
     </g>
    </g>
    <g id="xtick_2">
     <g id="line2d_3">
      <path d="M 202.928051 293.76 
L 202.928051 3.456 
" clip-path="url(#pf7114b583d)" style="fill: none; stroke: #b0b0b0; stroke-width: 0.8; stroke-linecap: square"/>
     </g>
     <g id="line2d_4">
      <g>
       <use xlink:href="#m37390ba082" x="202.928051" y="293.76" style="stroke: #000000; stroke-width: 0.8"/>
      </g>
     </g>
     <g id="text_2">
      <!-- 0 -->
      <g transform="translate(196.565551 315.956875) scale(0.2 -0.2)">
       <defs>
        <path id="DejaVuSans-30" d="M 2034 4250 
Q 1547 4250 1301 3770 
Q 1056 3291 1056 2328 
Q 1056 1369 1301 889 
Q 1547 409 2034 409 
Q 2525 409 2770 889 
Q 3016 1369 3016 2328 
Q 3016 3291 2770 3770 
Q 2525 4250 2034 4250 
z
M 2034 4750 
Q 2819 4750 3233 4129 
Q 3647 3509 3647 2328 
Q 3647 1150 3233 529 
Q 2819 -91 2034 -91 
Q 1250 -91 836 529 
Q 422 1150 422 2328 
Q 422 3509 836 4129 
Q 1250 4750 2034 4750 
z
" transform="scale(0.015625)"/>
       </defs>
       <use xlink:href="#DejaVuSans-30"/>
      </g>
     </g>
    </g>
    <g id="xtick_3">
     <g id="line2d_5">
      <path d="M 304.446914 293.76 
L 304.446914 3.456 
" clip-path="url(#pf7114b583d)" style="fill: none; stroke: #b0b0b0; stroke-width: 0.8; stroke-linecap: square"/>
     </g>
     <g id="line2d_6">
      <g>
       <use xlink:href="#m37390ba082" x="304.446914" y="293.76" style="stroke: #000000; stroke-width: 0.8"/>
      </g>
     </g>
     <g id="text_3">
      <!-- 4 -->
      <g transform="translate(298.084414 315.956875) scale(0.2 -0.2)">
       <use xlink:href="#DejaVuSans-34"/>
      </g>
     </g>
    </g>
    <g id="xtick_4">
     <g id="line2d_7">
      <path d="M 405.965777 293.76 
L 405.965777 3.456 
" clip-path="url(#pf7114b583d)" style="fill: none; stroke: #b0b0b0; stroke-width: 0.8; stroke-linecap: square"/>
     </g>
     <g id="line2d_8">
      <g>
       <use xlink:href="#m37390ba082" x="405.965777" y="293.76" style="stroke: #000000; stroke-width: 0.8"/>
      </g>
     </g>
     <g id="text_4">
      <!-- 8 -->
      <g transform="translate(399.603277 315.956875) scale(0.2 -0.2)">
       <defs>
        <path id="DejaVuSans-38" d="M 2034 2216 
Q 1584 2216 1326 1975 
Q 1069 1734 1069 1313 
Q 1069 891 1326 650 
Q 1584 409 2034 409 
Q 2484 409 2743 651 
Q 3003 894 3003 1313 
Q 3003 1734 2745 1975 
Q 2488 2216 2034 2216 
z
M 1403 2484 
Q 997 2584 770 2862 
Q 544 3141 544 3541 
Q 544 4100 942 4425 
Q 1341 4750 2034 4750 
Q 2731 4750 3128 4425 
Q 3525 4100 3525 3541 
Q 3525 3141 3298 2862 
Q 3072 2584 2669 2484 
Q 3125 2378 3379 2068 
Q 3634 1759 3634 1313 
Q 3634 634 3220 271 
Q 2806 -91 2034 -91 
Q 1263 -91 848 271 
Q 434 634 434 1313 
Q 434 1759 690 2068 
Q 947 2378 1403 2484 
z
M 1172 3481 
Q 1172 3119 1398 2916 
Q 1625 2713 2034 2713 
Q 2441 2713 2670 2916 
Q 2900 3119 2900 3481 
Q 2900 3844 2670 4047 
Q 2441 4250 2034 4250 
Q 1625 4250 1398 4047 
Q 1172 3844 1172 3481 
z
" transform="scale(0.015625)"/>
       </defs>
       <use xlink:href="#DejaVuSans-38"/>
      </g>
     </g>
    </g>
    <g id="text_5">
     <!-- log10 of Df -->
     <g transform="translate(175.214063 339.313125) scale(0.2 -0.2)">
      <defs>
       <path id="DejaVuSans-6c" d="M 603 4863 
L 1178 4863 
L 1178 0 
L 603 0 
L 603 4863 
z
" transform="scale(0.015625)"/>
       <path id="DejaVuSans-6f" d="M 1959 3097 
Q 1497 3097 1228 2736 
Q 959 2375 959 1747 
Q 959 1119 1226 758 
Q 1494 397 1959 397 
Q 2419 397 2687 759 
Q 2956 1122 2956 1747 
Q 2956 2369 2687 2733 
Q 2419 3097 1959 3097 
z
M 1959 3584 
Q 2709 3584 3137 3096 
Q 3566 2609 3566 1747 
Q 3566 888 3137 398 
Q 2709 -91 1959 -91 
Q 1206 -91 779 398 
Q 353 888 353 1747 
Q 353 2609 779 3096 
Q 1206 3584 1959 3584 
z
" transform="scale(0.015625)"/>
       <path id="DejaVuSans-67" d="M 2906 1791 
Q 2906 2416 2648 2759 
Q 2391 3103 1925 3103 
Q 1463 3103 1205 2759 
Q 947 2416 947 1791 
Q 947 1169 1205 825 
Q 1463 481 1925 481 
Q 2391 481 2648 825 
Q 2906 1169 2906 1791 
z
M 3481 434 
Q 3481 -459 3084 -895 
Q 2688 -1331 1869 -1331 
Q 1566 -1331 1297 -1286 
Q 1028 -1241 775 -1147 
L 775 -588 
Q 1028 -725 1275 -790 
Q 1522 -856 1778 -856 
Q 2344 -856 2625 -561 
Q 2906 -266 2906 331 
L 2906 616 
Q 2728 306 2450 153 
Q 2172 0 1784 0 
Q 1141 0 747 490 
Q 353 981 353 1791 
Q 353 2603 747 3093 
Q 1141 3584 1784 3584 
Q 2172 3584 2450 3431 
Q 2728 3278 2906 2969 
L 2906 3500 
L 3481 3500 
L 3481 434 
z
" transform="scale(0.015625)"/>
       <path id="DejaVuSans-31" d="M 794 531 
L 1825 531 
L 1825 4091 
L 703 3866 
L 703 4441 
L 1819 4666 
L 2450 4666 
L 2450 531 
L 3481 531 
L 3481 0 
L 794 0 
L 794 531 
z
" transform="scale(0.015625)"/>
       <path id="DejaVuSans-20" transform="scale(0.015625)"/>
       <path id="DejaVuSans-66" d="M 2375 4863 
L 2375 4384 
L 1825 4384 
Q 1516 4384 1395 4259 
Q 1275 4134 1275 3809 
L 1275 3500 
L 2222 3500 
L 2222 3053 
L 1275 3053 
L 1275 0 
L 697 0 
L 697 3053 
L 147 3053 
L 147 3500 
L 697 3500 
L 697 3744 
Q 697 4328 969 4595 
Q 1241 4863 1831 4863 
L 2375 4863 
z
" transform="scale(0.015625)"/>
       <path id="DejaVuSans-44" d="M 1259 4147 
L 1259 519 
L 2022 519 
Q 2988 519 3436 956 
Q 3884 1394 3884 2338 
Q 3884 3275 3436 3711 
Q 2988 4147 2022 4147 
L 1259 4147 
z
M 628 4666 
L 1925 4666 
Q 3281 4666 3915 4102 
Q 4550 3538 4550 2338 
Q 4550 1131 3912 565 
Q 3275 0 1925 0 
L 628 0 
L 628 4666 
z
" transform="scale(0.015625)"/>
      </defs>
      <use xlink:href="#DejaVuSans-6c"/>
      <use xlink:href="#DejaVuSans-6f" x="27.783203"/>
      <use xlink:href="#DejaVuSans-67" x="88.964844"/>
      <use xlink:href="#DejaVuSans-31" x="152.441406"/>
      <use xlink:href="#DejaVuSans-30" x="216.064453"/>
      <use xlink:href="#DejaVuSans-20" x="279.6875"/>
      <use xlink:href="#DejaVuSans-6f" x="311.474609"/>
      <use xlink:href="#DejaVuSans-66" x="372.65625"/>
      <use xlink:href="#DejaVuSans-20" x="407.861328"/>
      <use xlink:href="#DejaVuSans-44" x="439.648438"/>
      <use xlink:href="#DejaVuSans-66" x="516.650391"/>
     </g>
    </g>
   </g>
   <g id="matplotlib.axis_2">
    <g id="ytick_1">
     <g id="line2d_9">
      <path d="M 0 293.76 
L 460.8 293.76 
" clip-path="url(#pf7114b583d)" style="fill: none; stroke: #b0b0b0; stroke-width: 0.8; stroke-linecap: square"/>
     </g>
     <g id="line2d_10">
      <defs>
       <path id="m3e7e887b45" d="M 0 0 
L -3.5 0 
" style="stroke: #000000; stroke-width: 0.8"/>
      </defs>
      <g>
       <use xlink:href="#m3e7e887b45" x="0" y="293.76" style="stroke: #000000; stroke-width: 0.8"/>
      </g>
     </g>
    </g>
    <g id="ytick_2">
     <g id="line2d_11">
      <path d="M 0 236.274059 
L 460.8 236.274059 
" clip-path="url(#pf7114b583d)" style="fill: none; stroke: #b0b0b0; stroke-width: 0.8; stroke-linecap: square"/>
     </g>
     <g id="line2d_12">
      <g>
       <use xlink:href="#m3e7e887b45" x="0" y="236.274059" style="stroke: #000000; stroke-width: 0.8"/>
      </g>
     </g>
    </g>
    <g id="ytick_3">
     <g id="line2d_13">
      <path d="M 0 178.788119 
L 460.8 178.788119 
" clip-path="url(#pf7114b583d)" style="fill: none; stroke: #b0b0b0; stroke-width: 0.8; stroke-linecap: square"/>
     </g>
     <g id="line2d_14">
      <g>
       <use xlink:href="#m3e7e887b45" x="0" y="178.788119" style="stroke: #000000; stroke-width: 0.8"/>
      </g>
     </g>
    </g>
    <g id="ytick_4">
     <g id="line2d_15">
      <path d="M 0 121.302178 
L 460.8 121.302178 
" clip-path="url(#pf7114b583d)" style="fill: none; stroke: #b0b0b0; stroke-width: 0.8; stroke-linecap: square"/>
     </g>
     <g id="line2d_16">
      <g>
       <use xlink:href="#m3e7e887b45" x="0" y="121.302178" style="stroke: #000000; stroke-width: 0.8"/>
      </g>
     </g>
    </g>
    <g id="ytick_5">
     <g id="line2d_17">
      <path d="M 0 63.816238 
L 460.8 63.816238 
" clip-path="url(#pf7114b583d)" style="fill: none; stroke: #b0b0b0; stroke-width: 0.8; stroke-linecap: square"/>
     </g>
     <g id="line2d_18">
      <g>
       <use xlink:href="#m3e7e887b45" x="0" y="63.816238" style="stroke: #000000; stroke-width: 0.8"/>
      </g>
     </g>
    </g>
    <g id="ytick_6">
     <g id="line2d_19">
      <path d="M 0 6.330297 
L 460.8 6.330297 
" clip-path="url(#pf7114b583d)" style="fill: none; stroke: #b0b0b0; stroke-width: 0.8; stroke-linecap: square"/>
     </g>
     <g id="line2d_20">
      <g>
       <use xlink:href="#m3e7e887b45" x="0" y="6.330297" style="stroke: #000000; stroke-width: 0.8"/>
      </g>
     </g>
    </g>
   </g>
   <g id="line2d_21">
    <path d="M -1 202.740594 
L 7.590522 202.740594 
L 7.590522 197.950099 
L 12.351191 197.950099 
L 12.351191 193.159604 
L 14.11744 193.159604 
L 14.11744 188.369109 
L 16.439016 188.369109 
L 16.439016 183.578614 
L 25.009279 183.578614 
L 25.009279 178.788119 
L 26.264538 178.788119 
L 26.264538 173.997624 
L 31.968001 173.997624 
L 31.968001 169.207129 
L 33.130258 169.207129 
L 33.130258 164.416634 
L 36.219845 164.416634 
L 36.219845 159.626139 
L 37.39406 159.626139 
L 37.39406 154.835644 
L 38.994475 154.835644 
L 38.994475 150.045149 
L 62.259773 150.045149 
L 62.259773 145.254653 
L 69.661739 145.254653 
L 69.661739 140.464158 
L 74.57436 140.464158 
L 74.57436 135.673663 
L 79.586513 135.673663 
L 79.586513 130.883168 
L 80.404954 130.883168 
L 80.404954 126.092673 
L 101.76918 126.092673 
L 101.76918 121.302178 
L 108.364671 121.302178 
L 108.364671 116.511683 
L 112.632488 116.511683 
L 112.632488 111.721188 
L 119.007603 111.721188 
L 119.007603 106.930693 
L 143.55155 106.930693 
L 143.55155 102.140198 
L 148.703175 102.140198 
L 148.703175 97.349703 
L 150.832793 97.349703 
L 150.832793 92.559208 
L 173.318997 92.559208 
L 173.318997 87.768713 
L 173.702641 87.768713 
L 173.702641 82.978218 
L 182.89898 82.978218 
L 182.89898 78.187723 
L 213.137779 78.187723 
L 213.137779 73.397228 
L 215.756898 73.397228 
L 215.756898 68.606733 
L 216.341387 68.606733 
L 216.341387 63.816238 
L 216.904059 63.816238 
L 216.904059 59.025743 
L 218.179611 59.025743 
L 218.179611 54.235248 
L 220.240175 54.235248 
L 220.240175 49.444752 
L 224.401421 49.444752 
L 224.401421 44.654257 
L 225.769297 44.654257 
L 225.769297 39.863762 
L 227.809256 39.863762 
L 227.809256 35.073267 
L 228.314373 35.073267 
L 228.314373 30.282772 
L 229.068615 30.282772 
L 229.068615 25.492277 
L 229.280294 25.492277 
L 229.280294 20.701782 
L 231.846602 20.701782 
L 231.846602 15.911287 
L 232.177582 15.911287 
L 232.177582 11.120792 
L 234.494535 11.120792 
L 234.494535 6.330297 
L 234.494535 6.330297 
L 234.494535 6.330297 
L 460.8 6.330297 
" clip-path="url(#pf7114b583d)" style="fill: none; stroke: #ff0000; stroke-width: 3; stroke-linecap: square"/>
   </g>
   <g id="line2d_22">
    <path d="M 274.326389 293.76 
L 274.326389 288.969505 
L 275.688402 288.969505 
L 275.688402 284.17901 
L 276.227909 284.17901 
L 276.227909 279.388515 
L 280.713396 279.388515 
L 280.713396 274.59802 
L 281.036014 274.59802 
L 281.036014 269.807525 
L 281.278389 269.807525 
L 281.278389 265.01703 
L 283.27808 265.01703 
L 283.27808 260.226535 
L 284.05883 260.226535 
L 284.05883 255.43604 
L 284.452912 255.43604 
L 284.452912 250.645545 
L 284.556636 250.645545 
L 284.556636 245.85505 
L 284.860662 245.85505 
L 284.860662 241.064554 
L 285.205208 241.064554 
L 285.205208 236.274059 
L 286.04257 236.274059 
L 286.04257 231.483564 
L 288.781309 231.483564 
L 288.781309 226.693069 
L 289.297731 226.693069 
L 289.297731 221.902574 
L 334.339591 221.902574 
L 334.339591 217.112079 
L 335.637719 217.112079 
L 335.637719 212.321584 
L 335.694417 212.321584 
L 335.694417 207.531089 
L 337.196862 207.531089 
L 337.196862 202.740594 
L 338.102291 202.740594 
L 338.102291 197.950099 
L 338.976219 197.950099 
L 338.976219 193.159604 
L 338.996019 193.159604 
L 338.996019 188.369109 
L 341.738641 188.369109 
L 341.738641 183.578614 
L 342.055782 183.578614 
L 342.055782 178.788119 
L 342.063986 178.788119 
L 342.063986 173.997624 
L 342.100236 173.997624 
L 342.100236 169.207129 
L 342.545499 169.207129 
L 342.545499 164.416634 
L 342.857581 164.416634 
L 342.857581 159.626139 
L 342.91654 159.626139 
L 342.91654 154.835644 
L 343.122109 154.835644 
L 343.122109 150.045149 
L 343.306607 150.045149 
L 343.306607 145.254653 
L 343.320898 145.254653 
L 343.320898 140.464158 
L 343.545215 140.464158 
L 343.545215 135.673663 
L 343.577704 135.673663 
L 343.577704 130.883168 
L 343.920823 130.883168 
L 343.920823 126.092673 
L 344.45979 126.092673 
L 344.45979 121.302178 
L 344.523208 121.302178 
L 344.523208 116.511683 
L 344.586188 116.511683 
L 344.586188 111.721188 
L 344.977001 111.721188 
L 344.977001 106.930693 
L 345.064823 106.930693 
L 345.064823 102.140198 
L 345.369269 102.140198 
L 345.369269 97.349703 
L 345.612571 97.349703 
L 345.612571 92.559208 
L 346.594198 92.559208 
L 346.594198 87.768713 
L 346.649092 87.768713 
L 346.649092 82.978218 
L 346.819532 82.978218 
L 346.819532 78.187723 
L 346.846984 78.187723 
L 346.846984 73.397228 
L 348.005575 73.397228 
L 348.005575 68.606733 
L 348.00616 68.606733 
L 348.00616 63.816238 
L 349.185522 63.816238 
L 349.185522 59.025743 
L 349.278118 59.025743 
L 349.278118 54.235248 
L 349.365803 54.235248 
L 349.365803 49.444752 
L 349.509394 49.444752 
L 349.509394 44.654257 
L 350.017882 44.654257 
L 350.017882 39.863762 
L 350.222715 39.863762 
L 350.222715 35.073267 
L 350.963216 35.073267 
L 350.963216 30.282772 
L 351.081535 30.282772 
L 351.081535 25.492277 
L 351.166287 25.492277 
L 351.166287 20.701782 
L 352.080471 20.701782 
L 352.080471 15.911287 
L 352.741739 15.911287 
L 352.741739 11.120792 
L 355.767196 11.120792 
L 355.767196 6.330297 
L 355.767196 6.330297 
L 355.767196 6.330297 
L 460.8 6.330297 
" clip-path="url(#pf7114b583d)" style="fill: none; stroke: #00bfbf; stroke-width: 1.5; stroke-linecap: square"/>
   </g>
   <g id="line2d_23">
    <path d="M 274.326389 293.76 
L 274.326389 288.969505 
L 275.688402 288.969505 
L 275.688402 284.17901 
L 276.227909 284.17901 
L 276.227909 279.388515 
L 276.762718 279.388515 
L 276.762718 274.59802 
L 277.163034 274.59802 
L 277.163034 269.807525 
L 277.495342 269.807525 
L 277.495342 265.01703 
L 278.288717 265.01703 
L 278.288717 260.226535 
L 278.771198 260.226535 
L 278.771198 255.43604 
L 279.80312 255.43604 
L 279.80312 250.645545 
L 280.185851 250.645545 
L 280.185851 245.85505 
L 280.713396 245.85505 
L 280.713396 241.064554 
L 280.793311 241.064554 
L 280.793311 236.274059 
L 281.036014 236.274059 
L 281.036014 231.483564 
L 284.815613 231.483564 
L 284.815613 226.693069 
L 288.115137 226.693069 
L 288.115137 221.902574 
L 324.150222 221.902574 
L 324.150222 217.112079 
L 324.183311 217.112079 
L 324.183311 212.321584 
L 326.532338 212.321584 
L 326.532338 207.531089 
L 328.20861 207.531089 
L 328.20861 202.740594 
L 329.070666 202.740594 
L 329.070666 197.950099 
L 329.413832 197.950099 
L 329.413832 193.159604 
L 330.213237 193.159604 
L 330.213237 188.369109 
L 330.337763 188.369109 
L 330.337763 183.578614 
L 330.98747 183.578614 
L 330.98747 178.788119 
L 331.045036 178.788119 
L 331.045036 173.997624 
L 331.698885 173.997624 
L 331.698885 169.207129 
L 333.042467 169.207129 
L 333.042467 164.416634 
L 333.312377 164.416634 
L 333.312377 159.626139 
L 334.361474 159.626139 
L 334.361474 154.835644 
L 334.361933 154.835644 
L 334.361933 150.045149 
L 334.616547 150.045149 
L 334.616547 145.254653 
L 334.859688 145.254653 
L 334.859688 140.464158 
L 335.694417 140.464158 
L 335.694417 135.673663 
L 336.500395 135.673663 
L 336.500395 130.883168 
L 336.920664 130.883168 
L 336.920664 126.092673 
L 337.455549 126.092673 
L 337.455549 121.302178 
L 337.800856 121.302178 
L 337.800856 116.511683 
L 338.172005 116.511683 
L 338.172005 111.721188 
L 338.996019 111.721188 
L 338.996019 106.930693 
L 339.225472 106.930693 
L 339.225472 102.140198 
L 339.430483 102.140198 
L 339.430483 97.349703 
L 339.776459 97.349703 
L 339.776459 92.559208 
L 339.866259 92.559208 
L 339.866259 87.768713 
L 341.993062 87.768713 
L 341.993062 82.978218 
L 342.124941 82.978218 
L 342.124941 78.187723 
L 342.222803 78.187723 
L 342.222803 73.397228 
L 342.615357 73.397228 
L 342.615357 68.606733 
L 343.312465 68.606733 
L 343.312465 63.816238 
L 344.523208 63.816238 
L 344.523208 59.025743 
L 344.806829 59.025743 
L 344.806829 54.235248 
L 344.885039 54.235248 
L 344.885039 49.444752 
L 344.989089 49.444752 
L 344.989089 44.654257 
L 345.467001 44.654257 
L 345.467001 39.863762 
L 345.87308 39.863762 
L 345.87308 35.073267 
L 349.260381 35.073267 
L 349.260381 30.282772 
L 349.416551 30.282772 
L 349.416551 25.492277 
L 349.509394 25.492277 
L 349.509394 20.701782 
L 349.790024 20.701782 
L 349.790024 15.911287 
L 349.942242 15.911287 
L 349.942242 11.120792 
L 350.017882 11.120792 
L 350.017882 6.330297 
L 350.017882 6.330297 
L 350.017882 6.330297 
L 460.8 6.330297 
" clip-path="url(#pf7114b583d)" style="fill: none; stroke: #bf00bf; stroke-width: 1.5; stroke-linecap: square"/>
   </g>
   <g id="line2d_24">
    <path d="M 269.735844 293.76 
L 269.735844 288.969505 
L 270.687858 288.969505 
L 270.687858 284.17901 
L 271.195617 284.17901 
L 271.195617 279.388515 
L 271.306644 279.388515 
L 271.306644 274.59802 
L 271.800911 274.59802 
L 271.800911 269.807525 
L 273.151222 269.807525 
L 273.151222 265.01703 
L 274.039353 265.01703 
L 274.039353 260.226535 
L 274.326389 260.226535 
L 274.326389 255.43604 
L 275.124998 255.43604 
L 275.124998 250.645545 
L 275.688402 250.645545 
L 275.688402 245.85505 
L 276.227909 245.85505 
L 276.227909 241.064554 
L 277.163034 241.064554 
L 277.163034 236.274059 
L 277.897274 236.274059 
L 277.897274 231.483564 
L 279.04451 231.483564 
L 279.04451 226.693069 
L 279.990598 226.693069 
L 279.990598 221.902574 
L 305.808222 221.902574 
L 305.808222 217.112079 
L 318.824438 217.112079 
L 318.824438 212.321584 
L 324.147313 212.321584 
L 324.147313 207.531089 
L 324.150222 207.531089 
L 324.150222 202.740594 
L 324.183311 202.740594 
L 324.183311 197.950099 
L 324.216159 197.950099 
L 324.216159 193.159604 
L 326.532338 193.159604 
L 326.532338 188.369109 
L 326.675815 188.369109 
L 326.675815 183.578614 
L 328.20861 183.578614 
L 328.20861 178.788119 
L 328.707344 178.788119 
L 328.707344 173.997624 
L 329.059205 173.997624 
L 329.059205 169.207129 
L 329.070666 169.207129 
L 329.070666 164.416634 
L 329.320297 164.416634 
L 329.320297 159.626139 
L 329.413832 159.626139 
L 329.413832 154.835644 
L 329.438409 154.835644 
L 329.438409 150.045149 
L 329.808948 150.045149 
L 329.808948 145.254653 
L 330.213237 145.254653 
L 330.213237 140.464158 
L 330.215532 140.464158 
L 330.215532 135.673663 
L 330.337763 135.673663 
L 330.337763 130.883168 
L 331.217449 130.883168 
L 331.217449 126.092673 
L 331.634725 126.092673 
L 331.634725 121.302178 
L 331.698885 121.302178 
L 331.698885 116.511683 
L 331.720365 116.511683 
L 331.720365 111.721188 
L 331.838657 111.721188 
L 331.838657 106.930693 
L 332.119228 106.930693 
L 332.119228 102.140198 
L 333.042467 102.140198 
L 333.042467 97.349703 
L 333.312377 97.349703 
L 333.312377 92.559208 
L 334.175057 92.559208 
L 334.175057 87.768713 
L 334.303123 87.768713 
L 334.303123 82.978218 
L 334.361474 82.978218 
L 334.361474 78.187723 
L 334.361933 78.187723 
L 334.361933 73.397228 
L 334.512535 73.397228 
L 334.512535 68.606733 
L 334.616547 68.606733 
L 334.616547 63.816238 
L 334.859688 63.816238 
L 334.859688 59.025743 
L 335.694417 59.025743 
L 335.694417 54.235248 
L 335.936023 54.235248 
L 335.936023 49.444752 
L 336.295686 49.444752 
L 336.295686 44.654257 
L 336.500395 44.654257 
L 336.500395 39.863762 
L 337.27679 39.863762 
L 337.27679 35.073267 
L 337.468087 35.073267 
L 337.468087 30.282772 
L 338.927717 30.282772 
L 338.927717 25.492277 
L 339.225472 25.492277 
L 339.225472 20.701782 
L 340.871441 20.701782 
L 340.871441 15.911287 
L 341.908762 15.911287 
L 341.908762 11.120792 
L 343.465584 11.120792 
L 343.465584 6.330297 
L 343.465584 6.330297 
L 343.465584 6.330297 
L 460.8 6.330297 
" clip-path="url(#pf7114b583d)" style="fill: none; stroke: #000000; stroke-width: 1.5; stroke-linecap: square"/>
   </g>
   <g id="line2d_25">
    <path d="M 261.878105 293.76 
L 261.878105 288.969505 
L 262.591708 288.969505 
L 262.591708 284.17901 
L 262.657703 284.17901 
L 262.657703 279.388515 
L 263.258318 279.388515 
L 263.258318 274.59802 
L 263.300484 274.59802 
L 263.300484 269.807525 
L 263.730092 269.807525 
L 263.730092 265.01703 
L 264.085067 265.01703 
L 264.085067 260.226535 
L 264.528809 260.226535 
L 264.528809 255.43604 
L 264.895769 255.43604 
L 264.895769 250.645545 
L 265.864598 250.645545 
L 265.864598 245.85505 
L 267.642588 245.85505 
L 267.642588 241.064554 
L 267.890432 241.064554 
L 267.890432 236.274059 
L 268.882497 236.274059 
L 268.882497 231.483564 
L 269.443734 231.483564 
L 269.443734 226.693069 
L 270.029386 226.693069 
L 270.029386 221.902574 
L 271.464098 221.902574 
L 271.464098 217.112079 
L 272.179865 217.112079 
L 272.179865 212.321584 
L 274.574474 212.321584 
L 274.574474 207.531089 
L 275.485382 207.531089 
L 275.485382 202.740594 
L 276.044128 202.740594 
L 276.044128 197.950099 
L 277.173963 197.950099 
L 277.173963 193.159604 
L 277.416714 193.159604 
L 277.416714 188.369109 
L 278.496442 188.369109 
L 278.496442 183.578614 
L 279.003964 183.578614 
L 279.003964 178.788119 
L 279.119718 178.788119 
L 279.119718 173.997624 
L 279.455885 173.997624 
L 279.455885 169.207129 
L 282.245525 169.207129 
L 282.245525 164.416634 
L 285.737018 164.416634 
L 285.737018 159.626139 
L 286.679789 159.626139 
L 286.679789 154.835644 
L 290.704258 154.835644 
L 290.704258 150.045149 
L 293.447049 150.045149 
L 293.447049 145.254653 
L 293.92704 145.254653 
L 293.92704 140.464158 
L 295.045403 140.464158 
L 295.045403 135.673663 
L 295.358492 135.673663 
L 295.358492 130.883168 
L 295.581132 130.883168 
L 295.581132 126.092673 
L 296.005463 126.092673 
L 296.005463 121.302178 
L 297.652113 121.302178 
L 297.652113 116.511683 
L 298.363322 116.511683 
L 298.363322 111.721188 
L 299.30231 111.721188 
L 299.30231 106.930693 
L 300.164527 106.930693 
L 300.164527 102.140198 
L 300.814326 102.140198 
L 300.814326 97.349703 
L 301.435921 97.349703 
L 301.435921 92.559208 
L 301.537576 92.559208 
L 301.537576 87.768713 
L 302.430092 87.768713 
L 302.430092 82.978218 
L 302.618261 82.978218 
L 302.618261 78.187723 
L 303.22948 78.187723 
L 303.22948 73.397228 
L 303.826426 73.397228 
L 303.826426 68.606733 
L 304.667323 68.606733 
L 304.667323 63.816238 
L 305.175643 63.816238 
L 305.175643 59.025743 
L 305.352882 59.025743 
L 305.352882 54.235248 
L 306.132176 54.235248 
L 306.132176 49.444752 
L 308.640846 49.444752 
L 308.640846 44.654257 
L 309.193716 44.654257 
L 309.193716 39.863762 
L 309.444355 39.863762 
L 309.444355 35.073267 
L 309.778202 35.073267 
L 309.778202 30.282772 
L 310.026928 30.282772 
L 310.026928 25.492277 
L 311.049422 25.492277 
L 311.049422 20.701782 
L 311.433054 20.701782 
L 311.433054 15.911287 
L 313.776052 15.911287 
L 313.776052 11.120792 
L 313.903462 11.120792 
L 313.903462 6.330297 
L 313.903462 6.330297 
L 313.903462 6.330297 
L 460.8 6.330297 
" clip-path="url(#pf7114b583d)" style="fill: none; stroke: #00bfbf; stroke-width: 1.5; stroke-linecap: square"/>
   </g>
   <g id="line2d_26">
    <path d="M 215.812271 293.76 
L 215.812271 288.969505 
L 216.341387 288.969505 
L 216.341387 284.17901 
L 217.973513 284.17901 
L 217.973513 279.388515 
L 218.315959 279.388515 
L 218.315959 274.59802 
L 218.642823 274.59802 
L 218.642823 269.807525 
L 219.3003 269.807525 
L 219.3003 265.01703 
L 220.033281 265.01703 
L 220.033281 260.226535 
L 220.087677 260.226535 
L 220.087677 255.43604 
L 222.93256 255.43604 
L 222.93256 250.645545 
L 223.420298 250.645545 
L 223.420298 245.85505 
L 224.442686 245.85505 
L 224.442686 241.064554 
L 224.773962 241.064554 
L 224.773962 236.274059 
L 226.261174 236.274059 
L 226.261174 231.483564 
L 227.809256 231.483564 
L 227.809256 226.693069 
L 228.318901 226.693069 
L 228.318901 221.902574 
L 228.521864 221.902574 
L 228.521864 217.112079 
L 229.068615 217.112079 
L 229.068615 212.321584 
L 229.310818 212.321584 
L 229.310818 207.531089 
L 229.960323 207.531089 
L 229.960323 202.740594 
L 230.774525 202.740594 
L 230.774525 197.950099 
L 230.786658 197.950099 
L 230.786658 193.159604 
L 231.738836 193.159604 
L 231.738836 188.369109 
L 232.043858 188.369109 
L 232.043858 183.578614 
L 232.177582 183.578614 
L 232.177582 178.788119 
L 234.172652 178.788119 
L 234.172652 173.997624 
L 234.249957 173.997624 
L 234.249957 169.207129 
L 234.3177 169.207129 
L 234.3177 164.416634 
L 234.360334 164.416634 
L 234.360334 159.626139 
L 234.370829 159.626139 
L 234.370829 154.835644 
L 234.391743 154.835644 
L 234.391743 150.045149 
L 234.438015 150.045149 
L 234.438015 145.254653 
L 234.496658 145.254653 
L 234.496658 140.464158 
L 234.527958 140.464158 
L 234.527958 135.673663 
L 234.529821 135.673663 
L 234.529821 130.883168 
L 234.576827 130.883168 
L 234.576827 126.092673 
L 234.588409 126.092673 
L 234.588409 121.302178 
L 234.597266 121.302178 
L 234.597266 116.511683 
L 234.685153 116.511683 
L 234.685153 111.721188 
L 234.714218 111.721188 
L 234.714218 106.930693 
L 234.745659 106.930693 
L 234.745659 102.140198 
L 234.787563 102.140198 
L 234.787563 97.349703 
L 234.828858 97.349703 
L 234.828858 92.559208 
L 234.869995 92.559208 
L 234.869995 87.768713 
L 234.932068 87.768713 
L 234.932068 82.978218 
L 234.941319 82.978218 
L 234.941319 78.187723 
L 234.943228 78.187723 
L 234.943228 73.397228 
L 234.951605 73.397228 
L 234.951605 68.606733 
L 235.114693 68.606733 
L 235.114693 63.816238 
L 235.158989 63.816238 
L 235.158989 59.025743 
L 235.463377 59.025743 
L 235.463377 54.235248 
L 235.494606 54.235248 
L 235.494606 49.444752 
L 235.544759 49.444752 
L 235.544759 44.654257 
L 235.563783 44.654257 
L 235.563783 39.863762 
L 235.576518 39.863762 
L 235.576518 35.073267 
L 235.600681 35.073267 
L 235.600681 30.282772 
L 236.734402 30.282772 
L 236.734402 25.492277 
L 236.851634 25.492277 
L 236.851634 20.701782 
L 237.512173 20.701782 
L 237.512173 15.911287 
L 244.506168 15.911287 
L 244.506168 11.120792 
L 252.003432 11.120792 
L 252.003432 6.330297 
L 252.003432 6.330297 
L 252.003432 6.330297 
L 460.8 6.330297 
" clip-path="url(#pf7114b583d)" style="fill: none; stroke: #bf00bf; stroke-width: 1.5; stroke-linecap: square"/>
   </g>
   <g id="line2d_27">
    <path d="M -1 202.740594 
L 7.590522 202.740594 
L 7.590522 197.950099 
L 12.351191 197.950099 
L 12.351191 193.159604 
L 14.11744 193.159604 
L 14.11744 188.369109 
L 16.439016 188.369109 
L 16.439016 183.578614 
L 25.009279 183.578614 
L 25.009279 178.788119 
L 26.264538 178.788119 
L 26.264538 173.997624 
L 31.968001 173.997624 
L 31.968001 169.207129 
L 33.130258 169.207129 
L 33.130258 164.416634 
L 36.219845 164.416634 
L 36.219845 159.626139 
L 37.39406 159.626139 
L 37.39406 154.835644 
L 38.994475 154.835644 
L 38.994475 150.045149 
L 62.259773 150.045149 
L 62.259773 145.254653 
L 69.661739 145.254653 
L 69.661739 140.464158 
L 74.57436 140.464158 
L 74.57436 135.673663 
L 79.586513 135.673663 
L 79.586513 130.883168 
L 80.404954 130.883168 
L 80.404954 126.092673 
L 101.76918 126.092673 
L 101.76918 121.302178 
L 108.364671 121.302178 
L 108.364671 116.511683 
L 112.632488 116.511683 
L 112.632488 111.721188 
L 119.007603 111.721188 
L 119.007603 106.930693 
L 143.55155 106.930693 
L 143.55155 102.140198 
L 148.703175 102.140198 
L 148.703175 97.349703 
L 150.832793 97.349703 
L 150.832793 92.559208 
L 173.318997 92.559208 
L 173.318997 87.768713 
L 173.702641 87.768713 
L 173.702641 82.978218 
L 182.89898 82.978218 
L 182.89898 78.187723 
L 213.137779 78.187723 
L 213.137779 73.397228 
L 215.756898 73.397228 
L 215.756898 68.606733 
L 216.341387 68.606733 
L 216.341387 63.816238 
L 216.904059 63.816238 
L 216.904059 59.025743 
L 218.179611 59.025743 
L 218.179611 54.235248 
L 220.240175 54.235248 
L 220.240175 49.444752 
L 224.401421 49.444752 
L 224.401421 44.654257 
L 225.769297 44.654257 
L 225.769297 39.863762 
L 227.809256 39.863762 
L 227.809256 35.073267 
L 228.314373 35.073267 
L 228.314373 30.282772 
L 229.068615 30.282772 
L 229.068615 25.492277 
L 229.280294 25.492277 
L 229.280294 20.701782 
L 231.846602 20.701782 
L 231.846602 15.911287 
L 232.177582 15.911287 
L 232.177582 11.120792 
L 234.494535 11.120792 
L 234.494535 6.330297 
L 234.494535 6.330297 
L 234.494535 6.330297 
L 460.8 6.330297 
" clip-path="url(#pf7114b583d)" style="fill: none; stroke: #000000; stroke-width: 1.5; stroke-linecap: square"/>
   </g>
   <g id="patch_3">
    <path d="M 0 293.76 
L 0 3.456 
" style="fill: none; stroke: #000000; stroke-width: 0.8; stroke-linejoin: miter; stroke-linecap: square"/>
   </g>
   <g id="patch_4">
    <path d="M 460.8 293.76 
L 460.8 3.456 
" style="fill: none; stroke: #000000; stroke-width: 0.8; stroke-linejoin: miter; stroke-linecap: square"/>
   </g>
   <g id="patch_5">
    <path d="M 0 293.76 
L 460.8 293.76 
" style="fill: none; stroke: #000000; stroke-width: 0.8; stroke-linejoin: miter; stroke-linecap: square"/>
   </g>
   <g id="patch_6">
    <path d="M 0 3.456 
L 460.8 3.456 
" style="fill: none; stroke: #000000; stroke-width: 0.8; stroke-linejoin: miter; stroke-linecap: square"/>
   </g>
   <g id="text_6">
    <!-- {f6-f9}, 20-D -->
    <g transform="translate(318.609 287.95392) scale(0.2 -0.2)">
     <defs>
      <path id="DejaVuSans-7b" d="M 3272 -594 
L 3272 -1044 
L 3078 -1044 
Q 2300 -1044 2036 -812 
Q 1772 -581 1772 109 
L 1772 856 
Q 1772 1328 1603 1509 
Q 1434 1691 991 1691 
L 800 1691 
L 800 2138 
L 991 2138 
Q 1438 2138 1605 2317 
Q 1772 2497 1772 2963 
L 1772 3713 
Q 1772 4403 2036 4633 
Q 2300 4863 3078 4863 
L 3272 4863 
L 3272 4416 
L 3059 4416 
Q 2619 4416 2484 4278 
Q 2350 4141 2350 3700 
L 2350 2925 
Q 2350 2434 2208 2212 
Q 2066 1991 1722 1913 
Q 2069 1828 2209 1606 
Q 2350 1384 2350 897 
L 2350 122 
Q 2350 -319 2484 -456 
Q 2619 -594 3059 -594 
L 3272 -594 
z
" transform="scale(0.015625)"/>
      <path id="DejaVuSans-36" d="M 2113 2584 
Q 1688 2584 1439 2293 
Q 1191 2003 1191 1497 
Q 1191 994 1439 701 
Q 1688 409 2113 409 
Q 2538 409 2786 701 
Q 3034 994 3034 1497 
Q 3034 2003 2786 2293 
Q 2538 2584 2113 2584 
z
M 3366 4563 
L 3366 3988 
Q 3128 4100 2886 4159 
Q 2644 4219 2406 4219 
Q 1781 4219 1451 3797 
Q 1122 3375 1075 2522 
Q 1259 2794 1537 2939 
Q 1816 3084 2150 3084 
Q 2853 3084 3261 2657 
Q 3669 2231 3669 1497 
Q 3669 778 3244 343 
Q 2819 -91 2113 -91 
Q 1303 -91 875 529 
Q 447 1150 447 2328 
Q 447 3434 972 4092 
Q 1497 4750 2381 4750 
Q 2619 4750 2861 4703 
Q 3103 4656 3366 4563 
z
" transform="scale(0.015625)"/>
      <path id="DejaVuSans-39" d="M 703 97 
L 703 672 
Q 941 559 1184 500 
Q 1428 441 1663 441 
Q 2288 441 2617 861 
Q 2947 1281 2994 2138 
Q 2813 1869 2534 1725 
Q 2256 1581 1919 1581 
Q 1219 1581 811 2004 
Q 403 2428 403 3163 
Q 403 3881 828 4315 
Q 1253 4750 1959 4750 
Q 2769 4750 3195 4129 
Q 3622 3509 3622 2328 
Q 3622 1225 3098 567 
Q 2575 -91 1691 -91 
Q 1453 -91 1209 -44 
Q 966 3 703 97 
z
M 1959 2075 
Q 2384 2075 2632 2365 
Q 2881 2656 2881 3163 
Q 2881 3666 2632 3958 
Q 2384 4250 1959 4250 
Q 1534 4250 1286 3958 
Q 1038 3666 1038 3163 
Q 1038 2656 1286 2365 
Q 1534 2075 1959 2075 
z
" transform="scale(0.015625)"/>
      <path id="DejaVuSans-7d" d="M 800 -594 
L 1019 -594 
Q 1456 -594 1589 -459 
Q 1722 -325 1722 122 
L 1722 897 
Q 1722 1384 1862 1606 
Q 2003 1828 2350 1913 
Q 2003 1991 1862 2212 
Q 1722 2434 1722 2925 
L 1722 3700 
Q 1722 4144 1589 4280 
Q 1456 4416 1019 4416 
L 800 4416 
L 800 4863 
L 997 4863 
Q 1775 4863 2036 4633 
Q 2297 4403 2297 3713 
L 2297 2963 
Q 2297 2497 2465 2317 
Q 2634 2138 3078 2138 
L 3272 2138 
L 3272 1691 
L 3078 1691 
Q 2634 1691 2465 1509 
Q 2297 1328 2297 856 
L 2297 109 
Q 2297 -581 2036 -812 
Q 1775 -1044 997 -1044 
L 800 -1044 
L 800 -594 
z
" transform="scale(0.015625)"/>
      <path id="DejaVuSans-2c" d="M 750 794 
L 1409 794 
L 1409 256 
L 897 -744 
L 494 -744 
L 750 256 
L 750 794 
z
" transform="scale(0.015625)"/>
      <path id="DejaVuSans-32" d="M 1228 531 
L 3431 531 
L 3431 0 
L 469 0 
L 469 531 
Q 828 903 1448 1529 
Q 2069 2156 2228 2338 
Q 2531 2678 2651 2914 
Q 2772 3150 2772 3378 
Q 2772 3750 2511 3984 
Q 2250 4219 1831 4219 
Q 1534 4219 1204 4116 
Q 875 4013 500 3803 
L 500 4441 
Q 881 4594 1212 4672 
Q 1544 4750 1819 4750 
Q 2544 4750 2975 4387 
Q 3406 4025 3406 3419 
Q 3406 3131 3298 2873 
Q 3191 2616 2906 2266 
Q 2828 2175 2409 1742 
Q 1991 1309 1228 531 
z
" transform="scale(0.015625)"/>
     </defs>
     <use xlink:href="#DejaVuSans-7b"/>
     <use xlink:href="#DejaVuSans-66" x="63.623047"/>
     <use xlink:href="#DejaVuSans-36" x="98.828125"/>
     <use xlink:href="#DejaVuSans-2d" x="162.451172"/>
     <use xlink:href="#DejaVuSans-66" x="198.535156"/>
     <use xlink:href="#DejaVuSans-39" x="233.740234"/>
     <use xlink:href="#DejaVuSans-7d" x="297.363281"/>
     <use xlink:href="#DejaVuSans-2c" x="360.986328"/>
     <use xlink:href="#DejaVuSans-20" x="392.773438"/>
     <use xlink:href="#DejaVuSans-32" x="424.560547"/>
     <use xlink:href="#DejaVuSans-30" x="488.183594"/>
     <use xlink:href="#DejaVuSans-2d" x="551.806641"/>
     <use xlink:href="#DejaVuSans-44" x="587.890625"/>
    </g>
   </g>
   <g id="text_7">
    <!-- v2.6.3 -->
    <g style="fill: #808080" transform="translate(214.71875 288.777272) scale(0.1 -0.1)">
     <defs>
      <path id="DejaVuSans-76" d="M 191 3500 
L 800 3500 
L 1894 563 
L 2988 3500 
L 3597 3500 
L 2284 0 
L 1503 0 
L 191 3500 
z
" transform="scale(0.015625)"/>
      <path id="DejaVuSans-2e" d="M 684 794 
L 1344 794 
L 1344 0 
L 684 0 
L 684 794 
z
" transform="scale(0.015625)"/>
      <path id="DejaVuSans-33" d="M 2597 2516 
Q 3050 2419 3304 2112 
Q 3559 1806 3559 1356 
Q 3559 666 3084 287 
Q 2609 -91 1734 -91 
Q 1441 -91 1130 -33 
Q 819 25 488 141 
L 488 750 
Q 750 597 1062 519 
Q 1375 441 1716 441 
Q 2309 441 2620 675 
Q 2931 909 2931 1356 
Q 2931 1769 2642 2001 
Q 2353 2234 1838 2234 
L 1294 2234 
L 1294 2753 
L 1863 2753 
Q 2328 2753 2575 2939 
Q 2822 3125 2822 3475 
Q 2822 3834 2567 4026 
Q 2313 4219 1838 4219 
Q 1578 4219 1281 4162 
Q 984 4106 628 3988 
L 628 4550 
Q 988 4650 1302 4700 
Q 1616 4750 1894 4750 
Q 2613 4750 3031 4423 
Q 3450 4097 3450 3541 
Q 3450 3153 3228 2886 
Q 3006 2619 2597 2516 
z
" transform="scale(0.015625)"/>
     </defs>
     <use xlink:href="#DejaVuSans-76"/>
     <use xlink:href="#DejaVuSans-32" x="59.179688"/>
     <use xlink:href="#DejaVuSans-2e" x="122.802734"/>
     <use xlink:href="#DejaVuSans-36" x="154.589844"/>
     <use xlink:href="#DejaVuSans-2e" x="218.212891"/>
     <use xlink:href="#DejaVuSans-33" x="250"/>
    </g>
   </g>
  </g>
 </g>
 <defs>
  <clipPath id="pf7114b583d">
   <rect x="0" y="3.456" width="460.8" height="290.304"/>
  </clipPath>
 </defs>
</svg>
