<?xml version="1.0" encoding="utf-8" standalone="no"?>
<!DOCTYPE svg PUBLIC "-//W3C//DTD SVG 1.1//EN"
  "http://www.w3.org/Graphics/SVG/1.1/DTD/svg11.dtd">
<svg xmlns:xlink="http://www.w3.org/1999/xlink" width="460.8pt" height="345.6pt" viewBox="0 0 460.8 345.6" xmlns="http://www.w3.org/2000/svg" version="1.1">
 <metadata>
  <rdf:RDF xmlns:dc="http://purl.org/dc/elements/1.1/" xmlns:cc="http://creativecommons.org/ns#" xmlns:rdf="http://www.w3.org/1999/02/22-rdf-syntax-ns#">
   <cc:Work>
    <dc:type rdf:resource="http://purl.org/dc/dcmitype/StillImage"/>
    <dc:date>2024-06-21T19:46:33.781562</dc:date>
    <dc:format>image/svg+xml</dc:format>
    <dc:creator>
     <cc:Agent>
      <dc:title>Matplotlib v3.7.5, https://matplotlib.org/</dc:title>
     </cc:Agent>
    </dc:creator>
   </cc:Work>
  </rdf:RDF>
 </metadata>
 <defs>
  <style type="text/css">*{stroke-linejoin: round; stroke-linecap: butt}</style>
 </defs>
 <g id="figure_1">
  <g id="patch_1">
   <path d="M 0 345.6 
L 460.8 345.6 
L 460.8 0 
L 0 0 
z
" style="fill: #ffffff"/>
  </g>
  <g id="axes_1">
   <g id="patch_2">
    <path d="M 0 293.76 
L 460.8 293.76 
L 460.8 3.456 
L 0 3.456 
z
" style="fill: #ffffff"/>
   </g>
   <g id="matplotlib.axis_1">
    <g id="xtick_1">
     <g id="line2d_1">
      <path d="M 101.409188 293.76 
L 101.409188 3.456 
" clip-path="url(#p12166f08d8)" style="fill: none; stroke: #b0b0b0; stroke-width: 0.8; stroke-linecap: square"/>
     </g>
     <g id="line2d_2">
      <defs>
       <path id="mcb524445bf" d="M 0 0 
L 0 3.5 
" style="stroke: #000000; stroke-width: 0.8"/>
      </defs>
      <g>
       <use xlink:href="#mcb524445bf" x="101.409188" y="293.76" style="stroke: #000000; stroke-width: 0.8"/>
      </g>
     </g>
     <g id="text_1">
      <!-- -4 -->
      <g transform="translate(91.438875 315.956875) scale(0.2 -0.2)">
       <defs>
        <path id="DejaVuSans-2d" d="M 313 2009 
L 1997 2009 
L 1997 1497 
L 313 1497 
L 313 2009 
z
" transform="scale(0.015625)"/>
        <path id="DejaVuSans-34" d="M 2419 4116 
L 825 1625 
L 2419 1625 
L 2419 4116 
z
M 2253 4666 
L 3047 4666 
L 3047 1625 
L 3713 1625 
L 3713 1100 
L 3047 1100 
L 3047 0 
L 2419 0 
L 2419 1100 
L 313 1100 
L 313 1709 
L 2253 4666 
z
" transform="scale(0.015625)"/>
       </defs>
       <use xlink:href="#DejaVuSans-2d"/>
       <use xlink:href="#DejaVuSans-34" x="36.083984"/>
      </g>
     </g>
    </g>
    <g id="xtick_2">
     <g id="line2d_3">
      <path d="M 202.928051 293.76 
L 202.928051 3.456 
" clip-path="url(#p12166f08d8)" style="fill: none; stroke: #b0b0b0; stroke-width: 0.8; stroke-linecap: square"/>
     </g>
     <g id="line2d_4">
      <g>
       <use xlink:href="#mcb524445bf" x="202.928051" y="293.76" style="stroke: #000000; stroke-width: 0.8"/>
      </g>
     </g>
     <g id="text_2">
      <!-- 0 -->
      <g transform="translate(196.565551 315.956875) scale(0.2 -0.2)">
       <defs>
        <path id="DejaVuSans-30" d="M 2034 4250 
Q 1547 4250 1301 3770 
Q 1056 3291 1056 2328 
Q 1056 1369 1301 889 
Q 1547 409 2034 409 
Q 2525 409 2770 889 
Q 3016 1369 3016 2328 
Q 3016 3291 2770 3770 
Q 2525 4250 2034 4250 
z
M 2034 4750 
Q 2819 4750 3233 4129 
Q 3647 3509 3647 2328 
Q 3647 1150 3233 529 
Q 2819 -91 2034 -91 
Q 1250 -91 836 529 
Q 422 1150 422 2328 
Q 422 3509 836 4129 
Q 1250 4750 2034 4750 
z
" transform="scale(0.015625)"/>
       </defs>
       <use xlink:href="#DejaVuSans-30"/>
      </g>
     </g>
    </g>
    <g id="xtick_3">
     <g id="line2d_5">
      <path d="M 304.446914 293.76 
L 304.446914 3.456 
" clip-path="url(#p12166f08d8)" style="fill: none; stroke: #b0b0b0; stroke-width: 0.8; stroke-linecap: square"/>
     </g>
     <g id="line2d_6">
      <g>
       <use xlink:href="#mcb524445bf" x="304.446914" y="293.76" style="stroke: #000000; stroke-width: 0.8"/>
      </g>
     </g>
     <g id="text_3">
      <!-- 4 -->
      <g transform="translate(298.084414 315.956875) scale(0.2 -0.2)">
       <use xlink:href="#DejaVuSans-34"/>
      </g>
     </g>
    </g>
    <g id="xtick_4">
     <g id="line2d_7">
      <path d="M 405.965777 293.76 
L 405.965777 3.456 
" clip-path="url(#p12166f08d8)" style="fill: none; stroke: #b0b0b0; stroke-width: 0.8; stroke-linecap: square"/>
     </g>
     <g id="line2d_8">
      <g>
       <use xlink:href="#mcb524445bf" x="405.965777" y="293.76" style="stroke: #000000; stroke-width: 0.8"/>
      </g>
     </g>
     <g id="text_4">
      <!-- 8 -->
      <g transform="translate(399.603277 315.956875) scale(0.2 -0.2)">
       <defs>
        <path id="DejaVuSans-38" d="M 2034 2216 
Q 1584 2216 1326 1975 
Q 1069 1734 1069 1313 
Q 1069 891 1326 650 
Q 1584 409 2034 409 
Q 2484 409 2743 651 
Q 3003 894 3003 1313 
Q 3003 1734 2745 1975 
Q 2488 2216 2034 2216 
z
M 1403 2484 
Q 997 2584 770 2862 
Q 544 3141 544 3541 
Q 544 4100 942 4425 
Q 1341 4750 2034 4750 
Q 2731 4750 3128 4425 
Q 3525 4100 3525 3541 
Q 3525 3141 3298 2862 
Q 3072 2584 2669 2484 
Q 3125 2378 3379 2068 
Q 3634 1759 3634 1313 
Q 3634 634 3220 271 
Q 2806 -91 2034 -91 
Q 1263 -91 848 271 
Q 434 634 434 1313 
Q 434 1759 690 2068 
Q 947 2378 1403 2484 
z
M 1172 3481 
Q 1172 3119 1398 2916 
Q 1625 2713 2034 2713 
Q 2441 2713 2670 2916 
Q 2900 3119 2900 3481 
Q 2900 3844 2670 4047 
Q 2441 4250 2034 4250 
Q 1625 4250 1398 4047 
Q 1172 3844 1172 3481 
z
" transform="scale(0.015625)"/>
       </defs>
       <use xlink:href="#DejaVuSans-38"/>
      </g>
     </g>
    </g>
    <g id="text_5">
     <!-- log10 of Df -->
     <g transform="translate(175.214063 339.313125) scale(0.2 -0.2)">
      <defs>
       <path id="DejaVuSans-6c" d="M 603 4863 
L 1178 4863 
L 1178 0 
L 603 0 
L 603 4863 
z
" transform="scale(0.015625)"/>
       <path id="DejaVuSans-6f" d="M 1959 3097 
Q 1497 3097 1228 2736 
Q 959 2375 959 1747 
Q 959 1119 1226 758 
Q 1494 397 1959 397 
Q 2419 397 2687 759 
Q 2956 1122 2956 1747 
Q 2956 2369 2687 2733 
Q 2419 3097 1959 3097 
z
M 1959 3584 
Q 2709 3584 3137 3096 
Q 3566 2609 3566 1747 
Q 3566 888 3137 398 
Q 2709 -91 1959 -91 
Q 1206 -91 779 398 
Q 353 888 353 1747 
Q 353 2609 779 3096 
Q 1206 3584 1959 3584 
z
" transform="scale(0.015625)"/>
       <path id="DejaVuSans-67" d="M 2906 1791 
Q 2906 2416 2648 2759 
Q 2391 3103 1925 3103 
Q 1463 3103 1205 2759 
Q 947 2416 947 1791 
Q 947 1169 1205 825 
Q 1463 481 1925 481 
Q 2391 481 2648 825 
Q 2906 1169 2906 1791 
z
M 3481 434 
Q 3481 -459 3084 -895 
Q 2688 -1331 1869 -1331 
Q 1566 -1331 1297 -1286 
Q 1028 -1241 775 -1147 
L 775 -588 
Q 1028 -725 1275 -790 
Q 1522 -856 1778 -856 
Q 2344 -856 2625 -561 
Q 2906 -266 2906 331 
L 2906 616 
Q 2728 306 2450 153 
Q 2172 0 1784 0 
Q 1141 0 747 490 
Q 353 981 353 1791 
Q 353 2603 747 3093 
Q 1141 3584 1784 3584 
Q 2172 3584 2450 3431 
Q 2728 3278 2906 2969 
L 2906 3500 
L 3481 3500 
L 3481 434 
z
" transform="scale(0.015625)"/>
       <path id="DejaVuSans-31" d="M 794 531 
L 1825 531 
L 1825 4091 
L 703 3866 
L 703 4441 
L 1819 4666 
L 2450 4666 
L 2450 531 
L 3481 531 
L 3481 0 
L 794 0 
L 794 531 
z
" transform="scale(0.015625)"/>
       <path id="DejaVuSans-20" transform="scale(0.015625)"/>
       <path id="DejaVuSans-66" d="M 2375 4863 
L 2375 4384 
L 1825 4384 
Q 1516 4384 1395 4259 
Q 1275 4134 1275 3809 
L 1275 3500 
L 2222 3500 
L 2222 3053 
L 1275 3053 
L 1275 0 
L 697 0 
L 697 3053 
L 147 3053 
L 147 3500 
L 697 3500 
L 697 3744 
Q 697 4328 969 4595 
Q 1241 4863 1831 4863 
L 2375 4863 
z
" transform="scale(0.015625)"/>
       <path id="DejaVuSans-44" d="M 1259 4147 
L 1259 519 
L 2022 519 
Q 2988 519 3436 956 
Q 3884 1394 3884 2338 
Q 3884 3275 3436 3711 
Q 2988 4147 2022 4147 
L 1259 4147 
z
M 628 4666 
L 1925 4666 
Q 3281 4666 3915 4102 
Q 4550 3538 4550 2338 
Q 4550 1131 3912 565 
Q 3275 0 1925 0 
L 628 0 
L 628 4666 
z
" transform="scale(0.015625)"/>
      </defs>
      <use xlink:href="#DejaVuSans-6c"/>
      <use xlink:href="#DejaVuSans-6f" x="27.783203"/>
      <use xlink:href="#DejaVuSans-67" x="88.964844"/>
      <use xlink:href="#DejaVuSans-31" x="152.441406"/>
      <use xlink:href="#DejaVuSans-30" x="216.064453"/>
      <use xlink:href="#DejaVuSans-20" x="279.6875"/>
      <use xlink:href="#DejaVuSans-6f" x="311.474609"/>
      <use xlink:href="#DejaVuSans-66" x="372.65625"/>
      <use xlink:href="#DejaVuSans-20" x="407.861328"/>
      <use xlink:href="#DejaVuSans-44" x="439.648438"/>
      <use xlink:href="#DejaVuSans-66" x="516.650391"/>
     </g>
    </g>
   </g>
   <g id="matplotlib.axis_2">
    <g id="ytick_1">
     <g id="line2d_9">
      <path d="M 0 293.76 
L 460.8 293.76 
" clip-path="url(#p12166f08d8)" style="fill: none; stroke: #b0b0b0; stroke-width: 0.8; stroke-linecap: square"/>
     </g>
     <g id="line2d_10">
      <defs>
       <path id="m2e48612bdb" d="M 0 0 
L -3.5 0 
" style="stroke: #000000; stroke-width: 0.8"/>
      </defs>
      <g>
       <use xlink:href="#m2e48612bdb" x="0" y="293.76" style="stroke: #000000; stroke-width: 0.8"/>
      </g>
     </g>
    </g>
    <g id="ytick_2">
     <g id="line2d_11">
      <path d="M 0 236.274059 
L 460.8 236.274059 
" clip-path="url(#p12166f08d8)" style="fill: none; stroke: #b0b0b0; stroke-width: 0.8; stroke-linecap: square"/>
     </g>
     <g id="line2d_12">
      <g>
       <use xlink:href="#m2e48612bdb" x="0" y="236.274059" style="stroke: #000000; stroke-width: 0.8"/>
      </g>
     </g>
    </g>
    <g id="ytick_3">
     <g id="line2d_13">
      <path d="M 0 178.788119 
L 460.8 178.788119 
" clip-path="url(#p12166f08d8)" style="fill: none; stroke: #b0b0b0; stroke-width: 0.8; stroke-linecap: square"/>
     </g>
     <g id="line2d_14">
      <g>
       <use xlink:href="#m2e48612bdb" x="0" y="178.788119" style="stroke: #000000; stroke-width: 0.8"/>
      </g>
     </g>
    </g>
    <g id="ytick_4">
     <g id="line2d_15">
      <path d="M 0 121.302178 
L 460.8 121.302178 
" clip-path="url(#p12166f08d8)" style="fill: none; stroke: #b0b0b0; stroke-width: 0.8; stroke-linecap: square"/>
     </g>
     <g id="line2d_16">
      <g>
       <use xlink:href="#m2e48612bdb" x="0" y="121.302178" style="stroke: #000000; stroke-width: 0.8"/>
      </g>
     </g>
    </g>
    <g id="ytick_5">
     <g id="line2d_17">
      <path d="M 0 63.816238 
L 460.8 63.816238 
" clip-path="url(#p12166f08d8)" style="fill: none; stroke: #b0b0b0; stroke-width: 0.8; stroke-linecap: square"/>
     </g>
     <g id="line2d_18">
      <g>
       <use xlink:href="#m2e48612bdb" x="0" y="63.816238" style="stroke: #000000; stroke-width: 0.8"/>
      </g>
     </g>
    </g>
    <g id="ytick_6">
     <g id="line2d_19">
      <path d="M 0 6.330297 
L 460.8 6.330297 
" clip-path="url(#p12166f08d8)" style="fill: none; stroke: #b0b0b0; stroke-width: 0.8; stroke-linecap: square"/>
     </g>
     <g id="line2d_20">
      <g>
       <use xlink:href="#m2e48612bdb" x="0" y="6.330297" style="stroke: #000000; stroke-width: 0.8"/>
      </g>
     </g>
    </g>
   </g>
   <g id="line2d_21">
    <path d="M 179.413422 293.76 
L 179.413422 289.927604 
L 187.269249 289.927604 
L 187.269249 286.095208 
L 192.480277 286.095208 
L 192.480277 282.262812 
L 196.253292 282.262812 
L 196.253292 278.430416 
L 198.86771 278.430416 
L 198.86771 270.765624 
L 200.106481 270.765624 
L 200.106481 266.933228 
L 202.128126 266.933228 
L 202.128126 263.100832 
L 207.191304 263.100832 
L 207.253077 255.43604 
L 207.826151 255.43604 
L 207.826151 251.603644 
L 209.425268 251.603644 
L 209.507863 240.106455 
L 209.916858 240.106455 
L 209.916858 236.274059 
L 210.03198 236.274059 
L 210.03198 232.441663 
L 210.317266 232.441663 
L 210.317266 224.776871 
L 210.479323 224.776871 
L 210.47943 217.112079 
L 210.643905 217.112079 
L 210.750161 209.447287 
L 211.118533 209.447287 
L 211.118533 205.614891 
L 211.375657 205.614891 
L 211.375657 201.782495 
L 211.526072 201.782495 
L 211.526072 197.950099 
L 211.674727 197.950099 
L 211.674983 190.285307 
L 211.894742 190.285307 
L 211.894742 186.452911 
L 212.302892 186.452911 
L 212.302892 182.620515 
L 212.480032 182.620515 
L 212.541065 174.955723 
L 212.802538 174.955723 
L 212.907851 159.626139 
L 213.419812 159.626139 
L 213.419812 151.961347 
L 213.916969 151.961347 
L 213.916969 148.12895 
L 214.061267 148.12895 
L 214.061267 144.296554 
L 214.313485 144.296554 
L 214.313485 140.464158 
L 214.814987 140.464158 
L 214.814987 136.631762 
L 215.369152 136.631762 
L 215.369152 132.799366 
L 220.805152 132.799366 
L 220.805152 121.302178 
L 222.267846 121.302178 
L 222.267846 117.469782 
L 224.39386 117.469782 
L 224.39386 113.637386 
L 224.865414 113.637386 
L 224.865414 109.80499 
L 226.397829 109.80499 
L 226.397829 105.972594 
L 226.826812 105.972594 
L 226.826812 94.475406 
L 228.230835 94.475406 
L 228.230835 90.64301 
L 229.483461 90.64301 
L 229.483461 86.810614 
L 237.112791 86.810614 
L 237.112791 82.978218 
L 238.918453 82.978218 
L 238.918453 79.145822 
L 239.470335 79.145822 
L 239.470335 75.313426 
L 240.447132 75.313426 
L 240.447132 67.648634 
L 242.4155 67.648634 
L 242.4155 63.816238 
L 242.693335 63.816238 
L 242.693335 59.983842 
L 243.355032 59.983842 
L 243.355032 56.151446 
L 243.719651 56.151446 
L 243.719651 52.31905 
L 244.644688 52.31905 
L 244.644688 48.486653 
L 244.828346 48.486653 
L 244.828346 44.654257 
L 245.938433 44.654257 
L 245.938433 40.821861 
L 246.083419 40.821861 
L 246.083419 36.989465 
L 246.479327 36.989465 
L 246.479327 33.157069 
L 246.68333 33.157069 
L 246.68333 29.324673 
L 247.927388 29.324673 
L 247.937447 21.659881 
L 248.262342 21.659881 
L 248.262342 17.827485 
L 249.90595 17.827485 
L 249.90595 13.995089 
L 254.020104 13.995089 
L 254.020104 10.162693 
L 255.28902 10.162693 
L 255.28902 6.330297 
L 255.28902 6.330297 
L 460.8 6.330297 
L 460.8 6.330297 
" clip-path="url(#p12166f08d8)" style="fill: none; stroke: #ff0000; stroke-width: 3; stroke-linecap: square"/>
   </g>
   <g id="line2d_22">
    <path d="M 221.848432 293.76 
L 221.848432 289.927604 
L 226.657731 289.927604 
L 226.657731 286.095208 
L 227.834553 286.095208 
L 227.834553 282.262812 
L 228.185697 282.262812 
L 228.185697 278.430416 
L 229.017019 278.430416 
L 229.017019 274.59802 
L 229.312289 274.59802 
L 229.327312 263.100832 
L 229.963435 263.100832 
L 229.963435 259.268436 
L 231.11797 259.268436 
L 231.11797 255.43604 
L 232.487375 255.43604 
L 232.487375 251.603644 
L 233.099159 251.603644 
L 233.158783 243.938851 
L 233.523196 243.938851 
L 233.523196 240.106455 
L 233.889437 240.106455 
L 233.889437 236.274059 
L 248.985121 236.274059 
L 248.985121 232.441663 
L 251.510668 232.441663 
L 251.510668 228.609267 
L 251.66116 228.609267 
L 251.6714 220.944475 
L 251.773885 220.944475 
L 251.882159 205.614891 
L 251.892514 205.614891 
L 252.003483 171.123327 
L 252.010948 171.123327 
L 252.103748 121.302178 
L 287.253616 121.302178 
L 287.253616 117.469782 
L 287.524949 117.469782 
L 287.581752 109.80499 
L 287.740567 109.80499 
L 287.840696 98.307802 
L 287.897446 98.307802 
L 287.897446 94.475406 
L 288.068866 94.475406 
L 288.161128 82.978218 
L 288.210831 82.978218 
L 288.266607 75.313426 
L 288.415785 75.313426 
L 288.525373 63.816238 
L 324.137656 63.816238 
L 324.137656 59.983842 
L 326.331723 59.983842 
L 326.350028 52.31905 
L 327.477246 52.31905 
L 327.477246 48.486653 
L 328.887613 48.486653 
L 328.887613 44.654257 
L 329.018814 44.654257 
L 329.018814 40.821861 
L 331.066484 40.821861 
L 331.075917 33.157069 
L 331.37102 33.157069 
L 331.37102 29.324673 
L 331.486354 29.324673 
L 331.486354 25.492277 
L 332.397479 25.492277 
L 332.397479 21.659881 
L 333.041552 21.659881 
L 333.041552 17.827485 
L 334.706406 17.827485 
L 334.706406 13.995089 
L 335.199889 13.995089 
L 335.199889 10.162693 
L 335.648157 10.162693 
L 335.648157 6.330297 
L 335.648157 6.330297 
L 460.8 6.330297 
L 460.8 6.330297 
" clip-path="url(#p12166f08d8)" style="fill: none; stroke: #00bfbf; stroke-width: 1.5; stroke-linecap: square"/>
   </g>
   <g id="line2d_23">
    <path d="M 221.848432 293.76 
L 221.848432 289.927604 
L 225.241435 289.927604 
L 225.241435 286.095208 
L 226.657731 286.095208 
L 226.657731 282.262812 
L 227.058329 282.262812 
L 227.058329 278.430416 
L 227.449964 278.430416 
L 227.449964 274.59802 
L 227.567053 274.59802 
L 227.567053 270.765624 
L 227.834553 270.765624 
L 227.834553 266.933228 
L 228.185697 266.933228 
L 228.185697 263.100832 
L 229.017019 263.100832 
L 229.017019 259.268436 
L 229.21103 259.268436 
L 229.21103 255.43604 
L 229.542671 255.43604 
L 229.542671 251.603644 
L 231.11797 251.603644 
L 231.11797 247.771248 
L 231.479894 247.771248 
L 231.479894 243.938851 
L 232.001363 243.938851 
L 232.001363 240.106455 
L 232.44104 240.106455 
L 232.44104 236.274059 
L 248.985121 236.274059 
L 248.985121 232.441663 
L 250.990293 232.441663 
L 251.082221 224.776871 
L 251.23293 224.776871 
L 251.32565 217.112079 
L 251.368936 217.112079 
L 251.466996 209.447287 
L 251.508359 209.447287 
L 251.585353 197.950099 
L 251.66116 197.950099 
L 251.771671 171.123327 
L 251.832469 171.123327 
L 251.943118 151.961347 
L 251.949299 151.961347 
L 252.0571 125.134574 
L 252.078104 125.134574 
L 252.078104 121.302178 
L 271.158677 121.302178 
L 271.158677 117.469782 
L 271.727253 117.469782 
L 271.727253 113.637386 
L 272.392009 113.637386 
L 272.392009 109.80499 
L 272.756487 109.80499 
L 272.756487 105.972594 
L 273.192237 105.972594 
L 273.192237 102.140198 
L 273.39407 102.140198 
L 273.499281 94.475406 
L 273.509062 94.475406 
L 273.509062 90.64301 
L 273.889746 90.64301 
L 273.993884 82.978218 
L 274.49376 82.978218 
L 274.555092 71.48103 
L 274.635592 71.48103 
L 274.635592 67.648634 
L 274.831216 67.648634 
L 274.831216 63.816238 
L 310.060808 63.816238 
L 310.060808 59.983842 
L 323.498563 59.983842 
L 323.498563 56.151446 
L 324.137656 56.151446 
L 324.137656 52.31905 
L 326.331723 52.31905 
L 326.350028 44.654257 
L 327.362816 44.654257 
L 327.362816 40.821861 
L 327.477246 40.821861 
L 327.477246 36.989465 
L 328.151799 36.989465 
L 328.151799 33.157069 
L 329.018814 33.157069 
L 329.018814 29.324673 
L 329.753286 29.324673 
L 329.753286 25.492277 
L 331.075917 25.492277 
L 331.075917 21.659881 
L 331.486354 21.659881 
L 331.486354 17.827485 
L 332.98752 17.827485 
L 333.041552 10.162693 
L 334.031477 10.162693 
L 334.031477 6.330297 
L 334.031477 6.330297 
L 460.8 6.330297 
L 460.8 6.330297 
" clip-path="url(#p12166f08d8)" style="fill: none; stroke: #bf00bf; stroke-width: 1.5; stroke-linecap: square"/>
   </g>
   <g id="line2d_24">
    <path d="M 221.848432 293.76 
L 221.848432 289.927604 
L 222.996532 289.927604 
L 222.996532 286.095208 
L 223.964187 286.095208 
L 223.964187 282.262812 
L 225.01772 282.262812 
L 225.01772 278.430416 
L 225.241435 278.430416 
L 225.241435 274.59802 
L 226.074911 274.59802 
L 226.074911 270.765624 
L 226.657731 270.765624 
L 226.657731 266.933228 
L 227.058329 266.933228 
L 227.058329 263.100832 
L 227.30637 263.100832 
L 227.30637 259.268436 
L 227.449964 259.268436 
L 227.526923 251.603644 
L 227.567053 251.603644 
L 227.567053 247.771248 
L 227.834553 247.771248 
L 227.92561 240.106455 
L 229.21103 240.106455 
L 229.21103 236.274059 
L 248.985121 236.274059 
L 248.985121 232.441663 
L 249.781011 232.441663 
L 249.781011 228.609267 
L 250.675932 228.609267 
L 250.675932 224.776871 
L 250.856203 224.776871 
L 250.856203 220.944475 
L 250.971972 220.944475 
L 251.082221 197.950099 
L 251.23293 197.950099 
L 251.301993 182.620515 
L 251.402787 182.620515 
L 251.50798 163.458535 
L 251.529471 163.458535 
L 251.560852 151.961347 
L 251.66116 151.961347 
L 251.760208 136.631762 
L 251.818681 136.631762 
L 251.829684 128.96697 
L 251.943118 128.96697 
L 251.951641 121.302178 
L 271.158677 121.302178 
L 271.158677 117.469782 
L 271.727253 117.469782 
L 271.727253 113.637386 
L 271.917664 113.637386 
L 271.917664 109.80499 
L 272.392009 109.80499 
L 272.392009 105.972594 
L 272.557574 105.972594 
L 272.557574 102.140198 
L 272.756487 102.140198 
L 272.756487 98.307802 
L 273.192237 98.307802 
L 273.192237 94.475406 
L 273.319501 94.475406 
L 273.319501 90.64301 
L 273.464431 90.64301 
L 273.509062 79.145822 
L 273.992393 79.145822 
L 273.993884 71.48103 
L 274.111161 71.48103 
L 274.111161 67.648634 
L 274.49376 67.648634 
L 274.49376 63.816238 
L 310.060808 63.816238 
L 310.060808 59.983842 
L 317.135494 59.983842 
L 317.135494 56.151446 
L 320.371585 56.151446 
L 320.371585 52.31905 
L 321.445895 52.31905 
L 321.445895 48.486653 
L 322.607545 48.486653 
L 322.607545 44.654257 
L 322.861055 44.654257 
L 322.861055 40.821861 
L 324.840998 40.821861 
L 324.840998 36.989465 
L 325.881135 36.989465 
L 325.881135 33.157069 
L 326.207937 33.157069 
L 326.219771 25.492277 
L 326.445926 25.492277 
L 326.445926 21.659881 
L 327.477246 21.659881 
L 327.477246 17.827485 
L 327.932884 17.827485 
L 327.932884 13.995089 
L 328.564314 13.995089 
L 328.612732 6.330297 
L 328.612732 6.330297 
L 460.8 6.330297 
L 460.8 6.330297 
" clip-path="url(#p12166f08d8)" style="fill: none; stroke: #000000; stroke-width: 1.5; stroke-linecap: square"/>
   </g>
   <g id="line2d_25">
    <path d="M 218.217875 293.76 
L 218.217875 289.927604 
L 219.569829 289.927604 
L 219.569829 286.095208 
L 219.753368 286.095208 
L 219.753368 282.262812 
L 220.056644 282.262812 
L 220.056644 278.430416 
L 220.903517 278.430416 
L 221.006678 270.765624 
L 221.144439 270.765624 
L 221.144439 266.933228 
L 221.269573 266.933228 
L 221.269573 263.100832 
L 221.44184 263.100832 
L 221.44184 259.268436 
L 221.611637 259.268436 
L 221.611637 255.43604 
L 222.48697 255.43604 
L 222.48697 251.603644 
L 222.665483 251.603644 
L 222.665483 247.771248 
L 223.981003 247.771248 
L 223.981003 243.938851 
L 224.142638 243.938851 
L 224.142638 240.106455 
L 226.281587 240.106455 
L 226.281587 236.274059 
L 241.182759 236.274059 
L 241.182759 232.441663 
L 243.276764 232.441663 
L 243.276764 228.609267 
L 243.86346 228.609267 
L 243.86346 224.776871 
L 244.047168 224.776871 
L 244.047168 220.944475 
L 244.326388 220.944475 
L 244.381031 213.279683 
L 244.910838 213.279683 
L 244.910838 209.447287 
L 245.747099 209.447287 
L 245.747099 205.614891 
L 246.750179 205.614891 
L 246.750179 201.782495 
L 246.979592 201.782495 
L 246.979592 197.950099 
L 247.45344 197.950099 
L 247.542499 190.285307 
L 247.929612 190.285307 
L 248.013475 182.620515 
L 248.058571 182.620515 
L 248.128737 174.955723 
L 248.601975 174.955723 
L 248.688315 167.290931 
L 248.73474 167.290931 
L 248.73474 163.458535 
L 249.19327 163.458535 
L 249.19327 159.626139 
L 249.377335 159.626139 
L 249.462547 151.961347 
L 249.495754 151.961347 
L 249.600599 144.296554 
L 249.609266 144.296554 
L 249.609266 140.464158 
L 249.736691 140.464158 
L 249.736691 136.631762 
L 249.908566 136.631762 
L 249.962967 128.96697 
L 250.173906 128.96697 
L 250.173906 125.134574 
L 250.476085 125.134574 
L 250.476085 121.302178 
L 263.547751 121.302178 
L 263.547751 117.469782 
L 263.923064 117.469782 
L 263.923064 113.637386 
L 264.048613 113.637386 
L 264.12626 105.972594 
L 264.308883 105.972594 
L 264.319402 98.307802 
L 264.747679 98.307802 
L 264.796586 86.810614 
L 264.875072 86.810614 
L 264.877587 79.145822 
L 265.109036 79.145822 
L 265.175774 71.48103 
L 266.080842 71.48103 
L 266.080842 67.648634 
L 266.365014 67.648634 
L 266.365014 63.816238 
L 291.929213 63.816238 
L 291.929213 59.983842 
L 292.956207 59.983842 
L 292.956207 56.151446 
L 294.769066 56.151446 
L 294.769066 52.31905 
L 297.337608 52.31905 
L 297.337608 48.486653 
L 297.795977 48.486653 
L 297.795977 44.654257 
L 300.417804 44.654257 
L 300.417804 40.821861 
L 300.969795 40.821861 
L 300.969795 36.989465 
L 301.325405 36.989465 
L 301.334571 29.324673 
L 301.811574 29.324673 
L 301.811574 25.492277 
L 302.551533 25.492277 
L 302.551533 21.659881 
L 307.188501 21.659881 
L 307.188501 17.827485 
L 307.626926 17.827485 
L 307.626926 13.995089 
L 313.389369 13.995089 
L 313.389369 10.162693 
L 314.608245 10.162693 
L 314.608245 6.330297 
L 314.608245 6.330297 
L 460.8 6.330297 
L 460.8 6.330297 
" clip-path="url(#p12166f08d8)" style="fill: none; stroke: #00bfbf; stroke-width: 1.5; stroke-linecap: square"/>
   </g>
   <g id="line2d_26">
    <path d="M 198.86778 293.76 
L 198.867861 286.095208 
L 202.21329 286.095208 
L 202.21329 282.262812 
L 207.191304 282.262812 
L 207.281049 274.59802 
L 207.940655 274.59802 
L 207.940655 270.765624 
L 209.425364 270.765624 
L 209.42541 263.100832 
L 209.658844 263.100832 
L 209.658844 259.268436 
L 210.264734 259.268436 
L 210.317292 247.771248 
L 210.530034 247.771248 
L 210.530034 243.938851 
L 210.809614 243.938851 
L 210.809614 240.106455 
L 211.045085 240.106455 
L 211.045085 236.274059 
L 211.584273 236.274059 
L 211.584273 232.441663 
L 211.828556 232.441663 
L 211.894789 224.776871 
L 212.167809 224.776871 
L 212.167809 220.944475 
L 212.709645 220.944475 
L 212.723678 213.279683 
L 212.907894 213.279683 
L 212.929588 201.782495 
L 213.070048 201.782495 
L 213.136309 194.117703 
L 213.421767 194.117703 
L 213.474831 186.452911 
L 214.81665 186.452911 
L 214.81665 182.620515 
L 215.881896 182.620515 
L 215.881896 178.788119 
L 216.000113 178.788119 
L 216.000113 174.955723 
L 217.126819 174.955723 
L 217.126819 171.123327 
L 217.294593 171.123327 
L 217.294593 167.290931 
L 217.598442 167.290931 
L 217.598442 163.458535 
L 218.8763 163.458535 
L 218.974028 155.793743 
L 219.059207 155.793743 
L 219.059207 151.961347 
L 219.191912 151.961347 
L 219.247112 140.464158 
L 219.303146 140.464158 
L 219.303146 136.631762 
L 219.44109 136.631762 
L 219.44109 132.799366 
L 220.805169 132.799366 
L 220.838119 121.302178 
L 222.268422 121.302178 
L 222.268422 117.469782 
L 224.394709 117.469782 
L 224.394709 113.637386 
L 224.865425 113.637386 
L 224.865425 109.80499 
L 226.397842 109.80499 
L 226.397842 105.972594 
L 226.826816 105.972594 
L 226.826816 94.475406 
L 228.230849 94.475406 
L 228.230849 90.64301 
L 229.483482 90.64301 
L 229.483482 86.810614 
L 238.918455 86.810614 
L 238.918455 82.978218 
L 240.447138 82.978218 
L 240.447163 75.313426 
L 242.416286 75.313426 
L 242.416286 71.48103 
L 243.355037 71.48103 
L 243.355037 67.648634 
L 246.08342 67.648634 
L 246.08342 63.816238 
L 255.280892 63.816238 
L 255.280892 59.983842 
L 255.554958 59.983842 
L 255.554958 56.151446 
L 256.006969 56.151446 
L 256.006969 52.31905 
L 258.162869 52.31905 
L 258.268334 36.989465 
L 258.322629 36.989465 
L 258.322629 33.157069 
L 258.538413 33.157069 
L 258.538413 29.324673 
L 258.848521 29.324673 
L 258.848521 25.492277 
L 258.96423 25.492277 
L 259.036184 13.995089 
L 259.124715 13.995089 
L 259.124715 10.162693 
L 259.505209 10.162693 
L 259.505209 6.330297 
L 259.505209 6.330297 
L 460.8 6.330297 
L 460.8 6.330297 
" clip-path="url(#p12166f08d8)" style="fill: none; stroke: #bf00bf; stroke-width: 1.5; stroke-linecap: square"/>
   </g>
   <g id="line2d_27">
    <path d="M 179.413422 293.76 
L 179.413422 289.927604 
L 187.269249 289.927604 
L 187.269249 286.095208 
L 192.480277 286.095208 
L 192.480277 282.262812 
L 196.253292 282.262812 
L 196.253292 278.430416 
L 198.86771 278.430416 
L 198.86771 270.765624 
L 200.106481 270.765624 
L 200.106481 266.933228 
L 202.128126 266.933228 
L 202.128126 263.100832 
L 207.191304 263.100832 
L 207.253077 255.43604 
L 207.826151 255.43604 
L 207.826151 251.603644 
L 209.425268 251.603644 
L 209.507863 240.106455 
L 209.916858 240.106455 
L 209.916858 236.274059 
L 210.03198 236.274059 
L 210.03198 232.441663 
L 210.317266 232.441663 
L 210.317266 224.776871 
L 210.479323 224.776871 
L 210.47943 217.112079 
L 210.643905 217.112079 
L 210.750161 209.447287 
L 211.118533 209.447287 
L 211.118533 205.614891 
L 211.375657 205.614891 
L 211.375657 201.782495 
L 211.526072 201.782495 
L 211.526072 197.950099 
L 211.674727 197.950099 
L 211.674983 190.285307 
L 211.894742 190.285307 
L 211.894742 186.452911 
L 212.302892 186.452911 
L 212.302892 182.620515 
L 212.480032 182.620515 
L 212.541065 174.955723 
L 212.802538 174.955723 
L 212.907851 159.626139 
L 213.419812 159.626139 
L 213.419812 151.961347 
L 213.916969 151.961347 
L 213.916969 148.12895 
L 214.061267 148.12895 
L 214.061267 144.296554 
L 214.313485 144.296554 
L 214.313485 140.464158 
L 214.814987 140.464158 
L 214.814987 136.631762 
L 215.369152 136.631762 
L 215.369152 132.799366 
L 220.805152 132.799366 
L 220.805152 121.302178 
L 222.267846 121.302178 
L 222.267846 117.469782 
L 224.39386 117.469782 
L 224.39386 113.637386 
L 224.865414 113.637386 
L 224.865414 109.80499 
L 226.397829 109.80499 
L 226.397829 105.972594 
L 226.826812 105.972594 
L 226.826812 94.475406 
L 228.230835 94.475406 
L 228.230835 90.64301 
L 229.483461 90.64301 
L 229.483461 86.810614 
L 237.112791 86.810614 
L 237.112791 82.978218 
L 238.918453 82.978218 
L 238.918453 79.145822 
L 239.470335 79.145822 
L 239.470335 75.313426 
L 240.447132 75.313426 
L 240.447132 67.648634 
L 242.4155 67.648634 
L 242.4155 63.816238 
L 242.693335 63.816238 
L 242.693335 59.983842 
L 243.355032 59.983842 
L 243.355032 56.151446 
L 243.719651 56.151446 
L 243.719651 52.31905 
L 244.644688 52.31905 
L 244.644688 48.486653 
L 244.828346 48.486653 
L 244.828346 44.654257 
L 245.938433 44.654257 
L 245.938433 40.821861 
L 246.083419 40.821861 
L 246.083419 36.989465 
L 246.479327 36.989465 
L 246.479327 33.157069 
L 246.68333 33.157069 
L 246.68333 29.324673 
L 247.927388 29.324673 
L 247.937447 21.659881 
L 248.262342 21.659881 
L 248.262342 17.827485 
L 249.90595 17.827485 
L 249.90595 13.995089 
L 254.020104 13.995089 
L 254.020104 10.162693 
L 255.28902 10.162693 
L 255.28902 6.330297 
L 255.28902 6.330297 
L 460.8 6.330297 
L 460.8 6.330297 
" clip-path="url(#p12166f08d8)" style="fill: none; stroke: #000000; stroke-width: 1.5; stroke-linecap: square"/>
   </g>
   <g id="patch_3">
    <path d="M 0 293.76 
L 0 3.456 
" style="fill: none; stroke: #000000; stroke-width: 0.8; stroke-linejoin: miter; stroke-linecap: square"/>
   </g>
   <g id="patch_4">
    <path d="M 460.8 293.76 
L 460.8 3.456 
" style="fill: none; stroke: #000000; stroke-width: 0.8; stroke-linejoin: miter; stroke-linecap: square"/>
   </g>
   <g id="patch_5">
    <path d="M 0 293.76 
L 460.8 293.76 
" style="fill: none; stroke: #000000; stroke-width: 0.8; stroke-linejoin: miter; stroke-linecap: square"/>
   </g>
   <g id="patch_6">
    <path d="M 0 3.456 
L 460.8 3.456 
" style="fill: none; stroke: #000000; stroke-width: 0.8; stroke-linejoin: miter; stroke-linecap: square"/>
   </g>
   <g id="text_6">
    <!-- {f20-f24}, 20-D -->
    <g transform="translate(293.159 287.95392) scale(0.2 -0.2)">
     <defs>
      <path id="DejaVuSans-7b" d="M 3272 -594 
L 3272 -1044 
L 3078 -1044 
Q 2300 -1044 2036 -812 
Q 1772 -581 1772 109 
L 1772 856 
Q 1772 1328 1603 1509 
Q 1434 1691 991 1691 
L 800 1691 
L 800 2138 
L 991 2138 
Q 1438 2138 1605 2317 
Q 1772 2497 1772 2963 
L 1772 3713 
Q 1772 4403 2036 4633 
Q 2300 4863 3078 4863 
L 3272 4863 
L 3272 4416 
L 3059 4416 
Q 2619 4416 2484 4278 
Q 2350 4141 2350 3700 
L 2350 2925 
Q 2350 2434 2208 2212 
Q 2066 1991 1722 1913 
Q 2069 1828 2209 1606 
Q 2350 1384 2350 897 
L 2350 122 
Q 2350 -319 2484 -456 
Q 2619 -594 3059 -594 
L 3272 -594 
z
" transform="scale(0.015625)"/>
      <path id="DejaVuSans-32" d="M 1228 531 
L 3431 531 
L 3431 0 
L 469 0 
L 469 531 
Q 828 903 1448 1529 
Q 2069 2156 2228 2338 
Q 2531 2678 2651 2914 
Q 2772 3150 2772 3378 
Q 2772 3750 2511 3984 
Q 2250 4219 1831 4219 
Q 1534 4219 1204 4116 
Q 875 4013 500 3803 
L 500 4441 
Q 881 4594 1212 4672 
Q 1544 4750 1819 4750 
Q 2544 4750 2975 4387 
Q 3406 4025 3406 3419 
Q 3406 3131 3298 2873 
Q 3191 2616 2906 2266 
Q 2828 2175 2409 1742 
Q 1991 1309 1228 531 
z
" transform="scale(0.015625)"/>
      <path id="DejaVuSans-7d" d="M 800 -594 
L 1019 -594 
Q 1456 -594 1589 -459 
Q 1722 -325 1722 122 
L 1722 897 
Q 1722 1384 1862 1606 
Q 2003 1828 2350 1913 
Q 2003 1991 1862 2212 
Q 1722 2434 1722 2925 
L 1722 3700 
Q 1722 4144 1589 4280 
Q 1456 4416 1019 4416 
L 800 4416 
L 800 4863 
L 997 4863 
Q 1775 4863 2036 4633 
Q 2297 4403 2297 3713 
L 2297 2963 
Q 2297 2497 2465 2317 
Q 2634 2138 3078 2138 
L 3272 2138 
L 3272 1691 
L 3078 1691 
Q 2634 1691 2465 1509 
Q 2297 1328 2297 856 
L 2297 109 
Q 2297 -581 2036 -812 
Q 1775 -1044 997 -1044 
L 800 -1044 
L 800 -594 
z
" transform="scale(0.015625)"/>
      <path id="DejaVuSans-2c" d="M 750 794 
L 1409 794 
L 1409 256 
L 897 -744 
L 494 -744 
L 750 256 
L 750 794 
z
" transform="scale(0.015625)"/>
     </defs>
     <use xlink:href="#DejaVuSans-7b"/>
     <use xlink:href="#DejaVuSans-66" x="63.623047"/>
     <use xlink:href="#DejaVuSans-32" x="98.828125"/>
     <use xlink:href="#DejaVuSans-30" x="162.451172"/>
     <use xlink:href="#DejaVuSans-2d" x="226.074219"/>
     <use xlink:href="#DejaVuSans-66" x="262.158203"/>
     <use xlink:href="#DejaVuSans-32" x="297.363281"/>
     <use xlink:href="#DejaVuSans-34" x="360.986328"/>
     <use xlink:href="#DejaVuSans-7d" x="424.609375"/>
     <use xlink:href="#DejaVuSans-2c" x="488.232422"/>
     <use xlink:href="#DejaVuSans-20" x="520.019531"/>
     <use xlink:href="#DejaVuSans-32" x="551.806641"/>
     <use xlink:href="#DejaVuSans-30" x="615.429688"/>
     <use xlink:href="#DejaVuSans-2d" x="679.052734"/>
     <use xlink:href="#DejaVuSans-44" x="715.136719"/>
    </g>
   </g>
   <g id="text_7">
    <!-- v2.6.3 -->
    <g style="fill: #808080" transform="translate(214.71875 288.777272) scale(0.1 -0.1)">
     <defs>
      <path id="DejaVuSans-76" d="M 191 3500 
L 800 3500 
L 1894 563 
L 2988 3500 
L 3597 3500 
L 2284 0 
L 1503 0 
L 191 3500 
z
" transform="scale(0.015625)"/>
      <path id="DejaVuSans-2e" d="M 684 794 
L 1344 794 
L 1344 0 
L 684 0 
L 684 794 
z
" transform="scale(0.015625)"/>
      <path id="DejaVuSans-36" d="M 2113 2584 
Q 1688 2584 1439 2293 
Q 1191 2003 1191 1497 
Q 1191 994 1439 701 
Q 1688 409 2113 409 
Q 2538 409 2786 701 
Q 3034 994 3034 1497 
Q 3034 2003 2786 2293 
Q 2538 2584 2113 2584 
z
M 3366 4563 
L 3366 3988 
Q 3128 4100 2886 4159 
Q 2644 4219 2406 4219 
Q 1781 4219 1451 3797 
Q 1122 3375 1075 2522 
Q 1259 2794 1537 2939 
Q 1816 3084 2150 3084 
Q 2853 3084 3261 2657 
Q 3669 2231 3669 1497 
Q 3669 778 3244 343 
Q 2819 -91 2113 -91 
Q 1303 -91 875 529 
Q 447 1150 447 2328 
Q 447 3434 972 4092 
Q 1497 4750 2381 4750 
Q 2619 4750 2861 4703 
Q 3103 4656 3366 4563 
z
" transform="scale(0.015625)"/>
      <path id="DejaVuSans-33" d="M 2597 2516 
Q 3050 2419 3304 2112 
Q 3559 1806 3559 1356 
Q 3559 666 3084 287 
Q 2609 -91 1734 -91 
Q 1441 -91 1130 -33 
Q 819 25 488 141 
L 488 750 
Q 750 597 1062 519 
Q 1375 441 1716 441 
Q 2309 441 2620 675 
Q 2931 909 2931 1356 
Q 2931 1769 2642 2001 
Q 2353 2234 1838 2234 
L 1294 2234 
L 1294 2753 
L 1863 2753 
Q 2328 2753 2575 2939 
Q 2822 3125 2822 3475 
Q 2822 3834 2567 4026 
Q 2313 4219 1838 4219 
Q 1578 4219 1281 4162 
Q 984 4106 628 3988 
L 628 4550 
Q 988 4650 1302 4700 
Q 1616 4750 1894 4750 
Q 2613 4750 3031 4423 
Q 3450 4097 3450 3541 
Q 3450 3153 3228 2886 
Q 3006 2619 2597 2516 
z
" transform="scale(0.015625)"/>
     </defs>
     <use xlink:href="#DejaVuSans-76"/>
     <use xlink:href="#DejaVuSans-32" x="59.179688"/>
     <use xlink:href="#DejaVuSans-2e" x="122.802734"/>
     <use xlink:href="#DejaVuSans-36" x="154.589844"/>
     <use xlink:href="#DejaVuSans-2e" x="218.212891"/>
     <use xlink:href="#DejaVuSans-33" x="250"/>
    </g>
   </g>
  </g>
 </g>
 <defs>
  <clipPath id="p12166f08d8">
   <rect x="0" y="3.456" width="460.8" height="290.304"/>
  </clipPath>
 </defs>
</svg>
