<?xml version="1.0" encoding="utf-8" standalone="no"?>
<!DOCTYPE svg PUBLIC "-//W3C//DTD SVG 1.1//EN"
  "http://www.w3.org/Graphics/SVG/1.1/DTD/svg11.dtd">
<svg xmlns:xlink="http://www.w3.org/1999/xlink" width="460.8pt" height="345.6pt" viewBox="0 0 460.8 345.6" xmlns="http://www.w3.org/2000/svg" version="1.1">
 <metadata>
  <rdf:RDF xmlns:dc="http://purl.org/dc/elements/1.1/" xmlns:cc="http://creativecommons.org/ns#" xmlns:rdf="http://www.w3.org/1999/02/22-rdf-syntax-ns#">
   <cc:Work>
    <dc:type rdf:resource="http://purl.org/dc/dcmitype/StillImage"/>
    <dc:date>2024-06-21T19:46:36.496417</dc:date>
    <dc:format>image/svg+xml</dc:format>
    <dc:creator>
     <cc:Agent>
      <dc:title>Matplotlib v3.7.5, https://matplotlib.org/</dc:title>
     </cc:Agent>
    </dc:creator>
   </cc:Work>
  </rdf:RDF>
 </metadata>
 <defs>
  <style type="text/css">*{stroke-linejoin: round; stroke-linecap: butt}</style>
 </defs>
 <g id="figure_1">
  <g id="patch_1">
   <path d="M 0 345.6 
L 460.8 345.6 
L 460.8 0 
L 0 0 
z
" style="fill: #ffffff"/>
  </g>
  <g id="axes_1">
   <g id="patch_2">
    <path d="M 0 293.76 
L 460.8 293.76 
L 460.8 3.456 
L 0 3.456 
z
" style="fill: #ffffff"/>
   </g>
   <g id="matplotlib.axis_1">
    <g id="xtick_1">
     <g id="line2d_1">
      <path d="M 101.409188 293.76 
L 101.409188 3.456 
" clip-path="url(#p4d8ef0a376)" style="fill: none; stroke: #b0b0b0; stroke-width: 0.8; stroke-linecap: square"/>
     </g>
     <g id="line2d_2">
      <defs>
       <path id="m0f77fc0684" d="M 0 0 
L 0 3.5 
" style="stroke: #000000; stroke-width: 0.8"/>
      </defs>
      <g>
       <use xlink:href="#m0f77fc0684" x="101.409188" y="293.76" style="stroke: #000000; stroke-width: 0.8"/>
      </g>
     </g>
     <g id="text_1">
      <!-- -4 -->
      <g transform="translate(91.438875 315.956875) scale(0.2 -0.2)">
       <defs>
        <path id="DejaVuSans-2d" d="M 313 2009 
L 1997 2009 
L 1997 1497 
L 313 1497 
L 313 2009 
z
" transform="scale(0.015625)"/>
        <path id="DejaVuSans-34" d="M 2419 4116 
L 825 1625 
L 2419 1625 
L 2419 4116 
z
M 2253 4666 
L 3047 4666 
L 3047 1625 
L 3713 1625 
L 3713 1100 
L 3047 1100 
L 3047 0 
L 2419 0 
L 2419 1100 
L 313 1100 
L 313 1709 
L 2253 4666 
z
" transform="scale(0.015625)"/>
       </defs>
       <use xlink:href="#DejaVuSans-2d"/>
       <use xlink:href="#DejaVuSans-34" x="36.083984"/>
      </g>
     </g>
    </g>
    <g id="xtick_2">
     <g id="line2d_3">
      <path d="M 202.928051 293.76 
L 202.928051 3.456 
" clip-path="url(#p4d8ef0a376)" style="fill: none; stroke: #b0b0b0; stroke-width: 0.8; stroke-linecap: square"/>
     </g>
     <g id="line2d_4">
      <g>
       <use xlink:href="#m0f77fc0684" x="202.928051" y="293.76" style="stroke: #000000; stroke-width: 0.8"/>
      </g>
     </g>
     <g id="text_2">
      <!-- 0 -->
      <g transform="translate(196.565551 315.956875) scale(0.2 -0.2)">
       <defs>
        <path id="DejaVuSans-30" d="M 2034 4250 
Q 1547 4250 1301 3770 
Q 1056 3291 1056 2328 
Q 1056 1369 1301 889 
Q 1547 409 2034 409 
Q 2525 409 2770 889 
Q 3016 1369 3016 2328 
Q 3016 3291 2770 3770 
Q 2525 4250 2034 4250 
z
M 2034 4750 
Q 2819 4750 3233 4129 
Q 3647 3509 3647 2328 
Q 3647 1150 3233 529 
Q 2819 -91 2034 -91 
Q 1250 -91 836 529 
Q 422 1150 422 2328 
Q 422 3509 836 4129 
Q 1250 4750 2034 4750 
z
" transform="scale(0.015625)"/>
       </defs>
       <use xlink:href="#DejaVuSans-30"/>
      </g>
     </g>
    </g>
    <g id="xtick_3">
     <g id="line2d_5">
      <path d="M 304.446914 293.76 
L 304.446914 3.456 
" clip-path="url(#p4d8ef0a376)" style="fill: none; stroke: #b0b0b0; stroke-width: 0.8; stroke-linecap: square"/>
     </g>
     <g id="line2d_6">
      <g>
       <use xlink:href="#m0f77fc0684" x="304.446914" y="293.76" style="stroke: #000000; stroke-width: 0.8"/>
      </g>
     </g>
     <g id="text_3">
      <!-- 4 -->
      <g transform="translate(298.084414 315.956875) scale(0.2 -0.2)">
       <use xlink:href="#DejaVuSans-34"/>
      </g>
     </g>
    </g>
    <g id="xtick_4">
     <g id="line2d_7">
      <path d="M 405.965777 293.76 
L 405.965777 3.456 
" clip-path="url(#p4d8ef0a376)" style="fill: none; stroke: #b0b0b0; stroke-width: 0.8; stroke-linecap: square"/>
     </g>
     <g id="line2d_8">
      <g>
       <use xlink:href="#m0f77fc0684" x="405.965777" y="293.76" style="stroke: #000000; stroke-width: 0.8"/>
      </g>
     </g>
     <g id="text_4">
      <!-- 8 -->
      <g transform="translate(399.603277 315.956875) scale(0.2 -0.2)">
       <defs>
        <path id="DejaVuSans-38" d="M 2034 2216 
Q 1584 2216 1326 1975 
Q 1069 1734 1069 1313 
Q 1069 891 1326 650 
Q 1584 409 2034 409 
Q 2484 409 2743 651 
Q 3003 894 3003 1313 
Q 3003 1734 2745 1975 
Q 2488 2216 2034 2216 
z
M 1403 2484 
Q 997 2584 770 2862 
Q 544 3141 544 3541 
Q 544 4100 942 4425 
Q 1341 4750 2034 4750 
Q 2731 4750 3128 4425 
Q 3525 4100 3525 3541 
Q 3525 3141 3298 2862 
Q 3072 2584 2669 2484 
Q 3125 2378 3379 2068 
Q 3634 1759 3634 1313 
Q 3634 634 3220 271 
Q 2806 -91 2034 -91 
Q 1263 -91 848 271 
Q 434 634 434 1313 
Q 434 1759 690 2068 
Q 947 2378 1403 2484 
z
M 1172 3481 
Q 1172 3119 1398 2916 
Q 1625 2713 2034 2713 
Q 2441 2713 2670 2916 
Q 2900 3119 2900 3481 
Q 2900 3844 2670 4047 
Q 2441 4250 2034 4250 
Q 1625 4250 1398 4047 
Q 1172 3844 1172 3481 
z
" transform="scale(0.015625)"/>
       </defs>
       <use xlink:href="#DejaVuSans-38"/>
      </g>
     </g>
    </g>
    <g id="text_5">
     <!-- log10 of Df -->
     <g transform="translate(175.214063 339.313125) scale(0.2 -0.2)">
      <defs>
       <path id="DejaVuSans-6c" d="M 603 4863 
L 1178 4863 
L 1178 0 
L 603 0 
L 603 4863 
z
" transform="scale(0.015625)"/>
       <path id="DejaVuSans-6f" d="M 1959 3097 
Q 1497 3097 1228 2736 
Q 959 2375 959 1747 
Q 959 1119 1226 758 
Q 1494 397 1959 397 
Q 2419 397 2687 759 
Q 2956 1122 2956 1747 
Q 2956 2369 2687 2733 
Q 2419 3097 1959 3097 
z
M 1959 3584 
Q 2709 3584 3137 3096 
Q 3566 2609 3566 1747 
Q 3566 888 3137 398 
Q 2709 -91 1959 -91 
Q 1206 -91 779 398 
Q 353 888 353 1747 
Q 353 2609 779 3096 
Q 1206 3584 1959 3584 
z
" transform="scale(0.015625)"/>
       <path id="DejaVuSans-67" d="M 2906 1791 
Q 2906 2416 2648 2759 
Q 2391 3103 1925 3103 
Q 1463 3103 1205 2759 
Q 947 2416 947 1791 
Q 947 1169 1205 825 
Q 1463 481 1925 481 
Q 2391 481 2648 825 
Q 2906 1169 2906 1791 
z
M 3481 434 
Q 3481 -459 3084 -895 
Q 2688 -1331 1869 -1331 
Q 1566 -1331 1297 -1286 
Q 1028 -1241 775 -1147 
L 775 -588 
Q 1028 -725 1275 -790 
Q 1522 -856 1778 -856 
Q 2344 -856 2625 -561 
Q 2906 -266 2906 331 
L 2906 616 
Q 2728 306 2450 153 
Q 2172 0 1784 0 
Q 1141 0 747 490 
Q 353 981 353 1791 
Q 353 2603 747 3093 
Q 1141 3584 1784 3584 
Q 2172 3584 2450 3431 
Q 2728 3278 2906 2969 
L 2906 3500 
L 3481 3500 
L 3481 434 
z
" transform="scale(0.015625)"/>
       <path id="DejaVuSans-31" d="M 794 531 
L 1825 531 
L 1825 4091 
L 703 3866 
L 703 4441 
L 1819 4666 
L 2450 4666 
L 2450 531 
L 3481 531 
L 3481 0 
L 794 0 
L 794 531 
z
" transform="scale(0.015625)"/>
       <path id="DejaVuSans-20" transform="scale(0.015625)"/>
       <path id="DejaVuSans-66" d="M 2375 4863 
L 2375 4384 
L 1825 4384 
Q 1516 4384 1395 4259 
Q 1275 4134 1275 3809 
L 1275 3500 
L 2222 3500 
L 2222 3053 
L 1275 3053 
L 1275 0 
L 697 0 
L 697 3053 
L 147 3053 
L 147 3500 
L 697 3500 
L 697 3744 
Q 697 4328 969 4595 
Q 1241 4863 1831 4863 
L 2375 4863 
z
" transform="scale(0.015625)"/>
       <path id="DejaVuSans-44" d="M 1259 4147 
L 1259 519 
L 2022 519 
Q 2988 519 3436 956 
Q 3884 1394 3884 2338 
Q 3884 3275 3436 3711 
Q 2988 4147 2022 4147 
L 1259 4147 
z
M 628 4666 
L 1925 4666 
Q 3281 4666 3915 4102 
Q 4550 3538 4550 2338 
Q 4550 1131 3912 565 
Q 3275 0 1925 0 
L 628 0 
L 628 4666 
z
" transform="scale(0.015625)"/>
      </defs>
      <use xlink:href="#DejaVuSans-6c"/>
      <use xlink:href="#DejaVuSans-6f" x="27.783203"/>
      <use xlink:href="#DejaVuSans-67" x="88.964844"/>
      <use xlink:href="#DejaVuSans-31" x="152.441406"/>
      <use xlink:href="#DejaVuSans-30" x="216.064453"/>
      <use xlink:href="#DejaVuSans-20" x="279.6875"/>
      <use xlink:href="#DejaVuSans-6f" x="311.474609"/>
      <use xlink:href="#DejaVuSans-66" x="372.65625"/>
      <use xlink:href="#DejaVuSans-20" x="407.861328"/>
      <use xlink:href="#DejaVuSans-44" x="439.648438"/>
      <use xlink:href="#DejaVuSans-66" x="516.650391"/>
     </g>
    </g>
   </g>
   <g id="matplotlib.axis_2">
    <g id="ytick_1">
     <g id="line2d_9">
      <path d="M 0 293.76 
L 460.8 293.76 
" clip-path="url(#p4d8ef0a376)" style="fill: none; stroke: #b0b0b0; stroke-width: 0.8; stroke-linecap: square"/>
     </g>
     <g id="line2d_10">
      <defs>
       <path id="maed13c28b0" d="M 0 0 
L -3.5 0 
" style="stroke: #000000; stroke-width: 0.8"/>
      </defs>
      <g>
       <use xlink:href="#maed13c28b0" x="0" y="293.76" style="stroke: #000000; stroke-width: 0.8"/>
      </g>
     </g>
    </g>
    <g id="ytick_2">
     <g id="line2d_11">
      <path d="M 0 236.274059 
L 460.8 236.274059 
" clip-path="url(#p4d8ef0a376)" style="fill: none; stroke: #b0b0b0; stroke-width: 0.8; stroke-linecap: square"/>
     </g>
     <g id="line2d_12">
      <g>
       <use xlink:href="#maed13c28b0" x="0" y="236.274059" style="stroke: #000000; stroke-width: 0.8"/>
      </g>
     </g>
    </g>
    <g id="ytick_3">
     <g id="line2d_13">
      <path d="M 0 178.788119 
L 460.8 178.788119 
" clip-path="url(#p4d8ef0a376)" style="fill: none; stroke: #b0b0b0; stroke-width: 0.8; stroke-linecap: square"/>
     </g>
     <g id="line2d_14">
      <g>
       <use xlink:href="#maed13c28b0" x="0" y="178.788119" style="stroke: #000000; stroke-width: 0.8"/>
      </g>
     </g>
    </g>
    <g id="ytick_4">
     <g id="line2d_15">
      <path d="M 0 121.302178 
L 460.8 121.302178 
" clip-path="url(#p4d8ef0a376)" style="fill: none; stroke: #b0b0b0; stroke-width: 0.8; stroke-linecap: square"/>
     </g>
     <g id="line2d_16">
      <g>
       <use xlink:href="#maed13c28b0" x="0" y="121.302178" style="stroke: #000000; stroke-width: 0.8"/>
      </g>
     </g>
    </g>
    <g id="ytick_5">
     <g id="line2d_17">
      <path d="M 0 63.816238 
L 460.8 63.816238 
" clip-path="url(#p4d8ef0a376)" style="fill: none; stroke: #b0b0b0; stroke-width: 0.8; stroke-linecap: square"/>
     </g>
     <g id="line2d_18">
      <g>
       <use xlink:href="#maed13c28b0" x="0" y="63.816238" style="stroke: #000000; stroke-width: 0.8"/>
      </g>
     </g>
    </g>
    <g id="ytick_6">
     <g id="line2d_19">
      <path d="M 0 6.330297 
L 460.8 6.330297 
" clip-path="url(#p4d8ef0a376)" style="fill: none; stroke: #b0b0b0; stroke-width: 0.8; stroke-linecap: square"/>
     </g>
     <g id="line2d_20">
      <g>
       <use xlink:href="#maed13c28b0" x="0" y="6.330297" style="stroke: #000000; stroke-width: 0.8"/>
      </g>
     </g>
    </g>
   </g>
   <g id="line2d_21">
    <path d="M -1 178.788119 
L -0.109675 178.788119 
L -0.109675 121.302178 
L 234.100785 121.302178 
L 234.100788 109.80499 
L 235.326742 109.80499 
L 235.326745 102.140198 
L 237.432606 102.140198 
L 237.432606 98.307802 
L 237.901707 98.307802 
L 237.90171 90.64301 
L 238.35165 90.64301 
L 238.35165 86.810614 
L 239.199939 86.810614 
L 239.199939 82.978218 
L 239.600797 82.978218 
L 239.600797 79.145822 
L 239.987584 79.145822 
L 239.987584 75.313426 
L 240.36125 75.313426 
L 240.36125 71.48103 
L 240.722667 71.48103 
L 240.722667 67.648634 
L 241.072611 67.648634 
L 241.072611 59.983842 
L 241.411783 59.983842 
L 241.411783 56.151446 
L 242.966786 56.151446 
L 242.966786 52.31905 
L 243.253099 52.31905 
L 243.253099 44.654257 
L 243.532158 44.654257 
L 243.532158 36.989465 
L 243.804329 36.989465 
L 243.804333 29.324673 
L 244.582679 29.324673 
L 244.582689 17.827485 
L 245.769009 17.827485 
L 245.769009 13.995089 
L 246.633942 13.995089 
L 246.633942 10.162693 
L 247.816046 10.162693 
L 247.816046 6.330297 
L 247.816046 6.330297 
L 460.8 6.330297 
L 460.8 6.330297 
" clip-path="url(#p4d8ef0a376)" style="fill: none; stroke: #ff0000; stroke-width: 3; stroke-linecap: square"/>
   </g>
   <g id="line2d_22">
    <path d="M 253.398403 293.76 
L 253.398403 289.927604 
L 258.084576 289.927604 
L 258.084576 286.095208 
L 258.774808 286.095208 
L 258.774808 282.262812 
L 260.103661 282.262812 
L 260.103661 278.430416 
L 260.218345 278.430416 
L 260.218345 274.59802 
L 260.626627 274.59802 
L 260.656701 266.933228 
L 261.56867 266.933228 
L 261.619392 259.268436 
L 262.192899 259.268436 
L 262.192899 255.43604 
L 262.37809 255.43604 
L 262.37809 251.603644 
L 262.962013 251.603644 
L 262.962013 247.771248 
L 263.261311 247.771248 
L 263.261311 243.938851 
L 264.155335 243.938851 
L 264.155335 240.106455 
L 264.347759 240.106455 
L 264.347759 236.274059 
L 264.62922 236.274059 
L 264.690166 228.609267 
L 265.142448 228.609267 
L 265.252163 220.944475 
L 265.486987 220.944475 
L 265.52561 213.279683 
L 265.789053 213.279683 
L 265.789053 209.447287 
L 266.019373 209.447287 
L 266.019373 205.614891 
L 266.419348 205.614891 
L 266.439845 197.950099 
L 266.637126 197.950099 
L 266.649125 190.285307 
L 266.811288 190.285307 
L 266.811288 186.452911 
L 267.640986 186.452911 
L 267.640986 182.620515 
L 267.858227 182.620515 
L 267.858227 178.788119 
L 275.885355 178.788119 
L 275.910382 171.123327 
L 276.672294 171.123327 
L 276.685154 163.458535 
L 278.73295 163.458535 
L 278.73295 159.626139 
L 279.361599 159.626139 
L 279.361599 155.793743 
L 279.567481 155.793743 
L 279.567481 151.961347 
L 280.302064 151.961347 
L 280.302064 148.12895 
L 280.816718 148.12895 
L 280.816718 144.296554 
L 281.701104 144.296554 
L 281.701104 140.464158 
L 281.894869 140.464158 
L 281.966574 132.799366 
L 282.173579 132.799366 
L 282.173579 128.96697 
L 282.507977 128.96697 
L 282.507977 125.134574 
L 283.043224 125.134574 
L 283.043224 121.302178 
L 283.287109 121.302178 
L 283.287109 117.469782 
L 284.001001 117.469782 
L 284.001001 113.637386 
L 284.177215 113.637386 
L 284.177215 109.80499 
L 284.893221 109.80499 
L 284.893221 105.972594 
L 285.351377 105.972594 
L 285.351377 102.140198 
L 286.198611 102.140198 
L 286.224372 94.475406 
L 286.789583 94.475406 
L 286.789583 90.64301 
L 287.592416 90.64301 
L 287.592416 86.810614 
L 288.409731 86.810614 
L 288.409731 82.978218 
L 288.59568 82.978218 
L 288.59568 79.145822 
L 288.894235 79.145822 
L 288.963347 71.48103 
L 289.551127 71.48103 
L 289.551127 67.648634 
L 293.773751 67.648634 
L 293.773751 63.816238 
L 364.766255 63.816238 
L 364.766255 59.983842 
L 371.706588 59.983842 
L 371.706588 56.151446 
L 372.13481 56.151446 
L 372.13481 52.31905 
L 372.93174 52.31905 
L 372.93174 48.486653 
L 373.531566 48.486653 
L 373.542712 40.821861 
L 375.971364 40.821861 
L 376.020267 33.157069 
L 376.863851 33.157069 
L 376.899026 25.492277 
L 377.963236 25.492277 
L 377.963236 21.659881 
L 378.591844 21.659881 
L 378.591844 17.827485 
L 378.92881 17.827485 
L 378.92881 13.995089 
L 379.434834 13.995089 
L 379.434834 10.162693 
L 380.546274 10.162693 
L 380.546274 6.330297 
L 380.546274 6.330297 
L 460.8 6.330297 
L 460.8 6.330297 
" clip-path="url(#p4d8ef0a376)" style="fill: none; stroke: #00bfbf; stroke-width: 1.5; stroke-linecap: square"/>
   </g>
   <g id="line2d_23">
    <path d="M 253.398403 293.76 
L 253.398403 289.927604 
L 254.618968 289.927604 
L 254.618968 286.095208 
L 255.682646 286.095208 
L 255.682646 282.262812 
L 255.856987 282.262812 
L 255.856987 278.430416 
L 256.399461 278.430416 
L 256.399461 274.59802 
L 257.058742 274.59802 
L 257.058742 270.765624 
L 258.084576 270.765624 
L 258.084576 266.933228 
L 258.774808 266.933228 
L 258.791286 259.268436 
L 259.537059 259.268436 
L 259.537059 255.43604 
L 259.713548 255.43604 
L 259.713548 251.603644 
L 260.268599 251.603644 
L 260.268599 247.771248 
L 261.43513 247.771248 
L 261.43513 243.938851 
L 261.576649 243.938851 
L 261.576649 240.106455 
L 261.753617 240.106455 
L 261.753617 236.274059 
L 261.936848 236.274059 
L 261.936848 232.441663 
L 262.050303 232.441663 
L 262.050303 228.609267 
L 262.255581 228.609267 
L 262.360475 220.944475 
L 262.520695 220.944475 
L 262.520695 217.112079 
L 262.64097 217.112079 
L 262.64097 213.279683 
L 262.854803 213.279683 
L 262.854803 209.447287 
L 263.018762 209.447287 
L 263.018762 205.614891 
L 263.465215 205.614891 
L 263.465215 201.782495 
L 263.605127 201.782495 
L 263.63094 194.117703 
L 264.056275 194.117703 
L 264.056275 190.285307 
L 264.302945 190.285307 
L 264.302945 186.452911 
L 266.13133 186.452911 
L 266.13133 182.620515 
L 266.429985 182.620515 
L 266.429985 178.788119 
L 273.641595 178.788119 
L 273.641595 174.955723 
L 275.885355 174.955723 
L 275.916212 163.458535 
L 276.672294 163.458535 
L 276.685154 155.793743 
L 277.021561 155.793743 
L 277.114469 148.12895 
L 278.109323 148.12895 
L 278.109323 144.296554 
L 278.672486 144.296554 
L 278.672486 140.464158 
L 279.49152 140.464158 
L 279.567481 132.799366 
L 279.930422 132.799366 
L 280.018084 125.134574 
L 280.302064 125.134574 
L 280.302064 121.302178 
L 281.358333 121.302178 
L 281.358333 117.469782 
L 281.945811 117.469782 
L 281.966574 109.80499 
L 282.105587 109.80499 
L 282.105587 105.972594 
L 283.000623 105.972594 
L 283.000623 102.140198 
L 283.891865 102.140198 
L 283.891865 98.307802 
L 284.177215 98.307802 
L 284.205214 90.64301 
L 284.700026 90.64301 
L 284.700026 86.810614 
L 285.011968 86.810614 
L 285.011968 82.978218 
L 286.789583 82.978218 
L 286.789583 79.145822 
L 287.460399 79.145822 
L 287.460399 75.313426 
L 287.592416 75.313426 
L 287.592416 71.48103 
L 287.770059 71.48103 
L 287.770059 67.648634 
L 290.517985 67.648634 
L 290.517985 63.816238 
L 360.47254 63.816238 
L 360.47254 59.983842 
L 368.021993 59.983842 
L 368.021993 56.151446 
L 368.978183 56.151446 
L 368.978183 52.31905 
L 370.024481 52.31905 
L 370.024481 48.486653 
L 371.706588 48.486653 
L 371.706588 44.654257 
L 372.13481 44.654257 
L 372.13481 40.821861 
L 372.933088 40.821861 
L 372.933088 36.989465 
L 373.523143 36.989465 
L 373.531566 29.324673 
L 374.80316 29.324673 
L 374.80316 25.492277 
L 375.520921 25.492277 
L 375.520921 21.659881 
L 375.971364 21.659881 
L 375.971364 17.827485 
L 377.232837 17.827485 
L 377.232837 13.995089 
L 378.001067 13.995089 
L 378.046649 6.330297 
L 378.046649 6.330297 
L 460.8 6.330297 
L 460.8 6.330297 
" clip-path="url(#p4d8ef0a376)" style="fill: none; stroke: #bf00bf; stroke-width: 1.5; stroke-linecap: square"/>
   </g>
   <g id="line2d_24">
    <path d="M 251.324234 293.76 
L 251.324234 289.927604 
L 252.171977 289.927604 
L 252.171977 286.095208 
L 253.006421 286.095208 
L 253.006421 282.262812 
L 253.12497 282.262812 
L 253.12497 278.430416 
L 253.398403 278.430416 
L 253.408281 270.765624 
L 253.606263 270.765624 
L 253.606263 266.933228 
L 253.794816 266.933228 
L 253.794816 263.100832 
L 254.500259 263.100832 
L 254.500259 259.268436 
L 254.618968 259.268436 
L 254.618968 255.43604 
L 255.156296 255.43604 
L 255.262965 247.771248 
L 255.272729 247.771248 
L 255.272729 243.938851 
L 255.50332 243.938851 
L 255.566568 236.274059 
L 255.651614 236.274059 
L 255.682646 228.609267 
L 256.399461 228.609267 
L 256.399461 224.776871 
L 256.80643 224.776871 
L 256.80643 220.944475 
L 257.039306 220.944475 
L 257.039306 217.112079 
L 257.569969 217.112079 
L 257.654086 205.614891 
L 257.786422 205.614891 
L 257.786422 201.782495 
L 258.111508 201.782495 
L 258.111508 197.950099 
L 258.237321 197.950099 
L 258.237321 194.117703 
L 258.392756 194.117703 
L 258.392756 190.285307 
L 258.535886 190.285307 
L 258.535886 186.452911 
L 259.062062 186.452911 
L 259.062062 182.620515 
L 259.739628 182.620515 
L 259.739628 178.788119 
L 273.361934 178.788119 
L 273.361934 174.955723 
L 274.873893 174.955723 
L 274.941697 167.290931 
L 275.567733 167.290931 
L 275.567733 163.458535 
L 275.885355 163.458535 
L 275.916212 155.793743 
L 276.064463 155.793743 
L 276.064463 151.961347 
L 276.240863 151.961347 
L 276.240863 148.12895 
L 276.672294 148.12895 
L 276.685154 136.631762 
L 276.872467 136.631762 
L 276.872467 132.799366 
L 277.021561 132.799366 
L 277.021561 128.96697 
L 277.471629 128.96697 
L 277.471629 125.134574 
L 277.907584 125.134574 
L 277.907584 121.302178 
L 278.453805 121.302178 
L 278.453805 117.469782 
L 279.567481 117.469782 
L 279.567481 113.637386 
L 281.25085 113.637386 
L 281.25085 109.80499 
L 281.966574 109.80499 
L 281.966574 105.972594 
L 282.105587 105.972594 
L 282.105587 102.140198 
L 282.259156 102.140198 
L 282.259156 98.307802 
L 283.891865 98.307802 
L 283.891865 94.475406 
L 284.177215 94.475406 
L 284.212747 82.978218 
L 284.476098 82.978218 
L 284.476098 79.145822 
L 284.700026 79.145822 
L 284.700026 75.313426 
L 285.332068 75.313426 
L 285.332068 71.48103 
L 286.222878 71.48103 
L 286.222878 67.648634 
L 286.789583 67.648634 
L 286.789583 63.816238 
L 359.392783 63.816238 
L 359.392783 59.983842 
L 360.47254 59.983842 
L 360.47254 56.151446 
L 360.87888 56.151446 
L 360.87888 52.31905 
L 364.42289 52.31905 
L 364.42289 48.486653 
L 365.082229 48.486653 
L 365.082229 44.654257 
L 365.935778 44.654257 
L 365.935778 40.821861 
L 366.721662 40.821861 
L 366.721662 36.989465 
L 366.964691 36.989465 
L 366.964691 33.157069 
L 368.021993 33.157069 
L 368.021993 29.324673 
L 368.978183 29.324673 
L 368.978183 25.492277 
L 370.433005 25.492277 
L 370.433005 21.659881 
L 370.720986 21.659881 
L 370.720986 17.827485 
L 370.988078 17.827485 
L 370.988078 13.995089 
L 371.231776 13.995089 
L 371.231776 10.162693 
L 374.098316 10.162693 
L 374.098316 6.330297 
L 374.098316 6.330297 
L 460.8 6.330297 
L 460.8 6.330297 
" clip-path="url(#p4d8ef0a376)" style="fill: none; stroke: #000000; stroke-width: 1.5; stroke-linecap: square"/>
   </g>
   <g id="line2d_25">
    <path d="M -0.109675 293.76 
L -0.109675 263.100832 
L 211.793789 263.100832 
L 211.793789 259.268436 
L 224.385818 259.268436 
L 224.385818 255.43604 
L 225.945619 255.43604 
L 225.945619 251.603644 
L 227.592839 251.603644 
L 227.592839 247.771248 
L 228.70366 247.771248 
L 228.70366 243.938851 
L 229.221529 243.938851 
L 229.221529 240.106455 
L 233.808179 240.106455 
L 233.808179 236.274059 
L 235.609583 236.274059 
L 235.609583 232.441663 
L 238.196531 232.441663 
L 238.196531 228.609267 
L 238.647316 228.609267 
L 238.647316 224.776871 
L 239.242249 224.776871 
L 239.331879 217.112079 
L 239.467413 217.112079 
L 239.511253 209.447287 
L 239.594427 209.447287 
L 239.594427 205.614891 
L 239.81563 205.614891 
L 239.826477 197.950099 
L 240.172196 197.950099 
L 240.172196 194.117703 
L 240.746013 194.117703 
L 240.746013 190.285307 
L 241.404588 190.285307 
L 241.404588 186.452911 
L 241.996519 186.452911 
L 241.996519 182.620515 
L 243.251775 182.620515 
L 243.251775 178.788119 
L 265.407531 178.788119 
L 265.407531 174.955723 
L 266.161824 174.955723 
L 266.161824 171.123327 
L 266.448957 171.123327 
L 266.448957 167.290931 
L 266.688677 167.290931 
L 266.688677 163.458535 
L 266.966721 163.458535 
L 267.004607 155.793743 
L 267.84982 155.793743 
L 267.84982 151.961347 
L 268.32364 151.961347 
L 268.32364 148.12895 
L 268.556869 148.12895 
L 268.556869 144.296554 
L 268.689708 144.296554 
L 268.780724 136.631762 
L 269.254224 136.631762 
L 269.254224 132.799366 
L 269.510661 132.799366 
L 269.620096 125.134574 
L 270.525712 125.134574 
L 270.525712 121.302178 
L 271.878416 121.302178 
L 271.878416 117.469782 
L 272.09008 117.469782 
L 272.09008 113.637386 
L 272.232228 113.637386 
L 272.333443 102.140198 
L 272.543807 102.140198 
L 272.543807 98.307802 
L 273.30784 98.307802 
L 273.30784 94.475406 
L 273.807948 94.475406 
L 273.807948 90.64301 
L 274.25877 90.64301 
L 274.361219 82.978218 
L 274.565581 82.978218 
L 274.565581 79.145822 
L 274.914426 79.145822 
L 274.914426 75.313426 
L 275.730957 75.313426 
L 275.730957 71.48103 
L 275.969198 71.48103 
L 275.969198 67.648634 
L 276.381938 67.648634 
L 276.381938 63.816238 
L 343.908153 63.816238 
L 343.908153 59.983842 
L 349.428125 59.983842 
L 349.428125 56.151446 
L 351.976974 56.151446 
L 351.976974 52.31905 
L 352.973742 52.31905 
L 352.973742 48.486653 
L 353.08755 48.486653 
L 353.08755 44.654257 
L 353.326891 44.654257 
L 353.42282 36.989465 
L 356.491359 36.989465 
L 356.491359 33.157069 
L 356.874045 33.157069 
L 356.874045 29.324673 
L 357.265732 29.324673 
L 357.265732 25.492277 
L 357.571796 25.492277 
L 357.571796 21.659881 
L 357.722022 21.659881 
L 357.722022 17.827485 
L 357.904199 17.827485 
L 357.904199 13.995089 
L 358.333691 13.995089 
L 358.333691 10.162693 
L 358.721907 10.162693 
L 358.721907 6.330297 
L 358.721907 6.330297 
L 460.8 6.330297 
L 460.8 6.330297 
" clip-path="url(#p4d8ef0a376)" style="fill: none; stroke: #00bfbf; stroke-width: 1.5; stroke-linecap: square"/>
   </g>
   <g id="line2d_26">
    <path d="M -0.109675 293.76 
L -0.109675 236.274059 
L 61.251407 236.274059 
L 61.251407 232.441663 
L 61.617582 232.441663 
L 61.617582 228.609267 
L 63.615203 228.609267 
L 63.615203 224.776871 
L 64.158358 224.776871 
L 64.158358 220.944475 
L 64.74867 220.944475 
L 64.755607 213.279683 
L 65.547843 213.279683 
L 65.547843 209.447287 
L 65.767481 209.447287 
L 65.767481 205.614891 
L 68.313179 205.614891 
L 68.354833 197.950099 
L 68.795165 197.950099 
L 68.813949 190.285307 
L 69.419318 190.285307 
L 69.47822 182.620515 
L 72.985147 182.620515 
L 72.985147 178.788119 
L 237.54106 178.788119 
L 237.54106 174.955723 
L 239.707341 174.955723 
L 239.707341 171.123327 
L 241.311433 171.123327 
L 241.311433 167.290931 
L 241.797697 167.290931 
L 241.797697 163.458535 
L 242.475204 163.458535 
L 242.518447 155.793743 
L 245.174333 155.793743 
L 245.191414 148.12895 
L 245.334681 148.12895 
L 245.421381 136.631762 
L 245.729967 136.631762 
L 245.729967 132.799366 
L 246.096253 132.799366 
L 246.096253 128.96697 
L 248.325797 128.96697 
L 248.383157 121.302178 
L 249.434998 121.302178 
L 249.434998 117.469782 
L 249.871323 117.469782 
L 249.871323 113.637386 
L 250.320317 113.637386 
L 250.320317 109.80499 
L 251.773495 109.80499 
L 251.773495 105.972594 
L 252.040904 105.972594 
L 252.040904 102.140198 
L 252.698303 102.140198 
L 252.698303 98.307802 
L 254.111402 98.307802 
L 254.111402 94.475406 
L 254.533074 94.475406 
L 254.533074 90.64301 
L 255.594391 90.64301 
L 255.621577 82.978218 
L 255.801241 82.978218 
L 255.801241 79.145822 
L 256.168473 79.145822 
L 256.168473 75.313426 
L 257.232401 75.313426 
L 257.232401 71.48103 
L 257.484184 71.48103 
L 257.570707 63.816238 
L 315.486676 63.816238 
L 315.486676 59.983842 
L 316.563503 59.983842 
L 316.563503 56.151446 
L 317.035295 56.151446 
L 317.035295 52.31905 
L 317.937058 52.31905 
L 317.937058 48.486653 
L 318.064697 48.486653 
L 318.064697 44.654257 
L 319.303093 44.654257 
L 319.303093 40.821861 
L 319.52352 40.821861 
L 319.52352 36.989465 
L 320.554331 36.989465 
L 320.654894 29.324673 
L 322.254316 29.324673 
L 322.254316 25.492277 
L 322.613924 25.492277 
L 322.613924 21.659881 
L 324.806044 21.659881 
L 324.806044 17.827485 
L 325.613955 17.827485 
L 325.613955 13.995089 
L 325.902249 13.995089 
L 325.902249 10.162693 
L 328.85582 10.162693 
L 328.85582 6.330297 
L 328.85582 6.330297 
L 460.8 6.330297 
L 460.8 6.330297 
" clip-path="url(#p4d8ef0a376)" style="fill: none; stroke: #bf00bf; stroke-width: 1.5; stroke-linecap: square"/>
   </g>
   <g id="line2d_27">
    <path d="M -1 178.788119 
L -0.109675 178.788119 
L -0.109675 121.302178 
L 234.100785 121.302178 
L 234.100788 109.80499 
L 235.326742 109.80499 
L 235.326745 102.140198 
L 237.432606 102.140198 
L 237.432606 98.307802 
L 237.901707 98.307802 
L 237.90171 90.64301 
L 238.35165 90.64301 
L 238.35165 86.810614 
L 239.199939 86.810614 
L 239.199939 82.978218 
L 239.600797 82.978218 
L 239.600797 79.145822 
L 239.987584 79.145822 
L 239.987584 75.313426 
L 240.36125 75.313426 
L 240.36125 71.48103 
L 240.722667 71.48103 
L 240.722667 67.648634 
L 241.072611 67.648634 
L 241.072611 59.983842 
L 241.411783 59.983842 
L 241.411783 56.151446 
L 242.966786 56.151446 
L 242.966786 52.31905 
L 243.253099 52.31905 
L 243.253099 44.654257 
L 243.532158 44.654257 
L 243.532158 36.989465 
L 243.804329 36.989465 
L 243.804333 29.324673 
L 244.582679 29.324673 
L 244.582689 17.827485 
L 245.769009 17.827485 
L 245.769009 13.995089 
L 246.633942 13.995089 
L 246.633942 10.162693 
L 247.816046 10.162693 
L 247.816046 6.330297 
L 247.816046 6.330297 
L 460.8 6.330297 
L 460.8 6.330297 
" clip-path="url(#p4d8ef0a376)" style="fill: none; stroke: #000000; stroke-width: 1.5; stroke-linecap: square"/>
   </g>
   <g id="patch_3">
    <path d="M 0 293.76 
L 0 3.456 
" style="fill: none; stroke: #000000; stroke-width: 0.8; stroke-linejoin: miter; stroke-linecap: square"/>
   </g>
   <g id="patch_4">
    <path d="M 460.8 293.76 
L 460.8 3.456 
" style="fill: none; stroke: #000000; stroke-width: 0.8; stroke-linejoin: miter; stroke-linecap: square"/>
   </g>
   <g id="patch_5">
    <path d="M 0 293.76 
L 460.8 293.76 
" style="fill: none; stroke: #000000; stroke-width: 0.8; stroke-linejoin: miter; stroke-linecap: square"/>
   </g>
   <g id="patch_6">
    <path d="M 0 3.456 
L 460.8 3.456 
" style="fill: none; stroke: #000000; stroke-width: 0.8; stroke-linejoin: miter; stroke-linecap: square"/>
   </g>
   <g id="text_6">
    <!-- {f1-f5}, 20-D -->
    <g transform="translate(318.609 287.95392) scale(0.2 -0.2)">
     <defs>
      <path id="DejaVuSans-7b" d="M 3272 -594 
L 3272 -1044 
L 3078 -1044 
Q 2300 -1044 2036 -812 
Q 1772 -581 1772 109 
L 1772 856 
Q 1772 1328 1603 1509 
Q 1434 1691 991 1691 
L 800 1691 
L 800 2138 
L 991 2138 
Q 1438 2138 1605 2317 
Q 1772 2497 1772 2963 
L 1772 3713 
Q 1772 4403 2036 4633 
Q 2300 4863 3078 4863 
L 3272 4863 
L 3272 4416 
L 3059 4416 
Q 2619 4416 2484 4278 
Q 2350 4141 2350 3700 
L 2350 2925 
Q 2350 2434 2208 2212 
Q 2066 1991 1722 1913 
Q 2069 1828 2209 1606 
Q 2350 1384 2350 897 
L 2350 122 
Q 2350 -319 2484 -456 
Q 2619 -594 3059 -594 
L 3272 -594 
z
" transform="scale(0.015625)"/>
      <path id="DejaVuSans-35" d="M 691 4666 
L 3169 4666 
L 3169 4134 
L 1269 4134 
L 1269 2991 
Q 1406 3038 1543 3061 
Q 1681 3084 1819 3084 
Q 2600 3084 3056 2656 
Q 3513 2228 3513 1497 
Q 3513 744 3044 326 
Q 2575 -91 1722 -91 
Q 1428 -91 1123 -41 
Q 819 9 494 109 
L 494 744 
Q 775 591 1075 516 
Q 1375 441 1709 441 
Q 2250 441 2565 725 
Q 2881 1009 2881 1497 
Q 2881 1984 2565 2268 
Q 2250 2553 1709 2553 
Q 1456 2553 1204 2497 
Q 953 2441 691 2322 
L 691 4666 
z
" transform="scale(0.015625)"/>
      <path id="DejaVuSans-7d" d="M 800 -594 
L 1019 -594 
Q 1456 -594 1589 -459 
Q 1722 -325 1722 122 
L 1722 897 
Q 1722 1384 1862 1606 
Q 2003 1828 2350 1913 
Q 2003 1991 1862 2212 
Q 1722 2434 1722 2925 
L 1722 3700 
Q 1722 4144 1589 4280 
Q 1456 4416 1019 4416 
L 800 4416 
L 800 4863 
L 997 4863 
Q 1775 4863 2036 4633 
Q 2297 4403 2297 3713 
L 2297 2963 
Q 2297 2497 2465 2317 
Q 2634 2138 3078 2138 
L 3272 2138 
L 3272 1691 
L 3078 1691 
Q 2634 1691 2465 1509 
Q 2297 1328 2297 856 
L 2297 109 
Q 2297 -581 2036 -812 
Q 1775 -1044 997 -1044 
L 800 -1044 
L 800 -594 
z
" transform="scale(0.015625)"/>
      <path id="DejaVuSans-2c" d="M 750 794 
L 1409 794 
L 1409 256 
L 897 -744 
L 494 -744 
L 750 256 
L 750 794 
z
" transform="scale(0.015625)"/>
      <path id="DejaVuSans-32" d="M 1228 531 
L 3431 531 
L 3431 0 
L 469 0 
L 469 531 
Q 828 903 1448 1529 
Q 2069 2156 2228 2338 
Q 2531 2678 2651 2914 
Q 2772 3150 2772 3378 
Q 2772 3750 2511 3984 
Q 2250 4219 1831 4219 
Q 1534 4219 1204 4116 
Q 875 4013 500 3803 
L 500 4441 
Q 881 4594 1212 4672 
Q 1544 4750 1819 4750 
Q 2544 4750 2975 4387 
Q 3406 4025 3406 3419 
Q 3406 3131 3298 2873 
Q 3191 2616 2906 2266 
Q 2828 2175 2409 1742 
Q 1991 1309 1228 531 
z
" transform="scale(0.015625)"/>
     </defs>
     <use xlink:href="#DejaVuSans-7b"/>
     <use xlink:href="#DejaVuSans-66" x="63.623047"/>
     <use xlink:href="#DejaVuSans-31" x="98.828125"/>
     <use xlink:href="#DejaVuSans-2d" x="162.451172"/>
     <use xlink:href="#DejaVuSans-66" x="198.535156"/>
     <use xlink:href="#DejaVuSans-35" x="233.740234"/>
     <use xlink:href="#DejaVuSans-7d" x="297.363281"/>
     <use xlink:href="#DejaVuSans-2c" x="360.986328"/>
     <use xlink:href="#DejaVuSans-20" x="392.773438"/>
     <use xlink:href="#DejaVuSans-32" x="424.560547"/>
     <use xlink:href="#DejaVuSans-30" x="488.183594"/>
     <use xlink:href="#DejaVuSans-2d" x="551.806641"/>
     <use xlink:href="#DejaVuSans-44" x="587.890625"/>
    </g>
   </g>
   <g id="text_7">
    <!-- v2.6.3 -->
    <g style="fill: #808080" transform="translate(214.71875 288.777272) scale(0.1 -0.1)">
     <defs>
      <path id="DejaVuSans-76" d="M 191 3500 
L 800 3500 
L 1894 563 
L 2988 3500 
L 3597 3500 
L 2284 0 
L 1503 0 
L 191 3500 
z
" transform="scale(0.015625)"/>
      <path id="DejaVuSans-2e" d="M 684 794 
L 1344 794 
L 1344 0 
L 684 0 
L 684 794 
z
" transform="scale(0.015625)"/>
      <path id="DejaVuSans-36" d="M 2113 2584 
Q 1688 2584 1439 2293 
Q 1191 2003 1191 1497 
Q 1191 994 1439 701 
Q 1688 409 2113 409 
Q 2538 409 2786 701 
Q 3034 994 3034 1497 
Q 3034 2003 2786 2293 
Q 2538 2584 2113 2584 
z
M 3366 4563 
L 3366 3988 
Q 3128 4100 2886 4159 
Q 2644 4219 2406 4219 
Q 1781 4219 1451 3797 
Q 1122 3375 1075 2522 
Q 1259 2794 1537 2939 
Q 1816 3084 2150 3084 
Q 2853 3084 3261 2657 
Q 3669 2231 3669 1497 
Q 3669 778 3244 343 
Q 2819 -91 2113 -91 
Q 1303 -91 875 529 
Q 447 1150 447 2328 
Q 447 3434 972 4092 
Q 1497 4750 2381 4750 
Q 2619 4750 2861 4703 
Q 3103 4656 3366 4563 
z
" transform="scale(0.015625)"/>
      <path id="DejaVuSans-33" d="M 2597 2516 
Q 3050 2419 3304 2112 
Q 3559 1806 3559 1356 
Q 3559 666 3084 287 
Q 2609 -91 1734 -91 
Q 1441 -91 1130 -33 
Q 819 25 488 141 
L 488 750 
Q 750 597 1062 519 
Q 1375 441 1716 441 
Q 2309 441 2620 675 
Q 2931 909 2931 1356 
Q 2931 1769 2642 2001 
Q 2353 2234 1838 2234 
L 1294 2234 
L 1294 2753 
L 1863 2753 
Q 2328 2753 2575 2939 
Q 2822 3125 2822 3475 
Q 2822 3834 2567 4026 
Q 2313 4219 1838 4219 
Q 1578 4219 1281 4162 
Q 984 4106 628 3988 
L 628 4550 
Q 988 4650 1302 4700 
Q 1616 4750 1894 4750 
Q 2613 4750 3031 4423 
Q 3450 4097 3450 3541 
Q 3450 3153 3228 2886 
Q 3006 2619 2597 2516 
z
" transform="scale(0.015625)"/>
     </defs>
     <use xlink:href="#DejaVuSans-76"/>
     <use xlink:href="#DejaVuSans-32" x="59.179688"/>
     <use xlink:href="#DejaVuSans-2e" x="122.802734"/>
     <use xlink:href="#DejaVuSans-36" x="154.589844"/>
     <use xlink:href="#DejaVuSans-2e" x="218.212891"/>
     <use xlink:href="#DejaVuSans-33" x="250"/>
    </g>
   </g>
  </g>
 </g>
 <defs>
  <clipPath id="p4d8ef0a376">
   <rect x="0" y="3.456" width="460.8" height="290.304"/>
  </clipPath>
 </defs>
</svg>
