<?xml version="1.0" encoding="utf-8" standalone="no"?>
<!DOCTYPE svg PUBLIC "-//W3C//DTD SVG 1.1//EN"
  "http://www.w3.org/Graphics/SVG/1.1/DTD/svg11.dtd">
<svg xmlns:xlink="http://www.w3.org/1999/xlink" width="460.8pt" height="345.6pt" viewBox="0 0 460.8 345.6" xmlns="http://www.w3.org/2000/svg" version="1.1">
 <metadata>
  <rdf:RDF xmlns:dc="http://purl.org/dc/elements/1.1/" xmlns:cc="http://creativecommons.org/ns#" xmlns:rdf="http://www.w3.org/1999/02/22-rdf-syntax-ns#">
   <cc:Work>
    <dc:type rdf:resource="http://purl.org/dc/dcmitype/StillImage"/>
    <dc:date>2024-06-21T19:46:31.740244</dc:date>
    <dc:format>image/svg+xml</dc:format>
    <dc:creator>
     <cc:Agent>
      <dc:title>Matplotlib v3.7.5, https://matplotlib.org/</dc:title>
     </cc:Agent>
    </dc:creator>
   </cc:Work>
  </rdf:RDF>
 </metadata>
 <defs>
  <style type="text/css">*{stroke-linejoin: round; stroke-linecap: butt}</style>
 </defs>
 <g id="figure_1">
  <g id="patch_1">
   <path d="M 0 345.6 
L 460.8 345.6 
L 460.8 0 
L 0 0 
z
" style="fill: #ffffff"/>
  </g>
  <g id="axes_1">
   <g id="patch_2">
    <path d="M 62.208 293.76 
L 460.8 293.76 
L 460.8 3.456 
L 62.208 3.456 
z
" style="fill: #ffffff"/>
   </g>
   <g id="line2d_1">
    <path d="M 365.411005 293.76 
L 365.411005 288.969505 
L 369.972808 288.969505 
L 369.972808 284.17901 
L 371.70112 284.17901 
L 371.70112 279.388515 
L 371.70112 279.388515 
L 371.70112 274.59802 
L 372.546243 274.59802 
L 372.546243 269.807525 
L 372.825222 269.807525 
L 372.825222 265.01703 
L 373.102859 265.01703 
L 373.102859 260.226535 
L 374.471353 260.226535 
L 374.471353 255.43604 
L 375.277136 255.43604 
L 375.277136 250.645545 
L 375.543249 250.645545 
L 375.543249 245.85505 
L 375.543249 245.85505 
L 375.543249 241.064554 
L 375.808141 241.064554 
L 375.808141 236.274059 
L 375.808141 236.274059 
L 375.808141 231.483564 
L 376.595596 231.483564 
L 376.595596 226.693069 
L 376.595596 226.693069 
L 376.595596 221.902574 
L 378.392249 221.902574 
L 378.392249 217.112079 
L 378.895468 217.112079 
L 378.895468 212.321584 
L 379.145441 212.321584 
L 379.145441 207.531089 
L 379.394336 207.531089 
L 379.394336 202.740594 
L 379.642163 202.740594 
L 379.642163 197.950099 
L 380.379318 197.950099 
L 380.379318 193.159604 
L 380.379318 193.159604 
L 380.379318 188.369109 
L 380.622959 188.369109 
L 380.622959 183.578614 
L 384.841228 183.578614 
L 384.841228 178.788119 
L 387.05797 178.788119 
L 387.05797 173.997624 
L 387.49128 173.997624 
L 387.49128 169.207129 
L 413.878369 169.207129 
L 413.878369 164.416634 
L 418.634465 164.416634 
L 418.634465 159.626139 
L 423.772913 159.626139 
L 423.772913 154.835644 
L 435.151886 154.835644 
L 435.151886 150.045149 
L 435.151886 150.045149 
L 435.151886 150.045149 
L 460.8 150.045149 
" clip-path="url(#p378bfd6b21)" style="fill: none; stroke: #f5deb3; stroke-width: 1.5; stroke-linecap: square"/>
   </g>
   <g id="line2d_2"/>
   <g id="line2d_3">
    <path d="M 366.337846 293.76 
L 366.337846 288.969505 
L 376.034227 288.969505 
L 376.034227 284.17901 
L 380.738617 284.17901 
L 380.738617 279.388515 
L 388.257045 279.388515 
L 388.257045 274.59802 
L 389.162747 274.59802 
L 389.162747 269.807525 
L 389.630134 269.807525 
L 389.630134 265.01703 
L 389.669738 265.01703 
L 389.669738 260.226535 
L 389.82788 260.226535 
L 389.82788 255.43604 
L 391.135577 255.43604 
L 391.135577 250.645545 
L 392.073532 250.645545 
L 392.073532 245.85505 
L 392.338742 245.85505 
L 392.338742 241.064554 
L 392.818694 241.064554 
L 392.818694 236.274059 
L 393.117814 236.274059 
L 393.117814 231.483564 
L 393.192353 231.483564 
L 393.192353 226.693069 
L 393.238891 226.693069 
L 393.238891 221.902574 
L 393.285391 221.902574 
L 393.285391 217.112079 
L 393.43394 217.112079 
L 393.43394 212.321584 
L 395.955747 212.321584 
L 395.955747 207.531089 
L 396.845319 207.531089 
L 396.845319 202.740594 
L 397.695553 202.740594 
L 397.695553 197.950099 
L 398.414485 197.950099 
L 398.414485 193.159604 
L 399.850917 193.159604 
L 399.850917 188.369109 
L 400.502646 188.369109 
L 400.502646 183.578614 
L 410.962794 183.578614 
L 410.962794 178.788119 
L 412.034018 178.788119 
L 412.034018 173.997624 
L 412.681951 173.997624 
L 412.681951 169.207129 
L 413.682857 169.207129 
L 413.682857 164.416634 
L 413.780696 164.416634 
L 413.780696 159.626139 
L 413.819785 159.626139 
L 413.819785 154.835644 
L 415.797897 154.835644 
L 415.797897 150.045149 
L 415.992657 150.045149 
L 415.992657 145.254653 
L 417.484742 145.254653 
L 417.484742 140.464158 
L 418.382281 140.464158 
L 418.382281 135.673663 
L 418.544526 135.673663 
L 418.544526 130.883168 
L 419.620545 130.883168 
L 419.620545 126.092673 
L 420.410236 126.092673 
L 420.410236 121.302178 
L 422.178079 121.302178 
L 422.178079 116.511683 
L 425.649394 116.511683 
L 425.649394 111.721188 
L 428.455594 111.721188 
L 428.455594 106.930693 
L 438.715927 106.930693 
L 438.715927 102.140198 
L 442.837801 102.140198 
L 442.837801 97.349703 
L 443.116774 97.349703 
L 443.116774 92.559208 
L 444.675183 92.559208 
L 444.675183 87.768713 
L 445.138778 87.768713 
L 445.138778 82.978218 
L 445.823521 82.978218 
L 445.823521 78.187723 
L 445.823521 78.187723 
L 445.823521 78.187723 
L 460.8 78.187723 
" clip-path="url(#p378bfd6b21)" style="fill: none; stroke: #f5deb3; stroke-width: 1.5; stroke-linecap: square"/>
   </g>
   <g id="line2d_4">
    <path d="M 439.95058 293.76 
L 439.95058 288.969505 
L 446.740007 288.969505 
L 446.740007 284.17901 
L 450.835533 284.17901 
L 450.835533 279.388515 
L 451.551153 279.388515 
L 451.551153 274.59802 
L 456.267136 274.59802 
L 456.267136 269.807525 
L 456.295217 269.807525 
L 456.295217 265.01703 
L 458.708349 265.01703 
L 458.708349 260.226535 
L 459.746024 260.226535 
L 459.746024 255.43604 
L 459.769526 255.43604 
L 459.769526 250.645545 
L 460.391759 250.645545 
L 460.391759 245.85505 
L 461.205373 245.85505 
L 461.205373 241.064554 
L 461.769854 241.064554 
L 461.769854 236.274059 
L 461.8 236.274059 
" clip-path="url(#p378bfd6b21)" style="fill: none; stroke: #f5deb3; stroke-width: 1.5; stroke-linecap: square"/>
   </g>
   <g id="line2d_5"/>
   <g id="line2d_6"/>
   <g id="line2d_7">
    <path d="M 417.825995 293.76 
L 417.825995 288.969505 
L 418.466465 288.969505 
L 418.466465 284.17901 
L 421.154864 284.17901 
L 421.154864 279.388515 
L 421.980536 279.388515 
L 421.980536 274.59802 
L 422.442291 274.59802 
L 422.442291 269.807525 
L 422.839139 269.807525 
L 422.839139 265.01703 
L 423.849594 265.01703 
L 423.849594 260.226535 
L 424.334694 260.226535 
L 424.334694 255.43604 
L 424.761899 255.43604 
L 424.761899 250.645545 
L 426.266817 250.645545 
L 426.266817 245.85505 
L 426.35074 245.85505 
L 426.35074 241.064554 
L 427.59515 241.064554 
L 427.59515 236.274059 
L 429.660838 236.274059 
L 429.660838 231.483564 
L 429.888051 231.483564 
L 429.888051 226.693069 
L 432.594085 226.693069 
L 432.594085 221.902574 
L 461.8 221.902574 
" clip-path="url(#p378bfd6b21)" style="fill: none; stroke: #f5deb3; stroke-width: 1.5; stroke-linecap: square"/>
   </g>
   <g id="line2d_8">
    <path clip-path="url(#p378bfd6b21)" style="fill: none; stroke: #f5deb3; stroke-width: 1.5; stroke-linecap: square"/>
   </g>
   <g id="line2d_9">
    <path d="M 416.392673 293.76 
L 416.392673 288.969505 
L 419.785224 288.969505 
L 419.785224 284.17901 
L 419.990413 284.17901 
L 419.990413 279.388515 
L 422.699715 279.388515 
L 422.699715 274.59802 
L 423.100348 274.59802 
L 423.100348 269.807525 
L 423.216678 269.807525 
L 423.216678 265.01703 
L 423.624741 265.01703 
L 423.624741 260.226535 
L 424.204282 260.226535 
L 424.204282 255.43604 
L 425.239421 255.43604 
L 425.239421 250.645545 
L 425.452758 250.645545 
L 425.452758 245.85505 
L 425.945737 245.85505 
L 425.945737 241.064554 
L 428.298719 241.064554 
L 428.298719 236.274059 
L 428.883559 236.274059 
L 428.883559 231.483564 
L 430.33981 231.483564 
L 430.33981 226.693069 
L 433.605897 226.693069 
L 433.605897 221.902574 
L 434.935486 221.902574 
L 434.935486 217.112079 
L 457.186673 217.112079 
L 457.186673 212.321584 
L 457.511342 212.321584 
L 457.511342 207.531089 
L 458.281969 207.531089 
L 458.281969 202.740594 
L 458.287997 202.740594 
L 458.287997 197.950099 
L 459.17613 197.950099 
L 459.17613 193.159604 
L 459.309511 193.159604 
L 459.309511 188.369109 
L 460.889369 188.369109 
L 460.889369 183.578614 
L 461.465492 183.578614 
L 461.465492 178.788119 
L 461.582307 178.788119 
L 461.582307 173.997624 
L 461.696044 173.997624 
L 461.696044 169.207129 
L 461.761342 169.207129 
L 461.761342 164.416634 
L 461.8 164.416634 
" clip-path="url(#p378bfd6b21)" style="fill: none; stroke: #f5deb3; stroke-width: 1.5; stroke-linecap: square"/>
   </g>
   <g id="line2d_10">
    <path clip-path="url(#p378bfd6b21)" style="fill: none; stroke: #f5deb3; stroke-width: 1.5; stroke-linecap: square"/>
   </g>
   <g id="line2d_11">
    <path d="M 432.169178 293.76 
L 432.169178 288.969505 
L 436.771405 288.969505 
L 436.771405 284.17901 
L 443.281167 284.17901 
L 443.281167 279.388515 
L 453.022373 279.388515 
L 453.022373 274.59802 
L 454.424799 274.59802 
L 454.424799 269.807525 
L 455.154809 269.807525 
L 455.154809 265.01703 
L 460.080021 265.01703 
L 460.080021 260.226535 
L 460.155925 260.226535 
L 460.155925 255.43604 
L 460.969971 255.43604 
L 460.969971 250.645545 
L 461.8 250.645545 
" clip-path="url(#p378bfd6b21)" style="fill: none; stroke: #f5deb3; stroke-width: 1.5; stroke-linecap: square"/>
   </g>
   <g id="line2d_12">
    <path d="M 369.889202 293.76 
L 369.889202 288.969505 
L 377.040793 288.969505 
L 377.040793 284.17901 
L 377.298913 284.17901 
L 377.298913 279.388515 
L 379.571464 279.388515 
L 379.571464 274.59802 
L 380.064547 274.59802 
L 380.064547 269.807525 
L 381.038249 269.807525 
L 381.038249 265.01703 
L 381.757893 265.01703 
L 381.757893 260.226535 
L 381.757893 260.226535 
L 381.757893 255.43604 
L 382.232717 255.43604 
L 382.232717 250.645545 
L 382.232717 250.645545 
L 382.232717 245.85505 
L 382.468672 245.85505 
L 382.468672 241.064554 
L 382.703666 241.064554 
L 382.703666 236.274059 
L 382.937706 236.274059 
L 382.937706 231.483564 
L 383.170802 231.483564 
L 383.170802 226.693069 
L 383.170802 226.693069 
L 383.170802 221.902574 
L 383.86449 221.902574 
L 383.86449 217.112079 
L 383.86449 217.112079 
L 383.86449 212.321584 
L 383.86449 212.321584 
L 383.86449 207.531089 
L 384.549939 207.531089 
L 384.549939 202.740594 
L 384.549939 202.740594 
L 384.549939 197.950099 
L 384.549939 197.950099 
L 384.549939 193.159604 
L 385.22734 193.159604 
L 385.22734 188.369109 
L 385.451385 188.369109 
L 385.451385 183.578614 
L 389.342194 183.578614 
L 389.342194 178.788119 
L 396.044438 178.788119 
L 396.044438 173.997624 
L 420.665299 173.997624 
L 420.665299 169.207129 
L 424.767286 169.207129 
L 424.767286 164.416634 
L 425.330186 164.416634 
L 425.330186 159.626139 
L 425.998496 159.626139 
L 425.998496 154.835644 
L 440.252069 154.835644 
L 440.252069 150.045149 
L 440.252069 150.045149 
L 440.252069 150.045149 
L 460.8 150.045149 
" clip-path="url(#p378bfd6b21)" style="fill: none; stroke: #f5deb3; stroke-width: 1.5; stroke-linecap: square"/>
   </g>
   <g id="line2d_13"/>
   <g id="line2d_14"/>
   <g id="line2d_15"/>
   <g id="line2d_16">
    <path clip-path="url(#p378bfd6b21)" style="fill: none; stroke: #f5deb3; stroke-width: 1.5; stroke-linecap: square"/>
   </g>
   <g id="line2d_17">
    <path clip-path="url(#p378bfd6b21)" style="fill: none; stroke: #f5deb3; stroke-width: 1.5; stroke-linecap: square"/>
   </g>
   <g id="line2d_18">
    <path d="M 334.578251 293.76 
L 334.578251 288.969505 
L 347.679943 288.969505 
L 347.679943 284.17901 
L 347.904903 284.17901 
L 347.904903 279.388515 
L 348.775971 279.388515 
L 348.775971 274.59802 
L 349.096762 274.59802 
L 349.096762 269.807525 
L 352.944349 269.807525 
L 352.944349 265.01703 
L 353.07513 265.01703 
L 353.07513 260.226535 
L 353.205614 260.226535 
L 353.205614 255.43604 
L 353.280044 255.43604 
L 353.280044 250.645545 
L 353.890459 250.645545 
L 353.890459 245.85505 
L 354.348632 245.85505 
L 354.348632 241.064554 
L 354.530888 241.064554 
L 354.530888 236.274059 
L 354.585453 236.274059 
L 354.585453 231.483564 
L 354.857505 231.483564 
L 354.857505 226.693069 
L 355.308093 226.693069 
L 355.308093 221.902574 
L 355.523133 221.902574 
L 355.523133 217.112079 
L 357.110878 217.112079 
L 357.110878 212.321584 
L 357.596064 212.321584 
L 357.596064 207.531089 
L 357.630565 207.531089 
L 357.630565 202.740594 
L 357.716726 202.740594 
L 357.716726 197.950099 
L 358.960244 197.950099 
L 358.960244 193.159604 
L 362.108412 193.159604 
L 362.108412 188.369109 
L 362.505975 188.369109 
L 362.505975 183.578614 
L 369.637654 183.578614 
L 369.637654 178.788119 
L 389.98559 178.788119 
L 389.98559 173.997624 
L 396.415457 173.997624 
L 396.415457 169.207129 
L 398.905714 169.207129 
L 398.905714 164.416634 
L 400.338346 164.416634 
L 400.338346 159.626139 
L 402.723469 159.626139 
L 402.723469 154.835644 
L 403.24993 154.835644 
L 403.24993 150.045149 
L 404.265606 150.045149 
L 404.265606 145.254653 
L 404.877187 145.254653 
L 404.877187 140.464158 
L 406.289389 140.464158 
L 406.289389 135.673663 
L 408.865318 135.673663 
L 408.865318 130.883168 
L 415.222358 130.883168 
L 415.222358 126.092673 
L 417.813842 126.092673 
L 417.813842 121.302178 
L 421.651684 121.302178 
L 421.651684 116.511683 
L 422.285034 116.511683 
L 422.285034 111.721188 
L 427.074728 111.721188 
L 427.074728 106.930693 
L 427.548966 106.930693 
L 427.548966 102.140198 
L 430.119283 102.140198 
L 430.119283 97.349703 
L 439.296783 97.349703 
L 439.296783 92.559208 
L 456.045126 92.559208 
L 456.045126 87.768713 
L 458.935264 87.768713 
L 458.935264 82.978218 
L 461.8 82.978218 
" clip-path="url(#p378bfd6b21)" style="fill: none; stroke: #f5deb3; stroke-width: 1.5; stroke-linecap: square"/>
   </g>
   <g id="line2d_19"/>
   <g id="line2d_20">
    <path d="M 451.496941 293.76 
L 451.496941 288.969505 
L 457.152877 288.969505 
L 457.152877 284.17901 
L 461.8 284.17901 
" clip-path="url(#p378bfd6b21)" style="fill: none; stroke: #f5deb3; stroke-width: 1.5; stroke-linecap: square"/>
   </g>
   <g id="line2d_21"/>
   <g id="line2d_22">
    <path d="M 457.919176 293.76 
L 457.919176 288.969505 
L 458.266898 288.969505 
L 458.266898 284.17901 
L 460.158843 284.17901 
L 460.158843 279.388515 
L 461.439818 279.388515 
L 461.439818 274.59802 
L 461.8 274.59802 
" clip-path="url(#p378bfd6b21)" style="fill: none; stroke: #f5deb3; stroke-width: 1.5; stroke-linecap: square"/>
   </g>
   <g id="line2d_23">
    <path clip-path="url(#p378bfd6b21)" style="fill: none; stroke: #f5deb3; stroke-width: 1.5; stroke-linecap: square"/>
   </g>
   <g id="line2d_24">
    <path d="M 431.458769 293.76 
L 431.458769 288.969505 
L 444.369151 288.969505 
L 444.369151 284.17901 
L 446.644217 284.17901 
L 446.644217 279.388515 
L 449.384137 279.388515 
L 449.384137 274.59802 
L 449.436857 274.59802 
L 449.436857 269.807525 
L 450.522653 269.807525 
L 450.522653 265.01703 
L 451.615464 265.01703 
L 451.615464 260.226535 
L 456.665233 260.226535 
L 456.665233 255.43604 
L 457.897942 255.43604 
L 457.897942 250.645545 
L 458.336192 250.645545 
L 458.336192 245.85505 
L 459.831172 245.85505 
L 459.831172 241.064554 
L 460.458549 241.064554 
L 460.458549 236.274059 
L 460.481762 236.274059 
L 460.481762 231.483564 
L 461.8 231.483564 
" clip-path="url(#p378bfd6b21)" style="fill: none; stroke: #f5deb3; stroke-width: 1.5; stroke-linecap: square"/>
   </g>
   <g id="line2d_25">
    <path clip-path="url(#p378bfd6b21)" style="fill: none; stroke: #f5deb3; stroke-width: 1.5; stroke-linecap: square"/>
   </g>
   <g id="line2d_26">
    <path clip-path="url(#p378bfd6b21)" style="fill: none; stroke: #f5deb3; stroke-width: 1.5; stroke-linecap: square"/>
   </g>
   <g id="line2d_27">
    <path d="M 423.332773 293.76 
L 423.332773 288.969505 
L 426.617432 288.969505 
L 426.617432 284.17901 
L 429.878191 284.17901 
L 429.878191 279.388515 
L 430.134011 279.388515 
L 430.134011 274.59802 
L 432.509353 274.59802 
L 432.509353 269.807525 
L 433.137167 269.807525 
L 433.137167 265.01703 
L 435.69382 265.01703 
L 435.69382 260.226535 
L 436.318975 260.226535 
L 436.318975 255.43604 
L 436.411506 255.43604 
L 436.411506 250.645545 
L 436.481907 250.645545 
L 436.481907 245.85505 
L 437.363405 245.85505 
L 437.363405 241.064554 
L 439.747323 241.064554 
L 439.747323 236.274059 
L 440.173751 236.274059 
L 440.173751 231.483564 
L 440.911482 231.483564 
L 440.911482 226.693069 
L 440.919626 226.693069 
L 440.919626 221.902574 
L 441.31325 221.902574 
L 441.31325 217.112079 
L 441.470757 217.112079 
L 441.470757 212.321584 
L 442.096521 212.321584 
L 442.096521 207.531089 
L 442.275776 207.531089 
L 442.275776 202.740594 
L 442.608902 202.740594 
L 442.608902 197.950099 
L 442.664237 197.950099 
L 442.664237 193.159604 
L 442.77869 193.159604 
L 442.77869 188.369109 
L 443.370994 188.369109 
L 443.370994 183.578614 
L 443.534666 183.578614 
L 443.534666 178.788119 
L 444.157809 178.788119 
L 444.157809 173.997624 
L 445.969201 173.997624 
L 445.969201 169.207129 
L 446.585191 169.207129 
L 446.585191 164.416634 
L 446.728962 164.416634 
L 446.728962 159.626139 
L 447.026425 159.626139 
L 447.026425 154.835644 
L 447.634914 154.835644 
L 447.634914 150.045149 
L 449.971868 150.045149 
L 449.971868 145.254653 
L 451.150136 145.254653 
L 451.150136 140.464158 
L 451.327199 140.464158 
L 451.327199 135.673663 
L 452.471719 135.673663 
L 452.471719 130.883168 
L 452.853754 130.883168 
L 452.853754 126.092673 
L 457.134434 126.092673 
L 457.134434 121.302178 
L 457.235797 121.302178 
L 457.235797 116.511683 
L 457.970711 116.511683 
L 457.970711 111.721188 
L 461.8 111.721188 
" clip-path="url(#p378bfd6b21)" style="fill: none; stroke: #f5deb3; stroke-width: 1.5; stroke-linecap: square"/>
   </g>
   <g id="line2d_28">
    <path d="M 397.350031 293.76 
L 397.350031 288.969505 
L 400.412338 288.969505 
L 400.412338 284.17901 
L 401.832545 284.17901 
L 401.832545 279.388515 
L 402.557465 279.388515 
L 402.557465 274.59802 
L 405.655171 274.59802 
L 405.655171 269.807525 
L 405.954495 269.807525 
L 405.954495 265.01703 
L 406.511577 265.01703 
L 406.511577 260.226535 
L 407.041363 260.226535 
L 407.041363 255.43604 
L 461.8 255.43604 
" clip-path="url(#p378bfd6b21)" style="fill: none; stroke: #f5deb3; stroke-width: 1.5; stroke-linecap: square"/>
   </g>
   <g id="line2d_29">
    <path d="M 343.780814 293.76 
L 343.780814 288.969505 
L 343.780814 288.969505 
L 343.780814 284.17901 
L 343.780814 284.17901 
L 343.780814 279.388515 
L 360.473774 279.388515 
L 360.473774 274.59802 
L 360.473774 274.59802 
L 360.473774 269.807525 
L 360.473774 269.807525 
L 360.473774 265.01703 
L 387.552916 265.01703 
L 387.552916 260.226535 
L 387.552916 260.226535 
L 387.552916 255.43604 
L 387.552916 255.43604 
L 387.552916 250.645545 
L 388.530251 250.645545 
L 388.530251 245.85505 
L 388.530251 245.85505 
L 388.530251 241.064554 
L 388.530251 241.064554 
L 388.530251 236.274059 
L 406.014174 236.274059 
L 406.014174 231.483564 
L 406.014174 231.483564 
L 406.014174 226.693069 
L 406.014174 226.693069 
L 406.014174 221.902574 
L 408.301949 221.902574 
L 408.301949 217.112079 
L 408.301949 217.112079 
L 408.301949 212.321584 
L 408.301949 212.321584 
L 408.301949 207.531089 
L 408.787203 207.531089 
L 408.787203 202.740594 
L 408.787203 202.740594 
L 408.787203 197.950099 
L 408.787203 197.950099 
L 408.787203 193.159604 
L 410.405813 193.159604 
L 410.405813 188.369109 
L 410.405813 188.369109 
L 410.405813 183.578614 
L 410.405813 183.578614 
L 410.405813 178.788119 
L 410.488668 178.788119 
L 410.488668 173.997624 
L 410.488668 173.997624 
L 410.488668 169.207129 
L 410.488668 169.207129 
L 410.488668 164.416634 
L 440.280897 164.416634 
L 440.280897 159.626139 
L 440.280897 159.626139 
L 440.280897 154.835644 
L 440.280897 154.835644 
L 440.280897 150.045149 
L 440.280897 150.045149 
L 440.280897 150.045149 
L 460.8 150.045149 
" clip-path="url(#p378bfd6b21)" style="fill: none; stroke: #f5deb3; stroke-width: 1.5; stroke-linecap: square"/>
   </g>
   <g id="line2d_30"/>
   <g id="matplotlib.axis_1">
    <g id="xtick_1">
     <g id="line2d_31">
      <path d="M 195.072 293.76 
L 195.072 3.456 
" clip-path="url(#p378bfd6b21)" style="fill: none; stroke: #b0b0b0; stroke-width: 0.8; stroke-linecap: square"/>
     </g>
     <g id="line2d_32">
      <defs>
       <path id="m390ddd52ff" d="M 0 0 
L 0 3.5 
" style="stroke: #000000; stroke-width: 0.8"/>
      </defs>
      <g>
       <use xlink:href="#m390ddd52ff" x="195.072" y="293.76" style="stroke: #000000; stroke-width: 0.8"/>
      </g>
     </g>
     <g id="text_1">
      <!-- 1 -->
      <g transform="translate(188.7095 315.956875) scale(0.2 -0.2)">
       <defs>
        <path id="DejaVuSans-31" d="M 794 531 
L 1825 531 
L 1825 4091 
L 703 3866 
L 703 4441 
L 1819 4666 
L 2450 4666 
L 2450 531 
L 3481 531 
L 3481 0 
L 794 0 
L 794 531 
z
" transform="scale(0.015625)"/>
       </defs>
       <use xlink:href="#DejaVuSans-31"/>
      </g>
     </g>
    </g>
    <g id="xtick_2">
     <g id="line2d_33">
      <path d="M 460.8 293.76 
L 460.8 3.456 
" clip-path="url(#p378bfd6b21)" style="fill: none; stroke: #b0b0b0; stroke-width: 0.8; stroke-linecap: square"/>
     </g>
     <g id="line2d_34">
      <g>
       <use xlink:href="#m390ddd52ff" x="460.8" y="293.76" style="stroke: #000000; stroke-width: 0.8"/>
      </g>
     </g>
     <g id="text_2">
      <!-- 3 -->
      <g transform="translate(454.4375 315.956875) scale(0.2 -0.2)">
       <defs>
        <path id="DejaVuSans-33" d="M 2597 2516 
Q 3050 2419 3304 2112 
Q 3559 1806 3559 1356 
Q 3559 666 3084 287 
Q 2609 -91 1734 -91 
Q 1441 -91 1130 -33 
Q 819 25 488 141 
L 488 750 
Q 750 597 1062 519 
Q 1375 441 1716 441 
Q 2309 441 2620 675 
Q 2931 909 2931 1356 
Q 2931 1769 2642 2001 
Q 2353 2234 1838 2234 
L 1294 2234 
L 1294 2753 
L 1863 2753 
Q 2328 2753 2575 2939 
Q 2822 3125 2822 3475 
Q 2822 3834 2567 4026 
Q 2313 4219 1838 4219 
Q 1578 4219 1281 4162 
Q 984 4106 628 3988 
L 628 4550 
Q 988 4650 1302 4700 
Q 1616 4750 1894 4750 
Q 2613 4750 3031 4423 
Q 3450 4097 3450 3541 
Q 3450 3153 3228 2886 
Q 3006 2619 2597 2516 
z
" transform="scale(0.015625)"/>
       </defs>
       <use xlink:href="#DejaVuSans-33"/>
      </g>
     </g>
    </g>
    <g id="xtick_3">
     <g id="line2d_35">
      <path d="M 102.204049 293.76 
L 102.204049 3.456 
" clip-path="url(#p378bfd6b21)" style="fill: none; stroke: #b0b0b0; stroke-width: 0.8; stroke-linecap: square"/>
     </g>
     <g id="line2d_36">
      <defs>
       <path id="m80f11c3d95" d="M 0 0 
L 0 2 
" style="stroke: #000000; stroke-width: 0.6"/>
      </defs>
      <g>
       <use xlink:href="#m80f11c3d95" x="102.204049" y="293.76" style="stroke: #000000; stroke-width: 0.6"/>
      </g>
     </g>
    </g>
    <g id="xtick_4">
     <g id="line2d_37">
      <path d="M 125.600238 293.76 
L 125.600238 3.456 
" clip-path="url(#p378bfd6b21)" style="fill: none; stroke: #b0b0b0; stroke-width: 0.8; stroke-linecap: square"/>
     </g>
     <g id="line2d_38">
      <g>
       <use xlink:href="#m80f11c3d95" x="125.600238" y="293.76" style="stroke: #000000; stroke-width: 0.6"/>
      </g>
     </g>
    </g>
    <g id="xtick_5">
     <g id="line2d_39">
      <path d="M 142.200099 293.76 
L 142.200099 3.456 
" clip-path="url(#p378bfd6b21)" style="fill: none; stroke: #b0b0b0; stroke-width: 0.8; stroke-linecap: square"/>
     </g>
     <g id="line2d_40">
      <g>
       <use xlink:href="#m80f11c3d95" x="142.200099" y="293.76" style="stroke: #000000; stroke-width: 0.6"/>
      </g>
     </g>
    </g>
    <g id="xtick_6">
     <g id="line2d_41">
      <path d="M 155.075951 293.76 
L 155.075951 3.456 
" clip-path="url(#p378bfd6b21)" style="fill: none; stroke: #b0b0b0; stroke-width: 0.8; stroke-linecap: square"/>
     </g>
     <g id="line2d_42">
      <g>
       <use xlink:href="#m80f11c3d95" x="155.075951" y="293.76" style="stroke: #000000; stroke-width: 0.6"/>
      </g>
     </g>
    </g>
    <g id="xtick_7">
     <g id="line2d_43">
      <path d="M 165.596288 293.76 
L 165.596288 3.456 
" clip-path="url(#p378bfd6b21)" style="fill: none; stroke: #b0b0b0; stroke-width: 0.8; stroke-linecap: square"/>
     </g>
     <g id="line2d_44">
      <g>
       <use xlink:href="#m80f11c3d95" x="165.596288" y="293.76" style="stroke: #000000; stroke-width: 0.6"/>
      </g>
     </g>
    </g>
    <g id="xtick_8">
     <g id="line2d_45">
      <path d="M 174.491106 293.76 
L 174.491106 3.456 
" clip-path="url(#p378bfd6b21)" style="fill: none; stroke: #b0b0b0; stroke-width: 0.8; stroke-linecap: square"/>
     </g>
     <g id="line2d_46">
      <g>
       <use xlink:href="#m80f11c3d95" x="174.491106" y="293.76" style="stroke: #000000; stroke-width: 0.6"/>
      </g>
     </g>
    </g>
    <g id="xtick_9">
     <g id="line2d_47">
      <path d="M 182.196148 293.76 
L 182.196148 3.456 
" clip-path="url(#p378bfd6b21)" style="fill: none; stroke: #b0b0b0; stroke-width: 0.8; stroke-linecap: square"/>
     </g>
     <g id="line2d_48">
      <g>
       <use xlink:href="#m80f11c3d95" x="182.196148" y="293.76" style="stroke: #000000; stroke-width: 0.6"/>
      </g>
     </g>
    </g>
    <g id="xtick_10">
     <g id="line2d_49">
      <path d="M 188.992477 293.76 
L 188.992477 3.456 
" clip-path="url(#p378bfd6b21)" style="fill: none; stroke: #b0b0b0; stroke-width: 0.8; stroke-linecap: square"/>
     </g>
     <g id="line2d_50">
      <g>
       <use xlink:href="#m80f11c3d95" x="188.992477" y="293.76" style="stroke: #000000; stroke-width: 0.6"/>
      </g>
     </g>
    </g>
    <g id="xtick_11">
     <g id="line2d_51">
      <path d="M 235.068049 293.76 
L 235.068049 3.456 
" clip-path="url(#p378bfd6b21)" style="fill: none; stroke: #b0b0b0; stroke-width: 0.8; stroke-linecap: square"/>
     </g>
     <g id="line2d_52">
      <g>
       <use xlink:href="#m80f11c3d95" x="235.068049" y="293.76" style="stroke: #000000; stroke-width: 0.6"/>
      </g>
     </g>
    </g>
    <g id="xtick_12">
     <g id="line2d_53">
      <path d="M 258.464238 293.76 
L 258.464238 3.456 
" clip-path="url(#p378bfd6b21)" style="fill: none; stroke: #b0b0b0; stroke-width: 0.8; stroke-linecap: square"/>
     </g>
     <g id="line2d_54">
      <g>
       <use xlink:href="#m80f11c3d95" x="258.464238" y="293.76" style="stroke: #000000; stroke-width: 0.6"/>
      </g>
     </g>
    </g>
    <g id="xtick_13">
     <g id="line2d_55">
      <path d="M 275.064099 293.76 
L 275.064099 3.456 
" clip-path="url(#p378bfd6b21)" style="fill: none; stroke: #b0b0b0; stroke-width: 0.8; stroke-linecap: square"/>
     </g>
     <g id="line2d_56">
      <g>
       <use xlink:href="#m80f11c3d95" x="275.064099" y="293.76" style="stroke: #000000; stroke-width: 0.6"/>
      </g>
     </g>
    </g>
    <g id="xtick_14">
     <g id="line2d_57">
      <path d="M 287.939951 293.76 
L 287.939951 3.456 
" clip-path="url(#p378bfd6b21)" style="fill: none; stroke: #b0b0b0; stroke-width: 0.8; stroke-linecap: square"/>
     </g>
     <g id="line2d_58">
      <g>
       <use xlink:href="#m80f11c3d95" x="287.939951" y="293.76" style="stroke: #000000; stroke-width: 0.6"/>
      </g>
     </g>
    </g>
    <g id="xtick_15">
     <g id="line2d_59">
      <path d="M 298.460288 293.76 
L 298.460288 3.456 
" clip-path="url(#p378bfd6b21)" style="fill: none; stroke: #b0b0b0; stroke-width: 0.8; stroke-linecap: square"/>
     </g>
     <g id="line2d_60">
      <g>
       <use xlink:href="#m80f11c3d95" x="298.460288" y="293.76" style="stroke: #000000; stroke-width: 0.6"/>
      </g>
     </g>
    </g>
    <g id="xtick_16">
     <g id="line2d_61">
      <path d="M 307.355106 293.76 
L 307.355106 3.456 
" clip-path="url(#p378bfd6b21)" style="fill: none; stroke: #b0b0b0; stroke-width: 0.8; stroke-linecap: square"/>
     </g>
     <g id="line2d_62">
      <g>
       <use xlink:href="#m80f11c3d95" x="307.355106" y="293.76" style="stroke: #000000; stroke-width: 0.6"/>
      </g>
     </g>
    </g>
    <g id="xtick_17">
     <g id="line2d_63">
      <path d="M 315.060148 293.76 
L 315.060148 3.456 
" clip-path="url(#p378bfd6b21)" style="fill: none; stroke: #b0b0b0; stroke-width: 0.8; stroke-linecap: square"/>
     </g>
     <g id="line2d_64">
      <g>
       <use xlink:href="#m80f11c3d95" x="315.060148" y="293.76" style="stroke: #000000; stroke-width: 0.6"/>
      </g>
     </g>
    </g>
    <g id="xtick_18">
     <g id="line2d_65">
      <path d="M 321.856477 293.76 
L 321.856477 3.456 
" clip-path="url(#p378bfd6b21)" style="fill: none; stroke: #b0b0b0; stroke-width: 0.8; stroke-linecap: square"/>
     </g>
     <g id="line2d_66">
      <g>
       <use xlink:href="#m80f11c3d95" x="321.856477" y="293.76" style="stroke: #000000; stroke-width: 0.6"/>
      </g>
     </g>
    </g>
    <g id="xtick_19">
     <g id="line2d_67">
      <path d="M 367.932049 293.76 
L 367.932049 3.456 
" clip-path="url(#p378bfd6b21)" style="fill: none; stroke: #b0b0b0; stroke-width: 0.8; stroke-linecap: square"/>
     </g>
     <g id="line2d_68">
      <g>
       <use xlink:href="#m80f11c3d95" x="367.932049" y="293.76" style="stroke: #000000; stroke-width: 0.6"/>
      </g>
     </g>
    </g>
    <g id="xtick_20">
     <g id="line2d_69">
      <path d="M 391.328238 293.76 
L 391.328238 3.456 
" clip-path="url(#p378bfd6b21)" style="fill: none; stroke: #b0b0b0; stroke-width: 0.8; stroke-linecap: square"/>
     </g>
     <g id="line2d_70">
      <g>
       <use xlink:href="#m80f11c3d95" x="391.328238" y="293.76" style="stroke: #000000; stroke-width: 0.6"/>
      </g>
     </g>
    </g>
    <g id="xtick_21">
     <g id="line2d_71">
      <path d="M 407.928099 293.76 
L 407.928099 3.456 
" clip-path="url(#p378bfd6b21)" style="fill: none; stroke: #b0b0b0; stroke-width: 0.8; stroke-linecap: square"/>
     </g>
     <g id="line2d_72">
      <g>
       <use xlink:href="#m80f11c3d95" x="407.928099" y="293.76" style="stroke: #000000; stroke-width: 0.6"/>
      </g>
     </g>
    </g>
    <g id="xtick_22">
     <g id="line2d_73">
      <path d="M 420.803951 293.76 
L 420.803951 3.456 
" clip-path="url(#p378bfd6b21)" style="fill: none; stroke: #b0b0b0; stroke-width: 0.8; stroke-linecap: square"/>
     </g>
     <g id="line2d_74">
      <g>
       <use xlink:href="#m80f11c3d95" x="420.803951" y="293.76" style="stroke: #000000; stroke-width: 0.6"/>
      </g>
     </g>
    </g>
    <g id="xtick_23">
     <g id="line2d_75">
      <path d="M 431.324288 293.76 
L 431.324288 3.456 
" clip-path="url(#p378bfd6b21)" style="fill: none; stroke: #b0b0b0; stroke-width: 0.8; stroke-linecap: square"/>
     </g>
     <g id="line2d_76">
      <g>
       <use xlink:href="#m80f11c3d95" x="431.324288" y="293.76" style="stroke: #000000; stroke-width: 0.6"/>
      </g>
     </g>
    </g>
    <g id="xtick_24">
     <g id="line2d_77">
      <path d="M 440.219106 293.76 
L 440.219106 3.456 
" clip-path="url(#p378bfd6b21)" style="fill: none; stroke: #b0b0b0; stroke-width: 0.8; stroke-linecap: square"/>
     </g>
     <g id="line2d_78">
      <g>
       <use xlink:href="#m80f11c3d95" x="440.219106" y="293.76" style="stroke: #000000; stroke-width: 0.6"/>
      </g>
     </g>
    </g>
    <g id="xtick_25">
     <g id="line2d_79">
      <path d="M 447.924148 293.76 
L 447.924148 3.456 
" clip-path="url(#p378bfd6b21)" style="fill: none; stroke: #b0b0b0; stroke-width: 0.8; stroke-linecap: square"/>
     </g>
     <g id="line2d_80">
      <g>
       <use xlink:href="#m80f11c3d95" x="447.924148" y="293.76" style="stroke: #000000; stroke-width: 0.6"/>
      </g>
     </g>
    </g>
    <g id="xtick_26">
     <g id="line2d_81">
      <path d="M 454.720477 293.76 
L 454.720477 3.456 
" clip-path="url(#p378bfd6b21)" style="fill: none; stroke: #b0b0b0; stroke-width: 0.8; stroke-linecap: square"/>
     </g>
     <g id="line2d_82">
      <g>
       <use xlink:href="#m80f11c3d95" x="454.720477" y="293.76" style="stroke: #000000; stroke-width: 0.6"/>
      </g>
     </g>
    </g>
    <g id="text_3">
     <!-- log10 of FEvals / DIM -->
     <g transform="translate(156.430563 339.313125) scale(0.2 -0.2)">
      <defs>
       <path id="DejaVuSans-6c" d="M 603 4863 
L 1178 4863 
L 1178 0 
L 603 0 
L 603 4863 
z
" transform="scale(0.015625)"/>
       <path id="DejaVuSans-6f" d="M 1959 3097 
Q 1497 3097 1228 2736 
Q 959 2375 959 1747 
Q 959 1119 1226 758 
Q 1494 397 1959 397 
Q 2419 397 2687 759 
Q 2956 1122 2956 1747 
Q 2956 2369 2687 2733 
Q 2419 3097 1959 3097 
z
M 1959 3584 
Q 2709 3584 3137 3096 
Q 3566 2609 3566 1747 
Q 3566 888 3137 398 
Q 2709 -91 1959 -91 
Q 1206 -91 779 398 
Q 353 888 353 1747 
Q 353 2609 779 3096 
Q 1206 3584 1959 3584 
z
" transform="scale(0.015625)"/>
       <path id="DejaVuSans-67" d="M 2906 1791 
Q 2906 2416 2648 2759 
Q 2391 3103 1925 3103 
Q 1463 3103 1205 2759 
Q 947 2416 947 1791 
Q 947 1169 1205 825 
Q 1463 481 1925 481 
Q 2391 481 2648 825 
Q 2906 1169 2906 1791 
z
M 3481 434 
Q 3481 -459 3084 -895 
Q 2688 -1331 1869 -1331 
Q 1566 -1331 1297 -1286 
Q 1028 -1241 775 -1147 
L 775 -588 
Q 1028 -725 1275 -790 
Q 1522 -856 1778 -856 
Q 2344 -856 2625 -561 
Q 2906 -266 2906 331 
L 2906 616 
Q 2728 306 2450 153 
Q 2172 0 1784 0 
Q 1141 0 747 490 
Q 353 981 353 1791 
Q 353 2603 747 3093 
Q 1141 3584 1784 3584 
Q 2172 3584 2450 3431 
Q 2728 3278 2906 2969 
L 2906 3500 
L 3481 3500 
L 3481 434 
z
" transform="scale(0.015625)"/>
       <path id="DejaVuSans-30" d="M 2034 4250 
Q 1547 4250 1301 3770 
Q 1056 3291 1056 2328 
Q 1056 1369 1301 889 
Q 1547 409 2034 409 
Q 2525 409 2770 889 
Q 3016 1369 3016 2328 
Q 3016 3291 2770 3770 
Q 2525 4250 2034 4250 
z
M 2034 4750 
Q 2819 4750 3233 4129 
Q 3647 3509 3647 2328 
Q 3647 1150 3233 529 
Q 2819 -91 2034 -91 
Q 1250 -91 836 529 
Q 422 1150 422 2328 
Q 422 3509 836 4129 
Q 1250 4750 2034 4750 
z
" transform="scale(0.015625)"/>
       <path id="DejaVuSans-20" transform="scale(0.015625)"/>
       <path id="DejaVuSans-66" d="M 2375 4863 
L 2375 4384 
L 1825 4384 
Q 1516 4384 1395 4259 
Q 1275 4134 1275 3809 
L 1275 3500 
L 2222 3500 
L 2222 3053 
L 1275 3053 
L 1275 0 
L 697 0 
L 697 3053 
L 147 3053 
L 147 3500 
L 697 3500 
L 697 3744 
Q 697 4328 969 4595 
Q 1241 4863 1831 4863 
L 2375 4863 
z
" transform="scale(0.015625)"/>
       <path id="DejaVuSans-46" d="M 628 4666 
L 3309 4666 
L 3309 4134 
L 1259 4134 
L 1259 2759 
L 3109 2759 
L 3109 2228 
L 1259 2228 
L 1259 0 
L 628 0 
L 628 4666 
z
" transform="scale(0.015625)"/>
       <path id="DejaVuSans-45" d="M 628 4666 
L 3578 4666 
L 3578 4134 
L 1259 4134 
L 1259 2753 
L 3481 2753 
L 3481 2222 
L 1259 2222 
L 1259 531 
L 3634 531 
L 3634 0 
L 628 0 
L 628 4666 
z
" transform="scale(0.015625)"/>
       <path id="DejaVuSans-76" d="M 191 3500 
L 800 3500 
L 1894 563 
L 2988 3500 
L 3597 3500 
L 2284 0 
L 1503 0 
L 191 3500 
z
" transform="scale(0.015625)"/>
       <path id="DejaVuSans-61" d="M 2194 1759 
Q 1497 1759 1228 1600 
Q 959 1441 959 1056 
Q 959 750 1161 570 
Q 1363 391 1709 391 
Q 2188 391 2477 730 
Q 2766 1069 2766 1631 
L 2766 1759 
L 2194 1759 
z
M 3341 1997 
L 3341 0 
L 2766 0 
L 2766 531 
Q 2569 213 2275 61 
Q 1981 -91 1556 -91 
Q 1019 -91 701 211 
Q 384 513 384 1019 
Q 384 1609 779 1909 
Q 1175 2209 1959 2209 
L 2766 2209 
L 2766 2266 
Q 2766 2663 2505 2880 
Q 2244 3097 1772 3097 
Q 1472 3097 1187 3025 
Q 903 2953 641 2809 
L 641 3341 
Q 956 3463 1253 3523 
Q 1550 3584 1831 3584 
Q 2591 3584 2966 3190 
Q 3341 2797 3341 1997 
z
" transform="scale(0.015625)"/>
       <path id="DejaVuSans-73" d="M 2834 3397 
L 2834 2853 
Q 2591 2978 2328 3040 
Q 2066 3103 1784 3103 
Q 1356 3103 1142 2972 
Q 928 2841 928 2578 
Q 928 2378 1081 2264 
Q 1234 2150 1697 2047 
L 1894 2003 
Q 2506 1872 2764 1633 
Q 3022 1394 3022 966 
Q 3022 478 2636 193 
Q 2250 -91 1575 -91 
Q 1294 -91 989 -36 
Q 684 19 347 128 
L 347 722 
Q 666 556 975 473 
Q 1284 391 1588 391 
Q 1994 391 2212 530 
Q 2431 669 2431 922 
Q 2431 1156 2273 1281 
Q 2116 1406 1581 1522 
L 1381 1569 
Q 847 1681 609 1914 
Q 372 2147 372 2553 
Q 372 3047 722 3315 
Q 1072 3584 1716 3584 
Q 2034 3584 2315 3537 
Q 2597 3491 2834 3397 
z
" transform="scale(0.015625)"/>
       <path id="DejaVuSans-2f" d="M 1625 4666 
L 2156 4666 
L 531 -594 
L 0 -594 
L 1625 4666 
z
" transform="scale(0.015625)"/>
       <path id="DejaVuSans-44" d="M 1259 4147 
L 1259 519 
L 2022 519 
Q 2988 519 3436 956 
Q 3884 1394 3884 2338 
Q 3884 3275 3436 3711 
Q 2988 4147 2022 4147 
L 1259 4147 
z
M 628 4666 
L 1925 4666 
Q 3281 4666 3915 4102 
Q 4550 3538 4550 2338 
Q 4550 1131 3912 565 
Q 3275 0 1925 0 
L 628 0 
L 628 4666 
z
" transform="scale(0.015625)"/>
       <path id="DejaVuSans-49" d="M 628 4666 
L 1259 4666 
L 1259 0 
L 628 0 
L 628 4666 
z
" transform="scale(0.015625)"/>
       <path id="DejaVuSans-4d" d="M 628 4666 
L 1569 4666 
L 2759 1491 
L 3956 4666 
L 4897 4666 
L 4897 0 
L 4281 0 
L 4281 4097 
L 3078 897 
L 2444 897 
L 1241 4097 
L 1241 0 
L 628 0 
L 628 4666 
z
" transform="scale(0.015625)"/>
      </defs>
      <use xlink:href="#DejaVuSans-6c"/>
      <use xlink:href="#DejaVuSans-6f" x="27.783203"/>
      <use xlink:href="#DejaVuSans-67" x="88.964844"/>
      <use xlink:href="#DejaVuSans-31" x="152.441406"/>
      <use xlink:href="#DejaVuSans-30" x="216.064453"/>
      <use xlink:href="#DejaVuSans-20" x="279.6875"/>
      <use xlink:href="#DejaVuSans-6f" x="311.474609"/>
      <use xlink:href="#DejaVuSans-66" x="372.65625"/>
      <use xlink:href="#DejaVuSans-20" x="407.861328"/>
      <use xlink:href="#DejaVuSans-46" x="439.648438"/>
      <use xlink:href="#DejaVuSans-45" x="497.167969"/>
      <use xlink:href="#DejaVuSans-76" x="560.351562"/>
      <use xlink:href="#DejaVuSans-61" x="619.53125"/>
      <use xlink:href="#DejaVuSans-6c" x="680.810547"/>
      <use xlink:href="#DejaVuSans-73" x="708.59375"/>
      <use xlink:href="#DejaVuSans-20" x="760.693359"/>
      <use xlink:href="#DejaVuSans-2f" x="792.480469"/>
      <use xlink:href="#DejaVuSans-20" x="826.171875"/>
      <use xlink:href="#DejaVuSans-44" x="857.958984"/>
      <use xlink:href="#DejaVuSans-49" x="934.960938"/>
      <use xlink:href="#DejaVuSans-4d" x="964.453125"/>
     </g>
    </g>
   </g>
   <g id="matplotlib.axis_2">
    <g id="ytick_1">
     <g id="line2d_83">
      <path d="M 62.208 293.76 
L 460.8 293.76 
" clip-path="url(#p378bfd6b21)" style="fill: none; stroke: #b0b0b0; stroke-width: 0.8; stroke-linecap: square"/>
     </g>
     <g id="line2d_84">
      <defs>
       <path id="ma85e12c9dc" d="M 0 0 
L -3.5 0 
" style="stroke: #000000; stroke-width: 0.8"/>
      </defs>
      <g>
       <use xlink:href="#ma85e12c9dc" x="62.208" y="293.76" style="stroke: #000000; stroke-width: 0.8"/>
      </g>
     </g>
     <g id="text_4">
      <!-- 0.0 -->
      <g transform="translate(29.763 299.83875) scale(0.16 -0.16)">
       <defs>
        <path id="DejaVuSans-2e" d="M 684 794 
L 1344 794 
L 1344 0 
L 684 0 
L 684 794 
z
" transform="scale(0.015625)"/>
       </defs>
       <use xlink:href="#DejaVuSans-30"/>
       <use xlink:href="#DejaVuSans-2e" x="63.623047"/>
       <use xlink:href="#DejaVuSans-30" x="95.410156"/>
      </g>
     </g>
    </g>
    <g id="ytick_2">
     <g id="line2d_85">
      <path d="M 62.208 236.274059 
L 460.8 236.274059 
" clip-path="url(#p378bfd6b21)" style="fill: none; stroke: #b0b0b0; stroke-width: 0.8; stroke-linecap: square"/>
     </g>
     <g id="line2d_86">
      <g>
       <use xlink:href="#ma85e12c9dc" x="62.208" y="236.274059" style="stroke: #000000; stroke-width: 0.8"/>
      </g>
     </g>
     <g id="text_5">
      <!-- 0.2 -->
      <g transform="translate(29.763 242.352809) scale(0.16 -0.16)">
       <defs>
        <path id="DejaVuSans-32" d="M 1228 531 
L 3431 531 
L 3431 0 
L 469 0 
L 469 531 
Q 828 903 1448 1529 
Q 2069 2156 2228 2338 
Q 2531 2678 2651 2914 
Q 2772 3150 2772 3378 
Q 2772 3750 2511 3984 
Q 2250 4219 1831 4219 
Q 1534 4219 1204 4116 
Q 875 4013 500 3803 
L 500 4441 
Q 881 4594 1212 4672 
Q 1544 4750 1819 4750 
Q 2544 4750 2975 4387 
Q 3406 4025 3406 3419 
Q 3406 3131 3298 2873 
Q 3191 2616 2906 2266 
Q 2828 2175 2409 1742 
Q 1991 1309 1228 531 
z
" transform="scale(0.015625)"/>
       </defs>
       <use xlink:href="#DejaVuSans-30"/>
       <use xlink:href="#DejaVuSans-2e" x="63.623047"/>
       <use xlink:href="#DejaVuSans-32" x="95.410156"/>
      </g>
     </g>
    </g>
    <g id="ytick_3">
     <g id="line2d_87">
      <path d="M 62.208 178.788119 
L 460.8 178.788119 
" clip-path="url(#p378bfd6b21)" style="fill: none; stroke: #b0b0b0; stroke-width: 0.8; stroke-linecap: square"/>
     </g>
     <g id="line2d_88">
      <g>
       <use xlink:href="#ma85e12c9dc" x="62.208" y="178.788119" style="stroke: #000000; stroke-width: 0.8"/>
      </g>
     </g>
     <g id="text_6">
      <!-- 0.4 -->
      <g transform="translate(29.763 184.866869) scale(0.16 -0.16)">
       <defs>
        <path id="DejaVuSans-34" d="M 2419 4116 
L 825 1625 
L 2419 1625 
L 2419 4116 
z
M 2253 4666 
L 3047 4666 
L 3047 1625 
L 3713 1625 
L 3713 1100 
L 3047 1100 
L 3047 0 
L 2419 0 
L 2419 1100 
L 313 1100 
L 313 1709 
L 2253 4666 
z
" transform="scale(0.015625)"/>
       </defs>
       <use xlink:href="#DejaVuSans-30"/>
       <use xlink:href="#DejaVuSans-2e" x="63.623047"/>
       <use xlink:href="#DejaVuSans-34" x="95.410156"/>
      </g>
     </g>
    </g>
    <g id="ytick_4">
     <g id="line2d_89">
      <path d="M 62.208 121.302178 
L 460.8 121.302178 
" clip-path="url(#p378bfd6b21)" style="fill: none; stroke: #b0b0b0; stroke-width: 0.8; stroke-linecap: square"/>
     </g>
     <g id="line2d_90">
      <g>
       <use xlink:href="#ma85e12c9dc" x="62.208" y="121.302178" style="stroke: #000000; stroke-width: 0.8"/>
      </g>
     </g>
     <g id="text_7">
      <!-- 0.6 -->
      <g transform="translate(29.763 127.380928) scale(0.16 -0.16)">
       <defs>
        <path id="DejaVuSans-36" d="M 2113 2584 
Q 1688 2584 1439 2293 
Q 1191 2003 1191 1497 
Q 1191 994 1439 701 
Q 1688 409 2113 409 
Q 2538 409 2786 701 
Q 3034 994 3034 1497 
Q 3034 2003 2786 2293 
Q 2538 2584 2113 2584 
z
M 3366 4563 
L 3366 3988 
Q 3128 4100 2886 4159 
Q 2644 4219 2406 4219 
Q 1781 4219 1451 3797 
Q 1122 3375 1075 2522 
Q 1259 2794 1537 2939 
Q 1816 3084 2150 3084 
Q 2853 3084 3261 2657 
Q 3669 2231 3669 1497 
Q 3669 778 3244 343 
Q 2819 -91 2113 -91 
Q 1303 -91 875 529 
Q 447 1150 447 2328 
Q 447 3434 972 4092 
Q 1497 4750 2381 4750 
Q 2619 4750 2861 4703 
Q 3103 4656 3366 4563 
z
" transform="scale(0.015625)"/>
       </defs>
       <use xlink:href="#DejaVuSans-30"/>
       <use xlink:href="#DejaVuSans-2e" x="63.623047"/>
       <use xlink:href="#DejaVuSans-36" x="95.410156"/>
      </g>
     </g>
    </g>
    <g id="ytick_5">
     <g id="line2d_91">
      <path d="M 62.208 63.816238 
L 460.8 63.816238 
" clip-path="url(#p378bfd6b21)" style="fill: none; stroke: #b0b0b0; stroke-width: 0.8; stroke-linecap: square"/>
     </g>
     <g id="line2d_92">
      <g>
       <use xlink:href="#ma85e12c9dc" x="62.208" y="63.816238" style="stroke: #000000; stroke-width: 0.8"/>
      </g>
     </g>
     <g id="text_8">
      <!-- 0.8 -->
      <g transform="translate(29.763 69.894988) scale(0.16 -0.16)">
       <defs>
        <path id="DejaVuSans-38" d="M 2034 2216 
Q 1584 2216 1326 1975 
Q 1069 1734 1069 1313 
Q 1069 891 1326 650 
Q 1584 409 2034 409 
Q 2484 409 2743 651 
Q 3003 894 3003 1313 
Q 3003 1734 2745 1975 
Q 2488 2216 2034 2216 
z
M 1403 2484 
Q 997 2584 770 2862 
Q 544 3141 544 3541 
Q 544 4100 942 4425 
Q 1341 4750 2034 4750 
Q 2731 4750 3128 4425 
Q 3525 4100 3525 3541 
Q 3525 3141 3298 2862 
Q 3072 2584 2669 2484 
Q 3125 2378 3379 2068 
Q 3634 1759 3634 1313 
Q 3634 634 3220 271 
Q 2806 -91 2034 -91 
Q 1263 -91 848 271 
Q 434 634 434 1313 
Q 434 1759 690 2068 
Q 947 2378 1403 2484 
z
M 1172 3481 
Q 1172 3119 1398 2916 
Q 1625 2713 2034 2713 
Q 2441 2713 2670 2916 
Q 2900 3119 2900 3481 
Q 2900 3844 2670 4047 
Q 2441 4250 2034 4250 
Q 1625 4250 1398 4047 
Q 1172 3844 1172 3481 
z
" transform="scale(0.015625)"/>
       </defs>
       <use xlink:href="#DejaVuSans-30"/>
       <use xlink:href="#DejaVuSans-2e" x="63.623047"/>
       <use xlink:href="#DejaVuSans-38" x="95.410156"/>
      </g>
     </g>
    </g>
    <g id="ytick_6">
     <g id="line2d_93">
      <path d="M 62.208 6.330297 
L 460.8 6.330297 
" clip-path="url(#p378bfd6b21)" style="fill: none; stroke: #b0b0b0; stroke-width: 0.8; stroke-linecap: square"/>
     </g>
     <g id="line2d_94">
      <g>
       <use xlink:href="#ma85e12c9dc" x="62.208" y="6.330297" style="stroke: #000000; stroke-width: 0.8"/>
      </g>
     </g>
     <g id="text_9">
      <!-- 1.0 -->
      <g transform="translate(29.763 12.409047) scale(0.16 -0.16)">
       <use xlink:href="#DejaVuSans-31"/>
       <use xlink:href="#DejaVuSans-2e" x="63.623047"/>
       <use xlink:href="#DejaVuSans-30" x="95.410156"/>
      </g>
     </g>
    </g>
    <g id="text_10">
     <!-- proportion of trials -->
     <g transform="translate(21.603625 241.61425) rotate(-90) scale(0.2 -0.2)">
      <defs>
       <path id="DejaVuSans-70" d="M 1159 525 
L 1159 -1331 
L 581 -1331 
L 581 3500 
L 1159 3500 
L 1159 2969 
Q 1341 3281 1617 3432 
Q 1894 3584 2278 3584 
Q 2916 3584 3314 3078 
Q 3713 2572 3713 1747 
Q 3713 922 3314 415 
Q 2916 -91 2278 -91 
Q 1894 -91 1617 61 
Q 1341 213 1159 525 
z
M 3116 1747 
Q 3116 2381 2855 2742 
Q 2594 3103 2138 3103 
Q 1681 3103 1420 2742 
Q 1159 2381 1159 1747 
Q 1159 1113 1420 752 
Q 1681 391 2138 391 
Q 2594 391 2855 752 
Q 3116 1113 3116 1747 
z
" transform="scale(0.015625)"/>
       <path id="DejaVuSans-72" d="M 2631 2963 
Q 2534 3019 2420 3045 
Q 2306 3072 2169 3072 
Q 1681 3072 1420 2755 
Q 1159 2438 1159 1844 
L 1159 0 
L 581 0 
L 581 3500 
L 1159 3500 
L 1159 2956 
Q 1341 3275 1631 3429 
Q 1922 3584 2338 3584 
Q 2397 3584 2469 3576 
Q 2541 3569 2628 3553 
L 2631 2963 
z
" transform="scale(0.015625)"/>
       <path id="DejaVuSans-74" d="M 1172 4494 
L 1172 3500 
L 2356 3500 
L 2356 3053 
L 1172 3053 
L 1172 1153 
Q 1172 725 1289 603 
Q 1406 481 1766 481 
L 2356 481 
L 2356 0 
L 1766 0 
Q 1100 0 847 248 
Q 594 497 594 1153 
L 594 3053 
L 172 3053 
L 172 3500 
L 594 3500 
L 594 4494 
L 1172 4494 
z
" transform="scale(0.015625)"/>
       <path id="DejaVuSans-69" d="M 603 3500 
L 1178 3500 
L 1178 0 
L 603 0 
L 603 3500 
z
M 603 4863 
L 1178 4863 
L 1178 4134 
L 603 4134 
L 603 4863 
z
" transform="scale(0.015625)"/>
       <path id="DejaVuSans-6e" d="M 3513 2113 
L 3513 0 
L 2938 0 
L 2938 2094 
Q 2938 2591 2744 2837 
Q 2550 3084 2163 3084 
Q 1697 3084 1428 2787 
Q 1159 2491 1159 1978 
L 1159 0 
L 581 0 
L 581 3500 
L 1159 3500 
L 1159 2956 
Q 1366 3272 1645 3428 
Q 1925 3584 2291 3584 
Q 2894 3584 3203 3211 
Q 3513 2838 3513 2113 
z
" transform="scale(0.015625)"/>
      </defs>
      <use xlink:href="#DejaVuSans-70"/>
      <use xlink:href="#DejaVuSans-72" x="63.476562"/>
      <use xlink:href="#DejaVuSans-6f" x="102.339844"/>
      <use xlink:href="#DejaVuSans-70" x="163.521484"/>
      <use xlink:href="#DejaVuSans-6f" x="226.998047"/>
      <use xlink:href="#DejaVuSans-72" x="288.179688"/>
      <use xlink:href="#DejaVuSans-74" x="329.292969"/>
      <use xlink:href="#DejaVuSans-69" x="368.501953"/>
      <use xlink:href="#DejaVuSans-6f" x="396.285156"/>
      <use xlink:href="#DejaVuSans-6e" x="457.466797"/>
      <use xlink:href="#DejaVuSans-20" x="520.845703"/>
      <use xlink:href="#DejaVuSans-6f" x="552.632812"/>
      <use xlink:href="#DejaVuSans-66" x="613.814453"/>
      <use xlink:href="#DejaVuSans-20" x="649.019531"/>
      <use xlink:href="#DejaVuSans-74" x="680.806641"/>
      <use xlink:href="#DejaVuSans-72" x="720.015625"/>
      <use xlink:href="#DejaVuSans-69" x="761.128906"/>
      <use xlink:href="#DejaVuSans-61" x="788.912109"/>
      <use xlink:href="#DejaVuSans-6c" x="850.191406"/>
      <use xlink:href="#DejaVuSans-73" x="877.974609"/>
     </g>
    </g>
   </g>
   <g id="line2d_95">
    <path d="M 281.603402 293.76 
L 281.603402 288.969505 
L 282.751106 288.969505 
L 282.751106 284.17901 
L 283.25396 284.17901 
L 283.25396 279.388515 
L 287.301711 279.388515 
L 287.301711 274.59802 
L 287.301711 274.59802 
L 287.301711 269.807525 
L 305.042508 269.807525 
L 305.042508 265.01703 
L 311.297659 265.01703 
L 311.297659 260.226535 
L 312.138367 260.226535 
L 312.138367 255.43604 
L 317.25387 255.43604 
L 317.25387 250.645545 
L 318.012666 250.645545 
L 318.012666 245.85505 
L 319.031564 245.85505 
L 319.031564 241.064554 
L 324.427012 241.064554 
L 324.427012 236.274059 
L 325.369728 236.274059 
L 325.369728 231.483564 
L 325.880237 231.483564 
L 325.880237 226.693069 
L 330.0046 226.693069 
L 330.0046 221.902574 
L 330.337658 221.902574 
L 330.337658 217.112079 
L 331.678037 217.112079 
L 331.678037 212.321584 
L 333.435598 212.321584 
L 333.435598 207.531089 
L 333.645043 207.531089 
L 333.645043 202.740594 
L 337.852121 202.740594 
L 337.852121 197.950099 
L 339.078081 197.950099 
L 339.078081 193.159604 
L 339.66966 193.159604 
L 339.66966 188.369109 
L 340.301826 188.369109 
L 340.301826 183.578614 
L 345.890265 183.578614 
L 345.890265 178.788119 
L 371.822612 178.788119 
L 371.822612 173.997624 
L 399.409519 173.997624 
L 399.409519 169.207129 
L 399.634804 169.207129 
L 399.634804 164.416634 
L 400.04969 164.416634 
L 400.04969 159.626139 
L 400.52725 159.626139 
L 400.52725 154.835644 
L 401.81651 154.835644 
L 401.81651 150.045149 
L 401.992651 150.045149 
L 401.992651 145.254653 
L 402.944067 145.254653 
L 402.944067 140.464158 
L 403.390553 140.464158 
L 403.390553 135.673663 
L 403.429554 135.673663 
L 403.429554 130.883168 
L 403.577518 130.883168 
L 403.577518 126.092673 
L 404.480398 126.092673 
L 404.480398 121.302178 
L 404.679134 121.302178 
L 404.679134 116.511683 
L 404.884791 116.511683 
L 404.884791 111.721188 
L 405.135159 111.721188 
L 405.135159 106.930693 
L 405.384445 106.930693 
L 405.384445 102.140198 
L 405.407054 102.140198 
L 405.407054 97.349703 
L 405.422122 97.349703 
L 405.422122 92.559208 
L 405.542523 92.559208 
L 405.542523 87.768713 
L 405.87981 87.768713 
L 405.87981 82.978218 
L 406.385776 82.978218 
L 406.385776 78.187723 
L 410.017572 78.187723 
L 410.017572 73.397228 
L 410.495568 73.397228 
L 410.495568 68.606733 
L 410.619614 68.606733 
L 410.619614 63.816238 
L 410.63338 63.816238 
L 410.63338 59.025743 
L 415.923624 59.025743 
L 415.923624 54.235248 
L 417.092251 54.235248 
L 417.092251 49.444752 
L 420.212367 49.444752 
L 420.212367 44.654257 
L 420.98255 44.654257 
L 420.98255 39.863762 
L 422.492747 39.863762 
L 422.492747 35.073267 
L 422.492747 35.073267 
L 422.492747 35.073267 
L 460.8 35.073267 
" clip-path="url(#p378bfd6b21)" style="fill: none; stroke: #000000; stroke-width: 1.5; stroke-linecap: square"/>
   </g>
   <g id="line2d_96">
    <path clip-path="url(#p378bfd6b21)" style="fill: none; stroke: #000000; stroke-width: 1.5; stroke-linecap: square"/>
   </g>
   <g id="line2d_97">
    <path d="M 357.093475 293.76 
L 357.093475 288.969505 
L 359.26279 288.969505 
L 359.26279 284.17901 
L 361.256408 284.17901 
L 361.256408 279.388515 
L 361.64378 279.388515 
L 361.64378 274.59802 
L 363.167776 274.59802 
L 363.167776 269.807525 
L 365.154248 269.807525 
L 365.154248 265.01703 
L 365.681625 265.01703 
L 365.681625 260.226535 
L 366.174489 260.226535 
L 366.174489 255.43604 
L 367.497653 255.43604 
L 367.497653 250.645545 
L 370.623564 250.645545 
L 370.623564 245.85505 
L 371.103447 245.85505 
L 371.103447 241.064554 
L 371.997651 241.064554 
L 371.997651 236.274059 
L 372.346143 236.274059 
L 372.346143 231.483564 
L 373.862798 231.483564 
L 373.862798 226.693069 
L 377.3602 226.693069 
L 377.3602 221.902574 
L 434.363545 221.902574 
L 434.363545 217.112079 
L 439.755633 217.112079 
L 439.755633 212.321584 
L 449.020819 212.321584 
L 449.020819 207.531089 
L 449.324329 207.531089 
L 449.324329 202.740594 
L 449.584218 202.740594 
L 449.584218 197.950099 
L 449.930085 197.950099 
L 449.930085 193.159604 
L 449.954462 193.159604 
L 449.954462 188.369109 
L 450.069244 188.369109 
L 450.069244 183.578614 
L 450.135227 183.578614 
L 450.135227 178.788119 
L 450.235793 178.788119 
L 450.235793 173.997624 
L 450.246186 173.997624 
L 450.246186 169.207129 
L 450.838962 169.207129 
L 450.838962 164.416634 
L 451.047736 164.416634 
L 451.047736 159.626139 
L 451.153546 159.626139 
L 451.153546 154.835644 
L 451.520665 154.835644 
L 451.520665 150.045149 
L 452.013272 150.045149 
L 452.013272 145.254653 
L 452.207804 145.254653 
L 452.207804 140.464158 
L 452.304824 140.464158 
L 452.304824 135.673663 
L 452.304824 135.673663 
L 452.304824 130.883168 
L 453.331874 130.883168 
L 453.331874 126.092673 
L 454.205276 126.092673 
L 454.205276 121.302178 
L 454.806965 121.302178 
L 454.806965 116.511683 
L 455.116617 116.511683 
L 455.116617 111.721188 
L 455.592213 111.721188 
L 455.592213 106.930693 
L 456.609416 106.930693 
L 456.609416 102.140198 
L 458.158271 102.140198 
L 458.158271 97.349703 
L 458.278955 97.349703 
L 458.278955 92.559208 
L 460.094626 92.559208 
L 460.094626 87.768713 
L 460.19384 87.768713 
L 460.19384 82.978218 
L 460.19384 82.978218 
L 460.19384 82.978218 
L 460.8 82.978218 
" clip-path="url(#p378bfd6b21)" style="fill: none; stroke: #00bfbf; stroke-width: 1.5; stroke-linecap: square"/>
   </g>
   <g id="line2d_98">
    <path clip-path="url(#p378bfd6b21)" style="fill: none; stroke: #00bfbf; stroke-width: 1.5; stroke-linecap: square"/>
   </g>
   <g id="line2d_99">
    <path d="M 394.079384 293.76 
L 394.079384 288.969505 
L 395.007149 288.969505 
L 395.007149 284.17901 
L 395.608546 284.17901 
L 395.608546 279.388515 
L 397.063409 279.388515 
L 397.063409 274.59802 
L 398.312327 274.59802 
L 398.312327 269.807525 
L 398.77062 269.807525 
L 398.77062 265.01703 
L 399.233687 265.01703 
L 399.233687 260.226535 
L 399.884094 260.226535 
L 399.884094 255.43604 
L 400.52725 255.43604 
L 400.52725 250.645545 
L 402.959792 250.645545 
L 402.959792 245.85505 
L 404.181005 245.85505 
L 404.181005 241.064554 
L 404.449762 241.064554 
L 404.449762 236.274059 
L 406.600213 236.274059 
L 406.600213 231.483564 
L 408.730326 231.483564 
L 408.730326 226.693069 
L 409.416211 226.693069 
L 409.416211 221.902574 
L 443.010844 221.902574 
L 443.010844 217.112079 
L 447.442495 217.112079 
L 447.442495 212.321584 
L 455.25018 212.321584 
L 455.25018 207.531089 
L 455.938508 207.531089 
L 455.938508 202.740594 
L 456.628028 202.740594 
L 456.628028 197.950099 
L 456.649734 197.950099 
L 456.649734 193.159604 
L 456.924999 193.159604 
L 456.924999 188.369109 
L 456.924999 188.369109 
L 456.924999 183.578614 
L 457.444108 183.578614 
L 457.444108 178.788119 
L 457.444108 178.788119 
L 457.444108 173.997624 
L 457.630338 173.997624 
L 457.630338 169.207129 
L 457.746047 169.207129 
L 457.746047 164.416634 
L 457.797736 164.416634 
L 457.797736 159.626139 
L 457.797736 159.626139 
L 457.797736 154.835644 
L 457.858488 154.835644 
L 457.858488 150.045149 
L 458.789066 150.045149 
L 458.789066 145.254653 
L 458.806987 145.254653 
L 458.806987 140.464158 
L 458.887567 140.464158 
L 458.887567 135.673663 
L 459.61365 135.673663 
L 459.61365 130.883168 
L 459.681346 130.883168 
L 459.681346 126.092673 
L 459.681346 126.092673 
L 459.681346 126.092673 
L 460.8 126.092673 
" clip-path="url(#p378bfd6b21)" style="fill: none; stroke: #bf00bf; stroke-width: 1.5; stroke-linecap: square"/>
   </g>
   <g id="line2d_100">
    <path clip-path="url(#p378bfd6b21)" style="fill: none; stroke: #bf00bf; stroke-width: 1.5; stroke-linecap: square"/>
   </g>
   <g id="line2d_101">
    <path d="M 420.74622 293.76 
L 420.74622 288.969505 
L 424.122624 288.969505 
L 424.122624 284.17901 
L 425.196659 284.17901 
L 425.196659 279.388515 
L 426.214303 279.388515 
L 426.214303 274.59802 
L 427.769291 274.59802 
L 427.769291 269.807525 
L 427.881691 269.807525 
L 427.881691 265.01703 
L 428.253094 265.01703 
L 428.253094 260.226535 
L 428.475804 260.226535 
L 428.475804 255.43604 
L 428.692626 255.43604 
L 428.692626 250.645545 
L 430.432669 250.645545 
L 430.432669 245.85505 
L 430.535129 245.85505 
L 430.535129 241.064554 
L 431.449174 241.064554 
L 431.449174 236.274059 
L 431.941275 236.274059 
L 431.941275 231.483564 
L 436.845738 231.483564 
L 436.845738 226.693069 
L 438.1548 226.693069 
L 438.1548 221.902574 
L 448.605324 221.902574 
L 448.605324 217.112079 
L 452.97283 217.112079 
L 452.97283 212.321584 
L 460.36851 212.321584 
L 460.36851 207.531089 
L 460.513665 207.531089 
L 460.513665 202.740594 
L 460.513665 202.740594 
L 460.513665 202.740594 
L 460.8 202.740594 
" clip-path="url(#p378bfd6b21)" style="fill: none; stroke: #ff0000; stroke-width: 3; stroke-linecap: square"/>
   </g>
   <g id="line2d_102">
    <path clip-path="url(#p378bfd6b21)" style="fill: none; stroke: #ff0000; stroke-width: 3; stroke-linecap: square"/>
   </g>
   <g id="line2d_103">
    <path d="M 460.8 293.76 
L 460.8 3.456 
" clip-path="url(#p378bfd6b21)" style="fill: none; stroke: #000000; stroke-width: 1.5; stroke-linecap: square"/>
   </g>
   <g id="patch_3">
    <path d="M 62.208 293.76 
L 62.208 3.456 
" style="fill: none; stroke: #000000; stroke-width: 0.8; stroke-linejoin: miter; stroke-linecap: square"/>
   </g>
   <g id="patch_4">
    <path d="M 460.8 293.76 
L 460.8 3.456 
" style="fill: none; stroke: #000000; stroke-width: 0.8; stroke-linejoin: miter; stroke-linecap: square"/>
   </g>
   <g id="patch_5">
    <path d="M 62.208 293.76 
L 460.8 293.76 
" style="fill: none; stroke: #000000; stroke-width: 0.8; stroke-linejoin: miter; stroke-linecap: square"/>
   </g>
   <g id="patch_6">
    <path d="M 62.208 3.456 
L 460.8 3.456 
" style="fill: none; stroke: #000000; stroke-width: 0.8; stroke-linejoin: miter; stroke-linecap: square"/>
   </g>
   <g id="text_11">
    <!-- {f6-f9}, 20-D -->
    <g transform="translate(195.0165 24.458955) scale(0.2 -0.2)">
     <defs>
      <path id="DejaVuSans-7b" d="M 3272 -594 
L 3272 -1044 
L 3078 -1044 
Q 2300 -1044 2036 -812 
Q 1772 -581 1772 109 
L 1772 856 
Q 1772 1328 1603 1509 
Q 1434 1691 991 1691 
L 800 1691 
L 800 2138 
L 991 2138 
Q 1438 2138 1605 2317 
Q 1772 2497 1772 2963 
L 1772 3713 
Q 1772 4403 2036 4633 
Q 2300 4863 3078 4863 
L 3272 4863 
L 3272 4416 
L 3059 4416 
Q 2619 4416 2484 4278 
Q 2350 4141 2350 3700 
L 2350 2925 
Q 2350 2434 2208 2212 
Q 2066 1991 1722 1913 
Q 2069 1828 2209 1606 
Q 2350 1384 2350 897 
L 2350 122 
Q 2350 -319 2484 -456 
Q 2619 -594 3059 -594 
L 3272 -594 
z
" transform="scale(0.015625)"/>
      <path id="DejaVuSans-2d" d="M 313 2009 
L 1997 2009 
L 1997 1497 
L 313 1497 
L 313 2009 
z
" transform="scale(0.015625)"/>
      <path id="DejaVuSans-39" d="M 703 97 
L 703 672 
Q 941 559 1184 500 
Q 1428 441 1663 441 
Q 2288 441 2617 861 
Q 2947 1281 2994 2138 
Q 2813 1869 2534 1725 
Q 2256 1581 1919 1581 
Q 1219 1581 811 2004 
Q 403 2428 403 3163 
Q 403 3881 828 4315 
Q 1253 4750 1959 4750 
Q 2769 4750 3195 4129 
Q 3622 3509 3622 2328 
Q 3622 1225 3098 567 
Q 2575 -91 1691 -91 
Q 1453 -91 1209 -44 
Q 966 3 703 97 
z
M 1959 2075 
Q 2384 2075 2632 2365 
Q 2881 2656 2881 3163 
Q 2881 3666 2632 3958 
Q 2384 4250 1959 4250 
Q 1534 4250 1286 3958 
Q 1038 3666 1038 3163 
Q 1038 2656 1286 2365 
Q 1534 2075 1959 2075 
z
" transform="scale(0.015625)"/>
      <path id="DejaVuSans-7d" d="M 800 -594 
L 1019 -594 
Q 1456 -594 1589 -459 
Q 1722 -325 1722 122 
L 1722 897 
Q 1722 1384 1862 1606 
Q 2003 1828 2350 1913 
Q 2003 1991 1862 2212 
Q 1722 2434 1722 2925 
L 1722 3700 
Q 1722 4144 1589 4280 
Q 1456 4416 1019 4416 
L 800 4416 
L 800 4863 
L 997 4863 
Q 1775 4863 2036 4633 
Q 2297 4403 2297 3713 
L 2297 2963 
Q 2297 2497 2465 2317 
Q 2634 2138 3078 2138 
L 3272 2138 
L 3272 1691 
L 3078 1691 
Q 2634 1691 2465 1509 
Q 2297 1328 2297 856 
L 2297 109 
Q 2297 -581 2036 -812 
Q 1775 -1044 997 -1044 
L 800 -1044 
L 800 -594 
z
" transform="scale(0.015625)"/>
      <path id="DejaVuSans-2c" d="M 750 794 
L 1409 794 
L 1409 256 
L 897 -744 
L 494 -744 
L 750 256 
L 750 794 
z
" transform="scale(0.015625)"/>
     </defs>
     <use xlink:href="#DejaVuSans-7b"/>
     <use xlink:href="#DejaVuSans-66" x="63.623047"/>
     <use xlink:href="#DejaVuSans-36" x="98.828125"/>
     <use xlink:href="#DejaVuSans-2d" x="162.451172"/>
     <use xlink:href="#DejaVuSans-66" x="198.535156"/>
     <use xlink:href="#DejaVuSans-39" x="233.740234"/>
     <use xlink:href="#DejaVuSans-7d" x="297.363281"/>
     <use xlink:href="#DejaVuSans-2c" x="360.986328"/>
     <use xlink:href="#DejaVuSans-20" x="392.773438"/>
     <use xlink:href="#DejaVuSans-32" x="424.560547"/>
     <use xlink:href="#DejaVuSans-30" x="488.183594"/>
     <use xlink:href="#DejaVuSans-2d" x="551.806641"/>
     <use xlink:href="#DejaVuSans-44" x="587.890625"/>
    </g>
   </g>
   <g id="text_12">
    <!-- absolute targets -->
    <g transform="translate(62.208 609.932673) scale(0.14 -0.14)">
     <defs>
      <path id="DejaVuSans-62" d="M 3116 1747 
Q 3116 2381 2855 2742 
Q 2594 3103 2138 3103 
Q 1681 3103 1420 2742 
Q 1159 2381 1159 1747 
Q 1159 1113 1420 752 
Q 1681 391 2138 391 
Q 2594 391 2855 752 
Q 3116 1113 3116 1747 
z
M 1159 2969 
Q 1341 3281 1617 3432 
Q 1894 3584 2278 3584 
Q 2916 3584 3314 3078 
Q 3713 2572 3713 1747 
Q 3713 922 3314 415 
Q 2916 -91 2278 -91 
Q 1894 -91 1617 61 
Q 1341 213 1159 525 
L 1159 0 
L 581 0 
L 581 4863 
L 1159 4863 
L 1159 2969 
z
" transform="scale(0.015625)"/>
      <path id="DejaVuSans-75" d="M 544 1381 
L 544 3500 
L 1119 3500 
L 1119 1403 
Q 1119 906 1312 657 
Q 1506 409 1894 409 
Q 2359 409 2629 706 
Q 2900 1003 2900 1516 
L 2900 3500 
L 3475 3500 
L 3475 0 
L 2900 0 
L 2900 538 
Q 2691 219 2414 64 
Q 2138 -91 1772 -91 
Q 1169 -91 856 284 
Q 544 659 544 1381 
z
M 1991 3584 
L 1991 3584 
z
" transform="scale(0.015625)"/>
      <path id="DejaVuSans-65" d="M 3597 1894 
L 3597 1613 
L 953 1613 
Q 991 1019 1311 708 
Q 1631 397 2203 397 
Q 2534 397 2845 478 
Q 3156 559 3463 722 
L 3463 178 
Q 3153 47 2828 -22 
Q 2503 -91 2169 -91 
Q 1331 -91 842 396 
Q 353 884 353 1716 
Q 353 2575 817 3079 
Q 1281 3584 2069 3584 
Q 2775 3584 3186 3129 
Q 3597 2675 3597 1894 
z
M 3022 2063 
Q 3016 2534 2758 2815 
Q 2500 3097 2075 3097 
Q 1594 3097 1305 2825 
Q 1016 2553 972 2059 
L 3022 2063 
z
" transform="scale(0.015625)"/>
     </defs>
     <use xlink:href="#DejaVuSans-61"/>
     <use xlink:href="#DejaVuSans-62" x="61.279297"/>
     <use xlink:href="#DejaVuSans-73" x="124.755859"/>
     <use xlink:href="#DejaVuSans-6f" x="176.855469"/>
     <use xlink:href="#DejaVuSans-6c" x="238.037109"/>
     <use xlink:href="#DejaVuSans-75" x="265.820312"/>
     <use xlink:href="#DejaVuSans-74" x="329.199219"/>
     <use xlink:href="#DejaVuSans-65" x="368.408203"/>
     <use xlink:href="#DejaVuSans-20" x="429.931641"/>
     <use xlink:href="#DejaVuSans-74" x="461.71875"/>
     <use xlink:href="#DejaVuSans-61" x="500.927734"/>
     <use xlink:href="#DejaVuSans-72" x="562.207031"/>
     <use xlink:href="#DejaVuSans-67" x="601.570312"/>
     <use xlink:href="#DejaVuSans-65" x="665.046875"/>
     <use xlink:href="#DejaVuSans-74" x="726.570312"/>
     <use xlink:href="#DejaVuSans-73" x="765.779297"/>
    </g>
   </g>
   <g id="text_13">
    <!-- v2.6.3 -->
    <g style="fill: #808080" transform="translate(245.82275 288.777272) scale(0.1 -0.1)">
     <use xlink:href="#DejaVuSans-76"/>
     <use xlink:href="#DejaVuSans-32" x="59.179688"/>
     <use xlink:href="#DejaVuSans-2e" x="122.802734"/>
     <use xlink:href="#DejaVuSans-36" x="154.589844"/>
     <use xlink:href="#DejaVuSans-2e" x="218.212891"/>
     <use xlink:href="#DejaVuSans-33" x="250"/>
    </g>
   </g>
   <g id="legend_1">
    <g id="patch_7">
     <path d="M 76.208 136.881 
L 205.429875 136.881 
Q 209.429875 136.881 209.429875 132.881 
L 209.429875 17.456 
Q 209.429875 13.456 205.429875 13.456 
L 76.208 13.456 
Q 72.208 13.456 72.208 17.456 
L 72.208 132.881 
Q 72.208 136.881 76.208 136.881 
z
" style="fill: #ffffff; opacity: 0.2; stroke: #cccccc; stroke-linejoin: miter"/>
    </g>
    <g id="line2d_104">
     <path d="M 80.208 29.652875 
L 80.208 29.652875 
L 100.208 29.652875 
L 100.208 29.652875 
L 120.208 29.652875 
" style="fill: none; stroke: #000000; stroke-width: 1.5; stroke-linecap: square"/>
    </g>
    <g id="text_14">
     <!-- 1: 4/4 -->
     <g transform="translate(136.208 36.652875) scale(0.2 -0.2)">
      <defs>
       <path id="DejaVuSans-3a" d="M 750 794 
L 1409 794 
L 1409 0 
L 750 0 
L 750 794 
z
M 750 3309 
L 1409 3309 
L 1409 2516 
L 750 2516 
L 750 3309 
z
" transform="scale(0.015625)"/>
      </defs>
      <use xlink:href="#DejaVuSans-31"/>
      <use xlink:href="#DejaVuSans-3a" x="63.623047"/>
      <use xlink:href="#DejaVuSans-20" x="97.314453"/>
      <use xlink:href="#DejaVuSans-34" x="129.101562"/>
      <use xlink:href="#DejaVuSans-2f" x="192.724609"/>
      <use xlink:href="#DejaVuSans-34" x="226.416016"/>
     </g>
    </g>
    <g id="line2d_105">
     <path d="M 80.208 59.009125 
L 80.208 59.009125 
L 100.208 59.009125 
L 100.208 59.009125 
L 120.208 59.009125 
" style="fill: none; stroke: #00bfbf; stroke-width: 1.5; stroke-linecap: square"/>
    </g>
    <g id="text_15">
     <!-- -1: 3/4 -->
     <g transform="translate(136.208 66.009125) scale(0.2 -0.2)">
      <use xlink:href="#DejaVuSans-2d"/>
      <use xlink:href="#DejaVuSans-31" x="36.083984"/>
      <use xlink:href="#DejaVuSans-3a" x="99.707031"/>
      <use xlink:href="#DejaVuSans-20" x="133.398438"/>
      <use xlink:href="#DejaVuSans-33" x="165.185547"/>
      <use xlink:href="#DejaVuSans-2f" x="228.808594"/>
      <use xlink:href="#DejaVuSans-34" x="262.5"/>
     </g>
    </g>
    <g id="line2d_106">
     <path d="M 80.208 88.365375 
L 80.208 88.365375 
L 100.208 88.365375 
L 100.208 88.365375 
L 120.208 88.365375 
" style="fill: none; stroke: #bf00bf; stroke-width: 1.5; stroke-linecap: square"/>
    </g>
    <g id="text_16">
     <!-- -4: 3/4 -->
     <g transform="translate(136.208 95.365375) scale(0.2 -0.2)">
      <use xlink:href="#DejaVuSans-2d"/>
      <use xlink:href="#DejaVuSans-34" x="36.083984"/>
      <use xlink:href="#DejaVuSans-3a" x="99.707031"/>
      <use xlink:href="#DejaVuSans-20" x="133.398438"/>
      <use xlink:href="#DejaVuSans-33" x="165.185547"/>
      <use xlink:href="#DejaVuSans-2f" x="228.808594"/>
      <use xlink:href="#DejaVuSans-34" x="262.5"/>
     </g>
    </g>
    <g id="line2d_107">
     <path d="M 80.208 117.721625 
L 80.208 117.721625 
L 100.208 117.721625 
L 100.208 117.721625 
L 120.208 117.721625 
" style="fill: none; stroke: #ff0000; stroke-width: 3; stroke-linecap: square"/>
    </g>
    <g id="text_17">
     <!-- -8: 3/4 -->
     <g transform="translate(136.208 124.721625) scale(0.2 -0.2)">
      <use xlink:href="#DejaVuSans-2d"/>
      <use xlink:href="#DejaVuSans-38" x="36.083984"/>
      <use xlink:href="#DejaVuSans-3a" x="99.707031"/>
      <use xlink:href="#DejaVuSans-20" x="133.398438"/>
      <use xlink:href="#DejaVuSans-33" x="165.185547"/>
      <use xlink:href="#DejaVuSans-2f" x="228.808594"/>
      <use xlink:href="#DejaVuSans-34" x="262.5"/>
     </g>
    </g>
   </g>
  </g>
 </g>
 <defs>
  <clipPath id="p378bfd6b21">
   <rect x="62.208" y="3.456" width="398.592" height="290.304"/>
  </clipPath>
 </defs>
</svg>
