<?xml version="1.0" encoding="utf-8" standalone="no"?>
<!DOCTYPE svg PUBLIC "-//W3C//DTD SVG 1.1//EN"
  "http://www.w3.org/Graphics/SVG/1.1/DTD/svg11.dtd">
<svg xmlns:xlink="http://www.w3.org/1999/xlink" width="460.8pt" height="345.6pt" viewBox="0 0 460.8 345.6" xmlns="http://www.w3.org/2000/svg" version="1.1">
 <metadata>
  <rdf:RDF xmlns:dc="http://purl.org/dc/elements/1.1/" xmlns:cc="http://creativecommons.org/ns#" xmlns:rdf="http://www.w3.org/1999/02/22-rdf-syntax-ns#">
   <cc:Work>
    <dc:type rdf:resource="http://purl.org/dc/dcmitype/StillImage"/>
    <dc:date>2024-06-21T19:18:06.110014</dc:date>
    <dc:format>image/svg+xml</dc:format>
    <dc:creator>
     <cc:Agent>
      <dc:title>Matplotlib v3.7.5, https://matplotlib.org/</dc:title>
     </cc:Agent>
    </dc:creator>
   </cc:Work>
  </rdf:RDF>
 </metadata>
 <defs>
  <style type="text/css">*{stroke-linejoin: round; stroke-linecap: butt}</style>
 </defs>
 <g id="figure_1">
  <g id="patch_1">
   <path d="M 0 345.6 
L 460.8 345.6 
L 460.8 0 
L 0 0 
z
" style="fill: #ffffff"/>
  </g>
  <g id="axes_1">
   <g id="patch_2">
    <path d="M 0 293.76 
L 460.8 293.76 
L 460.8 3.456 
L 0 3.456 
z
" style="fill: #ffffff"/>
   </g>
   <g id="matplotlib.axis_1">
    <g id="xtick_1">
     <g id="line2d_1">
      <path d="M 101.493326 293.76 
L 101.493326 3.456 
" clip-path="url(#p6f987a68e2)" style="fill: none; stroke: #b0b0b0; stroke-width: 0.8; stroke-linecap: square"/>
     </g>
     <g id="line2d_2">
      <defs>
       <path id="m6b1f22d18e" d="M 0 0 
L 0 3.5 
" style="stroke: #000000; stroke-width: 0.8"/>
      </defs>
      <g>
       <use xlink:href="#m6b1f22d18e" x="101.493326" y="293.76" style="stroke: #000000; stroke-width: 0.8"/>
      </g>
     </g>
     <g id="text_1">
      <!-- -4 -->
      <g transform="translate(91.523013 315.956875) scale(0.2 -0.2)">
       <defs>
        <path id="DejaVuSans-2d" d="M 313 2009 
L 1997 2009 
L 1997 1497 
L 313 1497 
L 313 2009 
z
" transform="scale(0.015625)"/>
        <path id="DejaVuSans-34" d="M 2419 4116 
L 825 1625 
L 2419 1625 
L 2419 4116 
z
M 2253 4666 
L 3047 4666 
L 3047 1625 
L 3713 1625 
L 3713 1100 
L 3047 1100 
L 3047 0 
L 2419 0 
L 2419 1100 
L 313 1100 
L 313 1709 
L 2253 4666 
z
" transform="scale(0.015625)"/>
       </defs>
       <use xlink:href="#DejaVuSans-2d"/>
       <use xlink:href="#DejaVuSans-34" x="36.083984"/>
      </g>
     </g>
    </g>
    <g id="xtick_2">
     <g id="line2d_3">
      <path d="M 203.096418 293.76 
L 203.096418 3.456 
" clip-path="url(#p6f987a68e2)" style="fill: none; stroke: #b0b0b0; stroke-width: 0.8; stroke-linecap: square"/>
     </g>
     <g id="line2d_4">
      <g>
       <use xlink:href="#m6b1f22d18e" x="203.096418" y="293.76" style="stroke: #000000; stroke-width: 0.8"/>
      </g>
     </g>
     <g id="text_2">
      <!-- 0 -->
      <g transform="translate(196.733918 315.956875) scale(0.2 -0.2)">
       <defs>
        <path id="DejaVuSans-30" d="M 2034 4250 
Q 1547 4250 1301 3770 
Q 1056 3291 1056 2328 
Q 1056 1369 1301 889 
Q 1547 409 2034 409 
Q 2525 409 2770 889 
Q 3016 1369 3016 2328 
Q 3016 3291 2770 3770 
Q 2525 4250 2034 4250 
z
M 2034 4750 
Q 2819 4750 3233 4129 
Q 3647 3509 3647 2328 
Q 3647 1150 3233 529 
Q 2819 -91 2034 -91 
Q 1250 -91 836 529 
Q 422 1150 422 2328 
Q 422 3509 836 4129 
Q 1250 4750 2034 4750 
z
" transform="scale(0.015625)"/>
       </defs>
       <use xlink:href="#DejaVuSans-30"/>
      </g>
     </g>
    </g>
    <g id="xtick_3">
     <g id="line2d_5">
      <path d="M 304.699509 293.76 
L 304.699509 3.456 
" clip-path="url(#p6f987a68e2)" style="fill: none; stroke: #b0b0b0; stroke-width: 0.8; stroke-linecap: square"/>
     </g>
     <g id="line2d_6">
      <g>
       <use xlink:href="#m6b1f22d18e" x="304.699509" y="293.76" style="stroke: #000000; stroke-width: 0.8"/>
      </g>
     </g>
     <g id="text_3">
      <!-- 4 -->
      <g transform="translate(298.337009 315.956875) scale(0.2 -0.2)">
       <use xlink:href="#DejaVuSans-34"/>
      </g>
     </g>
    </g>
    <g id="xtick_4">
     <g id="line2d_7">
      <path d="M 406.302601 293.76 
L 406.302601 3.456 
" clip-path="url(#p6f987a68e2)" style="fill: none; stroke: #b0b0b0; stroke-width: 0.8; stroke-linecap: square"/>
     </g>
     <g id="line2d_8">
      <g>
       <use xlink:href="#m6b1f22d18e" x="406.302601" y="293.76" style="stroke: #000000; stroke-width: 0.8"/>
      </g>
     </g>
     <g id="text_4">
      <!-- 8 -->
      <g transform="translate(399.940101 315.956875) scale(0.2 -0.2)">
       <defs>
        <path id="DejaVuSans-38" d="M 2034 2216 
Q 1584 2216 1326 1975 
Q 1069 1734 1069 1313 
Q 1069 891 1326 650 
Q 1584 409 2034 409 
Q 2484 409 2743 651 
Q 3003 894 3003 1313 
Q 3003 1734 2745 1975 
Q 2488 2216 2034 2216 
z
M 1403 2484 
Q 997 2584 770 2862 
Q 544 3141 544 3541 
Q 544 4100 942 4425 
Q 1341 4750 2034 4750 
Q 2731 4750 3128 4425 
Q 3525 4100 3525 3541 
Q 3525 3141 3298 2862 
Q 3072 2584 2669 2484 
Q 3125 2378 3379 2068 
Q 3634 1759 3634 1313 
Q 3634 634 3220 271 
Q 2806 -91 2034 -91 
Q 1263 -91 848 271 
Q 434 634 434 1313 
Q 434 1759 690 2068 
Q 947 2378 1403 2484 
z
M 1172 3481 
Q 1172 3119 1398 2916 
Q 1625 2713 2034 2713 
Q 2441 2713 2670 2916 
Q 2900 3119 2900 3481 
Q 2900 3844 2670 4047 
Q 2441 4250 2034 4250 
Q 1625 4250 1398 4047 
Q 1172 3844 1172 3481 
z
" transform="scale(0.015625)"/>
       </defs>
       <use xlink:href="#DejaVuSans-38"/>
      </g>
     </g>
    </g>
    <g id="text_5">
     <!-- log10 of Df -->
     <g transform="translate(175.214063 339.313125) scale(0.2 -0.2)">
      <defs>
       <path id="DejaVuSans-6c" d="M 603 4863 
L 1178 4863 
L 1178 0 
L 603 0 
L 603 4863 
z
" transform="scale(0.015625)"/>
       <path id="DejaVuSans-6f" d="M 1959 3097 
Q 1497 3097 1228 2736 
Q 959 2375 959 1747 
Q 959 1119 1226 758 
Q 1494 397 1959 397 
Q 2419 397 2687 759 
Q 2956 1122 2956 1747 
Q 2956 2369 2687 2733 
Q 2419 3097 1959 3097 
z
M 1959 3584 
Q 2709 3584 3137 3096 
Q 3566 2609 3566 1747 
Q 3566 888 3137 398 
Q 2709 -91 1959 -91 
Q 1206 -91 779 398 
Q 353 888 353 1747 
Q 353 2609 779 3096 
Q 1206 3584 1959 3584 
z
" transform="scale(0.015625)"/>
       <path id="DejaVuSans-67" d="M 2906 1791 
Q 2906 2416 2648 2759 
Q 2391 3103 1925 3103 
Q 1463 3103 1205 2759 
Q 947 2416 947 1791 
Q 947 1169 1205 825 
Q 1463 481 1925 481 
Q 2391 481 2648 825 
Q 2906 1169 2906 1791 
z
M 3481 434 
Q 3481 -459 3084 -895 
Q 2688 -1331 1869 -1331 
Q 1566 -1331 1297 -1286 
Q 1028 -1241 775 -1147 
L 775 -588 
Q 1028 -725 1275 -790 
Q 1522 -856 1778 -856 
Q 2344 -856 2625 -561 
Q 2906 -266 2906 331 
L 2906 616 
Q 2728 306 2450 153 
Q 2172 0 1784 0 
Q 1141 0 747 490 
Q 353 981 353 1791 
Q 353 2603 747 3093 
Q 1141 3584 1784 3584 
Q 2172 3584 2450 3431 
Q 2728 3278 2906 2969 
L 2906 3500 
L 3481 3500 
L 3481 434 
z
" transform="scale(0.015625)"/>
       <path id="DejaVuSans-31" d="M 794 531 
L 1825 531 
L 1825 4091 
L 703 3866 
L 703 4441 
L 1819 4666 
L 2450 4666 
L 2450 531 
L 3481 531 
L 3481 0 
L 794 0 
L 794 531 
z
" transform="scale(0.015625)"/>
       <path id="DejaVuSans-20" transform="scale(0.015625)"/>
       <path id="DejaVuSans-66" d="M 2375 4863 
L 2375 4384 
L 1825 4384 
Q 1516 4384 1395 4259 
Q 1275 4134 1275 3809 
L 1275 3500 
L 2222 3500 
L 2222 3053 
L 1275 3053 
L 1275 0 
L 697 0 
L 697 3053 
L 147 3053 
L 147 3500 
L 697 3500 
L 697 3744 
Q 697 4328 969 4595 
Q 1241 4863 1831 4863 
L 2375 4863 
z
" transform="scale(0.015625)"/>
       <path id="DejaVuSans-44" d="M 1259 4147 
L 1259 519 
L 2022 519 
Q 2988 519 3436 956 
Q 3884 1394 3884 2338 
Q 3884 3275 3436 3711 
Q 2988 4147 2022 4147 
L 1259 4147 
z
M 628 4666 
L 1925 4666 
Q 3281 4666 3915 4102 
Q 4550 3538 4550 2338 
Q 4550 1131 3912 565 
Q 3275 0 1925 0 
L 628 0 
L 628 4666 
z
" transform="scale(0.015625)"/>
      </defs>
      <use xlink:href="#DejaVuSans-6c"/>
      <use xlink:href="#DejaVuSans-6f" x="27.783203"/>
      <use xlink:href="#DejaVuSans-67" x="88.964844"/>
      <use xlink:href="#DejaVuSans-31" x="152.441406"/>
      <use xlink:href="#DejaVuSans-30" x="216.064453"/>
      <use xlink:href="#DejaVuSans-20" x="279.6875"/>
      <use xlink:href="#DejaVuSans-6f" x="311.474609"/>
      <use xlink:href="#DejaVuSans-66" x="372.65625"/>
      <use xlink:href="#DejaVuSans-20" x="407.861328"/>
      <use xlink:href="#DejaVuSans-44" x="439.648438"/>
      <use xlink:href="#DejaVuSans-66" x="516.650391"/>
     </g>
    </g>
   </g>
   <g id="matplotlib.axis_2">
    <g id="ytick_1">
     <g id="line2d_9">
      <path d="M 0 293.76 
L 460.8 293.76 
" clip-path="url(#p6f987a68e2)" style="fill: none; stroke: #b0b0b0; stroke-width: 0.8; stroke-linecap: square"/>
     </g>
     <g id="line2d_10">
      <defs>
       <path id="m66b56076ee" d="M 0 0 
L -3.5 0 
" style="stroke: #000000; stroke-width: 0.8"/>
      </defs>
      <g>
       <use xlink:href="#m66b56076ee" x="0" y="293.76" style="stroke: #000000; stroke-width: 0.8"/>
      </g>
     </g>
    </g>
    <g id="ytick_2">
     <g id="line2d_11">
      <path d="M 0 236.274059 
L 460.8 236.274059 
" clip-path="url(#p6f987a68e2)" style="fill: none; stroke: #b0b0b0; stroke-width: 0.8; stroke-linecap: square"/>
     </g>
     <g id="line2d_12">
      <g>
       <use xlink:href="#m66b56076ee" x="0" y="236.274059" style="stroke: #000000; stroke-width: 0.8"/>
      </g>
     </g>
    </g>
    <g id="ytick_3">
     <g id="line2d_13">
      <path d="M 0 178.788119 
L 460.8 178.788119 
" clip-path="url(#p6f987a68e2)" style="fill: none; stroke: #b0b0b0; stroke-width: 0.8; stroke-linecap: square"/>
     </g>
     <g id="line2d_14">
      <g>
       <use xlink:href="#m66b56076ee" x="0" y="178.788119" style="stroke: #000000; stroke-width: 0.8"/>
      </g>
     </g>
    </g>
    <g id="ytick_4">
     <g id="line2d_15">
      <path d="M 0 121.302178 
L 460.8 121.302178 
" clip-path="url(#p6f987a68e2)" style="fill: none; stroke: #b0b0b0; stroke-width: 0.8; stroke-linecap: square"/>
     </g>
     <g id="line2d_16">
      <g>
       <use xlink:href="#m66b56076ee" x="0" y="121.302178" style="stroke: #000000; stroke-width: 0.8"/>
      </g>
     </g>
    </g>
    <g id="ytick_5">
     <g id="line2d_17">
      <path d="M 0 63.816238 
L 460.8 63.816238 
" clip-path="url(#p6f987a68e2)" style="fill: none; stroke: #b0b0b0; stroke-width: 0.8; stroke-linecap: square"/>
     </g>
     <g id="line2d_18">
      <g>
       <use xlink:href="#m66b56076ee" x="0" y="63.816238" style="stroke: #000000; stroke-width: 0.8"/>
      </g>
     </g>
    </g>
    <g id="ytick_6">
     <g id="line2d_19">
      <path d="M 0 6.330297 
L 460.8 6.330297 
" clip-path="url(#p6f987a68e2)" style="fill: none; stroke: #b0b0b0; stroke-width: 0.8; stroke-linecap: square"/>
     </g>
     <g id="line2d_20">
      <g>
       <use xlink:href="#m66b56076ee" x="0" y="6.330297" style="stroke: #000000; stroke-width: 0.8"/>
      </g>
     </g>
    </g>
   </g>
   <g id="line2d_21">
    <path d="M 39.497937 293.76 
L 39.497937 289.927604 
L 77.783931 289.927604 
L 77.783931 286.095208 
L 102.259854 286.095208 
L 102.259854 282.262812 
L 114.420916 282.262812 
L 114.420916 278.430416 
L 121.122106 278.430416 
L 121.122106 274.59802 
L 122.637198 274.59802 
L 122.728953 263.100832 
L 123.949588 263.100832 
L 123.949588 259.268436 
L 124.8352 259.268436 
L 124.8352 255.43604 
L 128.722054 255.43604 
L 128.722054 251.603644 
L 133.660489 251.603644 
L 133.660489 247.771248 
L 134.654666 247.771248 
L 134.654666 243.938851 
L 137.455905 243.938851 
L 137.455905 240.106455 
L 138.444489 240.106455 
L 138.444489 236.274059 
L 140.233711 236.274059 
L 140.233711 232.441663 
L 142.217022 232.441663 
L 142.217022 228.609267 
L 142.354812 228.609267 
L 142.439583 220.944475 
L 142.570587 220.944475 
L 142.570587 217.112079 
L 145.278169 217.112079 
L 145.278169 213.279683 
L 146.929445 213.279683 
L 147.023772 205.614891 
L 152.649766 205.614891 
L 152.649766 201.782495 
L 164.798338 201.782495 
L 164.798338 197.950099 
L 166.243059 197.950099 
L 166.243059 194.117703 
L 166.378882 194.117703 
L 166.378882 190.285307 
L 168.794016 190.285307 
L 168.794016 186.452911 
L 170.994407 186.452911 
L 170.994407 182.620515 
L 175.210895 182.620515 
L 175.210895 178.788119 
L 182.015259 178.788119 
L 182.015259 174.955723 
L 182.661318 174.955723 
L 182.661318 171.123327 
L 184.187085 171.123327 
L 184.187085 167.290931 
L 196.766331 167.290931 
L 196.766331 163.458535 
L 201.023917 163.458535 
L 201.023917 159.626139 
L 207.506502 159.626139 
L 207.506502 155.793743 
L 210.097314 155.793743 
L 210.097314 151.961347 
L 211.658265 151.961347 
L 211.658265 148.12895 
L 212.907079 148.12895 
L 212.907079 144.296554 
L 216.450317 144.296554 
L 216.450317 140.464158 
L 216.598662 140.464158 
L 216.598662 136.631762 
L 217.398003 136.631762 
L 217.398003 132.799366 
L 217.728173 132.799366 
L 217.728173 128.96697 
L 218.008734 128.96697 
L 218.008734 125.134574 
L 218.308438 125.134574 
L 218.333463 117.469782 
L 218.557151 117.469782 
L 218.557151 113.637386 
L 218.817468 113.637386 
L 218.911075 102.140198 
L 219.446567 102.140198 
L 219.446567 98.307802 
L 220.025146 98.307802 
L 220.025146 94.475406 
L 220.287322 94.475406 
L 220.330028 86.810614 
L 220.788595 86.810614 
L 220.832493 79.145822 
L 223.515873 79.145822 
L 223.515873 75.313426 
L 224.506812 75.313426 
L 224.506812 71.48103 
L 225.08153 71.48103 
L 225.08153 67.648634 
L 227.2792 67.648634 
L 227.2792 63.816238 
L 230.452701 63.816238 
L 230.452701 59.983842 
L 231.33569 59.983842 
L 231.33569 56.151446 
L 232.153202 56.151446 
L 232.153202 52.31905 
L 234.295015 52.31905 
L 234.295015 48.486653 
L 234.924716 48.486653 
L 234.924716 44.654257 
L 236.475228 44.654257 
L 236.475228 40.821861 
L 236.626052 40.821861 
L 236.626721 33.157069 
L 237.003183 33.157069 
L 237.003183 29.324673 
L 237.621401 29.324673 
L 237.629601 21.659881 
L 238.099091 21.659881 
L 238.099091 17.827485 
L 238.549416 17.827485 
L 238.549416 13.995089 
L 240.186698 13.995089 
L 240.186698 10.162693 
L 251.719889 10.162693 
L 251.719889 6.330297 
L 251.719889 6.330297 
L 460.8 6.330297 
L 460.8 6.330297 
" clip-path="url(#p6f987a68e2)" style="fill: none; stroke: #ff0000; stroke-width: 3; stroke-linecap: square"/>
   </g>
   <g id="line2d_22">
    <path d="M 235.66722 293.76 
L 235.66722 289.927604 
L 240.323104 289.927604 
L 240.338677 282.262812 
L 240.602319 282.262812 
L 240.602319 278.430416 
L 240.875522 278.430416 
L 240.875522 274.59802 
L 241.225024 274.59802 
L 241.225024 270.765624 
L 241.464045 270.765624 
L 241.464045 266.933228 
L 242.436672 266.933228 
L 242.436672 263.100832 
L 243.419336 263.100832 
L 243.452576 255.43604 
L 243.829194 255.43604 
L 243.898477 247.771248 
L 244.235926 247.771248 
L 244.235926 243.938851 
L 244.509838 243.938851 
L 244.583015 232.441663 
L 244.982628 232.441663 
L 245.005028 224.776871 
L 245.12274 224.776871 
L 245.12274 220.944475 
L 245.341531 220.944475 
L 245.341531 217.112079 
L 245.540643 217.112079 
L 245.636089 201.782495 
L 245.748292 201.782495 
L 245.829774 194.117703 
L 245.916433 194.117703 
L 245.916433 190.285307 
L 246.057606 190.285307 
L 246.057606 186.452911 
L 246.231049 186.452911 
L 246.231049 182.620515 
L 246.389667 182.620515 
L 246.389667 178.788119 
L 246.648709 178.788119 
L 246.649545 171.123327 
L 247.316908 171.123327 
L 247.34528 163.458535 
L 247.490008 163.458535 
L 247.490008 159.626139 
L 247.905766 159.626139 
L 247.905766 155.793743 
L 248.110211 155.793743 
L 248.20099 148.12895 
L 248.307472 148.12895 
L 248.307472 144.296554 
L 248.542733 144.296554 
L 248.542733 140.464158 
L 248.996981 140.464158 
L 248.996981 136.631762 
L 249.155152 136.631762 
L 249.210083 128.96697 
L 249.855585 128.96697 
L 249.855585 125.134574 
L 250.125287 125.134574 
L 250.125287 121.302178 
L 252.018311 121.302178 
L 252.018311 117.469782 
L 253.648406 117.469782 
L 253.648406 113.637386 
L 253.847947 113.637386 
L 253.847947 109.80499 
L 254.318499 109.80499 
L 254.318499 105.972594 
L 254.512781 105.972594 
L 254.512781 102.140198 
L 254.710218 102.140198 
L 254.710218 98.307802 
L 255.058815 98.307802 
L 255.058815 94.475406 
L 255.471932 94.475406 
L 255.534189 86.810614 
L 255.586952 86.810614 
L 255.586952 82.978218 
L 257.271315 82.978218 
L 257.271315 79.145822 
L 258.814426 79.145822 
L 258.814426 75.313426 
L 259.376609 75.313426 
L 259.376609 71.48103 
L 260.631671 71.48103 
L 260.631671 67.648634 
L 261.632339 67.648634 
L 261.632339 63.816238 
L 277.858116 63.816238 
L 277.858116 59.983842 
L 278.922091 59.983842 
L 278.954114 52.31905 
L 279.654103 52.31905 
L 279.757473 40.821861 
L 279.775419 40.821861 
L 279.775419 36.989465 
L 280.260186 36.989465 
L 280.260186 33.157069 
L 281.043832 33.157069 
L 281.043832 29.324673 
L 281.471264 29.324673 
L 281.471264 25.492277 
L 282.250084 25.492277 
L 282.250084 21.659881 
L 282.783668 21.659881 
L 282.796906 13.995089 
L 283.632079 13.995089 
L 283.632079 10.162693 
L 287.088264 10.162693 
L 287.088264 6.330297 
L 287.088264 6.330297 
L 460.8 6.330297 
L 460.8 6.330297 
" clip-path="url(#p6f987a68e2)" style="fill: none; stroke: #00bfbf; stroke-width: 1.5; stroke-linecap: square"/>
   </g>
   <g id="line2d_23">
    <path d="M 234.395617 293.76 
L 234.395617 289.927604 
L 235.66722 289.927604 
L 235.66722 286.095208 
L 236.443206 286.095208 
L 236.443206 282.262812 
L 236.576889 282.262812 
L 236.576889 278.430416 
L 236.861426 278.430416 
L 236.861426 274.59802 
L 237.570317 274.59802 
L 237.570317 270.765624 
L 237.695139 270.765624 
L 237.695139 266.933228 
L 237.859318 266.933228 
L 237.925479 259.268436 
L 238.109077 259.268436 
L 238.170932 251.603644 
L 238.420985 251.603644 
L 238.420985 247.771248 
L 239.021207 247.771248 
L 239.072023 232.441663 
L 239.197129 232.441663 
L 239.197129 228.609267 
L 239.345883 228.609267 
L 239.345883 224.776871 
L 239.525542 224.776871 
L 239.532768 217.112079 
L 239.995296 217.112079 
L 239.995296 213.279683 
L 240.338677 213.279683 
L 240.338677 209.447287 
L 240.498321 209.447287 
L 240.498321 205.614891 
L 240.875522 205.614891 
L 240.875522 201.782495 
L 241.417436 201.782495 
L 241.464045 194.117703 
L 243.419336 194.117703 
L 243.419336 190.285307 
L 243.74415 190.285307 
L 243.74415 186.452911 
L 243.882952 186.452911 
L 243.882952 182.620515 
L 244.03487 182.620515 
L 244.03487 178.788119 
L 244.423559 178.788119 
L 244.423559 174.955723 
L 244.543974 174.955723 
L 244.559721 167.290931 
L 244.68181 167.290931 
L 244.68181 163.458535 
L 245.246361 163.458535 
L 245.246361 159.626139 
L 245.590049 159.626139 
L 245.594996 151.961347 
L 245.897758 151.961347 
L 245.897758 148.12895 
L 246.019123 148.12895 
L 246.057606 140.464158 
L 246.275786 140.464158 
L 246.275786 136.631762 
L 246.697539 136.631762 
L 246.697539 132.799366 
L 246.937981 132.799366 
L 246.937981 128.96697 
L 247.120104 128.96697 
L 247.120104 125.134574 
L 248.996981 125.134574 
L 248.996981 121.302178 
L 249.210083 121.302178 
L 249.210083 117.469782 
L 249.880445 117.469782 
L 249.880445 113.637386 
L 250.554633 113.637386 
L 250.554633 109.80499 
L 251.329237 109.80499 
L 251.329237 105.972594 
L 251.585283 105.972594 
L 251.690981 98.307802 
L 251.979921 98.307802 
L 251.979921 94.475406 
L 253.45427 94.475406 
L 253.45427 90.64301 
L 253.648406 90.64301 
L 253.648406 86.810614 
L 254.318499 86.810614 
L 254.318499 82.978218 
L 255.471932 82.978218 
L 255.534189 75.313426 
L 259.376609 75.313426 
L 259.376609 71.48103 
L 260.443723 71.48103 
L 260.443723 67.648634 
L 260.631671 67.648634 
L 260.631671 63.816238 
L 275.510074 63.816238 
L 275.541568 56.151446 
L 276.446921 56.151446 
L 276.454923 48.486653 
L 276.611486 48.486653 
L 276.611486 44.654257 
L 277.580573 44.654257 
L 277.580573 40.821861 
L 278.013286 40.821861 
L 278.013286 36.989465 
L 278.268741 36.989465 
L 278.268741 33.157069 
L 278.954114 33.157069 
L 278.954114 29.324673 
L 279.421157 29.324673 
L 279.421157 25.492277 
L 280.39194 25.492277 
L 280.39194 21.659881 
L 281.043832 21.659881 
L 281.043832 17.827485 
L 281.325056 17.827485 
L 281.325056 13.995089 
L 282.238406 13.995089 
L 282.238406 10.162693 
L 284.002294 10.162693 
L 284.002294 6.330297 
L 284.002294 6.330297 
L 460.8 6.330297 
L 460.8 6.330297 
" clip-path="url(#p6f987a68e2)" style="fill: none; stroke: #bf00bf; stroke-width: 1.5; stroke-linecap: square"/>
   </g>
   <g id="line2d_24">
    <path d="M 233.474226 293.76 
L 233.509991 286.095208 
L 234.395617 286.095208 
L 234.395617 282.262812 
L 234.576675 282.262812 
L 234.576675 278.430416 
L 235.048884 278.430416 
L 235.048884 274.59802 
L 235.533679 274.59802 
L 235.533679 270.765624 
L 235.66722 270.765624 
L 235.66722 266.933228 
L 236.108255 266.933228 
L 236.108255 263.100832 
L 236.231051 263.100832 
L 236.231051 259.268436 
L 236.443206 259.268436 
L 236.461467 251.603644 
L 236.576889 251.603644 
L 236.611971 243.938851 
L 237.092325 243.938851 
L 237.092325 240.106455 
L 237.471828 240.106455 
L 237.471828 236.274059 
L 237.925479 236.274059 
L 237.925479 232.441663 
L 238.170932 232.441663 
L 238.170932 228.609267 
L 238.283373 228.609267 
L 238.290416 220.944475 
L 238.420985 220.944475 
L 238.420985 217.112079 
L 238.779609 217.112079 
L 238.779609 213.279683 
L 239.072023 213.279683 
L 239.113651 205.614891 
L 239.345883 205.614891 
L 239.345883 201.782495 
L 239.525542 201.782495 
L 239.554934 194.117703 
L 239.883287 194.117703 
L 239.883287 190.285307 
L 239.995296 190.285307 
L 239.995296 186.452911 
L 240.875522 186.452911 
L 240.875522 182.620515 
L 240.997454 182.620515 
L 240.997454 178.788119 
L 242.978254 178.788119 
L 243.061154 171.123327 
L 243.994841 171.123327 
L 243.994841 167.290931 
L 244.221478 167.290931 
L 244.221478 163.458535 
L 244.423559 163.458535 
L 244.423559 159.626139 
L 244.543974 159.626139 
L 244.559721 151.961347 
L 244.68181 151.961347 
L 244.68181 148.12895 
L 245.066455 148.12895 
L 245.108759 140.464158 
L 245.246361 140.464158 
L 245.246361 136.631762 
L 245.594996 136.631762 
L 245.594996 132.799366 
L 246.008373 132.799366 
L 246.057606 121.302178 
L 246.4902 121.302178 
L 246.4902 117.469782 
L 248.26588 117.469782 
L 248.26588 113.637386 
L 249.210083 113.637386 
L 249.210083 109.80499 
L 249.880445 109.80499 
L 249.905071 102.140198 
L 250.554633 102.140198 
L 250.554633 98.307802 
L 250.801394 98.307802 
L 250.801394 94.475406 
L 251.16719 94.475406 
L 251.16719 90.64301 
L 251.979921 90.64301 
L 251.979921 86.810614 
L 252.259109 86.810614 
L 252.259109 82.978218 
L 252.457556 82.978218 
L 252.457556 79.145822 
L 253.201579 79.145822 
L 253.201579 75.313426 
L 254.303867 75.313426 
L 254.318499 67.648634 
L 254.977978 67.648634 
L 254.977978 63.816238 
L 271.138742 63.816238 
L 271.138742 59.983842 
L 272.597136 59.983842 
L 272.597136 56.151446 
L 273.625727 56.151446 
L 273.625727 52.31905 
L 273.982714 52.31905 
L 273.982714 48.486653 
L 274.76559 48.486653 
L 274.779283 40.821861 
L 275.132176 40.821861 
L 275.132176 36.989465 
L 275.541568 36.989465 
L 275.541568 33.157069 
L 276.454923 33.157069 
L 276.454923 29.324673 
L 276.948266 29.324673 
L 276.948266 25.492277 
L 277.349341 25.492277 
L 277.378167 17.827485 
L 277.698989 17.827485 
L 277.698989 13.995089 
L 279.252282 13.995089 
L 279.252282 10.162693 
L 280.485328 10.162693 
L 280.485328 6.330297 
L 280.485328 6.330297 
L 460.8 6.330297 
L 460.8 6.330297 
" clip-path="url(#p6f987a68e2)" style="fill: none; stroke: #000000; stroke-width: 1.5; stroke-linecap: square"/>
   </g>
   <g id="line2d_25">
    <path d="M 223.056449 293.76 
L 223.056449 289.927604 
L 223.44887 289.927604 
L 223.44887 286.095208 
L 223.72388 286.095208 
L 223.821413 274.59802 
L 223.929045 274.59802 
L 223.929045 270.765624 
L 225.375906 270.765624 
L 225.375906 266.933228 
L 225.63598 266.933228 
L 225.63598 263.100832 
L 225.840927 263.100832 
L 225.840927 259.268436 
L 226.146813 259.268436 
L 226.146813 255.43604 
L 226.275859 255.43604 
L 226.275859 251.603644 
L 226.606805 251.603644 
L 226.683507 243.938851 
L 226.722612 243.938851 
L 226.7504 236.274059 
L 227.300629 236.274059 
L 227.393489 228.609267 
L 227.414358 228.609267 
L 227.414358 224.776871 
L 227.601555 224.776871 
L 227.6883 217.112079 
L 228.019062 217.112079 
L 228.019062 213.279683 
L 228.216656 213.279683 
L 228.308527 205.614891 
L 228.673428 205.614891 
L 228.673428 201.782495 
L 229.040153 201.782495 
L 229.040153 197.950099 
L 229.255831 197.950099 
L 229.255831 194.117703 
L 229.403597 194.117703 
L 229.425218 186.452911 
L 229.589785 186.452911 
L 229.589785 182.620515 
L 230.358758 182.620515 
L 230.358758 178.788119 
L 233.492855 178.788119 
L 233.492855 174.955723 
L 237.294421 174.955723 
L 237.294421 171.123327 
L 237.626039 171.123327 
L 237.724412 163.458535 
L 238.894773 163.458535 
L 238.968166 155.793743 
L 239.011918 155.793743 
L 239.011918 151.961347 
L 239.509997 151.961347 
L 239.509997 148.12895 
L 239.953353 148.12895 
L 239.953353 144.296554 
L 240.277388 144.296554 
L 240.277388 140.464158 
L 240.82271 140.464158 
L 240.875522 128.96697 
L 241.630485 128.96697 
L 241.69394 117.469782 
L 242.478348 117.469782 
L 242.478348 113.637386 
L 242.664274 113.637386 
L 242.76363 105.972594 
L 242.978254 105.972594 
L 242.978254 102.140198 
L 243.090703 102.140198 
L 243.090703 98.307802 
L 243.3657 98.307802 
L 243.3657 94.475406 
L 243.994841 94.475406 
L 243.994841 90.64301 
L 244.221478 90.64301 
L 244.310097 82.978218 
L 244.423559 82.978218 
L 244.43291 75.313426 
L 244.68181 75.313426 
L 244.68181 71.48103 
L 245.698804 71.48103 
L 245.698804 67.648634 
L 246.4902 67.648634 
L 246.4902 63.816238 
L 265.816323 63.816238 
L 265.816323 59.983842 
L 265.972613 59.983842 
L 265.972613 56.151446 
L 266.371071 56.151446 
L 266.398824 48.486653 
L 266.612572 48.486653 
L 266.612572 44.654257 
L 266.799372 44.654257 
L 266.799372 40.821861 
L 267.34772 40.821861 
L 267.34772 36.989465 
L 267.536205 36.989465 
L 267.537992 29.324673 
L 267.924643 29.324673 
L 267.924643 25.492277 
L 268.361287 25.492277 
L 268.361287 21.659881 
L 268.674841 21.659881 
L 268.674841 17.827485 
L 268.819259 17.827485 
L 268.819259 13.995089 
L 269.159842 13.995089 
L 269.159842 10.162693 
L 270.242542 10.162693 
L 270.242542 6.330297 
L 270.242542 6.330297 
L 460.8 6.330297 
L 460.8 6.330297 
" clip-path="url(#p6f987a68e2)" style="fill: none; stroke: #00bfbf; stroke-width: 1.5; stroke-linecap: square"/>
   </g>
   <g id="line2d_26">
    <path d="M 161.755898 293.76 
L 161.755898 289.927604 
L 164.670411 289.927604 
L 164.670411 286.095208 
L 166.93717 286.095208 
L 166.93717 282.262812 
L 168.442069 282.262812 
L 168.442069 278.430416 
L 171.310496 278.430416 
L 171.310496 274.59802 
L 172.581862 274.59802 
L 172.581862 270.765624 
L 173.398276 270.765624 
L 173.398276 266.933228 
L 174.377606 266.933228 
L 174.377606 263.100832 
L 180.454583 263.100832 
L 180.454583 259.268436 
L 180.915416 259.268436 
L 180.915416 255.43604 
L 183.389104 255.43604 
L 183.389104 251.603644 
L 186.680704 251.603644 
L 186.680704 247.771248 
L 188.163398 247.771248 
L 188.163398 243.938851 
L 188.672896 243.938851 
L 188.672896 240.106455 
L 189.303219 240.106455 
L 189.303219 236.274059 
L 192.326662 236.274059 
L 192.326662 232.441663 
L 192.622065 232.441663 
L 192.622065 228.609267 
L 192.944997 228.609267 
L 192.944997 224.776871 
L 194.609849 224.776871 
L 194.609849 220.944475 
L 194.854126 220.944475 
L 194.854126 217.112079 
L 194.986179 217.112079 
L 194.986179 213.279683 
L 198.689014 213.279683 
L 198.79857 205.614891 
L 198.812768 205.614891 
L 198.812768 201.782495 
L 199.313026 201.782495 
L 199.313026 197.950099 
L 200.151997 197.950099 
L 200.151997 194.117703 
L 200.887274 194.117703 
L 200.891608 186.452911 
L 202.674237 186.452911 
L 202.674237 182.620515 
L 210.84631 182.620515 
L 210.84631 178.788119 
L 220.576166 178.788119 
L 220.576166 174.955723 
L 221.102399 174.955723 
L 221.102399 171.123327 
L 221.290844 171.123327 
L 221.290844 167.290931 
L 221.501377 167.290931 
L 221.540851 159.626139 
L 221.701938 159.626139 
L 221.701938 155.793743 
L 222.010967 155.793743 
L 222.010967 151.961347 
L 222.198408 151.961347 
L 222.198408 148.12895 
L 222.468026 148.12895 
L 222.468026 144.296554 
L 222.661732 144.296554 
L 222.661732 140.464158 
L 222.906599 140.464158 
L 223.008322 132.799366 
L 223.171031 132.799366 
L 223.183036 125.134574 
L 223.884441 125.134574 
L 223.884441 121.302178 
L 232.786796 121.302178 
L 232.786796 117.469782 
L 236.964188 117.469782 
L 236.964188 113.637386 
L 238.329739 113.637386 
L 238.329739 109.80499 
L 238.894773 109.80499 
L 238.894773 105.972594 
L 239.657684 105.972594 
L 239.657684 102.140198 
L 239.808491 102.140198 
L 239.808491 98.307802 
L 240.354659 98.307802 
L 240.354659 94.475406 
L 240.56276 94.475406 
L 240.56276 90.64301 
L 241.067617 90.64301 
L 241.067617 86.810614 
L 241.37633 86.810614 
L 241.37633 82.978218 
L 241.518071 82.978218 
L 241.518071 79.145822 
L 241.685127 79.145822 
L 241.685127 75.313426 
L 242.226819 75.313426 
L 242.333374 67.648634 
L 242.610645 67.648634 
L 242.610645 63.816238 
L 243.909093 63.816238 
L 243.909093 59.983842 
L 252.31301 59.983842 
L 252.31301 56.151446 
L 255.41364 56.151446 
L 255.41364 52.31905 
L 256.371591 52.31905 
L 256.371591 48.486653 
L 256.610821 48.486653 
L 256.626873 40.821861 
L 256.763484 40.821861 
L 256.763484 36.989465 
L 257.17677 36.989465 
L 257.208764 29.324673 
L 257.862034 29.324673 
L 257.862034 25.492277 
L 258.019984 25.492277 
L 258.019984 21.659881 
L 258.255111 21.659881 
L 258.255111 17.827485 
L 258.868725 17.827485 
L 258.868725 13.995089 
L 259.007691 13.995089 
L 259.099951 6.330297 
L 259.099951 6.330297 
L 460.8 6.330297 
L 460.8 6.330297 
" clip-path="url(#p6f987a68e2)" style="fill: none; stroke: #bf00bf; stroke-width: 1.5; stroke-linecap: square"/>
   </g>
   <g id="line2d_27">
    <path d="M 39.497937 293.76 
L 39.497937 289.927604 
L 77.783931 289.927604 
L 77.783931 286.095208 
L 102.259854 286.095208 
L 102.259854 282.262812 
L 114.420916 282.262812 
L 114.420916 278.430416 
L 121.122106 278.430416 
L 121.122106 274.59802 
L 122.637198 274.59802 
L 122.728953 263.100832 
L 123.949588 263.100832 
L 123.949588 259.268436 
L 124.8352 259.268436 
L 124.8352 255.43604 
L 128.722054 255.43604 
L 128.722054 251.603644 
L 133.660489 251.603644 
L 133.660489 247.771248 
L 134.654666 247.771248 
L 134.654666 243.938851 
L 137.455905 243.938851 
L 137.455905 240.106455 
L 138.444489 240.106455 
L 138.444489 236.274059 
L 140.233711 236.274059 
L 140.233711 232.441663 
L 142.217022 232.441663 
L 142.217022 228.609267 
L 142.354812 228.609267 
L 142.439583 220.944475 
L 142.570587 220.944475 
L 142.570587 217.112079 
L 145.278169 217.112079 
L 145.278169 213.279683 
L 146.929445 213.279683 
L 147.023772 205.614891 
L 152.649766 205.614891 
L 152.649766 201.782495 
L 164.798338 201.782495 
L 164.798338 197.950099 
L 166.243059 197.950099 
L 166.243059 194.117703 
L 166.378882 194.117703 
L 166.378882 190.285307 
L 168.794016 190.285307 
L 168.794016 186.452911 
L 170.994407 186.452911 
L 170.994407 182.620515 
L 175.210895 182.620515 
L 175.210895 178.788119 
L 182.015259 178.788119 
L 182.015259 174.955723 
L 182.661318 174.955723 
L 182.661318 171.123327 
L 184.187085 171.123327 
L 184.187085 167.290931 
L 196.766331 167.290931 
L 196.766331 163.458535 
L 201.023917 163.458535 
L 201.023917 159.626139 
L 207.506502 159.626139 
L 207.506502 155.793743 
L 210.097314 155.793743 
L 210.097314 151.961347 
L 211.658265 151.961347 
L 211.658265 148.12895 
L 212.907079 148.12895 
L 212.907079 144.296554 
L 216.450317 144.296554 
L 216.450317 140.464158 
L 216.598662 140.464158 
L 216.598662 136.631762 
L 217.398003 136.631762 
L 217.398003 132.799366 
L 217.728173 132.799366 
L 217.728173 128.96697 
L 218.008734 128.96697 
L 218.008734 125.134574 
L 218.308438 125.134574 
L 218.333463 117.469782 
L 218.557151 117.469782 
L 218.557151 113.637386 
L 218.817468 113.637386 
L 218.911075 102.140198 
L 219.446567 102.140198 
L 219.446567 98.307802 
L 220.025146 98.307802 
L 220.025146 94.475406 
L 220.287322 94.475406 
L 220.330028 86.810614 
L 220.788595 86.810614 
L 220.832493 79.145822 
L 223.515873 79.145822 
L 223.515873 75.313426 
L 224.506812 75.313426 
L 224.506812 71.48103 
L 225.08153 71.48103 
L 225.08153 67.648634 
L 227.2792 67.648634 
L 227.2792 63.816238 
L 230.452701 63.816238 
L 230.452701 59.983842 
L 231.33569 59.983842 
L 231.33569 56.151446 
L 232.153202 56.151446 
L 232.153202 52.31905 
L 234.295015 52.31905 
L 234.295015 48.486653 
L 234.924716 48.486653 
L 234.924716 44.654257 
L 236.475228 44.654257 
L 236.475228 40.821861 
L 236.626052 40.821861 
L 236.626721 33.157069 
L 237.003183 33.157069 
L 237.003183 29.324673 
L 237.621401 29.324673 
L 237.629601 21.659881 
L 238.099091 21.659881 
L 238.099091 17.827485 
L 238.549416 17.827485 
L 238.549416 13.995089 
L 240.186698 13.995089 
L 240.186698 10.162693 
L 251.719889 10.162693 
L 251.719889 6.330297 
L 251.719889 6.330297 
L 460.8 6.330297 
L 460.8 6.330297 
" clip-path="url(#p6f987a68e2)" style="fill: none; stroke: #000000; stroke-width: 1.5; stroke-linecap: square"/>
   </g>
   <g id="patch_3">
    <path d="M 0 293.76 
L 0 3.456 
" style="fill: none; stroke: #000000; stroke-width: 0.8; stroke-linejoin: miter; stroke-linecap: square"/>
   </g>
   <g id="patch_4">
    <path d="M 460.8 293.76 
L 460.8 3.456 
" style="fill: none; stroke: #000000; stroke-width: 0.8; stroke-linejoin: miter; stroke-linecap: square"/>
   </g>
   <g id="patch_5">
    <path d="M 0 293.76 
L 460.8 293.76 
" style="fill: none; stroke: #000000; stroke-width: 0.8; stroke-linejoin: miter; stroke-linecap: square"/>
   </g>
   <g id="patch_6">
    <path d="M 0 3.456 
L 460.8 3.456 
" style="fill: none; stroke: #000000; stroke-width: 0.8; stroke-linejoin: miter; stroke-linecap: square"/>
   </g>
   <g id="text_6">
    <!-- {f15-f19}, 20-D -->
    <g transform="translate(293.159 287.95392) scale(0.2 -0.2)">
     <defs>
      <path id="DejaVuSans-7b" d="M 3272 -594 
L 3272 -1044 
L 3078 -1044 
Q 2300 -1044 2036 -812 
Q 1772 -581 1772 109 
L 1772 856 
Q 1772 1328 1603 1509 
Q 1434 1691 991 1691 
L 800 1691 
L 800 2138 
L 991 2138 
Q 1438 2138 1605 2317 
Q 1772 2497 1772 2963 
L 1772 3713 
Q 1772 4403 2036 4633 
Q 2300 4863 3078 4863 
L 3272 4863 
L 3272 4416 
L 3059 4416 
Q 2619 4416 2484 4278 
Q 2350 4141 2350 3700 
L 2350 2925 
Q 2350 2434 2208 2212 
Q 2066 1991 1722 1913 
Q 2069 1828 2209 1606 
Q 2350 1384 2350 897 
L 2350 122 
Q 2350 -319 2484 -456 
Q 2619 -594 3059 -594 
L 3272 -594 
z
" transform="scale(0.015625)"/>
      <path id="DejaVuSans-35" d="M 691 4666 
L 3169 4666 
L 3169 4134 
L 1269 4134 
L 1269 2991 
Q 1406 3038 1543 3061 
Q 1681 3084 1819 3084 
Q 2600 3084 3056 2656 
Q 3513 2228 3513 1497 
Q 3513 744 3044 326 
Q 2575 -91 1722 -91 
Q 1428 -91 1123 -41 
Q 819 9 494 109 
L 494 744 
Q 775 591 1075 516 
Q 1375 441 1709 441 
Q 2250 441 2565 725 
Q 2881 1009 2881 1497 
Q 2881 1984 2565 2268 
Q 2250 2553 1709 2553 
Q 1456 2553 1204 2497 
Q 953 2441 691 2322 
L 691 4666 
z
" transform="scale(0.015625)"/>
      <path id="DejaVuSans-39" d="M 703 97 
L 703 672 
Q 941 559 1184 500 
Q 1428 441 1663 441 
Q 2288 441 2617 861 
Q 2947 1281 2994 2138 
Q 2813 1869 2534 1725 
Q 2256 1581 1919 1581 
Q 1219 1581 811 2004 
Q 403 2428 403 3163 
Q 403 3881 828 4315 
Q 1253 4750 1959 4750 
Q 2769 4750 3195 4129 
Q 3622 3509 3622 2328 
Q 3622 1225 3098 567 
Q 2575 -91 1691 -91 
Q 1453 -91 1209 -44 
Q 966 3 703 97 
z
M 1959 2075 
Q 2384 2075 2632 2365 
Q 2881 2656 2881 3163 
Q 2881 3666 2632 3958 
Q 2384 4250 1959 4250 
Q 1534 4250 1286 3958 
Q 1038 3666 1038 3163 
Q 1038 2656 1286 2365 
Q 1534 2075 1959 2075 
z
" transform="scale(0.015625)"/>
      <path id="DejaVuSans-7d" d="M 800 -594 
L 1019 -594 
Q 1456 -594 1589 -459 
Q 1722 -325 1722 122 
L 1722 897 
Q 1722 1384 1862 1606 
Q 2003 1828 2350 1913 
Q 2003 1991 1862 2212 
Q 1722 2434 1722 2925 
L 1722 3700 
Q 1722 4144 1589 4280 
Q 1456 4416 1019 4416 
L 800 4416 
L 800 4863 
L 997 4863 
Q 1775 4863 2036 4633 
Q 2297 4403 2297 3713 
L 2297 2963 
Q 2297 2497 2465 2317 
Q 2634 2138 3078 2138 
L 3272 2138 
L 3272 1691 
L 3078 1691 
Q 2634 1691 2465 1509 
Q 2297 1328 2297 856 
L 2297 109 
Q 2297 -581 2036 -812 
Q 1775 -1044 997 -1044 
L 800 -1044 
L 800 -594 
z
" transform="scale(0.015625)"/>
      <path id="DejaVuSans-2c" d="M 750 794 
L 1409 794 
L 1409 256 
L 897 -744 
L 494 -744 
L 750 256 
L 750 794 
z
" transform="scale(0.015625)"/>
      <path id="DejaVuSans-32" d="M 1228 531 
L 3431 531 
L 3431 0 
L 469 0 
L 469 531 
Q 828 903 1448 1529 
Q 2069 2156 2228 2338 
Q 2531 2678 2651 2914 
Q 2772 3150 2772 3378 
Q 2772 3750 2511 3984 
Q 2250 4219 1831 4219 
Q 1534 4219 1204 4116 
Q 875 4013 500 3803 
L 500 4441 
Q 881 4594 1212 4672 
Q 1544 4750 1819 4750 
Q 2544 4750 2975 4387 
Q 3406 4025 3406 3419 
Q 3406 3131 3298 2873 
Q 3191 2616 2906 2266 
Q 2828 2175 2409 1742 
Q 1991 1309 1228 531 
z
" transform="scale(0.015625)"/>
     </defs>
     <use xlink:href="#DejaVuSans-7b"/>
     <use xlink:href="#DejaVuSans-66" x="63.623047"/>
     <use xlink:href="#DejaVuSans-31" x="98.828125"/>
     <use xlink:href="#DejaVuSans-35" x="162.451172"/>
     <use xlink:href="#DejaVuSans-2d" x="226.074219"/>
     <use xlink:href="#DejaVuSans-66" x="262.158203"/>
     <use xlink:href="#DejaVuSans-31" x="297.363281"/>
     <use xlink:href="#DejaVuSans-39" x="360.986328"/>
     <use xlink:href="#DejaVuSans-7d" x="424.609375"/>
     <use xlink:href="#DejaVuSans-2c" x="488.232422"/>
     <use xlink:href="#DejaVuSans-20" x="520.019531"/>
     <use xlink:href="#DejaVuSans-32" x="551.806641"/>
     <use xlink:href="#DejaVuSans-30" x="615.429688"/>
     <use xlink:href="#DejaVuSans-2d" x="679.052734"/>
     <use xlink:href="#DejaVuSans-44" x="715.136719"/>
    </g>
   </g>
   <g id="text_7">
    <!-- v2.6.3 -->
    <g style="fill: #808080" transform="translate(214.71875 288.777272) scale(0.1 -0.1)">
     <defs>
      <path id="DejaVuSans-76" d="M 191 3500 
L 800 3500 
L 1894 563 
L 2988 3500 
L 3597 3500 
L 2284 0 
L 1503 0 
L 191 3500 
z
" transform="scale(0.015625)"/>
      <path id="DejaVuSans-2e" d="M 684 794 
L 1344 794 
L 1344 0 
L 684 0 
L 684 794 
z
" transform="scale(0.015625)"/>
      <path id="DejaVuSans-36" d="M 2113 2584 
Q 1688 2584 1439 2293 
Q 1191 2003 1191 1497 
Q 1191 994 1439 701 
Q 1688 409 2113 409 
Q 2538 409 2786 701 
Q 3034 994 3034 1497 
Q 3034 2003 2786 2293 
Q 2538 2584 2113 2584 
z
M 3366 4563 
L 3366 3988 
Q 3128 4100 2886 4159 
Q 2644 4219 2406 4219 
Q 1781 4219 1451 3797 
Q 1122 3375 1075 2522 
Q 1259 2794 1537 2939 
Q 1816 3084 2150 3084 
Q 2853 3084 3261 2657 
Q 3669 2231 3669 1497 
Q 3669 778 3244 343 
Q 2819 -91 2113 -91 
Q 1303 -91 875 529 
Q 447 1150 447 2328 
Q 447 3434 972 4092 
Q 1497 4750 2381 4750 
Q 2619 4750 2861 4703 
Q 3103 4656 3366 4563 
z
" transform="scale(0.015625)"/>
      <path id="DejaVuSans-33" d="M 2597 2516 
Q 3050 2419 3304 2112 
Q 3559 1806 3559 1356 
Q 3559 666 3084 287 
Q 2609 -91 1734 -91 
Q 1441 -91 1130 -33 
Q 819 25 488 141 
L 488 750 
Q 750 597 1062 519 
Q 1375 441 1716 441 
Q 2309 441 2620 675 
Q 2931 909 2931 1356 
Q 2931 1769 2642 2001 
Q 2353 2234 1838 2234 
L 1294 2234 
L 1294 2753 
L 1863 2753 
Q 2328 2753 2575 2939 
Q 2822 3125 2822 3475 
Q 2822 3834 2567 4026 
Q 2313 4219 1838 4219 
Q 1578 4219 1281 4162 
Q 984 4106 628 3988 
L 628 4550 
Q 988 4650 1302 4700 
Q 1616 4750 1894 4750 
Q 2613 4750 3031 4423 
Q 3450 4097 3450 3541 
Q 3450 3153 3228 2886 
Q 3006 2619 2597 2516 
z
" transform="scale(0.015625)"/>
     </defs>
     <use xlink:href="#DejaVuSans-76"/>
     <use xlink:href="#DejaVuSans-32" x="59.179688"/>
     <use xlink:href="#DejaVuSans-2e" x="122.802734"/>
     <use xlink:href="#DejaVuSans-36" x="154.589844"/>
     <use xlink:href="#DejaVuSans-2e" x="218.212891"/>
     <use xlink:href="#DejaVuSans-33" x="250"/>
    </g>
   </g>
  </g>
 </g>
 <defs>
  <clipPath id="p6f987a68e2">
   <rect x="0" y="3.456" width="460.8" height="290.304"/>
  </clipPath>
 </defs>
</svg>
