<?xml version="1.0" encoding="utf-8" standalone="no"?>
<!DOCTYPE svg PUBLIC "-//W3C//DTD SVG 1.1//EN"
  "http://www.w3.org/Graphics/SVG/1.1/DTD/svg11.dtd">
<svg xmlns:xlink="http://www.w3.org/1999/xlink" width="460.8pt" height="345.6pt" viewBox="0 0 460.8 345.6" xmlns="http://www.w3.org/2000/svg" version="1.1">
 <metadata>
  <rdf:RDF xmlns:dc="http://purl.org/dc/elements/1.1/" xmlns:cc="http://creativecommons.org/ns#" xmlns:rdf="http://www.w3.org/1999/02/22-rdf-syntax-ns#">
   <cc:Work>
    <dc:type rdf:resource="http://purl.org/dc/dcmitype/StillImage"/>
    <dc:date>2024-06-21T19:18:03.742888</dc:date>
    <dc:format>image/svg+xml</dc:format>
    <dc:creator>
     <cc:Agent>
      <dc:title>Matplotlib v3.7.5, https://matplotlib.org/</dc:title>
     </cc:Agent>
    </dc:creator>
   </cc:Work>
  </rdf:RDF>
 </metadata>
 <defs>
  <style type="text/css">*{stroke-linejoin: round; stroke-linecap: butt}</style>
 </defs>
 <g id="figure_1">
  <g id="patch_1">
   <path d="M 0 345.6 
L 460.8 345.6 
L 460.8 0 
L 0 0 
z
" style="fill: #ffffff"/>
  </g>
  <g id="axes_1">
   <g id="patch_2">
    <path d="M 0 293.76 
L 460.8 293.76 
L 460.8 3.456 
L 0 3.456 
z
" style="fill: #ffffff"/>
   </g>
   <g id="matplotlib.axis_1">
    <g id="xtick_1">
     <g id="line2d_1">
      <path d="M 93.278783 293.76 
L 93.278783 3.456 
" clip-path="url(#p61e2bd6d77)" style="fill: none; stroke: #b0b0b0; stroke-width: 0.8; stroke-linecap: square"/>
     </g>
     <g id="line2d_2">
      <defs>
       <path id="mb0a07e6d2c" d="M 0 0 
L 0 3.5 
" style="stroke: #000000; stroke-width: 0.8"/>
      </defs>
      <g>
       <use xlink:href="#mb0a07e6d2c" x="93.278783" y="293.76" style="stroke: #000000; stroke-width: 0.8"/>
      </g>
     </g>
     <g id="text_1">
      <!-- -4 -->
      <g transform="translate(83.308471 315.956875) scale(0.2 -0.2)">
       <defs>
        <path id="DejaVuSans-2d" d="M 313 2009 
L 1997 2009 
L 1997 1497 
L 313 1497 
L 313 2009 
z
" transform="scale(0.015625)"/>
        <path id="DejaVuSans-34" d="M 2419 4116 
L 825 1625 
L 2419 1625 
L 2419 4116 
z
M 2253 4666 
L 3047 4666 
L 3047 1625 
L 3713 1625 
L 3713 1100 
L 3047 1100 
L 3047 0 
L 2419 0 
L 2419 1100 
L 313 1100 
L 313 1709 
L 2253 4666 
z
" transform="scale(0.015625)"/>
       </defs>
       <use xlink:href="#DejaVuSans-2d"/>
       <use xlink:href="#DejaVuSans-34" x="36.083984"/>
      </g>
     </g>
    </g>
    <g id="xtick_2">
     <g id="line2d_3">
      <path d="M 186.658449 293.76 
L 186.658449 3.456 
" clip-path="url(#p61e2bd6d77)" style="fill: none; stroke: #b0b0b0; stroke-width: 0.8; stroke-linecap: square"/>
     </g>
     <g id="line2d_4">
      <g>
       <use xlink:href="#mb0a07e6d2c" x="186.658449" y="293.76" style="stroke: #000000; stroke-width: 0.8"/>
      </g>
     </g>
     <g id="text_2">
      <!-- 0 -->
      <g transform="translate(180.295949 315.956875) scale(0.2 -0.2)">
       <defs>
        <path id="DejaVuSans-30" d="M 2034 4250 
Q 1547 4250 1301 3770 
Q 1056 3291 1056 2328 
Q 1056 1369 1301 889 
Q 1547 409 2034 409 
Q 2525 409 2770 889 
Q 3016 1369 3016 2328 
Q 3016 3291 2770 3770 
Q 2525 4250 2034 4250 
z
M 2034 4750 
Q 2819 4750 3233 4129 
Q 3647 3509 3647 2328 
Q 3647 1150 3233 529 
Q 2819 -91 2034 -91 
Q 1250 -91 836 529 
Q 422 1150 422 2328 
Q 422 3509 836 4129 
Q 1250 4750 2034 4750 
z
" transform="scale(0.015625)"/>
       </defs>
       <use xlink:href="#DejaVuSans-30"/>
      </g>
     </g>
    </g>
    <g id="xtick_3">
     <g id="line2d_5">
      <path d="M 280.038114 293.76 
L 280.038114 3.456 
" clip-path="url(#p61e2bd6d77)" style="fill: none; stroke: #b0b0b0; stroke-width: 0.8; stroke-linecap: square"/>
     </g>
     <g id="line2d_6">
      <g>
       <use xlink:href="#mb0a07e6d2c" x="280.038114" y="293.76" style="stroke: #000000; stroke-width: 0.8"/>
      </g>
     </g>
     <g id="text_3">
      <!-- 4 -->
      <g transform="translate(273.675614 315.956875) scale(0.2 -0.2)">
       <use xlink:href="#DejaVuSans-34"/>
      </g>
     </g>
    </g>
    <g id="xtick_4">
     <g id="line2d_7">
      <path d="M 373.417779 293.76 
L 373.417779 3.456 
" clip-path="url(#p61e2bd6d77)" style="fill: none; stroke: #b0b0b0; stroke-width: 0.8; stroke-linecap: square"/>
     </g>
     <g id="line2d_8">
      <g>
       <use xlink:href="#mb0a07e6d2c" x="373.417779" y="293.76" style="stroke: #000000; stroke-width: 0.8"/>
      </g>
     </g>
     <g id="text_4">
      <!-- 8 -->
      <g transform="translate(367.055279 315.956875) scale(0.2 -0.2)">
       <defs>
        <path id="DejaVuSans-38" d="M 2034 2216 
Q 1584 2216 1326 1975 
Q 1069 1734 1069 1313 
Q 1069 891 1326 650 
Q 1584 409 2034 409 
Q 2484 409 2743 651 
Q 3003 894 3003 1313 
Q 3003 1734 2745 1975 
Q 2488 2216 2034 2216 
z
M 1403 2484 
Q 997 2584 770 2862 
Q 544 3141 544 3541 
Q 544 4100 942 4425 
Q 1341 4750 2034 4750 
Q 2731 4750 3128 4425 
Q 3525 4100 3525 3541 
Q 3525 3141 3298 2862 
Q 3072 2584 2669 2484 
Q 3125 2378 3379 2068 
Q 3634 1759 3634 1313 
Q 3634 634 3220 271 
Q 2806 -91 2034 -91 
Q 1263 -91 848 271 
Q 434 634 434 1313 
Q 434 1759 690 2068 
Q 947 2378 1403 2484 
z
M 1172 3481 
Q 1172 3119 1398 2916 
Q 1625 2713 2034 2713 
Q 2441 2713 2670 2916 
Q 2900 3119 2900 3481 
Q 2900 3844 2670 4047 
Q 2441 4250 2034 4250 
Q 1625 4250 1398 4047 
Q 1172 3844 1172 3481 
z
" transform="scale(0.015625)"/>
       </defs>
       <use xlink:href="#DejaVuSans-38"/>
      </g>
     </g>
    </g>
    <g id="text_5">
     <!-- log10 of Df -->
     <g transform="translate(175.214063 339.313125) scale(0.2 -0.2)">
      <defs>
       <path id="DejaVuSans-6c" d="M 603 4863 
L 1178 4863 
L 1178 0 
L 603 0 
L 603 4863 
z
" transform="scale(0.015625)"/>
       <path id="DejaVuSans-6f" d="M 1959 3097 
Q 1497 3097 1228 2736 
Q 959 2375 959 1747 
Q 959 1119 1226 758 
Q 1494 397 1959 397 
Q 2419 397 2687 759 
Q 2956 1122 2956 1747 
Q 2956 2369 2687 2733 
Q 2419 3097 1959 3097 
z
M 1959 3584 
Q 2709 3584 3137 3096 
Q 3566 2609 3566 1747 
Q 3566 888 3137 398 
Q 2709 -91 1959 -91 
Q 1206 -91 779 398 
Q 353 888 353 1747 
Q 353 2609 779 3096 
Q 1206 3584 1959 3584 
z
" transform="scale(0.015625)"/>
       <path id="DejaVuSans-67" d="M 2906 1791 
Q 2906 2416 2648 2759 
Q 2391 3103 1925 3103 
Q 1463 3103 1205 2759 
Q 947 2416 947 1791 
Q 947 1169 1205 825 
Q 1463 481 1925 481 
Q 2391 481 2648 825 
Q 2906 1169 2906 1791 
z
M 3481 434 
Q 3481 -459 3084 -895 
Q 2688 -1331 1869 -1331 
Q 1566 -1331 1297 -1286 
Q 1028 -1241 775 -1147 
L 775 -588 
Q 1028 -725 1275 -790 
Q 1522 -856 1778 -856 
Q 2344 -856 2625 -561 
Q 2906 -266 2906 331 
L 2906 616 
Q 2728 306 2450 153 
Q 2172 0 1784 0 
Q 1141 0 747 490 
Q 353 981 353 1791 
Q 353 2603 747 3093 
Q 1141 3584 1784 3584 
Q 2172 3584 2450 3431 
Q 2728 3278 2906 2969 
L 2906 3500 
L 3481 3500 
L 3481 434 
z
" transform="scale(0.015625)"/>
       <path id="DejaVuSans-31" d="M 794 531 
L 1825 531 
L 1825 4091 
L 703 3866 
L 703 4441 
L 1819 4666 
L 2450 4666 
L 2450 531 
L 3481 531 
L 3481 0 
L 794 0 
L 794 531 
z
" transform="scale(0.015625)"/>
       <path id="DejaVuSans-20" transform="scale(0.015625)"/>
       <path id="DejaVuSans-66" d="M 2375 4863 
L 2375 4384 
L 1825 4384 
Q 1516 4384 1395 4259 
Q 1275 4134 1275 3809 
L 1275 3500 
L 2222 3500 
L 2222 3053 
L 1275 3053 
L 1275 0 
L 697 0 
L 697 3053 
L 147 3053 
L 147 3500 
L 697 3500 
L 697 3744 
Q 697 4328 969 4595 
Q 1241 4863 1831 4863 
L 2375 4863 
z
" transform="scale(0.015625)"/>
       <path id="DejaVuSans-44" d="M 1259 4147 
L 1259 519 
L 2022 519 
Q 2988 519 3436 956 
Q 3884 1394 3884 2338 
Q 3884 3275 3436 3711 
Q 2988 4147 2022 4147 
L 1259 4147 
z
M 628 4666 
L 1925 4666 
Q 3281 4666 3915 4102 
Q 4550 3538 4550 2338 
Q 4550 1131 3912 565 
Q 3275 0 1925 0 
L 628 0 
L 628 4666 
z
" transform="scale(0.015625)"/>
      </defs>
      <use xlink:href="#DejaVuSans-6c"/>
      <use xlink:href="#DejaVuSans-6f" x="27.783203"/>
      <use xlink:href="#DejaVuSans-67" x="88.964844"/>
      <use xlink:href="#DejaVuSans-31" x="152.441406"/>
      <use xlink:href="#DejaVuSans-30" x="216.064453"/>
      <use xlink:href="#DejaVuSans-20" x="279.6875"/>
      <use xlink:href="#DejaVuSans-6f" x="311.474609"/>
      <use xlink:href="#DejaVuSans-66" x="372.65625"/>
      <use xlink:href="#DejaVuSans-20" x="407.861328"/>
      <use xlink:href="#DejaVuSans-44" x="439.648438"/>
      <use xlink:href="#DejaVuSans-66" x="516.650391"/>
     </g>
    </g>
   </g>
   <g id="matplotlib.axis_2">
    <g id="ytick_1">
     <g id="line2d_9">
      <path d="M 0 293.76 
L 460.8 293.76 
" clip-path="url(#p61e2bd6d77)" style="fill: none; stroke: #b0b0b0; stroke-width: 0.8; stroke-linecap: square"/>
     </g>
     <g id="line2d_10">
      <defs>
       <path id="mbca2b9e4c9" d="M 0 0 
L -3.5 0 
" style="stroke: #000000; stroke-width: 0.8"/>
      </defs>
      <g>
       <use xlink:href="#mbca2b9e4c9" x="0" y="293.76" style="stroke: #000000; stroke-width: 0.8"/>
      </g>
     </g>
    </g>
    <g id="ytick_2">
     <g id="line2d_11">
      <path d="M 0 236.274059 
L 460.8 236.274059 
" clip-path="url(#p61e2bd6d77)" style="fill: none; stroke: #b0b0b0; stroke-width: 0.8; stroke-linecap: square"/>
     </g>
     <g id="line2d_12">
      <g>
       <use xlink:href="#mbca2b9e4c9" x="0" y="236.274059" style="stroke: #000000; stroke-width: 0.8"/>
      </g>
     </g>
    </g>
    <g id="ytick_3">
     <g id="line2d_13">
      <path d="M 0 178.788119 
L 460.8 178.788119 
" clip-path="url(#p61e2bd6d77)" style="fill: none; stroke: #b0b0b0; stroke-width: 0.8; stroke-linecap: square"/>
     </g>
     <g id="line2d_14">
      <g>
       <use xlink:href="#mbca2b9e4c9" x="0" y="178.788119" style="stroke: #000000; stroke-width: 0.8"/>
      </g>
     </g>
    </g>
    <g id="ytick_4">
     <g id="line2d_15">
      <path d="M 0 121.302178 
L 460.8 121.302178 
" clip-path="url(#p61e2bd6d77)" style="fill: none; stroke: #b0b0b0; stroke-width: 0.8; stroke-linecap: square"/>
     </g>
     <g id="line2d_16">
      <g>
       <use xlink:href="#mbca2b9e4c9" x="0" y="121.302178" style="stroke: #000000; stroke-width: 0.8"/>
      </g>
     </g>
    </g>
    <g id="ytick_5">
     <g id="line2d_17">
      <path d="M 0 63.816238 
L 460.8 63.816238 
" clip-path="url(#p61e2bd6d77)" style="fill: none; stroke: #b0b0b0; stroke-width: 0.8; stroke-linecap: square"/>
     </g>
     <g id="line2d_18">
      <g>
       <use xlink:href="#mbca2b9e4c9" x="0" y="63.816238" style="stroke: #000000; stroke-width: 0.8"/>
      </g>
     </g>
    </g>
    <g id="ytick_6">
     <g id="line2d_19">
      <path d="M 0 6.330297 
L 460.8 6.330297 
" clip-path="url(#p61e2bd6d77)" style="fill: none; stroke: #b0b0b0; stroke-width: 0.8; stroke-linecap: square"/>
     </g>
     <g id="line2d_20">
      <g>
       <use xlink:href="#mbca2b9e4c9" x="0" y="6.330297" style="stroke: #000000; stroke-width: 0.8"/>
      </g>
     </g>
    </g>
   </g>
   <g id="line2d_21">
    <path d="M -1 109.80499 
L -0.100882 109.80499 
L -0.100882 52.31905 
L 9.735011 52.31905 
L 9.735011 48.486653 
L 16.985614 48.486653 
L 16.985614 44.654257 
L 59.408894 44.654257 
L 59.408894 40.821861 
L 64.698731 40.821861 
L 64.698731 36.989465 
L 75.552992 36.989465 
L 75.552992 33.157069 
L 76.616615 33.157069 
L 76.616615 29.324673 
L 99.544049 29.324673 
L 99.544049 25.492277 
L 105.824683 25.492277 
L 105.824683 21.659881 
L 162.927905 21.659881 
L 162.927905 17.827485 
L 185.473113 17.827485 
L 185.473113 13.995089 
L 187.420838 13.995089 
L 187.420838 10.162693 
L 188.188832 10.162693 
L 188.188832 6.330297 
L 188.188832 6.330297 
L 460.8 6.330297 
L 460.8 6.330297 
" clip-path="url(#p61e2bd6d77)" style="fill: none; stroke: #ff0000; stroke-width: 3; stroke-linecap: square"/>
   </g>
   <g id="line2d_22">
    <path d="M 200.535432 293.76 
L 200.535432 289.927604 
L 210.678714 289.927604 
L 210.678714 286.095208 
L 211.227216 286.095208 
L 211.227216 282.262812 
L 215.60251 282.262812 
L 215.60251 278.430416 
L 215.880114 278.430416 
L 215.880114 274.59802 
L 220.961454 274.59802 
L 220.961454 270.765624 
L 221.510053 270.765624 
L 221.510053 266.933228 
L 222.804979 266.933228 
L 222.804979 263.100832 
L 224.406047 263.100832 
L 224.406047 259.268436 
L 227.508878 259.268436 
L 227.508878 255.43604 
L 229.529023 255.43604 
L 229.529023 251.603644 
L 229.981935 251.603644 
L 229.981935 247.771248 
L 231.276804 247.771248 
L 231.276804 243.938851 
L 234.042816 243.938851 
L 234.042816 240.106455 
L 240.993245 240.106455 
L 240.993245 236.274059 
L 251.387662 236.274059 
L 251.387662 232.441663 
L 252.707445 232.441663 
L 252.707445 228.609267 
L 253.222767 228.609267 
L 253.222767 224.776871 
L 254.304187 224.776871 
L 254.304187 220.944475 
L 256.376428 220.944475 
L 256.455376 213.279683 
L 257.307758 213.279683 
L 257.355164 205.614891 
L 259.05581 205.614891 
L 259.05581 201.782495 
L 259.744751 201.782495 
L 259.744751 197.950099 
L 261.02782 197.950099 
L 261.02782 194.117703 
L 261.315893 194.117703 
L 261.315893 190.285307 
L 262.199761 190.285307 
L 262.199761 186.452911 
L 262.825198 186.452911 
L 262.825198 182.620515 
L 263.054873 182.620515 
L 263.054873 178.788119 
L 284.502172 178.788119 
L 284.520338 171.123327 
L 293.26837 171.123327 
L 293.26837 167.290931 
L 301.706927 167.290931 
L 301.706927 163.458535 
L 303.73018 163.458535 
L 303.73018 159.626139 
L 304.518102 159.626139 
L 304.518102 155.793743 
L 304.90977 155.793743 
L 304.90977 151.961347 
L 319.404808 151.961347 
L 319.404808 148.12895 
L 319.86818 148.12895 
L 319.86818 144.296554 
L 320.622631 144.296554 
L 320.622631 140.464158 
L 327.305974 140.464158 
L 327.305974 136.631762 
L 332.22839 136.631762 
L 332.22839 132.799366 
L 332.478729 132.799366 
L 332.478729 128.96697 
L 333.324985 128.96697 
L 333.324985 125.134574 
L 335.858651 125.134574 
L 335.858651 121.302178 
L 337.293149 121.302178 
L 337.293149 117.469782 
L 337.734877 117.469782 
L 337.734877 113.637386 
L 340.927724 113.637386 
L 340.927724 109.80499 
L 343.988378 109.80499 
L 343.988378 105.972594 
L 345.301045 105.972594 
L 345.301045 102.140198 
L 348.244053 102.140198 
L 348.317334 94.475406 
L 348.6546 94.475406 
L 348.6546 90.64301 
L 348.937147 90.64301 
L 348.937147 86.810614 
L 349.598415 86.810614 
L 349.678016 79.145822 
L 352.056297 79.145822 
L 352.056297 75.313426 
L 353.018527 75.313426 
L 353.018527 71.48103 
L 354.24294 71.48103 
L 354.24294 67.648634 
L 355.290504 67.648634 
L 355.290504 63.816238 
L 355.44291 63.816238 
L 355.44291 59.983842 
L 356.846449 59.983842 
L 356.846449 56.151446 
L 361.738217 56.151446 
L 361.738217 52.31905 
L 364.997221 52.31905 
L 364.997221 48.486653 
L 366.407239 48.486653 
L 366.407239 44.654257 
L 366.904984 44.654257 
L 366.904984 40.821861 
L 371.513962 40.821861 
L 371.513962 36.989465 
L 373.336406 36.989465 
L 373.336406 33.157069 
L 373.525157 33.157069 
L 373.564735 25.492277 
L 373.956155 25.492277 
L 373.956155 21.659881 
L 382.869656 21.659881 
L 382.869656 17.827485 
L 385.954196 17.827485 
L 385.954196 13.995089 
L 400.058385 13.995089 
L 400.058385 10.162693 
L 431.348094 10.162693 
L 431.348094 6.330297 
L 431.348094 6.330297 
L 460.8 6.330297 
L 460.8 6.330297 
" clip-path="url(#p61e2bd6d77)" style="fill: none; stroke: #00bfbf; stroke-width: 1.5; stroke-linecap: square"/>
   </g>
   <g id="line2d_23">
    <path d="M 200.535432 293.76 
L 200.535432 289.927604 
L 210.164907 289.927604 
L 210.164907 286.095208 
L 210.678714 286.095208 
L 210.678714 282.262812 
L 211.227216 282.262812 
L 211.227216 278.430416 
L 214.362118 278.430416 
L 214.362118 274.59802 
L 215.462098 274.59802 
L 215.462098 270.765624 
L 215.880114 270.765624 
L 215.880114 266.933228 
L 217.839026 266.933228 
L 217.839026 263.100832 
L 219.224934 263.100832 
L 219.224934 259.268436 
L 220.961454 259.268436 
L 220.961454 255.43604 
L 221.558204 255.43604 
L 221.558204 251.603644 
L 221.883561 251.603644 
L 221.883561 247.771248 
L 223.358132 247.771248 
L 223.448309 240.106455 
L 229.981935 240.106455 
L 229.981935 236.274059 
L 251.387662 236.274059 
L 251.387662 232.441663 
L 251.627066 232.441663 
L 251.627066 228.609267 
L 251.852996 228.609267 
L 251.852996 224.776871 
L 252.707445 224.776871 
L 252.707445 220.944475 
L 253.222767 220.944475 
L 253.222767 217.112079 
L 254.304187 217.112079 
L 254.383068 209.447287 
L 254.57728 209.447287 
L 254.57728 205.614891 
L 256.376428 205.614891 
L 256.455376 194.117703 
L 256.584831 194.117703 
L 256.584831 190.285307 
L 260.106944 190.285307 
L 260.106944 186.452911 
L 260.80937 186.452911 
L 260.80937 182.620515 
L 261.266065 182.620515 
L 261.266065 178.788119 
L 284.502172 178.788119 
L 284.520338 171.123327 
L 293.26837 171.123327 
L 293.26837 167.290931 
L 294.328943 167.290931 
L 294.391299 159.626139 
L 294.724745 159.626139 
L 294.724745 155.793743 
L 295.220442 155.793743 
L 295.220442 151.961347 
L 300.690246 151.961347 
L 300.690246 148.12895 
L 301.706927 148.12895 
L 301.706927 144.296554 
L 304.518102 144.296554 
L 304.518102 140.464158 
L 304.90977 140.464158 
L 304.90977 136.631762 
L 309.292284 136.631762 
L 309.292284 132.799366 
L 309.677775 132.799366 
L 309.677775 128.96697 
L 311.391657 128.96697 
L 311.391657 125.134574 
L 312.073331 125.134574 
L 312.073331 121.302178 
L 314.023453 121.302178 
L 314.023453 117.469782 
L 318.277773 117.469782 
L 318.277773 113.637386 
L 319.404808 113.637386 
L 319.404808 109.80499 
L 320.856977 109.80499 
L 320.856977 105.972594 
L 321.553781 105.972594 
L 321.553781 102.140198 
L 326.832484 102.140198 
L 326.832484 98.307802 
L 327.305974 98.307802 
L 327.305974 94.475406 
L 330.414871 94.475406 
L 330.414871 90.64301 
L 331.34771 90.64301 
L 331.34771 86.810614 
L 332.478729 86.810614 
L 332.478729 82.978218 
L 334.20101 82.978218 
L 334.20101 79.145822 
L 335.238239 79.145822 
L 335.238239 75.313426 
L 338.686671 75.313426 
L 338.686671 71.48103 
L 343.988378 71.48103 
L 343.988378 67.648634 
L 345.301045 67.648634 
L 345.301045 63.816238 
L 348.6546 63.816238 
L 348.6546 59.983842 
L 348.860523 59.983842 
L 348.860523 56.151446 
L 349.049774 56.151446 
L 349.049774 52.31905 
L 349.573846 52.31905 
L 349.573846 48.486653 
L 355.44291 48.486653 
L 355.44291 44.654257 
L 356.831077 44.654257 
L 356.846449 36.989465 
L 358.298788 36.989465 
L 358.318712 29.324673 
L 358.556574 29.324673 
L 358.556574 25.492277 
L 359.740581 25.492277 
L 359.740581 21.659881 
L 366.904984 21.659881 
L 366.904984 17.827485 
L 369.208914 17.827485 
L 369.208914 13.995089 
L 369.938119 13.995089 
L 369.938119 10.162693 
L 373.564735 10.162693 
L 373.564735 6.330297 
L 373.564735 6.330297 
L 460.8 6.330297 
L 460.8 6.330297 
" clip-path="url(#p61e2bd6d77)" style="fill: none; stroke: #bf00bf; stroke-width: 1.5; stroke-linecap: square"/>
   </g>
   <g id="line2d_24">
    <path d="M 200.535432 293.76 
L 200.535432 289.927604 
L 204.747736 289.927604 
L 204.747736 286.095208 
L 206.121378 286.095208 
L 206.121378 282.262812 
L 207.404331 282.262812 
L 207.404331 278.430416 
L 207.561414 278.430416 
L 207.657272 270.765624 
L 208.148567 270.765624 
L 208.148567 266.933228 
L 209.153294 266.933228 
L 209.153294 263.100832 
L 210.678714 263.100832 
L 210.678714 259.268436 
L 211.124868 259.268436 
L 211.124868 255.43604 
L 211.25361 255.43604 
L 211.25361 251.603644 
L 214.362118 251.603644 
L 214.362118 247.771248 
L 214.852613 247.771248 
L 214.852613 243.938851 
L 217.728505 243.938851 
L 217.728505 240.106455 
L 221.883561 240.106455 
L 221.883561 236.274059 
L 237.008843 236.274059 
L 237.008843 232.441663 
L 248.658439 232.441663 
L 248.658439 228.609267 
L 250.034199 228.609267 
L 250.034199 224.776871 
L 251.251932 224.776871 
L 251.251932 220.944475 
L 251.387662 220.944475 
L 251.387662 217.112079 
L 251.627066 217.112079 
L 251.67891 209.447287 
L 252.049252 209.447287 
L 252.049252 205.614891 
L 252.268456 205.614891 
L 252.268456 201.782495 
L 252.707445 201.782495 
L 252.707445 197.950099 
L 253.222767 197.950099 
L 253.222767 194.117703 
L 253.82655 194.117703 
L 253.82655 190.285307 
L 254.383068 190.285307 
L 254.383068 186.452911 
L 256.338293 186.452911 
L 256.385421 178.788119 
L 258.848233 178.788119 
L 258.848233 174.955723 
L 262.763618 174.955723 
L 262.763618 171.123327 
L 274.871389 171.123327 
L 274.871389 167.290931 
L 281.295142 167.290931 
L 281.295142 163.458535 
L 283.088727 163.458535 
L 283.088727 159.626139 
L 284.502172 159.626139 
L 284.520338 151.961347 
L 285.878843 151.961347 
L 285.901158 144.296554 
L 293.26837 144.296554 
L 293.26837 140.464158 
L 294.328943 140.464158 
L 294.328943 136.631762 
L 303.03354 136.631762 
L 303.03354 132.799366 
L 304.518102 132.799366 
L 304.518102 128.96697 
L 304.90977 128.96697 
L 304.90977 125.134574 
L 305.60996 125.134574 
L 305.60996 121.302178 
L 309.292284 121.302178 
L 309.292284 117.469782 
L 309.677775 117.469782 
L 309.677775 113.637386 
L 310.900396 113.637386 
L 310.900396 109.80499 
L 311.106198 109.80499 
L 311.106198 105.972594 
L 311.391657 105.972594 
L 311.391657 102.140198 
L 314.023453 102.140198 
L 314.023453 98.307802 
L 316.768577 98.307802 
L 316.768577 94.475406 
L 317.930535 94.475406 
L 317.930535 90.64301 
L 318.056439 90.64301 
L 318.056439 86.810614 
L 327.305974 86.810614 
L 327.305974 82.978218 
L 327.580959 82.978218 
L 327.580959 79.145822 
L 332.478729 79.145822 
L 332.57437 71.48103 
L 335.238239 71.48103 
L 335.238239 67.648634 
L 336.019747 67.648634 
L 336.019747 63.816238 
L 339.331431 63.816238 
L 339.331431 59.983842 
L 343.174859 59.983842 
L 343.174859 56.151446 
L 347.095565 56.151446 
L 347.095565 52.31905 
L 348.6546 52.31905 
L 348.6546 48.486653 
L 348.860523 48.486653 
L 348.860523 44.654257 
L 349.049774 44.654257 
L 349.049774 40.821861 
L 354.540256 40.821861 
L 354.540256 36.989465 
L 355.44291 36.989465 
L 355.44291 33.157069 
L 356.831077 33.157069 
L 356.831077 29.324673 
L 358.298788 29.324673 
L 358.318712 21.659881 
L 358.556574 21.659881 
L 358.556574 17.827485 
L 359.763306 17.827485 
L 359.763306 13.995089 
L 363.476651 13.995089 
L 363.476651 10.162693 
L 366.939948 10.162693 
L 366.939948 6.330297 
L 366.939948 6.330297 
L 460.8 6.330297 
L 460.8 6.330297 
" clip-path="url(#p61e2bd6d77)" style="fill: none; stroke: #000000; stroke-width: 1.5; stroke-linecap: square"/>
   </g>
   <g id="line2d_25">
    <path d="M 194.156837 293.76 
L 194.156837 289.927604 
L 195.330515 289.927604 
L 195.330515 286.095208 
L 199.107709 286.095208 
L 199.107709 282.262812 
L 199.509364 282.262812 
L 199.509364 278.430416 
L 199.695205 278.430416 
L 199.695205 274.59802 
L 199.934469 274.59802 
L 199.935245 266.933228 
L 200.108442 266.933228 
L 200.108442 263.100832 
L 202.227496 263.100832 
L 202.227496 259.268436 
L 203.038629 259.268436 
L 203.038629 255.43604 
L 203.897249 255.43604 
L 203.897249 251.603644 
L 204.823456 251.603644 
L 204.823456 247.771248 
L 205.193069 247.771248 
L 205.193069 243.938851 
L 209.341549 243.938851 
L 209.341549 240.106455 
L 214.362118 240.106455 
L 214.362118 236.274059 
L 234.601329 236.274059 
L 234.601329 232.441663 
L 237.008843 232.441663 
L 237.008843 228.609267 
L 241.218369 228.609267 
L 241.218369 224.776871 
L 242.981195 224.776871 
L 242.981195 220.944475 
L 243.978418 220.944475 
L 243.978418 217.112079 
L 246.513359 217.112079 
L 246.513359 213.279683 
L 246.868851 213.279683 
L 246.868851 209.447287 
L 247.029713 209.447287 
L 247.029713 205.614891 
L 247.298421 205.614891 
L 247.298421 201.782495 
L 247.502925 201.782495 
L 247.502925 197.950099 
L 248.334684 197.950099 
L 248.334684 194.117703 
L 248.855792 194.117703 
L 248.855792 190.285307 
L 249.624546 190.285307 
L 249.624546 186.452911 
L 250.155294 186.452911 
L 250.155294 182.620515 
L 251.67891 182.620515 
L 251.67891 178.788119 
L 252.068053 178.788119 
L 252.068053 174.955723 
L 258.848233 174.955723 
L 258.848233 171.123327 
L 262.763618 171.123327 
L 262.763618 167.290931 
L 270.072867 167.290931 
L 270.072867 163.458535 
L 270.246157 163.458535 
L 270.246157 159.626139 
L 270.803688 159.626139 
L 270.803688 155.793743 
L 274.253806 155.793743 
L 274.253806 151.961347 
L 274.871389 151.961347 
L 274.871389 148.12895 
L 275.977881 148.12895 
L 275.977881 144.296554 
L 278.290103 144.296554 
L 278.290103 140.464158 
L 281.295142 140.464158 
L 281.295142 136.631762 
L 281.45681 136.631762 
L 281.45681 132.799366 
L 285.878843 132.799366 
L 285.901158 125.134574 
L 291.605178 125.134574 
L 291.605178 121.302178 
L 293.26837 121.302178 
L 293.26837 117.469782 
L 294.446648 117.469782 
L 294.446648 113.637386 
L 297.350702 113.637386 
L 297.350702 109.80499 
L 297.882504 109.80499 
L 297.882504 105.972594 
L 304.90977 105.972594 
L 304.90977 102.140198 
L 305.134572 102.140198 
L 305.134572 98.307802 
L 305.559437 98.307802 
L 305.60996 90.64301 
L 307.121525 90.64301 
L 307.121525 86.810614 
L 307.247793 86.810614 
L 307.247793 82.978218 
L 308.778233 82.978218 
L 308.778233 79.145822 
L 310.753204 79.145822 
L 310.753204 75.313426 
L 311.391657 75.313426 
L 311.391657 71.48103 
L 312.679977 71.48103 
L 312.679977 67.648634 
L 324.79275 67.648634 
L 324.79275 63.816238 
L 325.962268 63.816238 
L 325.962268 59.983842 
L 329.759849 59.983842 
L 329.759849 56.151446 
L 332.34902 56.151446 
L 332.34902 52.31905 
L 334.464642 52.31905 
L 334.464642 48.486653 
L 337.193302 48.486653 
L 337.193302 44.654257 
L 337.990963 44.654257 
L 337.990963 40.821861 
L 338.113671 40.821861 
L 338.113671 36.989465 
L 338.350963 36.989465 
L 338.350963 33.157069 
L 338.703487 33.157069 
L 338.703487 29.324673 
L 339.120719 29.324673 
L 339.120719 25.492277 
L 339.331431 25.492277 
L 339.331431 21.659881 
L 342.430079 21.659881 
L 342.430079 17.827485 
L 343.174859 17.827485 
L 343.174859 13.995089 
L 344.280789 13.995089 
L 344.280789 10.162693 
L 345.788308 10.162693 
L 345.788308 6.330297 
L 345.788308 6.330297 
L 460.8 6.330297 
L 460.8 6.330297 
" clip-path="url(#p61e2bd6d77)" style="fill: none; stroke: #00bfbf; stroke-width: 1.5; stroke-linecap: square"/>
   </g>
   <g id="line2d_26">
    <path d="M 117.328929 293.76 
L 117.328929 289.927604 
L 120.816346 289.927604 
L 120.816346 286.095208 
L 124.285385 286.095208 
L 124.285385 282.262812 
L 124.45289 282.262812 
L 124.45289 278.430416 
L 127.016941 278.430416 
L 127.016941 274.59802 
L 129.417449 274.59802 
L 129.417449 270.765624 
L 130.371237 270.765624 
L 130.371237 266.933228 
L 133.172691 266.933228 
L 133.172691 263.100832 
L 134.377394 263.100832 
L 134.377394 259.268436 
L 141.814669 259.268436 
L 141.814669 255.43604 
L 142.455369 255.43604 
L 142.455369 251.603644 
L 145.134337 251.603644 
L 145.134337 247.771248 
L 146.559314 247.771248 
L 146.559314 243.938851 
L 147.752745 243.938851 
L 147.752745 240.106455 
L 155.90459 240.106455 
L 155.90459 236.274059 
L 180.321242 236.274059 
L 180.321242 232.441663 
L 181.380373 232.441663 
L 181.380373 228.609267 
L 190.169695 228.609267 
L 190.169695 224.776871 
L 193.419946 224.776871 
L 193.419946 220.944475 
L 195.019179 220.944475 
L 195.019179 217.112079 
L 195.268372 217.112079 
L 195.268372 213.279683 
L 197.480967 213.279683 
L 197.480967 209.447287 
L 198.582279 209.447287 
L 198.582279 205.614891 
L 201.350857 205.614891 
L 201.350857 201.782495 
L 204.463667 201.782495 
L 204.560238 194.117703 
L 204.575616 194.117703 
L 204.575616 190.285307 
L 206.301417 190.285307 
L 206.301417 186.452911 
L 209.73342 186.452911 
L 209.73342 182.620515 
L 209.84471 182.620515 
L 209.84471 178.788119 
L 211.3893 178.788119 
L 211.3893 174.955723 
L 211.66132 174.955723 
L 211.66132 171.123327 
L 212.285301 171.123327 
L 212.285301 167.290931 
L 213.569961 167.290931 
L 213.569961 163.458535 
L 215.139599 163.458535 
L 215.139599 159.626139 
L 216.978855 159.626139 
L 216.978855 155.793743 
L 220.443894 155.793743 
L 220.443894 151.961347 
L 222.475916 151.961347 
L 222.475916 148.12895 
L 223.082247 148.12895 
L 223.082247 144.296554 
L 223.935352 144.296554 
L 223.935352 140.464158 
L 224.067169 140.464158 
L 224.120898 132.799366 
L 225.588702 132.799366 
L 225.588702 128.96697 
L 227.962032 128.96697 
L 227.962032 125.134574 
L 229.766703 125.134574 
L 229.766703 121.302178 
L 230.752397 121.302178 
L 230.752397 117.469782 
L 232.97407 117.469782 
L 232.97407 113.637386 
L 233.145875 113.637386 
L 233.145875 109.80499 
L 233.437857 109.80499 
L 233.437857 105.972594 
L 233.819186 105.972594 
L 233.819186 102.140198 
L 234.415295 102.140198 
L 234.415295 98.307802 
L 235.052136 98.307802 
L 235.129084 90.64301 
L 235.491173 90.64301 
L 235.491173 86.810614 
L 236.329627 86.810614 
L 236.329627 82.978218 
L 239.644817 82.978218 
L 239.644817 79.145822 
L 240.043611 79.145822 
L 240.043611 75.313426 
L 240.345736 75.313426 
L 240.345736 71.48103 
L 242.196431 71.48103 
L 242.196431 67.648634 
L 242.566169 67.648634 
L 242.566169 63.816238 
L 243.886741 63.816238 
L 243.886741 59.983842 
L 244.017685 59.983842 
L 244.017685 56.151446 
L 244.84838 56.151446 
L 244.84838 52.31905 
L 245.116677 52.31905 
L 245.116677 48.486653 
L 245.885752 48.486653 
L 245.885752 44.654257 
L 246.72797 44.654257 
L 246.72797 40.821861 
L 247.049323 40.821861 
L 247.049323 36.989465 
L 248.46734 36.989465 
L 248.46734 33.157069 
L 252.05221 33.157069 
L 252.05221 29.324673 
L 256.408196 29.324673 
L 256.408196 25.492277 
L 260.550708 25.492277 
L 260.550708 21.659881 
L 260.912249 21.659881 
L 260.912249 17.827485 
L 267.894145 17.827485 
L 267.894145 13.995089 
L 275.010962 13.995089 
L 275.010962 10.162693 
L 308.792786 10.162693 
L 308.792786 6.330297 
L 308.792786 6.330297 
L 460.8 6.330297 
L 460.8 6.330297 
" clip-path="url(#p61e2bd6d77)" style="fill: none; stroke: #bf00bf; stroke-width: 1.5; stroke-linecap: square"/>
   </g>
   <g id="line2d_27">
    <path d="M -1 109.80499 
L -0.100882 109.80499 
L -0.100882 52.31905 
L 9.735011 52.31905 
L 9.735011 48.486653 
L 16.985614 48.486653 
L 16.985614 44.654257 
L 59.408894 44.654257 
L 59.408894 40.821861 
L 64.698731 40.821861 
L 64.698731 36.989465 
L 75.552992 36.989465 
L 75.552992 33.157069 
L 76.616615 33.157069 
L 76.616615 29.324673 
L 99.544049 29.324673 
L 99.544049 25.492277 
L 105.824683 25.492277 
L 105.824683 21.659881 
L 162.927905 21.659881 
L 162.927905 17.827485 
L 185.473113 17.827485 
L 185.473113 13.995089 
L 187.420838 13.995089 
L 187.420838 10.162693 
L 188.188832 10.162693 
L 188.188832 6.330297 
L 188.188832 6.330297 
L 460.8 6.330297 
L 460.8 6.330297 
" clip-path="url(#p61e2bd6d77)" style="fill: none; stroke: #000000; stroke-width: 1.5; stroke-linecap: square"/>
   </g>
   <g id="patch_3">
    <path d="M 0 293.76 
L 0 3.456 
" style="fill: none; stroke: #000000; stroke-width: 0.8; stroke-linejoin: miter; stroke-linecap: square"/>
   </g>
   <g id="patch_4">
    <path d="M 460.8 293.76 
L 460.8 3.456 
" style="fill: none; stroke: #000000; stroke-width: 0.8; stroke-linejoin: miter; stroke-linecap: square"/>
   </g>
   <g id="patch_5">
    <path d="M 0 293.76 
L 460.8 293.76 
" style="fill: none; stroke: #000000; stroke-width: 0.8; stroke-linejoin: miter; stroke-linecap: square"/>
   </g>
   <g id="patch_6">
    <path d="M 0 3.456 
L 460.8 3.456 
" style="fill: none; stroke: #000000; stroke-width: 0.8; stroke-linejoin: miter; stroke-linecap: square"/>
   </g>
   <g id="text_6">
    <!-- {f10-f14}, 5-D -->
    <g transform="translate(305.884 287.95392) scale(0.2 -0.2)">
     <defs>
      <path id="DejaVuSans-7b" d="M 3272 -594 
L 3272 -1044 
L 3078 -1044 
Q 2300 -1044 2036 -812 
Q 1772 -581 1772 109 
L 1772 856 
Q 1772 1328 1603 1509 
Q 1434 1691 991 1691 
L 800 1691 
L 800 2138 
L 991 2138 
Q 1438 2138 1605 2317 
Q 1772 2497 1772 2963 
L 1772 3713 
Q 1772 4403 2036 4633 
Q 2300 4863 3078 4863 
L 3272 4863 
L 3272 4416 
L 3059 4416 
Q 2619 4416 2484 4278 
Q 2350 4141 2350 3700 
L 2350 2925 
Q 2350 2434 2208 2212 
Q 2066 1991 1722 1913 
Q 2069 1828 2209 1606 
Q 2350 1384 2350 897 
L 2350 122 
Q 2350 -319 2484 -456 
Q 2619 -594 3059 -594 
L 3272 -594 
z
" transform="scale(0.015625)"/>
      <path id="DejaVuSans-7d" d="M 800 -594 
L 1019 -594 
Q 1456 -594 1589 -459 
Q 1722 -325 1722 122 
L 1722 897 
Q 1722 1384 1862 1606 
Q 2003 1828 2350 1913 
Q 2003 1991 1862 2212 
Q 1722 2434 1722 2925 
L 1722 3700 
Q 1722 4144 1589 4280 
Q 1456 4416 1019 4416 
L 800 4416 
L 800 4863 
L 997 4863 
Q 1775 4863 2036 4633 
Q 2297 4403 2297 3713 
L 2297 2963 
Q 2297 2497 2465 2317 
Q 2634 2138 3078 2138 
L 3272 2138 
L 3272 1691 
L 3078 1691 
Q 2634 1691 2465 1509 
Q 2297 1328 2297 856 
L 2297 109 
Q 2297 -581 2036 -812 
Q 1775 -1044 997 -1044 
L 800 -1044 
L 800 -594 
z
" transform="scale(0.015625)"/>
      <path id="DejaVuSans-2c" d="M 750 794 
L 1409 794 
L 1409 256 
L 897 -744 
L 494 -744 
L 750 256 
L 750 794 
z
" transform="scale(0.015625)"/>
      <path id="DejaVuSans-35" d="M 691 4666 
L 3169 4666 
L 3169 4134 
L 1269 4134 
L 1269 2991 
Q 1406 3038 1543 3061 
Q 1681 3084 1819 3084 
Q 2600 3084 3056 2656 
Q 3513 2228 3513 1497 
Q 3513 744 3044 326 
Q 2575 -91 1722 -91 
Q 1428 -91 1123 -41 
Q 819 9 494 109 
L 494 744 
Q 775 591 1075 516 
Q 1375 441 1709 441 
Q 2250 441 2565 725 
Q 2881 1009 2881 1497 
Q 2881 1984 2565 2268 
Q 2250 2553 1709 2553 
Q 1456 2553 1204 2497 
Q 953 2441 691 2322 
L 691 4666 
z
" transform="scale(0.015625)"/>
     </defs>
     <use xlink:href="#DejaVuSans-7b"/>
     <use xlink:href="#DejaVuSans-66" x="63.623047"/>
     <use xlink:href="#DejaVuSans-31" x="98.828125"/>
     <use xlink:href="#DejaVuSans-30" x="162.451172"/>
     <use xlink:href="#DejaVuSans-2d" x="226.074219"/>
     <use xlink:href="#DejaVuSans-66" x="262.158203"/>
     <use xlink:href="#DejaVuSans-31" x="297.363281"/>
     <use xlink:href="#DejaVuSans-34" x="360.986328"/>
     <use xlink:href="#DejaVuSans-7d" x="424.609375"/>
     <use xlink:href="#DejaVuSans-2c" x="488.232422"/>
     <use xlink:href="#DejaVuSans-20" x="520.019531"/>
     <use xlink:href="#DejaVuSans-35" x="551.806641"/>
     <use xlink:href="#DejaVuSans-2d" x="615.429688"/>
     <use xlink:href="#DejaVuSans-44" x="651.513672"/>
    </g>
   </g>
   <g id="text_7">
    <!-- v2.6.3 -->
    <g style="fill: #808080" transform="translate(214.71875 288.777272) scale(0.1 -0.1)">
     <defs>
      <path id="DejaVuSans-76" d="M 191 3500 
L 800 3500 
L 1894 563 
L 2988 3500 
L 3597 3500 
L 2284 0 
L 1503 0 
L 191 3500 
z
" transform="scale(0.015625)"/>
      <path id="DejaVuSans-32" d="M 1228 531 
L 3431 531 
L 3431 0 
L 469 0 
L 469 531 
Q 828 903 1448 1529 
Q 2069 2156 2228 2338 
Q 2531 2678 2651 2914 
Q 2772 3150 2772 3378 
Q 2772 3750 2511 3984 
Q 2250 4219 1831 4219 
Q 1534 4219 1204 4116 
Q 875 4013 500 3803 
L 500 4441 
Q 881 4594 1212 4672 
Q 1544 4750 1819 4750 
Q 2544 4750 2975 4387 
Q 3406 4025 3406 3419 
Q 3406 3131 3298 2873 
Q 3191 2616 2906 2266 
Q 2828 2175 2409 1742 
Q 1991 1309 1228 531 
z
" transform="scale(0.015625)"/>
      <path id="DejaVuSans-2e" d="M 684 794 
L 1344 794 
L 1344 0 
L 684 0 
L 684 794 
z
" transform="scale(0.015625)"/>
      <path id="DejaVuSans-36" d="M 2113 2584 
Q 1688 2584 1439 2293 
Q 1191 2003 1191 1497 
Q 1191 994 1439 701 
Q 1688 409 2113 409 
Q 2538 409 2786 701 
Q 3034 994 3034 1497 
Q 3034 2003 2786 2293 
Q 2538 2584 2113 2584 
z
M 3366 4563 
L 3366 3988 
Q 3128 4100 2886 4159 
Q 2644 4219 2406 4219 
Q 1781 4219 1451 3797 
Q 1122 3375 1075 2522 
Q 1259 2794 1537 2939 
Q 1816 3084 2150 3084 
Q 2853 3084 3261 2657 
Q 3669 2231 3669 1497 
Q 3669 778 3244 343 
Q 2819 -91 2113 -91 
Q 1303 -91 875 529 
Q 447 1150 447 2328 
Q 447 3434 972 4092 
Q 1497 4750 2381 4750 
Q 2619 4750 2861 4703 
Q 3103 4656 3366 4563 
z
" transform="scale(0.015625)"/>
      <path id="DejaVuSans-33" d="M 2597 2516 
Q 3050 2419 3304 2112 
Q 3559 1806 3559 1356 
Q 3559 666 3084 287 
Q 2609 -91 1734 -91 
Q 1441 -91 1130 -33 
Q 819 25 488 141 
L 488 750 
Q 750 597 1062 519 
Q 1375 441 1716 441 
Q 2309 441 2620 675 
Q 2931 909 2931 1356 
Q 2931 1769 2642 2001 
Q 2353 2234 1838 2234 
L 1294 2234 
L 1294 2753 
L 1863 2753 
Q 2328 2753 2575 2939 
Q 2822 3125 2822 3475 
Q 2822 3834 2567 4026 
Q 2313 4219 1838 4219 
Q 1578 4219 1281 4162 
Q 984 4106 628 3988 
L 628 4550 
Q 988 4650 1302 4700 
Q 1616 4750 1894 4750 
Q 2613 4750 3031 4423 
Q 3450 4097 3450 3541 
Q 3450 3153 3228 2886 
Q 3006 2619 2597 2516 
z
" transform="scale(0.015625)"/>
     </defs>
     <use xlink:href="#DejaVuSans-76"/>
     <use xlink:href="#DejaVuSans-32" x="59.179688"/>
     <use xlink:href="#DejaVuSans-2e" x="122.802734"/>
     <use xlink:href="#DejaVuSans-36" x="154.589844"/>
     <use xlink:href="#DejaVuSans-2e" x="218.212891"/>
     <use xlink:href="#DejaVuSans-33" x="250"/>
    </g>
   </g>
  </g>
 </g>
 <defs>
  <clipPath id="p61e2bd6d77">
   <rect x="0" y="3.456" width="460.8" height="290.304"/>
  </clipPath>
 </defs>
</svg>
