<?xml version="1.0" encoding="utf-8" standalone="no"?>
<!DOCTYPE svg PUBLIC "-//W3C//DTD SVG 1.1//EN"
  "http://www.w3.org/Graphics/SVG/1.1/DTD/svg11.dtd">
<svg xmlns:xlink="http://www.w3.org/1999/xlink" width="460.8pt" height="345.6pt" viewBox="0 0 460.8 345.6" xmlns="http://www.w3.org/2000/svg" version="1.1">
 <metadata>
  <rdf:RDF xmlns:dc="http://purl.org/dc/elements/1.1/" xmlns:cc="http://creativecommons.org/ns#" xmlns:rdf="http://www.w3.org/1999/02/22-rdf-syntax-ns#">
   <cc:Work>
    <dc:type rdf:resource="http://purl.org/dc/dcmitype/StillImage"/>
    <dc:date>2024-06-21T19:18:05.062794</dc:date>
    <dc:format>image/svg+xml</dc:format>
    <dc:creator>
     <cc:Agent>
      <dc:title>Matplotlib v3.7.5, https://matplotlib.org/</dc:title>
     </cc:Agent>
    </dc:creator>
   </cc:Work>
  </rdf:RDF>
 </metadata>
 <defs>
  <style type="text/css">*{stroke-linejoin: round; stroke-linecap: butt}</style>
 </defs>
 <g id="figure_1">
  <g id="patch_1">
   <path d="M 0 345.6 
L 460.8 345.6 
L 460.8 0 
L 0 0 
z
" style="fill: #ffffff"/>
  </g>
  <g id="axes_1">
   <g id="patch_2">
    <path d="M 0 293.76 
L 460.8 293.76 
L 460.8 3.456 
L 0 3.456 
z
" style="fill: #ffffff"/>
   </g>
   <g id="matplotlib.axis_1">
    <g id="xtick_1">
     <g id="line2d_1">
      <path d="M 101.493326 293.76 
L 101.493326 3.456 
" clip-path="url(#pf3d31035d4)" style="fill: none; stroke: #b0b0b0; stroke-width: 0.8; stroke-linecap: square"/>
     </g>
     <g id="line2d_2">
      <defs>
       <path id="m9769edc21d" d="M 0 0 
L 0 3.5 
" style="stroke: #000000; stroke-width: 0.8"/>
      </defs>
      <g>
       <use xlink:href="#m9769edc21d" x="101.493326" y="293.76" style="stroke: #000000; stroke-width: 0.8"/>
      </g>
     </g>
     <g id="text_1">
      <!-- -4 -->
      <g transform="translate(91.523013 315.956875) scale(0.2 -0.2)">
       <defs>
        <path id="DejaVuSans-2d" d="M 313 2009 
L 1997 2009 
L 1997 1497 
L 313 1497 
L 313 2009 
z
" transform="scale(0.015625)"/>
        <path id="DejaVuSans-34" d="M 2419 4116 
L 825 1625 
L 2419 1625 
L 2419 4116 
z
M 2253 4666 
L 3047 4666 
L 3047 1625 
L 3713 1625 
L 3713 1100 
L 3047 1100 
L 3047 0 
L 2419 0 
L 2419 1100 
L 313 1100 
L 313 1709 
L 2253 4666 
z
" transform="scale(0.015625)"/>
       </defs>
       <use xlink:href="#DejaVuSans-2d"/>
       <use xlink:href="#DejaVuSans-34" x="36.083984"/>
      </g>
     </g>
    </g>
    <g id="xtick_2">
     <g id="line2d_3">
      <path d="M 203.096418 293.76 
L 203.096418 3.456 
" clip-path="url(#pf3d31035d4)" style="fill: none; stroke: #b0b0b0; stroke-width: 0.8; stroke-linecap: square"/>
     </g>
     <g id="line2d_4">
      <g>
       <use xlink:href="#m9769edc21d" x="203.096418" y="293.76" style="stroke: #000000; stroke-width: 0.8"/>
      </g>
     </g>
     <g id="text_2">
      <!-- 0 -->
      <g transform="translate(196.733918 315.956875) scale(0.2 -0.2)">
       <defs>
        <path id="DejaVuSans-30" d="M 2034 4250 
Q 1547 4250 1301 3770 
Q 1056 3291 1056 2328 
Q 1056 1369 1301 889 
Q 1547 409 2034 409 
Q 2525 409 2770 889 
Q 3016 1369 3016 2328 
Q 3016 3291 2770 3770 
Q 2525 4250 2034 4250 
z
M 2034 4750 
Q 2819 4750 3233 4129 
Q 3647 3509 3647 2328 
Q 3647 1150 3233 529 
Q 2819 -91 2034 -91 
Q 1250 -91 836 529 
Q 422 1150 422 2328 
Q 422 3509 836 4129 
Q 1250 4750 2034 4750 
z
" transform="scale(0.015625)"/>
       </defs>
       <use xlink:href="#DejaVuSans-30"/>
      </g>
     </g>
    </g>
    <g id="xtick_3">
     <g id="line2d_5">
      <path d="M 304.699509 293.76 
L 304.699509 3.456 
" clip-path="url(#pf3d31035d4)" style="fill: none; stroke: #b0b0b0; stroke-width: 0.8; stroke-linecap: square"/>
     </g>
     <g id="line2d_6">
      <g>
       <use xlink:href="#m9769edc21d" x="304.699509" y="293.76" style="stroke: #000000; stroke-width: 0.8"/>
      </g>
     </g>
     <g id="text_3">
      <!-- 4 -->
      <g transform="translate(298.337009 315.956875) scale(0.2 -0.2)">
       <use xlink:href="#DejaVuSans-34"/>
      </g>
     </g>
    </g>
    <g id="xtick_4">
     <g id="line2d_7">
      <path d="M 406.302601 293.76 
L 406.302601 3.456 
" clip-path="url(#pf3d31035d4)" style="fill: none; stroke: #b0b0b0; stroke-width: 0.8; stroke-linecap: square"/>
     </g>
     <g id="line2d_8">
      <g>
       <use xlink:href="#m9769edc21d" x="406.302601" y="293.76" style="stroke: #000000; stroke-width: 0.8"/>
      </g>
     </g>
     <g id="text_4">
      <!-- 8 -->
      <g transform="translate(399.940101 315.956875) scale(0.2 -0.2)">
       <defs>
        <path id="DejaVuSans-38" d="M 2034 2216 
Q 1584 2216 1326 1975 
Q 1069 1734 1069 1313 
Q 1069 891 1326 650 
Q 1584 409 2034 409 
Q 2484 409 2743 651 
Q 3003 894 3003 1313 
Q 3003 1734 2745 1975 
Q 2488 2216 2034 2216 
z
M 1403 2484 
Q 997 2584 770 2862 
Q 544 3141 544 3541 
Q 544 4100 942 4425 
Q 1341 4750 2034 4750 
Q 2731 4750 3128 4425 
Q 3525 4100 3525 3541 
Q 3525 3141 3298 2862 
Q 3072 2584 2669 2484 
Q 3125 2378 3379 2068 
Q 3634 1759 3634 1313 
Q 3634 634 3220 271 
Q 2806 -91 2034 -91 
Q 1263 -91 848 271 
Q 434 634 434 1313 
Q 434 1759 690 2068 
Q 947 2378 1403 2484 
z
M 1172 3481 
Q 1172 3119 1398 2916 
Q 1625 2713 2034 2713 
Q 2441 2713 2670 2916 
Q 2900 3119 2900 3481 
Q 2900 3844 2670 4047 
Q 2441 4250 2034 4250 
Q 1625 4250 1398 4047 
Q 1172 3844 1172 3481 
z
" transform="scale(0.015625)"/>
       </defs>
       <use xlink:href="#DejaVuSans-38"/>
      </g>
     </g>
    </g>
    <g id="text_5">
     <!-- log10 of Df -->
     <g transform="translate(175.214063 339.313125) scale(0.2 -0.2)">
      <defs>
       <path id="DejaVuSans-6c" d="M 603 4863 
L 1178 4863 
L 1178 0 
L 603 0 
L 603 4863 
z
" transform="scale(0.015625)"/>
       <path id="DejaVuSans-6f" d="M 1959 3097 
Q 1497 3097 1228 2736 
Q 959 2375 959 1747 
Q 959 1119 1226 758 
Q 1494 397 1959 397 
Q 2419 397 2687 759 
Q 2956 1122 2956 1747 
Q 2956 2369 2687 2733 
Q 2419 3097 1959 3097 
z
M 1959 3584 
Q 2709 3584 3137 3096 
Q 3566 2609 3566 1747 
Q 3566 888 3137 398 
Q 2709 -91 1959 -91 
Q 1206 -91 779 398 
Q 353 888 353 1747 
Q 353 2609 779 3096 
Q 1206 3584 1959 3584 
z
" transform="scale(0.015625)"/>
       <path id="DejaVuSans-67" d="M 2906 1791 
Q 2906 2416 2648 2759 
Q 2391 3103 1925 3103 
Q 1463 3103 1205 2759 
Q 947 2416 947 1791 
Q 947 1169 1205 825 
Q 1463 481 1925 481 
Q 2391 481 2648 825 
Q 2906 1169 2906 1791 
z
M 3481 434 
Q 3481 -459 3084 -895 
Q 2688 -1331 1869 -1331 
Q 1566 -1331 1297 -1286 
Q 1028 -1241 775 -1147 
L 775 -588 
Q 1028 -725 1275 -790 
Q 1522 -856 1778 -856 
Q 2344 -856 2625 -561 
Q 2906 -266 2906 331 
L 2906 616 
Q 2728 306 2450 153 
Q 2172 0 1784 0 
Q 1141 0 747 490 
Q 353 981 353 1791 
Q 353 2603 747 3093 
Q 1141 3584 1784 3584 
Q 2172 3584 2450 3431 
Q 2728 3278 2906 2969 
L 2906 3500 
L 3481 3500 
L 3481 434 
z
" transform="scale(0.015625)"/>
       <path id="DejaVuSans-31" d="M 794 531 
L 1825 531 
L 1825 4091 
L 703 3866 
L 703 4441 
L 1819 4666 
L 2450 4666 
L 2450 531 
L 3481 531 
L 3481 0 
L 794 0 
L 794 531 
z
" transform="scale(0.015625)"/>
       <path id="DejaVuSans-20" transform="scale(0.015625)"/>
       <path id="DejaVuSans-66" d="M 2375 4863 
L 2375 4384 
L 1825 4384 
Q 1516 4384 1395 4259 
Q 1275 4134 1275 3809 
L 1275 3500 
L 2222 3500 
L 2222 3053 
L 1275 3053 
L 1275 0 
L 697 0 
L 697 3053 
L 147 3053 
L 147 3500 
L 697 3500 
L 697 3744 
Q 697 4328 969 4595 
Q 1241 4863 1831 4863 
L 2375 4863 
z
" transform="scale(0.015625)"/>
       <path id="DejaVuSans-44" d="M 1259 4147 
L 1259 519 
L 2022 519 
Q 2988 519 3436 956 
Q 3884 1394 3884 2338 
Q 3884 3275 3436 3711 
Q 2988 4147 2022 4147 
L 1259 4147 
z
M 628 4666 
L 1925 4666 
Q 3281 4666 3915 4102 
Q 4550 3538 4550 2338 
Q 4550 1131 3912 565 
Q 3275 0 1925 0 
L 628 0 
L 628 4666 
z
" transform="scale(0.015625)"/>
      </defs>
      <use xlink:href="#DejaVuSans-6c"/>
      <use xlink:href="#DejaVuSans-6f" x="27.783203"/>
      <use xlink:href="#DejaVuSans-67" x="88.964844"/>
      <use xlink:href="#DejaVuSans-31" x="152.441406"/>
      <use xlink:href="#DejaVuSans-30" x="216.064453"/>
      <use xlink:href="#DejaVuSans-20" x="279.6875"/>
      <use xlink:href="#DejaVuSans-6f" x="311.474609"/>
      <use xlink:href="#DejaVuSans-66" x="372.65625"/>
      <use xlink:href="#DejaVuSans-20" x="407.861328"/>
      <use xlink:href="#DejaVuSans-44" x="439.648438"/>
      <use xlink:href="#DejaVuSans-66" x="516.650391"/>
     </g>
    </g>
   </g>
   <g id="matplotlib.axis_2">
    <g id="ytick_1">
     <g id="line2d_9">
      <path d="M 0 293.76 
L 460.8 293.76 
" clip-path="url(#pf3d31035d4)" style="fill: none; stroke: #b0b0b0; stroke-width: 0.8; stroke-linecap: square"/>
     </g>
     <g id="line2d_10">
      <defs>
       <path id="mcf9aaed547" d="M 0 0 
L -3.5 0 
" style="stroke: #000000; stroke-width: 0.8"/>
      </defs>
      <g>
       <use xlink:href="#mcf9aaed547" x="0" y="293.76" style="stroke: #000000; stroke-width: 0.8"/>
      </g>
     </g>
    </g>
    <g id="ytick_2">
     <g id="line2d_11">
      <path d="M 0 236.274059 
L 460.8 236.274059 
" clip-path="url(#pf3d31035d4)" style="fill: none; stroke: #b0b0b0; stroke-width: 0.8; stroke-linecap: square"/>
     </g>
     <g id="line2d_12">
      <g>
       <use xlink:href="#mcf9aaed547" x="0" y="236.274059" style="stroke: #000000; stroke-width: 0.8"/>
      </g>
     </g>
    </g>
    <g id="ytick_3">
     <g id="line2d_13">
      <path d="M 0 178.788119 
L 460.8 178.788119 
" clip-path="url(#pf3d31035d4)" style="fill: none; stroke: #b0b0b0; stroke-width: 0.8; stroke-linecap: square"/>
     </g>
     <g id="line2d_14">
      <g>
       <use xlink:href="#mcf9aaed547" x="0" y="178.788119" style="stroke: #000000; stroke-width: 0.8"/>
      </g>
     </g>
    </g>
    <g id="ytick_4">
     <g id="line2d_15">
      <path d="M 0 121.302178 
L 460.8 121.302178 
" clip-path="url(#pf3d31035d4)" style="fill: none; stroke: #b0b0b0; stroke-width: 0.8; stroke-linecap: square"/>
     </g>
     <g id="line2d_16">
      <g>
       <use xlink:href="#mcf9aaed547" x="0" y="121.302178" style="stroke: #000000; stroke-width: 0.8"/>
      </g>
     </g>
    </g>
    <g id="ytick_5">
     <g id="line2d_17">
      <path d="M 0 63.816238 
L 460.8 63.816238 
" clip-path="url(#pf3d31035d4)" style="fill: none; stroke: #b0b0b0; stroke-width: 0.8; stroke-linecap: square"/>
     </g>
     <g id="line2d_18">
      <g>
       <use xlink:href="#mcf9aaed547" x="0" y="63.816238" style="stroke: #000000; stroke-width: 0.8"/>
      </g>
     </g>
    </g>
    <g id="ytick_6">
     <g id="line2d_19">
      <path d="M 0 6.330297 
L 460.8 6.330297 
" clip-path="url(#pf3d31035d4)" style="fill: none; stroke: #b0b0b0; stroke-width: 0.8; stroke-linecap: square"/>
     </g>
     <g id="line2d_20">
      <g>
       <use xlink:href="#mcf9aaed547" x="0" y="6.330297" style="stroke: #000000; stroke-width: 0.8"/>
      </g>
     </g>
    </g>
   </g>
   <g id="line2d_21">
    <path d="M -1 237.870891 
L -0.109766 237.870891 
L -0.109766 225.894653 
L 3.687252 225.894653 
L 3.687252 225.096238 
L 4.80321 225.096238 
L 4.80321 224.297822 
L 5.238914 224.297822 
L 5.238914 223.499406 
L 7.59682 223.499406 
L 7.59682 222.70099 
L 8.402971 222.70099 
L 8.402971 221.902574 
L 9.795808 221.902574 
L 9.795808 221.104158 
L 11.828808 221.104158 
L 11.934186 219.507327 
L 12.361439 219.507327 
L 12.468348 217.910495 
L 12.479833 217.910495 
L 12.479833 217.112079 
L 14.129153 217.112079 
L 14.129153 216.313663 
L 15.803254 216.313663 
L 15.803254 215.515248 
L 16.133742 215.515248 
L 16.133742 214.716832 
L 16.452655 214.716832 
L 16.452655 213.918416 
L 17.436696 213.918416 
L 17.465018 212.321584 
L 17.95054 212.321584 
L 17.95054 211.523168 
L 19.206582 211.523168 
L 19.206582 210.724752 
L 24.624504 210.724752 
L 24.624504 209.926337 
L 25.030029 209.926337 
L 25.030029 209.127921 
L 26.28633 209.127921 
L 26.300702 207.531089 
L 31.994524 207.531089 
L 31.994524 206.732673 
L 33.157746 206.732673 
L 33.157746 205.934257 
L 36.249896 205.934257 
L 36.249896 205.135842 
L 37.425086 205.135842 
L 37.425086 204.337426 
L 39.026828 204.337426 
L 39.026828 203.53901 
L 39.497937 203.53901 
L 39.497937 202.740594 
L 53.960807 202.740594 
L 53.960807 201.942178 
L 62.311429 201.942178 
L 62.311429 201.143762 
L 69.719536 201.143762 
L 69.719536 200.345347 
L 70.392205 200.345347 
L 70.392205 199.546931 
L 74.636234 199.546931 
L 74.636234 198.748515 
L 77.783931 198.748515 
L 77.783931 197.950099 
L 79.652545 197.950099 
L 79.652545 197.151683 
L 80.471665 197.151683 
L 80.471665 196.353267 
L 101.853616 196.353267 
L 101.853616 195.554851 
L 102.079877 195.554851 
L 102.079877 194.756436 
L 102.259854 194.756436 
L 102.259854 193.95802 
L 102.397306 193.95802 
L 102.397306 193.159604 
L 104.149822 193.159604 
L 104.149822 192.361188 
L 108.454579 192.361188 
L 108.454579 191.562772 
L 111.294063 191.562772 
L 111.294063 190.764356 
L 112.725938 190.764356 
L 112.725938 189.965941 
L 114.420916 189.965941 
L 114.420916 189.167525 
L 119.106342 189.167525 
L 119.106342 188.369109 
L 121.122106 188.369109 
L 121.122106 187.570693 
L 121.972935 187.570693 
L 121.972935 186.772277 
L 122.637198 186.772277 
L 122.728953 184.37703 
L 123.600141 184.37703 
L 123.600141 183.578614 
L 123.949588 183.578614 
L 123.949588 182.780198 
L 124.8352 182.780198 
L 124.8352 181.981782 
L 128.722054 181.981782 
L 128.722054 181.183366 
L 129.272377 181.183366 
L 129.272377 180.38495 
L 133.660489 180.38495 
L 133.660489 179.586535 
L 134.654666 179.586535 
L 134.654666 178.788119 
L 135.745388 178.788119 
L 135.745388 177.989703 
L 137.455905 177.989703 
L 137.455905 177.191287 
L 138.444489 177.191287 
L 138.444489 176.392871 
L 139.834136 176.392871 
L 139.834136 175.594455 
L 140.233711 175.594455 
L 140.233711 174.79604 
L 142.217022 174.79604 
L 142.217022 173.997624 
L 142.354812 173.997624 
L 142.439583 172.400792 
L 142.570587 172.400792 
L 142.570587 171.602376 
L 143.670653 171.602376 
L 143.670653 170.80396 
L 145.278169 170.80396 
L 145.278169 170.005545 
L 146.168426 170.005545 
L 146.168426 169.207129 
L 146.929445 169.207129 
L 147.023772 167.610297 
L 148.826552 167.610297 
L 148.826552 166.811881 
L 150.957937 166.811881 
L 150.957937 166.013465 
L 152.649766 166.013465 
L 152.649766 165.21505 
L 157.158049 165.21505 
L 157.158049 164.416634 
L 158.632201 164.416634 
L 158.632201 163.618218 
L 164.798338 163.618218 
L 164.798338 162.819802 
L 165.200252 162.819802 
L 165.200252 162.021386 
L 166.243059 162.021386 
L 166.243059 161.22297 
L 166.378882 161.22297 
L 166.378882 160.424554 
L 168.415778 160.424554 
L 168.415778 159.626139 
L 168.794016 159.626139 
L 168.794016 158.827723 
L 170.216387 158.827723 
L 170.216387 158.029307 
L 170.994407 158.029307 
L 170.994407 157.230891 
L 173.462798 157.230891 
L 173.462798 156.432475 
L 173.84676 156.432475 
L 173.857493 154.835644 
L 174.646793 154.835644 
L 174.646793 154.037228 
L 175.210895 154.037228 
L 175.210895 153.238812 
L 177.341807 153.238812 
L 177.341807 152.440396 
L 182.015259 152.440396 
L 182.015259 151.64198 
L 182.661318 151.64198 
L 182.661318 150.843564 
L 183.050729 150.843564 
L 183.050729 150.045149 
L 184.187085 150.045149 
L 184.187085 149.246733 
L 187.051931 149.246733 
L 187.051931 148.448317 
L 191.356546 148.448317 
L 191.356546 147.649901 
L 192.152295 147.649901 
L 192.152295 146.851485 
L 192.45382 146.851485 
L 192.480073 145.254653 
L 194.289276 145.254653 
L 194.289276 144.456238 
L 194.469028 144.456238 
L 194.469028 143.657822 
L 196.766331 143.657822 
L 196.766331 142.859406 
L 196.977203 142.859406 
L 196.977203 142.06099 
L 197.771096 142.06099 
L 197.771096 141.262574 
L 198.149755 141.262574 
L 198.149755 140.464158 
L 199.032707 140.464158 
L 199.032709 136.472079 
L 199.213734 136.472079 
L 199.213734 135.673663 
L 200.667139 135.673663 
L 200.667139 134.875248 
L 201.023917 134.875248 
L 201.023917 134.076832 
L 201.480471 134.076832 
L 201.480471 133.278416 
L 202.119233 133.278416 
L 202.119233 132.48 
L 202.295829 132.48 
L 202.295829 131.681584 
L 202.560373 131.681584 
L 202.560373 130.883168 
L 202.770888 130.883168 
L 202.770888 130.084752 
L 204.999577 130.084752 
L 204.999577 129.286337 
L 205.626745 129.286337 
L 205.680965 127.689505 
L 205.816378 127.689505 
L 205.816378 126.891089 
L 206.258891 126.891089 
L 206.258891 126.092673 
L 207.425032 126.092673 
L 207.506502 124.495842 
L 207.9302 124.495842 
L 208.023201 121.302178 
L 208.068128 121.302178 
L 208.068128 120.503762 
L 208.410303 120.503762 
L 208.410303 119.705347 
L 208.741389 119.705347 
L 208.741389 118.906931 
L 209.599025 118.906931 
L 209.681689 116.511683 
L 210.090787 116.511683 
L 210.097314 114.914851 
L 210.488532 114.914851 
L 210.491918 110.922772 
L 210.654062 110.922772 
L 210.739419 109.325941 
L 210.818674 109.325941 
L 210.925018 106.132277 
L 210.981043 106.132277 
L 210.981043 105.333861 
L 211.378495 105.333861 
L 211.378495 104.535446 
L 211.658265 104.535446 
L 211.720068 102.938614 
L 211.98229 102.938614 
L 212.070548 101.341782 
L 212.271242 101.341782 
L 212.271242 100.543366 
L 212.479037 100.543366 
L 212.486319 98.946535 
L 212.735921 98.946535 
L 212.735921 98.148119 
L 212.885246 98.148119 
L 212.907079 96.551287 
L 213.507565 96.551287 
L 213.596884 94.954455 
L 213.690907 94.954455 
L 213.746919 93.357624 
L 213.961604 93.357624 
L 214.028012 91.760792 
L 214.324849 91.760792 
L 214.367542 90.16396 
L 214.539925 90.16396 
L 214.539925 89.365545 
L 215.641306 89.365545 
L 215.700772 87.768713 
L 216.450317 87.768713 
L 216.450317 86.970297 
L 216.598662 86.970297 
L 216.598662 86.171881 
L 217.398003 86.171881 
L 217.398003 85.373465 
L 217.728173 85.373465 
L 217.728173 84.57505 
L 218.008734 84.57505 
L 218.008734 83.776634 
L 218.219893 83.776634 
L 218.308438 82.179802 
L 218.333463 82.179802 
L 218.333463 81.381386 
L 218.557151 81.381386 
L 218.557151 80.58297 
L 218.817468 80.58297 
L 218.911075 78.187723 
L 219.446567 78.187723 
L 219.446567 77.389307 
L 220.025146 77.389307 
L 220.025146 76.590891 
L 220.287322 76.590891 
L 220.330028 74.994059 
L 220.788595 74.994059 
L 220.832493 73.397228 
L 220.988351 73.397228 
L 220.988351 70.203564 
L 223.515873 70.203564 
L 223.515873 69.405149 
L 224.010898 69.405149 
L 224.010898 68.606733 
L 224.506812 68.606733 
L 224.506812 67.808317 
L 225.051982 67.808317 
L 225.08153 66.211485 
L 227.015007 66.211485 
L 227.015007 64.614653 
L 227.2792 64.614653 
L 227.2792 63.816238 
L 227.831931 63.816238 
L 227.831931 63.017822 
L 229.67386 63.017822 
L 229.67386 62.219406 
L 230.452701 62.219406 
L 230.452706 59.824158 
L 230.571476 59.824158 
L 230.571476 59.025743 
L 230.754635 59.025743 
L 230.754635 58.227327 
L 231.33569 58.227327 
L 231.33569 57.428911 
L 232.153202 57.428911 
L 232.167804 55.033663 
L 234.295015 55.033663 
L 234.295015 52.638416 
L 234.924716 52.638416 
L 234.924716 51.84 
L 235.174857 51.84 
L 235.174857 51.041584 
L 235.521992 51.041584 
L 235.521992 50.243168 
L 236.087827 50.243168 
L 236.08783 48.646337 
L 236.475228 48.646337 
L 236.475228 47.847921 
L 236.626052 47.847921 
L 236.626721 44.654257 
L 237.003183 44.654257 
L 237.003183 43.855842 
L 237.139234 43.855842 
L 237.139234 43.057426 
L 237.621401 43.057426 
L 237.629601 41.460594 
L 238.099091 41.460594 
L 238.099094 39.863762 
L 238.549416 39.863762 
L 238.549416 39.065347 
L 238.982068 39.065347 
L 238.982068 38.266931 
L 239.3984 38.266931 
L 239.3984 37.468515 
L 239.799591 37.468515 
L 239.799591 36.670099 
L 240.186698 36.670099 
L 240.1867 35.073267 
L 240.560681 35.073267 
L 240.560681 34.274851 
L 240.922399 34.274851 
L 240.922399 33.476436 
L 241.272625 33.476436 
L 241.272625 32.67802 
L 241.612079 32.67802 
L 241.612082 31.081188 
L 241.941402 31.081188 
L 241.941402 30.282772 
L 242.874189 30.282772 
L 242.874189 29.484356 
L 244.00661 29.484356 
L 244.00661 28.685941 
L 245.275978 28.685941 
L 245.275978 27.887525 
L 247.719301 27.887525 
L 247.719301 27.089109 
L 251.719889 27.089109 
L 251.719889 26.290693 
L 252.079563 26.290693 
L 252.079563 25.492277 
L 253.76164 25.492277 
L 253.76164 24.693861 
L 254.513285 24.693861 
L 254.513285 23.895446 
L 254.765913 23.895446 
L 254.813565 22.298614 
L 255.126411 22.298614 
L 255.126411 21.500198 
L 255.492695 21.500198 
L 255.525519 19.903366 
L 255.813011 19.903366 
L 255.918225 17.508119 
L 255.929037 17.508119 
L 255.929037 16.709703 
L 256.13612 16.709703 
L 256.13612 15.911287 
L 256.318762 15.911287 
L 256.318762 15.112871 
L 256.433209 15.112871 
L 256.433209 14.314455 
L 257.792196 14.314455 
L 257.792196 13.51604 
L 259.538876 13.51604 
L 259.538876 12.717624 
L 260.451208 12.717624 
L 260.451208 11.919208 
L 260.771724 11.919208 
L 260.771724 11.120792 
L 262.021424 11.120792 
L 262.021424 10.322376 
L 262.371803 10.322376 
L 262.371803 9.52396 
L 263.254482 9.52396 
L 263.254482 8.725545 
L 263.597956 8.725545 
L 263.597956 7.927129 
L 264.354984 7.927129 
L 264.363436 6.330297 
L 264.363436 6.330297 
L 460.8 6.330297 
L 460.8 6.330297 
" clip-path="url(#pf3d31035d4)" style="fill: none; stroke: #ff0000; stroke-width: 3; stroke-linecap: square"/>
   </g>
   <g id="line2d_22">
    <path d="M 222.032497 293.76 
L 222.032497 292.961584 
L 226.845786 292.961584 
L 226.845786 292.163168 
L 228.023584 292.163168 
L 228.023584 291.364752 
L 228.37502 291.364752 
L 228.37502 290.566337 
L 229.207031 290.566337 
L 229.207031 289.767921 
L 229.502547 289.767921 
L 229.517582 287.372673 
L 230.154233 287.372673 
L 230.154233 286.574257 
L 231.309725 286.574257 
L 231.309725 285.775842 
L 232.680266 285.775842 
L 232.680266 284.977426 
L 233.292558 284.977426 
L 233.352231 283.380594 
L 233.716948 283.380594 
L 233.716948 282.582178 
L 234.083492 282.582178 
L 234.083492 281.783762 
L 235.66722 281.783762 
L 235.66722 280.985347 
L 240.323104 280.985347 
L 240.338677 279.388515 
L 240.602319 279.388515 
L 240.602319 278.590099 
L 240.875522 278.590099 
L 240.875522 277.791683 
L 241.225024 277.791683 
L 241.225024 276.993267 
L 241.464045 276.993267 
L 241.464045 276.194851 
L 242.436672 276.194851 
L 242.436672 275.396436 
L 243.419336 275.396436 
L 243.452576 273.799604 
L 243.829194 273.799604 
L 243.898477 272.202772 
L 244.235926 272.202772 
L 244.235926 271.404356 
L 244.509838 271.404356 
L 244.583015 269.009109 
L 244.982628 269.009109 
L 245.052516 266.613861 
L 245.12274 266.613861 
L 245.12274 265.815446 
L 245.341531 265.815446 
L 245.341531 265.01703 
L 245.540643 265.01703 
L 245.636089 261.823366 
L 245.748292 261.823366 
L 245.829774 260.226535 
L 245.916433 260.226535 
L 245.916433 259.428119 
L 246.057606 259.428119 
L 246.057606 258.629703 
L 246.231049 258.629703 
L 246.231049 257.831287 
L 246.389667 257.831287 
L 246.389667 257.032871 
L 246.648709 257.032871 
L 246.649545 255.43604 
L 247.316908 255.43604 
L 247.34528 253.040792 
L 247.486774 253.040792 
L 247.490008 251.44396 
L 247.905766 251.44396 
L 247.905766 250.645545 
L 248.110211 250.645545 
L 248.20099 249.048713 
L 248.307472 249.048713 
L 248.307472 248.250297 
L 248.542733 248.250297 
L 248.542733 247.451881 
L 248.948544 247.451881 
L 248.996981 245.85505 
L 249.155152 245.85505 
L 249.210083 243.459802 
L 249.470607 243.459802 
L 249.470607 242.661386 
L 249.855585 242.661386 
L 249.855585 241.86297 
L 250.125287 241.86297 
L 250.125287 241.064554 
L 251.719343 241.064554 
L 251.719343 240.266139 
L 251.86996 240.266139 
L 251.880209 238.669307 
L 251.982778 238.669307 
L 252.091142 234.677228 
L 252.101505 234.677228 
L 252.212567 227.491485 
L 252.220038 227.491485 
L 252.312915 217.112079 
L 253.06187 217.112079 
L 253.06187 216.313663 
L 253.607078 216.313663 
L 253.648406 213.918416 
L 253.847947 213.918416 
L 253.847947 213.12 
L 254.125418 213.12 
L 254.125418 212.321584 
L 254.318499 212.321584 
L 254.318499 211.523168 
L 254.512781 211.523168 
L 254.512781 210.724752 
L 254.710218 210.724752 
L 254.710218 209.926337 
L 254.85077 209.926337 
L 254.85077 209.127921 
L 255.058815 209.127921 
L 255.058815 208.329505 
L 255.471932 208.329505 
L 255.534189 206.732673 
L 255.586952 206.732673 
L 255.693941 204.337426 
L 256.001623 204.337426 
L 256.001623 203.53901 
L 256.626957 203.53901 
L 256.626957 202.740594 
L 257.271315 202.740594 
L 257.271315 201.942178 
L 257.398495 201.942178 
L 257.398495 201.143762 
L 258.298706 201.143762 
L 258.345901 199.546931 
L 258.814426 199.546931 
L 258.814426 198.748515 
L 258.98951 198.748515 
L 258.98951 197.950099 
L 259.376609 197.950099 
L 259.376609 197.151683 
L 260.319466 197.151683 
L 260.319466 196.353267 
L 260.434245 196.353267 
L 260.434245 195.554851 
L 260.631671 195.554851 
L 260.631671 194.756436 
L 260.842866 194.756436 
L 260.872965 193.159604 
L 261.632339 193.159604 
L 261.632339 192.361188 
L 261.78569 192.361188 
L 261.836454 190.764356 
L 262.410438 190.764356 
L 262.410438 189.965941 
L 262.595782 189.965941 
L 262.595782 189.167525 
L 263.180189 189.167525 
L 263.180189 188.369109 
L 263.479735 188.369109 
L 263.479735 187.570693 
L 264.374501 187.570693 
L 264.374501 186.772277 
L 264.567085 186.772277 
L 264.567085 185.973861 
L 264.84878 185.973861 
L 264.909776 184.37703 
L 265.362433 184.37703 
L 265.472239 182.780198 
L 265.707258 182.780198 
L 265.745913 181.183366 
L 266.009575 181.183366 
L 266.009575 180.38495 
L 266.240085 180.38495 
L 266.240085 179.586535 
L 266.640393 179.586535 
L 266.660906 177.989703 
L 266.858352 177.989703 
L 266.87036 176.392871 
L 267.032658 176.392871 
L 267.032658 175.594455 
L 267.863044 175.594455 
L 267.863044 174.79604 
L 268.080465 174.79604 
L 268.080465 173.997624 
L 269.893793 173.997624 
L 269.893793 173.199208 
L 274.553994 173.199208 
L 274.553994 172.400792 
L 275.917137 172.400792 
L 275.917137 171.602376 
L 276.114253 171.602376 
L 276.139301 170.005545 
L 276.457092 170.005545 
L 276.457092 169.207129 
L 276.901845 169.207129 
L 276.914716 167.610297 
L 277.858116 167.610297 
L 277.858116 166.811881 
L 278.922091 166.811881 
L 278.964211 164.416634 
L 279.593382 164.416634 
L 279.654103 162.819802 
L 279.713811 162.819802 
L 279.799434 159.626139 
L 280.260186 159.626139 
L 280.260186 158.827723 
L 280.534627 158.827723 
L 280.534627 158.029307 
L 280.9463 158.029307 
L 281.049708 155.634059 
L 281.269186 155.634059 
L 281.269186 154.835644 
L 281.471264 154.835644 
L 281.511762 153.238812 
L 281.934827 153.238812 
L 281.934827 152.440396 
L 282.128753 152.440396 
L 282.200518 150.843564 
L 282.250084 150.843564 
L 282.250084 150.045149 
L 282.407694 150.045149 
L 282.407694 149.246733 
L 282.74237 149.246733 
L 282.796906 146.851485 
L 283.032736 146.851485 
L 283.032736 146.053069 
L 283.278061 146.053069 
L 283.278061 145.254653 
L 283.513112 145.254653 
L 283.522149 143.657822 
L 283.632079 143.657822 
L 283.632079 142.859406 
L 284.236633 142.859406 
L 284.29451 141.262574 
L 284.412993 141.262574 
L 284.412993 140.464158 
L 284.688919 140.464158 
L 284.792729 138.867327 
L 285.097008 138.867327 
L 285.129593 137.270495 
L 285.441839 137.270495 
L 285.441839 136.472079 
L 285.58813 136.472079 
L 285.58813 135.673663 
L 286.279896 135.673663 
L 286.279896 134.875248 
L 286.436066 134.875248 
L 286.461849 133.278416 
L 287.027529 133.278416 
L 287.088264 131.681584 
L 287.491946 131.681584 
L 287.491946 130.883168 
L 287.763505 130.883168 
L 287.831028 128.487921 
L 287.979301 128.487921 
L 288.079514 126.092673 
L 288.136311 126.092673 
L 288.136311 125.294257 
L 288.307873 125.294257 
L 288.400211 122.89901 
L 288.448353 122.89901 
L 288.505778 120.503762 
L 288.649021 120.503762 
L 288.695956 118.108515 
L 288.764759 118.108515 
L 288.835124 116.511683 
L 289.020907 116.511683 
L 289.020907 115.713267 
L 289.133927 115.713267 
L 289.203096 114.116436 
L 289.521264 114.116436 
L 289.537758 112.519604 
L 289.729233 112.519604 
L 289.791363 110.922772 
L 290.118696 110.922772 
L 290.173455 108.527525 
L 290.559244 108.527525 
L 290.559244 107.729109 
L 290.937925 107.729109 
L 290.949774 106.132277 
L 291.164262 106.132277 
L 291.170355 104.535446 
L 291.435094 104.535446 
L 291.442635 102.938614 
L 292.223142 102.938614 
L 292.223781 101.341782 
L 293.334768 101.341782 
L 293.334768 100.543366 
L 294.017491 100.543366 
L 294.017491 99.74495 
L 303.797877 99.74495 
L 303.797877 98.946535 
L 308.338541 98.946535 
L 308.338541 98.148119 
L 311.149365 98.148119 
L 311.149365 97.349703 
L 318.489519 97.349703 
L 318.489519 96.551287 
L 319.033048 96.551287 
L 319.033048 95.752871 
L 322.564893 95.752871 
L 322.564893 94.954455 
L 324.406589 94.954455 
L 324.406589 94.15604 
L 326.602476 94.15604 
L 326.620796 92.559208 
L 327.74895 92.559208 
L 327.74895 91.760792 
L 329.160487 91.760792 
L 329.160487 90.962376 
L 329.291796 90.962376 
L 329.291796 90.16396 
L 331.341165 90.16396 
L 331.350606 88.567129 
L 331.645954 88.567129 
L 331.645954 87.768713 
L 331.761384 87.768713 
L 331.761384 86.970297 
L 332.673265 86.970297 
L 332.673265 86.171881 
L 333.317873 86.171881 
L 333.317873 85.373465 
L 334.348496 85.373465 
L 334.348496 84.57505 
L 334.616989 84.57505 
L 334.616989 83.776634 
L 334.885231 83.776634 
L 334.984107 82.179802 
L 335.478 82.179802 
L 335.478 81.381386 
L 335.916193 81.381386 
L 335.972938 78.986139 
L 337.47663 78.986139 
L 337.47663 78.187723 
L 338.38281 78.187723 
L 338.38281 77.389307 
L 338.602101 77.389307 
L 338.602101 76.590891 
L 339.257463 76.590891 
L 339.277279 74.994059 
L 342.022177 74.994059 
L 342.022177 74.195644 
L 342.339581 74.195644 
L 342.384072 71.800396 
L 342.829704 71.800396 
L 342.829704 71.00198 
L 343.142046 71.00198 
L 343.201054 69.405149 
L 343.406793 69.405149 
L 343.406793 68.606733 
L 343.591444 68.606733 
L 343.617484 66.211485 
L 343.83025 66.211485 
L 343.862766 64.614653 
L 344.20617 64.614653 
L 344.20617 63.816238 
L 344.745583 63.816238 
L 344.809055 62.219406 
L 344.872087 62.219406 
L 344.872087 61.42099 
L 345.263224 61.42099 
L 345.351118 59.824158 
L 345.655818 59.824158 
L 345.655818 59.025743 
L 345.899321 59.025743 
L 345.899321 58.227327 
L 346.495457 58.227327 
L 346.495457 57.428911 
L 346.881763 57.428911 
L 346.936703 55.832079 
L 347.107284 55.832079 
L 347.134758 54.235248 
L 348.294311 54.235248 
L 348.294896 52.638416 
L 349.475237 52.638416 
L 349.567909 51.041584 
L 349.655668 51.041584 
L 349.655668 50.243168 
L 349.799377 50.243168 
L 349.799377 49.444752 
L 350.308288 49.444752 
L 350.308288 48.646337 
L 350.51329 48.646337 
L 350.569528 47.049505 
L 351.254406 47.049505 
L 351.254406 46.251089 
L 351.372823 46.251089 
L 351.457645 44.654257 
L 352.372588 44.654257 
L 352.372588 43.855842 
L 353.034404 43.855842 
L 353.034404 43.057426 
L 356.062371 43.057426 
L 356.062371 42.25901 
L 365.068897 42.25901 
L 365.068897 41.460594 
L 370.191821 41.460594 
L 370.191821 40.662178 
L 371.885377 40.662178 
L 371.885377 39.863762 
L 372.014988 39.863762 
L 372.014988 39.065347 
L 372.443565 39.065347 
L 372.443565 38.266931 
L 373.241156 38.266931 
L 373.241156 37.468515 
L 373.84148 37.468515 
L 373.852636 35.871683 
L 375.748106 35.871683 
L 375.823308 34.274851 
L 376.283303 34.274851 
L 376.332247 32.67802 
L 376.901389 32.67802 
L 376.901389 31.879604 
L 377.17653 31.879604 
L 377.211734 30.282772 
L 377.419906 30.282772 
L 377.419906 29.484356 
L 378.276828 29.484356 
L 378.276828 28.685941 
L 378.509884 28.685941 
L 378.509884 27.887525 
L 378.905956 27.887525 
L 378.905956 27.089109 
L 379.243203 27.089109 
L 379.243203 26.290693 
L 379.632854 26.290693 
L 379.632854 25.492277 
L 379.749646 25.492277 
L 379.749646 24.693861 
L 380.02443 24.693861 
L 380.02443 23.895446 
L 380.862008 23.895446 
L 380.90053 21.500198 
L 381.032933 21.500198 
L 381.032933 20.701782 
L 384.139718 20.701782 
L 384.139718 19.903366 
L 384.544461 19.903366 
L 384.544461 19.10495 
L 388.197167 19.10495 
L 388.197167 18.306535 
L 413.042259 18.306535 
L 413.042259 17.508119 
L 415.421985 17.508119 
L 415.421985 16.709703 
L 416.52614 16.709703 
L 416.52614 15.911287 
L 417.993804 15.911287 
L 417.993804 15.112871 
L 418.143771 15.112871 
L 418.143771 14.314455 
L 418.801597 14.314455 
L 418.801597 13.51604 
L 419.663113 13.51604 
L 419.663113 12.717624 
L 420.033982 12.717624 
L 420.033982 11.919208 
L 420.155429 11.919208 
L 420.155429 11.120792 
L 422.055768 11.120792 
L 422.055768 10.322376 
L 422.495004 10.322376 
L 422.495004 9.52396 
L 423.099496 9.52396 
L 423.150374 7.927129 
L 428.480442 7.927129 
L 428.480442 7.128713 
L 430.322699 7.128713 
L 430.322699 6.330297 
L 430.322699 6.330297 
L 460.8 6.330297 
L 460.8 6.330297 
" clip-path="url(#pf3d31035d4)" style="fill: none; stroke: #00bfbf; stroke-width: 1.5; stroke-linecap: square"/>
   </g>
   <g id="line2d_23">
    <path d="M 222.032497 293.76 
L 222.032497 292.961584 
L 225.428315 292.961584 
L 225.428315 292.163168 
L 226.845786 292.163168 
L 226.845786 291.364752 
L 227.246717 291.364752 
L 227.246717 290.566337 
L 227.638677 290.566337 
L 227.638677 289.767921 
L 227.755863 289.767921 
L 227.755863 288.969505 
L 228.023584 288.969505 
L 228.023584 288.171089 
L 228.37502 288.171089 
L 228.37502 287.372673 
L 229.207031 287.372673 
L 229.207031 286.574257 
L 229.401203 286.574257 
L 229.401203 285.775842 
L 229.73312 285.775842 
L 229.73312 284.977426 
L 231.309725 284.977426 
L 231.309725 284.17901 
L 231.67195 284.17901 
L 231.67195 283.380594 
L 232.193852 283.380594 
L 232.193852 282.582178 
L 232.633893 282.582178 
L 232.633893 281.783762 
L 234.395617 281.783762 
L 234.395617 280.985347 
L 235.66722 280.985347 
L 235.66722 280.186931 
L 236.443206 280.186931 
L 236.443206 279.388515 
L 236.576889 279.388515 
L 236.576889 278.590099 
L 236.861426 278.590099 
L 236.861426 277.791683 
L 237.570317 277.791683 
L 237.570317 276.993267 
L 237.695139 276.993267 
L 237.695139 276.194851 
L 237.859318 276.194851 
L 237.925479 274.59802 
L 238.109077 274.59802 
L 238.170932 273.001188 
L 238.420985 273.001188 
L 238.420985 272.202772 
L 239.021207 272.202772 
L 239.072023 269.009109 
L 239.197129 269.009109 
L 239.197129 268.210693 
L 239.345883 268.210693 
L 239.345883 267.412277 
L 239.525542 267.412277 
L 239.532768 265.815446 
L 239.995296 265.815446 
L 239.995296 265.01703 
L 240.338677 265.01703 
L 240.338677 264.218614 
L 240.498321 264.218614 
L 240.498321 263.420198 
L 240.875522 263.420198 
L 240.875522 262.621782 
L 241.417436 262.621782 
L 241.464045 261.02495 
L 243.419336 261.02495 
L 243.419336 260.226535 
L 243.74415 260.226535 
L 243.74415 259.428119 
L 243.882952 259.428119 
L 243.882952 258.629703 
L 244.03487 258.629703 
L 244.03487 257.831287 
L 244.423559 257.831287 
L 244.423559 257.032871 
L 244.543974 257.032871 
L 244.559721 255.43604 
L 244.68181 255.43604 
L 244.68181 254.637624 
L 245.052516 254.637624 
L 245.052516 253.839208 
L 245.246361 253.839208 
L 245.246361 253.040792 
L 245.590049 253.040792 
L 245.594996 251.44396 
L 245.897758 251.44396 
L 245.897758 250.645545 
L 246.019123 250.645545 
L 246.057606 249.048713 
L 246.275786 249.048713 
L 246.275786 248.250297 
L 246.697539 248.250297 
L 246.697539 247.451881 
L 246.915079 247.451881 
L 246.937981 245.85505 
L 247.120104 245.85505 
L 247.120104 245.056634 
L 247.323485 245.056634 
L 247.323485 244.258218 
L 247.486774 244.258218 
L 247.59699 242.661386 
L 247.718556 242.661386 
L 247.718556 241.86297 
L 248.736611 241.86297 
L 248.736611 241.064554 
L 248.948544 241.064554 
L 248.996981 239.467723 
L 249.1917 239.467723 
L 249.210083 237.870891 
L 249.880445 237.870891 
L 249.880445 237.072475 
L 250.318183 237.072475 
L 250.318183 236.274059 
L 250.554633 236.274059 
L 250.61987 234.677228 
L 251.198537 234.677228 
L 251.290541 233.080396 
L 251.329237 233.080396 
L 251.329237 232.28198 
L 251.441374 232.28198 
L 251.534172 230.685149 
L 251.577493 230.685149 
L 251.675635 228.289901 
L 251.690981 228.289901 
L 251.79409 225.096238 
L 251.86996 225.096238 
L 251.980563 218.708911 
L 252.041411 218.708911 
L 252.152152 213.918416 
L 252.158338 213.918416 
L 252.266229 208.329505 
L 252.28725 208.329505 
L 252.28725 207.531089 
L 252.714854 207.531089 
L 252.714854 206.732673 
L 253.065461 206.732673 
L 253.065461 205.934257 
L 253.45427 205.934257 
L 253.45427 205.135842 
L 253.608645 205.135842 
L 253.648406 202.740594 
L 253.750869 202.740594 
L 253.750869 201.942178 
L 254.318499 201.942178 
L 254.318499 201.143762 
L 254.830222 201.143762 
L 254.830222 200.345347 
L 255.471932 200.345347 
L 255.534189 198.748515 
L 255.894783 198.748515 
L 255.894783 197.950099 
L 256.069269 197.950099 
L 256.069269 197.151683 
L 256.612192 197.151683 
L 256.612192 196.353267 
L 257.272021 196.353267 
L 257.272021 195.554851 
L 258.298706 195.554851 
L 258.298706 194.756436 
L 258.98951 194.756436 
L 259.006002 193.159604 
L 259.376609 193.159604 
L 259.376609 192.361188 
L 259.752393 192.361188 
L 259.752393 191.562772 
L 259.929029 191.562772 
L 259.929029 190.764356 
L 260.443723 190.764356 
L 260.48454 189.167525 
L 260.631671 189.167525 
L 260.631671 188.369109 
L 261.652039 188.369109 
L 261.652039 187.570693 
L 261.793676 187.570693 
L 261.793676 186.772277 
L 261.970791 186.772277 
L 261.970791 185.973861 
L 262.154173 185.973861 
L 262.154173 185.175446 
L 262.267723 185.175446 
L 262.267723 184.37703 
L 262.473171 184.37703 
L 262.578152 182.780198 
L 262.738505 182.780198 
L 262.738505 181.981782 
L 262.85888 181.981782 
L 262.85888 181.183366 
L 263.072891 181.183366 
L 263.072891 180.38495 
L 263.236985 180.38495 
L 263.236985 179.586535 
L 263.683809 179.586535 
L 263.683809 178.788119 
L 263.823836 178.788119 
L 263.849671 177.191287 
L 264.275359 177.191287 
L 264.275359 176.392871 
L 264.522234 176.392871 
L 264.522234 175.594455 
L 266.352135 175.594455 
L 266.352135 174.79604 
L 266.651038 174.79604 
L 266.651038 173.997624 
L 268.144125 173.997624 
L 268.144125 173.199208 
L 269.893793 173.199208 
L 269.893793 172.400792 
L 271.383654 172.400792 
L 271.383654 171.602376 
L 271.952702 171.602376 
L 271.952702 170.80396 
L 272.618009 170.80396 
L 272.618009 170.005545 
L 272.98279 170.005545 
L 272.98279 169.207129 
L 273.418901 169.207129 
L 273.418901 168.408713 
L 273.620902 168.408713 
L 273.726199 166.811881 
L 273.735989 166.811881 
L 273.735989 166.013465 
L 273.868632 166.013465 
L 273.868632 165.21505 
L 274.116989 165.21505 
L 274.221214 163.618218 
L 274.553994 163.618218 
L 274.553994 162.819802 
L 274.721504 162.819802 
L 274.782887 160.424554 
L 274.863454 160.424554 
L 274.863454 159.626139 
L 275.05924 159.626139 
L 275.05924 158.827723 
L 275.510074 158.827723 
L 275.541568 157.230891 
L 275.917137 157.230891 
L 275.917137 156.432475 
L 276.114253 156.432475 
L 276.145137 154.037228 
L 276.446921 154.037228 
L 276.457092 151.64198 
L 276.611486 151.64198 
L 276.611486 150.843564 
L 276.901845 150.843564 
L 276.992344 148.448317 
L 277.251402 148.448317 
L 277.344387 146.851485 
L 277.392992 146.851485 
L 277.392992 146.053069 
L 277.580573 146.053069 
L 277.580573 145.254653 
L 277.725576 145.254653 
L 277.725576 144.456238 
L 278.013286 144.456238 
L 278.013286 143.657822 
L 278.268741 143.657822 
L 278.340067 142.06099 
L 278.51961 142.06099 
L 278.51961 141.262574 
L 278.903697 141.262574 
L 279.002491 138.867327 
L 279.421157 138.867327 
L 279.421157 138.068911 
L 279.72341 138.068911 
L 279.799434 136.472079 
L 280.035269 136.472079 
L 280.035269 135.673663 
L 280.162676 135.673663 
L 280.250412 134.076832 
L 280.39194 134.076832 
L 280.418318 132.48 
L 280.534627 132.48 
L 280.534627 131.681584 
L 280.9463 131.681584 
L 281.043832 129.286337 
L 281.269186 129.286337 
L 281.325056 127.689505 
L 281.591772 127.689505 
L 281.591772 126.891089 
L 282.179738 126.891089 
L 282.238406 124.495842 
L 282.339646 124.495842 
L 282.339646 123.697426 
L 283.032736 123.697426 
L 283.032736 122.89901 
L 283.235425 122.89901 
L 283.235425 122.100594 
L 284.002294 122.100594 
L 284.002294 121.302178 
L 284.127406 121.302178 
L 284.127406 120.503762 
L 284.412993 120.503762 
L 284.441016 118.906931 
L 284.936238 118.906931 
L 284.936238 118.108515 
L 285.05192 118.108515 
L 285.05192 117.310099 
L 285.215888 117.310099 
L 285.248438 115.713267 
L 287.027529 115.713267 
L 287.027529 114.914851 
L 287.698901 114.914851 
L 287.698901 114.116436 
L 287.831028 114.116436 
L 287.831028 113.31802 
L 288.002398 113.31802 
L 288.008818 111.721188 
L 288.354182 111.721188 
L 288.448353 110.124356 
L 289.205877 110.124356 
L 289.205877 109.325941 
L 289.368055 109.325941 
L 289.368055 108.527525 
L 289.521264 108.527525 
L 289.521264 107.729109 
L 289.729233 107.729109 
L 289.778964 106.132277 
L 290.065915 106.132277 
L 290.142228 103.73703 
L 290.517993 103.73703 
L 290.555297 102.140198 
L 290.670976 102.140198 
L 290.759024 100.543366 
L 291.138321 100.543366 
L 291.138321 99.74495 
L 293.334768 99.74495 
L 293.334768 98.946535 
L 295.740793 98.946535 
L 295.740793 98.148119 
L 303.797877 98.148119 
L 303.797877 97.349703 
L 308.338541 97.349703 
L 308.338541 96.551287 
L 310.318062 96.551287 
L 310.318062 95.752871 
L 311.149365 95.752871 
L 311.149365 94.954455 
L 315.016502 94.954455 
L 315.016502 94.15604 
L 315.474123 94.15604 
L 315.474123 93.357624 
L 315.977632 93.357624 
L 315.977632 92.559208 
L 323.766966 92.559208 
L 323.766966 91.760792 
L 324.406589 91.760792 
L 324.452282 89.365545 
L 326.602476 89.365545 
L 326.620796 87.768713 
L 326.803258 87.768713 
L 326.803258 86.970297 
L 327.634425 86.970297 
L 327.634425 86.171881 
L 327.74895 86.171881 
L 327.74895 85.373465 
L 328.424062 85.373465 
L 328.48092 83.776634 
L 329.291796 83.776634 
L 329.343691 82.179802 
L 329.687142 82.179802 
L 329.687142 81.381386 
L 329.972297 81.381386 
L 330.026878 78.986139 
L 330.48721 78.986139 
L 330.48721 78.187723 
L 330.61184 78.187723 
L 330.61184 77.389307 
L 331.262086 77.389307 
L 331.350606 74.994059 
L 331.761384 74.994059 
L 331.761384 74.195644 
L 331.974092 74.195644 
L 331.974092 73.397228 
L 333.263795 73.397228 
L 333.318788 71.00198 
L 333.588922 71.00198 
L 333.588922 70.203564 
L 334.308619 70.203564 
L 334.348496 68.606733 
L 334.638889 68.606733 
L 334.639348 67.009901 
L 334.894174 67.009901 
L 334.894174 66.211485 
L 335.137517 66.211485 
L 335.137517 65.413069 
L 335.972938 65.413069 
L 335.972938 64.614653 
L 336.779585 64.614653 
L 336.779585 63.816238 
L 337.200203 63.816238 
L 337.200203 63.017822 
L 337.735532 63.017822 
L 337.735532 62.219406 
L 338.081125 62.219406 
L 338.081125 61.42099 
L 338.452582 61.42099 
L 338.452582 60.622574 
L 338.602101 60.622574 
L 338.602101 59.824158 
L 339.277279 59.824158 
L 339.277279 59.025743 
L 339.506923 59.025743 
L 339.506923 58.227327 
L 339.712104 58.227327 
L 339.712104 57.428911 
L 340.058367 57.428911 
L 340.148242 55.832079 
L 342.276809 55.832079 
L 342.276809 55.033663 
L 342.408797 55.033663 
L 342.50674 53.436832 
L 342.899621 53.436832 
L 342.899621 52.638416 
L 343.597307 52.638416 
L 343.597307 51.84 
L 344.809055 51.84 
L 344.809055 51.041584 
L 345.092911 51.041584 
L 345.171186 49.444752 
L 345.275322 49.444752 
L 345.275322 48.646337 
L 345.75363 48.646337 
L 345.75363 47.847921 
L 346.160047 47.847921 
L 346.160047 47.049505 
L 349.550157 47.049505 
L 349.550157 46.251089 
L 349.706458 46.251089 
L 349.799377 44.654257 
L 350.08024 44.654257 
L 350.08024 43.855842 
L 350.232585 43.855842 
L 350.308288 42.25901 
L 360.771619 42.25901 
L 360.771619 41.460594 
L 368.012003 41.460594 
L 368.012003 40.662178 
L 368.327336 40.662178 
L 368.327336 39.863762 
L 369.28432 39.863762 
L 369.28432 39.065347 
L 370.191821 39.065347 
L 370.191821 38.266931 
L 370.331486 38.266931 
L 370.331486 37.468515 
L 371.005728 37.468515 
L 371.005728 36.670099 
L 371.57557 36.670099 
L 371.57557 35.871683 
L 371.885377 35.871683 
L 371.885377 35.073267 
L 372.014988 35.073267 
L 372.014988 34.274851 
L 372.393531 34.274851 
L 372.443565 32.67802 
L 372.592131 32.67802 
L 372.611217 31.081188 
L 373.242505 31.081188 
L 373.242505 30.282772 
L 373.83305 30.282772 
L 373.84148 28.685941 
L 375.114129 28.685941 
L 375.114129 27.887525 
L 375.384977 27.887525 
L 375.384977 27.089109 
L 375.748106 27.089109 
L 375.832486 25.492277 
L 376.283303 25.492277 
L 376.283303 24.693861 
L 376.647762 24.693861 
L 376.647762 23.895446 
L 377.545822 23.895446 
L 377.545822 23.09703 
L 377.672893 23.09703 
L 377.672893 22.298614 
L 378.314689 22.298614 
L 378.360309 20.701782 
L 378.937734 20.701782 
L 378.937734 19.903366 
L 380.054274 19.903366 
L 380.054274 19.10495 
L 382.803432 19.10495 
L 382.803432 18.306535 
L 413.042259 18.306535 
L 413.042259 17.508119 
L 413.998203 17.508119 
L 413.998203 16.709703 
L 415.383213 16.709703 
L 415.421985 15.112871 
L 415.634191 15.112871 
L 415.634191 14.314455 
L 416.52614 14.314455 
L 416.52614 13.51604 
L 416.851816 13.51604 
L 416.851816 12.717624 
L 417.993804 12.717624 
L 417.993804 11.919208 
L 418.143771 11.919208 
L 418.143771 11.120792 
L 418.872464 11.120792 
L 418.872464 10.322376 
L 419.012683 10.322376 
L 419.012683 9.52396 
L 420.668256 9.52396 
L 420.694115 7.927129 
L 422.055768 7.927129 
L 422.055768 7.128713 
L 422.495004 7.128713 
L 422.495004 6.330297 
L 422.495004 6.330297 
L 460.8 6.330297 
L 460.8 6.330297 
" clip-path="url(#pf3d31035d4)" style="fill: none; stroke: #bf00bf; stroke-width: 1.5; stroke-linecap: square"/>
   </g>
   <g id="line2d_24">
    <path d="M 222.032497 293.76 
L 222.032497 292.961584 
L 223.181549 292.961584 
L 223.181549 292.163168 
L 224.150007 292.163168 
L 224.150007 291.364752 
L 225.204415 291.364752 
L 225.204415 290.566337 
L 225.428315 290.566337 
L 225.428315 289.767921 
L 226.262482 289.767921 
L 226.262482 288.969505 
L 226.845786 288.969505 
L 226.845786 288.171089 
L 227.246717 288.171089 
L 227.246717 287.372673 
L 227.494963 287.372673 
L 227.494963 286.574257 
L 227.638677 286.574257 
L 227.715699 284.977426 
L 227.755863 284.977426 
L 227.755863 284.17901 
L 228.023584 284.17901 
L 228.114717 282.582178 
L 229.401203 282.582178 
L 229.401203 281.783762 
L 233.474226 281.783762 
L 233.509991 280.186931 
L 234.395617 280.186931 
L 234.395617 279.388515 
L 234.576675 279.388515 
L 234.576675 278.590099 
L 235.048884 278.590099 
L 235.048884 277.791683 
L 235.533679 277.791683 
L 235.533679 276.993267 
L 235.66722 276.993267 
L 235.66722 276.194851 
L 236.108255 276.194851 
L 236.108255 275.396436 
L 236.231051 275.396436 
L 236.231051 274.59802 
L 236.443206 274.59802 
L 236.461467 273.001188 
L 236.576889 273.001188 
L 236.611971 271.404356 
L 237.092325 271.404356 
L 237.092325 270.605941 
L 237.471828 270.605941 
L 237.471828 269.807525 
L 237.925479 269.807525 
L 237.925479 269.009109 
L 238.170932 269.009109 
L 238.170932 268.210693 
L 238.283373 268.210693 
L 238.290416 266.613861 
L 238.420985 266.613861 
L 238.420985 265.815446 
L 238.779609 265.815446 
L 238.779609 265.01703 
L 239.072023 265.01703 
L 239.113651 263.420198 
L 239.345883 263.420198 
L 239.345883 262.621782 
L 239.525542 262.621782 
L 239.554934 261.02495 
L 239.883287 261.02495 
L 239.883287 260.226535 
L 239.995296 260.226535 
L 239.995296 259.428119 
L 240.235925 259.428119 
L 240.235925 258.629703 
L 240.824493 258.629703 
L 240.875522 257.032871 
L 240.997454 257.032871 
L 240.997454 256.234455 
L 242.978254 256.234455 
L 243.061154 254.637624 
L 243.994841 254.637624 
L 243.994841 253.839208 
L 244.221478 253.839208 
L 244.221478 253.040792 
L 244.423559 253.040792 
L 244.423559 252.242376 
L 244.543974 252.242376 
L 244.559721 250.645545 
L 244.68181 250.645545 
L 244.68181 249.847129 
L 245.052516 249.847129 
L 245.108759 247.451881 
L 245.170231 247.451881 
L 245.246361 245.85505 
L 245.594996 245.85505 
L 245.613854 244.258218 
L 246.008373 244.258218 
L 246.057606 241.86297 
L 246.348781 241.86297 
L 246.348781 241.064554 
L 246.47185 241.064554 
L 246.4902 239.467723 
L 246.831651 239.467723 
L 246.915079 237.072475 
L 247.323485 237.072475 
L 247.323485 236.274059 
L 248.26588 236.274059 
L 248.326875 234.677228 
L 249.183841 234.677228 
L 249.210083 232.28198 
L 249.319977 232.28198 
L 249.319977 231.483564 
L 249.880445 231.483564 
L 249.988252 229.088317 
L 250.318183 229.088317 
L 250.318183 228.289901 
L 250.554633 228.289901 
L 250.554633 227.491485 
L 250.801394 227.491485 
L 250.883914 225.894653 
L 251.064335 225.894653 
L 251.16719 224.297822 
L 251.1802 224.297822 
L 251.290541 219.507327 
L 251.441374 219.507327 
L 251.532754 215.515248 
L 251.611373 215.515248 
L 251.716653 211.523168 
L 251.738162 211.523168 
L 251.769569 209.127921 
L 251.86996 209.127921 
L 251.979921 205.135842 
L 252.027612 205.135842 
L 252.038624 203.53901 
L 252.152152 203.53901 
L 252.259109 201.143762 
L 252.381201 201.143762 
L 252.457556 199.546931 
L 253.201579 199.546931 
L 253.216337 197.950099 
L 253.334984 197.950099 
L 253.334984 197.151683 
L 253.608645 197.151683 
L 253.618531 195.554851 
L 253.816677 195.554851 
L 253.816677 194.756436 
L 254.005386 194.756436 
L 254.005386 193.95802 
L 254.303867 193.95802 
L 254.318499 192.361188 
L 254.711414 192.361188 
L 254.711414 191.562772 
L 254.830222 191.562772 
L 254.830222 190.764356 
L 254.977978 190.764356 
L 254.977978 189.965941 
L 255.367996 189.965941 
L 255.474754 188.369109 
L 255.484525 188.369109 
L 255.484525 187.570693 
L 255.715308 187.570693 
L 255.778608 185.973861 
L 255.863725 185.973861 
L 255.894783 184.37703 
L 256.612192 184.37703 
L 256.612192 183.578614 
L 257.019499 183.578614 
L 257.019499 182.780198 
L 257.252568 182.780198 
L 257.252568 181.981782 
L 257.783671 181.981782 
L 257.867858 179.586535 
L 258.000304 179.586535 
L 258.000304 178.788119 
L 258.32566 178.788119 
L 258.32566 177.989703 
L 258.451577 177.989703 
L 258.451577 177.191287 
L 258.607141 177.191287 
L 258.607141 176.392871 
L 258.75039 176.392871 
L 258.75039 175.594455 
L 259.277002 175.594455 
L 259.277002 174.79604 
L 259.95513 174.79604 
L 259.95513 173.997624 
L 268.144125 173.997624 
L 268.144125 173.199208 
L 269.893793 173.199208 
L 269.95964 171.602376 
L 270.912445 171.602376 
L 270.912445 170.80396 
L 271.11011 170.80396 
L 271.138742 169.207129 
L 271.383654 169.207129 
L 271.420625 167.610297 
L 271.531744 167.610297 
L 271.531744 166.811881 
L 271.952702 166.811881 
L 272.026421 165.21505 
L 272.143271 165.21505 
L 272.143271 164.416634 
L 272.597136 164.416634 
L 272.618009 162.819802 
L 272.783712 162.819802 
L 272.783712 162.021386 
L 272.98279 162.021386 
L 272.98279 161.22297 
L 273.180987 161.22297 
L 273.180987 160.424554 
L 273.377852 160.424554 
L 273.418901 158.827723 
L 273.546271 158.827723 
L 273.625727 156.432475 
L 273.691321 156.432475 
L 273.735989 154.037228 
L 273.982714 154.037228 
L 273.982714 153.238812 
L 274.219721 153.238812 
L 274.26672 150.843564 
L 274.338587 150.843564 
L 274.338587 150.045149 
L 274.553994 150.045149 
L 274.553994 149.246733 
L 274.721504 149.246733 
L 274.779283 146.851485 
L 275.101952 146.851485 
L 275.169813 144.456238 
L 275.353266 144.456238 
L 275.353266 143.657822 
L 275.541568 143.657822 
L 275.541568 142.859406 
L 275.796368 142.859406 
L 275.796368 142.06099 
L 275.917137 142.06099 
L 275.917137 141.262574 
L 276.114253 141.262574 
L 276.145137 139.665743 
L 276.29351 139.665743 
L 276.29351 138.867327 
L 276.454923 138.867327 
L 276.470057 136.472079 
L 276.901845 136.472079 
L 276.948266 133.278416 
L 277.102185 133.278416 
L 277.102185 132.48 
L 277.251402 132.48 
L 277.349341 130.883168 
L 277.378167 130.883168 
L 277.392992 129.286337 
L 277.698989 129.286337 
L 277.701844 127.689505 
L 278.127842 127.689505 
L 278.13816 126.092673 
L 278.684834 126.092673 
L 278.684834 125.294257 
L 279.252282 125.294257 
L 279.27603 123.697426 
L 279.799434 123.697426 
L 279.799434 122.89901 
L 280.222903 122.89901 
L 280.222903 122.100594 
L 280.485328 122.100594 
L 280.485328 121.302178 
L 281.4842 121.302178 
L 281.4842 120.503762 
L 282.200518 120.503762 
L 282.200518 119.705347 
L 282.339646 119.705347 
L 282.339646 118.906931 
L 282.484093 118.906931 
L 282.493343 117.310099 
L 283.032736 117.310099 
L 283.032736 116.511683 
L 284.127406 116.511683 
L 284.127406 115.713267 
L 284.412993 115.713267 
L 284.448554 113.31802 
L 284.712124 113.31802 
L 284.712124 112.519604 
L 284.936238 112.519604 
L 284.936238 111.721188 
L 285.215888 111.721188 
L 285.215888 110.922772 
L 285.568804 110.922772 
L 285.568804 110.124356 
L 286.460353 110.124356 
L 286.460353 109.325941 
L 286.674922 109.325941 
L 286.674922 108.527525 
L 286.995601 108.527525 
L 287.027529 106.930693 
L 287.273883 106.930693 
L 287.293914 105.333861 
L 287.630501 105.333861 
L 287.739885 102.938614 
L 287.819499 102.938614 
L 287.819499 102.140198 
L 288.002398 102.140198 
L 288.002398 101.341782 
L 288.603381 101.341782 
L 288.657115 99.74495 
L 289.150523 99.74495 
L 289.200134 98.148119 
L 289.361838 98.148119 
L 289.361838 97.349703 
L 290.762491 97.349703 
L 290.762491 96.551287 
L 294.122647 96.551287 
L 294.122647 95.752871 
L 295.650697 95.752871 
L 295.740793 94.15604 
L 296.238142 94.15604 
L 296.238142 93.357624 
L 303.797877 93.357624 
L 303.797877 92.559208 
L 306.061947 92.559208 
L 306.061947 91.760792 
L 306.416249 91.760792 
L 306.416249 90.962376 
L 310.318062 90.962376 
L 310.318062 90.16396 
L 315.715729 90.16396 
L 315.715729 89.365545 
L 317.398617 89.365545 
L 317.398617 88.567129 
L 319.088963 88.567129 
L 319.088963 87.768713 
L 320.637394 87.768713 
L 320.637394 86.970297 
L 321.712595 86.970297 
L 321.712595 86.171881 
L 322.875209 86.171881 
L 322.875209 85.373465 
L 323.128928 85.373465 
L 323.128928 84.57505 
L 324.416253 84.57505 
L 324.485157 81.381386 
L 325.110514 81.381386 
L 325.110514 80.58297 
L 326.151515 80.58297 
L 326.151515 79.784554 
L 326.478588 79.784554 
L 326.490431 78.187723 
L 326.716773 78.187723 
L 326.803258 76.590891 
L 326.946853 76.590891 
L 326.946853 75.792475 
L 327.74895 75.792475 
L 327.74895 74.994059 
L 328.204966 74.994059 
L 328.204966 74.195644 
L 328.48092 74.195644 
L 328.48092 73.397228 
L 328.83692 73.397228 
L 328.885377 71.800396 
L 328.980068 71.800396 
L 328.980068 71.00198 
L 329.332221 71.00198 
L 329.343691 69.405149 
L 329.593529 69.405149 
L 329.687142 67.808317 
L 329.71174 67.808317 
L 329.71174 67.009901 
L 330.082586 67.009901 
L 330.082586 66.211485 
L 330.48721 66.211485 
L 330.489507 64.614653 
L 330.61184 64.614653 
L 330.61184 63.816238 
L 331.492255 63.816238 
L 331.492255 63.017822 
L 331.909878 63.017822 
L 331.995589 60.622574 
L 332.11398 60.622574 
L 332.11398 59.824158 
L 332.394783 59.824158 
L 332.394783 59.025743 
L 333.318788 59.025743 
L 333.318788 58.227327 
L 333.588922 58.227327 
L 333.588922 57.428911 
L 334.452317 57.428911 
L 334.452317 56.630495 
L 334.58049 56.630495 
L 334.639348 54.235248 
L 334.790075 54.235248 
L 334.894174 52.638416 
L 335.137517 52.638416 
L 335.137517 51.84 
L 335.801681 51.84 
L 335.801681 51.041584 
L 335.972938 51.041584 
L 335.972938 50.243168 
L 336.214745 50.243168 
L 336.214745 49.444752 
L 336.574706 49.444752 
L 336.574706 48.646337 
L 336.779585 48.646337 
L 336.779585 47.847921 
L 337.556624 47.847921 
L 337.556624 47.049505 
L 337.74808 47.049505 
L 337.74808 46.251089 
L 339.208921 46.251089 
L 339.208921 45.452673 
L 339.506923 45.452673 
L 339.506923 44.654257 
L 341.154257 44.654257 
L 341.154257 43.855842 
L 342.192439 43.855842 
L 342.192439 43.057426 
L 343.750553 43.057426 
L 343.750553 42.25901 
L 353.978177 42.25901 
L 353.978177 41.460594 
L 356.730854 41.460594 
L 356.730854 40.662178 
L 359.690967 40.662178 
L 359.690967 39.863762 
L 360.465951 39.863762 
L 360.465951 39.065347 
L 360.771619 39.065347 
L 360.771619 38.266931 
L 360.975447 38.266931 
L 360.975447 37.468515 
L 361.178297 37.468515 
L 361.178297 36.670099 
L 364.725247 36.670099 
L 364.725247 35.871683 
L 365.046924 35.871683 
L 365.046924 35.073267 
L 365.385133 35.073267 
L 365.385133 34.274851 
L 366.239391 34.274851 
L 366.239391 33.476436 
L 366.632929 33.476436 
L 366.632929 32.67802 
L 367.025927 32.67802 
L 367.025927 31.879604 
L 367.231154 31.879604 
L 367.269156 30.282772 
L 368.327336 30.282772 
L 368.327336 29.484356 
L 369.133244 29.484356 
L 369.133244 28.685941 
L 369.28432 28.685941 
L 369.383413 27.089109 
L 370.740349 27.089109 
L 370.822594 25.492277 
L 371.005728 25.492277 
L 371.028569 23.895446 
L 371.295882 23.895446 
L 371.295882 23.09703 
L 371.539782 23.09703 
L 371.539782 22.298614 
L 372.053126 22.298614 
L 372.053126 21.500198 
L 372.611217 21.500198 
L 372.611217 20.701782 
L 373.073519 20.701782 
L 373.073519 19.903366 
L 374.408701 19.903366 
L 374.408701 19.10495 
L 376.38501 19.10495 
L 376.38501 18.306535 
L 410.813846 18.306535 
L 410.813846 17.508119 
L 411.127669 17.508119 
L 411.197192 15.911287 
L 411.26682 15.911287 
L 411.26682 15.112871 
L 413.683781 15.112871 
L 413.750105 13.51604 
L 413.998203 13.51604 
L 414.028433 11.919208 
L 415.467287 11.919208 
L 415.467287 11.120792 
L 415.634191 11.120792 
L 415.634191 10.322376 
L 416.129817 10.322376 
L 416.129817 9.52396 
L 416.314477 9.52396 
L 416.314477 8.725545 
L 416.756592 8.725545 
L 416.851816 7.128713 
L 417.265021 7.128713 
L 417.265021 6.330297 
L 417.265021 6.330297 
L 460.8 6.330297 
L 460.8 6.330297 
" clip-path="url(#pf3d31035d4)" style="fill: none; stroke: #000000; stroke-width: 1.5; stroke-linecap: square"/>
   </g>
   <g id="line2d_25">
    <path d="M -0.109766 293.76 
L -0.109766 287.372673 
L 211.969511 287.372673 
L 211.969511 286.574257 
L 218.398928 286.574257 
L 218.398928 285.775842 
L 219.752003 285.775842 
L 219.752003 284.977426 
L 219.935694 284.977426 
L 219.935694 284.17901 
L 220.239222 284.17901 
L 220.239222 283.380594 
L 221.086798 283.380594 
L 221.190044 281.783762 
L 221.32792 281.783762 
L 221.32792 280.985347 
L 221.453157 280.985347 
L 221.453157 280.186931 
L 221.625568 280.186931 
L 221.625568 279.388515 
L 221.795505 279.388515 
L 221.795505 278.590099 
L 222.671565 278.590099 
L 222.671565 277.791683 
L 222.850226 277.791683 
L 222.850226 276.993267 
L 223.056449 276.993267 
L 223.056449 276.194851 
L 223.44887 276.194851 
L 223.44887 275.396436 
L 223.72388 275.396436 
L 223.821413 273.001188 
L 223.929045 273.001188 
L 223.929045 272.202772 
L 224.166837 272.202772 
L 224.166837 271.404356 
L 224.328607 271.404356 
L 224.328607 270.605941 
L 224.571988 270.605941 
L 224.571988 269.807525 
L 225.375906 269.807525 
L 225.375906 269.009109 
L 225.63598 269.009109 
L 225.63598 268.210693 
L 225.840927 268.210693 
L 225.840927 267.412277 
L 226.133083 267.412277 
L 226.146813 265.815446 
L 226.275859 265.815446 
L 226.275859 265.01703 
L 226.46933 265.01703 
L 226.46933 264.218614 
L 226.606805 264.218614 
L 226.683507 262.621782 
L 226.722612 262.621782 
L 226.7504 261.02495 
L 227.300629 261.02495 
L 227.393489 259.428119 
L 227.414358 259.428119 
L 227.414358 258.629703 
L 227.601555 258.629703 
L 227.6883 257.032871 
L 227.78167 257.032871 
L 227.78167 256.234455 
L 228.019062 256.234455 
L 228.019062 255.43604 
L 228.216656 255.43604 
L 228.308527 253.839208 
L 228.673428 253.839208 
L 228.673428 253.040792 
L 228.893413 253.040792 
L 228.893413 252.242376 
L 229.040153 252.242376 
L 229.040153 251.44396 
L 229.152827 251.44396 
L 229.255831 249.847129 
L 229.403597 249.847129 
L 229.425218 247.451881 
L 229.589785 247.451881 
L 229.589785 246.653465 
L 229.762444 246.653465 
L 229.762444 245.85505 
L 230.358758 245.85505 
L 230.358758 245.056634 
L 232.015956 245.056634 
L 232.015956 244.258218 
L 233.319439 244.258218 
L 233.421256 242.661386 
L 233.492855 242.661386 
L 233.492855 241.86297 
L 234.002167 241.86297 
L 234.002167 241.064554 
L 235.805065 241.064554 
L 235.805065 240.266139 
L 236.671269 240.266139 
L 236.671269 239.467723 
L 237.294421 239.467723 
L 237.310482 237.870891 
L 237.454978 237.870891 
L 237.454978 237.072475 
L 237.626039 237.072475 
L 237.724412 235.475644 
L 238.39416 235.475644 
L 238.497478 233.080396 
L 238.845319 233.080396 
L 238.894773 231.483564 
L 238.968166 231.483564 
L 239.011918 229.886733 
L 239.440745 229.886733 
L 239.53045 227.491485 
L 239.666096 227.491485 
L 239.774254 225.096238 
L 239.793215 225.096238 
L 239.877661 221.902574 
L 239.953353 221.902574 
L 240.025458 219.507327 
L 240.277388 219.507327 
L 240.371464 217.910495 
L 240.82271 217.910495 
L 240.875522 215.515248 
L 240.945756 215.515248 
L 240.945756 214.716832 
L 241.289941 214.716832 
L 241.382865 213.12 
L 241.604878 213.12 
L 241.69394 209.926337 
L 242.197301 209.926337 
L 242.197301 209.127921 
L 242.478348 209.127921 
L 242.478348 208.329505 
L 242.664274 208.329505 
L 242.76363 206.732673 
L 242.978254 206.732673 
L 242.978254 205.934257 
L 243.090703 205.934257 
L 243.090703 205.135842 
L 243.3657 205.135842 
L 243.453597 203.53901 
L 243.478607 203.53901 
L 243.478607 202.740594 
L 243.994841 202.740594 
L 244.06579 201.143762 
L 244.221478 201.143762 
L 244.310097 198.748515 
L 244.423559 198.748515 
L 244.529102 196.353267 
L 244.583791 196.353267 
L 244.68181 194.756436 
L 245.114038 194.756436 
L 245.114038 193.95802 
L 245.698804 193.95802 
L 245.698804 193.159604 
L 245.950992 193.159604 
L 245.950992 192.361188 
L 246.4902 192.361188 
L 246.4902 191.562772 
L 246.954904 191.562772 
L 246.954904 190.764356 
L 247.184507 190.764356 
L 247.184507 189.965941 
L 247.658749 189.965941 
L 247.747882 188.369109 
L 248.135315 188.369109 
L 248.219249 186.772277 
L 248.264382 186.772277 
L 248.334607 185.175446 
L 248.808237 185.175446 
L 248.894649 183.578614 
L 248.941112 183.578614 
L 248.941112 182.780198 
L 249.400022 182.780198 
L 249.400022 181.981782 
L 249.58424 181.981782 
L 249.669523 180.38495 
L 249.702757 180.38495 
L 249.807689 178.788119 
L 249.816364 178.788119 
L 249.816364 177.989703 
L 249.943894 177.989703 
L 249.943894 177.191287 
L 250.115912 177.191287 
L 250.170358 175.594455 
L 250.381472 175.594455 
L 250.381472 174.79604 
L 250.683902 174.79604 
L 250.683902 173.997624 
L 262.095382 173.997624 
L 262.095382 173.199208 
L 262.809576 173.199208 
L 262.875626 171.602376 
L 263.47674 171.602376 
L 263.518941 170.005545 
L 263.766413 170.005545 
L 263.766413 169.207129 
L 263.948905 169.207129 
L 263.948905 168.408713 
L 264.142038 168.408713 
L 264.142038 167.610297 
L 264.26769 167.610297 
L 264.345402 165.21505 
L 264.528177 165.21505 
L 264.538704 163.618218 
L 264.748285 163.618218 
L 264.748285 162.819802 
L 264.967336 162.819802 
L 265.016284 160.424554 
L 265.094836 160.424554 
L 265.11555 158.029307 
L 265.328993 158.029307 
L 265.395786 156.432475 
L 265.627736 156.432475 
L 265.627736 155.634059 
L 265.816323 155.634059 
L 265.816323 154.835644 
L 265.972613 154.835644 
L 265.972613 154.037228 
L 266.085183 154.037228 
L 266.085183 153.238812 
L 266.301605 153.238812 
L 266.398824 150.045149 
L 266.586013 150.045149 
L 266.670027 147.649901 
L 266.799372 147.649901 
L 266.909945 146.053069 
L 267.18822 146.053069 
L 267.226138 144.456238 
L 267.34772 144.456238 
L 267.34772 143.657822 
L 267.536205 143.657822 
L 267.537992 142.06099 
L 267.864648 142.06099 
L 267.924643 140.464158 
L 268.072052 140.464158 
L 268.144125 138.068911 
L 268.361287 138.068911 
L 268.361287 137.270495 
L 268.546265 137.270495 
L 268.546265 136.472079 
L 268.674841 136.472079 
L 268.779688 134.875248 
L 268.819259 134.875248 
L 268.912636 133.278416 
L 268.960709 133.278416 
L 269.003728 131.681584 
L 269.105585 131.681584 
L 269.159842 130.084752 
L 269.47762 130.084752 
L 269.47762 129.286337 
L 269.667288 129.286337 
L 269.73427 127.689505 
L 269.843796 127.689505 
L 269.893793 126.092673 
L 270.242542 126.092673 
L 270.253426 124.495842 
L 270.750163 124.495842 
L 270.750163 123.697426 
L 270.922456 123.697426 
L 270.922456 122.89901 
L 271.11011 122.89901 
L 271.11011 122.100594 
L 271.689328 122.100594 
L 271.689328 121.302178 
L 271.841926 121.302178 
L 271.841926 120.503762 
L 272.10399 120.503762 
L 272.10399 119.705347 
L 272.315829 119.705347 
L 272.405689 118.108515 
L 272.458096 118.108515 
L 272.559394 115.713267 
L 272.652635 115.713267 
L 272.652635 114.914851 
L 272.769933 114.914851 
L 272.769933 114.116436 
L 272.906267 114.116436 
L 272.906267 113.31802 
L 273.5346 113.31802 
L 273.5346 112.519604 
L 273.732575 112.519604 
L 273.732575 111.721188 
L 274.035123 111.721188 
L 274.035123 110.922772 
L 274.486319 110.922772 
L 274.588853 109.325941 
L 274.793385 109.325941 
L 274.802285 107.729109 
L 275.142519 107.729109 
L 275.142519 106.930693 
L 275.713949 106.930693 
L 275.713949 106.132277 
L 275.855014 106.132277 
L 275.959728 104.535446 
L 276.198166 104.535446 
L 276.273158 102.938614 
L 276.611249 102.938614 
L 276.611249 102.140198 
L 277.153309 102.140198 
L 277.153309 101.341782 
L 277.403931 101.341782 
L 277.403931 100.543366 
L 277.646883 100.543366 
L 277.646883 99.74495 
L 278.386575 99.74495 
L 278.386575 98.946535 
L 278.505506 98.946535 
L 278.61262 97.349703 
L 278.727507 97.349703 
L 278.759122 95.752871 
L 278.873075 95.752871 
L 278.873075 94.954455 
L 279.159884 94.954455 
L 279.23545 93.357624 
L 279.3513 93.357624 
L 279.3513 92.559208 
L 279.649405 92.559208 
L 279.687746 90.962376 
L 279.960689 90.962376 
L 279.960689 90.16396 
L 280.443142 90.16396 
L 280.443142 89.365545 
L 281.117006 89.365545 
L 281.117006 88.567129 
L 281.297134 88.567129 
L 281.353943 86.171881 
L 281.480525 86.171881 
L 281.480525 85.373465 
L 281.697228 85.373465 
L 281.697228 84.57505 
L 281.940552 84.57505 
L 281.940552 83.776634 
L 282.131224 83.776634 
L 282.131224 82.978218 
L 282.479701 82.978218 
L 282.479701 82.179802 
L 285.467491 82.179802 
L 285.467491 81.381386 
L 285.97409 81.381386 
L 285.97409 80.58297 
L 286.917644 80.58297 
L 286.917644 79.784554 
L 290.945451 79.784554 
L 290.945451 78.986139 
L 292.171423 78.986139 
L 292.171423 78.187723 
L 293.199269 78.187723 
L 293.199269 77.389307 
L 293.690519 77.389307 
L 293.690519 76.590891 
L 294.105996 76.590891 
L 294.170908 74.994059 
L 295.013632 74.994059 
L 295.013632 74.195644 
L 295.290198 74.195644 
L 295.290198 73.397228 
L 295.603547 73.397228 
L 295.603547 72.598812 
L 295.826372 72.598812 
L 295.826372 71.800396 
L 296.251054 71.800396 
L 296.251054 71.00198 
L 297.584305 71.00198 
L 297.584305 70.203564 
L 297.899071 70.203564 
L 297.899071 69.405149 
L 298.043054 69.405149 
L 298.043054 68.606733 
L 298.61087 68.606733 
L 298.61087 67.808317 
L 299.550638 67.808317 
L 299.550638 67.009901 
L 300.413569 67.009901 
L 300.413569 66.211485 
L 300.667057 66.211485 
L 300.667057 65.413069 
L 301.063907 65.413069 
L 301.063907 64.614653 
L 301.219505 64.614653 
L 301.219505 63.816238 
L 301.57541 63.816238 
L 301.686019 61.42099 
L 301.787757 61.42099 
L 301.787757 60.622574 
L 302.061983 60.622574 
L 302.061983 59.824158 
L 302.681015 59.824158 
L 302.681015 59.025743 
L 302.802556 59.025743 
L 302.869339 57.428911 
L 303.481065 57.428911 
L 303.481065 56.630495 
L 304.078507 56.630495 
L 304.078507 55.832079 
L 304.920102 55.832079 
L 304.920102 55.033663 
L 305.428843 55.033663 
L 305.428843 54.235248 
L 305.606229 54.235248 
L 305.606229 53.436832 
L 306.38617 53.436832 
L 306.38617 52.638416 
L 307.443372 52.638416 
L 307.443372 51.84 
L 307.88216 51.84 
L 307.88216 51.041584 
L 308.896922 51.041584 
L 308.896922 50.243168 
L 309.45025 50.243168 
L 309.45025 49.444752 
L 309.701097 49.444752 
L 309.701097 48.646337 
L 310.035221 48.646337 
L 310.035221 47.847921 
L 310.284154 47.847921 
L 310.284154 47.049505 
L 311.307496 47.049505 
L 311.307496 46.251089 
L 311.691446 46.251089 
L 311.691446 45.452673 
L 313.649384 45.452673 
L 313.649384 44.654257 
L 314.036388 44.654257 
L 314.036388 43.855842 
L 314.163904 43.855842 
L 314.163904 43.057426 
L 314.869271 43.057426 
L 314.869271 42.25901 
L 343.412114 42.25901 
L 343.412114 41.460594 
L 344.193489 41.460594 
L 344.193489 40.662178 
L 349.718041 40.662178 
L 349.718041 39.863762 
L 352.269005 39.863762 
L 352.269005 39.065347 
L 353.266599 39.065347 
L 353.266599 38.266931 
L 353.380502 38.266931 
L 353.380502 37.468515 
L 353.510895 37.468515 
L 353.620041 35.871683 
L 353.71605 35.871683 
L 353.71605 35.073267 
L 353.978177 35.073267 
L 353.978177 34.274851 
L 355.291041 34.274851 
L 355.291041 33.476436 
L 356.586716 33.476436 
L 356.586716 32.67802 
L 356.787135 32.67802 
L 356.865141 31.081188 
L 357.170139 31.081188 
L 357.170139 30.282772 
L 357.56215 30.282772 
L 357.56215 29.484356 
L 357.868469 29.484356 
L 357.868469 28.685941 
L 358.018819 28.685941 
L 358.018819 27.887525 
L 358.201148 27.887525 
L 358.201148 27.089109 
L 358.345751 27.089109 
L 358.345751 26.290693 
L 358.630996 26.290693 
L 358.630996 25.492277 
L 359.019534 25.492277 
L 359.052888 23.895446 
L 359.468109 23.895446 
L 359.468109 23.09703 
L 359.78415 23.09703 
L 359.78415 22.298614 
L 362.601623 22.298614 
L 362.601623 21.500198 
L 363.290651 21.500198 
L 363.290651 20.701782 
L 364.630618 20.701782 
L 364.630618 19.903366 
L 366.034879 19.903366 
L 366.034879 19.10495 
L 368.904688 19.10495 
L 368.904688 18.306535 
L 391.619886 18.306535 
L 391.619886 17.508119 
L 393.95945 17.508119 
L 393.95945 16.709703 
L 394.084197 16.709703 
L 394.084197 15.911287 
L 395.120919 15.911287 
L 395.120919 15.112871 
L 395.610912 15.112871 
L 395.610912 14.314455 
L 396.54909 14.314455 
L 396.54909 13.51604 
L 396.736112 13.51604 
L 396.736112 12.717624 
L 397.453392 12.717624 
L 397.453392 11.919208 
L 397.601953 11.919208 
L 397.601953 11.120792 
L 397.912493 11.120792 
L 397.912493 10.322376 
L 399.110732 10.322376 
L 399.110732 9.52396 
L 399.846656 9.52396 
L 399.846656 8.725545 
L 400.904828 8.725545 
L 400.904828 7.927129 
L 401.801729 7.927129 
L 401.801729 7.128713 
L 409.547146 7.128713 
L 409.547146 6.330297 
L 409.547146 6.330297 
L 460.8 6.330297 
L 460.8 6.330297 
" clip-path="url(#pf3d31035d4)" style="fill: none; stroke: #00bfbf; stroke-width: 1.5; stroke-linecap: square"/>
   </g>
   <g id="line2d_26">
    <path d="M -0.109766 293.76 
L -0.109766 281.783762 
L 61.302226 281.783762 
L 61.302226 280.985347 
L 61.668705 280.985347 
L 61.668705 280.186931 
L 63.667984 280.186931 
L 63.667984 279.388515 
L 64.211589 279.388515 
L 64.211589 278.590099 
L 64.802391 278.590099 
L 64.809334 276.993267 
L 65.602227 276.993267 
L 65.602227 276.194851 
L 65.822047 276.194851 
L 65.822047 275.396436 
L 68.369857 275.396436 
L 68.411546 273.799604 
L 68.852244 273.799604 
L 68.871043 272.202772 
L 69.476914 272.202772 
L 69.535865 270.605941 
L 73.045702 270.605941 
L 73.045702 269.807525 
L 145.265931 269.807525 
L 145.265931 269.009109 
L 148.403435 269.009109 
L 148.403435 268.210693 
L 148.761873 268.210693 
L 148.761873 267.412277 
L 149.045046 267.412277 
L 149.045046 266.613861 
L 151.683718 266.613861 
L 151.708972 265.01703 
L 152.744959 265.01703 
L 152.744959 264.218614 
L 152.921635 264.218614 
L 152.921635 263.420198 
L 153.577057 263.420198 
L 153.577057 262.621782 
L 154.049987 262.621782 
L 154.049987 261.823366 
L 154.309958 261.823366 
L 154.309958 261.02495 
L 154.523248 261.02495 
L 154.523248 260.226535 
L 155.295337 260.226535 
L 155.295337 259.428119 
L 156.565456 259.428119 
L 156.565456 258.629703 
L 157.484539 258.629703 
L 157.484539 257.831287 
L 161.755898 257.831287 
L 161.755898 257.032871 
L 164.670411 257.032871 
L 164.670411 256.234455 
L 166.93717 256.234455 
L 166.93717 255.43604 
L 168.442069 255.43604 
L 168.442069 254.637624 
L 171.310496 254.637624 
L 171.310496 253.839208 
L 172.581862 253.839208 
L 172.581862 253.040792 
L 173.398276 253.040792 
L 173.398276 252.242376 
L 174.377606 252.242376 
L 174.377606 251.44396 
L 180.454583 251.44396 
L 180.454583 250.645545 
L 180.915416 250.645545 
L 180.915416 249.847129 
L 183.389104 249.847129 
L 183.389104 249.048713 
L 186.680704 249.048713 
L 186.680704 248.250297 
L 188.163398 248.250297 
L 188.163398 247.451881 
L 188.672896 247.451881 
L 188.672896 246.653465 
L 189.303219 246.653465 
L 189.303219 245.85505 
L 192.326662 245.85505 
L 192.326662 245.056634 
L 192.622065 245.056634 
L 192.622065 244.258218 
L 192.944997 244.258218 
L 192.944997 243.459802 
L 194.609849 243.459802 
L 194.609849 242.661386 
L 194.854126 242.661386 
L 194.854126 241.86297 
L 194.986179 241.86297 
L 194.986179 241.064554 
L 198.689014 241.064554 
L 198.79857 239.467723 
L 198.812768 239.467723 
L 198.812768 238.669307 
L 199.032778 238.669307 
L 199.032859 237.072475 
L 199.313026 237.072475 
L 199.313026 236.274059 
L 200.151997 236.274059 
L 200.151997 235.475644 
L 200.887274 235.475644 
L 200.891608 233.878812 
L 201.311315 233.878812 
L 201.311315 233.080396 
L 202.381064 233.080396 
L 202.381064 232.28198 
L 202.674237 232.28198 
L 202.674237 231.483564 
L 205.044214 231.483564 
L 205.044214 230.685149 
L 207.453028 230.685149 
L 207.453028 229.886733 
L 208.11318 229.886733 
L 208.11318 229.088317 
L 208.904477 229.088317 
L 208.904477 228.289901 
L 209.289987 228.289901 
L 209.289987 227.491485 
L 209.599121 227.491485 
L 209.599167 225.894653 
L 209.72882 225.894653 
L 209.832795 224.297822 
L 210.439188 224.297822 
L 210.491789 221.902574 
L 210.704708 221.902574 
L 210.704708 221.104158 
L 210.84631 221.104158 
L 210.955942 218.708911 
L 210.98452 218.708911 
L 210.98452 217.910495 
L 211.220186 217.910495 
L 211.220186 217.112079 
L 211.759822 217.112079 
L 211.759822 216.313663 
L 212.004307 216.313663 
L 212.070596 214.716832 
L 212.343842 214.716832 
L 212.343842 213.918416 
L 212.886128 213.918416 
L 212.900172 212.321584 
L 213.084541 212.321584 
L 213.106253 209.926337 
L 213.24683 209.926337 
L 213.313146 208.329505 
L 213.59884 208.329505 
L 213.651948 206.732673 
L 214.028012 206.732673 
L 214.028012 205.934257 
L 215.991328 205.934257 
L 215.991328 205.135842 
L 216.520883 205.135842 
L 216.520883 204.337426 
L 217.183842 204.337426 
L 217.220336 202.740594 
L 217.306966 202.740594 
L 217.389287 201.143762 
L 217.422688 201.143762 
L 217.474879 199.546931 
L 217.778981 199.546931 
L 217.778981 198.748515 
L 218.154363 198.748515 
L 218.154363 197.950099 
L 218.31856 197.950099 
L 218.31856 197.151683 
L 218.497093 197.151683 
L 218.497093 196.353267 
L 218.824228 196.353267 
L 218.824228 195.554851 
L 218.937104 195.554851 
L 218.937104 194.756436 
L 219.155708 194.756436 
L 219.240957 193.159604 
L 219.482251 193.159604 
L 219.485099 191.562772 
L 219.620876 191.562772 
L 219.623158 189.965941 
L 220.084708 189.965941 
L 220.084708 189.167525 
L 220.21584 189.167525 
L 220.27028 187.570693 
L 220.425488 187.570693 
L 220.425488 186.772277 
L 220.576166 186.772277 
L 220.576166 185.973861 
L 220.988368 185.973861 
L 221.021345 183.578614 
L 221.102399 183.578614 
L 221.102399 182.780198 
L 221.290844 182.780198 
L 221.290844 181.981782 
L 221.501377 181.981782 
L 221.540851 180.38495 
L 221.701938 180.38495 
L 221.701938 179.586535 
L 222.010967 179.586535 
L 222.010967 178.788119 
L 222.198408 178.788119 
L 222.198408 177.989703 
L 222.452835 177.989703 
L 222.468026 176.392871 
L 222.661732 176.392871 
L 222.661732 175.594455 
L 222.906599 175.594455 
L 223.008322 173.997624 
L 223.117525 173.997624 
L 223.20432 170.80396 
L 223.605667 170.80396 
L 223.605667 170.005545 
L 223.884441 170.005545 
L 223.884441 169.207129 
L 224.306675 169.207129 
L 224.348162 167.610297 
L 224.580887 167.610297 
L 224.628903 166.013465 
L 224.893884 166.013465 
L 224.960454 163.618218 
L 225.051993 163.618218 
L 225.051993 162.819802 
L 226.362053 162.819802 
L 226.4489 161.22297 
L 226.585681 161.22297 
L 226.598173 159.626139 
L 227.015011 159.626139 
L 227.015012 157.230891 
L 227.998267 157.230891 
L 227.998267 156.432475 
L 228.420209 156.432475 
L 228.508334 154.835644 
L 228.711465 154.835644 
L 228.711465 154.037228 
L 229.258671 154.037228 
L 229.258671 153.238812 
L 229.501074 153.238812 
L 229.501074 152.440396 
L 229.673882 152.440396 
L 229.673882 151.64198 
L 229.79885 151.64198 
L 229.79885 150.843564 
L 230.151118 150.843564 
L 230.151118 150.045149 
L 230.535969 150.045149 
L 230.535969 149.246733 
L 230.811606 149.246733 
L 230.811606 148.448317 
L 230.965996 148.448317 
L 230.978139 146.851485 
L 231.531228 146.851485 
L 231.531228 146.053069 
L 231.931107 146.053069 
L 232.024552 144.456238 
L 232.214503 144.456238 
L 232.284697 142.06099 
L 232.370217 142.06099 
L 232.370217 141.262574 
L 232.786796 141.262574 
L 232.786796 140.464158 
L 234.309856 140.464158 
L 234.366942 138.867327 
L 234.444311 138.867327 
L 234.55478 136.472079 
L 234.565283 136.472079 
L 234.632526 134.076832 
L 234.691217 134.076832 
L 234.791908 129.286337 
L 234.879868 129.286337 
L 234.982363 126.092673 
L 235.023692 126.092673 
L 235.126988 123.697426 
L 235.136246 123.697426 
L 235.146542 121.302178 
L 235.309765 121.302178 
L 235.354097 119.705347 
L 235.658738 119.705347 
L 235.759227 116.511683 
L 235.771973 116.511683 
L 235.796156 114.914851 
L 236.930817 114.914851 
L 236.964188 113.31802 
L 237.048147 113.31802 
L 237.048147 112.519604 
L 237.709234 112.519604 
L 237.738145 110.922772 
L 238.329739 110.922772 
L 238.395902 109.325941 
L 238.894773 109.325941 
L 238.894773 108.527525 
L 239.116682 108.527525 
L 239.116682 107.729109 
L 239.475005 107.729109 
L 239.475005 106.930693 
L 239.626094 106.930693 
L 239.657684 105.333861 
L 239.808491 105.333861 
L 239.906223 103.73703 
L 240.354659 103.73703 
L 240.354659 102.938614 
L 240.56276 102.938614 
L 240.646659 100.543366 
L 241.067617 100.543366 
L 241.067617 99.74495 
L 241.37633 99.74495 
L 241.37633 98.946535 
L 241.518071 98.946535 
L 241.518071 98.148119 
L 241.685127 98.148119 
L 241.685127 97.349703 
L 241.998314 97.349703 
L 241.998314 96.551287 
L 242.226819 96.551287 
L 242.333374 94.954455 
L 242.610645 94.954455 
L 242.719662 91.760792 
L 243.556946 91.760792 
L 243.556946 90.962376 
L 243.909093 90.962376 
L 243.909093 90.16396 
L 244.694495 90.16396 
L 244.753893 87.768713 
L 245.377751 87.768713 
L 245.394846 86.171881 
L 245.538232 86.171881 
L 245.625004 83.776634 
L 245.933846 83.776634 
L 245.933846 82.978218 
L 246.287592 82.978218 
L 246.300435 81.381386 
L 248.53183 81.381386 
L 248.589237 79.784554 
L 249.641951 79.784554 
L 249.641951 78.986139 
L 250.528005 78.986139 
L 250.528005 78.187723 
L 251.123396 78.187723 
L 251.123396 77.389307 
L 251.982388 77.389307 
L 251.982388 76.590891 
L 252.212516 76.590891 
L 252.31301 74.195644 
L 252.907963 74.195644 
L 252.907963 73.397228 
L 253.335664 73.397228 
L 253.335664 72.598812 
L 254.322235 72.598812 
L 254.322235 71.800396 
L 254.744257 71.800396 
L 254.744257 71.00198 
L 255.41364 71.00198 
L 255.492695 69.405149 
L 255.806454 69.405149 
L 255.833663 67.808317 
L 256.219375 67.808317 
L 256.219375 67.009901 
L 256.371591 67.009901 
L 256.381012 65.413069 
L 256.610821 65.413069 
L 256.626873 63.816238 
L 256.763484 63.816238 
L 256.763484 63.017822 
L 257.029805 63.017822 
L 257.029805 62.219406 
L 257.17677 62.219406 
L 257.208764 60.622574 
L 257.310824 60.622574 
L 257.310824 59.824158 
L 257.445823 59.824158 
L 257.445823 59.025743 
L 257.697816 59.025743 
L 257.78441 57.428911 
L 257.862034 57.428911 
L 257.862034 56.630495 
L 258.019984 56.630495 
L 258.086595 55.033663 
L 258.255111 55.033663 
L 258.255111 54.235248 
L 258.377064 54.235248 
L 258.482616 51.84 
L 258.581016 51.84 
L 258.581016 51.041584 
L 258.868725 51.041584 
L 258.868725 50.243168 
L 259.007691 50.243168 
L 259.099951 47.847921 
L 259.17909 47.847921 
L 259.251103 45.452673 
L 259.336701 45.452673 
L 259.339707 43.855842 
L 259.720517 43.855842 
L 259.745343 42.25901 
L 267.610619 42.25901 
L 267.610619 41.460594 
L 268.144125 41.460594 
L 268.189185 39.863762 
L 268.960709 39.863762 
L 268.960709 39.065347 
L 269.893793 39.065347 
L 269.976035 37.468515 
L 270.922456 37.468515 
L 270.922456 36.670099 
L 271.841926 36.670099 
L 271.841926 35.871683 
L 272.282902 35.871683 
L 272.345615 34.274851 
L 272.652635 34.274851 
L 272.652635 33.476436 
L 273.732575 33.476436 
L 273.732575 32.67802 
L 274.750378 32.67802 
L 274.750378 31.879604 
L 275.029165 31.879604 
L 275.029165 31.081188 
L 275.446957 31.081188 
L 275.446957 30.282772 
L 305.239905 30.282772 
L 305.239905 29.484356 
L 314.39617 29.484356 
L 314.39617 28.685941 
L 315.748431 28.685941 
L 315.748431 27.887525 
L 316.41074 27.887525 
L 316.41074 27.089109 
L 316.826152 27.089109 
L 316.826152 26.290693 
L 317.298335 26.290693 
L 317.298335 25.492277 
L 318.200846 25.492277 
L 318.280979 23.895446 
L 318.328591 23.895446 
L 318.328591 23.09703 
L 319.568014 23.09703 
L 319.568014 22.298614 
L 319.788624 22.298614 
L 319.788624 21.500198 
L 320.820291 21.500198 
L 320.920937 19.903366 
L 320.98149 19.903366 
L 320.98149 19.10495 
L 321.258854 19.10495 
L 321.258854 18.306535 
L 322.521686 18.306535 
L 322.521686 17.508119 
L 322.881593 17.508119 
L 322.881593 16.709703 
L 324.270774 16.709703 
L 324.313827 15.112871 
L 324.745357 15.112871 
L 324.745357 14.314455 
L 325.075531 14.314455 
L 325.075531 13.51604 
L 325.670052 13.51604 
L 325.7556 11.919208 
L 325.884112 11.919208 
L 325.884112 11.120792 
L 327.153075 11.120792 
L 327.153075 10.322376 
L 327.557505 10.322376 
L 327.557505 9.52396 
L 329.128668 9.52396 
L 329.128668 8.725545 
L 329.532761 8.725545 
L 329.532761 7.927129 
L 333.809067 7.927129 
L 333.809067 7.128713 
L 341.025882 7.128713 
L 341.025882 6.330297 
L 341.025882 6.330297 
L 460.8 6.330297 
L 460.8 6.330297 
" clip-path="url(#pf3d31035d4)" style="fill: none; stroke: #bf00bf; stroke-width: 1.5; stroke-linecap: square"/>
   </g>
   <g id="line2d_27">
    <path d="M -1 237.870891 
L -0.109766 237.870891 
L -0.109766 225.894653 
L 3.687252 225.894653 
L 3.687252 225.096238 
L 4.80321 225.096238 
L 4.80321 224.297822 
L 5.238914 224.297822 
L 5.238914 223.499406 
L 7.59682 223.499406 
L 7.59682 222.70099 
L 8.402971 222.70099 
L 8.402971 221.902574 
L 9.795808 221.902574 
L 9.795808 221.104158 
L 11.828808 221.104158 
L 11.934186 219.507327 
L 12.361439 219.507327 
L 12.468348 217.910495 
L 12.479833 217.910495 
L 12.479833 217.112079 
L 14.129153 217.112079 
L 14.129153 216.313663 
L 15.803254 216.313663 
L 15.803254 215.515248 
L 16.133742 215.515248 
L 16.133742 214.716832 
L 16.452655 214.716832 
L 16.452655 213.918416 
L 17.436696 213.918416 
L 17.465018 212.321584 
L 17.95054 212.321584 
L 17.95054 211.523168 
L 19.206582 211.523168 
L 19.206582 210.724752 
L 24.624504 210.724752 
L 24.624504 209.926337 
L 25.030029 209.926337 
L 25.030029 209.127921 
L 26.28633 209.127921 
L 26.300702 207.531089 
L 31.994524 207.531089 
L 31.994524 206.732673 
L 33.157746 206.732673 
L 33.157746 205.934257 
L 36.249896 205.934257 
L 36.249896 205.135842 
L 37.425086 205.135842 
L 37.425086 204.337426 
L 39.026828 204.337426 
L 39.026828 203.53901 
L 39.497937 203.53901 
L 39.497937 202.740594 
L 53.960807 202.740594 
L 53.960807 201.942178 
L 62.311429 201.942178 
L 62.311429 201.143762 
L 69.719536 201.143762 
L 69.719536 200.345347 
L 70.392205 200.345347 
L 70.392205 199.546931 
L 74.636234 199.546931 
L 74.636234 198.748515 
L 77.783931 198.748515 
L 77.783931 197.950099 
L 79.652545 197.950099 
L 79.652545 197.151683 
L 80.471665 197.151683 
L 80.471665 196.353267 
L 101.853616 196.353267 
L 101.853616 195.554851 
L 102.079877 195.554851 
L 102.079877 194.756436 
L 102.259854 194.756436 
L 102.259854 193.95802 
L 102.397306 193.95802 
L 102.397306 193.159604 
L 104.149822 193.159604 
L 104.149822 192.361188 
L 108.454579 192.361188 
L 108.454579 191.562772 
L 111.294063 191.562772 
L 111.294063 190.764356 
L 112.725938 190.764356 
L 112.725938 189.965941 
L 114.420916 189.965941 
L 114.420916 189.167525 
L 119.106342 189.167525 
L 119.106342 188.369109 
L 121.122106 188.369109 
L 121.122106 187.570693 
L 121.972935 187.570693 
L 121.972935 186.772277 
L 122.637198 186.772277 
L 122.728953 184.37703 
L 123.600141 184.37703 
L 123.600141 183.578614 
L 123.949588 183.578614 
L 123.949588 182.780198 
L 124.8352 182.780198 
L 124.8352 181.981782 
L 128.722054 181.981782 
L 128.722054 181.183366 
L 129.272377 181.183366 
L 129.272377 180.38495 
L 133.660489 180.38495 
L 133.660489 179.586535 
L 134.654666 179.586535 
L 134.654666 178.788119 
L 135.745388 178.788119 
L 135.745388 177.989703 
L 137.455905 177.989703 
L 137.455905 177.191287 
L 138.444489 177.191287 
L 138.444489 176.392871 
L 139.834136 176.392871 
L 139.834136 175.594455 
L 140.233711 175.594455 
L 140.233711 174.79604 
L 142.217022 174.79604 
L 142.217022 173.997624 
L 142.354812 173.997624 
L 142.439583 172.400792 
L 142.570587 172.400792 
L 142.570587 171.602376 
L 143.670653 171.602376 
L 143.670653 170.80396 
L 145.278169 170.80396 
L 145.278169 170.005545 
L 146.168426 170.005545 
L 146.168426 169.207129 
L 146.929445 169.207129 
L 147.023772 167.610297 
L 148.826552 167.610297 
L 148.826552 166.811881 
L 150.957937 166.811881 
L 150.957937 166.013465 
L 152.649766 166.013465 
L 152.649766 165.21505 
L 157.158049 165.21505 
L 157.158049 164.416634 
L 158.632201 164.416634 
L 158.632201 163.618218 
L 164.798338 163.618218 
L 164.798338 162.819802 
L 165.200252 162.819802 
L 165.200252 162.021386 
L 166.243059 162.021386 
L 166.243059 161.22297 
L 166.378882 161.22297 
L 166.378882 160.424554 
L 168.415778 160.424554 
L 168.415778 159.626139 
L 168.794016 159.626139 
L 168.794016 158.827723 
L 170.216387 158.827723 
L 170.216387 158.029307 
L 170.994407 158.029307 
L 170.994407 157.230891 
L 173.462798 157.230891 
L 173.462798 156.432475 
L 173.84676 156.432475 
L 173.857493 154.835644 
L 174.646793 154.835644 
L 174.646793 154.037228 
L 175.210895 154.037228 
L 175.210895 153.238812 
L 177.341807 153.238812 
L 177.341807 152.440396 
L 182.015259 152.440396 
L 182.015259 151.64198 
L 182.661318 151.64198 
L 182.661318 150.843564 
L 183.050729 150.843564 
L 183.050729 150.045149 
L 184.187085 150.045149 
L 184.187085 149.246733 
L 187.051931 149.246733 
L 187.051931 148.448317 
L 191.356546 148.448317 
L 191.356546 147.649901 
L 192.152295 147.649901 
L 192.152295 146.851485 
L 192.45382 146.851485 
L 192.480073 145.254653 
L 194.289276 145.254653 
L 194.289276 144.456238 
L 194.469028 144.456238 
L 194.469028 143.657822 
L 196.766331 143.657822 
L 196.766331 142.859406 
L 196.977203 142.859406 
L 196.977203 142.06099 
L 197.771096 142.06099 
L 197.771096 141.262574 
L 198.149755 141.262574 
L 198.149755 140.464158 
L 199.032707 140.464158 
L 199.032709 136.472079 
L 199.213734 136.472079 
L 199.213734 135.673663 
L 200.667139 135.673663 
L 200.667139 134.875248 
L 201.023917 134.875248 
L 201.023917 134.076832 
L 201.480471 134.076832 
L 201.480471 133.278416 
L 202.119233 133.278416 
L 202.119233 132.48 
L 202.295829 132.48 
L 202.295829 131.681584 
L 202.560373 131.681584 
L 202.560373 130.883168 
L 202.770888 130.883168 
L 202.770888 130.084752 
L 204.999577 130.084752 
L 204.999577 129.286337 
L 205.626745 129.286337 
L 205.680965 127.689505 
L 205.816378 127.689505 
L 205.816378 126.891089 
L 206.258891 126.891089 
L 206.258891 126.092673 
L 207.425032 126.092673 
L 207.506502 124.495842 
L 207.9302 124.495842 
L 208.023201 121.302178 
L 208.068128 121.302178 
L 208.068128 120.503762 
L 208.410303 120.503762 
L 208.410303 119.705347 
L 208.741389 119.705347 
L 208.741389 118.906931 
L 209.599025 118.906931 
L 209.681689 116.511683 
L 210.090787 116.511683 
L 210.097314 114.914851 
L 210.488532 114.914851 
L 210.491918 110.922772 
L 210.654062 110.922772 
L 210.739419 109.325941 
L 210.818674 109.325941 
L 210.925018 106.132277 
L 210.981043 106.132277 
L 210.981043 105.333861 
L 211.378495 105.333861 
L 211.378495 104.535446 
L 211.658265 104.535446 
L 211.720068 102.938614 
L 211.98229 102.938614 
L 212.070548 101.341782 
L 212.271242 101.341782 
L 212.271242 100.543366 
L 212.479037 100.543366 
L 212.486319 98.946535 
L 212.735921 98.946535 
L 212.735921 98.148119 
L 212.885246 98.148119 
L 212.907079 96.551287 
L 213.507565 96.551287 
L 213.596884 94.954455 
L 213.690907 94.954455 
L 213.746919 93.357624 
L 213.961604 93.357624 
L 214.028012 91.760792 
L 214.324849 91.760792 
L 214.367542 90.16396 
L 214.539925 90.16396 
L 214.539925 89.365545 
L 215.641306 89.365545 
L 215.700772 87.768713 
L 216.450317 87.768713 
L 216.450317 86.970297 
L 216.598662 86.970297 
L 216.598662 86.171881 
L 217.398003 86.171881 
L 217.398003 85.373465 
L 217.728173 85.373465 
L 217.728173 84.57505 
L 218.008734 84.57505 
L 218.008734 83.776634 
L 218.219893 83.776634 
L 218.308438 82.179802 
L 218.333463 82.179802 
L 218.333463 81.381386 
L 218.557151 81.381386 
L 218.557151 80.58297 
L 218.817468 80.58297 
L 218.911075 78.187723 
L 219.446567 78.187723 
L 219.446567 77.389307 
L 220.025146 77.389307 
L 220.025146 76.590891 
L 220.287322 76.590891 
L 220.330028 74.994059 
L 220.788595 74.994059 
L 220.832493 73.397228 
L 220.988351 73.397228 
L 220.988351 70.203564 
L 223.515873 70.203564 
L 223.515873 69.405149 
L 224.010898 69.405149 
L 224.010898 68.606733 
L 224.506812 68.606733 
L 224.506812 67.808317 
L 225.051982 67.808317 
L 225.08153 66.211485 
L 227.015007 66.211485 
L 227.015007 64.614653 
L 227.2792 64.614653 
L 227.2792 63.816238 
L 227.831931 63.816238 
L 227.831931 63.017822 
L 229.67386 63.017822 
L 229.67386 62.219406 
L 230.452701 62.219406 
L 230.452706 59.824158 
L 230.571476 59.824158 
L 230.571476 59.025743 
L 230.754635 59.025743 
L 230.754635 58.227327 
L 231.33569 58.227327 
L 231.33569 57.428911 
L 232.153202 57.428911 
L 232.167804 55.033663 
L 234.295015 55.033663 
L 234.295015 52.638416 
L 234.924716 52.638416 
L 234.924716 51.84 
L 235.174857 51.84 
L 235.174857 51.041584 
L 235.521992 51.041584 
L 235.521992 50.243168 
L 236.087827 50.243168 
L 236.08783 48.646337 
L 236.475228 48.646337 
L 236.475228 47.847921 
L 236.626052 47.847921 
L 236.626721 44.654257 
L 237.003183 44.654257 
L 237.003183 43.855842 
L 237.139234 43.855842 
L 237.139234 43.057426 
L 237.621401 43.057426 
L 237.629601 41.460594 
L 238.099091 41.460594 
L 238.099094 39.863762 
L 238.549416 39.863762 
L 238.549416 39.065347 
L 238.982068 39.065347 
L 238.982068 38.266931 
L 239.3984 38.266931 
L 239.3984 37.468515 
L 239.799591 37.468515 
L 239.799591 36.670099 
L 240.186698 36.670099 
L 240.1867 35.073267 
L 240.560681 35.073267 
L 240.560681 34.274851 
L 240.922399 34.274851 
L 240.922399 33.476436 
L 241.272625 33.476436 
L 241.272625 32.67802 
L 241.612079 32.67802 
L 241.612082 31.081188 
L 241.941402 31.081188 
L 241.941402 30.282772 
L 242.874189 30.282772 
L 242.874189 29.484356 
L 244.00661 29.484356 
L 244.00661 28.685941 
L 245.275978 28.685941 
L 245.275978 27.887525 
L 247.719301 27.887525 
L 247.719301 27.089109 
L 251.719889 27.089109 
L 251.719889 26.290693 
L 252.079563 26.290693 
L 252.079563 25.492277 
L 253.76164 25.492277 
L 253.76164 24.693861 
L 254.513285 24.693861 
L 254.513285 23.895446 
L 254.765913 23.895446 
L 254.813565 22.298614 
L 255.126411 22.298614 
L 255.126411 21.500198 
L 255.492695 21.500198 
L 255.525519 19.903366 
L 255.813011 19.903366 
L 255.918225 17.508119 
L 255.929037 17.508119 
L 255.929037 16.709703 
L 256.13612 16.709703 
L 256.13612 15.911287 
L 256.318762 15.911287 
L 256.318762 15.112871 
L 256.433209 15.112871 
L 256.433209 14.314455 
L 257.792196 14.314455 
L 257.792196 13.51604 
L 259.538876 13.51604 
L 259.538876 12.717624 
L 260.451208 12.717624 
L 260.451208 11.919208 
L 260.771724 11.919208 
L 260.771724 11.120792 
L 262.021424 11.120792 
L 262.021424 10.322376 
L 262.371803 10.322376 
L 262.371803 9.52396 
L 263.254482 9.52396 
L 263.254482 8.725545 
L 263.597956 8.725545 
L 263.597956 7.927129 
L 264.354984 7.927129 
L 264.363436 6.330297 
L 264.363436 6.330297 
L 460.8 6.330297 
L 460.8 6.330297 
" clip-path="url(#pf3d31035d4)" style="fill: none; stroke: #000000; stroke-width: 1.5; stroke-linecap: square"/>
   </g>
   <g id="patch_3">
    <path d="M 0 293.76 
L 0 3.456 
" style="fill: none; stroke: #000000; stroke-width: 0.8; stroke-linejoin: miter; stroke-linecap: square"/>
   </g>
   <g id="patch_4">
    <path d="M 460.8 293.76 
L 460.8 3.456 
" style="fill: none; stroke: #000000; stroke-width: 0.8; stroke-linejoin: miter; stroke-linecap: square"/>
   </g>
   <g id="patch_5">
    <path d="M 0 293.76 
L 460.8 293.76 
" style="fill: none; stroke: #000000; stroke-width: 0.8; stroke-linejoin: miter; stroke-linecap: square"/>
   </g>
   <g id="patch_6">
    <path d="M 0 3.456 
L 460.8 3.456 
" style="fill: none; stroke: #000000; stroke-width: 0.8; stroke-linejoin: miter; stroke-linecap: square"/>
   </g>
   <g id="text_6">
    <!-- {f1-f24}, 20-D -->
    <g transform="translate(305.884 287.95392) scale(0.2 -0.2)">
     <defs>
      <path id="DejaVuSans-7b" d="M 3272 -594 
L 3272 -1044 
L 3078 -1044 
Q 2300 -1044 2036 -812 
Q 1772 -581 1772 109 
L 1772 856 
Q 1772 1328 1603 1509 
Q 1434 1691 991 1691 
L 800 1691 
L 800 2138 
L 991 2138 
Q 1438 2138 1605 2317 
Q 1772 2497 1772 2963 
L 1772 3713 
Q 1772 4403 2036 4633 
Q 2300 4863 3078 4863 
L 3272 4863 
L 3272 4416 
L 3059 4416 
Q 2619 4416 2484 4278 
Q 2350 4141 2350 3700 
L 2350 2925 
Q 2350 2434 2208 2212 
Q 2066 1991 1722 1913 
Q 2069 1828 2209 1606 
Q 2350 1384 2350 897 
L 2350 122 
Q 2350 -319 2484 -456 
Q 2619 -594 3059 -594 
L 3272 -594 
z
" transform="scale(0.015625)"/>
      <path id="DejaVuSans-32" d="M 1228 531 
L 3431 531 
L 3431 0 
L 469 0 
L 469 531 
Q 828 903 1448 1529 
Q 2069 2156 2228 2338 
Q 2531 2678 2651 2914 
Q 2772 3150 2772 3378 
Q 2772 3750 2511 3984 
Q 2250 4219 1831 4219 
Q 1534 4219 1204 4116 
Q 875 4013 500 3803 
L 500 4441 
Q 881 4594 1212 4672 
Q 1544 4750 1819 4750 
Q 2544 4750 2975 4387 
Q 3406 4025 3406 3419 
Q 3406 3131 3298 2873 
Q 3191 2616 2906 2266 
Q 2828 2175 2409 1742 
Q 1991 1309 1228 531 
z
" transform="scale(0.015625)"/>
      <path id="DejaVuSans-7d" d="M 800 -594 
L 1019 -594 
Q 1456 -594 1589 -459 
Q 1722 -325 1722 122 
L 1722 897 
Q 1722 1384 1862 1606 
Q 2003 1828 2350 1913 
Q 2003 1991 1862 2212 
Q 1722 2434 1722 2925 
L 1722 3700 
Q 1722 4144 1589 4280 
Q 1456 4416 1019 4416 
L 800 4416 
L 800 4863 
L 997 4863 
Q 1775 4863 2036 4633 
Q 2297 4403 2297 3713 
L 2297 2963 
Q 2297 2497 2465 2317 
Q 2634 2138 3078 2138 
L 3272 2138 
L 3272 1691 
L 3078 1691 
Q 2634 1691 2465 1509 
Q 2297 1328 2297 856 
L 2297 109 
Q 2297 -581 2036 -812 
Q 1775 -1044 997 -1044 
L 800 -1044 
L 800 -594 
z
" transform="scale(0.015625)"/>
      <path id="DejaVuSans-2c" d="M 750 794 
L 1409 794 
L 1409 256 
L 897 -744 
L 494 -744 
L 750 256 
L 750 794 
z
" transform="scale(0.015625)"/>
     </defs>
     <use xlink:href="#DejaVuSans-7b"/>
     <use xlink:href="#DejaVuSans-66" x="63.623047"/>
     <use xlink:href="#DejaVuSans-31" x="98.828125"/>
     <use xlink:href="#DejaVuSans-2d" x="162.451172"/>
     <use xlink:href="#DejaVuSans-66" x="198.535156"/>
     <use xlink:href="#DejaVuSans-32" x="233.740234"/>
     <use xlink:href="#DejaVuSans-34" x="297.363281"/>
     <use xlink:href="#DejaVuSans-7d" x="360.986328"/>
     <use xlink:href="#DejaVuSans-2c" x="424.609375"/>
     <use xlink:href="#DejaVuSans-20" x="456.396484"/>
     <use xlink:href="#DejaVuSans-32" x="488.183594"/>
     <use xlink:href="#DejaVuSans-30" x="551.806641"/>
     <use xlink:href="#DejaVuSans-2d" x="615.429688"/>
     <use xlink:href="#DejaVuSans-44" x="651.513672"/>
    </g>
   </g>
   <g id="text_7">
    <!-- v2.6.3 -->
    <g style="fill: #808080" transform="translate(214.71875 288.777272) scale(0.1 -0.1)">
     <defs>
      <path id="DejaVuSans-76" d="M 191 3500 
L 800 3500 
L 1894 563 
L 2988 3500 
L 3597 3500 
L 2284 0 
L 1503 0 
L 191 3500 
z
" transform="scale(0.015625)"/>
      <path id="DejaVuSans-2e" d="M 684 794 
L 1344 794 
L 1344 0 
L 684 0 
L 684 794 
z
" transform="scale(0.015625)"/>
      <path id="DejaVuSans-36" d="M 2113 2584 
Q 1688 2584 1439 2293 
Q 1191 2003 1191 1497 
Q 1191 994 1439 701 
Q 1688 409 2113 409 
Q 2538 409 2786 701 
Q 3034 994 3034 1497 
Q 3034 2003 2786 2293 
Q 2538 2584 2113 2584 
z
M 3366 4563 
L 3366 3988 
Q 3128 4100 2886 4159 
Q 2644 4219 2406 4219 
Q 1781 4219 1451 3797 
Q 1122 3375 1075 2522 
Q 1259 2794 1537 2939 
Q 1816 3084 2150 3084 
Q 2853 3084 3261 2657 
Q 3669 2231 3669 1497 
Q 3669 778 3244 343 
Q 2819 -91 2113 -91 
Q 1303 -91 875 529 
Q 447 1150 447 2328 
Q 447 3434 972 4092 
Q 1497 4750 2381 4750 
Q 2619 4750 2861 4703 
Q 3103 4656 3366 4563 
z
" transform="scale(0.015625)"/>
      <path id="DejaVuSans-33" d="M 2597 2516 
Q 3050 2419 3304 2112 
Q 3559 1806 3559 1356 
Q 3559 666 3084 287 
Q 2609 -91 1734 -91 
Q 1441 -91 1130 -33 
Q 819 25 488 141 
L 488 750 
Q 750 597 1062 519 
Q 1375 441 1716 441 
Q 2309 441 2620 675 
Q 2931 909 2931 1356 
Q 2931 1769 2642 2001 
Q 2353 2234 1838 2234 
L 1294 2234 
L 1294 2753 
L 1863 2753 
Q 2328 2753 2575 2939 
Q 2822 3125 2822 3475 
Q 2822 3834 2567 4026 
Q 2313 4219 1838 4219 
Q 1578 4219 1281 4162 
Q 984 4106 628 3988 
L 628 4550 
Q 988 4650 1302 4700 
Q 1616 4750 1894 4750 
Q 2613 4750 3031 4423 
Q 3450 4097 3450 3541 
Q 3450 3153 3228 2886 
Q 3006 2619 2597 2516 
z
" transform="scale(0.015625)"/>
     </defs>
     <use xlink:href="#DejaVuSans-76"/>
     <use xlink:href="#DejaVuSans-32" x="59.179688"/>
     <use xlink:href="#DejaVuSans-2e" x="122.802734"/>
     <use xlink:href="#DejaVuSans-36" x="154.589844"/>
     <use xlink:href="#DejaVuSans-2e" x="218.212891"/>
     <use xlink:href="#DejaVuSans-33" x="250"/>
    </g>
   </g>
  </g>
 </g>
 <defs>
  <clipPath id="pf3d31035d4">
   <rect x="0" y="3.456" width="460.8" height="290.304"/>
  </clipPath>
 </defs>
</svg>
