<?xml version="1.0" encoding="utf-8" standalone="no"?>
<!DOCTYPE svg PUBLIC "-//W3C//DTD SVG 1.1//EN"
  "http://www.w3.org/Graphics/SVG/1.1/DTD/svg11.dtd">
<svg xmlns:xlink="http://www.w3.org/1999/xlink" width="460.8pt" height="345.6pt" viewBox="0 0 460.8 345.6" xmlns="http://www.w3.org/2000/svg" version="1.1">
 <metadata>
  <rdf:RDF xmlns:dc="http://purl.org/dc/elements/1.1/" xmlns:cc="http://creativecommons.org/ns#" xmlns:rdf="http://www.w3.org/1999/02/22-rdf-syntax-ns#">
   <cc:Work>
    <dc:type rdf:resource="http://purl.org/dc/dcmitype/StillImage"/>
    <dc:date>2024-06-21T19:18:05.321600</dc:date>
    <dc:format>image/svg+xml</dc:format>
    <dc:creator>
     <cc:Agent>
      <dc:title>Matplotlib v3.7.5, https://matplotlib.org/</dc:title>
     </cc:Agent>
    </dc:creator>
   </cc:Work>
  </rdf:RDF>
 </metadata>
 <defs>
  <style type="text/css">*{stroke-linejoin: round; stroke-linecap: butt}</style>
 </defs>
 <g id="figure_1">
  <g id="patch_1">
   <path d="M 0 345.6 
L 460.8 345.6 
L 460.8 0 
L 0 0 
z
" style="fill: #ffffff"/>
  </g>
  <g id="axes_1">
   <g id="patch_2">
    <path d="M 0 293.76 
L 460.8 293.76 
L 460.8 3.456 
L 0 3.456 
z
" style="fill: #ffffff"/>
   </g>
   <g id="matplotlib.axis_1">
    <g id="xtick_1">
     <g id="line2d_1">
      <path d="M 101.493326 293.76 
L 101.493326 3.456 
" clip-path="url(#p4b6bf78fbe)" style="fill: none; stroke: #b0b0b0; stroke-width: 0.8; stroke-linecap: square"/>
     </g>
     <g id="line2d_2">
      <defs>
       <path id="mfa0c89ad11" d="M 0 0 
L 0 3.5 
" style="stroke: #000000; stroke-width: 0.8"/>
      </defs>
      <g>
       <use xlink:href="#mfa0c89ad11" x="101.493326" y="293.76" style="stroke: #000000; stroke-width: 0.8"/>
      </g>
     </g>
     <g id="text_1">
      <!-- -4 -->
      <g transform="translate(91.523013 315.956875) scale(0.2 -0.2)">
       <defs>
        <path id="DejaVuSans-2d" d="M 313 2009 
L 1997 2009 
L 1997 1497 
L 313 1497 
L 313 2009 
z
" transform="scale(0.015625)"/>
        <path id="DejaVuSans-34" d="M 2419 4116 
L 825 1625 
L 2419 1625 
L 2419 4116 
z
M 2253 4666 
L 3047 4666 
L 3047 1625 
L 3713 1625 
L 3713 1100 
L 3047 1100 
L 3047 0 
L 2419 0 
L 2419 1100 
L 313 1100 
L 313 1709 
L 2253 4666 
z
" transform="scale(0.015625)"/>
       </defs>
       <use xlink:href="#DejaVuSans-2d"/>
       <use xlink:href="#DejaVuSans-34" x="36.083984"/>
      </g>
     </g>
    </g>
    <g id="xtick_2">
     <g id="line2d_3">
      <path d="M 203.096418 293.76 
L 203.096418 3.456 
" clip-path="url(#p4b6bf78fbe)" style="fill: none; stroke: #b0b0b0; stroke-width: 0.8; stroke-linecap: square"/>
     </g>
     <g id="line2d_4">
      <g>
       <use xlink:href="#mfa0c89ad11" x="203.096418" y="293.76" style="stroke: #000000; stroke-width: 0.8"/>
      </g>
     </g>
     <g id="text_2">
      <!-- 0 -->
      <g transform="translate(196.733918 315.956875) scale(0.2 -0.2)">
       <defs>
        <path id="DejaVuSans-30" d="M 2034 4250 
Q 1547 4250 1301 3770 
Q 1056 3291 1056 2328 
Q 1056 1369 1301 889 
Q 1547 409 2034 409 
Q 2525 409 2770 889 
Q 3016 1369 3016 2328 
Q 3016 3291 2770 3770 
Q 2525 4250 2034 4250 
z
M 2034 4750 
Q 2819 4750 3233 4129 
Q 3647 3509 3647 2328 
Q 3647 1150 3233 529 
Q 2819 -91 2034 -91 
Q 1250 -91 836 529 
Q 422 1150 422 2328 
Q 422 3509 836 4129 
Q 1250 4750 2034 4750 
z
" transform="scale(0.015625)"/>
       </defs>
       <use xlink:href="#DejaVuSans-30"/>
      </g>
     </g>
    </g>
    <g id="xtick_3">
     <g id="line2d_5">
      <path d="M 304.699509 293.76 
L 304.699509 3.456 
" clip-path="url(#p4b6bf78fbe)" style="fill: none; stroke: #b0b0b0; stroke-width: 0.8; stroke-linecap: square"/>
     </g>
     <g id="line2d_6">
      <g>
       <use xlink:href="#mfa0c89ad11" x="304.699509" y="293.76" style="stroke: #000000; stroke-width: 0.8"/>
      </g>
     </g>
     <g id="text_3">
      <!-- 4 -->
      <g transform="translate(298.337009 315.956875) scale(0.2 -0.2)">
       <use xlink:href="#DejaVuSans-34"/>
      </g>
     </g>
    </g>
    <g id="xtick_4">
     <g id="line2d_7">
      <path d="M 406.302601 293.76 
L 406.302601 3.456 
" clip-path="url(#p4b6bf78fbe)" style="fill: none; stroke: #b0b0b0; stroke-width: 0.8; stroke-linecap: square"/>
     </g>
     <g id="line2d_8">
      <g>
       <use xlink:href="#mfa0c89ad11" x="406.302601" y="293.76" style="stroke: #000000; stroke-width: 0.8"/>
      </g>
     </g>
     <g id="text_4">
      <!-- 8 -->
      <g transform="translate(399.940101 315.956875) scale(0.2 -0.2)">
       <defs>
        <path id="DejaVuSans-38" d="M 2034 2216 
Q 1584 2216 1326 1975 
Q 1069 1734 1069 1313 
Q 1069 891 1326 650 
Q 1584 409 2034 409 
Q 2484 409 2743 651 
Q 3003 894 3003 1313 
Q 3003 1734 2745 1975 
Q 2488 2216 2034 2216 
z
M 1403 2484 
Q 997 2584 770 2862 
Q 544 3141 544 3541 
Q 544 4100 942 4425 
Q 1341 4750 2034 4750 
Q 2731 4750 3128 4425 
Q 3525 4100 3525 3541 
Q 3525 3141 3298 2862 
Q 3072 2584 2669 2484 
Q 3125 2378 3379 2068 
Q 3634 1759 3634 1313 
Q 3634 634 3220 271 
Q 2806 -91 2034 -91 
Q 1263 -91 848 271 
Q 434 634 434 1313 
Q 434 1759 690 2068 
Q 947 2378 1403 2484 
z
M 1172 3481 
Q 1172 3119 1398 2916 
Q 1625 2713 2034 2713 
Q 2441 2713 2670 2916 
Q 2900 3119 2900 3481 
Q 2900 3844 2670 4047 
Q 2441 4250 2034 4250 
Q 1625 4250 1398 4047 
Q 1172 3844 1172 3481 
z
" transform="scale(0.015625)"/>
       </defs>
       <use xlink:href="#DejaVuSans-38"/>
      </g>
     </g>
    </g>
    <g id="text_5">
     <!-- log10 of Df -->
     <g transform="translate(175.214063 339.313125) scale(0.2 -0.2)">
      <defs>
       <path id="DejaVuSans-6c" d="M 603 4863 
L 1178 4863 
L 1178 0 
L 603 0 
L 603 4863 
z
" transform="scale(0.015625)"/>
       <path id="DejaVuSans-6f" d="M 1959 3097 
Q 1497 3097 1228 2736 
Q 959 2375 959 1747 
Q 959 1119 1226 758 
Q 1494 397 1959 397 
Q 2419 397 2687 759 
Q 2956 1122 2956 1747 
Q 2956 2369 2687 2733 
Q 2419 3097 1959 3097 
z
M 1959 3584 
Q 2709 3584 3137 3096 
Q 3566 2609 3566 1747 
Q 3566 888 3137 398 
Q 2709 -91 1959 -91 
Q 1206 -91 779 398 
Q 353 888 353 1747 
Q 353 2609 779 3096 
Q 1206 3584 1959 3584 
z
" transform="scale(0.015625)"/>
       <path id="DejaVuSans-67" d="M 2906 1791 
Q 2906 2416 2648 2759 
Q 2391 3103 1925 3103 
Q 1463 3103 1205 2759 
Q 947 2416 947 1791 
Q 947 1169 1205 825 
Q 1463 481 1925 481 
Q 2391 481 2648 825 
Q 2906 1169 2906 1791 
z
M 3481 434 
Q 3481 -459 3084 -895 
Q 2688 -1331 1869 -1331 
Q 1566 -1331 1297 -1286 
Q 1028 -1241 775 -1147 
L 775 -588 
Q 1028 -725 1275 -790 
Q 1522 -856 1778 -856 
Q 2344 -856 2625 -561 
Q 2906 -266 2906 331 
L 2906 616 
Q 2728 306 2450 153 
Q 2172 0 1784 0 
Q 1141 0 747 490 
Q 353 981 353 1791 
Q 353 2603 747 3093 
Q 1141 3584 1784 3584 
Q 2172 3584 2450 3431 
Q 2728 3278 2906 2969 
L 2906 3500 
L 3481 3500 
L 3481 434 
z
" transform="scale(0.015625)"/>
       <path id="DejaVuSans-31" d="M 794 531 
L 1825 531 
L 1825 4091 
L 703 3866 
L 703 4441 
L 1819 4666 
L 2450 4666 
L 2450 531 
L 3481 531 
L 3481 0 
L 794 0 
L 794 531 
z
" transform="scale(0.015625)"/>
       <path id="DejaVuSans-20" transform="scale(0.015625)"/>
       <path id="DejaVuSans-66" d="M 2375 4863 
L 2375 4384 
L 1825 4384 
Q 1516 4384 1395 4259 
Q 1275 4134 1275 3809 
L 1275 3500 
L 2222 3500 
L 2222 3053 
L 1275 3053 
L 1275 0 
L 697 0 
L 697 3053 
L 147 3053 
L 147 3500 
L 697 3500 
L 697 3744 
Q 697 4328 969 4595 
Q 1241 4863 1831 4863 
L 2375 4863 
z
" transform="scale(0.015625)"/>
       <path id="DejaVuSans-44" d="M 1259 4147 
L 1259 519 
L 2022 519 
Q 2988 519 3436 956 
Q 3884 1394 3884 2338 
Q 3884 3275 3436 3711 
Q 2988 4147 2022 4147 
L 1259 4147 
z
M 628 4666 
L 1925 4666 
Q 3281 4666 3915 4102 
Q 4550 3538 4550 2338 
Q 4550 1131 3912 565 
Q 3275 0 1925 0 
L 628 0 
L 628 4666 
z
" transform="scale(0.015625)"/>
      </defs>
      <use xlink:href="#DejaVuSans-6c"/>
      <use xlink:href="#DejaVuSans-6f" x="27.783203"/>
      <use xlink:href="#DejaVuSans-67" x="88.964844"/>
      <use xlink:href="#DejaVuSans-31" x="152.441406"/>
      <use xlink:href="#DejaVuSans-30" x="216.064453"/>
      <use xlink:href="#DejaVuSans-20" x="279.6875"/>
      <use xlink:href="#DejaVuSans-6f" x="311.474609"/>
      <use xlink:href="#DejaVuSans-66" x="372.65625"/>
      <use xlink:href="#DejaVuSans-20" x="407.861328"/>
      <use xlink:href="#DejaVuSans-44" x="439.648438"/>
      <use xlink:href="#DejaVuSans-66" x="516.650391"/>
     </g>
    </g>
   </g>
   <g id="matplotlib.axis_2">
    <g id="ytick_1">
     <g id="line2d_9">
      <path d="M 0 293.76 
L 460.8 293.76 
" clip-path="url(#p4b6bf78fbe)" style="fill: none; stroke: #b0b0b0; stroke-width: 0.8; stroke-linecap: square"/>
     </g>
     <g id="line2d_10">
      <defs>
       <path id="ma2a1f4e95a" d="M 0 0 
L -3.5 0 
" style="stroke: #000000; stroke-width: 0.8"/>
      </defs>
      <g>
       <use xlink:href="#ma2a1f4e95a" x="0" y="293.76" style="stroke: #000000; stroke-width: 0.8"/>
      </g>
     </g>
    </g>
    <g id="ytick_2">
     <g id="line2d_11">
      <path d="M 0 236.274059 
L 460.8 236.274059 
" clip-path="url(#p4b6bf78fbe)" style="fill: none; stroke: #b0b0b0; stroke-width: 0.8; stroke-linecap: square"/>
     </g>
     <g id="line2d_12">
      <g>
       <use xlink:href="#ma2a1f4e95a" x="0" y="236.274059" style="stroke: #000000; stroke-width: 0.8"/>
      </g>
     </g>
    </g>
    <g id="ytick_3">
     <g id="line2d_13">
      <path d="M 0 178.788119 
L 460.8 178.788119 
" clip-path="url(#p4b6bf78fbe)" style="fill: none; stroke: #b0b0b0; stroke-width: 0.8; stroke-linecap: square"/>
     </g>
     <g id="line2d_14">
      <g>
       <use xlink:href="#ma2a1f4e95a" x="0" y="178.788119" style="stroke: #000000; stroke-width: 0.8"/>
      </g>
     </g>
    </g>
    <g id="ytick_4">
     <g id="line2d_15">
      <path d="M 0 121.302178 
L 460.8 121.302178 
" clip-path="url(#p4b6bf78fbe)" style="fill: none; stroke: #b0b0b0; stroke-width: 0.8; stroke-linecap: square"/>
     </g>
     <g id="line2d_16">
      <g>
       <use xlink:href="#ma2a1f4e95a" x="0" y="121.302178" style="stroke: #000000; stroke-width: 0.8"/>
      </g>
     </g>
    </g>
    <g id="ytick_5">
     <g id="line2d_17">
      <path d="M 0 63.816238 
L 460.8 63.816238 
" clip-path="url(#p4b6bf78fbe)" style="fill: none; stroke: #b0b0b0; stroke-width: 0.8; stroke-linecap: square"/>
     </g>
     <g id="line2d_18">
      <g>
       <use xlink:href="#ma2a1f4e95a" x="0" y="63.816238" style="stroke: #000000; stroke-width: 0.8"/>
      </g>
     </g>
    </g>
    <g id="ytick_6">
     <g id="line2d_19">
      <path d="M 0 6.330297 
L 460.8 6.330297 
" clip-path="url(#p4b6bf78fbe)" style="fill: none; stroke: #b0b0b0; stroke-width: 0.8; stroke-linecap: square"/>
     </g>
     <g id="line2d_20">
      <g>
       <use xlink:href="#ma2a1f4e95a" x="0" y="6.330297" style="stroke: #000000; stroke-width: 0.8"/>
      </g>
     </g>
    </g>
   </g>
   <g id="line2d_21">
    <path d="M -1 232.441663 
L 3.687252 232.441663 
L 3.687252 228.609267 
L 4.80321 228.609267 
L 4.80321 224.776871 
L 5.238914 224.776871 
L 5.238914 220.944475 
L 8.402971 220.944475 
L 8.402971 217.112079 
L 9.795808 217.112079 
L 9.795808 213.279683 
L 11.828808 213.279683 
L 11.934186 205.614891 
L 12.468348 205.614891 
L 12.479833 197.950099 
L 15.803254 197.950099 
L 15.803254 194.117703 
L 16.133742 194.117703 
L 16.133742 190.285307 
L 17.436696 190.285307 
L 17.465018 182.620515 
L 17.95054 182.620515 
L 17.95054 178.788119 
L 19.206582 178.788119 
L 19.206582 174.955723 
L 24.624504 174.955723 
L 24.624504 171.123327 
L 26.300702 171.123327 
L 26.300702 167.290931 
L 53.960807 167.290931 
L 53.960807 163.458535 
L 70.392205 163.458535 
L 70.392205 159.626139 
L 102.079877 159.626139 
L 102.079877 155.793743 
L 102.397306 155.793743 
L 102.397306 151.961347 
L 104.149822 151.961347 
L 104.149822 148.12895 
L 111.294063 148.12895 
L 111.294063 144.296554 
L 121.972935 144.296554 
L 121.972935 140.464158 
L 123.600141 140.464158 
L 123.600141 136.631762 
L 129.272377 136.631762 
L 129.272377 132.799366 
L 135.745388 132.799366 
L 135.745388 128.96697 
L 139.834136 128.96697 
L 139.834136 125.134574 
L 146.168426 125.134574 
L 146.168426 121.302178 
L 157.158049 121.302178 
L 157.158049 117.469782 
L 168.415778 117.469782 
L 168.415778 113.637386 
L 170.216387 113.637386 
L 170.216387 109.80499 
L 173.857493 109.80499 
L 173.857493 105.972594 
L 174.646793 105.972594 
L 174.646793 102.140198 
L 177.341807 102.140198 
L 177.341807 98.307802 
L 187.051931 98.307802 
L 187.051931 94.475406 
L 192.152295 94.475406 
L 192.152295 90.64301 
L 192.480073 90.64301 
L 192.480073 86.810614 
L 194.469028 86.810614 
L 194.469028 82.978218 
L 196.977203 82.978218 
L 196.977203 79.145822 
L 202.119233 79.145822 
L 202.119233 75.313426 
L 202.560373 75.313426 
L 202.560373 71.48103 
L 202.770888 71.48103 
L 202.770888 67.648634 
L 204.999577 67.648634 
L 204.999577 63.816238 
L 205.626745 63.816238 
L 205.626745 59.983842 
L 205.816378 59.983842 
L 205.816378 56.151446 
L 211.98229 56.151446 
L 211.98229 52.31905 
L 218.219893 52.31905 
L 218.219893 48.486653 
L 247.719301 48.486653 
L 247.719301 44.654257 
L 257.792196 44.654257 
L 257.792196 40.821861 
L 259.538876 40.821861 
L 259.538876 36.989465 
L 260.451208 36.989465 
L 260.451208 33.157069 
L 260.771724 33.157069 
L 260.771724 29.324673 
L 262.021424 29.324673 
L 262.021424 25.492277 
L 262.371803 25.492277 
L 262.371803 21.659881 
L 263.254482 21.659881 
L 263.254482 17.827485 
L 263.597956 17.827485 
L 263.597956 13.995089 
L 264.354984 13.995089 
L 264.363436 6.330297 
L 264.363436 6.330297 
L 460.8 6.330297 
L 460.8 6.330297 
" clip-path="url(#p4b6bf78fbe)" style="fill: none; stroke: #ff0000; stroke-width: 3; stroke-linecap: square"/>
   </g>
   <g id="line2d_22">
    <path d="M 245.052516 293.76 
L 245.052516 289.927604 
L 247.323485 289.927604 
L 247.323485 286.095208 
L 247.486774 286.095208 
L 247.486774 282.262812 
L 248.948544 282.262812 
L 248.948544 278.430416 
L 249.470607 278.430416 
L 249.470607 274.59802 
L 253.06187 274.59802 
L 253.06187 270.765624 
L 253.607078 270.765624 
L 253.607078 266.933228 
L 254.125418 266.933228 
L 254.125418 263.100832 
L 254.85077 263.100832 
L 254.85077 259.268436 
L 255.682495 259.268436 
L 255.693941 251.603644 
L 256.001623 251.603644 
L 256.001623 247.771248 
L 256.626957 247.771248 
L 256.626957 243.938851 
L 257.398495 243.938851 
L 257.398495 240.106455 
L 258.345901 240.106455 
L 258.345901 236.274059 
L 269.893793 236.274059 
L 269.893793 232.441663 
L 283.032736 232.441663 
L 283.032736 228.609267 
L 288.448353 228.609267 
L 288.448353 224.776871 
L 289.521264 224.776871 
L 289.521264 220.944475 
L 289.729233 220.944475 
L 289.729233 217.112079 
L 290.118696 217.112079 
L 290.173455 205.614891 
L 290.559244 205.614891 
L 290.559244 201.782495 
L 290.937925 201.782495 
L 290.949774 194.117703 
L 291.164262 194.117703 
L 291.170355 186.452911 
L 291.435094 186.452911 
L 291.442635 178.788119 
L 292.223142 178.788119 
L 292.223781 171.123327 
L 293.334768 171.123327 
L 293.334768 167.290931 
L 303.797877 167.290931 
L 303.797877 163.458535 
L 308.338541 163.458535 
L 308.338541 159.626139 
L 311.149365 159.626139 
L 311.149365 155.793743 
L 318.489519 155.793743 
L 318.489519 151.961347 
L 319.033048 151.961347 
L 319.033048 148.12895 
L 322.564893 148.12895 
L 322.564893 144.296554 
L 334.348496 144.296554 
L 334.348496 140.464158 
L 334.885231 140.464158 
L 334.885231 136.631762 
L 338.602101 136.631762 
L 338.602101 132.799366 
L 343.617484 132.799366 
L 343.617484 128.96697 
L 346.495457 128.96697 
L 346.495457 125.134574 
L 350.569528 125.134574 
L 350.569528 121.302178 
L 370.191821 121.302178 
L 370.191821 117.469782 
L 371.885377 117.469782 
L 371.885377 113.637386 
L 375.748106 113.637386 
L 375.823308 105.972594 
L 376.901389 105.972594 
L 376.901389 102.140198 
L 377.419906 102.140198 
L 377.419906 98.307802 
L 378.509884 98.307802 
L 378.509884 94.475406 
L 379.632854 94.475406 
L 379.632854 90.64301 
L 380.02443 90.64301 
L 380.02443 86.810614 
L 380.87565 86.810614 
L 380.90053 79.145822 
L 381.032933 79.145822 
L 381.032933 75.313426 
L 384.139718 75.313426 
L 384.139718 71.48103 
L 384.544461 71.48103 
L 384.544461 67.648634 
L 388.197167 67.648634 
L 388.197167 63.816238 
L 413.042259 63.816238 
L 413.042259 59.983842 
L 415.421985 59.983842 
L 415.421985 56.151446 
L 416.52614 56.151446 
L 416.52614 52.31905 
L 417.993804 52.31905 
L 417.993804 48.486653 
L 418.143771 48.486653 
L 418.143771 44.654257 
L 418.801597 44.654257 
L 418.801597 40.821861 
L 419.663113 40.821861 
L 419.663113 36.989465 
L 420.033982 36.989465 
L 420.033982 33.157069 
L 420.155429 33.157069 
L 420.155429 29.324673 
L 422.055768 29.324673 
L 422.055768 25.492277 
L 422.495004 25.492277 
L 422.495004 21.659881 
L 423.099496 21.659881 
L 423.150374 13.995089 
L 428.480442 13.995089 
L 428.480442 10.162693 
L 430.322699 10.162693 
L 430.322699 6.330297 
L 430.322699 6.330297 
L 460.8 6.330297 
L 460.8 6.330297 
" clip-path="url(#p4b6bf78fbe)" style="fill: none; stroke: #00bfbf; stroke-width: 1.5; stroke-linecap: square"/>
   </g>
   <g id="line2d_23">
    <path d="M 245.052516 293.76 
L 245.052516 289.927604 
L 246.915079 289.927604 
L 246.915079 286.095208 
L 247.323485 286.095208 
L 247.323485 282.262812 
L 247.486774 282.262812 
L 247.59699 274.59802 
L 247.718556 274.59802 
L 247.718556 270.765624 
L 248.736611 270.765624 
L 248.736611 266.933228 
L 248.948544 266.933228 
L 248.948544 263.100832 
L 250.318183 263.100832 
L 250.318183 259.268436 
L 250.61987 259.268436 
L 250.61987 255.43604 
L 252.045997 255.43604 
L 252.045997 251.603644 
L 252.714854 251.603644 
L 252.714854 247.771248 
L 253.065461 247.771248 
L 253.065461 243.938851 
L 253.620859 243.938851 
L 253.620859 240.106455 
L 253.750869 240.106455 
L 253.750869 236.274059 
L 268.144125 236.274059 
L 268.144125 232.441663 
L 269.893793 232.441663 
L 269.893793 228.609267 
L 283.032736 228.609267 
L 283.032736 224.776871 
L 285.215888 224.776871 
L 285.215888 220.944475 
L 288.002398 220.944475 
L 288.002398 217.112079 
L 288.448353 217.112079 
L 288.448353 213.279683 
L 289.205877 213.279683 
L 289.205877 209.447287 
L 289.368055 209.447287 
L 289.368055 205.614891 
L 289.521264 205.614891 
L 289.521264 201.782495 
L 289.729233 201.782495 
L 289.778964 194.117703 
L 290.065915 194.117703 
L 290.142228 182.620515 
L 290.517993 182.620515 
L 290.555297 174.955723 
L 290.670976 174.955723 
L 290.670976 171.123327 
L 291.138321 171.123327 
L 291.138321 167.290931 
L 293.334768 167.290931 
L 293.334768 163.458535 
L 295.740793 163.458535 
L 295.740793 159.626139 
L 303.797877 159.626139 
L 303.797877 155.793743 
L 308.338541 155.793743 
L 308.338541 151.961347 
L 311.149365 151.961347 
L 311.149365 148.12895 
L 315.016502 148.12895 
L 315.016502 144.296554 
L 315.474123 144.296554 
L 315.474123 140.464158 
L 315.977632 140.464158 
L 315.977632 136.631762 
L 329.972297 136.631762 
L 330.002527 128.96697 
L 334.348496 128.96697 
L 334.348496 125.134574 
L 338.602101 125.134574 
L 338.602101 121.302178 
L 368.012003 121.302178 
L 368.012003 117.469782 
L 370.191821 117.469782 
L 370.191821 113.637386 
L 371.005728 113.637386 
L 371.005728 109.80499 
L 371.57557 109.80499 
L 371.57557 105.972594 
L 371.885377 105.972594 
L 371.885377 102.140198 
L 372.393531 102.140198 
L 372.393531 98.307802 
L 372.592131 98.307802 
L 372.611217 90.64301 
L 375.384977 90.64301 
L 375.384977 86.810614 
L 375.748106 86.810614 
L 375.748106 82.978218 
L 376.647762 82.978218 
L 376.647762 79.145822 
L 377.672893 79.145822 
L 377.672893 75.313426 
L 378.937734 75.313426 
L 378.937734 71.48103 
L 380.054274 71.48103 
L 380.054274 67.648634 
L 382.803432 67.648634 
L 382.803432 63.816238 
L 413.042259 63.816238 
L 413.042259 59.983842 
L 413.998203 59.983842 
L 413.998203 56.151446 
L 415.383213 56.151446 
L 415.421985 48.486653 
L 415.634191 48.486653 
L 415.634191 44.654257 
L 416.52614 44.654257 
L 416.52614 40.821861 
L 416.851816 40.821861 
L 416.851816 36.989465 
L 417.993804 36.989465 
L 417.993804 33.157069 
L 418.143771 33.157069 
L 418.143771 29.324673 
L 418.872464 29.324673 
L 418.872464 25.492277 
L 419.012683 25.492277 
L 419.012683 21.659881 
L 420.668256 21.659881 
L 420.694115 13.995089 
L 422.055768 13.995089 
L 422.055768 10.162693 
L 422.495004 10.162693 
L 422.495004 6.330297 
L 422.495004 6.330297 
L 460.8 6.330297 
L 460.8 6.330297 
" clip-path="url(#p4b6bf78fbe)" style="fill: none; stroke: #bf00bf; stroke-width: 1.5; stroke-linecap: square"/>
   </g>
   <g id="line2d_24">
    <path d="M 240.235925 293.76 
L 240.235925 289.927604 
L 240.824493 289.927604 
L 240.824493 286.095208 
L 245.052516 286.095208 
L 245.052516 282.262812 
L 245.170231 282.262812 
L 245.170231 278.430416 
L 245.613854 278.430416 
L 245.613854 274.59802 
L 246.348781 274.59802 
L 246.348781 270.765624 
L 246.47185 270.765624 
L 246.47185 266.933228 
L 246.831651 266.933228 
L 246.915079 255.43604 
L 247.323485 255.43604 
L 247.323485 251.603644 
L 248.326875 251.603644 
L 248.326875 247.771248 
L 249.183841 247.771248 
L 249.183841 243.938851 
L 249.319977 243.938851 
L 249.319977 240.106455 
L 250.318183 240.106455 
L 250.318183 236.274059 
L 268.144125 236.274059 
L 268.144125 232.441663 
L 269.893793 232.441663 
L 269.893793 228.609267 
L 271.11011 228.609267 
L 271.11011 224.776871 
L 273.180987 224.776871 
L 273.180987 220.944475 
L 282.484093 220.944475 
L 282.484093 217.112079 
L 283.032736 217.112079 
L 283.032736 213.279683 
L 285.215888 213.279683 
L 285.215888 209.447287 
L 286.674922 209.447287 
L 286.674922 205.614891 
L 286.995601 205.614891 
L 286.995601 201.782495 
L 287.273883 201.782495 
L 287.293914 194.117703 
L 287.630501 194.117703 
L 287.739885 182.620515 
L 287.819499 182.620515 
L 287.819499 178.788119 
L 288.002398 178.788119 
L 288.002398 174.955723 
L 288.603381 174.955723 
L 288.657115 167.290931 
L 289.150523 167.290931 
L 289.200134 159.626139 
L 289.361838 159.626139 
L 289.361838 155.793743 
L 290.762491 155.793743 
L 290.762491 151.961347 
L 294.122647 151.961347 
L 294.122647 148.12895 
L 295.650697 148.12895 
L 295.740793 140.464158 
L 296.238142 140.464158 
L 296.238142 136.631762 
L 303.797877 136.631762 
L 303.797877 132.799366 
L 306.416249 132.799366 
L 306.416249 128.96697 
L 315.715729 128.96697 
L 315.715729 125.134574 
L 335.801681 125.134574 
L 335.801681 121.302178 
L 353.978177 121.302178 
L 353.978177 117.469782 
L 356.730854 117.469782 
L 356.730854 113.637386 
L 360.465951 113.637386 
L 360.465951 109.80499 
L 360.975447 109.80499 
L 360.975447 105.972594 
L 365.046924 105.972594 
L 365.046924 102.140198 
L 366.632929 102.140198 
L 366.632929 98.307802 
L 367.231154 98.307802 
L 367.231154 94.475406 
L 369.133244 94.475406 
L 369.133244 90.64301 
L 369.383413 90.64301 
L 369.383413 86.810614 
L 370.822594 86.810614 
L 370.822594 82.978218 
L 371.005728 82.978218 
L 371.005728 79.145822 
L 372.053126 79.145822 
L 372.053126 75.313426 
L 372.611217 75.313426 
L 372.611217 71.48103 
L 373.073519 71.48103 
L 373.073519 67.648634 
L 376.38501 67.648634 
L 376.38501 63.816238 
L 410.813846 63.816238 
L 410.813846 59.983842 
L 411.127669 59.983842 
L 411.197192 52.31905 
L 411.26682 52.31905 
L 411.26682 48.486653 
L 413.683781 48.486653 
L 413.750105 40.821861 
L 413.998203 40.821861 
L 414.028433 33.157069 
L 415.467287 33.157069 
L 415.467287 29.324673 
L 415.634191 29.324673 
L 415.634191 25.492277 
L 416.129817 25.492277 
L 416.129817 21.659881 
L 416.314477 21.659881 
L 416.314477 17.827485 
L 416.756592 17.827485 
L 416.851816 10.162693 
L 417.265021 10.162693 
L 417.265021 6.330297 
L 417.265021 6.330297 
L 460.8 6.330297 
L 460.8 6.330297 
" clip-path="url(#p4b6bf78fbe)" style="fill: none; stroke: #000000; stroke-width: 1.5; stroke-linecap: square"/>
   </g>
   <g id="line2d_25">
    <path d="M 229.152827 293.76 
L 229.152827 289.927604 
L 229.762444 289.927604 
L 229.762444 286.095208 
L 232.015956 286.095208 
L 232.015956 282.262812 
L 233.319439 282.262812 
L 233.421256 274.59802 
L 236.671269 274.59802 
L 236.671269 270.765624 
L 237.310482 270.765624 
L 237.310482 266.933228 
L 237.454978 266.933228 
L 237.454978 263.100832 
L 238.403941 263.100832 
L 238.497478 255.43604 
L 239.774254 255.43604 
L 239.877661 240.106455 
L 241.289941 240.106455 
L 241.289941 236.274059 
L 268.144125 236.274059 
L 268.144125 232.441663 
L 268.960709 232.441663 
L 268.960709 228.609267 
L 269.893793 228.609267 
L 269.893793 224.776871 
L 270.922456 224.776871 
L 270.922456 220.944475 
L 271.11011 220.944475 
L 271.11011 217.112079 
L 271.841926 217.112079 
L 271.841926 213.279683 
L 272.652635 213.279683 
L 272.652635 209.447287 
L 272.906267 209.447287 
L 272.906267 205.614891 
L 273.732575 205.614891 
L 273.732575 201.782495 
L 275.855014 201.782495 
L 275.855014 197.950099 
L 277.153309 197.950099 
L 277.153309 194.117703 
L 278.386575 194.117703 
L 278.386575 190.285307 
L 278.505506 190.285307 
L 278.61262 182.620515 
L 278.759122 182.620515 
L 278.759122 178.788119 
L 278.873075 178.788119 
L 278.873075 174.955723 
L 279.159884 174.955723 
L 279.159884 171.123327 
L 279.649405 171.123327 
L 279.649405 167.290931 
L 279.960689 167.290931 
L 279.960689 163.458535 
L 280.443142 163.458535 
L 280.443142 159.626139 
L 281.117006 159.626139 
L 281.117006 155.793743 
L 281.297134 155.793743 
L 281.353943 144.296554 
L 281.480525 144.296554 
L 281.480525 140.464158 
L 281.697228 140.464158 
L 281.697228 136.631762 
L 281.940552 136.631762 
L 281.940552 132.799366 
L 282.131224 132.799366 
L 282.131224 128.96697 
L 285.467491 128.96697 
L 285.467491 125.134574 
L 294.105996 125.134574 
L 294.105996 121.302178 
L 343.412114 121.302178 
L 343.412114 117.469782 
L 353.510895 117.469782 
L 353.510895 113.637386 
L 353.978177 113.637386 
L 353.978177 109.80499 
L 355.291041 109.80499 
L 355.291041 105.972594 
L 356.586716 105.972594 
L 356.586716 102.140198 
L 356.865141 102.140198 
L 356.865141 98.307802 
L 358.345751 98.307802 
L 358.345751 94.475406 
L 359.052888 94.475406 
L 359.052888 90.64301 
L 359.468109 90.64301 
L 359.468109 86.810614 
L 359.78415 86.810614 
L 359.78415 82.978218 
L 362.601623 82.978218 
L 362.601623 79.145822 
L 363.290651 79.145822 
L 363.290651 75.313426 
L 364.630618 75.313426 
L 364.630618 71.48103 
L 366.034879 71.48103 
L 366.034879 67.648634 
L 368.904688 67.648634 
L 368.904688 63.816238 
L 391.619886 63.816238 
L 391.619886 59.983842 
L 393.95945 59.983842 
L 393.95945 56.151446 
L 394.084197 56.151446 
L 394.084197 52.31905 
L 395.120919 52.31905 
L 395.120919 48.486653 
L 395.610912 48.486653 
L 395.610912 44.654257 
L 396.54909 44.654257 
L 396.54909 40.821861 
L 396.736112 40.821861 
L 396.736112 36.989465 
L 397.453392 36.989465 
L 397.453392 33.157069 
L 397.601953 33.157069 
L 397.601953 29.324673 
L 397.912493 29.324673 
L 397.912493 25.492277 
L 399.110732 25.492277 
L 399.110732 21.659881 
L 399.846656 21.659881 
L 399.846656 17.827485 
L 400.904828 17.827485 
L 400.904828 13.995089 
L 401.801729 13.995089 
L 401.801729 10.162693 
L 409.547146 10.162693 
L 409.547146 6.330297 
L 409.547146 6.330297 
L 460.8 6.330297 
L 460.8 6.330297 
" clip-path="url(#p4b6bf78fbe)" style="fill: none; stroke: #00bfbf; stroke-width: 1.5; stroke-linecap: square"/>
   </g>
   <g id="line2d_26">
    <path d="M 145.265931 293.76 
L 145.265931 289.927604 
L 148.403435 289.927604 
L 148.403435 286.095208 
L 148.761873 286.095208 
L 148.761873 282.262812 
L 149.045046 282.262812 
L 149.045046 278.430416 
L 151.683718 278.430416 
L 151.708972 270.765624 
L 152.744959 270.765624 
L 152.744959 266.933228 
L 152.921635 266.933228 
L 152.921635 263.100832 
L 153.577057 263.100832 
L 153.577057 259.268436 
L 154.049987 259.268436 
L 154.049987 255.43604 
L 154.309958 255.43604 
L 154.309958 251.603644 
L 154.523248 251.603644 
L 154.523248 247.771248 
L 155.295337 247.771248 
L 155.295337 243.938851 
L 156.565456 243.938851 
L 156.565456 240.106455 
L 157.484539 240.106455 
L 157.484539 236.274059 
L 201.311315 236.274059 
L 201.311315 232.441663 
L 205.044214 232.441663 
L 205.044214 228.609267 
L 208.904477 228.609267 
L 208.904477 224.776871 
L 209.289987 224.776871 
L 209.289987 220.944475 
L 209.72882 220.944475 
L 209.72882 217.112079 
L 210.899829 217.112079 
L 210.955942 209.447287 
L 217.422688 209.447287 
L 217.422688 205.614891 
L 220.084708 205.614891 
L 220.084708 201.782495 
L 223.20432 201.782495 
L 223.20432 197.950099 
L 224.306675 197.950099 
L 224.348162 190.285307 
L 224.893884 190.285307 
L 224.91417 182.620515 
L 226.362053 182.620515 
L 226.362053 178.788119 
L 226.598173 178.788119 
L 226.598173 174.955723 
L 229.79885 174.955723 
L 229.79885 171.123327 
L 230.535969 171.123327 
L 230.535969 167.290931 
L 230.811606 167.290931 
L 230.811606 163.458535 
L 231.531228 163.458535 
L 231.531228 159.626139 
L 232.024552 159.626139 
L 232.024552 155.793743 
L 232.214503 155.793743 
L 232.284697 148.12895 
L 234.309856 148.12895 
L 234.309856 144.296554 
L 238.395902 144.296554 
L 238.395902 140.464158 
L 239.475005 140.464158 
L 239.475005 136.631762 
L 239.626094 136.631762 
L 239.626094 132.799366 
L 244.694495 132.799366 
L 244.753893 125.134574 
L 253.335664 125.134574 
L 253.335664 121.302178 
L 267.610619 121.302178 
L 267.610619 117.469782 
L 268.144125 117.469782 
L 268.189185 109.80499 
L 268.960709 109.80499 
L 268.960709 105.972594 
L 269.893793 105.972594 
L 269.976035 98.307802 
L 270.922456 98.307802 
L 270.922456 94.475406 
L 271.841926 94.475406 
L 271.841926 90.64301 
L 272.282902 90.64301 
L 272.345615 82.978218 
L 272.652635 82.978218 
L 272.652635 79.145822 
L 273.732575 79.145822 
L 273.732575 75.313426 
L 274.750378 75.313426 
L 274.750378 71.48103 
L 275.029165 71.48103 
L 275.029165 67.648634 
L 275.446957 67.648634 
L 275.446957 63.816238 
L 305.239905 63.816238 
L 305.239905 59.983842 
L 314.39617 59.983842 
L 314.39617 56.151446 
L 316.41074 56.151446 
L 316.41074 52.31905 
L 318.280979 52.31905 
L 318.280979 48.486653 
L 320.98149 48.486653 
L 320.98149 44.654257 
L 321.258854 44.654257 
L 321.258854 40.821861 
L 324.270774 40.821861 
L 324.313827 33.157069 
L 324.745357 33.157069 
L 324.745357 29.324673 
L 325.670052 29.324673 
L 325.7556 21.659881 
L 327.153075 21.659881 
L 327.153075 17.827485 
L 327.557505 17.827485 
L 327.557505 13.995089 
L 329.532761 13.995089 
L 329.532761 10.162693 
L 333.809067 10.162693 
L 333.809067 6.330297 
L 333.809067 6.330297 
L 460.8 6.330297 
L 460.8 6.330297 
" clip-path="url(#p4b6bf78fbe)" style="fill: none; stroke: #bf00bf; stroke-width: 1.5; stroke-linecap: square"/>
   </g>
   <g id="line2d_27">
    <path d="M -1 232.441663 
L 3.687252 232.441663 
L 3.687252 228.609267 
L 4.80321 228.609267 
L 4.80321 224.776871 
L 5.238914 224.776871 
L 5.238914 220.944475 
L 8.402971 220.944475 
L 8.402971 217.112079 
L 9.795808 217.112079 
L 9.795808 213.279683 
L 11.828808 213.279683 
L 11.934186 205.614891 
L 12.468348 205.614891 
L 12.479833 197.950099 
L 15.803254 197.950099 
L 15.803254 194.117703 
L 16.133742 194.117703 
L 16.133742 190.285307 
L 17.436696 190.285307 
L 17.465018 182.620515 
L 17.95054 182.620515 
L 17.95054 178.788119 
L 19.206582 178.788119 
L 19.206582 174.955723 
L 24.624504 174.955723 
L 24.624504 171.123327 
L 26.300702 171.123327 
L 26.300702 167.290931 
L 53.960807 167.290931 
L 53.960807 163.458535 
L 70.392205 163.458535 
L 70.392205 159.626139 
L 102.079877 159.626139 
L 102.079877 155.793743 
L 102.397306 155.793743 
L 102.397306 151.961347 
L 104.149822 151.961347 
L 104.149822 148.12895 
L 111.294063 148.12895 
L 111.294063 144.296554 
L 121.972935 144.296554 
L 121.972935 140.464158 
L 123.600141 140.464158 
L 123.600141 136.631762 
L 129.272377 136.631762 
L 129.272377 132.799366 
L 135.745388 132.799366 
L 135.745388 128.96697 
L 139.834136 128.96697 
L 139.834136 125.134574 
L 146.168426 125.134574 
L 146.168426 121.302178 
L 157.158049 121.302178 
L 157.158049 117.469782 
L 168.415778 117.469782 
L 168.415778 113.637386 
L 170.216387 113.637386 
L 170.216387 109.80499 
L 173.857493 109.80499 
L 173.857493 105.972594 
L 174.646793 105.972594 
L 174.646793 102.140198 
L 177.341807 102.140198 
L 177.341807 98.307802 
L 187.051931 98.307802 
L 187.051931 94.475406 
L 192.152295 94.475406 
L 192.152295 90.64301 
L 192.480073 90.64301 
L 192.480073 86.810614 
L 194.469028 86.810614 
L 194.469028 82.978218 
L 196.977203 82.978218 
L 196.977203 79.145822 
L 202.119233 79.145822 
L 202.119233 75.313426 
L 202.560373 75.313426 
L 202.560373 71.48103 
L 202.770888 71.48103 
L 202.770888 67.648634 
L 204.999577 67.648634 
L 204.999577 63.816238 
L 205.626745 63.816238 
L 205.626745 59.983842 
L 205.816378 59.983842 
L 205.816378 56.151446 
L 211.98229 56.151446 
L 211.98229 52.31905 
L 218.219893 52.31905 
L 218.219893 48.486653 
L 247.719301 48.486653 
L 247.719301 44.654257 
L 257.792196 44.654257 
L 257.792196 40.821861 
L 259.538876 40.821861 
L 259.538876 36.989465 
L 260.451208 36.989465 
L 260.451208 33.157069 
L 260.771724 33.157069 
L 260.771724 29.324673 
L 262.021424 29.324673 
L 262.021424 25.492277 
L 262.371803 25.492277 
L 262.371803 21.659881 
L 263.254482 21.659881 
L 263.254482 17.827485 
L 263.597956 17.827485 
L 263.597956 13.995089 
L 264.354984 13.995089 
L 264.363436 6.330297 
L 264.363436 6.330297 
L 460.8 6.330297 
L 460.8 6.330297 
" clip-path="url(#p4b6bf78fbe)" style="fill: none; stroke: #000000; stroke-width: 1.5; stroke-linecap: square"/>
   </g>
   <g id="patch_3">
    <path d="M 0 293.76 
L 0 3.456 
" style="fill: none; stroke: #000000; stroke-width: 0.8; stroke-linejoin: miter; stroke-linecap: square"/>
   </g>
   <g id="patch_4">
    <path d="M 460.8 293.76 
L 460.8 3.456 
" style="fill: none; stroke: #000000; stroke-width: 0.8; stroke-linejoin: miter; stroke-linecap: square"/>
   </g>
   <g id="patch_5">
    <path d="M 0 293.76 
L 460.8 293.76 
" style="fill: none; stroke: #000000; stroke-width: 0.8; stroke-linejoin: miter; stroke-linecap: square"/>
   </g>
   <g id="patch_6">
    <path d="M 0 3.456 
L 460.8 3.456 
" style="fill: none; stroke: #000000; stroke-width: 0.8; stroke-linejoin: miter; stroke-linecap: square"/>
   </g>
   <g id="text_6">
    <!-- {f10-f14}, 20-D -->
    <g transform="translate(293.159 287.95392) scale(0.2 -0.2)">
     <defs>
      <path id="DejaVuSans-7b" d="M 3272 -594 
L 3272 -1044 
L 3078 -1044 
Q 2300 -1044 2036 -812 
Q 1772 -581 1772 109 
L 1772 856 
Q 1772 1328 1603 1509 
Q 1434 1691 991 1691 
L 800 1691 
L 800 2138 
L 991 2138 
Q 1438 2138 1605 2317 
Q 1772 2497 1772 2963 
L 1772 3713 
Q 1772 4403 2036 4633 
Q 2300 4863 3078 4863 
L 3272 4863 
L 3272 4416 
L 3059 4416 
Q 2619 4416 2484 4278 
Q 2350 4141 2350 3700 
L 2350 2925 
Q 2350 2434 2208 2212 
Q 2066 1991 1722 1913 
Q 2069 1828 2209 1606 
Q 2350 1384 2350 897 
L 2350 122 
Q 2350 -319 2484 -456 
Q 2619 -594 3059 -594 
L 3272 -594 
z
" transform="scale(0.015625)"/>
      <path id="DejaVuSans-7d" d="M 800 -594 
L 1019 -594 
Q 1456 -594 1589 -459 
Q 1722 -325 1722 122 
L 1722 897 
Q 1722 1384 1862 1606 
Q 2003 1828 2350 1913 
Q 2003 1991 1862 2212 
Q 1722 2434 1722 2925 
L 1722 3700 
Q 1722 4144 1589 4280 
Q 1456 4416 1019 4416 
L 800 4416 
L 800 4863 
L 997 4863 
Q 1775 4863 2036 4633 
Q 2297 4403 2297 3713 
L 2297 2963 
Q 2297 2497 2465 2317 
Q 2634 2138 3078 2138 
L 3272 2138 
L 3272 1691 
L 3078 1691 
Q 2634 1691 2465 1509 
Q 2297 1328 2297 856 
L 2297 109 
Q 2297 -581 2036 -812 
Q 1775 -1044 997 -1044 
L 800 -1044 
L 800 -594 
z
" transform="scale(0.015625)"/>
      <path id="DejaVuSans-2c" d="M 750 794 
L 1409 794 
L 1409 256 
L 897 -744 
L 494 -744 
L 750 256 
L 750 794 
z
" transform="scale(0.015625)"/>
      <path id="DejaVuSans-32" d="M 1228 531 
L 3431 531 
L 3431 0 
L 469 0 
L 469 531 
Q 828 903 1448 1529 
Q 2069 2156 2228 2338 
Q 2531 2678 2651 2914 
Q 2772 3150 2772 3378 
Q 2772 3750 2511 3984 
Q 2250 4219 1831 4219 
Q 1534 4219 1204 4116 
Q 875 4013 500 3803 
L 500 4441 
Q 881 4594 1212 4672 
Q 1544 4750 1819 4750 
Q 2544 4750 2975 4387 
Q 3406 4025 3406 3419 
Q 3406 3131 3298 2873 
Q 3191 2616 2906 2266 
Q 2828 2175 2409 1742 
Q 1991 1309 1228 531 
z
" transform="scale(0.015625)"/>
     </defs>
     <use xlink:href="#DejaVuSans-7b"/>
     <use xlink:href="#DejaVuSans-66" x="63.623047"/>
     <use xlink:href="#DejaVuSans-31" x="98.828125"/>
     <use xlink:href="#DejaVuSans-30" x="162.451172"/>
     <use xlink:href="#DejaVuSans-2d" x="226.074219"/>
     <use xlink:href="#DejaVuSans-66" x="262.158203"/>
     <use xlink:href="#DejaVuSans-31" x="297.363281"/>
     <use xlink:href="#DejaVuSans-34" x="360.986328"/>
     <use xlink:href="#DejaVuSans-7d" x="424.609375"/>
     <use xlink:href="#DejaVuSans-2c" x="488.232422"/>
     <use xlink:href="#DejaVuSans-20" x="520.019531"/>
     <use xlink:href="#DejaVuSans-32" x="551.806641"/>
     <use xlink:href="#DejaVuSans-30" x="615.429688"/>
     <use xlink:href="#DejaVuSans-2d" x="679.052734"/>
     <use xlink:href="#DejaVuSans-44" x="715.136719"/>
    </g>
   </g>
   <g id="text_7">
    <!-- v2.6.3 -->
    <g style="fill: #808080" transform="translate(214.71875 288.777272) scale(0.1 -0.1)">
     <defs>
      <path id="DejaVuSans-76" d="M 191 3500 
L 800 3500 
L 1894 563 
L 2988 3500 
L 3597 3500 
L 2284 0 
L 1503 0 
L 191 3500 
z
" transform="scale(0.015625)"/>
      <path id="DejaVuSans-2e" d="M 684 794 
L 1344 794 
L 1344 0 
L 684 0 
L 684 794 
z
" transform="scale(0.015625)"/>
      <path id="DejaVuSans-36" d="M 2113 2584 
Q 1688 2584 1439 2293 
Q 1191 2003 1191 1497 
Q 1191 994 1439 701 
Q 1688 409 2113 409 
Q 2538 409 2786 701 
Q 3034 994 3034 1497 
Q 3034 2003 2786 2293 
Q 2538 2584 2113 2584 
z
M 3366 4563 
L 3366 3988 
Q 3128 4100 2886 4159 
Q 2644 4219 2406 4219 
Q 1781 4219 1451 3797 
Q 1122 3375 1075 2522 
Q 1259 2794 1537 2939 
Q 1816 3084 2150 3084 
Q 2853 3084 3261 2657 
Q 3669 2231 3669 1497 
Q 3669 778 3244 343 
Q 2819 -91 2113 -91 
Q 1303 -91 875 529 
Q 447 1150 447 2328 
Q 447 3434 972 4092 
Q 1497 4750 2381 4750 
Q 2619 4750 2861 4703 
Q 3103 4656 3366 4563 
z
" transform="scale(0.015625)"/>
      <path id="DejaVuSans-33" d="M 2597 2516 
Q 3050 2419 3304 2112 
Q 3559 1806 3559 1356 
Q 3559 666 3084 287 
Q 2609 -91 1734 -91 
Q 1441 -91 1130 -33 
Q 819 25 488 141 
L 488 750 
Q 750 597 1062 519 
Q 1375 441 1716 441 
Q 2309 441 2620 675 
Q 2931 909 2931 1356 
Q 2931 1769 2642 2001 
Q 2353 2234 1838 2234 
L 1294 2234 
L 1294 2753 
L 1863 2753 
Q 2328 2753 2575 2939 
Q 2822 3125 2822 3475 
Q 2822 3834 2567 4026 
Q 2313 4219 1838 4219 
Q 1578 4219 1281 4162 
Q 984 4106 628 3988 
L 628 4550 
Q 988 4650 1302 4700 
Q 1616 4750 1894 4750 
Q 2613 4750 3031 4423 
Q 3450 4097 3450 3541 
Q 3450 3153 3228 2886 
Q 3006 2619 2597 2516 
z
" transform="scale(0.015625)"/>
     </defs>
     <use xlink:href="#DejaVuSans-76"/>
     <use xlink:href="#DejaVuSans-32" x="59.179688"/>
     <use xlink:href="#DejaVuSans-2e" x="122.802734"/>
     <use xlink:href="#DejaVuSans-36" x="154.589844"/>
     <use xlink:href="#DejaVuSans-2e" x="218.212891"/>
     <use xlink:href="#DejaVuSans-33" x="250"/>
    </g>
   </g>
  </g>
 </g>
 <defs>
  <clipPath id="p4b6bf78fbe">
   <rect x="0" y="3.456" width="460.8" height="290.304"/>
  </clipPath>
 </defs>
</svg>
