<?xml version="1.0" encoding="utf-8" standalone="no"?>
<!DOCTYPE svg PUBLIC "-//W3C//DTD SVG 1.1//EN"
  "http://www.w3.org/Graphics/SVG/1.1/DTD/svg11.dtd">
<svg xmlns:xlink="http://www.w3.org/1999/xlink" width="460.8pt" height="345.6pt" viewBox="0 0 460.8 345.6" xmlns="http://www.w3.org/2000/svg" version="1.1">
 <metadata>
  <rdf:RDF xmlns:dc="http://purl.org/dc/elements/1.1/" xmlns:cc="http://creativecommons.org/ns#" xmlns:rdf="http://www.w3.org/1999/02/22-rdf-syntax-ns#">
   <cc:Work>
    <dc:type rdf:resource="http://purl.org/dc/dcmitype/StillImage"/>
    <dc:date>2024-06-21T19:18:04.523497</dc:date>
    <dc:format>image/svg+xml</dc:format>
    <dc:creator>
     <cc:Agent>
      <dc:title>Matplotlib v3.7.5, https://matplotlib.org/</dc:title>
     </cc:Agent>
    </dc:creator>
   </cc:Work>
  </rdf:RDF>
 </metadata>
 <defs>
  <style type="text/css">*{stroke-linejoin: round; stroke-linecap: butt}</style>
 </defs>
 <g id="figure_1">
  <g id="patch_1">
   <path d="M 0 345.6 
L 460.8 345.6 
L 460.8 0 
L 0 0 
z
" style="fill: #ffffff"/>
  </g>
  <g id="axes_1">
   <g id="patch_2">
    <path d="M 0 293.76 
L 460.8 293.76 
L 460.8 3.456 
L 0 3.456 
z
" style="fill: #ffffff"/>
   </g>
   <g id="matplotlib.axis_1">
    <g id="xtick_1">
     <g id="line2d_1">
      <path d="M 93.278783 293.76 
L 93.278783 3.456 
" clip-path="url(#p4c36687c24)" style="fill: none; stroke: #b0b0b0; stroke-width: 0.8; stroke-linecap: square"/>
     </g>
     <g id="line2d_2">
      <defs>
       <path id="m1b1bee2c12" d="M 0 0 
L 0 3.5 
" style="stroke: #000000; stroke-width: 0.8"/>
      </defs>
      <g>
       <use xlink:href="#m1b1bee2c12" x="93.278783" y="293.76" style="stroke: #000000; stroke-width: 0.8"/>
      </g>
     </g>
     <g id="text_1">
      <!-- -4 -->
      <g transform="translate(83.308471 315.956875) scale(0.2 -0.2)">
       <defs>
        <path id="DejaVuSans-2d" d="M 313 2009 
L 1997 2009 
L 1997 1497 
L 313 1497 
L 313 2009 
z
" transform="scale(0.015625)"/>
        <path id="DejaVuSans-34" d="M 2419 4116 
L 825 1625 
L 2419 1625 
L 2419 4116 
z
M 2253 4666 
L 3047 4666 
L 3047 1625 
L 3713 1625 
L 3713 1100 
L 3047 1100 
L 3047 0 
L 2419 0 
L 2419 1100 
L 313 1100 
L 313 1709 
L 2253 4666 
z
" transform="scale(0.015625)"/>
       </defs>
       <use xlink:href="#DejaVuSans-2d"/>
       <use xlink:href="#DejaVuSans-34" x="36.083984"/>
      </g>
     </g>
    </g>
    <g id="xtick_2">
     <g id="line2d_3">
      <path d="M 186.658449 293.76 
L 186.658449 3.456 
" clip-path="url(#p4c36687c24)" style="fill: none; stroke: #b0b0b0; stroke-width: 0.8; stroke-linecap: square"/>
     </g>
     <g id="line2d_4">
      <g>
       <use xlink:href="#m1b1bee2c12" x="186.658449" y="293.76" style="stroke: #000000; stroke-width: 0.8"/>
      </g>
     </g>
     <g id="text_2">
      <!-- 0 -->
      <g transform="translate(180.295949 315.956875) scale(0.2 -0.2)">
       <defs>
        <path id="DejaVuSans-30" d="M 2034 4250 
Q 1547 4250 1301 3770 
Q 1056 3291 1056 2328 
Q 1056 1369 1301 889 
Q 1547 409 2034 409 
Q 2525 409 2770 889 
Q 3016 1369 3016 2328 
Q 3016 3291 2770 3770 
Q 2525 4250 2034 4250 
z
M 2034 4750 
Q 2819 4750 3233 4129 
Q 3647 3509 3647 2328 
Q 3647 1150 3233 529 
Q 2819 -91 2034 -91 
Q 1250 -91 836 529 
Q 422 1150 422 2328 
Q 422 3509 836 4129 
Q 1250 4750 2034 4750 
z
" transform="scale(0.015625)"/>
       </defs>
       <use xlink:href="#DejaVuSans-30"/>
      </g>
     </g>
    </g>
    <g id="xtick_3">
     <g id="line2d_5">
      <path d="M 280.038114 293.76 
L 280.038114 3.456 
" clip-path="url(#p4c36687c24)" style="fill: none; stroke: #b0b0b0; stroke-width: 0.8; stroke-linecap: square"/>
     </g>
     <g id="line2d_6">
      <g>
       <use xlink:href="#m1b1bee2c12" x="280.038114" y="293.76" style="stroke: #000000; stroke-width: 0.8"/>
      </g>
     </g>
     <g id="text_3">
      <!-- 4 -->
      <g transform="translate(273.675614 315.956875) scale(0.2 -0.2)">
       <use xlink:href="#DejaVuSans-34"/>
      </g>
     </g>
    </g>
    <g id="xtick_4">
     <g id="line2d_7">
      <path d="M 373.417779 293.76 
L 373.417779 3.456 
" clip-path="url(#p4c36687c24)" style="fill: none; stroke: #b0b0b0; stroke-width: 0.8; stroke-linecap: square"/>
     </g>
     <g id="line2d_8">
      <g>
       <use xlink:href="#m1b1bee2c12" x="373.417779" y="293.76" style="stroke: #000000; stroke-width: 0.8"/>
      </g>
     </g>
     <g id="text_4">
      <!-- 8 -->
      <g transform="translate(367.055279 315.956875) scale(0.2 -0.2)">
       <defs>
        <path id="DejaVuSans-38" d="M 2034 2216 
Q 1584 2216 1326 1975 
Q 1069 1734 1069 1313 
Q 1069 891 1326 650 
Q 1584 409 2034 409 
Q 2484 409 2743 651 
Q 3003 894 3003 1313 
Q 3003 1734 2745 1975 
Q 2488 2216 2034 2216 
z
M 1403 2484 
Q 997 2584 770 2862 
Q 544 3141 544 3541 
Q 544 4100 942 4425 
Q 1341 4750 2034 4750 
Q 2731 4750 3128 4425 
Q 3525 4100 3525 3541 
Q 3525 3141 3298 2862 
Q 3072 2584 2669 2484 
Q 3125 2378 3379 2068 
Q 3634 1759 3634 1313 
Q 3634 634 3220 271 
Q 2806 -91 2034 -91 
Q 1263 -91 848 271 
Q 434 634 434 1313 
Q 434 1759 690 2068 
Q 947 2378 1403 2484 
z
M 1172 3481 
Q 1172 3119 1398 2916 
Q 1625 2713 2034 2713 
Q 2441 2713 2670 2916 
Q 2900 3119 2900 3481 
Q 2900 3844 2670 4047 
Q 2441 4250 2034 4250 
Q 1625 4250 1398 4047 
Q 1172 3844 1172 3481 
z
" transform="scale(0.015625)"/>
       </defs>
       <use xlink:href="#DejaVuSans-38"/>
      </g>
     </g>
    </g>
    <g id="text_5">
     <!-- log10 of Df -->
     <g transform="translate(175.214063 339.313125) scale(0.2 -0.2)">
      <defs>
       <path id="DejaVuSans-6c" d="M 603 4863 
L 1178 4863 
L 1178 0 
L 603 0 
L 603 4863 
z
" transform="scale(0.015625)"/>
       <path id="DejaVuSans-6f" d="M 1959 3097 
Q 1497 3097 1228 2736 
Q 959 2375 959 1747 
Q 959 1119 1226 758 
Q 1494 397 1959 397 
Q 2419 397 2687 759 
Q 2956 1122 2956 1747 
Q 2956 2369 2687 2733 
Q 2419 3097 1959 3097 
z
M 1959 3584 
Q 2709 3584 3137 3096 
Q 3566 2609 3566 1747 
Q 3566 888 3137 398 
Q 2709 -91 1959 -91 
Q 1206 -91 779 398 
Q 353 888 353 1747 
Q 353 2609 779 3096 
Q 1206 3584 1959 3584 
z
" transform="scale(0.015625)"/>
       <path id="DejaVuSans-67" d="M 2906 1791 
Q 2906 2416 2648 2759 
Q 2391 3103 1925 3103 
Q 1463 3103 1205 2759 
Q 947 2416 947 1791 
Q 947 1169 1205 825 
Q 1463 481 1925 481 
Q 2391 481 2648 825 
Q 2906 1169 2906 1791 
z
M 3481 434 
Q 3481 -459 3084 -895 
Q 2688 -1331 1869 -1331 
Q 1566 -1331 1297 -1286 
Q 1028 -1241 775 -1147 
L 775 -588 
Q 1028 -725 1275 -790 
Q 1522 -856 1778 -856 
Q 2344 -856 2625 -561 
Q 2906 -266 2906 331 
L 2906 616 
Q 2728 306 2450 153 
Q 2172 0 1784 0 
Q 1141 0 747 490 
Q 353 981 353 1791 
Q 353 2603 747 3093 
Q 1141 3584 1784 3584 
Q 2172 3584 2450 3431 
Q 2728 3278 2906 2969 
L 2906 3500 
L 3481 3500 
L 3481 434 
z
" transform="scale(0.015625)"/>
       <path id="DejaVuSans-31" d="M 794 531 
L 1825 531 
L 1825 4091 
L 703 3866 
L 703 4441 
L 1819 4666 
L 2450 4666 
L 2450 531 
L 3481 531 
L 3481 0 
L 794 0 
L 794 531 
z
" transform="scale(0.015625)"/>
       <path id="DejaVuSans-20" transform="scale(0.015625)"/>
       <path id="DejaVuSans-66" d="M 2375 4863 
L 2375 4384 
L 1825 4384 
Q 1516 4384 1395 4259 
Q 1275 4134 1275 3809 
L 1275 3500 
L 2222 3500 
L 2222 3053 
L 1275 3053 
L 1275 0 
L 697 0 
L 697 3053 
L 147 3053 
L 147 3500 
L 697 3500 
L 697 3744 
Q 697 4328 969 4595 
Q 1241 4863 1831 4863 
L 2375 4863 
z
" transform="scale(0.015625)"/>
       <path id="DejaVuSans-44" d="M 1259 4147 
L 1259 519 
L 2022 519 
Q 2988 519 3436 956 
Q 3884 1394 3884 2338 
Q 3884 3275 3436 3711 
Q 2988 4147 2022 4147 
L 1259 4147 
z
M 628 4666 
L 1925 4666 
Q 3281 4666 3915 4102 
Q 4550 3538 4550 2338 
Q 4550 1131 3912 565 
Q 3275 0 1925 0 
L 628 0 
L 628 4666 
z
" transform="scale(0.015625)"/>
      </defs>
      <use xlink:href="#DejaVuSans-6c"/>
      <use xlink:href="#DejaVuSans-6f" x="27.783203"/>
      <use xlink:href="#DejaVuSans-67" x="88.964844"/>
      <use xlink:href="#DejaVuSans-31" x="152.441406"/>
      <use xlink:href="#DejaVuSans-30" x="216.064453"/>
      <use xlink:href="#DejaVuSans-20" x="279.6875"/>
      <use xlink:href="#DejaVuSans-6f" x="311.474609"/>
      <use xlink:href="#DejaVuSans-66" x="372.65625"/>
      <use xlink:href="#DejaVuSans-20" x="407.861328"/>
      <use xlink:href="#DejaVuSans-44" x="439.648438"/>
      <use xlink:href="#DejaVuSans-66" x="516.650391"/>
     </g>
    </g>
   </g>
   <g id="matplotlib.axis_2">
    <g id="ytick_1">
     <g id="line2d_9">
      <path d="M 0 293.76 
L 460.8 293.76 
" clip-path="url(#p4c36687c24)" style="fill: none; stroke: #b0b0b0; stroke-width: 0.8; stroke-linecap: square"/>
     </g>
     <g id="line2d_10">
      <defs>
       <path id="m67faed49ca" d="M 0 0 
L -3.5 0 
" style="stroke: #000000; stroke-width: 0.8"/>
      </defs>
      <g>
       <use xlink:href="#m67faed49ca" x="0" y="293.76" style="stroke: #000000; stroke-width: 0.8"/>
      </g>
     </g>
    </g>
    <g id="ytick_2">
     <g id="line2d_11">
      <path d="M 0 236.274059 
L 460.8 236.274059 
" clip-path="url(#p4c36687c24)" style="fill: none; stroke: #b0b0b0; stroke-width: 0.8; stroke-linecap: square"/>
     </g>
     <g id="line2d_12">
      <g>
       <use xlink:href="#m67faed49ca" x="0" y="236.274059" style="stroke: #000000; stroke-width: 0.8"/>
      </g>
     </g>
    </g>
    <g id="ytick_3">
     <g id="line2d_13">
      <path d="M 0 178.788119 
L 460.8 178.788119 
" clip-path="url(#p4c36687c24)" style="fill: none; stroke: #b0b0b0; stroke-width: 0.8; stroke-linecap: square"/>
     </g>
     <g id="line2d_14">
      <g>
       <use xlink:href="#m67faed49ca" x="0" y="178.788119" style="stroke: #000000; stroke-width: 0.8"/>
      </g>
     </g>
    </g>
    <g id="ytick_4">
     <g id="line2d_15">
      <path d="M 0 121.302178 
L 460.8 121.302178 
" clip-path="url(#p4c36687c24)" style="fill: none; stroke: #b0b0b0; stroke-width: 0.8; stroke-linecap: square"/>
     </g>
     <g id="line2d_16">
      <g>
       <use xlink:href="#m67faed49ca" x="0" y="121.302178" style="stroke: #000000; stroke-width: 0.8"/>
      </g>
     </g>
    </g>
    <g id="ytick_5">
     <g id="line2d_17">
      <path d="M 0 63.816238 
L 460.8 63.816238 
" clip-path="url(#p4c36687c24)" style="fill: none; stroke: #b0b0b0; stroke-width: 0.8; stroke-linecap: square"/>
     </g>
     <g id="line2d_18">
      <g>
       <use xlink:href="#m67faed49ca" x="0" y="63.816238" style="stroke: #000000; stroke-width: 0.8"/>
      </g>
     </g>
    </g>
    <g id="ytick_6">
     <g id="line2d_19">
      <path d="M 0 6.330297 
L 460.8 6.330297 
" clip-path="url(#p4c36687c24)" style="fill: none; stroke: #b0b0b0; stroke-width: 0.8; stroke-linecap: square"/>
     </g>
     <g id="line2d_20">
      <g>
       <use xlink:href="#m67faed49ca" x="0" y="6.330297" style="stroke: #000000; stroke-width: 0.8"/>
      </g>
     </g>
    </g>
   </g>
   <g id="line2d_21">
    <path d="M -1 243.938851 
L -0.578074 243.938851 
L -0.578074 240.106455 
L 52.804756 240.106455 
L 52.804756 236.274059 
L 53.134357 236.274059 
L 53.134357 232.441663 
L 57.961088 232.441663 
L 57.961088 228.609267 
L 66.789086 228.609267 
L 66.792504 220.944475 
L 72.500528 220.944475 
L 72.500528 217.112079 
L 72.950824 217.112079 
L 72.950824 213.279683 
L 73.621905 213.279683 
L 73.621905 209.447287 
L 73.910791 209.447287 
L 73.910791 205.614891 
L 82.047059 205.614891 
L 82.047059 201.782495 
L 87.684117 201.782495 
L 87.684117 197.950099 
L 87.846028 197.950099 
L 87.846028 194.117703 
L 88.340161 194.117703 
L 88.340161 190.285307 
L 91.651124 190.285307 
L 91.651124 186.452911 
L 116.478969 186.452911 
L 116.478969 182.620515 
L 120.824635 182.620515 
L 120.824635 178.788119 
L 129.624557 178.788119 
L 129.624557 174.955723 
L 131.945879 174.955723 
L 131.945879 171.123327 
L 134.470727 171.123327 
L 134.470727 167.290931 
L 137.125897 167.290931 
L 137.125897 163.458535 
L 137.808771 163.458535 
L 137.808771 159.626139 
L 139.839422 159.626139 
L 139.839422 155.793743 
L 145.773649 155.793743 
L 145.773649 151.961347 
L 160.371861 151.961347 
L 160.371861 148.12895 
L 161.47328 148.12895 
L 161.47328 144.296554 
L 163.023473 144.296554 
L 163.023473 140.464158 
L 164.839516 140.464158 
L 164.839516 136.631762 
L 165.206868 136.631762 
L 165.206868 132.799366 
L 165.486355 132.799366 
L 165.486355 128.96697 
L 171.026553 128.96697 
L 171.078558 121.302178 
L 171.72869 121.302178 
L 171.72869 117.469782 
L 172.511875 117.469782 
L 172.511875 113.637386 
L 172.931136 113.637386 
L 172.931136 109.80499 
L 173.14126 109.80499 
L 173.14126 105.972594 
L 173.713753 105.972594 
L 173.713753 102.140198 
L 173.872297 102.140198 
L 173.872297 98.307802 
L 174.331653 98.307802 
L 174.331653 94.475406 
L 174.689865 94.475406 
L 174.689865 90.64301 
L 175.866998 90.64301 
L 175.866998 86.810614 
L 176.163333 86.810614 
L 176.163333 82.978218 
L 178.164125 82.978218 
L 178.164125 79.145822 
L 178.676867 79.145822 
L 178.676867 75.313426 
L 180.976326 75.313426 
L 180.976326 71.48103 
L 182.6008 71.48103 
L 182.6008 67.648634 
L 183.86261 67.648634 
L 183.86261 63.816238 
L 184.627679 63.816238 
L 184.627679 59.983842 
L 186.607211 59.983842 
L 186.628205 40.821861 
L 193.634731 40.821861 
L 193.634731 25.492277 
L 197.745567 25.492277 
L 197.745583 10.162693 
L 200.662252 10.162693 
L 200.662252 6.330297 
L 200.662252 6.330297 
L 460.8 6.330297 
L 460.8 6.330297 
" clip-path="url(#p4c36687c24)" style="fill: none; stroke: #ff0000; stroke-width: 3; stroke-linecap: square"/>
   </g>
   <g id="line2d_22">
    <path d="M 204.3457 293.76 
L 204.3457 289.927604 
L 210.482473 289.927604 
L 210.482473 286.095208 
L 212.637759 286.095208 
L 212.637759 282.262812 
L 213.30116 282.262812 
L 213.30116 278.430416 
L 213.882176 278.430416 
L 213.882176 274.59802 
L 215.126296 274.59802 
L 215.126296 270.765624 
L 215.513926 270.765624 
L 215.513926 266.933228 
L 216.371782 266.933228 
L 216.449557 259.268436 
L 216.500131 259.268436 
L 216.500131 255.43604 
L 217.234622 255.43604 
L 217.234622 251.603644 
L 217.660952 251.603644 
L 217.660952 247.771248 
L 218.012902 247.771248 
L 218.012902 243.938851 
L 218.699004 243.938851 
L 218.699004 240.106455 
L 218.860984 240.106455 
L 218.860984 236.274059 
L 219.747078 236.274059 
L 219.747078 232.441663 
L 220.064407 232.441663 
L 220.064407 228.609267 
L 220.46903 228.609267 
L 220.492677 220.944475 
L 221.119835 220.944475 
L 221.119835 217.112079 
L 221.433357 217.112079 
L 221.433357 213.279683 
L 223.206392 213.279683 
L 223.206392 209.447287 
L 223.494808 209.447287 
L 223.521751 201.782495 
L 224.009671 201.782495 
L 224.009671 197.950099 
L 224.466345 197.950099 
L 224.501927 186.452911 
L 224.741727 186.452911 
L 224.741727 182.620515 
L 225.134397 182.620515 
L 225.179549 174.955723 
L 225.352401 174.955723 
L 225.352401 171.123327 
L 225.488121 171.123327 
L 225.488121 167.290931 
L 225.631312 167.290931 
L 225.631312 163.458535 
L 225.790641 163.458535 
L 225.790641 159.626139 
L 226.164466 159.626139 
L 226.164466 155.793743 
L 226.720243 155.793743 
L 226.720243 151.961347 
L 227.203643 151.961347 
L 227.203643 148.12895 
L 227.552197 148.12895 
L 227.552197 144.296554 
L 227.718805 144.296554 
L 227.718805 140.464158 
L 228.194227 140.464158 
L 228.194227 136.631762 
L 228.414582 136.631762 
L 228.414582 132.799366 
L 228.810105 132.799366 
L 228.810105 128.96697 
L 229.469216 128.96697 
L 229.469216 125.134574 
L 229.685808 125.134574 
L 229.685808 121.302178 
L 229.853154 121.302178 
L 229.853154 117.469782 
L 230.110979 117.469782 
L 230.110979 113.637386 
L 230.518685 113.637386 
L 230.629684 105.972594 
L 231.862226 105.972594 
L 231.862226 102.140198 
L 232.876504 102.140198 
L 232.876504 98.307802 
L 233.19714 98.307802 
L 233.19714 94.475406 
L 234.10779 94.475406 
L 234.10779 90.64301 
L 234.744911 90.64301 
L 234.744911 86.810614 
L 235.305675 86.810614 
L 235.305675 82.978218 
L 236.258507 82.978218 
L 236.325596 75.313426 
L 236.436795 75.313426 
L 236.436795 71.48103 
L 236.965188 71.48103 
L 236.965188 67.648634 
L 238.052105 67.648634 
L 238.052105 63.816238 
L 238.642295 63.816238 
L 238.642295 59.983842 
L 240.249898 59.983842 
L 240.249898 56.151446 
L 240.445475 56.151446 
L 240.445475 52.31905 
L 240.877443 52.31905 
L 240.877443 48.486653 
L 241.594084 48.486653 
L 241.594084 44.654257 
L 242.299187 44.654257 
L 242.299187 40.821861 
L 244.641104 40.821861 
L 244.641104 36.989465 
L 246.879596 36.989465 
L 246.879596 33.157069 
L 248.255614 33.157069 
L 248.255614 29.324673 
L 249.169755 29.324673 
L 249.169755 25.492277 
L 253.019467 25.492277 
L 253.019467 21.659881 
L 254.602406 21.659881 
L 254.602406 17.827485 
L 256.172037 17.827485 
L 256.172037 13.995089 
L 257.938696 13.995089 
L 257.938696 10.162693 
L 266.059652 10.162693 
L 266.059652 6.330297 
L 266.059652 6.330297 
L 460.8 6.330297 
L 460.8 6.330297 
" clip-path="url(#p4c36687c24)" style="fill: none; stroke: #00bfbf; stroke-width: 1.5; stroke-linecap: square"/>
   </g>
   <g id="line2d_23">
    <path d="M 204.3457 293.76 
L 204.3457 289.927604 
L 207.936619 289.927604 
L 207.936619 286.095208 
L 210.482473 286.095208 
L 210.482473 282.262812 
L 210.659631 282.262812 
L 210.659631 278.430416 
L 211.068552 278.430416 
L 211.068552 274.59802 
L 211.395189 274.59802 
L 211.395189 270.765624 
L 212.489098 270.765624 
L 212.553259 263.100832 
L 212.637759 263.100832 
L 212.637759 259.268436 
L 213.019253 259.268436 
L 213.019253 255.43604 
L 213.208847 255.43604 
L 213.30116 247.771248 
L 213.573151 247.771248 
L 213.573151 243.938851 
L 213.882176 243.938851 
L 213.882176 240.106455 
L 215.364809 240.106455 
L 215.450782 232.441663 
L 215.513926 232.441663 
L 215.513926 228.609267 
L 215.954523 228.609267 
L 215.954523 224.776871 
L 216.228638 224.776871 
L 216.248684 217.112079 
L 216.500131 217.112079 
L 216.500131 213.279683 
L 218.012902 213.279683 
L 218.012902 209.447287 
L 218.380333 209.447287 
L 218.380333 205.614891 
L 218.522833 205.614891 
L 218.615171 197.950099 
L 218.860984 197.950099 
L 218.860984 194.117703 
L 219.802001 194.117703 
L 219.802001 190.285307 
L 220.064407 190.285307 
L 220.064407 186.452911 
L 220.387316 186.452911 
L 220.387316 182.620515 
L 220.63955 182.620515 
L 220.63955 178.788119 
L 221.119835 178.788119 
L 221.119835 174.955723 
L 221.359882 174.955723 
L 221.433357 167.290931 
L 221.644601 167.290931 
L 221.644601 163.458535 
L 221.884779 163.458535 
L 221.884779 159.626139 
L 222.141678 159.626139 
L 222.23139 151.961347 
L 222.261881 151.961347 
L 222.261881 148.12895 
L 222.958853 148.12895 
L 222.958853 144.296554 
L 223.396473 144.296554 
L 223.494808 132.799366 
L 224.466345 132.799366 
L 224.466345 128.96697 
L 224.769208 128.96697 
L 224.769208 125.134574 
L 225.352401 125.134574 
L 225.429124 117.469782 
L 225.475585 117.469782 
L 225.488121 109.80499 
L 226.720243 109.80499 
L 226.720243 105.972594 
L 226.979212 105.972594 
L 226.979212 102.140198 
L 227.203643 102.140198 
L 227.203643 98.307802 
L 227.552197 98.307802 
L 227.552197 94.475406 
L 227.691857 94.475406 
L 227.691857 90.64301 
L 228.426119 90.64301 
L 228.426119 86.810614 
L 228.669402 86.810614 
L 228.705077 79.145822 
L 230.110881 79.145822 
L 230.116192 71.48103 
L 231.040955 71.48103 
L 231.040955 67.648634 
L 232.317468 67.648634 
L 232.317468 63.816238 
L 232.755433 63.816238 
L 232.755433 59.983842 
L 233.19714 59.983842 
L 233.19714 56.151446 
L 233.526142 56.151446 
L 233.526142 52.31905 
L 234.63999 52.31905 
L 234.63999 48.486653 
L 236.325596 48.486653 
L 236.325596 44.654257 
L 236.965188 44.654257 
L 236.965188 40.821861 
L 237.118602 40.821861 
L 237.118602 36.989465 
L 238.558879 36.989465 
L 238.558879 33.157069 
L 240.099572 33.157069 
L 240.099572 29.324673 
L 240.249898 29.324673 
L 240.249898 25.492277 
L 240.445475 25.492277 
L 240.445475 21.659881 
L 240.877443 21.659881 
L 240.877443 17.827485 
L 241.572203 17.827485 
L 241.572203 13.995089 
L 242.299187 13.995089 
L 242.299187 10.162693 
L 242.654378 10.162693 
L 242.654378 6.330297 
L 242.654378 6.330297 
L 460.8 6.330297 
L 460.8 6.330297 
" clip-path="url(#p4c36687c24)" style="fill: none; stroke: #bf00bf; stroke-width: 1.5; stroke-linecap: square"/>
   </g>
   <g id="line2d_24">
    <path d="M 202.092154 293.76 
L 202.092154 289.927604 
L 205.802926 289.927604 
L 205.802926 286.095208 
L 207.573046 286.095208 
L 207.573046 282.262812 
L 207.901503 282.262812 
L 207.936619 274.59802 
L 209.132833 274.59802 
L 209.132833 270.765624 
L 209.368002 270.765624 
L 209.368002 266.933228 
L 210.482473 266.933228 
L 210.482473 263.100832 
L 210.659631 263.100832 
L 210.764546 255.43604 
L 210.812111 255.43604 
L 210.812111 251.603644 
L 211.068552 251.603644 
L 211.135 243.938851 
L 211.331332 243.938851 
L 211.331332 240.106455 
L 211.831854 240.106455 
L 211.831854 236.274059 
L 212.169832 236.274059 
L 212.266655 228.609267 
L 212.419466 228.609267 
L 212.489098 220.944475 
L 212.553259 220.944475 
L 212.603935 213.279683 
L 212.989556 213.279683 
L 212.989556 209.447287 
L 213.101076 209.447287 
L 213.101076 205.614891 
L 213.36335 205.614891 
L 213.36335 201.782495 
L 213.859133 201.782495 
L 213.859133 197.950099 
L 214.125692 197.950099 
L 214.125692 194.117703 
L 215.00165 194.117703 
L 215.079501 186.452911 
L 215.364809 186.452911 
L 215.364809 182.620515 
L 216.308576 182.620515 
L 216.308576 178.788119 
L 216.936709 178.788119 
L 216.936709 174.955723 
L 218.012902 174.955723 
L 218.012902 171.123327 
L 218.380333 171.123327 
L 218.380333 167.290931 
L 218.54899 167.290931 
L 218.54899 163.458535 
L 218.665808 163.458535 
L 218.674901 155.793743 
L 218.847059 155.793743 
L 218.860984 148.12895 
L 219.802001 148.12895 
L 219.802001 144.296554 
L 220.029106 144.296554 
L 220.064407 136.631762 
L 220.387316 136.631762 
L 220.387316 132.799366 
L 220.63955 132.799366 
L 220.67513 125.134574 
L 221.119835 125.134574 
L 221.119835 121.302178 
L 221.279481 121.302178 
L 221.279481 117.469782 
L 221.644601 117.469782 
L 221.644601 113.637386 
L 221.896015 113.637386 
L 221.896015 109.80499 
L 222.141678 109.80499 
L 222.141678 105.972594 
L 222.491965 105.972594 
L 222.491965 102.140198 
L 222.998594 102.140198 
L 222.998594 98.307802 
L 223.396473 98.307802 
L 223.396473 94.475406 
L 223.53963 94.475406 
L 223.53963 90.64301 
L 225.145485 90.64301 
L 225.145485 86.810614 
L 225.475585 86.810614 
L 225.475585 82.978218 
L 225.970195 82.978218 
L 225.980987 75.313426 
L 227.118639 75.313426 
L 227.118639 71.48103 
L 229.241409 71.48103 
L 229.241409 67.648634 
L 229.672531 67.648634 
L 229.672531 63.816238 
L 230.110881 63.816238 
L 230.110881 59.983842 
L 231.865487 59.983842 
L 231.865487 56.151446 
L 232.049454 56.151446 
L 232.049454 52.31905 
L 232.995433 52.31905 
L 232.995433 48.486653 
L 233.19714 48.486653 
L 233.19714 44.654257 
L 233.526142 44.654257 
L 233.526142 40.821861 
L 234.518893 40.821861 
L 234.518893 36.989465 
L 234.63999 36.989465 
L 234.63999 33.157069 
L 234.988443 33.157069 
L 235.022858 25.492277 
L 236.325596 25.492277 
L 236.325596 21.659881 
L 237.067483 21.659881 
L 237.118602 13.995089 
L 237.772704 13.995089 
L 237.772704 10.162693 
L 242.299187 10.162693 
L 242.299187 6.330297 
L 242.299187 6.330297 
L 460.8 6.330297 
L 460.8 6.330297 
" clip-path="url(#p4c36687c24)" style="fill: none; stroke: #000000; stroke-width: 1.5; stroke-linecap: square"/>
   </g>
   <g id="line2d_25">
    <path d="M 191.052214 293.76 
L 191.052214 289.927604 
L 194.992101 289.927604 
L 194.992101 286.095208 
L 196.184047 286.095208 
L 196.184047 282.262812 
L 197.013597 282.262812 
L 197.013597 278.430416 
L 197.320409 278.430416 
L 197.320409 274.59802 
L 197.5133 274.59802 
L 197.5133 270.765624 
L 198.004177 270.765624 
L 198.004177 266.933228 
L 199.352484 266.933228 
L 199.352484 263.100832 
L 199.712539 263.100832 
L 199.712539 259.268436 
L 200.524172 259.268436 
L 200.524172 255.43604 
L 200.801419 255.43604 
L 200.801419 251.603644 
L 201.247277 251.603644 
L 201.247277 247.771248 
L 201.572374 247.771248 
L 201.572374 243.938851 
L 201.721042 243.938851 
L 201.721042 240.106455 
L 202.05947 240.106455 
L 202.092154 232.441663 
L 202.401139 232.441663 
L 202.401139 228.609267 
L 202.774629 228.609267 
L 202.774629 224.776871 
L 203.079093 224.776871 
L 203.079093 220.944475 
L 203.206367 220.944475 
L 203.206367 217.112079 
L 204.957694 217.112079 
L 204.957694 213.279683 
L 206.006503 213.279683 
L 206.006503 209.447287 
L 206.397019 209.447287 
L 206.397019 205.614891 
L 207.014293 205.614891 
L 207.117672 197.950099 
L 207.483198 197.950099 
L 207.483198 194.117703 
L 207.901503 194.117703 
L 207.901503 190.285307 
L 208.375291 190.285307 
L 208.375291 186.452911 
L 208.641922 186.452911 
L 208.641922 182.620515 
L 209.368002 182.620515 
L 209.368002 178.788119 
L 209.486969 178.788119 
L 209.486969 174.955723 
L 209.741825 174.955723 
L 209.741825 171.123327 
L 210.069892 171.123327 
L 210.069892 167.290931 
L 210.669565 167.290931 
L 210.669565 163.458535 
L 211.389603 163.458535 
L 211.389603 159.626139 
L 213.461962 159.626139 
L 213.461962 155.793743 
L 213.859133 155.793743 
L 213.872651 148.12895 
L 215.00165 148.12895 
L 215.00165 144.296554 
L 215.512222 144.296554 
L 215.512222 140.464158 
L 216.188402 140.464158 
L 216.188402 136.631762 
L 216.307688 136.631762 
L 216.308576 128.96697 
L 216.936709 128.96697 
L 216.936709 125.134574 
L 217.371356 125.134574 
L 217.371356 121.302178 
L 218.380333 121.302178 
L 218.486759 109.80499 
L 218.847059 109.80499 
L 218.928777 102.140198 
L 219.913308 102.140198 
L 219.984915 94.475406 
L 220.064407 94.475406 
L 220.064407 90.64301 
L 220.190474 90.64301 
L 220.190474 86.810614 
L 220.313905 86.810614 
L 220.322233 79.145822 
L 220.609594 79.145822 
L 220.609594 75.313426 
L 220.841441 75.313426 
L 220.915227 67.648634 
L 221.348941 67.648634 
L 221.348941 63.816238 
L 222.100756 63.816238 
L 222.100756 59.983842 
L 226.594462 59.983842 
L 226.594462 56.151446 
L 227.023829 56.151446 
L 227.023829 52.31905 
L 227.212832 52.31905 
L 227.253161 44.654257 
L 228.268806 44.654257 
L 228.268806 40.821861 
L 228.43595 40.821861 
L 228.525177 29.324673 
L 229.151658 29.324673 
L 229.151658 25.492277 
L 230.311247 25.492277 
L 230.311247 21.659881 
L 231.232621 21.659881 
L 231.232621 17.827485 
L 231.680827 17.827485 
L 231.680827 13.995089 
L 232.031391 13.995089 
L 232.031391 10.162693 
L 233.569936 10.162693 
L 233.569936 6.330297 
L 233.569936 6.330297 
L 460.8 6.330297 
L 460.8 6.330297 
" clip-path="url(#p4c36687c24)" style="fill: none; stroke: #00bfbf; stroke-width: 1.5; stroke-linecap: square"/>
   </g>
   <g id="line2d_26">
    <path d="M 154.271585 293.76 
L 154.271585 289.927604 
L 156.811001 289.927604 
L 156.811001 286.095208 
L 157.930806 286.095208 
L 157.930806 282.262812 
L 161.593323 282.262812 
L 161.593323 278.430416 
L 162.552439 278.430416 
L 162.552439 274.59802 
L 164.997455 274.59802 
L 164.997455 270.765624 
L 166.9121 270.765624 
L 166.9121 266.933228 
L 167.2189 266.933228 
L 167.2189 263.100832 
L 167.537833 263.100832 
L 167.537833 259.268436 
L 168.838457 259.268436 
L 168.884029 251.603644 
L 171.044878 251.603644 
L 171.044878 247.771248 
L 172.156688 247.771248 
L 172.156688 243.938851 
L 174.543029 243.938851 
L 174.543029 240.106455 
L 175.076113 240.106455 
L 175.076113 236.274059 
L 176.732253 236.274059 
L 176.732253 232.441663 
L 178.711764 232.441663 
L 178.711764 228.609267 
L 179.165399 228.609267 
L 179.165399 224.776871 
L 179.861705 224.776871 
L 179.861705 220.944475 
L 181.195122 220.944475 
L 181.195122 217.112079 
L 181.402266 217.112079 
L 181.402266 213.279683 
L 183.455341 213.279683 
L 183.455341 209.447287 
L 183.77741 209.447287 
L 183.785854 201.782495 
L 184.34185 201.782495 
L 184.34185 197.950099 
L 184.909139 197.950099 
L 184.909139 194.117703 
L 185.187149 194.117703 
L 185.187149 190.285307 
L 186.124288 190.285307 
L 186.124288 186.452911 
L 186.380733 186.452911 
L 186.380733 182.620515 
L 190.064718 182.620515 
L 190.064718 178.788119 
L 192.001327 178.788119 
L 192.001327 174.955723 
L 192.239767 174.955723 
L 192.239767 171.123327 
L 192.633245 171.123327 
L 192.679103 163.458535 
L 192.818439 163.458535 
L 192.89925 155.793743 
L 193.606969 155.793743 
L 193.606969 151.961347 
L 194.633166 151.961347 
L 194.633166 148.12895 
L 195.391691 148.12895 
L 195.405036 140.464158 
L 196.239747 140.464158 
L 196.320789 132.799366 
L 197.083108 132.799366 
L 197.088012 125.134574 
L 200.360644 125.134574 
L 200.360644 121.302178 
L 201.130376 121.302178 
L 201.130376 117.469782 
L 201.935115 117.469782 
L 201.935115 113.637386 
L 204.387463 113.637386 
L 204.387463 109.80499 
L 204.723714 109.80499 
L 204.723714 105.972594 
L 206.964867 105.972594 
L 206.964867 102.140198 
L 207.139908 102.140198 
L 207.139908 98.307802 
L 207.486865 98.307802 
L 207.486865 94.475406 
L 207.613829 94.475406 
L 207.613829 90.64301 
L 208.375291 90.64301 
L 208.375291 86.810614 
L 208.619155 86.810614 
L 208.619155 82.978218 
L 209.486969 82.978218 
L 209.486969 79.145822 
L 209.678552 79.145822 
L 209.678552 75.313426 
L 210.087376 75.313426 
L 210.087376 71.48103 
L 210.332388 71.48103 
L 210.332388 67.648634 
L 210.949443 67.648634 
L 210.949443 63.816238 
L 211.117301 63.816238 
L 211.117301 59.983842 
L 211.747105 59.983842 
L 211.747105 56.151446 
L 212.154585 56.151446 
L 212.259975 48.486653 
L 212.520503 48.486653 
L 212.614875 36.989465 
L 212.91127 36.989465 
L 212.91127 33.157069 
L 214.501097 33.157069 
L 214.501097 29.324673 
L 214.893953 29.324673 
L 214.893953 25.492277 
L 216.035451 25.492277 
L 216.035451 21.659881 
L 216.526996 21.659881 
L 216.526996 17.827485 
L 217.580285 17.827485 
L 217.580285 13.995089 
L 217.694429 13.995089 
L 217.694429 10.162693 
L 218.383315 10.162693 
L 218.383315 6.330297 
L 218.383315 6.330297 
L 460.8 6.330297 
L 460.8 6.330297 
" clip-path="url(#p4c36687c24)" style="fill: none; stroke: #bf00bf; stroke-width: 1.5; stroke-linecap: square"/>
   </g>
   <g id="line2d_27">
    <path d="M -1 243.938851 
L -0.578074 243.938851 
L -0.578074 240.106455 
L 52.804756 240.106455 
L 52.804756 236.274059 
L 53.134357 236.274059 
L 53.134357 232.441663 
L 57.961088 232.441663 
L 57.961088 228.609267 
L 66.789086 228.609267 
L 66.792504 220.944475 
L 72.500528 220.944475 
L 72.500528 217.112079 
L 72.950824 217.112079 
L 72.950824 213.279683 
L 73.621905 213.279683 
L 73.621905 209.447287 
L 73.910791 209.447287 
L 73.910791 205.614891 
L 82.047059 205.614891 
L 82.047059 201.782495 
L 87.684117 201.782495 
L 87.684117 197.950099 
L 87.846028 197.950099 
L 87.846028 194.117703 
L 88.340161 194.117703 
L 88.340161 190.285307 
L 91.651124 190.285307 
L 91.651124 186.452911 
L 116.478969 186.452911 
L 116.478969 182.620515 
L 120.824635 182.620515 
L 120.824635 178.788119 
L 129.624557 178.788119 
L 129.624557 174.955723 
L 131.945879 174.955723 
L 131.945879 171.123327 
L 134.470727 171.123327 
L 134.470727 167.290931 
L 137.125897 167.290931 
L 137.125897 163.458535 
L 137.808771 163.458535 
L 137.808771 159.626139 
L 139.839422 159.626139 
L 139.839422 155.793743 
L 145.773649 155.793743 
L 145.773649 151.961347 
L 160.371861 151.961347 
L 160.371861 148.12895 
L 161.47328 148.12895 
L 161.47328 144.296554 
L 163.023473 144.296554 
L 163.023473 140.464158 
L 164.839516 140.464158 
L 164.839516 136.631762 
L 165.206868 136.631762 
L 165.206868 132.799366 
L 165.486355 132.799366 
L 165.486355 128.96697 
L 171.026553 128.96697 
L 171.078558 121.302178 
L 171.72869 121.302178 
L 171.72869 117.469782 
L 172.511875 117.469782 
L 172.511875 113.637386 
L 172.931136 113.637386 
L 172.931136 109.80499 
L 173.14126 109.80499 
L 173.14126 105.972594 
L 173.713753 105.972594 
L 173.713753 102.140198 
L 173.872297 102.140198 
L 173.872297 98.307802 
L 174.331653 98.307802 
L 174.331653 94.475406 
L 174.689865 94.475406 
L 174.689865 90.64301 
L 175.866998 90.64301 
L 175.866998 86.810614 
L 176.163333 86.810614 
L 176.163333 82.978218 
L 178.164125 82.978218 
L 178.164125 79.145822 
L 178.676867 79.145822 
L 178.676867 75.313426 
L 180.976326 75.313426 
L 180.976326 71.48103 
L 182.6008 71.48103 
L 182.6008 67.648634 
L 183.86261 67.648634 
L 183.86261 63.816238 
L 184.627679 63.816238 
L 184.627679 59.983842 
L 186.607211 59.983842 
L 186.628205 40.821861 
L 193.634731 40.821861 
L 193.634731 25.492277 
L 197.745567 25.492277 
L 197.745583 10.162693 
L 200.662252 10.162693 
L 200.662252 6.330297 
L 200.662252 6.330297 
L 460.8 6.330297 
L 460.8 6.330297 
" clip-path="url(#p4c36687c24)" style="fill: none; stroke: #000000; stroke-width: 1.5; stroke-linecap: square"/>
   </g>
   <g id="patch_3">
    <path d="M 0 293.76 
L 0 3.456 
" style="fill: none; stroke: #000000; stroke-width: 0.8; stroke-linejoin: miter; stroke-linecap: square"/>
   </g>
   <g id="patch_4">
    <path d="M 460.8 293.76 
L 460.8 3.456 
" style="fill: none; stroke: #000000; stroke-width: 0.8; stroke-linejoin: miter; stroke-linecap: square"/>
   </g>
   <g id="patch_5">
    <path d="M 0 293.76 
L 460.8 293.76 
" style="fill: none; stroke: #000000; stroke-width: 0.8; stroke-linejoin: miter; stroke-linecap: square"/>
   </g>
   <g id="patch_6">
    <path d="M 0 3.456 
L 460.8 3.456 
" style="fill: none; stroke: #000000; stroke-width: 0.8; stroke-linejoin: miter; stroke-linecap: square"/>
   </g>
   <g id="text_6">
    <!-- {f15-f19}, 5-D -->
    <g transform="translate(305.884 287.95392) scale(0.2 -0.2)">
     <defs>
      <path id="DejaVuSans-7b" d="M 3272 -594 
L 3272 -1044 
L 3078 -1044 
Q 2300 -1044 2036 -812 
Q 1772 -581 1772 109 
L 1772 856 
Q 1772 1328 1603 1509 
Q 1434 1691 991 1691 
L 800 1691 
L 800 2138 
L 991 2138 
Q 1438 2138 1605 2317 
Q 1772 2497 1772 2963 
L 1772 3713 
Q 1772 4403 2036 4633 
Q 2300 4863 3078 4863 
L 3272 4863 
L 3272 4416 
L 3059 4416 
Q 2619 4416 2484 4278 
Q 2350 4141 2350 3700 
L 2350 2925 
Q 2350 2434 2208 2212 
Q 2066 1991 1722 1913 
Q 2069 1828 2209 1606 
Q 2350 1384 2350 897 
L 2350 122 
Q 2350 -319 2484 -456 
Q 2619 -594 3059 -594 
L 3272 -594 
z
" transform="scale(0.015625)"/>
      <path id="DejaVuSans-35" d="M 691 4666 
L 3169 4666 
L 3169 4134 
L 1269 4134 
L 1269 2991 
Q 1406 3038 1543 3061 
Q 1681 3084 1819 3084 
Q 2600 3084 3056 2656 
Q 3513 2228 3513 1497 
Q 3513 744 3044 326 
Q 2575 -91 1722 -91 
Q 1428 -91 1123 -41 
Q 819 9 494 109 
L 494 744 
Q 775 591 1075 516 
Q 1375 441 1709 441 
Q 2250 441 2565 725 
Q 2881 1009 2881 1497 
Q 2881 1984 2565 2268 
Q 2250 2553 1709 2553 
Q 1456 2553 1204 2497 
Q 953 2441 691 2322 
L 691 4666 
z
" transform="scale(0.015625)"/>
      <path id="DejaVuSans-39" d="M 703 97 
L 703 672 
Q 941 559 1184 500 
Q 1428 441 1663 441 
Q 2288 441 2617 861 
Q 2947 1281 2994 2138 
Q 2813 1869 2534 1725 
Q 2256 1581 1919 1581 
Q 1219 1581 811 2004 
Q 403 2428 403 3163 
Q 403 3881 828 4315 
Q 1253 4750 1959 4750 
Q 2769 4750 3195 4129 
Q 3622 3509 3622 2328 
Q 3622 1225 3098 567 
Q 2575 -91 1691 -91 
Q 1453 -91 1209 -44 
Q 966 3 703 97 
z
M 1959 2075 
Q 2384 2075 2632 2365 
Q 2881 2656 2881 3163 
Q 2881 3666 2632 3958 
Q 2384 4250 1959 4250 
Q 1534 4250 1286 3958 
Q 1038 3666 1038 3163 
Q 1038 2656 1286 2365 
Q 1534 2075 1959 2075 
z
" transform="scale(0.015625)"/>
      <path id="DejaVuSans-7d" d="M 800 -594 
L 1019 -594 
Q 1456 -594 1589 -459 
Q 1722 -325 1722 122 
L 1722 897 
Q 1722 1384 1862 1606 
Q 2003 1828 2350 1913 
Q 2003 1991 1862 2212 
Q 1722 2434 1722 2925 
L 1722 3700 
Q 1722 4144 1589 4280 
Q 1456 4416 1019 4416 
L 800 4416 
L 800 4863 
L 997 4863 
Q 1775 4863 2036 4633 
Q 2297 4403 2297 3713 
L 2297 2963 
Q 2297 2497 2465 2317 
Q 2634 2138 3078 2138 
L 3272 2138 
L 3272 1691 
L 3078 1691 
Q 2634 1691 2465 1509 
Q 2297 1328 2297 856 
L 2297 109 
Q 2297 -581 2036 -812 
Q 1775 -1044 997 -1044 
L 800 -1044 
L 800 -594 
z
" transform="scale(0.015625)"/>
      <path id="DejaVuSans-2c" d="M 750 794 
L 1409 794 
L 1409 256 
L 897 -744 
L 494 -744 
L 750 256 
L 750 794 
z
" transform="scale(0.015625)"/>
     </defs>
     <use xlink:href="#DejaVuSans-7b"/>
     <use xlink:href="#DejaVuSans-66" x="63.623047"/>
     <use xlink:href="#DejaVuSans-31" x="98.828125"/>
     <use xlink:href="#DejaVuSans-35" x="162.451172"/>
     <use xlink:href="#DejaVuSans-2d" x="226.074219"/>
     <use xlink:href="#DejaVuSans-66" x="262.158203"/>
     <use xlink:href="#DejaVuSans-31" x="297.363281"/>
     <use xlink:href="#DejaVuSans-39" x="360.986328"/>
     <use xlink:href="#DejaVuSans-7d" x="424.609375"/>
     <use xlink:href="#DejaVuSans-2c" x="488.232422"/>
     <use xlink:href="#DejaVuSans-20" x="520.019531"/>
     <use xlink:href="#DejaVuSans-35" x="551.806641"/>
     <use xlink:href="#DejaVuSans-2d" x="615.429688"/>
     <use xlink:href="#DejaVuSans-44" x="651.513672"/>
    </g>
   </g>
   <g id="text_7">
    <!-- v2.6.3 -->
    <g style="fill: #808080" transform="translate(214.71875 288.777272) scale(0.1 -0.1)">
     <defs>
      <path id="DejaVuSans-76" d="M 191 3500 
L 800 3500 
L 1894 563 
L 2988 3500 
L 3597 3500 
L 2284 0 
L 1503 0 
L 191 3500 
z
" transform="scale(0.015625)"/>
      <path id="DejaVuSans-32" d="M 1228 531 
L 3431 531 
L 3431 0 
L 469 0 
L 469 531 
Q 828 903 1448 1529 
Q 2069 2156 2228 2338 
Q 2531 2678 2651 2914 
Q 2772 3150 2772 3378 
Q 2772 3750 2511 3984 
Q 2250 4219 1831 4219 
Q 1534 4219 1204 4116 
Q 875 4013 500 3803 
L 500 4441 
Q 881 4594 1212 4672 
Q 1544 4750 1819 4750 
Q 2544 4750 2975 4387 
Q 3406 4025 3406 3419 
Q 3406 3131 3298 2873 
Q 3191 2616 2906 2266 
Q 2828 2175 2409 1742 
Q 1991 1309 1228 531 
z
" transform="scale(0.015625)"/>
      <path id="DejaVuSans-2e" d="M 684 794 
L 1344 794 
L 1344 0 
L 684 0 
L 684 794 
z
" transform="scale(0.015625)"/>
      <path id="DejaVuSans-36" d="M 2113 2584 
Q 1688 2584 1439 2293 
Q 1191 2003 1191 1497 
Q 1191 994 1439 701 
Q 1688 409 2113 409 
Q 2538 409 2786 701 
Q 3034 994 3034 1497 
Q 3034 2003 2786 2293 
Q 2538 2584 2113 2584 
z
M 3366 4563 
L 3366 3988 
Q 3128 4100 2886 4159 
Q 2644 4219 2406 4219 
Q 1781 4219 1451 3797 
Q 1122 3375 1075 2522 
Q 1259 2794 1537 2939 
Q 1816 3084 2150 3084 
Q 2853 3084 3261 2657 
Q 3669 2231 3669 1497 
Q 3669 778 3244 343 
Q 2819 -91 2113 -91 
Q 1303 -91 875 529 
Q 447 1150 447 2328 
Q 447 3434 972 4092 
Q 1497 4750 2381 4750 
Q 2619 4750 2861 4703 
Q 3103 4656 3366 4563 
z
" transform="scale(0.015625)"/>
      <path id="DejaVuSans-33" d="M 2597 2516 
Q 3050 2419 3304 2112 
Q 3559 1806 3559 1356 
Q 3559 666 3084 287 
Q 2609 -91 1734 -91 
Q 1441 -91 1130 -33 
Q 819 25 488 141 
L 488 750 
Q 750 597 1062 519 
Q 1375 441 1716 441 
Q 2309 441 2620 675 
Q 2931 909 2931 1356 
Q 2931 1769 2642 2001 
Q 2353 2234 1838 2234 
L 1294 2234 
L 1294 2753 
L 1863 2753 
Q 2328 2753 2575 2939 
Q 2822 3125 2822 3475 
Q 2822 3834 2567 4026 
Q 2313 4219 1838 4219 
Q 1578 4219 1281 4162 
Q 984 4106 628 3988 
L 628 4550 
Q 988 4650 1302 4700 
Q 1616 4750 1894 4750 
Q 2613 4750 3031 4423 
Q 3450 4097 3450 3541 
Q 3450 3153 3228 2886 
Q 3006 2619 2597 2516 
z
" transform="scale(0.015625)"/>
     </defs>
     <use xlink:href="#DejaVuSans-76"/>
     <use xlink:href="#DejaVuSans-32" x="59.179688"/>
     <use xlink:href="#DejaVuSans-2e" x="122.802734"/>
     <use xlink:href="#DejaVuSans-36" x="154.589844"/>
     <use xlink:href="#DejaVuSans-2e" x="218.212891"/>
     <use xlink:href="#DejaVuSans-33" x="250"/>
    </g>
   </g>
  </g>
 </g>
 <defs>
  <clipPath id="p4c36687c24">
   <rect x="0" y="3.456" width="460.8" height="290.304"/>
  </clipPath>
 </defs>
</svg>
