<?xml version="1.0" encoding="utf-8" standalone="no"?>
<!DOCTYPE svg PUBLIC "-//W3C//DTD SVG 1.1//EN"
  "http://www.w3.org/Graphics/SVG/1.1/DTD/svg11.dtd">
<svg xmlns:xlink="http://www.w3.org/1999/xlink" width="460.8pt" height="345.6pt" viewBox="0 0 460.8 345.6" xmlns="http://www.w3.org/2000/svg" version="1.1">
 <metadata>
  <rdf:RDF xmlns:dc="http://purl.org/dc/elements/1.1/" xmlns:cc="http://creativecommons.org/ns#" xmlns:rdf="http://www.w3.org/1999/02/22-rdf-syntax-ns#">
   <cc:Work>
    <dc:type rdf:resource="http://purl.org/dc/dcmitype/StillImage"/>
    <dc:date>2024-06-22T18:41:37.378029</dc:date>
    <dc:format>image/svg+xml</dc:format>
    <dc:creator>
     <cc:Agent>
      <dc:title>Matplotlib v3.7.5, https://matplotlib.org/</dc:title>
     </cc:Agent>
    </dc:creator>
   </cc:Work>
  </rdf:RDF>
 </metadata>
 <defs>
  <style type="text/css">*{stroke-linejoin: round; stroke-linecap: butt}</style>
 </defs>
 <g id="figure_1">
  <g id="patch_1">
   <path d="M 0 345.6 
L 460.8 345.6 
L 460.8 0 
L 0 0 
z
" style="fill: #ffffff"/>
  </g>
  <g id="axes_1">
   <g id="patch_2">
    <path d="M 0 293.76 
L 460.8 293.76 
L 460.8 3.456 
L 0 3.456 
z
" style="fill: #ffffff"/>
   </g>
   <g id="matplotlib.axis_1">
    <g id="xtick_1">
     <g id="line2d_1">
      <path d="M 101.493326 293.76 
L 101.493326 3.456 
" clip-path="url(#p15c203730c)" style="fill: none; stroke: #b0b0b0; stroke-width: 0.8; stroke-linecap: square"/>
     </g>
     <g id="line2d_2">
      <defs>
       <path id="mc81fc9c9cb" d="M 0 0 
L 0 3.5 
" style="stroke: #000000; stroke-width: 0.8"/>
      </defs>
      <g>
       <use xlink:href="#mc81fc9c9cb" x="101.493326" y="293.76" style="stroke: #000000; stroke-width: 0.8"/>
      </g>
     </g>
     <g id="text_1">
      <!-- -4 -->
      <g transform="translate(91.523013 315.956875) scale(0.2 -0.2)">
       <defs>
        <path id="DejaVuSans-2d" d="M 313 2009 
L 1997 2009 
L 1997 1497 
L 313 1497 
L 313 2009 
z
" transform="scale(0.015625)"/>
        <path id="DejaVuSans-34" d="M 2419 4116 
L 825 1625 
L 2419 1625 
L 2419 4116 
z
M 2253 4666 
L 3047 4666 
L 3047 1625 
L 3713 1625 
L 3713 1100 
L 3047 1100 
L 3047 0 
L 2419 0 
L 2419 1100 
L 313 1100 
L 313 1709 
L 2253 4666 
z
" transform="scale(0.015625)"/>
       </defs>
       <use xlink:href="#DejaVuSans-2d"/>
       <use xlink:href="#DejaVuSans-34" x="36.083984"/>
      </g>
     </g>
    </g>
    <g id="xtick_2">
     <g id="line2d_3">
      <path d="M 203.096418 293.76 
L 203.096418 3.456 
" clip-path="url(#p15c203730c)" style="fill: none; stroke: #b0b0b0; stroke-width: 0.8; stroke-linecap: square"/>
     </g>
     <g id="line2d_4">
      <g>
       <use xlink:href="#mc81fc9c9cb" x="203.096418" y="293.76" style="stroke: #000000; stroke-width: 0.8"/>
      </g>
     </g>
     <g id="text_2">
      <!-- 0 -->
      <g transform="translate(196.733918 315.956875) scale(0.2 -0.2)">
       <defs>
        <path id="DejaVuSans-30" d="M 2034 4250 
Q 1547 4250 1301 3770 
Q 1056 3291 1056 2328 
Q 1056 1369 1301 889 
Q 1547 409 2034 409 
Q 2525 409 2770 889 
Q 3016 1369 3016 2328 
Q 3016 3291 2770 3770 
Q 2525 4250 2034 4250 
z
M 2034 4750 
Q 2819 4750 3233 4129 
Q 3647 3509 3647 2328 
Q 3647 1150 3233 529 
Q 2819 -91 2034 -91 
Q 1250 -91 836 529 
Q 422 1150 422 2328 
Q 422 3509 836 4129 
Q 1250 4750 2034 4750 
z
" transform="scale(0.015625)"/>
       </defs>
       <use xlink:href="#DejaVuSans-30"/>
      </g>
     </g>
    </g>
    <g id="xtick_3">
     <g id="line2d_5">
      <path d="M 304.699509 293.76 
L 304.699509 3.456 
" clip-path="url(#p15c203730c)" style="fill: none; stroke: #b0b0b0; stroke-width: 0.8; stroke-linecap: square"/>
     </g>
     <g id="line2d_6">
      <g>
       <use xlink:href="#mc81fc9c9cb" x="304.699509" y="293.76" style="stroke: #000000; stroke-width: 0.8"/>
      </g>
     </g>
     <g id="text_3">
      <!-- 4 -->
      <g transform="translate(298.337009 315.956875) scale(0.2 -0.2)">
       <use xlink:href="#DejaVuSans-34"/>
      </g>
     </g>
    </g>
    <g id="xtick_4">
     <g id="line2d_7">
      <path d="M 406.302601 293.76 
L 406.302601 3.456 
" clip-path="url(#p15c203730c)" style="fill: none; stroke: #b0b0b0; stroke-width: 0.8; stroke-linecap: square"/>
     </g>
     <g id="line2d_8">
      <g>
       <use xlink:href="#mc81fc9c9cb" x="406.302601" y="293.76" style="stroke: #000000; stroke-width: 0.8"/>
      </g>
     </g>
     <g id="text_4">
      <!-- 8 -->
      <g transform="translate(399.940101 315.956875) scale(0.2 -0.2)">
       <defs>
        <path id="DejaVuSans-38" d="M 2034 2216 
Q 1584 2216 1326 1975 
Q 1069 1734 1069 1313 
Q 1069 891 1326 650 
Q 1584 409 2034 409 
Q 2484 409 2743 651 
Q 3003 894 3003 1313 
Q 3003 1734 2745 1975 
Q 2488 2216 2034 2216 
z
M 1403 2484 
Q 997 2584 770 2862 
Q 544 3141 544 3541 
Q 544 4100 942 4425 
Q 1341 4750 2034 4750 
Q 2731 4750 3128 4425 
Q 3525 4100 3525 3541 
Q 3525 3141 3298 2862 
Q 3072 2584 2669 2484 
Q 3125 2378 3379 2068 
Q 3634 1759 3634 1313 
Q 3634 634 3220 271 
Q 2806 -91 2034 -91 
Q 1263 -91 848 271 
Q 434 634 434 1313 
Q 434 1759 690 2068 
Q 947 2378 1403 2484 
z
M 1172 3481 
Q 1172 3119 1398 2916 
Q 1625 2713 2034 2713 
Q 2441 2713 2670 2916 
Q 2900 3119 2900 3481 
Q 2900 3844 2670 4047 
Q 2441 4250 2034 4250 
Q 1625 4250 1398 4047 
Q 1172 3844 1172 3481 
z
" transform="scale(0.015625)"/>
       </defs>
       <use xlink:href="#DejaVuSans-38"/>
      </g>
     </g>
    </g>
    <g id="text_5">
     <!-- log10 of Df -->
     <g transform="translate(175.214063 339.313125) scale(0.2 -0.2)">
      <defs>
       <path id="DejaVuSans-6c" d="M 603 4863 
L 1178 4863 
L 1178 0 
L 603 0 
L 603 4863 
z
" transform="scale(0.015625)"/>
       <path id="DejaVuSans-6f" d="M 1959 3097 
Q 1497 3097 1228 2736 
Q 959 2375 959 1747 
Q 959 1119 1226 758 
Q 1494 397 1959 397 
Q 2419 397 2687 759 
Q 2956 1122 2956 1747 
Q 2956 2369 2687 2733 
Q 2419 3097 1959 3097 
z
M 1959 3584 
Q 2709 3584 3137 3096 
Q 3566 2609 3566 1747 
Q 3566 888 3137 398 
Q 2709 -91 1959 -91 
Q 1206 -91 779 398 
Q 353 888 353 1747 
Q 353 2609 779 3096 
Q 1206 3584 1959 3584 
z
" transform="scale(0.015625)"/>
       <path id="DejaVuSans-67" d="M 2906 1791 
Q 2906 2416 2648 2759 
Q 2391 3103 1925 3103 
Q 1463 3103 1205 2759 
Q 947 2416 947 1791 
Q 947 1169 1205 825 
Q 1463 481 1925 481 
Q 2391 481 2648 825 
Q 2906 1169 2906 1791 
z
M 3481 434 
Q 3481 -459 3084 -895 
Q 2688 -1331 1869 -1331 
Q 1566 -1331 1297 -1286 
Q 1028 -1241 775 -1147 
L 775 -588 
Q 1028 -725 1275 -790 
Q 1522 -856 1778 -856 
Q 2344 -856 2625 -561 
Q 2906 -266 2906 331 
L 2906 616 
Q 2728 306 2450 153 
Q 2172 0 1784 0 
Q 1141 0 747 490 
Q 353 981 353 1791 
Q 353 2603 747 3093 
Q 1141 3584 1784 3584 
Q 2172 3584 2450 3431 
Q 2728 3278 2906 2969 
L 2906 3500 
L 3481 3500 
L 3481 434 
z
" transform="scale(0.015625)"/>
       <path id="DejaVuSans-31" d="M 794 531 
L 1825 531 
L 1825 4091 
L 703 3866 
L 703 4441 
L 1819 4666 
L 2450 4666 
L 2450 531 
L 3481 531 
L 3481 0 
L 794 0 
L 794 531 
z
" transform="scale(0.015625)"/>
       <path id="DejaVuSans-20" transform="scale(0.015625)"/>
       <path id="DejaVuSans-66" d="M 2375 4863 
L 2375 4384 
L 1825 4384 
Q 1516 4384 1395 4259 
Q 1275 4134 1275 3809 
L 1275 3500 
L 2222 3500 
L 2222 3053 
L 1275 3053 
L 1275 0 
L 697 0 
L 697 3053 
L 147 3053 
L 147 3500 
L 697 3500 
L 697 3744 
Q 697 4328 969 4595 
Q 1241 4863 1831 4863 
L 2375 4863 
z
" transform="scale(0.015625)"/>
       <path id="DejaVuSans-44" d="M 1259 4147 
L 1259 519 
L 2022 519 
Q 2988 519 3436 956 
Q 3884 1394 3884 2338 
Q 3884 3275 3436 3711 
Q 2988 4147 2022 4147 
L 1259 4147 
z
M 628 4666 
L 1925 4666 
Q 3281 4666 3915 4102 
Q 4550 3538 4550 2338 
Q 4550 1131 3912 565 
Q 3275 0 1925 0 
L 628 0 
L 628 4666 
z
" transform="scale(0.015625)"/>
      </defs>
      <use xlink:href="#DejaVuSans-6c"/>
      <use xlink:href="#DejaVuSans-6f" x="27.783203"/>
      <use xlink:href="#DejaVuSans-67" x="88.964844"/>
      <use xlink:href="#DejaVuSans-31" x="152.441406"/>
      <use xlink:href="#DejaVuSans-30" x="216.064453"/>
      <use xlink:href="#DejaVuSans-20" x="279.6875"/>
      <use xlink:href="#DejaVuSans-6f" x="311.474609"/>
      <use xlink:href="#DejaVuSans-66" x="372.65625"/>
      <use xlink:href="#DejaVuSans-20" x="407.861328"/>
      <use xlink:href="#DejaVuSans-44" x="439.648438"/>
      <use xlink:href="#DejaVuSans-66" x="516.650391"/>
     </g>
    </g>
   </g>
   <g id="matplotlib.axis_2">
    <g id="ytick_1">
     <g id="line2d_9">
      <path d="M 0 293.76 
L 460.8 293.76 
" clip-path="url(#p15c203730c)" style="fill: none; stroke: #b0b0b0; stroke-width: 0.8; stroke-linecap: square"/>
     </g>
     <g id="line2d_10">
      <defs>
       <path id="m551a6898c1" d="M 0 0 
L -3.5 0 
" style="stroke: #000000; stroke-width: 0.8"/>
      </defs>
      <g>
       <use xlink:href="#m551a6898c1" x="0" y="293.76" style="stroke: #000000; stroke-width: 0.8"/>
      </g>
     </g>
    </g>
    <g id="ytick_2">
     <g id="line2d_11">
      <path d="M 0 236.274059 
L 460.8 236.274059 
" clip-path="url(#p15c203730c)" style="fill: none; stroke: #b0b0b0; stroke-width: 0.8; stroke-linecap: square"/>
     </g>
     <g id="line2d_12">
      <g>
       <use xlink:href="#m551a6898c1" x="0" y="236.274059" style="stroke: #000000; stroke-width: 0.8"/>
      </g>
     </g>
    </g>
    <g id="ytick_3">
     <g id="line2d_13">
      <path d="M 0 178.788119 
L 460.8 178.788119 
" clip-path="url(#p15c203730c)" style="fill: none; stroke: #b0b0b0; stroke-width: 0.8; stroke-linecap: square"/>
     </g>
     <g id="line2d_14">
      <g>
       <use xlink:href="#m551a6898c1" x="0" y="178.788119" style="stroke: #000000; stroke-width: 0.8"/>
      </g>
     </g>
    </g>
    <g id="ytick_4">
     <g id="line2d_15">
      <path d="M 0 121.302178 
L 460.8 121.302178 
" clip-path="url(#p15c203730c)" style="fill: none; stroke: #b0b0b0; stroke-width: 0.8; stroke-linecap: square"/>
     </g>
     <g id="line2d_16">
      <g>
       <use xlink:href="#m551a6898c1" x="0" y="121.302178" style="stroke: #000000; stroke-width: 0.8"/>
      </g>
     </g>
    </g>
    <g id="ytick_5">
     <g id="line2d_17">
      <path d="M 0 63.816238 
L 460.8 63.816238 
" clip-path="url(#p15c203730c)" style="fill: none; stroke: #b0b0b0; stroke-width: 0.8; stroke-linecap: square"/>
     </g>
     <g id="line2d_18">
      <g>
       <use xlink:href="#m551a6898c1" x="0" y="63.816238" style="stroke: #000000; stroke-width: 0.8"/>
      </g>
     </g>
    </g>
    <g id="ytick_6">
     <g id="line2d_19">
      <path d="M 0 6.330297 
L 460.8 6.330297 
" clip-path="url(#p15c203730c)" style="fill: none; stroke: #b0b0b0; stroke-width: 0.8; stroke-linecap: square"/>
     </g>
     <g id="line2d_20">
      <g>
       <use xlink:href="#m551a6898c1" x="0" y="6.330297" style="stroke: #000000; stroke-width: 0.8"/>
      </g>
     </g>
    </g>
   </g>
   <g id="line2d_21">
    <path d="M -1 286.095208 
L 199.032707 286.095208 
L 199.032709 266.933228 
L 202.295829 266.933228 
L 202.295829 263.100832 
L 207.425032 263.100832 
L 207.425032 259.268436 
L 207.9302 259.268436 
L 208.023201 243.938851 
L 208.068128 243.938851 
L 208.068128 240.106455 
L 208.410303 240.106455 
L 208.410303 236.274059 
L 208.741389 236.274059 
L 208.741389 232.441663 
L 209.599025 232.441663 
L 209.681689 220.944475 
L 210.090787 220.944475 
L 210.090787 217.112079 
L 210.488532 217.112079 
L 210.491918 197.950099 
L 210.654062 197.950099 
L 210.739419 190.285307 
L 210.818674 190.285307 
L 210.925018 174.955723 
L 210.981043 174.955723 
L 210.981043 171.123327 
L 211.378495 171.123327 
L 211.378495 167.290931 
L 211.720068 167.290931 
L 211.720068 163.458535 
L 212.070548 163.458535 
L 212.070548 159.626139 
L 212.271242 159.626139 
L 212.271242 155.793743 
L 212.479037 155.793743 
L 212.486319 148.12895 
L 212.735921 148.12895 
L 212.735921 144.296554 
L 212.885246 144.296554 
L 212.885246 140.464158 
L 213.507565 140.464158 
L 213.596884 132.799366 
L 213.690907 132.799366 
L 213.746919 125.134574 
L 213.961604 125.134574 
L 214.028012 117.469782 
L 214.324849 117.469782 
L 214.367542 109.80499 
L 214.539925 109.80499 
L 214.539925 105.972594 
L 215.641306 105.972594 
L 215.700772 98.307802 
L 220.988351 98.307802 
L 220.988351 82.978218 
L 224.010898 82.978218 
L 224.010898 79.145822 
L 225.051982 79.145822 
L 225.051982 75.313426 
L 227.015007 75.313426 
L 227.015007 67.648634 
L 229.67386 67.648634 
L 229.67386 63.816238 
L 252.079563 63.816238 
L 252.079563 59.983842 
L 253.76164 59.983842 
L 253.76164 56.151446 
L 254.513285 56.151446 
L 254.513285 52.31905 
L 254.765913 52.31905 
L 254.813565 44.654257 
L 255.126411 44.654257 
L 255.126411 40.821861 
L 255.492695 40.821861 
L 255.525519 33.157069 
L 255.813011 33.157069 
L 255.918225 21.659881 
L 255.929037 21.659881 
L 255.929037 17.827485 
L 256.13612 17.827485 
L 256.13612 13.995089 
L 256.318762 13.995089 
L 256.318762 10.162693 
L 256.433209 10.162693 
L 256.433209 6.330297 
L 256.433209 6.330297 
L 460.8 6.330297 
L 460.8 6.330297 
" clip-path="url(#p15c203730c)" style="fill: none; stroke: #ff0000; stroke-width: 3; stroke-linecap: square"/>
   </g>
   <g id="line2d_22">
    <path d="M 222.032497 293.76 
L 222.032497 289.927604 
L 226.845786 289.927604 
L 226.845786 286.095208 
L 228.023584 286.095208 
L 228.023584 282.262812 
L 228.37502 282.262812 
L 228.37502 278.430416 
L 229.207031 278.430416 
L 229.207031 274.59802 
L 229.502547 274.59802 
L 229.517582 263.100832 
L 230.154233 263.100832 
L 230.154233 259.268436 
L 231.309725 259.268436 
L 231.309725 255.43604 
L 232.680266 255.43604 
L 232.680266 251.603644 
L 233.292558 251.603644 
L 233.352231 243.938851 
L 233.716948 243.938851 
L 233.716948 240.106455 
L 234.083492 240.106455 
L 234.083492 236.274059 
L 249.1917 236.274059 
L 249.1917 232.441663 
L 251.719343 232.441663 
L 251.719343 228.609267 
L 251.86996 228.609267 
L 251.880209 220.944475 
L 251.982778 220.944475 
L 252.091142 205.614891 
L 252.101505 205.614891 
L 252.212567 171.123327 
L 252.220038 171.123327 
L 252.312915 121.302178 
L 287.491946 121.302178 
L 287.491946 117.469782 
L 287.763505 117.469782 
L 287.820355 109.80499 
L 287.979301 109.80499 
L 288.079514 98.307802 
L 288.136311 98.307802 
L 288.136311 94.475406 
L 288.307873 94.475406 
L 288.400211 82.978218 
L 288.449955 82.978218 
L 288.505778 75.313426 
L 288.65508 75.313426 
L 288.764759 63.816238 
L 324.406589 63.816238 
L 324.406589 59.983842 
L 326.602476 59.983842 
L 326.620796 52.31905 
L 327.74895 52.31905 
L 327.74895 48.486653 
L 329.160487 48.486653 
L 329.160487 44.654257 
L 329.291796 44.654257 
L 329.291796 40.821861 
L 331.341165 40.821861 
L 331.350606 33.157069 
L 331.645954 33.157069 
L 331.645954 29.324673 
L 331.761384 29.324673 
L 331.761384 25.492277 
L 332.673265 25.492277 
L 332.673265 21.659881 
L 333.317873 21.659881 
L 333.317873 17.827485 
L 334.984107 17.827485 
L 334.984107 13.995089 
L 335.478 13.995089 
L 335.478 10.162693 
L 335.926639 10.162693 
L 335.926639 6.330297 
L 335.926639 6.330297 
L 460.8 6.330297 
L 460.8 6.330297 
" clip-path="url(#p15c203730c)" style="fill: none; stroke: #00bfbf; stroke-width: 1.5; stroke-linecap: square"/>
   </g>
   <g id="line2d_23">
    <path d="M 222.032497 293.76 
L 222.032497 289.927604 
L 225.428315 289.927604 
L 225.428315 286.095208 
L 226.845786 286.095208 
L 226.845786 282.262812 
L 227.246717 282.262812 
L 227.246717 278.430416 
L 227.638677 278.430416 
L 227.638677 274.59802 
L 227.755863 274.59802 
L 227.755863 270.765624 
L 228.023584 270.765624 
L 228.023584 266.933228 
L 228.37502 266.933228 
L 228.37502 263.100832 
L 229.207031 263.100832 
L 229.207031 259.268436 
L 229.401203 259.268436 
L 229.401203 255.43604 
L 229.73312 255.43604 
L 229.73312 251.603644 
L 231.309725 251.603644 
L 231.309725 247.771248 
L 231.67195 247.771248 
L 231.67195 243.938851 
L 232.193852 243.938851 
L 232.193852 240.106455 
L 232.633893 240.106455 
L 232.633893 236.274059 
L 249.1917 236.274059 
L 249.1917 232.441663 
L 251.198537 232.441663 
L 251.290541 224.776871 
L 251.441374 224.776871 
L 251.534172 217.112079 
L 251.577493 217.112079 
L 251.675635 209.447287 
L 251.717033 209.447287 
L 251.79409 197.950099 
L 251.86996 197.950099 
L 251.980563 171.123327 
L 252.041411 171.123327 
L 252.152152 151.961347 
L 252.158338 151.961347 
L 252.266229 125.134574 
L 252.28725 125.134574 
L 252.28725 121.302178 
L 271.383654 121.302178 
L 271.383654 117.469782 
L 271.952702 117.469782 
L 271.952702 113.637386 
L 272.618009 113.637386 
L 272.618009 109.80499 
L 272.98279 109.80499 
L 272.98279 105.972594 
L 273.418901 105.972594 
L 273.418901 102.140198 
L 273.620902 102.140198 
L 273.726199 94.475406 
L 273.735989 94.475406 
L 273.735989 90.64301 
L 274.116989 90.64301 
L 274.221214 82.978218 
L 274.721504 82.978218 
L 274.782887 71.48103 
L 274.863454 71.48103 
L 274.863454 67.648634 
L 275.05924 67.648634 
L 275.05924 63.816238 
L 310.318062 63.816238 
L 310.318062 59.983842 
L 323.766966 59.983842 
L 323.766966 56.151446 
L 324.406589 56.151446 
L 324.406589 52.31905 
L 326.602476 52.31905 
L 326.620796 44.654257 
L 327.634425 44.654257 
L 327.634425 40.821861 
L 327.74895 40.821861 
L 327.74895 36.989465 
L 328.424062 36.989465 
L 328.424062 33.157069 
L 329.291796 33.157069 
L 329.291796 29.324673 
L 330.026878 29.324673 
L 330.026878 25.492277 
L 331.350606 25.492277 
L 331.350606 21.659881 
L 331.761384 21.659881 
L 331.761384 17.827485 
L 333.263795 17.827485 
L 333.317873 10.162693 
L 334.308619 10.162693 
L 334.308619 6.330297 
L 334.308619 6.330297 
L 460.8 6.330297 
L 460.8 6.330297 
" clip-path="url(#p15c203730c)" style="fill: none; stroke: #bf00bf; stroke-width: 1.5; stroke-linecap: square"/>
   </g>
   <g id="line2d_24">
    <path d="M 222.032497 293.76 
L 222.032497 289.927604 
L 223.181549 289.927604 
L 223.181549 286.095208 
L 224.150007 286.095208 
L 224.150007 282.262812 
L 225.204415 282.262812 
L 225.204415 278.430416 
L 225.428315 278.430416 
L 225.428315 274.59802 
L 226.262482 274.59802 
L 226.262482 270.765624 
L 226.845786 270.765624 
L 226.845786 266.933228 
L 227.246717 266.933228 
L 227.246717 263.100832 
L 227.494963 263.100832 
L 227.494963 259.268436 
L 227.638677 259.268436 
L 227.715699 251.603644 
L 227.755863 251.603644 
L 227.755863 247.771248 
L 228.023584 247.771248 
L 228.114717 240.106455 
L 229.401203 240.106455 
L 229.401203 236.274059 
L 249.1917 236.274059 
L 249.1917 232.441663 
L 249.988252 232.441663 
L 249.988252 228.609267 
L 250.883914 228.609267 
L 250.883914 224.776871 
L 251.064335 224.776871 
L 251.064335 220.944475 
L 251.1802 220.944475 
L 251.290541 197.950099 
L 251.441374 197.950099 
L 251.510495 182.620515 
L 251.611373 182.620515 
L 251.716653 163.458535 
L 251.738162 163.458535 
L 251.769569 151.961347 
L 251.86996 151.961347 
L 251.96909 136.631762 
L 252.027612 136.631762 
L 252.038624 128.96697 
L 252.152152 128.96697 
L 252.160682 121.302178 
L 271.383654 121.302178 
L 271.383654 117.469782 
L 271.952702 117.469782 
L 271.952702 113.637386 
L 272.143271 113.637386 
L 272.143271 109.80499 
L 272.618009 109.80499 
L 272.618009 105.972594 
L 272.783712 105.972594 
L 272.783712 102.140198 
L 272.98279 102.140198 
L 272.98279 98.307802 
L 273.418901 98.307802 
L 273.418901 94.475406 
L 273.546271 94.475406 
L 273.546271 90.64301 
L 273.691321 90.64301 
L 273.735989 79.145822 
L 274.219721 79.145822 
L 274.221214 71.48103 
L 274.338587 71.48103 
L 274.338587 67.648634 
L 274.721504 67.648634 
L 274.721504 63.816238 
L 310.318062 63.816238 
L 310.318062 59.983842 
L 317.398617 59.983842 
L 317.398617 56.151446 
L 320.637394 56.151446 
L 320.637394 52.31905 
L 321.712595 52.31905 
L 321.712595 48.486653 
L 322.875209 48.486653 
L 322.875209 44.654257 
L 323.128928 44.654257 
L 323.128928 40.821861 
L 325.110514 40.821861 
L 325.110514 36.989465 
L 326.151515 36.989465 
L 326.151515 33.157069 
L 326.478588 33.157069 
L 326.490431 25.492277 
L 326.716773 25.492277 
L 326.716773 21.659881 
L 327.74895 21.659881 
L 327.74895 17.827485 
L 328.204966 17.827485 
L 328.204966 13.995089 
L 328.83692 13.995089 
L 328.885377 6.330297 
L 328.885377 6.330297 
L 460.8 6.330297 
L 460.8 6.330297 
" clip-path="url(#p15c203730c)" style="fill: none; stroke: #000000; stroke-width: 1.5; stroke-linecap: square"/>
   </g>
   <g id="line2d_25">
    <path d="M 218.398928 293.76 
L 218.398928 289.927604 
L 219.752003 289.927604 
L 219.752003 286.095208 
L 219.935694 286.095208 
L 219.935694 282.262812 
L 220.239222 282.262812 
L 220.239222 278.430416 
L 221.086798 278.430416 
L 221.190044 270.765624 
L 221.32792 270.765624 
L 221.32792 266.933228 
L 221.453157 266.933228 
L 221.453157 263.100832 
L 221.625568 263.100832 
L 221.625568 259.268436 
L 221.795505 259.268436 
L 221.795505 255.43604 
L 222.671565 255.43604 
L 222.671565 251.603644 
L 222.850226 251.603644 
L 222.850226 247.771248 
L 224.166837 247.771248 
L 224.166837 243.938851 
L 224.328607 243.938851 
L 224.328607 240.106455 
L 226.46933 240.106455 
L 226.46933 236.274059 
L 241.382865 236.274059 
L 241.382865 232.441663 
L 243.478607 232.441663 
L 243.478607 228.609267 
L 244.06579 228.609267 
L 244.06579 224.776871 
L 244.249651 224.776871 
L 244.249651 220.944475 
L 244.529102 220.944475 
L 244.583791 213.279683 
L 245.114038 213.279683 
L 245.114038 209.447287 
L 245.950992 209.447287 
L 245.950992 205.614891 
L 246.954904 205.614891 
L 246.954904 201.782495 
L 247.184507 201.782495 
L 247.184507 197.950099 
L 247.658749 197.950099 
L 247.747882 190.285307 
L 248.135315 190.285307 
L 248.219249 182.620515 
L 248.264382 182.620515 
L 248.334607 174.955723 
L 248.808237 174.955723 
L 248.894649 167.290931 
L 248.941112 167.290931 
L 248.941112 163.458535 
L 249.400022 163.458535 
L 249.400022 159.626139 
L 249.58424 159.626139 
L 249.669523 151.961347 
L 249.702757 151.961347 
L 249.807689 144.296554 
L 249.816364 144.296554 
L 249.816364 140.464158 
L 249.943894 140.464158 
L 249.943894 136.631762 
L 250.115912 136.631762 
L 250.170358 128.96697 
L 250.381472 128.96697 
L 250.381472 125.134574 
L 250.683902 125.134574 
L 250.683902 121.302178 
L 263.766413 121.302178 
L 263.766413 117.469782 
L 264.142038 117.469782 
L 264.142038 113.637386 
L 264.26769 113.637386 
L 264.345402 105.972594 
L 264.528177 105.972594 
L 264.538704 98.307802 
L 264.967336 98.307802 
L 265.016284 86.810614 
L 265.094836 86.810614 
L 265.097352 79.145822 
L 265.328993 79.145822 
L 265.395786 71.48103 
L 266.301605 71.48103 
L 266.301605 67.648634 
L 266.586013 67.648634 
L 266.586013 63.816238 
L 292.171423 63.816238 
L 292.171423 59.983842 
L 293.199269 59.983842 
L 293.199269 56.151446 
L 295.013632 56.151446 
L 295.013632 52.31905 
L 297.584305 52.31905 
L 297.584305 48.486653 
L 298.043054 48.486653 
L 298.043054 44.654257 
L 300.667057 44.654257 
L 300.667057 40.821861 
L 301.219505 40.821861 
L 301.219505 36.989465 
L 301.57541 36.989465 
L 301.584585 29.324673 
L 302.061983 29.324673 
L 302.061983 25.492277 
L 302.802556 25.492277 
L 302.802556 21.659881 
L 307.443372 21.659881 
L 307.443372 17.827485 
L 307.88216 17.827485 
L 307.88216 13.995089 
L 313.649384 13.995089 
L 313.649384 10.162693 
L 314.869271 10.162693 
L 314.869271 6.330297 
L 314.869271 6.330297 
L 460.8 6.330297 
L 460.8 6.330297 
" clip-path="url(#p15c203730c)" style="fill: none; stroke: #00bfbf; stroke-width: 1.5; stroke-linecap: square"/>
   </g>
   <g id="line2d_26">
    <path d="M 199.032778 293.76 
L 199.032859 286.095208 
L 202.381064 286.095208 
L 202.381064 282.262812 
L 207.453028 282.262812 
L 207.453028 278.430416 
L 208.11318 278.430416 
L 208.11318 274.59802 
L 209.599121 274.59802 
L 209.599167 266.933228 
L 209.832795 266.933228 
L 209.832795 263.100832 
L 210.439188 263.100832 
L 210.491789 251.603644 
L 210.704708 251.603644 
L 210.704708 247.771248 
L 210.98452 247.771248 
L 210.98452 243.938851 
L 211.220186 243.938851 
L 211.220186 240.106455 
L 211.759822 240.106455 
L 211.759822 236.274059 
L 212.004307 236.274059 
L 212.070596 228.609267 
L 212.343842 228.609267 
L 212.343842 224.776871 
L 212.886128 224.776871 
L 212.900172 217.112079 
L 213.084541 217.112079 
L 213.106253 205.614891 
L 213.24683 205.614891 
L 213.313146 197.950099 
L 213.59884 197.950099 
L 213.651948 190.285307 
L 214.028012 190.285307 
L 214.028012 186.452911 
L 217.183842 186.452911 
L 217.220336 178.788119 
L 217.306966 178.788119 
L 217.389287 171.123327 
L 217.474879 171.123327 
L 217.474879 167.290931 
L 217.778981 167.290931 
L 217.778981 163.458535 
L 218.31856 163.458535 
L 218.31856 159.626139 
L 218.937104 159.626139 
L 218.937104 155.793743 
L 219.155708 155.793743 
L 219.240957 148.12895 
L 219.485099 148.12895 
L 219.485099 144.296554 
L 219.620876 144.296554 
L 219.623158 136.631762 
L 220.425488 136.631762 
L 220.425488 132.799366 
L 220.988368 132.799366 
L 221.021345 121.302178 
L 222.452835 121.302178 
L 222.452835 117.469782 
L 224.580887 117.469782 
L 224.580887 113.637386 
L 225.051993 113.637386 
L 225.051993 109.80499 
L 226.585681 109.80499 
L 226.585681 105.972594 
L 227.015011 105.972594 
L 227.015012 94.475406 
L 228.420209 94.475406 
L 228.420209 90.64301 
L 229.673882 90.64301 
L 229.673882 86.810614 
L 239.116682 86.810614 
L 239.116682 82.978218 
L 240.646634 82.978218 
L 240.646659 75.313426 
L 242.617415 75.313426 
L 242.617415 71.48103 
L 243.556946 71.48103 
L 243.556946 67.648634 
L 246.287592 67.648634 
L 246.287592 63.816238 
L 255.492695 63.816238 
L 255.492695 59.983842 
L 256.219375 59.983842 
L 256.219375 56.151446 
L 257.029805 56.151446 
L 257.029805 52.31905 
L 258.377064 52.31905 
L 258.482616 40.821861 
L 258.581016 40.821861 
L 258.581016 36.989465 
L 259.063284 36.989465 
L 259.063284 33.157069 
L 259.17909 33.157069 
L 259.251103 21.659881 
L 259.336701 21.659881 
L 259.339707 13.995089 
L 259.720517 13.995089 
L 259.745343 6.330297 
L 259.745343 6.330297 
L 460.8 6.330297 
L 460.8 6.330297 
" clip-path="url(#p15c203730c)" style="fill: none; stroke: #bf00bf; stroke-width: 1.5; stroke-linecap: square"/>
   </g>
   <g id="line2d_27">
    <path d="M -1 286.095208 
L 199.032707 286.095208 
L 199.032709 266.933228 
L 202.295829 266.933228 
L 202.295829 263.100832 
L 207.425032 263.100832 
L 207.425032 259.268436 
L 207.9302 259.268436 
L 208.023201 243.938851 
L 208.068128 243.938851 
L 208.068128 240.106455 
L 208.410303 240.106455 
L 208.410303 236.274059 
L 208.741389 236.274059 
L 208.741389 232.441663 
L 209.599025 232.441663 
L 209.681689 220.944475 
L 210.090787 220.944475 
L 210.090787 217.112079 
L 210.488532 217.112079 
L 210.491918 197.950099 
L 210.654062 197.950099 
L 210.739419 190.285307 
L 210.818674 190.285307 
L 210.925018 174.955723 
L 210.981043 174.955723 
L 210.981043 171.123327 
L 211.378495 171.123327 
L 211.378495 167.290931 
L 211.720068 167.290931 
L 211.720068 163.458535 
L 212.070548 163.458535 
L 212.070548 159.626139 
L 212.271242 159.626139 
L 212.271242 155.793743 
L 212.479037 155.793743 
L 212.486319 148.12895 
L 212.735921 148.12895 
L 212.735921 144.296554 
L 212.885246 144.296554 
L 212.885246 140.464158 
L 213.507565 140.464158 
L 213.596884 132.799366 
L 213.690907 132.799366 
L 213.746919 125.134574 
L 213.961604 125.134574 
L 214.028012 117.469782 
L 214.324849 117.469782 
L 214.367542 109.80499 
L 214.539925 109.80499 
L 214.539925 105.972594 
L 215.641306 105.972594 
L 215.700772 98.307802 
L 220.988351 98.307802 
L 220.988351 82.978218 
L 224.010898 82.978218 
L 224.010898 79.145822 
L 225.051982 79.145822 
L 225.051982 75.313426 
L 227.015007 75.313426 
L 227.015007 67.648634 
L 229.67386 67.648634 
L 229.67386 63.816238 
L 252.079563 63.816238 
L 252.079563 59.983842 
L 253.76164 59.983842 
L 253.76164 56.151446 
L 254.513285 56.151446 
L 254.513285 52.31905 
L 254.765913 52.31905 
L 254.813565 44.654257 
L 255.126411 44.654257 
L 255.126411 40.821861 
L 255.492695 40.821861 
L 255.525519 33.157069 
L 255.813011 33.157069 
L 255.918225 21.659881 
L 255.929037 21.659881 
L 255.929037 17.827485 
L 256.13612 17.827485 
L 256.13612 13.995089 
L 256.318762 13.995089 
L 256.318762 10.162693 
L 256.433209 10.162693 
L 256.433209 6.330297 
L 256.433209 6.330297 
L 460.8 6.330297 
L 460.8 6.330297 
" clip-path="url(#p15c203730c)" style="fill: none; stroke: #000000; stroke-width: 1.5; stroke-linecap: square"/>
   </g>
   <g id="patch_3">
    <path d="M 0 293.76 
L 0 3.456 
" style="fill: none; stroke: #000000; stroke-width: 0.8; stroke-linejoin: miter; stroke-linecap: square"/>
   </g>
   <g id="patch_4">
    <path d="M 460.8 293.76 
L 460.8 3.456 
" style="fill: none; stroke: #000000; stroke-width: 0.8; stroke-linejoin: miter; stroke-linecap: square"/>
   </g>
   <g id="patch_5">
    <path d="M 0 293.76 
L 460.8 293.76 
" style="fill: none; stroke: #000000; stroke-width: 0.8; stroke-linejoin: miter; stroke-linecap: square"/>
   </g>
   <g id="patch_6">
    <path d="M 0 3.456 
L 460.8 3.456 
" style="fill: none; stroke: #000000; stroke-width: 0.8; stroke-linejoin: miter; stroke-linecap: square"/>
   </g>
   <g id="text_6">
    <!-- {f20-f24}, 20-D -->
    <g transform="translate(293.159 287.95392) scale(0.2 -0.2)">
     <defs>
      <path id="DejaVuSans-7b" d="M 3272 -594 
L 3272 -1044 
L 3078 -1044 
Q 2300 -1044 2036 -812 
Q 1772 -581 1772 109 
L 1772 856 
Q 1772 1328 1603 1509 
Q 1434 1691 991 1691 
L 800 1691 
L 800 2138 
L 991 2138 
Q 1438 2138 1605 2317 
Q 1772 2497 1772 2963 
L 1772 3713 
Q 1772 4403 2036 4633 
Q 2300 4863 3078 4863 
L 3272 4863 
L 3272 4416 
L 3059 4416 
Q 2619 4416 2484 4278 
Q 2350 4141 2350 3700 
L 2350 2925 
Q 2350 2434 2208 2212 
Q 2066 1991 1722 1913 
Q 2069 1828 2209 1606 
Q 2350 1384 2350 897 
L 2350 122 
Q 2350 -319 2484 -456 
Q 2619 -594 3059 -594 
L 3272 -594 
z
" transform="scale(0.015625)"/>
      <path id="DejaVuSans-32" d="M 1228 531 
L 3431 531 
L 3431 0 
L 469 0 
L 469 531 
Q 828 903 1448 1529 
Q 2069 2156 2228 2338 
Q 2531 2678 2651 2914 
Q 2772 3150 2772 3378 
Q 2772 3750 2511 3984 
Q 2250 4219 1831 4219 
Q 1534 4219 1204 4116 
Q 875 4013 500 3803 
L 500 4441 
Q 881 4594 1212 4672 
Q 1544 4750 1819 4750 
Q 2544 4750 2975 4387 
Q 3406 4025 3406 3419 
Q 3406 3131 3298 2873 
Q 3191 2616 2906 2266 
Q 2828 2175 2409 1742 
Q 1991 1309 1228 531 
z
" transform="scale(0.015625)"/>
      <path id="DejaVuSans-7d" d="M 800 -594 
L 1019 -594 
Q 1456 -594 1589 -459 
Q 1722 -325 1722 122 
L 1722 897 
Q 1722 1384 1862 1606 
Q 2003 1828 2350 1913 
Q 2003 1991 1862 2212 
Q 1722 2434 1722 2925 
L 1722 3700 
Q 1722 4144 1589 4280 
Q 1456 4416 1019 4416 
L 800 4416 
L 800 4863 
L 997 4863 
Q 1775 4863 2036 4633 
Q 2297 4403 2297 3713 
L 2297 2963 
Q 2297 2497 2465 2317 
Q 2634 2138 3078 2138 
L 3272 2138 
L 3272 1691 
L 3078 1691 
Q 2634 1691 2465 1509 
Q 2297 1328 2297 856 
L 2297 109 
Q 2297 -581 2036 -812 
Q 1775 -1044 997 -1044 
L 800 -1044 
L 800 -594 
z
" transform="scale(0.015625)"/>
      <path id="DejaVuSans-2c" d="M 750 794 
L 1409 794 
L 1409 256 
L 897 -744 
L 494 -744 
L 750 256 
L 750 794 
z
" transform="scale(0.015625)"/>
     </defs>
     <use xlink:href="#DejaVuSans-7b"/>
     <use xlink:href="#DejaVuSans-66" x="63.623047"/>
     <use xlink:href="#DejaVuSans-32" x="98.828125"/>
     <use xlink:href="#DejaVuSans-30" x="162.451172"/>
     <use xlink:href="#DejaVuSans-2d" x="226.074219"/>
     <use xlink:href="#DejaVuSans-66" x="262.158203"/>
     <use xlink:href="#DejaVuSans-32" x="297.363281"/>
     <use xlink:href="#DejaVuSans-34" x="360.986328"/>
     <use xlink:href="#DejaVuSans-7d" x="424.609375"/>
     <use xlink:href="#DejaVuSans-2c" x="488.232422"/>
     <use xlink:href="#DejaVuSans-20" x="520.019531"/>
     <use xlink:href="#DejaVuSans-32" x="551.806641"/>
     <use xlink:href="#DejaVuSans-30" x="615.429688"/>
     <use xlink:href="#DejaVuSans-2d" x="679.052734"/>
     <use xlink:href="#DejaVuSans-44" x="715.136719"/>
    </g>
   </g>
   <g id="text_7">
    <!-- v2.6.3 -->
    <g style="fill: #808080" transform="translate(214.71875 288.777272) scale(0.1 -0.1)">
     <defs>
      <path id="DejaVuSans-76" d="M 191 3500 
L 800 3500 
L 1894 563 
L 2988 3500 
L 3597 3500 
L 2284 0 
L 1503 0 
L 191 3500 
z
" transform="scale(0.015625)"/>
      <path id="DejaVuSans-2e" d="M 684 794 
L 1344 794 
L 1344 0 
L 684 0 
L 684 794 
z
" transform="scale(0.015625)"/>
      <path id="DejaVuSans-36" d="M 2113 2584 
Q 1688 2584 1439 2293 
Q 1191 2003 1191 1497 
Q 1191 994 1439 701 
Q 1688 409 2113 409 
Q 2538 409 2786 701 
Q 3034 994 3034 1497 
Q 3034 2003 2786 2293 
Q 2538 2584 2113 2584 
z
M 3366 4563 
L 3366 3988 
Q 3128 4100 2886 4159 
Q 2644 4219 2406 4219 
Q 1781 4219 1451 3797 
Q 1122 3375 1075 2522 
Q 1259 2794 1537 2939 
Q 1816 3084 2150 3084 
Q 2853 3084 3261 2657 
Q 3669 2231 3669 1497 
Q 3669 778 3244 343 
Q 2819 -91 2113 -91 
Q 1303 -91 875 529 
Q 447 1150 447 2328 
Q 447 3434 972 4092 
Q 1497 4750 2381 4750 
Q 2619 4750 2861 4703 
Q 3103 4656 3366 4563 
z
" transform="scale(0.015625)"/>
      <path id="DejaVuSans-33" d="M 2597 2516 
Q 3050 2419 3304 2112 
Q 3559 1806 3559 1356 
Q 3559 666 3084 287 
Q 2609 -91 1734 -91 
Q 1441 -91 1130 -33 
Q 819 25 488 141 
L 488 750 
Q 750 597 1062 519 
Q 1375 441 1716 441 
Q 2309 441 2620 675 
Q 2931 909 2931 1356 
Q 2931 1769 2642 2001 
Q 2353 2234 1838 2234 
L 1294 2234 
L 1294 2753 
L 1863 2753 
Q 2328 2753 2575 2939 
Q 2822 3125 2822 3475 
Q 2822 3834 2567 4026 
Q 2313 4219 1838 4219 
Q 1578 4219 1281 4162 
Q 984 4106 628 3988 
L 628 4550 
Q 988 4650 1302 4700 
Q 1616 4750 1894 4750 
Q 2613 4750 3031 4423 
Q 3450 4097 3450 3541 
Q 3450 3153 3228 2886 
Q 3006 2619 2597 2516 
z
" transform="scale(0.015625)"/>
     </defs>
     <use xlink:href="#DejaVuSans-76"/>
     <use xlink:href="#DejaVuSans-32" x="59.179688"/>
     <use xlink:href="#DejaVuSans-2e" x="122.802734"/>
     <use xlink:href="#DejaVuSans-36" x="154.589844"/>
     <use xlink:href="#DejaVuSans-2e" x="218.212891"/>
     <use xlink:href="#DejaVuSans-33" x="250"/>
    </g>
   </g>
  </g>
 </g>
 <defs>
  <clipPath id="p15c203730c">
   <rect x="0" y="3.456" width="460.8" height="290.304"/>
  </clipPath>
 </defs>
</svg>
